<?xml version="1.0" ?>
<svg xmlns="http://www.w3.org/2000/svg" version="1.1" width="512" height="512">
  <defs/>
  <g>
    <path d="M -2.9385769367218018 -4.113506317138672 C -1.2029756307601929 170.3333282470703 -0.39920684695243835 340.6666564941406 -0.7151286602020264 515.7321166992188 C 170.20167541503906 515.8863525390625 340.99749755859375 515.8931274414062 517.0902099609375 515.9405517578125 C 517.1376342773438 340.9822692871094 516.9266357421875 170.50648498535156 516.7785034179688 -4.067752838134766 C 340.477783203125 -4.421812534332275 169.95997619628906 -4.154578685760498 -2.9385769367218018 -4.113506317138672" stroke-width="0.0" fill="rgb(55, 54, 52)" opacity="1.1089061" stroke="rgb(0, 0, 0)" stroke-opacity="1.0" stroke-linecap="round" stroke-linejoin="round"/>
    <path d="M 289.29486083984375 218.17822265625 C 283.78680419921875 223.2747802734375 278.4270324707031 228.0850067138672 275.6799011230469 237.58872985839844 C 274.1624755859375 247.85948181152344 275.53509521484375 259.7647399902344 275.86541748046875 269.94622802734375 C 290.9938049316406 296.4555358886719 296.03619384765625 332.09027099609375 308.80194091796875 362.3236999511719 C 317.7459716796875 375.4858703613281 330.55908203125 384.6051025390625 341.18572998046875 396.3166809082031 C 339.5671691894531 400.3441467285156 334.2447814941406 401.8836364746094 328.53485107421875 404.0373229980469 C 316.6583251953125 406.49267578125 303.5484313964844 405.4485168457031 304.9866638183594 408.4515686035156 C 293.10516357421875 437.7745361328125 278.78839111328125 458.24200439453125 266.3611145019531 481.98602294921875 C 265.6755676269531 491.3919677734375 268.969970703125 499.05810546875 270.05023193359375 517.07421875 C 337.3723449707031 518.0628051757812 413.5971984863281 518.438720703125 495.9619445800781 518.9749755859375 C 490.4661865234375 485.2089538574219 482.36688232421875 464.440673828125 473.89593505859375 445.1064758300781 C 477.03741455078125 417.9214782714844 477.69049072265625 389.2672424316406 480.16217041015625 361.1031188964844 C 468.0054931640625 331.3571472167969 453.593505859375 305.5832214355469 435.4710998535156 281.7832336425781 C 418.2712097167969 266.0604553222656 400.5597839355469 249.87648010253906 384.22381591796875 230.582275390625 C 372.5641174316406 227.63243103027344 362.01910400390625 219.8108673095703 349.2396545410156 214.00645446777344 C 337.7384033203125 210.22122192382812 325.9427185058594 207.24880981445312 313.9461975097656 208.08277893066406 C 302.4788513183594 209.87496948242188 296.1053161621094 214.42510986328125 289.29486083984375 218.17822265625" stroke-width="0.0" fill="rgb(63, 63, 61)" opacity="1.023205" stroke="rgb(0, 0, 0)" stroke-opacity="1.0" stroke-linecap="round" stroke-linejoin="round"/>
    <path d="M 216.04766845703125 -4.143520355224609 C 216.38539123535156 53.66754913330078 217.07582092285156 108.61305236816406 217.43637084960938 161.84202575683594 C 240.34156799316406 152.49142456054688 258.719970703125 140.73924255371094 278.2912902832031 128.22195434570312 C 285.97528076171875 114.30827331542969 290.697998046875 95.44703674316406 301.3005065917969 82.91748046875 C 309.11627197265625 72.96507263183594 322.93212890625 71.6416015625 334.7464599609375 66.61566162109375 C 340.4861145019531 67.76123046875 349.52301025390625 70.27403259277344 355.8408508300781 78.51260375976562 C 363.55975341796875 86.17764282226562 367.663818359375 101.41481018066406 369.90948486328125 118.28334045410156 C 383.2254638671875 121.99694061279297 399.0876770019531 116.40726470947266 408.62249755859375 122.2401351928711 C 424.5926818847656 126.92375946044922 435.58099365234375 135.76394653320312 443.6712951660156 149.204345703125 C 466.45404052734375 149.0565643310547 488.6639099121094 148.79786682128906 516.5333862304688 151.302734375 C 516.6637573242188 101.31106567382812 516.1282958984375 50.53044128417969 515.637939453125 -3.48043155670166 C 413.6519470214844 -3.9340639114379883 316.291748046875 -4.131593227386475 216.04766845703125 -4.143520355224609" stroke-width="0.0" fill="rgb(134, 133, 131)" opacity="0.99537754" stroke="rgb(0, 0, 0)" stroke-opacity="1.0" stroke-linecap="round" stroke-linejoin="round"/>
    <path d="M 130.8891143798828 237.88436889648438 C 120.94063568115234 234.30018615722656 116.76812744140625 239.27479553222656 110.77740478515625 245.34439086914062 C 99.88240814208984 258.20147705078125 93.16072845458984 274.7105407714844 88.78247833251953 294.0267028808594 C 80.51009368896484 292.9345703125 73.18505859375 291.8703918457031 66.61786651611328 292.208740234375 C 57.146881103515625 291.0661315917969 52.50859451293945 282.1513671875 46.40566635131836 275.1408386230469 C 38.642154693603516 281.0089111328125 34.96684646606445 282.3853759765625 32.10244369506836 282.2734680175781 C 23.119596481323242 296.55059814453125 15.473726272583008 314.0664978027344 0.6256321668624878 336.0321044921875 C -5.937753677368164 362.71917724609375 -7.047364234924316 405.75421142578125 -7.531907081604004 446.895751953125 C 8.166020393371582 450.4176025390625 11.12975025177002 453.39935302734375 17.925146102905273 452.06646728515625 C 35.021793365478516 459.10418701171875 52.93696212768555 465.7950134277344 71.04739379882812 471.1943359375 C 92.82331085205078 472.0723571777344 121.44009399414062 472.5500183105469 143.62571716308594 474.0747985839844 C 136.740234375 482.2077941894531 129.86447143554688 476.795166015625 121.72652435302734 472.7742919921875 C 115.81822204589844 458.8480529785156 101.80504608154297 456.40753173828125 84.66770935058594 456.1718444824219 C 92.80545043945312 451.0921325683594 102.49275970458984 452.4756164550781 112.7222671508789 451.5736083984375 C 117.60833740234375 451.18743896484375 119.15052795410156 447.95355224609375 121.40379333496094 443.4900817871094 C 122.40526580810547 416.66448974609375 117.98986053466797 393.0982666015625 119.03636932373047 366.8316650390625 C 131.6864013671875 339.35113525390625 148.11849975585938 316.9063415527344 164.9460906982422 295.2598876953125 C 165.37428283691406 279.0957946777344 166.50277709960938 266.5137634277344 161.56138610839844 258.717041015625 C 154.6703338623047 247.3972930908203 144.85128784179688 240.88385009765625 130.8891143798828 237.88436889648438" stroke-width="0.0" fill="rgb(112, 111, 109)" opacity="0.99258727" stroke="rgb(0, 0, 0)" stroke-opacity="1.0" stroke-linecap="round" stroke-linejoin="round"/>
    <path d="M 211.64540100097656 276.0675964355469 C 200.02220153808594 285.452880859375 190.98074340820312 297.8600158691406 187.82106018066406 317.445556640625 C 198.2204132080078 343.291015625 213.94715881347656 365.0173645019531 232.8540802001953 384.72802734375 C 236.09896850585938 386.44110107421875 236.61151123046875 393.3625793457031 240.41683959960938 392.3106994628906 C 266.234130859375 388.93170166015625 284.0010681152344 396.9083557128906 310.1410827636719 396.2833251953125 C 308.3548583984375 365.9649658203125 299.58978271484375 346.7751770019531 294.4831237792969 323.7610168457031 C 289.6381530761719 306.0186462402344 281.4137878417969 291.40814208984375 273.33294677734375 275.6637268066406 C 266.2138366699219 269.7438049316406 255.9307098388672 265.70416259765625 241.83270263671875 262.59307861328125 C 229.7406005859375 262.3689270019531 220.47610473632812 269.1065979003906 211.64540100097656 276.0675964355469" stroke-width="0.0" fill="rgb(37, 37, 35)" opacity="0.9509384" stroke="rgb(0, 0, 0)" stroke-opacity="1.0" stroke-linecap="round" stroke-linejoin="round"/>
    <path d="M 443.9519348144531 147.39785766601562 C 455.0141906738281 171.1135711669922 463.66265869140625 196.0023956298828 470.4894104003906 223.67059326171875 C 466.00665283203125 227.54676818847656 455.5892028808594 224.09922790527344 446.31939697265625 228.3519287109375 C 439.7957458496094 240.34397888183594 439.3177185058594 258.1755065917969 438.1536865234375 279.247802734375 C 456.21942138671875 303.1992492675781 470.4233703613281 332.3331298828125 487.4596252441406 361.55487060546875 C 497.7410888671875 346.9452819824219 498.34429931640625 331.35589599609375 498.2109375 309.009521484375 C 498.660888671875 308.2854919433594 504.8045654296875 307.40185546875 516.1735229492188 310.49859619140625 C 516.1138916015625 256.54315185546875 516.1387329101562 205.23341369628906 516.3932495117188 153.1309814453125 C 490.0998840332031 150.05296325683594 470.4669494628906 145.2998504638672 443.9519348144531 147.39785766601562" stroke-width="0.0" fill="rgb(197, 196, 193)" opacity="0.992895" stroke="rgb(0, 0, 0)" stroke-opacity="1.0" stroke-linecap="round" stroke-linejoin="round"/>
    <path d="M -4.528787612915039 441.6454162597656 C -4.667434215545654 463.6666564941406 -3.1546199321746826 487.3403625488281 -2.0198814868927 516.8035278320312 C 72.35489654541016 517.2153930664062 142.08631896972656 517.5029907226562 214.8687744140625 515.548095703125 C 186.13075256347656 490.3926696777344 153.97499084472656 479.1700744628906 130.81825256347656 460.4835205078125 C 108.80225372314453 457.7010803222656 87.29801177978516 455.8617248535156 66.7857894897461 452.8821716308594 C 50.21377944946289 446.825439453125 33.8087272644043 440.1347351074219 14.901965141296387 433.7310485839844 C 8.838769912719727 433.75042724609375 5.436168670654297 437.8694763183594 -4.528787612915039 441.6454162597656" stroke-width="0.0" fill="rgb(96, 96, 94)" opacity="1.0044098" stroke="rgb(0, 0, 0)" stroke-opacity="1.0" stroke-linecap="round" stroke-linejoin="round"/>
    <path d="M 218.4273223876953 -3.7273247241973877 C 202.9626007080078 -4.027560710906982 188.27474975585938 -3.087214231491089 174.78457641601562 0.1830156445503235 C 180.98898315429688 3.846813917160034 181.28379821777344 12.380553245544434 182.95822143554688 28.175682067871094 C 179.56338500976562 95.4116439819336 174.98484802246094 165.99688720703125 170.29037475585938 237.22915649414062 C 169.1195831298828 253.0860137939453 171.1641845703125 268.4079895019531 173.57882690429688 283.8827819824219 C 187.58172607421875 268.0379943847656 202.0877227783203 254.63189697265625 212.19984436035156 239.2985076904297 C 202.35972595214844 233.1358642578125 205.39837646484375 222.75613403320312 202.7841033935547 216.15670776367188 C 205.25436401367188 197.50643920898438 210.94737243652344 179.11233520507812 215.38670349121094 158.70254516601562 C 216.08624267578125 106.5811996459961 217.1374053955078 54.00874328613281 218.4273223876953 -3.7273247241973877" stroke-width="0.0" fill="rgb(71, 70, 68)" opacity="0.9970017" stroke="rgb(0, 0, 0)" stroke-opacity="1.0" stroke-linecap="round" stroke-linejoin="round"/>
    <path d="M 402.4483337402344 125.33548736572266 C 393.8289794921875 126.01780700683594 393.09869384765625 132.32220458984375 390.3056335449219 140.19090270996094 C 387.56585693359375 149.4424285888672 387.370849609375 162.03761291503906 383.8207702636719 173.9429931640625 C 384.1357727050781 194.20968627929688 383.2072448730469 211.3926544189453 385.8858642578125 221.55128479003906 C 394.7484436035156 230.63778686523438 395.9423828125 244.05126953125 404.63702392578125 249.2632598876953 C 413.2923278808594 258.2735290527344 422.0021667480469 267.2388000488281 435.38006591796875 273.99920654296875 C 438.6380920410156 258.79266357421875 439.62530517578125 241.0685272216797 444.75885009765625 225.11428833007812 C 454.23907470703125 219.5578155517578 468.0879211425781 226.7304229736328 468.4847106933594 220.8066864013672 C 460.5387878417969 188.6900177001953 451.7208251953125 164.0227508544922 439.463134765625 144.67787170410156 C 433.9603271484375 138.50704956054688 429.75592041015625 132.0185546875 421.84619140625 130.02073669433594 C 415.3258056640625 127.56758117675781 409.8405456542969 124.29125213623047 402.4483337402344 125.33548736572266" stroke-width="0.0" fill="rgb(58, 58, 56)" opacity="0.93737084" stroke="rgb(0, 0, 0)" stroke-opacity="1.0" stroke-linecap="round" stroke-linejoin="round"/>
    <path d="M -3.074659585952759 76.77985382080078 C -4.733026027679443 163.739013671875 -4.826815605163574 247.98313903808594 -3.5189781188964844 334.038330078125 C 9.38812255859375 320.9556579589844 14.761236190795898 308.94342041015625 21.925281524658203 297.9811096191406 C 26.209321975708008 289.2409362792969 27.116546630859375 277.4903564453125 26.4039306640625 263.87774658203125 C 26.757431030273438 213.4974365234375 23.119905471801758 167.14028930664062 15.359806060791016 123.83381652832031 C 12.401651382446289 108.21676635742188 9.607339859008789 92.17598724365234 -3.074659585952759 76.77985382080078" stroke-width="0.0" fill="rgb(43, 43, 41)" opacity="1.0140848" stroke="rgb(0, 0, 0)" stroke-opacity="1.0" stroke-linecap="round" stroke-linejoin="round"/>
    <path d="M 345.27398681640625 72.32003784179688 C 335.66705322265625 68.90357208251953 332.1226501464844 69.97301483154297 330.411865234375 74.45855712890625 C 317.7966003417969 90.86822509765625 306.7355041503906 105.23953247070312 298.8868103027344 120.51473236083984 C 301.2209167480469 135.37982177734375 296.95751953125 144.4342803955078 297.2701416015625 158.60321044921875 C 296.53857421875 163.77879333496094 298.7681579589844 167.5088653564453 304.5649719238281 169.23292541503906 C 316.7254333496094 172.70156860351562 323.0016784667969 169.36962890625 332.6070251464844 164.7267303466797 C 343.35626220703125 152.26470947265625 352.3773193359375 137.3686981201172 362.9925842285156 123.70968627929688 C 366.136962890625 111.8558578491211 365.74908447265625 106.42292022705078 362.1964111328125 94.90030670166016 C 359.91131591796875 82.56525421142578 354.7076721191406 74.84918212890625 345.27398681640625 72.32003784179688" stroke-width="0.0" fill="rgb(34, 34, 32)" opacity="0.97477245" stroke="rgb(0, 0, 0)" stroke-opacity="1.0" stroke-linecap="round" stroke-linejoin="round"/>
    <path d="M 305.313232421875 407.4225158691406 C 291.5159912109375 401.6903991699219 277.5601501464844 399.0634460449219 263.3280029296875 394.7933044433594 C 253.71145629882812 393.47100830078125 249.5688934326172 396.3053283691406 244.69810485839844 400.7393798828125 C 238.1148223876953 417.4372253417969 233.8243865966797 437.6536865234375 236.3345947265625 459.0034484863281 C 240.1878204345703 473.8564758300781 240.26942443847656 484.763916015625 249.60997009277344 493.4210205078125 C 258.4503479003906 482.5551452636719 271.1174011230469 474.2325134277344 279.3739318847656 461.849365234375 C 289.5375061035156 445.6411437988281 295.8534851074219 426.0668640136719 305.313232421875 407.4225158691406" stroke-width="0.0" fill="rgb(173, 172, 170)" opacity="0.99158835" stroke="rgb(0, 0, 0)" stroke-opacity="1.0" stroke-linecap="round" stroke-linejoin="round"/>
    <path d="M 487.797607421875 363.5770263671875 C 484.5609436035156 369.4831848144531 482.12158203125 379.1119689941406 481.8611145019531 393.9815368652344 C 482.0993347167969 407.1817626953125 482.0701904296875 427.59649658203125 484.7920837402344 444.1148681640625 C 488.72393798828125 466.16162109375 488.3764953613281 490.5249328613281 497.6926574707031 508.99493408203125 C 498.50048828125 515.462158203125 501.09552001953125 517.3787231445312 516.5349731445312 518.081787109375 C 517.335205078125 466.2557373046875 516.505126953125 417.6128234863281 516.3826904296875 365.04931640625 C 506.7911376953125 363.2460632324219 497.9114990234375 362.42095947265625 487.797607421875 363.5770263671875" stroke-width="0.0" fill="rgb(56, 56, 54)" opacity="1.0095298" stroke="rgb(0, 0, 0)" stroke-opacity="1.0" stroke-linecap="round" stroke-linejoin="round"/>
    <path d="M 495.2657775878906 310.149169921875 C 493.184326171875 320.87554931640625 491.03143310546875 336.8131408691406 493.3143310546875 359.13043212890625 C 496.3054504394531 362.8252258300781 502.2715148925781 366.45513916015625 515.8550415039062 369.8373718261719 C 517.1471557617188 350.2764587402344 516.8118896484375 330.2049560546875 516.2633666992188 309.57086181640625 C 507.05438232421875 307.2770080566406 502.0203552246094 307.1884765625 495.2657775878906 310.149169921875" stroke-width="0.0" fill="rgb(100, 101, 98)" opacity="0.9982814" stroke="rgb(0, 0, 0)" stroke-opacity="1.0" stroke-linecap="round" stroke-linejoin="round"/>
    <path d="M 169.96556091308594 298.8431091308594 C 160.16932678222656 306.35369873046875 153.7512969970703 314.326904296875 148.4805145263672 323.9776306152344 C 159.10610961914062 325.7740783691406 166.43341064453125 323.801025390625 173.10421752929688 321.7378845214844 C 173.79446411132812 307.7502746582031 175.05032348632812 300.7559814453125 169.96556091308594 298.8431091308594" stroke-width="0.0" fill="rgb(206, 206, 204)" opacity="1.0278338" stroke="rgb(0, 0, 0)" stroke-opacity="1.0" stroke-linecap="round" stroke-linejoin="round"/>
    <path d="M 186.58071899414062 293.7327575683594 C 175.741943359375 295.9248962402344 170.80111694335938 296.068359375 171.14369201660156 300.5020446777344 C 174.86131286621094 307.8346252441406 174.24671936035156 314.0324401855469 166.97132873535156 319.38446044921875 C 165.42007446289062 325.36639404296875 158.1221923828125 324.0816650390625 149.53868103027344 322.8512268066406 C 139.91123962402344 336.2160949707031 130.9722137451172 348.8722839355469 124.15674591064453 363.3335266113281 C 122.22850036621094 393.9268798828125 129.55133056640625 420.6002502441406 128.98727416992188 456.6659851074219 C 139.01568603515625 466.6476745605469 159.43153381347656 472.4482116699219 178.1620635986328 481.66156005859375 C 183.4171142578125 485.31817626953125 191.58045959472656 482.7810363769531 194.86683654785156 478.79449462890625 C 204.8260040283203 487.3247985839844 210.23190307617188 498.6903991699219 213.3633575439453 515.7603759765625 C 223.72743225097656 517.0653686523438 238.8190155029297 517.5662231445312 248.71690368652344 516.8911743164062 C 245.33180236816406 493.9725646972656 241.6881561279297 479.2952880859375 234.60585021972656 464.153076171875 C 236.72315979003906 444.698974609375 239.04373168945312 423.5298767089844 239.48207092285156 398.70947265625 C 229.4528045654297 387.35015869140625 226.6634063720703 369.70733642578125 215.79013061523438 359.9583435058594 C 207.4767303466797 349.42266845703125 197.77554321289062 339.6929931640625 189.15138244628906 327.9438781738281 C 181.2075958251953 319.3200378417969 185.94334411621094 298.33868408203125 186.58071899414062 293.7327575683594" stroke-width="0.0" fill="rgb(93, 93, 91)" opacity="0.983082" stroke="rgb(0, 0, 0)" stroke-opacity="1.0" stroke-linecap="round" stroke-linejoin="round"/>
    <path d="M 283.3041687011719 132.0865478515625 C 260.65240478515625 134.06988525390625 250.02622985839844 146.89199829101562 229.45787048339844 156.1981964111328 C 212.26492309570312 166.73382568359375 207.8361358642578 196.59738159179688 202.42605590820312 224.44517517089844 C 206.9341583251953 230.72467041015625 207.1207733154297 238.3274383544922 207.9143829345703 235.0501708984375 C 206.96165466308594 242.7772674560547 206.56243896484375 248.48793029785156 210.4687957763672 246.99468994140625 C 207.4682159423828 254.05699157714844 207.4259033203125 258.531494140625 210.90391540527344 261.9779052734375 C 221.03329467773438 260.1025390625 228.0161590576172 255.47630310058594 236.98753356933594 255.00643920898438 C 249.79132080078125 256.8425598144531 258.47216796875 265.87896728515625 271.667724609375 271.370849609375 C 272.9836120605469 260.5854797363281 270.9428405761719 249.2611846923828 273.1828308105469 238.07110595703125 C 274.9434509277344 227.6477508544922 282.4705505371094 220.4057159423828 287.9556884765625 211.2251739501953 C 286.348876953125 181.34388732910156 285.971435546875 156.30340576171875 283.3041687011719 132.0865478515625" stroke-width="0.0" fill="rgb(133, 132, 130)" opacity="1.0680348" stroke="rgb(0, 0, 0)" stroke-opacity="1.0" stroke-linecap="round" stroke-linejoin="round"/>
    <path d="M 42.018070220947266 187.6708984375 C 33.27635192871094 191.83497619628906 28.310501098632812 196.4217071533203 30.01392364501953 204.60302734375 C 24.86430549621582 223.98097229003906 29.86172866821289 240.611083984375 32.084354400634766 258.998779296875 C 37.84553146362305 270.2278747558594 47.22364044189453 278.8170166015625 63.56303024291992 277.3570556640625 C 68.30840301513672 279.42791748046875 74.18054962158203 280.7442932128906 74.97068786621094 280.40118408203125 C 78.37250518798828 280.5715637207031 84.903076171875 282.9545593261719 90.96456146240234 282.1974792480469 C 99.4410171508789 264.6507568359375 108.55210876464844 248.8727264404297 114.85812377929688 229.17355346679688 C 98.1463623046875 221.2841033935547 94.30740356445312 203.05641174316406 80.10063171386719 194.35308837890625 C 69.04175567626953 188.5672149658203 55.3673095703125 186.59632873535156 42.018070220947266 187.6708984375" stroke-width="0.0" fill="rgb(25, 25, 23)" opacity="1.0008109" stroke="rgb(0, 0, 0)" stroke-opacity="1.0" stroke-linecap="round" stroke-linejoin="round"/>
    <path d="M 319.6676025390625 74.32958221435547 C 313.4266052246094 74.0413589477539 310.0294189453125 76.67063903808594 305.65545654296875 80.49314880371094 C 299.769775390625 85.81523895263672 295.31982421875 94.07177734375 292.23052978515625 101.71273803710938 C 289.5945129394531 108.3692626953125 284.466796875 114.40193939208984 285.39404296875 121.58306121826172 C 287.3725891113281 129.66102600097656 288.8623962402344 133.22952270507812 294.65234375 137.614013671875 C 302.2481994628906 113.94864654541016 314.6332702636719 100.18840026855469 326.1197509765625 85.71652221679688 C 328.7925109863281 79.3589859008789 324.7508544921875 77.38813018798828 319.6676025390625 74.32958221435547" stroke-width="0.0" fill="rgb(180, 179, 177)" opacity="1.0246465" stroke="rgb(0, 0, 0)" stroke-opacity="1.0" stroke-linecap="round" stroke-linejoin="round"/>
    <path d="M 31.21112823486328 263.72723388671875 C 26.84101676940918 264.1763610839844 24.428377151489258 267.5746154785156 25.531028747558594 276.1423034667969 C 22.822654724121094 280.0401916503906 23.985694885253906 284.9730224609375 28.11389923095703 290.2098083496094 C 31.8415470123291 284.412841796875 37.02028274536133 279.8667297363281 52.52817153930664 274.73095703125 C 45.568115234375 271.5696716308594 38.03224182128906 269.0791015625 31.21112823486328 263.72723388671875" stroke-width="0.0" fill="rgb(138, 138, 136)" opacity="1.0086863" stroke="rgb(0, 0, 0)" stroke-opacity="1.0" stroke-linecap="round" stroke-linejoin="round"/>
    <path d="M 33.28953552246094 -5.0600762367248535 C 37.2139778137207 7.854137420654297 41.75636291503906 12.990678787231445 42.71870040893555 22.901546478271484 C 42.81877517700195 73.00279998779297 43.145416259765625 127.98867797851562 42.02445602416992 184.3424835205078 C 53.55728530883789 184.6043701171875 67.81250762939453 181.93991088867188 78.19297790527344 189.08848571777344 C 95.86141204833984 195.0771484375 100.16625213623047 217.2225341796875 113.85366821289062 231.53367614746094 C 138.658447265625 230.18362426757812 144.99229431152344 247.88983154296875 170.8190155029297 252.12017822265625 C 172.93692016601562 169.7908477783203 173.51095581054688 85.7601547241211 173.40399169921875 -4.620177268981934 C 129.46786499023438 -4.418898582458496 83.5254135131836 -4.757818698883057 33.28953552246094 -5.0600762367248535" stroke-width="0.0" fill="rgb(26, 26, 24)" opacity="1.0176427" stroke="rgb(0, 0, 0)" stroke-opacity="1.0" stroke-linecap="round" stroke-linejoin="round"/>
    <path d="M 352.5444641113281 168.2472381591797 C 343.82781982421875 181.6983642578125 335.9534912109375 176.22364807128906 321.8675842285156 172.1710968017578 C 307.52423095703125 182.1279296875 298.0772399902344 187.96372985839844 288.3177185058594 195.83251953125 C 283.5127868652344 199.5348358154297 280.9239196777344 207.16799926757812 278.64642333984375 222.40347290039062 C 294.9415283203125 215.7482147216797 302.51837158203125 206.04478454589844 314.3724365234375 207.43923950195312 C 331.6381530761719 205.68563842773438 343.5019226074219 209.15415954589844 356.7438659667969 214.5947265625 C 363.26788330078125 207.67544555664062 363.47760009765625 196.3432159423828 361.70281982421875 186.39483642578125 C 360.7240905761719 182.79046630859375 360.0218200683594 175.95884704589844 352.5444641113281 168.2472381591797" stroke-width="0.0" fill="rgb(60, 60, 58)" opacity="1.0003788" stroke="rgb(0, 0, 0)" stroke-opacity="1.0" stroke-linecap="round" stroke-linejoin="round"/>
    <path d="M 356.2135314941406 164.0833282470703 C 361.5029296875 178.9325714111328 364.71807861328125 195.37652587890625 359.5859680175781 215.00511169433594 C 367.9469299316406 220.78787231445312 373.8254699707031 228.1879425048828 388.718994140625 230.27780151367188 C 387.243408203125 208.61822509765625 383.7209777832031 191.88592529296875 378.32611083984375 177.6403350830078 C 376.8386535644531 171.16299438476562 374.642822265625 165.97796630859375 370.1622619628906 164.96241760253906 C 366.2151794433594 162.46153259277344 360.5054626464844 162.4837188720703 356.2135314941406 164.0833282470703" stroke-width="0.0" fill="rgb(128, 128, 126)" opacity="0.99705875" stroke="rgb(0, 0, 0)" stroke-opacity="1.0" stroke-linecap="round" stroke-linejoin="round"/>
    <path d="M 289.88946533203125 128.6282501220703 C 284.38067626953125 132.9723358154297 284.3872985839844 140.31884765625 283.5151062011719 155.19775390625 C 280.5671081542969 158.69705200195312 280.2186584472656 163.794921875 288.31805419921875 166.54222106933594 C 293.7508850097656 161.73391723632812 297.36212158203125 155.6030731201172 299.60565185546875 145.1011199951172 C 298.8836975097656 137.5262451171875 295.7425231933594 133.36788940429688 289.88946533203125 128.6282501220703" stroke-width="0.0" fill="rgb(192, 191, 189)" opacity="0.9916908" stroke="rgb(0, 0, 0)" stroke-opacity="1.0" stroke-linecap="round" stroke-linejoin="round"/>
    <path d="M 282.20159912109375 158.7083282470703 C 280.1205749511719 176.6876220703125 280.04833984375 192.8004150390625 281.2189636230469 209.6831512451172 C 292.77386474609375 193.37611389160156 303.9833984375 186.75172424316406 314.78509521484375 177.6418914794922 C 297.9325256347656 173.42555236816406 287.5182800292969 167.6649627685547 282.20159912109375 158.7083282470703" stroke-width="0.0" fill="rgb(53, 53, 51)" opacity="1.0225079" stroke="rgb(0, 0, 0)" stroke-opacity="1.0" stroke-linecap="round" stroke-linejoin="round"/>
    <path d="M 40.158470153808594 273.297607421875 C 47.94282150268555 285.4509582519531 60.168758392333984 288.141357421875 69.43611907958984 296.21331787109375 C 76.75975036621094 291.70843505859375 84.332275390625 294.5367736816406 94.6385498046875 300.2908020019531 C 95.20653533935547 291.6221008300781 92.89231872558594 286.65008544921875 92.22118377685547 281.3075256347656 C 73.64173889160156 282.2334289550781 60.352134704589844 276.6346130371094 40.158470153808594 273.297607421875" stroke-width="0.0" fill="rgb(38, 38, 36)" opacity="0.9715292" stroke="rgb(0, 0, 0)" stroke-opacity="1.0" stroke-linecap="round" stroke-linejoin="round"/>
    <path d="M 202.38771057128906 248.4981689453125 C 194.35516357421875 253.58981323242188 189.0132598876953 260.7847595214844 183.64080810546875 271.8362121582031 C 182.8034210205078 278.195068359375 183.0924072265625 286.57171630859375 188.8424835205078 292.1416931152344 C 196.48947143554688 285.08935546875 200.55433654785156 275.7083740234375 207.40682983398438 268.4400634765625 C 205.215576171875 261.0423278808594 208.21206665039062 252.53436279296875 202.38771057128906 248.4981689453125" stroke-width="0.0" fill="rgb(139, 138, 136)" opacity="0.95955414" stroke="rgb(0, 0, 0)" stroke-opacity="1.0" stroke-linecap="round" stroke-linejoin="round"/>
    <path d="M 183.55369567871094 472.2661437988281 C 176.36441040039062 469.03802490234375 172.6774139404297 470.4139404296875 166.09837341308594 475.6610412597656 C 166.93333435058594 483.52197265625 176.04806518554688 496.25042724609375 173.86325073242188 516.3695068359375 C 170.3206787109375 516.6131591796875 173.62945556640625 516.70947265625 170.48167419433594 515.0179443359375 C 177.5818328857422 496.3740234375 182.154541015625 485.71783447265625 183.55369567871094 472.2661437988281" stroke-width="0.0" fill="rgb(26, 26, 24)" opacity="0.99166226" stroke="rgb(0, 0, 0)" stroke-opacity="1.0" stroke-linecap="round" stroke-linejoin="round"/>
    <path d="M 286.2330322265625 220.79954528808594 C 282.0644836425781 224.50950622558594 278.08880615234375 229.0352020263672 276.91107177734375 236.36289978027344 C 273.9577941894531 243.62545776367188 273.24774169921875 252.65634155273438 273.9568176269531 263.756591796875 C 286.4173889160156 297.59423828125 295.2778625488281 337.346923828125 313.8149719238281 364.6653137207031 C 323.0921325683594 373.6787414550781 331.07330322265625 381.2142333984375 342.4695129394531 383.03271484375 C 364.7455749511719 384.6205139160156 379.7951354980469 384.2583923339844 387.385986328125 378.89007568359375 C 405.8010559082031 380.8656311035156 416.96551513671875 385.60400390625 430.0044250488281 389.9915771484375 C 433.7621765136719 396.1084289550781 435.58428955078125 400.4463806152344 434.2324523925781 399.614501953125 C 439.5723876953125 398.94189453125 450.92388916015625 398.5455322265625 465.6164245605469 400.3602600097656 C 457.4095764160156 374.8744812011719 476.1876525878906 373.37872314453125 475.2657470703125 358.8909606933594 C 465.38787841796875 326.73876953125 452.5496520996094 304.4103088378906 435.7696533203125 285.36328125 C 411.4244079589844 258.1475524902344 385.6522216796875 233.68765258789062 350.9368591308594 216.7834930419922 C 342.44268798828125 208.89707946777344 329.1873779296875 206.1545867919922 312.8420104980469 208.2438201904297 C 300.338623046875 208.73072814941406 294.5071105957031 215.82667541503906 286.2330322265625 220.79954528808594" stroke-width="0.0" fill="rgb(51, 50, 48)" opacity="0.9318023" stroke="rgb(0, 0, 0)" stroke-opacity="1.0" stroke-linecap="round" stroke-linejoin="round"/>
    <path d="M 369.2723083496094 393.81304931640625 C 361.3958740234375 389.8819580078125 355.2400207519531 390.90399169921875 346.481689453125 393.41064453125 C 339.2602844238281 397.4681091308594 334.2955322265625 405.1340026855469 318.4174499511719 406.2972106933594 C 301.49853515625 405.34088134765625 283.3633117675781 400.09442138671875 264.9327392578125 394.7594909667969 C 254.9476776123047 394.42218017578125 250.14532470703125 396.00494384765625 244.7695770263672 400.2028503417969 C 238.20849609375 417.6053161621094 234.79808044433594 438.82952880859375 233.9281463623047 465.885986328125 C 239.83468627929688 483.7238464355469 246.90322875976562 498.3464660644531 255.2180633544922 505.0715637207031 C 293.9222412109375 499.5149230957031 335.4667053222656 499.8507080078125 372.8287048339844 500.3722839355469 C 376.25299072265625 469.5962829589844 371.88409423828125 431.0204162597656 369.2723083496094 393.81304931640625" stroke-width="0.0" fill="rgb(69, 69, 67)" opacity="0.89376885" stroke="rgb(0, 0, 0)" stroke-opacity="1.0" stroke-linecap="round" stroke-linejoin="round"/>
    <path d="M 442.3856201171875 -2.972207546234131 C 459.33831787109375 49.054595947265625 476.0534362792969 97.67449188232422 495.8788757324219 143.610595703125 C 497.78594970703125 148.9965057373047 503.54071044921875 149.60833740234375 516.9605102539062 150.53863525390625 C 516.5426635742188 101.42622375488281 516.3766479492188 50.9471435546875 516.35107421875 -0.804663360118866 C 487.7565612792969 -3.8691318035125732 463.5278015136719 -5.351526737213135 442.3856201171875 -2.972207546234131" stroke-width="0.0" fill="rgb(108, 107, 104)" opacity="1.001003" stroke="rgb(0, 0, 0)" stroke-opacity="1.0" stroke-linecap="round" stroke-linejoin="round"/>
    <path d="M -3.9904212951660156 458.64642333984375 C -4.282980918884277 476.062255859375 -2.786897897720337 493.77593994140625 -0.3332555592060089 516.7158813476562 C 70.5256118774414 516.8497924804688 140.27206420898438 517.135986328125 211.05006408691406 514.57568359375 C 201.42079162597656 505.1540222167969 186.53280639648438 506.8730773925781 177.49557495117188 500.8216857910156 C 178.43067932128906 495.0539245605469 174.62757873535156 499.11639404296875 172.71670532226562 495.0294189453125 C 163.6171417236328 493.5474548339844 154.7366180419922 493.150634765625 149.36322021484375 487.93511962890625 C 121.14691925048828 489.1160583496094 92.4895248413086 485.7135009765625 63.15269470214844 484.3435974121094 C 40.66812515258789 478.8056640625 21.458559036254883 468.0129699707031 -3.9904212951660156 458.64642333984375" stroke-width="0.0" fill="rgb(47, 46, 44)" opacity="1.0026021" stroke="rgb(0, 0, 0)" stroke-opacity="1.0" stroke-linecap="round" stroke-linejoin="round"/>
    <path d="M -3.6262950897216797 439.3250732421875 C -4.398928642272949 446.1552429199219 -3.8372802734375 453.30694580078125 1.5066933631896973 459.58282470703125 C 13.839725494384766 468.3599548339844 29.696277618408203 474.4844665527344 47.13018798828125 480.4567565917969 C 68.64900207519531 487.5003356933594 96.39442443847656 489.3519287109375 126.48308563232422 489.8403015136719 C 141.85604858398438 490.71185302734375 152.7395477294922 491.003173828125 160.52989196777344 487.30804443359375 C 152.75975036621094 472.2736511230469 143.04006958007812 463.3996887207031 128.22450256347656 460.3418884277344 C 105.86524200439453 456.6775817871094 81.4486312866211 455.65997314453125 62.832305908203125 450.8489074707031 C 48.65568923950195 443.21746826171875 32.59808349609375 438.294921875 16.199871063232422 434.65423583984375 C 12.946022033691406 430.3156433105469 7.093942165374756 434.2210693359375 -3.6262950897216797 439.3250732421875" stroke-width="0.0" fill="rgb(155, 154, 152)" opacity="0.96814024" stroke="rgb(0, 0, 0)" stroke-opacity="1.0" stroke-linecap="round" stroke-linejoin="round"/>
    <path d="M 121.69099426269531 235.87416076660156 C 112.3678970336914 240.04446411132812 105.89089965820312 247.051025390625 100.95185089111328 253.88528442382812 C 96.15097045898438 267.22821044921875 91.00865173339844 279.1854248046875 85.51297760009766 296.04827880859375 C 107.98633575439453 304.8989562988281 125.49537658691406 313.93377685546875 137.29727172851562 330.8095397949219 C 151.3729248046875 320.22625732421875 157.41111755371094 308.2869567871094 165.82183837890625 298.854248046875 C 169.6549072265625 288.4984130859375 168.37576293945312 278.06060791015625 166.13951110839844 263.10174560546875 C 164.02207946777344 255.7427978515625 158.65599060058594 250.46949768066406 151.80609130859375 246.88510131835938 C 143.50059509277344 240.9600372314453 135.16970825195312 235.57960510253906 121.69099426269531 235.87416076660156" stroke-width="0.0" fill="rgb(80, 79, 78)" opacity="0.97916555" stroke="rgb(0, 0, 0)" stroke-opacity="1.0" stroke-linecap="round" stroke-linejoin="round"/>
    <path d="M 491.4964904785156 472.2625732421875 C 486.1944580078125 488.96649169921875 487.1563720703125 499.4029235839844 490.34283447265625 511.47259521484375 C 495.1148681640625 514.99365234375 499.82427978515625 517.0857543945312 515.5364990234375 518.4464721679688 C 516.8850708007812 506.2059020996094 516.600341796875 497.8163146972656 516.650634765625 484.44696044921875 C 509.26763916015625 477.9649353027344 504.2953796386719 471.41326904296875 491.4964904785156 472.2625732421875" stroke-width="0.0" fill="rgb(136, 136, 132)" opacity="0.9433932" stroke="rgb(0, 0, 0)" stroke-opacity="1.0" stroke-linecap="round" stroke-linejoin="round"/>
    <path d="M 515.3897094726562 333.23675537109375 C 504.2868347167969 335.8271179199219 500.2841796875 336.2008361816406 501.8701477050781 337.8692626953125 C 500.4469909667969 345.6585693359375 500.1274719238281 352.0840148925781 501.1710510253906 360.220703125 C 500.10870361328125 363.6241455078125 504.4302978515625 366.98455810546875 518.224609375 367.93890380859375 C 517.855224609375 351.5721130371094 516.9720458984375 339.8194274902344 515.3897094726562 333.23675537109375" stroke-width="0.0" fill="rgb(199, 200, 195)" opacity="1.055169" stroke="rgb(0, 0, 0)" stroke-opacity="1.0" stroke-linecap="round" stroke-linejoin="round"/>
    <path d="M 503.1529235839844 516.6600341796875 C 493.45794677734375 482.6247863769531 473.82647705078125 468.0681457519531 469.92822265625 437.3671875 C 442.8330993652344 440.2322692871094 422.01324462890625 450.15765380859375 393.1225891113281 452.8636474609375 C 375.9281921386719 468.0537109375 358.00048828125 482.6436462402344 332.5638732910156 491.03826904296875 C 300.1535339355469 490.35479736328125 271.7054748535156 484.40130615234375 242.9822235107422 476.3851318359375 C 244.44403076171875 490.97918701171875 250.49588012695312 500.6407165527344 258.2657470703125 517.878662109375 C 336.833740234375 517.8475952148438 417.5174560546875 517.682861328125 503.1529235839844 516.6600341796875" stroke-width="0.0" fill="rgb(66, 66, 64)" opacity="0.9890245" stroke="rgb(0, 0, 0)" stroke-opacity="1.0" stroke-linecap="round" stroke-linejoin="round"/>
    <path d="M 191.80044555664062 337.0033264160156 C 190.52264404296875 356.3579406738281 186.04066467285156 369.5962829589844 177.7264404296875 382.2607116699219 C 176.76187133789062 410.0738525390625 179.57765197753906 434.72509765625 181.5926055908203 458.2144470214844 C 191.47711181640625 478.0612487792969 207.220458984375 488.53173828125 212.22618103027344 515.0875244140625 C 220.87158203125 517.374267578125 239.44699096679688 517.4276123046875 252.55601501464844 515.1572265625 C 246.0858612060547 492.5974426269531 237.98130798339844 477.60345458984375 234.99969482421875 463.6984558105469 C 238.39903259277344 441.9163818359375 237.9084014892578 420.7240295410156 240.88880920410156 399.110107421875 C 235.9159698486328 384.4203796386719 226.76751708984375 374.90740966796875 220.25172424316406 362.38800048828125 C 212.56350708007812 352.9257507324219 201.82142639160156 345.54595947265625 191.80044555664062 337.0033264160156" stroke-width="0.0" fill="rgb(51, 50, 48)" opacity="0.98469985" stroke="rgb(0, 0, 0)" stroke-opacity="1.0" stroke-linecap="round" stroke-linejoin="round"/>
    <path d="M 398.8676452636719 130.12655639648438 C 392.5843200683594 139.0346221923828 389.7524719238281 150.57057189941406 391.9314880371094 169.4143524169922 C 393.9803466796875 191.05238342285156 408.2631530761719 203.15699768066406 410.5677185058594 226.6791534423828 C 428.58258056640625 231.0745391845703 446.7985534667969 224.2494354248047 471.7278137207031 222.9567413330078 C 460.8431701660156 195.7998046875 452.3638000488281 169.01124572753906 440.8145446777344 145.7848358154297 C 435.0469970703125 138.5900115966797 429.7330322265625 131.53543090820312 419.73779296875 129.67633056640625 C 410.92791748046875 124.4566421508789 407.46990966796875 124.82764434814453 398.8676452636719 130.12655639648438" stroke-width="0.0" fill="rgb(31, 31, 29)" opacity="0.9937123" stroke="rgb(0, 0, 0)" stroke-opacity="1.0" stroke-linecap="round" stroke-linejoin="round"/>
    <path d="M 212.7924346923828 39.58570098876953 C 211.05987548828125 72.99840545654297 209.4023895263672 111.28458404541016 209.13258361816406 164.11981201171875 C 224.2760467529297 153.82374572753906 223.753662109375 143.62208557128906 231.1787872314453 142.65304565429688 C 247.94349670410156 137.24331665039062 264.1501159667969 132.9319305419922 281.56597900390625 130.21844482421875 C 283.5195617675781 127.73314666748047 284.0120544433594 126.19139862060547 284.3692932128906 120.55208587646484 C 268.77874755859375 105.10453033447266 260.46209716796875 80.98362731933594 246.8782958984375 62.44847106933594 C 240.46229553222656 50.883426666259766 226.78460693359375 47.374778747558594 212.7924346923828 39.58570098876953" stroke-width="0.0" fill="rgb(170, 169, 167)" opacity="0.96395874" stroke="rgb(0, 0, 0)" stroke-opacity="1.0" stroke-linecap="round" stroke-linejoin="round"/>
    <path d="M -3.914085865020752 77.63774108886719 C -4.802773475646973 137.55950927734375 -4.485340118408203 198.65036010742188 -5.782944679260254 261.5037841796875 C 9.272604942321777 260.3124694824219 13.518219947814941 259.1455078125 14.859804153442383 269.2177429199219 C 17.502779006958008 262.8252868652344 17.113126754760742 257.85687255859375 17.21841049194336 254.1016845703125 C 18.21510124206543 258.8140563964844 21.79276466369629 259.1888732910156 22.111812591552734 264.9228210449219 C 24.789567947387695 239.30343627929688 26.83492088317871 215.1852264404297 24.779165267944336 190.18663024902344 C 20.096546173095703 158.50961303710938 18.304323196411133 126.11975860595703 11.205177307128906 99.00763702392578 C 8.961173057556152 90.05843353271484 7.129375457763672 82.75578308105469 -3.914085865020752 77.63774108886719" stroke-width="0.0" fill="rgb(66, 66, 63)" opacity="0.9897072" stroke="rgb(0, 0, 0)" stroke-opacity="1.0" stroke-linecap="round" stroke-linejoin="round"/>
    <path d="M 23.580093383789062 300.5940246582031 C 14.118802070617676 311.1185302734375 9.294708251953125 325.8319396972656 -2.0045173168182373 339.228515625 C -4.547608852386475 366.25445556640625 -4.594367504119873 399.590087890625 -3.9646503925323486 433.200927734375 C 13.050715446472168 428.3698425292969 20.36954689025879 421.18572998046875 28.266393661499023 412.1479797363281 C 29.631887435913086 372.3511657714844 27.72415542602539 335.9126892089844 23.580093383789062 300.5940246582031" stroke-width="0.0" fill="rgb(105, 104, 102)" opacity="0.9712317" stroke="rgb(0, 0, 0)" stroke-opacity="1.0" stroke-linecap="round" stroke-linejoin="round"/>
    <path d="M 216.45274353027344 0.9920119643211365 C 209.30471801757812 -5.37777853012085 207.9674072265625 -1.5359047651290894 207.5593719482422 3.889606475830078 C 207.0906982421875 61.732147216796875 205.45956420898438 120.32759094238281 212.98162841796875 186.05616760253906 C 220.24147033691406 125.31047058105469 219.15769958496094 64.76045989990234 216.45274353027344 0.9920119643211365" stroke-width="0.0" fill="rgb(27, 27, 25)" opacity="0.98324084" stroke="rgb(0, 0, 0)" stroke-opacity="1.0" stroke-linecap="round" stroke-linejoin="round"/>
    <path d="M -4.763247489929199 263.93096923828125 C -5.398733615875244 282.70477294921875 -5.302882671356201 305.5835876464844 -1.818650722503662 334.31195068359375 C 10.346766471862793 320.3248596191406 17.248199462890625 306.13922119140625 25.689199447631836 292.43963623046875 C 24.654935836791992 283.99420166015625 22.79644012451172 277.399658203125 22.323728561401367 271.02496337890625 C 14.77653694152832 268.6294860839844 10.301401138305664 264.1618957519531 -4.763247489929199 263.93096923828125" stroke-width="0.0" fill="rgb(22, 22, 20)" opacity="1.0007765" stroke="rgb(0, 0, 0)" stroke-opacity="1.0" stroke-linecap="round" stroke-linejoin="round"/>
    <path d="M 488.6316833496094 364.77386474609375 C 485.9732971191406 372.3971862792969 485.50714111328125 386.674560546875 488.899169921875 406.7335510253906 C 491.4657287597656 411.3424377441406 500.01708984375 413.0960998535156 516.5440063476562 413.7207336425781 C 517.4213256835938 402.0338134765625 516.5903930664062 385.7522888183594 515.8186645507812 369.29150390625 C 505.1603088378906 365.2793884277344 499.9826354980469 361.77899169921875 488.6316833496094 364.77386474609375" stroke-width="0.0" fill="rgb(33, 33, 31)" opacity="0.9982429" stroke="rgb(0, 0, 0)" stroke-opacity="1.0" stroke-linecap="round" stroke-linejoin="round"/>
    <path d="M 489.64599609375 439.81988525390625 C 488.69573974609375 442.3057556152344 489.46417236328125 450.6144714355469 488.57843017578125 455.0993347167969 C 494.9920959472656 466.262451171875 502.3182678222656 479.162353515625 516.5027465820312 491.0282287597656 C 517.0767822265625 474.7559814453125 516.5086059570312 454.83306884765625 516.0147094726562 435.5829772949219 C 501.4714050292969 433.5472106933594 495.9346923828125 436.65478515625 489.64599609375 439.81988525390625" stroke-width="0.0" fill="rgb(34, 34, 32)" opacity="1.0041941" stroke="rgb(0, 0, 0)" stroke-opacity="1.0" stroke-linecap="round" stroke-linejoin="round"/>
    <path d="M 491.6564025878906 303.8574523925781 C 491.0236511230469 320.6392517089844 490.0612487792969 339.5760498046875 491.889404296875 361.6312255859375 C 488.86773681640625 366.9305114746094 491.9775390625 366.6106872558594 501.6788635253906 364.9850158691406 C 499.24462890625 354.5049743652344 500.0802001953125 344.3201599121094 501.7906494140625 336.3962707519531 C 503.3379821777344 334.4859619140625 508.7830505371094 335.4759826660156 516.6998901367188 336.61669921875 C 515.9553833007812 325.60223388671875 515.9365844726562 318.1061096191406 515.510986328125 310.56585693359375 C 505.666259765625 308.4191589355469 501.07061767578125 306.1215515136719 491.6564025878906 303.8574523925781" stroke-width="0.0" fill="rgb(36, 36, 34)" opacity="0.9695217" stroke="rgb(0, 0, 0)" stroke-opacity="1.0" stroke-linecap="round" stroke-linejoin="round"/>
    <path d="M 203.1649169921875 272.4743347167969 C 197.2845001220703 279.6360778808594 193.4778594970703 285.3415832519531 190.46499633789062 292.03802490234375 C 186.60232543945312 300.17681884765625 184.3466033935547 308.794189453125 185.8399200439453 321.1955871582031 C 190.3423614501953 329.2597351074219 196.307373046875 338.3877868652344 202.9568328857422 344.40106201171875 C 209.74334716796875 350.20733642578125 216.17494201660156 354.9048156738281 227.67662048339844 359.6203918457031 C 248.27252197265625 351.2517395019531 274.6645812988281 358.7081298828125 296.8665771484375 353.7160339355469 C 297.9723815917969 327.3941345214844 297.084716796875 310.62017822265625 291.02471923828125 301.36651611328125 C 270.9752197265625 293.7516784667969 268.3266296386719 273.08770751953125 255.34408569335938 263.991943359375 C 245.99745178222656 261.6868896484375 243.97740173339844 254.03404235839844 238.53826904296875 254.91099548339844 C 221.26123046875 258.74951171875 210.66966247558594 265.5766906738281 203.1649169921875 272.4743347167969" stroke-width="0.0" fill="rgb(26, 26, 24)" opacity="0.9211296" stroke="rgb(0, 0, 0)" stroke-opacity="1.0" stroke-linecap="round" stroke-linejoin="round"/>
    <path d="M 51.3028450012207 8.655923843383789 C 55.430789947509766 4.321310043334961 56.19932556152344 5.989592552185059 58.31859588623047 11.329374313354492 C 49.55483627319336 10.898748397827148 44.47167205810547 11.386091232299805 41.19331741333008 11.187644004821777 C 42.45505905151367 65.48906707763672 43.07577896118164 123.6025619506836 42.79768371582031 187.7566375732422 C 51.667724609375 187.62332153320312 66.62399291992188 187.04954528808594 85.49880981445312 187.60523986816406 C 85.37716674804688 131.18093872070312 86.62594604492188 72.64838409423828 89.224365234375 11.875520706176758 C 72.33338165283203 13.74338436126709 59.47813415527344 12.632974624633789 51.3028450012207 8.655923843383789" stroke-width="0.0" fill="rgb(45, 45, 43)" opacity="1.0153159" stroke="rgb(0, 0, 0)" stroke-opacity="1.0" stroke-linecap="round" stroke-linejoin="round"/>
    <path d="M 440.4789123535156 224.22897338867188 C 437.56549072265625 239.60791015625 435.40289306640625 258.3803405761719 437.24383544921875 280.3559265136719 C 440.6332702636719 289.1600341796875 447.0606384277344 292.8809509277344 452.00848388671875 296.9699401855469 C 466.49456787109375 316.5959167480469 476.7464294433594 339.7007751464844 487.858154296875 369.0508117675781 C 494.2638244628906 323.5811462402344 495.77447509765625 285.8836669921875 491.64141845703125 243.99835205078125 C 487.8667907714844 232.70465087890625 482.72357177734375 228.35513305664062 472.98626708984375 226.3011932373047 C 464.5668640136719 225.2831573486328 455.4934387207031 224.22669982910156 440.4789123535156 224.22897338867188" stroke-width="0.0" fill="rgb(197, 195, 194)" opacity="0.9433706" stroke="rgb(0, 0, 0)" stroke-opacity="1.0" stroke-linecap="round" stroke-linejoin="round"/>
    <path d="M 77.95159912109375 215.15264892578125 C 62.20304870605469 222.6046142578125 47.866207122802734 230.6376953125 37.44770812988281 242.22702026367188 C 33.67129135131836 248.09371948242188 31.723854064941406 249.84144592285156 33.779239654541016 261.0237121582031 C 41.61037826538086 271.1052551269531 50.93827438354492 281.4435729980469 62.43220138549805 290.6070556640625 C 68.80731201171875 294.580810546875 79.29373931884766 293.355224609375 92.01868438720703 293.42352294921875 C 97.46610260009766 275.74627685546875 105.14154815673828 255.62582397460938 111.75760650634766 235.00579833984375 C 104.85672760009766 226.82180786132812 100.74236297607422 219.61395263671875 93.6229019165039 216.78065490722656 C 87.4588851928711 214.672607421875 81.11067199707031 213.796142578125 77.95159912109375 215.15264892578125" stroke-width="0.0" fill="rgb(40, 39, 38)" opacity="0.93605584" stroke="rgb(0, 0, 0)" stroke-opacity="1.0" stroke-linecap="round" stroke-linejoin="round"/>
    <path d="M 394.0310363769531 227.97164916992188 C 392.7792053222656 229.3702392578125 391.10809326171875 231.63494873046875 392.12744140625 238.37205505371094 C 406.5561218261719 252.05821228027344 419.3727722167969 266.98114013671875 438.77716064453125 281.86932373046875 C 438.6891174316406 260.4073181152344 439.631591796875 241.4185791015625 441.84381103515625 225.92330932617188 C 424.1572265625 229.6321563720703 412.1785888671875 229.92994689941406 408.6732482910156 219.14370727539062 C 405.14337158203125 222.0247344970703 400.0163879394531 223.33016967773438 394.0310363769531 227.97164916992188" stroke-width="0.0" fill="rgb(23, 23, 21)" opacity="0.9547948" stroke="rgb(0, 0, 0)" stroke-opacity="1.0" stroke-linecap="round" stroke-linejoin="round"/>
    <path d="M 312.7807922363281 73.94824981689453 C 326.12591552734375 74.92279815673828 335.40179443359375 82.49279022216797 343.458984375 94.29542541503906 C 347.4522705078125 102.21814727783203 346.01080322265625 114.07152557373047 345.62286376953125 127.44214630126953 C 349.23870849609375 130.25965881347656 347.14501953125 135.62744140625 353.1933288574219 134.3367919921875 C 359.9559020996094 130.81629943847656 363.8227233886719 125.69829559326172 366.6046447753906 116.7402114868164 C 366.44720458984375 101.5910873413086 361.6011962890625 91.47772216796875 356.4736022949219 81.05702209472656 C 352.8383483886719 73.10690307617188 346.45025634765625 68.2667465209961 338.4964904785156 67.1187973022461 C 327.8822326660156 62.62622833251953 321.68829345703125 65.49609375 312.7807922363281 73.94824981689453" stroke-width="0.0" fill="rgb(19, 18, 16)" opacity="1.0013983" stroke="rgb(0, 0, 0)" stroke-opacity="1.0" stroke-linecap="round" stroke-linejoin="round"/>
    <path d="M 32.06114959716797 -5.9162726402282715 C 34.48970413208008 5.459756851196289 37.231727600097656 8.817386627197266 39.63826370239258 12.057297706604004 C 55.524024963378906 13.778087615966797 71.4346923828125 12.922130584716797 90.77994537353516 14.28596305847168 C 91.30194091796875 11.927783966064453 90.53218078613281 8.389892578125 91.32273864746094 -5.066300868988037 C 75.72541046142578 -5.770449638366699 56.71112823486328 -5.905727386474609 32.06114959716797 -5.9162726402282715" stroke-width="0.0" fill="rgb(79, 78, 74)" opacity="1.0087763" stroke="rgb(0, 0, 0)" stroke-opacity="1.0" stroke-linecap="round" stroke-linejoin="round"/>
    <path d="M 88.19380187988281 -5.309492588043213 C 88.3551025390625 72.03999328613281 92.04947662353516 140.7645263671875 95.25074005126953 209.70077514648438 C 100.7491455078125 219.89739990234375 107.89830017089844 226.09962463378906 121.00628662109375 227.3622283935547 C 138.82180786132812 232.2250518798828 154.86180114746094 231.7000274658203 175.90420532226562 224.9765625 C 177.21351623535156 156.64797973632812 177.85411071777344 80.43749237060547 178.20555114746094 -2.242920160293579 C 148.2266845703125 -4.352124214172363 119.9135513305664 -4.702446460723877 88.19380187988281 -5.309492588043213" stroke-width="0.0" fill="rgb(15, 15, 13)" opacity="1.0162379" stroke="rgb(0, 0, 0)" stroke-opacity="1.0" stroke-linecap="round" stroke-linejoin="round"/>
    <path d="M 213.42837524414062 -5.787705898284912 C 194.72215270996094 -5.798407554626465 182.0557403564453 -5.756211757659912 178.653564453125 -4.074765205383301 C 175.5475616455078 92.88195037841797 173.3787384033203 180.16795349121094 172.163818359375 268.8929748535156 C 184.71145629882812 261.7998352050781 186.58717346191406 252.20758056640625 186.35203552246094 237.96337890625 C 191.03704833984375 220.1398162841797 202.43348693847656 207.347412109375 207.85269165039062 193.66259765625 C 212.2987823486328 128.7992706298828 212.5095977783203 64.8746337890625 213.42837524414062 -5.787705898284912" stroke-width="0.0" fill="rgb(81, 80, 78)" opacity="0.9250477" stroke="rgb(0, 0, 0)" stroke-opacity="1.0" stroke-linecap="round" stroke-linejoin="round"/>
    <path d="M 147.97897338867188 323.89373779296875 C 141.24554443359375 337.8260498046875 131.55252075195312 349.11004638671875 123.3125 362.89715576171875 C 123.72785949707031 370.48944091796875 118.88013458251953 380.2094421386719 122.2077407836914 386.0656433105469 C 128.1286163330078 406.4401550292969 126.33934783935547 437.4576721191406 132.71888732910156 464.94561767578125 C 139.18272399902344 469.47576904296875 147.25547790527344 472.6978759765625 155.98931884765625 473.37799072265625 C 167.02476501464844 471.7140197753906 176.2317352294922 472.2886657714844 185.3531951904297 464.61529541015625 C 176.1786346435547 429.06304931640625 166.65098571777344 394.6141662597656 154.87060546875 361.83636474609375 C 168.09237670898438 354.53143310546875 175.303466796875 345.8403015136719 182.3041229248047 335.2845153808594 C 180.27980041503906 332.2471618652344 178.43190002441406 331.448974609375 173.87281799316406 332.0926208496094 C 174.90164184570312 335.3847351074219 174.36553955078125 337.14544677734375 172.66387939453125 338.6601867675781 C 170.11752319335938 333.9403381347656 168.02769470214844 330.0521545410156 164.65042114257812 327.803955078125 C 159.77552795410156 324.6210632324219 155.89918518066406 322.8931884765625 147.97897338867188 323.89373779296875" stroke-width="0.0" fill="rgb(77, 77, 75)" opacity="0.997152" stroke="rgb(0, 0, 0)" stroke-opacity="1.0" stroke-linecap="round" stroke-linejoin="round"/>
    <path d="M 220.65673828125 197.7017059326172 C 213.892578125 195.19956970214844 209.647216796875 196.3209991455078 209.10997009277344 198.16160583496094 C 202.51918029785156 210.1953125 192.34153747558594 218.98072814941406 183.30421447753906 229.44500732421875 C 177.59107971191406 239.64312744140625 175.80368041992188 253.42282104492188 178.93093872070312 275.2137145996094 C 187.5338592529297 268.9889221191406 191.16046142578125 259.1656494140625 197.90879821777344 256.0625915527344 C 198.53590393066406 258.482666015625 200.3672637939453 263.2255554199219 208.2876434326172 262.2813720703125 C 213.9428253173828 241.2490234375 218.2937774658203 221.22789001464844 220.65673828125 197.7017059326172" stroke-width="0.0" fill="rgb(67, 67, 65)" opacity="1.0493466" stroke="rgb(0, 0, 0)" stroke-opacity="1.0" stroke-linecap="round" stroke-linejoin="round"/>
    <path d="M 32.62757110595703 196.08143615722656 C 34.73224639892578 202.82972717285156 38.93938064575195 210.07156372070312 43.441490173339844 215.82688903808594 C 60.895328521728516 215.22998046875 74.71704864501953 213.8031768798828 84.47457122802734 210.63739013671875 C 82.94538116455078 195.67803955078125 79.09200286865234 187.93844604492188 73.18856811523438 185.4889373779297 C 60.64372634887695 188.1905517578125 51.100250244140625 185.2606964111328 41.8238410949707 183.97897338867188 C 36.1667366027832 187.23207092285156 33.113014221191406 188.18589782714844 32.62757110595703 196.08143615722656" stroke-width="0.0" fill="rgb(42, 42, 40)" opacity="0.99747616" stroke="rgb(0, 0, 0)" stroke-opacity="1.0" stroke-linecap="round" stroke-linejoin="round"/>
    <path d="M 340.6262512207031 182.31797790527344 C 327.03790283203125 183.7346954345703 331.083740234375 171.580078125 320.8541564941406 175.1738739013672 C 307.131103515625 181.8064422607422 294.4043273925781 188.2764892578125 286.57354736328125 202.013916015625 C 301.8994445800781 205.55165100097656 310.2190856933594 199.22561645507812 318.83050537109375 195.51426696777344 C 324.3808288574219 196.28012084960938 326.998046875 201.15679931640625 334.5368347167969 200.34617614746094 C 341.7230224609375 195.73529052734375 343.23046875 191.3903350830078 340.6262512207031 182.31797790527344" stroke-width="0.0" fill="rgb(69, 69, 67)" opacity="0.95388395" stroke="rgb(0, 0, 0)" stroke-opacity="1.0" stroke-linecap="round" stroke-linejoin="round"/>
    <path d="M 179.8068389892578 476.51605224609375 C 177.4228973388672 483.8055725097656 176.87718200683594 496.27520751953125 178.2046356201172 517.6204223632812 C 186.65097045898438 517.4828491210938 195.32577514648438 517.5404663085938 208.44520568847656 517.875 C 206.4256134033203 499.7294921875 202.99400329589844 493.3269958496094 199.56234741210938 485.3804626464844 C 196.0751495361328 481.10662841796875 191.3282012939453 476.7032775878906 179.8068389892578 476.51605224609375" stroke-width="0.0" fill="rgb(74, 74, 72)" opacity="0.9918853" stroke="rgb(0, 0, 0)" stroke-opacity="1.0" stroke-linecap="round" stroke-linejoin="round"/>
    <path d="M 259.79241943359375 167.57052612304688 C 260.5741271972656 180.7519989013672 257.8378601074219 193.02304077148438 258.3232421875 206.50340270996094 C 264.4336853027344 203.98146057128906 270.85968017578125 204.7667999267578 276.4367370605469 205.77243041992188 C 278.3862609863281 191.51605224609375 275.29107666015625 181.43081665039062 276.1629638671875 170.09837341308594 C 272.4610290527344 169.3909149169922 266.13714599609375 168.2421875 259.79241943359375 167.57052612304688" stroke-width="0.0" fill="rgb(54, 53, 50)" opacity="0.9990969" stroke="rgb(0, 0, 0)" stroke-opacity="1.0" stroke-linecap="round" stroke-linejoin="round"/>
    <path d="M 181.34185791015625 470.3979187011719 C 174.46775817871094 469.1949462890625 172.19688415527344 470.9165954589844 169.88934326171875 473.3189697265625 C 168.4879608154297 484.21368408203125 169.24249267578125 498.47314453125 167.80665588378906 516.8948364257812 C 170.8821563720703 517.0115966796875 173.8802490234375 517.0662841796875 175.89712524414062 516.5548706054688 C 177.74169921875 497.6007080078125 180.01473999023438 484.885498046875 181.34185791015625 470.3979187011719" stroke-width="0.0" fill="rgb(20, 20, 18)" opacity="0.997183" stroke="rgb(0, 0, 0)" stroke-opacity="1.0" stroke-linecap="round" stroke-linejoin="round"/>
    <path d="M 16.589635848999023 421.971923828125 C 16.397903442382812 428.8226013183594 12.342679977416992 430.922607421875 11.431988716125488 433.54217529296875 C 23.818710327148438 437.2804260253906 33.13119888305664 442.3006591796875 45.09239959716797 442.3720397949219 C 39.92045211791992 432.979248046875 34.49702835083008 427.88958740234375 31.877824783325195 421.3489074707031 C 24.859027862548828 420.0745544433594 19.516149520874023 422.096435546875 16.589635848999023 421.971923828125" stroke-width="0.0" fill="rgb(150, 149, 145)" opacity="1.0314095" stroke="rgb(0, 0, 0)" stroke-opacity="1.0" stroke-linecap="round" stroke-linejoin="round"/>
    <path d="M 202.6035919189453 255.5751953125 C 194.514404296875 253.42193603515625 190.55982971191406 256.48388671875 189.6789093017578 262.2867736816406 C 183.70433044433594 265.90771484375 179.69273376464844 267.77288818359375 183.86563110351562 276.35784912109375 C 193.27621459960938 277.2618103027344 198.01612854003906 273.71905517578125 203.79107666015625 270.5721130371094 C 205.8051300048828 261.0205383300781 206.2692108154297 257.9966735839844 202.6035919189453 255.5751953125" stroke-width="0.0" fill="rgb(166, 165, 163)" opacity="0.9581144" stroke="rgb(0, 0, 0)" stroke-opacity="1.0" stroke-linecap="round" stroke-linejoin="round"/>
    <path d="M 270.1085510253906 208.47972106933594 C 262.6517333984375 206.8446044921875 261.7330322265625 209.61354064941406 259.88372802734375 213.84637451171875 C 258.1143493652344 222.4559783935547 254.70086669921875 231.1060028076172 255.57382202148438 245.72836303710938 C 264.3619384765625 238.578125 267.20068359375 228.98129272460938 271.9144592285156 221.94940185546875 C 271.4084167480469 215.32574462890625 272.0757141113281 209.82986450195312 270.1085510253906 208.47972106933594" stroke-width="0.0" fill="rgb(27, 26, 24)" opacity="0.996832" stroke="rgb(0, 0, 0)" stroke-opacity="1.0" stroke-linecap="round" stroke-linejoin="round"/>
    <path d="M 241.60012817382812 -3.926044225692749 C 246.9436798095703 20.134906768798828 247.9323272705078 34.60710144042969 243.4106903076172 54.99385452270508 C 257.8689270019531 76.33596801757812 267.7596435546875 102.32750701904297 282.4383544921875 121.53775787353516 C 288.0356750488281 109.4411392211914 292.6253662109375 88.4994888305664 303.24212646484375 77.62071990966797 C 311.0565490722656 72.03064727783203 313.9678039550781 65.41128540039062 321.4153137207031 64.27948760986328 C 330.0394592285156 61.37943649291992 335.2544250488281 63.58910369873047 343.7679443359375 66.58987426757812 C 349.4381103515625 71.06222534179688 357.3182678222656 72.69818878173828 358.027099609375 80.10018920898438 C 364.25616455078125 89.7014389038086 366.5008239746094 100.94033813476562 369.3655700683594 114.7958755493164 C 371.1044921875 117.1838607788086 368.46429443359375 122.00615692138672 366.5753479003906 127.18711853027344 C 359.4438171386719 134.0734100341797 351.01336669921875 140.67713928222656 345.80389404296875 148.08836364746094 C 351.77752685546875 156.5321044921875 357.2877197265625 159.13748168945312 372.6923522949219 155.5409393310547 C 378.5672912597656 158.1300811767578 377.65966796875 170.7111358642578 382.8697204589844 178.43540954589844 C 387.7610778808594 170.99220275878906 382.5567321777344 165.73092651367188 382.146728515625 161.55029296875 C 378.6376953125 159.5553741455078 377.8387451171875 154.15501403808594 374.779052734375 158.534423828125 C 379.47076416015625 158.13275146484375 383.28497314453125 154.80557250976562 388.0224609375 153.8032989501953 C 399.34375 115.36613464355469 411.3659362792969 78.08171844482422 422.2051086425781 32.93719482421875 C 409.4377136230469 22.732275009155273 397.50738525390625 11.057968139648438 388.0174560546875 -3.9130699634552 C 337.95196533203125 -3.4442551136016846 290.9334716796875 -3.8837480545043945 241.60012817382812 -3.926044225692749" stroke-width="0.0" fill="rgb(118, 117, 114)" opacity="0.8919016" stroke="rgb(0, 0, 0)" stroke-opacity="1.0" stroke-linecap="round" stroke-linejoin="round"/>
    <path d="M 386.936279296875 -2.375086784362793 C 397.2975158691406 15.392330169677734 409.30914306640625 26.932546615600586 424.2113342285156 38.432647705078125 C 412.0880432128906 61.20376968383789 407.8834533691406 90.56272888183594 405.8521423339844 123.28423309326172 C 413.7209167480469 122.22787475585938 419.39617919921875 126.73585510253906 426.770263671875 129.63311767578125 C 434.24652099609375 134.8200225830078 439.88348388671875 142.15892028808594 446.5260925292969 150.63357543945312 C 449.6402893066406 147.13145446777344 445.30120849609375 144.9851531982422 446.20513916015625 141.0829315185547 C 454.46588134765625 140.24758911132812 458.255859375 141.9906463623047 456.9377136230469 142.64967346191406 C 452.09423828125 112.72380828857422 456.4907531738281 95.09684753417969 461.65374755859375 66.9184341430664 C 458.69873046875 44.22304916381836 445.1572265625 29.02574348449707 444.8630065917969 -4.102947235107422 C 426.48883056640625 -4.929492473602295 405.9350280761719 -5.282801628112793 386.936279296875 -2.375086784362793" stroke-width="0.0" fill="rgb(194, 193, 190)" opacity="0.9967243" stroke="rgb(0, 0, 0)" stroke-opacity="1.0" stroke-linecap="round" stroke-linejoin="round"/>
    <path d="M 71.15313720703125 291.6895446777344 C 69.72626495361328 303.19903564453125 72.2432861328125 316.5209655761719 74.07087707519531 323.29901123046875 C 81.5595932006836 335.101806640625 90.50613403320312 345.2533264160156 108.9886245727539 352.1784973144531 C 104.57174682617188 335.2237243652344 100.51487731933594 323.0310974121094 98.16717529296875 310.36529541015625 C 92.14291381835938 300.8360900878906 84.59416961669922 295.3128356933594 71.15313720703125 291.6895446777344" stroke-width="0.0" fill="rgb(148, 147, 145)" opacity="0.99623007" stroke="rgb(0, 0, 0)" stroke-opacity="1.0" stroke-linecap="round" stroke-linejoin="round"/>
    <path d="M 475.8013000488281 419.95928955078125 C 476.5501403808594 424.23370361328125 478.85394287109375 426.00518798828125 485.2878112792969 428.4696960449219 C 494.2678527832031 428.6850891113281 503.12744140625 427.0250549316406 516.1792602539062 425.8717956542969 C 517.1535034179688 418.2789306640625 517.258544921875 414.4306335449219 514.3692626953125 415.99163818359375 C 500.343994140625 414.4137268066406 492.7422180175781 411.0633239746094 485.41656494140625 406.58575439453125 C 482.1520080566406 409.4921875 477.9469299316406 413.5882568359375 475.8013000488281 419.95928955078125" stroke-width="0.0" fill="rgb(81, 81, 80)" opacity="0.99793655" stroke="rgb(0, 0, 0)" stroke-opacity="1.0" stroke-linecap="round" stroke-linejoin="round"/>
    <path d="M 368.8506164550781 394.9209289550781 C 357.25079345703125 389.3744812011719 349.7295837402344 390.2036437988281 343.4377136230469 395.9671325683594 C 337.2930908203125 398.0688171386719 334.0377197265625 401.5303649902344 338.1153564453125 412.2544860839844 C 342.3268737792969 416.61749267578125 346.0146789550781 417.91461181640625 355.2995300292969 412.51385498046875 C 362.5505676269531 408.324951171875 367.70135498046875 404.2503662109375 368.8506164550781 394.9209289550781" stroke-width="0.0" fill="rgb(179, 179, 177)" opacity="0.98871195" stroke="rgb(0, 0, 0)" stroke-opacity="1.0" stroke-linecap="round" stroke-linejoin="round"/>
    <path d="M 503.6969299316406 516.4747924804688 C 494.6220397949219 497.4556884765625 489.2922668457031 485.2328186035156 487.5284729003906 470.3667907714844 C 476.81671142578125 463.8988342285156 471.6328125 453.2906188964844 465.3714599609375 442.9674072265625 C 443.5478515625 446.0731201171875 421.0141296386719 447.9199523925781 401.9836730957031 452.4143371582031 C 388.9739685058594 454.39581298828125 384.0802307128906 462.3338623046875 379.7764892578125 471.9248962402344 C 376.180908203125 486.2879943847656 376.5308532714844 498.8360595703125 380.47174072265625 517.947998046875 C 423.5058898925781 517.695556640625 463.44268798828125 517.36328125 503.6969299316406 516.4747924804688" stroke-width="0.0" fill="rgb(48, 48, 46)" opacity="0.9991436" stroke="rgb(0, 0, 0)" stroke-opacity="1.0" stroke-linecap="round" stroke-linejoin="round"/>
    <path d="M 242.86050415039062 476.18951416015625 C 245.1482696533203 490.6370544433594 250.47169494628906 500.4430847167969 256.8112487792969 515.5286865234375 C 293.52374267578125 516.318359375 331.6510009765625 516.3602905273438 368.91888427734375 516.6177978515625 C 370.72442626953125 497.12933349609375 372.152099609375 485.275390625 366.7609558105469 476.1650695800781 C 352.861083984375 480.7582702636719 339.5389099121094 484.2329406738281 331.1956787109375 486.8938293457031 C 305.5383605957031 481.68255615234375 276.09259033203125 478.0351257324219 242.86050415039062 476.18951416015625" stroke-width="0.0" fill="rgb(76, 75, 73)" opacity="1.0000572" stroke="rgb(0, 0, 0)" stroke-opacity="1.0" stroke-linecap="round" stroke-linejoin="round"/>
    <path d="M 229.3209686279297 393.6399841308594 C 228.63829040527344 413.2480773925781 228.8925018310547 430.1303405761719 220.79750061035156 446.0397644042969 C 211.77593994140625 451.8252258300781 199.15293884277344 457.0981140136719 189.33094787597656 468.2502136230469 C 197.02980041503906 481.7756042480469 207.8564453125 493.330810546875 212.46275329589844 515.0276489257812 C 222.0343780517578 517.93310546875 240.2779541015625 518.0615844726562 252.3023223876953 515.5693969726562 C 246.51089477539062 493.8731384277344 240.5127410888672 479.11712646484375 235.73587036132812 462.6773681640625 C 236.34620666503906 447.4224548339844 239.0776824951172 432.2669982910156 239.27223205566406 416.7970886230469 C 237.60260009765625 407.91827392578125 236.33837890625 401.331298828125 229.3209686279297 393.6399841308594" stroke-width="0.0" fill="rgb(21, 21, 19)" opacity="1.0002644" stroke="rgb(0, 0, 0)" stroke-opacity="1.0" stroke-linecap="round" stroke-linejoin="round"/>
    <path d="M 307.5093078613281 208.1991729736328 C 293.4060363769531 213.4228973388672 281.7103576660156 220.10821533203125 275.6103820800781 230.41270446777344 C 271.7204895019531 246.18121337890625 273.2743225097656 255.86488342285156 275.308837890625 272.52532958984375 C 292.9448547363281 304.3935241699219 297.36090087890625 348.8412170410156 318.5135803222656 378.3298645019531 C 328.1498718261719 384.473876953125 340.1060485839844 383.2469787597656 361.08642578125 379.8337097167969 C 366.8934631347656 378.2597961425781 369.72064208984375 372.1443786621094 372.0715026855469 361.8384704589844 C 372.76922607421875 319.84136962890625 367.168212890625 283.2630310058594 364.27899169921875 248.72406005859375 C 367.6947326660156 238.81735229492188 375.689697265625 236.51405334472656 382.5870361328125 239.46534729003906 C 369.46246337890625 227.1886749267578 360.9259338378906 214.55015563964844 343.27447509765625 211.46463012695312 C 333.7276306152344 207.37423706054688 321.9981689453125 204.3417205810547 307.5093078613281 208.1991729736328" stroke-width="0.0" fill="rgb(87, 86, 84)" opacity="0.99025804" stroke="rgb(0, 0, 0)" stroke-opacity="1.0" stroke-linecap="round" stroke-linejoin="round"/>
    <path d="M 244.15652465820312 404.5169372558594 C 240.6153564453125 424.981201171875 237.8892822265625 447.1898498535156 236.67835998535156 472.8388366699219 C 269.0627746582031 481.658203125 298.4330139160156 488.3858947753906 329.1756591796875 491.4818115234375 C 346.9835510253906 486.41717529296875 357.310791015625 479.71429443359375 366.2528991699219 471.0339660644531 C 366.23699951171875 464.9187927246094 366.65155029296875 457.11065673828125 366.24334716796875 451.3592224121094 C 370.2778015136719 445.5975036621094 375.1844482421875 440.4873046875 380.4712829589844 434.20684814453125 C 370.4289855957031 430.0653076171875 356.2690734863281 432.97625732421875 346.024658203125 431.4513854980469 C 339.5303955078125 427.904541015625 340.399169921875 417.54705810546875 335.6871337890625 414.3780212402344 C 312.3717041015625 407.98919677734375 289.0855712890625 402.92999267578125 266.01171875 395.6319274902344 C 255.41397094726562 392.31011962890625 250.6854705810547 396.6332702636719 244.15652465820312 404.5169372558594" stroke-width="0.0" fill="rgb(115, 114, 112)" opacity="0.9200046" stroke="rgb(0, 0, 0)" stroke-opacity="1.0" stroke-linecap="round" stroke-linejoin="round"/>
    <path d="M -2.0017287731170654 362.5570373535156 C -5.623910427093506 393.59326171875 -5.553213119506836 415.4866027832031 -4.851369857788086 435.93896484375 C 14.471365928649902 432.328125 18.067031860351562 422.1319274902344 28.70751190185547 418.323974609375 C 28.157514572143555 409.1580505371094 28.05013656616211 400.2286071777344 28.17633628845215 398.4713439941406 C 13.70393180847168 392.81268310546875 8.143481254577637 380.61334228515625 -2.0017287731170654 362.5570373535156" stroke-width="0.0" fill="rgb(59, 58, 55)" opacity="1.0318797" stroke="rgb(0, 0, 0)" stroke-opacity="1.0" stroke-linecap="round" stroke-linejoin="round"/>
    <path d="M 495.5863037109375 461.1684265136719 C 488.79168701171875 475.7911376953125 489.5249938964844 481.09051513671875 493.6248779296875 490.3477783203125 C 495.76580810546875 498.481201171875 499.7457580566406 504.7462158203125 503.65374755859375 512.878662109375 C 502.4300537109375 516.1610717773438 506.6875305175781 515.6712646484375 516.6361694335938 515.1910400390625 C 516.8555297851562 502.6678466796875 518.0087280273438 494.3656311035156 511.5135498046875 493.9176330566406 C 500.2107849121094 489.15008544921875 498.8841552734375 475.0882263183594 495.5863037109375 461.1684265136719" stroke-width="0.0" fill="rgb(191, 190, 186)" opacity="1.0010921" stroke="rgb(0, 0, 0)" stroke-opacity="1.0" stroke-linecap="round" stroke-linejoin="round"/>
    <path d="M 378.493408203125 464.5633850097656 C 371.62371826171875 465.35589599609375 369.9920349121094 468.3905944824219 368.8245849609375 474.07305908203125 C 368.25244140625 485.21514892578125 368.6379699707031 499.160888671875 369.4660949707031 514.4762573242188 C 373.17095947265625 516.2325439453125 376.800537109375 516.494140625 379.2950744628906 515.3731079101562 C 379.2711181640625 494.96044921875 379.943115234375 479.11505126953125 378.493408203125 464.5633850097656" stroke-width="0.0" fill="rgb(97, 97, 95)" opacity="0.99163795" stroke="rgb(0, 0, 0)" stroke-opacity="1.0" stroke-linecap="round" stroke-linejoin="round"/>
    <path d="M 167.10646057128906 4.392961502075195 C 164.6968231201172 9.664534568786621 163.63949584960938 13.826067924499512 163.37966918945312 14.267945289611816 C 150.93724060058594 16.235267639160156 140.34483337402344 15.90632152557373 131.92242431640625 16.807186126708984 C 131.56039428710938 71.05579376220703 130.31634521484375 123.79203033447266 129.54783630371094 178.26715087890625 C 125.14086151123047 192.05789184570312 120.26101684570312 205.86854553222656 120.84855651855469 213.8167266845703 C 138.80714416503906 213.89512634277344 155.68186950683594 214.2021942138672 171.21713256835938 217.34237670898438 C 173.90396118164062 158.79202270507812 174.78253173828125 89.99649810791016 174.46319580078125 18.740705490112305 C 171.31314086914062 13.196990966796875 165.08909606933594 14.167513847351074 167.10646057128906 4.392961502075195" stroke-width="0.0" fill="rgb(30, 30, 28)" opacity="1.0123395" stroke="rgb(0, 0, 0)" stroke-opacity="1.0" stroke-linecap="round" stroke-linejoin="round"/>
    <path d="M 196.19322204589844 337.996826171875 C 179.3146514892578 343.3233947753906 168.66055297851562 352.24298095703125 157.83804321289062 364.1719665527344 C 167.48126220703125 396.6924133300781 180.41087341308594 426.8191223144531 182.97927856445312 465.0234069824219 C 199.6898193359375 462.4580383300781 209.6568145751953 455.68878173828125 222.4074249267578 449.6878967285156 C 227.082275390625 445.2010192871094 227.84170532226562 434.4515075683594 228.3723907470703 426.65130615234375 C 231.4976043701172 411.6283264160156 230.5359649658203 388.249755859375 230.88352966308594 361.1458740234375 C 216.2135772705078 355.7271728515625 203.76295471191406 347.6718444824219 196.19322204589844 337.996826171875" stroke-width="0.0" fill="rgb(59, 59, 57)" opacity="0.9102523" stroke="rgb(0, 0, 0)" stroke-opacity="1.0" stroke-linecap="round" stroke-linejoin="round"/>
    <path d="M 88.64595031738281 -0.7631425857543945 C 87.88777160644531 63.77030944824219 86.23101806640625 127.33026123046875 87.38273620605469 190.64981079101562 C 89.24220275878906 198.63157653808594 88.03304290771484 208.37124633789062 91.75384521484375 211.46533203125 C 96.17452239990234 216.80209350585938 99.72657012939453 220.62399291992188 110.43441772460938 218.08982849121094 C 116.09534454345703 215.888427734375 117.54523468017578 210.19619750976562 116.03195190429688 199.7806854248047 C 118.57090759277344 153.97303771972656 120.52151489257812 110.88433074951172 119.0008773803711 63.52558135986328 C 114.8290023803711 42.914161682128906 114.5279769897461 20.057903289794922 110.4688949584961 -1.5710023641586304 C 103.0 -0.10505180805921555 96.0 -0.02570921927690506 88.64595031738281 -0.7631425857543945" stroke-width="0.0" fill="rgb(46, 45, 43)" opacity="1.0018924" stroke="rgb(0, 0, 0)" stroke-opacity="1.0" stroke-linecap="round" stroke-linejoin="round"/>
    <path d="M 119.02763366699219 208.07130432128906 C 117.74652099609375 212.75991821289062 116.1884536743164 222.72573852539062 116.71247100830078 232.3952178955078 C 138.67445373535156 234.322021484375 146.70779418945312 249.45526123046875 169.416015625 252.71420288085938 C 172.171630859375 239.6405487060547 171.9356689453125 225.7858123779297 172.26739501953125 215.1099853515625 C 161.06619262695312 209.83522033691406 149.97499084472656 210.49551391601562 140.80538940429688 206.21165466308594 C 131.46092224121094 205.7946319580078 123.61270141601562 205.4609832763672 119.02763366699219 208.07130432128906" stroke-width="0.0" fill="rgb(28, 28, 26)" opacity="0.9953971" stroke="rgb(0, 0, 0)" stroke-opacity="1.0" stroke-linecap="round" stroke-linejoin="round"/>
    <path d="M 452.96759033203125 295.4001159667969 C 467.0111083984375 316.8544921875 477.6826171875 339.3213806152344 488.77508544921875 367.96417236328125 C 492.0957336425781 343.6691589355469 491.6522216796875 320.7021789550781 492.3904113769531 299.6407775878906 C 481.52630615234375 297.4514465332031 470.43463134765625 294.0365905761719 452.96759033203125 295.4001159667969" stroke-width="0.0" fill="rgb(196, 196, 194)" opacity="0.9844513" stroke="rgb(0, 0, 0)" stroke-opacity="1.0" stroke-linecap="round" stroke-linejoin="round"/>
    <path d="M 180.31236267089844 491.54461669921875 C 178.78770446777344 497.4190368652344 179.51145935058594 504.8676452636719 177.19024658203125 515.5555419921875 C 186.19723510742188 515.9098510742188 194.94525146484375 515.999267578125 205.4373016357422 516.4474487304688 C 207.29762268066406 501.134765625 204.9947052001953 496.0326843261719 202.27957153320312 490.7368469238281 C 195.176513671875 490.3082275390625 186.11363220214844 489.1126708984375 180.31236267089844 491.54461669921875" stroke-width="0.0" fill="rgb(44, 44, 42)" opacity="0.99822325" stroke="rgb(0, 0, 0)" stroke-opacity="1.0" stroke-linecap="round" stroke-linejoin="round"/>
    <path d="M 335.0268859863281 183.7641143798828 C 329.2776794433594 179.2935333251953 325.9519348144531 173.9468536376953 320.4604187011719 173.8621826171875 C 309.273681640625 180.8660888671875 299.184814453125 187.57232666015625 290.1501770019531 196.7015838623047 C 302.3898010253906 199.37240600585938 305.3233642578125 194.45994567871094 309.18109130859375 188.924072265625 C 316.8292236328125 188.94129943847656 321.8069763183594 191.775634765625 327.72528076171875 196.12942504882812 C 330.6686096191406 192.2918243408203 333.1927185058594 189.55128479003906 335.0268859863281 183.7641143798828" stroke-width="0.0" fill="rgb(131, 131, 129)" opacity="1.0006051" stroke="rgb(0, 0, 0)" stroke-opacity="1.0" stroke-linecap="round" stroke-linejoin="round"/>
    <path d="M 96.11930847167969 237.8709259033203 C 82.86646270751953 238.94384765625 69.16020202636719 240.36241149902344 54.55788040161133 242.08517456054688 C 49.838993072509766 252.2117462158203 45.3565788269043 263.09796142578125 48.49663543701172 281.11785888671875 C 53.603336334228516 284.88751220703125 63.49222946166992 288.40203857421875 68.9929428100586 295.7320861816406 C 78.9986572265625 289.7188415527344 83.13938903808594 297.9662780761719 94.46685791015625 298.4660949707031 C 94.04244232177734 287.07421875 92.4462661743164 280.41259765625 94.43545532226562 273.12933349609375 C 96.91437530517578 265.7503967285156 99.96359252929688 258.4188537597656 104.75749969482422 248.61767578125 C 104.09391021728516 245.97299194335938 101.24556732177734 244.2208251953125 96.11930847167969 237.8709259033203" stroke-width="0.0" fill="rgb(23, 23, 21)" opacity="0.9937175" stroke="rgb(0, 0, 0)" stroke-opacity="1.0" stroke-linecap="round" stroke-linejoin="round"/>
    <path d="M 107.46478271484375 231.44175720214844 C 100.5990982055664 223.2557373046875 93.83128356933594 216.64430236816406 85.3732681274414 213.96022033691406 C 68.15411376953125 214.0757293701172 52.8577766418457 214.57127380371094 44.03435516357422 218.5057373046875 C 35.489192962646484 224.28932189941406 35.12327575683594 233.41213989257812 33.520408630371094 244.91148376464844 C 31.671890258789062 253.81320190429688 34.00822067260742 260.2113342285156 37.24113082885742 266.8251953125 C 39.41620635986328 270.0210266113281 44.17005157470703 272.2266845703125 49.972755432128906 274.3940124511719 C 53.689571380615234 264.199951171875 55.35978317260742 258.9430236816406 56.288665771484375 255.41148376464844 C 57.2783203125 251.23287963867188 59.576534271240234 246.72555541992188 63.448463439941406 243.591796875 C 75.498046875 242.79454040527344 87.62162017822266 242.02801513671875 96.90357971191406 241.60301208496094 C 98.46675872802734 243.8721160888672 100.63482666015625 247.18617248535156 104.53005981445312 251.0843505859375 C 108.50093078613281 246.30296325683594 110.36351013183594 240.16864013671875 107.46478271484375 231.44175720214844" stroke-width="0.0" fill="rgb(20, 20, 18)" opacity="0.99614376" stroke="rgb(0, 0, 0)" stroke-opacity="1.0" stroke-linecap="round" stroke-linejoin="round"/>
    <path d="M -4.302813529968262 165.46273803710938 C -4.636597633361816 191.20285034179688 -4.282318592071533 211.77578735351562 -4.4891252517700195 231.65005493164062 C 10.198969841003418 230.75148010253906 17.88817024230957 229.97109985351562 21.427043914794922 224.8557586669922 C 26.2075252532959 215.29336547851562 28.39348602294922 204.63876342773438 27.420452117919922 192.47402954101562 C 25.897117614746094 184.28587341308594 25.643680572509766 179.05572509765625 22.613616943359375 175.0647430419922 C 13.02225399017334 173.8684539794922 6.744455337524414 172.42697143554688 -4.302813529968262 165.46273803710938" stroke-width="0.0" fill="rgb(59, 59, 57)" opacity="1.0001552" stroke="rgb(0, 0, 0)" stroke-opacity="1.0" stroke-linecap="round" stroke-linejoin="round"/>
    <path d="M 404.6375732421875 250.5692596435547 C 416.27899169921875 261.66351318359375 426.0644226074219 271.96148681640625 436.4350891113281 284.4559631347656 C 438.6891784667969 274.53399658203125 438.7340087890625 263.75054931640625 438.2060546875 254.5933837890625 C 424.2162170410156 256.8170471191406 417.9154968261719 253.3450927734375 404.6375732421875 250.5692596435547" stroke-width="0.0" fill="rgb(29, 29, 27)" opacity="0.9960151" stroke="rgb(0, 0, 0)" stroke-opacity="1.0" stroke-linecap="round" stroke-linejoin="round"/>
    <path d="M 290.84967041015625 48.21797561645508 C 290.9316101074219 62.349647521972656 290.687255859375 80.1480484008789 292.9393005371094 95.83811950683594 C 302.49127197265625 86.0490951538086 298.5962219238281 71.08026885986328 299.6442565917969 54.58071517944336 C 302.7818603515625 47.702327728271484 300.3764343261719 47.980812072753906 290.84967041015625 48.21797561645508" stroke-width="0.0" fill="rgb(93, 92, 90)" opacity="0.99930286" stroke="rgb(0, 0, 0)" stroke-opacity="1.0" stroke-linecap="round" stroke-linejoin="round"/>
    <path d="M 298.3006896972656 325.4363098144531 C 296.7673645019531 335.6787109375 300.04541015625 343.28564453125 304.6829833984375 350.25714111328125 C 304.66729736328125 356.061767578125 306.86175537109375 358.6139831542969 313.68597412109375 358.0245361328125 C 319.9206848144531 353.7407531738281 323.51007080078125 347.4764709472656 324.614013671875 340.6531066894531 C 313.9527893066406 333.0635681152344 313.0046691894531 321.58294677734375 298.3006896972656 325.4363098144531" stroke-width="0.0" fill="rgb(166, 166, 164)" opacity="0.9934733" stroke="rgb(0, 0, 0)" stroke-opacity="1.0" stroke-linecap="round" stroke-linejoin="round"/>
    <path d="M 366.9371643066406 471.2109375 C 353.1370544433594 485.3288269042969 338.30426025390625 492.405517578125 315.5504455566406 492.2599182128906 C 314.9088439941406 494.95184326171875 314.81732177734375 505.0034484863281 315.4439697265625 517.6616821289062 C 333.3760986328125 516.3959350585938 350.6134033203125 515.7066650390625 367.6641540527344 515.6566772460938 C 368.952880859375 498.8288269042969 369.39703369140625 485.8069152832031 366.9371643066406 471.2109375" stroke-width="0.0" fill="rgb(33, 32, 30)" opacity="0.9825096" stroke="rgb(0, 0, 0)" stroke-opacity="1.0" stroke-linecap="round" stroke-linejoin="round"/>
    <path d="M 2.9864561557769775 434.3300476074219 C 19.647266387939453 435.1206359863281 11.344756126403809 415.41064453125 30.292688369750977 422.27862548828125 C 30.178380966186523 413.49456787109375 27.595069885253906 411.3209533691406 27.160736083984375 406.2120361328125 C 16.721052169799805 405.9900817871094 7.2773237228393555 404.4292907714844 -4.055301666259766 403.667236328125 C -4.392338275909424 417.7264404296875 -5.3508148193359375 427.2010498046875 2.9864561557769775 434.3300476074219" stroke-width="0.0" fill="rgb(36, 36, 32)" opacity="0.99107796" stroke="rgb(0, 0, 0)" stroke-opacity="1.0" stroke-linecap="round" stroke-linejoin="round"/>
    <path d="M -3.9257898330688477 388.0906677246094 C -2.441409111022949 394.22393798828125 -3.3611538410186768 401.9100341796875 -3.587895631790161 407.089111328125 C 8.41270637512207 407.7947998046875 20.628087997436523 410.2413635253906 29.07891845703125 406.5649108886719 C 26.65154266357422 400.8352355957031 22.417287826538086 395.63189697265625 18.600032806396484 391.3275146484375 C 14.932915687561035 385.9752502441406 9.975229263305664 385.45550537109375 -3.9257898330688477 388.0906677246094" stroke-width="0.0" fill="rgb(136, 136, 133)" opacity="1.0163047" stroke="rgb(0, 0, 0)" stroke-opacity="1.0" stroke-linecap="round" stroke-linejoin="round"/>
    <path d="M 134.1439971923828 19.2452335357666 C 131.39723205566406 28.776229858398438 131.84243774414062 28.017162322998047 139.1174774169922 28.521089553833008 C 151.25367736816406 30.64550018310547 162.558837890625 29.417661666870117 173.05551147460938 27.19828987121582 C 170.66268920898438 19.470685958862305 166.40155029296875 17.45119857788086 160.89479064941406 17.32898712158203 C 149.36148071289062 14.954269409179688 139.13623046875 17.231555938720703 134.1439971923828 19.2452335357666" stroke-width="0.0" fill="rgb(55, 55, 53)" opacity="1.0000356" stroke="rgb(0, 0, 0)" stroke-opacity="1.0" stroke-linecap="round" stroke-linejoin="round"/>
    <path d="M 242.8970947265625 423.6018981933594 C 244.90830993652344 420.47515869140625 244.51048278808594 424.2328796386719 242.5418243408203 429.4812927246094 C 246.79624938964844 446.5157165527344 248.8389892578125 462.41162109375 240.03057861328125 477.3145446777344 C 233.57455444335938 460.69293212890625 237.97311401367188 443.0969543457031 242.8970947265625 423.6018981933594" stroke-width="0.0" fill="rgb(175, 174, 172)" opacity="0.99051183" stroke="rgb(0, 0, 0)" stroke-opacity="1.0" stroke-linecap="round" stroke-linejoin="round"/>
    <path d="M 451.0355224609375 453.4881286621094 C 445.8997802734375 451.854248046875 445.6390380859375 447.21710205078125 443.3219909667969 447.3416442871094 C 422.2392272949219 450.17236328125 403.4290771484375 452.5843505859375 388.65740966796875 457.1766357421875 C 384.5899658203125 461.8360595703125 380.10809326171875 464.584228515625 380.3709411621094 477.5477600097656 C 379.13580322265625 485.05767822265625 382.00030517578125 499.47760009765625 380.4092712402344 516.633056640625 C 405.76641845703125 516.3626098632812 430.39508056640625 516.3432006835938 454.76373291015625 515.2792358398438 C 452.7947692871094 490.68060302734375 451.6810607910156 471.2131652832031 451.0355224609375 453.4881286621094" stroke-width="0.0" fill="rgb(44, 44, 42)" opacity="1.0010011" stroke="rgb(0, 0, 0)" stroke-opacity="1.0" stroke-linecap="round" stroke-linejoin="round"/>
    <path d="M 104.70437622070312 -3.7592835426330566 C 98.95355224609375 -3.2596676349639893 93.99653625488281 -2.046612024307251 89.0951156616211 -1.0476500988006592 C 86.61614227294922 62.54004669189453 86.64288330078125 129.36968994140625 86.93519592285156 202.63296508789062 C 86.06172943115234 206.29141235351562 87.22232818603516 212.81564331054688 90.67340087890625 215.44705200195312 C 98.52184295654297 216.8339385986328 102.64976501464844 215.82876586914062 105.41993713378906 213.76551818847656 C 105.58573913574219 142.2399139404297 105.77368927001953 70.94982147216797 104.70437622070312 -3.7592835426330566" stroke-width="0.0" fill="rgb(43, 43, 41)" opacity="1.0010734" stroke="rgb(0, 0, 0)" stroke-opacity="1.0" stroke-linecap="round" stroke-linejoin="round"/>
    <path d="M 479.4697570800781 483.0845642089844 C 476.6581726074219 491.9090576171875 479.79241943359375 503.2638244628906 474.6470947265625 515.2904052734375 C 485.8872985839844 516.1767578125 495.29107666015625 517.0441284179688 503.86505126953125 515.5079345703125 C 501.37725830078125 499.1695861816406 494.47784423828125 492.91632080078125 490.37646484375 484.0552673339844 C 489.2671813964844 482.1619873046875 483.7799987792969 483.3623046875 479.4697570800781 483.0845642089844" stroke-width="0.0" fill="rgb(60, 59, 56)" opacity="0.9777341" stroke="rgb(0, 0, 0)" stroke-opacity="1.0" stroke-linecap="round" stroke-linejoin="round"/>
    <path d="M 353.3002014160156 481.6630554199219 C 341.82305908203125 491.2547302246094 330.6237487792969 492.6119689941406 315.91644287109375 492.63726806640625 C 314.5932312011719 496.24688720703125 314.35711669921875 504.6136474609375 314.9491882324219 516.9942016601562 C 328.0273132324219 516.1661376953125 340.91546630859375 516.2123413085938 357.05035400390625 516.3175048828125 C 356.3625793457031 500.136962890625 355.44488525390625 491.69622802734375 353.3002014160156 481.6630554199219" stroke-width="0.0" fill="rgb(32, 31, 29)" opacity="0.99964684" stroke="rgb(0, 0, 0)" stroke-opacity="1.0" stroke-linecap="round" stroke-linejoin="round"/>
    <path d="M 368.065185546875 472.5709228515625 C 360.837158203125 475.79107666015625 356.1419372558594 480.2497863769531 350.4783020019531 483.6466979980469 C 354.2337646484375 489.50640869140625 355.5673522949219 498.9113464355469 357.6365661621094 515.4900512695312 C 358.8598327636719 515.6497802734375 363.0943603515625 515.4271240234375 368.0547790527344 515.7992553710938 C 368.8826599121094 497.90362548828125 368.728515625 484.8304748535156 368.065185546875 472.5709228515625" stroke-width="0.0" fill="rgb(19, 18, 16)" opacity="0.9993472" stroke="rgb(0, 0, 0)" stroke-opacity="1.0" stroke-linecap="round" stroke-linejoin="round"/>
  </g>
</svg>
