<?xml version="1.0" ?>
<svg xmlns="http://www.w3.org/2000/svg" version="1.1" width="512" height="512">
  <defs/>
  <g>
    <path d="M -3.5207464694976807 -6.821264743804932 C -1.363291621208191 170.3333282470703 -0.44395920634269714 340.6666564941406 -0.8328596353530884 518.50732421875 C 170.17959594726562 518.619140625 341.05572509765625 518.6515502929688 520.9857788085938 518.9119262695312 C 520.9873046875 341.0442810058594 520.5530395507812 170.53884887695312 520.3413696289062 -6.090325832366943 C 340.44573974609375 -6.972940444946289 169.89430236816406 -6.8235602378845215 -3.5207464694976807 -6.821264743804932" stroke-width="0.0" fill="rgb(58, 58, 56)" opacity="1.0920241" stroke="rgb(0, 0, 0)" stroke-opacity="1.0" stroke-linecap="round" stroke-linejoin="round"/>
    <path d="M 289.146728515625 218.34713745117188 C 283.756591796875 223.0601348876953 278.7187194824219 227.11180114746094 275.8409729003906 237.2810516357422 C 274.1401672363281 250.25115966796875 274.609130859375 264.3553466796875 277.4998779296875 275.36553955078125 C 293.7086486816406 302.615478515625 296.2742004394531 333.9964599609375 308.6953430175781 361.3252258300781 C 315.59808349609375 379.224365234375 331.6243591308594 381.4960021972656 339.53790283203125 398.4051818847656 C 340.27752685546875 402.0584716796875 335.1709899902344 401.7716979980469 329.2742614746094 404.1203308105469 C 314.2764587402344 406.6459655761719 297.69537353515625 405.3043518066406 301.814208984375 406.2698059082031 C 293.7899169921875 438.73052978515625 279.3542175292969 458.8209228515625 267.8414611816406 478.53125 C 264.07733154296875 495.176025390625 267.2807922363281 499.46514892578125 272.2714538574219 522.2565307617188 C 335.8653259277344 523.330322265625 412.3681335449219 523.1654052734375 496.7974853515625 523.1966552734375 C 490.5299072265625 484.0300598144531 481.829345703125 465.5149230957031 473.5888366699219 442.72247314453125 C 478.07843017578125 416.3008117675781 474.71051025390625 386.04656982421875 480.9218444824219 364.26116943359375 C 467.75799560546875 331.1736145019531 453.7696228027344 306.13153076171875 435.14373779296875 280.22906494140625 C 417.2513122558594 267.0577392578125 400.48077392578125 249.88858032226562 385.30377197265625 230.75039672851562 C 371.564453125 226.4676513671875 361.3311462402344 220.37734985351562 350.7287292480469 214.10227966308594 C 338.1685485839844 209.42359924316406 326.3849182128906 207.401123046875 313.4280700683594 207.98365783691406 C 301.3695373535156 209.6138458251953 296.5715637207031 214.27297973632812 289.146728515625 218.34713745117188" stroke-width="0.0" fill="rgb(60, 60, 58)" opacity="1.0031049" stroke="rgb(0, 0, 0)" stroke-opacity="1.0" stroke-linecap="round" stroke-linejoin="round"/>
    <path d="M 218.4640350341797 -7.749394416809082 C 219.01553344726562 50.2536506652832 215.63963317871094 108.11067962646484 217.36227416992188 160.94869995117188 C 240.7192840576172 152.46371459960938 257.79205322265625 140.01141357421875 278.57171630859375 126.92205047607422 C 285.5027160644531 114.66995239257812 290.0147705078125 97.10942077636719 301.0697021484375 83.49334716796875 C 311.8791198730469 69.61474609375 324.436767578125 73.42279815673828 333.4338684082031 66.85716247558594 C 339.8299255371094 67.33037567138672 351.59381103515625 69.77165222167969 356.3462829589844 78.87274169921875 C 364.1748046875 86.66841125488281 367.5487365722656 101.71671295166016 369.1883850097656 116.90130615234375 C 381.5159606933594 125.84889221191406 396.56536865234375 115.13562774658203 404.85125732421875 121.00749969482422 C 424.9640808105469 126.19540405273438 434.8067626953125 136.43716430664062 443.5238342285156 147.44570922851562 C 464.7566833496094 144.97592163085938 487.6541748046875 148.52223205566406 520.6997680664062 152.63536071777344 C 520.2515869140625 101.61737060546875 519.3328857421875 50.64375686645508 518.53369140625 -4.851470470428467 C 413.6495666503906 -5.816386699676514 316.2848815917969 -6.3318867683410645 218.4640350341797 -7.749394416809082" stroke-width="0.0" fill="rgb(133, 132, 130)" opacity="0.9818217" stroke="rgb(0, 0, 0)" stroke-opacity="1.0" stroke-linecap="round" stroke-linejoin="round"/>
    <path d="M 129.67112731933594 237.78480529785156 C 124.02131652832031 234.0433349609375 116.1016845703125 239.0550537109375 110.901611328125 244.07562255859375 C 100.99776458740234 260.78948974609375 90.51417541503906 275.4550476074219 91.36555480957031 297.98333740234375 C 80.96833801269531 292.5517578125 71.6076431274414 293.49237060546875 67.51854705810547 293.31158447265625 C 57.345218658447266 289.3392028808594 48.77639389038086 283.6313781738281 44.426910400390625 277.4532775878906 C 36.824920654296875 279.95770263671875 32.730716705322266 282.08349609375 29.924203872680664 280.383544921875 C 26.56092643737793 298.9844970703125 13.594179153442383 312.5404357910156 2.201643705368042 333.288330078125 C -9.026241302490234 365.6065673828125 -11.807270050048828 404.1404113769531 -10.63541316986084 440.2828063964844 C 14.638129234313965 436.1269226074219 15.161258697509766 434.17181396484375 26.604921340942383 439.2106628417969 C 46.15550994873047 444.63037109375 62.89664840698242 452.5758972167969 80.24302673339844 455.37664794921875 C 91.73436737060547 460.5843200683594 118.87935638427734 467.53369140625 132.25442504882812 476.8095703125 C 130.0926055908203 473.2396545410156 126.83524322509766 468.5513000488281 120.13502502441406 470.7937927246094 C 111.43661499023438 464.1683044433594 97.88871765136719 461.9683837890625 81.42414093017578 457.60540771484375 C 88.77243041992188 449.5163269042969 99.64810943603516 453.58978271484375 111.83506774902344 451.2406921386719 C 118.1517562866211 451.4313049316406 117.6173095703125 447.0950012207031 120.64529418945312 444.916259765625 C 121.77288055419922 411.76202392578125 117.51703643798828 389.9293212890625 120.0907211303711 364.9006652832031 C 131.62857055664062 341.20068359375 148.46450805664062 316.64215087890625 165.11280822753906 294.7925109863281 C 164.78822326660156 279.94921875 166.72474670410156 265.4088134765625 161.47348022460938 259.39105224609375 C 153.74383544921875 247.69512939453125 144.8126983642578 241.32418823242188 129.67112731933594 237.78480529785156" stroke-width="0.0" fill="rgb(112, 111, 109)" opacity="0.99146295" stroke="rgb(0, 0, 0)" stroke-opacity="1.0" stroke-linecap="round" stroke-linejoin="round"/>
    <path d="M 209.51956176757812 275.8629455566406 C 202.66014099121094 287.4580993652344 187.8066864013672 300.68060302734375 188.4276885986328 316.11163330078125 C 191.6302490234375 346.1961975097656 220.7982177734375 353.8421630859375 231.30023193359375 385.7864990234375 C 236.21217346191406 387.8707580566406 236.13507080078125 392.5361022949219 249.42440795898438 392.4093017578125 C 269.17572021484375 387.0967102050781 281.7725524902344 401.3323974609375 309.4332580566406 394.1290588378906 C 309.8955078125 368.88507080078125 299.2650451660156 350.1938781738281 295.59954833984375 327.6097412109375 C 288.9476318359375 306.0619201660156 281.90264892578125 290.8374938964844 273.6923828125 274.4380798339844 C 267.75579833984375 270.3765869140625 254.29075622558594 266.05718994140625 245.46701049804688 262.8270263671875 C 227.58827209472656 261.11749267578125 221.00372314453125 271.3323669433594 209.51956176757812 275.8629455566406" stroke-width="0.0" fill="rgb(34, 35, 33)" opacity="0.94023734" stroke="rgb(0, 0, 0)" stroke-opacity="1.0" stroke-linecap="round" stroke-linejoin="round"/>
    <path d="M 443.7383728027344 147.8048095703125 C 455.8871765136719 169.1628875732422 462.57177734375 197.19337463378906 470.9887390136719 219.1248779296875 C 469.76861572265625 232.35531616210938 452.9052429199219 221.09078979492188 446.7785339355469 228.26258850097656 C 440.0306396484375 234.439697265625 440.1967468261719 258.6629638671875 438.25042724609375 282.2203674316406 C 458.76263427734375 302.287841796875 468.96533203125 334.81951904296875 486.94195556640625 359.0848083496094 C 496.6340026855469 350.009521484375 490.31048583984375 329.0133056640625 495.16461181640625 310.22723388671875 C 500.0948791503906 305.0325927734375 504.2236633300781 305.29364013671875 518.6629028320312 312.3877868652344 C 518.8021240234375 256.57891845703125 518.8258666992188 205.33712768554688 518.93505859375 153.1962890625 C 489.6623840332031 150.6493377685547 474.0455017089844 143.705810546875 443.7383728027344 147.8048095703125" stroke-width="0.0" fill="rgb(197, 196, 193)" opacity="0.9957372" stroke="rgb(0, 0, 0)" stroke-opacity="1.0" stroke-linecap="round" stroke-linejoin="round"/>
    <path d="M -6.476124286651611 444.6805419921875 C -6.424977779388428 463.6666564941406 -3.841305732727051 487.3419189453125 -2.852497100830078 520.5982055664062 C 73.41278076171875 521.502197265625 143.5258331298828 522.2400512695312 215.15890502929688 517.9052124023438 C 193.96630859375 490.4403991699219 158.76609802246094 485.3072814941406 138.58775329589844 463.9375305175781 C 111.82770538330078 455.5320129394531 86.39411163330078 457.0401611328125 67.00028228759766 452.1546630859375 C 50.1151237487793 447.1380615234375 34.262298583984375 439.5213623046875 16.160480499267578 433.759033203125 C 5.739950180053711 434.2353515625 3.075714588165283 436.76458740234375 -6.476124286651611 444.6805419921875" stroke-width="0.0" fill="rgb(109, 109, 107)" opacity="1.0343057" stroke="rgb(0, 0, 0)" stroke-opacity="1.0" stroke-linecap="round" stroke-linejoin="round"/>
    <path d="M 218.59613037109375 -7.010856628417969 C 202.7918701171875 -6.264333248138428 185.30491638183594 -9.525811195373535 168.45541381835938 2.9658777713775635 C 184.27432250976562 1.9511122703552246 180.03985595703125 8.194674491882324 183.42323303222656 35.4201545715332 C 179.07232666015625 94.6950454711914 175.1324005126953 166.25428771972656 170.4912567138672 237.41839599609375 C 169.6121063232422 256.64849853515625 169.5611572265625 271.1336669921875 173.82847595214844 285.1839599609375 C 186.9722137451172 265.4791259765625 200.0922393798828 251.43495178222656 217.44654846191406 240.53082275390625 C 209.18212890625 227.78414916992188 207.931396484375 222.74168395996094 200.52926635742188 213.07505798339844 C 206.93724060058594 201.3157501220703 210.9739227294922 179.3032989501953 215.00738525390625 156.6732635498047 C 216.979248046875 108.62236785888672 216.23049926757812 53.307682037353516 218.59613037109375 -7.010856628417969" stroke-width="0.0" fill="rgb(96, 96, 94)" opacity="1.0660231" stroke="rgb(0, 0, 0)" stroke-opacity="1.0" stroke-linecap="round" stroke-linejoin="round"/>
    <path d="M 403.2528076171875 124.66458129882812 C 392.0045471191406 127.24728393554688 395.1593017578125 132.81996154785156 390.578125 139.26031494140625 C 387.09515380859375 149.51983642578125 387.9652404785156 162.44769287109375 383.805908203125 173.41615295410156 C 382.2555847167969 195.67388916015625 387.59832763671875 207.5493927001953 387.6521911621094 218.07516479492188 C 391.0264892578125 231.3142852783203 396.2463684082031 239.955322265625 403.9814758300781 247.9602508544922 C 412.5263366699219 257.8418273925781 422.3842468261719 267.7261657714844 434.8387756347656 274.32257080078125 C 440.9263000488281 261.5018005371094 437.1192932128906 237.3802490234375 445.3343200683594 225.41749572753906 C 451.2814025878906 218.46771240234375 465.9979553222656 230.30963134765625 468.5718994140625 217.1746063232422 C 457.7335205078125 190.88758850097656 452.7120056152344 162.2671661376953 439.2964782714844 145.3810577392578 C 434.22967529296875 138.44879150390625 428.1596984863281 134.0122833251953 421.5895080566406 129.6302490234375 C 416.3190002441406 127.0645523071289 409.41796875 124.19558715820312 403.2528076171875 124.66458129882812" stroke-width="0.0" fill="rgb(59, 59, 57)" opacity="0.8946084" stroke="rgb(0, 0, 0)" stroke-opacity="1.0" stroke-linecap="round" stroke-linejoin="round"/>
    <path d="M -4.5413079261779785 74.17159271240234 C -7.42853307723999 163.47055053710938 -7.514492511749268 248.1814727783203 -4.984616756439209 337.27728271484375 C 8.90300464630127 320.7975769042969 15.055004119873047 309.0174560546875 21.857398986816406 297.9529113769531 C 28.017419815063477 288.2622985839844 22.60253143310547 276.98138427734375 27.420978546142578 265.1593322753906 C 25.15827751159668 212.56565856933594 22.933866500854492 169.69448852539062 15.146334648132324 122.84252166748047 C 12.822103500366211 109.38644409179688 8.070209503173828 92.65257263183594 -4.5413079261779785 74.17159271240234" stroke-width="0.0" fill="rgb(43, 43, 41)" opacity="1.0169979" stroke="rgb(0, 0, 0)" stroke-opacity="1.0" stroke-linecap="round" stroke-linejoin="round"/>
    <path d="M 345.34375 72.61798095703125 C 337.91497802734375 68.91633605957031 333.13189697265625 69.94268798828125 328.5806884765625 76.1759262084961 C 321.3311462402344 95.09722900390625 308.07537841796875 106.30569458007812 299.54010009765625 124.36909484863281 C 299.1298828125 133.3674774169922 294.9184875488281 144.10081481933594 297.9109802246094 160.3672332763672 C 297.38177490234375 163.2763671875 299.5775451660156 166.36483764648438 303.9984436035156 168.89427185058594 C 315.3146057128906 173.05545043945312 324.9556579589844 169.85032653808594 335.6186828613281 161.88986206054688 C 341.7403869628906 150.93853759765625 351.2534484863281 137.73216247558594 361.965576171875 125.79712677001953 C 366.9457702636719 114.85331726074219 365.8846435546875 106.04764556884766 362.6427001953125 94.96350860595703 C 358.6294860839844 82.97916412353516 354.4154052734375 75.86636352539062 345.34375 72.61798095703125" stroke-width="0.0" fill="rgb(36, 36, 34)" opacity="0.9807634" stroke="rgb(0, 0, 0)" stroke-opacity="1.0" stroke-linecap="round" stroke-linejoin="round"/>
    <path d="M 305.37506103515625 408.34716796875 C 292.46026611328125 400.59954833984375 276.8420104980469 399.812255859375 266.1792297363281 395.05120849609375 C 249.04574584960938 394.1681823730469 248.94007873535156 395.2977294921875 243.55162048339844 401.37249755859375 C 237.51316833496094 414.4355773925781 237.10276794433594 435.0310974121094 236.9847412109375 462.3388977050781 C 238.20651245117188 471.3616027832031 241.88848876953125 489.5871887207031 250.47149658203125 493.753662109375 C 256.6863708496094 480.4554138183594 270.1712646484375 479.1823425292969 277.339599609375 462.61090087890625 C 290.90667724609375 448.12725830078125 293.4928283691406 424.7016296386719 305.37506103515625 408.34716796875" stroke-width="0.0" fill="rgb(213, 212, 210)" opacity="1.1719296" stroke="rgb(0, 0, 0)" stroke-opacity="1.0" stroke-linecap="round" stroke-linejoin="round"/>
    <path d="M 489.97259521484375 363.3782653808594 C 481.6514892578125 366.2651062011719 483.301025390625 376.7872619628906 481.1796569824219 394.7118835449219 C 482.7898254394531 405.129150390625 481.1177062988281 430.5841064453125 484.7214050292969 445.60760498046875 C 490.0162048339844 465.7298278808594 487.1552734375 485.3756103515625 498.23431396484375 508.4427185058594 C 499.44012451171875 517.1557006835938 502.0595703125 520.3997192382812 520.624267578125 521.2154541015625 C 520.9655151367188 467.10247802734375 519.4610595703125 418.0873718261719 518.83740234375 371.17108154296875 C 506.5692443847656 367.0888977050781 497.611328125 361.6185607910156 489.97259521484375 363.3782653808594" stroke-width="0.0" fill="rgb(55, 55, 54)" opacity="1.0147771" stroke="rgb(0, 0, 0)" stroke-opacity="1.0" stroke-linecap="round" stroke-linejoin="round"/>
    <path d="M 493.8441467285156 311.1452941894531 C 493.8128967285156 319.98956298828125 491.1710205078125 337.7520446777344 492.39495849609375 361.0641784667969 C 498.29046630859375 360.9141845703125 502.5355529785156 367.078369140625 519.1026000976562 370.37603759765625 C 520.7487182617188 351.0091552734375 520.1635131835938 330.6591491699219 518.7274780273438 311.57757568359375 C 505.6284484863281 306.6329650878906 500.1872253417969 303.953369140625 493.8441467285156 311.1452941894531" stroke-width="0.0" fill="rgb(111, 112, 108)" opacity="1.005977" stroke="rgb(0, 0, 0)" stroke-opacity="1.0" stroke-linecap="round" stroke-linejoin="round"/>
    <path d="M 168.7594451904297 299.6819763183594 C 160.83331298828125 306.34722900390625 153.42405700683594 314.52056884765625 148.21531677246094 322.9572448730469 C 157.27674865722656 328.1582946777344 162.48922729492188 321.39776611328125 169.0274658203125 316.77392578125 C 173.06307983398438 309.1426086425781 171.6920166015625 303.4561767578125 168.7594451904297 299.6819763183594" stroke-width="0.0" fill="rgb(205, 205, 203)" opacity="1.0177677" stroke="rgb(0, 0, 0)" stroke-opacity="1.0" stroke-linecap="round" stroke-linejoin="round"/>
    <path d="M 186.2079620361328 293.82733154296875 C 176.28761291503906 296.55517578125 172.2583465576172 294.3761901855469 169.41036987304688 302.3135070800781 C 176.28224182128906 304.3874816894531 173.04165649414062 308.8671569824219 167.9131622314453 319.07122802734375 C 162.8773956298828 324.2646789550781 155.4644317626953 324.4512939453125 149.02000427246094 323.4557800292969 C 139.67440795898438 335.4716796875 130.31585693359375 349.11883544921875 123.94679260253906 363.4783935546875 C 122.51852416992188 390.2792663574219 128.46449279785156 421.56317138671875 129.21177673339844 455.91217041015625 C 138.00961303710938 466.347900390625 160.1331787109375 472.1234130859375 176.05349731445312 483.91046142578125 C 181.11082458496094 482.615478515625 201.24375915527344 483.8582458496094 192.40121459960938 477.0911560058594 C 205.92947387695312 486.0000915527344 208.9812469482422 499.6042785644531 214.6225128173828 519.5938720703125 C 223.63624572753906 520.7933959960938 239.80296325683594 521.7100830078125 249.3341064453125 521.1351928710938 C 248.4677276611328 492.9422302246094 239.44766235351562 482.9229431152344 235.86672973632812 464.84930419921875 C 236.08909606933594 447.5249328613281 239.97879028320312 426.1124572753906 239.59962463378906 398.4483642578125 C 228.21766662597656 388.782470703125 229.66128540039062 369.679931640625 216.16378784179688 359.2784729003906 C 208.48268127441406 348.20050048828125 195.4729461669922 341.2682189941406 188.65432739257812 328.2080078125 C 180.60678100585938 318.692626953125 187.17227172851562 298.8327331542969 186.2079620361328 293.82733154296875" stroke-width="0.0" fill="rgb(136, 136, 134)" opacity="1.0846009" stroke="rgb(0, 0, 0)" stroke-opacity="1.0" stroke-linecap="round" stroke-linejoin="round"/>
    <path d="M 285.1466979980469 134.15492248535156 C 258.4511413574219 129.9896697998047 254.31784057617188 149.01425170898438 229.1428985595703 153.8616485595703 C 211.4947509765625 165.429931640625 211.16587829589844 200.1571502685547 201.06005859375 214.51812744140625 C 213.2034454345703 226.58261108398438 211.1491241455078 244.81922912597656 213.628173828125 240.63819885253906 C 211.05697631835938 234.22398376464844 205.93898010253906 245.01963806152344 209.01101684570312 244.5615692138672 C 210.52523803710938 255.67935180664062 206.14169311523438 259.4070129394531 211.54669189453125 261.7896728515625 C 220.54953002929688 260.0708312988281 226.8904266357422 255.3188934326172 237.38938903808594 255.4837646484375 C 248.4701385498047 255.88226318359375 258.8511962890625 265.9498596191406 271.1396484375 271.29608154296875 C 274.17816162109375 259.8441162109375 269.182373046875 249.59063720703125 273.4013977050781 236.28065490722656 C 272.3074035644531 226.0701904296875 285.6654357910156 224.46246337890625 282.52459716796875 211.44219970703125 C 278.5718994140625 185.13893127441406 282.4102783203125 158.9137725830078 285.1466979980469 134.15492248535156" stroke-width="0.0" fill="rgb(130, 129, 127)" opacity="1.0071703" stroke="rgb(0, 0, 0)" stroke-opacity="1.0" stroke-linecap="round" stroke-linejoin="round"/>
    <path d="M 42.8950080871582 187.396484375 C 34.261043548583984 188.68756103515625 29.19036293029785 198.51341247558594 29.887758255004883 204.28981018066406 C 25.556650161743164 224.94708251953125 30.444257736206055 240.34619140625 30.970434188842773 258.541748046875 C 37.03989028930664 269.9217224121094 48.76329040527344 275.5027770996094 63.305091857910156 278.6419372558594 C 65.93354797363281 280.5244445800781 73.77008056640625 279.8618469238281 73.77266693115234 279.66876220703125 C 76.49861145019531 278.96588134765625 85.4146728515625 282.8434143066406 90.53776550292969 282.1396179199219 C 97.6806869506836 262.8759765625 109.29168701171875 248.73228454589844 114.87271118164062 229.0899200439453 C 96.84358215332031 219.78501892089844 94.41801452636719 202.49835205078125 79.59928894042969 194.7577362060547 C 70.59506225585938 188.7656707763672 53.76809310913086 186.53121948242188 42.8950080871582 187.396484375" stroke-width="0.0" fill="rgb(24, 24, 22)" opacity="1.0016445" stroke="rgb(0, 0, 0)" stroke-opacity="1.0" stroke-linecap="round" stroke-linejoin="round"/>
    <path d="M 320.90966796875 74.99749755859375 C 312.11712646484375 74.46910858154297 310.2379455566406 77.43779754638672 305.7443542480469 80.6777572631836 C 300.8805847167969 85.54202270507812 294.58380126953125 94.61781311035156 292.0763854980469 100.61550903320312 C 289.2827453613281 107.14601135253906 285.63525390625 115.67268371582031 286.1365661621094 123.46485900878906 C 286.2033386230469 130.7418975830078 292.2424011230469 128.82733154296875 296.540283203125 136.01773071289062 C 301.9554748535156 112.32862854003906 316.0063171386719 101.23127746582031 324.94952392578125 86.1979751586914 C 328.98358154296875 76.83744812011719 325.70635986328125 78.70368194580078 320.90966796875 74.99749755859375" stroke-width="0.0" fill="rgb(178, 177, 175)" opacity="1.0122427" stroke="rgb(0, 0, 0)" stroke-opacity="1.0" stroke-linecap="round" stroke-linejoin="round"/>
    <path d="M 32.25639343261719 262.7244567871094 C 27.50700569152832 263.8841552734375 25.587522506713867 268.0375671386719 24.522113800048828 274.7698974609375 C 24.609264373779297 279.8326110839844 23.468843460083008 286.1724853515625 27.438854217529297 291.1683654785156 C 28.649620056152344 281.6242370605469 34.43299865722656 280.0938415527344 54.3731803894043 274.809814453125 C 46.081058502197266 273.0608825683594 37.50664520263672 269.321533203125 32.25639343261719 262.7244567871094" stroke-width="0.0" fill="rgb(138, 138, 136)" opacity="1.0463233" stroke="rgb(0, 0, 0)" stroke-opacity="1.0" stroke-linecap="round" stroke-linejoin="round"/>
    <path d="M 31.07270050048828 -6.78389835357666 C 37.43663024902344 7.5646071434021 41.8480339050293 9.985450744628906 43.101043701171875 26.640520095825195 C 42.254146575927734 71.63034057617188 44.30498123168945 130.24468994140625 41.8575553894043 183.0332489013672 C 53.35663986206055 186.26600646972656 66.76313781738281 179.832275390625 81.32786560058594 191.03695678710938 C 96.54531860351562 195.36019897460938 97.1069107055664 216.9813232421875 119.95718383789062 232.41172790527344 C 148.85435485839844 234.16123962402344 150.04537963867188 255.14080810546875 169.91867065429688 247.926513671875 C 174.74192810058594 172.6741180419922 173.30825805664062 84.52757263183594 174.95150756835938 -8.352937698364258 C 129.67562866210938 -6.814560890197754 83.74420928955078 -7.1653056144714355 31.07270050048828 -6.78389835357666" stroke-width="0.0" fill="rgb(11, 11, 9)" opacity="1.0324975" stroke="rgb(0, 0, 0)" stroke-opacity="1.0" stroke-linecap="round" stroke-linejoin="round"/>
    <path d="M 353.2812805175781 169.65611267089844 C 334.9965515136719 182.19839477539062 338.07977294921875 173.95181274414062 322.4195861816406 173.1727752685547 C 305.13946533203125 178.72140502929688 298.27081298828125 189.62083435058594 289.932373046875 197.91859436035156 C 284.9483642578125 202.7062530517578 281.0368957519531 207.13809204101562 281.59722900390625 220.90858459472656 C 293.69732666015625 215.55615234375 302.26904296875 206.60032653808594 314.3143310546875 206.9171905517578 C 330.7184753417969 205.97781372070312 343.71490478515625 209.53268432617188 356.7883605957031 214.57861328125 C 363.0010070800781 209.3756103515625 362.3265075683594 195.04367065429688 364.6293029785156 188.96087646484375 C 360.39788818359375 185.96844482421875 360.7928161621094 176.0739288330078 353.2812805175781 169.65611267089844" stroke-width="0.0" fill="rgb(65, 65, 63)" opacity="0.9714111" stroke="rgb(0, 0, 0)" stroke-opacity="1.0" stroke-linecap="round" stroke-linejoin="round"/>
    <path d="M 356.2210693359375 166.07196044921875 C 360.52069091796875 182.471923828125 367.91876220703125 191.39987182617188 359.3420104980469 215.5735321044922 C 368.6751708984375 220.15573120117188 373.45166015625 229.1162109375 389.5785217285156 230.65142822265625 C 385.5643005371094 210.8565673828125 384.1987609863281 189.21986389160156 379.0460510253906 178.16928100585938 C 376.31195068359375 172.33949279785156 374.3561096191406 167.58230590820312 370.190185546875 164.2970733642578 C 369.3744812011719 162.6293182373047 356.9201965332031 161.01535034179688 356.2210693359375 166.07196044921875" stroke-width="0.0" fill="rgb(130, 130, 128)" opacity="1.0168271" stroke="rgb(0, 0, 0)" stroke-opacity="1.0" stroke-linecap="round" stroke-linejoin="round"/>
    <path d="M 288.676025390625 129.28858947753906 C 285.7655334472656 132.67930603027344 284.41717529296875 141.3526611328125 282.38323974609375 157.91773986816406 C 281.9451599121094 159.72145080566406 281.93634033203125 159.00082397460938 288.681640625 166.31646728515625 C 294.7532653808594 163.0234832763672 297.14080810546875 156.22750854492188 297.7380676269531 144.15460205078125 C 299.1239013671875 136.64158630371094 296.1300354003906 131.96697998046875 288.676025390625 129.28858947753906" stroke-width="0.0" fill="rgb(190, 189, 187)" opacity="1.0443904" stroke="rgb(0, 0, 0)" stroke-opacity="1.0" stroke-linecap="round" stroke-linejoin="round"/>
    <path d="M 281.1263732910156 156.9305877685547 C 281.6815490722656 176.0258331298828 279.6424865722656 195.43185424804688 282.55767822265625 211.1566925048828 C 292.3703308105469 193.0543975830078 302.0533752441406 184.20321655273438 313.71258544921875 177.69703674316406 C 298.74609375 172.89198303222656 287.2044372558594 166.64535522460938 281.1263732910156 156.9305877685547" stroke-width="0.0" fill="rgb(50, 50, 48)" opacity="1.1284953" stroke="rgb(0, 0, 0)" stroke-opacity="1.0" stroke-linecap="round" stroke-linejoin="round"/>
    <path d="M 43.46194076538086 274.0981750488281 C 46.61101150512695 285.0166320800781 60.56496810913086 287.0712890625 69.19369506835938 297.4919738769531 C 75.302001953125 288.86285400390625 81.13672637939453 296.38568115234375 93.87115478515625 299.890380859375 C 97.28669738769531 292.8817138671875 91.19577026367188 286.8429870605469 92.97506713867188 281.6871032714844 C 73.13674926757812 281.2103576660156 59.3773078918457 276.84375 43.46194076538086 274.0981750488281" stroke-width="0.0" fill="rgb(54, 54, 52)" opacity="0.9120573" stroke="rgb(0, 0, 0)" stroke-opacity="1.0" stroke-linecap="round" stroke-linejoin="round"/>
    <path d="M 204.8216094970703 251.8992919921875 C 194.85440063476562 252.5568389892578 190.76800537109375 261.9205017089844 181.3851776123047 269.8631896972656 C 184.38902282714844 282.70513916015625 179.73941040039062 288.13653564453125 190.1591339111328 291.4818420410156 C 196.91795349121094 285.6183166503906 200.53880310058594 274.06353759765625 207.83546447753906 267.1866760253906 C 202.21630859375 259.1785888671875 209.68557739257812 252.639404296875 204.8216094970703 251.8992919921875" stroke-width="0.0" fill="rgb(135, 134, 133)" opacity="0.9459014" stroke="rgb(0, 0, 0)" stroke-opacity="1.0" stroke-linecap="round" stroke-linejoin="round"/>
    <path d="M 181.7921600341797 470.2302551269531 C 174.2973175048828 468.9749755859375 169.82908630371094 468.52691650390625 167.9651336669922 481.1383056640625 C 165.39857482910156 488.9559631347656 185.3375244140625 490.04083251953125 174.18466186523438 512.77197265625 C 170.31858825683594 518.9092407226562 173.62330627441406 519.0086669921875 174.56558227539062 522.4815063476562 C 176.95040893554688 496.0677490234375 182.89337158203125 485.6116943359375 181.7921600341797 470.2302551269531" stroke-width="0.0" fill="rgb(30, 30, 28)" opacity="0.9869769" stroke="rgb(0, 0, 0)" stroke-opacity="1.0" stroke-linecap="round" stroke-linejoin="round"/>
    <path d="M 284.9380798339844 220.68238830566406 C 282.8236999511719 226.47877502441406 277.78253173828125 227.11306762695312 276.0652160644531 236.19847106933594 C 273.88519287109375 245.344482421875 272.77752685546875 255.42771911621094 275.95855712890625 271.52734375 C 290.8007507324219 299.31787109375 298.0563049316406 348.1429748535156 311.6832580566406 360.9936218261719 C 321.5809326171875 375.5730285644531 329.5389099121094 379.8775939941406 344.6447448730469 382.9471740722656 C 365.38623046875 382.72186279296875 377.21820068359375 384.15545654296875 385.62115478515625 379.2285461425781 C 415.0646057128906 379.791259765625 416.29681396484375 391.1361389160156 431.7884521484375 388.85797119140625 C 435.95123291015625 400.47119140625 437.96356201171875 395.426025390625 427.54168701171875 398.6540832519531 C 436.8985595703125 399.6427307128906 451.1862487792969 398.2675476074219 464.5035705566406 400.4150390625 C 459.61004638671875 374.7171630859375 475.4659423828125 371.1763000488281 475.15777587890625 358.76220703125 C 464.9468078613281 324.1820373535156 451.39129638671875 306.8371887207031 436.1953125 284.0125732421875 C 409.66033935546875 258.1806335449219 387.8554382324219 236.2760772705078 352.5018310546875 215.95726013183594 C 345.51007080078125 209.52395629882812 328.17755126953125 206.7222442626953 313.08270263671875 208.1226348876953 C 300.0871276855469 208.95556640625 294.6765441894531 215.8024139404297 284.9380798339844 220.68238830566406" stroke-width="0.0" fill="rgb(56, 55, 53)" opacity="0.8451201" stroke="rgb(0, 0, 0)" stroke-opacity="1.0" stroke-linecap="round" stroke-linejoin="round"/>
    <path d="M 370.7115478515625 395.4690856933594 C 365.7371826171875 390.21148681640625 353.515380859375 391.24884033203125 345.82275390625 393.95556640625 C 338.8205871582031 397.80841064453125 335.1502990722656 406.4498291015625 315.379150390625 405.9817199707031 C 303.66241455078125 405.2481384277344 282.8748779296875 399.953125 264.4058837890625 394.8486328125 C 251.08067321777344 395.18951416015625 248.09889221191406 394.5458679199219 243.82623291015625 400.74481201171875 C 237.17713928222656 413.7966613769531 238.27162170410156 440.24383544921875 236.24203491210938 462.7618408203125 C 242.25588989257812 483.7474670410156 244.07754516601562 501.97686767578125 250.95042419433594 482.57025146484375 C 286.94451904296875 488.9246826171875 332.65020751953125 493.114501953125 365.3039855957031 481.2821960449219 C 384.2040710449219 461.3432312011719 367.5971984863281 434.2386169433594 370.7115478515625 395.4690856933594" stroke-width="0.0" fill="rgb(35, 35, 33)" opacity="0.6252028" stroke="rgb(0, 0, 0)" stroke-opacity="1.0" stroke-linecap="round" stroke-linejoin="round"/>
    <path d="M 441.64404296875 -3.394871711730957 C 458.65277099609375 49.65677261352539 475.93902587890625 97.73811340332031 495.7376403808594 143.86752319335938 C 498.46343994140625 149.28587341308594 503.6843566894531 150.00277709960938 520.9672241210938 150.94754028320312 C 519.446044921875 101.95623779296875 519.1046142578125 51.22052764892578 519.0418090820312 -0.9633169174194336 C 487.6483459472656 -5.357356548309326 462.98822021484375 -8.052248001098633 441.64404296875 -3.394871711730957" stroke-width="0.0" fill="rgb(108, 107, 104)" opacity="1.000355" stroke="rgb(0, 0, 0)" stroke-opacity="1.0" stroke-linecap="round" stroke-linejoin="round"/>
    <path d="M -4.408764839172363 455.7172546386719 C -6.115464687347412 475.8743896484375 -3.5734238624572754 493.73724365234375 -0.37386220693588257 519.5241088867188 C 70.77713012695312 519.7955322265625 140.63795471191406 520.3033447265625 211.10324096679688 518.6759033203125 C 196.360595703125 517.1322631835938 177.88888549804688 522.2086181640625 167.65855407714844 517.19287109375 C 169.8641357421875 496.81597900390625 166.9255828857422 505.03729248046875 170.4330291748047 498.35980224609375 C 166.1338653564453 492.266845703125 154.3188934326172 492.16241455078125 147.4538116455078 489.4520568847656 C 122.03494262695312 488.8036193847656 91.8939437866211 488.0169677734375 65.14530944824219 484.788330078125 C 39.85150146484375 479.53790283203125 19.83871841430664 469.7864685058594 -4.408764839172363 455.7172546386719" stroke-width="0.0" fill="rgb(46, 46, 44)" opacity="1.0043528" stroke="rgb(0, 0, 0)" stroke-opacity="1.0" stroke-linecap="round" stroke-linejoin="round"/>
    <path d="M -4.804961204528809 438.5213317871094 C -6.287006378173828 446.5696105957031 -6.013916015625 454.3807373046875 1.2224323749542236 459.3364562988281 C 14.6348876953125 467.48504638671875 29.476518630981445 475.1766357421875 47.09756851196289 481.0796203613281 C 67.62715911865234 486.8150939941406 98.04305267333984 487.62689208984375 126.81216430664062 490.1943359375 C 146.30535888671875 489.2991027832031 157.72381591796875 493.2418518066406 161.45333862304688 486.7264404296875 C 153.98898315429688 471.7669372558594 141.74591064453125 466.5064392089844 125.7702407836914 459.54315185546875 C 107.3443832397461 457.3661193847656 82.61035919189453 455.54962158203125 59.99856948852539 449.64013671875 C 47.66754150390625 443.3506774902344 32.312164306640625 438.4836120605469 13.278046607971191 435.13092041015625 C 9.894679069519043 428.73114013671875 9.52296257019043 435.9476318359375 -4.804961204528809 438.5213317871094" stroke-width="0.0" fill="rgb(162, 161, 159)" opacity="0.8173627" stroke="rgb(0, 0, 0)" stroke-opacity="1.0" stroke-linecap="round" stroke-linejoin="round"/>
    <path d="M 120.99674224853516 236.4416046142578 C 111.31278991699219 236.55352783203125 107.28604125976562 249.65927124023438 104.03086853027344 256.8614196777344 C 97.76515197753906 268.2700500488281 91.3593978881836 279.7640380859375 86.21717071533203 294.0267639160156 C 107.0479965209961 308.06231689453125 124.44060516357422 310.5489807128906 134.733642578125 328.77215576171875 C 152.50205993652344 326.4095458984375 152.59786987304688 308.1332702636719 163.87167358398438 302.5998840332031 C 171.2478790283203 286.5267333984375 167.49960327148438 279.31591796875 166.82656860351562 265.67462158203125 C 163.45765686035156 255.790771484375 157.57968139648438 251.7420196533203 152.46585083007812 247.1414794921875 C 142.2232208251953 242.25588989257812 134.63380432128906 234.1256866455078 120.99674224853516 236.4416046142578" stroke-width="0.0" fill="rgb(79, 78, 76)" opacity="0.9202818" stroke="rgb(0, 0, 0)" stroke-opacity="1.0" stroke-linecap="round" stroke-linejoin="round"/>
    <path d="M 490.8581848144531 472.40155029296875 C 485.04998779296875 484.0982666015625 494.6752624511719 493.90570068359375 497.68975830078125 508.96636962890625 C 494.052001953125 517.9931030273438 497.9117736816406 520.4536743164062 518.4013061523438 521.6476440429688 C 519.892578125 507.0341491699219 519.181884765625 498.3593444824219 518.1533203125 486.9364013671875 C 504.7003173828125 481.8904113769531 501.34515380859375 466.261962890625 490.8581848144531 472.40155029296875" stroke-width="0.0" fill="rgb(90, 90, 86)" opacity="0.7760947" stroke="rgb(0, 0, 0)" stroke-opacity="1.0" stroke-linecap="round" stroke-linejoin="round"/>
    <path d="M 519.3505249023438 335.7748718261719 C 503.8426513671875 335.0026550292969 500.4386291503906 334.1768493652344 501.4880065917969 336.0069580078125 C 499.7457580566406 345.2051696777344 499.0890808105469 352.11102294921875 499.9364318847656 360.07183837890625 C 498.3985900878906 362.4639587402344 505.3608093261719 367.06964111328125 521.0630493164062 371.0996398925781 C 521.5206298828125 350.5506286621094 521.0436401367188 338.60107421875 519.3505249023438 335.7748718261719" stroke-width="0.0" fill="rgb(196, 197, 192)" opacity="1.04209" stroke="rgb(0, 0, 0)" stroke-opacity="1.0" stroke-linecap="round" stroke-linejoin="round"/>
    <path d="M 498.43963623046875 520.8767700195312 C 499.1681213378906 471.9920349121094 466.9714050292969 466.8099365234375 472.3544921875 439.5925598144531 C 448.9388122558594 436.5807800292969 428.08343505859375 447.7188415527344 390.4129943847656 454.05291748046875 C 375.121337890625 468.3443908691406 364.2510681152344 486.9339294433594 328.2582702636719 488.1681213378906 C 299.1961975097656 490.49053955078125 271.889404296875 484.3400573730469 244.12782287597656 476.1309814453125 C 242.77740478515625 493.93487548828125 249.84292602539062 501.0814514160156 262.22052001953125 521.3026733398438 C 336.8619689941406 521.4684448242188 417.5485534667969 521.1592407226562 498.43963623046875 520.8767700195312" stroke-width="0.0" fill="rgb(79, 79, 77)" opacity="0.98277694" stroke="rgb(0, 0, 0)" stroke-opacity="1.0" stroke-linecap="round" stroke-linejoin="round"/>
    <path d="M 191.5587158203125 336.5580139160156 C 191.14356994628906 359.070556640625 187.7111053466797 368.9097900390625 178.8387451171875 379.83575439453125 C 174.67236328125 405.3636779785156 179.43502807617188 437.0341796875 181.33432006835938 453.9608459472656 C 190.6481475830078 480.61065673828125 208.42881774902344 485.4889221191406 211.4869842529297 519.1851196289062 C 219.90834045410156 521.3697509765625 240.10879516601562 521.31591796875 252.6914520263672 519.05078125 C 246.53689575195312 491.7647399902344 238.72589111328125 475.44219970703125 235.95265197753906 458.634033203125 C 239.0879364013672 442.308837890625 237.57032775878906 417.0090637207031 241.20445251464844 400.9680480957031 C 235.59722900390625 383.19989013671875 226.69735717773438 374.9169006347656 220.6273651123047 363.7457275390625 C 213.16586303710938 351.7051696777344 201.26693725585938 345.842041015625 191.5587158203125 336.5580139160156" stroke-width="0.0" fill="rgb(49, 49, 47)" opacity="1.0529557" stroke="rgb(0, 0, 0)" stroke-opacity="1.0" stroke-linecap="round" stroke-linejoin="round"/>
    <path d="M 398.7352600097656 129.65101623535156 C 392.6858215332031 138.4026336669922 390.1859436035156 150.6189727783203 392.1156311035156 169.37396240234375 C 393.96588134765625 193.91748046875 410.6172180175781 202.64202880859375 409.1058349609375 227.6078338623047 C 428.35333251953125 235.21176147460938 442.9031677246094 221.1380615234375 473.7794494628906 223.99258422851562 C 457.7166442871094 197.12933349609375 454.88543701171875 165.33200073242188 441.4913635253906 148.41676330566406 C 436.5260314941406 138.00335693359375 428.8982849121094 132.34580993652344 418.82843017578125 128.91488647460938 C 408.65460205078125 124.5858383178711 406.6528015136719 124.12928009033203 398.7352600097656 129.65101623535156" stroke-width="0.0" fill="rgb(34, 34, 31)" opacity="1.0134919" stroke="rgb(0, 0, 0)" stroke-opacity="1.0" stroke-linecap="round" stroke-linejoin="round"/>
    <path d="M 218.99595642089844 39.80356979370117 C 216.5794219970703 78.4501724243164 214.1317138671875 115.24384307861328 211.91204833984375 164.1804656982422 C 222.92095947265625 152.2528839111328 223.7281036376953 147.405517578125 232.32965087890625 142.30538940429688 C 249.12457275390625 137.73741149902344 263.4946594238281 133.585205078125 280.3326416015625 130.7749786376953 C 285.24981689453125 128.02166748046875 283.6666564941406 126.83814239501953 284.1979675292969 117.97158813476562 C 266.25799560546875 107.97750091552734 261.5877685546875 79.70056915283203 247.1920166015625 61.99103927612305 C 240.1628875732422 48.723995208740234 225.0111541748047 50.30643081665039 218.99595642089844 39.80356979370117" stroke-width="0.0" fill="rgb(175, 174, 172)" opacity="0.81217736" stroke="rgb(0, 0, 0)" stroke-opacity="1.0" stroke-linecap="round" stroke-linejoin="round"/>
    <path d="M -6.54995059967041 75.29727935791016 C -7.4626054763793945 137.0143280029297 -6.597846984863281 198.52223205566406 -6.69999361038208 259.38409423828125 C 14.741312026977539 263.4368896484375 12.939825057983398 257.39520263671875 13.48417854309082 271.8751525878906 C 18.076873779296875 263.1272888183594 16.48895835876465 257.0848693847656 18.001588821411133 254.1818389892578 C 18.840436935424805 262.41339111328125 21.970468521118164 258.2157897949219 23.468175888061523 266.65606689453125 C 24.06173324584961 241.11923217773438 26.069732666015625 214.54904174804688 24.749818801879883 189.70777893066406 C 19.205488204956055 159.923095703125 19.08634376525879 127.7010726928711 11.125406265258789 98.91309356689453 C 9.649125099182129 90.0065689086914 7.0891432762146 82.7309341430664 -6.54995059967041 75.29727935791016" stroke-width="0.0" fill="rgb(66, 66, 63)" opacity="0.99086475" stroke="rgb(0, 0, 0)" stroke-opacity="1.0" stroke-linecap="round" stroke-linejoin="round"/>
    <path d="M 23.92656707763672 300.2682800292969 C 15.006646156311035 310.5829772949219 8.353534698486328 325.04876708984375 -3.0571722984313965 341.05438232421875 C -7.0522356033325195 366.0322570800781 -7.07981538772583 399.7740478515625 -5.854824542999268 433.8454895019531 C 12.517510414123535 429.4410400390625 19.544044494628906 419.9303283691406 28.425071716308594 414.92437744140625 C 29.474470138549805 374.6996154785156 28.88529396057129 330.91876220703125 23.92656707763672 300.2682800292969" stroke-width="0.0" fill="rgb(101, 100, 99)" opacity="0.9558982" stroke="rgb(0, 0, 0)" stroke-opacity="1.0" stroke-linecap="round" stroke-linejoin="round"/>
    <path d="M 218.7409210205078 -9.077415466308594 C 209.86170959472656 -11.15893268585205 209.19686889648438 -3.957869052886963 208.89410400390625 2.1855952739715576 C 214.28106689453125 62.10624313354492 203.19595336914062 128.8563232421875 210.98663330078125 186.0515899658203 C 219.78587341308594 133.9407958984375 216.78851318359375 62.54833221435547 218.7409210205078 -9.077415466308594" stroke-width="0.0" fill="rgb(25, 25, 22)" opacity="1.0030032" stroke="rgb(0, 0, 0)" stroke-opacity="1.0" stroke-linecap="round" stroke-linejoin="round"/>
    <path d="M -7.841555118560791 264.1170959472656 C -8.699995994567871 281.9198913574219 -8.132842063903809 304.9679260253906 -1.715617299079895 335.2336120605469 C 9.86905288696289 320.4596252441406 17.752622604370117 306.2922668457031 25.699262619018555 290.92010498046875 C 23.657089233398438 284.6764221191406 23.0629940032959 277.6445007324219 22.21207618713379 270.5832824707031 C 13.580009460449219 267.9798583984375 11.600258827209473 263.3894348144531 -7.841555118560791 264.1170959472656" stroke-width="0.0" fill="rgb(22, 22, 20)" opacity="1.0011752" stroke="rgb(0, 0, 0)" stroke-opacity="1.0" stroke-linecap="round" stroke-linejoin="round"/>
    <path d="M 487.91131591796875 365.7229309082031 C 487.11761474609375 368.16241455078125 485.5282287597656 395.21478271484375 487.67132568359375 402.7662353515625 C 489.8039855957031 412.2137451171875 499.552490234375 411.5845031738281 521.1456298828125 415.616455078125 C 520.9038696289062 403.4723205566406 519.4641723632812 386.53948974609375 516.1893920898438 370.3204345703125 C 502.5479431152344 367.09674072265625 501.4892883300781 359.6897277832031 487.91131591796875 365.7229309082031" stroke-width="0.0" fill="rgb(33, 33, 31)" opacity="0.99745625" stroke="rgb(0, 0, 0)" stroke-opacity="1.0" stroke-linecap="round" stroke-linejoin="round"/>
    <path d="M 489.6065979003906 439.5825500488281 C 488.670654296875 437.9504089355469 487.7677917480469 449.4105529785156 490.34197998046875 457.582763671875 C 495.12335205078125 465.8168640136719 503.0775146484375 479.1265869140625 520.2318115234375 489.6395568847656 C 520.1280517578125 475.3965759277344 519.2133178710938 455.08184814453125 518.7089233398438 436.8017883300781 C 501.85845947265625 432.35504150390625 497.4103698730469 436.6170959472656 489.6065979003906 439.5825500488281" stroke-width="0.0" fill="rgb(34, 34, 32)" opacity="1.0016282" stroke="rgb(0, 0, 0)" stroke-opacity="1.0" stroke-linecap="round" stroke-linejoin="round"/>
    <path d="M 494.5881652832031 304.6270446777344 C 491.69012451171875 318.9213562011719 490.3098449707031 337.6509094238281 491.97332763671875 361.9744873046875 C 485.94866943359375 368.6750183105469 489.97991943359375 363.8675842285156 501.2110595703125 362.9767150878906 C 499.01202392578125 357.18206787109375 499.7135925292969 342.77532958984375 501.5191955566406 335.6320495605469 C 502.3710021972656 334.4517517089844 509.626708984375 335.50421142578125 519.6131591796875 335.44427490234375 C 518.1824951171875 325.5318908691406 518.1762084960938 318.123779296875 517.5947265625 310.3935241699219 C 504.9439392089844 309.2751159667969 501.024658203125 305.6385192871094 494.5881652832031 304.6270446777344" stroke-width="0.0" fill="rgb(33, 33, 31)" opacity="0.9554234" stroke="rgb(0, 0, 0)" stroke-opacity="1.0" stroke-linecap="round" stroke-linejoin="round"/>
    <path d="M 204.0929718017578 270.7908630371094 C 197.38323974609375 279.2251281738281 194.23416137695312 286.4309997558594 190.30235290527344 290.9965515136719 C 186.86279296875 301.529296875 184.3892059326172 308.994384765625 186.7848358154297 323.34832763671875 C 190.21182250976562 328.85931396484375 196.60128784179688 339.2713317871094 201.9193572998047 344.25341796875 C 212.42066955566406 349.5080261230469 214.7291717529297 359.9424743652344 239.0468292236328 357.9117736816406 C 263.6088562011719 344.7453308105469 273.8657531738281 365.21746826171875 296.9175720214844 351.4147644042969 C 301.0505065917969 332.94366455078125 294.3704833984375 313.8195495605469 289.19464111328125 301.22564697265625 C 270.280517578125 291.02532958984375 268.73712158203125 273.44647216796875 254.4839630126953 263.03515625 C 246.73390197753906 260.2374572753906 242.58782958984375 254.22390747070312 237.65798950195312 254.94744873046875 C 220.89413452148438 257.6192932128906 212.51901245117188 266.443115234375 204.0929718017578 270.7908630371094" stroke-width="0.0" fill="rgb(24, 24, 22)" opacity="0.823663" stroke="rgb(0, 0, 0)" stroke-opacity="1.0" stroke-linecap="round" stroke-linejoin="round"/>
    <path d="M 55.27008819580078 11.687907218933105 C 55.697933197021484 9.609657287597656 53.113311767578125 10.509659767150879 57.675537109375 10.635299682617188 C 50.546966552734375 11.604509353637695 42.49831008911133 13.778717041015625 41.89760208129883 9.700220108032227 C 42.061092376708984 65.29527282714844 43.134498596191406 124.67811584472656 43.035587310791016 186.43653869628906 C 51.632904052734375 184.1783447265625 66.56512451171875 186.15908813476562 85.66572570800781 189.70848083496094 C 85.2444839477539 130.39395141601562 88.89566802978516 74.32337188720703 88.04400634765625 12.911629676818848 C 70.50579833984375 12.027585983276367 56.49342727661133 12.939773559570312 55.27008819580078 11.687907218933105" stroke-width="0.0" fill="rgb(43, 43, 41)" opacity="1.0320601" stroke="rgb(0, 0, 0)" stroke-opacity="1.0" stroke-linecap="round" stroke-linejoin="round"/>
    <path d="M 443.68731689453125 226.19589233398438 C 439.45086669921875 239.1093292236328 438.9345703125 258.6179504394531 437.66986083984375 280.342041015625 C 439.2370300292969 289.428955078125 450.15557861328125 292.4212341308594 451.9737548828125 294.9530029296875 C 464.3490905761719 319.471435546875 477.56939697265625 337.33892822265625 488.765380859375 371.0998840332031 C 493.339599609375 324.413818359375 497.85748291015625 273.6309814453125 492.19915771484375 245.39370727539062 C 488.6694030761719 228.88246154785156 484.4983825683594 232.64572143554688 471.54473876953125 225.44468688964844 C 464.0044860839844 226.03871154785156 452.0965270996094 223.8644561767578 443.68731689453125 226.19589233398438" stroke-width="0.0" fill="rgb(202, 201, 199)" opacity="0.77396256" stroke="rgb(0, 0, 0)" stroke-opacity="1.0" stroke-linecap="round" stroke-linejoin="round"/>
    <path d="M 78.2216567993164 214.9039764404297 C 61.703243255615234 222.2503204345703 48.36363220214844 230.53744506835938 36.63001251220703 242.53208923339844 C 34.98838424682617 251.35687255859375 30.476987838745117 245.06600952148438 33.61223220825195 262.68829345703125 C 42.7668571472168 270.1502990722656 50.62381362915039 281.57598876953125 63.35649490356445 290.962890625 C 67.3349380493164 294.5086669921875 80.91339874267578 292.3145751953125 86.51209259033203 295.4233093261719 C 92.31521606445312 271.49249267578125 108.22659301757812 257.0562744140625 111.564453125 234.1668701171875 C 103.75415802001953 227.26902770996094 100.69581604003906 219.68289184570312 93.78975677490234 216.1497344970703 C 89.42237091064453 213.98556518554688 81.85986328125 214.73348999023438 78.2216567993164 214.9039764404297" stroke-width="0.0" fill="rgb(61, 61, 59)" opacity="0.8449152" stroke="rgb(0, 0, 0)" stroke-opacity="1.0" stroke-linecap="round" stroke-linejoin="round"/>
    <path d="M 394.34820556640625 228.24017333984375 C 392.1949462890625 229.61810302734375 389.7796630859375 229.96351623535156 392.8741149902344 238.75515747070312 C 407.1395568847656 251.4058837890625 419.3272399902344 267.3812255859375 436.695068359375 280.3645324707031 C 439.7398681640625 262.1528625488281 438.7872314453125 238.82760620117188 443.623046875 226.29318237304688 C 417.8329772949219 228.88465881347656 407.1064147949219 234.86618041992188 409.4483642578125 216.65696716308594 C 406.9271545410156 223.71414184570312 398.359375 222.66893005371094 394.34820556640625 228.24017333984375" stroke-width="0.0" fill="rgb(20, 20, 18)" opacity="0.8960417" stroke="rgb(0, 0, 0)" stroke-opacity="1.0" stroke-linecap="round" stroke-linejoin="round"/>
    <path d="M 314.3349609375 74.9920654296875 C 325.4765319824219 71.94338989257812 331.7608337402344 83.64217376708984 341.9101867675781 91.25666809082031 C 349.5290832519531 106.84046173095703 344.6909484863281 112.45769500732422 346.0373840332031 128.98568725585938 C 349.8613586425781 129.64390563964844 347.3444519042969 134.49803161621094 353.11993408203125 133.93331909179688 C 359.0573425292969 129.3443145751953 363.2890930175781 125.65766906738281 366.1347351074219 117.65618896484375 C 367.12652587890625 100.20086669921875 360.93353271484375 92.72807312011719 357.1358337402344 81.97469329833984 C 352.0425109863281 73.0243911743164 345.8739929199219 70.00897216796875 338.7552490234375 66.88674926757812 C 332.3857116699219 62.91994857788086 314.00152587890625 64.99503326416016 314.3349609375 74.9920654296875" stroke-width="0.0" fill="rgb(18, 18, 16)" opacity="1.0276325" stroke="rgb(0, 0, 0)" stroke-opacity="1.0" stroke-linecap="round" stroke-linejoin="round"/>
    <path d="M 30.632328033447266 -8.448046684265137 C 34.6685905456543 4.60995626449585 37.808353424072266 10.379219055175781 42.02864456176758 12.709667205810547 C 56.03432083129883 10.718819618225098 71.6999740600586 13.766005516052246 87.13709259033203 13.545612335205078 C 89.95652770996094 12.166723251342773 89.68278503417969 8.340558052062988 91.64795684814453 -9.361318588256836 C 77.1048583984375 -9.748869895935059 57.80268859863281 -9.281652450561523 30.632328033447266 -8.448046684265137" stroke-width="0.0" fill="rgb(78, 77, 73)" opacity="1.0252475" stroke="rgb(0, 0, 0)" stroke-opacity="1.0" stroke-linecap="round" stroke-linejoin="round"/>
    <path d="M 90.35608673095703 -8.495993614196777 C 84.93212890625 74.60884094238281 93.82647705078125 137.8693084716797 94.55696868896484 209.0050506591797 C 102.957763671875 220.5156707763672 106.29120635986328 224.47035217285156 121.5325698852539 228.6382293701172 C 136.87452697753906 230.048828125 159.0000762939453 230.50364685058594 170.46188354492188 226.87232971191406 C 175.12588500976562 155.810302734375 173.7545928955078 79.07806396484375 175.71957397460938 -4.843751907348633 C 148.4521942138672 -6.640935897827148 120.14311218261719 -7.004021167755127 90.35608673095703 -8.495993614196777" stroke-width="0.0" fill="rgb(20, 20, 17)" opacity="0.9861857" stroke="rgb(0, 0, 0)" stroke-opacity="1.0" stroke-linecap="round" stroke-linejoin="round"/>
    <path d="M 212.35202026367188 -8.929937362670898 C 193.50437927246094 -9.034707069396973 180.36366271972656 -9.692266464233398 176.83106994628906 -10.878931045532227 C 173.623291015625 90.59333038330078 175.0860137939453 182.10650634765625 170.31443786621094 262.9316711425781 C 184.03797912597656 270.9677429199219 180.24600219726562 253.2501983642578 182.75625610351562 238.62432861328125 C 188.59048461914062 216.84042358398438 204.659423828125 208.54554748535156 207.7994842529297 195.9702606201172 C 210.60592651367188 129.02134704589844 208.71929931640625 63.04288101196289 212.35202026367188 -8.929937362670898" stroke-width="0.0" fill="rgb(77, 76, 74)" opacity="0.69911236" stroke="rgb(0, 0, 0)" stroke-opacity="1.0" stroke-linecap="round" stroke-linejoin="round"/>
    <path d="M 148.0196990966797 324.1497802734375 C 140.885498046875 337.3053894042969 130.93959045410156 349.2699890136719 124.68778228759766 361.54229736328125 C 121.96678161621094 367.3302917480469 118.40116882324219 381.10711669921875 123.10442352294922 390.33892822265625 C 129.03717041015625 399.8034973144531 125.17137145996094 433.8260803222656 132.3151397705078 464.0859069824219 C 143.29505920410156 465.66510009765625 146.7298583984375 472.7232360839844 155.48483276367188 473.7831726074219 C 169.80718994140625 469.63494873046875 184.6046905517578 472.5747375488281 182.9195556640625 455.8063049316406 C 176.8631591796875 428.85888671875 165.53643798828125 394.76104736328125 156.20077514648438 360.0351867675781 C 171.39625549316406 354.0312805175781 172.8463134765625 343.93310546875 182.81114196777344 336.8285827636719 C 178.9866180419922 330.98992919921875 179.77195739746094 332.9317932128906 172.6670684814453 331.7185363769531 C 175.49227905273438 334.25616455078125 174.3060760498047 335.7362060546875 173.1105194091797 338.5191650390625 C 169.79010009765625 333.9539489746094 167.49610900878906 328.494873046875 165.1804656982422 327.7952575683594 C 158.2530059814453 324.63470458984375 156.57518005371094 323.1895446777344 148.0196990966797 324.1497802734375" stroke-width="0.0" fill="rgb(77, 77, 75)" opacity="1.0031552" stroke="rgb(0, 0, 0)" stroke-opacity="1.0" stroke-linecap="round" stroke-linejoin="round"/>
    <path d="M 220.52618408203125 197.96412658691406 C 212.68861389160156 194.74032592773438 210.5001220703125 195.78536987304688 209.87098693847656 197.64295959472656 C 202.2880859375 209.9758758544922 191.03695678710938 218.41078186035156 184.7350311279297 233.99440002441406 C 182.774169921875 245.9196319580078 174.4019012451172 258.82037353515625 179.09649658203125 276.3454284667969 C 186.8190155029297 271.2844543457031 185.84506225585938 255.98873901367188 200.499267578125 253.248779296875 C 205.1991729736328 254.05116271972656 201.7358856201172 264.4482116699219 208.0372772216797 262.8313293457031 C 213.2314910888672 240.49273681640625 218.09031677246094 221.72845458984375 220.52618408203125 197.96412658691406" stroke-width="0.0" fill="rgb(64, 63, 61)" opacity="1.154261" stroke="rgb(0, 0, 0)" stroke-opacity="1.0" stroke-linecap="round" stroke-linejoin="round"/>
    <path d="M 33.08310317993164 197.03843688964844 C 34.507293701171875 201.8200225830078 39.76737594604492 210.57769775390625 42.43989562988281 215.1769256591797 C 59.13179016113281 216.79071044921875 74.56000518798828 211.59066772460938 85.55449676513672 211.6902618408203 C 84.44178771972656 193.91143798828125 79.75410461425781 189.8296661376953 68.4003677368164 182.94131469726562 C 60.214378356933594 187.96597290039062 52.9068489074707 185.45474243164062 40.896697998046875 183.7185821533203 C 36.69293975830078 185.31561279296875 33.06742477416992 189.25672912597656 33.08310317993164 197.03843688964844" stroke-width="0.0" fill="rgb(42, 42, 40)" opacity="1.0023903" stroke="rgb(0, 0, 0)" stroke-opacity="1.0" stroke-linecap="round" stroke-linejoin="round"/>
    <path d="M 338.7251892089844 178.74217224121094 C 331.00555419921875 187.6623077392578 334.8610534667969 175.57215881347656 319.33319091796875 173.50559997558594 C 308.1048583984375 182.37229919433594 292.2016906738281 188.35455322265625 288.0243835449219 202.3986053466797 C 299.26611328125 205.5191650390625 312.4668884277344 199.6424560546875 320.4376220703125 196.06887817382812 C 326.3914794921875 195.7646026611328 328.1294250488281 201.32508850097656 335.4925537109375 200.10800170898438 C 342.81903076171875 193.64608764648438 344.7210693359375 191.17550659179688 338.7251892089844 178.74217224121094" stroke-width="0.0" fill="rgb(43, 43, 41)" opacity="0.92110926" stroke="rgb(0, 0, 0)" stroke-opacity="1.0" stroke-linecap="round" stroke-linejoin="round"/>
    <path d="M 181.57546997070312 477.6349182128906 C 180.2986297607422 484.838623046875 177.72744750976562 497.58978271484375 176.99227905273438 520.993408203125 C 186.64840698242188 520.5183715820312 195.32455444335938 520.6053466796875 206.69984436035156 521.4686889648438 C 207.64788818359375 497.3167724609375 202.84165954589844 494.9034118652344 198.65904235839844 484.0639343261719 C 194.50892639160156 482.7187805175781 188.08815002441406 475.33709716796875 181.57546997070312 477.6349182128906" stroke-width="0.0" fill="rgb(98, 98, 96)" opacity="1.0948803" stroke="rgb(0, 0, 0)" stroke-opacity="1.0" stroke-linecap="round" stroke-linejoin="round"/>
    <path d="M 258.8212585449219 168.3349151611328 C 261.8843078613281 178.78713989257812 256.6950378417969 190.92494201660156 259.4664001464844 206.87423706054688 C 264.42626953125 204.1088409423828 271.3544006347656 205.20790100097656 276.75537109375 204.86553955078125 C 278.849853515625 189.72564697265625 274.3838195800781 184.52581787109375 277.27911376953125 174.450927734375 C 278.0108337402344 167.58602905273438 265.9854431152344 167.84078979492188 258.8212585449219 168.3349151611328" stroke-width="0.0" fill="rgb(54, 53, 50)" opacity="1.0002263" stroke="rgb(0, 0, 0)" stroke-opacity="1.0" stroke-linecap="round" stroke-linejoin="round"/>
    <path d="M 181.2024383544922 469.47845458984375 C 175.37107849121094 469.1383361816406 168.8220672607422 471.9315490722656 169.75308227539062 472.9219970703125 C 167.5343017578125 480.7662048339844 170.5620574951172 497.2945251464844 166.10015869140625 519.2315063476562 C 170.86241149902344 519.4834594726562 173.86016845703125 519.5716552734375 178.68936157226562 520.2669677734375 C 177.49703979492188 498.8796081542969 180.66954040527344 484.82135009765625 181.2024383544922 469.47845458984375" stroke-width="0.0" fill="rgb(18, 18, 16)" opacity="0.99938095" stroke="rgb(0, 0, 0)" stroke-opacity="1.0" stroke-linecap="round" stroke-linejoin="round"/>
    <path d="M 17.656774520874023 421.0189208984375 C 16.300519943237305 428.8121643066406 12.022377014160156 431.4461364746094 9.666685104370117 436.18182373046875 C 22.475566864013672 437.952880859375 35.74111557006836 442.21453857421875 43.71770095825195 442.9236145019531 C 41.02603530883789 432.26263427734375 34.147239685058594 428.0368957519531 33.35149383544922 422.0076599121094 C 25.665576934814453 418.449951171875 19.24464988708496 424.0359191894531 17.656774520874023 421.0189208984375" stroke-width="0.0" fill="rgb(143, 142, 139)" opacity="1.0789554" stroke="rgb(0, 0, 0)" stroke-opacity="1.0" stroke-linecap="round" stroke-linejoin="round"/>
    <path d="M 202.6334686279297 253.9579620361328 C 196.8578643798828 252.9630584716797 191.40550231933594 256.9985046386719 188.90518188476562 260.7443542480469 C 185.27565002441406 268.1042785644531 178.63865661621094 270.62493896484375 185.038330078125 276.5339050292969 C 197.46910095214844 281.0520935058594 194.9547882080078 273.1845703125 203.5757598876953 270.4765625 C 208.1180419921875 262.81256103515625 205.36720275878906 264.87884521484375 202.6334686279297 253.9579620361328" stroke-width="0.0" fill="rgb(178, 177, 175)" opacity="0.92174184" stroke="rgb(0, 0, 0)" stroke-opacity="1.0" stroke-linecap="round" stroke-linejoin="round"/>
    <path d="M 269.7763366699219 208.82257080078125 C 262.05999755859375 205.4310302734375 262.2876892089844 209.25997924804688 259.9139709472656 213.64010620117188 C 259.81390380859375 223.3970489501953 252.24935913085938 233.13812255859375 257.09149169921875 245.16848754882812 C 263.010009765625 238.633056640625 268.0758361816406 228.97119140625 272.1554870605469 220.79754638671875 C 269.3874206542969 216.04884338378906 273.1112365722656 211.52015686035156 269.7763366699219 208.82257080078125" stroke-width="0.0" fill="rgb(25, 25, 23)" opacity="1.0053494" stroke="rgb(0, 0, 0)" stroke-opacity="1.0" stroke-linecap="round" stroke-linejoin="round"/>
    <path d="M 242.21673583984375 -7.16636848449707 C 245.81661987304688 31.605449676513672 249.26565551757812 26.610828399658203 242.59475708007812 52.316768646240234 C 259.0076904296875 75.54407501220703 266.1116027832031 106.68067169189453 283.2561950683594 119.00248718261719 C 287.29278564453125 109.53972625732422 292.4621887207031 89.38700866699219 304.3824157714844 76.7548599243164 C 311.4604187011719 72.2240982055664 312.17529296875 65.83346557617188 322.8486328125 64.3591537475586 C 332.97698974609375 61.25644302368164 332.89678955078125 64.25574493408203 342.83837890625 65.86396789550781 C 350.43731689453125 71.04866027832031 354.8150329589844 73.19244384765625 357.12469482421875 78.2656478881836 C 365.6526184082031 92.97510528564453 366.0511474609375 100.51969909667969 369.6672058105469 113.69458770751953 C 370.022216796875 115.96288299560547 368.6177978515625 122.59452056884766 366.2842712402344 127.655029296875 C 358.0828857421875 132.02264404296875 353.15936279296875 143.43507385253906 345.40789794921875 146.0966339111328 C 347.9828796386719 156.5565948486328 355.3290100097656 158.5884552001953 369.8157958984375 156.22586059570312 C 381.3026123046875 159.17385864257812 377.7590026855469 173.24099731445312 381.43597412109375 176.06442260742188 C 389.46826171875 177.98387145996094 381.8247375488281 165.06820678710938 382.813232421875 160.6136474609375 C 378.00897216796875 162.9667205810547 380.64715576171875 154.4937286376953 373.44915771484375 157.84774780273438 C 381.8982849121094 159.40231323242188 383.0369873046875 152.8879852294922 387.2111511230469 154.060302734375 C 400.1549377441406 116.2698745727539 409.91302490234375 76.5045166015625 421.1798400878906 36.64156723022461 C 409.08087158203125 23.143781661987305 396.02899169921875 12.058366775512695 387.3829345703125 -3.9633750915527344 C 337.94403076171875 -4.940596103668213 290.92242431640625 -5.929586410522461 242.21673583984375 -7.16636848449707" stroke-width="0.0" fill="rgb(116, 115, 112)" opacity="0.6621322" stroke="rgb(0, 0, 0)" stroke-opacity="1.0" stroke-linecap="round" stroke-linejoin="round"/>
    <path d="M 387.3998107910156 -4.666510105133057 C 396.3275451660156 16.537782669067383 411.8907470703125 24.79874610900879 423.2078857421875 40.541358947753906 C 412.6649169921875 57.45547866821289 408.58154296875 91.75173950195312 405.1669616699219 122.65922546386719 C 414.8590087890625 123.01522064208984 419.1541748046875 126.4234848022461 427.0004577636719 130.1580352783203 C 433.8348693847656 135.46054077148438 440.06597900390625 142.3936309814453 446.5223083496094 150.42178344726562 C 449.5074768066406 143.2478790283203 443.26080322265625 145.92755126953125 447.3100280761719 140.8238983154297 C 458.677490234375 145.81968688964844 454.14910888671875 133.560302734375 457.2676086425781 140.99453735351562 C 448.27655029296875 100.19973754882812 460.1568603515625 98.17086791992188 460.39581298828125 73.22019958496094 C 462.823486328125 32.833377838134766 440.7937927246094 38.88067626953125 448.0291748046875 -2.5181353092193604 C 426.39227294921875 -6.393826484680176 405.4239501953125 -7.859399795532227 387.3998107910156 -4.666510105133057" stroke-width="0.0" fill="rgb(196, 194, 192)" opacity="0.9837328" stroke="rgb(0, 0, 0)" stroke-opacity="1.0" stroke-linecap="round" stroke-linejoin="round"/>
    <path d="M 72.32524108886719 292.8823547363281 C 69.76858520507812 295.5537109375 72.33804321289062 321.4481201171875 73.20909881591797 322.14959716796875 C 81.63875579833984 334.03057861328125 91.68083953857422 345.8691101074219 107.92523956298828 351.25946044921875 C 105.82424926757812 333.6127624511719 98.57745361328125 323.9300842285156 100.4197006225586 312.3061218261719 C 90.68631744384766 300.7588195800781 86.73158264160156 294.24249267578125 72.32524108886719 292.8823547363281" stroke-width="0.0" fill="rgb(149, 148, 146)" opacity="0.9929467" stroke="rgb(0, 0, 0)" stroke-opacity="1.0" stroke-linecap="round" stroke-linejoin="round"/>
    <path d="M 475.622802734375 418.18145751953125 C 475.93603515625 428.09088134765625 480.06463623046875 423.91766357421875 484.65460205078125 428.1374816894531 C 492.99359130859375 427.9181823730469 503.1864318847656 426.8509216308594 518.2487182617188 425.38653564453125 C 519.7045288085938 417.4404296875 520.0409545898438 413.21209716796875 516.1087646484375 417.43524169921875 C 500.5007019042969 414.1561279296875 492.89508056640625 410.8802795410156 484.98583984375 405.9927673339844 C 482.7032470703125 407.9505310058594 478.8692321777344 415.1422119140625 475.622802734375 418.18145751953125" stroke-width="0.0" fill="rgb(82, 82, 80)" opacity="1.0086069" stroke="rgb(0, 0, 0)" stroke-opacity="1.0" stroke-linecap="round" stroke-linejoin="round"/>
    <path d="M 368.35540771484375 394.44036865234375 C 360.7026672363281 389.65576171875 347.2633972167969 391.24371337890625 342.52618408203125 396.0556335449219 C 338.34326171875 399.52703857421875 333.035888671875 406.3370361328125 337.3560791015625 411.9102478027344 C 340.9100036621094 416.46478271484375 347.03173828125 418.60980224609375 356.1611022949219 413.062255859375 C 362.0992736816406 408.06298828125 369.3420715332031 404.33380126953125 368.35540771484375 394.44036865234375" stroke-width="0.0" fill="rgb(181, 181, 179)" opacity="0.99995214" stroke="rgb(0, 0, 0)" stroke-opacity="1.0" stroke-linecap="round" stroke-linejoin="round"/>
    <path d="M 504.20098876953125 519.9207763671875 C 494.8212890625 496.7953186035156 489.74365234375 486.6265869140625 487.43133544921875 471.7090759277344 C 476.4637756347656 462.38507080078125 471.3457336425781 454.0200500488281 465.89544677734375 441.94757080078125 C 442.79052734375 446.33966064453125 419.5074157714844 447.72576904296875 402.8427734375 451.9829406738281 C 388.4432373046875 454.89190673828125 383.408447265625 462.58428955078125 379.0072021484375 471.0346984863281 C 379.1390075683594 488.2611389160156 377.1233215332031 499.2474365234375 382.1329650878906 521.3715209960938 C 424.25885009765625 521.3787231445312 464.16937255859375 521.0414428710938 504.20098876953125 519.9207763671875" stroke-width="0.0" fill="rgb(48, 48, 45)" opacity="0.985534" stroke="rgb(0, 0, 0)" stroke-opacity="1.0" stroke-linecap="round" stroke-linejoin="round"/>
    <path d="M 242.55117797851562 475.81097412109375 C 244.6973876953125 489.4290466308594 250.07762145996094 501.29388427734375 257.7320556640625 517.389892578125 C 293.6908264160156 518.9171142578125 331.9352722167969 519.1054077148438 369.44342041015625 520.3463134765625 C 368.16265869140625 496.47210693359375 373.0220031738281 481.3329162597656 365.54461669921875 476.3795471191406 C 352.83734130859375 481.8350524902344 342.14471435546875 489.7431945800781 327.9299011230469 490.78179931640625 C 300.364013671875 488.9090576171875 271.5490417480469 484.7955322265625 242.55117797851562 475.81097412109375" stroke-width="0.0" fill="rgb(72, 71, 69)" opacity="0.95852184" stroke="rgb(0, 0, 0)" stroke-opacity="1.0" stroke-linecap="round" stroke-linejoin="round"/>
    <path d="M 230.52352905273438 393.510986328125 C 228.56005859375 412.3445129394531 227.10955810546875 429.49395751953125 223.20033264160156 448.2684020996094 C 214.51242065429688 454.66949462890625 198.7622833251953 458.8552551269531 188.77392578125 466.8989562988281 C 196.3138427734375 481.8490905761719 208.19244384765625 492.1523742675781 212.91915893554688 518.6123046875 C 221.30325317382812 521.5554809570312 241.19273376464844 521.7980346679688 253.47979736328125 518.2449951171875 C 246.52134704589844 494.309326171875 240.12078857421875 479.6388854980469 235.76319885253906 461.6127624511719 C 236.51806640625 448.6392517089844 238.31497192382812 431.75506591796875 239.15658569335938 417.4343566894531 C 238.17796325683594 407.85833740234375 234.7313690185547 403.5317687988281 230.52352905273438 393.510986328125" stroke-width="0.0" fill="rgb(22, 22, 20)" opacity="1.0017103" stroke="rgb(0, 0, 0)" stroke-opacity="1.0" stroke-linecap="round" stroke-linejoin="round"/>
    <path d="M 307.3353271484375 208.03549194335938 C 294.0710754394531 213.5532989501953 282.1242980957031 221.06341552734375 276.05303955078125 229.76107788085938 C 270.2232360839844 253.2313232421875 273.2583923339844 254.261474609375 278.7695007324219 281.81201171875 C 298.6448974609375 311.45501708984375 298.06622314453125 354.15008544921875 317.468505859375 377.67510986328125 C 319.8386535644531 384.2451477050781 342.60345458984375 383.0120544433594 361.7401428222656 380.4327697753906 C 366.31390380859375 378.3222961425781 370.831787109375 372.6278076171875 371.7760314941406 363.24072265625 C 373.7159423828125 316.1418151855469 363.8478698730469 282.8448181152344 365.0461120605469 249.3922576904297 C 363.2318115234375 239.70199584960938 377.5594177246094 237.68345642089844 385.6690979003906 237.65478515625 C 366.6404113769531 229.7943572998047 368.8748779296875 218.0013885498047 343.8685607910156 211.19886779785156 C 336.9928894042969 207.87484741210938 316.35150146484375 205.71360778808594 307.3353271484375 208.03549194335938" stroke-width="0.0" fill="rgb(86, 85, 83)" opacity="1.0207231" stroke="rgb(0, 0, 0)" stroke-opacity="1.0" stroke-linecap="round" stroke-linejoin="round"/>
    <path d="M 241.34637451171875 407.1061706542969 C 240.80992126464844 423.34014892578125 236.48068237304688 448.0023193359375 236.22633361816406 472.3424377441406 C 265.2471923828125 483.5925598144531 299.1927185058594 488.3150634765625 327.7043151855469 491.5841979980469 C 346.6796569824219 487.7707824707031 357.9158630371094 479.700927734375 365.9147644042969 470.3110656738281 C 366.0884704589844 465.4796447753906 366.3520202636719 457.267333984375 365.9371337890625 450.98687744140625 C 371.2236022949219 446.4904479980469 373.2945251464844 439.4118347167969 380.8148498535156 434.4593505859375 C 371.1719055175781 429.5347595214844 355.17510986328125 433.8540344238281 349.3236389160156 431.2610168457031 C 337.92303466796875 431.5433654785156 341.6977844238281 416.3857116699219 335.6824951171875 413.71282958984375 C 312.3690185546875 408.50042724609375 289.167724609375 402.5204162597656 265.8304138183594 395.6521301269531 C 251.89178466796875 393.368408203125 248.22210693359375 396.3587341308594 241.34637451171875 407.1061706542969" stroke-width="0.0" fill="rgb(134, 133, 131)" opacity="0.6528791" stroke="rgb(0, 0, 0)" stroke-opacity="1.0" stroke-linecap="round" stroke-linejoin="round"/>
    <path d="M -3.5056583881378174 363.06915283203125 C -8.628641128540039 394.25848388671875 -8.954010009765625 416.3468933105469 -6.015799522399902 433.0729675292969 C 17.26067352294922 437.6305847167969 10.658173561096191 421.2619934082031 27.282499313354492 419.7399597167969 C 29.352130889892578 411.8529052734375 27.221174240112305 396.978515625 28.716983795166016 399.2691650390625 C 10.16965389251709 389.4758605957031 10.586243629455566 379.9563903808594 -3.5056583881378174 363.06915283203125" stroke-width="0.0" fill="rgb(36, 35, 33)" opacity="1.0797758" stroke="rgb(0, 0, 0)" stroke-opacity="1.0" stroke-linecap="round" stroke-linejoin="round"/>
    <path d="M 494.68377685546875 463.00225830078125 C 489.0019226074219 472.2123718261719 489.88812255859375 483.4060363769531 493.6634826660156 490.8480224609375 C 496.4081115722656 497.9363098144531 500.09552001953125 505.8818359375 503.79913330078125 515.9376220703125 C 501.7172546386719 518.453857421875 506.3802185058594 517.8096923828125 519.379150390625 517.1609497070312 C 519.7945556640625 501.74578857421875 521.8758544921875 491.4234924316406 513.09521484375 494.3433837890625 C 499.864013671875 489.2699279785156 500.6556701660156 473.08416748046875 494.68377685546875 463.00225830078125" stroke-width="0.0" fill="rgb(195, 194, 190)" opacity="0.97524667" stroke="rgb(0, 0, 0)" stroke-opacity="1.0" stroke-linecap="round" stroke-linejoin="round"/>
    <path d="M 378.4747619628906 464.59429931640625 C 371.56304931640625 465.2738342285156 369.8428955078125 469.4913330078125 368.9701232910156 475.624267578125 C 368.46246337890625 483.7912292480469 370.1314697265625 499.41253662109375 368.6741638183594 517.5419311523438 C 373.4404602050781 518.4158325195312 377.28509521484375 518.9555053710938 378.9881896972656 519.4091796875 C 378.39398193359375 495.9578552246094 379.9938049316406 478.1130065917969 378.4747619628906 464.59429931640625" stroke-width="0.0" fill="rgb(102, 102, 100)" opacity="0.9796998" stroke="rgb(0, 0, 0)" stroke-opacity="1.0" stroke-linecap="round" stroke-linejoin="round"/>
    <path d="M 167.86422729492188 4.967477798461914 C 162.9933624267578 9.657353401184082 162.71405029296875 14.462234497070312 165.3888397216797 13.52513599395752 C 149.78009033203125 16.594560623168945 138.56077575683594 14.620872497558594 131.53457641601562 17.07527732849121 C 131.20921325683594 70.76467895507812 130.2197723388672 123.62831115722656 129.36561584472656 177.81301879882812 C 125.55548095703125 192.6166534423828 119.9518814086914 206.54476928710938 122.89349365234375 207.07550048828125 C 138.3368682861328 204.5095977783203 156.1343994140625 208.64988708496094 171.43077087402344 215.44534301757812 C 173.7372589111328 159.0734100341797 173.5045166015625 89.56956481933594 174.4239959716797 19.40534782409668 C 171.5887908935547 11.702582359313965 166.9007110595703 22.63212013244629 167.86422729492188 4.967477798461914" stroke-width="0.0" fill="rgb(30, 30, 28)" opacity="1.0170522" stroke="rgb(0, 0, 0)" stroke-opacity="1.0" stroke-linecap="round" stroke-linejoin="round"/>
    <path d="M 194.98716735839844 336.74041748046875 C 180.1976776123047 343.31451416015625 169.27183532714844 353.0419921875 157.7651824951172 363.38916015625 C 167.5324249267578 396.7427062988281 180.25479125976562 425.9794921875 182.8424835205078 464.9245300292969 C 198.45301818847656 463.57781982421875 208.89743041992188 455.36370849609375 223.03663635253906 449.7694091796875 C 225.89515686035156 446.7388610839844 226.2487335205078 433.9798278808594 227.82244873046875 423.0848388671875 C 231.75418090820312 408.6982116699219 230.5376739501953 389.1348876953125 230.64024353027344 362.2096252441406 C 216.0067596435547 355.10382080078125 204.3238067626953 348.550048828125 194.98716735839844 336.74041748046875" stroke-width="0.0" fill="rgb(56, 56, 54)" opacity="0.6775634" stroke="rgb(0, 0, 0)" stroke-opacity="1.0" stroke-linecap="round" stroke-linejoin="round"/>
    <path d="M 88.62805938720703 -3.0040700435638428 C 87.51821899414062 63.39992904663086 86.18785858154297 126.82228088378906 87.09492492675781 191.9305419921875 C 89.25850677490234 199.97714233398438 88.22957611083984 209.71238708496094 91.04020690917969 210.70204162597656 C 95.19986724853516 216.35260009765625 103.39037322998047 220.2050018310547 109.62110137939453 218.97569274902344 C 117.96842956542969 214.27635192871094 114.8642807006836 213.3849334716797 116.79253387451172 199.57911682128906 C 116.9345932006836 151.99501037597656 121.1195068359375 118.0969467163086 118.38163757324219 57.82394790649414 C 112.39978790283203 38.19707489013672 116.11550903320312 16.28335952758789 110.36751556396484 -1.7573400735855103 C 103.0 -0.11614241451025009 96.0 -0.028380565345287323 88.62805938720703 -3.0040700435638428" stroke-width="0.0" fill="rgb(46, 46, 44)" opacity="0.9997831" stroke="rgb(0, 0, 0)" stroke-opacity="1.0" stroke-linecap="round" stroke-linejoin="round"/>
    <path d="M 117.97516632080078 210.3132781982422 C 119.14513397216797 208.1839141845703 115.7265396118164 224.84283447265625 117.55126953125 233.31776428222656 C 146.08164978027344 233.84130859375 140.5013885498047 252.64891052246094 170.2240447998047 251.3073272705078 C 171.16555786132812 243.1556854248047 171.6959991455078 225.1187744140625 172.56236267089844 215.4936981201172 C 161.07418823242188 209.6120147705078 150.66888427734375 209.2718048095703 141.3342742919922 205.80442810058594 C 128.7362823486328 207.0979461669922 123.47816467285156 203.20510864257812 117.97516632080078 210.3132781982422" stroke-width="0.0" fill="rgb(28, 28, 26)" opacity="0.99196047" stroke="rgb(0, 0, 0)" stroke-opacity="1.0" stroke-linecap="round" stroke-linejoin="round"/>
    <path d="M 452.4281311035156 295.6579284667969 C 465.3431396484375 320.59490966796875 479.5620422363281 335.9937744140625 484.37969970703125 365.3709411621094 C 495.35467529296875 354.3118896484375 490.3116760253906 321.0888977050781 492.6893005371094 299.8009033203125 C 481.7632751464844 299.103271484375 467.4594421386719 292.34320068359375 452.4281311035156 295.6579284667969" stroke-width="0.0" fill="rgb(200, 199, 197)" opacity="0.92375225" stroke="rgb(0, 0, 0)" stroke-opacity="1.0" stroke-linecap="round" stroke-linejoin="round"/>
    <path d="M 179.9998779296875 491.0689697265625 C 177.69972229003906 495.790283203125 180.36167907714844 503.87060546875 175.78233337402344 517.2862548828125 C 186.11305236816406 518.1090698242188 194.87677001953125 518.195556640625 202.96900939941406 518.60498046875 C 208.30972290039062 500.6199035644531 205.28224182128906 498.1806640625 202.1317138671875 489.8840637207031 C 196.9413299560547 491.49493408203125 183.20620727539062 487.6132507324219 179.9998779296875 491.0689697265625" stroke-width="0.0" fill="rgb(43, 43, 41)" opacity="0.998845" stroke="rgb(0, 0, 0)" stroke-opacity="1.0" stroke-linecap="round" stroke-linejoin="round"/>
    <path d="M 334.4559020996094 183.39828491210938 C 329.6509704589844 179.52053833007812 325.15350341796875 172.86512756347656 319.9349670410156 173.92916870117188 C 309.0458984375 180.43914794921875 299.361328125 187.78048706054688 289.5216064453125 196.50242614746094 C 304.7976379394531 199.18824768066406 304.08831787109375 193.77064514160156 308.2012023925781 190.21156311035156 C 316.2837829589844 186.78482055664062 320.9095764160156 192.4771270751953 327.5631408691406 195.94412231445312 C 331.46112060546875 193.5605926513672 332.4769592285156 189.89854431152344 334.4559020996094 183.39828491210938" stroke-width="0.0" fill="rgb(132, 132, 130)" opacity="1.002396" stroke="rgb(0, 0, 0)" stroke-opacity="1.0" stroke-linecap="round" stroke-linejoin="round"/>
    <path d="M 93.78849029541016 240.96145629882812 C 83.82456970214844 239.8466033935547 68.01898193359375 240.24017333984375 58.58787155151367 242.99571228027344 C 53.08857345581055 254.1983184814453 45.591064453125 265.1441345214844 47.87630081176758 280.01971435546875 C 53.34934997558594 285.302734375 63.752315521240234 288.465576171875 69.54875183105469 296.6429138183594 C 77.72957611083984 287.170654296875 82.51996612548828 300.1492919921875 93.3677749633789 297.14825439453125 C 94.7447509765625 284.3988342285156 92.04972076416016 284.2535095214844 94.4481201171875 271.64971923828125 C 97.44510650634766 266.5137939453125 99.94589233398438 257.6546936035156 105.22676086425781 250.45223999023438 C 103.38232421875 247.12603759765625 101.0034408569336 244.5267333984375 93.78849029541016 240.96145629882812" stroke-width="0.0" fill="rgb(23, 23, 21)" opacity="0.9941423" stroke="rgb(0, 0, 0)" stroke-opacity="1.0" stroke-linecap="round" stroke-linejoin="round"/>
    <path d="M 107.14911651611328 231.67529296875 C 101.4912109375 223.5941619873047 92.79907989501953 216.26055908203125 82.25013732910156 213.5474853515625 C 69.26204681396484 215.3578338623047 50.04281234741211 215.54676818847656 46.493831634521484 217.5061798095703 C 32.56527328491211 224.32566833496094 37.54269790649414 230.3439483642578 33.28898239135742 242.77621459960938 C 31.004926681518555 258.64166259765625 35.617645263671875 258.8836669921875 37.25457000732422 266.94354248046875 C 38.90152359008789 271.8168029785156 46.892154693603516 269.33990478515625 47.118804931640625 276.2086181640625 C 49.97880172729492 259.11663818359375 53.85047912597656 254.27671813964844 53.883522033691406 253.95619201660156 C 55.7010383605957 251.418701171875 56.963897705078125 243.80282592773438 60.60772705078125 244.00460815429688 C 73.83026123046875 241.13731384277344 87.14045715332031 241.82943725585938 94.82635498046875 241.7017822265625 C 97.53656768798828 243.0067596435547 101.87710571289062 245.1501007080078 105.69548034667969 251.51788330078125 C 108.23562622070312 247.3097686767578 110.67293548583984 238.5191192626953 107.14911651611328 231.67529296875" stroke-width="0.0" fill="rgb(22, 22, 20)" opacity="1.0463843" stroke="rgb(0, 0, 0)" stroke-opacity="1.0" stroke-linecap="round" stroke-linejoin="round"/>
    <path d="M -6.402312755584717 164.2228240966797 C -6.822237014770508 191.42373657226562 -6.4331841468811035 211.978759765625 -6.087449073791504 232.39419555664062 C 10.95802116394043 228.67677307128906 17.769073486328125 231.89700317382812 20.99036979675293 225.35391235351562 C 27.067018508911133 218.64732360839844 26.776363372802734 205.14724731445312 27.027475357055664 189.59718322753906 C 23.11182403564453 185.12460327148438 27.945581436157227 177.79067993164062 19.723312377929688 174.7649383544922 C 12.212566375732422 173.0916748046875 7.733664512634277 174.09524536132812 -6.402312755584717 164.2228240966797" stroke-width="0.0" fill="rgb(59, 59, 57)" opacity="1.0078614" stroke="rgb(0, 0, 0)" stroke-opacity="1.0" stroke-linecap="round" stroke-linejoin="round"/>
    <path d="M 405.7769470214844 251.53900146484375 C 416.4322204589844 261.21209716796875 425.836669921875 272.4691467285156 436.15142822265625 283.8668518066406 C 439.27923583984375 276.0415954589844 437.98406982421875 260.3482666015625 438.4112243652344 254.08921813964844 C 413.91339111328125 257.43267822265625 420.05999755859375 249.6214141845703 405.7769470214844 251.53900146484375" stroke-width="0.0" fill="rgb(29, 28, 26)" opacity="0.9810954" stroke="rgb(0, 0, 0)" stroke-opacity="1.0" stroke-linecap="round" stroke-linejoin="round"/>
    <path d="M 289.32342529296875 47.87498092651367 C 291.6833801269531 58.874603271484375 291.24871826171875 82.13861083984375 292.73284912109375 94.00013732910156 C 304.0130310058594 89.55561065673828 295.6174621582031 71.49046325683594 300.7581787109375 58.601619720458984 C 300.05792236328125 47.36968231201172 298.8809509277344 46.42067337036133 289.32342529296875 47.87498092651367" stroke-width="0.0" fill="rgb(94, 93, 90)" opacity="0.9929623" stroke="rgb(0, 0, 0)" stroke-opacity="1.0" stroke-linecap="round" stroke-linejoin="round"/>
    <path d="M 297.6434020996094 325.0159912109375 C 297.4359436035156 335.4872131347656 299.8865051269531 343.4750671386719 304.7668151855469 349.7347412109375 C 304.1988525390625 355.00909423828125 308.802001953125 359.4397277832031 313.4571533203125 358.1575012207031 C 319.3460693359375 354.0854797363281 324.72930908203125 346.8770446777344 324.39385986328125 336.89373779296875 C 309.6805725097656 339.0811767578125 318.7424011230469 321.6844482421875 297.6434020996094 325.0159912109375" stroke-width="0.0" fill="rgb(168, 167, 165)" opacity="0.99701184" stroke="rgb(0, 0, 0)" stroke-opacity="1.0" stroke-linecap="round" stroke-linejoin="round"/>
    <path d="M 367.37628173828125 473.4357604980469 C 348.0114440917969 483.33343505859375 341.69464111328125 493.6703796386719 318.73284912109375 491.893798828125 C 311.8730163574219 494.088134765625 315.77630615234375 504.81494140625 316.95672607421875 521.9644165039062 C 333.619140625 519.4260864257812 350.8582763671875 518.44140625 368.3553161621094 519.8043212890625 C 366.9273681640625 500.36029052734375 369.6011047363281 482.4637451171875 367.37628173828125 473.4357604980469" stroke-width="0.0" fill="rgb(34, 33, 31)" opacity="0.9782068" stroke="rgb(0, 0, 0)" stroke-opacity="1.0" stroke-linecap="round" stroke-linejoin="round"/>
    <path d="M 1.0118982791900635 432.9371643066406 C 26.736268997192383 435.8624572753906 4.095857620239258 418.6156311035156 29.249595642089844 421.2466125488281 C 32.62836456298828 415.7601013183594 25.917545318603516 413.3549499511719 28.19791030883789 406.16375732421875 C 13.5383882522583 410.2147521972656 2.302658796310425 406.8094482421875 -8.739689826965332 404.77471923828125 C -8.637309074401855 421.37945556640625 -14.289627075195312 440.12359619140625 1.0118982791900635 432.9371643066406" stroke-width="0.0" fill="rgb(33, 33, 29)" opacity="1.0059466" stroke="rgb(0, 0, 0)" stroke-opacity="1.0" stroke-linecap="round" stroke-linejoin="round"/>
    <path d="M -7.5168585777282715 387.749755859375 C -2.964434862136841 394.2621765136719 -4.625181198120117 402.08905029296875 -6.4302544593811035 407.42742919921875 C 7.537445068359375 406.94720458984375 21.09486198425293 411.2012023925781 28.791534423828125 405.38653564453125 C 26.694822311401367 401.16387939453125 20.582136154174805 396.7805480957031 21.20982551574707 393.25445556640625 C 11.449614524841309 385.9010925292969 13.72254467010498 385.5777893066406 -7.5168585777282715 387.749755859375" stroke-width="0.0" fill="rgb(136, 135, 132)" opacity="0.9979699" stroke="rgb(0, 0, 0)" stroke-opacity="1.0" stroke-linecap="round" stroke-linejoin="round"/>
    <path d="M 134.76290893554688 17.320819854736328 C 130.35723876953125 26.907556533813477 133.37576293945312 28.273571014404297 138.3144989013672 28.400798797607422 C 148.4652099609375 30.661550521850586 161.8544464111328 27.49764060974121 173.90524291992188 28.296653747558594 C 173.21209716796875 20.255477905273438 164.93392944335938 17.557350158691406 160.26690673828125 17.912887573242188 C 152.7484893798828 14.626694679260254 140.26210021972656 19.49639129638672 134.76290893554688 17.320819854736328" stroke-width="0.0" fill="rgb(54, 54, 52)" opacity="0.9993242" stroke="rgb(0, 0, 0)" stroke-opacity="1.0" stroke-linecap="round" stroke-linejoin="round"/>
    <path d="M 239.7470703125 422.1697998046875 C 243.01939392089844 422.3043212890625 244.05735778808594 424.7294006347656 243.9315948486328 427.5088195800781 C 246.62001037597656 442.8471374511719 247.338623046875 460.87225341796875 241.71372985839844 474.86322021484375 C 231.3875732421875 466.1611022949219 239.79014587402344 444.9122314453125 239.7470703125 422.1697998046875" stroke-width="0.0" fill="rgb(177, 176, 174)" opacity="0.9833262" stroke="rgb(0, 0, 0)" stroke-opacity="1.0" stroke-linecap="round" stroke-linejoin="round"/>
    <path d="M 450.3821105957031 452.8693542480469 C 444.46624755859375 451.24298095703125 446.93701171875 447.8372497558594 442.02496337890625 446.9239196777344 C 422.8361511230469 449.93896484375 401.57049560546875 452.3888854980469 388.9059143066406 457.59295654296875 C 384.29412841796875 462.5047912597656 380.1515197753906 463.9756164550781 379.9960632324219 478.9677734375 C 379.5328063964844 484.19390869140625 382.5893249511719 500.6184997558594 380.12060546875 519.42578125 C 405.91259765625 518.9329223632812 430.70068359375 518.9546508789062 454.9975891113281 517.8807373046875 C 452.3305358886719 491.1710205078125 451.78021240234375 470.92578125 450.3821105957031 452.8693542480469" stroke-width="0.0" fill="rgb(44, 44, 42)" opacity="1.0026656" stroke="rgb(0, 0, 0)" stroke-opacity="1.0" stroke-linecap="round" stroke-linejoin="round"/>
    <path d="M 105.15868377685547 -8.76784610748291 C 98.94589233398438 -4.5607476234436035 93.99596405029297 -2.669590950012207 88.94407653808594 -5.252207279205322 C 87.24261474609375 61.494537353515625 86.4809799194336 131.1304168701172 86.49847412109375 206.97593688964844 C 87.72891235351562 209.64797973632812 85.38129425048828 212.91778564453125 91.73622131347656 215.255615234375 C 93.689453125 217.93223571777344 102.41351318359375 213.82618713378906 105.12796020507812 213.6659393310547 C 104.81288146972656 144.072021484375 104.97247314453125 70.576416015625 105.15868377685547 -8.76784610748291" stroke-width="0.0" fill="rgb(42, 42, 40)" opacity="1.012091" stroke="rgb(0, 0, 0)" stroke-opacity="1.0" stroke-linecap="round" stroke-linejoin="round"/>
    <path d="M 480.38775634765625 482.771728515625 C 475.4889221191406 494.186279296875 481.1689758300781 503.77655029296875 473.1056213378906 516.050048828125 C 486.1497802734375 518.4136962890625 495.781982421875 519.7085571289062 504.6258850097656 518.2177124023438 C 501.8814697265625 497.8867492675781 494.0383605957031 492.84393310546875 491.0815734863281 484.3565979003906 C 490.21435546875 481.89495849609375 483.5400085449219 482.7203674316406 480.38775634765625 482.771728515625" stroke-width="0.0" fill="rgb(60, 59, 56)" opacity="0.91817147" stroke="rgb(0, 0, 0)" stroke-opacity="1.0" stroke-linecap="round" stroke-linejoin="round"/>
    <path d="M 353.21185302734375 482.509765625 C 339.09442138671875 491.8389892578125 332.64794921875 491.2860412597656 316.4231872558594 493.1308288574219 C 313.1316833496094 497.00543212890625 316.5626220703125 504.408935546875 314.42755126953125 520.1096801757812 C 328.03179931640625 518.6388549804688 340.9014892578125 518.7089233398438 354.8044738769531 519.2890014648438 C 354.361572265625 500.87835693359375 353.13482666015625 492.35235595703125 353.21185302734375 482.509765625" stroke-width="0.0" fill="rgb(32, 31, 29)" opacity="0.9983625" stroke="rgb(0, 0, 0)" stroke-opacity="1.0" stroke-linecap="round" stroke-linejoin="round"/>
    <path d="M 368.0129699707031 473.25311279296875 C 361.16851806640625 475.3417053222656 356.1884765625 480.4930725097656 350.3781433105469 484.5235290527344 C 354.38525390625 488.1995849609375 353.04669189453125 501.0605163574219 355.7181396484375 519.6129150390625 C 358.9553527832031 517.2485961914062 363.17047119140625 516.9522094726562 368.138671875 518.1426391601562 C 368.1426696777344 498.6243896484375 368.2828674316406 484.07403564453125 368.0129699707031 473.25311279296875" stroke-width="0.0" fill="rgb(19, 18, 16)" opacity="0.9997466" stroke="rgb(0, 0, 0)" stroke-opacity="1.0" stroke-linecap="round" stroke-linejoin="round"/>
  </g>
</svg>
