<?xml version="1.0" ?>
<svg xmlns="http://www.w3.org/2000/svg" version="1.1" width="512" height="512">
  <defs/>
  <g>
    <path d="M -3.0102999210357666 -3.4449398517608643 C -2.131659507751465 170.3333282470703 -0.898056149482727 340.6666564941406 -0.358011931180954 516.4448852539062 C 169.9161376953125 516.9437866210938 339.9515075683594 517.686767578125 516.9902954101562 518.3783569335938 C 517.3717651367188 341.2481994628906 517.5606689453125 170.6461181640625 517.71435546875 -3.077223539352417 C 340.6666564941406 -3.4343488216400146 170.3333282470703 -3.4992611408233643 -3.0102999210357666 -3.4449398517608643" stroke-width="0.0" fill="rgb(201, 219, 206)" opacity="0.83873004" stroke="rgb(0, 0, 0)" stroke-opacity="1.0" stroke-linecap="round" stroke-linejoin="round"/>
    <path d="M -4.907543182373047 229.88291931152344 C -5.124239444732666 325.0364990234375 -5.286834239959717 418.0870361328125 -5.303231716156006 518.8471069335938 C 170.639892578125 518.8820190429688 341.1947326660156 518.7653198242188 517.4296264648438 518.3920288085938 C 517.8760986328125 426.0388488769531 518.8052368164062 341.20648193359375 518.7216796875 262.99371337890625 C 426.6875915527344 257.67034912109375 335.4399719238281 258.628173828125 245.13087463378906 255.47068786621094 C 201.7732696533203 248.94381713867188 160.130859375 237.2793731689453 111.4737777709961 232.25558471679688 C 74.55165100097656 229.73524475097656 34.94697952270508 231.92335510253906 -4.907543182373047 229.88291931152344" stroke-width="0.0" fill="rgb(122, 140, 159)" opacity="0.98921204" stroke="rgb(0, 0, 0)" stroke-opacity="1.0" stroke-linecap="round" stroke-linejoin="round"/>
    <path d="M -3.300662040710449 212.86045837402344 C -3.0903069972991943 217.41397094726562 -4.089920997619629 223.44326782226562 -2.3654675483703613 228.64547729492188 C 23.529190063476562 223.3487091064453 39.33782958984375 234.86329650878906 53.207279205322266 224.4743194580078 C 39.09265899658203 217.11683654785156 17.95281982421875 213.83653259277344 -3.300662040710449 212.86045837402344" stroke-width="0.0" fill="rgb(172, 192, 191)" opacity="0.99897426" stroke="rgb(0, 0, 0)" stroke-opacity="1.0" stroke-linecap="round" stroke-linejoin="round"/>
    <path d="M 239.6988067626953 334.3029479980469 C 232.10464477539062 342.1999816894531 221.04090881347656 343.13653564453125 214.86058044433594 337.5848388671875 C 195.27529907226562 363.60009765625 196.4868927001953 383.04913330078125 192.15255737304688 402.9639587402344 C 166.34059143066406 438.71783447265625 145.8119659423828 476.30279541015625 118.519287109375 516.6433715820312 C 182.54501342773438 519.4642944335938 250.91107177734375 519.39306640625 311.6678466796875 517.7861938476562 C 293.4620666503906 475.37445068359375 275.6762390136719 441.2503662109375 252.48297119140625 408.96661376953125 C 254.3096160888672 398.58111572265625 254.82220458984375 383.4760437011719 251.2568359375 368.5325012207031 C 250.27452087402344 358.52996826171875 242.00453186035156 352.5710144042969 238.26185607910156 346.6752014160156 C 242.3215789794922 347.161865234375 241.4295196533203 341.58673095703125 239.6988067626953 334.3029479980469" stroke-width="0.0" fill="rgb(173, 180, 182)" opacity="1.0739223" stroke="rgb(0, 0, 0)" stroke-opacity="1.0" stroke-linecap="round" stroke-linejoin="round"/>
    <path d="M 243.91395568847656 336.7076110839844 C 241.25286865234375 339.3359680175781 238.3244171142578 343.7748718261719 235.0133056640625 347.17498779296875 C 242.80699157714844 354.3177185058594 242.0672607421875 356.239013671875 246.25814819335938 348.6293640136719 C 249.63865661621094 343.8365783691406 250.5509033203125 340.326171875 243.91395568847656 336.7076110839844" stroke-width="0.0" fill="rgb(173, 182, 182)" opacity="1.0001011" stroke="rgb(0, 0, 0)" stroke-opacity="1.0" stroke-linecap="round" stroke-linejoin="round"/>
    <path d="M 223.82479858398438 310.25244140625 C 227.10287475585938 314.96331787109375 227.5941925048828 319.38726806640625 234.7818145751953 315.48248291015625 C 232.8662872314453 318.267578125 235.4657745361328 322.95501708984375 235.68170166015625 327.7096862792969 C 242.6431884765625 320.33477783203125 247.81155395507812 315.01904296875 263.4351501464844 315.2549133300781 C 250.4994354248047 312.2303466796875 245.3825225830078 314.3621520996094 243.6048583984375 313.62176513671875 C 277.2514343261719 308.79742431640625 286.4583740234375 314.9030456542969 300.5706787109375 316.32696533203125 C 305.15875244140625 323.8105773925781 301.76611328125 321.3242492675781 292.4010314941406 321.5460510253906 C 297.0289001464844 322.673583984375 295.3593444824219 325.411865234375 293.60162353515625 328.7535705566406 C 284.9212341308594 330.1067199707031 261.47467041015625 329.7113342285156 250.6067352294922 331.33203125 C 246.74893188476562 345.29443359375 258.1014709472656 347.0974426269531 257.4981689453125 360.0556945800781 C 259.055419921875 377.56842041015625 260.29095458984375 396.7800598144531 257.27301025390625 417.27362060546875 C 278.4106750488281 444.8440246582031 294.83636474609375 478.7735290527344 311.55499267578125 517.6197509765625 C 375.3717041015625 519.0988159179688 442.969970703125 517.5570068359375 517.489990234375 517.2935791015625 C 517.5697021484375 444.0500183105469 517.6068115234375 377.03662109375 517.8146362304688 310.17926025390625 C 414.7306213378906 308.45819091796875 319.5343322753906 310.0602722167969 223.82479858398438 310.25244140625" stroke-width="0.0" fill="rgb(124, 142, 161)" opacity="1.0004265" stroke="rgb(0, 0, 0)" stroke-opacity="1.0" stroke-linecap="round" stroke-linejoin="round"/>
    <path d="M -6.238905429840088 304.3477478027344 C -7.126574993133545 369.20855712890625 -6.925145149230957 438.6035461425781 -6.474113464355469 517.264892578125 C 39.60690689086914 517.4995727539062 79.69595336914062 517.5381469726562 119.15065002441406 513.1199340820312 C 144.24789428710938 475.808349609375 167.41802978515625 438.9482116699219 190.9256134033203 401.614990234375 C 195.64126586914062 393.36834716796875 185.0985870361328 391.3804626464844 188.6326904296875 379.80242919921875 C 193.1175994873047 371.90301513671875 196.4071502685547 363.2111511230469 202.5376434326172 351.4747314453125 C 196.5389404296875 350.4024963378906 199.4791717529297 346.0859375 199.4585418701172 342.7830505371094 C 201.22109985351562 338.8236389160156 207.3898162841797 339.4908447265625 206.40025329589844 339.7733459472656 C 205.81814575195312 331.1092224121094 210.6865692138672 328.04559326171875 208.189697265625 318.9003601074219 C 188.30416870117188 317.28521728515625 170.52224731445312 317.6043701171875 159.96527099609375 318.90283203125 C 150.58380126953125 318.703369140625 148.37158203125 317.4656677246094 148.6168212890625 310.9082946777344 C 150.81246948242188 308.6712951660156 156.26673889160156 311.3779296875 155.69744873046875 306.9845886230469 C 104.11637115478516 305.6938781738281 52.587791442871094 305.6341552734375 -6.238905429840088 304.3477478027344" stroke-width="0.0" fill="rgb(122, 140, 157)" opacity="1.0019957" stroke="rgb(0, 0, 0)" stroke-opacity="1.0" stroke-linecap="round" stroke-linejoin="round"/>
    <path d="M -6.170527458190918 226.97055053710938 C -6.275178909301758 255.31443786621094 -6.283445358276367 279.2694396972656 -3.3377277851104736 301.90545654296875 C 71.47240447998047 303.0494384765625 142.35340881347656 304.177978515625 217.086181640625 303.9971618652344 C 224.05636596679688 302.93255615234375 226.78489685058594 302.0784912109375 228.1128387451172 296.3283386230469 C 227.44985961914062 292.6944885253906 228.17489624023438 284.28961181640625 225.45082092285156 284.3778991699219 C 210.21243286132812 275.4311218261719 193.7315673828125 268.7007751464844 180.6009979248047 258.1435241699219 C 184.2605743408203 257.4971923828125 187.556884765625 255.1538543701172 194.4877166748047 252.94134521484375 C 187.44651794433594 252.20498657226562 182.65426635742188 253.21141052246094 181.88075256347656 250.99453735351562 C 189.68614196777344 249.49269104003906 197.15419006347656 249.14163208007812 203.91209411621094 247.8314208984375 C 174.35791015625 233.4496612548828 133.5243377685547 236.02459716796875 97.17579650878906 225.49758911132812 C 65.85557556152344 224.00022888183594 38.910118103027344 235.5549774169922 -6.170527458190918 226.97055053710938" stroke-width="0.0" fill="rgb(79, 96, 127)" opacity="1.0172435" stroke="rgb(0, 0, 0)" stroke-opacity="1.0" stroke-linecap="round" stroke-linejoin="round"/>
    <path d="M 268.40948486328125 280.47235107421875 C 263.1817932128906 279.20703125 267.0437927246094 285.6757507324219 265.6959228515625 294.0232849121094 C 272.2191467285156 297.3533935546875 268.7679443359375 302.77166748046875 282.4475402832031 304.70648193359375 C 354.45391845703125 307.2225036621094 430.708984375 307.57720947265625 516.3988647460938 306.4671630859375 C 518.4627685546875 295.0651550292969 518.7242431640625 278.65325927734375 517.6326293945312 269.8417663574219 C 493.9742126464844 268.9325256347656 486.15032958984375 256.0246276855469 471.154052734375 257.05450439453125 C 412.5993957519531 258.1871032714844 356.906494140625 257.508056640625 306.09320068359375 253.86549377441406 C 286.6776123046875 260.16802978515625 272.0489196777344 266.02142333984375 268.40948486328125 280.47235107421875" stroke-width="0.0" fill="rgb(95, 114, 142)" opacity="0.9729561" stroke="rgb(0, 0, 0)" stroke-opacity="1.0" stroke-linecap="round" stroke-linejoin="round"/>
    <path d="M 248.4219207763672 259.3158264160156 C 256.6883544921875 262.1740417480469 263.6187744140625 267.47808837890625 270.32763671875 270.9245300292969 C 281.47015380859375 266.22747802734375 287.2785949707031 262.73150634765625 291.3124084472656 257.8157043457031 C 275.7660827636719 250.8657989501953 267.0797119140625 253.99024963378906 248.4219207763672 259.3158264160156" stroke-width="0.0" fill="rgb(149, 178, 185)" opacity="1.0066471" stroke="rgb(0, 0, 0)" stroke-opacity="1.0" stroke-linecap="round" stroke-linejoin="round"/>
    <path d="M 228.2761993408203 339.750244140625 C 223.6362762451172 341.59429931640625 232.78451538085938 338.12347412109375 242.72584533691406 340.0289306640625 C 245.65118408203125 337.02630615234375 244.6138153076172 332.2299499511719 244.36753845214844 330.44085693359375 C 233.85743713378906 327.04986572265625 229.94749450683594 325.2200622558594 228.2761993408203 339.750244140625" stroke-width="0.0" fill="rgb(98, 97, 110)" opacity="0.98604447" stroke="rgb(0, 0, 0)" stroke-opacity="1.0" stroke-linecap="round" stroke-linejoin="round"/>
    <path d="M 257.94024658203125 387.9208068847656 C 254.93702697753906 388.3751220703125 256.2955627441406 394.0433044433594 255.22784423828125 400.11651611328125 C 258.8116455078125 399.92462158203125 261.9317321777344 401.61517333984375 261.77362060546875 401.2386474609375 C 260.6302795410156 396.9599304199219 263.58819580078125 389.0439453125 257.94024658203125 387.9208068847656" stroke-width="0.0" fill="rgb(66, 72, 85)" opacity="1.0053215" stroke="rgb(0, 0, 0)" stroke-opacity="1.0" stroke-linecap="round" stroke-linejoin="round"/>
    <path d="M 232.12303161621094 331.7731628417969 C 228.20248413085938 333.64056396484375 232.42018127441406 341.7001037597656 222.56637573242188 342.9572448730469 C 217.32640075683594 341.2577819824219 212.44012451171875 333.3304748535156 210.5873565673828 339.7912902832031 C 199.68612670898438 360.80096435546875 194.0770263671875 379.67242431640625 193.57470703125 405.123291015625 C 193.4013214111328 413.78009033203125 196.50454711914062 420.2248229980469 202.1378173828125 424.67047119140625 C 211.46914672851562 430.78155517578125 226.8406982421875 430.85626220703125 242.7222900390625 433.2247619628906 C 249.90370178222656 432.4971618652344 249.98324584960938 426.14044189453125 251.20681762695312 419.23602294921875 C 253.24542236328125 409.7171936035156 253.12486267089844 393.9970703125 252.90489196777344 379.5574035644531 C 252.28038024902344 370.2955017089844 249.62960815429688 363.471435546875 245.3896484375 357.212158203125 C 241.41136169433594 353.6909484863281 235.75743103027344 350.9179382324219 234.13674926757812 347.56256103515625 C 236.20889282226562 345.3763427734375 239.28607177734375 343.0226745605469 240.8165740966797 338.7835388183594 C 239.71656799316406 331.6773376464844 237.68373107910156 331.1822814941406 232.12303161621094 331.7731628417969" stroke-width="0.0" fill="rgb(125, 127, 140)" opacity="0.8754373" stroke="rgb(0, 0, 0)" stroke-opacity="1.0" stroke-linecap="round" stroke-linejoin="round"/>
    <path d="M 141.21820068359375 482.54486083984375 C 133.10325622558594 493.82818603515625 126.2318115234375 501.411376953125 120.94654846191406 516.5975952148438 C 130.62680053710938 518.2245483398438 135.51174926757812 517.6766967773438 136.93948364257812 512.6989135742188 C 141.11441040039062 503.2030334472656 143.49757385253906 497.4898986816406 141.21820068359375 482.54486083984375" stroke-width="0.0" fill="rgb(176, 183, 185)" opacity="0.99763995" stroke="rgb(0, 0, 0)" stroke-opacity="1.0" stroke-linecap="round" stroke-linejoin="round"/>
    <path d="M 182.68133544921875 418.29168701171875 C 177.04029846191406 422.0105895996094 173.1148223876953 427.9911193847656 170.08590698242188 435.79638671875 C 180.45645141601562 437.35296630859375 182.1761474609375 432.5617980957031 184.36105346679688 426.3543395996094 C 185.6144256591797 422.9815368652344 185.25604248046875 420.0420837402344 182.68133544921875 418.29168701171875" stroke-width="0.0" fill="rgb(169, 177, 178)" opacity="0.99871314" stroke="rgb(0, 0, 0)" stroke-opacity="1.0" stroke-linecap="round" stroke-linejoin="round"/>
    <path d="M 255.4154052734375 412.87115478515625 C 252.3663330078125 437.2360534667969 250.7635498046875 455.0363464355469 243.1884307861328 471.9815673828125 C 240.67025756835938 486.0181579589844 244.80389404296875 498.2660827636719 248.08895874023438 517.613525390625 C 271.75341796875 518.5369873046875 295.2560729980469 520.9758911132812 312.1651916503906 513.3958129882812 C 293.8962097167969 476.7979431152344 275.6721496582031 445.6424865722656 255.4154052734375 412.87115478515625" stroke-width="0.0" fill="rgb(171, 176, 178)" opacity="1.0074522" stroke="rgb(0, 0, 0)" stroke-opacity="1.0" stroke-linecap="round" stroke-linejoin="round"/>
    <path d="M 231.4730987548828 426.9150695800781 C 228.46185302734375 429.1835021972656 222.64593505859375 428.2529602050781 219.49652099609375 428.6790771484375 C 217.20762634277344 434.97607421875 218.0731201171875 443.2746887207031 215.48252868652344 446.32147216796875 C 211.42257690429688 446.5073547363281 204.169189453125 446.9381103515625 203.149658203125 447.2521667480469 C 196.03712463378906 466.6654052734375 191.23951721191406 488.6155700683594 185.25917053222656 516.7028198242188 C 204.2783660888672 519.470458984375 230.19357299804688 519.1773681640625 247.32546997070312 517.6278076171875 C 245.99940490722656 479.2724304199219 239.2898406982422 452.8912048339844 231.4730987548828 426.9150695800781" stroke-width="0.0" fill="rgb(137, 143, 154)" opacity="1.0317434" stroke="rgb(0, 0, 0)" stroke-opacity="1.0" stroke-linecap="round" stroke-linejoin="round"/>
    <path d="M 194.93800354003906 421.04180908203125 C 189.54531860351562 420.08544921875 185.61338806152344 423.5386657714844 184.234619140625 425.0467834472656 C 184.425537109375 436.47332763671875 182.4118194580078 449.0386962890625 183.42333984375 461.2958068847656 C 190.89393615722656 453.89471435546875 187.6251220703125 450.566162109375 194.28253173828125 459.6526794433594 C 197.9182586669922 440.0168762207031 199.2220458984375 431.12396240234375 194.93800354003906 421.04180908203125" stroke-width="0.0" fill="rgb(93, 92, 98)" opacity="0.9242282" stroke="rgb(0, 0, 0)" stroke-opacity="1.0" stroke-linecap="round" stroke-linejoin="round"/>
    <path d="M 478.8224182128906 518.4915161132812 C 486.22515869140625 519.372314453125 495.9609069824219 519.622314453125 516.1567993164062 519.5269775390625 C 517.8971557617188 509.4159240722656 517.0302734375 503.8998718261719 515.8583374023438 498.8011474609375 C 504.16204833984375 499.1665344238281 496.1360778808594 499.6783447265625 488.6750183105469 499.5605163574219 C 488.1375732421875 503.4830627441406 486.33416748046875 507.19012451171875 478.8224182128906 518.4915161132812" stroke-width="0.0" fill="rgb(67, 70, 91)" opacity="1.0497859" stroke="rgb(0, 0, 0)" stroke-opacity="1.0" stroke-linecap="round" stroke-linejoin="round"/>
    <path d="M 200.72622680664062 425.7331848144531 C 203.34915161132812 432.4394836425781 199.0948486328125 440.6004638671875 204.75035095214844 445.8112487792969 C 211.75660705566406 444.3421630859375 208.81637573242188 435.9001770019531 210.21292114257812 429.7049865722656 C 213.35169982910156 435.58074951171875 210.60531616210938 444.6725158691406 213.5782928466797 445.2158203125 C 220.27635192871094 442.6978759765625 215.3217010498047 435.0048828125 218.54763793945312 428.1402587890625 C 212.84274291992188 427.4338073730469 206.19027709960938 426.05145263671875 200.72622680664062 425.7331848144531" stroke-width="0.0" fill="rgb(116, 103, 113)" opacity="0.97092074" stroke="rgb(0, 0, 0)" stroke-opacity="1.0" stroke-linecap="round" stroke-linejoin="round"/>
    <path d="M -3.5160021781921387 251.8970184326172 C -3.5048649311065674 270.8975524902344 -4.8591766357421875 286.2399597167969 -5.684674263000488 300.848388671875 C 84.25474548339844 303.73028564453125 168.53211975097656 303.949462890625 244.3689727783203 301.7553405761719 C 231.94517517089844 280.50384521484375 213.6951904296875 271.3819580078125 190.84373474121094 268.2761535644531 C 165.45166015625 261.56134033203125 144.2377471923828 251.27777099609375 115.68844604492188 247.85882568359375 C 75.10291290283203 248.0124969482422 34.43143081665039 247.674072265625 -3.5160021781921387 251.8970184326172" stroke-width="0.0" fill="rgb(81, 103, 134)" opacity="0.96772397" stroke="rgb(0, 0, 0)" stroke-opacity="1.0" stroke-linecap="round" stroke-linejoin="round"/>
    <path d="M 341.1022033691406 264.0410461425781 C 347.1031188964844 270.11737060546875 352.9451904296875 279.1528015136719 357.6864929199219 289.2486267089844 C 370.6543884277344 288.73779296875 386.9789123535156 289.5191345214844 401.8548583984375 289.9093322753906 C 410.7481994628906 295.4759521484375 419.737548828125 301.2069091796875 427.0255126953125 306.4560241699219 C 455.6059265136719 307.858154296875 484.2477111816406 306.7257995605469 517.12841796875 307.6493835449219 C 517.4369506835938 291.68359375 518.6944580078125 277.3499450683594 517.2513427734375 267.3194580078125 C 495.5542907714844 271.0739440917969 491.0746154785156 259.41448974609375 476.6302490234375 255.96792602539062 C 439.13226318359375 253.389404296875 403.5269775390625 260.57965087890625 378.1029357910156 253.0054931640625 C 360.5381164550781 256.0323486328125 349.7501525878906 256.8229675292969 341.1022033691406 264.0410461425781" stroke-width="0.0" fill="rgb(100, 127, 156)" opacity="0.94467485" stroke="rgb(0, 0, 0)" stroke-opacity="1.0" stroke-linecap="round" stroke-linejoin="round"/>
    <path d="M 3.529139757156372 226.6162109375 C -4.786505222320557 235.51780700683594 -4.092657566070557 244.95860290527344 -4.665395736694336 255.74118041992188 C 37.751529693603516 250.92514038085938 74.77031707763672 245.5279541015625 107.95361328125 247.41592407226562 C 155.3318328857422 255.43978881835938 192.54364013671875 266.2016296386719 225.7997283935547 284.30804443359375 C 238.94142150878906 279.3891906738281 248.7928466796875 276.081787109375 265.2149963378906 275.9581604003906 C 272.2054443359375 269.3519287109375 283.8573303222656 268.42242431640625 289.5233154296875 260.02783203125 C 276.9533386230469 254.38552856445312 269.23052978515625 264.1473083496094 258.959716796875 261.4681701660156 C 228.12281799316406 250.54620361328125 198.35986328125 241.52098083496094 160.89324951171875 233.468505859375 C 138.30319213867188 231.71133422851562 116.00334167480469 232.8385009765625 91.63697814941406 222.66810607910156 C 61.37889862060547 223.4904327392578 43.511898040771484 235.04751586914062 3.529139757156372 226.6162109375" stroke-width="0.0" fill="rgb(117, 145, 169)" opacity="0.8659556" stroke="rgb(0, 0, 0)" stroke-opacity="1.0" stroke-linecap="round" stroke-linejoin="round"/>
    <path d="M 377.3761901855469 295.5603942871094 C 378.279541015625 299.3287353515625 380.75177001953125 302.5590515136719 379.6705322265625 306.8133850097656 C 397.6448974609375 307.90252685546875 412.9709777832031 309.3953857421875 426.3433837890625 306.46624755859375 C 419.4602355957031 297.3374328613281 410.57366943359375 292.6220397949219 401.7037353515625 289.09307861328125 C 391.6582946777344 289.44268798828125 385.6275634765625 293.035400390625 377.3761901855469 295.5603942871094" stroke-width="0.0" fill="rgb(78, 95, 127)" opacity="0.9992586" stroke="rgb(0, 0, 0)" stroke-opacity="1.0" stroke-linecap="round" stroke-linejoin="round"/>
    <path d="M 139.56182861328125 488.8486022949219 C 155.124755859375 486.6443176269531 172.92445373535156 487.5164489746094 190.67703247070312 487.2622985839844 C 192.11024475097656 485.5893859863281 194.25189208984375 480.2879333496094 192.162841796875 474.3358154296875 C 176.5139617919922 474.8199768066406 159.4956512451172 475.92120361328125 146.63821411132812 473.26641845703125 C 142.98779296875 477.98388671875 139.8787841796875 483.0944519042969 139.56182861328125 488.8486022949219" stroke-width="0.0" fill="rgb(191, 202, 195)" opacity="0.99722904" stroke="rgb(0, 0, 0)" stroke-opacity="1.0" stroke-linecap="round" stroke-linejoin="round"/>
    <path d="M 357.77215576171875 288.75244140625 C 357.41912841796875 286.15386962890625 354.5830078125 282.2237243652344 351.8109436035156 279.8331604003906 C 346.421875 260.4537048339844 329.39801025390625 255.10235595703125 308.0091247558594 248.24961853027344 C 294.5500183105469 257.1496887207031 283.3147277832031 270.0210876464844 261.6316833496094 278.555908203125 C 253.1073455810547 277.35870361328125 240.26034545898438 279.2594299316406 223.5082550048828 284.42620849609375 C 241.311767578125 293.00836181640625 257.05059814453125 297.8439025878906 272.0989990234375 299.9386901855469 C 301.2925109863281 299.75921630859375 326.58123779296875 297.2356262207031 350.91790771484375 294.6019287109375 C 360.856201171875 292.4303283691406 366.24249267578125 291.6684875488281 357.77215576171875 288.75244140625" stroke-width="0.0" fill="rgb(105, 132, 159)" opacity="0.99362224" stroke="rgb(0, 0, 0)" stroke-opacity="1.0" stroke-linecap="round" stroke-linejoin="round"/>
    <path d="M -1.4469387531280518 494.9617919921875 C -1.9933792352676392 501.17169189453125 -3.654942035675049 506.6236572265625 -3.8337018489837646 519.4254760742188 C 42.576045989990234 519.155029296875 81.76509094238281 518.8154296875 125.0606918334961 512.3624877929688 C 92.29045104980469 506.8185119628906 78.150390625 493.2970886230469 52.37085723876953 490.6395568847656 C 36.38837814331055 491.3874816894531 16.39853286743164 493.03289794921875 -1.4469387531280518 494.9617919921875" stroke-width="0.0" fill="rgb(72, 80, 101)" opacity="0.99973595" stroke="rgb(0, 0, 0)" stroke-opacity="1.0" stroke-linecap="round" stroke-linejoin="round"/>
    <path d="M 486.6072998046875 503.1204833984375 C 452.96636962890625 502.0615539550781 422.528076171875 504.1239013671875 391.4059143066406 503.7402648925781 C 384.318359375 506.07708740234375 378.38482666015625 505.0319519042969 375.22430419921875 516.7162475585938 C 408.71588134765625 518.858642578125 445.33026123046875 517.9008178710938 481.6368408203125 517.5466918945312 C 483.4515380859375 510.315185546875 485.3578796386719 508.38507080078125 486.6072998046875 503.1204833984375" stroke-width="0.0" fill="rgb(70, 73, 89)" opacity="0.99602896" stroke="rgb(0, 0, 0)" stroke-opacity="1.0" stroke-linecap="round" stroke-linejoin="round"/>
    <path d="M 255.776123046875 388.40478515625 C 254.65008544921875 402.99176025390625 256.5172119140625 420.2195129394531 253.0837860107422 426.4043884277344 C 266.7523193359375 422.0437927246094 269.5906982421875 422.0508117675781 268.0296936035156 417.6453857421875 C 263.6147766113281 401.1580505371094 268.2482604980469 389.6468811035156 255.776123046875 388.40478515625" stroke-width="0.0" fill="rgb(100, 112, 125)" opacity="0.94064826" stroke="rgb(0, 0, 0)" stroke-opacity="1.0" stroke-linecap="round" stroke-linejoin="round"/>
    <path d="M 16.74386215209961 406.3221740722656 C 9.117565155029297 402.89495849609375 6.658610820770264 409.4332275390625 -2.7352147102355957 409.3271789550781 C -4.587563514709473 414.6316223144531 -7.524982452392578 419.10723876953125 0.3120318055152893 417.0256042480469 C 9.410416603088379 416.206298828125 15.41616153717041 415.04107666015625 16.74386215209961 406.3221740722656" stroke-width="0.0" fill="rgb(77, 92, 113)" opacity="0.9999206" stroke="rgb(0, 0, 0)" stroke-opacity="1.0" stroke-linecap="round" stroke-linejoin="round"/>
    <path d="M -8.44184684753418 329.43829345703125 C -4.4899067878723145 335.027587890625 -4.278124809265137 333.679931640625 -2.638864278793335 332.4477844238281 C 9.14720344543457 330.3965759277344 15.893204689025879 331.9159240722656 18.951072692871094 330.29827880859375 C 16.11920928955078 325.04443359375 7.522683620452881 329.7764587402344 -8.44184684753418 329.43829345703125" stroke-width="0.0" fill="rgb(107, 124, 140)" opacity="0.9994225" stroke="rgb(0, 0, 0)" stroke-opacity="1.0" stroke-linecap="round" stroke-linejoin="round"/>
    <path d="M 237.4028778076172 331.742431640625 C 233.88629150390625 329.96075439453125 232.1127471923828 332.2399597167969 228.64358520507812 334.0751037597656 C 227.45852661132812 339.24322509765625 228.58824157714844 344.543701171875 231.21670532226562 346.2671203613281 C 238.39520263671875 348.3122253417969 241.31309509277344 344.5047607421875 240.77188110351562 342.98345947265625 C 241.462158203125 333.35711669921875 240.2440948486328 332.9328308105469 237.4028778076172 331.742431640625" stroke-width="0.0" fill="rgb(92, 83, 95)" opacity="0.9957653" stroke="rgb(0, 0, 0)" stroke-opacity="1.0" stroke-linecap="round" stroke-linejoin="round"/>
    <path d="M 220.34754943847656 341.689208984375 C 218.51480102539062 337.2872619628906 215.40072631835938 337.31585693359375 211.45286560058594 337.60052490234375 C 208.52049255371094 341.4787902832031 205.79879760742188 343.9691162109375 206.4596405029297 349.1060791015625 C 207.9908447265625 352.1488342285156 214.59243774414062 350.8172912597656 217.33682250976562 349.4481506347656 C 219.25238037109375 347.8746337890625 219.94857788085938 345.5491943359375 220.34754943847656 341.689208984375" stroke-width="0.0" fill="rgb(56, 56, 65)" opacity="1.0021592" stroke="rgb(0, 0, 0)" stroke-opacity="1.0" stroke-linecap="round" stroke-linejoin="round"/>
    <path d="M 231.5858612060547 380.1294860839844 C 233.2290802001953 398.5987243652344 234.94161987304688 418.64178466796875 235.58616638183594 438.7315673828125 C 237.75961303710938 445.4148254394531 239.7597198486328 451.5314636230469 250.2838134765625 447.18914794921875 C 253.06326293945312 430.34246826171875 254.23193359375 407.508544921875 255.2893524169922 382.43438720703125 C 251.66293334960938 379.9801025390625 242.4552001953125 382.0039367675781 231.5858612060547 380.1294860839844" stroke-width="0.0" fill="rgb(82, 94, 110)" opacity="0.98434776" stroke="rgb(0, 0, 0)" stroke-opacity="1.0" stroke-linecap="round" stroke-linejoin="round"/>
    <path d="M 244.92706298828125 339.3581237792969 C 237.01010131835938 344.2232666015625 230.9407501220703 347.8983154296875 228.60403442382812 353.1362609863281 C 226.78846740722656 364.71282958984375 225.8173370361328 374.1571044921875 231.7068328857422 382.4473571777344 C 238.41966247558594 379.3063659667969 247.73562622070312 381.32562255859375 256.0523681640625 379.74127197265625 C 257.3202819824219 360.0141296386719 254.134033203125 347.2755432128906 244.92706298828125 339.3581237792969" stroke-width="0.0" fill="rgb(140, 145, 154)" opacity="0.9157409" stroke="rgb(0, 0, 0)" stroke-opacity="1.0" stroke-linecap="round" stroke-linejoin="round"/>
    <path d="M 217.80755615234375 354.0924987792969 C 210.28697204589844 354.16259765625 205.22569274902344 353.694580078125 202.63626098632812 356.832763671875 C 199.46409606933594 358.8318786621094 197.89463806152344 364.3524475097656 196.4984893798828 370.368408203125 C 194.0592803955078 381.3487548828125 192.92405700683594 392.6120300292969 194.14781188964844 407.38812255859375 C 199.44589233398438 410.4190368652344 195.96536254882812 421.96771240234375 201.1979217529297 427.1935729980469 C 211.49476623535156 427.2212829589844 221.07008361816406 428.4588317871094 228.25534057617188 425.2501220703125 C 228.3827362060547 405.8727111816406 228.19668579101562 386.4095458984375 228.99546813964844 366.6376953125 C 225.65431213378906 358.55224609375 224.29270935058594 352.72467041015625 217.80755615234375 354.0924987792969" stroke-width="0.0" fill="rgb(84, 79, 90)" opacity="0.98207575" stroke="rgb(0, 0, 0)" stroke-opacity="1.0" stroke-linecap="round" stroke-linejoin="round"/>
    <path d="M 0.6322251558303833 229.15135192871094 C -6.072634696960449 233.81613159179688 -5.168100357055664 246.2880096435547 -3.308995008468628 256.7265319824219 C 20.808380126953125 254.96441650390625 37.88786697387695 250.28533935546875 58.06722640991211 248.95106506347656 C 55.269187927246094 241.66561889648438 54.06254577636719 235.8033447265625 51.619747161865234 236.16065979003906 C 33.12030029296875 232.33848571777344 20.759262084960938 223.54026794433594 0.6322251558303833 229.15135192871094" stroke-width="0.0" fill="rgb(87, 112, 144)" opacity="0.98949337" stroke="rgb(0, 0, 0)" stroke-opacity="1.0" stroke-linecap="round" stroke-linejoin="round"/>
    <path d="M 486.6430358886719 500.46478271484375 C 484.8998107910156 502.4855651855469 485.13275146484375 508.03875732421875 483.2281494140625 516.9992065429688 C 491.27655029296875 516.8011474609375 497.9877624511719 517.9844360351562 503.78973388671875 517.1090698242188 C 501.4519348144531 505.75958251953125 502.2664794921875 498.89813232421875 502.06884765625 497.7957763671875 C 493.1623229980469 497.2433776855469 488.60693359375 497.04656982421875 486.6430358886719 500.46478271484375" stroke-width="0.0" fill="rgb(104, 107, 131)" opacity="0.9955815" stroke="rgb(0, 0, 0)" stroke-opacity="1.0" stroke-linecap="round" stroke-linejoin="round"/>
    <path d="M 52.96736145019531 294.90081787109375 C 52.31398391723633 300.984619140625 53.30290985107422 299.8924865722656 58.451194763183594 301.17877197265625 C 61.949424743652344 298.7982482910156 70.1035385131836 301.6412658691406 69.46652221679688 296.4684753417969 C 68.98668670654297 294.1398010253906 59.679447174072266 295.16259765625 52.96736145019531 294.90081787109375" stroke-width="0.0" fill="rgb(94, 107, 134)" opacity="0.9998677" stroke="rgb(0, 0, 0)" stroke-opacity="1.0" stroke-linecap="round" stroke-linejoin="round"/>
    <path d="M 264.1322326660156 276.8927917480469 C 272.5862121582031 283.1559143066406 285.1158752441406 281.24462890625 297.9627990722656 285.9480285644531 C 297.874755859375 282.4036560058594 296.6802673339844 286.3064880371094 300.41497802734375 296.7413635253906 C 326.4028625488281 299.29388427734375 346.3417053222656 294.87567138671875 365.0637512207031 285.71868896484375 C 364.103759765625 277.5291748046875 360.06671142578125 275.0994567871094 355.1955261230469 271.3062438964844 C 342.28594970703125 263.15118408203125 330.1097412109375 255.12538146972656 308.5458679199219 248.42579650878906 C 296.1271667480469 255.17169189453125 284.8806457519531 269.573974609375 264.1322326660156 276.8927917480469" stroke-width="0.0" fill="rgb(103, 130, 158)" opacity="0.9966622" stroke="rgb(0, 0, 0)" stroke-opacity="1.0" stroke-linecap="round" stroke-linejoin="round"/>
    <path d="M 238.5773162841797 452.9081115722656 C 231.85336303710938 452.6075439453125 229.45574951171875 451.19097900390625 226.2439727783203 445.8808288574219 C 218.58445739746094 451.6734924316406 220.76226806640625 454.1996154785156 210.33676147460938 450.88250732421875 C 200.26734924316406 454.7437744140625 198.02426147460938 455.6062316894531 197.3136444091797 466.41827392578125 C 206.80413818359375 465.92999267578125 224.0156707763672 465.90423583984375 235.06259155273438 466.3689270019531 C 238.6488494873047 462.31719970703125 240.2376251220703 459.411865234375 238.5773162841797 452.9081115722656" stroke-width="0.0" fill="rgb(116, 121, 135)" opacity="1.0005364" stroke="rgb(0, 0, 0)" stroke-opacity="1.0" stroke-linecap="round" stroke-linejoin="round"/>
    <path d="M 188.05984497070312 421.66387939453125 C 180.34677124023438 426.12078857421875 182.0939483642578 431.6531982421875 187.80477905273438 450.8597106933594 C 179.89073181152344 452.83746337890625 185.49221801757812 450.7557678222656 194.04844665527344 447.56109619140625 C 197.38088989257812 449.5137634277344 196.34683227539062 442.9084167480469 199.81874084472656 436.9598388671875 C 196.66665649414062 428.5306396484375 193.69473266601562 423.090087890625 188.05984497070312 421.66387939453125" stroke-width="0.0" fill="rgb(63, 62, 68)" opacity="0.96798366" stroke="rgb(0, 0, 0)" stroke-opacity="1.0" stroke-linecap="round" stroke-linejoin="round"/>
    <path d="M 257.4177551269531 399.0902099609375 C 254.98471069335938 403.0290832519531 257.7078552246094 414.4971618652344 257.0248718261719 424.8580627441406 C 259.8145751953125 423.1231689453125 265.1392517089844 424.3796081542969 268.51171875 422.4649658203125 C 268.85394287109375 409.2951354980469 265.7277526855469 402.7863464355469 257.4177551269531 399.0902099609375" stroke-width="0.0" fill="rgb(112, 132, 149)" opacity="0.99968714" stroke="rgb(0, 0, 0)" stroke-opacity="1.0" stroke-linecap="round" stroke-linejoin="round"/>
    <path d="M 200.55886840820312 426.8691101074219 C 203.33213806152344 432.9879455566406 201.77069091796875 445.46868896484375 205.6241912841797 448.6059875488281 C 210.8620147705078 447.3816833496094 206.6193389892578 436.0560302734375 209.70269775390625 428.8998107910156 C 207.5343475341797 427.092529296875 204.48464965820312 426.26031494140625 200.55886840820312 426.8691101074219" stroke-width="0.0" fill="rgb(106, 88, 96)" opacity="0.98759437" stroke="rgb(0, 0, 0)" stroke-opacity="1.0" stroke-linecap="round" stroke-linejoin="round"/>
    <path d="M 221.08602905273438 428.3554992675781 C 217.03675842285156 427.6069641113281 211.8427276611328 427.798583984375 212.20628356933594 428.75970458984375 C 214.47061157226562 436.0506591796875 211.2148895263672 446.5779724121094 214.88233947753906 448.8487243652344 C 219.4971466064453 446.4820251464844 217.13070678710938 435.5308532714844 221.08602905273438 428.3554992675781" stroke-width="0.0" fill="rgb(112, 91, 98)" opacity="0.9931469" stroke="rgb(0, 0, 0)" stroke-opacity="1.0" stroke-linecap="round" stroke-linejoin="round"/>
    <path d="M 183.63156127929688 441.9697265625 C 188.70361328125 443.1649169921875 189.53871154785156 444.2798767089844 187.95114135742188 441.32159423828125 C 187.57154846191406 446.6141052246094 188.58883666992188 456.5807800292969 187.32713317871094 462.4341125488281 C 179.86984252929688 459.38616943359375 182.85772705078125 456.0232849121094 183.63156127929688 441.9697265625" stroke-width="0.0" fill="rgb(78, 77, 83)" opacity="0.98861665" stroke="rgb(0, 0, 0)" stroke-opacity="1.0" stroke-linecap="round" stroke-linejoin="round"/>
    <path d="M 343.8426208496094 286.1753234863281 C 344.48419189453125 289.9352722167969 344.320556640625 291.7646484375 339.15802001953125 292.89080810546875 C 345.8855285644531 291.02374267578125 351.6548767089844 290.99981689453125 360.1613464355469 287.437255859375 C 352.9318542480469 288.6955871582031 348.0933837890625 287.33209228515625 343.8426208496094 286.1753234863281" stroke-width="0.0" fill="rgb(122, 147, 170)" opacity="0.99940425" stroke="rgb(0, 0, 0)" stroke-opacity="1.0" stroke-linecap="round" stroke-linejoin="round"/>
    <path d="M 455.480224609375 304.5810852050781 C 456.8300476074219 307.75579833984375 456.0807800292969 309.45782470703125 455.0395812988281 309.76605224609375 C 461.91033935546875 307.7613830566406 465.123046875 311.11663818359375 464.4996337890625 306.1281433105469 C 465.6207580566406 303.989990234375 459.24932861328125 305.79864501953125 455.480224609375 304.5810852050781" stroke-width="0.0" fill="rgb(109, 132, 160)" opacity="0.99978495" stroke="rgb(0, 0, 0)" stroke-opacity="1.0" stroke-linecap="round" stroke-linejoin="round"/>
    <path d="M 411.85223388671875 304.57550048828125 C 412.4581604003906 307.53216552734375 411.017333984375 308.40447998046875 414.6139831542969 308.5989990234375 C 416.7398986816406 307.88348388671875 418.4927978515625 308.6521301269531 419.4052734375 307.24896240234375 C 417.72747802734375 304.04913330078125 416.3729248046875 302.3004455566406 411.85223388671875 304.57550048828125" stroke-width="0.0" fill="rgb(95, 112, 141)" opacity="1.0004056" stroke="rgb(0, 0, 0)" stroke-opacity="1.0" stroke-linecap="round" stroke-linejoin="round"/>
    <path d="M 195.72317504882812 400.3904724121094 C 197.73818969726562 411.3772277832031 198.27352905273438 419.71685791015625 199.21717834472656 426.5203552246094 C 209.56414794921875 427.5973815917969 219.91104125976562 427.7972717285156 228.33448791503906 424.6185302734375 C 228.13697814941406 417.48040771484375 227.90142822265625 408.25494384765625 227.9561767578125 397.8642883300781 C 217.29026794433594 400.9702453613281 206.95953369140625 399.9483642578125 195.72317504882812 400.3904724121094" stroke-width="0.0" fill="rgb(55, 57, 79)" opacity="0.99419874" stroke="rgb(0, 0, 0)" stroke-opacity="1.0" stroke-linecap="round" stroke-linejoin="round"/>
    <path d="M 225.72079467773438 358.47320556640625 C 213.34152221679688 348.09246826171875 209.421142578125 353.5264587402344 198.73251342773438 359.51837158203125 C 194.2824249267578 372.6509704589844 193.3654022216797 388.3828125 194.83567810058594 409.8332824707031 C 198.75279235839844 406.2313537597656 200.14996337890625 400.5401611328125 203.8671875 399.3468322753906 C 209.46603393554688 399.2757263183594 219.02503967285156 398.2001647949219 227.16465759277344 400.87091064453125 C 228.6168670654297 379.46044921875 232.69700622558594 366.95428466796875 225.72079467773438 358.47320556640625" stroke-width="0.0" fill="rgb(87, 77, 84)" opacity="0.9611811" stroke="rgb(0, 0, 0)" stroke-opacity="1.0" stroke-linecap="round" stroke-linejoin="round"/>
  </g>
</svg>
