<?xml version="1.0" ?>
<svg xmlns="http://www.w3.org/2000/svg" version="1.1" width="512" height="512">
  <defs/>
  <g>
    <path d="M -3.03617262840271 -3.4774930477142334 C -2.146894693374634 170.3333282470703 -0.9030858874320984 340.6666564941406 -0.36143264174461365 516.58544921875 C 169.91104125976562 517.0975341796875 339.94293212890625 517.8612670898438 517.11083984375 518.56005859375 C 517.4932861328125 341.25286865234375 517.6839599609375 170.6485137939453 517.8396606445312 -3.104278802871704 C 340.6666564941406 -3.466726064682007 170.3333282470703 -3.5327277183532715 -3.03617262840271 -3.4774930477142334" stroke-width="0.0" fill="rgb(202, 221, 205)" opacity="0.83571357" stroke="rgb(0, 0, 0)" stroke-opacity="1.0" stroke-linecap="round" stroke-linejoin="round"/>
    <path d="M -5.0205206871032715 229.83387756347656 C -5.227223873138428 325.0367736816406 -5.399331092834473 418.0876770019531 -5.419463634490967 519.0238647460938 C 170.64256286621094 519.0588989257812 341.1995544433594 518.9408569335938 517.574462890625 518.560302734375 C 518.0305786132812 426.0175476074219 518.9808959960938 341.15704345703125 518.9232788085938 262.9846496582031 C 426.9365234375 257.4044494628906 335.5447998046875 258.51141357421875 244.81280517578125 255.5037078857422 C 201.53819274902344 249.1971893310547 160.0869598388672 237.3293914794922 111.4709243774414 232.13800048828125 C 74.70767974853516 229.77847290039062 35.01964569091797 232.0648956298828 -5.0205206871032715 229.83387756347656" stroke-width="0.0" fill="rgb(122, 141, 159)" opacity="0.9878964" stroke="rgb(0, 0, 0)" stroke-opacity="1.0" stroke-linecap="round" stroke-linejoin="round"/>
    <path d="M -3.4785876274108887 212.77247619628906 C -3.1357386112213135 217.40476989746094 -4.154734134674072 223.45249938964844 -2.0960276126861572 228.98573303222656 C 23.94301986694336 223.08843994140625 39.33837127685547 235.1647491455078 53.50090789794922 224.2332763671875 C 39.19663619995117 217.07098388671875 17.887937545776367 213.74905395507812 -3.4785876274108887 212.77247619628906" stroke-width="0.0" fill="rgb(172, 192, 191)" opacity="0.9989232" stroke="rgb(0, 0, 0)" stroke-opacity="1.0" stroke-linecap="round" stroke-linejoin="round"/>
    <path d="M 239.5192108154297 334.32196044921875 C 231.97080993652344 342.1885070800781 220.8658905029297 343.26190185546875 214.7201690673828 337.2719421386719 C 195.15330505371094 363.7117919921875 196.59783935546875 383.1039123535156 192.28160095214844 402.8362121582031 C 166.24746704101562 438.60772705078125 145.85862731933594 476.35699462890625 118.42111206054688 516.7703247070312 C 182.51199340820312 519.6453247070312 250.95132446289062 519.5802001953125 311.7588806152344 517.9442749023438 C 293.1794738769531 475.6573791503906 275.36285400390625 441.5480651855469 252.6364288330078 408.864990234375 C 254.41986083984375 398.64910888671875 254.86204528808594 383.42218017578125 251.33547973632812 368.4054260253906 C 250.45843505859375 358.397705078125 241.9692840576172 352.6125183105469 238.11488342285156 346.8414306640625 C 242.3275146484375 347.0944519042969 241.33840942382812 341.59210205078125 239.5192108154297 334.32196044921875" stroke-width="0.0" fill="rgb(173, 180, 182)" opacity="1.0715445" stroke="rgb(0, 0, 0)" stroke-opacity="1.0" stroke-linecap="round" stroke-linejoin="round"/>
    <path d="M 244.04144287109375 336.97650146484375 C 241.44537353515625 339.5042419433594 238.47848510742188 343.98785400390625 234.97923278808594 347.4754943847656 C 242.9818115234375 354.4279479980469 241.98495483398438 356.5281066894531 246.51083374023438 348.89556884765625 C 249.6637420654297 344.0128173828125 250.47337341308594 340.3556213378906 244.04144287109375 336.97650146484375" stroke-width="0.0" fill="rgb(173, 182, 182)" opacity="1.000089" stroke="rgb(0, 0, 0)" stroke-opacity="1.0" stroke-linecap="round" stroke-linejoin="round"/>
    <path d="M 223.5142822265625 310.2025146484375 C 227.07456970214844 314.9278564453125 227.78392028808594 319.5035095214844 234.8258514404297 315.6955871582031 C 232.8932342529297 318.1790771484375 235.39208984375 323.02130126953125 235.57949829101562 327.6376037597656 C 242.66476440429688 320.30084228515625 247.75274658203125 314.9933776855469 263.5475158691406 315.41046142578125 C 250.49803161621094 312.2802429199219 245.27474975585938 314.0440368652344 243.6467742919922 313.6808166503906 C 277.7655944824219 308.9030456542969 286.5916442871094 314.96649169921875 300.7138366699219 316.3262634277344 C 305.03424072265625 323.8551025390625 301.6358337402344 321.4552001953125 292.5746154785156 321.7808532714844 C 297.297119140625 322.57415771484375 295.5609130859375 325.3487243652344 293.8343505859375 329.0301513671875 C 285.124267578125 330.2314453125 261.3551025390625 329.73095703125 250.4642791748047 331.0577392578125 C 246.82333374023438 345.0138854980469 258.38177490234375 346.814453125 257.60498046875 359.93963623046875 C 259.18505859375 377.4469909667969 260.3323974609375 396.61083984375 257.366455078125 416.8703308105469 C 278.81475830078125 444.440673828125 295.1605224609375 478.447265625 311.4881896972656 517.7936401367188 C 375.3258972167969 519.2646484375 442.94915771484375 517.689453125 517.6109008789062 517.41552734375 C 517.691650390625 444.0503845214844 517.72900390625 377.0368957519531 517.94677734375 310.2383728027344 C 414.6076965332031 308.4508972167969 319.5231628417969 310.1002502441406 223.5142822265625 310.2025146484375" stroke-width="0.0" fill="rgb(124, 143, 161)" opacity="0.9998917" stroke="rgb(0, 0, 0)" stroke-opacity="1.0" stroke-linecap="round" stroke-linejoin="round"/>
    <path d="M -6.402449607849121 304.4521179199219 C -7.290097713470459 369.1636657714844 -7.0692057609558105 438.569091796875 -6.593468189239502 517.3836059570312 C 39.603858947753906 517.6203002929688 79.69363403320312 517.6583251953125 119.1562271118164 513.1770629882812 C 144.11134338378906 475.6747131347656 167.43531799316406 438.9541931152344 191.0666046142578 401.7679138183594 C 195.41131591796875 393.4414978027344 184.83236694335938 391.70025634765625 188.37940979003906 379.58319091796875 C 193.22731018066406 371.95989990234375 196.38873291015625 363.1880187988281 202.40818786621094 351.1387023925781 C 196.3804168701172 350.6605224609375 199.4625701904297 346.28985595703125 199.27049255371094 342.8150634765625 C 201.16282653808594 338.7283630371094 207.44558715820312 339.4092712402344 206.46365356445312 339.7231140136719 C 205.7793731689453 330.9332275390625 210.5918426513672 328.15704345703125 207.71380615234375 318.7839660644531 C 188.43649291992188 317.1108093261719 170.6548309326172 317.66278076171875 159.71665954589844 318.98040771484375 C 150.24830627441406 319.0359191894531 148.27493286132812 317.8313903808594 148.62925720214844 311.0103454589844 C 150.83935546875 308.57269287109375 156.31857299804688 311.4438171386719 155.59938049316406 307.0953674316406 C 104.11906433105469 305.7524719238281 52.51096725463867 305.76507568359375 -6.402449607849121 304.4521179199219" stroke-width="0.0" fill="rgb(122, 140, 157)" opacity="1.001324" stroke="rgb(0, 0, 0)" stroke-opacity="1.0" stroke-linecap="round" stroke-linejoin="round"/>
    <path d="M -6.2985687255859375 226.68214416503906 C -6.3872904777526855 255.32537841796875 -6.410728931427002 279.2832336425781 -3.4395062923431396 302.0603942871094 C 71.40496063232422 303.1596984863281 142.37062072753906 304.2883605957031 217.0800323486328 304.1223449707031 C 224.054443359375 302.7779235839844 226.58033752441406 301.97491455078125 227.970458984375 296.14752197265625 C 227.6006317138672 292.7843933105469 228.0877227783203 284.1951599121094 225.3627471923828 284.3867492675781 C 210.22084045410156 275.40850830078125 193.70774841308594 268.71832275390625 180.71278381347656 258.2500915527344 C 184.32371520996094 257.5935974121094 187.5665283203125 255.1714630126953 194.46351623535156 253.0684051513672 C 187.4639129638672 252.19151306152344 182.57196044921875 253.17376708984375 181.67515563964844 250.8532257080078 C 189.66375732421875 249.50657653808594 197.1598663330078 249.13958740234375 204.2122344970703 247.8094024658203 C 174.2824249267578 233.42518615722656 133.5426025390625 236.02951049804688 97.62474060058594 225.5522918701172 C 65.7859878540039 224.02383422851562 39.13725662231445 235.3341064453125 -6.2985687255859375 226.68214416503906" stroke-width="0.0" fill="rgb(78, 96, 126)" opacity="1.0177845" stroke="rgb(0, 0, 0)" stroke-opacity="1.0" stroke-linecap="round" stroke-linejoin="round"/>
    <path d="M 268.5032653808594 280.49298095703125 C 263.3578186035156 278.88702392578125 267.2304992675781 285.4139709472656 265.5132751464844 294.1954040527344 C 272.283447265625 297.4232482910156 268.3478088378906 302.9465637207031 282.2731018066406 304.84954833984375 C 354.4010925292969 307.239013671875 430.71990966796875 307.5741271972656 516.5977783203125 306.6566467285156 C 518.6282348632812 295.0789794921875 518.8963012695312 278.6225891113281 517.748046875 269.9388427734375 C 493.9966735839844 269.0232238769531 486.3150939941406 256.0101623535156 470.84515380859375 256.98931884765625 C 412.54327392578125 258.1883544921875 356.8160400390625 257.5866394042969 306.6434631347656 253.5687255859375 C 286.7840270996094 260.3866271972656 271.9997863769531 266.0203552246094 268.5032653808594 280.49298095703125" stroke-width="0.0" fill="rgb(96, 114, 143)" opacity="0.97038627" stroke="rgb(0, 0, 0)" stroke-opacity="1.0" stroke-linecap="round" stroke-linejoin="round"/>
    <path d="M 247.97898864746094 259.0737609863281 C 256.6458740234375 262.2199401855469 263.64459228515625 267.4673767089844 270.3039855957031 271.1435852050781 C 281.3460998535156 266.0704650878906 287.044189453125 262.5079040527344 291.4844055175781 257.63653564453125 C 275.9265441894531 251.11549377441406 267.1840515136719 254.3154754638672 247.97898864746094 259.0737609863281" stroke-width="0.0" fill="rgb(150, 178, 185)" opacity="1.007034" stroke="rgb(0, 0, 0)" stroke-opacity="1.0" stroke-linecap="round" stroke-linejoin="round"/>
    <path d="M 228.15036010742188 340.05560302734375 C 223.23619079589844 341.98150634765625 232.80130004882812 337.7516784667969 242.90560913085938 339.588623046875 C 245.5677490234375 337.1899108886719 244.3832550048828 332.31231689453125 244.20701599121094 330.46343994140625 C 233.92893981933594 327.00732421875 229.97457885742188 325.2255859375 228.15036010742188 340.05560302734375" stroke-width="0.0" fill="rgb(98, 98, 111)" opacity="0.9854308" stroke="rgb(0, 0, 0)" stroke-opacity="1.0" stroke-linecap="round" stroke-linejoin="round"/>
    <path d="M 257.7955017089844 388.12835693359375 C 254.9119873046875 388.2501220703125 256.405517578125 394.05712890625 255.36524963378906 400.1518859863281 C 258.8302307128906 399.808349609375 261.907958984375 401.73431396484375 261.80279541015625 401.3760986328125 C 260.5185852050781 396.9942626953125 263.4942321777344 389.11553955078125 257.7955017089844 388.12835693359375" stroke-width="0.0" fill="rgb(66, 72, 85)" opacity="1.005372" stroke="rgb(0, 0, 0)" stroke-opacity="1.0" stroke-linecap="round" stroke-linejoin="round"/>
    <path d="M 231.9655303955078 332.04461669921875 C 227.9799346923828 333.49493408203125 232.65396118164062 341.5984802246094 222.40609741210938 342.9026794433594 C 217.34591674804688 341.40167236328125 212.5819854736328 333.5897216796875 210.401123046875 339.7005615234375 C 199.65528869628906 360.87799072265625 193.98988342285156 379.5484619140625 193.247314453125 405.12786865234375 C 193.3244171142578 413.7303161621094 196.52365112304688 420.2666015625 202.0156707763672 424.8265686035156 C 211.412109375 430.8074035644531 226.8679656982422 430.7439880371094 242.66905212402344 433.3570556640625 C 250.0250244140625 432.789794921875 249.72157287597656 426.10418701171875 251.13389587402344 419.2213134765625 C 253.24017333984375 409.9372863769531 253.1315155029297 393.8744201660156 252.9985809326172 379.37664794921875 C 252.30064392089844 370.2716979980469 249.57237243652344 363.5877685546875 245.2281494140625 357.35382080078125 C 241.3109588623047 353.78839111328125 235.71511840820312 350.9603271484375 234.48455810546875 347.59417724609375 C 236.34719848632812 345.5228576660156 239.420654296875 343.173095703125 241.03265380859375 338.91534423828125 C 239.78274536132812 331.61334228515625 237.71774291992188 331.257080078125 231.9655303955078 332.04461669921875" stroke-width="0.0" fill="rgb(126, 129, 141)" opacity="0.8706691" stroke="rgb(0, 0, 0)" stroke-opacity="1.0" stroke-linecap="round" stroke-linejoin="round"/>
    <path d="M 140.953857421875 482.8020935058594 C 133.2274627685547 493.96649169921875 126.14066314697266 501.36798095703125 120.90084075927734 516.6668090820312 C 130.65196228027344 518.3474731445312 135.5681915283203 517.7957763671875 136.72312927246094 512.5849609375 C 140.7771453857422 502.9087829589844 143.178466796875 497.2998962402344 140.953857421875 482.8020935058594" stroke-width="0.0" fill="rgb(176, 183, 185)" opacity="0.99731094" stroke="rgb(0, 0, 0)" stroke-opacity="1.0" stroke-linecap="round" stroke-linejoin="round"/>
    <path d="M 182.5974884033203 418.3764343261719 C 177.24444580078125 422.1565856933594 173.31234741210938 428.22808837890625 170.0688934326172 435.5832824707031 C 180.4012451171875 437.3287353515625 182.0999755859375 432.4677429199219 184.5003204345703 426.2769470214844 C 185.59130859375 423.02288818359375 185.17811584472656 420.13397216796875 182.5974884033203 418.3764343261719" stroke-width="0.0" fill="rgb(170, 177, 179)" opacity="0.9981884" stroke="rgb(0, 0, 0)" stroke-opacity="1.0" stroke-linecap="round" stroke-linejoin="round"/>
    <path d="M 255.3889617919922 412.8143005371094 C 252.6505584716797 437.43719482421875 250.91851806640625 454.9989013671875 243.30517578125 472.048583984375 C 240.94935607910156 485.97601318359375 245.20541381835938 498.05718994140625 248.61474609375 517.7147216796875 C 271.8088684082031 518.6908569335938 295.3812255859375 521.1998901367188 312.09320068359375 513.5501708984375 C 293.74237060546875 476.95751953125 275.5724792480469 445.7365417480469 255.3889617919922 412.8143005371094" stroke-width="0.0" fill="rgb(171, 177, 179)" opacity="1.0079044" stroke="rgb(0, 0, 0)" stroke-opacity="1.0" stroke-linecap="round" stroke-linejoin="round"/>
    <path d="M 231.4166259765625 426.903076171875 C 228.44680786132812 429.1585998535156 222.64476013183594 428.1767272949219 219.68359375 428.77239990234375 C 217.3540496826172 435.0465087890625 218.16485595703125 443.3531188964844 215.35250854492188 446.2060241699219 C 211.42942810058594 446.31488037109375 204.1291046142578 446.8740234375 203.24951171875 447.2771301269531 C 196.0083465576172 466.63037109375 191.32614135742188 488.6845397949219 185.36080932617188 516.906005859375 C 204.24110412597656 519.6422729492188 230.22142028808594 519.340576171875 247.48313903808594 517.7714233398438 C 246.07130432128906 479.22503662109375 239.19888305664062 453.0227966308594 231.4166259765625 426.903076171875" stroke-width="0.0" fill="rgb(138, 144, 155)" opacity="1.0323752" stroke="rgb(0, 0, 0)" stroke-opacity="1.0" stroke-linecap="round" stroke-linejoin="round"/>
    <path d="M 194.8708953857422 421.0773010253906 C 189.54342651367188 420.1756591796875 185.40284729003906 423.41302490234375 183.9276580810547 424.858642578125 C 184.48486328125 436.529541015625 182.47659301757812 449.2371520996094 183.33863830566406 461.38079833984375 C 191.3127899169922 453.926513671875 187.92739868164062 450.2372131347656 194.2281494140625 459.75262451171875 C 197.93275451660156 439.9671630859375 199.28033447265625 431.20098876953125 194.8708953857422 421.0773010253906" stroke-width="0.0" fill="rgb(94, 93, 99)" opacity="0.92061454" stroke="rgb(0, 0, 0)" stroke-opacity="1.0" stroke-linecap="round" stroke-linejoin="round"/>
    <path d="M 478.6713562011719 518.6578979492188 C 486.1368713378906 519.5732421875 495.8869323730469 519.8026123046875 516.2649536132812 519.681884765625 C 518.0155029296875 509.4438171386719 517.129150390625 503.9087219238281 515.9283447265625 498.5766296386719 C 504.14593505859375 499.01556396484375 496.07867431640625 499.74908447265625 488.6117858886719 499.6728820800781 C 488.04473876953125 503.38421630859375 486.21832275390625 507.1075439453125 478.6713562011719 518.6578979492188" stroke-width="0.0" fill="rgb(67, 70, 90)" opacity="1.0517222" stroke="rgb(0, 0, 0)" stroke-opacity="1.0" stroke-linecap="round" stroke-linejoin="round"/>
    <path d="M 200.81561279296875 425.92681884765625 C 203.5841064453125 432.5390930175781 199.00315856933594 440.8826904296875 204.51683044433594 445.5375061035156 C 211.86373901367188 444.3142395019531 208.83387756347656 435.90301513671875 210.1507110595703 429.8968505859375 C 213.12400817871094 435.7593688964844 210.34765625 444.9008483886719 213.40036010742188 445.13525390625 C 220.21173095703125 442.9009704589844 214.96644592285156 435.2109375 218.67283630371094 428.3049621582031 C 212.8386688232422 427.54400634765625 206.18704223632812 426.07342529296875 200.81561279296875 425.92681884765625" stroke-width="0.0" fill="rgb(116, 104, 114)" opacity="0.9694318" stroke="rgb(0, 0, 0)" stroke-opacity="1.0" stroke-linecap="round" stroke-linejoin="round"/>
    <path d="M -3.3992302417755127 252.13121032714844 C -3.5529980659484863 270.8992919921875 -4.949889659881592 286.2476501464844 -5.9541168212890625 300.89788818359375 C 84.20384216308594 303.51171875 168.87374877929688 303.72967529296875 244.05514526367188 301.6673278808594 C 231.92568969726562 280.5353088378906 213.57745361328125 271.581787109375 190.65689086914062 268.5411376953125 C 165.4700927734375 261.5545349121094 144.13824462890625 251.4247283935547 115.41767883300781 247.68653869628906 C 75.10466003417969 247.72747802734375 34.425376892089844 247.51194763183594 -3.3992302417755127 252.13121032714844" stroke-width="0.0" fill="rgb(81, 103, 134)" opacity="0.96576446" stroke="rgb(0, 0, 0)" stroke-opacity="1.0" stroke-linecap="round" stroke-linejoin="round"/>
    <path d="M 341.3818054199219 264.0339050292969 C 347.1423645019531 270.0419006347656 352.8020324707031 279.2690124511719 357.59539794921875 289.3071594238281 C 370.525634765625 288.9085388183594 386.9267578125 289.68511962890625 402.19525146484375 289.78759765625 C 411.07318115234375 295.1376647949219 420.05242919921875 300.853271484375 427.05975341796875 306.6582946777344 C 455.4329833984375 307.9364318847656 484.2530212402344 306.6110534667969 517.2622680664062 307.7154541015625 C 517.5540161132812 291.66741943359375 518.8401489257812 277.3094482421875 517.3385009765625 267.4034729003906 C 495.6999816894531 271.3115234375 491.53912353515625 259.06146240234375 476.6091613769531 256.04364013671875 C 438.8045349121094 253.07264709472656 403.38604736328125 260.6394958496094 378.5990905761719 253.15191650390625 C 360.6819152832031 256.2867736816406 349.7792663574219 256.9114074707031 341.3818054199219 264.0339050292969" stroke-width="0.0" fill="rgb(100, 127, 156)" opacity="0.9423587" stroke="rgb(0, 0, 0)" stroke-opacity="1.0" stroke-linecap="round" stroke-linejoin="round"/>
    <path d="M 3.9786136150360107 226.8218536376953 C -5.18176794052124 235.29920959472656 -4.358469486236572 244.8326873779297 -5.000545978546143 255.46949768066406 C 37.66434097290039 250.91763305664062 74.83833312988281 245.57765197753906 107.7762451171875 247.58706665039062 C 155.23716735839844 255.4901123046875 192.2637176513672 266.4452819824219 225.65438842773438 284.4084777832031 C 238.95362854003906 279.4767150878906 248.91690063476562 276.3629455566406 265.2624816894531 276.2403564453125 C 272.1623840332031 269.300537109375 283.8227844238281 268.4283447265625 289.49871826171875 260.1427001953125 C 276.8370666503906 254.39076232910156 268.9087829589844 264.08380126953125 258.9329833984375 261.40106201171875 C 228.11138916015625 250.5153350830078 198.6707763671875 241.2082061767578 160.93988037109375 233.5886688232422 C 138.2069854736328 231.86732482910156 116.27586364746094 232.71066284179688 91.4047622680664 222.6788787841797 C 61.095909118652344 223.32489013671875 43.95465087890625 235.0496063232422 3.9786136150360107 226.8218536376953" stroke-width="0.0" fill="rgb(117, 146, 169)" opacity="0.8599535" stroke="rgb(0, 0, 0)" stroke-opacity="1.0" stroke-linecap="round" stroke-linejoin="round"/>
    <path d="M 377.20147705078125 295.658447265625 C 378.08984375 299.4631042480469 380.9315185546875 302.5592346191406 379.89044189453125 306.6025390625 C 397.6347961425781 307.7960510253906 413.0102844238281 309.3432312011719 426.1559753417969 306.4425354003906 C 419.23236083984375 297.54742431640625 410.4444885253906 292.71826171875 401.6357116699219 289.1559143066406 C 391.708251953125 289.5014953613281 385.8029479980469 293.1981201171875 377.20147705078125 295.658447265625" stroke-width="0.0" fill="rgb(78, 95, 127)" opacity="0.9992618" stroke="rgb(0, 0, 0)" stroke-opacity="1.0" stroke-linecap="round" stroke-linejoin="round"/>
    <path d="M 139.474365234375 488.62677001953125 C 155.0375518798828 486.47723388671875 172.9119873046875 487.5194396972656 190.8131103515625 487.34454345703125 C 192.2823486328125 485.80743408203125 194.38291931152344 480.4363708496094 191.94235229492188 474.489013671875 C 176.57620239257812 474.95220947265625 159.49847412109375 476.028564453125 146.6518096923828 473.1755676269531 C 142.92047119140625 477.9012145996094 139.85684204101562 483.13092041015625 139.474365234375 488.62677001953125" stroke-width="0.0" fill="rgb(191, 202, 195)" opacity="0.99717665" stroke="rgb(0, 0, 0)" stroke-opacity="1.0" stroke-linecap="round" stroke-linejoin="round"/>
    <path d="M 357.90509033203125 288.6261291503906 C 357.6012878417969 286.00225830078125 354.6685791015625 282.088623046875 351.85211181640625 279.7945556640625 C 346.6773986816406 260.4326171875 329.2628173828125 255.39260864257812 308.3096923828125 248.41712951660156 C 294.7015686035156 257.2707824707031 283.19537353515625 269.7997741699219 261.1942443847656 278.33197021484375 C 253.34500122070312 277.49066162109375 240.53302001953125 279.5784606933594 223.39627075195312 284.4462585449219 C 241.4202880859375 292.79278564453125 257.277587890625 297.6248474121094 272.1599426269531 300.03753662109375 C 301.24676513671875 299.7538146972656 326.60308837890625 297.2144470214844 351.13311767578125 294.8906555175781 C 360.9834289550781 292.4588928222656 366.5068359375 291.55731201171875 357.90509033203125 288.6261291503906" stroke-width="0.0" fill="rgb(105, 132, 159)" opacity="0.9934621" stroke="rgb(0, 0, 0)" stroke-opacity="1.0" stroke-linecap="round" stroke-linejoin="round"/>
    <path d="M -1.5876078605651855 494.8478698730469 C -2.0132665634155273 501.1729736328125 -3.7060608863830566 506.6286926269531 -3.9073729515075684 519.5853881835938 C 42.603878021240234 519.3177490234375 81.79136657714844 518.977783203125 125.0573959350586 512.53662109375 C 91.90199279785156 507.1657409667969 78.20984649658203 493.1705322265625 52.45624542236328 490.5436096191406 C 36.5069465637207 491.4675598144531 16.316387176513672 493.03289794921875 -1.5876078605651855 494.8478698730469" stroke-width="0.0" fill="rgb(72, 81, 101)" opacity="0.9994691" stroke="rgb(0, 0, 0)" stroke-opacity="1.0" stroke-linecap="round" stroke-linejoin="round"/>
    <path d="M 486.5675964355469 503.15289306640625 C 452.9178771972656 501.9515075683594 422.541015625 504.1026916503906 391.6668395996094 503.67767333984375 C 384.403076171875 506.2691955566406 378.4159851074219 505.05303955078125 375.3286437988281 516.8793334960938 C 408.6561279296875 519.0151977539062 445.3000183105469 518.03271484375 481.59375 517.67236328125 C 483.53619384765625 510.4559020996094 485.42529296875 508.45147705078125 486.5675964355469 503.15289306640625" stroke-width="0.0" fill="rgb(70, 73, 89)" opacity="0.9962651" stroke="rgb(0, 0, 0)" stroke-opacity="1.0" stroke-linecap="round" stroke-linejoin="round"/>
    <path d="M 255.6830291748047 388.1148681640625 C 254.76136779785156 402.9186706542969 256.9983215332031 420.5426940917969 253.28744506835938 426.1896057128906 C 266.9102783203125 422.2414245605469 269.55267333984375 422.4532165527344 267.9515380859375 417.7921447753906 C 263.4465026855469 400.8854064941406 268.57952880859375 389.2195129394531 255.6830291748047 388.1148681640625" stroke-width="0.0" fill="rgb(100, 112, 125)" opacity="0.93736213" stroke="rgb(0, 0, 0)" stroke-opacity="1.0" stroke-linecap="round" stroke-linejoin="round"/>
    <path d="M 16.614816665649414 406.4869384765625 C 8.879382133483887 402.8746643066406 6.529009819030762 409.3752746582031 -2.9123594760894775 409.2762451171875 C -4.677446365356445 414.7408752441406 -7.718926906585693 419.40179443359375 -0.09785854816436768 416.85565185546875 C 9.198928833007812 415.8681640625 15.357447624206543 414.8567199707031 16.614816665649414 406.4869384765625" stroke-width="0.0" fill="rgb(77, 92, 113)" opacity="0.99996114" stroke="rgb(0, 0, 0)" stroke-opacity="1.0" stroke-linecap="round" stroke-linejoin="round"/>
    <path d="M -8.673989295959473 329.295166015625 C -4.555363178253174 335.07257080078125 -4.382748126983643 333.6369934082031 -2.8515126705169678 332.4437255859375 C 9.239864349365234 330.3676452636719 16.046356201171875 332.007568359375 18.78669548034668 330.40301513671875 C 16.39961814880371 324.9270324707031 7.654899597167969 329.8050537109375 -8.673989295959473 329.295166015625" stroke-width="0.0" fill="rgb(107, 124, 140)" opacity="0.9993949" stroke="rgb(0, 0, 0)" stroke-opacity="1.0" stroke-linecap="round" stroke-linejoin="round"/>
    <path d="M 237.4492950439453 331.6201477050781 C 233.86761474609375 329.8369140625 232.08554077148438 332.1322326660156 228.69020080566406 333.878173828125 C 227.60960388183594 339.2608337402344 228.62728881835938 344.5565185546875 231.3811492919922 346.20855712890625 C 238.2957000732422 348.2675476074219 241.1924591064453 344.322021484375 240.43408203125 342.8558654785156 C 241.51083374023438 333.22796630859375 240.34251403808594 332.9815673828125 237.4492950439453 331.6201477050781" stroke-width="0.0" fill="rgb(92, 83, 95)" opacity="0.9955942" stroke="rgb(0, 0, 0)" stroke-opacity="1.0" stroke-linecap="round" stroke-linejoin="round"/>
    <path d="M 220.47354125976562 341.7206115722656 C 218.50360107421875 337.44287109375 215.2466583251953 337.42279052734375 211.46923828125 337.5581359863281 C 208.334716796875 341.3080139160156 205.82752990722656 343.7779541015625 206.58364868164062 349.2366638183594 C 207.80128479003906 352.09478759765625 214.63412475585938 350.7596130371094 217.2574005126953 349.3970947265625 C 219.25497436523438 347.7997741699219 220.0413360595703 345.62554931640625 220.47354125976562 341.7206115722656" stroke-width="0.0" fill="rgb(56, 56, 65)" opacity="1.0022806" stroke="rgb(0, 0, 0)" stroke-opacity="1.0" stroke-linecap="round" stroke-linejoin="round"/>
    <path d="M 231.5208282470703 380.5068359375 C 233.20309448242188 398.56512451171875 234.94976806640625 418.6822814941406 235.61065673828125 438.5360412597656 C 238.18789672851562 445.4367370605469 239.98553466796875 452.0837707519531 250.15396118164062 447.29498291015625 C 252.88604736328125 430.23504638671875 254.0153045654297 407.33099365234375 255.1224822998047 382.160400390625 C 251.89739990234375 379.7858581542969 242.42453002929688 382.29351806640625 231.5208282470703 380.5068359375" stroke-width="0.0" fill="rgb(82, 94, 110)" opacity="0.9838264" stroke="rgb(0, 0, 0)" stroke-opacity="1.0" stroke-linecap="round" stroke-linejoin="round"/>
    <path d="M 244.58229064941406 339.4729309082031 C 237.12171936035156 344.40386962890625 230.86410522460938 347.95574951171875 228.44924926757812 352.9247131347656 C 226.9392547607422 364.6932373046875 225.9579620361328 374.1197204589844 231.73223876953125 382.2598571777344 C 238.24063110351562 379.03973388671875 247.6464385986328 381.1673278808594 255.92526245117188 379.6700134277344 C 257.09576416015625 360.2247009277344 253.8652801513672 347.5369873046875 244.58229064941406 339.4729309082031" stroke-width="0.0" fill="rgb(140, 145, 154)" opacity="0.91244894" stroke="rgb(0, 0, 0)" stroke-opacity="1.0" stroke-linecap="round" stroke-linejoin="round"/>
    <path d="M 217.58816528320312 354.3461608886719 C 210.14845275878906 353.9465026855469 205.18582153320312 353.5149230957031 202.7088623046875 356.90863037109375 C 199.40960693359375 358.8104553222656 197.78944396972656 364.28619384765625 196.38180541992188 370.260986328125 C 193.93214416503906 381.29290771484375 192.89097595214844 392.4761047363281 194.25547790527344 407.2803039550781 C 199.433837890625 410.42913818359375 195.7101593017578 422.0108337402344 201.41127014160156 427.1239013671875 C 211.47604370117188 427.033935546875 221.04739379882812 428.3186950683594 228.33937072753906 425.1299133300781 C 228.45474243164062 405.9495544433594 228.21343994140625 386.4611511230469 228.95932006835938 366.894287109375 C 225.6532745361328 358.6513977050781 224.188720703125 353.0066833496094 217.58816528320312 354.3461608886719" stroke-width="0.0" fill="rgb(84, 79, 90)" opacity="0.9817592" stroke="rgb(0, 0, 0)" stroke-opacity="1.0" stroke-linecap="round" stroke-linejoin="round"/>
    <path d="M 0.21960827708244324 229.0238494873047 C -6.355777263641357 233.46136474609375 -5.289492607116699 246.2303466796875 -3.4754638671875 256.538330078125 C 20.7536678314209 254.88052368164062 37.74070739746094 250.09461975097656 58.137203216552734 248.84080505371094 C 54.875701904296875 241.8878631591797 53.739906311035156 235.87850952148438 51.659610748291016 236.0375518798828 C 32.71149444580078 232.71749877929688 20.451745986938477 223.62281799316406 0.21960827708244324 229.0238494873047" stroke-width="0.0" fill="rgb(87, 112, 144)" opacity="0.9892074" stroke="rgb(0, 0, 0)" stroke-opacity="1.0" stroke-linecap="round" stroke-linejoin="round"/>
    <path d="M 486.7930603027344 500.5431213378906 C 485.0615539550781 502.4947814941406 485.18341064453125 508.10211181640625 483.01416015625 517.0789794921875 C 491.28826904296875 516.9013061523438 498.008544921875 518.1079711914062 503.8960266113281 517.231201171875 C 501.45068359375 505.7445983886719 502.3375549316406 498.8294372558594 502.1455383300781 497.74200439453125 C 493.0426025390625 497.2323303222656 488.56829833984375 496.94378662109375 486.7930603027344 500.5431213378906" stroke-width="0.0" fill="rgb(104, 107, 131)" opacity="0.99545944" stroke="rgb(0, 0, 0)" stroke-opacity="1.0" stroke-linecap="round" stroke-linejoin="round"/>
    <path d="M 52.78736877441406 294.67291259765625 C 52.147090911865234 301.32171630859375 53.13056945800781 299.860595703125 58.825801849365234 301.18304443359375 C 62.136817932128906 298.7583312988281 70.3826675415039 301.761474609375 69.54606628417969 296.5682067871094 C 69.2461166381836 294.1712646484375 59.61037826538086 295.132568359375 52.78736877441406 294.67291259765625" stroke-width="0.0" fill="rgb(94, 107, 134)" opacity="0.99986583" stroke="rgb(0, 0, 0)" stroke-opacity="1.0" stroke-linecap="round" stroke-linejoin="round"/>
    <path d="M 264.1792907714844 277.00689697265625 C 272.4484558105469 283.4409484863281 285.18011474609375 281.2353210449219 297.6956787109375 285.91265869140625 C 298.0475769042969 282.27685546875 296.7703857421875 286.323974609375 300.2331848144531 296.66644287109375 C 326.42669677734375 299.4324035644531 346.2345275878906 294.868408203125 365.43646240234375 285.8185119628906 C 363.927978515625 277.7045593261719 359.9075012207031 275.16888427734375 355.2038879394531 271.3316955566406 C 341.9941711425781 263.4175109863281 329.95477294921875 255.24578857421875 308.721923828125 248.68362426757812 C 295.9725341796875 255.02459716796875 284.7616882324219 269.4725341796875 264.1792907714844 277.00689697265625" stroke-width="0.0" fill="rgb(103, 130, 158)" opacity="0.99655366" stroke="rgb(0, 0, 0)" stroke-opacity="1.0" stroke-linecap="round" stroke-linejoin="round"/>
    <path d="M 238.67086791992188 453.1201477050781 C 231.79164123535156 452.7019958496094 229.6298065185547 451.2087097167969 226.48800659179688 446.2557373046875 C 218.26316833496094 451.6985168457031 220.60113525390625 454.3244934082031 210.7445068359375 450.7970886230469 C 200.42620849609375 454.94287109375 198.24072265625 455.81536865234375 197.3737335205078 466.6233825683594 C 206.700927734375 465.9407043457031 224.14222717285156 465.8262023925781 234.9278106689453 466.33056640625 C 238.7010040283203 462.310791015625 240.5218505859375 459.4501953125 238.67086791992188 453.1201477050781" stroke-width="0.0" fill="rgb(116, 121, 135)" opacity="1.0006288" stroke="rgb(0, 0, 0)" stroke-opacity="1.0" stroke-linecap="round" stroke-linejoin="round"/>
    <path d="M 188.22718811035156 421.36236572265625 C 180.3462371826172 426.1376037597656 181.9354248046875 431.9407043457031 187.6234893798828 451.0841064453125 C 179.87559509277344 453.0141906738281 185.5151824951172 450.80963134765625 193.97927856445312 447.4430847167969 C 197.4442596435547 449.678955078125 196.3268280029297 442.9814453125 199.82647705078125 436.8870849609375 C 196.6411590576172 428.5529479980469 193.7227325439453 422.9346008300781 188.22718811035156 421.36236572265625" stroke-width="0.0" fill="rgb(63, 62, 68)" opacity="0.96717256" stroke="rgb(0, 0, 0)" stroke-opacity="1.0" stroke-linecap="round" stroke-linejoin="round"/>
    <path d="M 257.1206359863281 399.4017028808594 C 255.0459442138672 402.8683776855469 257.6298522949219 414.5070495605469 257.19317626953125 424.778564453125 C 259.7232360839844 422.89642333984375 265.17010498046875 424.1784362792969 268.4288024902344 422.4530029296875 C 268.78326416015625 409.38470458984375 265.6166076660156 402.9547119140625 257.1206359863281 399.4017028808594" stroke-width="0.0" fill="rgb(112, 132, 149)" opacity="0.99979" stroke="rgb(0, 0, 0)" stroke-opacity="1.0" stroke-linecap="round" stroke-linejoin="round"/>
    <path d="M 200.5593719482422 426.71112060546875 C 203.4803466796875 432.965576171875 201.7845001220703 445.7408142089844 205.459716796875 448.509033203125 C 210.91944885253906 447.7248840332031 206.48973083496094 436.3031921386719 209.80654907226562 428.9988708496094 C 207.45809936523438 427.030029296875 204.4608917236328 425.85650634765625 200.5593719482422 426.71112060546875" stroke-width="0.0" fill="rgb(106, 88, 96)" opacity="0.9871054" stroke="rgb(0, 0, 0)" stroke-opacity="1.0" stroke-linecap="round" stroke-linejoin="round"/>
    <path d="M 221.0902099609375 428.4908142089844 C 217.03707885742188 427.60736083984375 211.9513397216797 427.8448791503906 212.23733520507812 428.9127502441406 C 214.59645080566406 435.9912109375 211.09490966796875 446.97216796875 215.01402282714844 449.1402587890625 C 219.59042358398438 446.84100341796875 216.97775268554688 435.5369873046875 221.0902099609375 428.4908142089844" stroke-width="0.0" fill="rgb(112, 91, 98)" opacity="0.9928601" stroke="rgb(0, 0, 0)" stroke-opacity="1.0" stroke-linecap="round" stroke-linejoin="round"/>
    <path d="M 183.39544677734375 441.8924560546875 C 188.6448211669922 443.269287109375 189.46385192871094 444.34332275390625 187.87265014648438 441.17620849609375 C 187.56167602539062 446.42437744140625 188.44737243652344 456.54736328125 187.16436767578125 462.4905090332031 C 179.85745239257812 458.9639892578125 182.76528930664062 455.7610778808594 183.39544677734375 441.8924560546875" stroke-width="0.0" fill="rgb(78, 77, 83)" opacity="0.98816246" stroke="rgb(0, 0, 0)" stroke-opacity="1.0" stroke-linecap="round" stroke-linejoin="round"/>
    <path d="M 343.749755859375 286.1755676269531 C 344.47650146484375 289.97833251953125 344.3431091308594 291.9369812011719 339.1927185058594 293.03302001953125 C 345.9920654296875 291.1982116699219 351.8378601074219 291.2395935058594 360.3435974121094 287.6640930175781 C 353.0299377441406 288.6496276855469 348.12261962890625 287.0257263183594 343.749755859375 286.1755676269531" stroke-width="0.0" fill="rgb(122, 147, 170)" opacity="0.99936634" stroke="rgb(0, 0, 0)" stroke-opacity="1.0" stroke-linecap="round" stroke-linejoin="round"/>
    <path d="M 455.545166015625 304.67535400390625 C 456.8706359863281 307.67138671875 455.9809265136719 309.425537109375 454.92779541015625 309.85321044921875 C 462.0313415527344 307.78814697265625 465.1867980957031 311.2768249511719 464.289794921875 305.97015380859375 C 465.8093566894531 303.79248046875 459.2221374511719 305.8735656738281 455.545166015625 304.67535400390625" stroke-width="0.0" fill="rgb(109, 132, 160)" opacity="0.99977183" stroke="rgb(0, 0, 0)" stroke-opacity="1.0" stroke-linecap="round" stroke-linejoin="round"/>
    <path d="M 411.9394836425781 304.63592529296875 C 412.64813232421875 307.56378173828125 411.0602111816406 308.421875 414.5665283203125 308.4860534667969 C 416.69378662109375 307.9806213378906 418.4098205566406 308.6358337402344 419.2764587402344 307.2049255371094 C 417.6906433105469 304.0734558105469 416.3542785644531 302.26910400390625 411.9394836425781 304.63592529296875" stroke-width="0.0" fill="rgb(95, 112, 141)" opacity="1.0004147" stroke="rgb(0, 0, 0)" stroke-opacity="1.0" stroke-linecap="round" stroke-linejoin="round"/>
    <path d="M 195.74830627441406 400.41705322265625 C 197.74441528320312 411.35552978515625 198.20550537109375 419.780517578125 199.25082397460938 426.4986267089844 C 209.578857421875 427.5329284667969 220.1880340576172 427.895751953125 228.28546142578125 424.9075927734375 C 227.999267578125 417.59576416015625 227.8097381591797 408.3025207519531 228.2478790283203 398.0804443359375 C 217.5887451171875 401.34686279296875 207.07687377929688 399.99871826171875 195.74830627441406 400.41705322265625" stroke-width="0.0" fill="rgb(55, 57, 79)" opacity="0.9940949" stroke="rgb(0, 0, 0)" stroke-opacity="1.0" stroke-linecap="round" stroke-linejoin="round"/>
    <path d="M 225.84605407714844 358.27911376953125 C 213.36717224121094 348.38775634765625 209.15737915039062 353.5641174316406 198.69114685058594 359.1485900878906 C 194.4224853515625 372.8182373046875 193.39987182617188 388.509521484375 194.6861114501953 410.368896484375 C 198.72772216796875 406.333984375 199.9930877685547 400.43316650390625 204.0457000732422 399.5126953125 C 209.4527130126953 399.5017395019531 219.09246826171875 398.2909851074219 227.46449279785156 401.0720520019531 C 228.45233154296875 379.49127197265625 232.50306701660156 367.153564453125 225.84605407714844 358.27911376953125" stroke-width="0.0" fill="rgb(87, 76, 84)" opacity="0.9598005" stroke="rgb(0, 0, 0)" stroke-opacity="1.0" stroke-linecap="round" stroke-linejoin="round"/>
  </g>
</svg>
