<?xml version="1.0" ?>
<svg xmlns="http://www.w3.org/2000/svg" version="1.1" width="512" height="512">
  <defs/>
  <g>
    <path d="M -3.131852149963379 -3.5989420413970947 C -2.2024648189544678 170.3333282470703 -0.9211952090263367 340.6666564941406 -0.37370625138282776 517.1761474609375 C 169.89273071289062 517.7435302734375 339.9120178222656 518.5940551757812 517.6171264648438 519.3228149414062 C 518.0031127929688 341.2696228027344 518.2002563476562 170.6571044921875 518.3636474609375 -3.204592227935791 C 340.6666564941406 -3.5874905586242676 170.3333282470703 -3.65773606300354 -3.131852149963379 -3.5989420413970947" stroke-width="0.0" fill="rgb(203, 224, 199)" opacity="0.83063114" stroke="rgb(0, 0, 0)" stroke-opacity="1.0" stroke-linecap="round" stroke-linejoin="round"/>
    <path d="M -5.665043354034424 229.4868927001953 C -5.648634910583496 325.0377197265625 -5.866135597229004 418.0899963378906 -5.904470920562744 519.7674560546875 C 170.65216064453125 519.8031005859375 341.2168273925781 519.6792602539062 518.1829223632812 519.2682495117188 C 518.6798095703125 425.93994140625 519.7195434570312 340.97314453125 519.6858520507812 263.5827941894531 C 427.5592956542969 256.7856750488281 335.6019287109375 258.4902648925781 244.22222900390625 255.65093994140625 C 201.4923858642578 249.35536193847656 160.20159912109375 237.40170288085938 110.65768432617188 232.08465576171875 C 75.7413558959961 229.42861938476562 35.75135803222656 232.33314514160156 -5.665043354034424 229.4868927001953" stroke-width="0.0" fill="rgb(125, 143, 161)" opacity="0.9758222" stroke="rgb(0, 0, 0)" stroke-opacity="1.0" stroke-linecap="round" stroke-linejoin="round"/>
    <path d="M -4.527109622955322 213.5150604248047 C -3.309091329574585 217.37139892578125 -4.40616512298584 223.4859161376953 -1.2818058729171753 228.74105834960938 C 25.59770393371582 220.79205322265625 39.26732635498047 235.94163513183594 54.981689453125 224.029052734375 C 39.87713623046875 216.56202697753906 17.877460479736328 213.40383911132812 -4.527109622955322 213.5150604248047" stroke-width="0.0" fill="rgb(172, 192, 191)" opacity="0.99869996" stroke="rgb(0, 0, 0)" stroke-opacity="1.0" stroke-linecap="round" stroke-linejoin="round"/>
    <path d="M 240.34933471679688 333.8065185546875 C 230.83045959472656 341.53759765625 219.17532348632812 343.7282409667969 213.59249877929688 336.6822509765625 C 193.93927001953125 363.8817138671875 196.39549255371094 382.7090759277344 193.17343139648438 402.671142578125 C 165.7218780517578 438.01959228515625 145.7400360107422 476.27716064453125 118.23794555664062 517.4415893554688 C 182.39114379882812 520.4046020507812 251.09925842285156 520.364990234375 313.5514831542969 517.77099609375 C 293.9503479003906 475.01214599609375 275.4585876464844 441.47705078125 252.4359130859375 408.92230224609375 C 253.66622924804688 397.9117736816406 254.9348602294922 382.5457763671875 252.19570922851562 367.8442687988281 C 249.9455108642578 359.021728515625 240.96141052246094 353.5438232421875 237.0386199951172 347.8359375 C 242.7728729248047 346.3482666015625 242.3392333984375 340.9292297363281 240.34933471679688 333.8065185546875" stroke-width="0.0" fill="rgb(171, 179, 180)" opacity="1.0522623" stroke="rgb(0, 0, 0)" stroke-opacity="1.0" stroke-linecap="round" stroke-linejoin="round"/>
    <path d="M 243.98446655273438 336.8722229003906 C 240.7935028076172 338.89361572265625 238.51492309570312 344.26544189453125 235.39208984375 347.6998291015625 C 244.5516815185547 353.7934265136719 241.4694366455078 357.0557556152344 246.19435119628906 349.03753662109375 C 248.79550170898438 344.54083251953125 249.51284790039062 340.0930480957031 243.98446655273438 336.8722229003906" stroke-width="0.0" fill="rgb(173, 182, 182)" opacity="0.99998605" stroke="rgb(0, 0, 0)" stroke-opacity="1.0" stroke-linecap="round" stroke-linejoin="round"/>
    <path d="M 223.17901611328125 309.338623046875 C 227.3808135986328 314.0502624511719 228.0455322265625 319.09765625 234.77008056640625 315.5611267089844 C 233.3789520263672 317.91705322265625 235.1709747314453 323.35101318359375 235.57044982910156 327.7820129394531 C 242.45193481445312 319.96014404296875 247.34698486328125 315.0978088378906 264.6350402832031 315.17218017578125 C 250.6724090576172 313.04010009765625 244.59735107421875 313.13641357421875 243.61459350585938 313.4818115234375 C 280.3374938964844 309.0209655761719 286.94287109375 315.20953369140625 301.32525634765625 316.62213134765625 C 304.43389892578125 323.4725646972656 300.9193115234375 321.1501770019531 292.19476318359375 322.40887451171875 C 297.3691711425781 323.36663818359375 295.380859375 325.37750244140625 294.16668701171875 329.9158020019531 C 285.9443054199219 330.4800720214844 260.9281005859375 330.0411071777344 249.99935913085938 330.3055725097656 C 245.90847778320312 344.96136474609375 257.4959411621094 347.3538818359375 257.77557373046875 360.4935607910156 C 259.7775573730469 376.8761901855469 260.12060546875 395.49334716796875 257.6180114746094 415.0472412109375 C 280.265380859375 442.9651184082031 296.20074462890625 477.3587341308594 310.6810607910156 518.69384765625 C 375.156005859375 519.9596557617188 442.873291015625 518.24462890625 518.1151123046875 517.9267578125 C 518.2000732421875 444.0517272949219 518.238037109375 377.0378723144531 518.4815673828125 310.6764831542969 C 413.6872863769531 308.2516784667969 319.2038879394531 309.7671203613281 223.17901611328125 309.338623046875" stroke-width="0.0" fill="rgb(123, 143, 163)" opacity="0.99811804" stroke="rgb(0, 0, 0)" stroke-opacity="1.0" stroke-linecap="round" stroke-linejoin="round"/>
    <path d="M -7.069863319396973 304.34857177734375 C -7.976171970367432 368.9964904785156 -7.673033714294434 438.4414978027344 -7.093348503112793 517.8790283203125 C 39.59291076660156 518.123291015625 79.68531036376953 518.1574096679688 119.86457824707031 514.0897827148438 C 143.73487854003906 475.3102722167969 167.00148010253906 438.4835205078125 190.97900390625 401.82037353515625 C 194.28895568847656 393.30450439453125 184.3313446044922 393.0423278808594 188.64346313476562 379.55426025390625 C 194.29098510742188 372.61834716796875 197.03347778320312 363.791748046875 201.9329071044922 350.5751953125 C 196.85877990722656 351.426025390625 200.48773193359375 347.11871337890625 198.6999969482422 342.9194641113281 C 200.94808959960938 338.8154296875 207.96522521972656 339.65802001953125 206.81118774414062 339.6988220214844 C 205.9139862060547 329.7947998046875 211.15374755859375 328.0918884277344 207.03359985351562 319.18743896484375 C 188.65110778808594 316.6373291015625 171.1968536376953 317.9046936035156 159.4362335205078 319.2075500488281 C 150.51565551757812 318.8160095214844 149.5631561279297 317.54400634765625 148.35015869140625 310.7001037597656 C 150.5701904296875 308.6595153808594 156.0059051513672 312.0851745605469 154.76486206054688 306.7571105957031 C 104.7334976196289 305.140625 52.72368621826172 305.5745544433594 -7.069863319396973 304.34857177734375" stroke-width="0.0" fill="rgb(123, 140, 158)" opacity="0.9977895" stroke="rgb(0, 0, 0)" stroke-opacity="1.0" stroke-linecap="round" stroke-linejoin="round"/>
    <path d="M -7.086198806762695 226.4486846923828 C -6.8378400802612305 255.3649444580078 -6.924919605255127 279.3332214355469 -3.8075780868530273 302.303466796875 C 71.3368148803711 302.8778381347656 142.7325897216797 303.61346435546875 216.81736755371094 303.5455322265625 C 224.64463806152344 302.8324279785156 226.20140075683594 302.2933044433594 227.3076629638672 295.8387145996094 C 228.45211791992188 293.00933837890625 228.28131103515625 283.3602600097656 224.87757873535156 284.5414123535156 C 210.38575744628906 275.1208190917969 193.93919372558594 268.3774108886719 181.2511749267578 258.27166748046875 C 184.61160278320312 258.0028381347656 187.57110595703125 255.12945556640625 194.080322265625 253.10745239257812 C 187.5684051513672 251.90562438964844 182.28775024414062 252.79559326171875 181.06137084960938 250.24697875976562 C 189.5859375 249.61837768554688 197.2330780029297 249.23768615722656 205.92507934570312 247.95542907714844 C 173.57110595703125 233.5570526123047 133.53598022460938 236.09364318847656 100.04374694824219 225.77325439453125 C 65.3458251953125 224.2173309326172 40.16133499145508 234.78709411621094 -7.086198806762695 226.4486846923828" stroke-width="0.0" fill="rgb(76, 94, 125)" opacity="1.0182912" stroke="rgb(0, 0, 0)" stroke-opacity="1.0" stroke-linecap="round" stroke-linejoin="round"/>
    <path d="M 269.7559509277344 281.2035827636719 C 263.44622802734375 277.7361755371094 267.11334228515625 284.58782958984375 265.5267333984375 293.9588317871094 C 273.3269348144531 296.6892395019531 266.8148498535156 302.9833984375 281.9877624511719 305.1918640136719 C 354.19439697265625 307.4839172363281 430.66973876953125 307.8842468261719 517.4506225585938 307.6425476074219 C 519.3154296875 295.1290588378906 519.6099243164062 278.5104064941406 518.4321899414062 269.7714538574219 C 494.02862548828125 269.2593688964844 486.6748962402344 256.34423828125 469.070556640625 256.1424865722656 C 411.81475830078125 257.891357421875 355.1978759765625 258.5620422363281 307.67681884765625 253.621826171875 C 286.40191650390625 259.8836975097656 272.4411315917969 265.9212341308594 269.7559509277344 281.2035827636719" stroke-width="0.0" fill="rgb(97, 116, 145)" opacity="0.957031" stroke="rgb(0, 0, 0)" stroke-opacity="1.0" stroke-linecap="round" stroke-linejoin="round"/>
    <path d="M 245.52227783203125 258.9748840332031 C 255.67678833007812 263.2530212402344 264.0914611816406 267.15924072265625 271.9090270996094 271.8555603027344 C 281.9002685546875 266.5418701171875 287.2929992675781 262.8010559082031 293.6539306640625 257.76666259765625 C 275.3713684082031 251.35069274902344 267.3834228515625 254.58517456054688 245.52227783203125 258.9748840332031" stroke-width="0.0" fill="rgb(150, 179, 185)" opacity="1.0090377" stroke="rgb(0, 0, 0)" stroke-opacity="1.0" stroke-linecap="round" stroke-linejoin="round"/>
    <path d="M 227.78871154785156 340.00811767578125 C 221.8667449951172 343.713623046875 232.96238708496094 337.11187744140625 243.32183837890625 339.5170593261719 C 244.98313903808594 337.9256286621094 243.2324981689453 332.6152038574219 243.713134765625 330.3773193359375 C 234.3990478515625 326.1765441894531 230.616455078125 324.98089599609375 227.78871154785156 340.00811767578125" stroke-width="0.0" fill="rgb(99, 99, 112)" opacity="0.9825191" stroke="rgb(0, 0, 0)" stroke-opacity="1.0" stroke-linecap="round" stroke-linejoin="round"/>
    <path d="M 257.85400390625 387.73748779296875 C 254.731201171875 387.808837890625 256.6240539550781 394.2356262207031 255.9407196044922 400.2562561035156 C 258.7635498046875 399.4480285644531 261.5416564941406 402.6298522949219 261.507568359375 402.2713317871094 C 260.0967102050781 397.0087890625 263.5726623535156 388.7491760253906 257.85400390625 387.73748779296875" stroke-width="0.0" fill="rgb(66, 71, 84)" opacity="1.005914" stroke="rgb(0, 0, 0)" stroke-opacity="1.0" stroke-linecap="round" stroke-linejoin="round"/>
    <path d="M 231.53367614746094 332.99609375 C 227.5863037109375 333.14532470703125 234.0185089111328 341.452880859375 222.89410400390625 342.5347595214844 C 218.681640625 340.89080810546875 214.4473876953125 334.2335510253906 210.41453552246094 340.06915283203125 C 200.00439453125 361.6842346191406 194.6478271484375 379.46002197265625 193.17518615722656 405.7052307128906 C 194.16151428222656 412.7382507324219 197.1873016357422 420.02337646484375 202.26513671875 424.6164855957031 C 211.74557495117188 430.1632080078125 227.585693359375 429.1746520996094 242.2437286376953 433.4064025878906 C 250.63429260253906 433.48406982421875 248.6378631591797 425.9186096191406 251.50466918945312 419.5084228515625 C 253.99481201171875 411.4338684082031 253.54808044433594 393.6893310546875 252.32289123535156 379.770751953125 C 251.7865753173828 370.29986572265625 249.71685791015625 363.48309326171875 245.7029571533203 356.62091064453125 C 242.02316284179688 353.0315856933594 235.7370147705078 350.6612243652344 233.76210021972656 347.3603210449219 C 236.13758850097656 345.3753967285156 238.85870361328125 342.7832946777344 241.0340576171875 337.9437255859375 C 239.8336181640625 331.3023681640625 237.55780029296875 331.01593017578125 231.53367614746094 332.99609375" stroke-width="0.0" fill="rgb(131, 135, 148)" opacity="0.85092956" stroke="rgb(0, 0, 0)" stroke-opacity="1.0" stroke-linecap="round" stroke-linejoin="round"/>
    <path d="M 141.06663513183594 483.2177429199219 C 133.21847534179688 493.99078369140625 125.6786880493164 501.0544738769531 120.82389831542969 517.009765625 C 130.74388122558594 518.8403930664062 135.77442932128906 518.2688598632812 136.9853057861328 513.0641479492188 C 140.71035766601562 502.591552734375 143.5998077392578 497.32586669921875 141.06663513183594 483.2177429199219" stroke-width="0.0" fill="rgb(175, 183, 185)" opacity="0.9956976" stroke="rgb(0, 0, 0)" stroke-opacity="1.0" stroke-linecap="round" stroke-linejoin="round"/>
    <path d="M 181.77186584472656 417.2109375 C 177.03067016601562 421.51739501953125 173.74952697753906 428.68017578125 170.0453338623047 435.5037841796875 C 179.98500061035156 437.5732421875 181.9033660888672 432.0912170410156 185.34535217285156 426.16607666015625 C 185.48297119140625 422.9614562988281 185.2786865234375 419.8972473144531 181.77186584472656 417.2109375" stroke-width="0.0" fill="rgb(170, 178, 179)" opacity="0.9955732" stroke="rgb(0, 0, 0)" stroke-opacity="1.0" stroke-linecap="round" stroke-linejoin="round"/>
    <path d="M 256.4521179199219 411.5639343261719 C 252.72084045410156 437.44281005859375 250.43533325195312 453.77471923828125 243.55091857910156 471.481201171875 C 242.92822265625 485.67559814453125 247.1298828125 497.16436767578125 249.15618896484375 518.2200927734375 C 272.0139465332031 519.3303833007812 295.859130859375 522.1312255859375 312.61004638671875 513.3770141601562 C 294.1117248535156 476.60638427734375 276.22491455078125 445.056884765625 256.4521179199219 411.5639343261719" stroke-width="0.0" fill="rgb(173, 178, 180)" opacity="1.0100024" stroke="rgb(0, 0, 0)" stroke-opacity="1.0" stroke-linecap="round" stroke-linejoin="round"/>
    <path d="M 231.58221435546875 426.450927734375 C 228.38970947265625 429.3108825683594 222.63673400878906 427.911865234375 219.2877960205078 428.16998291015625 C 216.6260986328125 434.43414306640625 218.0862579345703 443.7852478027344 215.33631896972656 447.1983337402344 C 211.37014770507812 445.440185546875 204.0254669189453 446.6264953613281 203.09983825683594 446.8947448730469 C 195.5175018310547 466.0910339355469 191.51617431640625 488.78265380859375 185.6043243408203 517.67431640625 C 204.10406494140625 520.3548583984375 230.323486328125 520.0176391601562 248.7333984375 518.2864990234375 C 246.5448455810547 478.9065246582031 238.9612274169922 453.4731140136719 231.58221435546875 426.450927734375" stroke-width="0.0" fill="rgb(137, 144, 155)" opacity="1.0376768" stroke="rgb(0, 0, 0)" stroke-opacity="1.0" stroke-linecap="round" stroke-linejoin="round"/>
    <path d="M 195.38668823242188 420.773681640625 C 189.62744140625 420.6675720214844 184.93777465820312 423.3635559082031 183.5187530517578 425.0296325683594 C 184.574951171875 436.672607421875 182.1044464111328 449.7544860839844 183.53775024414062 460.33154296875 C 192.145751953125 452.88226318359375 189.28106689453125 448.13690185546875 194.60702514648438 459.7190856933594 C 198.49960327148438 439.9878234863281 200.11244201660156 431.0619201660156 195.38668823242188 420.773681640625" stroke-width="0.0" fill="rgb(98, 97, 104)" opacity="0.9041623" stroke="rgb(0, 0, 0)" stroke-opacity="1.0" stroke-linecap="round" stroke-linejoin="round"/>
    <path d="M 478.21063232421875 519.3807983398438 C 485.8026123046875 520.39697265625 495.60821533203125 520.5391235351562 516.6943969726562 520.3153076171875 C 518.4838256835938 509.54608154296875 517.5189819335938 503.9405822753906 516.3200073242188 498.0684509277344 C 504.2489013671875 498.69329833984375 495.8708801269531 500.0400390625 488.85675048828125 500.162109375 C 488.05657958984375 503.2734069824219 486.0210266113281 506.9873046875 478.21063232421875 519.3807983398438" stroke-width="0.0" fill="rgb(64, 67, 87)" opacity="1.0600253" stroke="rgb(0, 0, 0)" stroke-opacity="1.0" stroke-linecap="round" stroke-linejoin="round"/>
    <path d="M 199.97280883789062 425.87298583984375 C 204.39633178710938 433.2968444824219 199.28890991210938 441.5496826171875 204.49310302734375 445.1630859375 C 211.73678588867188 444.5680236816406 207.9466094970703 435.8487854003906 210.26039123535156 429.4761657714844 C 213.4096221923828 436.0843200683594 209.9819793701172 445.8799743652344 213.11241149902344 445.5375061035156 C 220.4559783935547 443.78094482421875 213.7084197998047 435.6117858886719 218.8274688720703 429.1128845214844 C 212.5302276611328 428.4035339355469 206.27764892578125 425.57318115234375 199.97280883789062 425.87298583984375" stroke-width="0.0" fill="rgb(118, 106, 116)" opacity="0.9613138" stroke="rgb(0, 0, 0)" stroke-opacity="1.0" stroke-linecap="round" stroke-linejoin="round"/>
    <path d="M -2.448775053024292 253.92642211914062 C -3.7357022762298584 270.905517578125 -5.314610004425049 286.2754211425781 -7.132694244384766 301.5314636230469 C 83.71516418457031 303.47039794921875 170.79446411132812 303.9175720214844 243.85755920410156 302.2318115234375 C 232.21038818359375 280.71881103515625 212.64784240722656 273.06195068359375 190.98768615722656 268.4096984863281 C 165.8762969970703 261.1842041015625 143.10008239746094 252.82994079589844 113.62106323242188 247.7941436767578 C 75.26548767089844 247.3645782470703 34.709678649902344 247.61312866210938 -2.448775053024292 253.92642211914062" stroke-width="0.0" fill="rgb(82, 103, 134)" opacity="0.95597285" stroke="rgb(0, 0, 0)" stroke-opacity="1.0" stroke-linecap="round" stroke-linejoin="round"/>
    <path d="M 341.6427307128906 262.56158447265625 C 347.7738342285156 269.3458557128906 352.4353332519531 279.5596008300781 357.5629577636719 289.24383544921875 C 370.15301513671875 288.8283996582031 386.8832092285156 289.3714294433594 402.7698974609375 289.2664794921875 C 412.3941955566406 293.7633361816406 420.9584655761719 299.6502685546875 425.9378967285156 306.7317810058594 C 454.8285827636719 307.9468078613281 484.34771728515625 305.8855285644531 517.8609008789062 307.5061340332031 C 518.0315551757812 291.6087341308594 519.4335327148438 277.16021728515625 517.2391967773438 266.607421875 C 495.2873840332031 272.6512451171875 492.452880859375 258.7000427246094 476.2432861328125 256.7525634765625 C 437.13726806640625 252.311279296875 403.2079162597656 261.02423095703125 381.14556884765625 253.23085021972656 C 360.6165771484375 256.5545349121094 348.91839599609375 256.2803039550781 341.6427307128906 262.56158447265625" stroke-width="0.0" fill="rgb(100, 127, 157)" opacity="0.9314913" stroke="rgb(0, 0, 0)" stroke-opacity="1.0" stroke-linecap="round" stroke-linejoin="round"/>
    <path d="M 5.491037845611572 226.81210327148438 C -7.877957344055176 233.16287231445312 -5.953506946563721 243.75070190429688 -5.949504852294922 254.84814453125 C 37.628440856933594 251.1125946044922 75.20223236083984 245.38600158691406 107.72760772705078 247.50485229492188 C 155.5416259765625 254.83197021484375 191.44834899902344 267.0127258300781 225.58677673339844 283.9891357421875 C 238.4766845703125 279.1167297363281 248.88067626953125 276.9654235839844 264.3361511230469 276.2481994628906 C 271.8583068847656 269.1054992675781 283.44305419921875 268.3570556640625 290.25970458984375 259.880615234375 C 277.40478515625 255.30958557128906 268.843505859375 264.0750732421875 259.0782775878906 260.8013000488281 C 227.3668212890625 251.108642578125 199.18215942382812 240.7696533203125 161.0287628173828 234.07656860351562 C 138.24755859375 232.44598388671875 118.37731170654297 231.22254943847656 90.734130859375 222.8173370361328 C 61.12638473510742 223.56277465820312 46.674400329589844 234.78846740722656 5.491037845611572 226.81210327148438" stroke-width="0.0" fill="rgb(118, 148, 170)" opacity="0.8314455" stroke="rgb(0, 0, 0)" stroke-opacity="1.0" stroke-linecap="round" stroke-linejoin="round"/>
    <path d="M 377.04461669921875 295.43914794921875 C 377.99951171875 299.22314453125 381.54302978515625 301.9807434082031 379.3000183105469 306.8251953125 C 396.64239501953125 308.3041687011719 413.5009460449219 309.8517761230469 427.21380615234375 306.9869079589844 C 418.8169250488281 297.89813232421875 410.626708984375 292.22686767578125 402.1865234375 288.5033874511719 C 391.4191589355469 289.2964782714844 385.799560546875 293.14874267578125 377.04461669921875 295.43914794921875" stroke-width="0.0" fill="rgb(78, 95, 127)" opacity="0.9992795" stroke="rgb(0, 0, 0)" stroke-opacity="1.0" stroke-linecap="round" stroke-linejoin="round"/>
    <path d="M 139.3755645751953 488.4040222167969 C 155.00035095214844 486.0902404785156 172.96435546875 487.2779846191406 190.6583251953125 487.0602722167969 C 192.31314086914062 486.1717224121094 194.58267211914062 480.5195007324219 191.7770233154297 474.9469299316406 C 176.7735595703125 474.56036376953125 159.4168701171875 475.68023681640625 146.58103942871094 473.3289489746094 C 142.93038940429688 477.7507629394531 139.9771728515625 483.5473937988281 139.3755645751953 488.4040222167969" stroke-width="0.0" fill="rgb(191, 202, 195)" opacity="0.9971736" stroke="rgb(0, 0, 0)" stroke-opacity="1.0" stroke-linecap="round" stroke-linejoin="round"/>
    <path d="M 358.4063415527344 287.9639892578125 C 358.71124267578125 285.07379150390625 355.2707214355469 281.32025146484375 352.6142272949219 279.203125 C 348.32110595703125 259.98583984375 328.9215087890625 256.5489807128906 309.31072998046875 248.39381408691406 C 294.5793762207031 257.0203857421875 282.972900390625 269.4848327636719 261.16650390625 278.2378845214844 C 253.699462890625 277.1230773925781 240.99325561523438 279.8304748535156 222.16104125976562 283.4949035644531 C 241.46792602539062 292.4202575683594 257.8207702636719 297.492431640625 272.5245056152344 299.9913024902344 C 301.0323791503906 299.5445251464844 326.716064453125 297.1093444824219 351.26318359375 295.4162902832031 C 360.5048828125 291.24591064453125 366.9725646972656 290.1224365234375 358.4063415527344 287.9639892578125" stroke-width="0.0" fill="rgb(105, 133, 160)" opacity="0.9930781" stroke="rgb(0, 0, 0)" stroke-opacity="1.0" stroke-linecap="round" stroke-linejoin="round"/>
    <path d="M -1.6405410766601562 495.20477294921875 C -2.086103677749634 501.1775817871094 -3.9008021354675293 506.6468200683594 -4.1982269287109375 520.2525634765625 C 42.70590591430664 519.9984741210938 81.8875732421875 519.656494140625 125.4607162475586 512.7362670898438 C 91.09632873535156 507.5379638671875 79.64995574951172 491.7547302246094 52.07126235961914 490.9113464355469 C 36.81732177734375 491.4871520996094 16.215768814086914 493.37420654296875 -1.6405410766601562 495.20477294921875" stroke-width="0.0" fill="rgb(72, 80, 101)" opacity="0.9996577" stroke="rgb(0, 0, 0)" stroke-opacity="1.0" stroke-linecap="round" stroke-linejoin="round"/>
    <path d="M 486.0088806152344 503.09637451171875 C 452.9029235839844 501.74652099609375 422.90045166015625 504.599365234375 393.0113220214844 504.0289001464844 C 384.3440856933594 506.6820068359375 378.1294250488281 504.6231689453125 375.54876708984375 517.4047241210938 C 408.430908203125 519.6705322265625 445.1885070800781 518.584228515625 481.52777099609375 518.2044067382812 C 484.00506591796875 511.1434020996094 485.44873046875 508.55084228515625 486.0088806152344 503.09637451171875" stroke-width="0.0" fill="rgb(69, 72, 88)" opacity="0.9979711" stroke="rgb(0, 0, 0)" stroke-opacity="1.0" stroke-linecap="round" stroke-linejoin="round"/>
    <path d="M 255.7280731201172 387.1603698730469 C 254.88290405273438 402.7999267578125 258.60076904296875 421.781005859375 253.74212646484375 424.43048095703125 C 267.6570739746094 422.8896484375 269.421875 424.3655700683594 268.3460388183594 417.4323425292969 C 261.8976135253906 399.479736328125 269.9737243652344 387.2024841308594 255.7280731201172 387.1603698730469" stroke-width="0.0" fill="rgb(99, 109, 122)" opacity="0.92226857" stroke="rgb(0, 0, 0)" stroke-opacity="1.0" stroke-linecap="round" stroke-linejoin="round"/>
    <path d="M 16.473194122314453 407.2447509765625 C 8.251670837402344 403.0576171875 6.357585430145264 409.5494079589844 -3.365469455718994 409.3788757324219 C -5.009024620056152 415.1451721191406 -8.472695350646973 420.5706481933594 -0.42046794295310974 417.7255554199219 C 9.067609786987305 415.77099609375 15.751180648803711 414.9514465332031 16.473194122314453 407.2447509765625" stroke-width="0.0" fill="rgb(77, 92, 113)" opacity="1.0002304" stroke="rgb(0, 0, 0)" stroke-opacity="1.0" stroke-linecap="round" stroke-linejoin="round"/>
    <path d="M -9.399714469909668 329.0290832519531 C -4.802060604095459 335.24102783203125 -4.775190830230713 333.474365234375 -3.5166594982147217 332.9776611328125 C 9.804017066955566 330.1750183105469 16.623340606689453 331.74072265625 18.643421173095703 330.25506591796875 C 18.01294708251953 324.2418212890625 8.447293281555176 330.3306884765625 -9.399714469909668 329.0290832519531" stroke-width="0.0" fill="rgb(107, 125, 140)" opacity="0.9992686" stroke="rgb(0, 0, 0)" stroke-opacity="1.0" stroke-linecap="round" stroke-linejoin="round"/>
    <path d="M 237.6676025390625 331.007568359375 C 234.0063934326172 329.3812561035156 232.18614196777344 331.91290283203125 229.5088653564453 333.6237487792969 C 228.710205078125 339.60888671875 228.81491088867188 344.99114990234375 231.58570861816406 346.7243957519531 C 237.5438232421875 348.12017822265625 240.4124298095703 343.2908020019531 240.2764892578125 342.6147766113281 C 242.64651489257812 333.0458679199219 240.79409790039062 333.6827087402344 237.6676025390625 331.007568359375" stroke-width="0.0" fill="rgb(92, 83, 96)" opacity="0.9945567" stroke="rgb(0, 0, 0)" stroke-opacity="1.0" stroke-linecap="round" stroke-linejoin="round"/>
    <path d="M 220.3217010498047 342.3692321777344 C 218.32911682128906 337.5542297363281 215.0369415283203 337.06414794921875 211.8850860595703 337.6319885253906 C 207.5634307861328 340.69464111328125 206.0321502685547 342.8440856933594 207.3862762451172 349.864501953125 C 207.22213745117188 352.4397888183594 215.12477111816406 351.22900390625 217.27883911132812 349.6141357421875 C 219.7915802001953 347.79443359375 220.91905212402344 346.44427490234375 220.3217010498047 342.3692321777344" stroke-width="0.0" fill="rgb(56, 56, 65)" opacity="1.0027754" stroke="rgb(0, 0, 0)" stroke-opacity="1.0" stroke-linecap="round" stroke-linejoin="round"/>
    <path d="M 230.27304077148438 380.7118835449219 C 232.37705993652344 398.96014404296875 234.9231414794922 418.8599548339844 235.852783203125 437.7089538574219 C 238.844970703125 446.28179931640625 239.7677459716797 453.9634704589844 250.70091247558594 447.3315124511719 C 253.2845001220703 430.7025146484375 254.39002990722656 407.47882080078125 255.58480834960938 382.0296325683594 C 252.68626403808594 379.16131591796875 242.4137420654297 381.8868408203125 230.27304077148438 380.7118835449219" stroke-width="0.0" fill="rgb(81, 93, 109)" opacity="0.98193395" stroke="rgb(0, 0, 0)" stroke-opacity="1.0" stroke-linecap="round" stroke-linejoin="round"/>
    <path d="M 243.60244750976562 338.58074951171875 C 237.43441772460938 344.9957275390625 230.5985565185547 348.2981262207031 228.58982849121094 352.3818664550781 C 227.6494598388672 364.5985412597656 226.54156494140625 374.0361633300781 231.6083221435547 383.1176452636719 C 238.45223999023438 378.97735595703125 247.56787109375 380.44146728515625 256.2179870605469 379.5945739746094 C 256.6259765625 360.7760009765625 253.18226623535156 348.0980224609375 243.60244750976562 338.58074951171875" stroke-width="0.0" fill="rgb(140, 145, 154)" opacity="0.89724106" stroke="rgb(0, 0, 0)" stroke-opacity="1.0" stroke-linecap="round" stroke-linejoin="round"/>
    <path d="M 216.9008331298828 353.7947082519531 C 209.88848876953125 352.8521423339844 205.663330078125 353.0050048828125 202.92774963378906 357.0648498535156 C 199.03521728515625 358.6267395019531 196.9763946533203 363.7936096191406 196.14466857910156 369.7771911621094 C 194.55120849609375 381.87274169921875 193.37310791015625 392.3783264160156 194.29246520996094 407.87652587890625 C 199.4704132080078 411.1351318359375 194.8147430419922 422.5963439941406 201.82594299316406 426.9515075683594 C 211.62022399902344 426.51763916015625 221.42227172851562 428.3349304199219 228.15771484375 425.26324462890625 C 228.09129333496094 406.2088317871094 227.79876708984375 386.681640625 229.24673461914062 367.45281982421875 C 226.63067626953125 358.36767578125 224.4788360595703 353.7639465332031 216.9008331298828 353.7947082519531" stroke-width="0.0" fill="rgb(84, 80, 90)" opacity="0.98054713" stroke="rgb(0, 0, 0)" stroke-opacity="1.0" stroke-linecap="round" stroke-linejoin="round"/>
    <path d="M -0.4610515534877777 229.5169219970703 C -7.503952980041504 232.0971221923828 -5.779365062713623 246.0208282470703 -3.697007894515991 256.4477233886719 C 21.32813262939453 255.5047149658203 37.831180572509766 250.14801025390625 59.87809753417969 248.8135223388672 C 54.82667541503906 241.782470703125 52.99301528930664 236.0573272705078 51.82293701171875 235.6285858154297 C 32.240013122558594 232.7059783935547 20.881067276000977 222.68399047851562 -0.4610515534877777 229.5169219970703" stroke-width="0.0" fill="rgb(87, 112, 144)" opacity="0.9875851" stroke="rgb(0, 0, 0)" stroke-opacity="1.0" stroke-linecap="round" stroke-linejoin="round"/>
    <path d="M 487.0852355957031 500.5004577636719 C 485.4815979003906 502.2460021972656 485.0797119140625 508.1353759765625 481.82562255859375 517.3037719726562 C 491.3306884765625 517.3013305664062 498.0841369628906 518.6011352539062 503.74462890625 517.8204345703125 C 500.7926025390625 505.98089599609375 502.2761535644531 498.69891357421875 502.29681396484375 498.3172302246094 C 492.2873229980469 498.0411376953125 488.10089111328125 496.67364501953125 487.0852355957031 500.5004577636719" stroke-width="0.0" fill="rgb(104, 107, 131)" opacity="0.9947021" stroke="rgb(0, 0, 0)" stroke-opacity="1.0" stroke-linecap="round" stroke-linejoin="round"/>
    <path d="M 52.75376510620117 294.3027038574219 C 52.01798629760742 302.4705810546875 52.63186264038086 299.46392822265625 58.4039421081543 300.9207458496094 C 62.22845458984375 298.47064208984375 70.94319152832031 302.3468017578125 68.7589111328125 296.4637756347656 C 70.48619842529297 294.1101989746094 59.391624450683594 295.3193664550781 52.75376510620117 294.3027038574219" stroke-width="0.0" fill="rgb(94, 107, 134)" opacity="0.99984336" stroke="rgb(0, 0, 0)" stroke-opacity="1.0" stroke-linecap="round" stroke-linejoin="round"/>
    <path d="M 265.6720886230469 276.5001220703125 C 273.0471496582031 284.05120849609375 285.6015930175781 281.405029296875 297.1104736328125 286.2007141113281 C 299.0015869140625 281.90216064453125 297.38427734375 286.2167053222656 299.2008361816406 295.72821044921875 C 325.47796630859375 299.07171630859375 344.6565856933594 293.6659240722656 365.9676513671875 285.69415283203125 C 362.9521484375 278.2012939453125 359.9391174316406 274.5745849609375 355.82769775390625 270.8302001953125 C 341.5953063964844 263.6953125 330.245361328125 254.8044891357422 310.0333251953125 249.02099609375 C 295.41241455078125 254.43421936035156 284.69439697265625 269.4009094238281 265.6720886230469 276.5001220703125" stroke-width="0.0" fill="rgb(103, 130, 158)" opacity="0.996171" stroke="rgb(0, 0, 0)" stroke-opacity="1.0" stroke-linecap="round" stroke-linejoin="round"/>
    <path d="M 238.29794311523438 453.075927734375 C 231.40557861328125 452.49981689453125 230.12123107910156 451.40032958984375 225.99612426757812 446.4505615234375 C 216.14956665039062 451.749755859375 219.22335815429688 456.02294921875 210.383056640625 450.7072448730469 C 199.6662139892578 453.90869140625 198.52613830566406 455.23614501953125 197.62490844726562 466.29095458984375 C 206.08267211914062 465.9097900390625 224.6513671875 465.66839599609375 235.31573486328125 466.360107421875 C 239.22340393066406 463.2254943847656 240.9912872314453 460.14007568359375 238.29794311523438 453.075927734375" stroke-width="0.0" fill="rgb(116, 120, 135)" opacity="1.0009228" stroke="rgb(0, 0, 0)" stroke-opacity="1.0" stroke-linecap="round" stroke-linejoin="round"/>
    <path d="M 188.1360321044922 421.6422424316406 C 179.84237670898438 425.7706604003906 180.8940887451172 433.00079345703125 186.69677734375 451.7668151855469 C 180.00692749023438 453.8998718261719 186.04556274414062 451.4177551269531 194.18101501464844 447.850341796875 C 198.35366821289062 450.8851318359375 197.2113800048828 443.9425354003906 199.6055145263672 437.34722900390625 C 196.42193603515625 428.7640380859375 193.6175079345703 422.7914123535156 188.1360321044922 421.6422424316406" stroke-width="0.0" fill="rgb(62, 60, 67)" opacity="0.96376747" stroke="rgb(0, 0, 0)" stroke-opacity="1.0" stroke-linecap="round" stroke-linejoin="round"/>
    <path d="M 257.4205627441406 399.6238098144531 C 256.57025146484375 402.2145690917969 257.3644714355469 414.4456787109375 256.488037109375 424.58526611328125 C 259.56121826171875 422.216064453125 265.2802734375 423.3985900878906 267.8342590332031 422.26715087890625 C 268.1094665527344 409.9010009765625 265.1414489746094 403.1694030761719 257.4205627441406 399.6238098144531" stroke-width="0.0" fill="rgb(113, 133, 150)" opacity="1.000335" stroke="rgb(0, 0, 0)" stroke-opacity="1.0" stroke-linecap="round" stroke-linejoin="round"/>
    <path d="M 199.7097625732422 426.791259765625 C 203.45233154296875 433.75970458984375 201.24905395507812 447.66619873046875 203.97520446777344 448.5572814941406 C 210.9552001953125 449.2185974121094 205.70907592773438 437.5125427246094 209.88275146484375 429.437255859375 C 206.8519287109375 427.2750549316406 203.6800079345703 424.5147399902344 199.7097625732422 426.791259765625" stroke-width="0.0" fill="rgb(107, 88, 96)" opacity="0.9852646" stroke="rgb(0, 0, 0)" stroke-opacity="1.0" stroke-linecap="round" stroke-linejoin="round"/>
    <path d="M 221.33071899414062 428.5904235839844 C 216.9606475830078 427.10711669921875 211.8463134765625 427.28558349609375 211.53567504882812 429.738037109375 C 214.77174377441406 436.1044006347656 210.21922302246094 448.2665710449219 214.51638793945312 448.2831115722656 C 219.4329376220703 447.6733093261719 216.48968505859375 435.7518005371094 221.33071899414062 428.5904235839844" stroke-width="0.0" fill="rgb(113, 91, 98)" opacity="0.9913306" stroke="rgb(0, 0, 0)" stroke-opacity="1.0" stroke-linecap="round" stroke-linejoin="round"/>
    <path d="M 183.24114990234375 441.6549987792969 C 188.25181579589844 443.8232421875 188.833251953125 444.8419494628906 187.43939208984375 440.802734375 C 187.83851623535156 445.8140563964844 188.77780151367188 456.84283447265625 187.7637176513672 462.99468994140625 C 180.03192138671875 457.25762939453125 183.0496826171875 455.3040771484375 183.24114990234375 441.6549987792969" stroke-width="0.0" fill="rgb(78, 76, 82)" opacity="0.98579913" stroke="rgb(0, 0, 0)" stroke-opacity="1.0" stroke-linecap="round" stroke-linejoin="round"/>
    <path d="M 343.8332214355469 287.4909973144531 C 344.4091491699219 289.99261474609375 344.3267517089844 292.8840026855469 339.9900817871094 294.32666015625 C 346.93975830078125 292.6139831542969 352.5675964355469 292.4844665527344 360.478515625 287.8895568847656 C 353.7137756347656 287.6988830566406 348.31658935546875 285.6822814941406 343.8332214355469 287.4909973144531" stroke-width="0.0" fill="rgb(121, 146, 170)" opacity="0.9991683" stroke="rgb(0, 0, 0)" stroke-opacity="1.0" stroke-linecap="round" stroke-linejoin="round"/>
    <path d="M 455.5246887207031 304.7648620605469 C 456.8309631347656 307.49237060546875 455.65789794921875 309.4974060058594 454.4075622558594 309.66363525390625 C 462.3988952636719 307.5552062988281 465.4423522949219 311.74261474609375 463.51153564453125 305.4969482421875 C 466.5195007324219 303.321533203125 459.135009765625 305.9828796386719 455.5246887207031 304.7648620605469" stroke-width="0.0" fill="rgb(109, 132, 160)" opacity="0.9997066" stroke="rgb(0, 0, 0)" stroke-opacity="1.0" stroke-linecap="round" stroke-linejoin="round"/>
    <path d="M 412.1084899902344 305.3590087890625 C 412.1261901855469 307.859619140625 410.1875915527344 308.552734375 413.941162109375 307.93310546875 C 416.65838623046875 308.38323974609375 418.52734375 309.0143737792969 419.3463134765625 306.9703369140625 C 418.1639099121094 303.9828796386719 416.69287109375 302.4620361328125 412.1084899902344 305.3590087890625" stroke-width="0.0" fill="rgb(95, 112, 141)" opacity="1.0004715" stroke="rgb(0, 0, 0)" stroke-opacity="1.0" stroke-linecap="round" stroke-linejoin="round"/>
    <path d="M 195.32879638671875 399.4651794433594 C 197.07754516601562 411.66766357421875 197.4020233154297 420.2518615722656 200.0023651123047 426.2686462402344 C 209.62454223632812 427.19873046875 221.23426818847656 428.15533447265625 228.1597442626953 425.7142639160156 C 227.79730224609375 418.0251770019531 227.67234802246094 408.37310791015625 228.6103973388672 398.7192687988281 C 218.94346618652344 401.75958251953125 207.64053344726562 398.6986999511719 195.32879638671875 399.4651794433594" stroke-width="0.0" fill="rgb(54, 56, 78)" opacity="0.99356544" stroke="rgb(0, 0, 0)" stroke-opacity="1.0" stroke-linecap="round" stroke-linejoin="round"/>
    <path d="M 226.42532348632812 358.008056640625 C 212.67369079589844 349.8945617675781 207.6136016845703 353.1745300292969 198.82574462890625 358.0419006347656 C 194.41322326660156 373.30126953125 192.80255126953125 388.63427734375 193.642578125 411.8009033203125 C 198.4976043701172 406.52569580078125 199.2389678955078 399.927490234375 204.65264892578125 399.0375061035156 C 209.40342712402344 399.6304626464844 219.6391143798828 397.9566650390625 228.2300567626953 400.8818664550781 C 227.4153594970703 378.8311767578125 232.7286376953125 367.8279113769531 226.42532348632812 358.008056640625" stroke-width="0.0" fill="rgb(87, 75, 83)" opacity="0.9531068" stroke="rgb(0, 0, 0)" stroke-opacity="1.0" stroke-linecap="round" stroke-linejoin="round"/>
  </g>
</svg>
