<?xml version="1.0" ?>
<svg xmlns="http://www.w3.org/2000/svg" version="1.1" width="512" height="512">
  <defs/>
  <g>
    <path d="M -3.158294200897217 -3.6328558921813965 C -2.217578411102295 170.3333282470703 -0.9260481595993042 340.6666564941406 -0.37698253989219666 517.3685302734375 C 169.88783264160156 517.953857421875 339.90374755859375 518.8324584960938 517.7818603515625 519.5709228515625 C 518.1687622070312 341.27410888671875 518.3676147460938 170.65939331054688 518.5330810546875 -3.2323997020721436 C 340.6666564941406 -3.621203899383545 170.3333282470703 -3.6926941871643066 -3.158294200897217 -3.6328558921813965" stroke-width="0.0" fill="rgb(202, 223, 196)" opacity="0.832545" stroke="rgb(0, 0, 0)" stroke-opacity="1.0" stroke-linecap="round" stroke-linejoin="round"/>
    <path d="M -5.916738986968994 229.32061767578125 C -5.780933380126953 325.0379638671875 -6.015512466430664 418.0906066894531 -6.060883522033691 520.010009765625 C 170.65472412109375 520.0458374023438 341.221435546875 519.920166015625 518.381103515625 519.499267578125 C 518.8912963867188 425.91888427734375 519.9602661132812 340.9219665527344 519.9591064453125 263.6509704589844 C 427.78173828125 256.69775390625 335.5163879394531 258.6435241699219 244.528076171875 255.47203063964844 C 201.97201538085938 248.91287231445312 160.47714233398438 237.25376892089844 110.13794708251953 232.32147216796875 C 76.12220001220703 229.2664337158203 36.11726379394531 232.3585662841797 -5.916738986968994 229.32061767578125" stroke-width="0.0" fill="rgb(125, 144, 162)" opacity="0.97184783" stroke="rgb(0, 0, 0)" stroke-opacity="1.0" stroke-linecap="round" stroke-linejoin="round"/>
    <path d="M -4.83601188659668 213.75143432617188 C -3.3588292598724365 217.3623809814453 -4.479797840118408 223.4949188232422 -0.710612952709198 228.76817321777344 C 25.954654693603516 220.14295959472656 38.699188232421875 236.2522430419922 54.86888885498047 224.25926208496094 C 39.87522506713867 216.5775604248047 17.797607421875 213.2335662841797 -4.83601188659668 213.75143432617188" stroke-width="0.0" fill="rgb(172, 192, 192)" opacity="0.9985784" stroke="rgb(0, 0, 0)" stroke-opacity="1.0" stroke-linecap="round" stroke-linejoin="round"/>
    <path d="M 240.86233520507812 333.80419921875 C 230.48667907714844 341.2393493652344 218.4764404296875 343.8321838378906 213.86500549316406 337.2904357910156 C 194.1455841064453 364.507568359375 196.4097900390625 382.8616943359375 193.2779998779297 402.5038146972656 C 165.67828369140625 437.936767578125 145.9254150390625 476.4685363769531 118.35868835449219 517.76904296875 C 182.358154296875 520.6512451171875 251.1398468017578 520.6198120117188 313.8393859863281 517.8589477539062 C 293.7992858886719 475.19952392578125 275.2287902832031 441.6911315917969 252.3105926513672 409.21270751953125 C 253.4967803955078 397.7622375488281 254.92271423339844 382.4295959472656 252.2611083984375 367.97723388671875 C 249.6279296875 359.1954650878906 240.8272705078125 353.56036376953125 236.74453735351562 347.863525390625 C 242.87095642089844 345.9577941894531 242.76087951660156 340.6042175292969 240.86233520507812 333.80419921875" stroke-width="0.0" fill="rgb(169, 178, 178)" opacity="1.04311" stroke="rgb(0, 0, 0)" stroke-opacity="1.0" stroke-linecap="round" stroke-linejoin="round"/>
    <path d="M 244.3716278076172 336.769775390625 C 240.71188354492188 338.82666015625 238.52146911621094 344.34063720703125 235.02244567871094 347.9344482421875 C 244.85693359375 353.6418762207031 240.9912872314453 356.9637145996094 246.0002899169922 348.90411376953125 C 248.70510864257812 344.74200439453125 249.40464782714844 339.8328552246094 244.3716278076172 336.769775390625" stroke-width="0.0" fill="rgb(173, 182, 182)" opacity="1.0000128" stroke="rgb(0, 0, 0)" stroke-opacity="1.0" stroke-linecap="round" stroke-linejoin="round"/>
    <path d="M 223.27223205566406 309.4744567871094 C 227.64602661132812 313.9587707519531 227.93460083007812 319.3546447753906 234.457763671875 315.7445068359375 C 233.34681701660156 317.8170166015625 235.0464630126953 323.457275390625 235.6102294921875 327.6209716796875 C 242.20481872558594 319.7637023925781 247.19708251953125 315.4173278808594 265.2340087890625 315.02801513671875 C 250.79513549804688 313.2582092285156 244.3085174560547 312.8441467285156 243.66864013671875 313.414306640625 C 281.4000244140625 308.8951721191406 287.0020751953125 315.16680908203125 301.3249816894531 316.7638854980469 C 304.3897399902344 323.4074401855469 300.87176513671875 320.7962646484375 291.8382873535156 322.3011169433594 C 297.107666015625 323.88702392578125 294.8782043457031 325.23480224609375 293.6692199707031 329.604736328125 C 286.11688232421875 330.08441162109375 260.7948303222656 330.2548522949219 250.52435302734375 330.5109558105469 C 246.24346923828125 344.6175231933594 257.364013671875 347.38739013671875 257.7023010253906 360.75750732421875 C 259.7104797363281 376.8330993652344 259.6490173339844 395.03814697265625 256.8352966308594 415.39154052734375 C 279.9519958496094 443.2908020019531 296.09234619140625 477.4969482421875 310.5424499511719 518.9716796875 C 375.10888671875 520.1851196289062 442.8526611328125 518.4249267578125 518.277587890625 518.0927124023438 C 518.3638305664062 444.05206298828125 518.4017333984375 377.0381164550781 518.7098999023438 310.7044982910156 C 413.32611083984375 308.382080078125 319.1410827636719 310.04974365234375 223.27223205566406 309.4744567871094" stroke-width="0.0" fill="rgb(123, 142, 162)" opacity="0.99740857" stroke="rgb(0, 0, 0)" stroke-opacity="1.0" stroke-linecap="round" stroke-linejoin="round"/>
    <path d="M -7.29722785949707 304.5606994628906 C -8.199127197265625 368.94989013671875 -7.868991851806641 438.40618896484375 -7.2553935050964355 518.038818359375 C 39.58998489379883 518.28515625 79.6830825805664 518.3173217773438 119.66268920898438 513.9614868164062 C 143.75946044921875 475.3432312011719 167.091064453125 438.5582580566406 191.0872039794922 401.91619873046875 C 194.48300170898438 392.7254943847656 184.6965789794922 393.13775634765625 188.9467010498047 379.2398376464844 C 194.17950439453125 372.3966369628906 196.88241577148438 363.6922302246094 201.653564453125 350.5581359863281 C 197.23089599609375 351.64306640625 201.11692810058594 347.22088623046875 198.97052001953125 343.00341796875 C 200.893798828125 338.9558410644531 208.21401977539062 339.8213806152344 206.47640991210938 339.5794677734375 C 205.8799591064453 329.2112731933594 211.66525268554688 327.7944641113281 207.2808074951172 319.31500244140625 C 188.6527099609375 316.382568359375 171.1904296875 317.68438720703125 159.4192657470703 318.94610595703125 C 150.9685516357422 318.3397521972656 150.18138122558594 317.0658264160156 147.98451232910156 310.7848205566406 C 150.61021423339844 308.6045837402344 156.0450897216797 312.271484375 154.8259735107422 306.91888427734375 C 104.7905502319336 305.2781982421875 52.6595344543457 305.82891845703125 -7.29722785949707 304.5606994628906" stroke-width="0.0" fill="rgb(123, 141, 158)" opacity="0.9971174" stroke="rgb(0, 0, 0)" stroke-opacity="1.0" stroke-linecap="round" stroke-linejoin="round"/>
    <path d="M -7.489239692687988 226.9267120361328 C -6.975912570953369 255.37559509277344 -7.083583831787109 279.3467102050781 -3.9204843044281006 302.4104309082031 C 71.29144287109375 302.9781494140625 142.81002807617188 303.70068359375 216.69972229003906 303.57647705078125 C 225.13919067382812 303.2324523925781 226.4393310546875 302.7843017578125 227.28822326660156 296.0438232421875 C 228.33380126953125 293.1289978027344 228.0848846435547 282.9468688964844 224.795166015625 284.3170166015625 C 210.3189697265625 275.1646728515625 193.81971740722656 268.5150451660156 181.14572143554688 258.052490234375 C 184.61123657226562 257.9259033203125 187.55215454101562 255.0438232421875 193.83590698242188 253.1614990234375 C 187.51339721679688 252.2370147705078 182.16888427734375 253.03890991210938 181.09266662597656 250.279296875 C 189.5492401123047 249.6217498779297 197.20472717285156 249.00613403320312 206.65687561035156 247.9812774658203 C 173.28680419921875 233.44833374023438 133.54649353027344 235.99562072753906 100.91902160644531 225.75856018066406 C 65.0748519897461 224.05477905273438 40.500247955322266 234.78541564941406 -7.489239692687988 226.9267120361328" stroke-width="0.0" fill="rgb(76, 93, 124)" opacity="1.0179459" stroke="rgb(0, 0, 0)" stroke-opacity="1.0" stroke-linecap="round" stroke-linejoin="round"/>
    <path d="M 269.7958984375 281.1946716308594 C 263.1448059082031 277.3448486328125 266.72808837890625 284.4161071777344 265.7229919433594 294.052001953125 C 273.7937316894531 296.1905822753906 266.2980041503906 302.6631774902344 282.3113708496094 304.8179931640625 C 354.3924560546875 307.2990417480469 430.7359313964844 307.7232360839844 517.702392578125 307.3992004394531 C 519.5355224609375 295.1425476074219 519.838134765625 278.47979736328125 518.8348388671875 269.35858154296875 C 494.2003173828125 269.0765686035156 486.81787109375 256.5945739746094 468.2421875 256.18792724609375 C 411.72479248046875 257.8779296875 354.4573669433594 258.9508972167969 307.5868225097656 253.67291259765625 C 286.07781982421875 259.2862854003906 272.7359313964844 265.98858642578125 269.7958984375 281.1946716308594" stroke-width="0.0" fill="rgb(97, 117, 145)" opacity="0.9525825" stroke="rgb(0, 0, 0)" stroke-opacity="1.0" stroke-linecap="round" stroke-linejoin="round"/>
    <path d="M 245.2217559814453 259.1347351074219 C 255.42144775390625 263.52423095703125 264.48272705078125 266.8325500488281 272.6447448730469 271.5738525390625 C 282.2054443359375 266.8116149902344 287.61273193359375 263.1395263671875 294.68585205078125 257.87286376953125 C 274.7942199707031 250.95159912109375 267.61090087890625 254.40809631347656 245.2217559814453 259.1347351074219" stroke-width="0.0" fill="rgb(151, 180, 185)" opacity="1.0099046" stroke="rgb(0, 0, 0)" stroke-opacity="1.0" stroke-linecap="round" stroke-linejoin="round"/>
    <path d="M 227.64356994628906 339.3583679199219 C 221.27264404296875 343.6812744140625 232.8113555908203 336.3889465332031 243.36595153808594 339.3409118652344 C 244.9664306640625 338.1113586425781 243.29351806640625 332.5550537109375 243.91885375976562 330.47210693359375 C 234.43490600585938 326.27691650390625 230.94412231445312 325.18017578125 227.64356994628906 339.3583679199219" stroke-width="0.0" fill="rgb(99, 100, 113)" opacity="0.9813077" stroke="rgb(0, 0, 0)" stroke-opacity="1.0" stroke-linecap="round" stroke-linejoin="round"/>
    <path d="M 258.2820739746094 387.632080078125 C 254.673095703125 388.0755920410156 256.2358093261719 394.42974853515625 255.73300170898438 400.228515625 C 258.6888732910156 399.3530578613281 261.33563232421875 403.00091552734375 261.4086608886719 402.6166076660156 C 260.1705322265625 396.9983825683594 263.7807922363281 388.53204345703125 258.2820739746094 387.632080078125" stroke-width="0.0" fill="rgb(66, 71, 84)" opacity="1.006241" stroke="rgb(0, 0, 0)" stroke-opacity="1.0" stroke-linecap="round" stroke-linejoin="round"/>
    <path d="M 231.26573181152344 332.943603515625 C 227.2825927734375 332.87713623046875 233.97561645507812 341.04144287109375 222.82125854492188 342.97662353515625 C 219.2120819091797 340.69775390625 215.3792266845703 334.6191711425781 210.2250213623047 340.3103942871094 C 199.7381134033203 361.61376953125 194.7146453857422 379.1005554199219 193.1370391845703 406.04876708984375 C 194.22727966308594 412.751220703125 196.93296813964844 420.4325866699219 202.0532989501953 424.5595397949219 C 212.07176208496094 429.7013244628906 227.95327758789062 428.3809509277344 241.7847442626953 433.42413330078125 C 251.01828002929688 433.41748046875 248.48089599609375 425.88458251953125 251.3098907470703 419.2711181640625 C 254.1050262451172 411.6615295410156 253.84193420410156 393.38421630859375 252.4273223876953 379.6189880371094 C 251.89779663085938 370.1439514160156 249.75038146972656 363.5696716308594 245.4871063232422 356.78240966796875 C 241.93836975097656 353.10968017578125 235.3551483154297 350.9247741699219 233.511474609375 347.66229248046875 C 236.38023376464844 345.6435852050781 238.934326171875 342.9339599609375 241.02972412109375 337.9765625 C 239.34852600097656 331.4751281738281 237.07984924316406 330.6418151855469 231.26573181152344 332.943603515625" stroke-width="0.0" fill="rgb(133, 137, 150)" opacity="0.8450001" stroke="rgb(0, 0, 0)" stroke-opacity="1.0" stroke-linecap="round" stroke-linejoin="round"/>
    <path d="M 140.72096252441406 482.86248779296875 C 133.08108520507812 493.8145446777344 125.85493469238281 501.2039794921875 121.10270690917969 517.3607788085938 C 130.76893615722656 518.990966796875 135.83062744140625 518.41162109375 137.08900451660156 513.2175903320312 C 140.77984619140625 502.48223876953125 143.95684814453125 497.4400634765625 140.72096252441406 482.86248779296875" stroke-width="0.0" fill="rgb(175, 183, 185)" opacity="0.9950331" stroke="rgb(0, 0, 0)" stroke-opacity="1.0" stroke-linecap="round" stroke-linejoin="round"/>
    <path d="M 181.94998168945312 417.02685546875 C 177.07359313964844 421.4349670410156 173.8756103515625 428.79791259765625 169.98973083496094 435.76617431640625 C 179.84169006347656 437.87615966796875 181.7994384765625 432.0050048828125 185.40341186523438 426.0589904785156 C 185.29452514648438 422.9375 185.34608459472656 419.7035827636719 181.94998168945312 417.02685546875" stroke-width="0.0" fill="rgb(170, 178, 179)" opacity="0.9944663" stroke="rgb(0, 0, 0)" stroke-opacity="1.0" stroke-linecap="round" stroke-linejoin="round"/>
    <path d="M 256.33526611328125 411.58502197265625 C 252.4001922607422 437.24676513671875 250.08351135253906 453.1588439941406 243.83070373535156 471.0063171386719 C 243.9585723876953 485.476318359375 247.54660034179688 496.9515380859375 248.7947998046875 518.4411010742188 C 272.07061767578125 519.5354614257812 295.99639892578125 522.4301147460938 312.4268493652344 513.6453247070312 C 293.8565979003906 476.8648681640625 276.0088195800781 445.2559814453125 256.33526611328125 411.58502197265625" stroke-width="0.0" fill="rgb(173, 179, 181)" opacity="1.0108747" stroke="rgb(0, 0, 0)" stroke-opacity="1.0" stroke-linecap="round" stroke-linejoin="round"/>
    <path d="M 231.76112365722656 426.1829528808594 C 228.37811279296875 429.5475769042969 222.63998413085938 428.05889892578125 219.3148956298828 428.2440185546875 C 216.52609252929688 434.3716735839844 218.37814331054688 444.1318359375 215.4685821533203 447.1618957519531 C 211.60186767578125 444.9586486816406 204.2666473388672 446.87939453125 203.33407592773438 447.1783142089844 C 195.62498474121094 466.1776428222656 191.53504943847656 488.81671142578125 185.34083557128906 517.7736206054688 C 204.06643676757812 520.5828247070312 230.35140991210938 520.2342529296875 248.95823669433594 518.5441284179688 C 246.247802734375 479.1537780761719 238.58602905273438 453.8340759277344 231.76112365722656 426.1829528808594" stroke-width="0.0" fill="rgb(137, 144, 154)" opacity="1.0404636" stroke="rgb(0, 0, 0)" stroke-opacity="1.0" stroke-linecap="round" stroke-linejoin="round"/>
    <path d="M 195.20155334472656 420.6924743652344 C 189.57493591308594 420.6007385253906 184.9378662109375 423.40838623046875 184.0284881591797 425.42620849609375 C 184.80364990234375 436.7298278808594 181.77613830566406 449.9088439941406 183.50192260742188 459.98309326171875 C 192.34788513183594 452.38153076171875 189.39682006835938 447.339111328125 194.4008026123047 459.45977783203125 C 198.22291564941406 439.76446533203125 199.87242126464844 431.1209716796875 195.20155334472656 420.6924743652344" stroke-width="0.0" fill="rgb(99, 99, 105)" opacity="0.89824134" stroke="rgb(0, 0, 0)" stroke-opacity="1.0" stroke-linecap="round" stroke-linejoin="round"/>
    <path d="M 478.1335754394531 519.629638671875 C 485.70758056640625 520.6561889648438 495.52947998046875 520.7698364257812 516.8239135742188 520.5139770507812 C 518.6243896484375 509.57403564453125 517.6355590820312 503.94915771484375 516.5350952148438 498.23431396484375 C 504.4041748046875 498.8474426269531 495.7869873046875 500.0646667480469 488.5977783203125 499.89703369140625 C 487.91595458984375 503.16497802734375 485.99542236328125 506.9890441894531 478.1335754394531 519.629638671875" stroke-width="0.0" fill="rgb(63, 66, 86)" opacity="1.0626652" stroke="rgb(0, 0, 0)" stroke-opacity="1.0" stroke-linecap="round" stroke-linejoin="round"/>
    <path d="M 199.45347595214844 425.6385192871094 C 204.50636291503906 433.6842956542969 199.45233154296875 441.6501770019531 204.82862854003906 445.59918212890625 C 211.7160186767578 444.9612121582031 207.5901336669922 435.91986083984375 210.38265991210938 429.3263854980469 C 213.75474548339844 436.17718505859375 210.23788452148438 446.0431823730469 213.27745056152344 445.33099365234375 C 220.9619598388672 443.81817626953125 213.87051391601562 435.4773864746094 218.78909301757812 429.04669189453125 C 212.44754028320312 428.6281433105469 206.41175842285156 425.1470642089844 199.45347595214844 425.6385192871094" stroke-width="0.0" fill="rgb(119, 107, 117)" opacity="0.9581866" stroke="rgb(0, 0, 0)" stroke-opacity="1.0" stroke-linecap="round" stroke-linejoin="round"/>
    <path d="M -1.8984744548797607 254.88670349121094 C -3.787790298461914 270.9071960449219 -5.426446437835693 286.28289794921875 -7.22336483001709 301.159423828125 C 83.75959777832031 303.4104919433594 171.5992431640625 304.1636047363281 244.331298828125 302.69854736328125 C 232.6284637451172 280.7166442871094 212.17034912109375 273.8301696777344 191.10604858398438 268.3570251464844 C 166.08917236328125 261.0009765625 142.6329345703125 253.464111328125 112.83545684814453 248.0327911376953 C 75.39615631103516 247.521484375 34.97069549560547 247.95608520507812 -1.8984744548797607 254.88670349121094" stroke-width="0.0" fill="rgb(82, 103, 134)" opacity="0.95185894" stroke="rgb(0, 0, 0)" stroke-opacity="1.0" stroke-linecap="round" stroke-linejoin="round"/>
    <path d="M 342.14190673828125 262.4914245605469 C 348.28436279296875 268.8938293457031 352.5599670410156 279.46826171875 357.8015441894531 289.1647033691406 C 370.0632629394531 288.6977844238281 386.88311767578125 289.14898681640625 402.59747314453125 289.2528991699219 C 412.5250549316406 293.6009521484375 420.87957763671875 299.62713623046875 425.5439147949219 306.3464050292969 C 454.6871643066406 308.0824279785156 484.37835693359375 306.1542053222656 518.0582885742188 307.7572021484375 C 518.1807861328125 291.5928649902344 519.6185913085938 277.119140625 517.0763549804688 266.0679626464844 C 495.0693664550781 273.0105895996094 492.7763671875 258.5316162109375 476.4266052246094 256.756103515625 C 436.44635009765625 252.1365966796875 403.2406005859375 261.2669677734375 382.08563232421875 253.07723999023438 C 360.6184997558594 256.5419921875 349.0165100097656 256.4461669921875 342.14190673828125 262.4914245605469" stroke-width="0.0" fill="rgb(101, 127, 157)" opacity="0.9274063" stroke="rgb(0, 0, 0)" stroke-opacity="1.0" stroke-linecap="round" stroke-linejoin="round"/>
    <path d="M 6.211785316467285 226.69515991210938 C -9.008451461791992 232.2103271484375 -6.602321147918701 243.22389221191406 -5.993292331695557 254.98585510253906 C 37.80609893798828 251.3616485595703 75.39169311523438 245.3383331298828 107.4828109741211 247.62179565429688 C 155.6051025390625 254.68362426757812 191.27044677734375 267.14324951171875 225.9134521484375 283.8533630371094 C 238.70504760742188 279.33453369140625 248.9508819580078 277.1153869628906 264.3150634765625 276.21209716796875 C 272.2257080078125 269.5432434082031 283.4524230957031 268.54132080078125 290.8163146972656 259.3973693847656 C 277.8029479980469 255.35708618164062 269.1519775390625 263.939697265625 258.8275146484375 260.7606201171875 C 226.90138244628906 251.53317260742188 199.25059509277344 240.74398803710938 161.3148956298828 233.78994750976562 C 137.96746826171875 232.78443908691406 118.9053726196289 231.1090087890625 90.13192749023438 223.0337677001953 C 61.31292724609375 223.73727416992188 47.82062530517578 234.48275756835938 6.211785316467285 226.69515991210938" stroke-width="0.0" fill="rgb(117, 148, 170)" opacity="0.82095474" stroke="rgb(0, 0, 0)" stroke-opacity="1.0" stroke-linecap="round" stroke-linejoin="round"/>
    <path d="M 377.35955810546875 295.6454772949219 C 377.91827392578125 299.2359924316406 381.5461730957031 301.9584045410156 379.2289733886719 306.8158874511719 C 396.2203063964844 308.41339111328125 413.51043701171875 309.7893371582031 427.5177001953125 306.8489990234375 C 418.9484558105469 297.7477722167969 410.8731384277344 291.8843994140625 402.60723876953125 288.5538635253906 C 391.4722595214844 289.4830017089844 385.8014831542969 293.1791687011719 377.35955810546875 295.6454772949219" stroke-width="0.0" fill="rgb(78, 95, 127)" opacity="0.99916995" stroke="rgb(0, 0, 0)" stroke-opacity="1.0" stroke-linecap="round" stroke-linejoin="round"/>
    <path d="M 139.4047088623047 488.8710021972656 C 155.199951171875 486.393798828125 173.0360565185547 487.32855224609375 190.4983367919922 486.89727783203125 C 192.17713928222656 486.2574462890625 194.4691619873047 480.40283203125 192.1000518798828 474.9874267578125 C 176.79689025878906 474.3281555175781 159.33316040039062 475.5743408203125 146.39747619628906 473.607666015625 C 142.9596710205078 477.702880859375 139.92758178710938 483.6905212402344 139.4047088623047 488.8710021972656" stroke-width="0.0" fill="rgb(191, 202, 195)" opacity="0.99733984" stroke="rgb(0, 0, 0)" stroke-opacity="1.0" stroke-linecap="round" stroke-linejoin="round"/>
    <path d="M 358.2301940917969 288.359130859375 C 358.913330078125 284.9094543457031 355.309814453125 281.2715148925781 352.7015380859375 279.18243408203125 C 348.5440979003906 260.2097473144531 328.63592529296875 257.0683898925781 309.3625183105469 248.0867919921875 C 294.2904968261719 256.6839294433594 283.1744079589844 269.78082275390625 261.7365417480469 278.5594177246094 C 253.56918334960938 276.6347961425781 240.9747314453125 279.6088562011719 221.4384002685547 283.49993896484375 C 241.10488891601562 292.8046569824219 257.69818115234375 297.94989013671875 272.7431640625 299.946044921875 C 301.0447998046875 299.7150573730469 326.767578125 297.1337585449219 351.0401916503906 295.1703186035156 C 360.40130615234375 290.9250793457031 367.13427734375 289.8687438964844 358.2301940917969 288.359130859375" stroke-width="0.0" fill="rgb(106, 133, 160)" opacity="0.99302596" stroke="rgb(0, 0, 0)" stroke-opacity="1.0" stroke-linecap="round" stroke-linejoin="round"/>
    <path d="M -1.7121338844299316 495.2148742675781 C -2.1060073375701904 501.1788024902344 -3.9565672874450684 506.65167236328125 -4.285322666168213 520.4676513671875 C 42.73381805419922 520.2188110351562 81.9138412475586 519.8760375976562 125.6622085571289 512.619873046875 C 90.67375946044922 507.6999206542969 80.15901184082031 491.39111328125 51.56937789916992 490.9701232910156 C 36.636940002441406 490.99505615234375 15.967493057250977 493.1137390136719 -1.7121338844299316 495.2148742675781" stroke-width="0.0" fill="rgb(72, 80, 101)" opacity="1.0000756" stroke="rgb(0, 0, 0)" stroke-opacity="1.0" stroke-linecap="round" stroke-linejoin="round"/>
    <path d="M 486.0891418457031 502.99169921875 C 452.7702331542969 501.5402526855469 422.93377685546875 504.627685546875 393.36944580078125 504.00543212890625 C 384.0935974121094 506.426513671875 377.96429443359375 504.2536315917969 375.6687927246094 517.5465087890625 C 408.3672790527344 519.8828125 445.1578063964844 518.7626342773438 481.4918212890625 518.3744506835938 C 484.2074890136719 511.3639831542969 485.67169189453125 508.68701171875 486.0891418457031 502.99169921875" stroke-width="0.0" fill="rgb(69, 72, 88)" opacity="0.9986538" stroke="rgb(0, 0, 0)" stroke-opacity="1.0" stroke-linecap="round" stroke-linejoin="round"/>
    <path d="M 255.6476593017578 387.6975402832031 C 254.62770080566406 402.9005432128906 258.76934814453125 422.11181640625 253.61123657226562 423.4028015136719 C 267.600830078125 422.6051025390625 268.8609313964844 424.62762451171875 268.5615539550781 416.77520751953125 C 260.9512634277344 399.3656005859375 269.9017333984375 387.18865966796875 255.6476593017578 387.6975402832031" stroke-width="0.0" fill="rgb(98, 108, 121)" opacity="0.91702116" stroke="rgb(0, 0, 0)" stroke-opacity="1.0" stroke-linecap="round" stroke-linejoin="round"/>
    <path d="M 16.281970977783203 406.7028503417969 C 8.133062362670898 402.86346435546875 6.252443313598633 409.48492431640625 -3.5285682678222656 409.37158203125 C -5.100396156311035 415.2569580078125 -8.693951606750488 420.9229736328125 -0.46929970383644104 418.08966064453125 C 8.949216842651367 415.8193664550781 15.634049415588379 414.86102294921875 16.281970977783203 406.7028503417969" stroke-width="0.0" fill="rgb(77, 92, 113)" opacity="1.000347" stroke="rgb(0, 0, 0)" stroke-opacity="1.0" stroke-linecap="round" stroke-linejoin="round"/>
    <path d="M -9.582932472229004 329.02471923828125 C -4.871790409088135 335.28826904296875 -4.8854851722717285 333.42816162109375 -3.6287717819213867 333.361328125 C 10.06151294708252 330.0874328613281 16.86686897277832 331.5461730957031 18.779142379760742 330.19403076171875 C 18.687536239624023 323.97406005859375 8.720412254333496 330.572509765625 -9.582932472229004 329.02471923828125" stroke-width="0.0" fill="rgb(107, 125, 140)" opacity="0.9992231" stroke="rgb(0, 0, 0)" stroke-opacity="1.0" stroke-linecap="round" stroke-linejoin="round"/>
    <path d="M 237.35301208496094 331.1971130371094 C 234.27252197265625 329.53973388671875 232.37612915039062 332.0875549316406 229.33273315429688 333.5871276855469 C 228.57586669921875 339.8922119140625 228.3928680419922 345.2309875488281 231.71063232421875 346.4600830078125 C 237.1844940185547 347.87506103515625 240.03758239746094 342.82098388671875 240.10800170898438 342.4504089355469 C 242.85630798339844 333.3423156738281 240.5061798095703 334.41058349609375 237.35301208496094 331.1971130371094" stroke-width="0.0" fill="rgb(92, 83, 96)" opacity="0.99427634" stroke="rgb(0, 0, 0)" stroke-opacity="1.0" stroke-linecap="round" stroke-linejoin="round"/>
    <path d="M 219.91754150390625 342.55157470703125 C 218.43661499023438 337.2487487792969 215.20529174804688 336.5935363769531 212.19085693359375 337.74456787109375 C 207.422119140625 340.7161865234375 205.97268676757812 342.6156005859375 207.31529235839844 350.04095458984375 C 206.99185180664062 352.2841491699219 215.0354766845703 350.9765319824219 217.03683471679688 349.4255065917969 C 219.6309356689453 347.4283752441406 220.87716674804688 346.4374084472656 219.91754150390625 342.55157470703125" stroke-width="0.0" fill="rgb(56, 56, 65)" opacity="1.0029144" stroke="rgb(0, 0, 0)" stroke-opacity="1.0" stroke-linecap="round" stroke-linejoin="round"/>
    <path d="M 230.24586486816406 380.4557800292969 C 232.5417022705078 398.7463684082031 235.38504028320312 418.5526428222656 235.92031860351562 437.5527038574219 C 238.5531005859375 446.24652099609375 239.3880157470703 453.64483642578125 250.55694580078125 446.5653076171875 C 253.25717163085938 430.73944091796875 254.49928283691406 407.4800109863281 255.81031799316406 382.4564208984375 C 252.77626037597656 379.30523681640625 242.42449951171875 381.8677062988281 230.24586486816406 380.4557800292969" stroke-width="0.0" fill="rgb(81, 93, 109)" opacity="0.980822" stroke="rgb(0, 0, 0)" stroke-opacity="1.0" stroke-linecap="round" stroke-linejoin="round"/>
    <path d="M 243.75967407226562 337.7203674316406 C 237.51939392089844 345.2048034667969 230.52041625976562 348.40692138671875 228.61158752441406 352.26605224609375 C 227.5751953125 364.47357177734375 226.7139434814453 373.9991760253906 231.2211456298828 383.4830627441406 C 238.50955200195312 378.9191589355469 247.57101440429688 380.2840881347656 256.62493896484375 379.9986572265625 C 256.8820495605469 360.5362854003906 253.47303771972656 347.73590087890625 243.75967407226562 337.7203674316406" stroke-width="0.0" fill="rgb(140, 144, 153)" opacity="0.8916795" stroke="rgb(0, 0, 0)" stroke-opacity="1.0" stroke-linecap="round" stroke-linejoin="round"/>
    <path d="M 216.68719482421875 353.6545104980469 C 210.1123504638672 353.03643798828125 206.1013641357422 353.40289306640625 202.77809143066406 356.8912048339844 C 199.30780029296875 358.83709716796875 197.13519287109375 364.01849365234375 196.16656494140625 369.79486083984375 C 194.50962829589844 382.0050964355469 193.18154907226562 392.2330017089844 194.2382354736328 408.1515808105469 C 200.0012664794922 411.2561340332031 195.10438537597656 422.5937805175781 202.0767059326172 427.0881042480469 C 211.6744384765625 426.5927734375 221.5980682373047 428.52374267578125 227.9922637939453 425.359619140625 C 227.84080505371094 406.2750549316406 227.60450744628906 386.77264404296875 229.42486572265625 367.77294921875 C 226.76023864746094 358.4047546386719 224.4287872314453 354.1212158203125 216.68719482421875 353.6545104980469" stroke-width="0.0" fill="rgb(84, 80, 91)" opacity="0.98027474" stroke="rgb(0, 0, 0)" stroke-opacity="1.0" stroke-linecap="round" stroke-linejoin="round"/>
    <path d="M -0.4196087419986725 229.99559020996094 C -7.86004638671875 231.70193481445312 -5.930312633514404 245.96409606933594 -3.7895727157592773 256.3462829589844 C 21.449542999267578 255.61648559570312 37.713260650634766 249.9718475341797 60.05077362060547 248.5329132080078 C 54.77517318725586 241.84805297851562 52.823646545410156 236.11834716796875 51.55363845825195 236.11962890625 C 32.10729217529297 232.65008544921875 21.364946365356445 222.19046020507812 -0.4196087419986725 229.99559020996094" stroke-width="0.0" fill="rgb(87, 112, 144)" opacity="0.98674417" stroke="rgb(0, 0, 0)" stroke-opacity="1.0" stroke-linecap="round" stroke-linejoin="round"/>
    <path d="M 486.9768371582031 500.26025390625 C 485.59136962890625 502.0670471191406 485.3211364746094 508.328369140625 481.75390625 517.4703979492188 C 491.34210205078125 517.4229736328125 498.1046447753906 518.7509155273438 503.7212219238281 517.9925537109375 C 500.6028137207031 506.0665588378906 502.3077392578125 498.6917419433594 502.37890625 498.4811096191406 C 492.017578125 498.1768798828125 487.9341735839844 496.4558410644531 486.9768371582031 500.26025390625" stroke-width="0.0" fill="rgb(104, 107, 131)" opacity="0.994396" stroke="rgb(0, 0, 0)" stroke-opacity="1.0" stroke-linecap="round" stroke-linejoin="round"/>
    <path d="M 53.16434097290039 294.52294921875 C 52.394927978515625 302.5628662109375 52.72013854980469 299.228515625 58.17010498046875 301.2779235839844 C 62.143070220947266 298.4043884277344 70.93853759765625 302.47686767578125 68.47564697265625 296.1839294433594 C 70.90157318115234 294.10174560546875 59.271392822265625 295.5989990234375 53.16434097290039 294.52294921875" stroke-width="0.0" fill="rgb(94, 107, 134)" opacity="0.999832" stroke="rgb(0, 0, 0)" stroke-opacity="1.0" stroke-linecap="round" stroke-linejoin="round"/>
    <path d="M 266.28717041015625 276.4504699707031 C 273.15667724609375 284.40234375 285.7867736816406 281.51983642578125 297.5547180175781 286.15924072265625 C 299.3369140625 282.013916015625 297.69439697265625 286.2098693847656 298.6930847167969 296.0406188964844 C 325.28826904296875 299.4448547363281 344.34808349609375 293.6036071777344 366.1097412109375 285.9732971191406 C 362.7814025878906 278.0694580078125 360.1955871582031 274.22210693359375 355.4902648925781 271.192138671875 C 341.49456787109375 263.7640380859375 330.45513916015625 254.55169677734375 310.04058837890625 248.8734588623047 C 295.20513916015625 254.1173858642578 284.94268798828125 269.5699768066406 266.28717041015625 276.4504699707031" stroke-width="0.0" fill="rgb(102, 130, 158)" opacity="0.9960631" stroke="rgb(0, 0, 0)" stroke-opacity="1.0" stroke-linecap="round" stroke-linejoin="round"/>
    <path d="M 237.83218383789062 452.7066955566406 C 231.11839294433594 452.3058166503906 230.29034423828125 451.52679443359375 226.0175018310547 446.2388610839844 C 215.56381225585938 451.8641662597656 219.0237274169922 456.8125915527344 210.42970275878906 450.842041015625 C 199.37464904785156 453.5242919921875 198.6082763671875 454.9313049316406 197.77285766601562 466.080810546875 C 205.88845825195312 466.2099304199219 224.82431030273438 465.9092102050781 235.40367126464844 466.3758850097656 C 239.1075897216797 463.44073486328125 240.59954833984375 460.2840270996094 237.83218383789062 452.7066955566406" stroke-width="0.0" fill="rgb(116, 120, 135)" opacity="1.000955" stroke="rgb(0, 0, 0)" stroke-opacity="1.0" stroke-linecap="round" stroke-linejoin="round"/>
    <path d="M 188.1565704345703 421.93994140625 C 179.99342346191406 425.5387878417969 181.1465606689453 432.9879455566406 187.0799102783203 451.4571533203125 C 179.82395935058594 453.8294677734375 185.6802978515625 451.10015869140625 193.7999725341797 447.7572021484375 C 198.2200927734375 450.919677734375 197.04632568359375 443.89727783203125 199.36734008789062 437.003173828125 C 196.79513549804688 428.4534606933594 193.8922576904297 422.594970703125 188.1565704345703 421.93994140625" stroke-width="0.0" fill="rgb(62, 60, 67)" opacity="0.9620831" stroke="rgb(0, 0, 0)" stroke-opacity="1.0" stroke-linecap="round" stroke-linejoin="round"/>
    <path d="M 257.80615234375 399.1075134277344 C 257.0193176269531 401.9482116699219 257.34918212890625 414.4060974121094 256.376708984375 424.93524169921875 C 259.8128356933594 422.4090270996094 265.5122985839844 423.5722961425781 268.1913146972656 422.51544189453125 C 268.2929382324219 409.8194885253906 265.3125915527344 402.8157958984375 257.80615234375 399.1075134277344" stroke-width="0.0" fill="rgb(113, 133, 150)" opacity="1.000553" stroke="rgb(0, 0, 0)" stroke-opacity="1.0" stroke-linecap="round" stroke-linejoin="round"/>
    <path d="M 199.76092529296875 426.8146057128906 C 203.83880615234375 433.908447265625 201.5839080810547 448.2503662109375 203.7974395751953 448.0516357421875 C 211.45751953125 449.8876953125 205.82052612304688 438.1820068359375 209.86550903320312 429.4129943847656 C 206.8621063232422 427.32427978515625 203.39305114746094 424.3335266113281 199.76092529296875 426.8146057128906" stroke-width="0.0" fill="rgb(107, 89, 96)" opacity="0.9846214" stroke="rgb(0, 0, 0)" stroke-opacity="1.0" stroke-linecap="round" stroke-linejoin="round"/>
    <path d="M 221.33143615722656 428.5945129394531 C 216.9641876220703 427.0697021484375 212.0742645263672 427.260009765625 211.67437744140625 429.9245300292969 C 215.05633544921875 435.93646240234375 210.0256805419922 448.8913269042969 214.5377655029297 447.9591369628906 C 219.67843627929688 448.2138977050781 216.63136291503906 436.0487365722656 221.33143615722656 428.5945129394531" stroke-width="0.0" fill="rgb(113, 92, 99)" opacity="0.990784" stroke="rgb(0, 0, 0)" stroke-opacity="1.0" stroke-linecap="round" stroke-linejoin="round"/>
    <path d="M 183.4886932373047 442.03717041015625 C 187.91015625 444.2900085449219 188.42359924316406 445.1412048339844 187.174560546875 440.8099060058594 C 187.7959747314453 445.67156982421875 188.75218200683594 456.9596252441406 187.62893676757812 463.60772705078125 C 179.73777770996094 457.23956298828125 183.2578582763672 455.6805725097656 183.4886932373047 442.03717041015625" stroke-width="0.0" fill="rgb(78, 76, 82)" opacity="0.98477536" stroke="rgb(0, 0, 0)" stroke-opacity="1.0" stroke-linecap="round" stroke-linejoin="round"/>
    <path d="M 343.8214416503906 288.1535949707031 C 343.96868896484375 289.6653137207031 343.80462646484375 292.64794921875 339.66082763671875 294.2760925292969 C 346.6045837402344 292.3739318847656 352.0867614746094 292.0350646972656 359.7929992675781 287.27362060546875 C 353.8877868652344 287.62823486328125 348.3936462402344 285.49688720703125 343.8214416503906 288.1535949707031" stroke-width="0.0" fill="rgb(121, 146, 170)" opacity="0.99904406" stroke="rgb(0, 0, 0)" stroke-opacity="1.0" stroke-linecap="round" stroke-linejoin="round"/>
    <path d="M 455.4238586425781 304.6723937988281 C 456.75390625 307.5113525390625 455.62213134765625 309.6368408203125 454.2604675292969 309.50872802734375 C 462.5170593261719 307.4948425292969 465.74932861328125 311.849609375 463.7028503417969 305.3507995605469 C 466.74920654296875 303.4977722167969 459.14093017578125 306.0412902832031 455.4238586425781 304.6723937988281" stroke-width="0.0" fill="rgb(109, 132, 160)" opacity="0.99968386" stroke="rgb(0, 0, 0)" stroke-opacity="1.0" stroke-linecap="round" stroke-linejoin="round"/>
    <path d="M 411.98309326171875 305.2972412109375 C 411.9862365722656 307.9698181152344 409.94793701171875 308.6449890136719 413.7573547363281 308.08538818359375 C 416.6534118652344 308.4294128417969 418.60821533203125 309.07562255859375 419.2814025878906 307.055419921875 C 418.1385803222656 304.0765686035156 416.5608215332031 302.4446716308594 411.98309326171875 305.2972412109375" stroke-width="0.0" fill="rgb(95, 112, 141)" opacity="1.0004908" stroke="rgb(0, 0, 0)" stroke-opacity="1.0" stroke-linecap="round" stroke-linejoin="round"/>
    <path d="M 195.4752197265625 399.3959655761719 C 197.18438720703125 411.58380126953125 197.46987915039062 420.2275390625 200.50502014160156 426.46331787109375 C 209.46383666992188 427.1607666015625 221.25868225097656 427.8943786621094 228.11085510253906 425.3233337402344 C 228.04620361328125 418.1590881347656 227.91323852539062 408.3528137207031 228.26856994628906 398.6378173828125 C 219.26373291015625 401.65777587890625 207.71279907226562 398.29705810546875 195.4752197265625 399.3959655761719" stroke-width="0.0" fill="rgb(54, 56, 78)" opacity="0.9933258" stroke="rgb(0, 0, 0)" stroke-opacity="1.0" stroke-linecap="round" stroke-linejoin="round"/>
    <path d="M 226.2816619873047 357.83941650390625 C 212.6421661376953 349.6435852050781 207.49609375 352.95074462890625 199.3041534423828 358.4145202636719 C 194.38076782226562 373.4353332519531 192.7323455810547 388.5714416503906 193.61598205566406 411.7408752441406 C 198.16148376464844 406.34136962890625 199.09622192382812 399.95703125 205.00555419921875 398.59185791015625 C 209.32162475585938 399.4244079589844 219.64141845703125 397.8807067871094 228.032470703125 400.8500061035156 C 226.64686584472656 378.3741760253906 232.91384887695312 368.34686279296875 226.2816619873047 357.83941650390625" stroke-width="0.0" fill="rgb(88, 76, 83)" opacity="0.95010066" stroke="rgb(0, 0, 0)" stroke-opacity="1.0" stroke-linecap="round" stroke-linejoin="round"/>
  </g>
</svg>
