<?xml version="1.0" ?>
<svg xmlns="http://www.w3.org/2000/svg" version="1.1" width="512" height="512">
  <defs/>
  <g>
    <path d="M -3.2407755851745605 -3.740028142929077 C -2.263824462890625 170.3333282470703 -0.9406479597091675 340.6666564941406 -0.3867962658405304 518.1607055664062 C 169.87313842773438 518.819091796875 339.8788146972656 519.8119506835938 518.4584350585938 520.5887451171875 C 518.8466796875 341.2875671386719 519.04931640625 170.66627502441406 519.2189331054688 -3.3194682598114014 C 340.6666564941406 -3.7277042865753174 170.3333282470703 -3.80336856842041 -3.2407755851745605 -3.740028142929077" stroke-width="0.0" fill="rgb(189, 212, 191)" opacity="0.856083" stroke="rgb(0, 0, 0)" stroke-opacity="1.0" stroke-linecap="round" stroke-linejoin="round"/>
    <path d="M -6.430037975311279 228.8062286376953 C -6.283961296081543 325.0387268066406 -6.6063690185546875 418.0924377441406 -6.690269947052002 521.0122680664062 C 170.6623992919922 521.048583984375 341.2352294921875 520.9156494140625 519.1964111328125 520.4542846679688 C 519.7625732421875 425.8544921875 520.9530639648438 340.760986328125 521.2151489257812 263.3567199707031 C 429.097412109375 256.48040771484375 335.0998840332031 258.7413330078125 243.0636444091797 255.52651977539062 C 202.1154022216797 249.18600463867188 160.79119873046875 237.4783935546875 109.1226577758789 232.10289001464844 C 77.26744079589844 229.35499572753906 37.75125503540039 233.18475341796875 -6.430037975311279 228.8062286376953" stroke-width="0.0" fill="rgb(123, 141, 160)" opacity="0.97890884" stroke="rgb(0, 0, 0)" stroke-opacity="1.0" stroke-linecap="round" stroke-linejoin="round"/>
    <path d="M -5.545721530914307 214.1770782470703 C -3.516895294189453 217.33001708984375 -4.4717607498168945 223.2408447265625 0.9921325445175171 228.7458038330078 C 24.523927688598633 220.4770050048828 32.74156188964844 236.67312622070312 53.91398620605469 224.24118041992188 C 39.18227767944336 217.2018585205078 17.304641723632812 211.94580078125 -5.545721530914307 214.1770782470703" stroke-width="0.0" fill="rgb(173, 192, 192)" opacity="0.9975615" stroke="rgb(0, 0, 0)" stroke-opacity="1.0" stroke-linecap="round" stroke-linejoin="round"/>
    <path d="M 243.30213928222656 333.298828125 C 228.74220275878906 339.833984375 219.33676147460938 343.5921630859375 213.50660705566406 337.4899597167969 C 194.20494079589844 367.00189208984375 195.90414428710938 382.3728332519531 193.15919494628906 402.44476318359375 C 165.9807891845703 438.0140075683594 145.75799560546875 476.37054443359375 117.62689971923828 518.2276611328125 C 182.25677490234375 521.6598510742188 251.26539611816406 521.6617431640625 314.5569152832031 518.4214477539062 C 293.11663818359375 475.966796875 275.899169921875 440.66363525390625 252.22181701660156 409.8312072753906 C 253.81822204589844 397.92559814453125 255.27757263183594 383.3029479980469 252.30946350097656 368.7967529296875 C 248.7321319580078 358.6724548339844 241.71849060058594 351.88525390625 235.32850646972656 346.46185302734375 C 243.2610626220703 342.65234375 245.96356201171875 338.5820007324219 243.30213928222656 333.298828125" stroke-width="0.0" fill="rgb(163, 170, 171)" opacity="1.0062255" stroke="rgb(0, 0, 0)" stroke-opacity="1.0" stroke-linecap="round" stroke-linejoin="round"/>
    <path d="M 245.71136474609375 337.8440856933594 C 242.1538543701172 339.9065246582031 239.13111877441406 345.17645263671875 234.21900939941406 347.0027160644531 C 245.09213256835938 353.0362548828125 237.0814208984375 355.9176025390625 246.31448364257812 349.24810791015625 C 249.106201171875 346.3747863769531 248.91839599609375 339.0525207519531 245.71136474609375 337.8440856933594" stroke-width="0.0" fill="rgb(174, 184, 184)" opacity="1.0018792" stroke="rgb(0, 0, 0)" stroke-opacity="1.0" stroke-linecap="round" stroke-linejoin="round"/>
    <path d="M 222.76075744628906 309.7578125 C 228.92176818847656 313.6073303222656 227.2834014892578 319.7917175292969 234.2374267578125 315.6971740722656 C 234.21290588378906 318.20025634765625 234.0430145263672 324.1628112792969 236.2736053466797 327.20147705078125 C 242.53558349609375 320.2204284667969 246.92529296875 315.80096435546875 266.0421447753906 314.03045654296875 C 251.0157012939453 314.8734130859375 243.4187774658203 312.1588134765625 244.11192321777344 313.27154541015625 C 287.4373779296875 308.87518310546875 285.31317138671875 316.16796875 300.6871337890625 316.54510498046875 C 304.9592590332031 324.8671875 301.79156494140625 320.1962585449219 293.0283203125 322.755126953125 C 298.8669738769531 326.648193359375 294.18267822265625 323.2968444824219 294.1857604980469 330.20867919921875 C 286.87408447265625 328.76171875 260.52142333984375 331.3553466796875 250.04644775390625 330.14007568359375 C 246.0437469482422 342.79437255859375 257.6739807128906 346.8197937011719 258.1636047363281 360.73211669921875 C 258.9204406738281 378.1864318847656 260.06024169921875 395.9445495605469 257.4564208984375 414.68328857421875 C 278.0554504394531 445.001953125 296.3741149902344 477.96923828125 313.8180847167969 518.6680908203125 C 374.9613342285156 521.105224609375 442.78955078125 519.1613159179688 518.9306030273438 518.7708129882812 C 519.0208129882812 444.0531005859375 519.0563354492188 377.03887939453125 519.9397583007812 310.4700012207031 C 410.8199157714844 308.15594482421875 318.4129333496094 309.9844665527344 222.76075744628906 309.7578125" stroke-width="0.0" fill="rgb(123, 142, 162)" opacity="0.9931632" stroke="rgb(0, 0, 0)" stroke-opacity="1.0" stroke-linecap="round" stroke-linejoin="round"/>
    <path d="M -8.239513397216797 304.311279296875 C -9.112164497375488 368.802978515625 -8.668892860412598 438.29571533203125 -7.915172576904297 518.6822509765625 C 39.581214904785156 518.9336547851562 79.67640686035156 518.9515991210938 119.15489959716797 513.7770385742188 C 143.9617919921875 475.5780334472656 166.8763427734375 438.2778015136719 191.0740509033203 401.89471435546875 C 194.47821044921875 390.06396484375 183.90040588378906 396.0434875488281 188.8809814453125 377.8072814941406 C 194.49012756347656 371.56182861328125 196.38827514648438 363.5880432128906 201.9303741455078 351.0328674316406 C 196.0309600830078 349.9466247558594 201.93446350097656 346.1441955566406 199.1422576904297 343.207763671875 C 199.73162841796875 339.0704345703125 208.07212829589844 340.3559265136719 206.58111572265625 337.5382995605469 C 204.2620849609375 324.8972473144531 211.7518310546875 328.3241882324219 207.648193359375 319.32000732421875 C 187.88922119140625 316.824462890625 171.1915283203125 317.73809814453125 157.30067443847656 319.1847229003906 C 149.90357971191406 317.7360534667969 150.94947814941406 317.53253173828125 147.7845001220703 311.60174560546875 C 149.62896728515625 307.6809997558594 155.22296142578125 312.64874267578125 155.5198516845703 306.8215637207031 C 105.52342224121094 305.446044921875 53.10783004760742 305.6228942871094 -8.239513397216797 304.311279296875" stroke-width="0.0" fill="rgb(122, 141, 157)" opacity="0.9949493" stroke="rgb(0, 0, 0)" stroke-opacity="1.0" stroke-linecap="round" stroke-linejoin="round"/>
    <path d="M -8.754378318786621 226.77593994140625 C -7.4776434898376465 255.40782165527344 -7.667367935180664 279.3875732421875 -4.3241987228393555 301.86181640625 C 71.11013793945312 302.9943542480469 143.38287353515625 304.2679443359375 215.52969360351562 303.5410461425781 C 225.27557373046875 303.3194274902344 225.6104278564453 303.3790283203125 227.4693145751953 295.9754943847656 C 228.10604858398438 293.3729248046875 227.98927307128906 280.5708312988281 224.0754852294922 283.8902587890625 C 210.30604553222656 274.8782958984375 193.511962890625 268.7999572753906 180.46484375 258.0926513671875 C 184.74559020996094 257.751953125 187.79104614257812 255.306396484375 193.51734924316406 252.95791625976562 C 187.6991729736328 252.25314331054688 181.97698974609375 252.6985321044922 181.81784057617188 250.4042205810547 C 189.62213134765625 250.30909729003906 197.0852508544922 247.9271240234375 208.55062866210938 248.8313751220703 C 171.3690948486328 232.3056640625 132.39842224121094 236.54786682128906 102.81342315673828 226.16314697265625 C 64.29994201660156 223.13522338867188 43.73037338256836 234.76181030273438 -8.754378318786621 226.77593994140625" stroke-width="0.0" fill="rgb(73, 90, 123)" opacity="1.008845" stroke="rgb(0, 0, 0)" stroke-opacity="1.0" stroke-linecap="round" stroke-linejoin="round"/>
    <path d="M 268.66278076171875 280.4242858886719 C 264.7295227050781 278.4897155761719 265.71392822265625 285.8438720703125 266.189208984375 294.4864196777344 C 275.8857727050781 292.5882568359375 260.27459716796875 302.21270751953125 280.9981689453125 304.7526550292969 C 354.9093322753906 307.40704345703125 430.7891845703125 308.7803039550781 518.558349609375 306.7979431152344 C 520.4080200195312 295.18341064453125 520.7398071289062 278.3856506347656 518.595947265625 269.31170654296875 C 493.7133483886719 270.0551452636719 489.2052307128906 255.76345825195312 468.2525329589844 256.4906921386719 C 413.37933349609375 257.5464172363281 350.6144714355469 258.76397705078125 308.175048828125 253.27513122558594 C 286.5968933105469 258.7740783691406 273.568115234375 267.78277587890625 268.66278076171875 280.4242858886719" stroke-width="0.0" fill="rgb(93, 113, 142)" opacity="0.9332148" stroke="rgb(0, 0, 0)" stroke-opacity="1.0" stroke-linecap="round" stroke-linejoin="round"/>
    <path d="M 247.72247314453125 258.95941162109375 C 254.87130737304688 263.8193664550781 264.4373779296875 267.26446533203125 271.9432678222656 271.5281982421875 C 281.78118896484375 266.13653564453125 286.44989013671875 261.5584716796875 294.6438293457031 257.6112976074219 C 268.6851806640625 250.509033203125 269.403564453125 254.27053833007812 247.72247314453125 258.95941162109375" stroke-width="0.0" fill="rgb(152, 181, 186)" opacity="1.0152596" stroke="rgb(0, 0, 0)" stroke-opacity="1.0" stroke-linecap="round" stroke-linejoin="round"/>
    <path d="M 228.44740295410156 337.6281433105469 C 221.36276245117188 345.51361083984375 234.01707458496094 333.6237487792969 244.33389282226562 338.2195129394531 C 245.05299377441406 339.9092102050781 243.31312561035156 332.5028381347656 244.28021240234375 330.9087829589844 C 233.39064025878906 326.412353515625 229.96102905273438 325.0934753417969 228.44740295410156 337.6281433105469" stroke-width="0.0" fill="rgb(102, 104, 116)" opacity="0.9751157" stroke="rgb(0, 0, 0)" stroke-opacity="1.0" stroke-linecap="round" stroke-linejoin="round"/>
    <path d="M 257.7736511230469 388.01068115234375 C 254.8064727783203 387.7019348144531 256.19195556640625 394.7283020019531 255.84762573242188 400.1996154785156 C 258.5940246582031 398.91644287109375 261.61279296875 403.3157958984375 261.3669738769531 402.7772521972656 C 260.68035888671875 397.2557373046875 263.4009704589844 388.8603820800781 257.7736511230469 388.01068115234375" stroke-width="0.0" fill="rgb(66, 71, 84)" opacity="1.0081975" stroke="rgb(0, 0, 0)" stroke-opacity="1.0" stroke-linecap="round" stroke-linejoin="round"/>
    <path d="M 231.99462890625 333.18402099609375 C 226.81246948242188 333.5152587890625 234.6511993408203 339.1419677734375 222.7607421875 343.1290283203125 C 219.19757080078125 341.0926208496094 215.8090362548828 335.51788330078125 210.6186981201172 339.6092224121094 C 199.3693389892578 363.5396423339844 194.93980407714844 376.5780029296875 192.902587890625 407.2190246582031 C 195.2962646484375 412.2683410644531 196.24588012695312 421.5220031738281 201.8807373046875 424.2370910644531 C 212.6446990966797 430.1864929199219 229.9857635498047 424.9489440917969 239.4938201904297 434.28173828125 C 252.8395233154297 433.00799560546875 248.12054443359375 426.1410217285156 251.1242218017578 419.67095947265625 C 253.3546905517578 412.71435546875 254.02859497070312 391.4755859375 252.52667236328125 379.0095520019531 C 251.68756103515625 369.9390869140625 249.54046630859375 363.9647521972656 245.59652709960938 356.8089599609375 C 241.30601501464844 353.3217468261719 235.34483337402344 350.4630126953125 234.11805725097656 347.13702392578125 C 236.68777465820312 345.81256103515625 239.06544494628906 343.2118835449219 241.82586669921875 337.5322570800781 C 238.8646697998047 331.7630615234375 236.02610778808594 330.0307312011719 231.99462890625 333.18402099609375" stroke-width="0.0" fill="rgb(134, 142, 155)" opacity="0.83001757" stroke="rgb(0, 0, 0)" stroke-opacity="1.0" stroke-linecap="round" stroke-linejoin="round"/>
    <path d="M 140.3792266845703 483.6864929199219 C 133.50880432128906 494.07550048828125 125.59930419921875 501.3560485839844 120.57366180419922 517.5684204101562 C 130.84576416015625 519.5348510742188 136.00302124023438 518.9171142578125 136.9566650390625 513.3886108398438 C 139.85389709472656 500.9123840332031 144.65115356445312 497.11297607421875 140.3792266845703 483.6864929199219" stroke-width="0.0" fill="rgb(175, 183, 185)" opacity="0.9914418" stroke="rgb(0, 0, 0)" stroke-opacity="1.0" stroke-linecap="round" stroke-linejoin="round"/>
    <path d="M 182.48056030273438 417.90020751953125 C 177.14859008789062 420.9111328125 173.88685607910156 428.83990478515625 170.39303588867188 435.2646789550781 C 179.14938354492188 438.5894470214844 182.15924072265625 431.7686462402344 185.4277801513672 426.2365417480469 C 184.69508361816406 422.9534606933594 185.36544799804688 419.5717468261719 182.48056030273438 417.90020751953125" stroke-width="0.0" fill="rgb(171, 179, 180)" opacity="0.98829746" stroke="rgb(0, 0, 0)" stroke-opacity="1.0" stroke-linecap="round" stroke-linejoin="round"/>
    <path d="M 255.57427978515625 411.48516845703125 C 252.27285766601562 438.3367919921875 251.7843475341797 452.68450927734375 243.90187072753906 469.39910888671875 C 243.90232849121094 486.3114013671875 248.54197692871094 496.4463806152344 247.6286163330078 519.3507690429688 C 272.2474365234375 520.3510131835938 296.4466857910156 523.6200561523438 312.3753662109375 513.9935302734375 C 293.98345947265625 476.7916564941406 276.0426330566406 445.1752014160156 255.57427978515625 411.48516845703125" stroke-width="0.0" fill="rgb(172, 177, 179)" opacity="1.0155776" stroke="rgb(0, 0, 0)" stroke-opacity="1.0" stroke-linecap="round" stroke-linejoin="round"/>
    <path d="M 232.1054229736328 426.0954895019531 C 228.58351135253906 430.2284851074219 222.83108520507812 427.1084899902344 219.7334747314453 428.0790710449219 C 216.02578735351562 434.139892578125 219.74777221679688 445.2055358886719 213.1927490234375 447.05108642578125 C 211.27053833007812 443.5503845214844 205.9979248046875 448.4684143066406 203.23402404785156 446.6271667480469 C 195.52517700195312 465.9747619628906 191.6063690185547 488.91510009765625 184.81588745117188 518.4171752929688 C 203.94996643066406 521.4835205078125 230.4373779296875 521.0903930664062 248.54249572753906 519.7830810546875 C 246.72357177734375 477.9742736816406 238.60032653808594 454.1026611328125 232.1054229736328 426.0954895019531" stroke-width="0.0" fill="rgb(137, 144, 155)" opacity="1.0489484" stroke="rgb(0, 0, 0)" stroke-opacity="1.0" stroke-linecap="round" stroke-linejoin="round"/>
    <path d="M 195.21719360351562 420.6706237792969 C 188.64178466796875 420.5887756347656 185.1787872314453 422.6285095214844 183.8421630859375 427.7113342285156 C 184.78343200683594 437.54730224609375 181.6775665283203 451.6534729003906 183.63441467285156 460.1350402832031 C 194.69204711914062 452.0267028808594 188.07972717285156 446.29144287109375 194.39036560058594 460.49627685546875 C 198.31033325195312 440.0372619628906 199.5058135986328 431.5298156738281 195.21719360351562 420.6706237792969" stroke-width="0.0" fill="rgb(106, 105, 112)" opacity="0.8715597" stroke="rgb(0, 0, 0)" stroke-opacity="1.0" stroke-linecap="round" stroke-linejoin="round"/>
    <path d="M 478.24505615234375 520.731201171875 C 485.4002380371094 521.6465454101562 495.2768859863281 521.6427612304688 517.2817993164062 521.2681274414062 C 519.1177368164062 509.6602478027344 518.041748046875 503.9749450683594 517.37255859375 499.0958557128906 C 504.6575012207031 498.69329833984375 495.07177734375 499.57281494140625 488.6814270019531 500.0957946777344 C 487.8827209472656 503.13482666015625 486.2725830078125 507.3035583496094 478.24505615234375 520.731201171875" stroke-width="0.0" fill="rgb(60, 64, 83)" opacity="1.0709958" stroke="rgb(0, 0, 0)" stroke-opacity="1.0" stroke-linecap="round" stroke-linejoin="round"/>
    <path d="M 200.00660705566406 426.1165771484375 C 204.2228240966797 434.10723876953125 198.8203125 441.4773864746094 204.82998657226562 445.27069091796875 C 211.4461669921875 444.8310852050781 207.38706970214844 436.166015625 210.41661071777344 430.45147705078125 C 213.2885284423828 437.9193420410156 210.98196411132812 447.0955810546875 212.84326171875 445.42120361328125 C 221.8430633544922 443.0227966308594 213.88848876953125 435.18701171875 219.53912353515625 427.6593017578125 C 213.46617126464844 428.00360107421875 206.26609802246094 425.71356201171875 200.00660705566406 426.1165771484375" stroke-width="0.0" fill="rgb(123, 113, 123)" opacity="0.94241226" stroke="rgb(0, 0, 0)" stroke-opacity="1.0" stroke-linecap="round" stroke-linejoin="round"/>
    <path d="M -1.954640507698059 257.064208984375 C -3.97263503074646 270.90576171875 -5.833339214324951 286.3053894042969 -8.16202163696289 300.7342224121094 C 82.72193908691406 303.35211181640625 174.4749755859375 304.43109130859375 245.9036407470703 301.5256652832031 C 235.11004638671875 281.821533203125 208.72837829589844 278.98577880859375 190.75352478027344 269.0870056152344 C 167.40011596679688 259.5966491699219 142.05868530273438 254.51397705078125 108.4846420288086 248.08563232421875 C 77.3613510131836 246.9030303955078 37.05942916870117 250.64259338378906 -1.954640507698059 257.064208984375" stroke-width="0.0" fill="rgb(82, 103, 134)" opacity="0.92572916" stroke="rgb(0, 0, 0)" stroke-opacity="1.0" stroke-linecap="round" stroke-linejoin="round"/>
    <path d="M 341.43804931640625 263.053466796875 C 349.4261474609375 267.610595703125 351.4591064453125 280.10479736328125 358.33880615234375 289.6554870605469 C 369.85467529296875 288.49517822265625 386.92010498046875 288.60369873046875 402.41009521484375 289.8514404296875 C 412.1304931640625 293.7756042480469 419.9607849121094 300.3721008300781 424.66412353515625 306.09320068359375 C 453.47454833984375 308.22625732421875 484.6514587402344 306.19464111328125 519.0560913085938 307.63897705078125 C 518.7434692382812 291.5446472167969 520.3132934570312 276.99163818359375 518.0879516601562 265.9164123535156 C 496.0484619140625 273.94207763671875 493.348388671875 258.6478271484375 476.7809753417969 256.88690185546875 C 431.48248291015625 251.90139770507812 402.4106750488281 261.1698303222656 385.3298034667969 253.59857177734375 C 360.07220458984375 254.81927490234375 349.8230285644531 257.4337463378906 341.43804931640625 263.053466796875" stroke-width="0.0" fill="rgb(101, 128, 157)" opacity="0.90553254" stroke="rgb(0, 0, 0)" stroke-opacity="1.0" stroke-linecap="round" stroke-linejoin="round"/>
    <path d="M 12.155193328857422 227.7327117919922 C -13.987822532653809 229.11636352539062 -9.439488410949707 240.62704467773438 -5.972329139709473 255.74293518066406 C 37.23747634887695 251.32345581054688 75.73553466796875 245.24732971191406 107.4857406616211 247.84747314453125 C 155.71578979492188 254.9081573486328 191.47772216796875 266.8874206542969 225.92311096191406 284.23419189453125 C 238.93161010742188 279.0137023925781 248.03338623046875 276.6804504394531 264.5770568847656 276.3249206542969 C 272.2438659667969 269.30517578125 283.1319274902344 268.828369140625 290.9896240234375 259.13165283203125 C 278.1451110839844 256.0677795410156 270.8469543457031 263.4315185546875 257.15802001953125 261.02325439453125 C 228.1187286376953 250.24212646484375 199.89251708984375 241.78599548339844 159.00177001953125 233.3330535888672 C 135.15403747558594 233.33494567871094 121.24984741210938 231.08265686035156 88.27831268310547 222.69482421875 C 60.99566650390625 223.92230224609375 52.32756042480469 233.4424285888672 12.155193328857422 227.7327117919922" stroke-width="0.0" fill="rgb(119, 149, 172)" opacity="0.77902365" stroke="rgb(0, 0, 0)" stroke-opacity="1.0" stroke-linecap="round" stroke-linejoin="round"/>
    <path d="M 377.80194091796875 295.0411071777344 C 377.0245666503906 299.72418212890625 381.6044921875 301.4477233886719 379.60443115234375 306.3797912597656 C 394.1985168457031 308.5738830566406 414.91790771484375 309.0870361328125 426.4944152832031 307.0223693847656 C 418.29266357421875 298.3047790527344 410.64398193359375 291.9848327636719 401.7862243652344 289.3541259765625 C 390.9808349609375 289.21014404296875 385.6643981933594 292.99322509765625 377.80194091796875 295.0411071777344" stroke-width="0.0" fill="rgb(78, 95, 127)" opacity="0.998569" stroke="rgb(0, 0, 0)" stroke-opacity="1.0" stroke-linecap="round" stroke-linejoin="round"/>
    <path d="M 139.24803161621094 488.59478759765625 C 155.3626251220703 486.68402099609375 173.01893615722656 487.09912109375 190.71974182128906 486.9283447265625 C 191.67494201660156 486.7242431640625 194.0877685546875 480.1177978515625 192.3468475341797 475.0074768066406 C 176.8365936279297 474.6056213378906 159.56544494628906 475.8756408691406 146.58621215820312 473.3683776855469 C 143.2869873046875 477.64617919921875 139.25416564941406 484.0787353515625 139.24803161621094 488.59478759765625" stroke-width="0.0" fill="rgb(192, 203, 196)" opacity="0.9974955" stroke="rgb(0, 0, 0)" stroke-opacity="1.0" stroke-linecap="round" stroke-linejoin="round"/>
    <path d="M 357.90740966796875 288.529052734375 C 359.10089111328125 285.2021789550781 354.3260803222656 282.3661193847656 352.3290710449219 279.5040588378906 C 348.9038391113281 260.1263122558594 328.9552917480469 257.3352966308594 310.8543395996094 247.9923858642578 C 293.7985534667969 255.9268798828125 283.8578186035156 270.0254211425781 262.06793212890625 277.9757995605469 C 253.73741149902344 276.3153076171875 241.96043395996094 280.6532897949219 221.6415557861328 283.6307373046875 C 241.16700744628906 292.4324035644531 257.8989562988281 300.16973876953125 273.51220703125 299.6294860839844 C 300.7611083984375 300.05072021484375 327.15826416015625 297.3993835449219 351.316162109375 295.1716613769531 C 361.2236022949219 291.55389404296875 368.2680358886719 289.30499267578125 357.90740966796875 288.529052734375" stroke-width="0.0" fill="rgb(105, 133, 159)" opacity="0.9925278" stroke="rgb(0, 0, 0)" stroke-opacity="1.0" stroke-linecap="round" stroke-linejoin="round"/>
    <path d="M -1.9128823280334473 495.6854553222656 C -2.167252540588379 501.1824645996094 -4.138770580291748 506.666259765625 -4.589608669281006 521.3324584960938 C 42.81980514526367 521.1124877929688 81.99464416503906 520.7650756835938 126.23995208740234 511.93768310546875 C 87.03584289550781 509.0139465332031 82.42237854003906 490.47259521484375 50.9304084777832 491.09417724609375 C 37.41322326660156 490.7080993652344 15.153135299682617 493.07171630859375 -1.9128823280334473 495.6854553222656" stroke-width="0.0" fill="rgb(72, 80, 101)" opacity="0.9998359" stroke="rgb(0, 0, 0)" stroke-opacity="1.0" stroke-linecap="round" stroke-linejoin="round"/>
    <path d="M 486.3236389160156 503.2745361328125 C 451.9364318847656 501.52789306640625 423.0904235839844 504.65509033203125 396.895751953125 503.83514404296875 C 384.1723327636719 506.0841369628906 377.8199462890625 504.1170654296875 375.83856201171875 518.4133911132812 C 408.1629943847656 520.7451782226562 445.06243896484375 519.4852905273438 480.4831237792969 518.9895629882812 C 483.5447692871094 511.2313232421875 485.57025146484375 508.3728332519531 486.3236389160156 503.2745361328125" stroke-width="0.0" fill="rgb(69, 72, 88)" opacity="0.99729055" stroke="rgb(0, 0, 0)" stroke-opacity="1.0" stroke-linecap="round" stroke-linejoin="round"/>
    <path d="M 256.3548278808594 388.2118225097656 C 253.20294189453125 404.0262145996094 258.4828796386719 421.00616455078125 251.84567260742188 418.26556396484375 C 268.9757080078125 423.75494384765625 267.4555358886719 428.0622253417969 268.2166748046875 414.67156982421875 C 260.4122314453125 398.5679626464844 270.0253601074219 386.446044921875 256.3548278808594 388.2118225097656" stroke-width="0.0" fill="rgb(91, 100, 112)" opacity="0.89098454" stroke="rgb(0, 0, 0)" stroke-opacity="1.0" stroke-linecap="round" stroke-linejoin="round"/>
    <path d="M 16.21331214904785 406.2303771972656 C 7.727321147918701 404.05810546875 6.217503547668457 409.9717102050781 -4.110423564910889 409.0413513183594 C -5.384409427642822 415.6059875488281 -9.443191528320312 422.1674499511719 -2.223351240158081 417.74725341796875 C 8.77955150604248 416.3331298828125 16.0748348236084 415.0460510253906 16.21331214904785 406.2303771972656" stroke-width="0.0" fill="rgb(76, 92, 113)" opacity="1.0007682" stroke="rgb(0, 0, 0)" stroke-opacity="1.0" stroke-linecap="round" stroke-linejoin="round"/>
    <path d="M -10.53536319732666 328.89141845703125 C -5.095643520355225 335.4383544921875 -5.236924171447754 333.27862548828125 -4.591126918792725 333.6751708984375 C 10.621990203857422 329.3865966796875 18.054107666015625 331.588623046875 17.99696922302246 331.36981201171875 C 21.011232376098633 323.515625 8.784850120544434 330.6868591308594 -10.53536319732666 328.89141845703125" stroke-width="0.0" fill="rgb(108, 125, 141)" opacity="0.9989845" stroke="rgb(0, 0, 0)" stroke-opacity="1.0" stroke-linecap="round" stroke-linejoin="round"/>
    <path d="M 238.08322143554688 330.9888916015625 C 233.63661193847656 330.2105712890625 231.34645080566406 331.238525390625 228.91357421875 334.451904296875 C 228.90811157226562 341.1238708496094 227.4080047607422 343.988037109375 233.13168334960938 347.8563232421875 C 234.9801483154297 349.17767333984375 238.94754028320312 341.7447204589844 239.61317443847656 343.0843200683594 C 243.47723388671875 333.55865478515625 240.42303466796875 334.7745666503906 238.08322143554688 330.9888916015625" stroke-width="0.0" fill="rgb(93, 84, 96)" opacity="0.99402183" stroke="rgb(0, 0, 0)" stroke-opacity="1.0" stroke-linecap="round" stroke-linejoin="round"/>
    <path d="M 220.05332946777344 342.18695068359375 C 219.2772979736328 337.39349365234375 214.8920135498047 337.14495849609375 211.6349334716797 337.64227294921875 C 207.63165283203125 341.1629638671875 206.3201904296875 342.7496643066406 206.89508056640625 349.5091552734375 C 207.81631469726562 352.1408386230469 215.37454223632812 351.0113830566406 217.01678466796875 349.66387939453125 C 219.7039794921875 346.9432678222656 220.7098388671875 347.4603271484375 220.05332946777344 342.18695068359375" stroke-width="0.0" fill="rgb(56, 55, 64)" opacity="1.0040063" stroke="rgb(0, 0, 0)" stroke-opacity="1.0" stroke-linecap="round" stroke-linejoin="round"/>
    <path d="M 230.57810974121094 380.86126708984375 C 232.4029541015625 398.5936584472656 235.05947875976562 418.19012451171875 235.66778564453125 435.9939270019531 C 237.29953002929688 446.3514709472656 240.07762145996094 454.16156005859375 250.9687042236328 446.48040771484375 C 252.04873657226562 430.5049133300781 254.3128662109375 406.9707946777344 255.7136688232422 383.5429382324219 C 254.35931396484375 378.2333068847656 243.45494079589844 382.1709899902344 230.57810974121094 380.86126708984375" stroke-width="0.0" fill="rgb(82, 94, 109)" opacity="0.97290987" stroke="rgb(0, 0, 0)" stroke-opacity="1.0" stroke-linecap="round" stroke-linejoin="round"/>
    <path d="M 242.8201141357422 337.70166015625 C 238.73313903808594 346.66900634765625 229.4104461669922 347.2602844238281 229.26197814941406 352.0223693847656 C 225.4140625 363.2466735839844 229.1374969482422 372.3261413574219 230.9945831298828 383.87738037109375 C 237.69497680664062 378.7568054199219 247.62887573242188 380.398681640625 256.0769958496094 380.1879577636719 C 257.055419921875 359.8439025878906 254.13050842285156 347.1142578125 242.8201141357422 337.70166015625" stroke-width="0.0" fill="rgb(138, 142, 151)" opacity="0.8604181" stroke="rgb(0, 0, 0)" stroke-opacity="1.0" stroke-linecap="round" stroke-linejoin="round"/>
    <path d="M 215.83116149902344 353.4570617675781 C 209.7553253173828 353.1259460449219 206.1111297607422 353.3800048828125 202.69284057617188 356.49334716796875 C 199.7891082763672 359.3302307128906 197.1146240234375 364.2232360839844 196.17926025390625 369.5611572265625 C 194.4592742919922 382.6419982910156 192.4816436767578 391.2344970703125 194.50836181640625 408.05096435546875 C 200.2761688232422 412.0537414550781 194.90802001953125 423.143798828125 202.0168914794922 427.5373840332031 C 211.97805786132812 426.19097900390625 222.03561401367188 428.7021484375 227.9420928955078 424.7545166015625 C 228.1144561767578 406.35528564453125 227.1830291748047 387.14306640625 229.54147338867188 370.1090087890625 C 226.47032165527344 357.9180908203125 225.19668579101562 354.4462890625 215.83116149902344 353.4570617675781" stroke-width="0.0" fill="rgb(84, 80, 90)" opacity="0.98200846" stroke="rgb(0, 0, 0)" stroke-opacity="1.0" stroke-linecap="round" stroke-linejoin="round"/>
    <path d="M -1.90377676486969 230.2604522705078 C -9.18260383605957 230.3896026611328 -6.48427677154541 245.79141235351562 -4.162994384765625 256.2508850097656 C 21.800046920776367 255.95895385742188 37.429176330566406 249.59579467773438 59.15975570678711 248.92507934570312 C 54.859676361083984 242.0572967529297 53.357975006103516 235.4347381591797 51.849056243896484 235.8465576171875 C 30.228696823120117 233.16213989257812 22.792736053466797 221.3091278076172 -1.90377676486969 230.2604522705078" stroke-width="0.0" fill="rgb(88, 112, 144)" opacity="0.9822523" stroke="rgb(0, 0, 0)" stroke-opacity="1.0" stroke-linecap="round" stroke-linejoin="round"/>
    <path d="M 487.2585144042969 500.32110595703125 C 484.9837341308594 500.5546875 485.8977966308594 508.80657958984375 481.6519775390625 518.1331787109375 C 491.376708984375 517.858642578125 498.167236328125 519.28662109375 504.6435852050781 518.329345703125 C 500.58172607421875 506.0845947265625 502.62176513671875 498.4774169921875 501.9674377441406 498.1920471191406 C 491.95367431640625 497.3492126464844 488.9364013671875 496.59490966796875 487.2585144042969 500.32110595703125" stroke-width="0.0" fill="rgb(104, 107, 131)" opacity="0.9935138" stroke="rgb(0, 0, 0)" stroke-opacity="1.0" stroke-linecap="round" stroke-linejoin="round"/>
    <path d="M 53.59480285644531 294.8587646484375 C 51.99860382080078 303.64544677734375 52.30232620239258 297.69384765625 58.24026870727539 301.5003967285156 C 60.917972564697266 298.0426940917969 71.15185546875 302.9102478027344 68.94293212890625 295.89874267578125 C 69.1613998413086 294.3733825683594 58.145790100097656 295.0574951171875 53.59480285644531 294.8587646484375" stroke-width="0.0" fill="rgb(94, 107, 134)" opacity="0.999815" stroke="rgb(0, 0, 0)" stroke-opacity="1.0" stroke-linecap="round" stroke-linejoin="round"/>
    <path d="M 265.5329284667969 275.9292297363281 C 272.8257751464844 285.5008544921875 287.9843444824219 279.8066711425781 298.9114685058594 287.78009033203125 C 299.9351806640625 283.4002380371094 299.643798828125 285.96661376953125 297.6493835449219 295.7391357421875 C 324.5820007324219 300.6572570800781 342.7754211425781 293.0706481933594 365.820556640625 286.54034423828125 C 363.0293884277344 276.80316162109375 360.5928955078125 275.26068115234375 355.41424560546875 270.9690856933594 C 341.8468322753906 263.55828857421875 330.5352783203125 254.6055145263672 309.0491943359375 249.0532989501953 C 296.46441650390625 254.1289825439453 285.7648620605469 268.9620361328125 265.5329284667969 275.9292297363281" stroke-width="0.0" fill="rgb(103, 130, 158)" opacity="0.99486417" stroke="rgb(0, 0, 0)" stroke-opacity="1.0" stroke-linecap="round" stroke-linejoin="round"/>
    <path d="M 238.17367553710938 453.1195373535156 C 228.67312622070312 451.31939697265625 230.81874084472656 452.0415344238281 226.81251525878906 446.5424499511719 C 215.4212188720703 450.5068664550781 220.3191375732422 457.5126037597656 210.9281463623047 450.4530944824219 C 199.8788604736328 454.03582763671875 199.29299926757812 454.47369384765625 197.50729370117188 465.302734375 C 204.626708984375 466.9008483886719 225.27566528320312 465.2655029296875 235.89315795898438 466.21502685546875 C 238.4979705810547 464.0302734375 240.23245239257812 459.2054138183594 238.17367553710938 453.1195373535156" stroke-width="0.0" fill="rgb(116, 121, 135)" opacity="1.001251" stroke="rgb(0, 0, 0)" stroke-opacity="1.0" stroke-linecap="round" stroke-linejoin="round"/>
    <path d="M 187.80136108398438 421.8681640625 C 180.08712768554688 424.6480407714844 180.80728149414062 434.0075988769531 187.2289581298828 450.1783752441406 C 179.6490936279297 454.04205322265625 185.3878936767578 450.93951416015625 193.13613891601562 448.06500244140625 C 197.79583740234375 449.2413635253906 197.45924377441406 443.6506042480469 199.4544677734375 436.5083923339844 C 196.2486572265625 428.7066345214844 193.78421020507812 422.15283203125 187.80136108398438 421.8681640625" stroke-width="0.0" fill="rgb(60, 58, 65)" opacity="0.95328534" stroke="rgb(0, 0, 0)" stroke-opacity="1.0" stroke-linecap="round" stroke-linejoin="round"/>
    <path d="M 256.5860900878906 399.1524353027344 C 256.8187561035156 400.21746826171875 257.22705078125 414.0777587890625 256.4786682128906 423.75347900390625 C 260.267333984375 423.38531494140625 266.5654602050781 424.4635314941406 268.10516357421875 421.81646728515625 C 268.00885009765625 410.2923278808594 264.9842834472656 402.43499755859375 256.5860900878906 399.1524353027344" stroke-width="0.0" fill="rgb(113, 134, 151)" opacity="1.0036916" stroke="rgb(0, 0, 0)" stroke-opacity="1.0" stroke-linecap="round" stroke-linejoin="round"/>
    <path d="M 200.4620361328125 429.1654357910156 C 204.20895385742188 436.46923828125 203.24588012695312 451.7037658691406 202.123291015625 447.6849670410156 C 212.22740173339844 450.7168884277344 205.7249298095703 441.3458557128906 209.77906799316406 429.38031005859375 C 207.15586853027344 427.34814453125 202.25962829589844 424.34234619140625 200.4620361328125 429.1654357910156" stroke-width="0.0" fill="rgb(106, 88, 96)" opacity="0.9816415" stroke="rgb(0, 0, 0)" stroke-opacity="1.0" stroke-linecap="round" stroke-linejoin="round"/>
    <path d="M 220.95164489746094 428.61566162109375 C 216.3749542236328 427.73809814453125 212.118408203125 427.36383056640625 211.62594604492188 429.61639404296875 C 215.3267822265625 433.9803466796875 210.04872131347656 451.64678955078125 215.0076904296875 447.843017578125 C 218.8129425048828 451.0433349609375 216.7345733642578 437.3125 220.95164489746094 428.61566162109375" stroke-width="0.0" fill="rgb(113, 92, 99)" opacity="0.988027" stroke="rgb(0, 0, 0)" stroke-opacity="1.0" stroke-linecap="round" stroke-linejoin="round"/>
    <path d="M 183.20391845703125 441.2298583984375 C 186.5669708251953 446.9551086425781 187.09632873535156 447.56036376953125 185.80686950683594 441.7059326171875 C 187.76300048828125 445.39617919921875 188.91793823242188 457.1575012207031 187.5360107421875 462.5412902832031 C 177.9691162109375 456.50579833984375 184.07891845703125 459.6002197265625 183.20391845703125 441.2298583984375" stroke-width="0.0" fill="rgb(77, 75, 81)" opacity="0.97959125" stroke="rgb(0, 0, 0)" stroke-opacity="1.0" stroke-linecap="round" stroke-linejoin="round"/>
    <path d="M 343.58099365234375 287.47906494140625 C 344.34991455078125 290.01727294921875 344.1976623535156 294.7716979980469 339.62127685546875 294.6698913574219 C 345.8916931152344 291.6831359863281 351.69891357421875 291.4923095703125 357.94134521484375 287.6834411621094 C 355.1034851074219 289.9924621582031 347.93634033203125 284.1816101074219 343.58099365234375 287.47906494140625" stroke-width="0.0" fill="rgb(120, 145, 169)" opacity="0.99852264" stroke="rgb(0, 0, 0)" stroke-opacity="1.0" stroke-linecap="round" stroke-linejoin="round"/>
    <path d="M 455.38897705078125 304.4619140625 C 457.03753662109375 307.62591552734375 455.9273986816406 310.13104248046875 454.07379150390625 309.6522521972656 C 462.702392578125 307.7208251953125 465.70892333984375 312.12017822265625 463.62939453125 305.4568786621094 C 467.5487365722656 304.0662536621094 458.9767150878906 305.51300048828125 455.38897705078125 304.4619140625" stroke-width="0.0" fill="rgb(109, 132, 160)" opacity="0.99953926" stroke="rgb(0, 0, 0)" stroke-opacity="1.0" stroke-linecap="round" stroke-linejoin="round"/>
    <path d="M 411.6184387207031 305.17333984375 C 412.6538391113281 308.74713134765625 410.3165283203125 308.68060302734375 413.56378173828125 308.1142272949219 C 416.8218688964844 307.6592102050781 419.0213623046875 308.7528381347656 419.1789855957031 306.7879943847656 C 418.49078369140625 304.1221618652344 416.1747741699219 302.3144836425781 411.6184387207031 305.17333984375" stroke-width="0.0" fill="rgb(95, 112, 141)" opacity="1.0005765" stroke="rgb(0, 0, 0)" stroke-opacity="1.0" stroke-linecap="round" stroke-linejoin="round"/>
    <path d="M 196.6641387939453 401.6610107421875 C 197.65118408203125 411.6070556640625 196.46995544433594 421.7216491699219 201.21900939941406 426.9336242675781 C 209.33392333984375 426.34857177734375 222.48092651367188 428.24920654296875 227.8052215576172 425.3080749511719 C 228.07333374023438 418.5531921386719 228.6478729248047 408.0361328125 227.55999755859375 397.9408874511719 C 219.79432678222656 401.3935241699219 207.24803161621094 398.0811767578125 196.6641387939453 401.6610107421875" stroke-width="0.0" fill="rgb(54, 56, 79)" opacity="0.9914765" stroke="rgb(0, 0, 0)" stroke-opacity="1.0" stroke-linecap="round" stroke-linejoin="round"/>
    <path d="M 225.4366455078125 357.4505310058594 C 212.28964233398438 349.2217102050781 207.54750061035156 352.7270812988281 199.3330078125 358.5654296875 C 193.77206420898438 372.7445983886719 193.1396484375 388.22991943359375 194.14552307128906 410.3355712890625 C 198.97879028320312 406.70623779296875 199.3291473388672 400.1278076171875 205.7740020751953 399.1146240234375 C 208.77598571777344 399.3905334472656 219.31419372558594 398.0025634765625 228.48301696777344 400.16497802734375 C 225.48977661132812 376.76983642578125 235.2639923095703 371.9356384277344 225.4366455078125 357.4505310058594" stroke-width="0.0" fill="rgb(89, 78, 85)" opacity="0.93507004" stroke="rgb(0, 0, 0)" stroke-opacity="1.0" stroke-linecap="round" stroke-linejoin="round"/>
  </g>
</svg>
