<?xml version="1.0" ?>
<svg xmlns="http://www.w3.org/2000/svg" version="1.1" width="512" height="512">
  <defs/>
  <g>
    <path d="M -2.4598019123077393 -3.541910171508789 C -1.3223575353622437 170.3333282470703 -0.9190746545791626 340.6666564941406 -1.6841710805892944 517.9992065429688 C 169.6883087158203 518.15576171875 340.1607360839844 518.2757568359375 519.2847900390625 518.37109375 C 519.5593872070312 340.65460205078125 519.4640502929688 170.2412872314453 519.1292114257812 -3.3866806030273438 C 340.6666564941406 -3.728167772293091 170.3333282470703 -3.576425790786743 -2.4598019123077393 -3.541910171508789" stroke-width="0.0" fill="rgb(26, 17, 16)" opacity="1.0219512" stroke="rgb(0, 0, 0)" stroke-opacity="1.0" stroke-linecap="round" stroke-linejoin="round"/>
    <path d="M 5.382566928863525 286.5857238769531 C 4.2795610427856445 338.0350646972656 -14.270140647888184 362.6000671386719 -18.035301208496094 408.37799072265625 C 23.96355628967285 408.6627197265625 59.24972152709961 419.6082458496094 94.35909271240234 411.5014953613281 C 151.31619262695312 411.6922302246094 195.406005859375 419.0595397949219 243.90740966796875 419.9954528808594 C 253.56597900390625 413.16558837890625 257.285888671875 408.9910888671875 257.8592529296875 400.6065979003906 C 263.9242858886719 400.8052062988281 267.9422912597656 399.2286071777344 268.2175598144531 396.1380310058594 C 271.9024963378906 366.8187255859375 274.64874267578125 343.1249084472656 272.8984680175781 296.92706298828125 C 277.87152099609375 301.959228515625 274.888916015625 295.1263427734375 271.5752258300781 297.77886962890625 C 203.81985473632812 290.29193115234375 132.7215576171875 288.3993835449219 61.75469207763672 282.8936462402344 C 50.725826263427734 282.6484069824219 21.48369598388672 285.60467529296875 5.382566928863525 286.5857238769531" stroke-width="0.0" fill="rgb(57, 46, 45)" opacity="0.9851131" stroke="rgb(0, 0, 0)" stroke-opacity="1.0" stroke-linecap="round" stroke-linejoin="round"/>
    <path d="M -0.928225040435791 452.9746398925781 C -3.4983458518981934 472.3252868652344 -3.1802799701690674 491.65509033203125 -1.7284958362579346 518.6380615234375 C 170.69985961914062 519.1773681640625 341.63165283203125 519.8970336914062 520.4095458984375 520.3211059570312 C 520.7060546875 492.3009338378906 520.3112182617188 476.7920227050781 519.6448974609375 467.644775390625 C 498.1883239746094 467.8702697753906 483.7638244628906 467.8412170410156 479.3147277832031 468.1735534667969 C 473.9449462890625 467.02825927734375 468.1984558105469 470.08734130859375 460.76885986328125 473.60595703125 C 453.793701171875 466.3280029296875 443.36358642578125 469.0196228027344 430.158935546875 469.6607971191406 C 420.9281921386719 468.59393310546875 412.2208251953125 472.4051513671875 403.9853210449219 475.8040466308594 C 393.9096984863281 477.3455810546875 394.8477478027344 472.7743225097656 393.5718078613281 470.1324768066406 C 351.3606262207031 472.17578125 310.9198303222656 471.8956298828125 273.9275207519531 469.0325012207031 C 276.0143737792969 470.6851501464844 276.8458251953125 472.5462951660156 275.2697448730469 466.9853210449219 C 275.55731201171875 451.14935302734375 277.3570861816406 432.7288513183594 272.27679443359375 426.9349670410156 C 177.84759521484375 434.141357421875 83.8879165649414 438.2575378417969 -0.928225040435791 452.9746398925781" stroke-width="0.0" fill="rgb(94, 52, 28)" opacity="1.0610188" stroke="rgb(0, 0, 0)" stroke-opacity="1.0" stroke-linecap="round" stroke-linejoin="round"/>
    <path d="M 398.0619812011719 307.961181640625 C 383.9486083984375 293.585693359375 358.1884460449219 293.9350280761719 331.8601379394531 295.4581298828125 C 310.3624267578125 301.1398620605469 290.37652587890625 305.91888427734375 278.951416015625 317.1264953613281 C 269.43994140625 366.22314453125 278.1734924316406 409.00579833984375 278.4740905761719 468.4223937988281 C 286.8074035644531 455.01995849609375 285.5226745605469 439.3872985839844 287.946044921875 425.1922912597656 C 323.12261962890625 425.9314270019531 356.3533935546875 422.4908447265625 391.8974609375 424.36737060546875 C 399.1893615722656 419.38055419921875 405.8391418457031 424.24285888671875 410.531982421875 415.8800354003906 C 391.36639404296875 379.3446960449219 404.3006896972656 335.4734802246094 398.0619812011719 307.961181640625" stroke-width="0.0" fill="rgb(19, 9, 8)" opacity="0.9991364" stroke="rgb(0, 0, 0)" stroke-opacity="1.0" stroke-linecap="round" stroke-linejoin="round"/>
    <path d="M 47.5958251953125 268.40155029296875 C 43.07270431518555 282.2455749511719 45.7320671081543 277.3981018066406 54.82227325439453 281.48291015625 C 122.28919982910156 285.4725036621094 197.81826782226562 292.3890380859375 255.89450073242188 290.4718933105469 C 273.4919128417969 291.027587890625 274.4109191894531 288.02587890625 276.3564453125 281.85113525390625 C 275.8448181152344 273.52020263671875 273.2032470703125 266.5838928222656 266.5195617675781 263.061279296875 C 242.9880828857422 257.845703125 209.1916961669922 261.839111328125 199.1826934814453 258.4270935058594 C 172.84793090820312 250.51446533203125 156.92935180664062 239.83255004882812 143.23536682128906 228.3047637939453 C 108.5206069946289 228.64781188964844 84.8607177734375 230.247314453125 63.037261962890625 240.9435577392578 C 53.322330474853516 244.4036865234375 59.25322341918945 260.5001220703125 47.5958251953125 268.40155029296875" stroke-width="0.0" fill="rgb(43, 30, 30)" opacity="0.9085632" stroke="rgb(0, 0, 0)" stroke-opacity="1.0" stroke-linecap="round" stroke-linejoin="round"/>
    <path d="M -6.629002571105957 406.04168701171875 C -8.371434211730957 404.48876953125 -8.264124870300293 428.119384765625 -9.476058006286621 452.2919921875 C 78.01768493652344 437.5292663574219 155.16700744628906 434.847900390625 239.1306610107422 426.92291259765625 C 190.57687377929688 415.29412841796875 136.181884765625 410.46142578125 62.3603630065918 411.1259765625 C 54.429988861083984 413.4522705078125 49.52581787109375 414.0828552246094 46.56529235839844 414.3904113769531 C 77.0246810913086 414.57977294921875 49.37002182006836 415.068359375 -6.629002571105957 406.04168701171875" stroke-width="0.0" fill="rgb(57, 46, 43)" opacity="1.0201564" stroke="rgb(0, 0, 0)" stroke-opacity="1.0" stroke-linecap="round" stroke-linejoin="round"/>
    <path d="M 291.2008361816406 4.3630218505859375 C 288.458740234375 19.627809524536133 289.84735107421875 56.820281982421875 290.3006286621094 82.95299530029297 C 301.1392822265625 85.9001693725586 335.6204833984375 85.86668395996094 361.3459777832031 83.51009368896484 C 362.92791748046875 60.174407958984375 364.11676025390625 28.937042236328125 362.3785095214844 5.008978843688965 C 350.1252746582031 1.2807610034942627 312.0849304199219 2.8396382331848145 291.2008361816406 4.3630218505859375" stroke-width="0.0" fill="rgb(2, 0, 2)" opacity="0.9997223" stroke="rgb(0, 0, 0)" stroke-opacity="1.0" stroke-linecap="round" stroke-linejoin="round"/>
    <path d="M 392.60479736328125 426.4446716308594 C 361.59326171875 422.5619812011719 324.6761169433594 427.5472412109375 288.3732604980469 427.51397705078125 C 286.3479919433594 440.392578125 284.2519226074219 455.1324768066406 283.6580810546875 471.1993713378906 C 318.9452819824219 465.4144287109375 354.8717956542969 464.5392150878906 393.1368103027344 465.2470397949219 C 394.2621765136719 454.1942138671875 395.3170471191406 437.482421875 392.60479736328125 426.4446716308594" stroke-width="0.0" fill="rgb(61, 42, 48)" opacity="0.843264" stroke="rgb(0, 0, 0)" stroke-opacity="1.0" stroke-linecap="round" stroke-linejoin="round"/>
    <path d="M 190.6269073486328 205.56700134277344 C 187.91574096679688 218.7255096435547 187.26808166503906 246.71710205078125 193.34085083007812 253.71438598632812 C 207.6884002685547 260.2474365234375 235.0554962158203 259.536865234375 264.0669860839844 259.10711669921875 C 268.1883850097656 236.61460876464844 265.5260925292969 215.0951690673828 263.7433776855469 204.59979248046875 C 239.3305206298828 201.8176727294922 208.28138732910156 201.4080047607422 190.6269073486328 205.56700134277344" stroke-width="0.0" fill="rgb(1, 1, 1)" opacity="0.99958867" stroke="rgb(0, 0, 0)" stroke-opacity="1.0" stroke-linecap="round" stroke-linejoin="round"/>
    <path d="M 223.73910522460938 41.285545349121094 C 220.0948486328125 46.6901969909668 219.2625732421875 47.83284378051758 217.29248046875 60.91273498535156 C 220.1044921875 76.97134399414062 218.21270751953125 95.55744171142578 219.56065368652344 111.3189468383789 C 230.57505798339844 114.22380828857422 253.94761657714844 114.50271606445312 269.50286865234375 109.54166412353516 C 275.1651611328125 97.20891571044922 273.3959045410156 78.98703002929688 271.49853515625 52.23172378540039 C 267.5357666015625 46.22555923461914 257.6889953613281 43.83564758300781 249.72669982910156 43.990440368652344 C 253.44204711914062 40.502838134765625 235.05577087402344 40.8575553894043 223.73910522460938 41.285545349121094" stroke-width="0.0" fill="rgb(5, 2, 3)" opacity="1.0013746" stroke="rgb(0, 0, 0)" stroke-opacity="1.0" stroke-linecap="round" stroke-linejoin="round"/>
    <path d="M 158.5098114013672 44.75194549560547 C 151.10707092285156 49.69102096557617 146.59506225585938 54.704490661621094 144.97463989257812 66.77941131591797 C 144.86431884765625 78.27942657470703 143.62721252441406 84.39999389648438 147.44473266601562 94.85829162597656 C 149.79454040527344 100.44082641601562 154.49172973632812 107.46586608886719 159.07733154296875 109.63033294677734 C 170.06283569335938 114.80029296875 180.12705993652344 111.51414489746094 186.76914978027344 110.91170501708984 C 192.86412048339844 107.02815246582031 195.2611846923828 104.57772064208984 197.0887451171875 94.43231201171875 C 196.57199096679688 80.15624237060547 198.19801330566406 64.33685302734375 194.38619995117188 57.72529983520508 C 190.15524291992188 48.994693756103516 184.47137451171875 46.751705169677734 178.4571075439453 44.042484283447266 C 172.54347229003906 41.80195236206055 164.82215881347656 43.846641540527344 158.5098114013672 44.75194549560547" stroke-width="0.0" fill="rgb(3, 1, 3)" opacity="0.9985782" stroke="rgb(0, 0, 0)" stroke-opacity="1.0" stroke-linecap="round" stroke-linejoin="round"/>
    <path d="M 77.30731964111328 11.717345237731934 C 76.28926849365234 22.956195831298828 75.20079803466797 33.43827438354492 83.15457916259766 35.48853302001953 C 90.28218841552734 35.891719818115234 107.52493286132812 37.80927276611328 116.62617492675781 36.89171600341797 C 126.69842529296875 35.697330474853516 129.26612854003906 37.369998931884766 132.9817352294922 29.279504776000977 C 135.08607482910156 17.3189754486084 134.42559814453125 5.4542975425720215 131.0092315673828 3.9180374145507812 C 126.8619613647461 -0.0516689158976078 110.33522033691406 3.939413070678711 90.1855697631836 1.3064030408859253 C 82.9316635131836 3.773618459701538 79.53016662597656 2.453871726989746 77.30731964111328 11.717345237731934" stroke-width="0.0" fill="rgb(4, 1, 4)" opacity="0.9995309" stroke="rgb(0, 0, 0)" stroke-opacity="1.0" stroke-linecap="round" stroke-linejoin="round"/>
    <path d="M 519.7825317382812 421.0892639160156 C 495.9591369628906 422.4381408691406 472.005615234375 421.85955810546875 460.4844055175781 425.0566101074219 C 460.94989013671875 440.61151123046875 462.9625549316406 449.12359619140625 464.3484191894531 458.4457092285156 C 482.8811340332031 459.69073486328125 499.7903137207031 458.6783447265625 518.8917236328125 458.67047119140625 C 518.3599243164062 443.7453308105469 518.2122192382812 433.612548828125 519.7825317382812 421.0892639160156" stroke-width="0.0" fill="rgb(130, 71, 29)" opacity="0.9941272" stroke="rgb(0, 0, 0)" stroke-opacity="1.0" stroke-linecap="round" stroke-linejoin="round"/>
    <path d="M 450.2698974609375 425.19354248046875 C 435.41741943359375 425.0823669433594 420.1177062988281 424.2349548339844 407.4546813964844 428.30706787109375 C 409.27911376953125 436.72161865234375 405.9565124511719 454.4033508300781 409.50079345703125 461.4575500488281 C 422.3287048339844 464.5443115234375 439.3393859863281 462.2456359863281 453.7961730957031 460.344482421875 C 455.2435607910156 451.7294921875 455.0530090332031 441.03656005859375 450.2698974609375 425.19354248046875" stroke-width="0.0" fill="rgb(164, 120, 57)" opacity="1.0108697" stroke="rgb(0, 0, 0)" stroke-opacity="1.0" stroke-linecap="round" stroke-linejoin="round"/>
    <path d="M 462.5248718261719 423.05035400390625 C 450.193359375 422.37127685546875 449.917236328125 423.6960754394531 451.71026611328125 431.6683654785156 C 455.14825439453125 445.2874755859375 451.9725036621094 472.3801574707031 462.29022216796875 473.55914306640625 C 469.3673095703125 455.3907165527344 458.726806640625 441.62115478515625 462.5248718261719 423.05035400390625" stroke-width="0.0" fill="rgb(27, 6, 5)" opacity="0.9530553" stroke="rgb(0, 0, 0)" stroke-opacity="1.0" stroke-linecap="round" stroke-linejoin="round"/>
    <path d="M -10.940862655639648 86.10948944091797 C -11.316702842712402 139.22518920898438 -11.200233459472656 202.24435424804688 -9.512381553649902 268.03582763671875 C 0.1148771196603775 274.4637451171875 1.854200005531311 277.1888122558594 8.140722274780273 279.4372253417969 C 11.440089225769043 279.9686279296875 23.605642318725586 278.6142578125 36.98534393310547 280.6542053222656 C 39.75783157348633 262.1968688964844 58.93302536010742 264.86083984375 57.57969665527344 243.83331298828125 C 67.23158264160156 236.1508026123047 81.68514251708984 235.0575714111328 84.3941421508789 220.52700805664062 C 89.76994323730469 189.06484985351562 89.27188110351562 141.51239013671875 88.17044830322266 103.67178344726562 C 86.20111083984375 92.37608337402344 87.67261505126953 90.9246597290039 77.62830352783203 88.17877197265625 C 61.20481491088867 85.64452362060547 29.006607055664062 87.87577056884766 -10.940862655639648 86.10948944091797" stroke-width="0.0" fill="rgb(26, 15, 13)" opacity="1.0030024" stroke="rgb(0, 0, 0)" stroke-opacity="1.0" stroke-linecap="round" stroke-linejoin="round"/>
    <path d="M 513.597412109375 189.18870544433594 C 498.33984375 228.02706909179688 486.1106872558594 261.86041259765625 473.89739990234375 293.65484619140625 C 470.2486267089844 317.0686950683594 458.9872131347656 330.95953369140625 465.7782897949219 363.716552734375 C 475.345703125 378.5741271972656 495.2014465332031 395.5287780761719 517.6564331054688 425.475830078125 C 521.474365234375 338.178466796875 521.156005859375 264.6402282714844 513.597412109375 189.18870544433594" stroke-width="0.0" fill="rgb(42, 17, 9)" opacity="0.9944595" stroke="rgb(0, 0, 0)" stroke-opacity="1.0" stroke-linecap="round" stroke-linejoin="round"/>
    <path d="M 484.8219299316406 3.002223253250122 C 485.8347473144531 49.755313873291016 482.0245361328125 97.55957794189453 481.65582275390625 142.39263916015625 C 481.6977233886719 151.1210174560547 484.5028381347656 153.7960968017578 486.56951904296875 156.68722534179688 C 493.3485107421875 158.8174285888672 498.40814208984375 158.29212951660156 504.1542663574219 158.62759399414062 C 510.5986633300781 159.26612854003906 506.913330078125 167.98663330078125 518.5054931640625 176.0250244140625 C 519.3056030273438 110.52027893066406 520.6157836914062 54.52256774902344 520.1302490234375 -3.5782196521759033 C 505.40985107421875 1.8448747396469116 489.9075622558594 -1.436720609664917 484.8219299316406 3.002223253250122" stroke-width="0.0" fill="rgb(7, 2, 4)" opacity="0.9991895" stroke="rgb(0, 0, 0)" stroke-opacity="1.0" stroke-linecap="round" stroke-linejoin="round"/>
    <path d="M 186.7458038330078 -6.637965202331543 C 185.38243103027344 9.92087173461914 185.19134521484375 32.618797302246094 187.74148559570312 34.265201568603516 C 216.9504852294922 35.61310958862305 248.5563201904297 36.95216751098633 268.3792419433594 35.37723159790039 C 269.9544677734375 22.280073165893555 271.6537780761719 6.182708263397217 267.8544006347656 -8.074434280395508 C 235.89910888671875 -9.321351051330566 208.68763732910156 -8.95355224609375 186.7458038330078 -6.637965202331543" stroke-width="0.0" fill="rgb(5, 2, 4)" opacity="0.99858093" stroke="rgb(0, 0, 0)" stroke-opacity="1.0" stroke-linecap="round" stroke-linejoin="round"/>
    <path d="M 393.1763000488281 22.382444381713867 C 388.1874084472656 26.427410125732422 386.0701904296875 27.11397933959961 383.8823547363281 37.15882110595703 C 382.8742980957031 50.053672790527344 381.4261474609375 67.04061889648438 385.5746765136719 73.40785217285156 C 386.838623046875 77.29585266113281 389.45489501953125 79.63756561279297 392.3604431152344 81.94868469238281 C 403.11383056640625 85.97648620605469 413.40545654296875 83.83751678466797 422.7091979980469 81.86168670654297 C 428.7083740234375 77.72250366210938 430.03875732421875 72.08660888671875 432.1340026855469 61.06821823120117 C 431.81988525390625 48.96015548706055 433.42626953125 36.940757751464844 430.0139465332031 29.909011840820312 C 428.6886291503906 24.854955673217773 423.3712463378906 21.67394256591797 417.8386535644531 21.091693878173828 C 411.4370422363281 20.989208221435547 398.6385498046875 19.91240119934082 393.1763000488281 22.382444381713867" stroke-width="0.0" fill="rgb(6, 2, 3)" opacity="0.9979481" stroke="rgb(0, 0, 0)" stroke-opacity="1.0" stroke-linecap="round" stroke-linejoin="round"/>
    <path d="M 89.71794128417969 48.646141052246094 C 85.12590026855469 75.0907974243164 95.45104217529297 88.24283599853516 102.47164154052734 112.93795776367188 C 107.78538513183594 116.05269622802734 117.19479370117188 116.41809844970703 131.81219482421875 112.53427124023438 C 131.59068298339844 92.66466522216797 133.55618286132812 65.44689178466797 130.8192138671875 47.55752182006836 C 115.79192352294922 47.98229217529297 97.37567138671875 47.47343063354492 89.71794128417969 48.646141052246094" stroke-width="0.0" fill="rgb(15, 8, 8)" opacity="0.99499786" stroke="rgb(0, 0, 0)" stroke-opacity="1.0" stroke-linecap="round" stroke-linejoin="round"/>
    <path d="M 138.4698486328125 2.2564032077789307 C 139.79071044921875 10.987995147705078 137.94595336914062 25.144676208496094 139.7523651123047 30.481067657470703 C 152.23709106445312 31.06490707397461 165.9698944091797 32.60371780395508 175.23526000976562 30.08534049987793 C 176.36508178710938 21.358381271362305 177.5408172607422 8.404234886169434 174.02430725097656 -6.665136814117432 C 161.2826690673828 -7.077205181121826 152.96923828125 -3.086634635925293 138.4698486328125 2.2564032077789307" stroke-width="0.0" fill="rgb(17, 9, 8)" opacity="0.99708945" stroke="rgb(0, 0, 0)" stroke-opacity="1.0" stroke-linecap="round" stroke-linejoin="round"/>
    <path d="M 461.8954162597656 271.5740051269531 C 454.3444519042969 273.899169921875 444.5713806152344 275.8759765625 436.81317138671875 275.1568908691406 C 432.83355712890625 290.13934326171875 432.0073547363281 304.7492370605469 437.48699951171875 308.4256286621094 C 441.5773620605469 313.5837097167969 448.76513671875 314.21539306640625 454.75408935546875 314.1956481933594 C 461.3674621582031 302.6792907714844 462.9285583496094 289.988525390625 467.0865173339844 277.2740783691406 C 468.41064453125 272.86798095703125 464.61669921875 272.7206726074219 461.8954162597656 271.5740051269531" stroke-width="0.0" fill="rgb(32, 13, 9)" opacity="0.9970775" stroke="rgb(0, 0, 0)" stroke-opacity="1.0" stroke-linecap="round" stroke-linejoin="round"/>
    <path d="M 270.4463195800781 378.6508483886719 C 272.45361328125 399.74127197265625 254.0277557373047 400.8477478027344 248.49722290039062 419.28717041015625 C 252.5904998779297 426.43682861328125 266.9952087402344 423.00726318359375 276.0652160644531 424.6153564453125 C 275.8313903808594 403.1097106933594 272.2861022949219 388.8498229980469 270.4463195800781 378.6508483886719" stroke-width="0.0" fill="rgb(32, 22, 20)" opacity="1.0021454" stroke="rgb(0, 0, 0)" stroke-opacity="1.0" stroke-linecap="round" stroke-linejoin="round"/>
    <path d="M 89.0504379272461 206.8627471923828 C 86.15689849853516 213.66342163085938 85.65895080566406 211.99240112304688 88.9495849609375 235.25852966308594 C 85.28125 231.17721557617188 96.78118133544922 229.66905212402344 123.79911041259766 229.66802978515625 C 122.6515884399414 240.2445068359375 124.12814331054688 247.5987091064453 124.38330841064453 235.7545928955078 C 121.64097595214844 241.03005981445312 128.38992309570312 242.0172882080078 127.14280700683594 239.4856414794922 C 124.44828033447266 246.7096405029297 123.08289337158203 237.49176025390625 122.30369567871094 228.75390625 C 150.9219970703125 229.53005981445312 130.4363250732422 226.87811279296875 123.5262222290039 207.42889404296875 C 119.90354919433594 200.20523071289062 117.86373901367188 198.99977111816406 113.523681640625 197.21678161621094 C 110.5504150390625 201.6541748046875 95.3593978881836 198.18218994140625 89.0504379272461 206.8627471923828" stroke-width="0.0" fill="rgb(34, 11, 6)" opacity="1.0062333" stroke="rgb(0, 0, 0)" stroke-opacity="1.0" stroke-linecap="round" stroke-linejoin="round"/>
    <path d="M -4.71196985244751 22.789888381958008 C -8.230441093444824 37.28474044799805 -8.03631591796875 57.34524154663086 -7.595209121704102 81.17169189453125 C 9.504253387451172 82.25559997558594 25.285198211669922 83.1928482055664 36.60368728637695 81.2966079711914 C 38.69990921020508 65.03697204589844 35.25318908691406 45.42874526977539 36.411312103271484 28.468215942382812 C 28.875335693359375 23.816837310791016 9.901878356933594 23.62041664123535 -4.71196985244751 22.789888381958008" stroke-width="0.0" fill="rgb(11, 9, 11)" opacity="0.99883" stroke="rgb(0, 0, 0)" stroke-opacity="1.0" stroke-linecap="round" stroke-linejoin="round"/>
    <path d="M 433.7882080078125 312.7851257324219 C 427.6061706542969 322.8578796386719 423.5291748046875 335.95062255859375 423.90863037109375 351.0133056640625 C 428.0386962890625 352.3790283203125 439.3564453125 350.8345642089844 440.0473327636719 355.72259521484375 C 438.3659973144531 357.46417236328125 426.2735290527344 356.9627685546875 420.6714782714844 357.7068176269531 C 434.8973693847656 362.60662841796875 437.34222412109375 368.91998291015625 446.19195556640625 364.3418273925781 C 452.9361877441406 365.5788269042969 457.49786376953125 357.6652526855469 458.7167663574219 350.5115661621094 C 449.5885314941406 344.1297302246094 452.4472961425781 335.5698547363281 451.34088134765625 321.4173889160156 C 447.6801452636719 315.32666015625 440.4766845703125 312.2599792480469 433.7882080078125 312.7851257324219" stroke-width="0.0" fill="rgb(23, 10, 8)" opacity="1.0011694" stroke="rgb(0, 0, 0)" stroke-opacity="1.0" stroke-linecap="round" stroke-linejoin="round"/>
    <path d="M 445.3162841796875 391.3027038574219 C 435.8326110839844 395.2455139160156 421.9930419921875 393.464599609375 412.7975769042969 395.30621337890625 C 409.46173095703125 402.25341796875 411.03271484375 415.19427490234375 408.97216796875 429.7060546875 C 424.31268310546875 425.7033386230469 438.20880126953125 425.2315979003906 449.6576232910156 425.2378234863281 C 448.0035400390625 414.1543884277344 449.55401611328125 396.8813171386719 445.3162841796875 391.3027038574219" stroke-width="0.0" fill="rgb(18, 7, 5)" opacity="1.0161864" stroke="rgb(0, 0, 0)" stroke-opacity="1.0" stroke-linecap="round" stroke-linejoin="round"/>
    <path d="M 48.95270919799805 56.84735870361328 C 42.431243896484375 61.142822265625 45.87369918823242 69.41323852539062 44.803199768066406 80.01582336425781 C 52.61750030517578 82.89871978759766 68.45679473876953 82.8161392211914 77.37348937988281 81.25127410888672 C 80.07408142089844 73.6592025756836 79.79591369628906 60.12348937988281 75.82405090332031 58.015296936035156 C 71.13090515136719 55.833221435546875 54.8813591003418 57.765594482421875 48.95270919799805 56.84735870361328" stroke-width="0.0" fill="rgb(6, 3, 5)" opacity="1.0004345" stroke="rgb(0, 0, 0)" stroke-opacity="1.0" stroke-linecap="round" stroke-linejoin="round"/>
    <path d="M 380.5650329589844 2.875333547592163 C 378.8915710449219 13.320342063903809 403.2640380859375 9.459162712097168 427.9858093261719 9.86849308013916 C 434.9079284667969 8.800551414489746 437.31573486328125 8.404350280761719 438.0616760253906 -10.746721267700195 C 407.3677978515625 -12.437792778015137 383.1548767089844 -13.69769287109375 380.5650329589844 2.875333547592163" stroke-width="0.0" fill="rgb(9, 4, 4)" opacity="1.0006617" stroke="rgb(0, 0, 0)" stroke-opacity="1.0" stroke-linecap="round" stroke-linejoin="round"/>
    <path d="M 145.4884033203125 183.5233154296875 C 157.30836486816406 184.64385986328125 146.43875122070312 182.67453002929688 144.66436767578125 190.41810607910156 C 153.24365234375 193.61016845703125 166.22166442871094 196.41395568847656 178.08131408691406 210.77114868164062 C 179.4347686767578 203.8309326171875 184.52110290527344 201.62490844726562 194.88510131835938 200.83335876464844 C 216.6837921142578 200.8687744140625 240.16188049316406 202.13284301757812 261.8880310058594 203.91798400878906 C 268.393798828125 221.96685791015625 263.8009338378906 249.4331512451172 272.5213928222656 248.27415466308594 C 277.7792663574219 250.59254455566406 269.0965270996094 250.84939575195312 269.52838134765625 258.4895935058594 C 286.93804931640625 264.8883056640625 309.8268737792969 262.9867248535156 314.1372375488281 268.79571533203125 C 315.6651306152344 272.0773010253906 303.43609619140625 270.6576843261719 288.5201416015625 271.94427490234375 C 278.4494934082031 278.9379577636719 281.41607666015625 289.86236572265625 274.0334167480469 296.2032775878906 C 265.39007568359375 295.5223388671875 253.65138244628906 295.0525207519531 266.7421875 299.0419921875 C 268.84619140625 301.6128845214844 261.31219482421875 301.6835632324219 268.1343688964844 299.78570556640625 C 266.4952392578125 296.2665710449219 275.0374450683594 297.0727233886719 273.1339111328125 316.2726745605469 C 298.4339294433594 302.5168762207031 319.8563537597656 292.47705078125 347.4843444824219 291.06646728515625 C 380.876708984375 285.7623596191406 390.4864196777344 295.0141296386719 412.6278076171875 296.782470703125 C 418.98681640625 269.759033203125 407.2175598144531 257.0120849609375 410.36334228515625 229.21994018554688 C 413.87493896484375 199.23562622070312 424.88922119140625 192.8257598876953 436.7521057128906 172.3188018798828 C 343.95068359375 172.0037078857422 262.83587646484375 168.52626037597656 170.289306640625 170.13186645507812 C 153.9141387939453 172.05821228027344 154.0872039794922 173.68028259277344 145.4884033203125 183.5233154296875" stroke-width="0.0" fill="rgb(10, 2, 1)" opacity="1.0003058" stroke="rgb(0, 0, 0)" stroke-opacity="1.0" stroke-linecap="round" stroke-linejoin="round"/>
    <path d="M 507.85272216796875 176.29757690429688 C 497.025634765625 170.01646423339844 477.60162353515625 177.52867126464844 469.4212341308594 179.03036499023438 C 459.54010009765625 181.70895385742188 450.9261169433594 186.70443725585938 444.9602966308594 192.49176025390625 C 438.9131774902344 199.66720581054688 433.5537109375 209.90185546875 432.51263427734375 220.91114807128906 C 430.922607421875 232.97796630859375 431.279296875 255.384521484375 437.1790771484375 258.22467041015625 C 454.2822265625 258.23284912109375 465.69903564453125 255.752685546875 478.2903137207031 247.57974243164062 C 484.5519104003906 221.1642608642578 500.710693359375 203.44081115722656 507.85272216796875 176.29757690429688" stroke-width="0.0" fill="rgb(15, 5, 3)" opacity="0.99937564" stroke="rgb(0, 0, 0)" stroke-opacity="1.0" stroke-linecap="round" stroke-linejoin="round"/>
    <path d="M 104.26446533203125 181.0144500732422 C 120.68651580810547 200.00189208984375 127.78553771972656 224.10089111328125 144.6914520263672 232.51524353027344 C 155.31454467773438 229.46572875976562 143.1078338623047 244.2362518310547 144.95982360839844 242.5438690185547 C 145.5798797607422 249.6221923828125 143.0529022216797 253.38369750976562 145.467041015625 253.30235290527344 C 143.9710235595703 250.33335876464844 141.7018280029297 230.75054931640625 156.46131896972656 236.93475341796875 C 149.1149444580078 222.9097900390625 145.300048828125 214.42835998535156 136.98477172851562 203.93569946289062 C 128.07408142089844 198.81936645507812 118.3234634399414 192.1046905517578 104.26446533203125 181.0144500732422" stroke-width="0.0" fill="rgb(31, 17, 15)" opacity="0.9692424" stroke="rgb(0, 0, 0)" stroke-opacity="1.0" stroke-linecap="round" stroke-linejoin="round"/>
    <path d="M 389.9447937011719 462.1146240234375 C 350.4007873535156 464.34503173828125 310.22686767578125 465.4580383300781 271.4556579589844 470.1981506347656 C 316.0118103027344 473.8945617675781 354.3322448730469 473.6303405761719 393.4408874511719 471.00408935546875 C 391.4536437988281 466.6549987792969 394.94940185546875 459.75640869140625 389.9447937011719 462.1146240234375" stroke-width="0.0" fill="rgb(10, 3, 5)" opacity="0.9487435" stroke="rgb(0, 0, 0)" stroke-opacity="1.0" stroke-linecap="round" stroke-linejoin="round"/>
    <path d="M 476.8042297363281 249.22244262695312 C 462.02801513671875 256.163818359375 449.6336669921875 258.13165283203125 434.94921875 257.5985107421875 C 431.8632507324219 259.8285827636719 434.0024719238281 272.0052795410156 437.97662353515625 276.025634765625 C 449.9773864746094 275.2492370605469 460.18865966796875 272.3848571777344 470.3035583496094 268.6814270019531 C 473.7518310546875 265.64013671875 475.99346923828125 260.6245422363281 476.8042297363281 249.22244262695312" stroke-width="0.0" fill="rgb(9, 1, 2)" opacity="0.9994933" stroke="rgb(0, 0, 0)" stroke-opacity="1.0" stroke-linecap="round" stroke-linejoin="round"/>
    <path d="M 519.6104736328125 458.71356201171875 C 495.7138671875 458.6402587890625 481.0075988769531 459.46319580078125 465.5655822753906 457.6635437011719 C 467.2813720703125 457.8033752441406 466.66448974609375 464.6332092285156 467.14715576171875 468.1643981933594 C 477.2293395996094 468.2811279296875 494.9317626953125 468.0056457519531 520.89306640625 467.6681213378906 C 518.8992919921875 462.6681213378906 518.0828247070312 459.3404846191406 519.6104736328125 458.71356201171875" stroke-width="0.0" fill="rgb(34, 5, 2)" opacity="0.86909056" stroke="rgb(0, 0, 0)" stroke-opacity="1.0" stroke-linecap="round" stroke-linejoin="round"/>
    <path d="M 455.02398681640625 458.57720947265625 C 441.395263671875 461.7549133300781 426.9791564941406 462.84716796875 407.5013122558594 461.735595703125 C 411.4177551269531 457.46551513671875 409.2478332519531 467.25390625 410.63836669921875 470.04150390625 C 425.8036804199219 471.69305419921875 442.8652648925781 466.99249267578125 455.0404052734375 469.6835021972656 C 455.4215393066406 466.2820739746094 454.14141845703125 457.673828125 455.02398681640625 458.57720947265625" stroke-width="0.0" fill="rgb(24, 6, 1)" opacity="0.8850074" stroke="rgb(0, 0, 0)" stroke-opacity="1.0" stroke-linecap="round" stroke-linejoin="round"/>
    <path d="M 92.0362777709961 81.12133026123047 C 92.15962982177734 77.25292205810547 92.07646942138672 78.08454132080078 88.31372833251953 82.72540283203125 C 90.75861358642578 121.30419158935547 89.19658660888672 161.20126342773438 91.2418212890625 201.10194396972656 C 98.83625793457031 200.3700714111328 105.98808288574219 197.4244842529297 105.56187438964844 194.27931213378906 C 100.2389144897461 147.30206298828125 110.98347473144531 120.93377685546875 95.14395141601562 92.81251525878906 C 97.75414276123047 89.77379608154297 91.81600952148438 86.63140106201172 92.0362777709961 81.12133026123047" stroke-width="0.0" fill="rgb(12, 5, 5)" opacity="0.9991724" stroke="rgb(0, 0, 0)" stroke-opacity="1.0" stroke-linecap="round" stroke-linejoin="round"/>
    <path d="M 130.35195922851562 196.27684020996094 C 146.30374145507812 203.10231018066406 139.2696533203125 228.1092987060547 158.018310546875 227.8101348876953 C 157.12925720214844 243.91983032226562 158.00247192382812 237.74449157714844 171.7888946533203 239.3517608642578 C 185.9843292236328 239.38926696777344 175.8603515625 254.46531677246094 186.2440185546875 251.05682373046875 C 184.39854431152344 228.97132873535156 186.39151000976562 214.10963439941406 178.3646697998047 210.49307250976562 C 171.3445587158203 201.16671752929688 160.58538818359375 195.40023803710938 146.04489135742188 190.41932678222656 C 144.4600830078125 191.2368621826172 137.7572784423828 192.2981414794922 130.35195922851562 196.27684020996094" stroke-width="0.0" fill="rgb(9, 1, 2)" opacity="0.9996308" stroke="rgb(0, 0, 0)" stroke-opacity="1.0" stroke-linecap="round" stroke-linejoin="round"/>
    <path d="M 55.45969772338867 247.80770874023438 C 59.73868942260742 267.92779541015625 44.75334548950195 263.21551513671875 45.90214538574219 277.03765869140625 C 53.21601486206055 284.4904479980469 76.26890563964844 280.3987121582031 91.36356353759766 285.72943115234375 C 90.29314422607422 323.497802734375 89.4420394897461 364.94873046875 91.79664611816406 405.3609619140625 C 137.29335021972656 411.3127746582031 184.95130920410156 415.4205017089844 236.90728759765625 418.7089538574219 C 237.86611938476562 371.5281066894531 245.7972412109375 342.9208068847656 241.42562866210938 293.21612548828125 C 252.42715454101562 289.3873291015625 263.2728576660156 293.6775207519531 270.3487854003906 281.9826354980469 C 270.33258056640625 273.48321533203125 270.7702331542969 268.6708984375 265.7184143066406 263.7353820800781 C 243.28160095214844 258.0418701171875 206.97752380371094 262.1371765136719 194.82135009765625 257.0020446777344 C 173.0728302001953 250.42250061035156 157.90121459960938 242.10800170898438 144.06289672851562 229.81399536132812 C 132.56544494628906 232.16250610351562 111.13374328613281 233.2601318359375 94.9910659790039 231.5187530517578 C 78.71216583251953 236.1237335205078 65.68865203857422 237.81617736816406 55.45969772338867 247.80770874023438" stroke-width="0.0" fill="rgb(50, 47, 42)" opacity="0.82683873" stroke="rgb(0, 0, 0)" stroke-opacity="1.0" stroke-linecap="round" stroke-linejoin="round"/>
    <path d="M 396.1622314453125 472.5341796875 C 373.50433349609375 471.0148620605469 311.19769287109375 471.91424560546875 276.6414489746094 471.55560302734375 C 272.3294982910156 460.892333984375 279.84906005859375 435.6854248046875 274.326171875 428.2178039550781 C 271.928955078125 426.25860595703125 248.76353454589844 428.5369567871094 240.3632049560547 427.74554443359375 C 158.8295440673828 435.9441223144531 74.62642669677734 437.4564208984375 -3.063770055770874 453.6151428222656 C -8.826393127441406 459.18853759765625 -8.39720344543457 474.2962951660156 -3.1784307956695557 484.58856201171875 C 3.46298885345459 498.15032958984375 -0.43103769421577454 506.96575927734375 6.185195446014404 502.3189392089844 C 103.4778060913086 496.5055236816406 197.5423583984375 488.741943359375 302.27783203125 487.8722839355469 C 335.32562255859375 482.5438537597656 377.7615661621094 489.7833251953125 396.1622314453125 472.5341796875" stroke-width="0.0" fill="rgb(89, 73, 71)" opacity="0.95053893" stroke="rgb(0, 0, 0)" stroke-opacity="1.0" stroke-linecap="round" stroke-linejoin="round"/>
    <path d="M 515.3341674804688 470.8890686035156 C 342.797607421875 483.0360107421875 172.97280883789062 492.4613952636719 3.1351585388183594 502.0743408203125 C -1.2913683652877808 507.2155456542969 -5.6035895347595215 505.5010070800781 -5.855910778045654 518.5625610351562 C 169.5260467529297 518.6819458007812 340.0354309082031 519.1292724609375 518.0390014648438 519.802490234375 C 519.8436889648438 496.6246032714844 521.5624389648438 482.0717468261719 515.3341674804688 470.8890686035156" stroke-width="0.0" fill="rgb(24, 8, 9)" opacity="1.0016309" stroke="rgb(0, 0, 0)" stroke-opacity="1.0" stroke-linecap="round" stroke-linejoin="round"/>
    <path d="M -9.353105545043945 286.6343994140625 C -9.030547142028809 310.12896728515625 -8.498457908630371 340.883056640625 -8.812874794006348 376.6914978027344 C 26.906970977783203 374.66461181640625 59.51999282836914 376.34698486328125 89.38245391845703 373.3162841796875 C 92.12957000732422 348.7823181152344 91.29716491699219 318.4988708496094 89.88497924804688 285.59881591796875 C 64.55887603759766 281.5551452636719 37.355064392089844 280.01409912109375 -9.353105545043945 286.6343994140625" stroke-width="0.0" fill="rgb(6, 3, 3)" opacity="1.0015235" stroke="rgb(0, 0, 0)" stroke-opacity="1.0" stroke-linecap="round" stroke-linejoin="round"/>
    <path d="M 396.8475341796875 306.211181640625 C 393.9589538574219 299.9751892089844 385.93988037109375 297.6164855957031 377.177001953125 295.356689453125 C 356.56610107421875 291.8242492675781 339.3668518066406 293.1081848144531 321.9852294921875 297.23638916015625 C 306.4394836425781 300.8132019042969 292.84490966796875 305.7608947753906 281.628662109375 314.2919921875 C 275.1565246582031 323.27020263671875 275.34906005859375 323.963623046875 278.13360595703125 343.05206298828125 C 317.4630432128906 343.59576416015625 347.445556640625 360.4267883300781 372.3316650390625 364.13916015625 C 400.2523193359375 365.81231689453125 393.80609130859375 358.91094970703125 397.7659912109375 348.71697998046875 C 397.6916198730469 330.5416564941406 400.99444580078125 312.71282958984375 396.8475341796875 306.211181640625" stroke-width="0.0" fill="rgb(29, 25, 25)" opacity="0.9966955" stroke="rgb(0, 0, 0)" stroke-opacity="1.0" stroke-linecap="round" stroke-linejoin="round"/>
    <path d="M -4.911493301391602 454.1044006347656 C 63.774696350097656 439.60198974609375 131.99024963378906 434.6271057128906 208.02772521972656 429.44866943359375 C 211.0838623046875 425.0718688964844 222.73887634277344 430.8691101074219 218.7619171142578 420.75433349609375 C 176.03602600097656 419.34942626953125 139.48818969726562 413.04730224609375 103.6098861694336 412.45843505859375 C 68.4636459350586 410.3567199707031 30.515487670898438 415.74322509765625 -6.249533176422119 414.44036865234375 C -6.530761241912842 423.6065673828125 -6.922826766967773 434.79931640625 -4.911493301391602 454.1044006347656" stroke-width="0.0" fill="rgb(13, 9, 10)" opacity="1.0429654" stroke="rgb(0, 0, 0)" stroke-opacity="1.0" stroke-linecap="round" stroke-linejoin="round"/>
    <path d="M 89.57269287109375 374.86370849609375 C 63.19587326049805 375.0955505371094 27.576396942138672 376.54034423828125 -10.255355834960938 377.24237060546875 C -5.974170684814453 390.6978454589844 -6.4928107261657715 404.1265869140625 -6.38461446762085 415.7972717285156 C 30.399015426635742 413.8202209472656 60.722354888916016 413.35089111328125 89.9788818359375 409.43463134765625 C 85.50741577148438 397.7823181152344 92.02754974365234 392.119140625 89.57269287109375 374.86370849609375" stroke-width="0.0" fill="rgb(100, 77, 78)" opacity="0.9693338" stroke="rgb(0, 0, 0)" stroke-opacity="1.0" stroke-linecap="round" stroke-linejoin="round"/>
    <path d="M 274.1612548828125 333.0760192871094 C 276.1065979003906 335.49212646484375 275.9988708496094 342.999267578125 274.1569519042969 357.48394775390625 C 271.6539611816406 400.14166259765625 280.1427917480469 429.6745910644531 275.9539489746094 471.9936828613281 C 285.52349853515625 463.64013671875 284.8679504394531 449.5997314453125 286.979736328125 434.4756774902344 C 284.3299865722656 412.2857971191406 282.6989440917969 389.935791015625 285.6474304199219 366.5517883300781 C 285.65496826171875 358.1681213378906 295.1588439941406 355.3349609375 294.2603759765625 343.39892578125 C 291.75946044921875 342.32611083984375 278.9616394042969 339.372314453125 274.1612548828125 333.0760192871094" stroke-width="0.0" fill="rgb(109, 54, 35)" opacity="0.9929523" stroke="rgb(0, 0, 0)" stroke-opacity="1.0" stroke-linecap="round" stroke-linejoin="round"/>
    <path d="M 1.6292048692703247 85.43675231933594 C -2.8654046058654785 100.21656036376953 3.144007921218872 122.49520874023438 0.30385273694992065 149.82884216308594 C 38.54497146606445 150.1060333251953 68.03645324707031 149.97344970703125 87.81735229492188 152.99868774414062 C 88.43855285644531 125.87427520751953 88.66587829589844 104.9655990600586 86.05435943603516 91.3453140258789 C 64.10187530517578 84.93994140625 30.16990089416504 85.16902160644531 1.6292048692703247 85.43675231933594" stroke-width="0.0" fill="rgb(30, 23, 20)" opacity="0.995926" stroke="rgb(0, 0, 0)" stroke-opacity="1.0" stroke-linecap="round" stroke-linejoin="round"/>
    <path d="M 244.37521362304688 294.17486572265625 C 243.42462158203125 314.5453796386719 244.51658630371094 344.5482177734375 243.68203735351562 365.9065246582031 C 250.78286743164062 369.8429870605469 258.6544189453125 367.514892578125 272.0516662597656 366.8568420410156 C 276.6956787109375 349.8191833496094 273.8056640625 328.529052734375 277.4873962402344 312.9054260253906 C 255.36343383789062 315.024169921875 247.9013214111328 307.3182067871094 268.9310607910156 294.3453063964844 C 273.2347106933594 293.80657958984375 255.06105041503906 293.687744140625 244.37521362304688 294.17486572265625" stroke-width="0.0" fill="rgb(18, 7, 5)" opacity="1.0020394" stroke="rgb(0, 0, 0)" stroke-opacity="1.0" stroke-linecap="round" stroke-linejoin="round"/>
    <path d="M 231.3955078125 64.34668731689453 C 230.04505920410156 69.80632019042969 231.95010375976562 88.77057647705078 230.49302673339844 99.49090576171875 C 238.662841796875 100.93517303466797 252.75540161132812 103.86648559570312 260.7596130371094 98.71166229248047 C 260.6694030761719 100.10830688476562 262.1953430175781 74.12073516845703 259.6413879394531 66.54698181152344 C 259.2141418457031 62.82266616821289 240.89508056640625 63.86751174926758 231.3955078125 64.34668731689453" stroke-width="0.0" fill="rgb(12, 6, 5)" opacity="0.9999333" stroke="rgb(0, 0, 0)" stroke-opacity="1.0" stroke-linecap="round" stroke-linejoin="round"/>
    <path d="M 367.1560363769531 386.61053466796875 C 366.4192199707031 397.0238952636719 365.5957946777344 409.08734130859375 365.3440856933594 421.14788818359375 C 366.9931640625 425.5926208496094 381.1615905761719 423.48822021484375 391.2518310546875 424.1085510253906 C 392.5626220703125 417.9906005859375 392.86761474609375 400.5916442871094 391.26788330078125 392.42999267578125 C 385.56427001953125 388.28192138671875 376.13824462890625 387.1621398925781 367.1560363769531 386.61053466796875" stroke-width="0.0" fill="rgb(15, 6, 7)" opacity="0.9990212" stroke="rgb(0, 0, 0)" stroke-opacity="1.0" stroke-linecap="round" stroke-linejoin="round"/>
    <path d="M 261.763671875 380.32177734375 C 259.026123046875 379.3175048828125 251.8246307373047 381.5428771972656 242.64979553222656 378.0359802246094 C 240.9656219482422 392.867919921875 235.64903259277344 404.2828674316406 235.0072021484375 420.2356872558594 C 230.95571899414062 418.2139892578125 240.59378051757812 419.4628601074219 248.45260620117188 419.8793029785156 C 254.38351440429688 406.56683349609375 256.3623352050781 392.5912170410156 261.763671875 380.32177734375" stroke-width="0.0" fill="rgb(60, 60, 57)" opacity="0.99377406" stroke="rgb(0, 0, 0)" stroke-opacity="1.0" stroke-linecap="round" stroke-linejoin="round"/>
    <path d="M 145.02903747558594 188.52410888671875 C 156.10133361816406 193.85304260253906 161.98562622070312 199.5868682861328 175.6535186767578 205.40191650390625 C 196.5222930908203 198.3174285888672 228.65792846679688 204.98208618164062 260.6098327636719 203.3283233642578 C 265.5990905761719 213.59666442871094 265.3581848144531 239.19381713867188 267.57391357421875 250.80470275878906 C 274.0074157714844 252.80001831054688 280.1946105957031 241.48194885253906 291.1187744140625 237.67291259765625 C 309.47845458984375 235.31271362304688 331.95721435546875 235.41786193847656 378.4214782714844 238.65904235839844 C 385.2706604003906 242.57064819335938 393.36749267578125 247.56248474121094 410.0632629394531 246.37237548828125 C 409.9598388671875 231.8537139892578 410.4325256347656 219.85733032226562 415.7138671875 207.29469299316406 C 419.2631530761719 192.49266052246094 431.713623046875 186.36163330078125 435.783935546875 172.2555694580078 C 344.9385070800781 172.11813354492188 262.651123046875 167.28985595703125 177.39981079101562 170.26907348632812 C 160.991943359375 168.79763793945312 156.2387237548828 173.06935119628906 150.51560974121094 175.82232666015625 C 144.9199676513672 185.40684509277344 152.06143188476562 187.3294219970703 145.02903747558594 188.52410888671875" stroke-width="0.0" fill="rgb(10, 2, 2)" opacity="1.0017028" stroke="rgb(0, 0, 0)" stroke-opacity="1.0" stroke-linecap="round" stroke-linejoin="round"/>
    <path d="M 245.775634765625 311.6398010253906 C 255.65805053710938 315.3504638671875 270.01220703125 312.0953063964844 278.28192138671875 315.0741271972656 C 290.7831726074219 306.4015808105469 304.63592529296875 300.9154052734375 318.7527770996094 296.55279541015625 C 330.3771057128906 292.5191345214844 343.99078369140625 291.83477783203125 357.0705261230469 290.4461975097656 C 380.240966796875 288.33502197265625 394.55731201171875 296.4909362792969 413.1502380371094 297.3153076171875 C 416.21783447265625 284.6688232421875 415.2007751464844 265.552001953125 409.94879150390625 249.29656982421875 C 398.1149597167969 249.2175750732422 386.7767333984375 245.7312774658203 378.7935485839844 240.7034912109375 C 340.4460144042969 236.94415283203125 315.28466796875 235.03465270996094 289.20318603515625 238.72732543945312 C 281.425048828125 242.95013427734375 272.5045471191406 249.79342651367188 269.5732116699219 257.54547119140625 C 274.79156494140625 261.95965576171875 288.348388671875 263.85772705078125 297.9009094238281 266.06756591796875 C 295.9018249511719 270.7861633300781 288.42022705078125 269.89678955078125 285.5643615722656 271.80975341796875 C 280.967529296875 277.8731384277344 279.2524719238281 287.731689453125 275.73382568359375 294.1375732421875 C 267.0015563964844 293.56939697265625 260.2705383300781 297.3199462890625 247.37289428710938 296.20611572265625 C 244.83685302734375 298.2271423339844 244.9273223876953 308.1721496582031 245.775634765625 311.6398010253906" stroke-width="0.0" fill="rgb(27, 8, 6)" opacity="0.9905996" stroke="rgb(0, 0, 0)" stroke-opacity="1.0" stroke-linecap="round" stroke-linejoin="round"/>
    <path d="M -7.655444622039795 155.7639923095703 C -6.630154609680176 177.8806610107422 -6.193916320800781 196.10403442382812 -3.56400465965271 213.7260284423828 C 25.118928909301758 214.89024353027344 51.121212005615234 214.69554138183594 78.9288558959961 216.90402221679688 C 81.44657135009766 211.93443298339844 84.18235778808594 207.44834899902344 88.65333557128906 202.41668701171875 C 92.50542449951172 186.89244079589844 87.69998168945312 171.52561950683594 89.71621704101562 155.6361083984375 C 56.85808563232422 159.34324645996094 25.412673950195312 156.28216552734375 -7.655444622039795 155.7639923095703" stroke-width="0.0" fill="rgb(23, 15, 14)" opacity="0.99980956" stroke="rgb(0, 0, 0)" stroke-opacity="1.0" stroke-linecap="round" stroke-linejoin="round"/>
    <path d="M -6.698725700378418 283.0555725097656 C 12.01986026763916 282.7781677246094 26.656896591186523 282.7958984375 38.05405044555664 282.9020690917969 C 42.11731719970703 277.4758605957031 42.76597595214844 269.0415344238281 42.298770904541016 267.9521789550781 C 48.62080383300781 263.01910400390625 55.51218795776367 263.77178955078125 58.9398307800293 260.4122619628906 C 58.52555465698242 256.1707763671875 54.9169807434082 255.59481811523438 54.969886779785156 255.5523223876953 C 53.969852447509766 248.3105926513672 57.07038497924805 247.83580017089844 57.62497329711914 245.5428009033203 C 63.943817138671875 238.52957153320312 76.97081756591797 235.75674438476562 87.80546569824219 232.73593139648438 C 85.28616333007812 226.04147338867188 84.85771942138672 219.55484008789062 82.57671356201172 215.48036193847656 C 53.50042724609375 217.3232879638672 28.720821380615234 213.09056091308594 -5.386483669281006 215.633544921875 C -5.899927139282227 236.93182373046875 -4.672178745269775 259.5422668457031 -6.698725700378418 283.0555725097656" stroke-width="0.0" fill="rgb(15, 9, 9)" opacity="1.0072814" stroke="rgb(0, 0, 0)" stroke-opacity="1.0" stroke-linecap="round" stroke-linejoin="round"/>
    <path d="M 485.3026428222656 -2.0260581970214844 C 484.8258361816406 27.661638259887695 482.9904479980469 53.77252197265625 481.56036376953125 81.90233612060547 C 488.7742004394531 85.38813018798828 500.23284912109375 80.55682373046875 519.0491943359375 82.40934753417969 C 519.0489501953125 54.0225715637207 519.126708984375 27.0306339263916 519.1818237304688 -4.732410907745361 C 502.69708251953125 -3.187364339828491 494.342041015625 -1.2264803647994995 485.3026428222656 -2.0260581970214844" stroke-width="0.0" fill="rgb(6, 3, 5)" opacity="1.0016972" stroke="rgb(0, 0, 0)" stroke-opacity="1.0" stroke-linecap="round" stroke-linejoin="round"/>
    <path d="M 519.94287109375 81.88428497314453 C 503.4376220703125 85.77027893066406 485.9770812988281 82.28424835205078 481.80560302734375 84.84538269042969 C 480.2688903808594 107.41323852539062 479.47283935546875 131.75169372558594 479.95977783203125 153.63429260253906 C 493.788818359375 150.7251739501953 503.874267578125 153.6940155029297 518.71484375 152.6541748046875 C 518.9052124023438 127.35328674316406 518.9550170898438 104.7025375366211 519.94287109375 81.88428497314453" stroke-width="0.0" fill="rgb(5, 3, 4)" opacity="1.0024357" stroke="rgb(0, 0, 0)" stroke-opacity="1.0" stroke-linecap="round" stroke-linejoin="round"/>
    <path d="M 347.213134765625 425.2284240722656 C 347.77685546875 440.8038635253906 350.557861328125 452.1946716308594 354.00787353515625 464.31427001953125 C 366.0939636230469 463.75885009765625 385.21221923828125 463.6449279785156 393.1287536621094 461.248779296875 C 393.4602355957031 448.5311279296875 392.6285095214844 431.0637512207031 391.21307373046875 424.7279968261719 C 374.9507751464844 426.49957275390625 362.4827880859375 421.7605895996094 347.213134765625 425.2284240722656" stroke-width="0.0" fill="rgb(123, 94, 103)" opacity="0.9653402" stroke="rgb(0, 0, 0)" stroke-opacity="1.0" stroke-linecap="round" stroke-linejoin="round"/>
    <path d="M 328.1583251953125 425.8587951660156 C 327.37005615234375 437.8547668457031 328.4546203613281 452.1322937011719 328.9576110839844 463.7928161621094 C 337.43585205078125 464.51019287109375 343.7280578613281 464.1634216308594 351.1705627441406 462.9539489746094 C 351.1125183105469 450.24468994140625 347.9499206542969 434.93902587890625 346.35284423828125 425.2192687988281 C 345.6053466796875 427.2076110839844 325.975830078125 424.9442138671875 328.1583251953125 425.8587951660156" stroke-width="0.0" fill="rgb(115, 91, 100)" opacity="1.0116543" stroke="rgb(0, 0, 0)" stroke-opacity="1.0" stroke-linecap="round" stroke-linejoin="round"/>
    <path d="M 462.9978332519531 276.37066650390625 C 449.1869201660156 273.70135498046875 447.4806823730469 281.6163024902344 440.4305114746094 279.4078063964844 C 438.1783142089844 289.9336242675781 434.9790954589844 296.1910705566406 437.1042785644531 306.424560546875 C 445.6867370605469 309.3411560058594 449.7144470214844 313.7025451660156 455.83599853515625 307.0072326660156 C 457.3856506347656 295.5626220703125 464.1477966308594 286.9826354980469 462.9978332519531 276.37066650390625" stroke-width="0.0" fill="rgb(42, 17, 9)" opacity="0.9999842" stroke="rgb(0, 0, 0)" stroke-opacity="1.0" stroke-linecap="round" stroke-linejoin="round"/>
    <path d="M 11.149910926818848 149.32150268554688 C -7.846316337585449 152.28439331054688 -8.639228820800781 155.51397705078125 -6.855251789093018 157.7781219482422 C 38.42396926879883 155.0969696044922 77.22201538085938 162.1531982421875 91.91639709472656 154.00906372070312 C 73.64196014404297 145.5934600830078 35.958168029785156 152.0619354248047 11.149910926818848 149.32150268554688" stroke-width="0.0" fill="rgb(17, 9, 7)" opacity="0.9961442" stroke="rgb(0, 0, 0)" stroke-opacity="1.0" stroke-linecap="round" stroke-linejoin="round"/>
    <path d="M 509.1871337890625 443.0981140136719 C 520.1096801757812 437.98980712890625 519.3388671875 431.240234375 519.0015869140625 419.715576171875 C 493.9854736328125 425.3782958984375 476.9483337402344 422.25994873046875 462.3996887207031 426.103515625 C 483.3171691894531 430.4711608886719 493.69903564453125 442.4671325683594 509.1871337890625 443.0981140136719" stroke-width="0.0" fill="rgb(140, 82, 34)" opacity="1.0039103" stroke="rgb(0, 0, 0)" stroke-opacity="1.0" stroke-linecap="round" stroke-linejoin="round"/>
    <path d="M 144.98550415039062 -5.550749778747559 C 144.85098266601562 9.344785690307617 143.845458984375 17.701425552368164 148.91920471191406 21.875083923339844 C 152.57139587402344 22.245481491088867 170.1383819580078 22.590105056762695 169.37022399902344 20.698808670043945 C 171.50921630859375 16.012710571289062 171.85169982910156 6.137094020843506 171.66419982910156 -6.527646064758301 C 161.7726593017578 -5.999248504638672 152.0093536376953 -6.001723766326904 144.98550415039062 -5.550749778747559" stroke-width="0.0" fill="rgb(8, 4, 5)" opacity="0.99982786" stroke="rgb(0, 0, 0)" stroke-opacity="1.0" stroke-linecap="round" stroke-linejoin="round"/>
    <path d="M 326.0706481933594 426.5473327636719 C 314.406494140625 425.1166687011719 302.2051086425781 426.08599853515625 291.8758544921875 427.7639465332031 C 291.98382568359375 442.3975830078125 284.5328063964844 453.7351379394531 279.76947021484375 468.5783386230469 C 296.4442138671875 466.673095703125 313.862548828125 466.8184814453125 328.8288879394531 465.0754699707031 C 331.1841735839844 449.0339050292969 325.37335205078125 440.492431640625 326.0706481933594 426.5473327636719" stroke-width="0.0" fill="rgb(113, 92, 92)" opacity="0.978052" stroke="rgb(0, 0, 0)" stroke-opacity="1.0" stroke-linecap="round" stroke-linejoin="round"/>
    <path d="M 108.46761322021484 54.7634162902832 C 91.6941146850586 61.68376159667969 106.86271667480469 64.45553588867188 94.69823455810547 77.2245864868164 C 107.96016693115234 80.57909393310547 99.67324829101562 93.95037841796875 104.51182556152344 114.86449432373047 C 113.1623764038086 113.75726318359375 123.24420928955078 113.63804626464844 131.6417236328125 114.55009460449219 C 135.66790771484375 91.44366455078125 124.19361114501953 80.4526138305664 121.39786529541016 62.30349349975586 C 120.32196807861328 57.36923599243164 112.89079284667969 54.69350814819336 108.46761322021484 54.7634162902832" stroke-width="0.0" fill="rgb(11, 4, 4)" opacity="1.000335" stroke="rgb(0, 0, 0)" stroke-opacity="1.0" stroke-linecap="round" stroke-linejoin="round"/>
    <path d="M 86.94709014892578 -4.255162715911865 C 82.86995697021484 13.065196990966797 88.75719451904297 19.642436981201172 96.12214660644531 27.148860931396484 C 107.20674133300781 32.24378204345703 112.6164779663086 27.540956497192383 117.12175750732422 22.350982666015625 C 121.6196060180664 15.68722152709961 124.32294464111328 10.068861961364746 118.68562316894531 -4.482635974884033 C 107.25667572021484 -4.9109883308410645 95.1285400390625 -6.009667873382568 86.94709014892578 -4.255162715911865" stroke-width="0.0" fill="rgb(5, 2, 5)" opacity="0.9995791" stroke="rgb(0, 0, 0)" stroke-opacity="1.0" stroke-linecap="round" stroke-linejoin="round"/>
    <path d="M 102.1709213256836 179.14068603515625 C 114.62229919433594 196.37176513671875 127.6656494140625 208.4311065673828 136.78988647460938 230.38099670410156 C 138.9210662841797 231.53440856933594 141.82151794433594 230.52157592773438 146.1104736328125 227.6067352294922 C 145.45489501953125 216.80487060546875 141.56593322753906 211.2647247314453 136.48138427734375 201.3113250732422 C 124.32476043701172 208.99212646484375 119.73918151855469 183.07559204101562 102.1709213256836 179.14068603515625" stroke-width="0.0" fill="rgb(23, 14, 11)" opacity="0.99344915" stroke="rgb(0, 0, 0)" stroke-opacity="1.0" stroke-linecap="round" stroke-linejoin="round"/>
    <path d="M 518.82958984375 270.8141784667969 C 500.4309387207031 278.0509338378906 504.65972900390625 291.7901916503906 501.82647705078125 310.4141845703125 C 502.7065734863281 319.9765930175781 506.9677429199219 331.3602294921875 514.774169921875 350.3319091796875 C 521.6884155273438 321.84881591796875 521.9644775390625 293.2577819824219 518.82958984375 270.8141784667969" stroke-width="0.0" fill="rgb(23, 8, 5)" opacity="0.99978685" stroke="rgb(0, 0, 0)" stroke-opacity="1.0" stroke-linecap="round" stroke-linejoin="round"/>
    <path d="M 91.1647720336914 286.21636962890625 C 89.76084899902344 324.3749694824219 92.54692840576172 365.0831298828125 88.10987854003906 408.4232177734375 C 143.2292938232422 409.15472412109375 190.20849609375 417.9403381347656 242.95016479492188 419.40606689453125 C 252.9759521484375 416.6053161621094 250.8692169189453 402.8733825683594 257.0332336425781 392.0313415527344 C 251.45777893066406 390.43951416015625 241.9646759033203 389.999755859375 245.07797241210938 384.3616638183594 C 242.7642059326172 376.0639343261719 245.4811553955078 362.1798095703125 244.82376098632812 348.43658447265625 C 248.612548828125 345.12109375 245.94448852539062 355.4054870605469 247.2321319580078 365.9834899902344 C 261.62408447265625 366.7820739746094 259.1629333496094 365.5789794921875 268.0241394042969 360.64337158203125 C 268.0977478027344 356.98553466796875 267.8952941894531 334.92633056640625 268.34033203125 324.8816223144531 C 251.5669403076172 322.7445068359375 249.88674926757812 319.0877990722656 245.74847412109375 327.00787353515625 C 241.4070587158203 314.5554504394531 247.61154174804688 300.1385803222656 240.7428741455078 294.424560546875 C 192.02659606933594 291.3394775390625 143.47390747070312 287.4190673828125 91.1647720336914 286.21636962890625" stroke-width="0.0" fill="rgb(78, 77, 76)" opacity="0.95239204" stroke="rgb(0, 0, 0)" stroke-opacity="1.0" stroke-linecap="round" stroke-linejoin="round"/>
    <path d="M 110.61805725097656 241.58689880371094 C 106.6100845336914 230.46697998046875 104.07030487060547 231.5258026123047 95.5953369140625 230.84512329101562 C 83.6650619506836 233.86856079101562 71.36498260498047 237.0276641845703 61.27403259277344 241.4727325439453 C 55.65234375 247.34815979003906 51.22616195678711 265.03302001953125 43.95435333251953 278.4757995605469 C 67.41401672363281 281.7726745605469 88.28170776367188 288.2351379394531 102.67933654785156 276.7503662109375 C 107.63412475585938 271.6973876953125 108.88177490234375 252.41845703125 110.61805725097656 241.58689880371094" stroke-width="0.0" fill="rgb(49, 43, 44)" opacity="0.797793" stroke="rgb(0, 0, 0)" stroke-opacity="1.0" stroke-linecap="round" stroke-linejoin="round"/>
    <path d="M 203.4694061279297 259.3702697753906 C 200.08401489257812 266.7767333984375 205.89463806152344 275.4937438964844 202.79150390625 272.18780517578125 C 207.37368774414062 271.2526550292969 223.59873962402344 271.5536193847656 225.1487274169922 272.7895812988281 C 248.699951171875 272.2701416015625 268.24072265625 275.55633544921875 266.3583984375 262.0292053222656 C 254.53981018066406 260.27410888671875 221.3670654296875 258.73565673828125 203.4694061279297 259.3702697753906" stroke-width="0.0" fill="rgb(153, 167, 188)" opacity="0.9868302" stroke="rgb(0, 0, 0)" stroke-opacity="1.0" stroke-linecap="round" stroke-linejoin="round"/>
    <path d="M 395.0076904296875 477.98760986328125 C 395.4428405761719 476.92108154296875 391.8236389160156 476.5362854003906 371.3719482421875 477.2604064941406 C 250.8194580078125 486.6883239746094 125.21601104736328 491.99420166015625 1.7520873546600342 499.56915283203125 C 1.4169206619262695 504.2928466796875 -4.3533501625061035 504.38494873046875 -7.016629219055176 520.42431640625 C 131.6660919189453 520.65185546875 263.3333435058594 520.7034301757812 396.56707763671875 521.2733764648438 C 394.8750305175781 501.5715637207031 397.313232421875 487.4740905761719 395.0076904296875 477.98760986328125" stroke-width="0.0" fill="rgb(5, 3, 6)" opacity="0.8310669" stroke="rgb(0, 0, 0)" stroke-opacity="1.0" stroke-linecap="round" stroke-linejoin="round"/>
    <path d="M 517.2199096679688 472.0991516113281 C 478.6825866699219 473.7679138183594 444.4416809082031 475.1980285644531 410.128173828125 476.1339416503906 C 407.33160400390625 482.7782897949219 409.4975280761719 496.5548095703125 410.2153015136719 521.9149169921875 C 439.98919677734375 521.64990234375 474.27874755859375 521.61279296875 517.773681640625 521.1716918945312 C 517.96240234375 498.40606689453125 517.9801025390625 485.671875 517.2199096679688 472.0991516113281" stroke-width="0.0" fill="rgb(30, 10, 7)" opacity="0.9486667" stroke="rgb(0, 0, 0)" stroke-opacity="1.0" stroke-linecap="round" stroke-linejoin="round"/>
    <path d="M 111.5427474975586 190.69338989257812 C 121.7921142578125 204.81243896484375 130.70826721191406 217.14480590820312 138.4996795654297 236.11805725097656 C 140.49713134765625 240.78102111816406 136.0901641845703 252.71429443359375 137.64447021484375 266.3054504394531 C 147.3897247314453 268.3010559082031 163.05349731445312 269.1322937011719 172.9886932373047 268.2937927246094 C 179.24661254882812 265.68634033203125 177.21009826660156 256.2165222167969 175.3204345703125 240.99205017089844 C 170.32879638671875 239.92074584960938 160.63119506835938 239.44073486328125 156.94117736816406 238.28506469726562 C 149.49734497070312 227.46743774414062 144.32037353515625 220.45379638671875 138.87257385253906 206.20693969726562 C 129.10458374023438 200.7067413330078 122.34517669677734 191.7123565673828 111.5427474975586 190.69338989257812" stroke-width="0.0" fill="rgb(61, 43, 35)" opacity="0.94363284" stroke="rgb(0, 0, 0)" stroke-opacity="1.0" stroke-linecap="round" stroke-linejoin="round"/>
    <path d="M 87.7584228515625 335.4441223144531 C 68.06879425048828 346.2167663574219 51.717281341552734 361.0661315917969 33.183170318603516 377.44586181640625 C 51.69002914428711 376.7196960449219 78.05128479003906 376.611572265625 91.8831558227539 373.6382751464844 C 87.53255462646484 358.6951599121094 97.853271484375 342.3072814941406 87.7584228515625 335.4441223144531" stroke-width="0.0" fill="rgb(6, 3, 6)" opacity="0.97625947" stroke="rgb(0, 0, 0)" stroke-opacity="1.0" stroke-linecap="round" stroke-linejoin="round"/>
    <path d="M 108.31640625 252.069580078125 C 110.45849609375 251.85902404785156 107.77664947509766 257.6291198730469 107.14802551269531 267.78070068359375 C 117.07904815673828 269.16046142578125 130.84669494628906 267.3770751953125 137.6805419921875 266.7261047363281 C 137.9053955078125 255.30477905273438 138.17864990234375 254.47898864746094 137.79876708984375 251.2887725830078 C 130.9673614501953 251.01463317871094 114.14517974853516 250.3270263671875 108.31640625 252.069580078125" stroke-width="0.0" fill="rgb(19, 12, 11)" opacity="0.9961111" stroke="rgb(0, 0, 0)" stroke-opacity="1.0" stroke-linecap="round" stroke-linejoin="round"/>
    <path d="M 166.66012573242188 178.69256591796875 C 167.46205139160156 182.6028594970703 174.53097534179688 190.64759826660156 179.2728729248047 200.71128845214844 C 205.33587646484375 199.57122802734375 236.2342071533203 200.5894012451172 261.28961181640625 203.24488830566406 C 266.0722961425781 216.13290405273438 263.68414306640625 238.34091186523438 272.2401123046875 245.5774688720703 C 280.6017761230469 244.62945556640625 267.48431396484375 232.81875610351562 304.9212951660156 233.79823303222656 C 322.8846130371094 225.19537353515625 340.2465515136719 231.72743225097656 370.2928466796875 228.43531799316406 C 372.92425537109375 204.14268493652344 369.7054443359375 184.84628295898438 369.9268493652344 172.60679626464844 C 302.0240783691406 169.391357421875 249.69256591796875 167.5404510498047 185.0408172607422 170.40696716308594 C 168.5135040283203 168.36961364746094 165.6923828125 170.6711883544922 166.66012573242188 178.69256591796875" stroke-width="0.0" fill="rgb(14, 4, 2)" opacity="0.99979633" stroke="rgb(0, 0, 0)" stroke-opacity="1.0" stroke-linecap="round" stroke-linejoin="round"/>
    <path d="M 8.57295036315918 239.80043029785156 C 2.784090995788574 244.73524475097656 12.922199249267578 239.81048583984375 19.396709442138672 243.1847381591797 C 9.698509216308594 241.84275817871094 5.639127731323242 244.46202087402344 -6.352396011352539 244.26515197753906 C -6.510157585144043 278.6913146972656 -5.748470306396484 314.9621276855469 -2.706317663192749 352.3790588378906 C 17.8265323638916 352.4542236328125 31.16159439086914 359.1696472167969 49.17559814453125 361.82122802734375 C 61.40626525878906 349.772705078125 78.27421569824219 344.3314514160156 90.81725311279297 330.5635070800781 C 91.3487777709961 324.0393981933594 91.06083679199219 305.9390869140625 91.74867248535156 289.272705078125 C 80.08477020263672 282.0434875488281 55.78703308105469 289.3440856933594 38.94027328491211 281.6366271972656 C 38.21082305908203 272.8868408203125 45.86418533325195 276.7451477050781 39.908531188964844 269.6683349609375 C 39.957218170166016 256.1756286621094 50.78622055053711 262.0211181640625 55.61344909667969 259.19439697265625 C 54.59474563598633 252.30995178222656 46.11281204223633 259.8012390136719 48.942543029785156 253.05523681640625 C 59.201141357421875 244.4982147216797 44.22611999511719 252.27610778808594 48.4784049987793 240.28970336914062 C 35.63142395019531 239.29124450683594 19.302000045776367 240.2314453125 8.57295036315918 239.80043029785156" stroke-width="0.0" fill="rgb(8, 4, 4)" opacity="1.0018247" stroke="rgb(0, 0, 0)" stroke-opacity="1.0" stroke-linecap="round" stroke-linejoin="round"/>
    <path d="M 269.69610595703125 259.6831970214844 C 288.99853515625 259.56640625 308.1007385253906 263.7447204589844 325.17584228515625 270.3765869140625 C 341.5631103515625 272.9731750488281 351.9548034667969 267.8033752441406 371.2301330566406 268.7422790527344 C 377.76849365234375 261.7821044921875 390.7026672363281 264.60308837890625 394.7193298339844 252.41127014160156 C 386.271240234375 248.36782836914062 381.9601745605469 238.95277404785156 371.4787902832031 234.1334228515625 C 364.4028625488281 233.74691772460938 357.7373962402344 232.2362060546875 349.1504211425781 230.87281799316406 C 325.0798034667969 229.3500213623047 308.3612365722656 236.02108764648438 286.2398986816406 236.32037353515625 C 281.3075866699219 243.06985473632812 271.49224853515625 243.6629180908203 269.69610595703125 259.6831970214844" stroke-width="0.0" fill="rgb(31, 10, 6)" opacity="0.9874516" stroke="rgb(0, 0, 0)" stroke-opacity="1.0" stroke-linecap="round" stroke-linejoin="round"/>
    <path d="M 434.348388671875 172.0929718017578 C 417.32110595703125 168.91256713867188 396.5147399902344 173.55535888671875 372.02960205078125 171.4287109375 C 372.6678771972656 199.50372314453125 370.0219421386719 226.1200408935547 374.1377258300781 233.32081604003906 C 384.1136474609375 240.5637664794922 392.610107421875 245.61537170410156 408.1229553222656 242.53768920898438 C 409.77178955078125 231.40037536621094 410.57696533203125 215.3797149658203 415.1233215332031 204.03614807128906 C 419.17327880859375 191.53091430664062 432.8319396972656 186.8638153076172 434.348388671875 172.0929718017578" stroke-width="0.0" fill="rgb(15, 4, 3)" opacity="1.0005004" stroke="rgb(0, 0, 0)" stroke-opacity="1.0" stroke-linecap="round" stroke-linejoin="round"/>
    <path d="M -6.347826957702637 83.16969299316406 C -5.862442493438721 107.05924987792969 -4.854769229888916 128.5641326904297 -4.563427925109863 151.76898193359375 C 4.471811294555664 150.0094757080078 14.365413665771484 152.81275939941406 20.426435470581055 149.56922912597656 C 18.615999221801758 129.7961883544922 21.821611404418945 113.005126953125 18.743940353393555 86.81873321533203 C 12.972051620483398 87.40721893310547 5.474236488342285 87.56076049804688 -6.347826957702637 83.16969299316406" stroke-width="0.0" fill="rgb(30, 22, 21)" opacity="0.99830806" stroke="rgb(0, 0, 0)" stroke-opacity="1.0" stroke-linecap="round" stroke-linejoin="round"/>
    <path d="M 348.2815856933594 424.8552551269531 C 347.34454345703125 437.8985595703125 351.51226806640625 451.59515380859375 353.5235900878906 463.95538330078125 C 362.84765625 464.2864074707031 374.7208251953125 464.6494140625 382.3189392089844 461.3350524902344 C 377.9952697753906 448.1406555175781 375.4425354003906 436.1578063964844 371.3412170410156 424.70159912109375 C 366.997802734375 425.414306640625 354.4102783203125 424.7493591308594 348.2815856933594 424.8552551269531" stroke-width="0.0" fill="rgb(114, 97, 103)" opacity="0.99533117" stroke="rgb(0, 0, 0)" stroke-opacity="1.0" stroke-linecap="round" stroke-linejoin="round"/>
    <path d="M 399.08941650390625 250.8020477294922 C 395.5896301269531 265.518310546875 389.2937316894531 270.7576904296875 394.6797180175781 295.10198974609375 C 399.0226135253906 294.6288146972656 404.611572265625 299.1554260253906 414.8250732421875 300.4450988769531 C 416.68756103515625 280.9444274902344 413.5419616699219 266.3980712890625 410.46728515625 251.33070373535156 C 410.4214172363281 248.91773986816406 398.8031005859375 249.95529174804688 399.08941650390625 250.8020477294922" stroke-width="0.0" fill="rgb(38, 14, 8)" opacity="0.9992648" stroke="rgb(0, 0, 0)" stroke-opacity="1.0" stroke-linecap="round" stroke-linejoin="round"/>
    <path d="M -6.4216156005859375 376.1781311035156 C 5.880892753601074 381.1725158691406 21.119964599609375 380.12921142578125 34.346439361572266 375.1692199707031 C 38.056373596191406 377.78155517578125 40.5694465637207 367.6128845214844 49.537994384765625 362.87677001953125 C 31.637619018554688 359.0127258300781 15.335420608520508 355.3555908203125 -4.435876846313477 351.8320617675781 C -5.641051292419434 359.4632873535156 -4.708065032958984 368.4263610839844 -6.4216156005859375 376.1781311035156" stroke-width="0.0" fill="rgb(43, 24, 13)" opacity="0.99020755" stroke="rgb(0, 0, 0)" stroke-opacity="1.0" stroke-linecap="round" stroke-linejoin="round"/>
    <path d="M 53.09017562866211 465.48388671875 C 38.97808074951172 457.29083251953125 29.288818359375 465.0053405761719 19.79071617126465 468.4867858886719 C 17.208477020263672 461.4992370605469 10.01330852508545 469.5071105957031 9.235596656799316 476.51995849609375 C 13.871930122375488 477.9023742675781 12.488458633422852 482.85443115234375 13.442622184753418 482.63818359375 C 25.89976692199707 487.1733093261719 31.547239303588867 484.9080505371094 42.64973449707031 481.9707336425781 C 47.60523986816406 477.8822326660156 56.1700325012207 474.0622863769531 53.09017562866211 465.48388671875" stroke-width="0.0" fill="rgb(93, 79, 76)" opacity="0.9998112" stroke="rgb(0, 0, 0)" stroke-opacity="1.0" stroke-linecap="round" stroke-linejoin="round"/>
    <path d="M 114.65631866455078 481.5115661621094 C 116.79914855957031 487.02801513671875 118.05233764648438 490.6134033203125 124.70966339111328 492.192626953125 C 132.4087677001953 490.9715576171875 141.7126922607422 491.6437072753906 145.90830993652344 489.9709167480469 C 147.398193359375 488.58251953125 151.898193359375 480.787353515625 151.08273315429688 475.9454040527344 C 148.5030517578125 467.21868896484375 140.0723876953125 470.75909423828125 132.68418884277344 469.8158874511719 C 122.27090454101562 470.020751953125 117.44224548339844 476.1793518066406 114.65631866455078 481.5115661621094" stroke-width="0.0" fill="rgb(95, 78, 73)" opacity="0.9898877" stroke="rgb(0, 0, 0)" stroke-opacity="1.0" stroke-linecap="round" stroke-linejoin="round"/>
    <path d="M 84.63024139404297 228.92208862304688 C 86.10126495361328 221.687744140625 81.69049835205078 217.59906005859375 80.57357788085938 219.7771453857422 C 56.47959518432617 216.7129669189453 29.52179527282715 221.44924926757812 -5.868417739868164 219.4701690673828 C 23.651973724365234 228.55172729492188 52.94785690307617 228.20155334472656 84.63024139404297 228.92208862304688" stroke-width="0.0" fill="rgb(16, 9, 9)" opacity="0.99993235" stroke="rgb(0, 0, 0)" stroke-opacity="1.0" stroke-linecap="round" stroke-linejoin="round"/>
    <path d="M 193.66744995117188 270.3783874511719 C 191.51889038085938 269.29547119140625 192.58688354492188 285.8265686035156 194.3954620361328 285.37738037109375 C 213.7256317138672 282.34759521484375 223.0499267578125 291.47808837890625 230.24830627441406 285.3689880371094 C 233.5859375 278.6395568847656 222.53831481933594 274.5540466308594 215.57940673828125 271.34356689453125 C 208.41458129882812 270.9371643066406 206.3970184326172 267.29168701171875 193.66744995117188 270.3783874511719" stroke-width="0.0" fill="rgb(13, 14, 18)" opacity="0.8695229" stroke="rgb(0, 0, 0)" stroke-opacity="1.0" stroke-linecap="round" stroke-linejoin="round"/>
    <path d="M 215.34347534179688 478.87359619140625 C 213.30203247070312 473.5143127441406 203.1970977783203 471.63287353515625 192.5460205078125 473.9754638671875 C 184.76132202148438 473.5203552246094 177.10121154785156 482.4151306152344 178.52908325195312 489.8373107910156 C 188.60693359375 490.1211853027344 203.34732055664062 487.4641418457031 213.3430938720703 487.8660888671875 C 215.12435913085938 484.1623840332031 220.2776641845703 484.4854736328125 215.34347534179688 478.87359619140625" stroke-width="0.0" fill="rgb(84, 70, 66)" opacity="0.96280944" stroke="rgb(0, 0, 0)" stroke-opacity="1.0" stroke-linecap="round" stroke-linejoin="round"/>
    <path d="M 155.9709014892578 271.6903076171875 C 169.3962860107422 266.856201171875 162.25872802734375 268.5301208496094 152.13626098632812 267.8732604980469 C 150.82846069335938 272.1256103515625 152.1167449951172 281.0373840332031 155.1456756591797 282.7989807128906 C 167.13255310058594 283.66314697265625 174.00155639648438 282.666748046875 176.1455535888672 274.316650390625 C 172.1134796142578 262.86639404296875 163.0006103515625 269.4156494140625 155.9709014892578 271.6903076171875" stroke-width="0.0" fill="rgb(24, 15, 13)" opacity="1.0056498" stroke="rgb(0, 0, 0)" stroke-opacity="1.0" stroke-linecap="round" stroke-linejoin="round"/>
    <path d="M 107.044189453125 235.60546875 C 105.49354553222656 230.39031982421875 102.57588958740234 230.6750946044922 95.50970458984375 230.76171875 C 83.59638977050781 233.4575653076172 74.6920394897461 236.32313537597656 64.36581420898438 239.81466674804688 C 59.6431884765625 242.474609375 51.6909065246582 251.61387634277344 56.151668548583984 256.4325256347656 C 60.99174880981445 264.3323669433594 78.43099975585938 264.85491943359375 98.4549331665039 263.74334716796875 C 107.3841323852539 261.6795654296875 109.7375259399414 248.964599609375 107.044189453125 235.60546875" stroke-width="0.0" fill="rgb(156, 140, 131)" opacity="0.9795098" stroke="rgb(0, 0, 0)" stroke-opacity="1.0" stroke-linecap="round" stroke-linejoin="round"/>
    <path d="M 243.7957000732422 291.5534362792969 C 245.12254333496094 288.6739501953125 231.14808654785156 289.8797302246094 235.24952697753906 290.7324523925781 C 232.28451538085938 288.6153564453125 235.41720581054688 303.6676330566406 232.6885986328125 307.8188781738281 C 234.28672790527344 348.0629577636719 230.31504821777344 390.3848571777344 232.5760040283203 414.4094543457031 C 236.82745361328125 419.9927062988281 244.12844848632812 412.62872314453125 240.5332794189453 407.4432373046875 C 243.48863220214844 371.9367980957031 245.8538055419922 334.49530029296875 243.7957000732422 291.5534362792969" stroke-width="0.0" fill="rgb(75, 78, 76)" opacity="0.9542912" stroke="rgb(0, 0, 0)" stroke-opacity="1.0" stroke-linecap="round" stroke-linejoin="round"/>
    <path d="M 139.85719299316406 249.5015869140625 C 139.02357482910156 256.2477722167969 134.76527404785156 264.9405517578125 140.86915588378906 267.0248718261719 C 153.94322204589844 268.59130859375 173.89356994628906 268.4437561035156 175.65597534179688 267.54638671875 C 181.44924926757812 254.6800994873047 174.45166015625 252.15834045410156 176.03253173828125 240.57464599609375 C 165.87608337402344 239.4810333251953 161.4140167236328 238.64523315429688 154.83836364746094 239.21600341796875 C 149.05929565429688 244.33230590820312 152.5342559814453 260.3620300292969 149.0230255126953 261.56634521484375 C 143.65005493164062 264.9872741699219 143.65647888183594 256.24774169921875 139.85719299316406 249.5015869140625" stroke-width="0.0" fill="rgb(49, 48, 49)" opacity="0.9785463" stroke="rgb(0, 0, 0)" stroke-opacity="1.0" stroke-linecap="round" stroke-linejoin="round"/>
    <path d="M 43.165401458740234 268.8435974121094 C 42.092586517333984 273.64984130859375 46.10527038574219 277.64990234375 46.40536880493164 276.501953125 C 75.86559295654297 274.93548583984375 94.76496887207031 278.4798889160156 97.83917236328125 270.13836669921875 C 91.99394989013672 262.3663330078125 76.4089126586914 264.7353515625 72.28141021728516 262.372314453125 C 62.21621322631836 260.4116516113281 48.80552291870117 263.1386413574219 43.165401458740234 268.8435974121094" stroke-width="0.0" fill="rgb(123, 119, 116)" opacity="1.02173" stroke="rgb(0, 0, 0)" stroke-opacity="1.0" stroke-linecap="round" stroke-linejoin="round"/>
    <path d="M 243.4686737060547 314.4021911621094 C 245.3409423828125 328.8900146484375 244.00852966308594 345.4862365722656 243.65382385253906 367.24090576171875 C 245.0203094482422 369.15765380859375 261.7605285644531 367.448974609375 271.8624267578125 368.0820007324219 C 279.27374267578125 339.9166564941406 273.550048828125 335.7880859375 276.47021484375 315.02703857421875 C 273.0173645019531 314.94818115234375 254.35919189453125 315.0249328613281 243.4686737060547 314.4021911621094" stroke-width="0.0" fill="rgb(5, 2, 3)" opacity="1.0085028" stroke="rgb(0, 0, 0)" stroke-opacity="1.0" stroke-linecap="round" stroke-linejoin="round"/>
    <path d="M 414.1658020019531 474.1607971191406 C 404.9862060546875 471.3310241699219 413.2374572753906 493.9181823730469 408.42852783203125 521.929443359375 C 416.1890869140625 520.336669921875 427.2550964355469 522.06787109375 430.1048889160156 515.8949584960938 C 424.2474670410156 497.52862548828125 417.4557800292969 483.3253479003906 414.1658020019531 474.1607971191406" stroke-width="0.0" fill="rgb(9, 3, 6)" opacity="1.0011121" stroke="rgb(0, 0, 0)" stroke-opacity="1.0" stroke-linecap="round" stroke-linejoin="round"/>
    <path d="M 370.5556640625 179.68995666503906 C 364.4607238769531 183.88185119628906 367.0072326660156 190.7327880859375 363.0282287597656 191.42552185058594 C 348.3305969238281 200.92532348632812 341.84185791015625 195.2007598876953 333.1381530761719 201.14199829101562 C 325.1852722167969 210.07395935058594 313.44921875 218.1168670654297 309.30169677734375 230.58407592773438 C 327.6453552246094 228.9609375 348.86041259765625 230.5152130126953 369.2569580078125 231.26531982421875 C 372.5285339355469 218.30880737304688 371.0407409667969 198.07516479492188 370.5556640625 179.68995666503906" stroke-width="0.0" fill="rgb(10, 2, 1)" opacity="0.99949557" stroke="rgb(0, 0, 0)" stroke-opacity="1.0" stroke-linecap="round" stroke-linejoin="round"/>
    <path d="M 356.3790283203125 479.36602783203125 C 340.2142639160156 483.6910705566406 340.0601806640625 479.65655517578125 333.2245788574219 482.1211242675781 C 331.8436584472656 491.757568359375 336.9536437988281 501.45989990234375 333.96087646484375 518.6477661132812 C 343.5736999511719 518.49267578125 353.978271484375 518.7141723632812 364.28594970703125 518.5464477539062 C 359.6546325683594 499.6433410644531 359.338134765625 487.0543518066406 356.3790283203125 479.36602783203125" stroke-width="0.0" fill="rgb(10, 5, 9)" opacity="0.9995906" stroke="rgb(0, 0, 0)" stroke-opacity="1.0" stroke-linecap="round" stroke-linejoin="round"/>
    <path d="M 313.58160400390625 229.90113830566406 C 322.4891357421875 234.21327209472656 329.79547119140625 239.43748474121094 339.0628356933594 243.54600524902344 C 357.1709899902344 241.82444763183594 374.5283508300781 244.53826904296875 385.2574768066406 242.93370056152344 C 376.8428039550781 232.07400512695312 366.0557861328125 232.32725524902344 353.26263427734375 230.24880981445312 C 344.51544189453125 230.01956176757812 328.4561462402344 229.4860076904297 313.58160400390625 229.90113830566406" stroke-width="0.0" fill="rgb(10, 6, 7)" opacity="0.9977331" stroke="rgb(0, 0, 0)" stroke-opacity="1.0" stroke-linecap="round" stroke-linejoin="round"/>
    <path d="M 245.5498809814453 274.8568115234375 C 239.52061462402344 270.8849792480469 235.97509765625 278.7825012207031 233.17034912109375 282.4660339355469 C 233.17140197753906 314.16363525390625 230.67417907714844 345.0335998535156 232.35189819335938 381.37762451171875 C 233.91567993164062 373.8524169921875 231.72384643554688 372.216796875 237.98834228515625 371.0755615234375 C 239.16839599609375 374.6615295410156 238.68121337890625 385.56939697265625 240.7813262939453 396.1918029785156 C 243.8870391845703 357.1473083496094 243.9568328857422 314.641845703125 245.5498809814453 274.8568115234375" stroke-width="0.0" fill="rgb(44, 38, 37)" opacity="0.9437171" stroke="rgb(0, 0, 0)" stroke-opacity="1.0" stroke-linecap="round" stroke-linejoin="round"/>
    <path d="M 91.62921905517578 232.00755310058594 C 89.93241119384766 240.1378631591797 99.34449768066406 241.39283752441406 97.8274917602539 249.9299774169922 C 97.47457885742188 258.9126281738281 93.60371398925781 261.6656188964844 87.69363403320312 264.5859680175781 C 91.13461303710938 268.7441101074219 96.00543212890625 268.9581298828125 105.37122344970703 267.3028259277344 C 106.5009765625 257.45849609375 110.0967788696289 247.45762634277344 111.49855041503906 235.60537719726562 C 107.10799407958984 231.1240997314453 97.85726165771484 231.7010040283203 91.62921905517578 232.00755310058594" stroke-width="0.0" fill="rgb(80, 51, 40)" opacity="0.9183864" stroke="rgb(0, 0, 0)" stroke-opacity="1.0" stroke-linecap="round" stroke-linejoin="round"/>
  </g>
</svg>
