<?xml version="1.0" ?>
<svg xmlns="http://www.w3.org/2000/svg" version="1.1" width="512" height="512">
  <defs/>
  <g>
    <path d="M -6.799749374389648 -5.1432719230651855 C -6.719864368438721 170.45025634765625 -6.6054582595825195 340.7553405761719 -6.525108337402344 517.3191528320312 C 169.80795288085938 517.4564819335938 340.3202819824219 517.771484375 518.951904296875 518.3417358398438 C 519.0121459960938 340.5361022949219 518.7950439453125 169.97447204589844 518.2030639648438 -5.272346496582031 C 340.3455810546875 -5.52992582321167 169.46875 -5.567806720733643 -6.799749374389648 -5.1432719230651855" stroke-width="0.0" fill="rgb(103, 102, 100)" opacity="0.888668" stroke="rgb(0, 0, 0)" stroke-opacity="1.0" stroke-linecap="round" stroke-linejoin="round"/>
    <path d="M 38.789512634277344 -6.405220985412598 C 28.266559600830078 56.18149185180664 16.493589401245117 113.61358642578125 8.917549133300781 174.2466583251953 C 3.7675235271453857 220.94912719726562 2.2460849285125732 264.86968994140625 5.640711784362793 293.3820495605469 C 46.96394729614258 314.4834289550781 91.49053192138672 327.3086853027344 128.28359985351562 347.8928527832031 C 140.57992553710938 356.20611572265625 152.44439697265625 362.6002502441406 164.2506866455078 365.16680908203125 C 157.36068725585938 369.4097900390625 162.61341857910156 368.7066345214844 157.993896484375 367.48785400390625 C 166.21473693847656 360.7668762207031 167.35589599609375 344.7784423828125 161.07452392578125 334.3360900878906 C 159.2838592529297 315.8989562988281 164.00877380371094 301.9953918457031 170.2408447265625 288.6965026855469 C 171.53359985351562 282.8101501464844 178.29611206054688 277.33740234375 182.63771057128906 273.02099609375 C 194.35646057128906 267.52105712890625 213.829345703125 269.17962646484375 222.87342834472656 256.2625427246094 C 222.3249053955078 238.56932067871094 214.0666046142578 229.1392364501953 217.93153381347656 210.58074951171875 C 222.03509521484375 200.29196166992188 227.15435791015625 193.47694396972656 235.66270446777344 189.84503173828125 C 239.82940673828125 189.51168823242188 244.091064453125 187.54364013671875 250.03173828125 188.07034301757812 C 255.2247314453125 188.53076171875 259.1354675292969 191.31065368652344 265.91021728515625 194.41151428222656 C 269.7920837402344 198.71572875976562 274.4206848144531 205.39956665039062 277.0948486328125 216.10797119140625 C 281.6863098144531 235.29534912109375 270.0379333496094 239.06198120117188 270.04547119140625 259.1564025878906 C 276.89013671875 269.0067138671875 295.8922119140625 267.5073547363281 304.12835693359375 275.9631652832031 C 309.0567626953125 280.16796875 314.0038757324219 284.00848388671875 318.0006103515625 291.99237060546875 C 322.6692810058594 310.8385314941406 325.95550537109375 334.9856872558594 321.385498046875 364.03497314453125 C 333.235595703125 365.63311767578125 348.2579650878906 368.592041015625 347.52252197265625 357.5139465332031 C 369.9278564453125 357.9416809082031 381.7832336425781 345.46490478515625 403.514892578125 339.1914978027344 C 409.6302185058594 337.994384765625 404.75164794921875 323.05780029296875 414.46990966796875 320.1097106933594 C 450.30218505859375 321.6237487792969 476.67864990234375 317.736083984375 517.3734130859375 316.8331604003906 C 516.9674682617188 210.2047576904297 517.2197265625 105.58380126953125 517.1965942382812 -5.271899223327637 C 354.93572998046875 -5.031841278076172 198.22410583496094 -5.026313304901123 38.789512634277344 -6.405220985412598" stroke-width="0.0" fill="rgb(45, 45, 39)" opacity="1.0279168" stroke="rgb(0, 0, 0)" stroke-opacity="1.0" stroke-linecap="round" stroke-linejoin="round"/>
    <path d="M 236.67758178710938 193.02847290039062 C 233.54638671875 191.3947296142578 231.59556579589844 196.65061950683594 227.7516326904297 198.2392120361328 C 224.5522003173828 205.36878967285156 222.2255096435547 213.55935668945312 218.3677978515625 223.05279541015625 C 225.5127410888672 234.62867736816406 225.89447021484375 246.59121704101562 223.92855834960938 265.9210205078125 C 210.48680114746094 270.49639892578125 194.3700714111328 271.8280944824219 184.60377502441406 277.5772399902344 C 175.41831970214844 282.8772277832031 172.03399658203125 291.9696044921875 168.8292694091797 309.20526123046875 C 163.51173400878906 322.0639343261719 171.81021118164062 339.4416809082031 168.3787078857422 360.2784118652344 C 169.23992919921875 368.99163818359375 175.99913024902344 375.0840759277344 183.1425018310547 382.05078125 C 178.3621063232422 403.75177001953125 172.82212829589844 424.3811340332031 171.8154754638672 459.46063232421875 C 176.3406524658203 466.95965576171875 182.87857055664062 481.6355895996094 178.69178771972656 518.95947265625 C 221.8588104248047 518.8431396484375 267.0669860839844 518.6604614257812 317.6213073730469 518.2291870117188 C 311.7151794433594 483.1562805175781 322.1162414550781 468.401611328125 320.38104248046875 449.25909423828125 C 314.0876770019531 421.233154296875 308.4543151855469 398.22747802734375 304.0222473144531 375.2253112792969 C 308.3109130859375 368.0865173339844 316.5582580566406 364.6988525390625 318.9455261230469 359.0169372558594 C 318.41839599609375 335.3306579589844 318.98394775390625 315.9313659667969 315.4998474121094 298.8755187988281 C 313.0393981933594 290.939697265625 309.912109375 283.3703308105469 303.47930908203125 280.3880615234375 C 292.6718444824219 272.1290588378906 277.5616149902344 271.8816833496094 268.8330383300781 267.45819091796875 C 263.442138671875 250.02728271484375 269.74884033203125 246.01260375976562 274.75860595703125 231.29794311523438 C 275.58868408203125 220.8726348876953 272.16790771484375 214.10113525390625 270.5835876464844 204.83969116210938 C 268.4136047363281 199.876953125 264.2691955566406 195.74240112304688 259.91424560546875 193.60472106933594 C 251.0379638671875 191.5494842529297 245.6687469482422 189.80377197265625 236.67758178710938 193.02847290039062" stroke-width="0.0" fill="rgb(66, 53, 49)" opacity="1.0191622" stroke="rgb(0, 0, 0)" stroke-opacity="1.0" stroke-linecap="round" stroke-linejoin="round"/>
    <path d="M 518.1912841796875 320.2992858886719 C 480.1756896972656 320.4078369140625 448.9079895019531 322.2721862792969 416.669677734375 322.2502746582031 C 411.1892395019531 325.450927734375 410.4117431640625 334.32861328125 411.3170166015625 342.6402587890625 C 401.21826171875 344.70208740234375 389.14422607421875 344.0017395019531 383.0375061035156 342.37994384765625 C 381.8314208984375 347.911865234375 380.82958984375 356.30224609375 378.97723388671875 357.63580322265625 C 366.996826171875 357.25653076171875 356.6759338378906 357.77276611328125 349.77313232421875 361.39373779296875 C 347.2357177734375 363.5564270019531 348.88189697265625 373.2048034667969 346.2125549316406 379.6376647949219 C 334.6259460449219 383.7875061035156 319.3450927734375 380.33612060546875 308.8760986328125 383.6717834472656 C 310.6572570800781 406.9942321777344 319.8289489746094 425.3213195800781 322.61700439453125 449.86358642578125 C 327.4450988769531 469.33258056640625 317.4693603515625 481.5329284667969 320.7190856933594 503.35833740234375 C 384.5151672363281 507.76837158203125 446.6158447265625 510.86224365234375 518.033447265625 516.3853149414062 C 518.361328125 445.5140380859375 518.7555541992188 382.0084533691406 518.1912841796875 320.2992858886719" stroke-width="0.0" fill="rgb(80, 85, 90)" opacity="0.91899824" stroke="rgb(0, 0, 0)" stroke-opacity="1.0" stroke-linecap="round" stroke-linejoin="round"/>
    <path d="M 29.90030860900879 401.458251953125 C 19.70555877685547 413.789306640625 9.9729585647583 423.493408203125 13.606832504272461 435.15875244140625 C 11.9962739944458 462.1814880371094 13.699234008789062 490.28179931640625 14.047314643859863 517.1875 C 51.86844253540039 517.7672729492188 90.53583526611328 518.6118774414062 124.09323120117188 518.7797241210938 C 126.24254608154297 488.6119384765625 127.14215850830078 456.667724609375 130.39805603027344 434.1753234863281 C 128.4393768310547 430.8791198730469 126.09532928466797 424.09100341796875 123.75362396240234 416.9415588378906 C 116.77635955810547 412.4224853515625 111.1301040649414 406.014404296875 106.78728485107422 404.77496337890625 C 75.74533081054688 405.25994873046875 51.7625846862793 404.98529052734375 29.90030860900879 401.458251953125" stroke-width="0.0" fill="rgb(163, 158, 141)" opacity="1.0063205" stroke="rgb(0, 0, 0)" stroke-opacity="1.0" stroke-linecap="round" stroke-linejoin="round"/>
    <path d="M 3.56044340133667 295.49481201171875 C 3.924271821975708 327.6107482910156 1.89789879322052 360.71728515625 4.318222999572754 389.8033752441406 C 13.593496322631836 390.83636474609375 20.406387329101562 395.4452209472656 33.03645324707031 396.9754943847656 C 42.024044036865234 392.9377746582031 50.009700775146484 384.6443176269531 72.51030731201172 389.0695495605469 C 97.044677734375 390.6977233886719 125.2468490600586 390.07952880859375 145.38348388671875 388.9820251464844 C 143.7345428466797 371.21282958984375 139.37911987304688 356.8427734375 131.1479949951172 348.36456298828125 C 87.62708282470703 330.8718566894531 46.6181755065918 313.0751647949219 3.56044340133667 295.49481201171875" stroke-width="0.0" fill="rgb(104, 103, 99)" opacity="0.99742097" stroke="rgb(0, 0, 0)" stroke-opacity="1.0" stroke-linecap="round" stroke-linejoin="round"/>
    <path d="M 175.85157775878906 415.32672119140625 C 158.12997436523438 416.955078125 140.6619873046875 415.82720947265625 126.09608459472656 417.84832763671875 C 125.47101593017578 426.06939697265625 132.37210083007812 432.14813232421875 130.01791381835938 436.8211975097656 C 128.953125 461.422119140625 126.83740234375 484.0044860839844 129.7372283935547 516.9236450195312 C 142.94480895996094 518.42529296875 159.9149627685547 517.5546264648438 177.5562744140625 517.042724609375 C 177.67364501953125 500.3546142578125 179.0855712890625 490.1263732910156 177.29208374023438 478.3542785644531 C 175.5977020263672 471.3990478515625 169.49302673339844 467.5743713378906 169.18197631835938 456.8590393066406 C 170.74021911621094 444.29583740234375 172.03018188476562 429.68096923828125 175.85157775878906 415.32672119140625" stroke-width="0.0" fill="rgb(129, 132, 139)" opacity="1.0661104" stroke="rgb(0, 0, 0)" stroke-opacity="1.0" stroke-linecap="round" stroke-linejoin="round"/>
    <path d="M 180.66659545898438 385.457763671875 C 144.21063232421875 388.1939697265625 105.98831176757812 387.5242614746094 72.77607727050781 387.24249267578125 C 50.91736602783203 389.9859313964844 45.56121826171875 388.13739013671875 48.58414840698242 399.41510009765625 C 60.04194641113281 404.17041015625 81.51355743408203 403.4118347167969 107.68536376953125 402.4571533203125 C 113.05413055419922 405.68609619140625 117.35449981689453 410.62066650390625 122.01770782470703 415.9227600097656 C 140.8505859375 417.2845153808594 157.83489990234375 415.9596252441406 175.72621154785156 414.2318420410156 C 175.84262084960938 406.0584411621094 179.2371368408203 397.8559265136719 180.66659545898438 385.457763671875" stroke-width="0.0" fill="rgb(141, 144, 146)" opacity="0.8296293" stroke="rgb(0, 0, 0)" stroke-opacity="1.0" stroke-linecap="round" stroke-linejoin="round"/>
    <path d="M 16.80489730834961 418.2794189453125 C 16.17447853088379 416.5340881347656 8.925389289855957 414.8740539550781 3.9485299587249756 416.57122802734375 C 2.023663282394409 447.1339111328125 2.9724438190460205 478.6982116699219 3.5007805824279785 516.3892211914062 C 4.882941722869873 517.5274658203125 6.768359661102295 516.8442993164062 11.923410415649414 520.271728515625 C 12.952424049377441 473.8319396972656 9.262850761413574 441.91845703125 16.80489730834961 418.2794189453125" stroke-width="0.0" fill="rgb(66, 67, 60)" opacity="0.94776046" stroke="rgb(0, 0, 0)" stroke-opacity="1.0" stroke-linecap="round" stroke-linejoin="round"/>
    <path d="M 316.7861633300781 519.86767578125 C 375.314697265625 520.8264770507812 440.35302734375 521.0723876953125 509.45684814453125 518.285400390625 C 474.26025390625 503.812255859375 428.73529052734375 509.2294921875 386.9696960449219 507.71630859375 C 364.86273193359375 503.3720397949219 340.71478271484375 503.593994140625 321.3031005859375 501.3866271972656 C 319.287353515625 498.630615234375 320.6795959472656 503.6240234375 316.7861633300781 519.86767578125" stroke-width="0.0" fill="rgb(19, 20, 20)" opacity="1.0232433" stroke="rgb(0, 0, 0)" stroke-opacity="1.0" stroke-linecap="round" stroke-linejoin="round"/>
    <path d="M 3.86234974861145 390.33489990234375 C 0.23676621913909912 399.7803649902344 5.653400897979736 414.8956604003906 3.248584747314453 418.1554870605469 C 19.91128921508789 414.37371826171875 18.02434539794922 418.0466003417969 15.334321975708008 434.15576171875 C 21.465206146240234 418.81512451171875 28.269079208374023 409.7566223144531 38.307430267333984 402.4338073730469 C 25.322343826293945 395.8356628417969 14.725699424743652 392.7053527832031 3.86234974861145 390.33489990234375" stroke-width="0.0" fill="rgb(130, 129, 127)" opacity="0.99639106" stroke="rgb(0, 0, 0)" stroke-opacity="1.0" stroke-linecap="round" stroke-linejoin="round"/>
    <path d="M 42.59086227416992 -1.8722177743911743 C 37.96708297729492 -4.682920455932617 31.559371948242188 -4.830299377441406 27.062047958374023 -3.1427340507507324 C 25.534523010253906 12.53490161895752 20.635290145874023 27.536678314208984 17.592832565307617 42.75970458984375 C 10.387462615966797 70.83283996582031 5.411750793457031 105.88526916503906 8.87747859954834 154.48580932617188 C 19.73406410217285 98.95580291748047 26.238080978393555 46.41741180419922 42.59086227416992 -1.8722177743911743" stroke-width="0.0" fill="rgb(171, 174, 172)" opacity="0.9611252" stroke="rgb(0, 0, 0)" stroke-opacity="1.0" stroke-linecap="round" stroke-linejoin="round"/>
    <path d="M 141.64736938476562 356.0037841796875 C 141.16726684570312 363.0785827636719 140.07579040527344 373.0575866699219 145.537109375 386.1097717285156 C 154.61813354492188 386.2243347167969 168.09939575195312 387.1875 179.703125 386.21881103515625 C 178.67503356933594 371.7679748535156 167.81349182128906 367.04010009765625 167.7004852294922 354.6942138671875 C 160.61830139160156 352.25958251953125 153.23362731933594 353.042236328125 141.64736938476562 356.0037841796875" stroke-width="0.0" fill="rgb(48, 47, 49)" opacity="0.99948025" stroke="rgb(0, 0, 0)" stroke-opacity="1.0" stroke-linecap="round" stroke-linejoin="round"/>
    <path d="M 222.07525634765625 -4.826656341552734 C 160.9527587890625 -5.904449462890625 100.92926025390625 -5.537349224090576 40.690223693847656 -1.6675753593444824 C 26.88774871826172 57.047325134277344 14.480701446533203 115.7642593383789 7.189393043518066 178.33242797851562 C 3.1384122371673584 218.23904418945312 2.5540525913238525 256.1475524902344 4.654329299926758 292.796630859375 C 41.63353729248047 310.6203918457031 80.10147094726562 324.6324157714844 116.78497314453125 340.708984375 C 125.52674102783203 343.20062255859375 125.24159240722656 337.603759765625 129.58091735839844 338.313720703125 C 134.62054443359375 277.44512939453125 143.20864868164062 222.34471130371094 158.45892333984375 173.8824005126953 C 176.18675231933594 113.66329956054688 198.64730834960938 58.32872009277344 222.07525634765625 -4.826656341552734" stroke-width="0.0" fill="rgb(32, 33, 27)" opacity="0.9693474" stroke="rgb(0, 0, 0)" stroke-opacity="1.0" stroke-linecap="round" stroke-linejoin="round"/>
    <path d="M 248.6761474609375 -5.920958042144775 C 227.0973358154297 44.79256057739258 211.11900329589844 76.9588851928711 197.75721740722656 111.6510009765625 C 189.48609924316406 139.08843994140625 178.5660858154297 164.63534545898438 172.4205780029297 199.09573364257812 C 182.97845458984375 199.0669403076172 201.0835418701172 199.67796325683594 220.80361938476562 200.4419708251953 C 224.4483184814453 190.10470581054688 237.70596313476562 188.6129150390625 245.7403564453125 186.00221252441406 C 262.49853515625 189.44815063476562 270.2250061035156 195.3807373046875 276.15570068359375 205.53675842285156 C 311.29571533203125 207.03939819335938 339.0813293457031 203.51014709472656 366.6690368652344 198.33355712890625 C 370.3153076171875 189.58932495117188 369.9588317871094 173.48748779296875 365.7219543457031 153.651611328125 C 358.3513488769531 137.6223602294922 339.0390319824219 131.48135375976562 335.7456359863281 112.69640350341797 C 337.5173034667969 104.81221771240234 336.5000305175781 112.81719970703125 344.8822937011719 113.43199157714844 C 352.9956970214844 118.50669860839844 358.08544921875 127.98832702636719 368.9972229003906 135.2024688720703 C 371.8933410644531 90.73941040039062 373.50091552734375 46.68901062011719 373.6558837890625 -8.246417045593262 C 321.51544189453125 -8.111764907836914 274.7310791015625 -7.766303062438965 248.6761474609375 -5.920958042144775" stroke-width="0.0" fill="rgb(60, 65, 38)" opacity="0.9358854" stroke="rgb(0, 0, 0)" stroke-opacity="1.0" stroke-linecap="round" stroke-linejoin="round"/>
    <path d="M 426.3042907714844 8.438408851623535 C 416.42181396484375 9.515816688537598 417.0550231933594 8.036930084228516 414.8648986816406 17.939123153686523 C 412.0593566894531 54.5062370300293 409.5100402832031 95.04278564453125 408.3511047363281 136.0393524169922 C 407.2145690917969 198.54722595214844 409.67462158203125 258.8877868652344 415.91326904296875 319.54888916015625 C 441.50360107421875 320.101318359375 464.90625 321.5942077636719 478.4766845703125 315.12835693359375 C 480.66424560546875 307.5698547363281 477.8249816894531 297.974365234375 480.6809997558594 291.1905517578125 C 484.64752197265625 289.0393981933594 489.2017822265625 283.3703918457031 492.6396484375 278.43389892578125 C 496.5371398925781 280.4158020019531 501.2991943359375 286.62725830078125 519.3345336914062 293.2127380371094 C 519.39404296875 217.962646484375 519.4747314453125 152.60972595214844 513.3017578125 87.66499328613281 C 494.9844055175781 65.95156860351562 477.7554016113281 44.697547912597656 456.6523132324219 27.276689529418945 C 448.9232482910156 18.53416633605957 437.6363525390625 12.36931037902832 426.3042907714844 8.438408851623535" stroke-width="0.0" fill="rgb(88, 101, 47)" opacity="0.96541464" stroke="rgb(0, 0, 0)" stroke-opacity="1.0" stroke-linecap="round" stroke-linejoin="round"/>
    <path d="M 396.64105224609375 -2.7853589057922363 C 388.72314453125 -7.097522735595703 379.0793151855469 -6.399726390838623 375.027099609375 -1.5436111688613892 C 375.1255798339844 69.96253967285156 370.3197021484375 134.2084197998047 370.5325622558594 200.95985412597656 C 342.4354553222656 206.1182098388672 310.7804870605469 207.50662231445312 277.412109375 209.19798278808594 C 276.74908447265625 226.7917938232422 276.6028747558594 237.88836669921875 270.0574951171875 248.29864501953125 C 268.8988342285156 256.697509765625 269.68499755859375 259.7154541015625 273.53033447265625 263.82794189453125 C 282.43341064453125 268.8465881347656 295.8395690917969 269.4399108886719 304.2259216308594 275.4388732910156 C 309.142578125 278.4533996582031 312.6678771972656 283.15655517578125 316.739501953125 288.8800048828125 C 323.0196838378906 303.53594970703125 322.68280029296875 328.3719482421875 326.0315246582031 349.7191162109375 C 328.4207458496094 355.7248840332031 332.7181396484375 356.3647766113281 336.85565185546875 359.32562255859375 C 365.9323425292969 358.0616149902344 378.3149719238281 341.6998596191406 404.7549133300781 340.4436340332031 C 408.7326965332031 334.26190185546875 406.8811950683594 326.4155578613281 410.5780944824219 322.4610290527344 C 412.49578857421875 283.5196228027344 406.77392578125 253.5651092529297 406.9281311035156 228.37210083007812 C 406.7489929199219 148.19032287597656 408.0367126464844 77.52330780029297 413.8721618652344 11.459504127502441 C 412.4532470703125 -0.9852054715156555 405.6734619140625 3.552239179611206 396.64105224609375 -2.7853589057922363" stroke-width="0.0" fill="rgb(49, 47, 37)" opacity="0.9793376" stroke="rgb(0, 0, 0)" stroke-opacity="1.0" stroke-linecap="round" stroke-linejoin="round"/>
    <path d="M 517.5802612304688 338.3601379394531 C 466.4520263671875 340.0675048828125 423.42864990234375 341.7618103027344 380.8560791015625 345.50738525390625 C 377.1307373046875 401.4094543457031 379.0706787109375 455.97607421875 382.5785827636719 506.7194519042969 C 425.4981994628906 507.9026794433594 468.8722839355469 506.5068054199219 517.7108154296875 507.1650390625 C 517.6068115234375 449.8984680175781 517.5978393554688 393.7723388671875 517.5802612304688 338.3601379394531" stroke-width="0.0" fill="rgb(83, 87, 95)" opacity="0.90175784" stroke="rgb(0, 0, 0)" stroke-opacity="1.0" stroke-linecap="round" stroke-linejoin="round"/>
    <path d="M 303.7442932128906 377.6548156738281 C 265.349853515625 387.3752746582031 220.57728576660156 385.5017395019531 181.72576904296875 386.52178955078125 C 178.4990692138672 404.8392028808594 173.7301483154297 421.2001953125 171.44549560546875 453.4727783203125 C 172.14813232421875 468.1918029785156 184.86119079589844 476.4819030761719 178.52847290039062 518.9142456054688 C 221.0762481689453 519.0419921875 267.1939392089844 518.3299560546875 314.89569091796875 517.313720703125 C 315.5615234375 501.76025390625 315.86566162109375 491.9408264160156 314.0503234863281 481.9769287109375 C 316.60198974609375 481.729736328125 308.3299865722656 483.13153076171875 307.11676025390625 480.9518127441406 C 311.82586669921875 480.0426330566406 316.6517639160156 482.5233154296875 315.43695068359375 476.5071716308594 C 314.2986755371094 476.2962951660156 309.67572021484375 478.4584655761719 306.8854675292969 475.80755615234375 C 313.1979675292969 476.90020751953125 316.172607421875 475.73406982421875 319.2315368652344 472.04168701171875 C 321.62847900390625 467.53936767578125 321.73236083984375 460.3072204589844 319.6515197753906 447.5897521972656 C 317.072021484375 425.7121887207031 311.1361083984375 400.6236267089844 303.7442932128906 377.6548156738281" stroke-width="0.0" fill="rgb(36, 38, 43)" opacity="0.98579663" stroke="rgb(0, 0, 0)" stroke-opacity="1.0" stroke-linecap="round" stroke-linejoin="round"/>
    <path d="M 167.83956909179688 310.3840026855469 C 165.00262451171875 322.8595886230469 164.52301025390625 330.62847900390625 171.7442626953125 339.2609558105469 C 221.27903747558594 339.82537841796875 269.3521423339844 334.60211181640625 318.6033935546875 336.8765563964844 C 319.4692077636719 313.5764465332031 317.4905090332031 297.4811706542969 309.2081298828125 285.4261169433594 C 301.0524597167969 275.0411071777344 285.6291198730469 271.861572265625 267.6146240234375 268.3833923339844 C 263.4107666015625 271.10235595703125 256.2034912109375 270.97528076171875 251.58114624023438 273.38299560546875 C 241.4141387939453 275.5066833496094 231.0372314453125 272.17633056640625 223.39122009277344 266.3333740234375 C 211.05960083007812 269.0448303222656 200.95980834960938 270.6687316894531 192.55764770507812 273.1155700683594 C 185.4677734375 275.4080505371094 180.41748046875 279.22174072265625 176.69261169433594 284.40948486328125 C 172.663818359375 290.4315185546875 169.2180633544922 297.73291015625 167.83956909179688 310.3840026855469" stroke-width="0.0" fill="rgb(49, 48, 54)" opacity="0.9927587" stroke="rgb(0, 0, 0)" stroke-opacity="1.0" stroke-linecap="round" stroke-linejoin="round"/>
    <path d="M 13.47643756866455 450.5422058105469 C 11.556836128234863 468.96636962890625 13.216736793518066 489.8288879394531 12.359627723693848 518.4996948242188 C 47.867061614990234 518.3372192382812 86.42792510986328 517.2312622070312 126.27288055419922 516.9134521484375 C 125.65213012695312 490.089599609375 125.70635986328125 466.49322509765625 127.50550079345703 447.2677001953125 C 86.86494445800781 449.9797058105469 49.79311752319336 451.1195983886719 13.47643756866455 450.5422058105469" stroke-width="0.0" fill="rgb(110, 114, 120)" opacity="1.0069926" stroke="rgb(0, 0, 0)" stroke-opacity="1.0" stroke-linecap="round" stroke-linejoin="round"/>
    <path d="M 319.2850036621094 345.5755615234375 C 316.9798278808594 340.5007629394531 311.9419860839844 339.458740234375 309.0429382324219 336.9564514160156 C 292.85540771484375 336.9122009277344 280.1466979980469 337.8374938964844 266.1318664550781 333.1081848144531 C 240.7894287109375 339.1568298339844 212.20384216308594 339.3852844238281 176.93475341796875 337.3186340332031 C 166.5819091796875 341.4348449707031 165.77487182617188 344.5728454589844 170.05580139160156 359.4484558105469 C 168.81410217285156 366.4118957519531 175.17044067382812 375.12908935546875 188.13864135742188 387.3321533203125 C 227.45252990722656 386.4026184082031 266.66729736328125 384.2873229980469 298.67083740234375 381.07696533203125 C 304.3899841308594 370.290771484375 313.4523620605469 369.5685119628906 316.6318664550781 363.8497314453125 C 318.9686584472656 357.1841735839844 319.9273376464844 352.86920166015625 319.2850036621094 345.5755615234375" stroke-width="0.0" fill="rgb(196, 140, 118)" opacity="1.0326444" stroke="rgb(0, 0, 0)" stroke-opacity="1.0" stroke-linecap="round" stroke-linejoin="round"/>
    <path d="M 348.6074523925781 360.24169921875 C 344.10028076171875 399.5870056152344 343.0694580078125 445.68597412109375 346.8088684082031 505.9546203613281 C 349.2480163574219 507.7460632324219 362.1969299316406 507.226318359375 381.611328125 504.54278564453125 C 382.5632019042969 465.27667236328125 381.4233703613281 414.1787414550781 381.7784729003906 358.2682189941406 C 372.509033203125 358.2329406738281 356.1318054199219 357.7489013671875 348.6074523925781 360.24169921875" stroke-width="0.0" fill="rgb(153, 156, 159)" opacity="1.0216135" stroke="rgb(0, 0, 0)" stroke-opacity="1.0" stroke-linecap="round" stroke-linejoin="round"/>
    <path d="M 11.107410430908203 451.0404357910156 C 41.762939453125 451.6071472167969 82.49433898925781 449.9809265136719 131.36981201171875 447.3970031738281 C 132.03506469726562 434.3007507324219 126.3117446899414 428.09893798828125 123.71553802490234 417.8768615722656 C 118.6369857788086 413.02752685546875 112.764892578125 408.7476501464844 107.3248519897461 404.5732116699219 C 95.39105987548828 404.7525634765625 89.48609924316406 405.0863342285156 77.51506805419922 408.16729736328125 C 77.95941925048828 412.0437927246094 73.95854187011719 415.03314208984375 68.73470306396484 415.77435302734375 C 61.54917907714844 409.5255126953125 54.5350456237793 402.7720031738281 47.04108428955078 402.932373046875 C 36.17292404174805 400.32440185546875 32.00477600097656 406.26300048828125 27.293367385864258 411.17315673828125 C 21.707002639770508 421.2275085449219 15.248031616210938 430.5249328613281 11.107410430908203 451.0404357910156" stroke-width="0.0" fill="rgb(183, 150, 104)" opacity="0.89127594" stroke="rgb(0, 0, 0)" stroke-opacity="1.0" stroke-linecap="round" stroke-linejoin="round"/>
    <path d="M 220.14791870117188 210.48464965820312 C 210.5142364501953 204.93011474609375 200.6912078857422 203.39096069335938 191.3018341064453 202.43655395507812 C 180.57191467285156 204.32984924316406 173.97537231445312 207.31280517578125 170.2021484375 214.70530700683594 C 165.44973754882812 224.0361328125 163.5563507080078 237.87124633789062 162.00936889648438 251.88275146484375 C 161.0578155517578 269.0806579589844 160.40313720703125 286.65576171875 165.07797241210938 299.864013671875 C 171.58290100097656 295.64923095703125 171.42857360839844 282.05780029296875 180.90853881835938 276.8739318847656 C 192.20999145507812 270.5712585449219 208.51483154296875 268.9008483886719 223.13418579101562 262.30731201171875 C 223.30821228027344 241.4194793701172 220.51649475097656 225.62437438964844 220.14791870117188 210.48464965820312" stroke-width="0.0" fill="rgb(30, 31, 28)" opacity="0.9810363" stroke="rgb(0, 0, 0)" stroke-opacity="1.0" stroke-linecap="round" stroke-linejoin="round"/>
    <path d="M 244.007080078125 190.82388305664062 C 235.08843994140625 191.8880157470703 231.04449462890625 195.3273162841797 227.05905151367188 198.8155975341797 C 224.5990447998047 204.1153564453125 223.757568359375 212.3170623779297 216.20767211914062 220.8970947265625 C 221.6935272216797 232.49156188964844 223.76426696777344 245.98512268066406 223.9461212158203 265.7496337890625 C 226.06922912597656 273.84039306640625 237.67079162597656 275.7057189941406 248.5886993408203 275.8410339355469 C 259.5332946777344 274.9754333496094 262.89923095703125 271.4570617675781 267.8794860839844 267.23321533203125 C 261.90582275390625 242.89346313476562 277.685302734375 240.2187957763672 275.2400207519531 225.04025268554688 C 272.69207763671875 209.0361785888672 269.9244384765625 199.79617309570312 262.8472900390625 194.9364471435547 C 257.582763671875 191.9287872314453 250.62014770507812 190.5978240966797 244.007080078125 190.82388305664062" stroke-width="0.0" fill="rgb(174, 130, 111)" opacity="0.98225063" stroke="rgb(0, 0, 0)" stroke-opacity="1.0" stroke-linecap="round" stroke-linejoin="round"/>
    <path d="M 306.6858825683594 383.37445068359375 C 309.83367919921875 408.7607727050781 318.16668701171875 428.9426574707031 321.5455627441406 455.9276428222656 C 324.4636535644531 468.6727600097656 318.0327453613281 476.3280944824219 318.86322021484375 493.5028076171875 C 324.61273193359375 494.97314453125 335.85699462890625 495.2486877441406 348.5551452636719 497.47210693359375 C 346.6944274902344 457.685546875 345.6553039550781 418.6449279785156 346.672119140625 380.1401672363281 C 337.927978515625 382.2942199707031 319.385986328125 380.8177795410156 306.6858825683594 383.37445068359375" stroke-width="0.0" fill="rgb(144, 147, 149)" opacity="0.98302585" stroke="rgb(0, 0, 0)" stroke-opacity="1.0" stroke-linecap="round" stroke-linejoin="round"/>
    <path d="M 412.7882995605469 -1.7213160991668701 C 432.37811279296875 7.910581588745117 447.33544921875 14.455202102661133 458.76043701171875 25.755001068115234 C 477.14935302734375 42.8375129699707 493.0228271484375 62.99906921386719 513.1808471679688 84.073486328125 C 519.5928344726562 58.53382873535156 517.77197265625 28.449569702148438 516.9718627929688 -3.9267427921295166 C 479.1658020019531 -5.234934329986572 447.0252990722656 -5.551783561706543 412.7882995605469 -1.7213160991668701" stroke-width="0.0" fill="rgb(14, 12, 12)" opacity="1.0567722" stroke="rgb(0, 0, 0)" stroke-opacity="1.0" stroke-linecap="round" stroke-linejoin="round"/>
    <path d="M 38.58359146118164 335.21112060546875 C 40.10845184326172 341.59228515625 35.342750549316406 342.6078796386719 32.03987121582031 344.3974914550781 C 35.70068359375 344.25634765625 34.62469482421875 342.617919921875 29.85449981689453 346.161865234375 C 34.831321716308594 344.0523986816406 41.56849670410156 341.6535339355469 39.192386627197266 347.0204162597656 C 41.65285873413086 361.5054931640625 40.244998931884766 374.16986083984375 35.66415023803711 384.22064208984375 C 47.578067779541016 383.1676025390625 55.64053726196289 383.6560974121094 63.37269973754883 383.5595397949219 C 54.76625061035156 379.1657409667969 63.73047637939453 378.3844299316406 58.041259765625 369.82208251953125 C 75.77938842773438 371.308349609375 66.8731460571289 355.9154052734375 85.78581237792969 360.3528137207031 C 93.65531921386719 352.4220275878906 82.05817413330078 358.9214172363281 81.901611328125 354.1810607910156 C 87.25013732910156 352.7351379394531 93.97616577148438 353.5374450683594 94.72206115722656 350.62384033203125 C 91.05261993408203 348.9053039550781 89.69696807861328 345.4891357421875 89.2843246459961 345.942138671875 C 99.5789794921875 346.646240234375 99.65098571777344 343.477294921875 104.20307922363281 346.6253967285156 C 103.93250274658203 350.42071533203125 104.09758758544922 362.0329895019531 103.19911193847656 361.364990234375 C 118.7016830444336 361.5024719238281 119.83514404296875 358.0849609375 128.5760955810547 349.4331970214844 C 117.74676513671875 345.9466247558594 111.57732391357422 341.1609802246094 105.47430419921875 348.2762451171875 C 116.95317077636719 346.2640380859375 108.56366729736328 345.75482177734375 99.95050811767578 342.2086181640625 C 84.24156951904297 333.3358154296875 59.32770919799805 333.6291198730469 38.58359146118164 335.21112060546875" stroke-width="0.0" fill="rgb(76, 77, 79)" opacity="1.0000981" stroke="rgb(0, 0, 0)" stroke-opacity="1.0" stroke-linecap="round" stroke-linejoin="round"/>
    <path d="M 516.4602661132812 319.04644775390625 C 478.68017578125 320.8395080566406 445.5315856933594 321.0563049316406 414.0345458984375 321.8476867675781 C 410.41851806640625 325.6487121582031 407.98101806640625 333.738037109375 411.5715637207031 344.7447814941406 C 441.0929870605469 341.4918212890625 475.69818115234375 339.95599365234375 518.2365112304688 341.4338684082031 C 517.7512817382812 330.5455322265625 518.2550048828125 323.2934875488281 516.4602661132812 319.04644775390625" stroke-width="0.0" fill="rgb(193, 196, 200)" opacity="1.1733284" stroke="rgb(0, 0, 0)" stroke-opacity="1.0" stroke-linecap="round" stroke-linejoin="round"/>
    <path d="M 503.8056945800781 230.52865600585938 C 504.4635925292969 230.57943725585938 500.91241455078125 228.7684783935547 500.15118408203125 232.73941040039062 C 503.2781677246094 249.59555053710938 506.73980712890625 271.1396179199219 508.2408447265625 275.07257080078125 C 489.37628173828125 285.3167724609375 487.1109619140625 292.96771240234375 482.1519470214844 297.55584716796875 C 481.6011657714844 307.6523132324219 480.55206298828125 316.5445861816406 483.76177978515625 318.5924377441406 C 492.338623046875 319.1827392578125 504.6219177246094 318.9648742675781 521.2752075195312 318.92291259765625 C 513.9432983398438 284.211669921875 500.7460632324219 255.5836181640625 503.8056945800781 230.52865600585938" stroke-width="0.0" fill="rgb(41, 45, 20)" opacity="0.9977072" stroke="rgb(0, 0, 0)" stroke-opacity="1.0" stroke-linecap="round" stroke-linejoin="round"/>
    <path d="M 178.238037109375 385.36517333984375 C 143.290283203125 387.090576171875 104.5886001586914 389.1120300292969 67.85846710205078 387.77044677734375 C 52.071632385253906 390.8542175292969 46.011173248291016 386.76336669921875 48.977867126464844 397.61260986328125 C 85.76876068115234 399.645751953125 130.33509826660156 398.0247802734375 177.43771362304688 396.29193115234375 C 179.85531616210938 395.7732849121094 182.60964965820312 393.72393798828125 178.238037109375 385.36517333984375" stroke-width="0.0" fill="rgb(203, 206, 208)" opacity="0.9822899" stroke="rgb(0, 0, 0)" stroke-opacity="1.0" stroke-linecap="round" stroke-linejoin="round"/>
    <path d="M 130.04132080078125 496.25018310546875 C 125.81108093261719 501.0943603515625 128.0144805908203 506.3075866699219 130.090576171875 517.6007690429688 C 144.97003173828125 517.3357543945312 160.99407958984375 517.37939453125 178.4783477783203 517.6859741210938 C 177.7876434326172 505.1288757324219 178.27947998046875 497.3553466796875 177.59426879882812 495.9621276855469 C 158.53948974609375 495.6524353027344 139.9279327392578 493.94464111328125 130.04132080078125 496.25018310546875" stroke-width="0.0" fill="rgb(118, 122, 129)" opacity="0.99459743" stroke="rgb(0, 0, 0)" stroke-opacity="1.0" stroke-linecap="round" stroke-linejoin="round"/>
    <path d="M 174.39036560058594 417.654296875 C 176.8662872314453 403.796142578125 182.12191772460938 404.7752380371094 171.4429168701172 401.7597961425781 C 152.0948028564453 403.035888671875 131.55824279785156 402.2320861816406 111.00092315673828 403.743408203125 C 114.47516632080078 409.3754577636719 119.96001434326172 411.7840576171875 127.78028106689453 420.4042663574219 C 146.75791931152344 420.55889892578125 164.70046997070312 419.7526550292969 174.39036560058594 417.654296875" stroke-width="0.0" fill="rgb(221, 224, 226)" opacity="0.9568341" stroke="rgb(0, 0, 0)" stroke-opacity="1.0" stroke-linecap="round" stroke-linejoin="round"/>
    <path d="M 31.162137985229492 317.3193359375 C 21.166362762451172 339.27294921875 17.88941764831543 362.3156433105469 17.251605987548828 389.8788757324219 C 19.052879333496094 393.53924560546875 24.555551528930664 397.2737731933594 35.8879508972168 397.81805419921875 C 37.11787414550781 391.7440185546875 40.55646896362305 382.4608459472656 41.94911193847656 369.4656677246094 C 36.69041061401367 353.5538024902344 36.644447326660156 330.7171325683594 31.162137985229492 317.3193359375" stroke-width="0.0" fill="rgb(109, 109, 107)" opacity="0.99809706" stroke="rgb(0, 0, 0)" stroke-opacity="1.0" stroke-linecap="round" stroke-linejoin="round"/>
    <path d="M 250.76467895507812 -4.021121501922607 C 231.68453979492188 -7.716824531555176 225.03176879882812 -5.845787048339844 220.85958862304688 2.7234342098236084 C 200.41058349609375 47.18354034423828 181.30746459960938 91.53314971923828 168.5423126220703 142.5271759033203 C 157.8533935546875 176.36636352539062 148.8753204345703 211.8472442626953 142.14141845703125 249.09426879882812 C 137.38955688476562 279.4477844238281 134.1029815673828 312.1686706542969 133.03431701660156 344.13330078125 C 139.40342712402344 350.827880859375 145.0702667236328 355.09906005859375 152.51815795898438 359.56744384765625 C 153.97634887695312 360.6275634765625 161.84983825683594 362.1216125488281 161.2407684326172 356.9513244628906 C 160.35763549804688 318.17999267578125 159.4589080810547 285.6812744140625 157.03173828125 260.9315185546875 C 163.8404541015625 235.07073974609375 163.8264923095703 214.34194946289062 177.020263671875 200.94960021972656 C 175.9585723876953 189.41407775878906 181.52574157714844 181.6533966064453 179.7364044189453 177.80474853515625 C 186.38453674316406 143.1392364501953 201.01669311523438 115.71846771240234 212.02378845214844 84.6764144897461 C 222.12265014648438 55.24396896362305 234.1313018798828 27.307157516479492 250.76467895507812 -4.021121501922607" stroke-width="0.0" fill="rgb(84, 85, 80)" opacity="0.9814163" stroke="rgb(0, 0, 0)" stroke-opacity="1.0" stroke-linecap="round" stroke-linejoin="round"/>
    <path d="M 175.1667938232422 415.5308532714844 C 159.5695343017578 416.6155090332031 142.20359802246094 420.4730529785156 123.25337982177734 419.3316955566406 C 125.89038848876953 423.2880554199219 129.35955810546875 428.40936279296875 133.25738525390625 430.3825378417969 C 129.98193359375 448.79302978515625 132.65855407714844 470.43560791015625 132.15980529785156 496.2349548339844 C 144.94122314453125 497.3355407714844 155.3794403076172 497.026123046875 165.40576171875 496.5833435058594 C 162.76380920410156 466.4888610839844 169.0717010498047 443.14117431640625 175.1667938232422 415.5308532714844" stroke-width="0.0" fill="rgb(77, 75, 80)" opacity="0.9979628" stroke="rgb(0, 0, 0)" stroke-opacity="1.0" stroke-linecap="round" stroke-linejoin="round"/>
    <path d="M 141.8392791748047 350.00872802734375 C 140.30621337890625 362.7175598144531 141.6466827392578 374.58758544921875 139.64842224121094 386.6416931152344 C 153.7312774658203 385.6152648925781 167.2719268798828 387.2419738769531 180.03973388671875 385.06939697265625 C 179.15203857421875 370.02239990234375 169.98387145996094 364.1069641113281 163.0321502685547 349.51654052734375 C 156.82620239257812 365.1181640625 156.19732666015625 363.1528015136719 141.8392791748047 350.00872802734375" stroke-width="0.0" fill="rgb(57, 53, 54)" opacity="0.9408943" stroke="rgb(0, 0, 0)" stroke-opacity="1.0" stroke-linecap="round" stroke-linejoin="round"/>
    <path d="M 19.95794677734375 424.39447021484375 C 11.85420036315918 425.57220458984375 9.408608436584473 429.2397155761719 3.859767436981201 427.89166259765625 C 1.3701053857803345 447.93768310546875 3.5423152446746826 467.96514892578125 4.248485088348389 491.7296142578125 C 7.075578212738037 490.66558837890625 11.810942649841309 491.7584533691406 13.008289337158203 489.4960632324219 C 13.472199440002441 462.3348693847656 9.393302917480469 441.0196533203125 19.95794677734375 424.39447021484375" stroke-width="0.0" fill="rgb(29, 29, 27)" opacity="1.001525" stroke="rgb(0, 0, 0)" stroke-opacity="1.0" stroke-linecap="round" stroke-linejoin="round"/>
    <path d="M 139.85182189941406 360.2917175292969 C 124.17496490478516 361.49658203125 106.92333221435547 362.0002136230469 91.95942687988281 363.1238708496094 C 93.99146270751953 369.4224548339844 93.4075698852539 380.5500183105469 91.69747161865234 388.41754150390625 C 107.13589477539062 387.825927734375 123.45574951171875 386.8458251953125 141.3967742919922 387.28631591796875 C 140.90817260742188 376.3030700683594 141.32093811035156 367.9197082519531 139.85182189941406 360.2917175292969" stroke-width="0.0" fill="rgb(147, 155, 162)" opacity="1.013927" stroke="rgb(0, 0, 0)" stroke-opacity="1.0" stroke-linecap="round" stroke-linejoin="round"/>
    <path d="M 5.489994049072266 296.9784240722656 C 5.596591472625732 309.4090270996094 8.180715560913086 316.18572998046875 15.046156883239746 315.326416015625 C 49.858375549316406 327.1026916503906 81.54926300048828 341.4173278808594 124.16785430908203 347.8100891113281 C 84.46439361572266 329.0821533203125 43.78541564941406 314.85986328125 5.489994049072266 296.9784240722656" stroke-width="0.0" fill="rgb(113, 113, 110)" opacity="0.97162163" stroke="rgb(0, 0, 0)" stroke-opacity="1.0" stroke-linecap="round" stroke-linejoin="round"/>
    <path d="M 321.0727233886719 496.35186767578125 C 318.71966552734375 499.0421447753906 320.7658996582031 505.71893310546875 318.6776428222656 517.9655151367188 C 344.61932373046875 519.2833862304688 367.9793701171875 521.8886108398438 386.2791748046875 513.0528564453125 C 365.6709289550781 501.787109375 343.06658935546875 498.2226867675781 321.0727233886719 496.35186767578125" stroke-width="0.0" fill="rgb(31, 29, 27)" opacity="0.9630818" stroke="rgb(0, 0, 0)" stroke-opacity="1.0" stroke-linecap="round" stroke-linejoin="round"/>
    <path d="M 376.4617004394531 201.41590881347656 C 339.4075012207031 203.6725616455078 307.0639953613281 208.92442321777344 274.7787170410156 208.56759643554688 C 282.5045471191406 235.4432373046875 269.36090087890625 236.84300231933594 268.18011474609375 260.6091613769531 C 275.39544677734375 270.6488952636719 292.15081787109375 269.92315673828125 301.2812805175781 274.9250793457031 C 307.41015625 279.56787109375 312.977783203125 284.1368103027344 316.96234130859375 292.4248962402344 C 321.5830993652344 307.1962585449219 323.1785583496094 328.86944580078125 322.7160339355469 352.9958801269531 C 325.26318359375 358.9766540527344 329.076171875 361.1477966308594 341.15869140625 361.3675842285156 C 365.091064453125 352.3513488769531 385.58599853515625 343.2412414550781 406.65447998046875 337.6831970214844 C 412.2651672363281 297.2810363769531 409.43359375 269.0667724609375 400.4076843261719 240.2286834716797 C 397.0184631347656 224.45433044433594 386.26837158203125 214.32034301757812 376.4617004394531 201.41590881347656" stroke-width="0.0" fill="rgb(53, 53, 45)" opacity="0.98768157" stroke="rgb(0, 0, 0)" stroke-opacity="1.0" stroke-linecap="round" stroke-linejoin="round"/>
    <path d="M 305.66748046875 377.9979553222656 C 261.5594787597656 379.6447448730469 221.97579956054688 381.88494873046875 182.60260009765625 389.2647399902344 C 176.9171600341797 410.20623779296875 171.38685607910156 434.578857421875 172.810546875 466.38897705078125 C 218.07427978515625 469.48553466796875 266.5402526855469 468.23089599609375 316.0590515136719 471.594482421875 C 321.1522521972656 468.15277099609375 319.0308837890625 464.74371337890625 319.606689453125 449.5809631347656 C 315.9095458984375 425.5276184082031 308.3526916503906 403.6842956542969 305.66748046875 377.9979553222656" stroke-width="0.0" fill="rgb(30, 30, 34)" opacity="1.0436542" stroke="rgb(0, 0, 0)" stroke-opacity="1.0" stroke-linecap="round" stroke-linejoin="round"/>
    <path d="M 375.1262512207031 -1.5090802907943726 C 373.2594299316406 62.58539962768555 370.01947021484375 125.38878631591797 370.7983703613281 198.07720947265625 C 373.9464416503906 207.86526489257812 392.675537109375 211.74050903320312 395.10565185546875 232.91893005371094 C 405.237548828125 250.09120178222656 408.384033203125 272.8579406738281 410.73297119140625 305.2918701171875 C 406.1737365722656 201.58963012695312 407.7184753417969 100.06707000732422 414.526611328125 5.866668701171875 C 413.24432373046875 2.6419777870178223 410.8514404296875 0.7912181615829468 408.91943359375 -0.7192069292068481 C 397.9967346191406 -1.6262706518173218 387.00689697265625 -2.0817129611968994 375.1262512207031 -1.5090802907943726" stroke-width="0.0" fill="rgb(44, 36, 20)" opacity="0.98022336" stroke="rgb(0, 0, 0)" stroke-opacity="1.0" stroke-linecap="round" stroke-linejoin="round"/>
    <path d="M 178.64248657226562 466.45440673828125 C 179.38525390625 483.569091796875 178.55929565429688 498.380859375 180.517822265625 517.5951538085938 C 225.41697692871094 518.2561645507812 270.7339172363281 518.8775024414062 316.4451599121094 518.0077514648438 C 315.4892883300781 495.73809814453125 315.2563781738281 480.8634948730469 317.6201477050781 470.0771789550781 C 264.6496887207031 469.25048828125 219.65576171875 467.97344970703125 178.64248657226562 466.45440673828125" stroke-width="0.0" fill="rgb(22, 24, 28)" opacity="0.9895205" stroke="rgb(0, 0, 0)" stroke-opacity="1.0" stroke-linecap="round" stroke-linejoin="round"/>
    <path d="M 14.786858558654785 449.2270202636719 C 12.846796989440918 463.2410583496094 11.630712509155273 475.5901794433594 14.652013778686523 492.3186950683594 C 52.450714111328125 491.32476806640625 89.36402130126953 491.5207824707031 124.78392791748047 489.6759033203125 C 127.72367095947266 474.9798889160156 124.86355590820312 459.7729797363281 126.79562377929688 447.7413024902344 C 88.1123046875 447.14874267578125 51.43490219116211 448.80322265625 14.786858558654785 449.2270202636719" stroke-width="0.0" fill="rgb(144, 151, 159)" opacity="0.9970187" stroke="rgb(0, 0, 0)" stroke-opacity="1.0" stroke-linecap="round" stroke-linejoin="round"/>
    <path d="M 350.4344787597656 390.0196838378906 C 350.5895690917969 418.078857421875 356.1117248535156 457.1026916503906 356.4815368652344 497.890625 C 362.53985595703125 496.03314208984375 372.6120300292969 496.99810791015625 382.1861267089844 498.4704895019531 C 381.9389343261719 461.8432922363281 382.2637939453125 425.1658630371094 381.2778625488281 388.7200622558594 C 376.7652587890625 389.5919189453125 363.1192626953125 388.0437316894531 350.4344787597656 390.0196838378906" stroke-width="0.0" fill="rgb(76, 78, 79)" opacity="0.9930297" stroke="rgb(0, 0, 0)" stroke-opacity="1.0" stroke-linecap="round" stroke-linejoin="round"/>
    <path d="M 12.540943145751953 492.0326843261719 C 11.807161331176758 497.212158203125 14.319913864135742 504.8451843261719 11.0849609375 517.29052734375 C 50.38335418701172 517.2879638671875 87.80821990966797 517.373291015625 124.96633911132812 517.4188842773438 C 126.38923645019531 500.7009582519531 126.50080108642578 493.6824035644531 122.74543762207031 489.3741149902344 C 83.87754821777344 490.50140380859375 48.314476013183594 491.3929748535156 12.540943145751953 492.0326843261719" stroke-width="0.0" fill="rgb(114, 116, 118)" opacity="1.0278643" stroke="rgb(0, 0, 0)" stroke-opacity="1.0" stroke-linecap="round" stroke-linejoin="round"/>
    <path d="M 312.7744140625 410.2072448730469 C 315.68865966796875 427.9036560058594 321.76495361328125 440.87286376953125 321.0904541015625 464.8087158203125 C 324.4197082519531 472.6214294433594 318.65771484375 474.2504577636719 318.3268127441406 490.80328369140625 C 322.9781188964844 491.4944763183594 337.1137390136719 491.1301574707031 348.6094665527344 491.5081787109375 C 348.0587158203125 465.08233642578125 347.70989990234375 437.97418212890625 348.6028137207031 412.3724670410156 C 332.7344970703125 411.3070373535156 321.2566833496094 409.0078125 312.7744140625 410.2072448730469" stroke-width="0.0" fill="rgb(76, 79, 85)" opacity="1.0081778" stroke="rgb(0, 0, 0)" stroke-opacity="1.0" stroke-linecap="round" stroke-linejoin="round"/>
    <path d="M 517.4220581054688 342.0022888183594 C 469.5084533691406 341.1042175292969 428.6261291503906 342.7471618652344 387.94329833984375 343.966064453125 C 381.4621887207031 345.3772888183594 379.858642578125 349.4236145019531 382.1878356933594 358.2634582519531 C 420.3591613769531 363.24041748046875 464.5091552734375 362.65753173828125 516.930908203125 361.5296630859375 C 517.71875 353.0906677246094 518.4552001953125 344.0958251953125 517.4220581054688 342.0022888183594" stroke-width="0.0" fill="rgb(219, 222, 226)" opacity="1.1495713" stroke="rgb(0, 0, 0)" stroke-opacity="1.0" stroke-linecap="round" stroke-linejoin="round"/>
    <path d="M 11.004279136657715 447.4706726074219 C 25.511234283447266 448.9226379394531 44.95909881591797 448.7285461425781 71.1314468383789 446.04241943359375 C 72.13365173339844 445.0662841796875 70.97122192382812 436.70513916015625 69.31973266601562 422.83721923828125 C 64.8316421508789 414.8182067871094 59.64762496948242 409.938720703125 55.18943405151367 404.30267333984375 C 49.9809684753418 402.3081970214844 40.43944549560547 401.87274169921875 34.07429885864258 403.5613098144531 C 25.180227279663086 412.6392517089844 16.124217987060547 426.13458251953125 11.004279136657715 447.4706726074219" stroke-width="0.0" fill="rgb(231, 186, 52)" opacity="0.9405866" stroke="rgb(0, 0, 0)" stroke-opacity="1.0" stroke-linecap="round" stroke-linejoin="round"/>
    <path d="M 76.22241973876953 417.4615478515625 C 73.00602722167969 426.2276306152344 70.58322143554688 433.5257873535156 71.22677612304688 447.0541687011719 C 88.86185455322266 446.8198547363281 112.61688995361328 447.63311767578125 130.23809814453125 446.8150329589844 C 131.88133239746094 433.55731201171875 125.76212310791016 427.37542724609375 123.6951904296875 417.19989013671875 C 118.58983612060547 413.0279235839844 112.59992218017578 409.2017517089844 107.63076782226562 404.465087890625 C 100.6090316772461 405.12200927734375 94.4035873413086 404.6988220214844 88.76103210449219 406.5265808105469 C 83.98797607421875 408.58221435546875 79.89730834960938 413.07666015625 76.22241973876953 417.4615478515625" stroke-width="0.0" fill="rgb(226, 205, 102)" opacity="0.98512185" stroke="rgb(0, 0, 0)" stroke-opacity="1.0" stroke-linecap="round" stroke-linejoin="round"/>
    <path d="M 385.3058776855469 372.04278564453125 C 418.984375 374.3993835449219 464.77667236328125 372.497802734375 513.8489379882812 371.5223693847656 C 517.8082275390625 370.4656982421875 517.6062622070312 362.6518859863281 516.6765747070312 359.04705810546875 C 467.65460205078125 357.66802978515625 427.88494873046875 358.9350891113281 393.1941223144531 359.70123291015625 C 386.7745361328125 359.0625915527344 380.9107666015625 365.8454895019531 385.3058776855469 372.04278564453125" stroke-width="0.0" fill="rgb(241, 244, 247)" opacity="1.0104321" stroke="rgb(0, 0, 0)" stroke-opacity="1.0" stroke-linecap="round" stroke-linejoin="round"/>
    <path d="M 305.0055236816406 68.05467224121094 C 290.8609924316406 72.55440521240234 292.53277587890625 73.93262481689453 293.8618469238281 84.74816131591797 C 313.085693359375 107.45215606689453 335.4137268066406 129.368408203125 357.8345947265625 149.72242736816406 C 366.8365478515625 144.29286193847656 366.4576721191406 140.7392578125 366.0910949707031 133.19534301757812 C 357.7775573730469 125.6539535522461 352.4900817871094 115.6833724975586 346.28021240234375 106.74623107910156 C 332.76312255859375 91.7815933227539 318.3193054199219 77.41798400878906 305.0055236816406 68.05467224121094" stroke-width="0.0" fill="rgb(33, 29, 11)" opacity="0.9996877" stroke="rgb(0, 0, 0)" stroke-opacity="1.0" stroke-linecap="round" stroke-linejoin="round"/>
    <path d="M 515.0619506835938 328.190185546875 C 481.19659423828125 330.2332458496094 450.5282287597656 329.48028564453125 422.7860107421875 330.9447326660156 C 417.77032470703125 331.5283203125 418.03033447265625 337.4809875488281 419.43096923828125 342.81201171875 C 448.65386962890625 343.0310363769531 480.42218017578125 341.766845703125 516.9449462890625 341.2054138183594 C 516.5863037109375 335.37005615234375 517.519775390625 331.1377258300781 515.0619506835938 328.190185546875" stroke-width="0.0" fill="rgb(83, 87, 93)" opacity="1.0005538" stroke="rgb(0, 0, 0)" stroke-opacity="1.0" stroke-linecap="round" stroke-linejoin="round"/>
    <path d="M 347.33245849609375 380.70831298828125 C 332.368408203125 382.30438232421875 320.0830383300781 381.85748291015625 308.0982971191406 381.624755859375 C 307.025634765625 391.9058837890625 310.3500061035156 400.8351135253906 312.7471923828125 412.5467529296875 C 320.6589660644531 412.4549560546875 331.67608642578125 412.1626892089844 350.628662109375 412.2538757324219 C 351.8883056640625 405.7204895019531 350.9779968261719 396.97796630859375 347.33245849609375 380.70831298828125" stroke-width="0.0" fill="rgb(190, 196, 197)" opacity="0.9813862" stroke="rgb(0, 0, 0)" stroke-opacity="1.0" stroke-linecap="round" stroke-linejoin="round"/>
    <path d="M 392.342041015625 420.3853759765625 C 391.23236083984375 429.1944274902344 392.1579284667969 442.11175537109375 391.6752014160156 449.4002990722656 C 406.954345703125 448.92218017578125 421.7053527832031 449.2709045410156 430.6604309082031 449.48944091796875 C 433.5584716796875 437.2154541015625 433.1224365234375 426.88836669921875 428.76617431640625 421.4596862792969 C 418.6752624511719 420.4692077636719 403.5558166503906 421.03741455078125 392.342041015625 420.3853759765625" stroke-width="0.0" fill="rgb(155, 169, 178)" opacity="0.999621" stroke="rgb(0, 0, 0)" stroke-opacity="1.0" stroke-linecap="round" stroke-linejoin="round"/>
    <path d="M 450.9523010253906 23.451255798339844 C 436.6117248535156 26.293704986572266 429.185546875 30.768964767456055 426.3984069824219 45.22834396362305 C 429.2716979980469 49.25429153442383 433.1044921875 55.429107666015625 439.8333740234375 57.07571792602539 C 449.3949890136719 57.12700271606445 455.4593505859375 56.66990280151367 459.08294677734375 53.93570327758789 C 463.9842834472656 50.12015914916992 467.5174560546875 49.896575927734375 466.5849914550781 38.35193634033203 C 463.21307373046875 31.753337860107422 456.5008544921875 25.22089385986328 450.9523010253906 23.451255798339844" stroke-width="0.0" fill="rgb(222, 228, 223)" opacity="1.0081887" stroke="rgb(0, 0, 0)" stroke-opacity="1.0" stroke-linecap="round" stroke-linejoin="round"/>
    <path d="M 476.4131164550781 420.8315734863281 C 475.97113037109375 429.10223388671875 474.82391357421875 443.09051513671875 477.0132751464844 447.7702331542969 C 487.1301574707031 447.9838562011719 499.655029296875 448.1985778808594 517.8660278320312 448.4437255859375 C 518.2752685546875 436.71478271484375 518.27587890625 426.75732421875 518.6292724609375 419.70220947265625 C 500.2096252441406 419.9273986816406 484.0810241699219 419.40753173828125 476.4131164550781 420.8315734863281" stroke-width="0.0" fill="rgb(173, 185, 192)" opacity="1.002366" stroke="rgb(0, 0, 0)" stroke-opacity="1.0" stroke-linecap="round" stroke-linejoin="round"/>
    <path d="M 468.81158447265625 -1.3561285734176636 C 483.49285888671875 15.152386665344238 497.203125 30.152917861938477 512.9951782226562 48.60124969482422 C 519.610107421875 34.9925422668457 518.3355102539062 17.847326278686523 518.5970458984375 -5.000679016113281 C 496.1180114746094 -5.1222381591796875 481.0081787109375 -5.997618198394775 468.81158447265625 -1.3561285734176636" stroke-width="0.0" fill="rgb(72, 76, 50)" opacity="0.98085225" stroke="rgb(0, 0, 0)" stroke-opacity="1.0" stroke-linecap="round" stroke-linejoin="round"/>
    <path d="M 517.1406860351562 293.6189270019531 C 502.627197265625 295.6055603027344 494.5174865722656 298.7434387207031 483.491943359375 302.2986755371094 C 483.6655578613281 300.4554443359375 482.84918212890625 308.9556884765625 482.3182678222656 319.4227600097656 C 490.6770324707031 319.0885009765625 501.87298583984375 318.9761962890625 517.7353515625 319.3426208496094 C 517.1759643554688 309.9010925292969 517.4290161132812 301.1325378417969 517.1406860351562 293.6189270019531" stroke-width="0.0" fill="rgb(4, 6, 6)" opacity="1.0173471" stroke="rgb(0, 0, 0)" stroke-opacity="1.0" stroke-linecap="round" stroke-linejoin="round"/>
    <path d="M 321.93304443359375 -3.1462197303771973 C 282.9381408691406 -6.939986705780029 249.98655700683594 -7.002037525177002 224.5794219970703 -4.319948196411133 C 203.52626037597656 58.30362319946289 192.21054077148438 120.74771118164062 176.61935424804688 179.88429260253906 C 174.8852081298828 189.37677001953125 176.50924682617188 194.88829040527344 180.65194702148438 194.3565216064453 C 184.1934814453125 193.75631713867188 180.23631286621094 196.20297241210938 178.45993041992188 199.6944122314453 C 191.950927734375 195.73268127441406 202.72750854492188 200.27854919433594 219.11959838867188 204.73855590820312 C 225.9408721923828 192.35914611816406 238.42327880859375 188.23216247558594 250.95254516601562 186.314208984375 C 258.71124267578125 158.25563049316406 265.6356506347656 132.5857696533203 274.29888916015625 108.8685073852539 C 289.4593200683594 73.42850494384766 304.85467529296875 37.73937225341797 321.93304443359375 -3.1462197303771973" stroke-width="0.0" fill="rgb(93, 100, 74)" opacity="0.9407051" stroke="rgb(0, 0, 0)" stroke-opacity="1.0" stroke-linecap="round" stroke-linejoin="round"/>
    <path d="M 289.18707275390625 80.77286529541016 C 282.4400634765625 94.08297729492188 276.2818298339844 109.8808822631836 269.99090576171875 124.14644622802734 C 264.72515869140625 144.5816650390625 256.410888671875 162.37010192871094 253.77999877929688 185.643798828125 C 264.6077880859375 191.44015502929688 270.5491027832031 197.6809844970703 274.2373352050781 208.62266540527344 C 308.0021667480469 207.21536254882812 338.53045654296875 204.13034057617188 364.3811340332031 197.08335876464844 C 370.35443115234375 177.81080627441406 367.16070556640625 162.13865661621094 361.0429992675781 149.51454162597656 C 338.7693176269531 125.52713012695312 315.9252014160156 101.87435913085938 289.18707275390625 80.77286529541016" stroke-width="0.0" fill="rgb(71, 90, 36)" opacity="0.9387037" stroke="rgb(0, 0, 0)" stroke-opacity="1.0" stroke-linecap="round" stroke-linejoin="round"/>
    <path d="M 325.1370849609375 -3.097883701324463 C 314.2073974609375 19.867460250854492 304.6412048339844 41.04292678833008 296.5940246582031 65.88925170898438 C 323.0342712402344 83.22093963623047 343.61712646484375 106.1059341430664 366.88287353515625 130.51165771484375 C 372.4670715332031 91.52009582519531 372.28790283203125 47.57411193847656 372.929931640625 -5.120816707611084 C 364.0738830566406 -7.872348308563232 347.41259765625 -8.251486778259277 325.1370849609375 -3.097883701324463" stroke-width="0.0" fill="rgb(104, 116, 62)" opacity="0.9618644" stroke="rgb(0, 0, 0)" stroke-opacity="1.0" stroke-linecap="round" stroke-linejoin="round"/>
    <path d="M 5.249472141265869 260.3177490234375 C 3.0087790489196777 272.5243225097656 3.0776984691619873 287.03021240234375 5.926678657531738 296.84063720703125 C 44.88319396972656 314.07366943359375 85.12297058105469 329.900390625 127.69334411621094 346.0127258300781 C 131.23867797851562 331.5875244140625 127.86076354980469 318.8665771484375 125.74272918701172 310.7437744140625 C 83.01339721679688 293.472412109375 43.47397994995117 277.94964599609375 5.249472141265869 260.3177490234375" stroke-width="0.0" fill="rgb(23, 24, 20)" opacity="0.96008724" stroke="rgb(0, 0, 0)" stroke-opacity="1.0" stroke-linecap="round" stroke-linejoin="round"/>
    <path d="M 169.61944580078125 215.07431030273438 C 164.78030395507812 223.5039520263672 163.74085998535156 235.5489044189453 164.33238220214844 247.32098388671875 C 186.87474060058594 246.97996520996094 207.3158721923828 246.55052185058594 223.82359313964844 247.15284729003906 C 222.29978942871094 232.25823974609375 216.26171875 226.10345458984375 219.22219848632812 214.91802978515625 C 216.48008728027344 208.57508850097656 210.29859924316406 206.5744171142578 207.52076721191406 204.08441162109375 C 199.81900024414062 201.13258361816406 191.56719970703125 198.9093475341797 183.9417266845703 201.74879455566406 C 177.41256713867188 203.96409606933594 172.2149658203125 208.96351623535156 169.61944580078125 215.07431030273438" stroke-width="0.0" fill="rgb(15, 15, 15)" opacity="1.030016" stroke="rgb(0, 0, 0)" stroke-opacity="1.0" stroke-linecap="round" stroke-linejoin="round"/>
    <path d="M 91.82984161376953 341.1646728515625 C 72.51580047607422 331.1683044433594 55.57758331298828 323.0258483886719 28.85018539428711 320.3238525390625 C 26.881088256835938 321.89501953125 27.978836059570312 326.9026794433594 31.40342903137207 339.5321044921875 C 28.244047164916992 339.35296630859375 31.59579849243164 342.604248046875 36.46076965332031 337.9010925292969 C 37.583953857421875 348.18597412109375 39.20983123779297 357.2184143066406 39.54403305053711 367.65008544921875 C 38.29384994506836 372.4581604003906 40.3743896484375 373.8966369628906 32.57304382324219 370.8501892089844 C 35.29036331176758 365.34832763671875 32.96381378173828 363.01043701171875 30.022001266479492 359.00775146484375 C 27.93105697631836 359.8949890136719 26.055814743041992 361.2574768066406 22.76654815673828 366.6852722167969 C 26.421838760375977 364.4579772949219 32.380516052246094 359.9521789550781 29.43463897705078 352.4167175292969 C 31.795854568481445 360.5560607910156 36.446197509765625 373.451416015625 35.599021911621094 394.65216064453125 C 25.642192840576172 396.0628967285156 17.284940719604492 386.292236328125 17.500246047973633 389.339111328125 C 21.962562561035156 395.62030029296875 30.589683532714844 390.1850891113281 38.43742370605469 396.4286804199219 C 39.46625900268555 390.2734069824219 38.86221694946289 383.0371398925781 52.61365509033203 388.20404052734375 C 45.703880310058594 381.4664001464844 47.55711364746094 368.0110778808594 50.649959564208984 361.6670837402344 C 54.99581527709961 358.20770263671875 58.2543830871582 350.8970031738281 66.29644012451172 349.1158752441406 C 68.5942611694336 350.146728515625 81.31413269042969 347.114013671875 99.41170501708984 345.73822021484375 C 93.59278869628906 343.7108154296875 85.6388168334961 343.404296875 91.82984161376953 341.1646728515625" stroke-width="0.0" fill="rgb(78, 79, 79)" opacity="0.9417238" stroke="rgb(0, 0, 0)" stroke-opacity="1.0" stroke-linecap="round" stroke-linejoin="round"/>
    <path d="M 145.17056274414062 -1.378326416015625 C 162.2220458984375 16.87860107421875 179.75936889648438 29.818721771240234 196.62184143066406 44.31309127807617 C 207.18222045898438 32.541690826416016 213.1381072998047 17.33545684814453 222.20285034179688 -5.7934441566467285 C 199.5526123046875 -6.960625171661377 175.57568359375 -6.604480266571045 145.17056274414062 -1.378326416015625" stroke-width="0.0" fill="rgb(51, 53, 46)" opacity="1.0041708" stroke="rgb(0, 0, 0)" stroke-opacity="1.0" stroke-linecap="round" stroke-linejoin="round"/>
    <path d="M 472.37945556640625 272.35723876953125 C 468.9952392578125 268.2308349609375 463.19207763671875 267.7583312988281 457.0930480957031 270.9269104003906 C 454.25 275.0019226074219 450.6705017089844 281.1323547363281 445.44195556640625 288.61724853515625 C 446.2727355957031 298.744140625 446.5008544921875 306.7601318359375 439.79058837890625 319.7271423339844 C 453.1881103515625 320.78741455078125 470.6609802246094 320.1064758300781 480.5018005371094 319.64483642578125 C 481.8262634277344 296.4265441894531 480.3059387207031 279.54254150390625 472.37945556640625 272.35723876953125" stroke-width="0.0" fill="rgb(182, 196, 160)" opacity="1.0028561" stroke="rgb(0, 0, 0)" stroke-opacity="1.0" stroke-linecap="round" stroke-linejoin="round"/>
    <path d="M 383.6751708984375 497.1455993652344 C 384.1781311035156 501.5992126464844 381.9672546386719 506.25909423828125 387.67901611328125 507.4004211425781 C 428.1483154296875 507.1609802246094 470.46173095703125 507.1950988769531 518.2467651367188 506.2505187988281 C 516.9064331054688 500.52386474609375 516.9049682617188 497.3871765136719 518.8802490234375 496.5949401855469 C 470.5638122558594 496.48541259765625 424.54364013671875 497.8605651855469 383.6751708984375 497.1455993652344" stroke-width="0.0" fill="rgb(214, 219, 223)" opacity="0.9970756" stroke="rgb(0, 0, 0)" stroke-opacity="1.0" stroke-linecap="round" stroke-linejoin="round"/>
    <path d="M 31.486600875854492 318.6368713378906 C 25.32593536376953 324.0927734375 24.55877113342285 339.99609375 20.85122299194336 346.56536865234375 C 20.03130531311035 363.5682067871094 14.4345064163208 384.634033203125 16.660812377929688 394.80712890625 C 27.527482986450195 372.95184326171875 30.07001304626465 348.4550476074219 31.486600875854492 318.6368713378906" stroke-width="0.0" fill="rgb(173, 178, 179)" opacity="1.052787" stroke="rgb(0, 0, 0)" stroke-opacity="1.0" stroke-linecap="round" stroke-linejoin="round"/>
    <path d="M 223.50856018066406 246.4832000732422 C 205.47552490234375 246.26467895507812 185.20745849609375 248.4491729736328 164.7794189453125 244.75323486328125 C 165.91940307617188 247.96307373046875 158.8669891357422 248.71881103515625 159.1446533203125 251.9958038330078 C 158.8175811767578 279.03375244140625 158.1380615234375 304.063232421875 163.2379913330078 323.4326477050781 C 168.6305694580078 312.7012023925781 165.60833740234375 291.7442932128906 178.27166748046875 279.5753173828125 C 181.59658813476562 270.2198486328125 204.99281311035156 273.91204833984375 221.1938934326172 262.5143737792969 C 224.6273651123047 257.00811767578125 228.22019958496094 252.033935546875 223.50856018066406 246.4832000732422" stroke-width="0.0" fill="rgb(28, 28, 30)" opacity="0.99261546" stroke="rgb(0, 0, 0)" stroke-opacity="1.0" stroke-linecap="round" stroke-linejoin="round"/>
    <path d="M 505.9771423339844 243.53761291503906 C 507.9126281738281 246.4893341064453 505.2216796875 247.24200439453125 506.7307434082031 247.46343994140625 C 507.964599609375 254.7976531982422 505.4383850097656 262.9298095703125 497.55340576171875 277.5108337402344 C 487.4125061035156 276.9958190917969 479.59490966796875 275.84808349609375 478.5400390625 283.9839782714844 C 476.4509582519531 294.61761474609375 477.882568359375 299.834716796875 480.95745849609375 307.2746276855469 C 490.6588439941406 302.329833984375 499.3684997558594 296.35076904296875 519.5069580078125 292.530029296875 C 518.8176879882812 272.2492980957031 511.6003112792969 256.9341735839844 505.9771423339844 243.53761291503906" stroke-width="0.0" fill="rgb(77, 66, 52)" opacity="0.9394814" stroke="rgb(0, 0, 0)" stroke-opacity="1.0" stroke-linecap="round" stroke-linejoin="round"/>
    <path d="M 519.4058227539062 211.869873046875 C 501.9306335449219 212.36973571777344 497.5964050292969 215.77987670898438 495.6918640136719 224.5564727783203 C 497.7511291503906 243.1428680419922 505.256103515625 257.3202819824219 517.7527465820312 267.9976806640625 C 510.9909973144531 266.9166259765625 513.2532958984375 266.2020263671875 519.5523071289062 272.114501953125 C 519.458984375 254.54177856445312 519.329833984375 233.24415588378906 519.4058227539062 211.869873046875" stroke-width="0.0" fill="rgb(39, 28, 26)" opacity="0.9778719" stroke="rgb(0, 0, 0)" stroke-opacity="1.0" stroke-linecap="round" stroke-linejoin="round"/>
    <path d="M 230.72738647460938 381.5565490722656 C 223.98208618164062 377.7367858886719 226.3697509765625 368.9944763183594 225.45870971679688 370.0551452636719 C 212.42477416992188 375.1792297363281 197.63890075683594 376.6902160644531 181.1712188720703 373.1654357910156 C 177.8241729736328 379.3472595214844 180.3309783935547 384.7068786621094 182.2146759033203 391.33404541015625 C 195.67234802246094 384.278076171875 215.54856872558594 386.0439758300781 230.72738647460938 381.5565490722656" stroke-width="0.0" fill="rgb(121, 22, 26)" opacity="0.9737174" stroke="rgb(0, 0, 0)" stroke-opacity="1.0" stroke-linecap="round" stroke-linejoin="round"/>
    <path d="M 33.065731048583984 344.90374755859375 C 23.336280822753906 358.0670471191406 22.55961799621582 375.3340148925781 19.287464141845703 394.4540100097656 C 25.521602630615234 397.0710144042969 30.596858978271484 398.3787536621094 38.407135009765625 400.63446044921875 C 34.54401779174805 379.40032958984375 35.89866256713867 357.4229431152344 33.065731048583984 344.90374755859375" stroke-width="0.0" fill="rgb(56, 56, 55)" opacity="0.88503027" stroke="rgb(0, 0, 0)" stroke-opacity="1.0" stroke-linecap="round" stroke-linejoin="round"/>
    <path d="M 318.621826171875 341.5540466308594 C 313.453857421875 337.54449462890625 307.2965393066406 335.5842590332031 294.6758728027344 338.1374206542969 C 272.9041748046875 350.2625732421875 247.51138305664062 357.7434997558594 225.19752502441406 369.2713623046875 C 233.1290283203125 375.2270202636719 236.54342651367188 373.76300048828125 231.44044494628906 382.7732849121094 C 255.8785400390625 380.920654296875 275.4331970214844 380.0117492675781 293.188720703125 377.8702392578125 C 302.2976989746094 373.8304443359375 312.1830749511719 370.852783203125 317.4194641113281 365.3408203125 C 321.1227111816406 356.6581726074219 322.71563720703125 350.1452331542969 318.621826171875 341.5540466308594" stroke-width="0.0" fill="rgb(191, 141, 114)" opacity="0.8585386" stroke="rgb(0, 0, 0)" stroke-opacity="1.0" stroke-linecap="round" stroke-linejoin="round"/>
    <path d="M 350.5954895019531 341.67315673828125 C 343.050048828125 390.3815002441406 349.2667541503906 445.4461364746094 348.0048522949219 481.1467590332031 C 345.3800048828125 492.4692077636719 348.02886962890625 499.19024658203125 358.23834228515625 497.4451599121094 C 357.3730163574219 446.9852294921875 358.6174621582031 397.20709228515625 350.5954895019531 341.67315673828125" stroke-width="0.0" fill="rgb(166, 171, 173)" opacity="0.9149412" stroke="rgb(0, 0, 0)" stroke-opacity="1.0" stroke-linecap="round" stroke-linejoin="round"/>
    <path d="M 144.75079345703125 358.9570617675781 C 140.0336151123047 362.3477783203125 140.39959716796875 369.81085205078125 142.08343505859375 386.3848571777344 C 146.1902618408203 385.8183898925781 155.26580810546875 385.7828063964844 164.78897094726562 386.4350891113281 C 163.6016082763672 376.9190368652344 164.85935974121094 365.15093994140625 163.12168884277344 353.3883056640625 C 155.42225646972656 354.5460205078125 145.0951385498047 351.5335388183594 144.75079345703125 358.9570617675781" stroke-width="0.0" fill="rgb(47, 46, 48)" opacity="0.9903035" stroke="rgb(0, 0, 0)" stroke-opacity="1.0" stroke-linecap="round" stroke-linejoin="round"/>
    <path d="M 461.9752197265625 156.8531494140625 C 454.67529296875 166.3306884765625 461.4257507324219 169.701904296875 466.10162353515625 180.01853942871094 C 475.999267578125 191.83982849121094 483.50860595703125 206.5177764892578 494.92431640625 219.77801513671875 C 497.84759521484375 214.90309143066406 500.5495910644531 212.22213745117188 502.2735290527344 211.46295166015625 C 486.1521301269531 193.80453491210938 473.37078857421875 175.4679412841797 461.9752197265625 156.8531494140625" stroke-width="0.0" fill="rgb(45, 46, 16)" opacity="1.0003285" stroke="rgb(0, 0, 0)" stroke-opacity="1.0" stroke-linecap="round" stroke-linejoin="round"/>
    <path d="M 517.774658203125 349.9857482910156 C 471.2562561035156 353.1961364746094 420.6284484863281 349.8450927734375 379.61474609375 355.07025146484375 C 420.2635192871094 360.9365539550781 467.85931396484375 358.294677734375 513.9223022460938 358.6219482421875 C 516.9874877929688 358.2614440917969 517.6851196289062 351.16180419921875 517.774658203125 349.9857482910156" stroke-width="0.0" fill="rgb(108, 112, 119)" opacity="0.9854697" stroke="rgb(0, 0, 0)" stroke-opacity="1.0" stroke-linecap="round" stroke-linejoin="round"/>
    <path d="M 367.6094970703125 198.6862030029297 C 340.4225769042969 203.42047119140625 307.13092041015625 208.17884826660156 277.5211486816406 211.79588317871094 C 278.83544921875 239.33111572265625 265.7451477050781 243.30003356933594 268.62548828125 262.8433837890625 C 274.6283874511719 270.8759765625 291.67071533203125 270.9400634765625 300.8440246582031 275.54034423828125 C 308.0630187988281 280.19598388671875 312.7566223144531 284.6658020019531 316.045166015625 292.11199951171875 C 320.48040771484375 307.7716979980469 324.0504455566406 329.7137451171875 324.3111267089844 361.048095703125 C 321.8118591308594 359.19482421875 325.0564270019531 361.6542053222656 335.01544189453125 363.46051025390625 C 346.4042663574219 357.2362060546875 363.03607177734375 353.8875427246094 372.92144775390625 344.3343811035156 C 373.04217529296875 341.3471984863281 360.09100341796875 353.499267578125 343.2453918457031 348.9618835449219 C 343.6647644042969 329.82080078125 347.5359191894531 324.0167541503906 348.69403076171875 329.4060363769531 C 347.4627685546875 321.6786804199219 344.6192321777344 310.91876220703125 346.11785888671875 298.7195739746094 C 345.6606140136719 282.91033935546875 348.6379699707031 268.3306884765625 349.2359619140625 256.9552001953125 C 354.98468017578125 253.86587524414062 369.1305847167969 261.08941650390625 375.5869140625 259.5484924316406 C 387.14483642578125 255.34280395507812 392.8966064453125 251.31483459472656 395.1384582519531 241.94061279296875 C 395.69879150390625 229.51834106445312 394.4790344238281 221.8779754638672 389.8198547363281 214.61143493652344 C 387.9254455566406 206.6354522705078 382.2562255859375 203.712890625 367.6094970703125 198.6862030029297" stroke-width="0.0" fill="rgb(66, 70, 52)" opacity="1.0024718" stroke="rgb(0, 0, 0)" stroke-opacity="1.0" stroke-linecap="round" stroke-linejoin="round"/>
    <path d="M 319.14813232421875 0.7926773428916931 C 311.9210510253906 -7.6637187004089355 307.4840393066406 1.071242332458496 299.70159912109375 4.462911128997803 C 278.89208984375 40.14547348022461 263.7746887207031 83.86880493164062 245.8953399658203 123.88214874267578 C 240.1597900390625 147.48585510253906 231.127197265625 169.73117065429688 227.2647247314453 197.66754150390625 C 234.35067749023438 190.70187377929688 244.23809814453125 190.27880859375 250.58432006835938 188.16909790039062 C 267.2330322265625 119.21724700927734 295.45166015625 63.3670539855957 319.14813232421875 0.7926773428916931" stroke-width="0.0" fill="rgb(103, 106, 96)" opacity="0.98454094" stroke="rgb(0, 0, 0)" stroke-opacity="1.0" stroke-linecap="round" stroke-linejoin="round"/>
    <path d="M 346.6618957519531 255.02708435058594 C 343.8253173828125 283.5135803222656 342.7055358886719 315.53656005859375 341.8646240234375 350.9175720214844 C 353.256103515625 350.9538879394531 364.5746765136719 351.6278076171875 372.35406494140625 347.6479187011719 C 375.125 316.3246154785156 375.27752685546875 288.6917724609375 375.5063781738281 261.8985290527344 C 361.8887634277344 258.8501892089844 357.0834045410156 251.31797790527344 346.6618957519531 255.02708435058594" stroke-width="0.0" fill="rgb(38, 40, 30)" opacity="0.99543536" stroke="rgb(0, 0, 0)" stroke-opacity="1.0" stroke-linecap="round" stroke-linejoin="round"/>
    <path d="M 250.86495971679688 470.22723388671875 C 251.32899475097656 483.73028564453125 250.85653686523438 499.8697814941406 250.9469451904297 517.9620361328125 C 271.30999755859375 517.4452514648438 291.623291015625 517.4815673828125 313.1951599121094 517.9710083007812 C 314.81597900390625 496.32220458984375 310.90234375 484.07379150390625 311.2457580566406 470.5929260253906 C 291.1153869628906 469.3398742675781 267.7117919921875 468.26416015625 250.86495971679688 470.22723388671875" stroke-width="0.0" fill="rgb(30, 31, 36)" opacity="1.0003924" stroke="rgb(0, 0, 0)" stroke-opacity="1.0" stroke-linecap="round" stroke-linejoin="round"/>
    <path d="M 155.5107879638672 -7.283873558044434 C 170.3164520263672 15.982370376586914 183.91427612304688 27.711050033569336 201.52664184570312 39.10247039794922 C 209.48440551757812 24.34900665283203 215.01011657714844 13.342897415161133 224.89340209960938 -5.4723944664001465 C 204.76551818847656 -7.039334774017334 184.0999298095703 -6.614486217498779 155.5107879638672 -7.283873558044434" stroke-width="0.0" fill="rgb(35, 36, 31)" opacity="0.9969379" stroke="rgb(0, 0, 0)" stroke-opacity="1.0" stroke-linecap="round" stroke-linejoin="round"/>
    <path d="M 517.7605590820312 277.93798828125 C 499.22796630859375 277.4416198730469 486.7821350097656 277.21405029296875 479.7943115234375 279.4560241699219 C 475.7205810546875 288.5113830566406 476.18902587890625 299.77978515625 481.63751220703125 307.0997009277344 C 491.3086853027344 302.7226867675781 501.2929382324219 298.515380859375 515.9464111328125 294.5162048339844 C 516.9080200195312 286.95806884765625 517.5711669921875 280.6607360839844 517.7605590820312 277.93798828125" stroke-width="0.0" fill="rgb(110, 84, 72)" opacity="0.97598296" stroke="rgb(0, 0, 0)" stroke-opacity="1.0" stroke-linecap="round" stroke-linejoin="round"/>
    <path d="M 143.0882568359375 -0.5527377128601074 C 160.85252380371094 14.790628433227539 178.22496032714844 29.107694625854492 194.95767211914062 44.01261901855469 C 204.12701416015625 48.4268798828125 203.72799682617188 52.79762268066406 208.01254272460938 39.70158386230469 C 193.9208984375 27.1651668548584 176.69178771972656 14.97867202758789 161.62245178222656 0.006021998822689056 C 160.31820678710938 -5.8650336265563965 151.1833953857422 -6.264203071594238 143.0882568359375 -0.5527377128601074" stroke-width="0.0" fill="rgb(74, 75, 68)" opacity="0.9914851" stroke="rgb(0, 0, 0)" stroke-opacity="1.0" stroke-linecap="round" stroke-linejoin="round"/>
    <path d="M 181.54071044921875 469.6883850097656 C 180.21450805664062 483.3940124511719 179.8583526611328 498.2335510253906 179.49533081054688 517.612548828125 C 202.75877380371094 517.5200805664062 225.83555603027344 517.5859375 249.93775939941406 517.9679565429688 C 250.38673400878906 496.47601318359375 250.5851287841797 481.81756591796875 249.2832794189453 468.6553649902344 C 226.55857849121094 469.1849670410156 199.9271240234375 468.0926513671875 181.54071044921875 469.6883850097656" stroke-width="0.0" fill="rgb(32, 33, 38)" opacity="1.0012118" stroke="rgb(0, 0, 0)" stroke-opacity="1.0" stroke-linecap="round" stroke-linejoin="round"/>
    <path d="M 482.6750793457031 1.6173235177993774 C 490.1871643066406 17.421091079711914 501.1653747558594 28.657691955566406 513.1395874023438 45.414669036865234 C 519.5132446289062 31.19943618774414 517.9816284179688 16.108707427978516 517.55126953125 0.6727030873298645 C 503.09942626953125 0.6058984994888306 492.7123107910156 1.9277522563934326 482.6750793457031 1.6173235177993774" stroke-width="0.0" fill="rgb(84, 95, 50)" opacity="1.0004847" stroke="rgb(0, 0, 0)" stroke-opacity="1.0" stroke-linecap="round" stroke-linejoin="round"/>
    <path d="M 77.0086441040039 445.8502197265625 C 90.20531463623047 443.86602783203125 115.83747863769531 445.4483947753906 131.11257934570312 448.6415100097656 C 132.71282958984375 442.58721923828125 131.5141143798828 439.60009765625 126.09982299804688 444.8126525878906 C 126.58611297607422 436.1841735839844 116.88243865966797 434.5109558105469 108.18984985351562 430.5994873046875 C 100.60580444335938 431.8702392578125 93.18911743164062 427.8653564453125 85.11753845214844 432.0718994140625 C 78.92753601074219 432.48187255859375 80.94523620605469 438.9919128417969 77.0086441040039 445.8502197265625" stroke-width="0.0" fill="rgb(213, 113, 26)" opacity="0.9950952" stroke="rgb(0, 0, 0)" stroke-opacity="1.0" stroke-linecap="round" stroke-linejoin="round"/>
    <path d="M 376.4243469238281 -4.750484466552734 C 373.7847595214844 41.55855941772461 368.97308349609375 82.25037384033203 368.2513122558594 126.52786254882812 C 372.4541320800781 139.1969451904297 393.10675048828125 133.35081481933594 396.9377746582031 147.13076782226562 C 407.073486328125 145.83013916015625 407.3099365234375 146.6217041015625 408.5224914550781 143.6602783203125 C 409.21051025390625 91.9840316772461 414.2833251953125 48.75722122192383 415.8868713378906 -1.5245177745819092 C 405.3725280761719 -6.032939434051514 392.3034973144531 -6.366611957550049 376.4243469238281 -4.750484466552734" stroke-width="0.0" fill="rgb(50, 44, 25)" opacity="0.9632302" stroke="rgb(0, 0, 0)" stroke-opacity="1.0" stroke-linecap="round" stroke-linejoin="round"/>
    <path d="M 409.1998291015625 195.5924530029297 C 401.4449768066406 194.6441650390625 402.7737121582031 204.52223205566406 392.50360107421875 206.36972045898438 C 397.0398864746094 217.43057250976562 401.91412353515625 229.9745330810547 399.4554443359375 240.14466857910156 C 393.88031005859375 252.17970275878906 386.21112060546875 258.5222473144531 373.0474548339844 261.1502380371094 C 370.0237731933594 293.958984375 370.1373291015625 317.7054748535156 371.8299865722656 338.7594299316406 C 383.4164123535156 342.74786376953125 392.0555725097656 343.8708190917969 401.6625671386719 338.8369445800781 C 401.2272644042969 334.83953857421875 405.7458801269531 336.8291931152344 409.6226501464844 334.35369873046875 C 410.0049743652344 329.9829406738281 407.4003601074219 324.8741455078125 410.3480224609375 319.95556640625 C 412.1394958496094 320.5539245605469 417.4634094238281 321.61920166015625 420.368896484375 317.0711975097656 C 417.7076416015625 274.7117004394531 409.3601989746094 237.94993591308594 409.1998291015625 195.5924530029297" stroke-width="0.0" fill="rgb(47, 38, 19)" opacity="0.9585467" stroke="rgb(0, 0, 0)" stroke-opacity="1.0" stroke-linecap="round" stroke-linejoin="round"/>
    <path d="M 308.2576599121094 388.29443359375 C 309.7723693847656 405.898193359375 314.47613525390625 421.0992126464844 323.38360595703125 435.0333557128906 C 327.74969482421875 426.19293212890625 325.678955078125 409.0306091308594 325.1130676269531 390.6714782714844 C 324.2220764160156 389.6248474121094 313.13897705078125 388.5655822753906 308.2576599121094 388.29443359375" stroke-width="0.0" fill="rgb(183, 196, 192)" opacity="0.99544966" stroke="rgb(0, 0, 0)" stroke-opacity="1.0" stroke-linecap="round" stroke-linejoin="round"/>
    <path d="M 329.8773498535156 206.60211181640625 C 327.57293701171875 209.5803985595703 324.89508056640625 213.04954528808594 325.1168212890625 216.80018615722656 C 329.2120666503906 229.97634887695312 333.0126037597656 242.36239624023438 338.3020324707031 250.9451141357422 C 351.1329345703125 251.97756958007812 361.5286865234375 257.159912109375 373.92108154296875 259.1944274902344 C 383.75836181640625 257.1028137207031 389.6549377441406 252.50804138183594 393.49749755859375 246.4179229736328 C 397.0984802246094 242.43702697753906 396.5476379394531 237.02975463867188 395.0019226074219 223.9112548828125 C 392.1402587890625 216.43524169921875 389.2311096191406 208.51260375976562 384.2496643066406 203.9256591796875 C 378.42181396484375 200.29635620117188 371.3400573730469 198.86732482910156 363.2392578125 199.069091796875 C 352.1190490722656 202.21865844726562 340.8980407714844 203.71119689941406 329.8773498535156 206.60211181640625" stroke-width="0.0" fill="rgb(21, 21, 20)" opacity="0.99927086" stroke="rgb(0, 0, 0)" stroke-opacity="1.0" stroke-linecap="round" stroke-linejoin="round"/>
    <path d="M 320.18243408203125 207.94825744628906 C 302.8837890625 208.27117919921875 288.72442626953125 209.0261688232422 278.7069091796875 213.84332275390625 C 273.9150695800781 220.32460021972656 279.43646240234375 237.2621612548828 267.2861022949219 247.90313720703125 C 291.1976318359375 248.6376190185547 307.2850036621094 247.28045654296875 323.7840270996094 244.7419891357422 C 323.4432067871094 231.23452758789062 317.582275390625 223.72979736328125 320.18243408203125 207.94825744628906" stroke-width="0.0" fill="rgb(14, 15, 13)" opacity="1.002851" stroke="rgb(0, 0, 0)" stroke-opacity="1.0" stroke-linecap="round" stroke-linejoin="round"/>
    <path d="M 269.4286804199219 244.93258666992188 C 267.3845520019531 249.1213836669922 265.9414367675781 257.28729248046875 267.447509765625 265.294677734375 C 283.4690246582031 274.3905334472656 305.4244689941406 272.6018981933594 310.95404052734375 285.2768249511719 C 321.4033508300781 297.42431640625 319.7501525878906 318.98583984375 324.1460266113281 339.6411437988281 C 325.6772155761719 344.99505615234375 319.4969787597656 352.9781494140625 320.361572265625 366.1447448730469 C 321.1228332519531 366.6445007324219 330.69970703125 367.2911376953125 335.8638000488281 367.04852294921875 C 338.5010070800781 363.55975341796875 342.3279724121094 361.5716857910156 342.0211486816406 361.3396301269531 C 341.203125 321.08160400390625 346.0602722167969 288.17352294921875 345.600341796875 251.7014923095703 C 338.85992431640625 247.4413299560547 329.3907775878906 243.2643280029297 322.078369140625 245.21102905273438 C 308.87945556640625 247.67242431640625 291.09588623046875 247.25250244140625 269.4286804199219 244.93258666992188" stroke-width="0.0" fill="rgb(31, 29, 24)" opacity="0.98151606" stroke="rgb(0, 0, 0)" stroke-opacity="1.0" stroke-linecap="round" stroke-linejoin="round"/>
    <path d="M 347.50750732421875 252.94960021972656 C 345.7508544921875 273.5545349121094 345.81561279296875 297.7488708496094 344.5724182128906 323.21697998046875 C 354.8362731933594 318.06072998046875 363.2857360839844 317.6401672363281 372.4140319824219 318.2452392578125 C 371.0509948730469 303.5801086425781 370.9122009277344 282.1617126464844 370.4204406738281 263.4083251953125 C 364.10833740234375 257.15338134765625 358.35418701171875 255.41558837890625 347.50750732421875 252.94960021972656" stroke-width="0.0" fill="rgb(33, 43, 12)" opacity="0.9992612" stroke="rgb(0, 0, 0)" stroke-opacity="1.0" stroke-linecap="round" stroke-linejoin="round"/>
    <path d="M 371.86114501953125 317.9091491699219 C 362.3029479980469 318.2242736816406 353.8157958984375 318.4891052246094 343.3486633300781 321.8032531738281 C 344.5430603027344 328.8883361816406 341.90283203125 337.5907287597656 343.920654296875 344.5796813964844 C 352.8901672363281 346.54193115234375 362.43731689453125 345.38031005859375 372.58770751953125 342.7548828125 C 372.19891357421875 333.7658386230469 371.87469482421875 324.4611511230469 371.86114501953125 317.9091491699219" stroke-width="0.0" fill="rgb(44, 55, 13)" opacity="1.0000614" stroke="rgb(0, 0, 0)" stroke-opacity="1.0" stroke-linecap="round" stroke-linejoin="round"/>
    <path d="M 305.6191101074219 279.4601135253906 C 325.5374755859375 294.0203552246094 317.4232482910156 321.45379638671875 325.5832824707031 350.5332946777344 C 327.6551818847656 357.5672607421875 323.4536437988281 361.0330505371094 319.37255859375 366.2703552246094 C 322.42205810546875 369.542236328125 327.72314453125 370.2882080078125 334.840087890625 369.1839904785156 C 338.9097900390625 367.7124938964844 339.6566162109375 366.4801330566406 342.7861633300781 362.28778076171875 C 342.4705505371094 337.1201171875 343.8630676269531 312.32269287109375 345.3409423828125 286.3345947265625 C 334.1896057128906 281.9934997558594 325.4599609375 277.62835693359375 305.6191101074219 279.4601135253906" stroke-width="0.0" fill="rgb(35, 35, 33)" opacity="0.98390436" stroke="rgb(0, 0, 0)" stroke-opacity="1.0" stroke-linecap="round" stroke-linejoin="round"/>
    <path d="M 267.2538146972656 245.8906707763672 C 267.3437194824219 253.8525848388672 265.1349182128906 260.6257019042969 266.921142578125 265.08099365234375 C 282.5924987792969 271.8210754394531 299.1915283203125 277.0124206542969 320.3187255859375 279.3079833984375 C 321.4554748535156 264.499755859375 321.8775939941406 249.70188903808594 319.8089294433594 243.43756103515625 C 303.7111511230469 246.72914123535156 281.1574401855469 242.65695190429688 267.2538146972656 245.8906707763672" stroke-width="0.0" fill="rgb(38, 38, 40)" opacity="1.008375" stroke="rgb(0, 0, 0)" stroke-opacity="1.0" stroke-linecap="round" stroke-linejoin="round"/>
  </g>
</svg>
