<?xml version="1.0" ?>
<svg xmlns="http://www.w3.org/2000/svg" version="1.1" width="512" height="512">
  <defs/>
  <g>
    <path d="M -7.258374214172363 -5.466675281524658 C -7.174459934234619 170.4527130126953 -7.054164886474609 340.7572021484375 -6.968499660491943 517.643798828125 C 169.79806518554688 517.7813110351562 340.31396484375 518.1046142578125 519.420166015625 518.70166015625 C 519.4794311523438 340.53338623046875 519.2529907226562 169.96669006347656 518.6292114257812 -5.546426773071289 C 340.3397521972656 -5.840092658996582 169.4514617919922 -5.888193130493164 -7.258374214172363 -5.466675281524658" stroke-width="0.0" fill="rgb(99, 99, 98)" opacity="0.89885104" stroke="rgb(0, 0, 0)" stroke-opacity="1.0" stroke-linecap="round" stroke-linejoin="round"/>
    <path d="M 39.65597152709961 -6.455235958099365 C 28.412630081176758 56.29627227783203 16.009035110473633 113.16600799560547 8.23127269744873 173.47618103027344 C 3.8162147998809814 221.15379333496094 1.9577170610427856 265.9751281738281 5.696420669555664 293.05712890625 C 46.62080001831055 314.8332214355469 91.22132110595703 327.61212158203125 128.0743408203125 348.1996765136719 C 141.30886840820312 355.3983459472656 153.64634704589844 361.2730407714844 165.5701904296875 363.2064514160156 C 157.16796875 368.6131591796875 162.57167053222656 367.9207763671875 156.7611846923828 366.3377380371094 C 165.7373809814453 360.04949951171875 168.1446990966797 343.80035400390625 161.55467224121094 334.53875732421875 C 159.54588317871094 316.3013916015625 164.50341796875 302.4793395996094 170.2084197998047 288.6221618652344 C 171.29306030273438 282.7982177734375 178.48434448242188 277.3195495605469 183.32327270507812 273.51153564453125 C 193.87493896484375 266.741455078125 214.11679077148438 269.02899169921875 222.11671447753906 255.82171630859375 C 223.27146911621094 237.75148010253906 213.9530487060547 230.47946166992188 218.0110626220703 210.70645141601562 C 222.0202178955078 200.22817993164062 227.1372528076172 193.51528930664062 235.73912048339844 190.04525756835938 C 239.81658935546875 189.44631958007812 243.65887451171875 187.11390686035156 249.93185424804688 187.90711975097656 C 255.3934783935547 188.27235412597656 259.114501953125 191.2221221923828 265.7866516113281 194.63546752929688 C 269.6549377441406 198.7035675048828 274.8899841308594 205.23207092285156 277.0154724121094 215.33375549316406 C 281.8000793457031 236.81724548339844 269.9563293457031 239.72637939453125 270.5201721191406 258.34027099609375 C 276.3333740234375 269.62567138671875 296.067626953125 267.2718505859375 304.1915283203125 275.96563720703125 C 309.13348388671875 280.0327453613281 314.02716064453125 283.9380187988281 317.869140625 291.9765930175781 C 322.81939697265625 310.5505676269531 325.8032531738281 334.57403564453125 321.26092529296875 363.28955078125 C 332.5382995605469 364.9234313964844 348.6752014160156 367.7940673828125 348.8878173828125 357.4848937988281 C 371.8274841308594 359.4237060546875 380.8865661621094 344.5325927734375 403.76263427734375 339.2607727050781 C 410.50848388671875 338.1413269042969 404.1027526855469 321.94854736328125 413.9530944824219 319.7522277832031 C 451.20855712890625 322.083984375 476.14208984375 317.1916198730469 517.6951293945312 316.4752197265625 C 517.2920532226562 210.19615173339844 517.5447387695312 105.58829498291016 517.5215454101562 -5.597365856170654 C 354.9546813964844 -5.356477737426758 198.25027465820312 -5.348191261291504 39.65597152709961 -6.455235958099365" stroke-width="0.0" fill="rgb(46, 47, 38)" opacity="1.0236884" stroke="rgb(0, 0, 0)" stroke-opacity="1.0" stroke-linecap="round" stroke-linejoin="round"/>
    <path d="M 236.81785583496094 193.1311492919922 C 233.9511260986328 191.63421630859375 231.6945343017578 196.61074829101562 227.67959594726562 197.9928741455078 C 224.07992553710938 205.0352325439453 222.73907470703125 214.01695251464844 217.9284210205078 224.7767791748047 C 225.57106018066406 235.708740234375 226.5983428955078 246.21009826660156 222.51171875 265.3039855957031 C 210.49925231933594 270.5147705078125 194.06582641601562 271.48797607421875 185.06973266601562 278.1567077636719 C 175.0296173095703 282.9853515625 171.30943298339844 291.3495178222656 169.04209899902344 309.5884704589844 C 163.7345428466797 321.6711120605469 172.0203857421875 338.3714294433594 167.5504150390625 359.9166259765625 C 169.7214813232422 368.7283020019531 175.94801330566406 375.2346496582031 183.03997802734375 382.9872741699219 C 179.0419464111328 404.34686279296875 172.77308654785156 424.7157897949219 171.8282470703125 459.7350769042969 C 176.66253662109375 466.3905334472656 182.26438903808594 480.6006774902344 178.74002075195312 519.5973510742188 C 221.7811279296875 519.3050537109375 267.00927734375 519.1052856445312 317.3811950683594 518.726318359375 C 311.5279235839844 482.6159362792969 322.8486328125 469.0865173339844 320.40069580078125 449.1645812988281 C 314.5651550292969 420.81011962890625 308.5154724121094 398.1788330078125 304.59100341796875 376.0008850097656 C 308.6230163574219 368.315185546875 316.3724670410156 364.615478515625 318.55322265625 358.15155029296875 C 318.64300537109375 335.3536376953125 318.81646728515625 316.14141845703125 315.6341857910156 298.63812255859375 C 312.4690246582031 291.578125 309.114501953125 284.0743103027344 303.199951171875 280.6091003417969 C 292.30413818359375 271.97796630859375 277.7309265136719 271.5387268066406 268.95733642578125 267.310791015625 C 263.46563720703125 249.74635314941406 270.00958251953125 246.3761749267578 275.2822265625 230.89561462402344 C 276.2922668457031 220.69764709472656 271.74725341796875 214.52728271484375 270.0143127441406 205.07754516601562 C 268.56396484375 199.78878784179688 264.1788330078125 195.9452362060547 259.7169189453125 193.50746154785156 C 251.18148803710938 190.90394592285156 245.7574462890625 189.01976013183594 236.81785583496094 193.1311492919922" stroke-width="0.0" fill="rgb(64, 52, 48)" opacity="1.0233407" stroke="rgb(0, 0, 0)" stroke-opacity="1.0" stroke-linecap="round" stroke-linejoin="round"/>
    <path d="M 518.6528930664062 320.55682373046875 C 480.521484375 320.58428955078125 449.197021484375 322.5856018066406 416.3199462890625 321.99285888671875 C 410.4657287597656 324.3289489746094 410.4313659667969 333.7755126953125 411.3027648925781 342.4898681640625 C 401.1219177246094 344.9879455566406 388.92791748046875 344.5186767578125 382.6813049316406 342.547607421875 C 381.68798828125 347.74664306640625 380.69903564453125 356.29254150390625 378.81500244140625 357.6678161621094 C 367.4717102050781 357.8373107910156 356.547607421875 358.1516418457031 349.8134460449219 361.3921813964844 C 346.9453430175781 363.50555419921875 348.5632019042969 372.85638427734375 346.5553894042969 379.147216796875 C 334.1375732421875 383.5906677246094 319.09423828125 380.122314453125 308.9300537109375 383.75201416015625 C 310.1244201660156 407.26446533203125 319.5054016113281 425.6329345703125 322.5728759765625 450.4825439453125 C 328.1208801269531 470.8063049316406 317.5658264160156 481.37890625 321.2487487792969 502.56292724609375 C 385.02142333984375 506.9736328125 447.0919494628906 510.18951416015625 518.400146484375 516.3828125 C 518.7661743164062 445.4604187011719 519.2130737304688 381.9478454589844 518.6528930664062 320.55682373046875" stroke-width="0.0" fill="rgb(76, 81, 86)" opacity="0.92002285" stroke="rgb(0, 0, 0)" stroke-opacity="1.0" stroke-linecap="round" stroke-linejoin="round"/>
    <path d="M 30.952882766723633 401.17864990234375 C 19.83881950378418 414.1435241699219 9.48039722442627 423.1241760253906 13.778305053710938 434.6692199707031 C 11.806194305419922 462.0549621582031 13.389336585998535 490.5697021484375 13.311119079589844 517.5927734375 C 51.90610885620117 518.16162109375 90.61578369140625 519.0615844726562 124.10709381103516 519.3428344726562 C 125.8988265991211 488.38006591796875 126.32823944091797 455.7209167480469 130.04566955566406 434.6962890625 C 128.11314392089844 431.2193298339844 125.87238311767578 424.3132629394531 123.18783569335938 417.6675720214844 C 116.34089660644531 412.91375732421875 111.03270721435547 406.0732421875 107.00287628173828 404.6875305175781 C 75.16434478759766 405.5411682128906 52.04153823852539 405.32867431640625 30.952882766723633 401.17864990234375" stroke-width="0.0" fill="rgb(163, 161, 145)" opacity="1.010854" stroke="rgb(0, 0, 0)" stroke-opacity="1.0" stroke-linecap="round" stroke-linejoin="round"/>
    <path d="M 3.8216586112976074 295.28485107421875 C 3.9432079792022705 327.42071533203125 1.9098765850067139 360.342529296875 4.7934184074401855 390.79486083984375 C 13.383081436157227 391.23773193359375 20.527767181396484 395.576416015625 33.637176513671875 396.55987548828125 C 41.451107025146484 392.81719970703125 49.463523864746094 384.9341735839844 73.59534454345703 388.291015625 C 97.19877624511719 390.17498779296875 125.1913070678711 389.5620422363281 144.4388885498047 388.29083251953125 C 143.0614013671875 371.7831115722656 138.8519287109375 357.3763732910156 131.20327758789062 348.2803649902344 C 87.93504333496094 330.5916442871094 46.394161224365234 313.2950744628906 3.8216586112976074 295.28485107421875" stroke-width="0.0" fill="rgb(105, 103, 99)" opacity="0.9950054" stroke="rgb(0, 0, 0)" stroke-opacity="1.0" stroke-linecap="round" stroke-linejoin="round"/>
    <path d="M 175.40850830078125 415.1437072753906 C 158.19210815429688 416.50311279296875 140.89028930664062 415.6029357910156 125.90397644042969 417.10137939453125 C 125.87682342529297 425.6314392089844 133.2581024169922 432.25531005859375 129.54232788085938 437.5418701171875 C 128.45306396484375 461.50128173828125 126.16753387451172 483.77838134765625 129.86819458007812 517.1378784179688 C 142.8704376220703 518.8519897460938 159.8809051513672 517.9270629882812 178.14443969726562 517.410888671875 C 177.76351928710938 500.3268127441406 179.2283172607422 489.79046630859375 177.03082275390625 478.2203063964844 C 175.66183471679688 471.30889892578125 169.24810791015625 468.0157775878906 168.9673614501953 456.581298828125 C 170.49691772460938 444.04388427734375 171.6483154296875 429.32476806640625 175.40850830078125 415.1437072753906" stroke-width="0.0" fill="rgb(131, 135, 142)" opacity="1.0692875" stroke="rgb(0, 0, 0)" stroke-opacity="1.0" stroke-linecap="round" stroke-linejoin="round"/>
    <path d="M 180.4488067626953 385.41314697265625 C 144.2584991455078 387.91656494140625 105.97222137451172 387.0736083984375 73.62979888916016 387.25579833984375 C 50.71688461303711 391.3805847167969 44.77226257324219 388.5328369140625 48.518497467041016 399.2383117675781 C 58.81947326660156 404.292724609375 80.90522766113281 402.8612976074219 106.96830749511719 402.8901672363281 C 112.57781219482422 406.1706848144531 116.97102355957031 410.95306396484375 121.96414947509766 415.5054016113281 C 141.22286987304688 417.0317687988281 158.0740509033203 416.1253356933594 176.27328491210938 414.5527648925781 C 176.0155792236328 406.0415954589844 179.36219787597656 397.8536071777344 180.4488067626953 385.41314697265625" stroke-width="0.0" fill="rgb(135, 138, 140)" opacity="0.81170154" stroke="rgb(0, 0, 0)" stroke-opacity="1.0" stroke-linecap="round" stroke-linejoin="round"/>
    <path d="M 17.661632537841797 418.08984375 C 17.09925079345703 415.3749084472656 9.4646577835083 413.8310546875 3.860114336013794 416.0601501464844 C 1.8455559015274048 446.9268493652344 2.7833974361419678 478.9067687988281 3.0834081172943115 516.97314453125 C 4.850059986114502 517.8193969726562 6.722710609436035 517.1002807617188 11.800155639648438 520.7018432617188 C 13.307995796203613 473.1976623535156 8.986824989318848 441.60107421875 17.661632537841797 418.08984375" stroke-width="0.0" fill="rgb(67, 69, 61)" opacity="0.9443824" stroke="rgb(0, 0, 0)" stroke-opacity="1.0" stroke-linecap="round" stroke-linejoin="round"/>
    <path d="M 316.96649169921875 520.6180419921875 C 375.0484924316406 521.538330078125 440.14276123046875 521.6990966796875 510.2101135253906 518.4371337890625 C 475.0878601074219 503.8902587890625 428.9303283691406 510.1658935546875 387.1994934082031 507.833984375 C 364.72869873046875 503.4234313964844 340.58599853515625 503.59588623046875 321.02276611328125 501.6997985839844 C 319.133056640625 498.034912109375 320.9372253417969 503.58587646484375 316.96649169921875 520.6180419921875" stroke-width="0.0" fill="rgb(19, 21, 21)" opacity="1.0191963" stroke="rgb(0, 0, 0)" stroke-opacity="1.0" stroke-linecap="round" stroke-linejoin="round"/>
    <path d="M 4.379456520080566 390.9356384277344 C 0.5421003699302673 399.8387145996094 5.385725498199463 415.3710632324219 2.9392964839935303 416.87530517578125 C 21.32106590270996 413.268310546875 19.952116012573242 417.2984313964844 15.473548889160156 434.14642333984375 C 20.911664962768555 418.254638671875 27.789222717285156 409.3063049316406 37.999900817871094 402.9594421386719 C 25.042652130126953 396.15869140625 14.335344314575195 393.1277160644531 4.379456520080566 390.9356384277344" stroke-width="0.0" fill="rgb(132, 131, 128)" opacity="1.0004423" stroke="rgb(0, 0, 0)" stroke-opacity="1.0" stroke-linecap="round" stroke-linejoin="round"/>
    <path d="M 41.782958984375 -3.223707675933838 C 38.004722595214844 -4.890987396240234 31.375534057617188 -5.1124186515808105 26.87200927734375 -4.133016586303711 C 25.565027236938477 12.02613353729248 20.56953239440918 27.589733123779297 17.162433624267578 42.374053955078125 C 10.292231559753418 70.996337890625 4.756162166595459 105.83538055419922 8.40584659576416 154.00424194335938 C 20.17926597595215 99.43463897705078 27.227903366088867 47.262367248535156 41.782958984375 -3.223707675933838" stroke-width="0.0" fill="rgb(171, 174, 173)" opacity="0.9487379" stroke="rgb(0, 0, 0)" stroke-opacity="1.0" stroke-linecap="round" stroke-linejoin="round"/>
    <path d="M 141.00428771972656 355.56854248046875 C 140.81031799316406 362.8742370605469 139.55331420898438 373.4354248046875 144.21368408203125 386.1466064453125 C 154.50439453125 385.9764709472656 168.43345642089844 386.8009033203125 179.92416381835938 385.6756896972656 C 179.75392150878906 371.25970458984375 167.46307373046875 367.6256103515625 167.7193603515625 354.5280456542969 C 160.88528442382812 352.1911315917969 153.60443115234375 353.857666015625 141.00428771972656 355.56854248046875" stroke-width="0.0" fill="rgb(48, 47, 49)" opacity="0.9993942" stroke="rgb(0, 0, 0)" stroke-opacity="1.0" stroke-linecap="round" stroke-linejoin="round"/>
    <path d="M 222.75497436523438 -4.821926116943359 C 161.0000457763672 -6.249865531921387 100.94813537597656 -5.827816486358643 40.85184097290039 -1.6389037370681763 C 27.0789737701416 57.23807907104492 14.448356628417969 115.79722595214844 7.0870280265808105 178.11753845214844 C 4.003555774688721 218.65394592285156 3.0687177181243896 256.7868347167969 4.957970142364502 292.6527099609375 C 41.56440353393555 310.6738586425781 80.20568084716797 324.5697021484375 116.6552963256836 341.060302734375 C 126.60163879394531 344.50274658203125 126.32079315185547 337.84246826171875 129.40245056152344 337.7575378417969 C 135.63658142089844 277.95416259765625 142.7465057373047 221.63584899902344 158.6678466796875 174.09999084472656 C 175.97898864746094 113.36123657226562 198.11895751953125 57.8194580078125 222.75497436523438 -4.821926116943359" stroke-width="0.0" fill="rgb(33, 34, 27)" opacity="0.96350735" stroke="rgb(0, 0, 0)" stroke-opacity="1.0" stroke-linecap="round" stroke-linejoin="round"/>
    <path d="M 250.28883361816406 -6.103756427764893 C 227.4814453125 45.17302322387695 210.9882354736328 76.86685180664062 197.73829650878906 111.60964965820312 C 190.61578369140625 140.11659240722656 178.89125061035156 165.00506591796875 173.20257568359375 198.70452880859375 C 183.1274871826172 198.4007568359375 201.14149475097656 199.47633361816406 220.29327392578125 200.44175720214844 C 224.11302185058594 190.46966552734375 238.2232666015625 189.24591064453125 246.1427764892578 185.6527862548828 C 262.9058837890625 189.2210693359375 270.1868896484375 195.16278076171875 275.219482421875 206.20175170898438 C 311.06646728515625 207.22703552246094 339.1829528808594 203.4793701171875 367.38592529296875 198.81642150878906 C 370.6488037109375 190.47314453125 370.48858642578125 172.52731323242188 366.0911865234375 153.67724609375 C 358.1925964355469 137.7912139892578 338.7220153808594 131.733154296875 335.1637268066406 112.83052062988281 C 336.97705078125 105.24308013916016 335.3777770996094 113.83386993408203 344.458251953125 113.55062866210938 C 353.23223876953125 118.33130645751953 358.1404724121094 127.99541473388672 369.7224426269531 134.99298095703125 C 372.3060607910156 91.27783966064453 373.8275451660156 46.8209342956543 373.9821472167969 -8.745579719543457 C 321.4041748046875 -8.666616439819336 274.6280212402344 -8.319371223449707 250.28883361816406 -6.103756427764893" stroke-width="0.0" fill="rgb(60, 63, 38)" opacity="0.93342793" stroke="rgb(0, 0, 0)" stroke-opacity="1.0" stroke-linecap="round" stroke-linejoin="round"/>
    <path d="M 426.71142578125 8.358257293701172 C 416.484130859375 10.672993659973145 417.2102966308594 8.457596778869629 414.9419860839844 18.048229217529297 C 412.1684875488281 54.388465881347656 409.5552062988281 95.26431274414062 408.52679443359375 135.79588317871094 C 407.6078796386719 198.81451416015625 409.986572265625 258.38409423828125 416.0677490234375 319.8247375488281 C 442.526123046875 319.8121643066406 466.5691223144531 321.968505859375 478.4637756347656 315.0973205566406 C 480.70245361328125 307.9485168457031 477.45257568359375 298.28662109375 480.51385498046875 290.31640625 C 484.06768798828125 288.76861572265625 488.9970703125 282.9556579589844 493.1396484375 278.6512145996094 C 497.0223388671875 279.97833251953125 501.3739318847656 286.63848876953125 519.7554321289062 293.5827941894531 C 519.8098754882812 217.9615020751953 519.9168701171875 152.5728759765625 513.0877685546875 88.16279602050781 C 495.1242980957031 65.81721496582031 477.9986572265625 44.541664123535156 456.168212890625 27.727235794067383 C 448.50482177734375 18.842309951782227 437.7897644042969 12.105852127075195 426.71142578125 8.358257293701172" stroke-width="0.0" fill="rgb(87, 103, 46)" opacity="0.96646816" stroke="rgb(0, 0, 0)" stroke-opacity="1.0" stroke-linecap="round" stroke-linejoin="round"/>
    <path d="M 396.2842712402344 -2.828326463699341 C 388.5947265625 -7.457183837890625 378.9381408691406 -6.776111602783203 374.9163818359375 -1.7928696870803833 C 374.99017333984375 69.88164520263672 370.22021484375 134.34214782714844 371.1140441894531 200.2751007080078 C 342.19439697265625 206.0121307373047 310.6459655761719 207.25537109375 277.401611328125 209.45909118652344 C 276.6230163574219 227.386474609375 277.1603698730469 237.92718505859375 270.28167724609375 248.34750366210938 C 269.2666931152344 256.7210998535156 269.9880676269531 259.50201416015625 273.69757080078125 264.2138366699219 C 281.89892578125 269.51885986328125 295.6565856933594 269.6206359863281 304.15765380859375 275.57269287109375 C 308.9398193359375 278.5780029296875 312.7457580566406 283.166015625 316.11859130859375 289.60943603515625 C 323.00628662109375 303.50372314453125 322.3670959472656 328.5859375 325.7207946777344 349.7474365234375 C 328.10858154296875 356.23236083984375 332.76873779296875 356.11187744140625 336.776123046875 359.3180236816406 C 367.0969543457031 358.7364501953125 378.1514587402344 340.9476623535156 404.1237487792969 340.03375244140625 C 409.3145446777344 334.2655944824219 406.5557861328125 325.8814392089844 410.6529235839844 322.55938720703125 C 412.9532165527344 283.025146484375 406.9457702636719 253.29493713378906 406.6528015136719 229.18141174316406 C 407.263671875 148.48023986816406 408.6802062988281 78.28694915771484 413.65045166015625 12.098252296447754 C 412.2685546875 -2.093078136444092 406.1256408691406 3.0150694847106934 396.2842712402344 -2.828326463699341" stroke-width="0.0" fill="rgb(50, 48, 38)" opacity="0.97797865" stroke="rgb(0, 0, 0)" stroke-opacity="1.0" stroke-linecap="round" stroke-linejoin="round"/>
    <path d="M 517.9647216796875 338.9642028808594 C 466.9168701171875 341.47589111328125 423.4092712402344 342.152099609375 381.3988952636719 345.739990234375 C 377.4292297363281 401.1284484863281 379.959716796875 455.58966064453125 384.1628723144531 507.18450927734375 C 425.07952880859375 507.9491271972656 468.7948913574219 506.0489196777344 518.0543212890625 507.37109375 C 517.9251098632812 449.8966979980469 517.9171752929688 393.7682800292969 517.9647216796875 338.9642028808594" stroke-width="0.0" fill="rgb(82, 86, 94)" opacity="0.8978689" stroke="rgb(0, 0, 0)" stroke-opacity="1.0" stroke-linecap="round" stroke-linejoin="round"/>
    <path d="M 303.29241943359375 377.4266357421875 C 265.23828125 387.04034423828125 220.32594299316406 385.3102111816406 182.05599975585938 386.3667297363281 C 179.2545166015625 405.5388488769531 173.27313232421875 421.2367858886719 171.28726196289062 454.755615234375 C 171.8583221435547 468.0220642089844 184.98306274414062 474.689697265625 178.28829956054688 519.5076293945312 C 220.96771240234375 519.5238037109375 267.1388854980469 518.7625122070312 314.4011535644531 517.6757202148438 C 315.1266174316406 501.5780334472656 315.6971435546875 491.8064880371094 314.07659912109375 481.6353454589844 C 316.92132568359375 481.2597961425781 307.9419860839844 482.6567077636719 307.0621337890625 481.3634948730469 C 312.2054748535156 479.9988708496094 316.6297912597656 482.8800354003906 314.688232421875 476.8020324707031 C 314.87554931640625 476.4333190917969 309.7728271484375 478.2872009277344 306.4564208984375 475.56494140625 C 312.7985534667969 476.6190185546875 315.6238098144531 475.2209167480469 319.24700927734375 472.2283020019531 C 321.02679443359375 467.14129638671875 321.4564514160156 460.1331787109375 319.8492736816406 447.2850646972656 C 315.64556884765625 426.7420349121094 310.06549072265625 401.5252685546875 303.29241943359375 377.4266357421875" stroke-width="0.0" fill="rgb(36, 38, 43)" opacity="0.98639214" stroke="rgb(0, 0, 0)" stroke-opacity="1.0" stroke-linecap="round" stroke-linejoin="round"/>
    <path d="M 167.4681854248047 310.3487243652344 C 165.59461975097656 323.2785949707031 164.46444702148438 331.4547424316406 171.63233947753906 338.9270935058594 C 221.29689025878906 339.7445983886719 269.0192565917969 333.0721740722656 318.81817626953125 337.5845642089844 C 319.4474182128906 313.73223876953125 317.3516540527344 297.5697937011719 309.7682800292969 284.6229553222656 C 301.8592224121094 274.53436279296875 285.8223876953125 271.7350769042969 268.02203369140625 267.40081787109375 C 263.8500061035156 272.0365295410156 256.12066650390625 271.3251953125 251.05160522460938 273.6530456542969 C 240.69384765625 277.0429992675781 230.2239532470703 273.56951904296875 223.57760620117188 265.7813720703125 C 211.17361450195312 269.216064453125 201.12413024902344 270.9546203613281 192.38792419433594 272.9230041503906 C 185.61083984375 275.5701904296875 180.48817443847656 279.309326171875 176.407958984375 284.2056884765625 C 172.54232788085938 290.1791687011719 169.2375946044922 297.7912292480469 167.4681854248047 310.3487243652344" stroke-width="0.0" fill="rgb(48, 48, 54)" opacity="0.9930706" stroke="rgb(0, 0, 0)" stroke-opacity="1.0" stroke-linecap="round" stroke-linejoin="round"/>
    <path d="M 12.940704345703125 450.84783935546875 C 11.685171127319336 468.5418701171875 13.587061882019043 489.8061828613281 12.235305786132812 519.0834350585938 C 47.78224563598633 518.8425903320312 86.38955688476562 517.6502075195312 125.892822265625 517.3662109375 C 125.52037048339844 490.6365051269531 125.9979019165039 466.8716735839844 128.0388946533203 446.1382751464844 C 86.33303833007812 449.4375 49.654273986816406 451.5236511230469 12.940704345703125 450.84783935546875" stroke-width="0.0" fill="rgb(107, 111, 117)" opacity="1.0108373" stroke="rgb(0, 0, 0)" stroke-opacity="1.0" stroke-linecap="round" stroke-linejoin="round"/>
    <path d="M 319.15240478515625 345.8731689453125 C 317.2568664550781 340.0182800292969 312.43853759765625 338.8518981933594 309.1449890136719 337.1847839355469 C 292.81524658203125 337.0501403808594 280.3785400390625 337.71527099609375 265.9503479003906 332.91064453125 C 240.4542236328125 339.00433349609375 212.76133728027344 338.9978942871094 177.8402557373047 336.8556213378906 C 166.30178833007812 341.7333679199219 165.05357360839844 344.8823547363281 170.4453125 359.5965576171875 C 169.4397735595703 365.8648681640625 174.73321533203125 375.7686462402344 187.16273498535156 386.92449951171875 C 227.50668334960938 386.2875671386719 266.7748107910156 384.4876708984375 297.6490478515625 380.59259033203125 C 304.2433776855469 370.3953552246094 313.9553527832031 370.3013000488281 316.3412170410156 363.7388916015625 C 319.3115234375 357.3802490234375 320.0603942871094 353.3643798828125 319.15240478515625 345.8731689453125" stroke-width="0.0" fill="rgb(196, 141, 119)" opacity="1.0377618" stroke="rgb(0, 0, 0)" stroke-opacity="1.0" stroke-linecap="round" stroke-linejoin="round"/>
    <path d="M 347.9908447265625 360.4371337890625 C 343.94976806640625 398.85980224609375 343.6560363769531 445.4411315917969 348.355224609375 505.73931884765625 C 348.9189147949219 507.551025390625 362.1004333496094 507.0552062988281 381.7196350097656 504.3714599609375 C 382.7503356933594 465.45654296875 381.2669372558594 413.9018859863281 381.7547912597656 357.34033203125 C 372.94268798828125 358.4151306152344 355.8897399902344 358.1765441894531 347.9908447265625 360.4371337890625" stroke-width="0.0" fill="rgb(156, 159, 161)" opacity="1.0262084" stroke="rgb(0, 0, 0)" stroke-opacity="1.0" stroke-linecap="round" stroke-linejoin="round"/>
    <path d="M 10.852766990661621 450.8190002441406 C 41.19892501831055 451.2178039550781 82.25251007080078 449.74267578125 130.61257934570312 446.43804931640625 C 132.22633361816406 434.7526550292969 125.67112731933594 428.9419250488281 123.74090576171875 417.4490661621094 C 119.0655746459961 412.7148132324219 112.4501724243164 409.05517578125 107.1968994140625 404.343505859375 C 94.95174407958984 404.31396484375 89.73858642578125 404.9106750488281 77.4759750366211 408.50567626953125 C 78.22837829589844 412.37353515625 73.9323501586914 415.25823974609375 69.05510711669922 415.66131591796875 C 61.57916259765625 409.3484191894531 54.816524505615234 402.11822509765625 47.597530364990234 402.8650817871094 C 36.06025314331055 400.79388427734375 31.738765716552734 406.1958312988281 27.242050170898438 411.108154296875 C 21.557329177856445 421.1546630859375 14.648689270019531 430.0458984375 10.852766990661621 450.8190002441406" stroke-width="0.0" fill="rgb(178, 146, 108)" opacity="0.880788" stroke="rgb(0, 0, 0)" stroke-opacity="1.0" stroke-linecap="round" stroke-linejoin="round"/>
    <path d="M 219.70248413085938 210.74365234375 C 210.92532348632812 204.66558837890625 200.59756469726562 203.64950561523438 191.30030822753906 202.3590087890625 C 180.6920928955078 204.48776245117188 174.1495819091797 207.32705688476562 170.00613403320312 214.71127319335938 C 165.013427734375 223.46417236328125 163.81488037109375 237.84161376953125 162.4793701171875 252.2982177734375 C 160.9266357421875 269.0365905761719 160.05250549316406 287.18310546875 164.6078338623047 299.5712585449219 C 171.3216552734375 295.76275634765625 171.30128479003906 282.6067199707031 181.47300720214844 277.1440734863281 C 192.1156005859375 270.51666259765625 208.80320739746094 269.2815246582031 222.9263916015625 261.6105651855469 C 223.6185302734375 241.39356994628906 219.97024536132812 226.12254333496094 219.70248413085938 210.74365234375" stroke-width="0.0" fill="rgb(32, 33, 29)" opacity="0.9783481" stroke="rgb(0, 0, 0)" stroke-opacity="1.0" stroke-linecap="round" stroke-linejoin="round"/>
    <path d="M 243.9823455810547 190.62942504882812 C 235.27166748046875 191.99945068359375 231.16880798339844 195.5529327392578 227.0057373046875 198.82058715820312 C 224.72828674316406 204.25924682617188 224.37142944335938 212.97584533691406 215.5354766845703 222.11570739746094 C 221.3176727294922 233.35421752929688 223.65414428710938 246.1373291015625 222.84564208984375 266.54315185546875 C 225.6831817626953 273.3930969238281 238.08084106445312 275.02728271484375 249.06948852539062 275.7480163574219 C 259.72393798828125 275.42230224609375 262.37738037109375 271.1625671386719 267.8306579589844 267.0752258300781 C 262.9391784667969 242.57606506347656 277.4256591796875 239.75936889648438 275.2096862792969 224.32492065429688 C 272.6886901855469 209.2764892578125 269.3820495605469 200.39793395996094 262.2438659667969 195.4591827392578 C 257.34478759765625 192.205810546875 250.5917510986328 190.66220092773438 243.9823455810547 190.62942504882812" stroke-width="0.0" fill="rgb(173, 130, 110)" opacity="0.9795318" stroke="rgb(0, 0, 0)" stroke-opacity="1.0" stroke-linecap="round" stroke-linejoin="round"/>
    <path d="M 308.3292236328125 382.5968322753906 C 310.30621337890625 408.5411071777344 319.3516540527344 428.1125183105469 321.946533203125 454.9477233886719 C 324.1625671386719 469.46697998046875 317.518310546875 476.49102783203125 319.4459228515625 493.8205261230469 C 324.3220520019531 495.1802673339844 336.2675476074219 494.88848876953125 348.4522399902344 496.9547424316406 C 347.39068603515625 457.62396240234375 346.69927978515625 418.3491516113281 347.51361083984375 380.0892639160156 C 337.9958801269531 382.34185791015625 318.47833251953125 380.5138854980469 308.3292236328125 382.5968322753906" stroke-width="0.0" fill="rgb(148, 150, 152)" opacity="0.98771334" stroke="rgb(0, 0, 0)" stroke-opacity="1.0" stroke-linecap="round" stroke-linejoin="round"/>
    <path d="M 412.3828430175781 -1.448195457458496 C 432.3112487792969 8.004777908325195 447.4386901855469 14.294187545776367 458.6316223144531 25.858306884765625 C 476.860595703125 43.10679244995117 492.8818054199219 63.1494026184082 513.64501953125 83.82593536376953 C 520.0537719726562 58.68708038330078 518.126220703125 28.485618591308594 517.298828125 -4.071671962738037 C 479.1492004394531 -5.498906135559082 446.9765625 -5.852975845336914 412.3828430175781 -1.448195457458496" stroke-width="0.0" fill="rgb(17, 15, 13)" opacity="1.0511118" stroke="rgb(0, 0, 0)" stroke-opacity="1.0" stroke-linecap="round" stroke-linejoin="round"/>
    <path d="M 38.17005920410156 335.2655029296875 C 40.258888244628906 341.4037780761719 35.13190460205078 342.270263671875 31.8491153717041 344.225830078125 C 36.03031539916992 344.3508605957031 34.960384368896484 342.9286193847656 29.87303352355957 346.1129150390625 C 34.68167495727539 343.4388122558594 40.89097595214844 340.837890625 39.293819427490234 346.82269287109375 C 41.227569580078125 361.9463195800781 40.26927185058594 374.56915283203125 35.936424255371094 384.0733337402344 C 47.381446838378906 383.1177673339844 55.62742614746094 383.9881896972656 63.77853775024414 384.2644958496094 C 54.047306060791016 378.01641845703125 63.60489273071289 378.7657165527344 57.237667083740234 369.43701171875 C 77.43283081054688 371.42608642578125 66.70970153808594 356.2919616699219 85.30400848388672 359.9256286621094 C 94.64057159423828 352.1889343261719 81.989990234375 359.9421691894531 82.16167449951172 354.3815002441406 C 87.08523559570312 352.4494323730469 94.31953430175781 353.6436462402344 94.99018096923828 350.88616943359375 C 90.63868713378906 349.2617492675781 89.42051696777344 345.5852966308594 89.05133056640625 345.63604736328125 C 99.8931655883789 346.95220947265625 99.76866149902344 343.4041442871094 103.80823516845703 346.12744140625 C 103.49887084960938 350.3105163574219 104.51376342773438 362.72808837890625 103.78075408935547 361.8905334472656 C 120.18004608154297 361.1562194824219 120.09988403320312 358.71197509765625 128.39158630371094 349.891357421875 C 117.09519958496094 346.4256896972656 110.5545883178711 340.5842590332031 106.51033020019531 348.3226318359375 C 118.41519165039062 346.3580017089844 109.64415740966797 344.4239807128906 99.62213897705078 342.59674072265625 C 83.45487976074219 334.0994567871094 58.67986297607422 334.2708435058594 38.17005920410156 335.2655029296875" stroke-width="0.0" fill="rgb(76, 77, 79)" opacity="0.99935" stroke="rgb(0, 0, 0)" stroke-opacity="1.0" stroke-linecap="round" stroke-linejoin="round"/>
    <path d="M 517.0116577148438 319.2778625488281 C 478.6981201171875 320.7998352050781 445.29254150390625 320.7525634765625 413.8811340332031 321.42816162109375 C 410.7749938964844 325.01220703125 408.1192932128906 334.6280212402344 411.5480041503906 344.5511779785156 C 440.8293151855469 341.1014404296875 475.6836853027344 339.8123474121094 518.6605224609375 342.06005859375 C 518.0728759765625 330.4691467285156 518.6227416992188 323.1932678222656 517.0116577148438 319.2778625488281" stroke-width="0.0" fill="rgb(199, 202, 205)" opacity="1.194414" stroke="rgb(0, 0, 0)" stroke-opacity="1.0" stroke-linecap="round" stroke-linejoin="round"/>
    <path d="M 503.98565673828125 231.7849578857422 C 504.0872497558594 232.20570373535156 500.88726806640625 230.0435028076172 499.9371032714844 233.3579864501953 C 503.07037353515625 249.43775939941406 507.1387023925781 270.7389831542969 509.9305725097656 275.78338623046875 C 489.34576416015625 285.2183532714844 487.01995849609375 292.8826599121094 482.0962829589844 296.99139404296875 C 482.1703186035156 308.2178649902344 480.164306640625 317.6090393066406 483.66656494140625 319.0349426269531 C 491.9451904296875 319.2099304199219 504.73651123046875 318.8995361328125 521.4576416015625 319.2515563964844 C 512.997802734375 285.3016357421875 500.217041015625 256.28924560546875 503.98565673828125 231.7849578857422" stroke-width="0.0" fill="rgb(41, 45, 19)" opacity="0.9979701" stroke="rgb(0, 0, 0)" stroke-opacity="1.0" stroke-linecap="round" stroke-linejoin="round"/>
    <path d="M 178.92745971679688 384.5470275878906 C 143.18832397460938 386.5882568359375 104.68467712402344 388.8982238769531 68.69029235839844 387.62109375 C 52.72099304199219 391.46728515625 45.95322799682617 387.3031311035156 49.25448226928711 397.16693115234375 C 85.21186828613281 398.922607421875 129.8259735107422 397.1617736816406 176.7749481201172 395.697021484375 C 178.83409118652344 394.87738037109375 182.03956604003906 392.655029296875 178.92745971679688 384.5470275878906" stroke-width="0.0" fill="rgb(203, 207, 209)" opacity="0.9817157" stroke="rgb(0, 0, 0)" stroke-opacity="1.0" stroke-linecap="round" stroke-linejoin="round"/>
    <path d="M 130.00018310546875 495.9085388183594 C 125.83245849609375 500.0619812011719 128.58175659179688 505.83612060546875 130.3626251220703 517.9033203125 C 144.96951293945312 517.63818359375 160.99398803710938 517.6837768554688 178.5967559814453 518.027587890625 C 177.73684692382812 505.090576171875 178.3881072998047 496.9815979003906 177.68177795410156 495.998779296875 C 158.4065399169922 496.3655700683594 139.60696411132812 494.4306640625 130.00018310546875 495.9085388183594" stroke-width="0.0" fill="rgb(119, 123, 130)" opacity="0.9934896" stroke="rgb(0, 0, 0)" stroke-opacity="1.0" stroke-linecap="round" stroke-linejoin="round"/>
    <path d="M 173.57199096679688 417.3312683105469 C 176.83876037597656 403.82843017578125 181.98854064941406 404.8149719238281 170.80767822265625 401.6361083984375 C 151.8851318359375 403.3359069824219 131.3379669189453 402.2469482421875 111.95040130615234 403.3320617675781 C 114.93024444580078 408.91717529296875 119.83058166503906 412.06658935546875 127.42546844482422 419.9931640625 C 146.64768981933594 419.8544921875 164.51315307617188 419.28265380859375 173.57199096679688 417.3312683105469" stroke-width="0.0" fill="rgb(220, 222, 224)" opacity="0.94665056" stroke="rgb(0, 0, 0)" stroke-opacity="1.0" stroke-linecap="round" stroke-linejoin="round"/>
    <path d="M 30.849489212036133 316.4461364746094 C 20.89507293701172 338.6313171386719 18.100740432739258 362.36773681640625 17.035619735717773 390.49896240234375 C 18.824583053588867 393.476318359375 24.556848526000977 397.8299255371094 35.902000427246094 397.7461853027344 C 36.53986358642578 391.2894287109375 39.861820220947266 381.7562561035156 41.67231750488281 369.2957763671875 C 36.418426513671875 354.1092834472656 36.84513473510742 330.3341064453125 30.849489212036133 316.4461364746094" stroke-width="0.0" fill="rgb(108, 108, 106)" opacity="0.9974182" stroke="rgb(0, 0, 0)" stroke-opacity="1.0" stroke-linecap="round" stroke-linejoin="round"/>
    <path d="M 251.25851440429688 -3.638359546661377 C 231.54161071777344 -8.126646995544434 225.6796875 -6.020035743713379 220.26556396484375 2.251091480255127 C 200.28294372558594 47.02108383178711 181.4695281982422 91.6280288696289 167.5422821044922 141.55441284179688 C 157.76194763183594 176.2411346435547 149.08041381835938 212.07147216796875 142.64520263671875 249.5550079345703 C 137.67669677734375 279.6880187988281 133.71624755859375 312.0877380371094 132.5701141357422 343.71484375 C 139.1865234375 351.0536193847656 145.3737030029297 354.7754211425781 152.8297882080078 359.88763427734375 C 153.9196014404297 360.9435729980469 161.7372589111328 362.078369140625 161.22842407226562 357.1236877441406 C 160.0236358642578 318.4889831542969 159.00399780273438 286.11859130859375 156.62396240234375 260.44805908203125 C 163.84239196777344 234.8583984375 163.6715545654297 215.0853729248047 176.33387756347656 201.99996948242188 C 176.49659729003906 190.48257446289062 181.9898223876953 182.20896911621094 179.880859375 178.5038299560547 C 186.74766540527344 143.33370971679688 200.8716583251953 115.4688720703125 211.36904907226562 84.02149200439453 C 221.953125 55.127471923828125 234.26048278808594 27.46626091003418 251.25851440429688 -3.638359546661377" stroke-width="0.0" fill="rgb(85, 86, 81)" opacity="0.98276424" stroke="rgb(0, 0, 0)" stroke-opacity="1.0" stroke-linecap="round" stroke-linejoin="round"/>
    <path d="M 175.55735778808594 416.03216552734375 C 159.39999389648438 416.4698791503906 142.06246948242188 420.4267578125 124.54969024658203 418.6466979980469 C 126.75065612792969 422.4829406738281 128.88914489746094 429.4151306152344 133.36215209960938 431.4640808105469 C 130.1643524169922 448.5115051269531 133.34567260742188 470.1596374511719 132.38877868652344 496.7229919433594 C 144.84410095214844 497.772216796875 155.51321411132812 497.2873840332031 165.83645629882812 496.5764465332031 C 162.63218688964844 466.5286865234375 169.9121856689453 444.1911926269531 175.55735778808594 416.03216552734375" stroke-width="0.0" fill="rgb(78, 76, 81)" opacity="0.9958754" stroke="rgb(0, 0, 0)" stroke-opacity="1.0" stroke-linecap="round" stroke-linejoin="round"/>
    <path d="M 141.89669799804688 349.6322326660156 C 140.0246124267578 362.6010437011719 141.9962158203125 374.7635192871094 140.28363037109375 385.646484375 C 153.43997192382812 385.0247497558594 167.69508361816406 387.68511962890625 179.74838256835938 385.4369812011719 C 179.2938232421875 370.3963623046875 169.8817596435547 364.45245361328125 163.03428649902344 349.5252990722656 C 155.99526977539062 366.5144348144531 156.93917846679688 364.2397155761719 141.89669799804688 349.6322326660156" stroke-width="0.0" fill="rgb(57, 53, 53)" opacity="0.9344033" stroke="rgb(0, 0, 0)" stroke-opacity="1.0" stroke-linecap="round" stroke-linejoin="round"/>
    <path d="M 20.41332244873047 425.0083312988281 C 11.842256546020508 425.7140808105469 9.317119598388672 429.37725830078125 4.323282241821289 427.8339538574219 C 1.5828379392623901 448.1474304199219 3.78590726852417 467.8260803222656 3.7618703842163086 491.5254211425781 C 7.088584899902344 490.7095642089844 12.029019355773926 492.360107421875 12.824565887451172 489.6933288574219 C 14.111510276794434 461.9585266113281 9.435806274414062 440.9867248535156 20.41332244873047 425.0083312988281" stroke-width="0.0" fill="rgb(29, 29, 27)" opacity="1.0009944" stroke="rgb(0, 0, 0)" stroke-opacity="1.0" stroke-linecap="round" stroke-linejoin="round"/>
    <path d="M 139.84164428710938 360.65081787109375 C 124.11653137207031 361.29449462890625 106.54033660888672 361.6654357910156 91.21343231201172 363.0841064453125 C 93.36956024169922 369.8066101074219 93.22733306884766 380.8880310058594 91.21501159667969 387.25042724609375 C 106.70999908447266 387.05328369140625 123.57740020751953 387.4429016113281 141.2433624267578 387.5881652832031 C 140.77114868164062 376.3127136230469 141.20016479492188 367.99615478515625 139.84164428710938 360.65081787109375" stroke-width="0.0" fill="rgb(148, 155, 162)" opacity="1.0161577" stroke="rgb(0, 0, 0)" stroke-opacity="1.0" stroke-linecap="round" stroke-linejoin="round"/>
    <path d="M 5.290862083435059 296.68609619140625 C 5.517634391784668 308.6009826660156 9.051039695739746 315.1653137207031 14.805691719055176 315.844482421875 C 49.9379768371582 327.0419616699219 81.25565338134766 341.81756591796875 123.9627685546875 348.35162353515625 C 84.70516204833984 328.8620910644531 44.35082244873047 314.2884216308594 5.290862083435059 296.68609619140625" stroke-width="0.0" fill="rgb(112, 112, 109)" opacity="0.96667165" stroke="rgb(0, 0, 0)" stroke-opacity="1.0" stroke-linecap="round" stroke-linejoin="round"/>
    <path d="M 321.33734130859375 496.55902099609375 C 318.6147766113281 499.07342529296875 321.0149230957031 505.7642517089844 318.877197265625 518.337158203125 C 344.7637023925781 519.7147216796875 368.3095703125 522.5061645507812 386.7169189453125 512.9959106445312 C 365.658203125 502.1999816894531 342.4338073730469 498.5577697753906 321.33734130859375 496.55902099609375" stroke-width="0.0" fill="rgb(31, 29, 27)" opacity="0.9583857" stroke="rgb(0, 0, 0)" stroke-opacity="1.0" stroke-linecap="round" stroke-linejoin="round"/>
    <path d="M 376.5933532714844 202.19564819335938 C 339.62762451171875 203.6734161376953 306.93328857421875 208.63775634765625 274.3955993652344 207.67127990722656 C 282.6635437011719 236.41665649414062 268.4974060058594 235.7454071044922 269.153564453125 259.7979736328125 C 275.3603820800781 270.3861999511719 292.61688232421875 269.25146484375 300.9958801269531 275.15167236328125 C 307.827880859375 279.0490417480469 313.51971435546875 283.57269287109375 316.6524353027344 292.5504150390625 C 321.05780029296875 307.5847473144531 323.0196533203125 329.1790466308594 322.9349670410156 351.9754333496094 C 326.0209045410156 358.46514892578125 329.39093017578125 360.5492248535156 341.3303527832031 361.16156005859375 C 365.16436767578125 352.3597106933594 384.5911865234375 342.1200256347656 406.6151123046875 337.1219177246094 C 412.6391906738281 298.1252136230469 409.19439697265625 268.9775085449219 399.94000244140625 240.67929077148438 C 396.7915344238281 224.568115234375 386.275146484375 214.27012634277344 376.5933532714844 202.19564819335938" stroke-width="0.0" fill="rgb(55, 55, 47)" opacity="0.9881375" stroke="rgb(0, 0, 0)" stroke-opacity="1.0" stroke-linecap="round" stroke-linejoin="round"/>
    <path d="M 305.10418701171875 378.3628234863281 C 261.6339416503906 380.0638427734375 221.85411071777344 381.8486022949219 182.38209533691406 389.4520568847656 C 177.5923309326172 410.8246765136719 171.61029052734375 435.1864318847656 172.29664611816406 467.0897521972656 C 217.7478485107422 469.3495178222656 266.7440490722656 467.3414611816406 315.31982421875 471.8818664550781 C 320.6620178222656 467.54486083984375 318.7325744628906 464.633544921875 319.4648742675781 449.1582336425781 C 316.3522033691406 425.1319885253906 308.1052551269531 403.897216796875 305.10418701171875 378.3628234863281" stroke-width="0.0" fill="rgb(30, 30, 34)" opacity="1.0588552" stroke="rgb(0, 0, 0)" stroke-opacity="1.0" stroke-linecap="round" stroke-linejoin="round"/>
    <path d="M 374.9866638183594 -1.6959764957427979 C 373.3287048339844 62.63185501098633 369.9087829589844 125.56156158447266 370.81781005859375 197.01913452148438 C 374.2190246582031 207.2242889404297 392.3879089355469 211.6998748779297 395.0832824707031 233.21255493164062 C 405.0065612792969 250.07339477539062 408.7919006347656 272.7323913574219 409.80413818359375 306.2569885253906 C 405.8602294921875 202.97091674804688 407.9754638671875 100.2213363647461 414.8414306640625 5.626693248748779 C 413.8106689453125 1.8114900588989258 410.931640625 0.6300864815711975 408.33770751953125 -0.29705262184143066 C 397.9966125488281 -1.7295376062393188 387.0072021484375 -2.240307092666626 374.9866638183594 -1.6959764957427979" stroke-width="0.0" fill="rgb(43, 35, 20)" opacity="0.9803637" stroke="rgb(0, 0, 0)" stroke-opacity="1.0" stroke-linecap="round" stroke-linejoin="round"/>
    <path d="M 178.29949951171875 465.8021240234375 C 179.27413940429688 483.63043212890625 178.1753387451172 498.5381164550781 180.25242614746094 517.9736938476562 C 225.4254608154297 518.6524658203125 270.7503662109375 519.3109741210938 316.44439697265625 518.4479370117188 C 315.9662170410156 495.84490966796875 315.8345947265625 481.0383605957031 317.9039611816406 469.64837646484375 C 264.56988525390625 469.65106201171875 219.24826049804688 468.465087890625 178.29949951171875 465.8021240234375" stroke-width="0.0" fill="rgb(23, 25, 28)" opacity="0.9860986" stroke="rgb(0, 0, 0)" stroke-opacity="1.0" stroke-linecap="round" stroke-linejoin="round"/>
    <path d="M 14.335911750793457 449.31378173828125 C 12.592923164367676 463.1561584472656 11.008014678955078 475.9783020019531 14.546040534973145 492.8968811035156 C 52.28733825683594 490.87176513671875 89.33671569824219 491.0548400878906 124.06358337402344 489.1338195800781 C 126.9817886352539 475.1050720214844 123.96258544921875 459.80535888671875 126.63245391845703 447.5981750488281 C 88.16854095458984 447.044921875 51.70878601074219 449.1641540527344 14.335911750793457 449.31378173828125" stroke-width="0.0" fill="rgb(142, 149, 157)" opacity="1.005386" stroke="rgb(0, 0, 0)" stroke-opacity="1.0" stroke-linecap="round" stroke-linejoin="round"/>
    <path d="M 350.41241455078125 390.47705078125 C 350.86859130859375 417.0961608886719 357.3702392578125 456.481201171875 355.79180908203125 497.3240661621094 C 361.82061767578125 496.3854064941406 372.0766296386719 497.7178955078125 382.18084716796875 498.9706115722656 C 381.9674377441406 461.857421875 382.0458679199219 425.4255676269531 380.8229064941406 389.46295166015625 C 377.4972839355469 389.552734375 363.14508056640625 387.5133056640625 350.41241455078125 390.47705078125" stroke-width="0.0" fill="rgb(76, 78, 79)" opacity="0.9918071" stroke="rgb(0, 0, 0)" stroke-opacity="1.0" stroke-linecap="round" stroke-linejoin="round"/>
    <path d="M 12.899042129516602 491.0074157714844 C 12.713494300842285 496.77081298828125 14.755539894104004 504.46795654296875 10.196416854858398 517.5581665039062 C 50.384220123291016 517.596923828125 87.81071472167969 517.6835327148438 125.49128723144531 517.8245239257812 C 126.65174865722656 501.0931091308594 126.47245788574219 493.7470397949219 122.76516723632812 488.59356689453125 C 83.86670684814453 490.4090881347656 48.086490631103516 491.06158447265625 12.899042129516602 491.0074157714844" stroke-width="0.0" fill="rgb(115, 116, 118)" opacity="1.033938" stroke="rgb(0, 0, 0)" stroke-opacity="1.0" stroke-linecap="round" stroke-linejoin="round"/>
    <path d="M 312.7353515625 410.5064697265625 C 315.86651611328125 427.64093017578125 322.0030212402344 440.6295166015625 321.2341003417969 465.1944885253906 C 324.40765380859375 473.2776184082031 318.20404052734375 473.876953125 318.94635009765625 490.44476318359375 C 322.4305419921875 491.4195556640625 337.34515380859375 490.7920227050781 348.5889587402344 491.3135070800781 C 347.7915954589844 465.080078125 347.06549072265625 437.8156433105469 347.9764099121094 412.56536865234375 C 332.6077575683594 411.82861328125 320.941650390625 409.60565185546875 312.7353515625 410.5064697265625" stroke-width="0.0" fill="rgb(77, 80, 86)" opacity="1.0038799" stroke="rgb(0, 0, 0)" stroke-opacity="1.0" stroke-linecap="round" stroke-linejoin="round"/>
    <path d="M 517.8905639648438 342.2201232910156 C 469.7352600097656 341.690673828125 428.9238586425781 343.42510986328125 388.1192321777344 344.25994873046875 C 381.6279296875 344.9638671875 379.9129943847656 349.7696228027344 382.0542297363281 358.4059143066406 C 420.140869140625 363.1774597167969 464.54364013671875 362.21148681640625 517.2442016601562 360.6869812011719 C 518.0755615234375 353.1137390136719 518.85205078125 344.0128173828125 517.8905639648438 342.2201232910156" stroke-width="0.0" fill="rgb(219, 222, 225)" opacity="1.1449965" stroke="rgb(0, 0, 0)" stroke-opacity="1.0" stroke-linecap="round" stroke-linejoin="round"/>
    <path d="M 11.340327262878418 447.34857177734375 C 24.990999221801758 448.5642395019531 44.65455627441406 448.2720947265625 71.12745666503906 445.6942138671875 C 71.53812408447266 445.7751159667969 71.33275604248047 436.7424621582031 70.09304809570312 423.2701721191406 C 64.76285552978516 414.730712890625 59.570072174072266 409.8760986328125 54.94442367553711 404.7201232910156 C 49.90871047973633 402.9256896972656 40.153560638427734 402.3995666503906 34.342525482177734 403.9303283691406 C 25.58722686767578 412.8857421875 16.491737365722656 426.5997314453125 11.340327262878418 447.34857177734375" stroke-width="0.0" fill="rgb(233, 188, 51)" opacity="0.9398091" stroke="rgb(0, 0, 0)" stroke-opacity="1.0" stroke-linecap="round" stroke-linejoin="round"/>
    <path d="M 76.13185119628906 417.1959228515625 C 73.03211975097656 426.0977478027344 71.19052124023438 433.38739013671875 71.09468841552734 446.7813415527344 C 88.5705795288086 446.58612060546875 112.9790267944336 447.4805908203125 130.21429443359375 446.66571044921875 C 132.38583374023438 433.6862487792969 125.7676010131836 427.4414978027344 123.52249908447266 417.49957275390625 C 118.17259979248047 413.478759765625 112.1534423828125 409.65802001953125 107.18647003173828 404.7591552734375 C 100.40000915527344 405.1210632324219 94.12389373779297 404.2810974121094 88.80370330810547 406.30706787109375 C 84.0439453125 408.62982177734375 79.95230865478516 413.192626953125 76.13185119628906 417.1959228515625" stroke-width="0.0" fill="rgb(226, 205, 101)" opacity="0.980057" stroke="rgb(0, 0, 0)" stroke-opacity="1.0" stroke-linecap="round" stroke-linejoin="round"/>
    <path d="M 384.49615478515625 372.4410095214844 C 418.28887939453125 373.7528076171875 464.4808349609375 371.7406921386719 514.2324829101562 371.2135009765625 C 518.2228393554688 370.8994445800781 517.9359741210938 362.6932678222656 517.5076904296875 358.4917297363281 C 468.1038818359375 358.12469482421875 428.2311706542969 359.7495422363281 393.5092468261719 360.06878662109375 C 386.76171875 358.84954833984375 379.47314453125 366.3616027832031 384.49615478515625 372.4410095214844" stroke-width="0.0" fill="rgb(241, 244, 247)" opacity="1.005808" stroke="rgb(0, 0, 0)" stroke-opacity="1.0" stroke-linecap="round" stroke-linejoin="round"/>
    <path d="M 304.99261474609375 68.87863159179688 C 290.3475341796875 72.14656829833984 291.8891906738281 73.71531677246094 293.8388671875 83.97233581542969 C 313.9511413574219 106.67374420166016 336.1936950683594 128.6339569091797 358.3951110839844 148.64242553710938 C 367.1269836425781 144.6125946044922 366.3472900390625 141.17771911621094 365.4720764160156 133.45611572265625 C 357.9721984863281 125.42452239990234 352.62286376953125 115.51599884033203 345.23028564453125 107.6070785522461 C 331.8250427246094 92.55712890625 317.68212890625 77.9653549194336 304.99261474609375 68.87863159179688" stroke-width="0.0" fill="rgb(32, 29, 10)" opacity="1.0004488" stroke="rgb(0, 0, 0)" stroke-opacity="1.0" stroke-linecap="round" stroke-linejoin="round"/>
    <path d="M 515.6036376953125 328.4544677734375 C 481.0955810546875 330.1302185058594 450.1885986328125 328.9911193847656 422.6991882324219 330.6282043457031 C 417.7812194824219 331.0489807128906 418.31170654296875 337.5124206542969 419.4875183105469 342.53155517578125 C 448.3929138183594 342.7686767578125 480.3125305175781 341.25982666015625 517.1625366210938 340.8089599609375 C 516.8091430664062 335.3494567871094 517.7843017578125 331.0998229980469 515.6036376953125 328.4544677734375" stroke-width="0.0" fill="rgb(83, 87, 93)" opacity="0.9990286" stroke="rgb(0, 0, 0)" stroke-opacity="1.0" stroke-linecap="round" stroke-linejoin="round"/>
    <path d="M 346.1990966796875 380.4775695800781 C 331.95703125 382.3045959472656 320.0176086425781 382.2969055175781 308.3267822265625 381.84600830078125 C 307.3865051269531 391.06982421875 310.7196350097656 400.6573181152344 312.8078308105469 412.04132080078125 C 320.8306884765625 412.15386962890625 331.958740234375 412.3294372558594 350.1619567871094 412.7504577636719 C 351.5394592285156 406.03204345703125 350.3489685058594 397.68768310546875 346.1990966796875 380.4775695800781" stroke-width="0.0" fill="rgb(191, 197, 199)" opacity="0.9821173" stroke="rgb(0, 0, 0)" stroke-opacity="1.0" stroke-linecap="round" stroke-linejoin="round"/>
    <path d="M 392.6998291015625 420.34197998046875 C 391.43511962890625 429.0422668457031 392.64007568359375 442.2170104980469 392.00506591796875 449.2412414550781 C 406.93310546875 449.0716247558594 421.86065673828125 449.4327392578125 430.40704345703125 449.37799072265625 C 433.6356201171875 437.2681884765625 433.4837341308594 425.64404296875 429.3800354003906 421.1240539550781 C 419.06353759765625 420.6257629394531 403.2872619628906 421.3150329589844 392.6998291015625 420.34197998046875" stroke-width="0.0" fill="rgb(155, 170, 179)" opacity="1.0019033" stroke="rgb(0, 0, 0)" stroke-opacity="1.0" stroke-linecap="round" stroke-linejoin="round"/>
    <path d="M 450.20318603515625 23.182777404785156 C 436.591064453125 25.885807037353516 429.46209716796875 30.862564086914062 426.8749084472656 45.039642333984375 C 428.9266357421875 49.57597351074219 432.727294921875 55.88517379760742 439.2948303222656 57.69987869262695 C 449.83758544921875 57.46868896484375 455.8218994140625 57.16389465332031 459.5861511230469 54.503082275390625 C 464.06842041015625 49.9026985168457 467.7321472167969 50.14677810668945 466.4845886230469 38.55242919921875 C 462.8111877441406 32.24739074707031 455.89324951171875 25.875608444213867 450.20318603515625 23.182777404785156" stroke-width="0.0" fill="rgb(223, 229, 223)" opacity="1.0104749" stroke="rgb(0, 0, 0)" stroke-opacity="1.0" stroke-linecap="round" stroke-linejoin="round"/>
    <path d="M 476.2516784667969 421.2895812988281 C 475.9820251464844 429.0682373046875 474.6357727050781 443.76434326171875 476.9507141113281 447.57421875 C 486.9035949707031 447.95123291015625 499.8116149902344 448.2904052734375 518.3582153320312 448.9006652832031 C 518.6344604492188 436.6835632324219 518.6431274414062 426.6940002441406 519.104248046875 419.65679931640625 C 500.2925109863281 419.8438720703125 483.7719421386719 418.94268798828125 476.2516784667969 421.2895812988281" stroke-width="0.0" fill="rgb(173, 185, 192)" opacity="1.0032238" stroke="rgb(0, 0, 0)" stroke-opacity="1.0" stroke-linecap="round" stroke-linejoin="round"/>
    <path d="M 468.5060729980469 -1.1836286783218384 C 482.91845703125 15.719164848327637 496.8585205078125 30.50212287902832 513.0364379882812 48.804405212402344 C 520.1069946289062 35.17030334472656 518.7553100585938 17.929798126220703 519.015625 -5.255423545837402 C 496.09197998046875 -5.3986992835998535 480.9364929199219 -6.320107936859131 468.5060729980469 -1.1836286783218384" stroke-width="0.0" fill="rgb(72, 76, 50)" opacity="0.98036665" stroke="rgb(0, 0, 0)" stroke-opacity="1.0" stroke-linecap="round" stroke-linejoin="round"/>
    <path d="M 517.08056640625 292.7036437988281 C 502.39385986328125 295.07659912109375 494.4122619628906 298.6803283691406 483.3889465332031 302.21282958984375 C 483.5224609375 300.1252746582031 482.65728759765625 308.8318786621094 482.5458679199219 319.2458801269531 C 490.4807434082031 318.99871826171875 501.99542236328125 318.6815490722656 518.1058349609375 319.0976867675781 C 517.45361328125 309.911865234375 517.7140502929688 301.1412048339844 517.08056640625 292.7036437988281" stroke-width="0.0" fill="rgb(5, 6, 7)" opacity="1.0162925" stroke="rgb(0, 0, 0)" stroke-opacity="1.0" stroke-linecap="round" stroke-linejoin="round"/>
    <path d="M 322.62725830078125 -2.6305181980133057 C 282.88702392578125 -7.2951555252075195 249.9175567626953 -7.402437686920166 224.81204223632812 -4.493597984313965 C 203.43746948242188 58.174095153808594 191.85899353027344 120.51333618164062 176.3197021484375 179.7689666748047 C 174.6280517578125 189.85609436035156 176.2391815185547 196.0160369873047 180.31390380859375 194.8067626953125 C 184.5142059326172 193.4692840576172 180.2380828857422 196.02139282226562 178.78262329101562 200.66497802734375 C 192.74024963378906 195.4759979248047 202.66744995117188 200.0859375 218.99810791015625 204.91586303710938 C 226.22216796875 192.25697326660156 238.22320556640625 187.92007446289062 250.9802703857422 186.01007080078125 C 259.01312255859375 158.56201171875 265.64471435546875 132.56036376953125 274.6141357421875 109.16456604003906 C 289.9977111816406 73.97712707519531 304.7928466796875 37.684410095214844 322.62725830078125 -2.6305181980133057" stroke-width="0.0" fill="rgb(93, 100, 74)" opacity="0.9331775" stroke="rgb(0, 0, 0)" stroke-opacity="1.0" stroke-linecap="round" stroke-linejoin="round"/>
    <path d="M 289.24176025390625 79.80968475341797 C 282.2245178222656 93.79317474365234 276.0006103515625 109.65050506591797 269.7880554199219 123.98055267333984 C 264.8215637207031 144.68954467773438 256.5533752441406 162.51097106933594 254.3714599609375 186.10708618164062 C 264.6177673339844 191.68994140625 270.77606201171875 197.4827423095703 274.6790771484375 208.86862182617188 C 307.6504211425781 206.8195037841797 338.48150634765625 203.86293029785156 363.3485107421875 196.54470825195312 C 369.43768310546875 178.6593780517578 366.2600402832031 162.18319702148438 361.4891357421875 148.60813903808594 C 339.06341552734375 125.23773193359375 316.50726318359375 101.2612533569336 289.24176025390625 79.80968475341797" stroke-width="0.0" fill="rgb(70, 88, 36)" opacity="0.933699" stroke="rgb(0, 0, 0)" stroke-opacity="1.0" stroke-linecap="round" stroke-linejoin="round"/>
    <path d="M 324.83282470703125 -3.4874491691589355 C 313.90594482421875 19.553415298461914 304.1683654785156 40.62532424926758 296.31768798828125 65.05008697509766 C 322.8899230957031 83.2483901977539 342.4588928222656 107.20928192138672 367.0506591796875 130.9058837890625 C 373.10345458984375 92.69078063964844 372.4735107421875 47.75406265258789 373.4378356933594 -5.513126850128174 C 364.34832763671875 -8.416770935058594 347.63165283203125 -8.729969024658203 324.83282470703125 -3.4874491691589355" stroke-width="0.0" fill="rgb(104, 115, 64)" opacity="0.9570816" stroke="rgb(0, 0, 0)" stroke-opacity="1.0" stroke-linecap="round" stroke-linejoin="round"/>
    <path d="M 4.629848480224609 261.03411865234375 C 2.703521966934204 271.50360107421875 3.154611825942993 287.2147521972656 6.056230545043945 296.671630859375 C 44.97268295288086 313.97747802734375 85.12982177734375 329.90753173828125 127.37960815429688 346.40106201171875 C 131.56263732910156 331.6005554199219 128.27711486816406 318.3670959472656 126.03194427490234 311.4149169921875 C 83.18274688720703 293.3050537109375 43.88961410522461 277.4779357910156 4.629848480224609 261.03411865234375" stroke-width="0.0" fill="rgb(23, 24, 20)" opacity="0.955233" stroke="rgb(0, 0, 0)" stroke-opacity="1.0" stroke-linecap="round" stroke-linejoin="round"/>
    <path d="M 169.53338623046875 214.83837890625 C 164.86260986328125 223.93112182617188 163.0373992919922 235.70343017578125 164.26901245117188 247.44210815429688 C 186.88531494140625 247.32382202148438 207.56719970703125 246.64401245117188 223.3919219970703 246.64561462402344 C 222.81236267089844 231.74794006347656 215.73057556152344 226.28770446777344 219.28567504882812 215.0310516357422 C 216.9645233154297 208.3192901611328 209.83148193359375 207.07049560546875 207.81678771972656 203.69210815429688 C 200.12379455566406 201.5028839111328 191.34805297851562 199.69920349121094 184.44815063476562 202.4163360595703 C 177.27731323242188 203.941650390625 171.64048767089844 208.593017578125 169.53338623046875 214.83837890625" stroke-width="0.0" fill="rgb(15, 15, 15)" opacity="1.0342336" stroke="rgb(0, 0, 0)" stroke-opacity="1.0" stroke-linecap="round" stroke-linejoin="round"/>
    <path d="M 92.27069091796875 341.40155029296875 C 72.00859069824219 331.60406494140625 55.323753356933594 323.373291015625 28.786956787109375 320.31884765625 C 26.83100128173828 322.0894775390625 28.005207061767578 326.9801330566406 32.188087463378906 340.58416748046875 C 28.964441299438477 339.31488037109375 31.92431640625 342.3686828613281 36.2073860168457 337.63995361328125 C 37.891971588134766 347.991943359375 39.725547790527344 356.87109375 39.311424255371094 366.7745056152344 C 38.16041946411133 372.28753662109375 41.147789001464844 373.5006408691406 32.29051208496094 370.49456787109375 C 35.297584533691406 365.1549377441406 33.38579559326172 362.4259033203125 30.895259857177734 358.20147705078125 C 28.04531478881836 359.982666015625 26.22585105895996 361.26605224609375 22.98788070678711 366.509033203125 C 26.727317810058594 364.3725280761719 33.40271759033203 360.22650146484375 29.13945960998535 353.3858337402344 C 31.01006507873535 361.0455322265625 35.8746223449707 373.7903747558594 35.233604431152344 393.6784973144531 C 26.053585052490234 395.2548522949219 17.60016441345215 385.6796569824219 17.645851135253906 389.4373474121094 C 21.329030990600586 396.41436767578125 30.197324752807617 391.1551818847656 37.63007354736328 396.5083312988281 C 39.86981201171875 390.4231872558594 39.08050537109375 382.9290771484375 52.6437873840332 387.58935546875 C 45.225223541259766 382.5010070800781 47.60178756713867 367.8722839355469 50.71621322631836 361.96356201171875 C 55.69103240966797 358.6307067871094 57.6363410949707 350.2278747558594 65.72888946533203 349.4023742675781 C 67.69637298583984 350.03399658203125 80.99945831298828 346.6620178222656 98.55931091308594 345.6119689941406 C 92.8880615234375 344.0491638183594 84.7358169555664 343.6608581542969 92.27069091796875 341.40155029296875" stroke-width="0.0" fill="rgb(79, 80, 80)" opacity="0.93301725" stroke="rgb(0, 0, 0)" stroke-opacity="1.0" stroke-linecap="round" stroke-linejoin="round"/>
    <path d="M 145.41311645507812 -1.715343952178955 C 162.5902099609375 16.437334060668945 180.2130584716797 29.346485137939453 196.99850463867188 44.259883880615234 C 207.50990295410156 32.96176528930664 213.28611755371094 17.465551376342773 222.92713928222656 -5.442647933959961 C 199.63926696777344 -7.357869625091553 175.64242553710938 -6.942935943603516 145.41311645507812 -1.715343952178955" stroke-width="0.0" fill="rgb(51, 53, 46)" opacity="1.0042127" stroke="rgb(0, 0, 0)" stroke-opacity="1.0" stroke-linecap="round" stroke-linejoin="round"/>
    <path d="M 472.17333984375 272.58380126953125 C 469.3943786621094 268.2237548828125 462.8329772949219 267.6940612792969 456.551025390625 270.1669921875 C 454.8027648925781 275.47161865234375 450.96954345703125 281.4345397949219 445.7027893066406 288.27655029296875 C 446.64019775390625 298.9219970703125 446.1885986328125 305.8342590332031 439.4477233886719 319.49713134765625 C 452.5311584472656 320.8172302246094 470.8643798828125 319.6178894042969 480.07366943359375 319.3811950683594 C 481.16571044921875 296.5131530761719 480.0177001953125 279.7626037597656 472.17333984375 272.58380126953125" stroke-width="0.0" fill="rgb(182, 195, 159)" opacity="0.9988105" stroke="rgb(0, 0, 0)" stroke-opacity="1.0" stroke-linecap="round" stroke-linejoin="round"/>
    <path d="M 384.2689208984375 496.6611328125 C 384.37457275390625 501.7525329589844 381.8128967285156 505.7529296875 388.2350769042969 507.36102294921875 C 428.0365295410156 507.0804138183594 470.20233154296875 506.742919921875 518.6625366210938 505.7774658203125 C 517.1639404296875 500.4778137207031 517.1597900390625 497.32684326171875 519.4962158203125 496.76043701171875 C 470.8333740234375 496.5547790527344 424.535400390625 497.7851257324219 384.2689208984375 496.6611328125" stroke-width="0.0" fill="rgb(215, 220, 224)" opacity="1.0002818" stroke="rgb(0, 0, 0)" stroke-opacity="1.0" stroke-linecap="round" stroke-linejoin="round"/>
    <path d="M 31.766098022460938 318.652099609375 C 24.500886917114258 323.1224060058594 23.801908493041992 339.45709228515625 21.232135772705078 346.6700439453125 C 19.797853469848633 363.11883544921875 14.069377899169922 384.7456359863281 17.402896881103516 395.14349365234375 C 27.907817840576172 373.1747131347656 30.724895477294922 348.7181396484375 31.766098022460938 318.652099609375" stroke-width="0.0" fill="rgb(174, 178, 179)" opacity="1.054576" stroke="rgb(0, 0, 0)" stroke-opacity="1.0" stroke-linecap="round" stroke-linejoin="round"/>
    <path d="M 223.90704345703125 245.94554138183594 C 205.55581665039062 245.69967651367188 185.01182556152344 247.95860290527344 164.8029022216797 245.00640869140625 C 166.380615234375 248.2980194091797 159.43748474121094 249.36293029785156 158.43702697753906 252.24899291992188 C 158.6959991455078 278.9677429199219 157.79209899902344 304.7610168457031 163.2139892578125 322.5958251953125 C 169.28118896484375 313.1795349121094 165.77587890625 291.0920104980469 178.03189086914062 279.3315124511719 C 182.0381622314453 270.50433349609375 204.6936492919922 273.7894287109375 221.6710205078125 262.4886474609375 C 224.2010498046875 256.5860595703125 228.30447387695312 250.68067932128906 223.90704345703125 245.94554138183594" stroke-width="0.0" fill="rgb(28, 28, 30)" opacity="0.9939984" stroke="rgb(0, 0, 0)" stroke-opacity="1.0" stroke-linecap="round" stroke-linejoin="round"/>
    <path d="M 506.0210266113281 243.87062072753906 C 507.6709289550781 246.93809509277344 504.9852600097656 247.5998077392578 505.6187438964844 247.04873657226562 C 507.6148986816406 254.74856567382812 505.7644348144531 263.22021484375 497.9768371582031 276.79510498046875 C 487.3801574707031 276.9917907714844 479.7009582519531 275.7352294921875 477.90655517578125 284.034912109375 C 475.66729736328125 294.8111572265625 477.2663879394531 300.14678955078125 480.73284912109375 307.7680358886719 C 490.2903747558594 302.0570983886719 499.3767395019531 296.4228515625 520.2340698242188 292.9390563964844 C 519.5177001953125 271.8379821777344 511.9193420410156 256.73382568359375 506.0210266113281 243.87062072753906" stroke-width="0.0" fill="rgb(75, 64, 49)" opacity="0.9362068" stroke="rgb(0, 0, 0)" stroke-opacity="1.0" stroke-linecap="round" stroke-linejoin="round"/>
    <path d="M 519.5187377929688 211.34780883789062 C 501.7821044921875 211.81680297851562 497.7317810058594 215.56272888183594 495.95440673828125 224.43865966796875 C 498.0483703613281 242.9976348876953 505.19781494140625 257.783447265625 518.3643188476562 267.8020324707031 C 511.23333740234375 266.518798828125 513.5181274414062 265.6821594238281 519.9825439453125 271.8923645019531 C 519.8772583007812 254.53956604003906 519.72900390625 233.2425994873047 519.5187377929688 211.34780883789062" stroke-width="0.0" fill="rgb(38, 27, 25)" opacity="0.9769043" stroke="rgb(0, 0, 0)" stroke-opacity="1.0" stroke-linecap="round" stroke-linejoin="round"/>
    <path d="M 231.03753662109375 382.29345703125 C 224.22312927246094 378.1926574707031 226.2605438232422 368.92059326171875 224.47076416015625 369.6722412109375 C 212.12295532226562 374.6002197265625 197.32708740234375 376.5072326660156 180.99923706054688 373.7947082519531 C 177.74853515625 378.7110595703125 180.63412475585938 384.46148681640625 181.9058074951172 391.6318664550781 C 195.69195556640625 384.58685302734375 216.04234313964844 387.002197265625 231.03753662109375 382.29345703125" stroke-width="0.0" fill="rgb(120, 22, 25)" opacity="0.971035" stroke="rgb(0, 0, 0)" stroke-opacity="1.0" stroke-linecap="round" stroke-linejoin="round"/>
    <path d="M 33.02201461791992 344.0920715332031 C 23.01569938659668 356.9827575683594 23.4962215423584 375.9009094238281 18.569683074951172 394.7774353027344 C 25.396087646484375 397.1422424316406 30.29119873046875 398.6709899902344 38.917240142822266 401.0504455566406 C 34.675880432128906 379.162841796875 36.402992248535156 356.82000732421875 33.02201461791992 344.0920715332031" stroke-width="0.0" fill="rgb(56, 56, 55)" opacity="0.8728169" stroke="rgb(0, 0, 0)" stroke-opacity="1.0" stroke-linecap="round" stroke-linejoin="round"/>
    <path d="M 319.08038330078125 341.13128662109375 C 313.18634033203125 337.8668518066406 306.8536071777344 335.6214599609375 294.049072265625 337.7181091308594 C 272.80364990234375 350.2289123535156 247.57351684570312 357.8702392578125 225.58651733398438 369.4776916503906 C 233.54354858398438 374.83477783203125 236.5530548095703 372.92022705078125 230.93978881835938 383.6810302734375 C 255.8393096923828 381.2695617675781 275.411865234375 379.93988037109375 293.80908203125 378.26739501953125 C 302.5804443359375 374.11700439453125 312.54962158203125 371.09527587890625 318.3259582519531 366.10833740234375 C 321.7743835449219 357.4878845214844 323.1723937988281 349.9027404785156 319.08038330078125 341.13128662109375" stroke-width="0.0" fill="rgb(193, 143, 116)" opacity="0.8434014" stroke="rgb(0, 0, 0)" stroke-opacity="1.0" stroke-linecap="round" stroke-linejoin="round"/>
    <path d="M 351.5575866699219 339.9725341796875 C 342.7515563964844 389.91851806640625 348.9465026855469 446.27130126953125 347.08270263671875 479.79425048828125 C 344.17913818359375 491.2615051269531 349.12811279296875 498.1877136230469 359.0675048828125 497.4342346191406 C 357.68450927734375 446.8836364746094 359.31719970703125 396.0738220214844 351.5575866699219 339.9725341796875" stroke-width="0.0" fill="rgb(169, 174, 176)" opacity="0.9134311" stroke="rgb(0, 0, 0)" stroke-opacity="1.0" stroke-linecap="round" stroke-linejoin="round"/>
    <path d="M 144.14794921875 359.1888732910156 C 139.74244689941406 361.615966796875 140.824951171875 369.1390686035156 141.90576171875 386.6006164550781 C 146.1125946044922 386.16021728515625 155.27139282226562 386.2909240722656 164.34104919433594 386.5213928222656 C 163.6215057373047 377.0826416015625 164.92318725585938 365.2161865234375 162.72727966308594 353.188720703125 C 156.25559997558594 355.09326171875 145.32594299316406 352.3330993652344 144.14794921875 359.1888732910156" stroke-width="0.0" fill="rgb(47, 46, 48)" opacity="0.98774874" stroke="rgb(0, 0, 0)" stroke-opacity="1.0" stroke-linecap="round" stroke-linejoin="round"/>
    <path d="M 461.964599609375 157.41458129882812 C 454.3072814941406 165.8562469482422 461.389892578125 169.56141662597656 465.7224426269531 180.6197052001953 C 475.89208984375 191.93695068359375 483.6875915527344 206.35150146484375 495.591796875 219.21681213378906 C 498.2828369140625 215.29324340820312 500.9571533203125 212.58465576171875 502.77142333984375 211.05934143066406 C 486.5677185058594 193.34036254882812 473.13946533203125 175.6492462158203 461.964599609375 157.41458129882812" stroke-width="0.0" fill="rgb(44, 46, 16)" opacity="1.0004042" stroke="rgb(0, 0, 0)" stroke-opacity="1.0" stroke-linecap="round" stroke-linejoin="round"/>
    <path d="M 518.6904296875 349.86444091796875 C 471.3914489746094 353.3542175292969 419.86181640625 350.2088623046875 380.0473327636719 355.5704040527344 C 418.7646179199219 361.5275573730469 467.7669677734375 358.4664306640625 514.633544921875 358.5585632324219 C 517.3296508789062 358.6605529785156 517.9788208007812 351.1399230957031 518.6904296875 349.86444091796875" stroke-width="0.0" fill="rgb(107, 111, 119)" opacity="0.9868647" stroke="rgb(0, 0, 0)" stroke-opacity="1.0" stroke-linecap="round" stroke-linejoin="round"/>
    <path d="M 367.1824951171875 198.86289978027344 C 341.02667236328125 203.98194885253906 307.19970703125 208.17674255371094 277.1074523925781 211.49522399902344 C 278.8350524902344 240.39907836914062 265.4447326660156 243.41497802734375 269.3546447753906 261.9429931640625 C 274.6662902832031 270.9200439453125 291.5158996582031 271.287841796875 300.14111328125 276.1728820800781 C 308.3443603515625 279.77935791015625 312.401123046875 284.8164367675781 316.5553283691406 291.8722839355469 C 320.7774353027344 307.30859375 324.1846008300781 329.6834411621094 324.160888671875 362.2446594238281 C 322.8370666503906 358.186767578125 325.55047607421875 361.2267761230469 335.4949645996094 363.78277587890625 C 346.365234375 357.0874938964844 363.5862731933594 354.4590148925781 372.7989196777344 344.82525634765625 C 373.8792724609375 342.82879638671875 361.1476745605469 355.2354431152344 343.0158386230469 348.7025451660156 C 342.0848693847656 328.9734191894531 346.9151611328125 323.23272705078125 348.41827392578125 329.3243713378906 C 346.4208068847656 322.21392822265625 342.9254455566406 311.41204833984375 346.52227783203125 299.1330871582031 C 344.4072265625 282.66973876953125 347.3655090332031 267.5955505371094 348.3369445800781 255.33096313476562 C 354.3621520996094 254.11749267578125 368.303955078125 262.3340759277344 374.608642578125 260.00665283203125 C 387.4539794921875 255.7845458984375 392.6585693359375 251.41146850585938 394.7639465332031 241.79562377929688 C 395.76397705078125 228.92974853515625 394.9584655761719 221.34552001953125 390.5132751464844 213.8692169189453 C 388.27392578125 206.0552520751953 382.8963928222656 202.9898223876953 367.1824951171875 198.86289978027344" stroke-width="0.0" fill="rgb(69, 74, 52)" opacity="1.0058802" stroke="rgb(0, 0, 0)" stroke-opacity="1.0" stroke-linecap="round" stroke-linejoin="round"/>
    <path d="M 319.9043884277344 1.547302484512329 C 311.6022644042969 -8.164873123168945 306.608642578125 0.061392128467559814 299.94219970703125 4.4387006759643555 C 278.2435607910156 39.3568000793457 263.835205078125 83.92937469482422 246.32492065429688 124.25439453125 C 239.73052978515625 147.07688903808594 230.39942932128906 169.16363525390625 227.58143615722656 197.6851043701172 C 234.06715393066406 189.98081970214844 243.7343292236328 189.71119689941406 250.6806640625 188.40036010742188 C 267.3711853027344 119.27957153320312 295.2296142578125 63.14474868774414 319.9043884277344 1.547302484512329" stroke-width="0.0" fill="rgb(103, 106, 96)" opacity="0.98283476" stroke="rgb(0, 0, 0)" stroke-opacity="1.0" stroke-linecap="round" stroke-linejoin="round"/>
    <path d="M 347.0251770019531 255.17703247070312 C 344.2618103027344 283.7900390625 343.3127136230469 315.9481506347656 341.88531494140625 351.224853515625 C 352.2679138183594 349.55291748046875 364.3814392089844 350.6185302734375 372.5173645019531 347.8044128417969 C 374.884765625 316.037353515625 375.12249755859375 288.4344177246094 375.28778076171875 262.01519775390625 C 362.60107421875 258.2414245605469 357.3293762207031 250.43984985351562 347.0251770019531 255.17703247070312" stroke-width="0.0" fill="rgb(38, 40, 31)" opacity="0.9952013" stroke="rgb(0, 0, 0)" stroke-opacity="1.0" stroke-linecap="round" stroke-linejoin="round"/>
    <path d="M 250.7835693359375 470.6270751953125 C 251.0052947998047 483.57647705078125 250.6817169189453 500.0519104003906 251.23497009277344 518.3497314453125 C 271.3096008300781 517.730224609375 291.62255859375 517.76904296875 312.9989318847656 518.3065795898438 C 314.7723083496094 496.5445556640625 310.0331726074219 484.7456970214844 310.8546142578125 470.5310974121094 C 291.27587890625 469.62091064453125 267.201416015625 468.6291809082031 250.7835693359375 470.6270751953125" stroke-width="0.0" fill="rgb(30, 31, 36)" opacity="1.0003539" stroke="rgb(0, 0, 0)" stroke-opacity="1.0" stroke-linecap="round" stroke-linejoin="round"/>
    <path d="M 156.07211303710938 -8.147427558898926 C 171.2479705810547 15.270373344421387 184.6871795654297 27.02642250061035 201.9529571533203 38.821067810058594 C 209.6747283935547 24.559814453125 215.04006958007812 13.364770889282227 224.96673583984375 -5.798190116882324 C 204.8872833251953 -7.447332382202148 184.19915771484375 -6.960973739624023 156.07211303710938 -8.147427558898926" stroke-width="0.0" fill="rgb(34, 35, 30)" opacity="0.99754924" stroke="rgb(0, 0, 0)" stroke-opacity="1.0" stroke-linecap="round" stroke-linejoin="round"/>
    <path d="M 518.24365234375 277.43841552734375 C 499.25054931640625 277.1379699707031 486.6891174316406 276.9818115234375 479.79010009765625 279.83465576171875 C 475.3790588378906 287.62176513671875 476.15692138671875 299.80426025390625 481.2919921875 307.36077880859375 C 491.1625671386719 302.5968933105469 501.1439208984375 298.2627258300781 515.9442749023438 294.2789611816406 C 517.1795043945312 286.89556884765625 517.8756713867188 280.57623291015625 518.24365234375 277.43841552734375" stroke-width="0.0" fill="rgb(110, 84, 72)" opacity="0.9733108" stroke="rgb(0, 0, 0)" stroke-opacity="1.0" stroke-linecap="round" stroke-linejoin="round"/>
    <path d="M 142.97203063964844 -0.47758135199546814 C 160.55677795410156 15.098373413085938 177.8219451904297 29.528076171875 194.64669799804688 44.41485595703125 C 204.27635192871094 48.72559356689453 204.20384216308594 53.26341247558594 207.46585083007812 39.93565368652344 C 193.379150390625 27.730283737182617 175.849365234375 15.811253547668457 161.0599822998047 0.5875563621520996 C 160.8826446533203 -6.248500823974609 151.26856994628906 -6.537325382232666 142.97203063964844 -0.47758135199546814" stroke-width="0.0" fill="rgb(75, 76, 69)" opacity="0.9929577" stroke="rgb(0, 0, 0)" stroke-opacity="1.0" stroke-linecap="round" stroke-linejoin="round"/>
    <path d="M 181.3481903076172 469.90997314453125 C 179.93759155273438 483.2254943847656 179.58836364746094 498.1893615722656 179.31312561035156 517.9711303710938 C 202.7544403076172 517.83056640625 225.83265686035156 517.8983764648438 249.80194091796875 518.3051147460938 C 250.20791625976562 496.38189697265625 250.2957000732422 481.91046142578125 249.05625915527344 468.76678466796875 C 226.69729614257812 469.1231384277344 199.65904235839844 467.5477600097656 181.3481903076172 469.90997314453125" stroke-width="0.0" fill="rgb(32, 33, 38)" opacity="1.0012125" stroke="rgb(0, 0, 0)" stroke-opacity="1.0" stroke-linecap="round" stroke-linejoin="round"/>
    <path d="M 483.22528076171875 1.19364333152771 C 490.3583068847656 17.192489624023438 501.63482666015625 28.164751052856445 513.4925537109375 45.32479476928711 C 519.9308471679688 31.30665397644043 518.3024291992188 16.151281356811523 517.85546875 0.8779486417770386 C 503.046875 0.40318962931632996 492.6472473144531 1.799309492111206 483.22528076171875 1.19364333152771" stroke-width="0.0" fill="rgb(84, 95, 50)" opacity="1.0005258" stroke="rgb(0, 0, 0)" stroke-opacity="1.0" stroke-linecap="round" stroke-linejoin="round"/>
    <path d="M 77.25785827636719 445.580078125 C 89.47401428222656 444.3066101074219 117.02156829833984 445.38336181640625 130.14816284179688 448.3749694824219 C 132.42697143554688 441.6910705566406 132.54071044921875 439.5429992675781 126.29985809326172 445.484130859375 C 126.76268005371094 436.3830871582031 116.88578796386719 434.4081115722656 107.96984100341797 430.6736145019531 C 100.71376037597656 431.73785400390625 93.92880249023438 427.5635681152344 85.08206176757812 432.31219482421875 C 78.51223754882812 432.771484375 81.12983703613281 439.07000732421875 77.25785827636719 445.580078125" stroke-width="0.0" fill="rgb(213, 112, 25)" opacity="0.996311" stroke="rgb(0, 0, 0)" stroke-opacity="1.0" stroke-linecap="round" stroke-linejoin="round"/>
    <path d="M 376.090576171875 -5.148446083068848 C 374.1204833984375 41.8829460144043 369.220703125 82.71768188476562 368.6677551269531 125.8513412475586 C 372.7213134765625 139.24099731445312 392.57928466796875 133.09429931640625 396.21453857421875 148.13499450683594 C 407.3866882324219 146.46676635742188 406.91986083984375 147.54144287109375 408.7825012207031 144.6151580810547 C 409.2804870605469 92.00931549072266 414.57196044921875 48.93781280517578 416.1196594238281 -1.4621021747589111 C 405.432373046875 -6.347161769866943 392.3521423339844 -6.658548831939697 376.090576171875 -5.148446083068848" stroke-width="0.0" fill="rgb(50, 43, 25)" opacity="0.95875156" stroke="rgb(0, 0, 0)" stroke-opacity="1.0" stroke-linecap="round" stroke-linejoin="round"/>
    <path d="M 409.060791015625 195.81417846679688 C 400.8453674316406 193.99386596679688 402.4124450683594 203.9029083251953 393.4551086425781 205.6697540283203 C 397.3141174316406 217.17823791503906 402.3201904296875 229.8731689453125 399.04302978515625 239.1522674560547 C 393.109619140625 252.22622680664062 386.69537353515625 259.1373596191406 374.3304138183594 261.0050354003906 C 371.4949035644531 294.6307678222656 371.59588623046875 317.5405578613281 373.440185546875 339.2135925292969 C 383.19744873046875 342.57940673828125 392.65594482421875 343.7153625488281 401.652587890625 339.0003356933594 C 400.6179504394531 334.6051940917969 405.53265380859375 337.1708068847656 409.3298645019531 334.3893737792969 C 409.615966796875 330.371337890625 406.9304504394531 324.7965393066406 410.736572265625 320.1023864746094 C 412.0212097167969 320.228759765625 417.47021484375 321.45550537109375 420.299072265625 317.1900329589844 C 418.1215515136719 274.3236083984375 409.2376708984375 237.80624389648438 409.060791015625 195.81417846679688" stroke-width="0.0" fill="rgb(47, 37, 18)" opacity="0.95627433" stroke="rgb(0, 0, 0)" stroke-opacity="1.0" stroke-linecap="round" stroke-linejoin="round"/>
    <path d="M 308.22674560546875 388.4062194824219 C 309.19903564453125 406.0233154296875 314.3164978027344 421.3255920410156 322.6187438964844 435.35107421875 C 327.7464294433594 427.0306701660156 325.15740966796875 409.2887878417969 324.825439453125 390.93743896484375 C 324.7630920410156 389.2702941894531 312.90118408203125 388.36846923828125 308.22674560546875 388.4062194824219" stroke-width="0.0" fill="rgb(185, 197, 193)" opacity="0.9993592" stroke="rgb(0, 0, 0)" stroke-opacity="1.0" stroke-linecap="round" stroke-linejoin="round"/>
    <path d="M 330.1070251464844 206.3974151611328 C 327.8978576660156 209.9288787841797 324.42669677734375 212.9766845703125 324.5507507324219 217.0873260498047 C 329.4710693359375 229.73794555664062 333.2063903808594 242.21548461914062 338.80426025390625 251.19540405273438 C 350.5110168457031 252.6788787841797 361.3910217285156 257.343505859375 373.6134948730469 259.397705078125 C 383.9377746582031 257.3424987792969 389.6932067871094 252.60760498046875 393.4336853027344 246.4318389892578 C 396.9770812988281 242.28514099121094 396.3813171386719 237.26197814941406 394.742919921875 224.12110900878906 C 392.0468444824219 216.4857940673828 389.2560729980469 208.44537353515625 384.06390380859375 204.25787353515625 C 378.3454895019531 200.39590454101562 371.4215393066406 198.76116943359375 362.9537658691406 198.78982543945312 C 351.8712158203125 201.9597930908203 340.56060791015625 203.3187713623047 330.1070251464844 206.3974151611328" stroke-width="0.0" fill="rgb(20, 20, 19)" opacity="1.0005533" stroke="rgb(0, 0, 0)" stroke-opacity="1.0" stroke-linecap="round" stroke-linejoin="round"/>
    <path d="M 320.8479919433594 207.95896911621094 C 302.9490051269531 208.373779296875 288.4945068359375 209.04449462890625 279.0650329589844 214.08531188964844 C 273.5867614746094 219.922119140625 279.65203857421875 236.9249725341797 266.9033508300781 248.0489501953125 C 291.5426940917969 249.1009521484375 307.5120849609375 247.67347717285156 323.777099609375 244.3827362060547 C 324.23907470703125 230.32373046875 317.6682434082031 224.25692749023438 320.8479919433594 207.95896911621094" stroke-width="0.0" fill="rgb(14, 15, 13)" opacity="1.0028542" stroke="rgb(0, 0, 0)" stroke-opacity="1.0" stroke-linecap="round" stroke-linejoin="round"/>
    <path d="M 269.377685546875 245.00802612304688 C 267.0694885253906 248.8029022216797 265.49560546875 257.2225646972656 266.8276672363281 264.7518615722656 C 283.42242431640625 274.7959289550781 305.57958984375 272.0483703613281 310.3987121582031 285.6096496582031 C 321.0543518066406 297.4405822753906 318.9039306640625 319.52008056640625 324.1890869140625 339.5146179199219 C 325.91168212890625 345.3202209472656 319.5980224609375 353.35028076171875 320.55828857421875 367.0918273925781 C 320.3179931640625 367.1856689453125 330.68145751953125 367.368896484375 335.4847717285156 367.0153503417969 C 338.6398620605469 363.88055419921875 342.67987060546875 362.1234436035156 342.05291748046875 361.7755432128906 C 340.831787109375 320.9447326660156 346.05462646484375 288.169921875 345.7100830078125 252.85733032226562 C 337.96588134765625 248.2918701171875 328.9870910644531 242.93203735351562 321.86859130859375 244.47293090820312 C 309.027587890625 248.46923828125 291.0203552246094 247.8672332763672 269.377685546875 245.00802612304688" stroke-width="0.0" fill="rgb(32, 30, 25)" opacity="0.9794237" stroke="rgb(0, 0, 0)" stroke-opacity="1.0" stroke-linecap="round" stroke-linejoin="round"/>
    <path d="M 347.0443420410156 253.51556396484375 C 345.0361328125 273.3055419921875 345.9558410644531 297.82952880859375 344.93634033203125 323.2872619628906 C 354.6094665527344 317.8514404296875 363.3082275390625 317.677490234375 373.047607421875 318.9684753417969 C 371.4732666015625 303.4820251464844 371.3605651855469 282.0304260253906 370.7447509765625 263.4389343261719 C 363.7655029296875 257.5868225097656 357.9898681640625 255.95359802246094 347.0443420410156 253.51556396484375" stroke-width="0.0" fill="rgb(33, 43, 12)" opacity="0.99918264" stroke="rgb(0, 0, 0)" stroke-opacity="1.0" stroke-linecap="round" stroke-linejoin="round"/>
    <path d="M 371.986328125 318.2113037109375 C 362.0414123535156 318.2991027832031 353.8798828125 318.12139892578125 343.6665344238281 322.2951354980469 C 344.94268798828125 328.9947204589844 341.4462585449219 337.8334045410156 343.6595458984375 344.56585693359375 C 352.6160888671875 346.5273742675781 362.5453796386719 345.3344421386719 372.69891357421875 343.3506774902344 C 372.2164001464844 334.02764892578125 371.9202880859375 324.30731201171875 371.986328125 318.2113037109375" stroke-width="0.0" fill="rgb(44, 55, 13)" opacity="1.0000845" stroke="rgb(0, 0, 0)" stroke-opacity="1.0" stroke-linecap="round" stroke-linejoin="round"/>
    <path d="M 305.3333740234375 279.55755615234375 C 325.7872619628906 293.83941650390625 316.3585510253906 321.16461181640625 325.86328125 349.70379638671875 C 327.1634521484375 357.8314514160156 323.1819152832031 360.8480224609375 318.977294921875 366.0811462402344 C 321.7979431152344 369.7425231933594 327.3306579589844 369.5914306640625 335.3241271972656 368.7276306152344 C 339.8844299316406 368.3258361816406 340.44384765625 367.3885803222656 342.35430908203125 362.7725830078125 C 342.5184020996094 337.0284423828125 344.3288879394531 312.69744873046875 345.84564208984375 286.6402893066406 C 333.9045104980469 281.8680725097656 325.9923095703125 276.78631591796875 305.3333740234375 279.55755615234375" stroke-width="0.0" fill="rgb(35, 35, 33)" opacity="0.9818771" stroke="rgb(0, 0, 0)" stroke-opacity="1.0" stroke-linecap="round" stroke-linejoin="round"/>
    <path d="M 266.4337463378906 246.31617736816406 C 266.7073059082031 253.48074340820312 264.5538635253906 260.5821533203125 266.970947265625 264.7545471191406 C 282.61334228515625 271.6508483886719 299.3834533691406 276.9245300292969 320.6341247558594 279.8460998535156 C 321.3385925292969 264.6436462402344 322.16595458984375 248.66986083984375 320.10357666015625 243.1325225830078 C 303.793212890625 247.08262634277344 281.1534423828125 242.83042907714844 266.4337463378906 246.31617736816406" stroke-width="0.0" fill="rgb(39, 39, 40)" opacity="1.0092319" stroke="rgb(0, 0, 0)" stroke-opacity="1.0" stroke-linecap="round" stroke-linejoin="round"/>
  </g>
</svg>
