<?xml version="1.0" ?>
<svg xmlns="http://www.w3.org/2000/svg" version="1.1" width="512" height="512">
  <defs/>
  <g>
    <path d="M -9.09434700012207 -6.763361930847168 C -8.993427276611328 170.45849609375 -8.849909782409668 340.7615661621094 -8.742815017700195 518.9440307617188 C 169.7745361328125 519.0772094726562 340.29901123046875 519.4232788085938 521.2899780273438 520.10498046875 C 521.3456420898438 340.5269470214844 521.0838623046875 169.94834899902344 520.3353881835938 -6.514084339141846 C 340.32598876953125 -7.038052558898926 169.4100341796875 -7.160285472869873 -9.09434700012207 -6.763361930847168" stroke-width="0.0" fill="rgb(99, 99, 93)" opacity="0.89881885" stroke="rgb(0, 0, 0)" stroke-opacity="1.0" stroke-linecap="round" stroke-linejoin="round"/>
    <path d="M 41.78666305541992 -6.679806709289551 C 27.90167236328125 55.70912170410156 15.271547317504883 112.07161712646484 8.563566207885742 173.72207641601562 C 4.01863956451416 219.82183837890625 2.2592923641204834 270.1136474609375 5.7058000564575195 293.7387390136719 C 46.58789825439453 314.6058654785156 91.65257263183594 327.35821533203125 128.76930236816406 348.1588134765625 C 141.49887084960938 356.03997802734375 154.52377319335938 358.97802734375 166.5261993408203 352.0375061035156 C 155.6461944580078 364.3382263183594 162.3925018310547 363.2120361328125 156.47222900390625 363.61004638671875 C 165.56558227539062 361.53973388671875 168.06829833984375 345.1886901855469 161.40223693847656 335.136474609375 C 159.36935424804688 316.4461669921875 164.5727996826172 302.6589050292969 170.218994140625 288.19561767578125 C 171.2466278076172 283.4119567871094 179.06346130371094 276.155517578125 183.19161987304688 274.166259765625 C 196.45162963867188 265.6112365722656 216.75726318359375 267.4508361816406 221.640869140625 256.75701904296875 C 225.4065399169922 235.1750946044922 213.8279266357422 242.60208129882812 217.60189819335938 210.4558868408203 C 222.69200134277344 200.0465850830078 226.92799377441406 193.92840576171875 235.447265625 190.1571044921875 C 240.30606079101562 189.85838317871094 243.51568603515625 187.00875854492188 247.7078399658203 188.02658081054688 C 255.5691680908203 188.86598205566406 259.85992431640625 190.71568298339844 266.6207275390625 195.16030883789062 C 269.7268981933594 197.14981079101562 273.4142761230469 207.2059326171875 276.916748046875 212.6744384765625 C 281.3237609863281 240.13739013671875 269.385009765625 239.92323303222656 270.3322448730469 256.6117248535156 C 272.4147644042969 269.082763671875 293.49554443359375 266.7649841308594 305.12457275390625 275.8538818359375 C 308.9246826171875 279.1393737792969 314.8133544921875 284.0069274902344 317.64288330078125 290.798095703125 C 323.0226745605469 311.0430908203125 325.3702697753906 332.8741149902344 321.36468505859375 362.3854064941406 C 326.9873352050781 366.8744201660156 346.7469482421875 367.46551513671875 348.6546630859375 356.5405578613281 C 386.9637145996094 361.0610046386719 372.5243225097656 336.9923400878906 399.0143737792969 341.73699951171875 C 415.477294921875 336.12347412109375 400.32379150390625 323.3674011230469 416.21502685546875 319.7689208984375 C 463.171630859375 322.65777587890625 478.67010498046875 315.47210693359375 518.6695556640625 317.3666687011719 C 518.59521484375 210.17575073242188 518.8499145507812 105.59890747070312 518.825927734375 -6.908899307250977 C 355.000244140625 -6.662949085235596 198.31362915039062 -6.634529113769531 41.78666305541992 -6.679806709289551" stroke-width="0.0" fill="rgb(43, 45, 35)" opacity="1.0247625" stroke="rgb(0, 0, 0)" stroke-opacity="1.0" stroke-linecap="round" stroke-linejoin="round"/>
    <path d="M 235.3365478515625 193.12564086914062 C 234.35369873046875 190.3472137451172 232.71751403808594 196.7495880126953 228.0622100830078 197.13145446777344 C 225.16346740722656 206.62611389160156 218.54449462890625 215.10726928710938 219.72996520996094 231.37310791015625 C 224.33734130859375 238.58615112304688 227.8430633544922 245.70755004882812 222.00164794921875 266.9934997558594 C 211.3813934326172 268.9686279296875 196.0205841064453 271.70318603515625 184.50006103515625 277.7742004394531 C 175.02186584472656 284.55029296875 171.51731872558594 290.6653137207031 168.69232177734375 310.5777893066406 C 163.15390014648438 327.6957092285156 172.97804260253906 331.4767761230469 168.38189697265625 354.0708923339844 C 172.39468383789062 366.385986328125 177.1925506591797 373.9906005859375 182.5654754638672 382.69207763671875 C 179.10670471191406 404.779296875 172.34263610839844 426.9766845703125 171.59608459472656 462.8294372558594 C 181.36117553710938 469.53875732421875 176.7090301513672 473.4909973144531 180.9500732421875 522.3419189453125 C 221.58741760253906 521.095458984375 266.867431640625 520.806884765625 317.40509033203125 520.8328247070312 C 311.6362609863281 475.62371826171875 323.12451171875 473.8155517578125 319.9864196777344 446.73663330078125 C 314.51580810546875 421.1169738769531 308.6670837402344 398.52581787109375 304.0352478027344 374.4510498046875 C 308.6961669921875 368.44207763671875 317.5699462890625 368.3240661621094 319.2220153808594 353.3985900878906 C 317.7245178222656 334.5513610839844 319.2300109863281 315.8529357910156 315.3682556152344 297.9896240234375 C 312.8039245605469 291.1778869628906 309.19769287109375 284.0831604003906 303.7251281738281 280.4112243652344 C 289.751220703125 271.1319274902344 277.507080078125 272.0946350097656 268.429443359375 267.0224304199219 C 264.07611083984375 246.03175354003906 270.71826171875 245.91751098632812 275.0831604003906 230.88485717773438 C 275.95977783203125 222.2659149169922 272.2203063964844 214.20758056640625 270.5752868652344 205.1938018798828 C 267.89898681640625 199.5784149169922 264.7580871582031 195.7562255859375 258.8758850097656 193.05328369140625 C 249.64651489257812 191.35336303710938 247.91754150390625 189.12979125976562 235.3365478515625 193.12564086914062" stroke-width="0.0" fill="rgb(49, 37, 32)" opacity="1.0645825" stroke="rgb(0, 0, 0)" stroke-opacity="1.0" stroke-linecap="round" stroke-linejoin="round"/>
    <path d="M 520.4513549804688 321.25152587890625 C 480.70751953125 319.7441711425781 450.26617431640625 322.545166015625 418.70245361328125 321.8219299316406 C 409.2217102050781 322.9370422363281 411.6236877441406 331.7001647949219 410.4673767089844 343.1135559082031 C 400.8980712890625 344.2499694824219 385.4036560058594 343.1190185546875 383.83172607421875 345.61297607421875 C 381.2281188964844 346.4607849121094 380.1444091796875 356.2822265625 379.2355651855469 358.1805725097656 C 368.4408264160156 357.5992431640625 354.62738037109375 358.0506896972656 350.00018310546875 361.30548095703125 C 346.40289306640625 363.58184814453125 348.85955810546875 369.6959533691406 346.6372375488281 379.5647888183594 C 332.92706298828125 383.161376953125 318.6774597167969 380.6786193847656 308.5240478515625 383.51727294921875 C 310.77392578125 405.2164306640625 319.9564208984375 426.1054382324219 323.01947021484375 454.63427734375 C 327.5706787109375 480.3681640625 315.9625549316406 478.31414794921875 321.8655090332031 503.0251159667969 C 384.16534423828125 508.8116760253906 448.8751220703125 507.4078369140625 519.9901733398438 514.0203857421875 C 520.3480224609375 445.3282470703125 521.005859375 381.7985534667969 520.4513549804688 321.25152587890625" stroke-width="0.0" fill="rgb(68, 71, 73)" opacity="0.9213013" stroke="rgb(0, 0, 0)" stroke-opacity="1.0" stroke-linecap="round" stroke-linejoin="round"/>
    <path d="M 36.7965087890625 402.46270751953125 C 23.370126724243164 418.00958251953125 13.426068305969238 425.8751525878906 13.595504760742188 433.20098876953125 C 11.148380279541016 462.6287841796875 15.037029266357422 491.5622253417969 12.422829627990723 518.7533569335938 C 51.99734115600586 519.7044677734375 90.81566619873047 520.824462890625 126.30872344970703 521.9602661132812 C 124.64979553222656 489.7433166503906 126.73863983154297 452.0397033691406 130.3775634765625 435.59527587890625 C 128.72531127929688 430.62359619140625 125.50550842285156 424.26007080078125 124.13577270507812 417.9761047363281 C 117.35291290283203 412.14556884765625 110.4729232788086 406.2253112792969 106.48805236816406 404.3152160644531 C 72.60826110839844 405.8983459472656 56.60292434692383 404.78302001953125 36.7965087890625 402.46270751953125" stroke-width="0.0" fill="rgb(166, 171, 169)" opacity="1.0406363" stroke="rgb(0, 0, 0)" stroke-opacity="1.0" stroke-linecap="round" stroke-linejoin="round"/>
    <path d="M 4.11285924911499 295.3902587890625 C 3.923754930496216 327.5299377441406 1.873866319656372 358.0486145019531 4.33338737487793 390.170654296875 C 17.094797134399414 390.7476501464844 22.86440658569336 398.63055419921875 38.5740966796875 395.5015563964844 C 40.93293380737305 391.4840087890625 46.02024841308594 387.5727233886719 79.94429016113281 386.97601318359375 C 100.1457290649414 387.2752990722656 125.20403289794922 387.1628112792969 142.17398071289062 385.33441162109375 C 145.06983947753906 370.6389465332031 139.9624786376953 358.7829895019531 130.67494201660156 348.8619384765625 C 88.59171295166016 329.99755859375 46.058712005615234 313.527099609375 4.11285924911499 295.3902587890625" stroke-width="0.0" fill="rgb(105, 103, 99)" opacity="0.98422265" stroke="rgb(0, 0, 0)" stroke-opacity="1.0" stroke-linecap="round" stroke-linejoin="round"/>
    <path d="M 175.7624969482422 416.3146057128906 C 158.77955627441406 415.6744384765625 143.30926513671875 415.7391662597656 125.83879852294922 417.0614318847656 C 125.5833511352539 425.6361389160156 135.48756408691406 438.0976257324219 129.3432159423828 438.9630126953125 C 129.3556365966797 462.8295593261719 125.33642578125 481.9671325683594 130.4554443359375 518.8611450195312 C 142.6852264404297 520.4642333984375 159.79867553710938 519.331787109375 179.01705932617188 518.857666015625 C 176.34567260742188 499.7184753417969 179.9752655029297 487.2593994140625 176.9524383544922 476.8717346191406 C 176.14749145507812 470.9137268066406 169.66477966308594 470.25677490234375 169.5474395751953 455.9079284667969 C 170.42039489746094 444.2107238769531 171.67897033691406 429.93182373046875 175.7624969482422 416.3146057128906" stroke-width="0.0" fill="rgb(125, 132, 141)" opacity="1.0531087" stroke="rgb(0, 0, 0)" stroke-opacity="1.0" stroke-linecap="round" stroke-linejoin="round"/>
    <path d="M 180.79627990722656 385.8036804199219 C 143.53541564941406 386.06390380859375 105.48206329345703 388.4747619628906 74.52361297607422 388.0662841796875 C 52.552818298339844 388.9496765136719 46.70888137817383 389.48394775390625 48.31140899658203 397.9808044433594 C 56.54600524902344 406.6178894042969 77.88468933105469 402.11407470703125 108.1773452758789 403.0398254394531 C 112.63481903076172 405.4964904785156 116.03602600097656 411.4375305175781 123.20401000976562 415.9088439941406 C 141.92776489257812 416.2226257324219 158.15908813476562 416.39764404296875 176.08529663085938 414.5527038574219 C 176.7906951904297 403.119140625 179.11239624023438 395.46051025390625 180.79627990722656 385.8036804199219" stroke-width="0.0" fill="rgb(105, 109, 112)" opacity="0.7349468" stroke="rgb(0, 0, 0)" stroke-opacity="1.0" stroke-linecap="round" stroke-linejoin="round"/>
    <path d="M 21.256343841552734 421.066162109375 C 21.559650421142578 413.095458984375 12.732650756835938 415.6606750488281 4.137375831604004 417.46539306640625 C 2.20041561126709 445.8827209472656 2.8815066814422607 478.95025634765625 3.3812336921691895 518.663330078125 C 4.770686149597168 518.7185668945312 6.610454082489014 517.8876342773438 11.237665176391602 521.0729370117188 C 15.497633934020996 466.4057922363281 5.275874137878418 435.7097473144531 21.256343841552734 421.066162109375" stroke-width="0.0" fill="rgb(66, 67, 60)" opacity="0.9459134" stroke="rgb(0, 0, 0)" stroke-opacity="1.0" stroke-linecap="round" stroke-linejoin="round"/>
    <path d="M 316.5308532714844 523.5214233398438 C 374.3249816894531 524.3423461914062 439.5810241699219 524.15478515625 516.1799926757812 517.1259155273438 C 480.138916015625 503.9530944824219 430.3713684082031 511.1089782714844 386.3705749511719 506.5553894042969 C 362.7237854003906 506.5694885253906 339.7650146484375 503.6401062011719 324.160888671875 503.12255859375 C 318.5399169921875 492.9659118652344 321.1280517578125 502.21966552734375 316.5308532714844 523.5214233398438" stroke-width="0.0" fill="rgb(22, 23, 23)" opacity="1.0001634" stroke="rgb(0, 0, 0)" stroke-opacity="1.0" stroke-linecap="round" stroke-linejoin="round"/>
    <path d="M 3.9632201194763184 390.6875 C 1.4295250177383423 400.1442565917969 3.793977737426758 420.4176940917969 4.3296709060668945 417.54962158203125 C 23.99835968017578 414.13275146484375 24.09398078918457 417.38116455078125 16.32685661315918 435.3874206542969 C 22.61858558654785 419.1344299316406 27.34966468811035 408.3619079589844 39.6374626159668 403.6943054199219 C 25.745311737060547 395.7408447265625 14.252753257751465 393.00994873046875 3.9632201194763184 390.6875" stroke-width="0.0" fill="rgb(139, 137, 134)" opacity="1.013287" stroke="rgb(0, 0, 0)" stroke-opacity="1.0" stroke-linecap="round" stroke-linejoin="round"/>
    <path d="M 42.06574249267578 -4.562960147857666 C 38.09865188598633 -5.531133651733398 30.908897399902344 -5.902782917022705 30.25281524658203 -6.166788578033447 C 24.889156341552734 8.12762451171875 20.729209899902344 27.460453033447266 17.37708854675293 42.71723175048828 C 10.730766296386719 70.55773162841797 4.473830223083496 107.71729278564453 8.86276912689209 153.7513427734375 C 19.170473098754883 98.7474365234375 27.571565628051758 47.9212532043457 42.06574249267578 -4.562960147857666" stroke-width="0.0" fill="rgb(172, 176, 174)" opacity="0.9094861" stroke="rgb(0, 0, 0)" stroke-opacity="1.0" stroke-linecap="round" stroke-linejoin="round"/>
    <path d="M 140.513916015625 355.2738342285156 C 140.7029571533203 362.4418029785156 141.74937438964844 373.7923278808594 141.28335571289062 386.2018127441406 C 153.69032287597656 385.87030029296875 170.2602996826172 386.2408752441406 177.88198852539062 386.1552734375 C 184.13607788085938 373.8368225097656 170.4795684814453 372.8370056152344 167.98902893066406 355.1401062011719 C 161.0342254638672 349.2967834472656 154.05126953125 354.7928466796875 140.513916015625 355.2738342285156" stroke-width="0.0" fill="rgb(48, 47, 49)" opacity="1.0005146" stroke="rgb(0, 0, 0)" stroke-opacity="1.0" stroke-linecap="round" stroke-linejoin="round"/>
    <path d="M 223.1819610595703 -5.69160795211792 C 161.11630249023438 -7.5714311599731445 100.993408203125 -6.875599384307861 41.3558464050293 -1.5262224674224854 C 26.52747917175293 56.49919891357422 14.350419998168945 115.87979125976562 7.547900676727295 178.6680908203125 C 2.910980224609375 217.06224060058594 3.0655908584594727 258.4541931152344 4.791533470153809 292.7908020019531 C 40.921730041503906 310.8617858886719 80.5383071899414 324.52325439453125 117.56148529052734 340.5182189941406 C 127.0770492553711 345.0039978027344 127.39346313476562 337.4755859375 129.20977783203125 336.9683532714844 C 136.95452880859375 276.7525329589844 140.4974365234375 222.2938690185547 159.7392120361328 174.77049255371094 C 174.11207580566406 111.20991516113281 194.5158233642578 54.476261138916016 223.1819610595703 -5.69160795211792" stroke-width="0.0" fill="rgb(32, 33, 27)" opacity="0.93144095" stroke="rgb(0, 0, 0)" stroke-opacity="1.0" stroke-linecap="round" stroke-linejoin="round"/>
    <path d="M 251.03163146972656 -7.407658576965332 C 227.59703063964844 45.12472152709961 212.1597900390625 78.26068115234375 200.54808044433594 113.97149658203125 C 190.98509216308594 140.41043090820312 176.84817504882812 163.01797485351562 176.45640563964844 199.6381072998047 C 183.45156860351562 197.65267944335938 200.64581298828125 201.00875854492188 221.26800537109375 199.80609130859375 C 224.16769409179688 191.76084899902344 237.85769653320312 188.7887725830078 246.0783233642578 185.45242309570312 C 263.106201171875 190.47425842285156 269.87567138671875 195.37765502929688 275.54150390625 205.57325744628906 C 308.4862365722656 207.2677001953125 340.50372314453125 203.24990844726562 366.83636474609375 199.15855407714844 C 369.7469787597656 193.34959411621094 370.5010070800781 170.11831665039062 366.5216064453125 154.86770629882812 C 358.7122802734375 138.0480194091797 339.61920166015625 131.5364227294922 334.92181396484375 112.70647430419922 C 339.1174011230469 105.21037292480469 336.5840759277344 115.54419708251953 344.7049560546875 112.78533172607422 C 352.9403076171875 119.14350128173828 357.7599182128906 129.8236083984375 370.2990417480469 134.89382934570312 C 371.95477294921875 92.0505599975586 373.17572021484375 44.987483978271484 374.6999816894531 -10.746296882629395 C 321.1224670410156 -10.866230010986328 274.36859130859375 -10.505792617797852 251.03163146972656 -7.407658576965332" stroke-width="0.0" fill="rgb(65, 67, 40)" opacity="0.93326783" stroke="rgb(0, 0, 0)" stroke-opacity="1.0" stroke-linecap="round" stroke-linejoin="round"/>
    <path d="M 425.20001220703125 8.217958450317383 C 415.314208984375 11.113621711730957 418.13275146484375 8.27535343170166 415.1868591308594 19.064334869384766 C 412.29248046875 53.50965881347656 409.4285583496094 96.1357650756836 408.53118896484375 133.99327087402344 C 407.3650817871094 206.05224609375 409.76812744140625 254.4713134765625 416.1560363769531 320.3128356933594 C 448.12109375 318.7938537597656 468.9551696777344 323.3638000488281 478.0118713378906 314.2297668457031 C 480.2521667480469 311.8689270019531 477.2101135253906 303.4156188964844 480.7035827636719 289.63079833984375 C 483.1899719238281 292.7495422363281 488.56341552734375 282.13250732421875 492.849609375 278.5544128417969 C 495.9374084472656 279.3944396972656 499.7976379394531 287.0976257324219 521.4816284179688 293.4626159667969 C 521.41650390625 217.95880126953125 521.5379028320312 152.48489379882812 513.440673828125 88.8176498413086 C 495.0892333984375 65.81368255615234 478.1929931640625 44.942806243896484 455.89208984375 26.812761306762695 C 448.26470947265625 18.44239616394043 438.2790222167969 12.771407127380371 425.20001220703125 8.217958450317383" stroke-width="0.0" fill="rgb(89, 102, 44)" opacity="0.95730066" stroke="rgb(0, 0, 0)" stroke-opacity="1.0" stroke-linecap="round" stroke-linejoin="round"/>
    <path d="M 396.4565124511719 -3.482760190963745 C 388.25836181640625 -8.685755729675293 378.5644226074219 -8.074957847595215 375.1875 -3.5635626316070557 C 374.78509521484375 70.84524536132812 370.8110656738281 138.40762329101562 370.3716735839844 200.96957397460938 C 340.2381286621094 206.5813751220703 309.5337219238281 206.62808227539062 277.18988037109375 209.7017059326172 C 276.60400390625 229.26695251464844 278.03900146484375 232.91400146484375 269.8376159667969 249.3835906982422 C 269.3060607910156 257.46612548828125 270.18212890625 259.6393737792969 273.20050048828125 264.02679443359375 C 282.28790283203125 268.7645263671875 293.4577331542969 268.5888977050781 304.4087219238281 275.96514892578125 C 307.727294921875 277.9134521484375 314.1642150878906 283.7492980957031 315.91094970703125 289.1048583984375 C 323.1492919921875 303.592529296875 322.966552734375 328.87939453125 325.7857971191406 349.8234558105469 C 329.08856201171875 361.4879455566406 335.66998291015625 353.1537170410156 335.7016906738281 359.986328125 C 373.83367919921875 355.9952697753906 378.9584045410156 340.9500427246094 399.6743469238281 341.124267578125 C 413.32830810546875 336.10296630859375 404.3562927246094 324.19830322265625 410.998046875 322.1305847167969 C 412.0416259765625 282.2828369140625 407.28765869140625 252.50160217285156 406.7585754394531 231.08897399902344 C 407.2054443359375 146.13343811035156 408.34881591796875 81.05159759521484 413.5299987792969 17.22426414489746 C 412.9421691894531 -3.297070026397705 409.01605224609375 4.953663349151611 396.4565124511719 -3.482760190963745" stroke-width="0.0" fill="rgb(56, 54, 48)" opacity="0.97206175" stroke="rgb(0, 0, 0)" stroke-opacity="1.0" stroke-linecap="round" stroke-linejoin="round"/>
    <path d="M 519.6287841796875 341.04241943359375 C 467.7921142578125 342.5679931640625 422.02642822265625 341.9852294921875 381.7788391113281 345.84844970703125 C 380.5039367675781 398.0478210449219 383.50579833984375 457.3448791503906 383.65814208984375 506.9273986816406 C 423.8210754394531 507.1857604980469 469.2489318847656 507.0568542480469 519.802734375 506.85888671875 C 519.133056640625 449.89251708984375 519.1370849609375 393.7586669921875 519.6287841796875 341.04241943359375" stroke-width="0.0" fill="rgb(95, 99, 107)" opacity="0.9218237" stroke="rgb(0, 0, 0)" stroke-opacity="1.0" stroke-linecap="round" stroke-linejoin="round"/>
    <path d="M 304.92181396484375 378.8273620605469 C 264.1972351074219 383.4680480957031 217.96986389160156 381.43963623046875 181.5187530517578 387.3558349609375 C 180.04930114746094 407.8458557128906 170.62290954589844 424.5020751953125 171.83160400390625 462.78765869140625 C 172.66615295410156 464.8417663574219 182.56687927246094 462.1617736816406 179.140869140625 523.0696411132812 C 220.6913604736328 521.427978515625 267.0038757324219 520.4675903320312 314.7825927734375 519.25830078125 C 315.29034423828125 502.6793518066406 315.0345153808594 492.0072021484375 314.19866943359375 481.6351013183594 C 318.06475830078125 480.9894714355469 307.1352844238281 482.3801574707031 308.1065673828125 481.60906982421875 C 311.98797607421875 478.4857482910156 315.05645751953125 484.61590576171875 315.1034851074219 476.41619873046875 C 316.5652160644531 476.6258239746094 309.9112243652344 477.8589782714844 307.28753662109375 476.16876220703125 C 313.345458984375 477.19464111328125 314.7616882324219 475.4358825683594 318.5297546386719 472.8674011230469 C 323.29901123046875 465.5127258300781 320.98602294921875 460.90606689453125 319.68084716796875 445.49200439453125 C 315.98736572265625 426.17718505859375 309.1877136230469 402.0892028808594 304.92181396484375 378.8273620605469" stroke-width="0.0" fill="rgb(31, 33, 37)" opacity="1.0025041" stroke="rgb(0, 0, 0)" stroke-opacity="1.0" stroke-linecap="round" stroke-linejoin="round"/>
    <path d="M 167.38409423828125 311.3231506347656 C 164.3987579345703 320.1347961425781 166.7266082763672 333.47430419921875 169.0129852294922 336.5440979003906 C 224.0772247314453 343.37835693359375 270.304443359375 328.14642333984375 318.4138488769531 339.77801513671875 C 320.0226135253906 314.32080078125 317.30841064453125 296.8122253417969 309.50714111328125 285.0660705566406 C 301.4894714355469 274.8220520019531 285.6127624511719 271.7897644042969 267.9473876953125 267.58538818359375 C 262.9758605957031 274.02972412109375 256.3619079589844 274.6946716308594 251.70777893066406 274.969970703125 C 239.83871459960938 277.53369140625 227.6484832763672 275.3661804199219 223.90322875976562 266.3412170410156 C 210.77845764160156 268.2000427246094 200.9524688720703 271.0436706542969 192.97850036621094 273.00390625 C 185.6732177734375 275.8650207519531 179.94830322265625 278.7091979980469 176.5430908203125 284.15521240234375 C 172.61412048339844 289.91937255859375 169.528076171875 297.9583740234375 167.38409423828125 311.3231506347656" stroke-width="0.0" fill="rgb(49, 48, 55)" opacity="0.9930132" stroke="rgb(0, 0, 0)" stroke-opacity="1.0" stroke-linecap="round" stroke-linejoin="round"/>
    <path d="M 13.02637767791748 448.8607177734375 C 11.463104248046875 466.9420471191406 13.58283519744873 490.26287841796875 12.97741985321045 521.5084228515625 C 47.571346282958984 520.8331909179688 86.29678344726562 519.302978515625 126.09469604492188 519.1996459960938 C 125.78075408935547 491.5766296386719 125.74371337890625 466.1185302734375 127.62059020996094 445.5318603515625 C 86.089111328125 448.3486022949219 47.998146057128906 449.6487731933594 13.02637767791748 448.8607177734375" stroke-width="0.0" fill="rgb(86, 88, 92)" opacity="1.0660756" stroke="rgb(0, 0, 0)" stroke-opacity="1.0" stroke-linecap="round" stroke-linejoin="round"/>
    <path d="M 319.03472900390625 345.7761535644531 C 316.15673828125 339.42645263671875 312.80352783203125 338.2424621582031 305.7345275878906 336.9241943359375 C 292.40887451171875 337.28436279296875 283.2381591796875 336.934326171875 266.3246765136719 333.2892761230469 C 236.93197631835938 338.6185607910156 214.2700958251953 339.9529113769531 179.12452697753906 336.4925842285156 C 166.7738037109375 338.5562744140625 164.70359802246094 346.1455383300781 170.75991821289062 361.2121276855469 C 169.62356567382812 366.00494384765625 179.79190063476562 372.84454345703125 184.2305450439453 385.8770751953125 C 224.51329040527344 381.9495544433594 263.51751708984375 381.0024719238281 294.8375549316406 379.16046142578125 C 306.2864685058594 376.9775390625 310.4288635253906 366.5770263671875 317.37835693359375 363.3528747558594 C 318.89208984375 357.5012512207031 318.91375732421875 353.74993896484375 319.03472900390625 345.7761535644531" stroke-width="0.0" fill="rgb(192, 139, 117)" opacity="1.0373228" stroke="rgb(0, 0, 0)" stroke-opacity="1.0" stroke-linecap="round" stroke-linejoin="round"/>
    <path d="M 347.5548095703125 362.2804260253906 C 345.8692321777344 397.11370849609375 347.0771179199219 448.1212158203125 347.2298889160156 505.0711364746094 C 347.2415771484375 501.309814453125 362.7657165527344 506.2001037597656 381.7069091796875 504.4305419921875 C 383.584228515625 466.1109619140625 380.8262023925781 410.7126770019531 380.8027038574219 357.69366455078125 C 375.31878662109375 358.2685241699219 350.4361877441406 356.9266357421875 347.5548095703125 362.2804260253906" stroke-width="0.0" fill="rgb(148, 152, 154)" opacity="0.9658536" stroke="rgb(0, 0, 0)" stroke-opacity="1.0" stroke-linecap="round" stroke-linejoin="round"/>
    <path d="M 11.567052841186523 447.1270446777344 C 39.21418380737305 449.7538146972656 80.14645385742188 447.7688903808594 130.43072509765625 446.9154357910156 C 132.88973999023438 437.8300476074219 127.24739837646484 428.238525390625 123.3251953125 417.6972961425781 C 119.44114685058594 412.899169921875 112.26873016357422 409.07037353515625 108.16716766357422 404.907958984375 C 92.49520874023438 404.14471435546875 91.78409576416016 404.83502197265625 77.53035736083984 408.40716552734375 C 77.77501678466797 412.7165832519531 71.97437286376953 415.2203369140625 69.06591796875 417.1819763183594 C 61.648895263671875 409.0990905761719 55.10655975341797 401.7388000488281 47.025421142578125 402.9801025390625 C 35.114009857177734 401.3935852050781 32.34257888793945 406.0556335449219 27.11871337890625 411.0440979003906 C 22.085779190063477 422.0487976074219 13.091443061828613 429.485595703125 11.567052841186523 447.1270446777344" stroke-width="0.0" fill="rgb(149, 135, 130)" opacity="0.83988446" stroke="rgb(0, 0, 0)" stroke-opacity="1.0" stroke-linecap="round" stroke-linejoin="round"/>
    <path d="M 220.8726043701172 212.1241455078125 C 212.14613342285156 203.2449188232422 200.3927764892578 204.28469848632812 193.40786743164062 202.7962646484375 C 180.6408233642578 204.1688232421875 174.91989135742188 206.69851684570312 170.28309631347656 214.20413208007812 C 165.01849365234375 223.75604248046875 163.408935546875 237.53602600097656 162.43275451660156 251.40347290039062 C 160.42803955078125 267.9288330078125 161.08987426757812 286.93609619140625 164.4510040283203 299.3991394042969 C 171.45790100097656 297.7507019042969 169.5291748046875 283.626220703125 181.8916473388672 276.8753967285156 C 192.67755126953125 269.7178955078125 210.6443634033203 269.1817321777344 221.8357391357422 262.3124084472656 C 228.441650390625 240.44100952148438 212.26751708984375 231.40077209472656 220.8726043701172 212.1241455078125" stroke-width="0.0" fill="rgb(42, 45, 37)" opacity="0.96393216" stroke="rgb(0, 0, 0)" stroke-opacity="1.0" stroke-linecap="round" stroke-linejoin="round"/>
    <path d="M 243.42323303222656 190.70687866210938 C 235.4567108154297 191.62673950195312 230.88926696777344 195.8399658203125 227.8570556640625 198.30772399902344 C 224.26319885253906 204.0216064453125 221.87026977539062 212.47695922851562 218.8311004638672 225.04847717285156 C 220.429931640625 237.24853515625 225.53834533691406 245.69300842285156 222.33029174804688 266.3266906738281 C 226.6446990966797 273.00537109375 237.76283264160156 277.3028259277344 247.435546875 276.0990295410156 C 259.4005432128906 274.43853759765625 264.4790954589844 272.2777099609375 267.53778076171875 265.85247802734375 C 263.9476623535156 238.68515014648438 277.0042419433594 242.6900634765625 275.1996765136719 223.34091186523438 C 272.0700378417969 209.65011596679688 269.014404296875 199.6642303466797 262.7353515625 195.16500854492188 C 257.39044189453125 192.346435546875 250.9851837158203 190.63197326660156 243.42323303222656 190.70687866210938" stroke-width="0.0" fill="rgb(170, 128, 109)" opacity="1.0125337" stroke="rgb(0, 0, 0)" stroke-opacity="1.0" stroke-linecap="round" stroke-linejoin="round"/>
    <path d="M 307.2706298828125 382.11004638671875 C 310.0677490234375 408.0169982910156 319.1368103027344 428.2165222167969 321.4516296386719 455.568603515625 C 324.3401794433594 477.483642578125 315.989013671875 479.84649658203125 320.0556335449219 493.9144287109375 C 322.8399658203125 494.0728759765625 337.1741943359375 495.8443908691406 347.3200378417969 496.0330810546875 C 346.3301696777344 459.9814147949219 347.1681823730469 417.839111328125 346.8959655761719 380.8605041503906 C 337.05731201171875 380.95452880859375 314.71392822265625 382.5492248535156 307.2706298828125 382.11004638671875" stroke-width="0.0" fill="rgb(170, 171, 170)" opacity="1.0488765" stroke="rgb(0, 0, 0)" stroke-opacity="1.0" stroke-linecap="round" stroke-linejoin="round"/>
    <path d="M 412.1553955078125 -1.9295897483825684 C 431.98651123046875 8.2030611038208 446.2315673828125 14.528278350830078 458.71435546875 26.10341453552246 C 476.7330627441406 42.94649124145508 493.1995544433594 62.9440803527832 513.9260864257812 84.66252899169922 C 521.8297119140625 59.086029052734375 519.4968872070312 28.572551727294922 518.5615234375 -4.480212211608887 C 479.1094665527344 -6.413336753845215 446.8553771972656 -6.990322113037109 412.1553955078125 -1.9295897483825684" stroke-width="0.0" fill="rgb(16, 15, 11)" opacity="1.0499271" stroke="rgb(0, 0, 0)" stroke-opacity="1.0" stroke-linecap="round" stroke-linejoin="round"/>
    <path d="M 37.27670669555664 335.5704650878906 C 41.92048645019531 340.8885803222656 35.459110260009766 340.59661865234375 32.63203430175781 346.06927490234375 C 36.77536392211914 343.75335693359375 35.49954605102539 342.71435546875 29.868528366088867 346.81146240234375 C 36.42377853393555 345.59112548828125 39.744503021240234 340.48333740234375 39.14594268798828 345.5235900878906 C 41.63900375366211 362.688232421875 40.267024993896484 376.4037170410156 38.34119415283203 383.73193359375 C 48.160404205322266 383.3277587890625 57.683563232421875 384.3830261230469 63.4398307800293 382.6032409667969 C 47.13288116455078 375.53924560546875 66.89447021484375 382.82830810546875 57.45963668823242 369.962158203125 C 83.15544128417969 367.6324462890625 59.92313003540039 359.42352294921875 86.0091781616211 359.62908935546875 C 92.93511962890625 351.4632873535156 83.20450592041016 360.262939453125 81.84231567382812 354.0277099609375 C 85.85833740234375 353.51007080078125 94.39248657226562 353.068359375 95.30885314941406 350.6595458984375 C 89.57141876220703 349.6664733886719 89.00231170654297 344.7936096191406 90.83136749267578 345.7419128417969 C 96.24295806884766 347.953369140625 95.99468994140625 343.2642822265625 104.1842269897461 345.974365234375 C 103.77112579345703 349.7451477050781 103.71656036376953 365.2149353027344 104.43123626708984 361.7913513183594 C 133.66018676757812 357.2447204589844 115.31326293945312 364.4266357421875 128.66627502441406 348.04522705078125 C 112.91617584228516 349.1146240234375 101.97689056396484 338.5018615722656 109.00782775878906 350.9874267578125 C 112.28083801269531 343.3951721191406 108.17753601074219 340.4654541015625 98.18338775634766 343.9408264160156 C 81.87804412841797 333.2908630371094 60.42550277709961 334.44805908203125 37.27670669555664 335.5704650878906" stroke-width="0.0" fill="rgb(76, 77, 79)" opacity="0.9994539" stroke="rgb(0, 0, 0)" stroke-opacity="1.0" stroke-linecap="round" stroke-linejoin="round"/>
    <path d="M 519.2130126953125 319.23663330078125 C 478.3627014160156 321.1125793457031 443.34283447265625 320.17205810546875 413.8892822265625 322.1097106933594 C 411.18035888671875 321.5771179199219 407.4375305175781 338.561767578125 411.4647521972656 344.4514465332031 C 440.224853515625 340.95098876953125 476.15826416015625 342.4613342285156 520.8609008789062 342.3218688964844 C 519.1795654296875 330.2768859863281 519.8743286132812 322.9380187988281 519.2130126953125 319.23663330078125" stroke-width="0.0" fill="rgb(194, 197, 196)" opacity="1.1459873" stroke="rgb(0, 0, 0)" stroke-opacity="1.0" stroke-linecap="round" stroke-linejoin="round"/>
    <path d="M 502.212158203125 232.6759033203125 C 500.9066162109375 241.6258544921875 503.4539794921875 239.8225555419922 501.9599914550781 234.74154663085938 C 501.2001953125 249.66336059570312 505.8352966308594 273.0980224609375 508.8896179199219 278.4472961425781 C 489.5274353027344 281.33807373046875 488.6954650878906 294.06207275390625 481.3971862792969 296.6662902832031 C 483.1719665527344 312.1090087890625 479.12457275390625 317.62884521484375 485.21673583984375 318.9687194824219 C 490.942138671875 319.7956848144531 505.55242919921875 318.693115234375 522.1961059570312 318.8187255859375 C 510.5179443359375 288.5090026855469 499.354736328125 257.3213806152344 502.212158203125 232.6759033203125" stroke-width="0.0" fill="rgb(35, 41, 16)" opacity="1.0013994" stroke="rgb(0, 0, 0)" stroke-opacity="1.0" stroke-linecap="round" stroke-linejoin="round"/>
    <path d="M 178.31686401367188 385.32073974609375 C 144.89004516601562 386.4437561035156 104.47109985351562 387.9642028808594 71.90066528320312 387.8115234375 C 55.962806701660156 389.45269775390625 44.85747528076172 387.85205078125 49.114898681640625 397.7963562011719 C 83.95550537109375 399.38092041015625 130.52247619628906 397.50152587890625 177.9383544921875 395.9223937988281 C 177.9787139892578 394.7010803222656 182.96157836914062 391.83782958984375 178.31686401367188 385.32073974609375" stroke-width="0.0" fill="rgb(204, 207, 210)" opacity="0.97550803" stroke="rgb(0, 0, 0)" stroke-opacity="1.0" stroke-linecap="round" stroke-linejoin="round"/>
    <path d="M 131.01658630371094 495.623046875 C 124.43135833740234 498.18023681640625 129.2191619873047 504.8355712890625 129.9759521484375 519.3350219726562 C 144.96829223632812 518.7545166015625 160.9937744140625 518.8103637695312 178.45843505859375 519.3202514648438 C 177.16221618652344 504.7588806152344 179.32296752929688 496.3292541503906 176.3453826904297 495.9891357421875 C 157.05235290527344 495.2658996582031 138.6656951904297 498.2033386230469 131.01658630371094 495.623046875" stroke-width="0.0" fill="rgb(120, 124, 131)" opacity="0.9832401" stroke="rgb(0, 0, 0)" stroke-opacity="1.0" stroke-linecap="round" stroke-linejoin="round"/>
    <path d="M 175.951171875 414.5625 C 177.9665985107422 406.1861267089844 179.201171875 401.1748352050781 167.6569061279297 401.64599609375 C 148.75497436523438 403.9255676269531 129.68997192382812 402.13385009765625 109.0322265625 403.6504821777344 C 117.50630187988281 406.4692077636719 119.40142059326172 416.8592834472656 124.43172454833984 415.33404541015625 C 146.14198303222656 416.5594177246094 163.4767608642578 415.7115783691406 175.951171875 414.5625" stroke-width="0.0" fill="rgb(237, 238, 240)" opacity="1.014473" stroke="rgb(0, 0, 0)" stroke-opacity="1.0" stroke-linecap="round" stroke-linejoin="round"/>
    <path d="M 31.812929153442383 316.20770263671875 C 20.86663055419922 337.2499694824219 17.87837791442871 362.96820068359375 17.228044509887695 392.75341796875 C 18.629865646362305 391.6637268066406 27.541339874267578 400.8760681152344 37.071868896484375 395.70086669921875 C 35.23457336425781 389.7252502441406 42.7318229675293 383.52587890625 40.22023010253906 365.7262268066406 C 37.05433654785156 353.40289306640625 36.41417694091797 328.7865905761719 31.812929153442383 316.20770263671875" stroke-width="0.0" fill="rgb(101, 100, 97)" opacity="0.99522054" stroke="rgb(0, 0, 0)" stroke-opacity="1.0" stroke-linecap="round" stroke-linejoin="round"/>
    <path d="M 251.84829711914062 -3.5212535858154297 C 229.48048400878906 -10.273571968078613 225.25827026367188 -9.095510482788086 220.30609130859375 2.962501287460327 C 197.993896484375 45.114501953125 182.26687622070312 91.75372314453125 167.93104553222656 141.91159057617188 C 158.55348205566406 177.02804565429688 148.26490783691406 211.27911376953125 142.6256561279297 249.42727661132812 C 137.27566528320312 279.12774658203125 134.1497344970703 312.2271423339844 132.72471618652344 343.0162353515625 C 138.10960388183594 351.7671203613281 147.0894775390625 353.9473876953125 152.43377685546875 360.7919616699219 C 154.4447784423828 360.70233154296875 160.23782348632812 361.8266296386719 161.241943359375 357.01519775390625 C 160.41624450683594 318.1006164550781 158.8651123046875 286.9825439453125 156.78929138183594 258.2596435546875 C 165.57098388671875 235.2158966064453 161.39859008789062 220.0730743408203 174.11642456054688 205.36550903320312 C 178.87535095214844 194.25140380859375 179.9627685546875 182.1079864501953 178.479248046875 180.4398651123047 C 186.84902954101562 142.490966796875 201.73117065429688 115.32179260253906 211.48956298828125 82.95255279541016 C 223.0283660888672 56.14947509765625 234.7761993408203 27.834510803222656 251.84829711914062 -3.5212535858154297" stroke-width="0.0" fill="rgb(85, 86, 81)" opacity="0.9753122" stroke="rgb(0, 0, 0)" stroke-opacity="1.0" stroke-linecap="round" stroke-linejoin="round"/>
    <path d="M 175.07211303710938 415.7640686035156 C 158.67440795898438 414.8147888183594 141.9620819091797 417.90966796875 124.0118408203125 416.6282958984375 C 125.86434936523438 422.37127685546875 128.90609741210938 431.70489501953125 133.40830993652344 429.1861267089844 C 129.56674194335938 448.818603515625 134.01815795898438 475.4437255859375 131.80479431152344 497.5199890136719 C 144.69677734375 496.0914611816406 158.34872436523438 497.9660949707031 165.78765869140625 495.3375549316406 C 161.93978881835938 459.7215270996094 170.4964599609375 446.78912353515625 175.07211303710938 415.7640686035156" stroke-width="0.0" fill="rgb(79, 78, 82)" opacity="1.0058101" stroke="rgb(0, 0, 0)" stroke-opacity="1.0" stroke-linecap="round" stroke-linejoin="round"/>
    <path d="M 142.21087646484375 351.6133728027344 C 139.4622344970703 360.6622314453125 142.7669677734375 375.1200866699219 139.8950958251953 385.8330993652344 C 149.93247985839844 385.70416259765625 170.26341247558594 387.4028625488281 180.60020446777344 383.158935546875 C 181.9624481201172 373.48016357421875 168.0444793701172 370.5580139160156 166.52955627441406 349.2820129394531 C 149.76803588867188 365.0963134765625 159.77330017089844 362.2266540527344 142.21087646484375 351.6133728027344" stroke-width="0.0" fill="rgb(49, 46, 48)" opacity="0.90722805" stroke="rgb(0, 0, 0)" stroke-opacity="1.0" stroke-linecap="round" stroke-linejoin="round"/>
    <path d="M 20.136119842529297 425.5340881347656 C 11.172666549682617 424.8525695800781 9.018476486206055 430.0563659667969 4.321298599243164 427.2422180175781 C 1.2192580699920654 451.0926818847656 3.928372621536255 467.97900390625 4.030858516693115 491.7579345703125 C 7.734658718109131 490.2453308105469 11.429093360900879 493.15216064453125 12.896438598632812 488.4192810058594 C 14.251007080078125 459.4740295410156 7.720624923706055 439.227294921875 20.136119842529297 425.5340881347656" stroke-width="0.0" fill="rgb(29, 30, 27)" opacity="0.9921783" stroke="rgb(0, 0, 0)" stroke-opacity="1.0" stroke-linecap="round" stroke-linejoin="round"/>
    <path d="M 139.08836364746094 360.5032958984375 C 124.19023132324219 361.5492248535156 104.01567077636719 361.10089111328125 92.25865936279297 363.3174133300781 C 92.15322875976562 371.2937316894531 95.15432739257812 383.0826416015625 89.95011901855469 386.9189453125 C 105.2271728515625 386.3965759277344 123.32353973388672 388.637451171875 140.52622985839844 385.0020751953125 C 141.86497497558594 376.0438537597656 141.53965759277344 369.2059020996094 139.08836364746094 360.5032958984375" stroke-width="0.0" fill="rgb(148, 155, 162)" opacity="1.0194923" stroke="rgb(0, 0, 0)" stroke-opacity="1.0" stroke-linecap="round" stroke-linejoin="round"/>
    <path d="M 6.148015022277832 296.9682312011719 C 4.731161117553711 310.5575866699219 7.286144733428955 311.8169860839844 15.278158187866211 316.5793762207031 C 50.83967971801758 325.75299072265625 78.582275390625 343.85662841796875 126.01982879638672 348.5715026855469 C 84.77880859375 329.17547607421875 44.14977264404297 314.5512390136719 6.148015022277832 296.9682312011719" stroke-width="0.0" fill="rgb(111, 112, 108)" opacity="0.9425783" stroke="rgb(0, 0, 0)" stroke-opacity="1.0" stroke-linecap="round" stroke-linejoin="round"/>
    <path d="M 323.9143371582031 496.51708984375 C 316.7129211425781 497.70489501953125 321.6950378417969 503.8626708984375 318.58892822265625 519.6996459960938 C 345.1299743652344 521.3197631835938 369.24786376953125 524.8409423828125 386.769287109375 513.0146484375 C 367.96417236328125 503.1382751464844 340.1925354003906 497.76434326171875 323.9143371582031 496.51708984375" stroke-width="0.0" fill="rgb(29, 28, 26)" opacity="0.942469" stroke="rgb(0, 0, 0)" stroke-opacity="1.0" stroke-linecap="round" stroke-linejoin="round"/>
    <path d="M 372.6971740722656 203.08119201660156 C 341.3781433105469 201.87478637695312 310.5185241699219 210.93954467773438 274.85540771484375 204.90768432617188 C 281.6377258300781 243.82379150390625 266.4584045410156 239.0664520263672 269.3654479980469 259.87847900390625 C 271.2472839355469 269.9002685546875 290.90167236328125 268.6335754394531 300.67901611328125 275.07476806640625 C 307.32257080078125 277.69183349609375 313.38531494140625 284.17138671875 316.8099670410156 292.567626953125 C 320.62640380859375 306.79400634765625 323.7978210449219 330.4206237792969 322.9350280761719 352.6072692871094 C 326.9582824707031 358.9390563964844 328.365234375 360.2618408203125 341.25421142578125 361.13128662109375 C 366.6968688964844 352.84649658203125 381.48052978515625 341.380615234375 406.2784729003906 336.6326599121094 C 414.1831359863281 306.8151550292969 407.7257995605469 267.4693298339844 399.8326416015625 240.56446838378906 C 394.7241516113281 224.54714965820312 388.4401550292969 211.6932373046875 372.6971740722656 203.08119201660156" stroke-width="0.0" fill="rgb(57, 57, 49)" opacity="0.99561214" stroke="rgb(0, 0, 0)" stroke-opacity="1.0" stroke-linecap="round" stroke-linejoin="round"/>
    <path d="M 305.3570556640625 377.2272033691406 C 262.561279296875 383.6741638183594 220.58497619628906 379.6862487792969 180.52841186523438 390.1835021972656 C 179.742431640625 413.33099365234375 168.0259246826172 437.33258056640625 174.00274658203125 468.0997314453125 C 216.72418212890625 468.0645446777344 267.70343017578125 466.13946533203125 315.2674865722656 470.50054931640625 C 320.528564453125 468.70068359375 319.5699768066406 465.9539794921875 319.5202331542969 449.10162353515625 C 316.20147705078125 425.8857116699219 308.50714111328125 405.1056213378906 305.3570556640625 377.2272033691406" stroke-width="0.0" fill="rgb(30, 30, 35)" opacity="1.151799" stroke="rgb(0, 0, 0)" stroke-opacity="1.0" stroke-linecap="round" stroke-linejoin="round"/>
    <path d="M 375.2181701660156 -2.391807794570923 C 373.2177734375 62.2719841003418 370.18426513671875 127.85120391845703 371.29669189453125 194.80894470214844 C 372.37457275390625 205.7544708251953 390.0325622558594 211.4996795654297 396.7530822753906 233.2971649169922 C 402.9850769042969 250.73953247070312 409.34820556640625 273.7283630371094 410.07379150390625 305.9485778808594 C 406.8736877441406 204.622802734375 406.96826171875 96.3897705078125 414.97186279296875 7.902514934539795 C 414.1562194824219 0.5613815784454346 410.1477966308594 1.79474937915802 406.9615783691406 -1.487348198890686 C 397.9963684082031 -1.9978835582733154 387.00787353515625 -2.6788759231567383 375.2181701660156 -2.391807794570923" stroke-width="0.0" fill="rgb(43, 35, 20)" opacity="0.9814167" stroke="rgb(0, 0, 0)" stroke-opacity="1.0" stroke-linecap="round" stroke-linejoin="round"/>
    <path d="M 178.32359313964844 467.2557678222656 C 180.2114715576172 483.5906677246094 177.357666015625 498.34136962890625 181.43785095214844 519.2162475585938 C 225.44554138183594 520.1357421875 270.78948974609375 520.9322509765625 317.1026306152344 520.05322265625 C 315.1489562988281 494.84722900390625 315.43377685546875 481.7986145019531 318.9471740722656 470.5439147949219 C 265.59619140625 465.9150390625 217.2357940673828 468.328857421875 178.32359313964844 467.2557678222656" stroke-width="0.0" fill="rgb(24, 26, 29)" opacity="0.9655679" stroke="rgb(0, 0, 0)" stroke-opacity="1.0" stroke-linecap="round" stroke-linejoin="round"/>
    <path d="M 13.821136474609375 449.0104675292969 C 13.784538269042969 463.389892578125 10.429718971252441 479.9392395019531 14.6837158203125 491.2760009765625 C 51.28356170654297 488.908203125 89.78623962402344 491.2038269042969 123.9437026977539 489.603759765625 C 128.4719696044922 476.0695495605469 123.64327239990234 464.18463134765625 126.7882080078125 448.1593322753906 C 86.70479583740234 446.4827575683594 50.615177154541016 449.2650146484375 13.821136474609375 449.0104675292969" stroke-width="0.0" fill="rgb(142, 149, 157)" opacity="1.0459846" stroke="rgb(0, 0, 0)" stroke-opacity="1.0" stroke-linecap="round" stroke-linejoin="round"/>
    <path d="M 354.65447998046875 390.1562194824219 C 351.9144592285156 414.7127685546875 361.4605712890625 458.7119140625 356.8058776855469 496.09844970703125 C 358.97369384765625 497.6892395019531 373.2373352050781 497.02667236328125 382.0522155761719 498.6974792480469 C 382.2263488769531 460.73651123046875 382.40338134765625 426.7021179199219 380.75103759765625 388.6120300292969 C 380.7232360839844 390.0285949707031 359.23095703125 387.313720703125 354.65447998046875 390.1562194824219" stroke-width="0.0" fill="rgb(74, 75, 77)" opacity="0.9882916" stroke="rgb(0, 0, 0)" stroke-opacity="1.0" stroke-linecap="round" stroke-linejoin="round"/>
    <path d="M 13.21068000793457 491.5063781738281 C 11.799602508544922 496.3889465332031 15.05665397644043 505.3483581542969 9.7843599319458 518.9265747070312 C 50.386260986328125 518.7684936523438 87.81659698486328 518.8574829101562 126.26553344726562 519.5748291015625 C 125.83792114257812 501.19482421875 126.5351333618164 491.7557373046875 121.76225280761719 489.3678283691406 C 84.27581787109375 489.96746826171875 46.79475784301758 489.25146484375 13.21068000793457 491.5063781738281" stroke-width="0.0" fill="rgb(113, 115, 117)" opacity="1.0766888" stroke="rgb(0, 0, 0)" stroke-opacity="1.0" stroke-linecap="round" stroke-linejoin="round"/>
    <path d="M 312.70159912109375 411.92529296875 C 316.2430114746094 426.1293640136719 320.9192199707031 440.4465637207031 321.2404479980469 464.8396911621094 C 323.9237060546875 477.8834228515625 316.89862060546875 476.6358337402344 319.42034912109375 490.12713623046875 C 318.94879150390625 492.2378234863281 337.2874755859375 490.1839294433594 346.9481201171875 491.1396789550781 C 346.8973083496094 466.04290771484375 347.48077392578125 437.33349609375 346.9569396972656 412.47174072265625 C 332.1064758300781 410.3643493652344 318.6742858886719 411.2106018066406 312.70159912109375 411.92529296875" stroke-width="0.0" fill="rgb(74, 77, 84)" opacity="1.002138" stroke="rgb(0, 0, 0)" stroke-opacity="1.0" stroke-linecap="round" stroke-linejoin="round"/>
    <path d="M 519.1395874023438 342.0753479003906 C 470.95465087890625 341.6400146484375 428.66546630859375 342.80755615234375 389.67742919921875 344.0003967285156 C 381.0057678222656 344.7330627441406 379.9504089355469 349.4244384765625 381.9650573730469 359.17864990234375 C 418.5933837890625 360.6699523925781 465.27996826171875 359.2745666503906 519.036865234375 357.4215087890625 C 519.3271484375 353.1692199707031 520.2299194335938 343.8072204589844 519.1395874023438 342.0753479003906" stroke-width="0.0" fill="rgb(212, 215, 219)" opacity="1.1008853" stroke="rgb(0, 0, 0)" stroke-opacity="1.0" stroke-linecap="round" stroke-linejoin="round"/>
    <path d="M 10.992592811584473 447.6299133300781 C 22.249113082885742 448.2544250488281 46.89313507080078 448.220947265625 70.14419555664062 446.9875183105469 C 69.73419189453125 447.5016784667969 72.58065032958984 437.0017395019531 69.86187744140625 425.5184326171875 C 66.26811981201172 413.29998779296875 58.634647369384766 410.55096435546875 54.974151611328125 404.6106262207031 C 50.91262435913086 402.58282470703125 38.47403335571289 401.0518493652344 34.18963623046875 404.66656494140625 C 25.380550384521484 411.3753967285156 16.23813819885254 427.1593017578125 10.992592811584473 447.6299133300781" stroke-width="0.0" fill="rgb(239, 190, 46)" opacity="0.906615" stroke="rgb(0, 0, 0)" stroke-opacity="1.0" stroke-linecap="round" stroke-linejoin="round"/>
    <path d="M 76.42827606201172 416.84991455078125 C 72.71687316894531 426.61328125 71.34770202636719 431.2578430175781 70.82860565185547 447.1684875488281 C 87.09808349609375 446.8158264160156 114.90030670166016 447.2618713378906 129.99436950683594 446.8075256347656 C 132.55738830566406 437.4429016113281 126.24529266357422 427.1737976074219 123.94841003417969 418.15399169921875 C 118.5145492553711 413.08367919921875 112.52552795410156 409.1709899902344 107.27165985107422 404.5718994140625 C 99.61946105957031 405.5981750488281 94.5374526977539 403.6641845703125 89.26363372802734 406.1867370605469 C 83.91630554199219 408.61297607421875 79.85775756835938 413.3426208496094 76.42827606201172 416.84991455078125" stroke-width="0.0" fill="rgb(229, 200, 93)" opacity="0.9499483" stroke="rgb(0, 0, 0)" stroke-opacity="1.0" stroke-linecap="round" stroke-linejoin="round"/>
    <path d="M 387.7850341796875 372.98614501953125 C 416.21319580078125 373.1959228515625 465.0972900390625 372.4515380859375 516.8140258789062 371.3496398925781 C 519.577880859375 372.06988525390625 518.9982299804688 362.7923278808594 522.1441040039062 359.0081787109375 C 469.3069152832031 358.14898681640625 427.7484130859375 359.418701171875 392.8028869628906 359.8507385253906 C 387.6231689453125 356.1195373535156 377.20428466796875 369.74920654296875 387.7850341796875 372.98614501953125" stroke-width="0.0" fill="rgb(244, 246, 249)" opacity="0.98964894" stroke="rgb(0, 0, 0)" stroke-opacity="1.0" stroke-linecap="round" stroke-linejoin="round"/>
    <path d="M 300.02679443359375 69.84002685546875 C 292.643310546875 70.1773910522461 292.6943054199219 78.57047271728516 292.8099670410156 83.59607696533203 C 319.1852111816406 101.75732421875 338.05242919921875 126.9244384765625 360.732666015625 146.957763671875 C 365.4410705566406 150.08660888671875 367.4585876464844 140.45225524902344 364.8576354980469 131.32632446289062 C 357.2426452636719 125.61707305908203 352.48309326171875 115.5120849609375 345.957763671875 106.51207733154297 C 333.07305908203125 91.14614868164062 316.2400817871094 79.35088348388672 300.02679443359375 69.84002685546875" stroke-width="0.0" fill="rgb(32, 28, 11)" opacity="0.9995978" stroke="rgb(0, 0, 0)" stroke-opacity="1.0" stroke-linecap="round" stroke-linejoin="round"/>
    <path d="M 517.834716796875 328.29412841796875 C 479.5604248046875 329.9405822753906 448.544921875 329.76861572265625 423.85968017578125 330.5085144042969 C 417.27288818359375 331.41339111328125 417.10687255859375 338.7336730957031 420.6156921386719 343.94500732421875 C 447.03765869140625 339.6233825683594 480.4319152832031 344.3811950683594 517.0414428710938 339.7381286621094 C 517.4746704101562 335.30029296875 518.5689086914062 331.0079345703125 517.834716796875 328.29412841796875" stroke-width="0.0" fill="rgb(83, 87, 94)" opacity="0.9974695" stroke="rgb(0, 0, 0)" stroke-opacity="1.0" stroke-linecap="round" stroke-linejoin="round"/>
    <path d="M 346.8636169433594 380.593994140625 C 330.8775939941406 382.75164794921875 320.40643310546875 381.6553649902344 308.54498291015625 381.9302978515625 C 306.61285400390625 386.7408447265625 310.09228515625 401.9985046386719 313.11083984375 412.20306396484375 C 320.4034729003906 411.8059997558594 332.7493591308594 411.9132995605469 346.3740234375 412.0856628417969 C 347.2198181152344 408.4601135253906 346.96697998046875 400.1340026855469 346.8636169433594 380.593994140625" stroke-width="0.0" fill="rgb(189, 195, 196)" opacity="0.9639175" stroke="rgb(0, 0, 0)" stroke-opacity="1.0" stroke-linecap="round" stroke-linejoin="round"/>
    <path d="M 392.7522888183594 420.3678894042969 C 391.1670837402344 425.90191650390625 392.3906555175781 441.53704833984375 392.2764587402344 448.93414306640625 C 406.199462890625 449.3553161621094 423.156494140625 449.0718994140625 431.0882568359375 448.74542236328125 C 432.91876220703125 440.1256408691406 433.3490295410156 421.9725646972656 428.8170166015625 421.6050720214844 C 422.03228759765625 419.82025146484375 402.60260009765625 421.968505859375 392.7522888183594 420.3678894042969" stroke-width="0.0" fill="rgb(155, 169, 178)" opacity="0.999831" stroke="rgb(0, 0, 0)" stroke-opacity="1.0" stroke-linecap="round" stroke-linejoin="round"/>
    <path d="M 449.12847900390625 23.598411560058594 C 437.2530517578125 25.217084884643555 429.04754638671875 31.65814781188965 427.0379638671875 44.22843551635742 C 427.3671569824219 49.8272705078125 433.4851989746094 55.6201286315918 440.6426086425781 57.78197479248047 C 450.857666015625 57.28165817260742 454.1211242675781 56.88143539428711 459.8017272949219 53.612579345703125 C 464.150146484375 48.565120697021484 466.94317626953125 53.479637145996094 466.7196960449219 39.23468017578125 C 462.443603515625 32.06766128540039 456.9566955566406 24.482866287231445 449.12847900390625 23.598411560058594" stroke-width="0.0" fill="rgb(222, 228, 222)" opacity="1.0084238" stroke="rgb(0, 0, 0)" stroke-opacity="1.0" stroke-linecap="round" stroke-linejoin="round"/>
    <path d="M 475.8427429199219 422.221435546875 C 477.0093688964844 430.3931579589844 473.2066955566406 446.3123779296875 478.9245300292969 448.126708984375 C 485.31854248046875 448.3021545410156 500.7818908691406 447.556884765625 520.5809326171875 448.7352294921875 C 519.8450317382812 436.6082458496094 519.9031372070312 426.5367736816406 520.7572021484375 418.7607421875 C 499.3226013183594 421.8735046386719 479.29638671875 417.33306884765625 475.8427429199219 422.221435546875" stroke-width="0.0" fill="rgb(173, 185, 192)" opacity="1.0007975" stroke="rgb(0, 0, 0)" stroke-opacity="1.0" stroke-linecap="round" stroke-linejoin="round"/>
    <path d="M 468.35357666015625 -1.4318445920944214 C 482.9349365234375 15.703251838684082 497.3204345703125 30.063413619995117 513.2150268554688 49.36161804199219 C 521.9918212890625 35.6393928527832 520.3338012695312 18.136024475097656 520.5668334960938 -6.132444381713867 C 496.02911376953125 -6.37373161315918 480.7565612792969 -7.497591018676758 468.35357666015625 -1.4318445920944214" stroke-width="0.0" fill="rgb(74, 78, 50)" opacity="0.9838525" stroke="rgb(0, 0, 0)" stroke-opacity="1.0" stroke-linecap="round" stroke-linejoin="round"/>
    <path d="M 518.5086669921875 292.2662048339844 C 503.9649963378906 296.5049133300781 494.53192138671875 299.4464416503906 484.82171630859375 303.9432678222656 C 484.3530578613281 300.7205505371094 481.03680419921875 310.3836975097656 483.658203125 318.7823486328125 C 489.3338317871094 319.7408142089844 502.3399658203125 318.8656005859375 519.400634765625 319.1357116699219 C 518.4125366210938 309.9374694824219 518.6947631835938 301.1617431640625 518.5086669921875 292.2662048339844" stroke-width="0.0" fill="rgb(8, 7, 7)" opacity="1.0134168" stroke="rgb(0, 0, 0)" stroke-opacity="1.0" stroke-linecap="round" stroke-linejoin="round"/>
    <path d="M 322.54803466796875 -3.3656718730926514 C 282.7610778808594 -8.59302806854248 249.7457275390625 -8.893027305603027 224.9078826904297 -5.412938594818115 C 203.6363983154297 57.66455078125 191.87338256835938 120.9706039428711 176.2308807373047 180.5070343017578 C 175.08570861816406 187.9352569580078 179.23536682128906 198.7236328125 179.50543212890625 195.05628967285156 C 185.10475158691406 192.67405700683594 179.3916778564453 195.69479370117188 179.89431762695312 199.7006378173828 C 196.33413696289062 196.3809356689453 202.47470092773438 200.35475158691406 219.44183349609375 204.75296020507812 C 227.26959228515625 191.39527893066406 237.06593322753906 189.21665954589844 250.11427307128906 186.08053588867188 C 258.7265625 158.4430389404297 265.5755920410156 132.76763916015625 274.7890319824219 108.5302734375 C 290.8808898925781 74.60551452636719 304.11212158203125 36.94244384765625 322.54803466796875 -3.3656718730926514" stroke-width="0.0" fill="rgb(94, 101, 76)" opacity="0.89716077" stroke="rgb(0, 0, 0)" stroke-opacity="1.0" stroke-linecap="round" stroke-linejoin="round"/>
    <path d="M 290.0854797363281 80.45574188232422 C 281.904541015625 92.49017333984375 275.9659423828125 109.83643341064453 270.04241943359375 124.70594787597656 C 264.29656982421875 144.44967651367188 256.23663330078125 162.8810577392578 253.76902770996094 186.0526123046875 C 266.0126647949219 191.93295288085938 269.2864685058594 196.7668914794922 275.7049865722656 210.2644805908203 C 306.45111083984375 205.2025146484375 342.5439453125 204.66493225097656 363.1949768066406 195.98147583007812 C 370.16864013671875 188.00820922851562 366.4583740234375 159.5941162109375 361.7130432128906 149.74281311035156 C 339.4218444824219 124.84115600585938 317.8348693847656 99.5529556274414 290.0854797363281 80.45574188232422" stroke-width="0.0" fill="rgb(70, 87, 36)" opacity="0.9059286" stroke="rgb(0, 0, 0)" stroke-opacity="1.0" stroke-linecap="round" stroke-linejoin="round"/>
    <path d="M 324.5649719238281 -4.2130866050720215 C 314.6604919433594 20.20294189453125 303.3470764160156 40.5089111328125 296.5335388183594 65.53475952148438 C 324.3368225097656 82.44181823730469 341.0201416015625 108.89236450195312 366.58575439453125 129.6947784423828 C 373.5555419921875 101.2469482421875 370.9578552246094 47.80219268798828 374.2100524902344 -8.44694995880127 C 365.1300964355469 -10.464507102966309 348.2407531738281 -10.503403663635254 324.5649719238281 -4.2130866050720215" stroke-width="0.0" fill="rgb(107, 117, 64)" opacity="0.93433845" stroke="rgb(0, 0, 0)" stroke-opacity="1.0" stroke-linecap="round" stroke-linejoin="round"/>
    <path d="M 5.3982462882995605 260.8436584472656 C 2.508197784423828 266.7405700683594 3.1687357425689697 291.1925048828125 5.8210768699646 296.10760498046875 C 44.924560546875 313.8741760253906 85.4832992553711 329.5645751953125 127.26853942871094 346.33428955078125 C 132.01206970214844 336.9949035644531 127.5400161743164 317.8499755859375 126.01459503173828 311.0899658203125 C 83.03026580810547 293.5367431640625 43.822242736816406 277.4460144042969 5.3982462882995605 260.8436584472656" stroke-width="0.0" fill="rgb(22, 23, 19)" opacity="0.9280757" stroke="rgb(0, 0, 0)" stroke-opacity="1.0" stroke-linecap="round" stroke-linejoin="round"/>
    <path d="M 169.5154571533203 215.01251220703125 C 164.99034118652344 224.3186798095703 162.29559326171875 236.93519592285156 164.42642211914062 247.48648071289062 C 186.48956298828125 246.65115356445312 207.96078491210938 245.17567443847656 223.27496337890625 246.0518035888672 C 223.93882751464844 235.34507751464844 215.6673583984375 229.93209838867188 219.43251037597656 216.01394653320312 C 217.3778533935547 208.7251434326172 209.60720825195312 206.4047393798828 208.2454833984375 204.38096618652344 C 200.22328186035156 200.42852783203125 191.8533172607422 199.8324737548828 183.79248046875 202.32345581054688 C 177.5642547607422 203.6461639404297 172.00592041015625 208.72982788085938 169.5154571533203 215.01251220703125" stroke-width="0.0" fill="rgb(16, 16, 15)" opacity="1.0611687" stroke="rgb(0, 0, 0)" stroke-opacity="1.0" stroke-linecap="round" stroke-linejoin="round"/>
    <path d="M 92.64138793945312 341.2513732910156 C 71.33912658691406 331.04168701171875 57.914894104003906 324.1065368652344 31.72249984741211 320.7362365722656 C 30.679094314575195 325.263427734375 26.55915069580078 329.6903991699219 33.65699005126953 343.6330261230469 C 30.958730697631836 338.29254150390625 32.5642204284668 341.82489013671875 36.36293411254883 337.306396484375 C 36.937713623046875 348.4507141113281 39.78091812133789 356.1425476074219 39.238224029541016 367.9646301269531 C 36.279701232910156 371.6769104003906 43.103599548339844 372.3935241699219 33.62546157836914 371.8663635253906 C 34.79732131958008 366.05206298828125 31.350933074951172 362.2915954589844 30.658180236816406 359.0396728515625 C 29.419618606567383 361.5328674316406 27.920215606689453 362.1273193359375 24.311227798461914 364.7585754394531 C 25.98809814453125 362.590087890625 32.983795166015625 360.1977844238281 29.749492645263672 355.5740966796875 C 31.935043334960938 360.45733642578125 36.155029296875 373.4384460449219 36.82305908203125 393.3378601074219 C 23.913862228393555 396.1488952636719 15.181726455688477 388.7783508300781 19.33180046081543 389.1512451171875 C 21.15275764465332 395.0679931640625 30.381885528564453 392.287841796875 37.53083419799805 396.2621154785156 C 42.763423919677734 389.0411376953125 35.322837829589844 384.6219482421875 52.68446731567383 387.29534912109375 C 44.04777145385742 384.8720703125 49.89158248901367 367.6950378417969 48.56746292114258 361.45758056640625 C 59.49853515625 364.15155029296875 52.1580696105957 351.6937255859375 66.09272766113281 349.2059020996094 C 65.7783203125 349.4482116699219 81.94178009033203 348.1251525878906 96.46626281738281 345.637939453125 C 94.15193939208984 342.2808837890625 83.38255310058594 344.57659912109375 92.64138793945312 341.2513732910156" stroke-width="0.0" fill="rgb(79, 80, 80)" opacity="0.8720908" stroke="rgb(0, 0, 0)" stroke-opacity="1.0" stroke-linecap="round" stroke-linejoin="round"/>
    <path d="M 145.25448608398438 -1.532501220703125 C 162.0321502685547 16.388864517211914 179.89356994628906 29.585311889648438 195.85067749023438 44.016510009765625 C 207.9214630126953 34.187721252441406 211.58050537109375 16.13638687133789 224.00338745117188 -5.720549583435059 C 199.85870361328125 -8.832529067993164 175.80999755859375 -8.185401916503906 145.25448608398438 -1.532501220703125" stroke-width="0.0" fill="rgb(51, 53, 46)" opacity="1.0043191" stroke="rgb(0, 0, 0)" stroke-opacity="1.0" stroke-linecap="round" stroke-linejoin="round"/>
    <path d="M 472.8709411621094 272.9390869140625 C 471.5501403808594 267.9106750488281 462.405029296875 268.0376281738281 457.128173828125 270.1781921386719 C 454.89324951171875 274.5015869140625 450.521484375 281.48858642578125 445.6092529296875 288.0306701660156 C 446.74749755859375 305.232177734375 446.473876953125 301.7332763671875 440.1622619628906 319.4919738769531 C 449.95361328125 320.4042053222656 473.01409912109375 320.5334167480469 480.5553894042969 319.4026794433594 C 479.6289978027344 295.74835205078125 480.2890319824219 279.6947326660156 472.8709411621094 272.9390869140625" stroke-width="0.0" fill="rgb(182, 195, 159)" opacity="0.99125284" stroke="rgb(0, 0, 0)" stroke-opacity="1.0" stroke-linecap="round" stroke-linejoin="round"/>
    <path d="M 383.95684814453125 497.0660095214844 C 384.8460693359375 502.6955871582031 380.75091552734375 505.2569580078125 388.0398864746094 506.9237060546875 C 428.8170471191406 507.60992431640625 470.1570129394531 507.0257263183594 520.6780395507812 505.6731872558594 C 517.9332885742188 500.3656311035156 517.913818359375 497.1786804199219 521.7122802734375 497.07330322265625 C 471.0843200683594 495.8641357421875 423.0371398925781 497.5880432128906 383.95684814453125 497.0660095214844" stroke-width="0.0" fill="rgb(215, 220, 224)" opacity="0.99779135" stroke="rgb(0, 0, 0)" stroke-opacity="1.0" stroke-linecap="round" stroke-linejoin="round"/>
    <path d="M 31.53673553466797 320.5662841796875 C 25.543668746948242 319.5467224121094 24.958534240722656 338.87451171875 20.84876823425293 346.51544189453125 C 20.412565231323242 363.14105224609375 13.724993705749512 389.0936279296875 16.959415435791016 394.69329833984375 C 27.432321548461914 374.5766296386719 29.800729751586914 346.9060363769531 31.53673553466797 320.5662841796875" stroke-width="0.0" fill="rgb(172, 175, 175)" opacity="1.0476222" stroke="rgb(0, 0, 0)" stroke-opacity="1.0" stroke-linecap="round" stroke-linejoin="round"/>
    <path d="M 222.21839904785156 245.8989715576172 C 206.1708984375 244.7085723876953 184.42930603027344 247.20709228515625 164.9602508544922 247.22061157226562 C 165.86216735839844 246.8016357421875 159.89097595214844 249.36842346191406 158.82080078125 253.35606384277344 C 157.8816375732422 277.1884765625 158.99717712402344 306.7778015136719 162.909912109375 323.9156188964844 C 168.92572021484375 314.39093017578125 165.25286865234375 289.3428649902344 179.30941772460938 278.63604736328125 C 183.30364990234375 271.1679992675781 202.7824249267578 273.1641540527344 222.2729949951172 263.0198669433594 C 224.0660400390625 257.3758850097656 228.6066436767578 246.640625 222.21839904785156 245.8989715576172" stroke-width="0.0" fill="rgb(27, 27, 29)" opacity="1.0066109" stroke="rgb(0, 0, 0)" stroke-opacity="1.0" stroke-linecap="round" stroke-linejoin="round"/>
    <path d="M 505.1374816894531 246.23521423339844 C 507.780517578125 248.86358642578125 506.9952087402344 246.2124481201172 501.80682373046875 244.73765563964844 C 507.20220947265625 260.5439453125 508.4150695800781 261.0745849609375 498.6844177246094 275.4002990722656 C 487.7034912109375 278.45721435546875 481.6365661621094 274.5179748535156 477.23638916015625 284.8887023925781 C 474.36285400390625 296.1539306640625 477.5307922363281 298.5640563964844 481.4158020019531 307.09637451171875 C 489.1348876953125 302.3619689941406 501.3714599609375 298.14105224609375 523.218505859375 292.5732116699219 C 524.4951782226562 268.1486511230469 515.1442260742188 254.1919403076172 505.1374816894531 246.23521423339844" stroke-width="0.0" fill="rgb(59, 46, 37)" opacity="0.9382749" stroke="rgb(0, 0, 0)" stroke-opacity="1.0" stroke-linecap="round" stroke-linejoin="round"/>
    <path d="M 520.9910888671875 210.37515258789062 C 502.3013610839844 212.0571746826172 496.8076171875 216.03395080566406 496.2685546875 225.3698272705078 C 495.0477600097656 243.06369018554688 507.97344970703125 252.67941284179688 526.3265991210938 259.7147521972656 C 511.8435974121094 265.4167785644531 514.19140625 264.20269775390625 521.6571655273438 271.2634582519531 C 521.4881591796875 254.53440856933594 521.2083740234375 233.2389678955078 520.9910888671875 210.37515258789062" stroke-width="0.0" fill="rgb(38, 28, 26)" opacity="0.9660275" stroke="rgb(0, 0, 0)" stroke-opacity="1.0" stroke-linecap="round" stroke-linejoin="round"/>
    <path d="M 232.1374053955078 380.7734680175781 C 221.61117553710938 379.1200866699219 229.04299926757812 371.7852783203125 223.58453369140625 370.0894470214844 C 212.19400024414062 375.4543151855469 198.69203186035156 376.2666931152344 181.6334991455078 373.3038024902344 C 178.11997985839844 376.0568542480469 180.0189971923828 386.15185546875 182.22386169433594 391.6401062011719 C 194.80015563964844 383.2852783203125 216.27403259277344 387.39569091796875 232.1374053955078 380.7734680175781" stroke-width="0.0" fill="rgb(117, 20, 24)" opacity="0.9555241" stroke="rgb(0, 0, 0)" stroke-opacity="1.0" stroke-linecap="round" stroke-linejoin="round"/>
    <path d="M 31.61892318725586 344.3639831542969 C 25.20282745361328 353.275634765625 28.141857147216797 377.8900146484375 16.248641967773438 393.277587890625 C 25.273902893066406 396.4541931152344 29.8104305267334 399.2677917480469 38.76869583129883 400.35406494140625 C 32.78506851196289 377.14349365234375 37.66686248779297 352.1069030761719 31.61892318725586 344.3639831542969" stroke-width="0.0" fill="rgb(32, 31, 31)" opacity="0.8953373" stroke="rgb(0, 0, 0)" stroke-opacity="1.0" stroke-linecap="round" stroke-linejoin="round"/>
    <path d="M 318.0010070800781 339.8437805175781 C 312.6060485839844 338.1226806640625 305.8431396484375 334.73382568359375 293.380126953125 338.1262512207031 C 272.2840270996094 350.3704833984375 247.2577362060547 358.3681945800781 225.57366943359375 369.14166259765625 C 232.4980926513672 375.2718200683594 235.62405395507812 372.2272644042969 232.06187438964844 383.04876708984375 C 254.5175018310547 381.4660339355469 275.5884094238281 381.95819091796875 294.90411376953125 377.7401428222656 C 302.7347106933594 374.19317626953125 312.3905334472656 369.9424133300781 318.278076171875 366.4568176269531 C 321.1832275390625 357.6304016113281 323.16998291015625 348.19818115234375 318.0010070800781 339.8437805175781" stroke-width="0.0" fill="rgb(187, 137, 109)" opacity="0.73181206" stroke="rgb(0, 0, 0)" stroke-opacity="1.0" stroke-linecap="round" stroke-linejoin="round"/>
    <path d="M 352.7599792480469 339.1212158203125 C 343.2141418457031 386.2431640625 348.0649719238281 451.2902526855469 347.1243591308594 485.3043212890625 C 344.947509765625 491.704833984375 349.0209045410156 498.6779479980469 357.89044189453125 497.6886291503906 C 355.3029479980469 448.0843505859375 358.65277099609375 391.6890869140625 352.7599792480469 339.1212158203125" stroke-width="0.0" fill="rgb(188, 194, 195)" opacity="0.8726636" stroke="rgb(0, 0, 0)" stroke-opacity="1.0" stroke-linecap="round" stroke-linejoin="round"/>
    <path d="M 144.59674072265625 359.1393127441406 C 138.2228546142578 362.03106689453125 141.2108917236328 367.9569396972656 142.24012756347656 386.5874328613281 C 145.9270782470703 385.1014709472656 156.59921264648438 387.7004089355469 164.011474609375 385.2639465332031 C 164.105224609375 377.6821594238281 164.7158203125 364.90020751953125 162.78883361816406 353.78436279296875 C 157.5767822265625 355.00567626953125 145.51614379882812 351.5549621582031 144.59674072265625 359.1393127441406" stroke-width="0.0" fill="rgb(47, 46, 49)" opacity="0.9628705" stroke="rgb(0, 0, 0)" stroke-opacity="1.0" stroke-linecap="round" stroke-linejoin="round"/>
    <path d="M 462.5573425292969 157.71852111816406 C 453.64666748046875 158.13832092285156 460.575439453125 171.65028381347656 466.6087341308594 180.8023223876953 C 475.65301513671875 191.65899658203125 483.4710388183594 206.52105712890625 494.9266357421875 218.7493133544922 C 498.1513366699219 215.710693359375 501.1236572265625 212.68263244628906 502.52459716796875 211.00473022460938 C 485.97064208984375 193.78414916992188 473.41461181640625 175.63841247558594 462.5573425292969 157.71852111816406" stroke-width="0.0" fill="rgb(44, 46, 16)" opacity="1.0005202" stroke="rgb(0, 0, 0)" stroke-opacity="1.0" stroke-linecap="round" stroke-linejoin="round"/>
    <path d="M 524.402587890625 349.89300537109375 C 470.8428955078125 352.2352600097656 412.1611022949219 351.2695007324219 384.2442626953125 354.9356689453125 C 406.703369140625 362.9815673828125 466.4308166503906 357.89215087890625 519.11767578125 358.326416015625 C 518.3628540039062 359.72271728515625 518.8233032226562 351.0859375 524.402587890625 349.89300537109375" stroke-width="0.0" fill="rgb(108, 112, 120)" opacity="0.98264223" stroke="rgb(0, 0, 0)" stroke-opacity="1.0" stroke-linecap="round" stroke-linejoin="round"/>
    <path d="M 363.0461730957031 198.69760131835938 C 342.1119079589844 205.2424774169922 305.5932312011719 206.25035095214844 277.42901611328125 212.0098876953125 C 277.4165344238281 245.68292236328125 264.96368408203125 245.1880340576172 269.1273193359375 262.182861328125 C 272.786865234375 270.4859313964844 293.30633544921875 271.5420837402344 300.6709289550781 275.9259033203125 C 309.04620361328125 280.02783203125 312.0963134765625 284.94171142578125 316.5416564941406 293.4557189941406 C 320.4447937011719 306.590087890625 324.3547058105469 330.8338317871094 324.08355712890625 362.4285888671875 C 324.1553039550781 354.12158203125 322.0987854003906 364.8616638183594 339.1722717285156 362.8997802734375 C 345.7781982421875 355.03515625 364.0990905761719 357.4108581542969 368.43963623046875 344.14532470703125 C 375.2531433105469 344.203857421875 362.2743225097656 354.26275634765625 342.27838134765625 348.9078369140625 C 341.8088073730469 325.4060974121094 344.9207458496094 318.1246032714844 345.2345886230469 329.1300964355469 C 344.88555908203125 326.22039794921875 341.8665771484375 313.2930603027344 344.3366394042969 298.99053955078125 C 343.5962219238281 283.7782287597656 346.58917236328125 266.7534484863281 346.0596923828125 256.2271728515625 C 358.1772766113281 249.96742248535156 366.93218994140625 262.0945739746094 372.14373779296875 260.4281005859375 C 387.93194580078125 256.4654541015625 390.8944091796875 250.79965209960938 394.7873229980469 243.4044189453125 C 396.7749938964844 226.7921905517578 394.04156494140625 224.1273956298828 390.5243835449219 213.66929626464844 C 386.3435974121094 207.0438690185547 383.3248291015625 201.01698303222656 363.0461730957031 198.69760131835938" stroke-width="0.0" fill="rgb(70, 82, 46)" opacity="1.0268161" stroke="rgb(0, 0, 0)" stroke-opacity="1.0" stroke-linecap="round" stroke-linejoin="round"/>
    <path d="M 319.24298095703125 2.551924705505371 C 311.1461181640625 -6.921638011932373 307.07489013671875 -0.571962296962738 300.2019348144531 4.215068340301514 C 279.16888427734375 37.7532958984375 263.5973205566406 83.70628356933594 246.42965698242188 124.08584594726562 C 239.80859375 146.79673767089844 230.1293182373047 170.587158203125 227.47512817382812 197.2582550048828 C 236.13870239257812 190.15518188476562 243.1118621826172 189.30172729492188 250.45245361328125 188.5985107421875 C 267.832275390625 119.34283447265625 294.7894592285156 63.18366622924805 319.24298095703125 2.551924705505371" stroke-width="0.0" fill="rgb(104, 107, 97)" opacity="0.9678521" stroke="rgb(0, 0, 0)" stroke-opacity="1.0" stroke-linecap="round" stroke-linejoin="round"/>
    <path d="M 346.07965087890625 255.78480529785156 C 344.0381164550781 282.4192810058594 343.9092712402344 315.7753601074219 341.5986022949219 349.7516784667969 C 350.595703125 350.7192077636719 365.6881408691406 351.8767395019531 373.6779479980469 346.7025451660156 C 373.6094665527344 314.26434326171875 372.8137512207031 286.3229064941406 372.1984558105469 263.2997131347656 C 367.23284912109375 255.65773010253906 354.8448181152344 251.1322479248047 346.07965087890625 255.78480529785156" stroke-width="0.0" fill="rgb(41, 41, 29)" opacity="1.0013337" stroke="rgb(0, 0, 0)" stroke-opacity="1.0" stroke-linecap="round" stroke-linejoin="round"/>
    <path d="M 250.1466064453125 471.0856018066406 C 251.23532104492188 483.3546447753906 250.6605682373047 501.0014953613281 250.9251708984375 520.1692504882812 C 271.3087158203125 518.7081909179688 291.6207580566406 518.7591552734375 311.8859558105469 518.7215576171875 C 317.1858825683594 493.189208984375 307.00665283203125 483.1300964355469 312.2385559082031 470.645751953125 C 292.9324951171875 468.95050048828125 264.0736083984375 468.54473876953125 250.1466064453125 471.0856018066406" stroke-width="0.0" fill="rgb(30, 31, 36)" opacity="1.000447" stroke="rgb(0, 0, 0)" stroke-opacity="1.0" stroke-linecap="round" stroke-linejoin="round"/>
    <path d="M 152.88693237304688 -7.417097091674805 C 173.01844787597656 12.946972846984863 188.02183532714844 23.98431396484375 203.8685302734375 35.423545837402344 C 209.53868103027344 24.670225143432617 214.56944274902344 12.959410667419434 225.92422485351562 -6.449864864349365 C 205.20591735839844 -8.992508888244629 184.45745849609375 -8.267892837524414 152.88693237304688 -7.417097091674805" stroke-width="0.0" fill="rgb(33, 34, 29)" opacity="0.9968618" stroke="rgb(0, 0, 0)" stroke-opacity="1.0" stroke-linecap="round" stroke-linejoin="round"/>
    <path d="M 520.0315551757812 277.6877746582031 C 499.1799011230469 277.5522155761719 485.8150939941406 277.0018005371094 479.5962219238281 280.6213684082031 C 474.7014465332031 286.5343017578125 475.71551513671875 299.7587585449219 481.666259765625 307.3594970703125 C 490.889404296875 302.755859375 501.72442626953125 298.389892578125 516.606689453125 294.3753967285156 C 518.1029663085938 286.7384948730469 518.8867797851562 280.3627014160156 520.0315551757812 277.6877746582031" stroke-width="0.0" fill="rgb(112, 85, 74)" opacity="0.94448084" stroke="rgb(0, 0, 0)" stroke-opacity="1.0" stroke-linecap="round" stroke-linejoin="round"/>
    <path d="M 142.99766540527344 -0.7070438861846924 C 160.85147094726562 14.835428237915039 177.77540588378906 29.632362365722656 195.35809326171875 44.78160095214844 C 201.51878356933594 48.282169342041016 206.1372528076172 51.371986389160156 207.8078155517578 39.32814407348633 C 193.82577514648438 27.45404815673828 176.1157989501953 15.59358024597168 161.2582244873047 -0.1392180174589157 C 162.48728942871094 -7.5084757804870605 151.47935485839844 -7.411139488220215 142.99766540527344 -0.7070438861846924" stroke-width="0.0" fill="rgb(74, 75, 68)" opacity="0.98440915" stroke="rgb(0, 0, 0)" stroke-opacity="1.0" stroke-linecap="round" stroke-linejoin="round"/>
    <path d="M 181.33206176757812 470.0102844238281 C 180.17140197753906 484.11920166015625 179.0497283935547 498.5963439941406 180.1123809814453 519.4788208007812 C 202.7441864013672 518.9862670898438 225.82579040527344 519.0591430664062 250.03421020507812 519.6256713867188 C 249.95619201660156 495.348388671875 250.57154846191406 481.9595947265625 248.90798950195312 468.704833984375 C 226.6250457763672 469.9208984375 196.163330078125 467.4907531738281 181.33206176757812 470.0102844238281" stroke-width="0.0" fill="rgb(32, 34, 39)" opacity="1.001421" stroke="rgb(0, 0, 0)" stroke-opacity="1.0" stroke-linecap="round" stroke-linejoin="round"/>
    <path d="M 483.6651916503906 1.1922056674957275 C 489.024658203125 17.483013153076172 501.80792236328125 27.508459091186523 513.8185424804688 46.357547760009766 C 521.3615112304688 31.57649803161621 519.4044189453125 16.254600524902344 518.8211669921875 1.2137409448623657 C 502.9607238769531 -0.1261138617992401 493.69793701171875 2.573298692703247 483.6651916503906 1.1922056674957275" stroke-width="0.0" fill="rgb(83, 95, 50)" opacity="1.0002872" stroke="rgb(0, 0, 0)" stroke-opacity="1.0" stroke-linecap="round" stroke-linejoin="round"/>
    <path d="M 76.7635269165039 444.5889892578125 C 86.80430603027344 446.2908020019531 124.29191589355469 443.9137268066406 131.27110290527344 449.563720703125 C 129.79405212402344 436.08087158203125 135.31716918945312 440.20843505859375 126.46125793457031 444.48419189453125 C 128.35986328125 438.2279052734375 117.10906982421875 433.340087890625 107.29789733886719 430.7968444824219 C 98.56494140625 432.63140869140625 98.30801391601562 426.8975830078125 83.83037567138672 432.193603515625 C 75.94182586669922 435.96380615234375 83.34220123291016 439.1241149902344 76.7635269165039 444.5889892578125" stroke-width="0.0" fill="rgb(214, 114, 25)" opacity="0.9901764" stroke="rgb(0, 0, 0)" stroke-opacity="1.0" stroke-linecap="round" stroke-linejoin="round"/>
    <path d="M 375.989990234375 -7.544435024261475 C 374.5867614746094 43.5542106628418 368.44073486328125 85.25225830078125 368.6535949707031 124.28580474853516 C 373.0097351074219 140.95298767089844 388.5413818359375 131.29867553710938 398.8639221191406 147.88809204101562 C 407.77984619140625 145.3526153564453 406.6810302734375 148.90185546875 408.376220703125 145.70042419433594 C 409.6078186035156 91.71770477294922 414.1216735839844 48.11724853515625 416.5483703613281 -1.711676836013794 C 405.5810241699219 -7.411231517791748 392.4718322753906 -7.619774341583252 375.989990234375 -7.544435024261475" stroke-width="0.0" fill="rgb(51, 44, 25)" opacity="0.9287283" stroke="rgb(0, 0, 0)" stroke-opacity="1.0" stroke-linecap="round" stroke-linejoin="round"/>
    <path d="M 408.6866455078125 196.23741149902344 C 399.77496337890625 193.50845336914062 404.9465637207031 204.9214630126953 393.5289001464844 205.14910888671875 C 395.583251953125 218.4941864013672 402.2455749511719 226.762939453125 399.1753234863281 241.38796997070312 C 391.6749267578125 251.90504455566406 387.1443786621094 259.9783020019531 369.6376953125 261.557373046875 C 374.0409240722656 294.9937438964844 373.7408447265625 319.73992919921875 373.29852294921875 340.7779235839844 C 384.0565185546875 340.4319152832031 393.7562561035156 345.7353210449219 401.5069885253906 337.6384582519531 C 401.57489013671875 334.43377685546875 405.1405334472656 338.08758544921875 408.96923828125 334.03912353515625 C 409.8763732910156 331.523193359375 407.3058166503906 322.1247253417969 410.812744140625 319.82525634765625 C 411.851318359375 319.8599853515625 416.48724365234375 321.3134460449219 420.666748046875 316.92462158203125 C 417.6361389160156 273.9762268066406 409.6665344238281 236.03404235839844 408.6866455078125 196.23741149902344" stroke-width="0.0" fill="rgb(47, 37, 18)" opacity="0.9520248" stroke="rgb(0, 0, 0)" stroke-opacity="1.0" stroke-linecap="round" stroke-linejoin="round"/>
    <path d="M 308.8048095703125 388.87591552734375 C 306.69775390625 403.9791564941406 316.79119873046875 419.1988525390625 320.3834228515625 434.2497863769531 C 331.0254821777344 434.23687744140625 324.3183288574219 413.16949462890625 325.4704284667969 392.3940124511719 C 326.019287109375 387.7303466796875 311.8429870605469 389.05877685546875 308.8048095703125 388.87591552734375" stroke-width="0.0" fill="rgb(184, 196, 193)" opacity="1.0136384" stroke="rgb(0, 0, 0)" stroke-opacity="1.0" stroke-linecap="round" stroke-linejoin="round"/>
    <path d="M 329.9443054199219 206.5162811279297 C 328.1522521972656 209.83236694335938 324.07928466796875 212.99891662597656 324.7979736328125 218.65289306640625 C 330.7759704589844 228.9855194091797 331.23931884765625 243.9549560546875 340.4152526855469 251.06832885742188 C 349.6248474121094 253.25833129882812 361.9864807128906 256.6547546386719 372.5765075683594 259.11968994140625 C 383.773193359375 257.811279296875 389.322021484375 252.19619750976562 393.17657470703125 246.345458984375 C 397.14141845703125 240.74990844726562 396.6002197265625 238.49774169921875 394.5833435058594 224.0517578125 C 392.79022216796875 216.40895080566406 388.4331359863281 208.34078979492188 384.4649353027344 204.34568786621094 C 377.8154296875 200.9890899658203 371.74383544921875 198.4089813232422 362.6988220214844 198.8317413330078 C 351.8312683105469 202.39791870117188 341.11138916015625 203.22755432128906 329.9443054199219 206.5162811279297" stroke-width="0.0" fill="rgb(21, 21, 20)" opacity="1.0059022" stroke="rgb(0, 0, 0)" stroke-opacity="1.0" stroke-linecap="round" stroke-linejoin="round"/>
    <path d="M 320.5838317871094 207.37428283691406 C 303.8315124511719 208.68321228027344 285.78265380859375 209.6510772705078 280.1751403808594 213.8941650390625 C 272.5033874511719 218.58966064453125 280.4559020996094 233.01693725585938 268.4595947265625 246.64193725585938 C 292.7471923828125 246.58221435546875 309.7225036621094 248.99456787109375 321.2699279785156 243.28271484375 C 328.0445861816406 227.721923828125 317.0380859375 234.2406768798828 320.5838317871094 207.37428283691406" stroke-width="0.0" fill="rgb(14, 15, 13)" opacity="1.0070635" stroke="rgb(0, 0, 0)" stroke-opacity="1.0" stroke-linecap="round" stroke-linejoin="round"/>
    <path d="M 269.9617919921875 245.60806274414062 C 266.0763244628906 247.21449279785156 267.25054931640625 255.70652770996094 267.0027770996094 264.9268493652344 C 283.7628479003906 275.3155517578125 301.2743225097656 270.25616455078125 311.0113830566406 285.17034912109375 C 320.5309753417969 297.8282470703125 319.75189208984375 318.29351806640625 323.4708251953125 338.48382568359375 C 325.3393859863281 348.5636901855469 319.1142578125 357.0957946777344 320.718505859375 366.4365234375 C 316.9783630371094 367.02825927734375 329.98565673828125 367.4100646972656 335.37078857421875 367.2920227050781 C 338.84271240234375 364.57708740234375 342.62890625 362.05029296875 341.8129577636719 360.33026123046875 C 341.5350036621094 323.2394104003906 345.2294006347656 289.8056335449219 345.9076843261719 252.5870361328125 C 339.0646057128906 248.7054901123047 326.664306640625 243.5427703857422 322.5752868652344 242.38710021972656 C 309.0420227050781 248.67059326171875 291.12725830078125 247.28958129882812 269.9617919921875 245.60806274414062" stroke-width="0.0" fill="rgb(30, 28, 24)" opacity="0.9797292" stroke="rgb(0, 0, 0)" stroke-opacity="1.0" stroke-linecap="round" stroke-linejoin="round"/>
    <path d="M 346.693115234375 255.3825225830078 C 345.659912109375 272.499755859375 346.0234375 297.7052307128906 344.6245422363281 321.6720275878906 C 352.4416198730469 317.6593933105469 363.6193542480469 318.4385986328125 372.6291198730469 317.40191650390625 C 371.60150146484375 303.4519958496094 371.0203552246094 281.8340148925781 370.53009033203125 261.81951904296875 C 363.61279296875 257.9576110839844 357.4367370605469 253.62451171875 346.693115234375 255.3825225830078" stroke-width="0.0" fill="rgb(33, 43, 12)" opacity="0.99899524" stroke="rgb(0, 0, 0)" stroke-opacity="1.0" stroke-linecap="round" stroke-linejoin="round"/>
    <path d="M 372.0850524902344 317.43853759765625 C 361.25543212890625 319.6841125488281 356.60302734375 316.438720703125 343.3528747558594 322.1640625 C 345.79852294921875 329.3365478515625 339.8638610839844 338.54022216796875 345.1761779785156 344.9635314941406 C 353.3017883300781 345.8645935058594 363.427001953125 345.7445068359375 372.1236877441406 342.9290466308594 C 372.457275390625 335.2604064941406 371.7763671875 323.578125 372.0850524902344 317.43853759765625" stroke-width="0.0" fill="rgb(44, 55, 13)" opacity="1.000059" stroke="rgb(0, 0, 0)" stroke-opacity="1.0" stroke-linecap="round" stroke-linejoin="round"/>
    <path d="M 304.7559509277344 277.51171875 C 325.26898193359375 297.1940612792969 317.0749206542969 316.8720397949219 325.974853515625 351.87420654296875 C 327.702880859375 360.2585144042969 323.1065979003906 359.0333251953125 319.7982482910156 366.3071594238281 C 321.89166259765625 370.068359375 326.75286865234375 368.8918151855469 334.4614562988281 369.0980529785156 C 340.76312255859375 367.46099853515625 339.85845947265625 367.962158203125 342.54229736328125 361.23956298828125 C 341.9126281738281 333.8294677734375 344.4789733886719 312.9825439453125 345.4433898925781 285.3689270019531 C 332.42047119140625 282.5787658691406 328.6093444824219 277.9634094238281 304.7559509277344 277.51171875" stroke-width="0.0" fill="rgb(34, 35, 33)" opacity="0.9649483" stroke="rgb(0, 0, 0)" stroke-opacity="1.0" stroke-linecap="round" stroke-linejoin="round"/>
    <path d="M 267.4090576171875 246.4054718017578 C 267.3204650878906 253.12466430664062 263.2405090332031 260.9418640136719 267.2360534667969 265.3465576171875 C 281.3347473144531 271.54656982421875 300.6621398925781 276.60894775390625 320.9705505371094 280.07073974609375 C 320.80767822265625 263.96856689453125 322.6701354980469 244.4229736328125 318.3167419433594 243.54803466796875 C 302.05621337890625 246.86441040039062 277.8851318359375 242.66769409179688 267.4090576171875 246.4054718017578" stroke-width="0.0" fill="rgb(39, 39, 40)" opacity="1.0124478" stroke="rgb(0, 0, 0)" stroke-opacity="1.0" stroke-linecap="round" stroke-linejoin="round"/>
  </g>
</svg>
