<?xml version="1.0" ?>
<svg xmlns="http://www.w3.org/2000/svg" version="1.1" width="512" height="512">
  <defs/>
  <g>
    <path d="M -3.5294737815856934 -3.602104902267456 C -3.1724352836608887 170.3333282470703 -2.9668025970458984 340.6666564941406 -2.807662010192871 518.3299560546875 C 168.903076171875 519.0896606445312 338.2695617675781 520.302001953125 518.7164306640625 520.4227905273438 C 518.9224243164062 338.8166198730469 519.7254638671875 168.3517608642578 521.0371704101562 -2.7677252292633057 C 340.6666564941406 -1.5686750411987305 170.3333282470703 -2.841478109359741 -3.5294737815856934 -3.602104902267456" stroke-width="0.0" fill="rgb(59, 59, 59)" opacity="1.0556383" stroke="rgb(0, 0, 0)" stroke-opacity="1.0" stroke-linecap="round" stroke-linejoin="round"/>
    <path d="M -1.8864853382110596 440.08154296875 C -7.000699520111084 458.60662841796875 -6.375110149383545 484.8856201171875 -4.599147796630859 519.39306640625 C 170.31277465820312 519.6244506835938 340.6540222167969 519.8176879882812 518.7893676757812 519.919677734375 C 518.5660400390625 474.6770935058594 518.3805541992188 440.0385437011719 518.2406616210938 404.8951110839844 C 494.50860595703125 409.3096618652344 493.8964538574219 389.7322692871094 479.78411865234375 384.7872009277344 C 464.1679992675781 375.1520690917969 451.4769592285156 360.93878173828125 440.21160888671875 344.6192321777344 C 400.6907653808594 329.30706787109375 381.958740234375 292.2926025390625 339.2899169921875 279.82061767578125 C 342.5567932128906 309.7854919433594 350.44970703125 341.49273681640625 352.3724060058594 375.1227111816406 C 351.7143249511719 384.98138427734375 335.90155029296875 383.02911376953125 332.3849182128906 386.6437072753906 C 331.45050048828125 407.4814758300781 333.1942138671875 444.5006408691406 334.21453857421875 462.7322998046875 C 316.4125061035156 463.74365234375 303.5670166015625 464.2550048828125 294.605224609375 462.7774963378906 C 302.9161071777344 453.1521911621094 301.5926208496094 441.26898193359375 299.2633056640625 416.1260986328125 C 297.172119140625 405.0726013183594 296.23419189453125 392.36346435546875 294.355224609375 390.5065002441406 C 286.89678955078125 385.2358703613281 282.774169921875 388.0423583984375 279.9364013671875 393.18743896484375 C 277.6928405761719 400.3254089355469 275.8775939941406 411.0940246582031 277.2174377441406 429.0067138671875 C 275.6529846191406 439.0558776855469 280.35943603515625 443.79547119140625 290.6904296875 459.5794982910156 C 278.5370788574219 460.14410400390625 274.7824401855469 463.6508483886719 269.08282470703125 460.5275573730469 C 254.12142944335938 462.2105407714844 253.8990936279297 457.9477233886719 255.63992309570312 431.446533203125 C 252.36827087402344 397.9289855957031 248.4521026611328 368.9698486328125 250.3311767578125 310.30633544921875 C 250.53567504882812 288.8541564941406 243.4666290283203 286.5683898925781 241.92633056640625 276.7344970703125 C 210.02630615234375 293.4676818847656 184.1589813232422 315.2359924316406 154.84649658203125 333.28643798828125 C 143.10922241210938 334.9087829589844 131.9939422607422 337.673583984375 126.49811553955078 344.9412841796875 C 112.55896759033203 361.46722412109375 92.1994857788086 372.10400390625 68.68392181396484 385.42529296875 C 55.89440155029297 393.5586853027344 50.19966125488281 411.5392761230469 29.715572357177734 405.25054931640625 C 32.73845672607422 405.3662414550781 34.36890411376953 410.4716796875 26.807315826416016 409.392822265625 C 23.59796142578125 410.1305847167969 16.99687385559082 414.24139404296875 7.353938102722168 419.1759033203125 C -1.5709824562072754 413.4995422363281 7.1693830490112305 424.6803894042969 -1.8864853382110596 440.08154296875" stroke-width="0.0" fill="rgb(127, 127, 127)" opacity="1.0178164" stroke="rgb(0, 0, 0)" stroke-opacity="1.0" stroke-linecap="round" stroke-linejoin="round"/>
    <path d="M 430.6694641113281 -4.244222640991211 C 419.0261535644531 20.717620849609375 409.7995910644531 48.177818298339844 398.2186279296875 73.67632293701172 C 393.2407531738281 88.5190200805664 396.2388000488281 102.42698669433594 395.7772216796875 123.62873840332031 C 391.3455505371094 135.1366729736328 381.9689025878906 144.98304748535156 380.49029541015625 163.528076171875 C 379.129638671875 198.78512573242188 382.7051696777344 239.38372802734375 381.2503356933594 283.8006591796875 C 412.3062438964844 318.563720703125 449.86029052734375 336.144775390625 482.3277282714844 376.36309814453125 C 494.6671142578125 376.6975402832031 494.70538330078125 389.5997314453125 519.6731567382812 389.22576904296875 C 519.4960327148438 256.6540222167969 520.684326171875 127.66004180908203 520.0635375976562 -1.0180970430374146 C 485.3333435058594 -0.1396683156490326 459.6666564941406 -0.5067616105079651 430.6694641113281 -4.244222640991211" stroke-width="0.0" fill="rgb(65, 65, 65)" opacity="1.0181926" stroke="rgb(0, 0, 0)" stroke-opacity="1.0" stroke-linecap="round" stroke-linejoin="round"/>
    <path d="M 265.028076171875 172.4964141845703 C 259.67034912109375 203.79190063476562 250.60377502441406 230.11740112304688 245.69125366210938 269.1925354003906 C 256.6354675292969 304.4696044921875 247.92672729492188 379.3692626953125 259.12762451171875 457.6403503417969 C 261.9373779296875 457.7398986816406 275.008056640625 464.2503967285156 282.71942138671875 456.71435546875 C 276.9172668457031 438.43255615234375 274.6101379394531 433.31597900390625 276.7740478515625 404.2579650878906 C 276.7828369140625 402.9918212890625 278.0744323730469 395.03509521484375 280.6822509765625 388.42840576171875 C 282.3023376464844 387.9329833984375 288.9771728515625 384.6934509277344 291.9661560058594 387.0874938964844 C 295.0797424316406 386.68359375 296.6337585449219 391.2716979980469 297.1878662109375 395.9485168457031 C 300.1086730957031 417.4087219238281 302.98828125 439.51654052734375 302.7444763183594 453.5626525878906 C 310.81622314453125 455.9941711425781 320.6701354980469 456.2694091796875 331.2214050292969 456.662353515625 C 332.9667053222656 448.2240905761719 332.5107421875 418.97259521484375 329.5596618652344 385.7090759277344 C 333.1253662109375 380.79193115234375 349.4791259765625 383.47564697265625 351.3258056640625 374.74481201171875 C 346.3832702636719 332.9180908203125 339.6165771484375 295.84368896484375 332.179931640625 258.3232727050781 C 328.4353942871094 232.87571716308594 313.1682434082031 222.19403076171875 309.9365234375 201.13302612304688 C 291.8704528808594 190.24322509765625 284.9388427734375 174.071533203125 265.028076171875 172.4964141845703" stroke-width="0.0" fill="rgb(21, 21, 21)" opacity="0.981966" stroke="rgb(0, 0, 0)" stroke-opacity="1.0" stroke-linecap="round" stroke-linejoin="round"/>
    <path d="M 256.44525146484375 -7.602750778198242 C 265.9776611328125 51.37942123413086 273.2227783203125 102.7894058227539 283.73583984375 152.28916931152344 C 274.8787841796875 156.98895263671875 264.4430236816406 160.12655639648438 269.43023681640625 172.8636474609375 C 288.2218322753906 175.3881378173828 290.1186218261719 188.9669647216797 302.72552490234375 193.9361114501953 C 313.6182861328125 197.1638946533203 311.1172790527344 218.62109375 322.4163513183594 223.70120239257812 C 327.047119140625 208.66586303710938 329.0571594238281 192.24468994140625 325.3243103027344 171.76742553710938 C 323.6108703613281 166.7701873779297 317.6986999511719 157.21009826660156 314.1998596191406 156.38525390625 C 309.333984375 152.0177459716797 294.6499938964844 152.75198364257812 294.8208312988281 150.67230224609375 C 290.6683044433594 98.13910675048828 285.2895202636719 51.1806640625 279.26519775390625 -3.1050503253936768 C 279.1911315917969 -8.734630584716797 270.619873046875 -9.901201248168945 256.44525146484375 -7.602750778198242" stroke-width="0.0" fill="rgb(114, 114, 114)" opacity="0.8751993" stroke="rgb(0, 0, 0)" stroke-opacity="1.0" stroke-linecap="round" stroke-linejoin="round"/>
    <path d="M 366.96295166015625 132.49342346191406 C 360.9005432128906 124.83282470703125 351.9681701660156 129.62374877929688 350.8277587890625 134.85948181152344 C 346.64385986328125 138.0619659423828 342.6009216308594 143.47811889648438 343.5895690917969 152.38026428222656 C 357.39501953125 160.4034881591797 353.0091552734375 150.97328186035156 361.78472900390625 146.99534606933594 C 364.1304626464844 143.88059997558594 367.7412109375 133.4735870361328 366.96295166015625 132.49342346191406" stroke-width="0.0" fill="rgb(169, 169, 169)" opacity="0.9106342" stroke="rgb(0, 0, 0)" stroke-opacity="1.0" stroke-linecap="round" stroke-linejoin="round"/>
    <path d="M 410.6225280761719 -8.152300834655762 C 369.3575439453125 -7.242212772369385 325.06011962890625 -6.546464920043945 283.6352233886719 -6.6335015296936035 C 283.54022216796875 45.51148986816406 287.8481750488281 87.28238677978516 294.3275146484375 128.61270141601562 C 309.92254638671875 127.85598754882812 333.55999755859375 127.73272705078125 339.4902038574219 124.81932067871094 C 365.94146728515625 80.44230651855469 393.4336242675781 44.4076042175293 410.6225280761719 -8.152300834655762" stroke-width="0.0" fill="rgb(20, 20, 20)" opacity="1.0685438" stroke="rgb(0, 0, 0)" stroke-opacity="1.0" stroke-linecap="round" stroke-linejoin="round"/>
    <path d="M 163.15127563476562 -3.1269893646240234 C 189.2318572998047 39.36495590209961 211.0059051513672 78.38065338134766 234.129150390625 109.29474639892578 C 234.73704528808594 120.6917495727539 244.07115173339844 125.81848907470703 249.69810485839844 126.62225341796875 C 258.8373718261719 128.99166870117188 269.3974609375 128.0871124267578 275.8791198730469 126.70291900634766 C 274.9261169433594 78.65815734863281 262.8538818359375 42.55147933959961 257.2421875 -6.187135219573975 C 228.01119995117188 -7.918537616729736 195.448974609375 -8.13666820526123 163.15127563476562 -3.1269893646240234" stroke-width="0.0" fill="rgb(39, 39, 39)" opacity="0.989628" stroke="rgb(0, 0, 0)" stroke-opacity="1.0" stroke-linecap="round" stroke-linejoin="round"/>
    <path d="M 500.5902099609375 381.0707702636719 C 497.8832702636719 387.29833984375 491.536865234375 393.1330261230469 492.3681335449219 402.7233581542969 C 495.3569030761719 405.584716796875 502.8938903808594 405.0794982910156 512.3936157226562 405.2298889160156 C 508.65966796875 393.14544677734375 512.1314697265625 386.59405517578125 518.5733032226562 383.7529602050781 C 507.5872497558594 379.52178955078125 502.27752685546875 379.09429931640625 500.5902099609375 381.0707702636719" stroke-width="0.0" fill="rgb(49, 49, 49)" opacity="0.9975025" stroke="rgb(0, 0, 0)" stroke-opacity="1.0" stroke-linecap="round" stroke-linejoin="round"/>
    <path d="M 480.139404296875 371.1587829589844 C 478.36175537109375 378.9159851074219 472.1383361816406 387.13433837890625 482.4999694824219 385.49664306640625 C 479.1053161621094 383.8789978027344 481.76763916015625 387.91412353515625 490.5055236816406 391.54754638671875 C 496.5014953613281 388.4974670410156 490.17120361328125 386.4330749511719 489.51226806640625 376.9966125488281 C 485.9837646484375 377.9704284667969 483.8558044433594 376.20452880859375 480.139404296875 371.1587829589844" stroke-width="0.0" fill="rgb(46, 46, 46)" opacity="1.0010042" stroke="rgb(0, 0, 0)" stroke-opacity="1.0" stroke-linecap="round" stroke-linejoin="round"/>
    <path d="M 57.54378890991211 19.5323486328125 C 54.110713958740234 12.892925262451172 48.61387252807617 16.7044620513916 39.55767059326172 15.4896821975708 C 40.21894836425781 21.81133460998535 37.11893081665039 36.1033935546875 44.874534606933594 36.64905548095703 C 49.028114318847656 32.50493240356445 54.287384033203125 27.296091079711914 57.54378890991211 19.5323486328125" stroke-width="0.0" fill="rgb(106, 106, 106)" opacity="1.0041473" stroke="rgb(0, 0, 0)" stroke-opacity="1.0" stroke-linecap="round" stroke-linejoin="round"/>
    <path d="M 335.6064758300781 140.83807373046875 C 332.91796875 165.59288024902344 337.5194091796875 216.27261352539062 332.923583984375 239.6545867919922 C 332.0753173828125 242.0989227294922 334.40997314453125 260.63494873046875 337.1300964355469 275.4634704589844 C 338.6783142089844 275.8612365722656 346.13421630859375 277.6935729980469 347.4475402832031 274.0136413574219 C 351.1601257324219 241.72509765625 351.08306884765625 201.08897399902344 348.6620178222656 156.7086181640625 C 338.7992248535156 152.33717346191406 346.9411315917969 132.103515625 335.6064758300781 140.83807373046875" stroke-width="0.0" fill="rgb(64, 64, 64)" opacity="0.9683246" stroke="rgb(0, 0, 0)" stroke-opacity="1.0" stroke-linecap="round" stroke-linejoin="round"/>
    <path d="M 252.1200408935547 149.7615509033203 C 246.99679565429688 147.49343872070312 241.40682983398438 147.35873413085938 239.74896240234375 154.5245361328125 C 236.9866485595703 181.8988494873047 237.55699157714844 233.53152465820312 239.16127014160156 276.2886962890625 C 248.49024963378906 269.95623779296875 245.3573455810547 248.56898498535156 253.37501525878906 232.687255859375 C 253.88723754882812 201.96884155273438 251.3206329345703 173.70196533203125 252.1200408935547 149.7615509033203" stroke-width="0.0" fill="rgb(77, 77, 77)" opacity="1.013622" stroke="rgb(0, 0, 0)" stroke-opacity="1.0" stroke-linecap="round" stroke-linejoin="round"/>
    <path d="M 19.654407501220703 376.5464782714844 C 9.68921947479248 379.896240234375 2.679475784301758 376.61865234375 -6.3645148277282715 387.2998352050781 C -10.187013626098633 403.2276916503906 -10.045337677001953 418.8763122558594 -5.342968463897705 426.49090576171875 C 11.39985466003418 419.521484375 16.380075454711914 413.3078308105469 23.477149963378906 411.6248779296875 C 38.01945495605469 410.7641906738281 32.1118049621582 405.68768310546875 29.9267578125 388.642822265625 C 23.242416381835938 385.2457275390625 23.726003646850586 378.1656188964844 19.654407501220703 376.5464782714844" stroke-width="0.0" fill="rgb(27, 27, 27)" opacity="1.002305" stroke="rgb(0, 0, 0)" stroke-opacity="1.0" stroke-linecap="round" stroke-linejoin="round"/>
    <path d="M 81.09259033203125 346.1999816894531 C 72.61653137207031 350.6414489746094 78.05538940429688 364.7427978515625 78.30061340332031 382.52117919921875 C 87.60777282714844 373.4320983886719 94.11959838867188 372.0137634277344 85.05403900146484 373.96533203125 C 83.54718017578125 372.695068359375 91.3467788696289 375.8087463378906 94.4570541381836 369.85980224609375 C 89.01286315917969 360.725830078125 91.9481430053711 348.25726318359375 81.09259033203125 346.1999816894531" stroke-width="0.0" fill="rgb(21, 21, 21)" opacity="1.0132822" stroke="rgb(0, 0, 0)" stroke-opacity="1.0" stroke-linecap="round" stroke-linejoin="round"/>
    <path d="M 107.22754669189453 335.4617004394531 C 104.92473602294922 340.7615661621094 108.48345184326172 354.7334899902344 100.82229614257812 376.0862731933594 C 110.64321899414062 361.4095153808594 114.28450012207031 364.7434997558594 124.27063751220703 363.213134765625 C 127.86432647705078 353.8687438964844 120.68897247314453 345.0037841796875 118.1017074584961 335.43017578125 C 116.75715637207031 333.3498840332031 110.77191162109375 332.7588195800781 107.22754669189453 335.4617004394531" stroke-width="0.0" fill="rgb(29, 29, 29)" opacity="1.0367206" stroke="rgb(0, 0, 0)" stroke-opacity="1.0" stroke-linecap="round" stroke-linejoin="round"/>
    <path d="M 99.20120239257812 339.6318664550781 C 94.18209838867188 340.9055480957031 91.12637329101562 345.6227111816406 89.41781616210938 352.9433898925781 C 90.74645233154297 353.6413269042969 92.93296813964844 360.6879577636719 95.77853393554688 372.8345947265625 C 94.2688217163086 373.60821533203125 106.63726043701172 362.6298522949219 104.27042388916016 363.2079162597656 C 112.86251068115234 353.9470520019531 103.99993133544922 350.3453674316406 99.20120239257812 339.6318664550781" stroke-width="0.0" fill="rgb(33, 33, 33)" opacity="1.0039897" stroke="rgb(0, 0, 0)" stroke-opacity="1.0" stroke-linecap="round" stroke-linejoin="round"/>
    <path d="M 33.529197692871094 388.060302734375 C 28.995912551879883 392.3739318847656 36.022666931152344 397.9847106933594 34.005104064941406 408.0653076171875 C 44.273719787597656 408.14105224609375 52.7235107421875 407.4878845214844 57.38406753540039 405.26885986328125 C 59.85323715209961 397.02996826171875 56.072959899902344 393.0398254394531 51.982242584228516 387.93487548828125 C 50.463661193847656 388.20025634765625 30.69268226623535 388.06011962890625 33.529197692871094 388.060302734375" stroke-width="0.0" fill="rgb(26, 26, 26)" opacity="1.009317" stroke="rgb(0, 0, 0)" stroke-opacity="1.0" stroke-linecap="round" stroke-linejoin="round"/>
    <path d="M 287.9649963378906 461.5477294921875 C 294.7523193359375 466.70623779296875 315.8460388183594 462.8795471191406 335.8118896484375 463.9967956542969 C 334.3056640625 463.3489074707031 332.0972595214844 458.71136474609375 331.5588073730469 455.3647155761719 C 325.63604736328125 456.6981201171875 308.4957275390625 455.485595703125 300.9903259277344 452.599365234375 C 292.49090576171875 457.0211486816406 284.0102233886719 453.8865661621094 287.9649963378906 461.5477294921875" stroke-width="0.0" fill="rgb(20, 20, 20)" opacity="0.9835533" stroke="rgb(0, 0, 0)" stroke-opacity="1.0" stroke-linecap="round" stroke-linejoin="round"/>
    <path d="M 92.09750366210938 -8.363341331481934 C 98.00272369384766 -4.980854034423828 99.3092269897461 -5.788908004760742 100.23529815673828 -7.769863128662109 C 98.16866302490234 14.774393081665039 100.85672760009766 44.097816467285156 98.35801696777344 65.37281036376953 C 90.50143432617188 55.79130172729492 95.26371765136719 22.14894676208496 92.09750366210938 -8.363341331481934" stroke-width="0.0" fill="rgb(32, 32, 32)" opacity="1.0041319" stroke="rgb(0, 0, 0)" stroke-opacity="1.0" stroke-linecap="round" stroke-linejoin="round"/>
    <path d="M 464.235595703125 345.8118896484375 C 452.474853515625 343.6158752441406 459.27001953125 355.7245178222656 449.57183837890625 356.9022521972656 C 451.8086242675781 359.134521484375 453.9620666503906 368.6757507324219 453.01165771484375 370.7711181640625 C 454.0567626953125 369.46649169921875 458.12127685546875 371.8905029296875 462.2699279785156 371.6546630859375 C 463.6036071777344 364.0078430175781 465.4427185058594 354.7209777832031 464.235595703125 345.8118896484375" stroke-width="0.0" fill="rgb(51, 51, 51)" opacity="1.0308942" stroke="rgb(0, 0, 0)" stroke-opacity="1.0" stroke-linecap="round" stroke-linejoin="round"/>
    <path d="M 58.082210540771484 377.0935363769531 C 57.978050231933594 381.1273498535156 58.415279388427734 386.520263671875 59.425567626953125 393.8929443359375 C 64.35790252685547 387.4221496582031 71.1768798828125 384.2760009765625 71.43731689453125 385.7926940917969 C 76.72148895263672 379.0897216796875 77.74002075195312 383.1180419921875 74.89388275146484 377.4697570800781 C 71.1317138671875 373.7581481933594 62.4047966003418 376.5710754394531 58.082210540771484 377.0935363769531" stroke-width="0.0" fill="rgb(37, 37, 37)" opacity="1.0183617" stroke="rgb(0, 0, 0)" stroke-opacity="1.0" stroke-linecap="round" stroke-linejoin="round"/>
    <path d="M 349.61419677734375 168.6845245361328 C 351.6228942871094 178.44119262695312 348.3948974609375 184.56295776367188 351.5066223144531 196.0318145751953 C 354.44683837890625 196.2357940673828 354.8750915527344 198.06568908691406 359.9913024902344 196.6781463623047 C 362.9296875 191.97340393066406 362.4939270019531 186.64634704589844 360.78009033203125 174.347900390625 C 357.23907470703125 169.9965057373047 355.46923828125 165.45338439941406 349.61419677734375 168.6845245361328" stroke-width="0.0" fill="rgb(93, 93, 93)" opacity="1.0009204" stroke="rgb(0, 0, 0)" stroke-opacity="1.0" stroke-linecap="round" stroke-linejoin="round"/>
    <path d="M 327.09161376953125 184.50579833984375 C 323.4457092285156 198.50497436523438 329.40191650390625 213.79673767089844 320.675537109375 221.18223571777344 C 319.8608093261719 226.06028747558594 320.2503967285156 232.0266876220703 329.01580810546875 236.43878173828125 C 326.6515197753906 221.4877471923828 329.07568359375 203.0747833251953 327.09161376953125 184.50579833984375" stroke-width="0.0" fill="rgb(125, 125, 125)" opacity="0.9598282" stroke="rgb(0, 0, 0)" stroke-opacity="1.0" stroke-linecap="round" stroke-linejoin="round"/>
    <path d="M 41.06147003173828 -13.236244201660156 C 31.927635192871094 5.933980464935303 18.0782527923584 7.293353080749512 16.43818473815918 19.860279083251953 C 18.26968002319336 138.23976135253906 17.014846801757812 258.651123046875 19.338340759277344 370.5467224121094 C 29.14141845703125 368.5315246582031 42.54962921142578 366.6172180175781 43.664859771728516 363.99951171875 C 43.675533294677734 239.02464294433594 37.22224044799805 124.8958740234375 41.06147003173828 -13.236244201660156" stroke-width="0.0" fill="rgb(45, 45, 45)" opacity="1.0137935" stroke="rgb(0, 0, 0)" stroke-opacity="1.0" stroke-linecap="round" stroke-linejoin="round"/>
    <path d="M 62.07890701293945 23.89596176147461 C 48.842735290527344 22.375925064086914 47.23851013183594 34.47024154663086 42.96561050415039 35.27592849731445 C 42.91291046142578 151.61968994140625 39.54444885253906 256.72467041015625 44.376651763916016 354.99725341796875 C 48.944496154785156 363.3482666015625 55.083961486816406 355.4573059082031 63.15744400024414 356.7723388671875 C 67.70880889892578 343.572265625 67.22846984863281 336.2515869140625 67.40904235839844 325.7404479980469 C 65.35929107666016 224.67323303222656 62.428470611572266 120.57255554199219 62.07890701293945 23.89596176147461" stroke-width="0.0" fill="rgb(44, 44, 44)" opacity="1.011296" stroke="rgb(0, 0, 0)" stroke-opacity="1.0" stroke-linecap="round" stroke-linejoin="round"/>
    <path d="M 72.81645965576172 46.297813415527344 C 73.12228393554688 47.17049789428711 71.9578628540039 50.65036392211914 63.5853385925293 51.698787689208984 C 63.89909744262695 150.4540252685547 65.13729095458984 253.1914520263672 66.0233154296875 349.79388427734375 C 76.1343002319336 349.0754089355469 86.69633483886719 346.89520263671875 85.38371276855469 341.7222900390625 C 84.49139404296875 250.07884216308594 80.93241882324219 160.83880615234375 79.91685485839844 66.87985229492188 C 79.37338256835938 54.681766510009766 81.25712585449219 50.6816520690918 72.81645965576172 46.297813415527344" stroke-width="0.0" fill="rgb(41, 41, 41)" opacity="1.0049503" stroke="rgb(0, 0, 0)" stroke-opacity="1.0" stroke-linecap="round" stroke-linejoin="round"/>
    <path d="M 112.69276428222656 70.8859634399414 C 109.115234375 65.30414581298828 102.65892028808594 70.05032348632812 99.08086395263672 76.9930191040039 C 97.36747741699219 73.16714477539062 99.83035278320312 77.71717834472656 96.2857666015625 69.21656036376953 C 98.91937255859375 165.9816131591797 98.10064697265625 253.40858459472656 97.09909057617188 327.10394287109375 C 99.41138458251953 342.17095947265625 104.05311584472656 330.8068542480469 111.96410369873047 333.02813720703125 C 113.81743621826172 326.9839782714844 122.10023498535156 326.3846130371094 117.35061645507812 319.6234130859375 C 116.58340454101562 231.44415283203125 116.18833923339844 146.83181762695312 112.69276428222656 70.8859634399414" stroke-width="0.0" fill="rgb(51, 51, 51)" opacity="1.0013291" stroke="rgb(0, 0, 0)" stroke-opacity="1.0" stroke-linecap="round" stroke-linejoin="round"/>
    <path d="M 435.1458435058594 -5.211583137512207 C 420.5472106933594 -9.668890953063965 409.0758972167969 -8.503235816955566 407.0485534667969 -4.295804023742676 C 398.7593688964844 27.27779197692871 386.4188537597656 46.60472869873047 374.04852294921875 69.14299011230469 C 371.1548767089844 74.71988677978516 356.1851806640625 73.7065200805664 349.6165771484375 91.47080993652344 C 343.4449157714844 105.88291931152344 344.2852478027344 111.45244598388672 348.80010986328125 126.33684539794922 C 359.21502685546875 124.3064193725586 362.1867980957031 129.78346252441406 363.6189880371094 125.80560302734375 C 373.4403991699219 128.45843505859375 367.7911376953125 139.37306213378906 378.5268859863281 146.78079223632812 C 385.1130065917969 141.61940002441406 392.54168701171875 138.30609130859375 395.2989501953125 132.0452117919922 C 395.93359375 113.12532806396484 395.91619873046875 89.2285385131836 393.8608093261719 75.4061508178711 C 402.0871887207031 41.09269332885742 420.2201843261719 25.114774703979492 435.1458435058594 -5.211583137512207" stroke-width="0.0" fill="rgb(23, 23, 23)" opacity="1.0530533" stroke="rgb(0, 0, 0)" stroke-opacity="1.0" stroke-linecap="round" stroke-linejoin="round"/>
    <path d="M 95.31095123291016 64.68428039550781 C 90.96973419189453 62.10529708862305 73.56640625 67.10384368896484 80.5196762084961 64.98573303222656 C 81.908447265625 157.35903930664062 83.1152114868164 250.4718017578125 84.45146179199219 335.82757568359375 C 99.06439208984375 336.6050109863281 94.45352172851562 342.36212158203125 99.17882537841797 312.2186279296875 C 97.97298431396484 232.06460571289062 98.65337371826172 139.0708770751953 95.31095123291016 64.68428039550781" stroke-width="0.0" fill="rgb(49, 49, 49)" opacity="0.9374406" stroke="rgb(0, 0, 0)" stroke-opacity="1.0" stroke-linecap="round" stroke-linejoin="round"/>
    <path d="M 112.56914520263672 89.28612518310547 C 115.05709838867188 165.9152069091797 117.19607543945312 243.33468627929688 116.61478424072266 326.818603515625 C 127.4613037109375 323.41558837890625 125.53695678710938 322.8306579589844 127.23068237304688 310.0265197753906 C 127.29521179199219 244.6210174560547 125.9725570678711 170.07174682617188 124.91728210449219 97.81495666503906 C 116.5445556640625 91.75128936767578 127.2192611694336 82.24729919433594 112.56914520263672 89.28612518310547" stroke-width="0.0" fill="rgb(47, 47, 47)" opacity="0.9898902" stroke="rgb(0, 0, 0)" stroke-opacity="1.0" stroke-linecap="round" stroke-linejoin="round"/>
    <path d="M 347.91619873046875 196.335693359375 C 350.44256591796875 219.17462158203125 350.2156677246094 241.6813507080078 347.87188720703125 268.9772033691406 C 348.4866027832031 274.21649169921875 353.4778747558594 276.8768615722656 359.90521240234375 275.5387268066406 C 360.61578369140625 250.46327209472656 359.31396484375 224.61810302734375 360.23016357421875 198.61904907226562 C 361.98590087890625 199.81179809570312 349.3351135253906 198.9936065673828 347.91619873046875 196.335693359375" stroke-width="0.0" fill="rgb(69, 69, 69)" opacity="1.0552807" stroke="rgb(0, 0, 0)" stroke-opacity="1.0" stroke-linecap="round" stroke-linejoin="round"/>
    <path d="M 41.75896072387695 -5.152606964111328 C 42.7172966003418 3.5167970657348633 40.93549728393555 11.191682815551758 42.70207595825195 16.441085815429688 C 47.67301559448242 13.38101577758789 51.715423583984375 14.797345161437988 58.62314224243164 18.154272079467773 C 62.2050666809082 13.952336311340332 60.82346725463867 7.747233867645264 60.825035095214844 -6.970420837402344 C 53.99949645996094 -1.2952358722686768 47.98701095581055 -0.7912518978118896 41.75896072387695 -5.152606964111328" stroke-width="0.0" fill="rgb(23, 23, 23)" opacity="0.99784124" stroke="rgb(0, 0, 0)" stroke-opacity="1.0" stroke-linecap="round" stroke-linejoin="round"/>
    <path d="M 48.50434875488281 366.598388671875 C 45.197105407714844 370.3524169921875 50.88962173461914 371.9148864746094 56.42308044433594 374.1121520996094 C 66.49842071533203 373.3928527832031 70.19219207763672 377.1579895019531 71.41816711425781 365.45361328125 C 69.28290557861328 362.210205078125 59.832618713378906 363.4738464355469 48.50434875488281 366.598388671875" stroke-width="0.0" fill="rgb(44, 44, 44)" opacity="1.0019183" stroke="rgb(0, 0, 0)" stroke-opacity="1.0" stroke-linecap="round" stroke-linejoin="round"/>
    <path d="M 359.4029235839844 210.5552520751953 C 362.62939453125 206.55796813964844 363.5781555175781 208.55462646484375 364.06878662109375 213.31546020507812 C 364.0490417480469 225.7187957763672 368.0765380859375 253.19174194335938 361.75323486328125 247.32801818847656 C 357.4067687988281 250.00531005859375 361.4130859375 225.92225646972656 359.4029235839844 210.5552520751953" stroke-width="0.0" fill="rgb(81, 81, 81)" opacity="1.0138208" stroke="rgb(0, 0, 0)" stroke-opacity="1.0" stroke-linecap="round" stroke-linejoin="round"/>
    <path d="M 455.5064697265625 -1.0038477182388306 C 453.8725891113281 15.178561210632324 447.8621826171875 15.796305656433105 448.4091796875 33.8563232421875 C 444.078857421875 61.67383575439453 447.09368896484375 86.27526092529297 444.362548828125 112.08531951904297 C 437.1726379394531 110.26225280761719 442.441162109375 107.17536163330078 438.18780517578125 103.88426208496094 C 436.6738586425781 146.77273559570312 440.32159423828125 188.72239685058594 434.65301513671875 232.21409606933594 C 434.6175231933594 217.88418579101562 430.5979309082031 209.47486877441406 431.8061828613281 201.60317993164062 C 428.9682922363281 218.48219299316406 429.4042053222656 236.92005920410156 431.2434387207031 253.449951171875 C 434.2153015136719 238.78927612304688 431.0188903808594 231.5907440185547 436.2812194824219 229.32241821289062 C 434.0223388671875 225.79734802246094 435.0856628417969 229.63278198242188 436.8684387207031 234.2517547607422 C 437.18017578125 263.6035461425781 436.7964172363281 295.7299499511719 438.7548828125 328.21588134765625 C 444.19854736328125 327.3132019042969 438.9784240722656 329.5248107910156 443.6967468261719 333.6371765136719 C 444.69677734375 329.4548034667969 443.7069091796875 319.47723388671875 444.51129150390625 320.0174865722656 C 446.9787902832031 319.1379089355469 443.6483154296875 326.4764099121094 446.3302307128906 334.90997314453125 C 465.0231018066406 352.9228820800781 485.66571044921875 372.20489501953125 520.3482666015625 392.4895935058594 C 521.7271728515625 258.4932861328125 521.0352172851562 128.53488159179688 520.3743896484375 -0.7297596335411072 C 493.3333435058594 -0.294682115316391 475.6666564941406 -0.4973270297050476 455.5064697265625 -1.0038477182388306" stroke-width="0.0" fill="rgb(81, 81, 81)" opacity="0.98668194" stroke="rgb(0, 0, 0)" stroke-opacity="1.0" stroke-linecap="round" stroke-linejoin="round"/>
    <path d="M 291.6377258300781 193.2292022705078 C 285.5816955566406 196.918701171875 279.02392578125 199.6884307861328 278.3771667480469 201.89663696289062 C 289.4560852050781 211.2275848388672 291.3447570800781 218.850830078125 286.5924987792969 222.4612579345703 C 284.2330017089844 244.49212646484375 297.7121887207031 268.17218017578125 275.6480407714844 275.0377502441406 C 275.8946228027344 304.10546875 272.27947998046875 335.5166015625 268.88714599609375 362.7065124511719 C 295.7288818359375 375.8294982910156 331.9334411621094 370.73150634765625 328.6818542480469 382.7008361816406 C 345.6741027832031 382.62921142578125 351.4606628417969 377.7229919433594 350.6898498535156 373.04754638671875 C 345.95697021484375 332.3337097167969 339.2113952636719 295.5889892578125 332.1749267578125 257.3829345703125 C 328.36328125 235.12359619140625 314.38165283203125 221.0116424560547 309.17547607421875 202.19967651367188 C 303.85882568359375 198.6485137939453 302.6000671386719 192.5487060546875 291.6377258300781 193.2292022705078" stroke-width="0.0" fill="rgb(53, 53, 53)" opacity="0.9086644" stroke="rgb(0, 0, 0)" stroke-opacity="1.0" stroke-linecap="round" stroke-linejoin="round"/>
    <path d="M 270.0992431640625 368.8280334472656 C 256.0166015625 364.61181640625 259.6388854980469 375.1697692871094 253.60968017578125 375.2760009765625 C 257.27716064453125 397.0765075683594 254.5252685546875 429.9595947265625 257.93243408203125 456.9031677246094 C 270.58355712890625 461.2502746582031 281.4488525390625 461.0448913574219 284.3629455566406 455.3713073730469 C 275.17901611328125 432.59417724609375 276.0625915527344 407.3094177246094 281.2035217285156 390.8214111328125 C 277.9597473144531 392.0435485839844 280.0776672363281 383.4690856933594 294.0117492675781 386.6304931640625 C 300.60107421875 409.99163818359375 301.5184020996094 433.8528137207031 304.47747802734375 454.99755859375 C 309.9151916503906 460.73516845703125 319.50384521484375 464.7428283691406 331.3001403808594 459.8368835449219 C 333.60394287109375 445.9051208496094 331.9109802246094 415.1965026855469 328.6988525390625 383.03314208984375 C 325.0988464355469 378.0908508300781 304.5240478515625 380.81304931640625 286.3443908691406 380.78564453125 C 279.5492858886719 374.3898010253906 267.9074401855469 376.0569763183594 270.0992431640625 368.8280334472656" stroke-width="0.0" fill="rgb(34, 34, 34)" opacity="0.7254923" stroke="rgb(0, 0, 0)" stroke-opacity="1.0" stroke-linecap="round" stroke-linejoin="round"/>
    <path d="M 257.1730651855469 -0.46479082107543945 C 263.99468994140625 49.061302185058594 274.03973388671875 97.34908294677734 281.68438720703125 150.2887420654297 C 282.6298828125 149.98785400390625 285.6691589355469 152.72360229492188 293.4739074707031 150.08241271972656 C 293.97711181640625 93.20234680175781 281.9275817871094 51.80827713012695 281.5182189941406 -1.15236496925354 C 271.71795654296875 -3.7326366901397705 264.1861267089844 -5.6517252922058105 257.1730651855469 -0.46479082107543945" stroke-width="0.0" fill="rgb(62, 62, 62)" opacity="0.94205624" stroke="rgb(0, 0, 0)" stroke-opacity="1.0" stroke-linecap="round" stroke-linejoin="round"/>
    <path d="M 275.5109558105469 156.1704559326172 C 270.3411560058594 160.75514221191406 266.1868896484375 161.5084228515625 267.7590026855469 172.4152069091797 C 284.6146240234375 175.3162841796875 290.285400390625 190.3988494873047 303.3714294433594 194.71836853027344 C 316.51983642578125 202.7798614501953 309.61370849609375 221.36026000976562 321.6812744140625 222.30206298828125 C 328.0710754394531 217.0482177734375 324.8531799316406 199.0027618408203 327.1273193359375 191.0769500732422 C 326.93487548828125 169.89501953125 323.79638671875 167.8221893310547 319.08892822265625 160.15213012695312 C 315.27239990234375 155.94903564453125 308.67181396484375 153.1489715576172 297.97625732421875 151.87603759765625 C 292.0118713378906 155.54933166503906 283.9079895019531 150.27137756347656 275.5109558105469 156.1704559326172" stroke-width="0.0" fill="rgb(213, 213, 213)" opacity="1.0432972" stroke="rgb(0, 0, 0)" stroke-opacity="1.0" stroke-linecap="round" stroke-linejoin="round"/>
    <path d="M 279.8052673339844 387.9820861816406 C 276.91961669921875 396.1441345214844 277.3544006347656 413.8754577636719 278.30926513671875 434.6485900878906 C 279.7875671386719 440.9756774902344 278.7736511230469 447.1642761230469 281.2803955078125 449.07952880859375 C 285.5605773925781 455.3633117675781 288.9986267089844 453.05194091796875 304.8096008300781 456.0753173828125 C 302.13653564453125 442.22198486328125 299.2992858886719 417.7326354980469 298.5444030761719 395.6888122558594 C 293.1473083496094 386.1407165527344 292.058837890625 384.6779479980469 279.8052673339844 387.9820861816406" stroke-width="0.0" fill="rgb(133, 133, 133)" opacity="0.919127" stroke="rgb(0, 0, 0)" stroke-opacity="1.0" stroke-linecap="round" stroke-linejoin="round"/>
    <path d="M 152.6331024169922 454.9865417480469 C 145.02969360351562 454.30010986328125 139.75509643554688 458.24603271484375 132.88497924804688 460.67236328125 C 126.34768676757812 465.8355407714844 122.02067565917969 467.5206298828125 124.23052215576172 478.39263916015625 C 126.81171417236328 481.6961669921875 143.22569274902344 484.49749755859375 144.57489013671875 481.9124755859375 C 154.3976593017578 476.9268798828125 154.23077392578125 475.28350830078125 157.6611785888672 467.471435546875 C 157.0216064453125 463.76971435546875 156.21951293945312 456.9389953613281 152.6331024169922 454.9865417480469" stroke-width="0.0" fill="rgb(22, 22, 22)" opacity="1.0028598" stroke="rgb(0, 0, 0)" stroke-opacity="1.0" stroke-linecap="round" stroke-linejoin="round"/>
    <path d="M 265.52825927734375 242.7576446533203 C 256.9599914550781 245.4540557861328 251.0831756591797 257.837890625 247.9237060546875 266.0507507324219 C 252.09829711914062 292.63165283203125 251.8543701171875 334.394287109375 248.8906707763672 372.2424621582031 C 259.8637390136719 367.1913146972656 267.90533447265625 365.92431640625 269.14630126953125 357.9874267578125 C 272.6750183105469 333.226806640625 275.9035339355469 308.7349548339844 275.50164794921875 273.9526062011719 C 268.98992919921875 278.6340026855469 247.2020263671875 277.746826171875 246.14517211914062 268.0215148925781 C 257.0304870605469 248.84976196289062 255.50167846679688 245.91815185546875 265.52825927734375 242.7576446533203" stroke-width="0.0" fill="rgb(82, 82, 82)" opacity="0.8411918" stroke="rgb(0, 0, 0)" stroke-opacity="1.0" stroke-linecap="round" stroke-linejoin="round"/>
    <path d="M 260.4283142089844 208.7617950439453 C 276.1167907714844 206.4105987548828 284.0171203613281 199.42723083496094 295.5948486328125 192.9224853515625 C 289.8028259277344 186.79876708984375 285.8839416503906 181.5832977294922 281.7626037597656 178.17872619628906 C 276.74371337890625 174.87796020507812 273.8211669921875 173.08766174316406 264.6132507324219 174.46151733398438 C 261.5390319824219 178.99978637695312 259.5555725097656 193.76052856445312 260.4283142089844 208.7617950439453" stroke-width="0.0" fill="rgb(69, 69, 69)" opacity="1.0176616" stroke="rgb(0, 0, 0)" stroke-opacity="1.0" stroke-linecap="round" stroke-linejoin="round"/>
    <path d="M 136.2399139404297 418.7302551269531 C 132.4952392578125 420.72686767578125 127.44684600830078 422.2391052246094 130.07484436035156 430.6172180175781 C 134.80259704589844 435.1022033691406 139.00604248046875 441.70501708984375 147.35984802246094 446.9202880859375 C 148.38479614257812 438.50164794921875 154.67779541015625 428.76226806640625 151.2138214111328 427.61627197265625 C 150.7252960205078 419.4078063964844 144.28282165527344 421.0425109863281 136.2399139404297 418.7302551269531" stroke-width="0.0" fill="rgb(114, 114, 114)" opacity="0.8858575" stroke="rgb(0, 0, 0)" stroke-opacity="1.0" stroke-linecap="round" stroke-linejoin="round"/>
    <path d="M -2.1111741065979004 486.4577941894531 C -5.92290735244751 493.0998229980469 -4.59721040725708 502.1817932128906 -2.179480791091919 518.5770874023438 C 11.822213172912598 518.9592895507812 24.860870361328125 521.2015991210938 38.8740119934082 514.3440551757812 C 23.28396224975586 507.4010009765625 18.04474449157715 501.9658203125 8.923590660095215 502.1906433105469 C 3.4743568897247314 497.50299072265625 7.890185832977295 487.3795166015625 -2.1111741065979004 486.4577941894531" stroke-width="0.0" fill="rgb(31, 31, 31)" opacity="0.9984281" stroke="rgb(0, 0, 0)" stroke-opacity="1.0" stroke-linecap="round" stroke-linejoin="round"/>
    <path d="M 337.58270263671875 279.0185546875 C 343.63153076171875 311.57843017578125 348.8285217285156 345.55560302734375 353.24505615234375 378.5722961425781 C 349.81439208984375 385.0569763183594 334.358154296875 382.5599060058594 329.78466796875 387.3569641113281 C 333.3008117675781 408.9356384277344 334.4765319824219 432.7398681640625 334.09307861328125 462.670654296875 C 391.5973815917969 460.1416015625 452.4185791015625 461.60162353515625 519.908447265625 461.1920166015625 C 518.5468139648438 442.3926086425781 518.58447265625 424.6654968261719 518.7504272460938 406.9808044433594 C 506.5853576660156 407.1475830078125 496.8878173828125 405.793701171875 492.7724609375 404.9338073730469 C 489.4720764160156 402.787841796875 493.5165100097656 396.8536376953125 488.56036376953125 394.0679626464844 C 480.57452392578125 393.84075927734375 476.7027282714844 394.6146240234375 476.5768737792969 390.2785949707031 C 442.60076904296875 358.8963623046875 405.2446594238281 331.1608581542969 371.3616943359375 298.4537353515625 C 360.4398498535156 290.806884765625 353.1213684082031 280.334228515625 337.58270263671875 279.0185546875" stroke-width="0.0" fill="rgb(124, 124, 124)" opacity="1.1428177" stroke="rgb(0, 0, 0)" stroke-opacity="1.0" stroke-linecap="round" stroke-linejoin="round"/>
    <path d="M 499.194580078125 390.3089294433594 C 495.8012390136719 392.6080322265625 490.8204345703125 393.34515380859375 492.032958984375 404.0684509277344 C 495.4750061035156 404.6169738769531 502.4866638183594 406.5513000488281 508.3505859375 405.8904113769531 C 515.0564575195312 401.0622863769531 508.0868225097656 401.122802734375 510.5257263183594 393.2982482910156 C 506.4198913574219 394.16448974609375 500.991943359375 394.7767028808594 499.194580078125 390.3089294433594" stroke-width="0.0" fill="rgb(32, 32, 32)" opacity="1.026656" stroke="rgb(0, 0, 0)" stroke-opacity="1.0" stroke-linecap="round" stroke-linejoin="round"/>
    <path d="M 477.23175048828125 381.0486145019531 C 477.2141418457031 382.5984802246094 474.0133056640625 390.2924499511719 478.0819396972656 393.3394775390625 C 485.6683349609375 392.7568359375 491.45458984375 393.4093017578125 493.69635009765625 388.7154846191406 C 488.966552734375 382.4533996582031 488.7168884277344 378.578369140625 491.9203796386719 381.4808044433594 C 485.86578369140625 377.652587890625 482.1434020996094 377.2362365722656 477.23175048828125 381.0486145019531" stroke-width="0.0" fill="rgb(40, 40, 40)" opacity="1.0362504" stroke="rgb(0, 0, 0)" stroke-opacity="1.0" stroke-linecap="round" stroke-linejoin="round"/>
    <path d="M 7.1307454109191895 500.4032287597656 C 17.50867462158203 490.03900146484375 31.68341064453125 483.52099609375 38.6770133972168 472.4248962402344 C 34.490142822265625 467.2494812011719 14.385247230529785 471.7409973144531 -2.3903396129608154 469.2373962402344 C 0.267442524433136 482.8420104980469 8.567147254943848 487.4727783203125 7.1307454109191895 500.4032287597656" stroke-width="0.0" fill="rgb(126, 126, 126)" opacity="0.98929185" stroke="rgb(0, 0, 0)" stroke-opacity="1.0" stroke-linecap="round" stroke-linejoin="round"/>
    <path d="M -9.446613311767578 462.64788818359375 C 13.784059524536133 460.2660217285156 34.541168212890625 461.0703430175781 49.13421630859375 461.28070068359375 C 54.82179641723633 459.89276123046875 60.905635833740234 456.8458251953125 64.80467224121094 450.3982238769531 C 41.20675277709961 449.01422119140625 15.402016639709473 454.3905029296875 -2.537468671798706 447.25408935546875 C -7.210217475891113 442.0137939453125 -8.38459587097168 446.58624267578125 -9.446613311767578 462.64788818359375" stroke-width="0.0" fill="rgb(89, 89, 89)" opacity="0.9988579" stroke="rgb(0, 0, 0)" stroke-opacity="1.0" stroke-linecap="round" stroke-linejoin="round"/>
    <path d="M 7.854117393493652 408.0203857421875 C 5.931314468383789 412.2306213378906 5.803438663482666 422.2679748535156 5.336604595184326 426.96807861328125 C 15.350460052490234 427.53955078125 28.779964447021484 425.9773254394531 35.81147003173828 424.4898376464844 C 35.884185791015625 415.03558349609375 37.56086730957031 409.8515930175781 32.841163635253906 405.9651794433594 C 23.418481826782227 403.7978515625 11.379389762878418 404.49365234375 7.854117393493652 408.0203857421875" stroke-width="0.0" fill="rgb(28, 28, 28)" opacity="1.0549419" stroke="rgb(0, 0, 0)" stroke-opacity="1.0" stroke-linecap="round" stroke-linejoin="round"/>
    <path d="M 91.13776397705078 367.1651916503906 C 88.4178466796875 369.48291015625 80.75540924072266 368.9653015136719 79.49151611328125 370.1860656738281 C 80.91712951660156 375.1743469238281 78.67791748046875 381.0492858886719 81.27300262451172 384.01373291015625 C 87.10256958007812 384.08837890625 91.28417205810547 384.6000671386719 94.25545501708984 382.6109619140625 C 96.56629180908203 377.99853515625 93.71551513671875 370.4716491699219 91.13776397705078 367.1651916503906" stroke-width="0.0" fill="rgb(32, 32, 32)" opacity="1.0082039" stroke="rgb(0, 0, 0)" stroke-opacity="1.0" stroke-linecap="round" stroke-linejoin="round"/>
    <path d="M 119.4966049194336 381.5538635253906 C 115.42286682128906 377.285888671875 111.52925872802734 375.5525817871094 113.13408660888672 372.9361267089844 C 102.92385864257812 368.4632568359375 96.21931457519531 372.9112243652344 94.22004699707031 377.54949951171875 C 93.70262145996094 379.3344421386719 96.76454162597656 378.810791015625 95.36080932617188 383.9267883300781 C 104.81060028076172 382.1576232910156 116.2558364868164 384.4105529785156 119.4966049194336 381.5538635253906" stroke-width="0.0" fill="rgb(69, 69, 69)" opacity="0.9910185" stroke="rgb(0, 0, 0)" stroke-opacity="1.0" stroke-linecap="round" stroke-linejoin="round"/>
    <path d="M 6.415718078613281 444.9634704589844 C 8.350696563720703 433.5454406738281 22.56159210205078 438.4468994140625 31.858449935913086 427.41033935546875 C 17.965988159179688 427.20098876953125 8.016059875488281 426.3058166503906 5.620705604553223 427.1219177246094 C 5.339929580688477 429.4504699707031 5.2516350746154785 439.3985900878906 6.415718078613281 444.9634704589844" stroke-width="0.0" fill="rgb(133, 133, 133)" opacity="0.9525101" stroke="rgb(0, 0, 0)" stroke-opacity="1.0" stroke-linecap="round" stroke-linejoin="round"/>
    <path d="M 402.7341613769531 -6.936704635620117 C 367.50018310546875 -8.652578353881836 328.5653076171875 -7.215607643127441 293.92138671875 -4.715409755706787 C 288.701904296875 22.616085052490234 296.26837158203125 42.695091247558594 293.3450927734375 79.45519256591797 C 311.1943359375 85.52955627441406 329.40008544921875 93.61615753173828 340.902099609375 103.59371948242188 C 363.1069030761719 67.74938201904297 390.0460510253906 44.85391616821289 402.7341613769531 -6.936704635620117" stroke-width="0.0" fill="rgb(53, 53, 53)" opacity="0.9976452" stroke="rgb(0, 0, 0)" stroke-opacity="1.0" stroke-linecap="round" stroke-linejoin="round"/>
    <path d="M 273.70623779296875 204.27005004882812 C 273.30657958984375 205.12506103515625 264.21588134765625 206.4248046875 253.8356475830078 215.10426330566406 C 256.8080139160156 240.19273376464844 240.6936798095703 254.4970703125 245.84754943847656 288.5710144042969 C 250.874755859375 272.3801574707031 277.0013427734375 281.3132019042969 286.96148681640625 268.56756591796875 C 290.4087219238281 263.79058837890625 286.9131774902344 254.5900115966797 290.4640197753906 249.04827880859375 C 287.3118896484375 243.95285034179688 287.2633972167969 240.07244873046875 287.9407653808594 235.69049072265625 C 284.3607177734375 229.3009796142578 288.47125244140625 222.2878875732422 289.89666748046875 218.71649169921875 C 285.60223388671875 206.56573486328125 283.73388671875 201.9818115234375 273.70623779296875 204.27005004882812" stroke-width="0.0" fill="rgb(27, 27, 27)" opacity="0.766403" stroke="rgb(0, 0, 0)" stroke-opacity="1.0" stroke-linecap="round" stroke-linejoin="round"/>
    <path d="M 9.127826690673828 439.7447204589844 C 21.649381637573242 451.4552001953125 36.1231575012207 444.5262145996094 66.35356140136719 446.3419189453125 C 71.8454360961914 437.3846740722656 86.86117553710938 438.1897888183594 89.99695587158203 425.47894287109375 C 76.51863861083984 422.50164794921875 56.88261413574219 426.09332275390625 43.57529830932617 422.5118713378906 C 29.354942321777344 427.26336669921875 21.072439193725586 435.2757873535156 9.127826690673828 439.7447204589844" stroke-width="0.0" fill="rgb(91, 91, 91)" opacity="0.9954736" stroke="rgb(0, 0, 0)" stroke-opacity="1.0" stroke-linecap="round" stroke-linejoin="round"/>
    <path d="M 85.74015808105469 476.8408508300781 C 70.13985443115234 474.822265625 50.117584228515625 475.8297119140625 36.506649017333984 477.1524353027344 C 28.008129119873047 484.566650390625 17.48798942565918 490.9955749511719 7.92793083190918 501.4397888183594 C 29.08955955505371 503.9595642089844 42.211307525634766 498.5143127441406 65.1856689453125 499.8958740234375 C 71.69488525390625 492.5126647949219 78.37578582763672 485.17108154296875 85.74015808105469 476.8408508300781" stroke-width="0.0" fill="rgb(155, 155, 155)" opacity="1.0035727" stroke="rgb(0, 0, 0)" stroke-opacity="1.0" stroke-linecap="round" stroke-linejoin="round"/>
    <path d="M 486.9714050292969 466.5260314941406 C 493.947021484375 476.2536315917969 502.5144958496094 484.99249267578125 513.222412109375 497.4140625 C 521.5990600585938 489.2236328125 519.1810913085938 477.5968017578125 517.708984375 466.82086181640625 C 503.1812744140625 462.9349365234375 497.7163391113281 465.4736633300781 486.9714050292969 466.5260314941406" stroke-width="0.0" fill="rgb(81, 81, 81)" opacity="1.0128747" stroke="rgb(0, 0, 0)" stroke-opacity="1.0" stroke-linecap="round" stroke-linejoin="round"/>
    <path d="M 59.938472747802734 398.704833984375 C 57.471221923828125 399.5973205566406 58.74855041503906 407.65423583984375 59.83007049560547 408.1934814453125 C 75.88684844970703 407.14984130859375 89.5445785522461 410.2568664550781 96.99993133544922 403.90838623046875 C 90.62386322021484 397.4600830078125 72.35298156738281 401.3477783203125 78.2943115234375 394.8897705078125 C 66.36054229736328 392.77490234375 58.15021896362305 393.2860107421875 59.938472747802734 398.704833984375" stroke-width="0.0" fill="rgb(147, 147, 147)" opacity="1.0012925" stroke="rgb(0, 0, 0)" stroke-opacity="1.0" stroke-linecap="round" stroke-linejoin="round"/>
    <path d="M 368.3116760253906 128.5762481689453 C 364.8097839355469 128.2274932861328 355.747802734375 125.39423370361328 353.0747375488281 127.6810073852539 C 351.25439453125 137.7286376953125 342.4792175292969 138.3115234375 351.6750183105469 147.8639373779297 C 361.53900146484375 152.3935089111328 360.7333068847656 142.5426788330078 367.56951904296875 137.2308807373047 C 368.64483642578125 137.54266357421875 367.7620849609375 124.59464263916016 368.3116760253906 128.5762481689453" stroke-width="0.0" fill="rgb(194, 194, 194)" opacity="0.94981337" stroke="rgb(0, 0, 0)" stroke-opacity="1.0" stroke-linecap="round" stroke-linejoin="round"/>
    <path d="M 464.0251770019531 351.93182373046875 C 458.76519775390625 345.819091796875 457.90545654296875 343.9776611328125 454.175048828125 348.77947998046875 C 451.371337890625 359.0057067871094 446.7208557128906 347.4087219238281 453.1573486328125 363.9928894042969 C 462.52874755859375 364.615478515625 456.95654296875 367.1758117675781 465.0816345214844 361.715087890625 C 464.0137023925781 355.0148010253906 470.36419677734375 353.03118896484375 464.0251770019531 351.93182373046875" stroke-width="0.0" fill="rgb(57, 57, 57)" opacity="1.0069917" stroke="rgb(0, 0, 0)" stroke-opacity="1.0" stroke-linecap="round" stroke-linejoin="round"/>
    <path d="M 110.3604736328125 348.3145446777344 C 106.24903869628906 351.76934814453125 106.96290588378906 359.2745361328125 113.20982360839844 364.1939697265625 C 109.85682678222656 364.35186767578125 122.60586547851562 366.9771728515625 124.70068359375 362.7609558105469 C 125.49349212646484 364.2577819824219 124.60504913330078 356.056884765625 125.76961517333984 350.91864013671875 C 123.7154312133789 349.32073974609375 118.06389617919922 344.548583984375 110.3604736328125 348.3145446777344" stroke-width="0.0" fill="rgb(39, 39, 39)" opacity="1.0141343" stroke="rgb(0, 0, 0)" stroke-opacity="1.0" stroke-linecap="round" stroke-linejoin="round"/>
    <path d="M 489.2906799316406 378.2740478515625 C 492.2501220703125 386.35015869140625 496.15692138671875 389.8804626464844 499.5765686035156 392.1776123046875 C 503.9627685546875 394.134765625 507.85369873046875 395.67535400390625 517.3923950195312 391.5984191894531 C 518.337158203125 389.605712890625 518.9171752929688 385.4261474609375 520.1934814453125 379.3165588378906 C 500.93878173828125 380.92236328125 494.4288635253906 378.3681945800781 489.2906799316406 378.2740478515625" stroke-width="0.0" fill="rgb(45, 45, 45)" opacity="0.9632088" stroke="rgb(0, 0, 0)" stroke-opacity="1.0" stroke-linecap="round" stroke-linejoin="round"/>
    <path d="M 90.78133392333984 360.7455139160156 C 92.15184783935547 364.2975158691406 93.31432342529297 371.1629638671875 96.35856628417969 373.2796630859375 C 108.59017181396484 369.3424072265625 108.76947021484375 371.7689514160156 109.10662078857422 371.9734191894531 C 109.6761703491211 366.5713806152344 107.70409393310547 358.9339599609375 107.34214782714844 358.5511169433594 C 99.11013793945312 354.68853759765625 93.95600891113281 357.4500427246094 90.78133392333984 360.7455139160156" stroke-width="0.0" fill="rgb(42, 42, 42)" opacity="0.99564946" stroke="rgb(0, 0, 0)" stroke-opacity="1.0" stroke-linecap="round" stroke-linejoin="round"/>
    <path d="M 120.1791000366211 344.5527648925781 C 119.61677551269531 348.8634338378906 125.90908813476562 349.34075927734375 126.3476791381836 356.2530822753906 C 131.92552185058594 358.52532958984375 136.54266357421875 357.37799072265625 137.05491638183594 352.5849609375 C 133.64663696289062 347.5793762207031 139.72239685058594 346.3506164550781 133.51132202148438 342.0318908691406 C 131.84434509277344 338.1990966796875 120.77171325683594 340.09979248046875 120.1791000366211 344.5527648925781" stroke-width="0.0" fill="rgb(46, 46, 46)" opacity="0.9472791" stroke="rgb(0, 0, 0)" stroke-opacity="1.0" stroke-linecap="round" stroke-linejoin="round"/>
    <path d="M 290.2146301269531 462.6607666015625 C 291.7080993652344 465.64495849609375 304.909912109375 466.7450866699219 316.60943603515625 462.37420654296875 C 313.5362548828125 454.3151550292969 314.26239013671875 456.3861999511719 316.033447265625 460.45068359375 C 294.4259948730469 450.95928955078125 289.69390869140625 453.5456237792969 290.2146301269531 462.6607666015625" stroke-width="0.0" fill="rgb(17, 17, 17)" opacity="0.99383676" stroke="rgb(0, 0, 0)" stroke-opacity="1.0" stroke-linecap="round" stroke-linejoin="round"/>
    <path d="M 81.4731674194336 296.1470642089844 C 81.60050964355469 311.1518249511719 80.18319702148438 323.7048034667969 77.17556762695312 331.4146423339844 C 80.28473663330078 327.03948974609375 77.27039337158203 332.9212646484375 77.97373962402344 344.93182373046875 C 72.79560852050781 338.6720886230469 79.17532348632812 332.6541748046875 73.53157043457031 331.6367492675781 C 68.95442962646484 336.49322509765625 74.88959503173828 335.4420471191406 71.19725036621094 343.7989807128906 C 74.96647644042969 344.4631652832031 80.38320922851562 342.0587463378906 82.97924041748047 344.3405456542969 C 84.3882064819336 331.6132507324219 85.75102996826172 310.3379211425781 81.4731674194336 296.1470642089844" stroke-width="0.0" fill="rgb(54, 54, 54)" opacity="1.0013406" stroke="rgb(0, 0, 0)" stroke-opacity="1.0" stroke-linecap="round" stroke-linejoin="round"/>
    <path d="M 474.3757629394531 373.04071044921875 C 478.01593017578125 379.86346435546875 479.791259765625 381.23309326171875 484.0730285644531 377.7962341308594 C 489.4689636230469 381.7466125488281 493.9573669433594 379.5587463378906 496.27020263671875 375.06640625 C 495.9527282714844 372.1992492675781 482.0020446777344 370.3690185546875 474.3757629394531 373.04071044921875" stroke-width="0.0" fill="rgb(64, 64, 64)" opacity="1.0028017" stroke="rgb(0, 0, 0)" stroke-opacity="1.0" stroke-linecap="round" stroke-linejoin="round"/>
    <path d="M 328.2362976074219 247.13755798339844 C 328.0372314453125 257.8812255859375 327.7279052734375 263.0614013671875 326.36004638671875 270.51824951171875 C 308.4103088378906 277.269287109375 293.0609130859375 284.7680358886719 281.6480407714844 284.4532470703125 C 272.0249328613281 307.62213134765625 274.5018310546875 339.0775451660156 269.6011657714844 362.8556213378906 C 288.45782470703125 377.48773193359375 315.6026611328125 373.7414245605469 330.7491760253906 382.0379333496094 C 345.9716491699219 382.0509948730469 351.5250549316406 379.1485290527344 350.52679443359375 370.958740234375 C 345.59332275390625 327.6722717285156 337.90203857421875 287.9504699707031 328.2362976074219 247.13755798339844" stroke-width="0.0" fill="rgb(12, 12, 12)" opacity="0.99384576" stroke="rgb(0, 0, 0)" stroke-opacity="1.0" stroke-linecap="round" stroke-linejoin="round"/>
    <path d="M 255.26165771484375 384.45751953125 C 254.22296142578125 407.1227111816406 256.37335205078125 431.3963317871094 256.1844482421875 453.66455078125 C 257.9175109863281 463.01788330078125 267.6230163574219 459.4896545410156 276.9996643066406 461.22833251953125 C 280.0922546386719 459.31884765625 285.240234375 459.7672424316406 283.84393310546875 452.75457763671875 C 280.7012939453125 448.8826599121094 277.6272277832031 443.6870422363281 276.2667236328125 435.253662109375 C 275.4859619140625 417.4567565917969 276.06915283203125 403.76922607421875 279.53216552734375 387.8577880859375 C 272.5187683105469 382.0406188964844 264.67889404296875 383.5580139160156 255.26165771484375 384.45751953125" stroke-width="0.0" fill="rgb(25, 25, 25)" opacity="0.99266046" stroke="rgb(0, 0, 0)" stroke-opacity="1.0" stroke-linecap="round" stroke-linejoin="round"/>
    <path d="M 294.0603942871094 152.75160217285156 C 292.2081604003906 167.7960968017578 295.5496826171875 174.30506896972656 299.66473388671875 191.51368713378906 C 308.3035583496094 199.23855590820312 307.52557373046875 216.7072296142578 321.81756591796875 222.72442626953125 C 326.5742492675781 220.8185577392578 326.03497314453125 196.0081329345703 326.64398193359375 176.29322814941406 C 323.31085205078125 167.29747009277344 320.37164306640625 159.9729766845703 315.6184387207031 156.95849609375 C 310.4356689453125 155.02267456054688 305.7948913574219 151.73377990722656 294.0603942871094 152.75160217285156" stroke-width="0.0" fill="rgb(237, 237, 237)" opacity="0.95853496" stroke="rgb(0, 0, 0)" stroke-opacity="1.0" stroke-linecap="round" stroke-linejoin="round"/>
    <path d="M 273.81683349609375 157.50575256347656 C 270.0871276855469 161.00234985351562 266.4590148925781 161.79490661621094 268.523193359375 170.28665161132812 C 278.8713684082031 172.33172607421875 284.47808837890625 183.07125854492188 296.91363525390625 191.1563262939453 C 291.3709411621094 179.72369384765625 288.2581481933594 169.9522247314453 288.11083984375 154.9322509765625 C 286.5042419433594 152.8260498046875 279.5767517089844 152.76927185058594 273.81683349609375 157.50575256347656" stroke-width="0.0" fill="rgb(236, 236, 236)" opacity="0.9770084" stroke="rgb(0, 0, 0)" stroke-opacity="1.0" stroke-linecap="round" stroke-linejoin="round"/>
    <path d="M 328.64227294921875 383.18426513671875 C 317.0583801269531 382.3108215332031 302.3028869628906 382.5601806640625 294.87445068359375 385.552734375 C 299.301025390625 408.1763610839844 302.45257568359375 439.01971435546875 303.3897705078125 461.3334655761719 C 318.36676025390625 463.115478515625 330.77618408203125 463.3727722167969 331.7201843261719 458.6058654785156 C 333.5622253417969 428.7010498046875 331.0894470214844 404.7760314941406 328.64227294921875 383.18426513671875" stroke-width="0.0" fill="rgb(13, 13, 13)" opacity="0.9727128" stroke="rgb(0, 0, 0)" stroke-opacity="1.0" stroke-linecap="round" stroke-linejoin="round"/>
    <path d="M 130.7476043701172 422.8519287109375 C 128.75486755371094 424.32147216796875 130.6724853515625 433.081787109375 133.58726501464844 432.0892028808594 C 140.5594940185547 435.5882873535156 141.66123962402344 434.33868408203125 150.9785614013672 431.65972900390625 C 152.15895080566406 424.9500732421875 149.40234375 423.3937072753906 149.27578735351562 421.69915771484375 C 137.8125762939453 416.7231140136719 133.77743530273438 418.67864990234375 130.7476043701172 422.8519287109375" stroke-width="0.0" fill="rgb(42, 42, 42)" opacity="0.98817277" stroke="rgb(0, 0, 0)" stroke-opacity="1.0" stroke-linecap="round" stroke-linejoin="round"/>
    <path d="M 285.4302062988281 152.52406311035156 C 290.8592834472656 164.52377319335938 288.0256652832031 185.72137451171875 296.1238098144531 182.56411743164062 C 298.3274841308594 176.3348846435547 294.3788146972656 168.2559814453125 293.9464416503906 167.20240783691406 C 299.1257629394531 150.4513397216797 295.91217041015625 151.3481903076172 285.4302062988281 152.52406311035156" stroke-width="0.0" fill="rgb(82, 82, 82)" opacity="0.9417042" stroke="rgb(0, 0, 0)" stroke-opacity="1.0" stroke-linecap="round" stroke-linejoin="round"/>
    <path d="M 255.83583068847656 228.80560302734375 C 248.8950958251953 243.3765106201172 244.64146423339844 261.5100402832031 244.75389099121094 284.60662841796875 C 258.3291015625 279.3327941894531 264.53704833984375 277.57696533203125 275.05059814453125 277.81707763671875 C 278.69964599609375 265.4215393066406 270.0557556152344 257.70184326171875 271.2022399902344 240.6796417236328 C 267.1739807128906 233.69825744628906 265.16668701171875 232.10086059570312 255.83583068847656 228.80560302734375" stroke-width="0.0" fill="rgb(154, 154, 154)" opacity="1.0519011" stroke="rgb(0, 0, 0)" stroke-opacity="1.0" stroke-linecap="round" stroke-linejoin="round"/>
    <path d="M 259.18548583984375 -10.992929458618164 C 260.1523132324219 5.91380500793457 260.1853332519531 25.593151092529297 259.7313537597656 35.95993423461914 C 261.0067443847656 41.3628044128418 271.6299133300781 43.62960433959961 279.0049743652344 41.859962463378906 C 284.9757080078125 38.02805709838867 281.9338073730469 18.087827682495117 280.8650817871094 -9.115944862365723 C 275.3993225097656 -5.990967273712158 267.5329284667969 -5.1069536209106445 259.18548583984375 -10.992929458618164" stroke-width="0.0" fill="rgb(64, 64, 64)" opacity="0.97818786" stroke="rgb(0, 0, 0)" stroke-opacity="1.0" stroke-linecap="round" stroke-linejoin="round"/>
    <path d="M 339.8882751464844 280.99774169921875 C 340.1064147949219 295.50079345703125 345.5840148925781 307.96044921875 346.1054382324219 323.7847900390625 C 381.3304138183594 381.03643798828125 420.3045654296875 435.0944519042969 454.00286865234375 494.9329833984375 C 458.3421936035156 497.4399719238281 452.60284423828125 508.6473388671875 455.20892333984375 516.227783203125 C 469.5699462890625 520.41162109375 488.36993408203125 520.9891967773438 524.0900268554688 520.5089721679688 C 525.5337524414062 465.47076416015625 518.7973022460938 442.24920654296875 501.8162536621094 406.6939697265625 C 501.2502136230469 410.6122131347656 493.4137268066406 404.7410888671875 488.0431213378906 406.01678466796875 C 480.6182861328125 398.4657897949219 491.27197265625 392.8127746582031 478.0249328613281 395.2694396972656 C 462.8424377441406 385.2137756347656 446.1200256347656 367.00848388671875 426.4832458496094 353.3419189453125 C 406.9779052734375 330.6451721191406 380.8968505859375 311.7212219238281 360.6402587890625 288.0370178222656 C 355.18353271484375 284.2895202636719 347.365966796875 276.7290344238281 339.8882751464844 280.99774169921875" stroke-width="0.0" fill="rgb(109, 109, 109)" opacity="0.89392054" stroke="rgb(0, 0, 0)" stroke-opacity="1.0" stroke-linecap="round" stroke-linejoin="round"/>
    <path d="M 519.7752685546875 -2.2269113063812256 C 506.27374267578125 -4.3525824546813965 501.6377868652344 -5.10517692565918 498.1192626953125 -7.369222164154053 C 502.1319885253906 124.19287872314453 501.6607666015625 237.87144470214844 502.4579772949219 355.8442687988281 C 514.0281372070312 354.696044921875 498.18670654296875 331.6014099121094 517.365234375 338.40167236328125 C 519.4339599609375 224.2034454345703 519.6093139648438 112.10072326660156 519.7752685546875 -2.2269113063812256" stroke-width="0.0" fill="rgb(83, 83, 83)" opacity="0.9801576" stroke="rgb(0, 0, 0)" stroke-opacity="1.0" stroke-linecap="round" stroke-linejoin="round"/>
    <path d="M 275.0835876464844 281.3135070800781 C 260.9088134765625 284.26739501953125 266.900634765625 273.9561767578125 253.81373596191406 282.228515625 C 255.144775390625 285.14141845703125 251.8441619873047 287.8863220214844 247.44276428222656 292.41839599609375 C 252.4632568359375 328.0581359863281 238.25865173339844 335.9831848144531 246.26634216308594 369.93572998046875 C 255.11996459960938 372.5980224609375 258.9188232421875 363.93511962890625 268.2054138183594 364.0172424316406 C 272.010009765625 337.3389587402344 275.3974609375 310.0832824707031 275.0835876464844 281.3135070800781" stroke-width="0.0" fill="rgb(124, 124, 124)" opacity="0.7891231" stroke="rgb(0, 0, 0)" stroke-opacity="1.0" stroke-linecap="round" stroke-linejoin="round"/>
    <path d="M 333.5280456542969 443.1184997558594 C 334.1275329589844 448.3590087890625 333.6042175292969 462.4056701660156 335.2183532714844 461.9753723144531 C 370.0060729980469 462.81829833984375 400.4404602050781 461.4180603027344 428.61163330078125 460.8455505371094 C 421.7232666015625 452.2784423828125 433.244140625 450.19647216796875 416.1465759277344 443.01275634765625 C 392.24462890625 443.20635986328125 355.2545471191406 442.7064208984375 333.5280456542969 443.1184997558594" stroke-width="0.0" fill="rgb(108, 108, 108)" opacity="1.0064518" stroke="rgb(0, 0, 0)" stroke-opacity="1.0" stroke-linecap="round" stroke-linejoin="round"/>
    <path d="M 275.7876892089844 202.41798400878906 C 293.1800842285156 210.74667358398438 288.39080810546875 229.93678283691406 300.4307556152344 238.51937866210938 C 307.41796875 236.8269500732422 306.6772766113281 226.70065307617188 322.3452453613281 230.60134887695312 C 316.5804138183594 216.88888549804688 306.1243591308594 209.39830017089844 304.9369201660156 194.43028259277344 C 294.7491149902344 192.440673828125 287.8376159667969 194.94969177246094 275.7876892089844 202.41798400878906" stroke-width="0.0" fill="rgb(38, 38, 38)" opacity="0.9040258" stroke="rgb(0, 0, 0)" stroke-opacity="1.0" stroke-linecap="round" stroke-linejoin="round"/>
    <path d="M 276.6311340332031 204.03440856933594 C 265.36505126953125 205.14739990234375 259.7119140625 211.0220489501953 256.17010498046875 212.7490997314453 C 252.87472534179688 216.4180908203125 252.75062561035156 223.6818389892578 255.32420349121094 229.55096435546875 C 262.4270324707031 226.1490020751953 264.8941955566406 238.45361328125 273.2327575683594 238.10032653808594 C 280.094482421875 237.59222412109375 281.0298767089844 232.12261962890625 285.975341796875 230.3021240234375 C 285.53668212890625 223.73037719726562 288.7048034667969 213.37774658203125 282.1586608886719 207.9692840576172 C 281.27642822265625 204.43284606933594 274.1553649902344 203.21969604492188 276.6311340332031 204.03440856933594" stroke-width="0.0" fill="rgb(71, 71, 71)" opacity="1.0446414" stroke="rgb(0, 0, 0)" stroke-opacity="1.0" stroke-linecap="round" stroke-linejoin="round"/>
    <path d="M 436.0355224609375 102.09656524658203 C 440.849853515625 96.15547943115234 447.0199279785156 103.35733795166016 444.6355895996094 97.58540344238281 C 445.3877258300781 130.971435546875 452.04180908203125 154.37669372558594 440.3729248046875 149.423583984375 C 437.5869140625 148.9029998779297 439.4294738769531 116.0925064086914 436.0355224609375 102.09656524658203" stroke-width="0.0" fill="rgb(121, 121, 121)" opacity="0.9754302" stroke="rgb(0, 0, 0)" stroke-opacity="1.0" stroke-linecap="round" stroke-linejoin="round"/>
    <path d="M 5.045362949371338 518.2907104492188 C 11.4136323928833 518.5411987304688 23.620079040527344 518.3857421875 45.4271125793457 512.9796142578125 C 26.947994232177734 510.4843444824219 19.333389282226562 501.0583190917969 6.54724645614624 501.653076171875 C 7.344349384307861 499.04449462890625 6.2586822509765625 503.89398193359375 5.045362949371338 518.2907104492188" stroke-width="0.0" fill="rgb(29, 29, 29)" opacity="0.9763324" stroke="rgb(0, 0, 0)" stroke-opacity="1.0" stroke-linecap="round" stroke-linejoin="round"/>
    <path d="M 261.7071838378906 190.74070739746094 C 268.7112731933594 179.34425354003906 271.1290283203125 180.07351684570312 287.5257873535156 182.88943481445312 C 279.8052978515625 174.3148193359375 272.7769470214844 170.98451232910156 264.7995910644531 168.26332092285156 C 262.95343017578125 174.9506378173828 259.1916198730469 181.89871215820312 261.7071838378906 190.74070739746094" stroke-width="0.0" fill="rgb(106, 106, 106)" opacity="1.0249773" stroke="rgb(0, 0, 0)" stroke-opacity="1.0" stroke-linecap="round" stroke-linejoin="round"/>
    <path d="M 284.9103698730469 181.18284606933594 C 277.634765625 181.96873474121094 267.64703369140625 178.7693328857422 268.1935729980469 184.40187072753906 C 261.5685729980469 187.9096221923828 263.1496887207031 195.5348358154297 263.08709716796875 207.44985961914062 C 276.2361755371094 203.59129333496094 286.44073486328125 200.7156219482422 293.4642333984375 191.49183654785156 C 291.8319091796875 187.23724365234375 286.1061706542969 182.21141052246094 284.9103698730469 181.18284606933594" stroke-width="0.0" fill="rgb(47, 47, 47)" opacity="0.9620127" stroke="rgb(0, 0, 0)" stroke-opacity="1.0" stroke-linecap="round" stroke-linejoin="round"/>
    <path d="M -6.3716607093811035 471.78369140625 C 0.37038618326187134 484.0398864746094 6.753325462341309 488.9532470703125 6.904873371124268 502.445556640625 C 17.10527992248535 491.2928466796875 27.287336349487305 485.220703125 36.748451232910156 475.655517578125 C 25.515880584716797 473.5499572753906 11.826313972473145 476.5416564941406 -6.3716607093811035 471.78369140625" stroke-width="0.0" fill="rgb(108, 108, 108)" opacity="0.9949206" stroke="rgb(0, 0, 0)" stroke-opacity="1.0" stroke-linecap="round" stroke-linejoin="round"/>
    <path d="M 272.9992980957031 52.24972152709961 C 272.9584655761719 62.423465728759766 272.9393615722656 74.1581039428711 273.1316833496094 83.38774108886719 C 278.4823303222656 83.93120574951172 280.6801452636719 80.93208312988281 288.5180969238281 82.22107696533203 C 286.75616455078125 71.45242309570312 289.4621276855469 58.79175567626953 287.1460876464844 52.55651092529297 C 282.3801574707031 54.43424606323242 278.4147644042969 50.79612731933594 272.9992980957031 52.24972152709961" stroke-width="0.0" fill="rgb(106, 106, 106)" opacity="0.98637044" stroke="rgb(0, 0, 0)" stroke-opacity="1.0" stroke-linecap="round" stroke-linejoin="round"/>
    <path d="M 313.6772155761719 234.10049438476562 C 302.3062438964844 237.16639709472656 297.9013977050781 248.92042541503906 302.916748046875 260.6720275878906 C 301.1440734863281 262.5665588378906 309.41009521484375 263.888916015625 316.8136901855469 268.8465576171875 C 317.89544677734375 250.73724365234375 307.23968505859375 247.938232421875 313.6772155761719 234.10049438476562" stroke-width="0.0" fill="rgb(117, 117, 117)" opacity="1.0773412" stroke="rgb(0, 0, 0)" stroke-opacity="1.0" stroke-linecap="round" stroke-linejoin="round"/>
    <path d="M 288.6309814453125 93.36421203613281 C 281.7507629394531 95.30669403076172 280.9369201660156 100.63504791259766 277.1332702636719 96.51673126220703 C 276.4833984375 102.14871978759766 276.9327087402344 109.6488265991211 277.08770751953125 116.17125701904297 C 281.7869873046875 115.94739532470703 289.3182678222656 116.79118347167969 289.83953857421875 114.970458984375 C 290.16815185546875 107.0443115234375 290.6441650390625 95.27275848388672 288.6309814453125 93.36421203613281" stroke-width="0.0" fill="rgb(139, 139, 139)" opacity="1.0041622" stroke="rgb(0, 0, 0)" stroke-opacity="1.0" stroke-linecap="round" stroke-linejoin="round"/>
    <path d="M -1.5538060665130615 477.2293395996094 C -6.203124046325684 488.1247253417969 -2.3051505088806152 499.8092041015625 -1.6061737537384033 517.8185424804688 C 1.3245534896850586 518.6625366210938 4.38962984085083 519.120361328125 5.2684454917907715 521.474365234375 C 7.5728864669799805 495.7980041503906 9.504097938537598 484.38665771484375 -1.5538060665130615 477.2293395996094" stroke-width="0.0" fill="rgb(36, 36, 36)" opacity="0.9654354" stroke="rgb(0, 0, 0)" stroke-opacity="1.0" stroke-linecap="round" stroke-linejoin="round"/>
    <path d="M 353.4101867675781 126.80594635009766 C 350.2005615234375 134.17181396484375 351.1065673828125 136.3838348388672 357.5714416503906 140.39370727539062 C 360.4467468261719 142.5516357421875 365.41705322265625 139.8350067138672 366.7542419433594 137.82028198242188 C 370.2415771484375 133.84344482421875 369.1703186035156 132.22027587890625 367.7046203613281 127.89446258544922 C 363.2020568847656 125.9977035522461 356.8724670410156 127.53186798095703 353.4101867675781 126.80594635009766" stroke-width="0.0" fill="rgb(183, 183, 183)" opacity="0.87192494" stroke="rgb(0, 0, 0)" stroke-opacity="1.0" stroke-linecap="round" stroke-linejoin="round"/>
    <path d="M 273.0099792480469 83.81932067871094 C 273.3931579589844 89.25605010986328 271.65069580078125 94.85076904296875 275.4247131347656 97.1039810180664 C 282.9627380371094 96.84737396240234 285.2741394042969 98.05181121826172 288.3765563964844 93.17821502685547 C 288.45013427734375 92.95258331298828 287.7156677246094 86.1368179321289 288.09051513671875 85.07341003417969 C 282.22869873046875 84.94283294677734 277.5605773925781 84.38137817382812 273.0099792480469 83.81932067871094" stroke-width="0.0" fill="rgb(118, 118, 118)" opacity="1.0178754" stroke="rgb(0, 0, 0)" stroke-opacity="1.0" stroke-linecap="round" stroke-linejoin="round"/>
    <path d="M 290.2355651855469 455.6705322265625 C 285.57220458984375 450.3429870605469 280.58709716796875 449.22064208984375 278.23748779296875 442.7157287597656 C 268.64337158203125 445.3941650390625 260.5943603515625 448.55609130859375 257.3612060546875 444.5114440917969 C 255.0851287841797 457.71136474609375 253.3240203857422 459.4360046386719 260.92437744140625 461.0311584472656 C 267.9576110839844 460.754638671875 278.10296630859375 462.1044921875 284.2008056640625 462.35107421875 C 287.0177001953125 460.411865234375 290.9633483886719 458.01556396484375 290.2355651855469 455.6705322265625" stroke-width="0.0" fill="rgb(14, 14, 14)" opacity="1.038418" stroke="rgb(0, 0, 0)" stroke-opacity="1.0" stroke-linecap="round" stroke-linejoin="round"/>
    <path d="M 352.576416015625 304.4038391113281 C 346.8741149902344 314.75689697265625 347.19769287109375 323.755615234375 351.0893249511719 328.7953186035156 C 377.431396484375 373.94342041015625 407.271728515625 415.3000793457031 434.2297668457031 461.27960205078125 C 442.3462829589844 463.4332580566406 464.5638122558594 461.4244384765625 482.62725830078125 461.942626953125 C 440.08807373046875 406.1376953125 390.8123779296875 360.6824645996094 352.576416015625 304.4038391113281" stroke-width="0.0" fill="rgb(129, 129, 129)" opacity="1.0003958" stroke="rgb(0, 0, 0)" stroke-opacity="1.0" stroke-linecap="round" stroke-linejoin="round"/>
    <path d="M 259.0918273925781 -4.265941619873047 C 261.4168701171875 7.800632953643799 258.2076416015625 17.647802352905273 261.1251525878906 25.223495483398438 C 264.8121032714844 21.600122451782227 273.9006652832031 23.400251388549805 281.9528503417969 22.967880249023438 C 283.3915100097656 12.750367164611816 278.934814453125 8.813971519470215 282.1642150878906 -4.5511322021484375 C 273.3818054199219 -1.2741221189498901 266.65924072265625 -0.5355910658836365 259.0918273925781 -4.265941619873047" stroke-width="0.0" fill="rgb(96, 96, 96)" opacity="0.9972603" stroke="rgb(0, 0, 0)" stroke-opacity="1.0" stroke-linecap="round" stroke-linejoin="round"/>
    <path d="M 258.9814147949219 23.933197021484375 C 258.3314514160156 34.942115783691406 258.86810302734375 34.365501403808594 262.88165283203125 40.88522720336914 C 271.63934326171875 43.63975143432617 279.8275146484375 42.116416931152344 280.6697082519531 40.2885856628418 C 283.43414306640625 33.438621520996094 281.7585754394531 25.03915023803711 280.67999267578125 23.744007110595703 C 274.196044921875 23.957225799560547 262.1615295410156 23.80575180053711 258.9814147949219 23.933197021484375" stroke-width="0.0" fill="rgb(90, 90, 90)" opacity="1.0125176" stroke="rgb(0, 0, 0)" stroke-opacity="1.0" stroke-linecap="round" stroke-linejoin="round"/>
    <path d="M 282.70440673828125 201.76104736328125 C 295.9725341796875 195.215576171875 295.88287353515625 214.58148193359375 312.6253967285156 218.64622497558594 C 316.1885681152344 205.15969848632812 310.1252136230469 200.04885864257812 304.8900451660156 193.93072509765625 C 293.7485656738281 193.2464599609375 288.15606689453125 193.0424041748047 282.70440673828125 201.76104736328125" stroke-width="0.0" fill="rgb(27, 27, 27)" opacity="0.9209665" stroke="rgb(0, 0, 0)" stroke-opacity="1.0" stroke-linecap="round" stroke-linejoin="round"/>
    <path d="M 314.2018737792969 223.649169921875 C 300.2260437011719 224.87452697753906 297.0831298828125 237.18896484375 291.9964599609375 243.28204345703125 C 291.3701477050781 256.46044921875 298.7945861816406 255.35263061523438 301.4174499511719 258.11541748046875 C 304.7193603515625 271.0692138671875 297.25616455078125 275.8606262207031 303.3799743652344 277.52490234375 C 301.02593994140625 283.9894104003906 298.2351379394531 286.8349609375 292.4576110839844 286.562744140625 C 300.78924560546875 295.5737609863281 293.39825439453125 311.4364318847656 300.623046875 322.7522888183594 C 300.71368408203125 340.85333251953125 302.59674072265625 356.2168273925781 299.1876525878906 366.8009948730469 C 302.3222961425781 370.1250915527344 300.1390686035156 377.90557861328125 305.33380126953125 383.1213684082031 C 317.6763000488281 382.30792236328125 334.46038818359375 385.455322265625 348.5684814453125 381.86419677734375 C 351.2308349609375 379.4268798828125 353.7383117675781 383.9413146972656 352.8817138671875 373.3156433105469 C 343.9471740722656 326.394775390625 338.5811767578125 275.8433837890625 327.0836486816406 238.1780548095703 C 321.34344482421875 227.0609588623047 309.23626708984375 234.894287109375 314.2018737792969 223.649169921875" stroke-width="0.0" fill="rgb(12, 12, 12)" opacity="0.66295934" stroke="rgb(0, 0, 0)" stroke-opacity="1.0" stroke-linecap="round" stroke-linejoin="round"/>
  </g>
</svg>
