<?xml version="1.0" ?>
<svg xmlns="http://www.w3.org/2000/svg" version="1.1" width="512" height="512">
  <defs/>
  <g>
    <path d="M -3.2627153396606445 -3.7690670490264893 C -2.2758023738861084 170.3333282470703 -0.9443439841270447 340.6666564941406 -0.3892665207386017 518.5145263671875 C 169.86944580078125 519.2048950195312 339.8724670410156 520.2470092773438 518.7587890625 521.03955078125 C 519.1450805664062 341.29095458984375 519.3456420898438 170.66798400878906 519.5126953125 -3.342751979827881 C 340.6666564941406 -3.756546974182129 170.3333282470703 -3.833435535430908 -3.2627153396606445 -3.7690670490264893" stroke-width="0.0" fill="rgb(214, 228, 209)" opacity="1.0" stroke="rgb(0, 0, 0)" stroke-opacity="1.0" stroke-linecap="round" stroke-linejoin="round"/>
    <path d="M -7.2515950202941895 228.669921875 C -6.4711480140686035 325.0389404296875 -6.845953941345215 418.0928955078125 -6.955929756164551 521.46435546875 C 170.66429138183594 521.5006713867188 341.2387390136719 521.3648071289062 519.5603637695312 520.8856201171875 C 520.1525268554688 425.8378601074219 521.3984985351562 340.7176513671875 521.736083984375 263.4172058105469 C 429.919921875 256.7309265136719 334.39117431640625 258.72119140625 241.85496520996094 255.30079650878906 C 202.5758514404297 249.1743621826172 161.00875854492188 237.67083740234375 108.9596176147461 232.05392456054688 C 76.60782623291016 229.4221954345703 38.50655746459961 232.98609924316406 -7.2515950202941895 228.669921875" stroke-width="0.0" fill="rgb(115, 136, 158)" opacity="1.0" stroke="rgb(0, 0, 0)" stroke-opacity="1.0" stroke-linecap="round" stroke-linejoin="round"/>
    <path d="M -6.046927452087402 214.1053466796875 C -3.7581653594970703 217.53024291992188 -5.876017093658447 224.5927734375 1.2005499601364136 228.72108459472656 C 25.994789123535156 220.63397216796875 28.51335334777832 236.1166229248047 54.82070541381836 224.47288513183594 C 39.3326530456543 217.24037170410156 17.087461471557617 211.56935119628906 -6.046927452087402 214.1053466796875" stroke-width="0.0" fill="rgb(170, 191, 190)" opacity="1.0" stroke="rgb(0, 0, 0)" stroke-opacity="1.0" stroke-linecap="round" stroke-linejoin="round"/>
    <path d="M 242.30026245117188 332.5655212402344 C 227.18307495117188 339.3671569824219 221.80630493164062 344.3917541503906 212.84576416015625 337.6644592285156 C 193.9293975830078 368.0859375 196.11497497558594 381.6240234375 192.82781982421875 402.9777526855469 C 166.19247436523438 437.9705810546875 145.85076904296875 476.4761657714844 117.43887329101562 518.5269775390625 C 182.2303466796875 522.10302734375 251.2983856201172 522.1189575195312 315.84820556640625 517.8963623046875 C 292.2154235839844 476.953369140625 275.8669128417969 440.141845703125 252.89834594726562 409.1092529296875 C 253.87831115722656 398.1723937988281 254.87875366210938 384.6702880859375 252.4165496826172 368.5373229980469 C 248.63429260253906 358.2289123535156 242.15591430664062 351.1837158203125 235.10848999023438 347.6657409667969 C 242.79112243652344 340.5746765136719 246.94711303710938 337.7620544433594 242.30026245117188 332.5655212402344" stroke-width="0.0" fill="rgb(171, 177, 179)" opacity="1.0" stroke="rgb(0, 0, 0)" stroke-opacity="1.0" stroke-linecap="round" stroke-linejoin="round"/>
    <path d="M 246.04534912109375 337.200439453125 C 241.9286346435547 339.3328857421875 237.843017578125 344.34979248046875 234.5828399658203 348.3233337402344 C 245.89468383789062 353.11181640625 236.30972290039062 355.5929260253906 246.28619384765625 349.5379333496094 C 248.95603942871094 346.86187744140625 248.62762451171875 338.4019470214844 246.04534912109375 337.200439453125" stroke-width="0.0" fill="rgb(196, 205, 201)" opacity="1.0" stroke="rgb(0, 0, 0)" stroke-opacity="1.0" stroke-linecap="round" stroke-linejoin="round"/>
    <path d="M 222.46652221679688 309.3958435058594 C 229.23492431640625 313.4360656738281 226.3000946044922 319.6077575683594 234.24578857421875 315.5978698730469 C 234.72671508789062 318.34027099609375 233.2787322998047 325.507568359375 237.18423461914062 326.8233337402344 C 241.74005126953125 319.8304748535156 246.59007263183594 316.84912109375 266.4578552246094 313.63763427734375 C 250.9377899169922 315.1551818847656 243.4607696533203 312.466552734375 245.83087158203125 312.9905090332031 C 292.77294921875 308.7601318359375 282.7357482910156 317.5767517089844 300.94427490234375 316.3829345703125 C 304.6684875488281 325.51513671875 300.6502685546875 320.2502136230469 292.6105651855469 322.59613037109375 C 302.15948486328125 328.1379699707031 294.662841796875 321.7020568847656 293.9033203125 329.8808898925781 C 287.8304138183594 328.43438720703125 261.2264709472656 331.6361999511719 250.91433715820312 330.1448059082031 C 245.7096405029297 342.2745361328125 257.1352233886719 347.36883544921875 258.0080871582031 361.239501953125 C 259.2864074707031 378.94891357421875 259.909423828125 394.77777099609375 257.86181640625 412.4641418457031 C 277.6892395019531 445.0538330078125 295.9039001464844 479.0059509277344 316.5350646972656 517.5130004882812 C 374.921875 521.5068359375 442.773193359375 519.4838256835938 519.2051391601562 519.06787109375 C 519.2963256835938 444.05340576171875 519.3286743164062 377.0390930175781 520.8992919921875 310.30377197265625 C 408.4523620605469 308.5563049316406 317.844482421875 310.0020751953125 222.46652221679688 309.3958435058594" stroke-width="0.0" fill="rgb(115, 136, 158)" opacity="1.0" stroke="rgb(0, 0, 0)" stroke-opacity="1.0" stroke-linecap="round" stroke-linejoin="round"/>
    <path d="M -8.72421932220459 304.4557800292969 C -9.514552116394043 368.7633056640625 -9.018587112426758 438.2662353515625 -8.20177936553955 518.9542846679688 C 39.57901382446289 519.2044067382812 79.67473602294922 519.2103881835938 119.08087158203125 513.8851318359375 C 144.01255798339844 475.6020202636719 167.0395965576172 438.3636779785156 190.8742218017578 401.8225402832031 C 194.4293670654297 386.9411926269531 183.45460510253906 397.3251647949219 189.3919219970703 376.61041259765625 C 196.1400909423828 371.4456787109375 195.44122314453125 363.4871826171875 202.15695190429688 351.878173828125 C 194.98646545410156 348.22021484375 203.4467315673828 345.75103759765625 199.27354431152344 343.1159362792969 C 198.93760681152344 338.7042236328125 207.69570922851562 341.76800537109375 207.31015014648438 336.11297607421875 C 202.7107696533203 326.4678039550781 212.37940979003906 332.6803894042969 207.7268829345703 318.96136474609375 C 187.43020629882812 316.6361999511719 171.4164276123047 317.7115783691406 157.56520080566406 319.4033508300781 C 148.22364807128906 316.1928405761719 150.6514129638672 318.9430847167969 148.44281005859375 311.9997863769531 C 150.15594482421875 307.1249084472656 155.36990356445312 312.846435546875 155.2772979736328 306.77099609375 C 106.0886001586914 305.6427001953125 53.48958206176758 305.3677062988281 -8.72421932220459 304.4557800292969" stroke-width="0.0" fill="rgb(124, 145, 164)" opacity="1.0" stroke="rgb(0, 0, 0)" stroke-opacity="1.0" stroke-linecap="round" stroke-linejoin="round"/>
    <path d="M -9.647863388061523 226.81227111816406 C -7.648451328277588 255.41604614257812 -7.870849609375 279.3980407714844 -4.637510299682617 302.0753173828125 C 70.84395599365234 303.0093994140625 143.99554443359375 304.3613586425781 214.71340942382812 303.5529479980469 C 224.97152709960938 302.6078796386719 225.3387451171875 303.8207702636719 227.63331604003906 296.4461364746094 C 228.098876953125 293.54583740234375 228.01649475097656 281.0180969238281 224.3647918701172 284.03216552734375 C 210.35818481445312 274.5657653808594 193.38525390625 268.9284973144531 180.628662109375 258.17144775390625 C 184.80606079101562 257.3882751464844 188.16806030273438 255.69911193847656 193.58084106445312 252.89048767089844 C 187.78701782226562 252.3699493408203 181.61184692382812 252.58848571777344 181.92417907714844 250.3893585205078 C 189.6039276123047 250.7818603515625 197.01649475097656 247.43443298339844 207.9416046142578 248.68109130859375 C 169.0017852783203 231.9662322998047 131.39132690429688 236.27069091796875 103.05677032470703 226.35763549804688 C 64.06300354003906 222.72584533691406 46.87692642211914 234.99510192871094 -9.647863388061523 226.81227111816406" stroke-width="0.0" fill="rgb(87, 109, 140)" opacity="1.0" stroke="rgb(0, 0, 0)" stroke-opacity="1.0" stroke-linecap="round" stroke-linejoin="round"/>
    <path d="M 268.8080139160156 280.8586120605469 C 264.4931640625 277.3099060058594 266.3350830078125 285.0451354980469 265.8961181640625 295.5157775878906 C 277.84173583984375 289.2315368652344 258.05035400390625 299.3307189941406 281.93414306640625 305.1675720214844 C 355.5042419433594 306.8241882324219 431.35650634765625 308.850830078125 518.958251953125 306.5205383300781 C 520.763671875 295.1938171386719 521.1044311523438 278.3611145019531 518.6036987304688 269.02850341796875 C 493.690185546875 270.53607177734375 490.185302734375 255.97499084472656 467.7063903808594 256.3760070800781 C 415.40301513671875 257.86328125 346.8474426269531 258.2543640136719 308.0851745605469 253.42674255371094 C 287.2131042480469 258.91461181640625 272.110595703125 267.93585205078125 268.8080139160156 280.8586120605469" stroke-width="0.0" fill="rgb(78, 99, 130)" opacity="1.0" stroke="rgb(0, 0, 0)" stroke-opacity="1.0" stroke-linecap="round" stroke-linejoin="round"/>
    <path d="M 247.21420288085938 258.43316650390625 C 254.2574920654297 264.06170654296875 264.8434143066406 266.59130859375 270.5527038574219 271.3377685546875 C 282.9530029296875 267.12762451171875 287.21044921875 262.2918395996094 293.9339904785156 257.1863708496094 C 264.1366271972656 250.39610290527344 271.8703308105469 255.03256225585938 247.21420288085938 258.43316650390625" stroke-width="0.0" fill="rgb(151, 172, 184)" opacity="1.0" stroke="rgb(0, 0, 0)" stroke-opacity="1.0" stroke-linecap="round" stroke-linejoin="round"/>
    <path d="M 229.1983642578125 336.72216796875 C 221.33758544921875 345.8844299316406 234.74700927734375 331.6654357910156 244.88595581054688 335.33404541015625 C 245.83340454101562 340.51470947265625 243.43685913085938 332.3470153808594 244.59957885742188 330.8591003417969 C 234.76414489746094 325.95745849609375 230.01246643066406 326.3226623535156 229.1983642578125 336.72216796875" stroke-width="0.0" fill="rgb(96, 86, 94)" opacity="1.0" stroke="rgb(0, 0, 0)" stroke-opacity="1.0" stroke-linecap="round" stroke-linejoin="round"/>
    <path d="M 257.95001220703125 387.5393981933594 C 255.16624450683594 387.79736328125 256.3134460449219 394.930908203125 255.79978942871094 400.2022705078125 C 258.09295654296875 399.1271057128906 261.5502014160156 403.5308837890625 260.6431884765625 402.61962890625 C 261.171142578125 397.4906005859375 263.14373779296875 389.0283203125 257.95001220703125 387.5393981933594" stroke-width="0.0" fill="rgb(125, 131, 143)" opacity="1.0" stroke="rgb(0, 0, 0)" stroke-opacity="1.0" stroke-linecap="round" stroke-linejoin="round"/>
    <path d="M 232.6173858642578 332.5346374511719 C 226.26979064941406 334.2248229980469 235.2613983154297 338.0914611816406 222.6099853515625 343.2411193847656 C 218.67930603027344 340.9362487792969 216.6969451904297 335.18499755859375 210.5514373779297 339.7121887207031 C 198.5784454345703 364.7913513183594 195.5164337158203 373.8392639160156 192.9141082763672 406.640625 C 194.683349609375 412.59967041015625 195.5060272216797 421.1487731933594 202.6844024658203 424.3606872558594 C 212.6659393310547 431.4990234375 229.90960693359375 424.9305725097656 239.50698852539062 433.9527282714844 C 253.7025604248047 432.4991455078125 247.56507873535156 426.0684509277344 251.258056640625 419.8985900878906 C 253.56712341308594 414.1199645996094 253.80032348632812 390.5609436035156 252.4495391845703 378.7403259277344 C 251.997314453125 369.45562744140625 249.49789428710938 364.2947998046875 245.79779052734375 357.02490234375 C 241.04635620117188 352.9577331542969 235.0303497314453 350.1069030761719 233.91358947753906 347.2790832519531 C 236.5631866455078 345.3536376953125 239.36526489257812 343.2922668457031 241.32412719726562 337.9855651855469 C 239.39549255371094 331.6152038574219 236.6633758544922 330.72930908203125 232.6173858642578 332.5346374511719" stroke-width="0.0" fill="rgb(115, 118, 129)" opacity="1.0" stroke="rgb(0, 0, 0)" stroke-opacity="1.0" stroke-linecap="round" stroke-linejoin="round"/>
    <path d="M 139.8845977783203 484.2687683105469 C 133.40113830566406 493.7181701660156 125.7952880859375 501.8169250488281 120.21831512451172 517.6762084960938 C 130.86570739746094 519.7181396484375 136.04779052734375 519.081298828125 136.85720825195312 513.554443359375 C 139.95713806152344 500.63763427734375 145.64071655273438 497.3415222167969 139.8845977783203 484.2687683105469" stroke-width="0.0" fill="rgb(186, 192, 195)" opacity="1.0" stroke="rgb(0, 0, 0)" stroke-opacity="1.0" stroke-linecap="round" stroke-linejoin="round"/>
    <path d="M 182.515380859375 417.9105529785156 C 177.18682861328125 420.09405517578125 174.21282958984375 429.11004638671875 169.937744140625 435.27459716796875 C 178.60494995117188 438.4922180175781 182.9084930419922 431.7147216796875 185.38995361328125 425.966064453125 C 185.292724609375 423.1360778808594 185.1591796875 419.85809326171875 182.515380859375 417.9105529785156" stroke-width="0.0" fill="rgb(196, 205, 201)" opacity="1.0" stroke="rgb(0, 0, 0)" stroke-opacity="1.0" stroke-linecap="round" stroke-linejoin="round"/>
    <path d="M 256.2346496582031 411.9320068359375 C 251.32713317871094 438.5467224121094 252.51234436035156 450.5101318359375 244.2279815673828 468.0536804199219 C 243.54281616210938 486.9383850097656 248.20791625976562 496.66497802734375 247.1395263671875 519.8216552734375 C 272.2944641113281 520.685791015625 296.57568359375 524.1097412109375 312.7584533691406 513.7518310546875 C 293.8857116699219 476.9672546386719 275.8255310058594 445.32977294921875 256.2346496582031 411.9320068359375" stroke-width="0.0" fill="rgb(171, 177, 179)" opacity="1.0" stroke="rgb(0, 0, 0)" stroke-opacity="1.0" stroke-linecap="round" stroke-linejoin="round"/>
    <path d="M 232.62571716308594 425.80291748046875 C 228.25872802734375 430.4478759765625 223.00399780273438 426.0882873535156 219.8592987060547 428.17327880859375 C 215.2163543701172 434.00885009765625 220.34283447265625 446.7206726074219 213.01817321777344 446.89495849609375 C 210.43569946289062 442.0909423828125 207.5128631591797 449.23663330078125 203.38226318359375 446.2934875488281 C 195.6238250732422 466.053466796875 191.58106994628906 488.9625244140625 184.79615783691406 518.7767333984375 C 203.91928100585938 521.8478393554688 230.45985412597656 521.43701171875 247.9315185546875 520.5372924804688 C 247.0426788330078 476.9722900390625 237.9456329345703 454.8490905761719 232.62571716308594 425.80291748046875" stroke-width="0.0" fill="rgb(115, 118, 129)" opacity="1.0" stroke="rgb(0, 0, 0)" stroke-opacity="1.0" stroke-linecap="round" stroke-linejoin="round"/>
    <path d="M 195.40463256835938 420.885498046875 C 187.6148223876953 421.0891418457031 185.157470703125 421.6864318847656 183.85496520996094 429.79498291015625 C 184.86822509765625 438.6166076660156 181.4413299560547 452.8245544433594 183.6303253173828 460.2027587890625 C 195.02505493164062 451.57391357421875 186.9602508544922 446.2791442871094 194.5140380859375 460.0664978027344 C 198.45285034179688 440.2967224121094 199.25039672851562 431.5402526855469 195.40463256835938 420.885498046875" stroke-width="0.0" fill="rgb(52, 51, 63)" opacity="1.0" stroke="rgb(0, 0, 0)" stroke-opacity="1.0" stroke-linecap="round" stroke-linejoin="round"/>
    <path d="M 477.94873046875 520.968017578125 C 485.3140563964844 522.0187377929688 495.2068786621094 521.964599609375 517.4302368164062 521.5478515625 C 519.2754516601562 509.68280029296875 518.1700439453125 503.9815368652344 517.6847534179688 498.8175048828125 C 504.8995666503906 498.7200012207031 494.9372253417969 499.9521484375 488.8620910644531 499.7908935546875 C 488.1407165527344 503.3374328613281 486.242919921875 507.265625 477.94873046875 520.968017578125" stroke-width="0.0" fill="rgb(52, 51, 63)" opacity="1.0" stroke="rgb(0, 0, 0)" stroke-opacity="1.0" stroke-linecap="round" stroke-linejoin="round"/>
    <path d="M 200.3634033203125 425.9484558105469 C 203.61550903320312 434.9901428222656 199.433349609375 440.9425964355469 204.68215942382812 445.3303527832031 C 211.58839416503906 444.2950439453125 207.75128173828125 436.29473876953125 210.40277099609375 429.16015625 C 212.71900939941406 438.5277404785156 210.74530029296875 446.14666748046875 213.1296844482422 445.0379943847656 C 222.29196166992188 442.829833984375 213.09197998046875 435.615966796875 219.23715209960938 428.5175476074219 C 213.43252563476562 428.5296936035156 205.917724609375 426.0740966796875 200.3634033203125 425.9484558105469" stroke-width="0.0" fill="rgb(65, 65, 81)" opacity="1.0" stroke="rgb(0, 0, 0)" stroke-opacity="1.0" stroke-linecap="round" stroke-linejoin="round"/>
    <path d="M -3.4080922603607178 257.003173828125 C -4.033451080322266 270.9019775390625 -5.972174644470215 286.31109619140625 -9.06851577758789 301.1865234375 C 82.00645446777344 302.93780517578125 178.2971649169922 305.1205139160156 246.02804565429688 301.5368347167969 C 235.42453002929688 284.52215576171875 209.22752380371094 278.1803283691406 191.39906311035156 269.0658874511719 C 165.89212036132812 260.76324462890625 143.11300659179688 252.95623779296875 106.64921569824219 248.45216369628906 C 77.13560485839844 245.60362243652344 38.14791488647461 251.6943359375 -3.4080922603607178 257.003173828125" stroke-width="0.0" fill="rgb(78, 99, 130)" opacity="1.0" stroke="rgb(0, 0, 0)" stroke-opacity="1.0" stroke-linecap="round" stroke-linejoin="round"/>
    <path d="M 340.6639404296875 262.7832336425781 C 350.5830993652344 266.5990295410156 350.7976989746094 280.3675231933594 358.7008972167969 289.6700134277344 C 369.766845703125 288.6197814941406 386.7944641113281 288.9953918457031 403.03173828125 289.9475402832031 C 412.56640625 293.19219970703125 420.6470947265625 299.76953125 426.0870666503906 306.4425048828125 C 452.4324035644531 308.4147644042969 484.7486572265625 306.1424560546875 519.6475830078125 307.40777587890625 C 518.94921875 291.53228759765625 520.565185546875 276.95794677734375 518.925048828125 265.7769775390625 C 496.7989196777344 273.89569091796875 492.67327880859375 259.5556945800781 477.59271240234375 256.43255615234375 C 427.09307861328125 252.3970184326172 402.3227844238281 260.9115905761719 385.0401611328125 253.78219604492188 C 360.3088684082031 254.0022430419922 350.2728576660156 258.60693359375 340.6639404296875 262.7832336425781" stroke-width="0.0" fill="rgb(104, 125, 152)" opacity="1.0" stroke="rgb(0, 0, 0)" stroke-opacity="1.0" stroke-linecap="round" stroke-linejoin="round"/>
    <path d="M 17.43536376953125 227.64608764648438 C -16.792835235595703 227.5673370361328 -10.925691604614258 238.70411682128906 -5.889556407928467 255.9716033935547 C 36.8309440612793 251.36605834960938 76.4421157836914 245.4783477783203 107.12372589111328 247.30682373046875 C 155.60653686523438 256.0527038574219 191.99880981445312 266.2890930175781 225.67306518554688 284.2965087890625 C 239.2620086669922 279.0690002441406 247.81968688964844 277.0234680175781 264.7954406738281 276.1433410644531 C 272.1670837402344 268.8367004394531 283.58056640625 269.4669494628906 289.8738098144531 259.095703125 C 277.8245544433594 255.94891357421875 272.7960510253906 264.02081298828125 256.877685546875 260.39154052734375 C 227.05372619628906 250.8413848876953 200.95425415039062 241.95054626464844 160.86338806152344 233.2960662841797 C 131.75799560546875 233.25941467285156 122.70125579833984 231.12765502929688 88.99853515625 223.04690551757812 C 59.48256301879883 223.78048706054688 50.88241195678711 233.46969604492188 17.43536376953125 227.64608764648438" stroke-width="0.0" fill="rgb(115, 136, 158)" opacity="1.0" stroke="rgb(0, 0, 0)" stroke-opacity="1.0" stroke-linecap="round" stroke-linejoin="round"/>
    <path d="M 378.2711486816406 294.6226501464844 C 376.18072509765625 300.0732421875 381.954345703125 300.2822570800781 379.5325012207031 306.3919982910156 C 393.00677490234375 308.70697021484375 416.4475402832031 308.8292236328125 426.85711669921875 307.2543640136719 C 418.7471008300781 297.891845703125 410.8724670410156 291.67730712890625 401.51751708984375 289.236328125 C 390.6989440917969 289.50146484375 385.8994445800781 293.27386474609375 378.2711486816406 294.6226501464844" stroke-width="0.0" fill="rgb(78, 99, 130)" opacity="1.0" stroke="rgb(0, 0, 0)" stroke-opacity="1.0" stroke-linecap="round" stroke-linejoin="round"/>
    <path d="M 139.4464111328125 488.2982482910156 C 155.70753479003906 486.862548828125 172.94898986816406 486.6252136230469 190.14686584472656 487.29705810546875 C 191.8306884765625 486.6012268066406 194.56146240234375 480.4347839355469 192.1976318359375 474.83197021484375 C 176.7544708251953 474.66705322265625 159.89407348632812 476.1096496582031 145.96714782714844 473.324951171875 C 143.80523681640625 477.869873046875 138.5784454345703 484.58050537109375 139.4464111328125 488.2982482910156" stroke-width="0.0" fill="rgb(196, 205, 201)" opacity="1.0" stroke="rgb(0, 0, 0)" stroke-opacity="1.0" stroke-linecap="round" stroke-linejoin="round"/>
    <path d="M 357.2698974609375 288.31402587890625 C 359.8009338378906 284.7449645996094 354.3970642089844 282.3320617675781 352.6102600097656 279.5322265625 C 348.6809997558594 260.2225036621094 329.22747802734375 257.3781433105469 310.93768310546875 248.42547607421875 C 293.68780517578125 255.2036895751953 284.8363952636719 269.94073486328125 261.5438232421875 278.275390625 C 252.44749450683594 275.706298828125 241.31533813476562 279.9608154296875 221.69818115234375 283.8806457519531 C 241.93357849121094 291.28125 259.4405212402344 299.1329345703125 273.6422424316406 299.92144775390625 C 300.1728820800781 299.8603820800781 327.3525085449219 297.2143249511719 351.36236572265625 295.1092224121094 C 361.5984802246094 292.1875305175781 368.1891174316406 289.12841796875 357.2698974609375 288.31402587890625" stroke-width="0.0" fill="rgb(104, 125, 152)" opacity="1.0" stroke="rgb(0, 0, 0)" stroke-opacity="1.0" stroke-linecap="round" stroke-linejoin="round"/>
    <path d="M -2.12111234664917 495.703125 C -2.183236837387085 501.1833801269531 -4.19063663482666 506.66998291015625 -4.686145782470703 521.6968383789062 C 42.84228515625 521.4973754882812 82.01461791992188 521.1452026367188 127.35346984863281 512.2608642578125 C 85.40238189697266 507.85784912109375 83.6529769897461 491.2526550292969 50.825565338134766 490.949951171875 C 38.59922790527344 490.6075744628906 14.222317695617676 492.7843933105469 -2.12111234664917 495.703125" stroke-width="0.0" fill="rgb(68, 78, 99)" opacity="1.0" stroke="rgb(0, 0, 0)" stroke-opacity="1.0" stroke-linecap="round" stroke-linejoin="round"/>
    <path d="M 486.1029357910156 503.2737121582031 C 450.7337951660156 501.6025390625 422.856201171875 504.6864929199219 398.45281982421875 503.92047119140625 C 384.71697998046875 505.099853515625 377.9577941894531 504.5724792480469 375.48443603515625 519.0026245117188 C 408.1063232421875 521.1179809570312 445.0372619628906 519.7951049804688 480.37628173828125 519.27197265625 C 483.9793701171875 511.7720947265625 485.67572021484375 508.560546875 486.1029357910156 503.2737121582031" stroke-width="0.0" fill="rgb(52, 51, 63)" opacity="1.0" stroke="rgb(0, 0, 0)" stroke-opacity="1.0" stroke-linecap="round" stroke-linejoin="round"/>
    <path d="M 256.2229919433594 388.1982421875 C 253.47259521484375 405.6456298828125 259.68292236328125 421.64959716796875 252.16378784179688 417.8362731933594 C 268.054443359375 423.6358947753906 268.0964660644531 427.6977233886719 268.2044982910156 414.755859375 C 261.5557861328125 399.9803161621094 269.7586975097656 386.89599609375 256.2229919433594 388.1982421875" stroke-width="0.0" fill="rgb(52, 51, 63)" opacity="1.0" stroke="rgb(0, 0, 0)" stroke-opacity="1.0" stroke-linecap="round" stroke-linejoin="round"/>
    <path d="M 16.199068069458008 406.3749694824219 C 5.972713947296143 403.9143981933594 5.97285270690918 410.0331726074219 -3.9954891204833984 409.461181640625 C -5.459582328796387 415.69891357421875 -9.668798446655273 422.56982421875 -2.923839807510376 417.62493896484375 C 8.203147888183594 416.5908508300781 16.306747436523438 414.39654541015625 16.199068069458008 406.3749694824219" stroke-width="0.0" fill="rgb(76, 90, 115)" opacity="1.0" stroke="rgb(0, 0, 0)" stroke-opacity="1.0" stroke-linecap="round" stroke-linejoin="round"/>
    <path d="M -11.023139953613281 329.3447570800781 C -5.157705307006836 335.4793701171875 -5.333296775817871 333.2366943359375 -5.036150932312012 333.7756652832031 C 11.041568756103516 329.4492492675781 18.58003044128418 331.3231506347656 17.63005828857422 331.6010437011719 C 22.096250534057617 323.6806945800781 8.17870044708252 330.3248596191406 -11.023139953613281 329.3447570800781" stroke-width="0.0" fill="rgb(104, 125, 152)" opacity="1.0" stroke="rgb(0, 0, 0)" stroke-opacity="1.0" stroke-linecap="round" stroke-linejoin="round"/>
    <path d="M 237.29098510742188 330.81146240234375 C 233.73995971679688 330.446044921875 231.5189666748047 331.3553466796875 228.844970703125 334.8330993652344 C 229.49957275390625 342.904541015625 226.4651336669922 343.24566650390625 233.4130096435547 347.62652587890625 C 233.22622680664062 348.6634216308594 239.10328674316406 341.77655029296875 239.50106811523438 344.0596618652344 C 243.32452392578125 333.28900146484375 240.3620147705078 334.0728454589844 237.29098510742188 330.81146240234375" stroke-width="0.0" fill="rgb(65, 65, 81)" opacity="1.0" stroke="rgb(0, 0, 0)" stroke-opacity="1.0" stroke-linecap="round" stroke-linejoin="round"/>
    <path d="M 220.20053100585938 342.4075927734375 C 219.18829345703125 337.5794372558594 214.6227264404297 336.8069152832031 211.37942504882812 337.7974548339844 C 207.62445068359375 342.1728820800781 205.9446563720703 342.397216796875 207.10166931152344 349.63812255859375 C 207.9907989501953 352.80029296875 214.8189697265625 350.45001220703125 217.2425537109375 349.7052001953125 C 219.74581909179688 346.6018981933594 220.58731079101562 348.0939025878906 220.20053100585938 342.4075927734375" stroke-width="0.0" fill="rgb(52, 51, 63)" opacity="1.0" stroke="rgb(0, 0, 0)" stroke-opacity="1.0" stroke-linecap="round" stroke-linejoin="round"/>
    <path d="M 230.35716247558594 380.51544189453125 C 232.53404235839844 398.5539245605469 235.0255126953125 417.3697509765625 235.416259765625 433.8334045410156 C 236.52720642089844 446.140869140625 241.4700927734375 454.8148193359375 250.8894805908203 445.849365234375 C 252.30982971191406 431.1500244140625 254.92198181152344 406.9662170410156 255.4274139404297 383.89971923828125 C 255.68922424316406 377.9059143066406 244.6978759765625 382.6988525390625 230.35716247558594 380.51544189453125" stroke-width="0.0" fill="rgb(68, 78, 99)" opacity="1.0" stroke="rgb(0, 0, 0)" stroke-opacity="1.0" stroke-linecap="round" stroke-linejoin="round"/>
    <path d="M 242.50672912597656 337.4813537597656 C 238.82437133789062 347.5842590332031 229.4000701904297 346.4423828125 229.80601501464844 350.967529296875 C 224.62088012695312 362.68914794921875 229.4967803955078 372.1095886230469 230.96038818359375 383.99639892578125 C 236.61419677734375 378.4544677734375 247.71092224121094 380.23419189453125 256.37060546875 380.06219482421875 C 256.3616943359375 360.4593200683594 253.63270568847656 346.9723205566406 242.50672912597656 337.4813537597656" stroke-width="0.0" fill="rgb(115, 118, 129)" opacity="1.0" stroke="rgb(0, 0, 0)" stroke-opacity="1.0" stroke-linecap="round" stroke-linejoin="round"/>
    <path d="M 214.9054718017578 353.3132019042969 C 209.08363342285156 354.2010498046875 206.0229034423828 353.0810241699219 202.92713928222656 356.55645751953125 C 199.3937225341797 358.7674865722656 197.43052673339844 364.1682434082031 196.12684631347656 369.6483154296875 C 194.5113525390625 382.66949462890625 192.97482299804688 390.2034606933594 194.4651336669922 407.990478515625 C 199.94039916992188 411.7886047363281 195.10202026367188 422.25103759765625 202.24668884277344 427.4651184082031 C 212.0285186767578 425.8697814941406 222.32896423339844 428.92218017578125 228.0026092529297 424.9366760253906 C 228.48326110839844 406.2841796875 226.9521484375 387.3197021484375 229.5424041748047 371.1191101074219 C 226.34414672851562 357.2812805175781 225.80062866210938 354.6968688964844 214.9054718017578 353.3132019042969" stroke-width="0.0" fill="rgb(52, 51, 63)" opacity="1.0" stroke="rgb(0, 0, 0)" stroke-opacity="1.0" stroke-linecap="round" stroke-linejoin="round"/>
    <path d="M -3.175342082977295 230.15289306640625 C -9.652060508728027 230.0065155029297 -6.676416873931885 245.7469940185547 -4.549544334411621 256.33837890625 C 21.630970001220703 255.71144104003906 37.55218505859375 249.81369018554688 58.48050308227539 248.92910766601562 C 55.59324264526367 241.48678588867188 53.007083892822266 235.7186737060547 51.32987976074219 235.55084228515625 C 29.259044647216797 232.85997009277344 24.19171142578125 221.73219299316406 -3.175342082977295 230.15289306640625" stroke-width="0.0" fill="rgb(87, 109, 140)" opacity="1.0" stroke="rgb(0, 0, 0)" stroke-opacity="1.0" stroke-linecap="round" stroke-linejoin="round"/>
    <path d="M 487.45751953125 500.1321716308594 C 485.10711669921875 500.3857421875 485.84259033203125 508.9002685546875 481.3403625488281 518.3041381835938 C 491.385498046875 518.0030517578125 498.1833801269531 519.4638671875 504.68310546875 518.4260864257812 C 500.3489990234375 506.5011291503906 503.29864501953125 499.1012878417969 500.8827819824219 498.0314636230469 C 491.49859619140625 497.72357177734375 488.1949462890625 497.3769836425781 487.45751953125 500.1321716308594" stroke-width="0.0" fill="rgb(89, 103, 124)" opacity="1.0" stroke="rgb(0, 0, 0)" stroke-opacity="1.0" stroke-linecap="round" stroke-linejoin="round"/>
    <path d="M 53.109405517578125 295.0027160644531 C 52.149627685546875 303.7719421386719 53.31172561645508 297.6954040527344 58.42207336425781 301.6428527832031 C 59.95734405517578 297.64385986328125 70.81829833984375 303.3782653808594 69.17134857177734 295.939697265625 C 67.99150848388672 294.3241882324219 57.84940719604492 294.9465637207031 53.109405517578125 295.0027160644531" stroke-width="0.0" fill="rgb(98, 115, 140)" opacity="1.0" stroke="rgb(0, 0, 0)" stroke-opacity="1.0" stroke-linecap="round" stroke-linejoin="round"/>
    <path d="M 266.01483154296875 276.18115234375 C 273.6670227050781 287.08001708984375 291.81378173828125 279.1257629394531 298.95562744140625 288.8210144042969 C 299.0718688964844 283.6845703125 300.1409606933594 285.9375305175781 297.5780029296875 295.5764465332031 C 323.68218994140625 300.7022399902344 342.16998291015625 292.4635009765625 365.24334716796875 286.352294921875 C 362.53900146484375 275.7063903808594 360.921875 275.7513732910156 355.1358642578125 270.9532470703125 C 341.8957214355469 263.71746826171875 330.591064453125 254.6497802734375 308.73614501953125 248.99583435058594 C 296.82379150390625 253.8331298828125 286.06591796875 268.2623291015625 266.01483154296875 276.18115234375" stroke-width="0.0" fill="rgb(104, 125, 152)" opacity="1.0" stroke="rgb(0, 0, 0)" stroke-opacity="1.0" stroke-linecap="round" stroke-linejoin="round"/>
    <path d="M 238.251708984375 453.3609619140625 C 227.12875366210938 450.356689453125 231.6484832763672 452.414794921875 226.63092041015625 446.8404541015625 C 216.42544555664062 448.3501281738281 222.40159606933594 457.0331726074219 210.77687072753906 450.8853454589844 C 200.28802490234375 454.39227294921875 199.7570037841797 453.2011413574219 197.55142211914062 465.3986511230469 C 203.38291931152344 467.4396667480469 225.11334228515625 465.03350830078125 235.00100708007812 466.4698791503906 C 238.45565795898438 463.94866943359375 240.63070678710938 459.058349609375 238.251708984375 453.3609619140625" stroke-width="0.0" fill="rgb(115, 118, 129)" opacity="1.0" stroke="rgb(0, 0, 0)" stroke-opacity="1.0" stroke-linecap="round" stroke-linejoin="round"/>
    <path d="M 187.5061798095703 421.8297424316406 C 180.5242919921875 424.0401306152344 181.1676788330078 434.4390869140625 187.0877227783203 450.6637878417969 C 179.6667938232422 454.1412353515625 185.4354248046875 451.03314208984375 193.65501403808594 448.2574157714844 C 197.96177673339844 448.6565246582031 197.5806121826172 443.6806640625 199.4466552734375 436.4207458496094 C 195.8831329345703 428.72808837890625 194.07069396972656 422.10333251953125 187.5061798095703 421.8297424316406" stroke-width="0.0" fill="rgb(52, 51, 63)" opacity="1.0" stroke="rgb(0, 0, 0)" stroke-opacity="1.0" stroke-linecap="round" stroke-linejoin="round"/>
    <path d="M 256.70574951171875 398.9732360839844 C 256.9395751953125 399.6423034667969 256.7752380371094 414.0741882324219 257.1570739746094 424.59521484375 C 260.3243103027344 423.03265380859375 267.4623718261719 423.8179016113281 268.51324462890625 421.7335205078125 C 267.9394226074219 410.6759948730469 264.81671142578125 401.6983337402344 256.70574951171875 398.9732360839844" stroke-width="0.0" fill="rgb(132, 152, 169)" opacity="1.0" stroke="rgb(0, 0, 0)" stroke-opacity="1.0" stroke-linecap="round" stroke-linejoin="round"/>
    <path d="M 200.5605010986328 429.8504333496094 C 203.56695556640625 438.0114440917969 203.6504364013672 453.0740966796875 201.41969299316406 447.82989501953125 C 212.26512145996094 450.00494384765625 205.44349670410156 442.7798156738281 209.72601318359375 429.6139831542969 C 206.73422241210938 427.11224365234375 199.89584350585938 422.6807556152344 200.5605010986328 429.8504333496094" stroke-width="0.0" fill="rgb(96, 86, 94)" opacity="1.0" stroke="rgb(0, 0, 0)" stroke-opacity="1.0" stroke-linecap="round" stroke-linejoin="round"/>
    <path d="M 220.8116912841797 428.5203552246094 C 216.17715454101562 427.1857604980469 212.5927734375 426.6303405761719 211.66571044921875 430.19744873046875 C 215.21234130859375 432.74798583984375 210.44674682617188 452.97393798828125 214.8658905029297 447.8929443359375 C 218.03187561035156 452.6351318359375 217.0723419189453 438.5238342285156 220.8116912841797 428.5203552246094" stroke-width="0.0" fill="rgb(96, 86, 94)" opacity="1.0" stroke="rgb(0, 0, 0)" stroke-opacity="1.0" stroke-linecap="round" stroke-linejoin="round"/>
    <path d="M 182.97767639160156 440.5750732421875 C 186.79147338867188 448.4014892578125 188.69813537597656 449.5768127441406 185.82054138183594 442.9132080078125 C 187.90264892578125 445.3885192871094 189.01649475097656 457.1810302734375 187.53883361816406 462.6402587890625 C 177.23268127441406 454.2046813964844 184.26971435546875 462.6219482421875 182.97767639160156 440.5750732421875" stroke-width="0.0" fill="rgb(65, 65, 81)" opacity="1.0" stroke="rgb(0, 0, 0)" stroke-opacity="1.0" stroke-linecap="round" stroke-linejoin="round"/>
    <path d="M 344.3905944824219 288.3828125 C 342.3448181152344 290.25555419921875 343.31585693359375 299.41632080078125 336.815673828125 294.5831298828125 C 344.40069580078125 289.95965576171875 352.7319030761719 291.9228515625 358.9493103027344 289.3047180175781 C 357.19989013671875 288.510498046875 348.90264892578125 284.2928771972656 344.3905944824219 288.3828125" stroke-width="0.0" fill="rgb(115, 136, 158)" opacity="1.0" stroke="rgb(0, 0, 0)" stroke-opacity="1.0" stroke-linecap="round" stroke-linejoin="round"/>
    <path d="M 455.3275451660156 304.8153076171875 C 456.79443359375 307.5980529785156 455.8078308105469 310.016845703125 454.1065368652344 309.8783874511719 C 462.823486328125 307.6175537109375 465.5052795410156 311.7746887207031 463.5938720703125 305.5022277832031 C 467.7047424316406 304.40203857421875 458.80224609375 305.31109619140625 455.3275451660156 304.8153076171875" stroke-width="0.0" fill="rgb(115, 136, 158)" opacity="1.0" stroke="rgb(0, 0, 0)" stroke-opacity="1.0" stroke-linecap="round" stroke-linejoin="round"/>
    <path d="M 411.7528381347656 305.35943603515625 C 412.84857177734375 308.7611999511719 410.5592346191406 308.05419921875 413.24871826171875 308.02752685546875 C 416.8476257324219 307.91778564453125 418.9640808105469 308.8427429199219 419.2627868652344 306.6893310546875 C 418.3614196777344 304.09210205078125 415.8267517089844 301.9124755859375 411.7528381347656 305.35943603515625" stroke-width="0.0" fill="rgb(87, 109, 140)" opacity="1.0" stroke="rgb(0, 0, 0)" stroke-opacity="1.0" stroke-linecap="round" stroke-linejoin="round"/>
    <path d="M 196.2263641357422 402.4801330566406 C 197.8988037109375 411.6250915527344 196.67816162109375 422.8326416015625 201.51956176757812 427.4410705566406 C 209.37091064453125 426.0975646972656 222.79580688476562 428.76348876953125 228.65135192871094 424.65081787109375 C 227.51779174804688 418.6709899902344 228.5690155029297 407.669921875 228.03501892089844 398.4586181640625 C 219.772705078125 401.69091796875 206.8105010986328 397.5706481933594 196.2263641357422 402.4801330566406" stroke-width="0.0" fill="rgb(52, 51, 63)" opacity="1.0" stroke="rgb(0, 0, 0)" stroke-opacity="1.0" stroke-linecap="round" stroke-linejoin="round"/>
    <path d="M 225.13243103027344 357.12115478515625 C 211.11477661132812 349.7882995605469 207.66236877441406 352.708984375 199.27854919433594 358.58966064453125 C 193.8724822998047 372.9077453613281 192.70729064941406 388.7101745605469 194.4080810546875 409.7205810546875 C 201.17718505859375 408.5556945800781 198.25038146972656 399.48944091796875 205.15469360351562 399.3424377441406 C 208.3592529296875 398.9403381347656 218.8297882080078 398.47772216796875 228.6300506591797 400.36102294921875 C 225.23770141601562 376.5139465332031 235.99554443359375 375.33111572265625 225.13243103027344 357.12115478515625" stroke-width="0.0" fill="rgb(65, 65, 81)" opacity="1.0" stroke="rgb(0, 0, 0)" stroke-opacity="1.0" stroke-linecap="round" stroke-linejoin="round"/>
    <path d="M 515.9039916992188 191.57470703125 C 514.837646484375 183.28750610351562 513.8070678710938 177.6592559814453 515.0637817382812 173.90509033203125 C 512.0478515625 173.54054260253906 513.6764526367188 169.95150756835938 516.5831909179688 158.55287170410156 C 511.7012939453125 152.78135681152344 509.0138244628906 151.9215545654297 485.76104736328125 149.20753479003906 C 481.74066162109375 164.03753662109375 483.1324768066406 168.67282104492188 477.3756103515625 167.11117553710938 C 484.5780334472656 173.27072143554688 479.8078308105469 171.03529357910156 465.107177734375 173.7283935546875 C 482.26141357421875 194.0871124267578 483.02984619140625 195.72311401367188 483.2281494140625 197.44271850585938 C 482.5935363769531 195.5377960205078 481.5556640625 192.87840270996094 470.0652770996094 180.4674835205078 C 469.84552001953125 190.3700408935547 474.2725830078125 194.77426147460938 474.6042785644531 197.35304260253906 C 472.717041015625 197.6012420654297 475.0308837890625 192.60987854003906 465.0469665527344 173.8448944091797 C 452.1890563964844 188.70645141601562 454.1449279785156 195.84002685546875 455.3353576660156 196.9414825439453 C 455.99554443359375 198.53485107421875 457.638427734375 193.1765594482422 444.987060546875 181.22010803222656 C 435.406982421875 195.68267822265625 439.4396667480469 201.2721405029297 441.8687744140625 204.3065948486328 C 439.9937744140625 205.40542602539062 441.3650817871094 203.25234985351562 436.89520263671875 188.5194854736328 C 429.9909362792969 198.1846923828125 433.4129638671875 201.7861328125 432.4188537597656 187.17446899414062 C 415.7935791015625 190.8948516845703 404.300537109375 191.24725341796875 380.4281311035156 193.89892578125 C 394.2426452636719 215.6230010986328 396.09991455078125 216.7916259765625 394.0765075683594 216.6822052001953 C 391.4130859375 208.34164428710938 387.45086669921875 196.64816284179688 363.4689636230469 192.7213897705078 C 369.8960266113281 219.0557098388672 376.13043212890625 220.63845825195312 378.4499816894531 222.61245727539062 C 375.6012268066406 220.61264038085938 372.4859924316406 218.63275146484375 368.3599853515625 208.60125732421875 C 367.64666748046875 217.784912109375 366.2928161621094 220.15574645996094 366.009521484375 221.55178833007812 C 366.8701171875 216.911376953125 371.7590026855469 210.5914764404297 361.7923278808594 194.03883361816406 C 352.77069091796875 207.293701171875 358.23992919921875 214.25782775878906 358.4313049316406 218.3048858642578 C 356.78765869140625 217.50857543945312 358.1994323730469 214.84719848632812 355.4461669921875 192.03965759277344 C 341.1488037109375 200.53207397460938 341.7679138183594 204.85472106933594 338.4210510253906 194.7833251953125 C 333.3194885253906 201.53274536132812 329.919921875 198.6639862060547 320.352783203125 197.2962188720703 C 317.68115234375 223.36351013183594 318.2075500488281 226.56301879882812 317.7057189941406 229.2233428955078 C 317.6429138183594 226.72723388671875 318.57696533203125 223.77830505371094 318.74359130859375 207.96926879882812 C 312.8276672363281 213.9739990234375 314.11614990234375 218.7873077392578 325.8258361816406 190.83860778808594 C 299.4649353027344 188.84396362304688 284.0087585449219 186.17820739746094 252.72683715820312 177.4625701904297 C 239.16600036621094 195.5377960205078 238.99728393554688 196.85693359375 237.66409301757812 196.54812622070312 C 241.59234619140625 217.7745361328125 239.5078125 222.19833374023438 238.64785766601562 225.5516357421875 C 239.6554412841797 221.8094024658203 240.97654724121094 217.40509033203125 238.851806640625 205.279052734375 C 239.64404296875 202.36819458007812 239.43511962890625 198.95941162109375 234.3895721435547 193.74676513671875 C 233.474853515625 211.99685668945312 231.9062957763672 214.61282348632812 232.72714233398438 216.8321075439453 C 231.13966369628906 211.29200744628906 237.6727752685547 201.63320922851562 231.2815704345703 183.28765869140625 C 217.30938720703125 208.29483032226562 216.8126983642578 215.43385314941406 214.60031127929688 219.74627685546875 C 215.94552612304688 217.848876953125 214.7559051513672 215.21304321289062 231.86492919921875 180.78489685058594 C 195.548095703125 177.06199645996094 174.0123291015625 175.25308227539062 150.43434143066406 174.37757873535156 C 149.5452423095703 204.9301300048828 153.8766632080078 200.5790557861328 148.5843963623047 179.9468994140625 C 138.34214782714844 198.0936279296875 136.74288940429688 207.45567321777344 133.22645568847656 212.8448486328125 C 135.6790008544922 209.27076721191406 136.39356994628906 204.2309112548828 149.3582305908203 176.4795684814453 C 127.33911895751953 178.3268280029297 123.22611236572266 184.01515197753906 123.34990692138672 188.41033935546875 C 117.45469665527344 197.2293701171875 113.77713012695312 198.4392547607422 111.58392333984375 199.70713806152344 C 112.5115737915039 198.93948364257812 117.4853286743164 199.8558349609375 131.97911071777344 174.16493225097656 C 104.48017883300781 170.0867919921875 90.99140167236328 170.28904724121094 82.7906494140625 173.56814575195312 C 79.58756256103516 192.06224060058594 79.06082153320312 189.9701690673828 85.31267547607422 169.3675537109375 C 70.61445617675781 169.07579040527344 61.05983352661133 170.59886169433594 57.0753173828125 165.44773864746094 C 38.97069549560547 163.9098358154297 25.12108039855957 152.9748077392578 0.9617019295692444 139.4383544921875 C -3.0160012245178223 165.88790893554688 -0.6488701701164246 169.1719512939453 -1.8512086868286133 175.7069091796875 C 12.027692794799805 179.01100158691406 24.760269165039062 184.50047302246094 36.788002014160156 192.43885803222656 C 48.807769775390625 193.03152465820312 60.793418884277344 194.71063232421875 71.80327606201172 197.0072479248047 C 75.74390411376953 200.51528930664062 80.13679504394531 203.80435180664062 85.26605987548828 204.9132080078125 C 91.25253295898438 203.64517211914062 96.74510192871094 203.59715270996094 100.92416381835938 203.80099487304688 C 101.00703430175781 204.28538513183594 101.63826751708984 206.61721801757812 102.08075714111328 210.1168975830078 C 107.4773941040039 213.59848022460938 113.30392456054688 216.50994873046875 116.7281723022461 219.3785858154297 C 118.7015151977539 218.3052520751953 119.75157928466797 221.83580017089844 121.0128402709961 226.17515563964844 C 127.26334381103516 227.59056091308594 131.16896057128906 227.07769775390625 134.5959014892578 225.1900177001953 C 132.52879333496094 226.6764373779297 129.1663818359375 226.01553344726562 126.39889526367188 229.09860229492188 C 142.91856384277344 236.0863037109375 158.18565368652344 231.81312561035156 167.2423553466797 234.49459838867188 C 170.0279083251953 237.3478240966797 173.28030395507812 236.85397338867188 180.57089233398438 239.38194274902344 C 185.9420166015625 240.579833984375 189.1192626953125 238.6697235107422 188.35462951660156 236.3477020263672 C 189.1610565185547 235.60775756835938 187.50112915039062 237.6168212890625 188.56556701660156 241.46043395996094 C 200.0968780517578 243.515380859375 208.32763671875 243.0818328857422 214.8240966796875 245.37432861328125 C 214.466064453125 244.32130432128906 215.03616333007812 246.6365509033203 217.93580627441406 251.38217163085938 C 222.18589782714844 245.43603515625 223.33116149902344 244.1352081298828 218.48287963867188 250.25253295898438 C 224.2332305908203 251.2286376953125 232.8678741455078 254.42208862304688 245.06912231445312 258.1787414550781 C 253.442626953125 261.141845703125 260.23089599609375 257.4032287597656 269.6658020019531 251.50790405273438 C 259.1482849121094 238.14657592773438 247.80821228027344 231.9277801513672 236.6489715576172 228.86952209472656 C 239.37298583984375 229.5095672607422 242.3459930419922 230.42286682128906 250.6000213623047 234.15647888183594 C 247.98486328125 228.72991943359375 246.72525024414062 227.44949340820312 246.62254333496094 226.7279052734375 C 247.2928009033203 229.0216827392578 250.21084594726562 231.98883056640625 254.82643127441406 232.5789031982422 C 259.3235778808594 230.45852661132812 262.33319091796875 229.559814453125 261.4978942871094 228.70196533203125 C 262.48193359375 230.79322814941406 264.6649169921875 234.84764099121094 268.45556640625 242.39987182617188 C 271.91839599609375 237.89039611816406 273.4703063964844 233.6040802001953 274.80645751953125 230.23287963867188 C 278.89892578125 231.0513153076172 283.29302978515625 232.8581085205078 286.8614807128906 235.41859436035156 C 285.5912780761719 233.29135131835938 285.12371826171875 230.13058471679688 282.7401428222656 229.65513610839844 C 286.03778076171875 231.537109375 290.743408203125 232.66009521484375 295.0641784667969 232.98745727539062 C 301.75787353515625 232.5218963623047 308.6179504394531 231.3662567138672 313.28643798828125 230.79588317871094 C 318.4985046386719 232.1455535888672 324.4909973144531 234.709716796875 329.7413330078125 239.95582580566406 C 332.0169677734375 236.8612518310547 333.45343017578125 235.16567993164062 333.1586608886719 237.56593322753906 C 340.43896484375 240.1728973388672 349.05780029296875 241.85220336914062 358.4097595214844 245.40835571289062 C 367.21588134765625 241.53297424316406 375.0892028808594 239.962158203125 383.8927917480469 239.83807373046875 C 386.5518798828125 236.35777282714844 389.600341796875 234.23873901367188 390.44122314453125 232.37081909179688 C 389.1253662109375 232.88644409179688 391.02239990234375 234.9749298095703 394.0982666015625 238.58641052246094 C 396.5692443847656 235.6102294921875 398.2507629394531 232.95726013183594 398.9916687011719 231.25518798828125 C 400.54400634765625 230.9117431640625 403.95458984375 231.8041229248047 408.7995910644531 232.18739318847656 C 407.9443359375 228.4147491455078 406.3687744140625 225.1475372314453 404.6707458496094 226.04641723632812 C 416.8253479003906 223.18731689453125 433.12530517578125 219.4810791015625 449.91839599609375 215.660888671875 C 456.6305847167969 215.55618286132812 461.70404052734375 212.4739227294922 462.116943359375 207.4210662841797 C 462.6529846191406 208.788818359375 460.8064270019531 210.22657775878906 460.3444519042969 212.48553466796875 C 474.6197814941406 210.15394592285156 485.89007568359375 207.6707000732422 496.47900390625 205.69476318359375 C 494.033935546875 203.1934814453125 491.9161071777344 200.5521697998047 490.6632080078125 198.9988250732422 C 492.88104248046875 199.29144287109375 496.1153259277344 198.50253295898438 497.42193603515625 198.9470977783203 C 498.4032897949219 198.43959045410156 500.8465576171875 199.86581420898438 503.9667663574219 200.7563934326172 C 504.3887634277344 198.1260223388672 503.63897705078125 195.95921325683594 503.45050048828125 197.35018920898438 C 505.45159912109375 196.24928283691406 508.6019592285156 194.5084686279297 515.9039916992188 191.57470703125" stroke-width="0.0" fill="rgb(178, 202, 195)" opacity="0.7020794" stroke="rgb(0, 0, 0)" stroke-opacity="1.0" stroke-linecap="round" stroke-linejoin="round"/>
    <path d="M 512.818115234375 189.80728149414062 C 505.8383483886719 192.3746337890625 503.11370849609375 195.07077026367188 501.58905029296875 196.29849243164062 C 499.8985900878906 196.44015502929688 495.2920837402344 196.22665405273438 488.7541198730469 197.9073028564453 C 491.7198181152344 201.82412719726562 494.6186828613281 203.66917419433594 496.1185302734375 203.21145629882812 C 465.91815185546875 209.41136169433594 437.1620178222656 218.96392822265625 402.2247009277344 226.37229919433594 C 405.5279846191406 231.0342559814453 409.47149658203125 230.62457275390625 411.24127197265625 231.30409240722656 C 409.61395263671875 231.42555236816406 406.3785400390625 229.27264404296875 399.7911682128906 226.8321533203125 C 395.9771423339844 232.09652709960938 393.4907531738281 236.13662719726562 392.08843994140625 240.59048461914062 C 393.1950988769531 239.1728515625 393.3801574707031 236.9893035888672 391.06634521484375 230.96524047851562 C 385.45989990234375 234.3551483154297 380.7277526855469 237.15065002441406 376.3061218261719 238.2694854736328 C 376.5196838378906 239.39096069335938 374.7497253417969 237.68460083007812 372.9229736328125 235.29660034179688 C 367.6885070800781 237.62429809570312 362.6544189453125 239.73284912109375 359.7511291503906 240.98651123046875 C 360.2540588378906 241.5325164794922 357.04931640625 239.73902893066406 352.8004455566406 236.406005859375 C 348.042724609375 237.95333862304688 344.0748291015625 238.33840942382812 343.3198547363281 239.20928955078125 C 344.9400939941406 239.8748779296875 342.900634765625 237.3994140625 338.6772155761719 234.41912841796875 C 335.4208984375 236.62515258789062 335.1540222167969 238.61318969726562 336.21649169921875 240.84075927734375 C 336.2321472167969 238.8185577392578 336.1832275390625 236.17364501953125 335.03778076171875 232.290771484375 C 330.6441650390625 235.927734375 328.54437255859375 238.69505310058594 327.61614990234375 241.77182006835938 C 329.251220703125 239.9109649658203 328.6551513671875 236.90029907226562 328.3249206542969 229.7005157470703 C 309.56024169921875 229.68240356445312 290.8138427734375 229.614013671875 271.58441162109375 229.68556213378906 C 271.4846496582031 234.80702209472656 271.6888732910156 237.32333374023438 269.9922790527344 236.1143035888672 C 268.9914855957031 237.48216247558594 266.48382568359375 239.49774169921875 267.27447509765625 241.50006103515625 C 267.6978759765625 240.39393615722656 267.2296142578125 236.6945037841797 267.74658203125 230.52163696289062 C 262.68646240234375 228.5498504638672 259.2102966308594 227.94387817382812 249.57113647460938 227.05667114257812 C 247.42111206054688 233.14671325683594 248.0726318359375 238.49887084960938 249.96682739257812 243.7449493408203 C 255.50393676757812 243.6818389892578 258.84014892578125 243.18020629882812 258.75799560546875 243.746337890625 C 260.93377685546875 245.36187744140625 263.4430847167969 248.85061645507812 263.62115478515625 254.75531005859375 C 275.0726013183594 253.57826232910156 277.6383056640625 253.3250732421875 277.4587707519531 249.67529296875 C 278.1507568359375 250.33985900878906 277.5417785644531 252.35716247558594 273.8853759765625 253.56629943847656 C 286.2728576660156 254.39251708984375 291.44586181640625 261.4128112792969 294.2134704589844 258.5268249511719 C 303.27294921875 252.48045349121094 306.0162353515625 251.17579650878906 306.6061096191406 250.7428436279297 C 307.2607116699219 248.2089385986328 316.15594482421875 250.2393035888672 318.6277160644531 251.88668823242188 C 315.106201171875 250.14974975585938 319.1468505859375 251.71121215820312 325.4523620605469 256.0943908691406 C 341.7445983886719 259.7783203125 343.9940490722656 265.17578125 340.6338806152344 263.8065490722656 C 341.50689697265625 257.6622619628906 340.1950988769531 260.4139099121094 340.8546142578125 264.5611267089844 C 355.8166809082031 254.17337036132812 361.9558410644531 260.08306884765625 370.57489013671875 253.94000244140625 C 365.9560546875 251.5770721435547 368.34527587890625 247.9917755126953 367.243408203125 248.54281616210938 C 367.87158203125 252.60484313964844 368.66693115234375 256.2603759765625 382.5354309082031 253.50303649902344 C 384.0163269042969 250.9679412841797 381.5487060546875 249.28395080566406 383.1866149902344 252.39300537109375 C 381.8461608886719 254.520263671875 382.80816650390625 252.5495147705078 388.4954528808594 255.01467895507812 C 399.98187255859375 257.32147216796875 404.8459777832031 259.67547607421875 414.18731689453125 259.5355224609375 C 410.3160095214844 246.49774169921875 416.60772705078125 243.80477905273438 420.1875 242.6790008544922 C 422.7286071777344 240.3878631591797 429.45074462890625 243.3679962158203 443.9407958984375 249.991943359375 C 448.8620300292969 242.17115783691406 453.2737731933594 239.12281799316406 456.06689453125 236.65016174316406 C 449.81915283203125 232.33680725097656 451.197021484375 235.16567993164062 459.2982177734375 234.25132751464844 C 456.8962097167969 225.5032196044922 453.7369384765625 221.24887084960938 450.2290954589844 223.48081970214844 C 453.976318359375 224.9943084716797 461.4017028808594 224.73658752441406 470.1302795410156 224.9139404296875 C 472.22808837890625 220.2305450439453 473.99847412109375 218.47390747070312 472.3664245605469 219.053955078125 C 473.0642395019531 220.19203186035156 476.28533935546875 221.58265686035156 482.0980224609375 224.059814453125 C 485.8838806152344 220.65130615234375 487.2126159667969 217.5145263671875 487.9074401855469 215.15240478515625 C 487.0826721191406 216.6090545654297 485.9595947265625 218.82003784179688 486.3131408691406 224.1233673095703 C 496.09039306640625 221.4730987548828 502.4504699707031 219.13853454589844 510.17694091796875 215.67239379882812 C 507.45684814453125 214.543212890625 504.7094421386719 213.27565002441406 502.7032165527344 212.91708374023438 C 505.1036682128906 213.1595458984375 507.99267578125 215.29638671875 514.0289916992188 217.39659118652344 C 514.0718383789062 205.33567810058594 514.243408203125 198.66566467285156 512.818115234375 189.80728149414062" stroke-width="0.0" fill="rgb(166, 192, 191)" opacity="0.7940515" stroke="rgb(0, 0, 0)" stroke-opacity="1.0" stroke-linecap="round" stroke-linejoin="round"/>
    <path d="M 447.4363098144531 -0.4137061834335327 C 450.38043212890625 4.803165912628174 451.7102355957031 7.426318168640137 447.2734375 -0.7446948885917664 C 442.7879638671875 -0.5485888123512268 431.659423828125 -2.89579439163208 410.26568603515625 21.616018295288086 C 443.9228515625 30.31963539123535 453.6819152832031 24.409870147705078 459.2153015136719 27.126008987426758 C 459.8242492675781 24.92182731628418 459.348388671875 29.173551559448242 446.0268249511719 28.422460556030273 C 428.5080871582031 21.0242862701416 410.6889343261719 20.15477752685547 388.62005615234375 56.29344940185547 C 430.60394287109375 90.27857208251953 442.4949951171875 85.02345275878906 452.41485595703125 83.64401245117188 C 476.7521057128906 80.54484558105469 493.7134704589844 83.87146759033203 512.9718017578125 85.84268188476562 C 513.3395385742188 69.3516616821289 513.5971069335938 65.68338012695312 513.5171508789062 60.53032302856445 C 507.1071472167969 61.530433654785156 503.348388671875 61.88275909423828 501.6235656738281 63.14078903198242 C 503.6541442871094 62.74456787109375 504.61175537109375 59.75065994262695 505.16815185546875 54.53195571899414 C 495.6666564941406 54.3538932800293 487.3333435058594 54.64986801147461 479.5711364746094 55.83415222167969 C 482.1092224121094 54.59140396118164 484.552734375 52.29344177246094 488.4596252441406 47.92547607421875 C 485.54620361328125 45.18669128417969 482.5611267089844 42.796363830566406 483.5335693359375 41.29048156738281 C 482.496337890625 40.16999816894531 482.40643310546875 35.3988037109375 482.0847473144531 31.228641510009766 C 483.1486511230469 28.81789207458496 486.9088439941406 26.948904037475586 492.8833312988281 21.080778121948242 C 485.96331787109375 15.548489570617676 478.88140869140625 11.639955520629883 473.399169921875 9.102293014526367 C 472.52032470703125 11.592242240905762 473.8335876464844 10.240472793579102 472.76910400390625 10.756391525268555 C 473.78863525390625 10.904533386230469 476.9599304199219 11.863702774047852 479.8475036621094 13.186169624328613 C 478.7428894042969 11.590055465698242 477.6076354980469 10.056640625 477.6846008300781 10.476295471191406 C 481.8520812988281 7.711464881896973 486.33465576171875 4.447386741638184 490.93487548828125 0.17908743023872375 C 482.6849365234375 -0.5152092576026917 475.3392028808594 -0.2144218385219574 466.0447692871094 -0.3546895682811737 C 466.5390930175781 2.95857572555542 466.9881896972656 6.2603888511657715 467.1307067871094 9.043378829956055 C 467.0791015625 6.278130531311035 466.5418701171875 3.274003505706787 465.92926025390625 -1.0619513988494873 C 461.4419250488281 -0.43248629570007324 459.09814453125 -0.4922654628753662 447.4363098144531 -0.4137061834335327" stroke-width="0.0" fill="rgb(180, 210, 204)" opacity="0.94554806" stroke="rgb(0, 0, 0)" stroke-opacity="1.0" stroke-linecap="round" stroke-linejoin="round"/>
    <path d="M 489.9094543457031 -1.1233869791030884 C 482.2646789550781 0.8401151895523071 474.4010925292969 3.1659927368164062 465.5150146484375 11.29992961883545 C 474.9512939453125 19.533252716064453 479.279541015625 18.885740280151367 480.02239990234375 20.35198211669922 C 482.822998046875 20.61529541015625 485.45556640625 23.604488372802734 487.8936767578125 23.953218460083008 C 486.0113830566406 23.432796478271484 482.29388427734375 25.416593551635742 472.3751220703125 29.971424102783203 C 474.37335205078125 40.175376892089844 476.29595947265625 47.1072883605957 480.4517517089844 53.03352355957031 C 484.8578796386719 50.834495544433594 481.2986145019531 52.20260238647461 476.56268310546875 58.77220916748047 C 487.614990234375 61.87448501586914 495.9075927734375 61.81661605834961 502.6546325683594 60.74940490722656 C 501.92169189453125 57.652957916259766 501.20477294921875 60.21112060546875 501.2774658203125 65.81441497802734 C 506.8341369628906 65.01431274414062 509.2728271484375 64.33318328857422 516.8947143554688 61.777137756347656 C 516.6092529296875 50.91790008544922 516.27880859375 42.92482376098633 517.1436157226562 37.38207244873047 C 512.7896728515625 39.94785690307617 515.06787109375 37.50768280029297 516.3350830078125 28.686779022216797 C 505.0525817871094 28.715286254882812 499.3780212402344 29.194835662841797 496.30108642578125 28.600326538085938 C 498.0728759765625 28.90948486328125 500.3885498046875 28.83924674987793 501.8997497558594 28.90988540649414 C 500.301513671875 28.897157669067383 503.3377990722656 28.963544845581055 512.3165283203125 28.664655685424805 C 515.4563598632812 28.77231216430664 516.48095703125 23.854169845581055 518.335205078125 12.458474159240723 C 510.0278625488281 10.216771125793457 504.24908447265625 9.35283374786377 502.0389709472656 10.144402503967285 C 504.1224060058594 9.519405364990234 507.587890625 9.955519676208496 515.7080078125 11.591263771057129 C 515.2647094726562 1.581459403038025 513.9862670898438 -1.0129650831222534 511.2478942871094 -2.6392338275909424 C 501.6666564941406 0.11247017979621887 496.3333435058594 0.22991208732128143 489.9094543457031 -1.1233869791030884" stroke-width="0.0" fill="rgb(175, 202, 201)" opacity="1.2140216" stroke="rgb(0, 0, 0)" stroke-opacity="1.0" stroke-linecap="round" stroke-linejoin="round"/>
    <path d="M 468.0269470214844 247.5525360107422 C 484.0107421875 251.9205780029297 490.896484375 273.0232849121094 511.8361511230469 266.5737609863281 C 516.148681640625 259.1192932128906 509.6768798828125 251.6040802001953 515.6118774414062 247.63919067382812 C 516.609130859375 249.40061950683594 516.0537719726562 252.69076538085938 517.370361328125 257.680419921875 C 510.7459411621094 249.56851196289062 508.591552734375 248.06942749023438 515.0816040039062 254.40281677246094 C 512.6141357421875 249.51161193847656 516.1289672851562 243.16920471191406 518.538818359375 225.46316528320312 C 502.881591796875 224.57989501953125 494.6973876953125 225.99969482421875 487.1480712890625 229.43597412109375 C 481.68402099609375 235.5011749267578 476.7586364746094 239.08468627929688 471.61492919921875 243.1313018798828 C 477.96929931640625 244.97080993652344 482.493896484375 248.90565490722656 486.5973815917969 253.02630615234375 C 483.6003723144531 250.09127807617188 480.4404602050781 247.26356506347656 476.6224670410156 245.0270538330078 C 473.40777587890625 243.91445922851562 470.2650146484375 244.24842834472656 468.0269470214844 247.5525360107422" stroke-width="0.0" fill="rgb(154, 178, 188)" opacity="0.9189892" stroke="rgb(0, 0, 0)" stroke-opacity="1.0" stroke-linecap="round" stroke-linejoin="round"/>
    <path d="M -4.69417667388916 181.02865600585938 C -2.585850477218628 192.22842407226562 -0.7335114479064941 196.48858642578125 0.9251590371131897 204.2597198486328 C 18.283273696899414 210.88938903808594 35.305877685546875 215.3655548095703 49.7442626953125 218.46522521972656 C 44.51877212524414 217.49404907226562 40.008148193359375 215.02700805664062 28.539865493774414 219.14923095703125 C 37.92813491821289 224.99058532714844 41.493133544921875 228.87188720703125 40.632816314697266 229.36163330078125 C 63.00332260131836 226.81011962890625 73.51895904541016 225.43701171875 83.3650131225586 218.94314575195312 C 69.77301788330078 203.82943725585938 59.33537673950195 200.07008361816406 48.95651626586914 199.72483825683594 C 40.214027404785156 201.25889587402344 34.32427215576172 197.31468200683594 28.966733932495117 190.38853454589844 C 23.703903198242188 191.2239227294922 19.69509506225586 191.30548095703125 18.241283416748047 190.94786071777344 C 15.577831268310547 189.84060668945312 13.685142517089844 185.51254272460938 11.066699981689453 177.53912353515625 C 3.765713691711426 176.84182739257812 -0.012528324499726295 177.28277587890625 -4.69417667388916 181.02865600585938" stroke-width="0.0" fill="rgb(173, 195, 193)" opacity="1.1326424" stroke="rgb(0, 0, 0)" stroke-opacity="1.0" stroke-linecap="round" stroke-linejoin="round"/>
    <path d="M 263.9936828613281 352.87542724609375 C 252.28140258789062 344.3281555175781 245.58413696289062 344.70989990234375 245.7902374267578 340.4232177734375 C 236.9255828857422 340.53277587890625 234.3397216796875 346.9040222167969 227.5545196533203 352.19775390625 C 238.62545776367188 355.4842834472656 246.6444091796875 356.2994384765625 263.9936828613281 352.87542724609375" stroke-width="0.0" fill="rgb(193, 201, 198)" opacity="0.8903381" stroke="rgb(0, 0, 0)" stroke-opacity="1.0" stroke-linecap="round" stroke-linejoin="round"/>
    <path d="M 209.51364135742188 352.8002624511719 C 210.9709014892578 360.1394348144531 212.86216735839844 360.6314697265625 212.48553466796875 374.38446044921875 C 222.52685546875 375.4031066894531 225.31103515625 374.9839782714844 228.11639404296875 362.92303466796875 C 223.78489685058594 353.279541015625 219.742431640625 352.7441711425781 209.51364135742188 352.8002624511719" stroke-width="0.0" fill="rgb(108, 91, 97)" opacity="0.88547355" stroke="rgb(0, 0, 0)" stroke-opacity="1.0" stroke-linecap="round" stroke-linejoin="round"/>
    <path d="M 219.420654296875 349.42608642578125 C 219.13002014160156 351.93914794921875 214.071044921875 353.32275390625 213.657958984375 353.8103332519531 C 216.02627563476562 353.4297180175781 212.9255828857422 354.7917785644531 206.7630157470703 350.7498474121094 C 210.96755981445312 348.4481506347656 213.72695922851562 349.54681396484375 219.420654296875 349.42608642578125" stroke-width="0.0" fill="rgb(57, 49, 59)" opacity="0.93445414" stroke="rgb(0, 0, 0)" stroke-opacity="1.0" stroke-linecap="round" stroke-linejoin="round"/>
    <path d="M 226.44883728027344 337.7085876464844 C 230.62860107421875 338.77020263671875 230.91920471191406 342.43182373046875 231.82557678222656 341.0147705078125 C 229.90664672851562 341.9709777832031 232.77117919921875 345.0604553222656 230.79782104492188 350.3638000488281 C 226.332275390625 345.4746398925781 225.57484436035156 344.0010681152344 226.44883728027344 337.7085876464844" stroke-width="0.0" fill="rgb(141, 151, 169)" opacity="0.94408137" stroke="rgb(0, 0, 0)" stroke-opacity="1.0" stroke-linecap="round" stroke-linejoin="round"/>
    <path d="M 209.50355529785156 353.65240478515625 C 211.15309143066406 357.3625183105469 212.43441772460938 358.4294738769531 212.19473266601562 361.8638610839844 C 207.77413940429688 363.1243896484375 202.7994384765625 363.5255432128906 196.4578094482422 357.9770812988281 C 201.22962951660156 351.47412109375 205.22084045410156 352.20721435546875 209.50355529785156 353.65240478515625" stroke-width="0.0" fill="rgb(160, 132, 127)" opacity="0.832094" stroke="rgb(0, 0, 0)" stroke-opacity="1.0" stroke-linecap="round" stroke-linejoin="round"/>
    <path d="M 219.49847412109375 348.4073791503906 C 217.76637268066406 349.4317321777344 218.01718139648438 352.7606201171875 218.2017822265625 355.1597595214844 C 219.22744750976562 354.3555908203125 221.16551208496094 355.67333984375 226.15313720703125 354.65875244140625 C 226.27598571777344 348.1891784667969 224.65406799316406 348.82952880859375 219.49847412109375 348.4073791503906" stroke-width="0.0" fill="rgb(163, 176, 187)" opacity="1.014672" stroke="rgb(0, 0, 0)" stroke-opacity="1.0" stroke-linecap="round" stroke-linejoin="round"/>
    <path d="M 228.58926391601562 349.4932861328125 C 225.0167236328125 352.3323669433594 223.50648498535156 353.9625549316406 224.33197021484375 356.7242736816406 C 228.0851287841797 360.4165954589844 227.5140838623047 364.0193786621094 231.5303955078125 363.6485900878906 C 231.68478393554688 354.8744812011719 232.461669921875 352.8902282714844 228.58926391601562 349.4932861328125" stroke-width="0.0" fill="rgb(162, 178, 187)" opacity="0.9836792" stroke="rgb(0, 0, 0)" stroke-opacity="1.0" stroke-linecap="round" stroke-linejoin="round"/>
    <path d="M -1.1801438331604004 191.45587158203125 C -1.5277572870254517 201.20018005371094 -0.5280259251594543 206.63597106933594 -0.39234137535095215 215.86717224121094 C 9.10273551940918 216.00892639160156 18.59528350830078 217.07803344726562 33.82585906982422 216.09451293945312 C 19.84954261779785 205.63381958007812 10.379281044006348 200.13308715820312 -1.1801438331604004 191.45587158203125" stroke-width="0.0" fill="rgb(165, 184, 186)" opacity="1.0795512" stroke="rgb(0, 0, 0)" stroke-opacity="1.0" stroke-linecap="round" stroke-linejoin="round"/>
    <path d="M -11.015730857849121 495.5085144042969 C 15.92011833190918 494.2723388671875 34.571533203125 496.1507568359375 72.6439437866211 495.11505126953125 C 58.77235794067383 475.8478698730469 48.80295181274414 476.4552001953125 46.68722152709961 476.41375732421875 C 52.87141036987305 482.5977478027344 58.531070709228516 480.0204162597656 58.13529586791992 463.5237731933594 C 31.624595642089844 473.87310791015625 26.522912979125977 477.39141845703125 27.826637268066406 479.493896484375 C 31.519554138183594 480.34893798828125 25.600807189941406 478.69146728515625 6.977571487426758 460.9692687988281 C -4.017174243927002 460.43804931640625 -9.007298469543457 467.1529235839844 -11.015730857849121 495.5085144042969" stroke-width="0.0" fill="rgb(70, 82, 108)" opacity="0.67699873" stroke="rgb(0, 0, 0)" stroke-opacity="1.0" stroke-linecap="round" stroke-linejoin="round"/>
    <path d="M 213.5231170654297 354.1854553222656 C 208.84506225585938 357.99755859375 206.7308349609375 358.0194396972656 205.1512451171875 366.34405517578125 C 210.69854736328125 367.16143798828125 213.04039001464844 366.4468688964844 220.0824432373047 362.2701416015625 C 219.37538146972656 356.0848083496094 217.36752319335938 354.67022705078125 213.5231170654297 354.1854553222656" stroke-width="0.0" fill="rgb(121, 99, 101)" opacity="0.7187438" stroke="rgb(0, 0, 0)" stroke-opacity="1.0" stroke-linecap="round" stroke-linejoin="round"/>
    <path d="M 230.357421875 332.4486999511719 C 226.3000946044922 332.9270324707031 225.26705932617188 334.5316162109375 223.54164123535156 340.1921691894531 C 228.60968017578125 343.1789245605469 232.29234313964844 342.4798278808594 229.3825225830078 340.86297607421875 C 229.4584503173828 337.156982421875 232.27072143554688 332.6078796386719 230.357421875 332.4486999511719" stroke-width="0.0" fill="rgb(167, 177, 185)" opacity="0.73300916" stroke="rgb(0, 0, 0)" stroke-opacity="1.0" stroke-linecap="round" stroke-linejoin="round"/>
    <path d="M 230.5976104736328 360.5125732421875 C 227.3990936279297 365.31524658203125 229.50827026367188 367.53973388671875 229.25857543945312 364.42755126953125 C 230.10292053222656 365.9088439941406 227.9969940185547 371.6942443847656 232.25372314453125 373.7501220703125 C 230.3045196533203 365.03948974609375 234.3406219482422 362.57147216796875 230.5976104736328 360.5125732421875" stroke-width="0.0" fill="rgb(164, 171, 184)" opacity="0.79787385" stroke="rgb(0, 0, 0)" stroke-opacity="1.0" stroke-linecap="round" stroke-linejoin="round"/>
    <path d="M 227.10801696777344 379.5589294433594 C 224.86932373046875 380.2455139160156 228.50665283203125 385.7207946777344 227.9415740966797 381.8055419921875 C 227.59278869628906 383.0093994140625 227.5397491455078 389.2362976074219 232.69007873535156 387.3428955078125 C 231.3918914794922 375.3476257324219 233.22299194335938 377.8176574707031 227.10801696777344 379.5589294433594" stroke-width="0.0" fill="rgb(141, 154, 166)" opacity="0.82510334" stroke="rgb(0, 0, 0)" stroke-opacity="1.0" stroke-linecap="round" stroke-linejoin="round"/>
    <path d="M 53.709110260009766 466.8968811035156 C 63.689308166503906 506.0833435058594 67.68582153320312 513.0775756835938 76.59431457519531 524.7708740234375 C 113.82434844970703 527.0191650390625 118.3358383178711 525.6824340820312 144.04747009277344 471.6414489746094 C 142.71665954589844 471.5876770019531 111.3804931640625 481.21728515625 53.709110260009766 466.8968811035156" stroke-width="0.0" fill="rgb(86, 97, 122)" opacity="0.89973706" stroke="rgb(0, 0, 0)" stroke-opacity="1.0" stroke-linecap="round" stroke-linejoin="round"/>
    <path d="M 231.26705932617188 371.5005187988281 C 229.26089477539062 374.3426208496094 227.0220947265625 374.63519287109375 225.72853088378906 378.78839111328125 C 229.72119140625 382.0345458984375 231.06936645507812 377.64825439453125 231.13357543945312 374.07159423828125 C 230.1389923095703 375.88714599609375 232.40419006347656 373.23260498046875 231.26705932617188 371.5005187988281" stroke-width="0.0" fill="rgb(58, 59, 68)" opacity="0.96692014" stroke="rgb(0, 0, 0)" stroke-opacity="1.0" stroke-linecap="round" stroke-linejoin="round"/>
    <path d="M 242.8153839111328 333.0615539550781 C 240.1844024658203 334.4346008300781 240.2780303955078 335.66815185546875 239.31744384765625 341.359375 C 243.61636352539062 343.2853088378906 242.7667236328125 336.60858154296875 244.34249877929688 335.48883056640625 C 243.5370330810547 339.0567321777344 244.57513427734375 335.5987243652344 242.8153839111328 333.0615539550781" stroke-width="0.0" fill="rgb(71, 68, 79)" opacity="0.9587231" stroke="rgb(0, 0, 0)" stroke-opacity="1.0" stroke-linecap="round" stroke-linejoin="round"/>
    <path d="M 205.71401977539062 340.8392028808594 C 204.4333038330078 351.2839660644531 206.45204162597656 353.3826904296875 204.65126037597656 352.9566345214844 C 205.68370056152344 352.7359313964844 207.88584899902344 352.82440185546875 210.5438690185547 353.9267883300781 C 209.39794921875 352.74444580078125 209.36256408691406 350.5597839355469 205.71401977539062 340.8392028808594" stroke-width="0.0" fill="rgb(75, 70, 78)" opacity="0.86117816" stroke="rgb(0, 0, 0)" stroke-opacity="1.0" stroke-linecap="round" stroke-linejoin="round"/>
    <path d="M 245.742919921875 352.05120849609375 C 242.87051391601562 353.1105651855469 240.80857849121094 353.403076171875 240.49203491210938 357.16424560546875 C 245.36277770996094 354.4891357421875 245.84202575683594 360.2677307128906 255.35247802734375 357.552734375 C 252.5771484375 351.43853759765625 248.51260375976562 352.285400390625 245.742919921875 352.05120849609375" stroke-width="0.0" fill="rgb(148, 149, 160)" opacity="0.9405106" stroke="rgb(0, 0, 0)" stroke-opacity="1.0" stroke-linecap="round" stroke-linejoin="round"/>
    <path d="M 233.2259979248047 258.51171875 C 249.44741821289062 269.7841491699219 259.011962890625 268.9599304199219 271.4578552246094 272.4020690917969 C 277.24713134765625 273.4881286621094 282.37939453125 267.607666015625 297.5156555175781 256.9637451171875 C 273.7127685546875 255.31533813476562 260.6841125488281 257.2117919921875 233.2259979248047 258.51171875" stroke-width="0.0" fill="rgb(143, 175, 185)" opacity="0.75288504" stroke="rgb(0, 0, 0)" stroke-opacity="1.0" stroke-linecap="round" stroke-linejoin="round"/>
    <path d="M 209.876953125 335.3593444824219 C 214.75572204589844 336.22161865234375 214.54136657714844 336.1767883300781 215.03610229492188 338.87078857421875 C 212.18116760253906 340.2098388671875 209.3781280517578 345.13153076171875 206.3301544189453 349.4744873046875 C 207.19131469726562 335.07940673828125 204.9766845703125 336.8136901855469 209.876953125 335.3593444824219" stroke-width="0.0" fill="rgb(51, 49, 55)" opacity="0.8427918" stroke="rgb(0, 0, 0)" stroke-opacity="1.0" stroke-linecap="round" stroke-linejoin="round"/>
    <path d="M 242.6263427734375 349.06231689453125 C 240.91094970703125 348.81182861328125 239.0120849609375 349.8231201171875 234.38168334960938 354.6157531738281 C 242.73292541503906 354.9300537109375 244.8611297607422 353.50927734375 257.9496154785156 354.2432861328125 C 251.03184509277344 348.9479675292969 246.3857421875 351.2378845214844 242.6263427734375 349.06231689453125" stroke-width="0.0" fill="rgb(163, 166, 171)" opacity="0.88920903" stroke="rgb(0, 0, 0)" stroke-opacity="1.0" stroke-linecap="round" stroke-linejoin="round"/>
    <path d="M 229.82933044433594 447.8026428222656 C 226.51736450195312 452.1596374511719 233.35813903808594 450.31549072265625 239.5699462890625 453.7744445800781 C 243.03921508789062 448.8033752441406 250.61668395996094 460.6976318359375 252.86485290527344 449.7997131347656 C 250.2917022705078 443.4147033691406 246.17210388183594 447.9373474121094 229.82933044433594 447.8026428222656" stroke-width="0.0" fill="rgb(70, 71, 83)" opacity="0.9253422" stroke="rgb(0, 0, 0)" stroke-opacity="1.0" stroke-linecap="round" stroke-linejoin="round"/>
    <path d="M 199.80938720703125 357.4341735839844 C 200.11663818359375 360.8302001953125 199.68553161621094 362.8081359863281 200.79879760742188 368.1563415527344 C 205.8568572998047 363.3724670410156 207.1044921875 362.7472839355469 208.0564727783203 360.57354736328125 C 202.98313903808594 360.1221618652344 201.63836669921875 358.5740966796875 199.80938720703125 357.4341735839844" stroke-width="0.0" fill="rgb(113, 93, 95)" opacity="0.7975082" stroke="rgb(0, 0, 0)" stroke-opacity="1.0" stroke-linecap="round" stroke-linejoin="round"/>
    <path d="M 181.06361389160156 426.6015625 C 192.30860900878906 418.7917785644531 194.54605102539062 425.7160339355469 199.16004943847656 437.33172607421875 C 196.03514099121094 429.552490234375 199.28176879882812 427.19732666015625 197.96575927734375 408.0996398925781 C 190.13003540039062 418.75811767578125 194.1619110107422 416.0576171875 181.06361389160156 426.6015625" stroke-width="0.0" fill="rgb(160, 167, 173)" opacity="0.9613171" stroke="rgb(0, 0, 0)" stroke-opacity="1.0" stroke-linecap="round" stroke-linejoin="round"/>
    <path d="M 224.47967529296875 340.6460266113281 C 223.53402709960938 341.8154296875 222.22702026367188 342.92071533203125 220.6838836669922 349.6593933105469 C 226.50843811035156 350.5401611328125 228.97470092773438 351.1865539550781 236.6486358642578 345.3781433105469 C 229.80784606933594 346.2286376953125 228.34654235839844 344.5943908691406 224.47967529296875 340.6460266113281" stroke-width="0.0" fill="rgb(141, 161, 172)" opacity="1.0018612" stroke="rgb(0, 0, 0)" stroke-opacity="1.0" stroke-linecap="round" stroke-linejoin="round"/>
    <path d="M 229.55897521972656 407.0269775390625 C 238.0712890625 427.14801025390625 228.9996795654297 433.6959228515625 236.69032287597656 435.9521789550781 C 222.2992401123047 433.3500061035156 216.7041473388672 439.6018371582031 220.334716796875 428.12481689453125 C 235.8280487060547 424.9463806152344 225.860107421875 431.69769287109375 229.55897521972656 407.0269775390625" stroke-width="0.0" fill="rgb(158, 165, 174)" opacity="1.0446463" stroke="rgb(0, 0, 0)" stroke-opacity="1.0" stroke-linecap="round" stroke-linejoin="round"/>
    <path d="M 231.80355834960938 400.8112487792969 C 236.49029541015625 397.91015625 234.16134643554688 403.515869140625 235.0278778076172 404.62158203125 C 234.73561096191406 404.19793701171875 235.5561065673828 411.23895263671875 234.41513061523438 415.9346923828125 C 232.52569580078125 408.30816650390625 232.46475219726562 403.5819396972656 231.80355834960938 400.8112487792969" stroke-width="0.0" fill="rgb(153, 155, 166)" opacity="1.058068" stroke="rgb(0, 0, 0)" stroke-opacity="1.0" stroke-linecap="round" stroke-linejoin="round"/>
    <path d="M 226.36964416503906 382.2068176269531 C 228.32540893554688 389.7842712402344 227.9878387451172 391.53125 226.10919189453125 387.383056640625 C 227.4149932861328 388.5816955566406 227.02005004882812 393.062744140625 230.3319091796875 392.011962890625 C 231.22621154785156 387.653564453125 232.2154541015625 384.30743408203125 226.36964416503906 382.2068176269531" stroke-width="0.0" fill="rgb(152, 162, 174)" opacity="0.8343104" stroke="rgb(0, 0, 0)" stroke-opacity="1.0" stroke-linecap="round" stroke-linejoin="round"/>
    <path d="M 202.57180786132812 342.9596252441406 C 194.55862426757812 346.3373107910156 186.0699005126953 344.40655517578125 173.41006469726562 375.93853759765625 C 204.4292449951172 366.09271240234375 203.2151641845703 355.394775390625 208.9515838623047 353.6242980957031 C 205.00833129882812 353.399658203125 208.21255493164062 351.6358947753906 202.57180786132812 342.9596252441406" stroke-width="0.0" fill="rgb(159, 175, 182)" opacity="0.7473866" stroke="rgb(0, 0, 0)" stroke-opacity="1.0" stroke-linecap="round" stroke-linejoin="round"/>
    <path d="M 478.5880432128906 244.9931640625 C 473.921142578125 244.39361572265625 469.07232666015625 244.75497436523438 465.9289245605469 246.43643188476562 C 464.08544921875 248.40016174316406 462.1839904785156 251.61135864257812 457.8163146972656 254.39564514160156 C 465.7570495605469 257.3337707519531 475.4559326171875 253.71942138671875 486.3385314941406 259.42425537109375 C 476.6446533203125 248.97976684570312 471.7358093261719 246.50674438476562 467.28466796875 246.6585235595703 C 470.8765869140625 249.63467407226562 475.01507568359375 246.92922973632812 478.5880432128906 244.9931640625" stroke-width="0.0" fill="rgb(155, 181, 187)" opacity="1.2664994" stroke="rgb(0, 0, 0)" stroke-opacity="1.0" stroke-linecap="round" stroke-linejoin="round"/>
    <path d="M 184.94093322753906 237.28662109375 C 182.9908447265625 244.37449645996094 188.53729248046875 243.18626403808594 190.46617126464844 245.074951171875 C 199.4021759033203 250.9505157470703 211.8326416015625 256.31060791015625 236.91014099121094 254.2458038330078 C 217.10247802734375 242.0949249267578 200.20867919921875 244.5435791015625 184.94093322753906 237.28662109375" stroke-width="0.0" fill="rgb(146, 177, 184)" opacity="0.7085721" stroke="rgb(0, 0, 0)" stroke-opacity="1.0" stroke-linecap="round" stroke-linejoin="round"/>
    <path d="M 181.9501495361328 417.1256103515625 C 172.02090454101562 418.4243469238281 160.8493194580078 422.3465576171875 112.69305419921875 422.16943359375 C 157.8584442138672 437.7496643066406 171.23794555664062 422.7425537109375 173.8465576171875 427.54339599609375 C 166.2420196533203 427.28521728515625 160.15318298339844 426.8303527832031 171.32518005371094 435.3902282714844 C 174.86534118652344 429.46893310546875 178.8647003173828 424.03228759765625 181.9501495361328 417.1256103515625" stroke-width="0.0" fill="rgb(76, 89, 109)" opacity="0.8611156" stroke="rgb(0, 0, 0)" stroke-opacity="1.0" stroke-linecap="round" stroke-linejoin="round"/>
    <path d="M 256.23004150390625 408.3480529785156 C 257.0891418457031 396.8507385253906 256.7227783203125 400.3648681640625 257.4552001953125 404.2077331542969 C 262.5158996582031 411.9071044921875 269.89813232421875 427.0550842285156 257.1551208496094 423.8600158691406 C 255.0140380859375 412.9353332519531 247.74827575683594 410.6474609375 256.23004150390625 408.3480529785156" stroke-width="0.0" fill="rgb(113, 129, 145)" opacity="1.4768896" stroke="rgb(0, 0, 0)" stroke-opacity="1.0" stroke-linecap="round" stroke-linejoin="round"/>
    <path d="M 413.68048095703125 246.5691375732422 C 413.5874328613281 250.08518981933594 412.3165283203125 253.48545837402344 410.2693176269531 262.8689270019531 C 424.4239196777344 261.9330139160156 436.499267578125 263.9033508300781 455.90167236328125 256.2520446777344 C 427.34521484375 244.8963623046875 416.63433837890625 246.9085693359375 413.68048095703125 246.5691375732422" stroke-width="0.0" fill="rgb(128, 162, 180)" opacity="0.637085" stroke="rgb(0, 0, 0)" stroke-opacity="1.0" stroke-linecap="round" stroke-linejoin="round"/>
    <path d="M 252.176513671875 363.6152038574219 C 249.8780059814453 376.7930603027344 252.846435546875 377.8390808105469 250.74818420410156 379.785400390625 C 253.90086364746094 379.9201965332031 255.42965698242188 379.605224609375 256.4079895019531 377.4400634765625 C 254.90589904785156 380.3632507324219 255.318603515625 376.5694274902344 252.176513671875 363.6152038574219" stroke-width="0.0" fill="rgb(149, 157, 168)" opacity="0.9176486" stroke="rgb(0, 0, 0)" stroke-opacity="1.0" stroke-linecap="round" stroke-linejoin="round"/>
    <path d="M 190.04159545898438 302.1678771972656 C 216.04315185546875 308.2013244628906 227.45425415039062 308.5125427246094 258.05718994140625 300.65167236328125 C 240.30255126953125 286.0042419433594 230.49195861816406 288.4176330566406 212.5185089111328 277.37310791015625 C 208.3389129638672 283.71649169921875 204.1230926513672 284.4540100097656 195.2182159423828 297.07666015625 C 217.39637756347656 299.04766845703125 222.99412536621094 298.7151184082031 227.8365936279297 298.16253662109375 C 220.7440643310547 300.8412170410156 211.84567260742188 293.7642517089844 190.04159545898438 302.1678771972656" stroke-width="0.0" fill="rgb(97, 121, 149)" opacity="0.8871784" stroke="rgb(0, 0, 0)" stroke-opacity="1.0" stroke-linecap="round" stroke-linejoin="round"/>
    <path d="M 11.78396987915039 199.09268188476562 C 10.661918640136719 203.31822204589844 11.417398452758789 204.64450073242188 12.288458824157715 206.3782196044922 C 19.381832122802734 213.17909240722656 26.40652847290039 220.3306121826172 44.52811813354492 216.84947204589844 C 32.647193908691406 204.95555114746094 21.981754302978516 202.4120635986328 11.78396987915039 199.09268188476562" stroke-width="0.0" fill="rgb(166, 185, 188)" opacity="0.9314205" stroke="rgb(0, 0, 0)" stroke-opacity="1.0" stroke-linecap="round" stroke-linejoin="round"/>
    <path d="M 395.4220886230469 486.18035888671875 C 416.6906433105469 512.2084350585938 427.109619140625 505.05279541015625 409.63525390625 506.86962890625 C 442.37286376953125 502.3329162597656 474.6295166015625 513.4930419921875 522.20458984375 490.7325134277344 C 473.327880859375 456.83380126953125 439.0250549316406 464.59002685546875 395.4220886230469 486.18035888671875" stroke-width="0.0" fill="rgb(101, 120, 146)" opacity="1.5241823" stroke="rgb(0, 0, 0)" stroke-opacity="1.0" stroke-linecap="round" stroke-linejoin="round"/>
    <path d="M 260.3150939941406 411.1875915527344 C 301.3970031738281 419.999267578125 320.6358337402344 415.3662414550781 390.7729187011719 399.66363525390625 C 372.7998352050781 346.0829772949219 356.2088623046875 348.2178955078125 331.48199462890625 334.5322570800781 C 292.88336181640625 367.7246398925781 276.4158935546875 365.6881103515625 260.3150939941406 411.1875915527344" stroke-width="0.0" fill="rgb(153, 176, 184)" opacity="0.6977216" stroke="rgb(0, 0, 0)" stroke-opacity="1.0" stroke-linecap="round" stroke-linejoin="round"/>
    <path d="M 202.4606170654297 357.28900146484375 C 197.68711853027344 360.5639343261719 197.20828247070312 362.6273193359375 195.24624633789062 374.80108642578125 C 199.66409301757812 368.8725891113281 199.60671997070312 363.71636962890625 200.7858123779297 363.368896484375 C 200.4508514404297 362.7360534667969 202.77967834472656 360.755126953125 202.4606170654297 357.28900146484375" stroke-width="0.0" fill="rgb(116, 109, 112)" opacity="0.8726706" stroke="rgb(0, 0, 0)" stroke-opacity="1.0" stroke-linecap="round" stroke-linejoin="round"/>
    <path d="M -5.838205814361572 425.80206298828125 C 0.11123450100421906 481.5257873535156 11.454408645629883 482.2351379394531 22.747058868408203 483.1901550292969 C 30.140911102294922 488.2763977050781 39.80814743041992 491.8289794921875 71.36395263671875 451.7344055175781 C 45.598297119140625 428.422119140625 33.370323181152344 423.3144836425781 -5.838205814361572 425.80206298828125" stroke-width="0.0" fill="rgb(98, 113, 139)" opacity="0.72917426" stroke="rgb(0, 0, 0)" stroke-opacity="1.0" stroke-linecap="round" stroke-linejoin="round"/>
    <path d="M 209.16958618164062 428.52386474609375 C 215.33595275878906 427.8404235839844 209.76718139648438 428.9554443359375 212.94479370117188 431.05877685546875 C 212.14230346679688 432.3934020996094 215.2635955810547 435.1927490234375 207.78155517578125 447.3663635253906 C 206.5016632080078 435.6671447753906 210.5592041015625 431.314453125 209.16958618164062 428.52386474609375" stroke-width="0.0" fill="rgb(159, 159, 169)" opacity="0.8734518" stroke="rgb(0, 0, 0)" stroke-opacity="1.0" stroke-linecap="round" stroke-linejoin="round"/>
    <path d="M 203.49290466308594 472.6227722167969 C 220.16221618652344 480.4789733886719 229.11785888671875 477.4916076660156 239.83599853515625 479.2098083496094 C 238.88438415527344 471.21612548828125 239.90301513671875 466.0181579589844 229.3472900390625 466.40301513671875 C 230.2997283935547 476.4271545410156 219.0040283203125 468.9747619628906 203.49290466308594 472.6227722167969" stroke-width="0.0" fill="rgb(152, 160, 170)" opacity="0.97077715" stroke="rgb(0, 0, 0)" stroke-opacity="1.0" stroke-linecap="round" stroke-linejoin="round"/>
    <path d="M 250.38865661621094 376.88031005859375 C 248.4345703125 378.10113525390625 245.0392303466797 377.9388427734375 240.0902557373047 379.9088134765625 C 249.04953002929688 379.4877014160156 251.31378173828125 378.4152526855469 254.94140625 379.2621765136719 C 255.25836181640625 376.68804931640625 253.38612365722656 376.47216796875 250.38865661621094 376.88031005859375" stroke-width="0.0" fill="rgb(171, 184, 194)" opacity="0.9155658" stroke="rgb(0, 0, 0)" stroke-opacity="1.0" stroke-linecap="round" stroke-linejoin="round"/>
    <path d="M 248.21302795410156 379.5931701660156 C 243.04208374023438 379.68243408203125 243.1584014892578 381.7420959472656 243.49346923828125 385.5705871582031 C 245.923583984375 385.89013671875 247.96229553222656 385.1587829589844 255.0399627685547 385.742919921875 C 259.5436096191406 382.9591064453125 256.12457275390625 380.4366455078125 248.21302795410156 379.5931701660156" stroke-width="0.0" fill="rgb(104, 124, 137)" opacity="0.857985" stroke="rgb(0, 0, 0)" stroke-opacity="1.0" stroke-linecap="round" stroke-linejoin="round"/>
    <path d="M 212.04702758789062 435.6663513183594 C 213.5474395751953 435.7632141113281 212.94557189941406 439.3159484863281 213.85284423828125 436.337646484375 C 211.7899169921875 442.4599914550781 213.12562561035156 444.7385559082031 220.8489532470703 454.46490478515625 C 200.63267517089844 446.4404296875 209.6672821044922 440.9554138183594 212.04702758789062 435.6663513183594" stroke-width="0.0" fill="rgb(171, 167, 170)" opacity="0.7840167" stroke="rgb(0, 0, 0)" stroke-opacity="1.0" stroke-linecap="round" stroke-linejoin="round"/>
    <path d="M 202.7128143310547 327.2489929199219 C 194.26832580566406 334.0101318359375 191.36488342285156 335.8644714355469 188.9662628173828 348.6073913574219 C 203.9123992919922 351.3028259277344 203.70314025878906 348.3221435546875 203.77699279785156 343.655517578125 C 207.75706481933594 343.3576354980469 204.80447387695312 339.0778503417969 202.7128143310547 327.2489929199219" stroke-width="0.0" fill="rgb(160, 178, 185)" opacity="0.9928797" stroke="rgb(0, 0, 0)" stroke-opacity="1.0" stroke-linecap="round" stroke-linejoin="round"/>
    <path d="M 248.23292541503906 333.7364196777344 C 244.3008575439453 337.5859680175781 243.37452697753906 338.9576416015625 246.6929168701172 344.6097412109375 C 248.2547607421875 344.4242858886719 249.4186248779297 340.5205383300781 258.36480712890625 343.5198059082031 C 253.90057373046875 338.4406433105469 252.09080505371094 337.9844055175781 248.23292541503906 333.7364196777344" stroke-width="0.0" fill="rgb(153, 174, 183)" opacity="1.0001996" stroke="rgb(0, 0, 0)" stroke-opacity="1.0" stroke-linecap="round" stroke-linejoin="round"/>
    <path d="M -0.26704227924346924 172.06007385253906 C 3.759049654006958 179.14300537109375 7.9272942543029785 186.04217529296875 11.99743366241455 192.9982147216797 C 26.006710052490234 198.98448181152344 39.99930953979492 205.00157165527344 54.014305114746094 210.99461364746094 C 55.33941650390625 208.33636474609375 56.671142578125 205.6688995361328 57.967010498046875 203.02230834960938 C 61.63417053222656 210.01748657226562 65.33290100097656 217.00051879882812 69.83148193359375 221.90945434570312 C 91.89639282226562 224.4063720703125 113.43959045410156 227.61463928222656 135.1070098876953 232.13311767578125 C 123.42378997802734 222.22509765625 111.75652313232422 212.55911254882812 100.07471466064453 202.828369140625 C 79.47990417480469 198.12042236328125 58.84947204589844 193.6752166748047 38.16337203979492 189.48703002929688 C 25.388307571411133 183.88734436035156 12.707892417907715 177.915771484375 -0.26704227924346924 172.06007385253906" stroke-width="0.0" fill="rgb(171, 192, 193)" opacity="0.94415015" stroke="rgb(0, 0, 0)" stroke-opacity="1.0" stroke-linecap="round" stroke-linejoin="round"/>
    <path d="M 511.8226013183594 215.1990203857422 C 503.6827087402344 217.05923461914062 496.3467712402344 219.04904174804688 488.9884948730469 221.11851501464844 C 481.652099609375 219.05215454101562 474.3243408203125 217.03257751464844 467.0105895996094 215.1221466064453 C 460.36553955078125 217.74560546875 453.7017822265625 220.41929626464844 447.036865234375 223.05609130859375 C 448.67034912109375 225.3306884765625 450.3345642089844 227.66580200195312 452.0132141113281 230.00856018066406 C 448.3464050292969 234.01199340820312 444.6820983886719 238.01419067382812 441.01153564453125 241.99224853515625 C 435.3349304199219 239.3300018310547 429.66009521484375 236.6806182861328 424.02410888671875 234.06552124023438 C 419.6880187988281 238.023193359375 415.341064453125 242.00836181640625 411.0001525878906 245.97605895996094 C 417.3339538574219 246.6614227294922 423.66094970703125 247.38584899902344 429.97418212890625 248.12274169921875 C 428.02215576171875 250.3526611328125 426.0779113769531 252.735107421875 424.1851501464844 253.99598693847656 C 435.41400146484375 253.978515625 446.7861633300781 254.19789123535156 458.1492614746094 254.69163513183594 C 474.9159240722656 247.50804138183594 491.8554992675781 239.0545196533203 509.233154296875 230.8367919921875 C 510.476318359375 225.80967712402344 511.3636474609375 220.52516174316406 511.8226013183594 215.1990203857422" stroke-width="0.0" fill="rgb(163, 187, 191)" opacity="0.9727402" stroke="rgb(0, 0, 0)" stroke-opacity="1.0" stroke-linecap="round" stroke-linejoin="round"/>
    <path d="M 148.08261108398438 340.2530822753906 C 161.45553588867188 344.18060302734375 173.99594116210938 346.8685302734375 186.8573760986328 348.7547912597656 C 191.98655700683594 346.6235656738281 196.97042846679688 345.2301330566406 201.78184509277344 343.92047119140625 C 201.86865234375 341.33203125 201.93931579589844 338.6661071777344 202.9390106201172 334.1430969238281 C 211.51145935058594 335.6884765625 219.34230041503906 337.7967224121094 226.1512908935547 340.5661926269531 C 228.16578674316406 336.655517578125 231.10789489746094 331.9382019042969 235.8790740966797 328.0837097167969 C 243.34410095214844 332.0852355957031 248.97579956054688 337.2284240722656 254.79843139648438 343.0498962402344 C 266.2486267089844 343.9286193847656 277.664306640625 344.6817932128906 289.0670166015625 346.1119384765625 C 300.9767761230469 343.1302490234375 312.978515625 340.0487365722656 325.46234130859375 334.8226318359375 C 311.6134948730469 325.6955871582031 298.1360778808594 317.8553771972656 284.5794677734375 311.77593994140625 C 250.9449005126953 311.7247009277344 217.94271850585938 311.0846862792969 185.0889892578125 310.7161865234375 C 179.25363159179688 311.1296081542969 173.4391632080078 313.13946533203125 167.18678283691406 314.9556884765625 C 161.14161682128906 323.9173889160156 154.623779296875 332.0920104980469 148.08261108398438 340.2530822753906" stroke-width="0.0" fill="rgb(147, 164, 176)" opacity="0.88263124" stroke="rgb(0, 0, 0)" stroke-opacity="1.0" stroke-linecap="round" stroke-linejoin="round"/>
    <path d="M 330.2633056640625 355.0182189941406 C 326.7837829589844 349.9201965332031 323.2879943847656 345.0305480957031 319.96270751953125 340.4466857910156 C 296.7044982910156 342.0774230957031 273.564208984375 344.8591613769531 251.47247314453125 347.04278564453125 C 253.98956298828125 353.5928955078125 256.4813232421875 362.7359924316406 258.2003173828125 372.3302307128906 C 260.8917236328125 374.90838623046875 264.9329833984375 376.50140380859375 269.7408447265625 379.4792785644531 C 282.412353515625 376.6181640625 295.17059326171875 373.3327941894531 308.1724548339844 370.4632263183594 C 315.43548583984375 365.1468505859375 322.7904968261719 360.17779541015625 330.2633056640625 355.0182189941406" stroke-width="0.0" fill="rgb(153, 175, 183)" opacity="0.987002" stroke="rgb(0, 0, 0)" stroke-opacity="1.0" stroke-linecap="round" stroke-linejoin="round"/>
  </g>
</svg>
