<?xml version="1.0" ?>
<svg xmlns="http://www.w3.org/2000/svg" version="1.1" width="512" height="512">
  <defs/>
  <g>
    <path d="M -5.062669277191162 -0.9396505355834961 C -5.00887393951416 170.43063354492188 -4.922564506530762 340.740966796875 -4.875228404998779 515.9755859375 C 169.65756225585938 516.3580932617188 340.33331298828125 516.7018432617188 517.1954956054688 517.255615234375 C 517.2714233398438 340.5489807128906 517.1178588867188 170.0076141357422 516.638427734375 -4.20773983001709 C 340.7574157714844 -4.142627239227295 170.347900390625 -3.9711153507232666 -5.062669277191162 -0.9396505355834961" stroke-width="0.0" fill="rgb(107, 107, 96)" opacity="0.88510555" stroke="rgb(0, 0, 0)" stroke-opacity="1.0" stroke-linecap="round" stroke-linejoin="round"/>
    <path d="M 37.136146545410156 -3.9233899116516113 C 25.64636993408203 66.27134704589844 13.012344360351562 133.4742431640625 5.04924201965332 204.25827026367188 C 3.0109024047851562 230.2759246826172 2.2681896686553955 260.938720703125 4.759305953979492 293.3616638183594 C 8.849050521850586 299.650390625 20.704980850219727 300.6889953613281 31.63734245300293 306.30267333984375 C 19.95950698852539 308.40142822265625 14.596410751342773 304.1070556640625 5.691056251525879 297.9091796875 C 5.529757499694824 329.2381896972656 5.4389519691467285 360.11712646484375 5.10258150100708 389.2793273925781 C 63.33927536010742 387.87213134765625 116.54750061035156 384.3082580566406 169.8783721923828 377.8324890136719 C 165.21377563476562 361.62969970703125 166.0415496826172 340.5882263183594 160.92703247070312 325.7790832519531 C 160.82504272460938 314.17681884765625 164.61061096191406 302.6838073730469 166.82583618164062 292.317138671875 C 170.9917449951172 285.26739501953125 175.60107421875 277.7110595703125 184.16278076171875 273.0374450683594 C 195.77020263671875 267.98004150390625 210.79159545898438 265.36627197265625 224.4752197265625 258.459716796875 C 222.40805053710938 239.26869201660156 215.1720733642578 228.40399169921875 217.26834106445312 217.74032592773438 C 223.37818908691406 200.62449645996094 227.66140747070312 190.65054321289062 240.33045959472656 189.094970703125 C 250.08934020996094 186.20770263671875 257.2459411621094 188.1787872314453 264.42529296875 194.61376953125 C 272.38177490234375 195.1998291015625 272.64654541015625 205.60018920898438 278.4853820800781 219.54507446289062 C 281.7318115234375 233.0301513671875 269.8956298828125 240.59165954589844 271.0586853027344 261.76397705078125 C 280.0447082519531 267.0623474121094 290.42535400390625 270.21197509765625 299.9356384277344 273.6761474609375 C 307.2073059082031 277.80133056640625 312.96112060546875 282.4576721191406 317.5546875 292.68798828125 C 322.4227294921875 310.45037841796875 324.9462585449219 333.9383850097656 323.5874938964844 361.22918701171875 C 342.2255859375 361.83990478515625 351.58154296875 354.7146301269531 370.9859924316406 355.0449523925781 C 376.36370849609375 343.983642578125 387.9014587402344 339.0874938964844 403.28277587890625 337.87255859375 C 408.34490966796875 327.9957580566406 408.4460144042969 322.1481018066406 415.8439025878906 321.4625244140625 C 448.231201171875 320.50506591796875 480.19903564453125 319.5186767578125 516.35693359375 318.51910400390625 C 516.542236328125 211.27731323242188 516.5234375 105.50665283203125 516.3020629882812 -5.178450584411621 C 351.52020263671875 -4.850558757781982 194.6085662841797 -4.516166687011719 37.136146545410156 -3.9233899116516113" stroke-width="0.0" fill="rgb(89, 92, 75)" opacity="0.8881145" stroke="rgb(0, 0, 0)" stroke-opacity="1.0" stroke-linecap="round" stroke-linejoin="round"/>
    <path d="M 245.4674072265625 191.5204315185547 C 236.63543701171875 191.98477172851562 232.29592895507812 195.32113647460938 229.6326141357422 198.40536499023438 C 226.5971221923828 204.8555450439453 222.99594116210938 212.21571350097656 220.495361328125 220.10986328125 C 219.20521545410156 236.0037078857422 219.90565490722656 250.99041748046875 223.43348693847656 265.18096923828125 C 207.38717651367188 269.4327697753906 190.89935302734375 271.9020690917969 181.15060424804688 280.54107666015625 C 172.9788818359375 284.63232421875 172.24481201171875 293.79608154296875 169.0851593017578 308.5713806152344 C 166.59750366210938 321.66644287109375 170.84727478027344 336.7330017089844 170.04830932617188 355.2838134765625 C 171.4592742919922 367.1603088378906 179.83847045898438 374.6427001953125 182.2874755859375 386.2856750488281 C 178.5041046142578 406.7060241699219 173.9537811279297 427.2997741699219 172.12806701660156 452.0208435058594 C 178.45062255859375 469.23382568359375 182.218017578125 486.9169006347656 179.5179443359375 516.7435302734375 C 224.02732849121094 517.0115966796875 269.107177734375 516.8855590820312 315.53277587890625 516.5825805664062 C 317.3480529785156 490.76995849609375 321.81866455078125 471.85333251953125 320.421142578125 449.49322509765625 C 315.9845886230469 422.9784240722656 310.86737060546875 398.78094482421875 305.32537841796875 377.6435546875 C 310.8226318359375 371.023681640625 316.2098083496094 363.09063720703125 320.3546142578125 353.5015869140625 C 317.543701171875 335.61944580078125 318.7548828125 317.4661865234375 315.3706970214844 301.52191162109375 C 312.9154968261719 292.3671569824219 309.0664978027344 284.8830261230469 302.34490966796875 280.2044982910156 C 291.5065612792969 273.77093505859375 277.5577392578125 271.1993103027344 264.615966796875 265.79022216796875 C 267.6544494628906 244.42930603027344 279.2280578613281 233.87269592285156 272.7898254394531 215.1404571533203 C 268.94805908203125 202.94227600097656 267.68505859375 196.126220703125 262.33837890625 193.73284912109375 C 255.4865264892578 192.86734008789062 249.78079223632812 190.86514282226562 245.4674072265625 191.5204315185547" stroke-width="0.0" fill="rgb(66, 54, 51)" opacity="1.0096836" stroke="rgb(0, 0, 0)" stroke-opacity="1.0" stroke-linecap="round" stroke-linejoin="round"/>
    <path d="M 516.46435546875 320.8716125488281 C 479.4703063964844 321.0483703613281 448.9664611816406 322.96240234375 420.0882873535156 323.5020446777344 C 411.10479736328125 328.0306091308594 410.7279357910156 336.3650817871094 409.4439392089844 342.6393127441406 C 380.74139404296875 339.6352233886719 379.7126159667969 364.5072326660156 353.26666259765625 358.42340087890625 C 347.7204895019531 368.2919616699219 343.2705383300781 370.9052429199219 341.1421813964844 375.93408203125 C 331.8528137207031 377.1006774902344 319.96563720703125 377.7931213378906 308.63104248046875 378.9497375488281 C 312.3838806152344 406.90362548828125 319.9031982421875 426.69219970703125 322.5957946777344 449.4638671875 C 323.6288146972656 466.2678527832031 321.2444152832031 481.2010498046875 321.0858459472656 501.4006042480469 C 341.671630859375 504.66253662109375 368.2628479003906 505.21624755859375 394.411865234375 507.7039794921875 C 430.6141052246094 511.00567626953125 468.3601989746094 514.3245849609375 516.8994140625 518.786376953125 C 516.9246826171875 445.4238586425781 517.0352172851562 381.5984802246094 516.46435546875 320.8716125488281" stroke-width="0.0" fill="rgb(142, 144, 144)" opacity="1.0558118" stroke="rgb(0, 0, 0)" stroke-opacity="1.0" stroke-linecap="round" stroke-linejoin="round"/>
    <path d="M 173.52191162109375 414.8844909667969 C 155.60211181640625 413.21649169921875 140.34201049804688 413.8966369628906 124.6258544921875 413.9220275878906 C 128.4051055908203 428.3165588378906 131.61734008789062 439.57989501953125 131.49566650390625 441.4314880371094 C 90.7399673461914 441.2549743652344 50.265472412109375 441.77838134765625 9.293425559997559 443.7859802246094 C 8.648031234741211 466.1993103027344 7.469350337982178 487.53057861328125 6.707457065582275 516.0546264648438 C 64.76858520507812 516.2709350585938 120.29053497314453 517.2843627929688 176.2069549560547 516.5128173828125 C 177.38795471191406 480.26055908203125 165.66506958007812 454.10711669921875 173.52191162109375 414.8844909667969" stroke-width="0.0" fill="rgb(97, 100, 104)" opacity="0.9482113" stroke="rgb(0, 0, 0)" stroke-opacity="1.0" stroke-linecap="round" stroke-linejoin="round"/>
    <path d="M 12.422030448913574 448.8672790527344 C 56.6534309387207 448.82110595703125 95.62655639648438 448.3367614746094 130.75709533691406 447.7755126953125 C 129.99044799804688 431.82415771484375 126.60447692871094 424.78863525390625 123.15477752685547 418.0718688964844 C 119.13963317871094 413.48046875 114.08965301513672 410.1546325683594 109.39990234375 407.4241943359375 C 98.57861328125 404.0932312011719 92.84651184082031 406.3481140136719 85.76326751708984 409.7304382324219 C 79.70304107666016 414.7120361328125 75.49559783935547 420.92694091796875 72.32564544677734 429.0089111328125 C 68.22810363769531 418.3597717285156 63.164024353027344 412.1376037597656 57.06852722167969 407.16461181640625 C 52.884769439697266 404.623779296875 47.483009338378906 402.4220275878906 44.60586929321289 402.6433410644531 C 34.488426208496094 405.47955322265625 27.874910354614258 409.1061096191406 24.258602142333984 413.7983093261719 C 18.8843994140625 422.4578857421875 14.756139755249023 431.8379821777344 12.422030448913574 448.8672790527344" stroke-width="0.0" fill="rgb(208, 165, 75)" opacity="0.9404176" stroke="rgb(0, 0, 0)" stroke-opacity="1.0" stroke-linecap="round" stroke-linejoin="round"/>
    <path d="M 3.852684736251831 417.98712158203125 C 3.0001220703125 446.3995361328125 2.952721118927002 479.2431945800781 1.5516839027404785 515.0282592773438 C 1.9385710954666138 516.6032104492188 5.9603095054626465 516.261962890625 9.32437515258789 516.4824829101562 C 11.274333000183105 481.009521484375 11.524678230285645 450.2024841308594 13.990046501159668 423.09417724609375 C 10.980470657348633 421.69305419921875 5.429760932922363 421.48895263671875 3.852684736251831 417.98712158203125" stroke-width="0.0" fill="rgb(66, 66, 60)" opacity="0.94645244" stroke="rgb(0, 0, 0)" stroke-opacity="1.0" stroke-linecap="round" stroke-linejoin="round"/>
    <path d="M 177.36456298828125 401.7200622558594 C 157.83726501464844 401.4715881347656 137.1608123779297 402.21075439453125 119.42701721191406 403.33697509765625 C 120.47623443603516 411.6911315917969 122.29483795166016 415.97857666015625 125.08724975585938 415.2922058105469 C 143.2996826171875 415.6939392089844 157.5665740966797 415.3358154296875 173.35679626464844 415.0815124511719 C 177.072509765625 414.5736389160156 178.39566040039062 410.90679931640625 177.36456298828125 401.7200622558594" stroke-width="0.0" fill="rgb(233, 234, 236)" opacity="1.0060589" stroke="rgb(0, 0, 0)" stroke-opacity="1.0" stroke-linecap="round" stroke-linejoin="round"/>
    <path d="M 179.73170471191406 386.2220153808594 C 134.11904907226562 386.9519958496094 90.87004089355469 388.8553161621094 48.73276901245117 390.3973083496094 C 46.966148376464844 391.3978576660156 46.722679138183594 393.9677429199219 47.87090301513672 398.9448547363281 C 88.81786346435547 399.2920227050781 131.57257080078125 397.3367004394531 178.33648681640625 395.4331359863281 C 180.8292236328125 395.8482360839844 181.10218811035156 391.9371337890625 179.73170471191406 386.2220153808594" stroke-width="0.0" fill="rgb(203, 206, 209)" opacity="1.0046961" stroke="rgb(0, 0, 0)" stroke-opacity="1.0" stroke-linecap="round" stroke-linejoin="round"/>
    <path d="M 316.9685974121094 516.766357421875 C 374.5853271484375 518.0235595703125 439.39947509765625 518.9326782226562 517.3614501953125 510.2167663574219 C 450.4667663574219 504.4130554199219 378.6219482421875 511.713623046875 321.1058349609375 498.73486328125 C 319.7901916503906 500.6326599121094 319.99969482421875 504.0884094238281 316.9685974121094 516.766357421875" stroke-width="0.0" fill="rgb(21, 21, 21)" opacity="1.0118072" stroke="rgb(0, 0, 0)" stroke-opacity="1.0" stroke-linecap="round" stroke-linejoin="round"/>
    <path d="M 344.4019470214844 364.3340759277344 C 335.2575378417969 365.96612548828125 327.38470458984375 368.57696533203125 315.5228576660156 369.6658935546875 C 311.7036437988281 369.9543151855469 308.3533020019531 373.31390380859375 305.7420349121094 380.8834228515625 C 319.48284912109375 380.85400390625 331.358154296875 380.2466735839844 345.0872497558594 378.5487060546875 C 346.75677490234375 377.3583679199219 346.356201171875 374.5608215332031 344.4019470214844 364.3340759277344" stroke-width="0.0" fill="rgb(122, 122, 123)" opacity="1.0459085" stroke="rgb(0, 0, 0)" stroke-opacity="1.0" stroke-linecap="round" stroke-linejoin="round"/>
    <path d="M 42.471981048583984 -1.1092510223388672 C 34.36647415161133 -4.780558109283447 30.295560836791992 -3.504866361618042 27.813037872314453 1.8464748859405518 C 20.175569534301758 26.234651565551758 14.355912208557129 52.510494232177734 9.074522018432617 79.52911376953125 C 8.984176635742188 105.0373764038086 4.984428405761719 131.0238037109375 10.260457992553711 150.69625854492188 C 19.114574432373047 96.5562744140625 27.258852005004883 46.06291198730469 42.471981048583984 -1.1092510223388672" stroke-width="0.0" fill="rgb(164, 167, 166)" opacity="1.0040807" stroke="rgb(0, 0, 0)" stroke-opacity="1.0" stroke-linecap="round" stroke-linejoin="round"/>
    <path d="M 1.758475422859192 390.762939453125 C 4.072041988372803 400.5519714355469 2.8804850578308105 413.5791931152344 3.3428077697753906 421.01068115234375 C 7.353172779083252 422.0180969238281 11.42992877960205 424.54022216796875 19.125232696533203 424.92474365234375 C 22.95868682861328 415.71014404296875 27.67739486694336 407.01385498046875 38.911659240722656 402.32086181640625 C 25.684938430786133 396.98663330078125 15.232858657836914 392.9720764160156 1.758475422859192 390.762939453125" stroke-width="0.0" fill="rgb(107, 106, 105)" opacity="0.9633685" stroke="rgb(0, 0, 0)" stroke-opacity="1.0" stroke-linecap="round" stroke-linejoin="round"/>
    <path d="M 42.615325927734375 -3.5543575286865234 C 26.811246871948242 56.03584289550781 14.736738204956055 114.78819274902344 8.304286003112793 180.0228271484375 C 2.1017773151397705 212.36746215820312 2.5905745029449463 249.57310485839844 4.503132343292236 293.2747802734375 C 44.70112228393555 310.962646484375 87.99903869628906 328.33319091796875 132.2522430419922 345.647705078125 C 137.95152282714844 349.7898864746094 139.998291015625 359.75689697265625 148.04408264160156 360.7759704589844 C 157.46063232421875 359.08819580078125 163.33265686035156 361.5211486816406 170.0630645751953 363.7245788574219 C 162.4664306640625 343.3006591796875 158.99359130859375 317.43756103515625 158.59164428710938 289.05560302734375 C 157.539794921875 254.67221069335938 157.57521057128906 220.08851623535156 163.00782775878906 191.11842346191406 C 171.399658203125 159.23199462890625 178.7711639404297 126.62884521484375 186.43142700195312 94.69635009765625 C 197.0643768310547 62.38991928100586 208.75711059570312 30.42266273498535 224.55963134765625 -3.7117207050323486 C 166.4996795654297 -5.613667964935303 105.64652252197266 -5.5797858238220215 42.615325927734375 -3.5543575286865234" stroke-width="0.0" fill="rgb(35, 36, 32)" opacity="0.990908" stroke="rgb(0, 0, 0)" stroke-opacity="1.0" stroke-linecap="round" stroke-linejoin="round"/>
    <path d="M 418.41192626953125 7.2356438636779785 C 412.84783935546875 46.77318572998047 406.33294677734375 85.11907958984375 401.8459167480469 124.17579650878906 C 405.3229064941406 195.4697265625 409.91888427734375 256.4137268066406 415.7853698730469 319.4291076660156 C 439.00555419921875 320.1974792480469 459.649169921875 319.86138916015625 477.0166931152344 315.55010986328125 C 480.4374694824219 307.7253112792969 480.57696533203125 295.9365539550781 480.6824645996094 285.0943908691406 C 484.6810302734375 285.3882751464844 487.4295349121094 284.4837646484375 486.4558410644531 278.7771301269531 C 496.8410949707031 277.40399169921875 505.9425354003906 277.4582824707031 518.055908203125 279.54290771484375 C 517.7288818359375 208.27035522460938 517.3336181640625 143.4007110595703 513.4376220703125 82.74617004394531 C 496.0083312988281 63.9613037109375 481.04962158203125 46.93186950683594 464.43609619140625 29.960594177246094 C 460.0910339355469 37.94297409057617 463.71014404296875 46.7515754699707 461.5133972167969 48.55657958984375 C 450.5720520019531 52.618797302246094 441.72515869140625 56.35176086425781 435.5024108886719 49.01941680908203 C 428.9687805175781 45.183685302734375 431.3902893066406 37.99688720703125 436.4754638671875 35.72722625732422 C 443.3572692871094 34.81190872192383 449.7155456542969 31.22429847717285 454.4677429199219 26.89227294921875 C 445.8079528808594 17.782482147216797 435.42523193359375 9.861505508422852 418.41192626953125 7.2356438636779785" stroke-width="0.0" fill="rgb(89, 100, 48)" opacity="0.9794004" stroke="rgb(0, 0, 0)" stroke-opacity="1.0" stroke-linecap="round" stroke-linejoin="round"/>
    <path d="M 516.3519287109375 338.72412109375 C 468.01165771484375 338.1205139160156 426.0776062011719 341.5490417480469 382.37835693359375 347.3838806152344 C 382.12860107421875 373.2940673828125 382.2707824707031 407.06927490234375 382.7485656738281 441.5466003417969 C 382.763671875 465.630859375 382.67132568359375 487.8251953125 391.17718505859375 505.2831726074219 C 430.40228271484375 507.9867248535156 466.65484619140625 507.9333190917969 498.16162109375 504.5898742675781 C 502.83306884765625 497.30755615234375 502.15045166015625 499.011962890625 498.3746643066406 497.6996154785156 C 502.94989013671875 496.0931396484375 506.65350341796875 495.88873291015625 515.9081420898438 497.0283508300781 C 515.5469970703125 442.2499084472656 515.8663330078125 389.5074462890625 516.3519287109375 338.72412109375" stroke-width="0.0" fill="rgb(154, 158, 165)" opacity="1.0245513" stroke="rgb(0, 0, 0)" stroke-opacity="1.0" stroke-linecap="round" stroke-linejoin="round"/>
    <path d="M 381.7756042480469 202.1119384765625 C 342.2021179199219 205.95773315429688 309.0247802734375 209.8472137451172 276.48504638671875 211.54457092285156 C 279.7412109375 235.32440185546875 268.4195556640625 243.05178833007812 268.55413818359375 263.332763671875 C 284.4182434082031 270.05023193359375 303.4377746582031 273.21490478515625 312.7344970703125 285.6448669433594 C 324.7206115722656 304.52716064453125 319.822265625 337.277099609375 327.9048767089844 359.37908935546875 C 358.075439453125 357.1942138671875 374.73052978515625 346.03594970703125 393.9033203125 335.2591552734375 C 403.5036926269531 336.4437255859375 405.9259948730469 331.0700378417969 407.02490234375 324.1994934082031 C 406.2144775390625 291.52239990234375 406.19219970703125 260.39556884765625 402.0673522949219 234.30018615722656 C 395.7879638671875 221.8979949951172 388.29254150390625 211.98609924316406 381.7756042480469 202.1119384765625" stroke-width="0.0" fill="rgb(57, 58, 41)" opacity="0.9351987" stroke="rgb(0, 0, 0)" stroke-opacity="1.0" stroke-linecap="round" stroke-linejoin="round"/>
    <path d="M 303.0074768066406 377.52789306640625 C 259.0205078125 377.4369201660156 218.14610290527344 380.4024353027344 184.13624572753906 385.3987121582031 C 176.7528076171875 412.49554443359375 172.47044372558594 435.8591003417969 172.30555725097656 468.5538635253906 C 217.322021484375 471.7546691894531 265.7848815917969 472.0182189941406 323.0274353027344 471.4862060546875 C 319.6259460449219 433.39276123046875 314.2663269042969 405.650390625 303.0074768066406 377.52789306640625" stroke-width="0.0" fill="rgb(28, 28, 33)" opacity="0.976908" stroke="rgb(0, 0, 0)" stroke-opacity="1.0" stroke-linecap="round" stroke-linejoin="round"/>
    <path d="M 172.60549926757812 290.24847412109375 C 169.8830108642578 301.2913818359375 166.89984130859375 311.73175048828125 166.86380004882812 326.3629150390625 C 166.4400634765625 329.976318359375 167.91357421875 334.26617431640625 171.02078247070312 339.24749755859375 C 220.1349334716797 339.9523010253906 269.0558166503906 339.62066650390625 317.7580871582031 338.00732421875 C 318.0751953125 317.0585021972656 316.3157653808594 300.8625793457031 310.1919250488281 287.73321533203125 C 301.64617919921875 276.05389404296875 287.4385986328125 270.41192626953125 268.3753356933594 267.32293701171875 C 260.5669250488281 270.9486389160156 252.4221649169922 278.8258361816406 242.01441955566406 273.19580078125 C 235.28253173828125 267.55419921875 228.93235778808594 263.329833984375 220.54605102539062 264.95648193359375 C 205.69845581054688 268.9615478515625 193.10238647460938 271.08197021484375 185.89268493652344 275.1795959472656 C 180.10337829589844 279.3421630859375 174.6593475341797 283.2422790527344 172.60549926757812 290.24847412109375" stroke-width="0.0" fill="rgb(51, 48, 55)" opacity="0.9880949" stroke="rgb(0, 0, 0)" stroke-opacity="1.0" stroke-linecap="round" stroke-linejoin="round"/>
    <path d="M 3.14989972114563 295.658203125 C 2.2142717838287354 325.7828063964844 2.580164909362793 360.4739990234375 3.0606415271759033 395.806640625 C 53.77511215209961 388.79461669921875 102.81385040283203 386.6448059082031 152.8634796142578 386.5825500488281 C 146.13241577148438 370.7143859863281 139.73069763183594 357.6226806640625 130.51573181152344 348.1204528808594 C 88.03308868408203 330.6321105957031 46.00562286376953 313.322265625 3.14989972114563 295.658203125" stroke-width="0.0" fill="rgb(73, 74, 74)" opacity="0.91056776" stroke="rgb(0, 0, 0)" stroke-opacity="1.0" stroke-linecap="round" stroke-linejoin="round"/>
    <path d="M 377.4801940917969 -1.937589168548584 C 372.10028076171875 57.95257568359375 373.92132568359375 122.3967514038086 373.8635559082031 192.5908660888672 C 374.26953125 203.60679626464844 386.0592041015625 211.9302978515625 396.1927490234375 223.57904052734375 C 402.803466796875 238.45570373535156 405.05828857421875 257.85931396484375 402.9201965332031 277.3990783691406 C 406.4200439453125 188.6571502685547 410.85882568359375 96.82781982421875 412.07952880859375 4.0583295822143555 C 400.25128173828125 -3.8495993614196777 390.1022033691406 -4.01544189453125 377.4801940917969 -1.937589168548584" stroke-width="0.0" fill="rgb(46, 37, 22)" opacity="0.9925599" stroke="rgb(0, 0, 0)" stroke-opacity="1.0" stroke-linecap="round" stroke-linejoin="round"/>
    <path d="M 14.555127143859863 449.5312805175781 C 10.833475112915039 466.0150146484375 13.257488250732422 489.9129333496094 13.250575065612793 518.347900390625 C 55.72240447998047 518.0997924804688 94.45891571044922 517.8799438476562 127.12283325195312 516.0469360351562 C 132.6009979248047 487.188720703125 130.76528930664062 468.00189208984375 127.45613861083984 448.04254150390625 C 90.21637725830078 447.2449035644531 51.85601806640625 447.7349548339844 14.555127143859863 449.5312805175781" stroke-width="0.0" fill="rgb(103, 108, 114)" opacity="0.9167563" stroke="rgb(0, 0, 0)" stroke-opacity="1.0" stroke-linecap="round" stroke-linejoin="round"/>
    <path d="M 320.0771484375 344.84075927734375 C 316.6106872558594 339.6901550292969 312.67779541015625 336.49737548828125 308.1875915527344 336.7515563964844 C 262.11846923828125 335.22113037109375 221.40127563476562 340.2198791503906 173.60299682617188 336.2886962890625 C 171.37120056152344 336.7574157714844 169.16468811035156 341.7659912109375 167.9335174560547 349.8818054199219 C 170.3997802734375 364.7671813964844 176.66458129882812 375.1379089355469 185.21817016601562 385.5469970703125 C 222.9608154296875 382.3802490234375 264.3251037597656 380.6225891113281 302.3091125488281 376.8980407714844 C 307.93853759765625 372.8619384765625 313.48876953125 369.2799987792969 316.8761291503906 363.897216796875 C 319.33843994140625 357.8127746582031 321.82598876953125 352.3332214355469 320.0771484375 344.84075927734375" stroke-width="0.0" fill="rgb(185, 136, 116)" opacity="0.9911344" stroke="rgb(0, 0, 0)" stroke-opacity="1.0" stroke-linecap="round" stroke-linejoin="round"/>
    <path d="M 177.51104736328125 468.70220947265625 C 180.9416961669922 482.39434814453125 179.84512329101562 497.71246337890625 179.4839630126953 516.4796142578125 C 226.5670166015625 516.9804077148438 271.7039489746094 516.8789672851562 314.9708251953125 516.2166137695312 C 317.5185241699219 494.06494140625 319.05584716796875 479.7537841796875 318.62109375 473.6389465332031 C 264.4943542480469 469.53167724609375 218.7579345703125 468.6187744140625 177.51104736328125 468.70220947265625" stroke-width="0.0" fill="rgb(24, 25, 29)" opacity="1.0083773" stroke="rgb(0, 0, 0)" stroke-opacity="1.0" stroke-linecap="round" stroke-linejoin="round"/>
    <path d="M 127.51761627197266 417.0240173339844 C 132.6090850830078 443.0074157714844 132.0943145751953 472.6665954589844 132.22451782226562 504.0821228027344 C 137.62310791015625 502.504150390625 141.57044982910156 505.3497009277344 147.22927856445312 516.6091918945312 C 157.73219299316406 517.2009887695312 168.3167724609375 516.58642578125 178.41819763183594 510.6573791503906 C 178.03790283203125 500.1634826660156 178.4097900390625 489.62481689453125 177.93978881835938 479.5193176269531 C 176.13243103027344 472.45343017578125 174.47251892089844 466.4082946777344 170.00245666503906 461.49560546875 C 169.8118133544922 446.9872741699219 172.0627899169922 431.3396911621094 175.4654083251953 416.1559753417969 C 158.08856201171875 415.1204528808594 142.59877014160156 416.8001708984375 127.51761627197266 417.0240173339844" stroke-width="0.0" fill="rgb(99, 101, 108)" opacity="1.001919" stroke="rgb(0, 0, 0)" stroke-opacity="1.0" stroke-linecap="round" stroke-linejoin="round"/>
    <path d="M 218.16696166992188 211.2416229248047 C 206.6263885498047 206.22427368164062 196.52516174316406 200.36663818359375 186.68572998046875 205.52793884277344 C 171.87196350097656 206.6160430908203 168.47848510742188 213.78750610351562 164.42286682128906 223.49795532226562 C 157.96243286132812 246.4965362548828 158.6215362548828 270.6225280761719 163.6622772216797 304.83447265625 C 169.96340942382812 294.64044189453125 171.26351928710938 280.4342041015625 182.8302001953125 274.6815185546875 C 194.32192993164062 270.28570556640625 208.45838928222656 267.3813171386719 224.0253448486328 262.07568359375 C 224.1071014404297 241.3076171875 221.47177124023438 224.6341094970703 218.16696166992188 211.2416229248047" stroke-width="0.0" fill="rgb(31, 32, 31)" opacity="0.9721331" stroke="rgb(0, 0, 0)" stroke-opacity="1.0" stroke-linecap="round" stroke-linejoin="round"/>
    <path d="M 244.2304229736328 191.04617309570312 C 235.75941467285156 191.9021759033203 232.2223663330078 195.55319213867188 228.16751098632812 200.84756469726562 C 224.5270233154297 205.54837036132812 224.49388122558594 213.90911865234375 217.6311798095703 221.9638671875 C 220.88540649414062 233.19845581054688 222.36920166015625 247.93296813964844 223.80152893066406 266.3323669433594 C 227.4311065673828 272.30340576171875 236.28414916992188 275.7077941894531 244.63551330566406 275.40362548828125 C 257.4139099121094 273.751953125 263.93170166015625 271.858154296875 268.2425231933594 267.9319152832031 C 261.5766906738281 243.20693969726562 277.201904296875 240.92343139648438 275.21380615234375 226.2914581298828 C 272.76031494140625 209.97415161132812 271.01263427734375 199.34532165527344 263.53289794921875 195.49624633789062 C 257.36834716796875 191.94358825683594 251.5498504638672 189.565185546875 244.2304229736328 191.04617309570312" stroke-width="0.0" fill="rgb(172, 129, 110)" opacity="1.0061173" stroke="rgb(0, 0, 0)" stroke-opacity="1.0" stroke-linecap="round" stroke-linejoin="round"/>
    <path d="M 414.7625732421875 -1.9133951663970947 C 431.99725341796875 8.53830623626709 447.32293701171875 16.036319732666016 460.3014221191406 27.024816513061523 C 476.4235534667969 44.562782287597656 491.819091796875 63.63995361328125 515.7838134765625 86.16673278808594 C 518.0772094726562 56.32029342651367 516.5673828125 27.456138610839844 516.04931640625 -1.7422916889190674 C 479.7816467285156 -3.1196868419647217 447.89361572265625 -4.7136993408203125 414.7625732421875 -1.9133951663970947" stroke-width="0.0" fill="rgb(14, 14, 9)" opacity="1.055602" stroke="rgb(0, 0, 0)" stroke-opacity="1.0" stroke-linecap="round" stroke-linejoin="round"/>
    <path d="M 361.20623779296875 388.5133972167969 C 358.7056884765625 387.6085205078125 357.76806640625 390.1796569824219 355.29925537109375 399.9303894042969 C 355.6110534667969 428.44256591796875 356.81756591796875 460.26092529296875 358.1991882324219 493.0538635253906 C 364.96075439453125 494.8810119628906 371.9776611328125 495.8813171386719 382.0152282714844 493.95660400390625 C 382.57806396484375 458.820556640625 381.0966491699219 424.47491455078125 380.83099365234375 388.87554931640625 C 377.82965087890625 387.8744812011719 368.3313903808594 388.0033264160156 361.20623779296875 388.5133972167969" stroke-width="0.0" fill="rgb(72, 74, 75)" opacity="1.0125655" stroke="rgb(0, 0, 0)" stroke-opacity="1.0" stroke-linecap="round" stroke-linejoin="round"/>
    <path d="M 313.8335876464844 405.9054260253906 C 318.19903564453125 435.6546630859375 321.1720275878906 460.60650634765625 322.0477600097656 492.4718322753906 C 327.90948486328125 492.23565673828125 336.5276184082031 491.41168212890625 349.5540466308594 491.3959045410156 C 349.6540832519531 465.7289733886719 345.9206237792969 439.0345764160156 345.60333251953125 406.9114685058594 C 336.839599609375 406.8056335449219 326.06646728515625 407.1382141113281 313.8335876464844 405.9054260253906" stroke-width="0.0" fill="rgb(71, 74, 79)" opacity="0.93082905" stroke="rgb(0, 0, 0)" stroke-opacity="1.0" stroke-linecap="round" stroke-linejoin="round"/>
    <path d="M 515.2876586914062 319.8176574707031 C 479.3912353515625 320.13922119140625 447.87420654296875 321.01416015625 416.1130676269531 322.1626892089844 C 410.7801513671875 324.702880859375 409.0540466308594 330.0097961425781 409.9638366699219 341.37933349609375 C 438.46807861328125 342.90283203125 474.1986389160156 341.11175537109375 517.53515625 338.84698486328125 C 516.7501220703125 331.1285705566406 516.6690673828125 323.5917053222656 515.2876586914062 319.8176574707031" stroke-width="0.0" fill="rgb(161, 165, 167)" opacity="1.0232198" stroke="rgb(0, 0, 0)" stroke-opacity="1.0" stroke-linecap="round" stroke-linejoin="round"/>
    <path d="M 11.807533264160156 447.85400390625 C 25.643646240234375 447.8732604980469 44.5831298828125 447.0716857910156 67.50945281982422 446.2373962402344 C 72.31819152832031 441.6373291015625 72.81441497802734 435.3255615234375 69.09396362304688 423.8641357421875 C 67.42621612548828 416.59405517578125 61.461734771728516 411.0600891113281 54.83076477050781 406.0130920410156 C 49.9780158996582 402.759521484375 43.09938049316406 402.3923645019531 32.4230842590332 406.24285888671875 C 29.09339141845703 408.577880859375 25.2128849029541 414.0746765136719 21.309406280517578 419.22283935546875 C 17.98903465270996 426.05218505859375 15.161637306213379 434.21661376953125 11.807533264160156 447.85400390625" stroke-width="0.0" fill="rgb(229, 184, 53)" opacity="0.9465814" stroke="rgb(0, 0, 0)" stroke-opacity="1.0" stroke-linecap="round" stroke-linejoin="round"/>
    <path d="M 76.7896957397461 421.075927734375 C 74.5089340209961 429.2987060546875 71.2287368774414 435.81201171875 72.45333862304688 447.0484924316406 C 92.19242858886719 446.0562438964844 112.90760803222656 447.8652648925781 130.5809326171875 446.6521911621094 C 130.3237762451172 432.70806884765625 126.9324722290039 425.4311828613281 124.02521514892578 417.3590087890625 C 119.14021301269531 413.6166076660156 113.96660614013672 410.46044921875 110.0840072631836 407.8443603515625 C 100.84309387207031 404.1405944824219 95.10472869873047 406.4830627441406 87.73200988769531 409.22088623046875 C 83.02069854736328 412.5648498535156 78.97175598144531 416.397705078125 76.7896957397461 421.075927734375" stroke-width="0.0" fill="rgb(235, 201, 95)" opacity="0.99941313" stroke="rgb(0, 0, 0)" stroke-opacity="1.0" stroke-linecap="round" stroke-linejoin="round"/>
    <path d="M 514.8457641601562 276.64910888671875 C 496.4801025390625 277.3554382324219 490.18505859375 282.38189697265625 484.14337158203125 289.230224609375 C 479.5820007324219 298.6393737792969 481.64031982421875 308.6325988769531 483.89276123046875 319.3824157714844 C 493.83538818359375 319.5204162597656 503.10272216796875 319.28472900390625 517.7594604492188 319.35748291015625 C 517.5084228515625 301.9242858886719 517.0269165039062 289.124755859375 514.8457641601562 276.64910888671875" stroke-width="0.0" fill="rgb(56, 40, 34)" opacity="1.0003643" stroke="rgb(0, 0, 0)" stroke-opacity="1.0" stroke-linecap="round" stroke-linejoin="round"/>
    <path d="M 462.67047119140625 33.342350006103516 C 459.8181457519531 30.646345138549805 457.3529357910156 26.49768829345703 454.63006591796875 26.56402587890625 C 451.70745849609375 30.20973014831543 446.8978576660156 30.80854034423828 442.3841857910156 31.69654083251953 C 433.9683837890625 33.5130615234375 431.6329345703125 41.73891830444336 430.28240966796875 45.72065734863281 C 432.5686340332031 51.29914474487305 441.51666259765625 54.66300964355469 451.4494934082031 53.15292739868164 C 455.81103515625 52.64607620239258 460.2782287597656 51.05305862426758 460.8904724121094 49.72895812988281 C 462.4202575683594 46.51427459716797 464.2967529296875 40.53302764892578 462.67047119140625 33.342350006103516" stroke-width="0.0" fill="rgb(221, 229, 224)" opacity="1.0000539" stroke="rgb(0, 0, 0)" stroke-opacity="1.0" stroke-linecap="round" stroke-linejoin="round"/>
    <path d="M 288.9744873046875 78.97920989990234 C 273.67431640625 111.05036926269531 262.05328369140625 145.7574920654297 252.8423614501953 184.0183868408203 C 263.7326965332031 191.6626739501953 272.76715087890625 195.77999877929688 274.70037841796875 208.54147338867188 C 310.7467041015625 208.4950408935547 338.22357177734375 203.80894470214844 365.32733154296875 197.3644561767578 C 369.70404052734375 193.52587890625 369.5178527832031 184.3526153564453 367.518798828125 172.24229431152344 C 366.1913757324219 163.13531494140625 362.97747802734375 153.7344512939453 362.2563781738281 143.58831787109375 C 339.3728332519531 121.01251220703125 315.88916015625 98.89741516113281 288.9744873046875 78.97920989990234" stroke-width="0.0" fill="rgb(71, 87, 36)" opacity="0.9986815" stroke="rgb(0, 0, 0)" stroke-opacity="1.0" stroke-linecap="round" stroke-linejoin="round"/>
    <path d="M 324.8172607421875 0.382721483707428 C 313.7339782714844 20.72570037841797 303.656494140625 41.71401596069336 295.18426513671875 67.16792297363281 C 318.66229248046875 88.82310485839844 343.18670654296875 109.1168212890625 371.0161437988281 134.5466766357422 C 371.975341796875 93.98503875732422 371.89404296875 49.519290924072266 371.6341247558594 3.0232584476470947 C 358.0676574707031 -0.35986724495887756 345.0637512207031 -4.050849914550781 324.8172607421875 0.382721483707428" stroke-width="0.0" fill="rgb(101, 111, 61)" opacity="1.003991" stroke="rgb(0, 0, 0)" stroke-opacity="1.0" stroke-linecap="round" stroke-linejoin="round"/>
    <path d="M 296.1980285644531 66.57349395751953 C 291.3604736328125 70.8958740234375 290.6632385253906 74.40106964111328 292.712890625 80.27037811279297 C 317.9570007324219 104.67496490478516 342.8525390625 129.42486572265625 368.20281982421875 154.77830505371094 C 371.321044921875 148.3372802734375 370.58892822265625 139.15484619140625 369.58233642578125 131.9226531982422 C 340.802490234375 110.01969146728516 321.302001953125 84.86307525634766 296.1980285644531 66.57349395751953" stroke-width="0.0" fill="rgb(35, 33, 12)" opacity="0.9867746" stroke="rgb(0, 0, 0)" stroke-opacity="1.0" stroke-linecap="round" stroke-linejoin="round"/>
    <path d="M 351.6060791015625 412.9100341796875 C 351.24237060546875 399.5367126464844 351.8935546875 395.51385498046875 352.31646728515625 397.0456237792969 C 334.0146484375 398.6169738769531 320.982666015625 396.9605712890625 308.43304443359375 401.2008361816406 C 309.3301696777344 405.982421875 309.3194274902344 410.129638671875 310.1385498046875 411.19134521484375 C 329.33135986328125 412.08111572265625 341.2755126953125 412.4228210449219 351.6060791015625 412.9100341796875" stroke-width="0.0" fill="rgb(193, 203, 203)" opacity="0.9797501" stroke="rgb(0, 0, 0)" stroke-opacity="1.0" stroke-linecap="round" stroke-linejoin="round"/>
    <path d="M 303.46258544921875 -1.0399868488311768 C 282.8143615722656 -4.365439414978027 264.5638732910156 -3.2196452617645264 248.03118896484375 -0.6508556604385376 C 235.75271606445312 23.655038833618164 225.20944213867188 48.368934631347656 211.9137725830078 74.78475952148438 C 207.8194122314453 76.29951477050781 208.09262084960938 66.18630981445312 199.60134887695312 68.69208526611328 C 199.6605682373047 78.42202758789062 204.6609649658203 83.26679229736328 208.77198791503906 89.68170166015625 C 196.32168579101562 117.44615173339844 185.5673370361328 147.68215942382812 174.6474609375 178.48770141601562 C 180.66952514648438 179.64431762695312 175.72471618652344 186.73960876464844 175.74549865722656 199.9261932373047 C 184.10995483398438 200.8890380859375 190.30284118652344 200.68753051757812 194.19622802734375 196.9984893798828 C 204.279296875 198.4676055908203 210.74578857421875 204.44569396972656 222.25057983398438 208.78709411621094 C 230.50997924804688 180.034912109375 237.0841064453125 152.35791015625 245.27821350097656 126.78087615966797 C 262.08050537109375 82.62440490722656 278.95953369140625 39.37990951538086 303.46258544921875 -1.0399868488311768" stroke-width="0.0" fill="rgb(91, 99, 71)" opacity="0.9975792" stroke="rgb(0, 0, 0)" stroke-opacity="1.0" stroke-linecap="round" stroke-linejoin="round"/>
    <path d="M 140.47427368164062 355.77447509765625 C 138.66424560546875 368.7583312988281 150.0458221435547 374.2179260253906 152.0340576171875 385.6849060058594 C 154.17706298828125 385.63739013671875 168.59152221679688 387.6168212890625 181.86105346679688 385.6026306152344 C 176.50779724121094 372.1117248535156 167.40740966796875 365.3595886230469 167.62228393554688 352.26275634765625 C 161.94110107421875 361.3086242675781 152.87074279785156 361.8176574707031 140.47427368164062 355.77447509765625" stroke-width="0.0" fill="rgb(53, 49, 51)" opacity="0.9875996" stroke="rgb(0, 0, 0)" stroke-opacity="1.0" stroke-linecap="round" stroke-linejoin="round"/>
    <path d="M 3.776172637939453 390.7850341796875 C 1.074487566947937 398.602294921875 4.511213302612305 404.8442077636719 4.483462333679199 415.4102783203125 C 11.603453636169434 413.38702392578125 15.283815383911133 412.09710693359375 15.702458381652832 411.559326171875 C 11.424358367919922 411.1551208496094 6.860354900360107 413.6855163574219 7.279489994049072 411.7422790527344 C 12.94076156616211 409.3085632324219 17.959884643554688 410.60760498046875 24.426681518554688 411.63525390625 C 28.827699661254883 408.2356262207031 32.018733978271484 405.6111755371094 36.8216552734375 400.3238525390625 C 26.607177734375 396.71771240234375 15.894309997558594 392.7679748535156 3.776172637939453 390.7850341796875" stroke-width="0.0" fill="rgb(150, 147, 144)" opacity="1.0094879" stroke="rgb(0, 0, 0)" stroke-opacity="1.0" stroke-linecap="round" stroke-linejoin="round"/>
    <path d="M 352.1688537597656 357.16070556640625 C 340.77593994140625 398.4286193847656 350.64019775390625 446.3178405761719 347.4151611328125 495.8099365234375 C 346.29022216796875 494.6934814453125 349.8182678222656 497.128662109375 357.0577697753906 497.114013671875 C 356.69976806640625 450.2158203125 357.1224365234375 405.24609375 352.1688537597656 357.16070556640625" stroke-width="0.0" fill="rgb(184, 189, 191)" opacity="0.9842965" stroke="rgb(0, 0, 0)" stroke-opacity="1.0" stroke-linecap="round" stroke-linejoin="round"/>
    <path d="M 308.9344482421875 389.7164306640625 C 310.1935729980469 406.29180908203125 314.7476806640625 420.57318115234375 324.2682800292969 438.5125427246094 C 329.01239013671875 424.9761657714844 325.833740234375 409.99139404296875 324.07647705078125 391.0080261230469 C 321.93896484375 388.23516845703125 315.0862731933594 387.8715515136719 308.9344482421875 389.7164306640625" stroke-width="0.0" fill="rgb(181, 193, 189)" opacity="0.99551845" stroke="rgb(0, 0, 0)" stroke-opacity="1.0" stroke-linecap="round" stroke-linejoin="round"/>
    <path d="M 3.4747917652130127 426.72076416015625 C 3.850281238555908 444.3849182128906 4.091709136962891 461.5240173339844 2.036806344985962 478.6146240234375 C 4.893871784210205 482.2121887207031 8.492024421691895 481.6637268066406 15.332815170288086 481.2870178222656 C 11.922286033630371 460.9851379394531 7.9309163093566895 444.68731689453125 18.28582191467285 431.0052185058594 C 11.284424781799316 429.0007019042969 7.551792621612549 428.090576171875 3.4747917652130127 426.72076416015625" stroke-width="0.0" fill="rgb(18, 17, 16)" opacity="1.0028888" stroke="rgb(0, 0, 0)" stroke-opacity="1.0" stroke-linecap="round" stroke-linejoin="round"/>
    <path d="M 516.324951171875 368.99383544921875 C 467.17138671875 369.4343566894531 426.60888671875 370.5585021972656 388.9651794433594 371.963623046875 C 395.0137634277344 416.151123046875 393.5897216796875 450.9085693359375 392.4351806640625 499.39862060546875 C 435.533203125 498.99127197265625 473.4803771972656 499.0680236816406 516.343017578125 499.107177734375 C 516.5230712890625 451.5569152832031 517.3082275390625 409.23333740234375 516.324951171875 368.99383544921875" stroke-width="0.0" fill="rgb(84, 87, 95)" opacity="1.0318886" stroke="rgb(0, 0, 0)" stroke-opacity="1.0" stroke-linecap="round" stroke-linejoin="round"/>
    <path d="M 13.831896781921387 449.5046081542969 C 14.68139934539795 464.3893127441406 11.417057037353516 479.4378356933594 14.464810371398926 489.0433654785156 C 54.88859939575195 489.00140380859375 93.39083099365234 488.8780212402344 125.89997863769531 488.6248779296875 C 128.42953491210938 472.501220703125 127.91261291503906 459.5703125 127.22911071777344 448.1394348144531 C 87.19937133789062 447.17022705078125 51.0809326171875 448.8708801269531 13.831896781921387 449.5046081542969" stroke-width="0.0" fill="rgb(146, 153, 161)" opacity="0.992222" stroke="rgb(0, 0, 0)" stroke-opacity="1.0" stroke-linecap="round" stroke-linejoin="round"/>
    <path d="M 514.886474609375 340.4173278808594 C 468.7856750488281 341.1761169433594 426.7061462402344 341.6851806640625 387.0914611816406 343.5859069824219 C 382.24163818359375 346.95111083984375 379.06536865234375 349.89935302734375 382.7088928222656 359.3090515136719 C 422.7708435058594 361.5228271484375 466.50592041015625 361.3331604003906 513.61767578125 360.6458435058594 C 516.302734375 352.4978942871094 516.2700805664062 346.0746154785156 514.886474609375 340.4173278808594" stroke-width="0.0" fill="rgb(207, 210, 214)" opacity="1.1056566" stroke="rgb(0, 0, 0)" stroke-opacity="1.0" stroke-linecap="round" stroke-linejoin="round"/>
    <path d="M 515.524169921875 358.0802307128906 C 468.6681823730469 359.4291076660156 426.19775390625 358.5348205566406 388.1019287109375 359.82769775390625 C 382.5467529296875 361.3273620605469 380.9183349609375 364.8618469238281 384.97015380859375 373.6041564941406 C 419.6164855957031 377.1338195800781 462.63861083984375 376.5011901855469 514.9640502929688 374.6430969238281 C 516.7130126953125 368.725830078125 516.74853515625 360.7277526855469 515.524169921875 358.0802307128906" stroke-width="0.0" fill="rgb(224, 225, 228)" opacity="0.94230026" stroke="rgb(0, 0, 0)" stroke-opacity="1.0" stroke-linecap="round" stroke-linejoin="round"/>
    <path d="M 384.0021057128906 497.9889831542969 C 383.373291015625 507.2525634765625 384.7253112792969 506.74761962890625 391.6080627441406 507.6867370605469 C 432.7127380371094 508.97576904296875 473.49090576171875 509.0927429199219 516.3633422851562 506.3849792480469 C 516.1559448242188 500.9160461425781 516.4594116210938 497.10809326171875 514.6600952148438 495.44329833984375 C 466.4519958496094 496.14642333984375 420.8495178222656 496.0345153808594 384.0021057128906 497.9889831542969" stroke-width="0.0" fill="rgb(192, 197, 201)" opacity="0.94938225" stroke="rgb(0, 0, 0)" stroke-opacity="1.0" stroke-linecap="round" stroke-linejoin="round"/>
    <path d="M 469.5749206542969 -1.336031436920166 C 483.3607177734375 16.235036849975586 496.52728271484375 31.812009811401367 513.2978515625 50.061153411865234 C 517.9116821289062 34.8664665222168 516.7667236328125 17.755186080932617 516.3116455078125 -4.006191253662109 C 496.7355651855469 -3.959839344024658 482.53607177734375 -4.490653991699219 469.5749206542969 -1.336031436920166" stroke-width="0.0" fill="rgb(78, 86, 48)" opacity="0.999821" stroke="rgb(0, 0, 0)" stroke-opacity="1.0" stroke-linecap="round" stroke-linejoin="round"/>
    <path d="M 514.77734375 319.9206848144531 C 477.24005126953125 319.48150634765625 443.37469482421875 320.3421325683594 414.6839904785156 322.0389404296875 C 412.01568603515625 323.760986328125 411.0708923339844 326.95281982421875 411.5209045410156 330.42816162109375 C 447.6835632324219 332.91485595703125 480.5592956542969 333.08447265625 516.3987426757812 332.2178955078125 C 516.472412109375 322.9000244140625 517.1338500976562 319.0154113769531 514.77734375 319.9206848144531" stroke-width="0.0" fill="rgb(212, 216, 216)" opacity="1.0164634" stroke="rgb(0, 0, 0)" stroke-opacity="1.0" stroke-linecap="round" stroke-linejoin="round"/>
    <path d="M 515.048828125 289.2779541015625 C 500.77801513671875 289.9544372558594 494.25299072265625 292.515625 485.6286315917969 295.87664794921875 C 480.5373229980469 297.0840759277344 480.5462341308594 303.3407287597656 484.3102722167969 318.2054138183594 C 491.4533386230469 318.987548828125 501.9825134277344 317.968994140625 515.7893676757812 319.2386474609375 C 516.6151733398438 311.75494384765625 516.42578125 302.3063659667969 515.048828125 289.2779541015625" stroke-width="0.0" fill="rgb(28, 21, 17)" opacity="0.9770047" stroke="rgb(0, 0, 0)" stroke-opacity="1.0" stroke-linecap="round" stroke-linejoin="round"/>
    <path d="M 445.0227355957031 30.845338821411133 C 435.2861633300781 32.813446044921875 430.5726623535156 37.104434967041016 431.1099548339844 46.4194450378418 C 433.219482421875 52.05889129638672 438.2013244628906 53.64798355102539 447.9745788574219 52.413047790527344 C 455.050048828125 49.97370529174805 458.5444641113281 46.698585510253906 456.755615234375 37.50139236450195 C 454.6253967285156 30.551401138305664 451.44830322265625 28.607336044311523 445.0227355957031 30.845338821411133" stroke-width="0.0" fill="rgb(246, 248, 248)" opacity="0.99187124" stroke="rgb(0, 0, 0)" stroke-opacity="1.0" stroke-linecap="round" stroke-linejoin="round"/>
    <path d="M 3.6201441287994385 263.672119140625 C 2.8920366764068604 272.6057434082031 2.6412081718444824 285.518310546875 7.154866695404053 296.25567626953125 C 44.68138122558594 311.82537841796875 85.637939453125 328.20404052734375 128.63418579101562 345.05413818359375 C 134.56765747070312 332.2823791503906 129.6610565185547 322.9528503417969 125.33348083496094 312.8055419921875 C 85.88044738769531 294.4252014160156 44.636661529541016 276.6609191894531 3.6201441287994385 263.672119140625" stroke-width="0.0" fill="rgb(23, 23, 19)" opacity="0.978174" stroke="rgb(0, 0, 0)" stroke-opacity="1.0" stroke-linecap="round" stroke-linejoin="round"/>
    <path d="M 332.7892761230469 210.86053466796875 C 324.169189453125 216.45590209960938 326.431396484375 220.81951904296875 331.21124267578125 234.07513427734375 C 331.0199890136719 240.14585876464844 335.00299072265625 245.62892150878906 339.0060729980469 251.09376525878906 C 349.72747802734375 252.6318817138672 358.60272216796875 256.1066589355469 365.986083984375 258.6499328613281 C 379.9453125 257.68402099609375 387.7445068359375 256.95196533203125 389.9873352050781 252.5128936767578 C 393.2137451171875 244.36131286621094 395.8916931152344 237.8395233154297 393.8469543457031 228.1158447265625 C 391.97235107421875 218.57662963867188 389.0724182128906 210.9167022705078 383.7566833496094 207.0107879638672 C 377.47802734375 202.6953125 369.9151306152344 201.33290100097656 365.4052429199219 200.9785919189453 C 348.9072265625 203.07139587402344 337.4366149902344 205.7604522705078 332.7892761230469 210.86053466796875" stroke-width="0.0" fill="rgb(17, 17, 17)" opacity="0.9986685" stroke="rgb(0, 0, 0)" stroke-opacity="1.0" stroke-linecap="round" stroke-linejoin="round"/>
    <path d="M 127.6255874633789 418.2291564941406 C 133.26194763183594 430.76611328125 133.18234252929688 447.74066162109375 134.62632751464844 465.927001953125 C 131.49069213867188 464.16058349609375 135.73333740234375 463.82745361328125 139.9325408935547 466.67694091796875 C 140.28231811523438 469.26776123046875 134.8940887451172 467.6981201171875 131.51039123535156 466.6439208984375 C 143.39154052734375 469.3837890625 137.9716033935547 477.9576416015625 142.73916625976562 483.0352478027344 C 145.40371704101562 479.78619384765625 144.0247802734375 474.3398132324219 144.7918701171875 474.02069091796875 C 149.71888732910156 471.8611755371094 147.19573974609375 475.0583801269531 151.25315856933594 486.3948669433594 C 151.9196014404297 481.5641174316406 151.54473876953125 475.0401916503906 155.77935791015625 471.51348876953125 C 156.54095458984375 481.65814208984375 154.5852508544922 489.0378723144531 162.45767211914062 488.6080017089844 C 161.00379943847656 492.83453369140625 156.21237182617188 490.41973876953125 154.88351440429688 494.0412292480469 C 161.4993896484375 494.3092346191406 163.7997283935547 495.1116027832031 162.7176055908203 491.975341796875 C 164.92674255371094 479.5178527832031 165.0543212890625 470.83721923828125 160.9642791748047 466.4682922363281 C 160.88092041015625 464.43865966796875 165.7825164794922 466.5523986816406 166.01171875 463.4518127441406 C 169.1337432861328 450.08013916015625 168.72921752929688 433.9149169921875 168.99996948242188 416.3023681640625 C 155.13438415527344 415.2949523925781 141.9597930908203 415.501953125 127.6255874633789 418.2291564941406" stroke-width="0.0" fill="rgb(80, 79, 84)" opacity="0.9864091" stroke="rgb(0, 0, 0)" stroke-opacity="1.0" stroke-linecap="round" stroke-linejoin="round"/>
    <path d="M 137.8896026611328 363.71820068359375 C 109.29866790771484 360.8500671386719 87.74115753173828 365.4034729003906 64.32335662841797 368.4880065917969 C 58.093482971191406 367.28973388671875 56.6171989440918 370.5640563964844 59.475502014160156 381.82073974609375 C 58.214393615722656 387.8752746582031 71.43505859375 379.5575256347656 81.3470230102539 388.2336730957031 C 98.71883392333984 389.5054016113281 119.6435546875 387.56439208984375 139.44313049316406 383.427734375 C 140.51129150390625 373.4713134765625 140.2473602294922 366.8153991699219 137.8896026611328 363.71820068359375" stroke-width="0.0" fill="rgb(154, 145, 137)" opacity="0.9630389" stroke="rgb(0, 0, 0)" stroke-opacity="1.0" stroke-linecap="round" stroke-linejoin="round"/>
    <path d="M 147.22640991210938 -1.4209336042404175 C 161.91693115234375 17.132171630859375 178.10250854492188 29.924976348876953 197.03041076660156 41.1400260925293 C 207.3622589111328 31.470762252807617 211.90333557128906 15.695547103881836 220.35690307617188 -4.219690799713135 C 198.6775665283203 -5.33463716506958 175.54782104492188 -5.247748851776123 147.22640991210938 -1.4209336042404175" stroke-width="0.0" fill="rgb(53, 54, 48)" opacity="1.0017378" stroke="rgb(0, 0, 0)" stroke-opacity="1.0" stroke-linecap="round" stroke-linejoin="round"/>
    <path d="M 457.78631591796875 268.9091796875 C 449.81011962890625 271.95721435546875 448.0941467285156 278.526123046875 445.2954406738281 290.11468505859375 C 447.6837463378906 300.0632629394531 447.381591796875 306.3330993652344 443.3672790527344 317.23785400390625 C 455.2155456542969 321.3575439453125 464.25244140625 321.63494873046875 479.9639892578125 318.8562316894531 C 480.8091735839844 306.8048400878906 481.1799011230469 291.867919921875 477.8079833984375 278.80865478515625 C 476.3290100097656 269.11181640625 471.1215515136719 268.3269958496094 457.78631591796875 268.9091796875" stroke-width="0.0" fill="rgb(178, 191, 158)" opacity="0.99980557" stroke="rgb(0, 0, 0)" stroke-opacity="1.0" stroke-linecap="round" stroke-linejoin="round"/>
    <path d="M 125.66021728515625 500.3537292480469 C 94.172607421875 500.80511474609375 54.07887268066406 500.2076721191406 14.204327583312988 501.0245361328125 C 12.329185485839844 502.2638244628906 12.385080337524414 506.1356201171875 13.860238075256348 515.9576416015625 C 49.73362350463867 516.1420288085938 87.26669311523438 516.2134399414062 125.95755004882812 516.1807250976562 C 127.64192962646484 509.1189880371094 127.01729583740234 506.8125305175781 125.66021728515625 500.3537292480469" stroke-width="0.0" fill="rgb(136, 137, 139)" opacity="0.998391" stroke="rgb(0, 0, 0)" stroke-opacity="1.0" stroke-linecap="round" stroke-linejoin="round"/>
    <path d="M 517.0432739257812 330.7085266113281 C 481.87054443359375 329.62640380859375 452.38604736328125 330.9853210449219 425.2463073730469 332.2955017089844 C 418.89459228515625 331.6916198730469 416.9881286621094 334.35162353515625 419.3689270019531 343.7459716796875 C 450.3027038574219 342.16253662109375 481.1975402832031 342.0226135253906 515.8145751953125 340.45196533203125 C 515.5397338867188 336.8075256347656 515.785400390625 333.8490295410156 517.0432739257812 330.7085266113281" stroke-width="0.0" fill="rgb(84, 87, 94)" opacity="0.98936003" stroke="rgb(0, 0, 0)" stroke-opacity="1.0" stroke-linecap="round" stroke-linejoin="round"/>
    <path d="M 176.8683319091797 495.18695068359375 C 164.20953369140625 495.4350891113281 146.88172912597656 495.64501953125 131.0839080810547 496.01531982421875 C 129.92672729492188 499.78759765625 130.3347930908203 505.8728942871094 128.2415008544922 515.986083984375 C 145.18553161621094 516.173583984375 161.56045532226562 516.1982421875 179.25680541992188 516.252197265625 C 179.2782745361328 506.1943664550781 180.93727111816406 500.82598876953125 176.8683319091797 495.18695068359375" stroke-width="0.0" fill="rgb(120, 125, 132)" opacity="1.0186155" stroke="rgb(0, 0, 0)" stroke-opacity="1.0" stroke-linecap="round" stroke-linejoin="round"/>
    <path d="M 32.6624641418457 317.731201171875 C 22.91398811340332 322.9815368652344 25.070802688598633 337.998046875 20.611154556274414 350.68096923828125 C 19.62921142578125 368.0559387207031 12.772113800048828 384.2059326171875 21.238868713378906 397.5347900390625 C 27.168540954589844 373.1564636230469 29.540958404541016 348.2481994628906 32.6624641418457 317.731201171875" stroke-width="0.0" fill="rgb(155, 157, 158)" opacity="0.9991885" stroke="rgb(0, 0, 0)" stroke-opacity="1.0" stroke-linecap="round" stroke-linejoin="round"/>
    <path d="M 274.564208984375 241.311767578125 C 266.4757080078125 245.84544372558594 264.7505187988281 251.56288146972656 267.17724609375 264.51263427734375 C 276.0750427246094 270.2757568359375 290.6034240722656 271.59796142578125 301.7720642089844 276.16522216796875 C 310.0921325683594 278.3771057128906 312.4315490722656 284.58587646484375 315.13824462890625 295.3783264160156 C 321.9761962890625 313.01971435546875 326.15325927734375 337.0109558105469 320.6716613769531 362.40435791015625 C 322.6055603027344 367.0592346191406 326.4700622558594 366.5577697753906 332.020751953125 366.0805969238281 C 335.8560791015625 363.37152099609375 340.82177734375 362.7865905761719 341.22802734375 360.6499938964844 C 343.22442626953125 323.2105712890625 349.03790283203125 290.6767272949219 347.84368896484375 255.24264526367188 C 337.8227844238281 244.47621154785156 326.2459411621094 242.8479461669922 318.68353271484375 241.70285034179688 C 304.73663330078125 245.05038452148438 288.35113525390625 246.0146484375 274.564208984375 241.311767578125" stroke-width="0.0" fill="rgb(30, 28, 22)" opacity="0.99229854" stroke="rgb(0, 0, 0)" stroke-opacity="1.0" stroke-linecap="round" stroke-linejoin="round"/>
    <path d="M 251.68081665039062 470.55389404296875 C 250.2876739501953 484.6396789550781 250.62789916992188 497.96240234375 251.4835662841797 516.45556640625 C 273.36651611328125 516.3419799804688 295.7342834472656 516.3574829101562 325.1192932128906 515.8342895507812 C 311.8125305175781 505.3184509277344 312.76947021484375 495.4989929199219 313.7623596191406 481.64306640625 C 314.72442626953125 481.7632141113281 316.6419982910156 479.3296813964844 317.45037841796875 481.21282958984375 C 313.076171875 483.5794982910156 312.45416259765625 476.1549377441406 310.6878356933594 476.40264892578125 C 317.25439453125 477.55804443359375 319.8794250488281 477.4363708496094 319.129638671875 470.46270751953125 C 293.6699523925781 468.33087158203125 268.76434326171875 467.1412353515625 251.68081665039062 470.55389404296875" stroke-width="0.0" fill="rgb(29, 30, 35)" opacity="1.0048386" stroke="rgb(0, 0, 0)" stroke-opacity="1.0" stroke-linecap="round" stroke-linejoin="round"/>
    <path d="M 345.87042236328125 256.36212158203125 C 344.8940124511719 254.49334716796875 342.5429992675781 256.1856994628906 348.099365234375 259.80694580078125 C 345.5291748046875 293.00146484375 343.1773376464844 319.96051025390625 342.10760498046875 342.4292297363281 C 356.4017333984375 344.8021240234375 366.88507080078125 346.4373779296875 376.2178955078125 345.3599548339844 C 375.80499267578125 311.7718505859375 374.9125061035156 285.0302734375 368.275634765625 262.73931884765625 C 366.77392578125 254.41567993164062 361.3773193359375 254.95123291015625 345.87042236328125 256.36212158203125" stroke-width="0.0" fill="rgb(38, 45, 16)" opacity="0.9982671" stroke="rgb(0, 0, 0)" stroke-opacity="1.0" stroke-linecap="round" stroke-linejoin="round"/>
    <path d="M 166.4377899169922 221.26747131347656 C 163.35809326171875 228.56605529785156 162.1139373779297 238.8737030029297 166.02769470214844 251.3301544189453 C 186.51312255859375 250.36944580078125 205.20106506347656 249.3272247314453 224.16726684570312 245.24774169921875 C 223.17547607421875 233.25474548339844 218.4761199951172 227.26220703125 219.45057678222656 215.09938049316406 C 215.7498016357422 209.13787841796875 210.1118927001953 204.82986450195312 203.05865478515625 201.60874938964844 C 193.37660217285156 199.78237915039062 187.1442413330078 201.504150390625 180.8904571533203 203.9737091064453 C 174.06686401367188 207.94863891601562 169.6663360595703 214.15162658691406 166.4377899169922 221.26747131347656" stroke-width="0.0" fill="rgb(14, 14, 14)" opacity="1.0242718" stroke="rgb(0, 0, 0)" stroke-opacity="1.0" stroke-linecap="round" stroke-linejoin="round"/>
    <path d="M 328.1430969238281 207.0265350341797 C 308.33782958984375 208.3555450439453 291.668212890625 209.66957092285156 273.11297607421875 212.9549102783203 C 276.12115478515625 225.2427215576172 276.2751770019531 231.67025756835938 269.78759765625 242.2489471435547 C 290.7369384765625 244.3176727294922 307.1507873535156 243.74356079101562 323.9354553222656 241.85829162597656 C 322.1978759765625 230.45901489257812 318.4978332519531 224.64892578125 318.0650939941406 218.1428985595703 C 318.24652099609375 212.68336486816406 322.8103332519531 211.6105194091797 328.1430969238281 207.0265350341797" stroke-width="0.0" fill="rgb(14, 14, 13)" opacity="0.9925593" stroke="rgb(0, 0, 0)" stroke-opacity="1.0" stroke-linecap="round" stroke-linejoin="round"/>
    <path d="M 517.940673828125 235.61109924316406 C 509.4218444824219 241.04296875 510.14971923828125 246.41143798828125 509.9611511230469 247.99349975585938 C 507.4898681640625 255.089111328125 505.3019714355469 265.0261535644531 502.5584716796875 277.2722473144531 C 491.0435485839844 276.3460388183594 480.6654968261719 277.8493347167969 477.258544921875 278.90557861328125 C 478.16668701171875 291.104736328125 477.6785888671875 299.1888732910156 482.1104431152344 306.85528564453125 C 484.45404052734375 294.4302978515625 493.8643798828125 291.6453552246094 517.498291015625 292.0564270019531 C 517.6439819335938 277.71453857421875 517.8281860351562 259.3955993652344 517.940673828125 235.61109924316406" stroke-width="0.0" fill="rgb(82, 61, 50)" opacity="0.98195803" stroke="rgb(0, 0, 0)" stroke-opacity="1.0" stroke-linecap="round" stroke-linejoin="round"/>
    <path d="M 516.0734252929688 211.10662841796875 C 498.92913818359375 213.57420349121094 495.67120361328125 218.57485961914062 494.66900634765625 225.20896911621094 C 496.908935546875 237.52493286132812 501.99981689453125 245.51800537109375 505.65765380859375 255.8581085205078 C 507.0598449707031 261.5143127441406 505.57965087890625 268.0642395019531 504.40496826171875 274.05975341796875 C 507.2646484375 276.355712890625 508.54736328125 277.7832946777344 518.3409423828125 275.8626708984375 C 518.7273559570312 250.7845916748047 517.9581298828125 227.11305236816406 516.0734252929688 211.10662841796875" stroke-width="0.0" fill="rgb(46, 35, 29)" opacity="1.0060099" stroke="rgb(0, 0, 0)" stroke-opacity="1.0" stroke-linecap="round" stroke-linejoin="round"/>
    <path d="M 227.73834228515625 381.6224365234375 C 223.69216918945312 377.6327209472656 224.38046264648438 373.4468688964844 223.00796508789062 370.02911376953125 C 209.4257354736328 376.1274719238281 196.11758422851562 376.9739074707031 180.17408752441406 373.4894714355469 C 179.07940673828125 380.14813232421875 180.0936279296875 385.39654541015625 183.82687377929688 391.73602294921875 C 196.20132446289062 385.08599853515625 213.28057861328125 385.7081298828125 227.73834228515625 381.6224365234375" stroke-width="0.0" fill="rgb(118, 19, 23)" opacity="1.0029249" stroke="rgb(0, 0, 0)" stroke-opacity="1.0" stroke-linecap="round" stroke-linejoin="round"/>
    <path d="M 259.5610656738281 -4.927490234375 C 263.8986511230469 6.391088485717773 268.6942443847656 9.766783714294434 273.8037414550781 16.438335418701172 C 276.5028991699219 17.716121673583984 285.4630432128906 16.0142879486084 290.28900146484375 18.87611961364746 C 293.2752685546875 13.119023323059082 298.6261291503906 9.498528480529785 302.837158203125 -3.1098670959472656 C 291.49847412109375 -5.38081169128418 278.2103576660156 -5.55638313293457 259.5610656738281 -4.927490234375" stroke-width="0.0" fill="rgb(113, 122, 87)" opacity="1.0002259" stroke="rgb(0, 0, 0)" stroke-opacity="1.0" stroke-linecap="round" stroke-linejoin="round"/>
    <path d="M 6.747946739196777 317.9078063964844 C 1.5703188180923462 327.0230407714844 4.466070652008057 341.2005615234375 5.843613624572754 355.6863098144531 C 7.817575931549072 371.60699462890625 3.0925533771514893 388.4064636230469 18.280792236328125 396.5765075683594 C 13.934494972229004 365.1893615722656 11.165192604064941 340.72308349609375 6.747946739196777 317.9078063964844" stroke-width="0.0" fill="rgb(126, 122, 115)" opacity="1.0022871" stroke="rgb(0, 0, 0)" stroke-opacity="1.0" stroke-linecap="round" stroke-linejoin="round"/>
    <path d="M 30.51903533935547 329.8021240234375 C 39.677589416503906 320.3470153808594 37.71620178222656 330.21673583984375 34.90623474121094 334.27532958984375 C 39.1533317565918 356.08892822265625 47.231163024902344 378.9919128417969 41.15327072143555 403.0695495605469 C 34.38766860961914 376.619140625 32.228233337402344 352.4951477050781 30.51903533935547 329.8021240234375" stroke-width="0.0" fill="rgb(98, 97, 95)" opacity="0.98572093" stroke="rgb(0, 0, 0)" stroke-opacity="1.0" stroke-linecap="round" stroke-linejoin="round"/>
    <path d="M 223.52767944335938 247.1727752685547 C 198.8534698486328 245.9905242919922 177.3522186279297 246.48353576660156 156.27684020996094 250.5299835205078 C 157.0897216796875 275.9740905761719 159.69943237304688 300.7931823730469 162.58287048339844 330.4154357910156 C 167.5370635986328 312.3119201660156 166.70413208007812 293.25494384765625 175.720947265625 279.2644348144531 C 183.58511352539062 269.4963073730469 207.49200439453125 273.03497314453125 222.03627014160156 263.18524169921875 C 225.666259765625 258.90350341796875 226.35105895996094 253.93641662597656 223.52767944335938 247.1727752685547" stroke-width="0.0" fill="rgb(27, 27, 28)" opacity="1.0010536" stroke="rgb(0, 0, 0)" stroke-opacity="1.0" stroke-linecap="round" stroke-linejoin="round"/>
    <path d="M 142.39013671875 351.351318359375 C 139.67779541015625 363.6776428222656 140.91845703125 376.31451416015625 142.43402099609375 386.33575439453125 C 148.77133178710938 386.48968505859375 156.07249450683594 386.5025329589844 164.68197631835938 386.5846252441406 C 163.43276977539062 374.2122497558594 165.1390838623047 364.11956787109375 165.47511291503906 354.0181884765625 C 159.76829528808594 351.87200927734375 148.74127197265625 355.1531982421875 142.39013671875 351.351318359375" stroke-width="0.0" fill="rgb(48, 47, 49)" opacity="1.0122354" stroke="rgb(0, 0, 0)" stroke-opacity="1.0" stroke-linecap="round" stroke-linejoin="round"/>
    <path d="M 457.54864501953125 156.54855346679688 C 466.599853515625 183.8278350830078 480.2857971191406 200.83731079101562 494.08978271484375 217.23165893554688 C 497.9909973144531 213.6891326904297 503.0791320800781 212.7530059814453 500.57666015625 209.2428741455078 C 485.1034851074219 193.33224487304688 477.12445068359375 170.49835205078125 457.54864501953125 156.54855346679688" stroke-width="0.0" fill="rgb(51, 56, 15)" opacity="0.9898216" stroke="rgb(0, 0, 0)" stroke-opacity="1.0" stroke-linecap="round" stroke-linejoin="round"/>
    <path d="M 376.3634033203125 -4.0475754737854 C 372.96136474609375 40.76095962524414 369.1622009277344 81.84687042236328 368.427978515625 125.42387390136719 C 374.29718017578125 139.0535888671875 392.65997314453125 135.56471252441406 398.56170654296875 147.42286682128906 C 408.07177734375 148.7069549560547 409.9809875488281 147.7138671875 408.4439392089844 141.9481658935547 C 409.51007080078125 92.0959701538086 413.829833984375 48.381710052490234 415.9652099609375 -0.8881652355194092 C 405.2338562011719 -4.784268379211426 392.2077941894531 -5.249767303466797 376.3634033203125 -4.0475754737854" stroke-width="0.0" fill="rgb(49, 42, 25)" opacity="0.95731556" stroke="rgb(0, 0, 0)" stroke-opacity="1.0" stroke-linecap="round" stroke-linejoin="round"/>
    <path d="M 408.5883483886719 195.8131103515625 C 400.88177490234375 196.03334045410156 401.02960205078125 204.15151977539062 392.96734619140625 206.797607421875 C 399.1756286621094 215.46376037597656 400.9331970214844 227.4764404296875 398.6081848144531 241.51904296875 C 392.5666809082031 250.8126983642578 383.5177307128906 257.3412170410156 370.0618591308594 265.45599365234375 C 371.4350280761719 288.7415771484375 372.1864013671875 314.9217529296875 374.5272521972656 340.13409423828125 C 384.70068359375 340.90185546875 393.01190185546875 343.4395446777344 401.2303161621094 339.7713623046875 C 400.4267272949219 335.0085144042969 405.9593505859375 336.3399658203125 408.4091491699219 334.5096740722656 C 409.4533996582031 330.0022277832031 409.65130615234375 325.77105712890625 409.6786193847656 320.06390380859375 C 411.36138916015625 320.7071228027344 416.6108703613281 321.4253845214844 419.8629150390625 317.00018310546875 C 417.3263244628906 275.1452941894531 410.6170654296875 237.08804321289062 408.5883483886719 195.8131103515625" stroke-width="0.0" fill="rgb(46, 36, 18)" opacity="0.95514274" stroke="rgb(0, 0, 0)" stroke-opacity="1.0" stroke-linecap="round" stroke-linejoin="round"/>
    <path d="M 182.17431640625 470.28204345703125 C 179.70494079589844 482.74700927734375 180.04551696777344 497.2471618652344 179.3538360595703 516.0560302734375 C 201.61683654785156 516.3062133789062 225.35372924804688 516.3580322265625 249.5886993408203 516.4558715820312 C 250.6849365234375 494.9578857421875 249.08375549316406 482.0596923828125 247.64883422851562 468.0563049316406 C 223.9419708251953 467.1397399902344 199.73110961914062 466.478271484375 182.17431640625 470.28204345703125" stroke-width="0.0" fill="rgb(33, 34, 39)" opacity="1.0000961" stroke="rgb(0, 0, 0)" stroke-opacity="1.0" stroke-linecap="round" stroke-linejoin="round"/>
    <path d="M 317.667236328125 339.2817687988281 C 312.0338439941406 336.65234375 304.68463134765625 337.4699401855469 297.0242004394531 337.00872802734375 C 272.906982421875 348.4497375488281 248.6778564453125 358.97174072265625 224.14266967773438 369.9249267578125 C 234.44818115234375 371.9171142578125 235.9189453125 374.6147155761719 234.67787170410156 382.9661560058594 C 258.6522216796875 382.56591796875 278.981201171875 381.77099609375 296.7451477050781 378.3252258300781 C 305.6985778808594 375.1219177246094 312.5445251464844 370.1802673339844 320.4061279296875 363.62701416015625 C 322.6473693847656 352.1671447753906 321.70294189453125 344.8738098144531 317.667236328125 339.2817687988281" stroke-width="0.0" fill="rgb(188, 137, 111)" opacity="0.9491586" stroke="rgb(0, 0, 0)" stroke-opacity="1.0" stroke-linecap="round" stroke-linejoin="round"/>
    <path d="M 325.68597412109375 412.69757080078125 C 327.3889465332031 424.95965576171875 327.3758850097656 432.8271789550781 322.16290283203125 434.8563232421875 C 323.6285400390625 450.0550537109375 331.9842224121094 456.1601257324219 331.9787292480469 471.1170349121094 C 334.02008056640625 482.80657958984375 325.65557861328125 482.1171569824219 312.9456787109375 489.3548278808594 C 322.0012512207031 493.6639709472656 327.99591064453125 492.78466796875 340.0838317871094 491.60040283203125 C 342.13104248046875 489.1217956542969 344.4534912109375 486.2857971191406 347.2873229980469 483.75079345703125 C 347.60906982421875 459.8958740234375 347.6951599121094 435.0644226074219 347.018798828125 413.0272521972656 C 340.94140625 411.72979736328125 332.7162780761719 411.80340576171875 325.68597412109375 412.69757080078125" stroke-width="0.0" fill="rgb(69, 72, 79)" opacity="0.99576956" stroke="rgb(0, 0, 0)" stroke-opacity="1.0" stroke-linecap="round" stroke-linejoin="round"/>
    <path d="M 5.796270370483398 296.22723388671875 C 3.670790672302246 304.12274169921875 4.615667819976807 308.7547912597656 8.025108337402344 311.9059143066406 C 37.554779052734375 324.554443359375 68.20055389404297 334.88592529296875 97.7602310180664 347.7945251464844 C 107.77456665039062 347.7647705078125 118.93660736083984 352.1001892089844 126.42298889160156 348.775390625 C 85.53668975830078 330.4831237792969 44.83010482788086 314.1765441894531 5.796270370483398 296.22723388671875" stroke-width="0.0" fill="rgb(101, 101, 98)" opacity="1.0051306" stroke="rgb(0, 0, 0)" stroke-opacity="1.0" stroke-linecap="round" stroke-linejoin="round"/>
    <path d="M 72.16439056396484 439.0912170410156 C 70.92887115478516 441.84808349609375 72.82193756103516 446.3088073730469 75.79452514648438 447.11224365234375 C 89.12223815917969 445.90020751953125 104.63605499267578 446.0472412109375 120.02985382080078 446.0594787597656 C 122.36064147949219 447.12109375 123.45399475097656 450.6334228515625 130.90724182128906 452.1190185546875 C 132.10891723632812 450.7693786621094 131.62709045410156 446.4574279785156 130.86279296875 441.73431396484375 C 122.14363098144531 437.5723571777344 112.79386901855469 431.723876953125 102.00434875488281 431.8055419921875 C 87.2493667602539 430.4525146484375 81.59986114501953 436.3732604980469 72.16439056396484 439.0912170410156" stroke-width="0.0" fill="rgb(208, 109, 28)" opacity="0.98565865" stroke="rgb(0, 0, 0)" stroke-opacity="1.0" stroke-linecap="round" stroke-linejoin="round"/>
    <path d="M 156.72792053222656 285.51483154296875 C 149.31356811523438 303.9883117675781 147.02403259277344 325.46368408203125 148.27745056152344 357.7514343261719 C 159.2508544921875 351.28839111328125 155.3083038330078 337.0008239746094 156.9992218017578 322.0895080566406 C 159.03465270996094 307.2733459472656 160.66615295410156 294.84552001953125 156.72792053222656 285.51483154296875" stroke-width="0.0" fill="rgb(107, 108, 105)" opacity="1.0136881" stroke="rgb(0, 0, 0)" stroke-opacity="1.0" stroke-linecap="round" stroke-linejoin="round"/>
    <path d="M 379.8893127441406 343.7278137207031 C 365.7242431640625 342.4855041503906 354.80682373046875 344.295654296875 343.0701904296875 343.7624816894531 C 343.5365905761719 349.2148742675781 342.3890380859375 352.1035461425781 343.2844543457031 357.1975402832031 C 352.8397216796875 358.6651611328125 366.1655578613281 356.998046875 378.9029541015625 357.50738525390625 C 381.22900390625 355.7839050292969 381.26336669921875 350.2186584472656 379.8893127441406 343.7278137207031" stroke-width="0.0" fill="rgb(49, 50, 50)" opacity="1.0074425" stroke="rgb(0, 0, 0)" stroke-opacity="1.0" stroke-linecap="round" stroke-linejoin="round"/>
    <path d="M 392.21856689453125 421.5552978515625 C 391.84735107421875 429.553466796875 392.7308349609375 438.74566650390625 391.24591064453125 448.844970703125 C 406.6694030761719 451.56903076171875 419.35626220703125 451.083740234375 430.9048767089844 447.91552734375 C 433.1498107910156 435.88507080078125 433.7125244140625 427.1485900878906 429.8099365234375 421.73321533203125 C 416.9269104003906 419.9422912597656 404.35821533203125 420.3500061035156 392.21856689453125 421.5552978515625" stroke-width="0.0" fill="rgb(165, 179, 186)" opacity="1.0418807" stroke="rgb(0, 0, 0)" stroke-opacity="1.0" stroke-linecap="round" stroke-linejoin="round"/>
    <path d="M 516.1477661132812 420.2746887207031 C 501.85577392578125 418.5314636230469 489.51043701171875 420.658203125 478.38629150390625 419.8753662109375 C 472.41156005859375 426.861572265625 473.1229248046875 434.4936828613281 477.65850830078125 448.2174072265625 C 484.8324279785156 450.4408874511719 497.462646484375 449.6449890136719 516.6068725585938 449.13775634765625 C 515.7517700195312 437.18896484375 515.6204223632812 428.3116760253906 516.1477661132812 420.2746887207031" stroke-width="0.0" fill="rgb(168, 180, 187)" opacity="0.99835724" stroke="rgb(0, 0, 0)" stroke-opacity="1.0" stroke-linecap="round" stroke-linejoin="round"/>
    <path d="M 515.07470703125 350.48553466796875 C 470.5166931152344 351.6556396484375 425.2767028808594 349.678955078125 381.810302734375 354.60003662109375 C 423.6668395996094 362.10626220703125 464.67987060546875 358.6446838378906 508.4421081542969 355.69805908203125 C 517.3956909179688 358.2401123046875 516.6526489257812 353.08087158203125 515.07470703125 350.48553466796875" stroke-width="0.0" fill="rgb(114, 119, 128)" opacity="0.96592623" stroke="rgb(0, 0, 0)" stroke-opacity="1.0" stroke-linecap="round" stroke-linejoin="round"/>
    <path d="M 154.25086975097656 -2.4606645107269287 C 172.41587829589844 11.77037239074707 185.36630249023438 23.350675582885742 201.2390899658203 37.16790771484375 C 208.8896484375 25.62311363220215 214.19540405273438 14.178153991699219 220.78594970703125 -5.340287208557129 C 201.542724609375 -5.173051834106445 181.56265258789062 -5.169868469238281 154.25086975097656 -2.4606645107269287" stroke-width="0.0" fill="rgb(33, 34, 29)" opacity="0.99805087" stroke="rgb(0, 0, 0)" stroke-opacity="1.0" stroke-linecap="round" stroke-linejoin="round"/>
    <path d="M 143.33265686035156 -0.9475941061973572 C 160.5944366455078 18.109838485717773 180.4586639404297 32.980445861816406 200.79693603515625 48.23997497558594 C 206.623291015625 44.3448600769043 206.1687774658203 41.30985641479492 202.1667938232422 36.1615104675293 C 193.41136169433594 26.463794708251953 181.44387817382812 18.351715087890625 168.61569213867188 8.133723258972168 C 164.9474334716797 -1.0184638500213623 159.20510864257812 -5.90280818939209 143.33265686035156 -0.9475941061973572" stroke-width="0.0" fill="rgb(74, 76, 68)" opacity="0.98792756" stroke="rgb(0, 0, 0)" stroke-opacity="1.0" stroke-linecap="round" stroke-linejoin="round"/>
    <path d="M 516.83154296875 293.0888977050781 C 500.3634338378906 297.19512939453125 493.4981994628906 304.4783020019531 480.9042053222656 304.4729919433594 C 481.6535949707031 311.23614501953125 480.0539855957031 316.56134033203125 482.7149658203125 319.7286376953125 C 492.7230529785156 319.2705993652344 502.0323486328125 319.2908020019531 515.9411010742188 319.625 C 515.9672241210938 311.2023010253906 516.0682373046875 303.97607421875 516.83154296875 293.0888977050781" stroke-width="0.0" fill="rgb(8, 8, 8)" opacity="1.0001849" stroke="rgb(0, 0, 0)" stroke-opacity="1.0" stroke-linecap="round" stroke-linejoin="round"/>
    <path d="M 321.7569274902344 244.65609741210938 C 303.0150146484375 244.9662628173828 285.9517517089844 244.80030822753906 268.5689697265625 246.98944091796875 C 265.88983154296875 250.24705505371094 264.9956970214844 256.4422302246094 265.3100891113281 264.4208984375 C 282.51513671875 270.05413818359375 300.9390563964844 275.2298583984375 319.92730712890625 283.6988220214844 C 322.9565734863281 269.3490905761719 322.8262939453125 257.8509521484375 321.7569274902344 244.65609741210938" stroke-width="0.0" fill="rgb(39, 39, 40)" opacity="1.005753" stroke="rgb(0, 0, 0)" stroke-opacity="1.0" stroke-linecap="round" stroke-linejoin="round"/>
    <path d="M 139.81588745117188 360.3526611328125 C 125.03069305419922 361.8086853027344 108.25009155273438 361.85882568359375 92.85661315917969 362.8267822265625 C 92.95967864990234 367.1753234863281 92.72886657714844 379.05316162109375 93.29158020019531 386.6902160644531 C 108.38700103759766 388.39508056640625 123.90640258789062 387.9239807128906 140.55813598632812 385.4140625 C 141.34031677246094 378.25482177734375 141.35821533203125 369.87213134765625 139.81588745117188 360.3526611328125" stroke-width="0.0" fill="rgb(148, 157, 164)" opacity="0.9521352" stroke="rgb(0, 0, 0)" stroke-opacity="1.0" stroke-linecap="round" stroke-linejoin="round"/>
    <path d="M 364.2613525390625 285.6600341796875 C 363.4997253417969 286.7412109375 361.4702453613281 286.6712341308594 361.80377197265625 286.5692443847656 C 361.2160949707031 289.44024658203125 363.452392578125 294.23382568359375 367.3871765136719 304.94000244140625 C 358.97320556640625 305.2102966308594 356.2281188964844 305.1101379394531 358.6897888183594 304.83135986328125 C 358.7985534667969 305.9764404296875 358.8957214355469 310.9508972167969 356.0882568359375 315.62237548828125 C 347.38531494140625 313.541748046875 342.2082214355469 314.0355224609375 344.35760498046875 319.3817443847656 C 345.07806396484375 331.6015319824219 344.3605651855469 340.7347412109375 345.1396789550781 344.6241149902344 C 357.2782897949219 345.03216552734375 366.1351318359375 344.70892333984375 371.5378112792969 342.807373046875 C 371.4604797363281 324.70697021484375 371.9842834472656 309.65069580078125 366.8721008300781 301.9791564941406 C 363.35174560546875 298.2696533203125 362.493896484375 294.4969177246094 362.2749328613281 290.5919494628906 C 362.37274169921875 287.5353088378906 363.1258544921875 285.3341064453125 364.2613525390625 285.6600341796875" stroke-width="0.0" fill="rgb(35, 45, 10)" opacity="0.99996346" stroke="rgb(0, 0, 0)" stroke-opacity="1.0" stroke-linecap="round" stroke-linejoin="round"/>
    <path d="M 308.49700927734375 278.65576171875 C 322.31402587890625 296.7698669433594 319.17095947265625 323.83673095703125 325.42779541015625 351.2220153808594 C 327.8485107421875 355.7623596191406 322.8771667480469 360.09649658203125 318.5500793457031 367.23614501953125 C 322.7829284667969 370.1571044921875 328.6020812988281 369.39276123046875 334.5841979980469 368.7662658691406 C 339.2740173339844 369.01416015625 341.1921081542969 367.3931579589844 342.86590576171875 364.121337890625 C 342.4948425292969 337.3578796386719 344.51776123046875 312.5245361328125 345.74334716796875 285.9637756347656 C 334.8135986328125 281.635498046875 324.63458251953125 278.7434387207031 308.49700927734375 278.65576171875" stroke-width="0.0" fill="rgb(34, 34, 33)" opacity="0.98003495" stroke="rgb(0, 0, 0)" stroke-opacity="1.0" stroke-linecap="round" stroke-linejoin="round"/>
    <path d="M 347.6122131347656 255.0313262939453 C 346.3482666015625 273.17266845703125 345.80474853515625 296.0406799316406 346.091064453125 319.09197998046875 C 356.235107421875 315.54437255859375 364.9374694824219 313.7087097167969 371.6111145019531 315.93212890625 C 371.5325622558594 304.2225341796875 370.8211975097656 283.2625427246094 369.705322265625 261.3711242675781 C 364.3353576660156 257.8388671875 358.3049011230469 254.7473907470703 347.6122131347656 255.0313262939453" stroke-width="0.0" fill="rgb(34, 44, 14)" opacity="0.9982048" stroke="rgb(0, 0, 0)" stroke-opacity="1.0" stroke-linecap="round" stroke-linejoin="round"/>
    <path d="M 515.2066040039062 277.7206115722656 C 499.9051513671875 277.55194091796875 487.9552001953125 278.38720703125 481.44696044921875 280.0361633300781 C 477.3904113769531 289.39154052734375 472.5195007324219 292.4103088378906 484.4235534667969 301.5347595214844 C 495.1060485839844 304.0455627441406 504.3745422363281 302.59356689453125 516.0157470703125 300.3671569824219 C 516.0382080078125 287.2936706542969 517.1012573242188 280.52001953125 515.2066040039062 277.7206115722656" stroke-width="0.0" fill="rgb(116, 87, 75)" opacity="0.9622107" stroke="rgb(0, 0, 0)" stroke-opacity="1.0" stroke-linecap="round" stroke-linejoin="round"/>
    <path d="M 465.0755615234375 175.66529846191406 C 473.46392822265625 193.94883728027344 483.40716552734375 206.19021606445312 494.4657897949219 217.50387573242188 C 498.9185791015625 214.51890563964844 503.273681640625 211.7964324951172 499.728271484375 208.00689697265625 C 491.450439453125 194.8697509765625 482.6339416503906 183.2461395263672 465.0755615234375 175.66529846191406" stroke-width="0.0" fill="rgb(44, 44, 18)" opacity="0.99727154" stroke="rgb(0, 0, 0)" stroke-opacity="1.0" stroke-linecap="round" stroke-linejoin="round"/>
    <path d="M 396.1109619140625 427.33135986328125 C 396.58721923828125 432.8656921386719 395.2627868652344 440.43487548828125 395.85015869140625 443.8006286621094 C 408.3987731933594 444.6686096191406 419.7486267089844 445.8065185546875 427.290283203125 443.06005859375 C 426.9106750488281 436.3155822753906 427.4539489746094 431.3792724609375 427.92352294921875 427.3648986816406 C 416.09967041015625 426.90789794921875 404.623779296875 427.0478820800781 396.1109619140625 427.33135986328125" stroke-width="0.0" fill="rgb(140, 156, 167)" opacity="0.99844086" stroke="rgb(0, 0, 0)" stroke-opacity="1.0" stroke-linecap="round" stroke-linejoin="round"/>
    <path d="M 372.23516845703125 318.26416015625 C 361.86993408203125 319.272216796875 353.0150146484375 318.6559753417969 344.2813720703125 321.9954833984375 C 344.0548095703125 328.745361328125 341.93341064453125 336.45904541015625 343.6806335449219 343.7572326660156 C 354.74127197265625 346.8050842285156 363.0807800292969 346.41729736328125 372.5380554199219 342.85906982421875 C 372.5606384277344 333.9064025878906 372.30987548828125 325.2486572265625 372.23516845703125 318.26416015625" stroke-width="0.0" fill="rgb(44, 55, 13)" opacity="0.9993671" stroke="rgb(0, 0, 0)" stroke-opacity="1.0" stroke-linecap="round" stroke-linejoin="round"/>
  </g>
</svg>
