<?xml version="1.0" ?>
<svg xmlns="http://www.w3.org/2000/svg" version="1.1" width="512" height="512">
  <defs/>
  <g>
    <path d="M -7.249150276184082 -1.0456985235214233 C -7.180240154266357 170.44529724121094 -7.0680012702941895 340.7522277832031 -7.00050687789917 517.523681640625 C 169.56480407714844 517.9221801757812 340.2904052734375 518.35009765625 519.4332885742188 519.0697631835938 C 519.5078735351562 340.53155517578125 519.3214721679688 169.9573516845703 518.6887817382812 -5.7061614990234375 C 340.7685852050781 -5.495362281799316 170.34967041015625 -4.822117328643799 -7.249150276184082 -1.0456985235214233" stroke-width="0.0" fill="rgb(106, 106, 104)" opacity="0.8725928" stroke="rgb(0, 0, 0)" stroke-opacity="1.0" stroke-linecap="round" stroke-linejoin="round"/>
    <path d="M 40.945133209228516 -4.6322102546691895 C 26.92308807373047 67.52238464355469 11.241658210754395 131.7401885986328 5.947968006134033 204.83010864257812 C 3.2962162494659424 229.4555206298828 2.670332908630371 263.0279846191406 3.842256546020508 293.3216247558594 C 8.42827033996582 300.1565246582031 22.142433166503906 299.63116455078125 30.747909545898438 306.5284118652344 C 23.71871566772461 307.32183837890625 13.702150344848633 303.4248962402344 6.282891273498535 302.0342712402344 C 5.455392360687256 328.49609375 5.239550590515137 360.1261291503906 4.795331954956055 388.8295593261719 C 63.450889587402344 387.8388366699219 117.07025909423828 384.4445495605469 170.8502960205078 379.19610595703125 C 163.51632690429688 362.4662780761719 166.9871826171875 340.3503723144531 161.22161865234375 326.9797058105469 C 161.20481872558594 314.0993347167969 164.62498474121094 302.10858154296875 167.29360961914062 292.70880126953125 C 171.10569763183594 285.0335388183594 175.0137176513672 277.2864990234375 183.98568725585938 272.4099426269531 C 195.1873016357422 266.99664306640625 212.92300415039062 267.3154296875 223.7127685546875 255.13287353515625 C 222.9045867919922 239.2272491455078 214.768798828125 230.33616638183594 217.60238647460938 216.78854370117188 C 222.9581756591797 200.2476806640625 228.00735473632812 192.58392333984375 240.58457946777344 188.50839233398438 C 250.94091796875 187.67691040039062 258.2230529785156 188.4178924560547 265.0293884277344 193.53512573242188 C 271.0819091796875 195.37527465820312 272.90313720703125 204.98121643066406 278.3136291503906 216.89321899414062 C 282.4347229003906 236.32606506347656 267.4960021972656 241.33786010742188 271.7477111816406 262.7854919433594 C 279.8922119140625 266.4570007324219 290.2850341796875 270.5518798828125 300.2814636230469 273.6731262207031 C 307.8439025878906 277.130615234375 312.78436279296875 282.60272216796875 317.66070556640625 292.60992431640625 C 322.01702880859375 311.3376770019531 325.42999267578125 333.9516906738281 323.456298828125 360.6124572753906 C 342.11419677734375 363.6645202636719 348.1468200683594 353.42138671875 372.132080078125 355.23236083984375 C 376.96148681640625 343.5218811035156 387.62860107421875 340.40887451171875 403.056396484375 337.4414367675781 C 410.578857421875 329.008544921875 405.9542541503906 322.7953186035156 416.5420227050781 321.232421875 C 447.49072265625 319.55169677734375 480.6444091796875 320.0587158203125 517.8377685546875 317.7359924316406 C 518.142333984375 211.27049255371094 518.1201782226562 105.48672485351562 517.85595703125 -6.6459197998046875 C 351.1986999511719 -6.323210716247559 194.30487060546875 -5.987940788269043 40.945133209228516 -4.6322102546691895" stroke-width="0.0" fill="rgb(89, 90, 85)" opacity="0.8905533" stroke="rgb(0, 0, 0)" stroke-opacity="1.0" stroke-linecap="round" stroke-linejoin="round"/>
    <path d="M 245.8656463623047 191.22312927246094 C 235.7412872314453 191.6780548095703 232.47808837890625 195.3667449951172 228.85581970214844 198.82521057128906 C 225.39712524414062 203.73214721679688 224.2946319580078 213.56361389160156 219.38265991210938 220.94761657714844 C 221.4566192626953 234.32254028320312 222.3640899658203 250.17123413085938 222.3699188232422 265.1632080078125 C 208.27334594726562 270.93084716796875 189.07373046875 271.0406799316406 181.65948486328125 279.6766357421875 C 173.24195861816406 286.4640197753906 170.85289001464844 293.2100524902344 169.25350952148438 311.4004211425781 C 164.78956604003906 323.09698486328125 172.2759552001953 334.21728515625 169.03506469726562 353.5625 C 170.60707092285156 368.450439453125 180.8019256591797 374.2297058105469 182.3922882080078 386.84710693359375 C 178.25723266601562 406.7612609863281 173.11026000976562 426.7292785644531 172.4989471435547 458.7535400390625 C 177.97926330566406 471.5660400390625 182.64468383789062 484.96014404296875 179.7207794189453 519.3231201171875 C 223.74024963378906 519.1758422851562 268.9073486328125 518.9677734375 316.78375244140625 518.4595947265625 C 315.5915222167969 488.9339294433594 321.5796813964844 470.8911437988281 320.299560546875 450.6100158691406 C 316.0850830078125 423.1081848144531 310.1211242675781 399.5196228027344 305.5953063964844 380.003662109375 C 311.3555603027344 371.67034912109375 317.0117492675781 363.6711730957031 320.62579345703125 351.2583312988281 C 316.2376403808594 335.9328918457031 318.8083801269531 317.7421875 315.3934020996094 301.6184387207031 C 313.5250244140625 292.2914123535156 309.00689697265625 284.995849609375 302.3810729980469 279.8580322265625 C 292.8113098144531 271.9712219238281 276.5145568847656 272.2625732421875 267.69439697265625 266.4962463378906 C 262.74578857421875 238.92320251464844 282.3943786621094 234.24302673339844 272.88714599609375 219.5634765625 C 272.11627197265625 202.40054321289062 267.1494140625 197.4519500732422 261.2432861328125 193.80528259277344 C 256.4063720703125 191.97506713867188 249.26211547851562 190.90521240234375 245.8656463623047 191.22312927246094" stroke-width="0.0" fill="rgb(60, 51, 48)" opacity="1.0211836" stroke="rgb(0, 0, 0)" stroke-opacity="1.0" stroke-linecap="round" stroke-linejoin="round"/>
    <path d="M 518.7349243164062 320.4385070800781 C 479.0249938964844 320.1817932128906 449.3711853027344 323.48284912109375 421.3206481933594 322.764404296875 C 410.00604248046875 326.7263488769531 413.5244140625 337.1678771972656 406.6816711425781 343.59527587890625 C 374.05828857421875 335.60589599609375 387.6483459472656 366.90277099609375 359.595458984375 357.7599182128906 C 344.6153869628906 364.8262023925781 342.2565612792969 369.7016906738281 342.7338562011719 380.0098571777344 C 333.0016174316406 380.70953369140625 320.84942626953125 380.6163024902344 309.02899169921875 381.9289855957031 C 312.4778747558594 406.7458801269531 320.7289123535156 426.2919616699219 322.20477294921875 449.724609375 C 324.9333190917969 467.85528564453125 320.03033447265625 481.29412841796875 320.69915771484375 499.4398498535156 C 341.939208984375 504.80108642578125 366.8696594238281 507.8044128417969 393.8089904785156 509.3106689453125 C 431.61920166015625 510.2751770019531 468.0015563964844 515.3189697265625 518.62548828125 521.136962890625 C 518.8895874023438 445.010986328125 519.2406616210938 381.05157470703125 518.7349243164062 320.4385070800781" stroke-width="0.0" fill="rgb(145, 146, 146)" opacity="1.0652794" stroke="rgb(0, 0, 0)" stroke-opacity="1.0" stroke-linecap="round" stroke-linejoin="round"/>
    <path d="M 175.79644775390625 417.0538635253906 C 155.9737548828125 414.1449279785156 140.31761169433594 416.6897277832031 124.90843200683594 416.4005126953125 C 127.44046783447266 428.7106018066406 132.5551300048828 439.3780822753906 131.51248168945312 442.1646728515625 C 91.88599395751953 441.8139343261719 51.7661018371582 442.5059509277344 9.620099067687988 445.7656555175781 C 8.57875919342041 465.7901916503906 7.2131757736206055 487.0545349121094 6.298034191131592 517.5787353515625 C 64.99913024902344 518.04736328125 120.57199096679688 519.45654296875 177.51995849609375 517.6952514648438 C 181.55482482910156 475.69793701171875 160.298583984375 459.96881103515625 175.79644775390625 417.0538635253906" stroke-width="0.0" fill="rgb(86, 88, 90)" opacity="0.95053935" stroke="rgb(0, 0, 0)" stroke-opacity="1.0" stroke-linecap="round" stroke-linejoin="round"/>
    <path d="M 13.151449203491211 447.0675048828125 C 56.3588752746582 447.3184509277344 95.24114990234375 446.9911804199219 131.4564208984375 446.389404296875 C 129.70956420898438 433.0396728515625 126.04773712158203 424.7240295410156 123.69959259033203 417.8602600097656 C 119.76873779296875 413.212890625 113.73393249511719 410.8784484863281 110.06533813476562 406.9629211425781 C 97.6363525390625 404.0830078125 92.27091217041016 405.7445983886719 85.81349182128906 409.95086669921875 C 79.6868896484375 415.17169189453125 74.94312286376953 420.6598205566406 72.20755767822266 427.58111572265625 C 68.86570739746094 418.15673828125 62.62139892578125 412.71453857421875 57.609596252441406 406.9400634765625 C 53.71352767944336 403.6831970214844 48.02805709838867 401.95538330078125 44.05685043334961 403.043701171875 C 33.4791259765625 404.62255859375 27.291353225708008 408.8285217285156 24.70830726623535 413.96038818359375 C 19.09984016418457 422.9353332519531 13.759286880493164 431.03375244140625 13.151449203491211 447.0675048828125" stroke-width="0.0" fill="rgb(193, 154, 84)" opacity="0.8918941" stroke="rgb(0, 0, 0)" stroke-opacity="1.0" stroke-linecap="round" stroke-linejoin="round"/>
    <path d="M 4.0995893478393555 419.540771484375 C 2.098817825317383 445.5615539550781 2.716712713241577 479.03363037109375 1.4214677810668945 516.655517578125 C 1.2892096042633057 518.1168212890625 5.5952677726745605 517.5358276367188 6.630918979644775 516.67919921875 C 8.050857543945312 479.2152404785156 7.807647705078125 448.3858642578125 16.67818832397461 425.0345153808594 C 10.234267234802246 423.24578857421875 3.801042079925537 423.96197509765625 4.0995893478393555 419.540771484375" stroke-width="0.0" fill="rgb(72, 74, 66)" opacity="0.9302144" stroke="rgb(0, 0, 0)" stroke-opacity="1.0" stroke-linecap="round" stroke-linejoin="round"/>
    <path d="M 177.22174072265625 401.3688049316406 C 159.11676025390625 401.9264221191406 137.09933471679688 402.96875 119.66699981689453 402.37359619140625 C 119.08718872070312 412.0665283203125 122.31069946289062 415.3616027832031 125.97309875488281 416.33270263671875 C 142.85052490234375 415.4434814453125 157.61709594726562 415.9815979003906 171.9244842529297 415.93798828125 C 177.0171661376953 415.4241943359375 177.60972595214844 411.075927734375 177.22174072265625 401.3688049316406" stroke-width="0.0" fill="rgb(234, 235, 236)" opacity="1.0083044" stroke="rgb(0, 0, 0)" stroke-opacity="1.0" stroke-linecap="round" stroke-linejoin="round"/>
    <path d="M 179.64642333984375 385.80938720703125 C 134.26303100585938 386.93206787109375 90.80430603027344 389.14862060546875 48.9351806640625 390.2723388671875 C 46.54085159301758 392.23748779296875 44.80199432373047 396.93243408203125 48.394229888916016 399.69378662109375 C 87.97950744628906 399.6089782714844 131.2781982421875 396.1942138671875 177.96633911132812 396.8974304199219 C 179.63107299804688 393.8843078613281 180.90501403808594 391.2745361328125 179.64642333984375 385.80938720703125" stroke-width="0.0" fill="rgb(203, 207, 210)" opacity="1.0073586" stroke="rgb(0, 0, 0)" stroke-opacity="1.0" stroke-linecap="round" stroke-linejoin="round"/>
    <path d="M 317.65167236328125 520.8905639648438 C 372.1949768066406 521.8310546875 438.17181396484375 522.546630859375 524.1052856445312 508.9432373046875 C 453.1830139160156 505.986328125 380.791748046875 514.1709594726562 321.6024169921875 496.4764709472656 C 319.1134033203125 499.0661315917969 320.2841491699219 504.05133056640625 317.65167236328125 520.8905639648438" stroke-width="0.0" fill="rgb(24, 23, 22)" opacity="1.0027796" stroke="rgb(0, 0, 0)" stroke-opacity="1.0" stroke-linecap="round" stroke-linejoin="round"/>
    <path d="M 344.19873046875 363.7142333984375 C 336.27618408203125 366.6383056640625 327.9058837890625 368.6895446777344 315.6004943847656 367.8018493652344 C 311.6724853515625 370.91986083984375 307.1966552734375 372.4404296875 305.354248046875 381.6289978027344 C 320.296630859375 381.19940185546875 332.9165344238281 381.7372131347656 345.48828125 379.82080078125 C 348.31866455078125 375.900634765625 348.2769775390625 372.4967346191406 344.19873046875 363.7142333984375" stroke-width="0.0" fill="rgb(122, 122, 123)" opacity="1.0762035" stroke="rgb(0, 0, 0)" stroke-opacity="1.0" stroke-linecap="round" stroke-linejoin="round"/>
    <path d="M 42.13220977783203 -2.875028133392334 C 33.87377166748047 -6.0714030265808105 28.45627212524414 -5.039357662200928 27.61912727355957 1.4361366033554077 C 19.698463439941406 25.545063018798828 14.780675888061523 52.73489761352539 8.750240325927734 80.79528045654297 C 8.54850959777832 103.17918395996094 5.54270076751709 132.80093383789062 10.369765281677246 149.77407836914062 C 19.509111404418945 97.06149291992188 28.24728012084961 47.13312530517578 42.13220977783203 -2.875028133392334" stroke-width="0.0" fill="rgb(160, 163, 161)" opacity="0.97557354" stroke="rgb(0, 0, 0)" stroke-opacity="1.0" stroke-linecap="round" stroke-linejoin="round"/>
    <path d="M 1.2686866521835327 390.2273254394531 C 4.90800666809082 400.9354553222656 1.7817107439041138 414.818603515625 4.000730514526367 420.97625732421875 C 6.542220592498779 423.0823669433594 10.428966522216797 426.4815979003906 18.30828285217285 424.60601806640625 C 24.438030242919922 416.489013671875 27.256080627441406 406.28387451171875 38.9152946472168 402.031982421875 C 26.223918914794922 396.5466613769531 15.372417449951172 392.7337341308594 1.2686866521835327 390.2273254394531" stroke-width="0.0" fill="rgb(94, 93, 93)" opacity="0.9662612" stroke="rgb(0, 0, 0)" stroke-opacity="1.0" stroke-linecap="round" stroke-linejoin="round"/>
    <path d="M 42.19186782836914 -5.252228736877441 C 27.58951187133789 56.78562545776367 15.271211624145508 115.46096801757812 8.430242538452148 180.154296875 C 2.3685672283172607 212.3032989501953 2.7035961151123047 250.420166015625 4.5503716468811035 293.8075256347656 C 44.9914436340332 310.6354675292969 88.58120727539062 327.7557678222656 132.74264526367188 346.3172912597656 C 139.30857849121094 348.2783508300781 139.2490997314453 360.5765075683594 147.90542602539062 363.13665771484375 C 159.2615509033203 361.3793029785156 165.94642639160156 361.7095642089844 169.87022399902344 362.24505615234375 C 160.83103942871094 344.9017333984375 160.64144897460938 318.5693664550781 158.57980346679688 289.4129333496094 C 156.6197052001953 257.18121337890625 158.946044921875 222.16339111328125 162.75901794433594 190.74853515625 C 171.1048126220703 158.92730712890625 178.81048583984375 126.54021453857422 186.55862426757812 94.74273681640625 C 198.2362060546875 63.54567337036133 207.4775848388672 28.797788619995117 225.61068725585938 -5.144024848937988 C 167.107666015625 -7.682464599609375 106.13558197021484 -7.400747299194336 42.19186782836914 -5.252228736877441" stroke-width="0.0" fill="rgb(36, 37, 31)" opacity="0.9873682" stroke="rgb(0, 0, 0)" stroke-opacity="1.0" stroke-linecap="round" stroke-linejoin="round"/>
    <path d="M 415.4463195800781 6.246140003204346 C 413.72210693359375 47.474430084228516 409.5877990722656 88.65226745605469 403.83099365234375 125.00735473632812 C 406.2688293457031 193.8787841796875 410.4288635253906 256.214599609375 414.396240234375 319.64984130859375 C 441.7149658203125 320.09564208984375 462.4123840332031 321.4772033691406 479.02447509765625 315.134033203125 C 479.5898742675781 312.0107727050781 477.7027587890625 295.720703125 480.694580078125 286.02557373046875 C 483.898193359375 284.5599670410156 487.4588623046875 283.5024719238281 486.4865417480469 279.53985595703125 C 496.4190979003906 277.19891357421875 505.830810546875 277.1822814941406 520.1729736328125 280.4600830078125 C 519.855224609375 207.68292236328125 519.43310546875 142.84454345703125 513.4312744140625 86.1524429321289 C 494.2587890625 65.6237564086914 480.02105712890625 47.89149856567383 463.3719482421875 32.22016143798828 C 460.980712890625 38.07636260986328 462.9244689941406 46.1454963684082 460.8575134277344 49.170997619628906 C 452.6551208496094 53.01382827758789 441.5281677246094 55.61048889160156 433.8303527832031 49.37348556518555 C 428.5304870605469 46.770145416259766 432.2873229980469 39.22972869873047 436.4957275390625 33.72658157348633 C 441.52398681640625 31.31197166442871 450.9832458496094 31.773378372192383 455.9496154785156 27.34120750427246 C 445.9414367675781 18.352815628051758 434.7766418457031 9.824492454528809 415.4463195800781 6.246140003204346" stroke-width="0.0" fill="rgb(90, 102, 45)" opacity="0.9794932" stroke="rgb(0, 0, 0)" stroke-opacity="1.0" stroke-linecap="round" stroke-linejoin="round"/>
    <path d="M 518.1309204101562 338.8468933105469 C 470.80059814453125 342.9040832519531 424.4463195800781 341.8155822753906 382.4376220703125 344.8594970703125 C 381.9203186035156 372.2390441894531 382.5590515136719 407.68792724609375 382.3538513183594 442.9645690917969 C 384.3675842285156 468.243408203125 380.8858947753906 490.3580017089844 391.01708984375 505.8990173339844 C 429.5169982910156 507.5669860839844 467.66619873046875 507.5534973144531 498.8082580566406 505.2875671386719 C 502.3860778808594 497.29974365234375 501.7157897949219 499.4268493652344 498.6167907714844 497.8964538574219 C 502.9534912109375 496.12371826171875 506.4557800292969 495.4212341308594 517.5023803710938 496.84100341796875 C 517.1043701171875 442.3282775878906 517.3951416015625 389.6853332519531 518.1309204101562 338.8468933105469" stroke-width="0.0" fill="rgb(175, 180, 186)" opacity="1.0616598" stroke="rgb(0, 0, 0)" stroke-opacity="1.0" stroke-linecap="round" stroke-linejoin="round"/>
    <path d="M 379.3798828125 202.24322509765625 C 341.3543395996094 205.10275268554688 309.38616943359375 210.04502868652344 275.7128601074219 211.42123413085938 C 281.56134033203125 238.96163940429688 266.2442321777344 241.01150512695312 269.06146240234375 262.3337707519531 C 282.50372314453125 272.3227844238281 305.1314697265625 272.20257568359375 312.2776184082031 286.2084655761719 C 326.21533203125 303.6304626464844 317.4310607910156 339.8079528808594 328.1950988769531 358.1260070800781 C 358.3116760253906 360.021484375 372.9290466308594 344.6063232421875 394.51202392578125 336.83843994140625 C 402.586669921875 337.6162414550781 403.5711975097656 331.01922607421875 408.561767578125 323.73980712890625 C 404.42767333984375 292.3435363769531 405.6341857910156 259.65093994140625 402.08544921875 235.81370544433594 C 395.0010986328125 222.614990234375 386.0888671875 213.922607421875 379.3798828125 202.24322509765625" stroke-width="0.0" fill="rgb(69, 74, 45)" opacity="0.9060919" stroke="rgb(0, 0, 0)" stroke-opacity="1.0" stroke-linecap="round" stroke-linejoin="round"/>
    <path d="M 305.45574951171875 377.804931640625 C 259.5283203125 379.38018798828125 219.1436004638672 381.7549133300781 184.11668395996094 386.00115966796875 C 176.59100341796875 412.4390563964844 171.15060424804688 435.425048828125 173.46380615234375 468.9261169433594 C 215.7932891845703 471.6707458496094 265.9440002441406 469.226806640625 319.64117431640625 470.9679870605469 C 316.83258056640625 436.1882019042969 313.8106384277344 404.0681457519531 305.45574951171875 377.804931640625" stroke-width="0.0" fill="rgb(28, 28, 33)" opacity="0.96590215" stroke="rgb(0, 0, 0)" stroke-opacity="1.0" stroke-linecap="round" stroke-linejoin="round"/>
    <path d="M 171.93299865722656 289.95269775390625 C 169.7900848388672 301.1320495605469 166.5973358154297 311.7565002441406 166.42840576171875 325.7810363769531 C 167.5248260498047 329.9970703125 167.400390625 336.07000732421875 171.5277557373047 337.9308166503906 C 220.03851318359375 338.6185607910156 268.5328369140625 337.87957763671875 317.3231201171875 338.5273132324219 C 318.0979309082031 316.2157287597656 317.5576477050781 298.65911865234375 310.6512145996094 287.39599609375 C 303.7506103515625 275.435546875 286.3538818359375 272.2567443847656 267.58343505859375 266.84185791015625 C 262.2958679199219 271.55548095703125 252.61109924316406 278.1327819824219 237.6208038330078 275.1637268066406 C 232.5391082763672 269.45062255859375 228.44046020507812 261.8128662109375 222.2466278076172 265.0130920410156 C 206.18287658691406 269.32659912109375 192.5700225830078 271.5039367675781 185.5717010498047 274.6443176269531 C 179.70838928222656 278.8578186035156 174.7003936767578 283.06903076171875 171.93299865722656 289.95269775390625" stroke-width="0.0" fill="rgb(49, 48, 54)" opacity="0.98395425" stroke="rgb(0, 0, 0)" stroke-opacity="1.0" stroke-linecap="round" stroke-linejoin="round"/>
    <path d="M 3.548736810684204 295.44085693359375 C 1.973219633102417 324.3186340332031 3.013148546218872 361.70037841796875 3.6859214305877686 396.0241394042969 C 52.196231842041016 387.9635314941406 103.25834655761719 387.8384704589844 154.9578094482422 386.06072998046875 C 146.38784790039062 371.00653076171875 139.04812622070312 358.3748474121094 131.08676147460938 347.9139099121094 C 88.69921112060547 329.9339904785156 46.115478515625 313.18841552734375 3.548736810684204 295.44085693359375" stroke-width="0.0" fill="rgb(64, 65, 69)" opacity="0.86543024" stroke="rgb(0, 0, 0)" stroke-opacity="1.0" stroke-linecap="round" stroke-linejoin="round"/>
    <path d="M 377.2616882324219 -3.6421825885772705 C 371.54229736328125 56.43458557128906 375.58001708984375 121.2785415649414 372.3135070800781 191.22401428222656 C 374.5347595214844 203.83091735839844 387.3839111328125 210.22511291503906 394.3986511230469 225.73472595214844 C 402.8012390136719 238.1842803955078 405.2735900878906 257.1601867675781 405.02020263671875 280.25555419921875 C 408.017578125 190.68055725097656 409.8879699707031 95.32736206054688 412.0920104980469 1.7964122295379639 C 405.0903625488281 -8.890525817871094 392.15997314453125 -6.863340377807617 377.2616882324219 -3.6421825885772705" stroke-width="0.0" fill="rgb(42, 33, 20)" opacity="1.003052" stroke="rgb(0, 0, 0)" stroke-opacity="1.0" stroke-linecap="round" stroke-linejoin="round"/>
    <path d="M 14.1255521774292 449.114013671875 C 10.501997947692871 462.8965759277344 15.102526664733887 488.52569580078125 11.952801704406738 520.6557006835938 C 56.47931671142578 520.4906616210938 95.33737182617188 520.4594116210938 126.6202621459961 518.1053466796875 C 132.7794189453125 491.0372009277344 129.37149047851562 470.2070617675781 129.13987731933594 447.7218322753906 C 90.62775421142578 447.17974853515625 52.89404296875 448.2284240722656 14.1255521774292 449.114013671875" stroke-width="0.0" fill="rgb(84, 88, 93)" opacity="0.8808639" stroke="rgb(0, 0, 0)" stroke-opacity="1.0" stroke-linecap="round" stroke-linejoin="round"/>
    <path d="M 319.9443664550781 344.8994140625 C 317.1771240234375 339.3232116699219 313.1022644042969 336.5458679199219 306.37982177734375 336.7419128417969 C 258.3247985839844 332.2077941894531 222.8976287841797 342.40283203125 177.99903869628906 335.1594543457031 C 171.83908081054688 337.95135498046875 168.26416015625 340.26104736328125 167.73104858398438 348.0531921386719 C 170.23214721679688 365.3145751953125 175.9859161376953 375.9401550292969 182.7589569091797 386.63470458984375 C 222.04566955566406 381.1763916015625 263.98333740234375 380.2747497558594 303.9310607910156 376.7260437011719 C 307.6693115234375 373.0120544433594 312.7315368652344 368.22509765625 317.30035400390625 363.96575927734375 C 319.339599609375 358.10491943359375 321.61407470703125 352.07696533203125 319.9443664550781 344.8994140625" stroke-width="0.0" fill="rgb(197, 144, 122)" opacity="1.0248871" stroke="rgb(0, 0, 0)" stroke-opacity="1.0" stroke-linecap="round" stroke-linejoin="round"/>
    <path d="M 177.51414489746094 468.9674072265625 C 180.87164306640625 482.0414733886719 179.719482421875 497.7852783203125 180.44631958007812 518.2467651367188 C 226.65150451660156 519.01708984375 271.8189392089844 518.890380859375 317.70599365234375 518.5468139648438 C 316.6948547363281 493.772216796875 317.3444519042969 478.22021484375 321.2921142578125 468.84930419921875 C 265.2714538574219 468.3998107910156 217.58984375 468.7204895019531 177.51414489746094 468.9674072265625" stroke-width="0.0" fill="rgb(25, 26, 28)" opacity="1.0044295" stroke="rgb(0, 0, 0)" stroke-opacity="1.0" stroke-linecap="round" stroke-linejoin="round"/>
    <path d="M 126.79315185546875 417.5657043457031 C 133.9414825439453 440.41143798828125 130.0541534423828 472.5325927734375 132.91273498535156 504.7952575683594 C 137.89102172851562 502.94036865234375 140.98980712890625 505.5603332519531 148.6837158203125 517.5971069335938 C 157.99502563476562 518.9414672851562 168.40432739257812 518.092529296875 178.24337768554688 510.048095703125 C 176.95306396484375 500.123291015625 178.40359497070312 489.0317077636719 178.43125915527344 479.7547607421875 C 174.3650360107422 473.7178649902344 173.0326690673828 468.1939392089844 169.90878295898438 465.8601379394531 C 169.79067993164062 447.5811767578125 171.93069458007812 431.01043701171875 175.43043518066406 416.2415466308594 C 158.05126953125 414.47772216796875 142.69007873535156 417.34002685546875 126.79315185546875 417.5657043457031" stroke-width="0.0" fill="rgb(96, 98, 104)" opacity="0.98580366" stroke="rgb(0, 0, 0)" stroke-opacity="1.0" stroke-linecap="round" stroke-linejoin="round"/>
    <path d="M 218.77899169921875 211.061279296875 C 208.75509643554688 205.7154541015625 196.3208465576172 201.80886840820312 187.16690063476562 204.89601135253906 C 171.87525939941406 206.23300170898438 169.38743591308594 214.6027069091797 163.4930877685547 221.9358673095703 C 160.24839782714844 249.0653076171875 158.84727478027344 274.0816650390625 162.36334228515625 306.0611572265625 C 170.4984588623047 295.3655700683594 171.48207092285156 281.43426513671875 184.33682250976562 273.4710388183594 C 193.42385864257812 269.62646484375 209.91160583496094 268.84490966796875 221.9267578125 261.10614013671875 C 224.94717407226562 241.8756103515625 220.65573120117188 225.84524536132812 218.77899169921875 211.061279296875" stroke-width="0.0" fill="rgb(40, 41, 39)" opacity="0.94653016" stroke="rgb(0, 0, 0)" stroke-opacity="1.0" stroke-linecap="round" stroke-linejoin="round"/>
    <path d="M 244.01051330566406 190.80462646484375 C 236.0122833251953 191.8547821044922 232.8420867919922 195.7108154296875 227.9829559326172 200.57052612304688 C 224.71697998046875 205.92042541503906 225.57275390625 214.91604614257812 214.99734497070312 223.8689422607422 C 223.9362335205078 234.12965393066406 226.92381286621094 244.399169921875 224.15272521972656 266.409912109375 C 225.3846435546875 273.4363708496094 235.20028686523438 275.7122497558594 246.31631469726562 276.20947265625 C 257.7453918457031 275.9250793457031 261.18035888671875 270.4826965332031 267.8207092285156 267.1611328125 C 263.8600769042969 241.9294891357422 276.7568054199219 239.30828857421875 275.21978759765625 225.2173614501953 C 272.4893798828125 210.39044189453125 270.3190002441406 200.27735900878906 263.1994323730469 195.67332458496094 C 258.0888977050781 192.00926208496094 251.54946899414062 190.7970733642578 244.01051330566406 190.80462646484375" stroke-width="0.0" fill="rgb(172, 129, 109)" opacity="1.0084423" stroke="rgb(0, 0, 0)" stroke-opacity="1.0" stroke-linecap="round" stroke-linejoin="round"/>
    <path d="M 413.23870849609375 -2.2605323791503906 C 431.3935546875 8.920137405395508 447.60394287109375 15.46381664276123 461.0130310058594 27.379554748535156 C 476.54345703125 44.502986907958984 491.6490783691406 63.90721130371094 516.7675170898438 90.20494079589844 C 520.3934326171875 57.1768798828125 518.3275146484375 27.6610164642334 517.7547607421875 -2.058116912841797 C 479.7305908203125 -4.160110950469971 447.5978088378906 -6.644147872924805 413.23870849609375 -2.2605323791503906" stroke-width="0.0" fill="rgb(20, 19, 14)" opacity="1.0200864" stroke="rgb(0, 0, 0)" stroke-opacity="1.0" stroke-linecap="round" stroke-linejoin="round"/>
    <path d="M 360.47943115234375 388.7242126464844 C 359.4555358886719 388.9293518066406 356.01458740234375 389.86383056640625 356.4255676269531 397.99395751953125 C 356.3725280761719 428.1728515625 357.8711853027344 459.8269348144531 356.6292419433594 493.7320861816406 C 363.64801025390625 494.6979675292969 374.1926574707031 496.05987548828125 382.09124755859375 494.4934387207031 C 382.8791198730469 458.7938232421875 380.2269287109375 425.1434326171875 381.21466064453125 389.3262939453125 C 379.1094970703125 387.6008605957031 366.7248840332031 386.65887451171875 360.47943115234375 388.7242126464844" stroke-width="0.0" fill="rgb(76, 78, 79)" opacity="0.99783605" stroke="rgb(0, 0, 0)" stroke-opacity="1.0" stroke-linecap="round" stroke-linejoin="round"/>
    <path d="M 316.5579833984375 407.3056335449219 C 320.46490478515625 433.3216552734375 323.93548583984375 459.1927185058594 319.874755859375 491.3144836425781 C 328.49395751953125 493.0724182128906 337.5810852050781 492.42626953125 349.0767822265625 491.04608154296875 C 348.7614440917969 467.33062744140625 345.20538330078125 439.5170593261719 346.3685302734375 406.8441467285156 C 337.0259094238281 406.97271728515625 325.79052734375 408.1219787597656 316.5579833984375 407.3056335449219" stroke-width="0.0" fill="rgb(74, 77, 81)" opacity="0.87254596" stroke="rgb(0, 0, 0)" stroke-opacity="1.0" stroke-linecap="round" stroke-linejoin="round"/>
    <path d="M 516.8789672851562 319.40106201171875 C 479.40362548828125 319.5590515136719 447.4898376464844 321.1123352050781 416.4795227050781 321.9643249511719 C 410.8177490234375 323.7811279296875 408.98297119140625 330.5519104003906 410.01953125 342.34539794921875 C 437.7021179199219 342.6829833984375 475.2775573730469 341.5740966796875 520.280029296875 341.396728515625 C 518.3309936523438 330.71844482421875 518.3380126953125 322.94354248046875 516.8789672851562 319.40106201171875" stroke-width="0.0" fill="rgb(174, 178, 179)" opacity="1.0398246" stroke="rgb(0, 0, 0)" stroke-opacity="1.0" stroke-linecap="round" stroke-linejoin="round"/>
    <path d="M 12.453365325927734 447.3604431152344 C 26.216461181640625 448.4923400878906 45.59437942504883 447.5650939941406 68.12980651855469 446.87127685546875 C 71.68205261230469 443.4985046386719 72.32898712158203 434.6896057128906 69.00390625 423.5777282714844 C 66.24352264404297 417.6406555175781 61.0273551940918 411.19842529296875 55.20254135131836 406.0703125 C 50.49501037597656 404.0499572753906 40.86451721191406 402.1070556640625 32.499515533447266 406.3060607910156 C 28.454023361206055 408.4408264160156 24.446027755737305 413.46978759765625 21.537778854370117 419.7014465332031 C 17.50147247314453 425.43267822265625 14.858819007873535 434.00311279296875 12.453365325927734 447.3604431152344" stroke-width="0.0" fill="rgb(235, 189, 51)" opacity="0.9249641" stroke="rgb(0, 0, 0)" stroke-opacity="1.0" stroke-linecap="round" stroke-linejoin="round"/>
    <path d="M 76.56967163085938 420.440185546875 C 75.05510711669922 429.75531005859375 70.26256561279297 436.18975830078125 72.0739517211914 446.776123046875 C 92.34181213378906 446.1343688964844 115.05960845947266 447.759765625 129.7234344482422 446.2972412109375 C 131.32281494140625 432.51971435546875 126.21528625488281 426.3464660644531 123.5369644165039 417.4227294921875 C 119.63602447509766 413.2434997558594 113.45624542236328 411.134521484375 110.3492202758789 407.87322998046875 C 101.63410186767578 404.04473876953125 94.88121795654297 406.39605712890625 86.66414642333984 409.1493225097656 C 83.53091430664062 413.1601257324219 79.13539123535156 416.7935791015625 76.56967163085938 420.440185546875" stroke-width="0.0" fill="rgb(233, 215, 99)" opacity="0.9964505" stroke="rgb(0, 0, 0)" stroke-opacity="1.0" stroke-linecap="round" stroke-linejoin="round"/>
    <path d="M 516.84814453125 278.2403564453125 C 495.5498962402344 276.2488098144531 490.6147766113281 282.206298828125 484.4849548339844 290.0764465332031 C 479.5198669433594 296.6197814941406 481.4630126953125 310.8293151855469 482.31927490234375 318.6898498535156 C 493.189208984375 319.3951721191406 502.53656005859375 318.97637939453125 519.585205078125 319.05914306640625 C 519.4613037109375 301.4873046875 518.9125366210938 288.7299499511719 516.84814453125 278.2403564453125" stroke-width="0.0" fill="rgb(56, 40, 34)" opacity="1.0006856" stroke="rgb(0, 0, 0)" stroke-opacity="1.0" stroke-linecap="round" stroke-linejoin="round"/>
    <path d="M 463.1201171875 33.452091217041016 C 460.345703125 30.867830276489258 457.56915283203125 26.82330894470215 455.7415466308594 26.912443161010742 C 453.1837463378906 31.196523666381836 446.1679382324219 29.75152015686035 442.97381591796875 31.394779205322266 C 433.4819641113281 33.7231330871582 430.3602294921875 41.17234802246094 430.65313720703125 46.16636657714844 C 431.51055908203125 51.71712875366211 441.2022705078125 55.33078384399414 451.3930358886719 52.75223922729492 C 456.8834228515625 52.926761627197266 459.8238830566406 50.47954177856445 461.6745300292969 49.768775939941406 C 462.20611572265625 47.545780181884766 463.4881591796875 40.58225631713867 463.1201171875 33.452091217041016" stroke-width="0.0" fill="rgb(219, 227, 222)" opacity="0.9872078" stroke="rgb(0, 0, 0)" stroke-opacity="1.0" stroke-linecap="round" stroke-linejoin="round"/>
    <path d="M 289.7807922363281 77.2613296508789 C 274.33917236328125 111.54733276367188 262.5834655761719 146.36915588378906 252.1102752685547 183.37144470214844 C 263.8276062011719 192.2346649169922 272.0025939941406 193.8353271484375 274.70245361328125 208.54824829101562 C 310.87841796875 209.34519958496094 337.4861755371094 203.33914184570312 365.9544677734375 197.8374481201172 C 369.2784423828125 194.76498413085938 368.8265686035156 185.5380096435547 367.34820556640625 171.32620239257812 C 368.2220153808594 161.38449096679688 361.8912353515625 153.67723083496094 359.8027648925781 145.67584228515625 C 338.1742858886719 122.17507934570312 317.7045593261719 96.67450714111328 289.7807922363281 77.2613296508789" stroke-width="0.0" fill="rgb(70, 84, 36)" opacity="0.9996963" stroke="rgb(0, 0, 0)" stroke-opacity="1.0" stroke-linecap="round" stroke-linejoin="round"/>
    <path d="M 323.4505920410156 1.7249741554260254 C 315.0300598144531 21.81446647644043 304.27630615234375 42.6617431640625 295.3972473144531 65.51094818115234 C 321.1431884765625 86.19471740722656 341.9126281738281 110.3825454711914 369.3341979980469 135.80970764160156 C 371.9888000488281 93.65399169921875 372.3612060546875 47.924652099609375 373.5841369628906 0.7400650978088379 C 355.1900939941406 1.8557193279266357 343.249267578125 -2.8501675128936768 323.4505920410156 1.7249741554260254" stroke-width="0.0" fill="rgb(102, 113, 61)" opacity="1.0025716" stroke="rgb(0, 0, 0)" stroke-opacity="1.0" stroke-linecap="round" stroke-linejoin="round"/>
    <path d="M 296.9033508300781 66.51869201660156 C 291.14910888671875 71.79517364501953 289.4553527832031 75.83146667480469 291.3520202636719 81.26392364501953 C 319.9384460449219 102.68802642822266 344.2375183105469 127.87073516845703 365.6172180175781 158.14755249023438 C 372.4683532714844 147.4939422607422 372.29205322265625 135.8629913330078 370.7371826171875 133.21665954589844 C 340.8442687988281 110.06160736083984 322.4357604980469 83.71973419189453 296.9033508300781 66.51869201660156" stroke-width="0.0" fill="rgb(29, 23, 10)" opacity="1.0018004" stroke="rgb(0, 0, 0)" stroke-opacity="1.0" stroke-linecap="round" stroke-linejoin="round"/>
    <path d="M 348.3008117675781 411.3081970214844 C 348.979736328125 398.557861328125 351.3047790527344 394.595703125 353.3223571777344 397.2340393066406 C 333.597412109375 398.4104309082031 321.017822265625 395.63623046875 312.9254150390625 403.6609191894531 C 313.4333190917969 404.6329650878906 312.3813781738281 409.08038330078125 312.26727294921875 407.010986328125 C 328.95513916015625 410.9747314453125 341.36669921875 411.27056884765625 348.3008117675781 411.3081970214844" stroke-width="0.0" fill="rgb(194, 204, 205)" opacity="0.9572734" stroke="rgb(0, 0, 0)" stroke-opacity="1.0" stroke-linecap="round" stroke-linejoin="round"/>
    <path d="M 303.28997802734375 -2.010902166366577 C 282.8968505859375 -5.551390171051025 264.5335388183594 -4.075492858886719 248.01744079589844 -1.3102954626083374 C 235.32704162597656 23.2060604095459 225.63119506835938 48.99091720581055 211.7763214111328 74.51515197753906 C 208.29827880859375 76.78624725341797 206.6855926513672 65.10250091552734 199.30361938476562 68.73334503173828 C 199.2720489501953 77.20020294189453 206.06771850585938 81.2985610961914 208.38815307617188 90.09477233886719 C 196.78121948242188 117.93091583251953 186.17832946777344 148.2672119140625 173.565673828125 180.49192810058594 C 183.2903289794922 180.4756622314453 173.80625915527344 183.01832580566406 175.55943298339844 200.13267517089844 C 183.42385864257812 200.6577911376953 188.81150817871094 199.79119873046875 191.55865478515625 197.33184814453125 C 205.05728149414062 197.9430694580078 211.44554138183594 203.98292541503906 221.8775634765625 208.43801879882812 C 231.02772521972656 180.6178741455078 236.56802368164062 152.01699829101562 245.31370544433594 127.09982299804688 C 262.04754638671875 82.62098693847656 279.3680114746094 39.70768737792969 303.28997802734375 -2.010902166366577" stroke-width="0.0" fill="rgb(91, 100, 72)" opacity="0.99420565" stroke="rgb(0, 0, 0)" stroke-opacity="1.0" stroke-linecap="round" stroke-linejoin="round"/>
    <path d="M 142.04177856445312 356.8537292480469 C 136.70950317382812 369.8717346191406 150.7405242919922 374.7252197265625 154.37191772460938 386.12908935546875 C 153.5418701171875 385.60125732421875 170.3370361328125 388.0198669433594 180.8165740966797 384.0968017578125 C 178.99380493164062 369.8072814941406 166.2423858642578 366.0284118652344 166.32333374023438 353.5655212402344 C 166.44461059570312 361.9307556152344 153.1006317138672 361.8567810058594 142.04177856445312 356.8537292480469" stroke-width="0.0" fill="rgb(52, 48, 49)" opacity="0.9890973" stroke="rgb(0, 0, 0)" stroke-opacity="1.0" stroke-linecap="round" stroke-linejoin="round"/>
    <path d="M 3.381781816482544 390.1688537597656 C 0.7856945991516113 397.33251953125 4.284353733062744 404.3505554199219 4.189389705657959 414.237548828125 C 12.79492473602295 415.44415283203125 13.668461799621582 411.7526550292969 12.354240417480469 412.45477294921875 C 10.516541481018066 411.111572265625 7.814675807952881 414.55023193359375 8.029026985168457 411.3005065917969 C 13.043756484985352 409.3966369628906 17.865589141845703 410.7713928222656 26.60597038269043 411.9383239746094 C 28.33786964416504 408.00274658203125 31.77109146118164 405.6750793457031 38.758880615234375 402.3504333496094 C 26.6928653717041 396.9638671875 16.48175048828125 391.9824523925781 3.381781816482544 390.1688537597656" stroke-width="0.0" fill="rgb(148, 145, 142)" opacity="1.0199218" stroke="rgb(0, 0, 0)" stroke-opacity="1.0" stroke-linecap="round" stroke-linejoin="round"/>
    <path d="M 352.4416198730469 358.5514221191406 C 340.6563720703125 393.2397766113281 351.8865966796875 446.4349060058594 345.2668151855469 494.1582946777344 C 347.8877258300781 491.89031982421875 350.662841796875 497.4183349609375 358.3468933105469 499.3074645996094 C 356.8229064941406 450.91259765625 358.3080749511719 403.2490539550781 352.4416198730469 358.5514221191406" stroke-width="0.0" fill="rgb(185, 191, 192)" opacity="0.95689565" stroke="rgb(0, 0, 0)" stroke-opacity="1.0" stroke-linecap="round" stroke-linejoin="round"/>
    <path d="M 308.80462646484375 388.6192932128906 C 309.2901916503906 405.7926330566406 315.0688781738281 420.42327880859375 321.6564636230469 438.6001281738281 C 329.1025390625 426.95245361328125 325.7010498046875 410.752685546875 324.981201171875 391.25262451171875 C 323.3446960449219 388.4121398925781 314.6387023925781 388.5321044921875 308.80462646484375 388.6192932128906" stroke-width="0.0" fill="rgb(185, 197, 194)" opacity="1.0063419" stroke="rgb(0, 0, 0)" stroke-opacity="1.0" stroke-linecap="round" stroke-linejoin="round"/>
    <path d="M 4.092886447906494 426.3993225097656 C 3.860481023788452 444.8190002441406 4.066903114318848 461.4569396972656 2.2318925857543945 478.3943786621094 C 4.20203161239624 482.4027404785156 8.024811744689941 481.2156677246094 13.06010627746582 481.1546325683594 C 13.708552360534668 458.7299499511719 8.344147682189941 445.9736633300781 17.965747833251953 430.872802734375 C 11.198820114135742 429.0108947753906 7.546397686004639 427.9003601074219 4.092886447906494 426.3993225097656" stroke-width="0.0" fill="rgb(18, 17, 16)" opacity="0.9964806" stroke="rgb(0, 0, 0)" stroke-opacity="1.0" stroke-linecap="round" stroke-linejoin="round"/>
    <path d="M 518.5517578125 371.4810485839844 C 467.2373962402344 371.3293151855469 426.546875 371.4993591308594 389.87811279296875 371.7137451171875 C 395.75653076171875 420.10382080078125 392.7201232910156 446.4165954589844 393.0067138671875 498.6527099609375 C 435.7153015136719 498.6237487792969 473.6091613769531 498.5076599121094 517.9055786132812 498.5435485839844 C 518.1843872070312 451.08624267578125 519.2921142578125 408.3428955078125 518.5517578125 371.4810485839844" stroke-width="0.0" fill="rgb(85, 90, 98)" opacity="1.0201325" stroke="rgb(0, 0, 0)" stroke-opacity="1.0" stroke-linecap="round" stroke-linejoin="round"/>
    <path d="M 13.24196720123291 449.1340637207031 C 15.878363609313965 465.7630920410156 10.307883262634277 481.12091064453125 14.768389701843262 490.57550048828125 C 53.90105438232422 489.4907531738281 93.24725341796875 488.9242858886719 126.1571044921875 487.45166015625 C 128.79542541503906 474.73699951171875 127.12525177001953 458.8232116699219 127.26461791992188 448.0268859863281 C 86.20597076416016 446.4760437011719 51.05324172973633 449.1695556640625 13.24196720123291 449.1340637207031" stroke-width="0.0" fill="rgb(147, 154, 162)" opacity="0.9829583" stroke="rgb(0, 0, 0)" stroke-opacity="1.0" stroke-linecap="round" stroke-linejoin="round"/>
    <path d="M 516.0930786132812 340.4337463378906 C 468.9739990234375 341.69146728515625 426.4273376464844 341.58416748046875 386.3675537109375 344.2995910644531 C 383.04998779296875 347.12762451171875 378.4535217285156 351.8548889160156 381.8407287597656 358.0564880371094 C 422.8927307128906 361.2432556152344 466.594970703125 360.0226745605469 514.9791870117188 360.849853515625 C 517.8505249023438 352.6920471191406 517.7461547851562 346.06494140625 516.0930786132812 340.4337463378906" stroke-width="0.0" fill="rgb(224, 227, 231)" opacity="1.1633328" stroke="rgb(0, 0, 0)" stroke-opacity="1.0" stroke-linecap="round" stroke-linejoin="round"/>
    <path d="M 517.0643310546875 357.21380615234375 C 468.6873474121094 360.30169677734375 426.217529296875 358.3704528808594 387.5604248046875 359.6880187988281 C 383.6646728515625 358.3947448730469 379.94073486328125 368.59967041015625 385.1911926269531 371.1747741699219 C 419.6366882324219 375.59661865234375 460.30682373046875 373.1661376953125 515.4653930664062 369.6444091796875 C 518.6348266601562 369.094482421875 518.6849365234375 360.4568176269531 517.0643310546875 357.21380615234375" stroke-width="0.0" fill="rgb(219, 222, 226)" opacity="0.8671158" stroke="rgb(0, 0, 0)" stroke-opacity="1.0" stroke-linecap="round" stroke-linejoin="round"/>
    <path d="M 384.5491027832031 496.7935485839844 C 380.8296813964844 507.9542541503906 382.09332275390625 504.3592529296875 392.1240539550781 507.6354064941406 C 431.3771057128906 508.2896728515625 473.6199035644531 507.78570556640625 519.451171875 506.9723205566406 C 517.69482421875 500.5023498535156 518.1497802734375 496.4329528808594 517.8187255859375 496.2737731933594 C 465.9945373535156 496.4072570800781 417.3756408691406 494.44146728515625 384.5491027832031 496.7935485839844" stroke-width="0.0" fill="rgb(194, 198, 202)" opacity="0.8996681" stroke="rgb(0, 0, 0)" stroke-opacity="1.0" stroke-linecap="round" stroke-linejoin="round"/>
    <path d="M 469.5691833496094 -2.0919787883758545 C 483.44915771484375 16.128826141357422 496.53076171875 31.844024658203125 514.0210571289062 50.94121170043945 C 520.1320190429688 35.9012336730957 518.4776000976562 18.21658706665039 517.8284912109375 -5.27869987487793 C 496.6004333496094 -5.28971004486084 482.2286376953125 -5.982609272003174 469.5691833496094 -2.0919787883758545" stroke-width="0.0" fill="rgb(78, 87, 49)" opacity="1.0010161" stroke="rgb(0, 0, 0)" stroke-opacity="1.0" stroke-linecap="round" stroke-linejoin="round"/>
    <path d="M 516.305419921875 319.9832458496094 C 478.0806579589844 319.6693115234375 443.0715026855469 320.6127624511719 416.6543273925781 321.8024597167969 C 411.7649841308594 323.2028503417969 411.0517883300781 327.7327575683594 410.4385070800781 331.8796691894531 C 448.5994873046875 330.4334716796875 480.9368591308594 330.919677734375 517.334716796875 329.8538818359375 C 518.1452026367188 322.2434997558594 519.1271362304688 318.0303955078125 516.305419921875 319.9832458496094" stroke-width="0.0" fill="rgb(205, 208, 208)" opacity="0.9866697" stroke="rgb(0, 0, 0)" stroke-opacity="1.0" stroke-linecap="round" stroke-linejoin="round"/>
    <path d="M 515.9949951171875 287.8937072753906 C 498.7984924316406 287.6901550292969 491.7183532714844 289.7040710449219 484.77886962890625 293.9197692871094 C 481.60125732421875 297.95745849609375 480.3031921386719 303.4559020996094 484.24530029296875 318.20550537109375 C 489.99237060546875 319.7547302246094 502.35614013671875 318.5670471191406 517.750732421875 319.37921142578125 C 518.3218994140625 312.2137451171875 517.9326171875 302.5790710449219 515.9949951171875 287.8937072753906" stroke-width="0.0" fill="rgb(28, 21, 17)" opacity="0.9665431" stroke="rgb(0, 0, 0)" stroke-opacity="1.0" stroke-linecap="round" stroke-linejoin="round"/>
    <path d="M 444.1072692871094 30.68338966369629 C 436.8071594238281 33.34906768798828 430.32464599609375 38.96084976196289 430.79620361328125 45.38597869873047 C 434.1927185058594 51.25675964355469 438.9134826660156 53.556907653808594 448.23486328125 53.18544006347656 C 454.8910827636719 50.57658386230469 458.16290283203125 46.82847595214844 457.0153503417969 36.24138641357422 C 456.88726806640625 31.307926177978516 451.1889953613281 31.13436508178711 444.1072692871094 30.68338966369629" stroke-width="0.0" fill="rgb(247, 249, 249)" opacity="0.9849839" stroke="rgb(0, 0, 0)" stroke-opacity="1.0" stroke-linecap="round" stroke-linejoin="round"/>
    <path d="M 3.909477472305298 264.44488525390625 C 3.946206569671631 273.25689697265625 2.1033010482788086 288.35699462890625 7.1394453048706055 296.6392517089844 C 44.6399040222168 311.8942565917969 85.091064453125 328.8083190917969 127.07572937011719 345.6997375488281 C 134.08657836914062 331.6230163574219 130.17996215820312 322.31689453125 124.96621704101562 313.1576843261719 C 85.79216003417969 295.2013244628906 45.19466018676758 275.45440673828125 3.909477472305298 264.44488525390625" stroke-width="0.0" fill="rgb(23, 24, 20)" opacity="0.96428823" stroke="rgb(0, 0, 0)" stroke-opacity="1.0" stroke-linecap="round" stroke-linejoin="round"/>
    <path d="M 332.42584228515625 209.69679260253906 C 323.7078857421875 218.670654296875 326.5993957519531 218.0718994140625 331.2120361328125 234.34791564941406 C 331.4749450683594 239.98361206054688 335.3919982910156 245.3688201904297 339.6588439941406 250.27926635742188 C 349.3034973144531 253.07803344726562 358.1832275390625 256.51416015625 364.73406982421875 257.3865966796875 C 379.5214538574219 258.6744689941406 385.5532531738281 256.5757141113281 389.6346435546875 252.05393981933594 C 393.67950439453125 248.34036254882812 395.11688232421875 238.93280029296875 393.6925048828125 227.59356689453125 C 391.7073669433594 218.7372589111328 388.903564453125 210.87901306152344 383.842529296875 206.9639434814453 C 378.40087890625 202.1758575439453 369.4792785644531 202.7998504638672 363.4000244140625 200.48500061035156 C 349.38397216796875 203.59979248046875 336.6239013671875 205.91392517089844 332.42584228515625 209.69679260253906" stroke-width="0.0" fill="rgb(19, 19, 18)" opacity="0.99518263" stroke="rgb(0, 0, 0)" stroke-opacity="1.0" stroke-linecap="round" stroke-linejoin="round"/>
    <path d="M 127.52523803710938 417.7538757324219 C 133.17445373535156 431.01055908203125 133.85740661621094 447.35333251953125 134.45779418945312 464.2149963378906 C 130.074951171875 463.4034118652344 133.34832763671875 465.5687255859375 139.74041748046875 466.14581298828125 C 141.1116180419922 469.4308166503906 134.8901824951172 467.9963684082031 131.4112548828125 466.8287658691406 C 144.9055633544922 469.8320617675781 136.39259338378906 479.1318664550781 143.390380859375 482.9401550292969 C 145.66189575195312 481.8267517089844 142.6864471435547 474.26898193359375 144.86135864257812 473.48974609375 C 153.31170654296875 474.19842529296875 143.26019287109375 476.9443664550781 151.9696807861328 483.56500244140625 C 151.83871459960938 481.2604064941406 151.7008056640625 473.6194763183594 156.48291015625 473.79815673828125 C 156.5992431640625 481.6175842285156 152.96475219726562 491.1175537109375 162.5797882080078 488.05230712890625 C 161.00250244140625 494.52618408203125 153.6734619140625 489.1671142578125 155.97056579589844 494.4561767578125 C 164.1217803955078 493.12432861328125 167.8546600341797 495.5758972167969 163.3594970703125 493.075439453125 C 164.21197509765625 478.6629638671875 165.69775390625 466.74798583984375 160.1102294921875 466.4954833984375 C 161.33924865722656 463.6614685058594 166.5953826904297 467.39447021484375 165.65379333496094 463.23486328125 C 169.69070434570312 450.4554138183594 167.28909301757812 434.63287353515625 169.49732971191406 415.96270751953125 C 156.29290771484375 415.5376892089844 141.83612060546875 415.5978088378906 127.52523803710938 417.7538757324219" stroke-width="0.0" fill="rgb(80, 78, 83)" opacity="0.97837037" stroke="rgb(0, 0, 0)" stroke-opacity="1.0" stroke-linecap="round" stroke-linejoin="round"/>
    <path d="M 137.63064575195312 363.48748779296875 C 109.77628326416016 360.493896484375 88.19519805908203 365.72442626953125 63.99824142456055 368.16729736328125 C 59.730064392089844 370.1616516113281 55.57866287231445 372.558349609375 59.16500473022461 380.6881103515625 C 59.79423522949219 388.6189270019531 72.25239562988281 378.6585693359375 76.55838775634766 388.3934326171875 C 97.98422241210938 388.36871337890625 121.17391204833984 388.04412841796875 140.03204345703125 384.0908508300781 C 140.5204315185547 374.92822265625 139.62850952148438 367.5379333496094 137.63064575195312 363.48748779296875" stroke-width="0.0" fill="rgb(158, 148, 135)" opacity="0.9729406" stroke="rgb(0, 0, 0)" stroke-opacity="1.0" stroke-linecap="round" stroke-linejoin="round"/>
    <path d="M 146.95712280273438 -1.5418893098831177 C 162.05718994140625 16.85614585876465 177.8591766357422 30.574872970581055 197.7855987548828 41.78644561767578 C 206.58949279785156 31.981813430786133 210.88180541992188 14.411177635192871 223.0474853515625 -4.598933696746826 C 199.16636657714844 -7.230319499969482 175.94241333007812 -6.88425350189209 146.95712280273438 -1.5418893098831177" stroke-width="0.0" fill="rgb(54, 55, 48)" opacity="1.0021918" stroke="rgb(0, 0, 0)" stroke-opacity="1.0" stroke-linecap="round" stroke-linejoin="round"/>
    <path d="M 458.2035827636719 268.6597900390625 C 450.54718017578125 272.61553955078125 449.1631164550781 278.57745361328125 444.0624084472656 290.3145751953125 C 449.4364929199219 299.6071472167969 447.6401672363281 303.7845458984375 443.1758117675781 316.2237548828125 C 455.4562683105469 322.15570068359375 464.96575927734375 322.9686584472656 480.10791015625 317.79010009765625 C 480.0065612792969 307.7069396972656 479.24029541015625 292.0090637207031 478.9386291503906 279.9159240722656 C 475.33056640625 268.3441467285156 472.7929992675781 269.4610290527344 458.2035827636719 268.6597900390625" stroke-width="0.0" fill="rgb(180, 193, 159)" opacity="1.0024538" stroke="rgb(0, 0, 0)" stroke-opacity="1.0" stroke-linecap="round" stroke-linejoin="round"/>
    <path d="M 125.22463989257812 499.7009582519531 C 94.74114990234375 501.7102966308594 52.2423210144043 500.44781494140625 14.620599746704102 501.2620544433594 C 13.170907020568848 502.8998107910156 12.142905235290527 506.5351867675781 13.07363510131836 517.5927124023438 C 49.65251541137695 517.6547241210938 87.21461486816406 517.7261352539062 124.38630676269531 517.61474609375 C 127.24234008789062 508.67010498046875 127.75691223144531 506.7057189941406 125.22463989257812 499.7009582519531" stroke-width="0.0" fill="rgb(137, 138, 140)" opacity="1.0027198" stroke="rgb(0, 0, 0)" stroke-opacity="1.0" stroke-linecap="round" stroke-linejoin="round"/>
    <path d="M 519.4851684570312 330.6951904296875 C 483.8135681152344 330.0120849609375 452.74127197265625 331.6490173339844 425.8534240722656 330.9319763183594 C 419.1013488769531 332.652099609375 416.3367614746094 335.1038818359375 420.2023620605469 343.4600830078125 C 449.8020324707031 341.4912109375 481.6366271972656 341.9010314941406 517.542724609375 339.9998474121094 C 516.822265625 336.8701171875 517.092041015625 334.0284118652344 519.4851684570312 330.6951904296875" stroke-width="0.0" fill="rgb(80, 83, 89)" opacity="1.0069245" stroke="rgb(0, 0, 0)" stroke-opacity="1.0" stroke-linecap="round" stroke-linejoin="round"/>
    <path d="M 175.570556640625 494.27984619140625 C 164.23056030273438 495.0905456542969 146.45703125 496.28076171875 132.20970153808594 496.0057678222656 C 127.96434020996094 498.2703857421875 130.8726043701172 505.62353515625 128.33570861816406 517.3876953125 C 145.16717529296875 517.5761108398438 161.54734802246094 517.6073608398438 180.73631286621094 517.7935180664062 C 179.8084716796875 507.08489990234375 181.2107391357422 500.48291015625 175.570556640625 494.27984619140625" stroke-width="0.0" fill="rgb(118, 122, 129)" opacity="1.020451" stroke="rgb(0, 0, 0)" stroke-opacity="1.0" stroke-linecap="round" stroke-linejoin="round"/>
    <path d="M 34.75279998779297 318.2687072753906 C 21.88468360900879 320.49853515625 24.889507293701172 337.77471923828125 20.079418182373047 349.0300598144531 C 20.127952575683594 369.3017272949219 10.690613746643066 389.9604797363281 22.078407287597656 394.3727111816406 C 27.53343963623047 374.5556335449219 28.49530029296875 347.6077575683594 34.75279998779297 318.2687072753906" stroke-width="0.0" fill="rgb(154, 156, 156)" opacity="0.99548274" stroke="rgb(0, 0, 0)" stroke-opacity="1.0" stroke-linecap="round" stroke-linejoin="round"/>
    <path d="M 274.9286804199219 241.80230712890625 C 266.7315673828125 243.0508575439453 266.3068542480469 250.70541381835938 267.2098693847656 263.9870300292969 C 275.48199462890625 271.5279235839844 291.31231689453125 271.1097717285156 301.1359558105469 275.8732604980469 C 308.1416320800781 281.4410705566406 311.4830322265625 286.3319091796875 316.7132568359375 294.0151672363281 C 320.52734375 313.38787841796875 324.6651306152344 339.48187255859375 321.5411682128906 362.96746826171875 C 322.2757263183594 367.5916748046875 325.48211669921875 365.5102233886719 334.5396728515625 366.2846374511719 C 336.5592956542969 364.5163879394531 339.9095458984375 361.6287536621094 341.185302734375 358.7093505859375 C 341.952880859375 322.3536376953125 348.885498046875 289.60821533203125 347.7946472167969 257.3214416503906 C 340.85772705078125 244.1252899169922 325.0508728027344 244.4769744873047 318.70428466796875 239.64161682128906 C 303.87109375 242.6833953857422 288.03387451171875 244.2681121826172 274.9286804199219 241.80230712890625" stroke-width="0.0" fill="rgb(30, 29, 24)" opacity="0.99495757" stroke="rgb(0, 0, 0)" stroke-opacity="1.0" stroke-linecap="round" stroke-linejoin="round"/>
    <path d="M 251.66177368164062 469.5240783691406 C 250.33792114257812 483.0825500488281 251.4277801513672 498.5154113769531 251.02113342285156 518.3001708984375 C 273.37054443359375 517.8084716796875 295.74261474609375 517.8441162109375 325.8561096191406 516.7171630859375 C 310.28631591796875 507.1544494628906 314.19683837890625 498.8259582519531 313.6025390625 482.8040466308594 C 313.5811767578125 480.45318603515625 314.8524475097656 476.8404235839844 317.699951171875 482.6115417480469 C 314.4159240722656 483.5137023925781 311.4602355957031 475.053955078125 308.52490234375 476.90509033203125 C 318.78985595703125 476.6911315917969 320.6816101074219 478.3402099609375 318.70526123046875 469.89019775390625 C 293.1797180175781 469.8472900390625 265.6181640625 466.7426452636719 251.66177368164062 469.5240783691406" stroke-width="0.0" fill="rgb(30, 30, 35)" opacity="1.0110329" stroke="rgb(0, 0, 0)" stroke-opacity="1.0" stroke-linecap="round" stroke-linejoin="round"/>
    <path d="M 342.0624694824219 256.89666748046875 C 344.0980224609375 255.91419982910156 343.00048828125 255.2663116455078 346.08538818359375 258.4798889160156 C 344.9930419921875 292.93768310546875 343.05816650390625 320.72320556640625 342.734375 344.03875732421875 C 355.815185546875 344.29217529296875 367.6260681152344 344.1764831542969 373.47918701171875 343.5702209472656 C 373.31561279296875 312.9566955566406 374.0271301269531 284.63592529296875 370.3883972167969 261.2093505859375 C 368.0462646484375 256.83612060546875 360.7659606933594 256.545654296875 342.0624694824219 256.89666748046875" stroke-width="0.0" fill="rgb(40, 45, 19)" opacity="0.994789" stroke="rgb(0, 0, 0)" stroke-opacity="1.0" stroke-linecap="round" stroke-linejoin="round"/>
    <path d="M 166.5904541015625 221.34848022460938 C 163.16339111328125 226.9639892578125 162.17620849609375 239.3297119140625 166.0838165283203 248.91024780273438 C 184.5780487060547 248.05453491210938 203.25506591796875 247.44007873535156 225.3870086669922 246.02488708496094 C 223.68215942382812 232.9607696533203 216.50213623046875 229.51295471191406 220.37220764160156 216.528564453125 C 215.94781494140625 209.18003845214844 209.5849151611328 205.37667846679688 202.61131286621094 202.0954132080078 C 192.38232421875 199.09580993652344 186.42225646972656 200.7799072265625 181.3308868408203 204.21612548828125 C 173.35986328125 207.13790893554688 169.44944763183594 213.62672424316406 166.5904541015625 221.34848022460938" stroke-width="0.0" fill="rgb(15, 15, 15)" opacity="1.0406611" stroke="rgb(0, 0, 0)" stroke-opacity="1.0" stroke-linecap="round" stroke-linejoin="round"/>
    <path d="M 327.034423828125 206.11923217773438 C 308.59600830078125 208.64483642578125 290.8185729980469 209.27427673339844 273.65924072265625 212.57162475585938 C 274.7535400390625 228.1795196533203 275.6783447265625 228.91554260253906 271.5024719238281 241.8655242919922 C 290.6768493652344 244.13528442382812 306.6974792480469 243.38832092285156 323.7032165527344 241.10772705078125 C 322.60736083984375 230.64292907714844 318.3106689453125 225.53488159179688 318.7415771484375 218.39254760742188 C 318.3696594238281 212.0640106201172 323.06890869140625 211.89834594726562 327.034423828125 206.11923217773438" stroke-width="0.0" fill="rgb(13, 14, 12)" opacity="0.9908474" stroke="rgb(0, 0, 0)" stroke-opacity="1.0" stroke-linecap="round" stroke-linejoin="round"/>
    <path d="M 520.0519409179688 234.86843872070312 C 512.27001953125 242.3236846923828 513.892578125 248.1912841796875 514.8002319335938 251.4277801513672 C 507.48675537109375 255.1150665283203 503.65625 263.56353759765625 503.34405517578125 277.53179931640625 C 491.2317810058594 276.468017578125 479.6377868652344 278.3389892578125 478.5019836425781 277.2012634277344 C 480.4587707519531 290.7462463378906 474.7489929199219 301.0533142089844 482.9075927734375 307.4287414550781 C 482.4673767089844 291.1933898925781 491.11456298828125 287.5144958496094 518.4963989257812 288.0986328125 C 519.4977416992188 277.7203674316406 519.7918701171875 259.40325927734375 520.0519409179688 234.86843872070312" stroke-width="0.0" fill="rgb(72, 55, 44)" opacity="0.985673" stroke="rgb(0, 0, 0)" stroke-opacity="1.0" stroke-linecap="round" stroke-linejoin="round"/>
    <path d="M 518.7036743164062 210.87930297851562 C 498.3567810058594 212.0220489501953 495.8579406738281 218.2170867919922 494.8380432128906 225.1326904296875 C 496.61981201171875 237.58895874023438 501.28192138671875 246.2506103515625 506.23394775390625 255.74444580078125 C 505.7278747558594 262.6605529785156 505.2461853027344 269.2745666503906 506.75811767578125 275.2472229003906 C 507.30914306640625 276.44476318359375 508.2345275878906 278.0680236816406 520.1897583007812 275.5390625 C 521.6094360351562 249.912109375 521.22216796875 225.56358337402344 518.7036743164062 210.87930297851562" stroke-width="0.0" fill="rgb(48, 36, 30)" opacity="1.0144013" stroke="rgb(0, 0, 0)" stroke-opacity="1.0" stroke-linecap="round" stroke-linejoin="round"/>
    <path d="M 227.6385040283203 380.9960632324219 C 223.9124298095703 377.417236328125 224.47128295898438 373.53271484375 223.2295684814453 370.69525146484375 C 208.45156860351562 375.07720947265625 195.5482635498047 376.47979736328125 180.183837890625 373.61004638671875 C 179.27777099609375 379.8679504394531 179.97213745117188 385.7754821777344 183.91162109375 392.34228515625 C 194.77984619140625 383.1942138671875 213.32533264160156 387.06011962890625 227.6385040283203 380.9960632324219" stroke-width="0.0" fill="rgb(120, 20, 23)" opacity="0.98765016" stroke="rgb(0, 0, 0)" stroke-opacity="1.0" stroke-linecap="round" stroke-linejoin="round"/>
    <path d="M 258.8280334472656 -5.702816009521484 C 263.34429931640625 6.724075794219971 269.62701416015625 8.708983421325684 272.5075988769531 16.18094253540039 C 277.3730163574219 18.794748306274414 288.2308044433594 15.059412002563477 289.6544494628906 19.36418914794922 C 293.5540466308594 13.286659240722656 299.1676025390625 9.997013092041016 302.61492919921875 -4.0905280113220215 C 292.1985168457031 -7.2830681800842285 278.7524108886719 -7.2707109451293945 258.8280334472656 -5.702816009521484" stroke-width="0.0" fill="rgb(112, 121, 87)" opacity="0.9992985" stroke="rgb(0, 0, 0)" stroke-opacity="1.0" stroke-linecap="round" stroke-linejoin="round"/>
    <path d="M 6.142230987548828 316.2459716796875 C 0.6409681439399719 324.41802978515625 5.5066046714782715 341.62567138671875 4.9330291748046875 355.8168640136719 C 9.964868545532227 373.5234375 2.592238426208496 392.50640869140625 18.24789810180664 391.98394775390625 C 13.449604988098145 365.5998840332031 11.817538261413574 339.9719543457031 6.142230987548828 316.2459716796875" stroke-width="0.0" fill="rgb(129, 126, 119)" opacity="1.0023179" stroke="rgb(0, 0, 0)" stroke-opacity="1.0" stroke-linecap="round" stroke-linejoin="round"/>
    <path d="M 31.725618362426758 328.80767822265625 C 35.23332595825195 321.4583740234375 33.635009765625 332.9051208496094 36.44184112548828 332.9783630371094 C 37.792938232421875 356.4643249511719 47.55207061767578 383.662109375 40.83424758911133 404.1185302734375 C 33.365779876708984 378.23480224609375 31.941730499267578 352.3704833984375 31.725618362426758 328.80767822265625" stroke-width="0.0" fill="rgb(97, 96, 93)" opacity="0.97460467" stroke="rgb(0, 0, 0)" stroke-opacity="1.0" stroke-linecap="round" stroke-linejoin="round"/>
    <path d="M 223.8833770751953 246.78854370117188 C 198.59320068359375 247.7096710205078 176.1698760986328 246.20094299316406 156.90869140625 249.74603271484375 C 157.17648315429688 275.44866943359375 159.70018005371094 300.8778381347656 162.54660034179688 327.9453430175781 C 168.62667846679688 312.78021240234375 165.9637451171875 291.7936706542969 176.00123596191406 279.7068176269531 C 183.58140563964844 268.9448547363281 206.4665985107422 274.2575988769531 223.16720581054688 262.50830078125 C 224.99237060546875 258.70166015625 226.24200439453125 250.95655822753906 223.8833770751953 246.78854370117188" stroke-width="0.0" fill="rgb(27, 27, 29)" opacity="1.0105343" stroke="rgb(0, 0, 0)" stroke-opacity="1.0" stroke-linecap="round" stroke-linejoin="round"/>
    <path d="M 141.96717834472656 351.20184326171875 C 139.26171875 361.5342712402344 142.1093292236328 375.9442138671875 141.46609497070312 386.40057373046875 C 149.1025390625 386.25396728515625 156.9479522705078 386.28765869140625 164.12013244628906 385.7567138671875 C 162.89541625976562 373.7856140136719 165.6177520751953 364.56158447265625 165.29547119140625 354.5912170410156 C 159.88528442382812 350.53363037109375 149.43385314941406 355.1864318847656 141.96717834472656 351.20184326171875" stroke-width="0.0" fill="rgb(47, 46, 48)" opacity="1.027538" stroke="rgb(0, 0, 0)" stroke-opacity="1.0" stroke-linecap="round" stroke-linejoin="round"/>
    <path d="M 457.5363464355469 156.14285278320312 C 465.8733215332031 184.04254150390625 480.8149108886719 200.4417724609375 493.7659606933594 219.08900451660156 C 498.2342834472656 214.7212371826172 500.56829833984375 211.80323791503906 500.5824279785156 209.9513702392578 C 484.74945068359375 193.64822387695312 477.05194091796875 169.03955078125 457.5363464355469 156.14285278320312" stroke-width="0.0" fill="rgb(55, 63, 15)" opacity="0.98095345" stroke="rgb(0, 0, 0)" stroke-opacity="1.0" stroke-linecap="round" stroke-linejoin="round"/>
    <path d="M 376.2479553222656 -5.140446186065674 C 374.13031005859375 41.88703918457031 369.22027587890625 82.7869873046875 368.5802001953125 124.60224914550781 C 373.1556091308594 140.75442504882812 391.79766845703125 132.58413696289062 395.4166564941406 146.1763916015625 C 407.5311279296875 146.99783325195312 407.0532531738281 147.70101928710938 408.7861633300781 144.49583435058594 C 409.167724609375 91.87738800048828 414.5606384277344 48.93613815307617 416.1786804199219 -1.0347152948379517 C 405.6277770996094 -6.383998394012451 392.5320739746094 -6.773673057556152 376.2479553222656 -5.140446186065674" stroke-width="0.0" fill="rgb(50, 43, 25)" opacity="0.92199415" stroke="rgb(0, 0, 0)" stroke-opacity="1.0" stroke-linecap="round" stroke-linejoin="round"/>
    <path d="M 409.206787109375 195.15924072265625 C 400.7591552734375 194.7285614013672 402.4736022949219 204.44993591308594 393.31048583984375 205.69003295898438 C 397.5069580078125 217.28878784179688 402.4769592285156 229.42543029785156 398.68231201171875 240.1820831298828 C 394.3348388671875 252.7237548828125 384.7675476074219 258.5607604980469 369.5043029785156 263.7517395019531 C 373.8314208984375 288.1922912597656 370.4577941894531 316.6833190917969 372.9849853515625 341.1130676269531 C 385.8809509277344 339.7257080078125 393.5531005859375 345.0629577636719 401.6388854980469 338.76483154296875 C 400.0547790527344 334.9493408203125 405.8643493652344 337.9140930175781 408.80108642578125 333.62957763671875 C 410.1707763671875 330.8293151855469 407.85833740234375 325.5063171386719 410.5436096191406 319.88494873046875 C 411.48345947265625 319.4837951660156 417.3030090332031 321.441162109375 420.24627685546875 317.25531005859375 C 417.67822265625 274.8667907714844 409.3538513183594 237.67752075195312 409.206787109375 195.15924072265625" stroke-width="0.0" fill="rgb(45, 35, 17)" opacity="0.928097" stroke="rgb(0, 0, 0)" stroke-opacity="1.0" stroke-linecap="round" stroke-linejoin="round"/>
    <path d="M 183.17019653320312 469.634033203125 C 179.27870178222656 482.5179748535156 180.03018188476562 497.5885314941406 178.51828002929688 517.599853515625 C 201.5177459716797 517.8289794921875 225.3136444091797 517.88623046875 249.82696533203125 518.006103515625 C 251.7745361328125 494.3812255859375 247.7066192626953 484.7200012207031 248.18600463867188 467.33111572265625 C 223.3844757080078 469.2570495605469 195.8561553955078 466.3341064453125 183.17019653320312 469.634033203125" stroke-width="0.0" fill="rgb(32, 33, 38)" opacity="1.0011272" stroke="rgb(0, 0, 0)" stroke-opacity="1.0" stroke-linecap="round" stroke-linejoin="round"/>
    <path d="M 317.67327880859375 340.1795654296875 C 311.1895446777344 336.61572265625 304.7225341796875 336.42523193359375 296.58026123046875 336.9095764160156 C 273.6061706542969 349.1643981933594 248.09597778320312 358.4233093261719 223.35040283203125 370.80859375 C 235.51348876953125 373.39569091796875 236.8734893798828 373.42437744140625 234.12757873535156 382.8017272949219 C 258.4089660644531 382.1114501953125 278.97125244140625 381.4915771484375 296.75457763671875 378.1198425292969 C 305.51751708984375 375.2082824707031 311.76434326171875 369.3740234375 320.4991760253906 363.63232421875 C 322.3306884765625 352.4822082519531 321.59564208984375 344.46136474609375 317.67327880859375 340.1795654296875" stroke-width="0.0" fill="rgb(189, 138, 112)" opacity="0.8829305" stroke="rgb(0, 0, 0)" stroke-opacity="1.0" stroke-linecap="round" stroke-linejoin="round"/>
    <path d="M 325.45648193359375 412.1159362792969 C 326.263916015625 426.5818786621094 327.9648742675781 434.58758544921875 322.04010009765625 433.4192199707031 C 323.10882568359375 453.5550537109375 334.78076171875 456.0943908691406 330.7244873046875 472.1099548339844 C 332.90142822265625 488.582763671875 324.76092529296875 478.0182189941406 317.2540283203125 487.40625 C 322.2324523925781 494.2228088378906 325.03131103515625 492.352294921875 340.48358154296875 491.36138916015625 C 341.5091857910156 488.1979675292969 344.50872802734375 486.11920166015625 347.4373779296875 483.78607177734375 C 346.8253479003906 460.35595703125 347.2384948730469 435.2721862792969 346.76361083984375 412.0353088378906 C 343.60870361328125 411.93829345703125 332.3041687011719 412.437744140625 325.45648193359375 412.1159362792969" stroke-width="0.0" fill="rgb(70, 73, 80)" opacity="0.9890285" stroke="rgb(0, 0, 0)" stroke-opacity="1.0" stroke-linecap="round" stroke-linejoin="round"/>
    <path d="M 5.220478534698486 296.14117431640625 C 2.953007221221924 301.9988098144531 4.723812580108643 308.3842468261719 8.115805625915527 311.5314025878906 C 37.511558532714844 324.7466125488281 68.69393157958984 334.8359680175781 99.16767883300781 348.33734130859375 C 108.10228729248047 348.3465270996094 123.05501556396484 351.73651123046875 126.7911376953125 348.8114318847656 C 85.73119354248047 330.3220520019531 44.89311599731445 314.11749267578125 5.220478534698486 296.14117431640625" stroke-width="0.0" fill="rgb(101, 101, 97)" opacity="1.0056889" stroke="rgb(0, 0, 0)" stroke-opacity="1.0" stroke-linecap="round" stroke-linejoin="round"/>
    <path d="M 72.94329833984375 438.2774658203125 C 71.12846374511719 442.8091735839844 71.7889175415039 447.8446044921875 76.68121337890625 447.0181884765625 C 86.88214111328125 444.8201599121094 104.65359497070312 446.46527099609375 119.0638198852539 446.2350158691406 C 123.80513000488281 446.70147705078125 124.60211944580078 450.6079406738281 129.47933959960938 452.31134033203125 C 131.2814178466797 453.1255798339844 132.52188110351562 446.5478515625 131.14633178710938 441.00946044921875 C 121.8151626586914 438.1477966308594 113.57786560058594 431.0576477050781 101.67101287841797 431.6776428222656 C 86.2333984375 429.659423828125 82.47470092773438 436.64202880859375 72.94329833984375 438.2774658203125" stroke-width="0.0" fill="rgb(207, 107, 27)" opacity="0.9713817" stroke="rgb(0, 0, 0)" stroke-opacity="1.0" stroke-linecap="round" stroke-linejoin="round"/>
    <path d="M 156.76573181152344 285.3907775878906 C 150.46884155273438 304.38818359375 146.74679565429688 327.22735595703125 148.35879516601562 354.2218933105469 C 160.3697052001953 353.7427978515625 152.8927001953125 338.22802734375 158.72137451171875 323.4017639160156 C 158.98001098632812 310.15374755859375 159.9945831298828 296.3218994140625 156.76573181152344 285.3907775878906" stroke-width="0.0" fill="rgb(103, 104, 101)" opacity="1.0006179" stroke="rgb(0, 0, 0)" stroke-opacity="1.0" stroke-linecap="round" stroke-linejoin="round"/>
    <path d="M 381.7520446777344 342.26800537109375 C 366.142822265625 343.82550048828125 354.8821716308594 345.5093994140625 342.70068359375 340.57000732421875 C 343.89166259765625 349.753173828125 342.6477966308594 352.43389892578125 343.1259765625 357.4178161621094 C 351.6288757324219 358.2098388671875 366.3033752441406 356.2279052734375 377.87542724609375 357.39990234375 C 380.331298828125 356.32232666015625 379.9565734863281 349.348388671875 381.7520446777344 342.26800537109375" stroke-width="0.0" fill="rgb(48, 49, 49)" opacity="1.0190287" stroke="rgb(0, 0, 0)" stroke-opacity="1.0" stroke-linecap="round" stroke-linejoin="round"/>
    <path d="M 392.1849365234375 421.0306701660156 C 391.58087158203125 428.7012023925781 392.6748352050781 438.4973449707031 391.5741882324219 449.4456481933594 C 405.0863952636719 451.01953125 419.8330993652344 450.08837890625 431.83935546875 448.4999084472656 C 431.9258117675781 436.4790344238281 432.8655700683594 423.7713623046875 430.05914306640625 421.6436767578125 C 418.96820068359375 420.13397216796875 404.20068359375 421.5762634277344 392.1849365234375 421.0306701660156" stroke-width="0.0" fill="rgb(164, 177, 184)" opacity="1.0389036" stroke="rgb(0, 0, 0)" stroke-opacity="1.0" stroke-linecap="round" stroke-linejoin="round"/>
    <path d="M 517.49267578125 421.22906494140625 C 500.79168701171875 417.19085693359375 489.02398681640625 420.2623596191406 478.18780517578125 420.310546875 C 473.4396057128906 422.0957946777344 474.3511962890625 434.53240966796875 476.5872802734375 447.9739685058594 C 484.7487487792969 450.2165222167969 497.0013427734375 448.8604431152344 518.3352661132812 449.0001525878906 C 517.1964111328125 436.95050048828125 517.0510864257812 428.1615905761719 517.49267578125 421.22906494140625" stroke-width="0.0" fill="rgb(169, 181, 188)" opacity="1.001861" stroke="rgb(0, 0, 0)" stroke-opacity="1.0" stroke-linecap="round" stroke-linejoin="round"/>
    <path d="M 518.5670776367188 350.5335693359375 C 471.22637939453125 352.6243896484375 422.15234375 349.9688415527344 381.8564147949219 354.0009765625 C 419.2388610839844 362.5403747558594 465.4704895019531 357.8127746582031 511.69427490234375 358.4561767578125 C 519.2064819335938 362.8148193359375 518.2503051757812 354.0254821777344 518.5670776367188 350.5335693359375" stroke-width="0.0" fill="rgb(110, 114, 122)" opacity="0.9835568" stroke="rgb(0, 0, 0)" stroke-opacity="1.0" stroke-linecap="round" stroke-linejoin="round"/>
    <path d="M 154.90335083007812 -4.407098293304443 C 173.624755859375 10.464174270629883 186.14210510253906 22.674060821533203 201.95135498046875 36.016448974609375 C 208.3086395263672 25.082714080810547 214.42694091796875 13.976940155029297 223.6145477294922 -4.975625514984131 C 201.81581115722656 -6.901793003082275 181.77931213378906 -6.666835308074951 154.90335083007812 -4.407098293304443" stroke-width="0.0" fill="rgb(32, 33, 28)" opacity="0.9969809" stroke="rgb(0, 0, 0)" stroke-opacity="1.0" stroke-linecap="round" stroke-linejoin="round"/>
    <path d="M 142.53871154785156 -1.0920495986938477 C 161.6700439453125 16.88885498046875 181.18431091308594 32.29478073120117 200.94418334960938 49.5783805847168 C 206.62916564941406 42.947139739990234 206.94993591308594 37.48162078857422 202.84957885742188 35.72689437866211 C 192.1217803955078 27.565242767333984 181.7685546875 17.824478149414062 168.4078369140625 6.66821813583374 C 158.33657836914062 0.8385215401649475 157.1536407470703 -7.622087478637695 142.53871154785156 -1.0920495986938477" stroke-width="0.0" fill="rgb(74, 76, 68)" opacity="0.97352386" stroke="rgb(0, 0, 0)" stroke-opacity="1.0" stroke-linecap="round" stroke-linejoin="round"/>
    <path d="M 519.2772827148438 296.17047119140625 C 501.5736389160156 297.6879577636719 491.93475341796875 303.25531005859375 480.8837585449219 305.44378662109375 C 481.8288879394531 311.40521240234375 478.85528564453125 317.0343933105469 483.2492370605469 319.4925231933594 C 492.8810729980469 318.9509582519531 502.2630615234375 319.1273193359375 517.3967895507812 319.2467956542969 C 517.379150390625 311.27386474609375 517.4927978515625 304.0637512207031 519.2772827148438 296.17047119140625" stroke-width="0.0" fill="rgb(6, 7, 7)" opacity="1.0015112" stroke="rgb(0, 0, 0)" stroke-opacity="1.0" stroke-linecap="round" stroke-linejoin="round"/>
    <path d="M 322.1313781738281 243.8203582763672 C 302.3699645996094 245.05245971679688 285.4586181640625 244.6620330810547 268.3233947753906 246.6660919189453 C 265.5699768066406 250.1127471923828 265.0450744628906 257.25244140625 267.2137756347656 265.2107238769531 C 280.9039611816406 271.63018798828125 301.91680908203125 274.1319885253906 320.20916748046875 284.8443603515625 C 322.60504150390625 270.1001281738281 321.4515380859375 257.97332763671875 322.1313781738281 243.8203582763672" stroke-width="0.0" fill="rgb(38, 38, 40)" opacity="1.0109397" stroke="rgb(0, 0, 0)" stroke-opacity="1.0" stroke-linecap="round" stroke-linejoin="round"/>
    <path d="M 139.6759796142578 360.6649475097656 C 124.96033477783203 361.3589782714844 107.39594268798828 361.4099426269531 92.6126708984375 363.57525634765625 C 92.71500396728516 366.416259765625 93.50813293457031 380.0780334472656 92.56578063964844 387.2543029785156 C 108.23052978515625 387.8265380859375 123.58856201171875 387.2037658691406 140.75604248046875 385.9544982910156 C 141.12144470214844 378.0692443847656 141.6715850830078 369.4971923828125 139.6759796142578 360.6649475097656" stroke-width="0.0" fill="rgb(149, 159, 167)" opacity="0.90924186" stroke="rgb(0, 0, 0)" stroke-opacity="1.0" stroke-linecap="round" stroke-linejoin="round"/>
    <path d="M 363.7017822265625 285.4783935546875 C 363.0920715332031 286.83770751953125 361.4544372558594 287.4423522949219 363.1893310546875 287.5762023925781 C 361.06170654296875 289.62164306640625 363.0779113769531 294.6175231933594 371.6921691894531 310.17169189453125 C 359.6080322265625 309.48541259765625 357.0962829589844 307.6060485839844 362.1575927734375 307.2947692871094 C 363.2594909667969 306.7558898925781 362.77227783203125 310.6263122558594 354.3470153808594 311.28338623046875 C 348.6537170410156 313.0202331542969 344.230712890625 312.3394775390625 344.9395446777344 315.1830749511719 C 344.71075439453125 331.9645080566406 343.405029296875 342.06756591796875 346.1436767578125 343.9333801269531 C 355.7837219238281 344.21197509765625 367.0632629394531 343.9414978027344 370.9244079589844 343.2983093261719 C 370.4226989746094 322.7605285644531 374.18902587890625 307.2429504394531 368.4999084472656 304.9041748046875 C 364.3429870605469 298.30743408203125 363.0516052246094 294.0483703613281 361.91766357421875 290.61090087890625 C 361.43975830078125 287.8770446777344 362.7618713378906 285.6175842285156 363.7017822265625 285.4783935546875" stroke-width="0.0" fill="rgb(30, 38, 9)" opacity="1.0008596" stroke="rgb(0, 0, 0)" stroke-opacity="1.0" stroke-linecap="round" stroke-linejoin="round"/>
    <path d="M 306.84527587890625 281.62811279296875 C 325.54595947265625 294.4866943359375 316.0721740722656 322.11956787109375 326.1488952636719 349.3229675292969 C 327.33648681640625 358.12969970703125 323.193115234375 361.0399475097656 318.8623046875 366.34454345703125 C 323.567626953125 370.29510498046875 329.3726501464844 369.5686340332031 334.6540832519531 369.21990966796875 C 339.0477600097656 368.3088684082031 340.1897277832031 366.2868957519531 341.955810546875 363.3575134277344 C 342.1914367675781 337.0042419433594 345.1108703613281 313.02301025390625 345.06988525390625 286.95526123046875 C 334.71392822265625 280.8039855957031 325.87603759765625 277.31781005859375 306.84527587890625 281.62811279296875" stroke-width="0.0" fill="rgb(35, 35, 33)" opacity="0.96332157" stroke="rgb(0, 0, 0)" stroke-opacity="1.0" stroke-linecap="round" stroke-linejoin="round"/>
    <path d="M 347.0412292480469 256.0724792480469 C 345.798583984375 272.0963439941406 345.9462890625 296.0100402832031 345.3443603515625 317.1541748046875 C 354.92816162109375 310.92132568359375 364.99578857421875 305.9063720703125 372.89642333984375 310.65972900390625 C 370.9984130859375 304.8852233886719 370.3661193847656 282.2687072753906 370.4789123535156 262.53216552734375 C 363.7253112792969 258.078369140625 358.42791748046875 253.1833038330078 347.0412292480469 256.0724792480469" stroke-width="0.0" fill="rgb(35, 46, 13)" opacity="0.9959862" stroke="rgb(0, 0, 0)" stroke-opacity="1.0" stroke-linecap="round" stroke-linejoin="round"/>
    <path d="M 516.9312744140625 277.3936462402344 C 500.8355712890625 277.5232238769531 487.5110168457031 279.3788757324219 480.6490173339844 280.3184814453125 C 477.88671875 288.27557373046875 472.7117919921875 294.571044921875 484.45050048828125 301.74530029296875 C 495.6010437011719 302.9894714355469 502.6591796875 300.8142395019531 516.67626953125 298.1222839355469 C 517.4852905273438 286.92742919921875 518.9561157226562 279.8467102050781 516.9312744140625 277.3936462402344" stroke-width="0.0" fill="rgb(107, 80, 69)" opacity="0.8983442" stroke="rgb(0, 0, 0)" stroke-opacity="1.0" stroke-linecap="round" stroke-linejoin="round"/>
    <path d="M 466.6021423339844 175.7738800048828 C 473.4715881347656 194.1009521484375 483.19818115234375 206.82127380371094 494.2379150390625 218.9252471923828 C 499.39739990234375 216.19117736816406 501.1419982910156 211.2333984375 499.50762939453125 207.93075561523438 C 491.3509521484375 195.37901306152344 482.7394714355469 183.53221130371094 466.6021423339844 175.7738800048828" stroke-width="0.0" fill="rgb(44, 45, 17)" opacity="0.9929831" stroke="rgb(0, 0, 0)" stroke-opacity="1.0" stroke-linecap="round" stroke-linejoin="round"/>
    <path d="M 395.6271057128906 427.27032470703125 C 395.9501647949219 432.2989501953125 396.2615661621094 441.2300720214844 395.70556640625 443.907470703125 C 408.3554382324219 443.9252014160156 421.7079772949219 445.5032043457031 426.7510070800781 443.49859619140625 C 426.80572509765625 436.6354064941406 427.6426086425781 430.8492431640625 426.67572021484375 427.32818603515625 C 416.5820617675781 426.64385986328125 404.10601806640625 427.34783935546875 395.6271057128906 427.27032470703125" stroke-width="0.0" fill="rgb(138, 153, 164)" opacity="1.0017804" stroke="rgb(0, 0, 0)" stroke-opacity="1.0" stroke-linecap="round" stroke-linejoin="round"/>
    <path d="M 372.4718322753906 317.5870056152344 C 361.66339111328125 319.5998229980469 352.8299255371094 317.274658203125 343.349609375 322.1405944824219 C 345.50018310546875 330.1014404296875 340.98162841796875 337.4301452636719 344.1129150390625 344.17279052734375 C 352.9913635253906 346.7340393066406 362.80828857421875 345.62945556640625 372.1900329589844 343.5108337402344 C 371.83172607421875 334.7814025878906 372.0124816894531 325.5866394042969 372.4718322753906 317.5870056152344" stroke-width="0.0" fill="rgb(44, 55, 13)" opacity="0.99818534" stroke="rgb(0, 0, 0)" stroke-opacity="1.0" stroke-linecap="round" stroke-linejoin="round"/>
  </g>
</svg>
