<?xml version="1.0" ?>
<svg xmlns="http://www.w3.org/2000/svg" version="1.1" width="512" height="512">
  <defs/>
  <g>
    <path d="M -9.117844581604004 -1.086413860321045 C -9.035040855407715 170.45077514648438 -8.901054382324219 340.7564392089844 -8.815956115722656 518.8489379882812 C 169.52915954589844 519.2506713867188 340.2742614746094 519.7301025390625 521.3399047851562 520.5478515625 C 521.412841796875 340.5250244140625 521.2005615234375 169.93844604492188 520.4407348632812 -6.932464122772217 C 340.7727966308594 -6.477543830871582 170.35031127929688 -5.2576704025268555 -9.117844581604004 -1.086413860321045" stroke-width="0.0" fill="rgb(102, 102, 97)" opacity="0.88435733" stroke="rgb(0, 0, 0)" stroke-opacity="1.0" stroke-linecap="round" stroke-linejoin="round"/>
    <path d="M 42.57963180541992 -5.036187171936035 C 24.9359073638916 65.07756805419922 12.878561019897461 131.4989013671875 5.526392936706543 205.5537109375 C 3.312459707260132 225.7129364013672 2.6258745193481445 266.80633544921875 4.128552436828613 291.84716796875 C 8.747797012329102 302.3620910644531 25.505035400390625 299.3557434082031 29.33364486694336 306.4809875488281 C 25.276138305664062 306.9474792480469 11.511383056640625 303.1871643066406 6.049971103668213 300.73504638671875 C 4.755406856536865 325.73822021484375 5.529759407043457 359.60552978515625 5.294540882110596 389.629638671875 C 62.912899017333984 387.569091796875 118.34373474121094 385.3497619628906 170.36367797851562 378.7012939453125 C 163.55813598632812 357.9994201660156 166.83627319335938 342.8944091796875 161.3383331298828 326.3105163574219 C 160.78585815429688 313.4788513183594 164.31117248535156 301.927001953125 167.51571655273438 292.4908142089844 C 171.64700317382812 285.6539611816406 174.64639282226562 277.27178955078125 183.8517303466797 273.01055908203125 C 198.06590270996094 264.7121887207031 217.97727966308594 267.90777587890625 223.2241973876953 252.8008575439453 C 224.5908203125 237.29550170898438 213.25390625 236.4772186279297 218.45970153808594 212.27276611328125 C 226.35662841796875 198.90394592285156 225.73733520507812 192.80392456054688 241.52874755859375 188.10556030273438 C 254.5413818359375 187.64913940429688 255.57635498046875 188.15625 264.02581787109375 192.75160217285156 C 271.1238708496094 194.7125244140625 271.84075927734375 204.82864379882812 278.12481689453125 215.79196166992188 C 282.5673828125 238.1866455078125 266.7702941894531 242.30123901367188 272.20709228515625 263.2890625 C 279.82232666015625 265.770751953125 290.5328063964844 270.8574523925781 299.5002746582031 273.55242919921875 C 307.80645751953125 277.5537109375 313.0196838378906 282.40435791015625 318.0293273925781 292.9311218261719 C 321.8204345703125 312.2903137207031 325.24578857421875 333.5465393066406 323.4793701171875 360.48529052734375 C 339.5504150390625 364.5939636230469 343.34130859375 354.70513916015625 369.9456481933594 355.3304748535156 C 380.9774475097656 339.6037292480469 386.5028381347656 343.04730224609375 403.683837890625 336.8807067871094 C 410.6300048828125 330.6650695800781 403.5614318847656 324.2523193359375 415.63800048828125 321.5024108886719 C 447.6128234863281 319.370361328125 481.4617004394531 320.4130859375 519.3025512695312 317.83502197265625 C 519.4791259765625 211.2678985595703 519.46044921875 105.47928619384766 519.1670532226562 -7.904300689697266 C 351.0628356933594 -7.593539237976074 194.17755126953125 -7.256346225738525 42.57963180541992 -5.036187171936035" stroke-width="0.0" fill="rgb(88, 90, 79)" opacity="0.92886156" stroke="rgb(0, 0, 0)" stroke-opacity="1.0" stroke-linecap="round" stroke-linejoin="round"/>
    <path d="M 247.1890869140625 190.76034545898438 C 233.75559997558594 191.9215087890625 233.7896270751953 195.76626586914062 229.4261932373047 198.2034149169922 C 225.54852294921875 204.0570831298828 223.61940002441406 213.27841186523438 219.0448455810547 221.41139221191406 C 222.95367431640625 234.4655303955078 221.07237243652344 250.38174438476562 223.47897338867188 264.4996337890625 C 207.18905639648438 269.79119873046875 189.54635620117188 272.158203125 181.62338256835938 279.32696533203125 C 173.87155151367188 285.91888427734375 171.06436157226562 293.07293701171875 168.17947387695312 316.2582702636719 C 165.44415283203125 326.9452819824219 172.2206268310547 329.8001403808594 168.50173950195312 346.0149230957031 C 168.9541473388672 373.17071533203125 182.0323028564453 373.3448181152344 181.89569091796875 384.8475036621094 C 180.5035858154297 409.8179931640625 169.29129028320312 428.4621887207031 173.1219482421875 464.77581787109375 C 180.42124938964844 470.7967224121094 179.51353454589844 479.1745300292969 180.796142578125 522.0216064453125 C 223.62583923339844 520.8897705078125 268.82928466796875 520.5744018554688 316.8332824707031 520.5107421875 C 315.0137634277344 486.4012145996094 321.8603210449219 471.43743896484375 319.9949645996094 451.42327880859375 C 316.49420166015625 423.4617614746094 310.10675048828125 399.5262145996094 304.9515686035156 376.0419616699219 C 307.8666076660156 368.8119812011719 321.50390625 368.2845764160156 319.6028137207031 346.8367004394531 C 316.4858093261719 337.9531555175781 318.9910888671875 320.35302734375 315.27099609375 300.2127990722656 C 314.3899230957031 293.21142578125 307.9626770019531 283.9847106933594 302.332763671875 280.3162841796875 C 290.7151794433594 272.4505920410156 276.9429626464844 271.21514892578125 267.5875244140625 266.3323669433594 C 263.49566650390625 240.00082397460938 280.44586181640625 238.0627899169922 273.3488464355469 217.92311096191406 C 271.45172119140625 202.55824279785156 266.817138671875 196.5548858642578 260.5303039550781 193.8580780029297 C 256.6393737792969 191.5399627685547 247.63003540039062 191.5771942138672 247.1890869140625 190.76034545898438" stroke-width="0.0" fill="rgb(47, 42, 40)" opacity="1.0491923" stroke="rgb(0, 0, 0)" stroke-opacity="1.0" stroke-linecap="round" stroke-linejoin="round"/>
    <path d="M 520.723388671875 321.32293701171875 C 479.318359375 319.7125244140625 449.9125671386719 323.47393798828125 424.7441101074219 322.97576904296875 C 404.683837890625 326.0080261230469 416.7229919433594 340.31707763671875 405.17584228515625 342.9527893066406 C 363.38970947265625 342.7497863769531 396.2588195800781 358.8767395019531 363.1731262207031 358.5207214355469 C 341.90936279296875 359.7694091796875 348.0214538574219 370.4110107421875 345.3601379394531 379.9069519042969 C 333.7363586425781 381.7295837402344 320.51495361328125 380.3177795410156 309.1687927246094 382.6603088378906 C 312.84661865234375 406.0910339355469 320.41839599609375 428.26824951171875 322.1107177734375 448.708251953125 C 325.1976318359375 473.04888916015625 319.6651306152344 482.576904296875 321.0278625488281 498.9257507324219 C 342.7452087402344 502.7896728515625 368.60638427734375 506.28460693359375 397.3547058105469 508.6549072265625 C 436.7431335449219 505.4655456542969 471.19482421875 510.0658874511719 520.1930541992188 521.1507568359375 C 520.520751953125 444.8385009765625 521.0811767578125 380.8172302246094 520.723388671875 321.32293701171875" stroke-width="0.0" fill="rgb(142, 144, 144)" opacity="1.0646247" stroke="rgb(0, 0, 0)" stroke-opacity="1.0" stroke-linecap="round" stroke-linejoin="round"/>
    <path d="M 175.45082092285156 416.3882751464844 C 158.95852661132812 414.52734375 139.62664794921875 416.7305603027344 125.8306655883789 415.6026611328125 C 125.6927261352539 428.9560852050781 134.34725952148438 435.8712463378906 130.1788330078125 446.3649597167969 C 94.66426849365234 447.82720947265625 55.34988021850586 447.7375793457031 10.715824127197266 445.1851806640625 C 9.701205253601074 465.93414306640625 9.044720649719238 488.5107727050781 7.500704288482666 519.13623046875 C 65.09107971191406 519.5206298828125 120.68431091308594 521.2448120117188 174.46331787109375 513.7486572265625 C 186.62734985351562 469.5883483886719 158.9932403564453 477.2265930175781 175.45082092285156 416.3882751464844" stroke-width="0.0" fill="rgb(85, 85, 82)" opacity="0.949173" stroke="rgb(0, 0, 0)" stroke-opacity="1.0" stroke-linecap="round" stroke-linejoin="round"/>
    <path d="M 13.808093070983887 447.8910827636719 C 56.47359848022461 447.29876708984375 95.8296127319336 446.65472412109375 129.30999755859375 446.7190856933594 C 132.7025146484375 434.6741638183594 125.18197631835938 425.36505126953125 124.7040023803711 419.2121887207031 C 119.81402587890625 412.5209045410156 113.7499771118164 410.63946533203125 109.45174407958984 406.9530029296875 C 96.64229583740234 404.4562683105469 93.24798583984375 406.05621337890625 85.47151184082031 410.14776611328125 C 78.76177215576172 415.517333984375 75.41647338867188 420.3725280761719 71.68775177001953 428.0997009277344 C 69.29666137695312 418.10601806640625 62.647891998291016 412.8999328613281 58.66743850708008 407.9180908203125 C 53.14304733276367 403.82586669921875 48.493812561035156 402.15167236328125 43.861976623535156 403.1673889160156 C 32.62248611450195 404.11590576171875 28.35333251953125 409.3277893066406 24.663225173950195 413.9538269042969 C 19.95811653137207 423.60205078125 12.523575782775879 431.6890563964844 13.808093070983887 447.8910827636719" stroke-width="0.0" fill="rgb(168, 137, 95)" opacity="0.82189715" stroke="rgb(0, 0, 0)" stroke-opacity="1.0" stroke-linecap="round" stroke-linejoin="round"/>
    <path d="M 3.876199722290039 419.0159606933594 C 2.5664005279541016 443.22216796875 2.7090282440185547 478.2567443847656 1.3054225444793701 518.81640625 C 1.0095356702804565 518.9718627929688 5.4454755783081055 518.2526245117188 7.562432765960693 518.619384765625 C 9.9019136428833 481.7600402832031 8.972756385803223 449.29815673828125 16.109281539916992 425.2973327636719 C 10.2203950881958 424.5104064941406 4.044451713562012 425.11419677734375 3.876199722290039 419.0159606933594" stroke-width="0.0" fill="rgb(69, 71, 60)" opacity="0.9468945" stroke="rgb(0, 0, 0)" stroke-opacity="1.0" stroke-linecap="round" stroke-linejoin="round"/>
    <path d="M 177.66368103027344 402.1170959472656 C 158.9456024169922 401.052734375 137.83811950683594 403.7890930175781 121.08383178710938 402.6218566894531 C 117.13432312011719 410.7724609375 123.10243225097656 413.2664794921875 124.84996032714844 417.078857421875 C 141.31692504882812 415.1165771484375 157.96031188964844 416.08990478515625 170.03021240234375 416.049560546875 C 177.72885131835938 414.7905578613281 177.0554962158203 412.49755859375 177.66368103027344 402.1170959472656" stroke-width="0.0" fill="rgb(233, 234, 236)" opacity="1.0087336" stroke="rgb(0, 0, 0)" stroke-opacity="1.0" stroke-linecap="round" stroke-linejoin="round"/>
    <path d="M 178.2989959716797 386.061279296875 C 134.0845489501953 386.9831237792969 90.08432006835938 388.97772216796875 47.99516677856445 390.1878967285156 C 47.15314865112305 393.6510314941406 43.284908294677734 396.6562194824219 51.157466888427734 398.81817626953125 C 85.39251708984375 400.5460510253906 130.64089965820312 395.59136962890625 175.2114715576172 397.29034423828125 C 180.80862426757812 395.2342224121094 181.83517456054688 393.1229248046875 178.2989959716797 386.061279296875" stroke-width="0.0" fill="rgb(203, 207, 209)" opacity="1.0070542" stroke="rgb(0, 0, 0)" stroke-opacity="1.0" stroke-linecap="round" stroke-linejoin="round"/>
    <path d="M 317.4715270996094 524.468994140625 C 370.8571472167969 525.0963745117188 438.0290222167969 525.8602905273438 529.0655517578125 507.9616394042969 C 454.8680725097656 505.4541015625 386.5157775878906 513.7066650390625 320.8485107421875 498.2365417480469 C 319.8851623535156 500.6343688964844 319.1114501953125 504.38330078125 317.4715270996094 524.468994140625" stroke-width="0.0" fill="rgb(25, 24, 24)" opacity="1.0067661" stroke="rgb(0, 0, 0)" stroke-opacity="1.0" stroke-linecap="round" stroke-linejoin="round"/>
    <path d="M 343.7945556640625 363.42584228515625 C 336.3016357421875 365.9326171875 326.78118896484375 369.0319519042969 317.752685546875 367.3783264160156 C 310.9957275390625 372.0036315917969 303.37860107421875 371.70916748046875 306.5372009277344 381.983154296875 C 321.7746276855469 380.6556091308594 334.4429626464844 381.68646240234375 345.1370849609375 379.7291564941406 C 347.0231628417969 376.81591796875 348.0425720214844 371.69317626953125 343.7945556640625 363.42584228515625" stroke-width="0.0" fill="rgb(119, 119, 119)" opacity="1.1099361" stroke="rgb(0, 0, 0)" stroke-opacity="1.0" stroke-linecap="round" stroke-linejoin="round"/>
    <path d="M 42.492698669433594 -3.0474698543548584 C 33.79768371582031 -6.8399128913879395 29.82532501220703 -5.496816158294678 27.41899299621582 0.34540078043937683 C 19.51569938659668 25.033321380615234 14.744831085205078 52.613521575927734 8.90845775604248 81.30638122558594 C 8.61782455444336 102.36182403564453 4.805000305175781 140.1622314453125 11.106871604919434 148.4060821533203 C 18.779956817626953 96.40371704101562 28.319503784179688 47.50364685058594 42.492698669433594 -3.0474698543548584" stroke-width="0.0" fill="rgb(162, 165, 164)" opacity="0.96769506" stroke="rgb(0, 0, 0)" stroke-opacity="1.0" stroke-linecap="round" stroke-linejoin="round"/>
    <path d="M 1.3216099739074707 390.44671630859375 C 5.240561008453369 407.1923828125 1.4025719165802002 415.53289794921875 4.497632026672363 422.24383544921875 C 4.035885334014893 424.7624206542969 9.489167213439941 425.6105041503906 18.531362533569336 424.63140869140625 C 24.219385147094727 415.81280517578125 26.649633407592773 407.4036865234375 38.94615173339844 402.2320556640625 C 26.3227596282959 396.83770751953125 14.821263313293457 392.57220458984375 1.3216099739074707 390.44671630859375" stroke-width="0.0" fill="rgb(80, 81, 83)" opacity="0.9789077" stroke="rgb(0, 0, 0)" stroke-opacity="1.0" stroke-linecap="round" stroke-linejoin="round"/>
    <path d="M 42.61067581176758 -5.887056827545166 C 27.314470291137695 56.62224578857422 15.531167984008789 115.25608825683594 8.622010231018066 179.61097717285156 C 2.7852916717529297 211.25181579589844 3.3656394481658936 252.23922729492188 4.680605411529541 293.1534729003906 C 44.96151351928711 310.5491943359375 88.54332733154297 327.78125 132.98609924316406 345.8996887207031 C 139.60557556152344 348.3706970214844 140.59454345703125 360.969970703125 148.91888427734375 364.1006164550781 C 161.15664672851562 366.2232971191406 167.5541534423828 363.6460876464844 170.7078399658203 365.21343994140625 C 159.03672790527344 337.75909423828125 161.34754943847656 319.1689453125 159.04779052734375 290.8259582519531 C 156.81259155273438 260.4878845214844 158.80862426757812 220.07452392578125 161.9853515625 195.19476318359375 C 170.54269409179688 158.4335174560547 179.9321746826172 127.06527709960938 187.40328979492188 92.54314422607422 C 198.24871826171875 63.24842071533203 207.57081604003906 27.714738845825195 226.32859802246094 -5.82026481628418 C 167.37619018554688 -9.413691520690918 106.34798431396484 -8.916404724121094 42.61067581176758 -5.887056827545166" stroke-width="0.0" fill="rgb(35, 36, 31)" opacity="0.98598844" stroke="rgb(0, 0, 0)" stroke-opacity="1.0" stroke-linecap="round" stroke-linejoin="round"/>
    <path d="M 416.8304138183594 7.193106174468994 C 411.6720275878906 45.3327522277832 408.6646423339844 90.26038360595703 408.8953857421875 123.448974609375 C 405.70404052734375 197.60379028320312 409.671630859375 255.4576873779297 414.9765930175781 320.3227844238281 C 448.3186950683594 318.51922607421875 462.9072570800781 323.3299255371094 479.13031005859375 314.618896484375 C 480.1344299316406 317.1553955078125 479.0849304199219 297.9051208496094 480.1908874511719 285.73211669921875 C 483.9351806640625 284.3827819824219 487.3873291015625 282.8880310058594 486.2070007324219 279.4910583496094 C 498.5796813964844 277.6633605957031 503.98828125 276.2414855957031 521.8805541992188 282.21051025390625 C 521.6724243164062 207.4257049560547 521.2250366210938 142.60275268554688 514.46630859375 85.9527587890625 C 494.29052734375 65.65672302246094 480.32757568359375 47.285179138183594 462.8960266113281 32.523319244384766 C 463.08624267578125 37.5824089050293 463.7391357421875 45.884552001953125 460.39178466796875 50.19744110107422 C 454.3139953613281 53.29861068725586 440.4755554199219 55.48573303222656 433.4353332519531 49.82511901855469 C 428.68133544921875 47.35941696166992 431.3109436035156 37.432861328125 436.489013671875 34.383201599121094 C 441.3830871582031 28.501787185668945 452.20947265625 31.310758590698242 457.06488037109375 28.251131057739258 C 445.5777282714844 19.898134231567383 432.78582763671875 7.711147308349609 416.8304138183594 7.193106174468994" stroke-width="0.0" fill="rgb(89, 102, 45)" opacity="0.97376716" stroke="rgb(0, 0, 0)" stroke-opacity="1.0" stroke-linecap="round" stroke-linejoin="round"/>
    <path d="M 519.678955078125 338.7401428222656 C 471.8096008300781 343.2173156738281 420.88720703125 340.2702331542969 382.5762634277344 346.0246887207031 C 381.88775634765625 368.24658203125 382.62188720703125 406.900146484375 382.5029602050781 440.93988037109375 C 383.5747985839844 469.3687744140625 381.0406188964844 487.9144592285156 391.2864990234375 505.9097900390625 C 427.6297302246094 508.1016845703125 468.16168212890625 507.3333740234375 498.4122314453125 505.1834411621094 C 503.2935791015625 497.185302734375 500.9696350097656 497.7833557128906 497.71929931640625 498.65325927734375 C 502.4264221191406 495.7492980957031 505.95233154296875 495.1649475097656 518.7855224609375 497.1226501464844 C 518.3825073242188 442.3581848144531 518.6600341796875 389.7559509277344 519.678955078125 338.7401428222656" stroke-width="0.0" fill="rgb(171, 175, 179)" opacity="1.016899" stroke="rgb(0, 0, 0)" stroke-opacity="1.0" stroke-linecap="round" stroke-linejoin="round"/>
    <path d="M 372.54052734375 202.4235382080078 C 341.6649475097656 203.2429962158203 312.61248779296875 210.9303436279297 276.485595703125 210.53277587890625 C 279.79486083984375 244.55433654785156 264.6954040527344 242.89259338378906 270.1852722167969 263.27777099609375 C 280.3017578125 271.1405334472656 303.3791809082031 271.8894348144531 312.92071533203125 285.8106689453125 C 325.9267883300781 308.6355285644531 318.0085754394531 345.131591796875 328.6990051269531 357.4963073730469 C 357.8301696777344 361.2441101074219 373.2059326171875 343.74041748046875 394.4747314453125 337.97760009765625 C 404.3341064453125 333.9043273925781 404.7949523925781 333.076416015625 408.29803466796875 320.76611328125 C 404.0002746582031 293.9754943847656 407.89398193359375 258.88128662109375 400.39508056640625 238.0939483642578 C 396.3515625 221.37289428710938 387.4424133300781 212.334716796875 372.54052734375 202.4235382080078" stroke-width="0.0" fill="rgb(64, 75, 37)" opacity="0.90765786" stroke="rgb(0, 0, 0)" stroke-opacity="1.0" stroke-linecap="round" stroke-linejoin="round"/>
    <path d="M 305.29815673828125 377.67291259765625 C 261.1347961425781 382.2303466796875 219.482666015625 381.9710998535156 182.58265686035156 385.791015625 C 177.84983825683594 413.8505859375 169.5420684814453 439.0588684082031 173.52474975585938 467.9420471191406 C 214.50027465820312 469.82904052734375 267.3020324707031 468.3582458496094 319.8490295410156 469.7925720214844 C 320.8486022949219 436.70001220703125 310.9823913574219 407.1865539550781 305.29815673828125 377.67291259765625" stroke-width="0.0" fill="rgb(29, 29, 34)" opacity="0.950884" stroke="rgb(0, 0, 0)" stroke-opacity="1.0" stroke-linecap="round" stroke-linejoin="round"/>
    <path d="M 172.2269287109375 290.2976379394531 C 169.75270080566406 301.1321105957031 166.87599182128906 310.9016418457031 166.24415588378906 324.49078369140625 C 166.89315795898438 329.7252502441406 168.82298278808594 339.04632568359375 170.5996551513672 336.9944763183594 C 221.31167602539062 340.7730407714844 268.95733642578125 333.63470458984375 318.4912414550781 338.0932922363281 C 317.70849609375 317.50506591796875 317.90869140625 295.43231201171875 309.5948486328125 287.90228271484375 C 303.88812255859375 274.5628967285156 285.5133361816406 273.8876037597656 267.80181884765625 265.9429626464844 C 263.22222900390625 272.8841247558594 252.26123046875 278.5569152832031 233.77066040039062 273.8168640136719 C 225.8075714111328 272.9717712402344 220.874267578125 262.84649658203125 222.04067993164062 264.7188720703125 C 205.5702362060547 269.20758056640625 190.9609832763672 272.3374328613281 186.142822265625 274.6922607421875 C 179.96202087402344 279.1900939941406 175.0270538330078 283.1549377441406 172.2269287109375 290.2976379394531" stroke-width="0.0" fill="rgb(48, 48, 54)" opacity="0.9775654" stroke="rgb(0, 0, 0)" stroke-opacity="1.0" stroke-linecap="round" stroke-linejoin="round"/>
    <path d="M 3.4847841262817383 295.1719055175781 C 2.414442539215088 320.09918212890625 2.515353202819824 365.5073547363281 3.8122923374176025 396.6399230957031 C 50.952945709228516 386.0260314941406 102.31786346435547 388.8999328613281 154.2786407470703 385.5768737792969 C 144.77359008789062 372.661865234375 139.6254425048828 357.8824462890625 130.9444122314453 348.2731018066406 C 88.74618530273438 329.8711853027344 45.805450439453125 313.4308166503906 3.4847841262817383 295.1719055175781" stroke-width="0.0" fill="rgb(70, 71, 74)" opacity="0.7927282" stroke="rgb(0, 0, 0)" stroke-opacity="1.0" stroke-linecap="round" stroke-linejoin="round"/>
    <path d="M 378.0071105957031 -4.699579238891602 C 371.4488830566406 56.821319580078125 374.8344421386719 116.92975616455078 372.8075256347656 180.4994659423828 C 373.041748046875 211.15109252929688 387.3666687011719 208.3665771484375 394.61309814453125 226.0607147216797 C 403.7535705566406 238.09716796875 403.81976318359375 255.72708129882812 404.5320739746094 281.4341125488281 C 407.8714294433594 191.14967346191406 408.726806640625 95.52534484863281 412.45001220703125 7.562788486480713 C 406.3034362792969 -12.888772964477539 394.2837829589844 -9.614285469055176 378.0071105957031 -4.699579238891602" stroke-width="0.0" fill="rgb(43, 34, 21)" opacity="0.996907" stroke="rgb(0, 0, 0)" stroke-opacity="1.0" stroke-linecap="round" stroke-linejoin="round"/>
    <path d="M 14.061772346496582 449.15399169921875 C 11.25124454498291 462.7940368652344 14.555851936340332 488.5217590332031 11.963123321533203 522.943603515625 C 56.81785202026367 522.459228515625 95.7367935180664 522.5953369140625 125.22303009033203 518.8582763671875 C 134.90696716308594 494.323486328125 127.76904296875 472.58929443359375 129.0662841796875 448.2930908203125 C 89.02351379394531 447.1268310546875 53.20956039428711 448.266357421875 14.061772346496582 449.15399169921875" stroke-width="0.0" fill="rgb(91, 94, 97)" opacity="0.86385864" stroke="rgb(0, 0, 0)" stroke-opacity="1.0" stroke-linecap="round" stroke-linejoin="round"/>
    <path d="M 319.9360656738281 345.0643310546875 C 317.8276062011719 339.7625732421875 310.6419677734375 332.9750061035156 295.0007019042969 337.4722595214844 C 245.7323455810547 329.7135009765625 227.42404174804688 344.3329772949219 189.75759887695312 335.17645263671875 C 171.6943359375 335.42523193359375 169.38121032714844 338.47576904296875 168.1047821044922 348.0582580566406 C 168.90679931640625 367.8641662597656 178.44488525390625 372.8993835449219 183.7206268310547 387.8442687988281 C 221.38426208496094 381.19427490234375 265.0596008300781 382.9814758300781 305.0475158691406 376.2900695800781 C 307.6166076660156 373.2168884277344 312.764404296875 367.7220153808594 316.3631591796875 363.8932800292969 C 319.2279052734375 358.3721008300781 321.0176696777344 352.659912109375 319.9360656738281 345.0643310546875" stroke-width="0.0" fill="rgb(195, 143, 121)" opacity="1.021509" stroke="rgb(0, 0, 0)" stroke-opacity="1.0" stroke-linecap="round" stroke-linejoin="round"/>
    <path d="M 177.12831115722656 467.77301025390625 C 180.96607971191406 482.49658203125 179.09854125976562 498.07904052734375 180.64613342285156 519.5670776367188 C 226.68360900878906 520.5697021484375 271.8629455566406 520.4481811523438 317.5882873535156 520.740966796875 C 315.7232971191406 494.9872131347656 318.2940368652344 478.6597900390625 320.8768615722656 469.6744384765625 C 266.20599365234375 468.1882019042969 216.86570739746094 469.567626953125 177.12831115722656 467.77301025390625" stroke-width="0.0" fill="rgb(26, 27, 29)" opacity="1.0022353" stroke="rgb(0, 0, 0)" stroke-opacity="1.0" stroke-linecap="round" stroke-linejoin="round"/>
    <path d="M 125.93782043457031 417.7005310058594 C 134.1492156982422 434.5140380859375 129.46324157714844 468.1636657714844 132.90682983398438 504.1931457519531 C 140.13938903808594 504.60162353515625 140.12246704101562 505.59906005859375 149.36532592773438 518.0807495117188 C 158.0109405517578 520.06689453125 167.38856506347656 518.117431640625 178.40292358398438 510.07855224609375 C 177.69366455078125 500.3913269042969 177.97906494140625 488.2396545410156 178.00543212890625 480.42999267578125 C 176.24038696289062 472.0086669921875 171.6144561767578 469.88641357421875 170.146728515625 462.8726501464844 C 169.3842010498047 450.53973388671875 172.5883026123047 429.9573059082031 175.10768127441406 415.7490539550781 C 158.29107666015625 415.9281311035156 142.1978302001953 416.1765441894531 125.93782043457031 417.7005310058594" stroke-width="0.0" fill="rgb(99, 101, 108)" opacity="0.94879675" stroke="rgb(0, 0, 0)" stroke-opacity="1.0" stroke-linecap="round" stroke-linejoin="round"/>
    <path d="M 220.09347534179688 212.63784790039062 C 212.02081298828125 205.15036010742188 193.19293212890625 202.44253540039062 188.35836791992188 204.70675659179688 C 169.2437286376953 206.1145782470703 170.29725646972656 214.46507263183594 164.02120971679688 221.19125366210938 C 159.10243225097656 249.1180877685547 158.88453674316406 272.6477355957031 162.55050659179688 305.46673583984375 C 170.32644653320312 296.0973205566406 170.60276794433594 281.0487365722656 184.6223907470703 273.4173583984375 C 192.82337951660156 270.0198974609375 211.49105834960938 268.618408203125 221.1304168701172 262.0873718261719 C 230.90858459472656 240.7924041748047 213.13682556152344 233.84030151367188 220.09347534179688 212.63784790039062" stroke-width="0.0" fill="rgb(54, 56, 51)" opacity="0.9137295" stroke="rgb(0, 0, 0)" stroke-opacity="1.0" stroke-linecap="round" stroke-linejoin="round"/>
    <path d="M 244.33937072753906 190.8490753173828 C 235.12344360351562 191.78836059570312 233.57810974121094 195.62001037597656 227.7938690185547 200.06198120117188 C 225.76124572753906 206.36143493652344 223.62290954589844 212.50735473632812 218.257080078125 225.37869262695312 C 223.37820434570312 238.66912841796875 228.72499084472656 246.09014892578125 221.3544158935547 267.3983459472656 C 227.99143981933594 270.7477722167969 236.7078857421875 276.3636169433594 245.13853454589844 276.0671691894531 C 258.4984436035156 274.7198181152344 264.2392272949219 272.0816345214844 267.21771240234375 264.634521484375 C 264.7312316894531 240.24293518066406 277.0452880859375 240.38211059570312 275.12213134765625 224.8599853515625 C 272.15301513671875 210.3371124267578 270.48736572265625 200.9967498779297 263.1822814941406 195.50592041015625 C 257.328369140625 192.15057373046875 252.02784729003906 190.3939208984375 244.33937072753906 190.8490753173828" stroke-width="0.0" fill="rgb(171, 129, 110)" opacity="1.0234224" stroke="rgb(0, 0, 0)" stroke-opacity="1.0" stroke-linecap="round" stroke-linejoin="round"/>
    <path d="M 411.3681335449219 -2.5834481716156006 C 430.72576904296875 8.762134552001953 447.833984375 14.720865249633789 461.1498107910156 28.147197723388672 C 478.1986999511719 42.693241119384766 491.57305908203125 64.13777923583984 520.0611572265625 88.63821411132812 C 522.24462890625 57.55899429321289 519.7376098632812 27.74091148376465 519.1163330078125 -2.1839840412139893 C 479.7113952636719 -4.688422679901123 447.47882080078125 -8.00290298461914 411.3681335449219 -2.5834481716156006" stroke-width="0.0" fill="rgb(17, 16, 11)" opacity="1.0232183" stroke="rgb(0, 0, 0)" stroke-opacity="1.0" stroke-linecap="round" stroke-linejoin="round"/>
    <path d="M 357.8944091796875 388.93804931640625 C 357.9683532714844 386.1280517578125 356.6117248535156 390.0220947265625 355.96368408203125 400.6648254394531 C 355.350341796875 428.3845520019531 357.6385192871094 461.2553405761719 357.4368591308594 493.6377258300781 C 360.65887451171875 495.61785888671875 375.814453125 496.3482971191406 381.6717224121094 494.5442810058594 C 383.38507080078125 457.0109558105469 380.1560363769531 425.4168395996094 381.3412170410156 391.4717102050781 C 381.4530029296875 385.71380615234375 367.18359375 387.66192626953125 357.8944091796875 388.93804931640625" stroke-width="0.0" fill="rgb(74, 76, 77)" opacity="1.0027332" stroke="rgb(0, 0, 0)" stroke-opacity="1.0" stroke-linecap="round" stroke-linejoin="round"/>
    <path d="M 315.1883239746094 414.7494201660156 C 317.42779541015625 435.670654296875 325.9544372558594 460.8719482421875 318.9232177734375 491.2176513671875 C 326.62396240234375 493.4398193359375 337.947021484375 492.0092468261719 346.8971252441406 491.1548767089844 C 349.74102783203125 466.0865478515625 345.36907958984375 438.2806701660156 345.97906494140625 411.5268249511719 C 337.1778259277344 409.9010009765625 324.35089111328125 409.6040954589844 315.1883239746094 414.7494201660156" stroke-width="0.0" fill="rgb(74, 78, 82)" opacity="0.8183464" stroke="rgb(0, 0, 0)" stroke-opacity="1.0" stroke-linecap="round" stroke-linejoin="round"/>
    <path d="M 518.5648193359375 319.61871337890625 C 481.0727844238281 320.10870361328125 446.50592041015625 320.7801513671875 418.98675537109375 321.83502197265625 C 410.8898620605469 322.1214599609375 408.53814697265625 331.63055419921875 409.5513916015625 341.8857421875 C 438.5601806640625 342.47344970703125 476.5005187988281 341.5712585449219 522.946533203125 340.1691589355469 C 519.4658203125 330.54345703125 519.49560546875 322.6570129394531 518.5648193359375 319.61871337890625" stroke-width="0.0" fill="rgb(193, 196, 196)" opacity="1.0658144" stroke="rgb(0, 0, 0)" stroke-opacity="1.0" stroke-linecap="round" stroke-linejoin="round"/>
    <path d="M 14.047250747680664 447.82867431640625 C 24.265745162963867 447.8302917480469 47.247047424316406 448.5357360839844 67.3844223022461 446.67535400390625 C 71.8254623413086 446.81915283203125 72.49256134033203 433.6099548339844 68.77668762207031 423.3504333496094 C 66.27239990234375 417.6400451660156 61.024696350097656 410.73724365234375 55.24164962768555 405.9811096191406 C 52.67548370361328 403.638671875 39.526363372802734 402.4440002441406 33.032737731933594 406.3017578125 C 28.485780715942383 408.2784423828125 25.068370819091797 414.12713623046875 20.68448257446289 419.6729431152344 C 18.690805435180664 426.0964050292969 11.824315071105957 435.4490661621094 14.047250747680664 447.82867431640625" stroke-width="0.0" fill="rgb(240, 192, 49)" opacity="0.8895047" stroke="rgb(0, 0, 0)" stroke-opacity="1.0" stroke-linecap="round" stroke-linejoin="round"/>
    <path d="M 76.63750457763672 419.619140625 C 74.36961364746094 428.7439270019531 70.1717758178711 438.88470458984375 72.768798828125 447.4128112792969 C 92.21897888183594 446.3222961425781 118.80571746826172 447.8686828613281 129.28424072265625 446.46380615234375 C 132.583251953125 435.1968688964844 125.88457489013672 427.3511047363281 124.61502075195312 418.9437561035156 C 119.62911224365234 413.2798156738281 113.1187973022461 410.8387756347656 109.56061553955078 407.052978515625 C 100.81121063232422 404.0742492675781 94.2478256225586 405.97607421875 86.21311950683594 409.70330810546875 C 83.43782806396484 413.11517333984375 79.23887634277344 417.4161376953125 76.63750457763672 419.619140625" stroke-width="0.0" fill="rgb(238, 208, 94)" opacity="0.9537873" stroke="rgb(0, 0, 0)" stroke-opacity="1.0" stroke-linecap="round" stroke-linejoin="round"/>
    <path d="M 517.2869873046875 279.78057861328125 C 495.9210205078125 275.3452453613281 491.5706787109375 282.4148864746094 483.93328857421875 289.317626953125 C 479.853271484375 296.1846008300781 482.0412902832031 311.136962890625 482.8821716308594 318.6060485839844 C 491.278076171875 319.66900634765625 502.2857360839844 318.3607177734375 520.988525390625 319.4255065917969 C 520.9534912109375 301.30426025390625 520.3383178710938 288.56610107421875 517.2869873046875 279.78057861328125" stroke-width="0.0" fill="rgb(55, 39, 34)" opacity="1.0016896" stroke="rgb(0, 0, 0)" stroke-opacity="1.0" stroke-linecap="round" stroke-linejoin="round"/>
    <path d="M 462.60430908203125 34.16973876953125 C 461.8024597167969 30.275569915771484 456.032470703125 27.2446346282959 456.4293212890625 26.46115493774414 C 456.3175964355469 31.105926513671875 446.0200500488281 28.58828353881836 441.73846435546875 31.03706169128418 C 433.84552001953125 33.27090835571289 430.10272216796875 41.95355224609375 431.15521240234375 46.24427032470703 C 431.237060546875 50.93048095703125 441.78619384765625 55.17198181152344 452.8934631347656 52.66278839111328 C 459.6487121582031 52.712005615234375 461.2156066894531 50.69599151611328 461.8509826660156 48.47441482543945 C 461.6337585449219 47.813690185546875 464.5104064941406 42.1276741027832 462.60430908203125 34.16973876953125" stroke-width="0.0" fill="rgb(218, 227, 221)" opacity="0.98266476" stroke="rgb(0, 0, 0)" stroke-opacity="1.0" stroke-linecap="round" stroke-linejoin="round"/>
    <path d="M 289.21533203125 79.08316040039062 C 274.2951965332031 110.93242645263672 263.0578918457031 147.12612915039062 252.5145263671875 182.46136474609375 C 262.69580078125 194.64173889160156 268.945556640625 189.08006286621094 275.2720642089844 208.14141845703125 C 310.35516357421875 209.99134826660156 336.3930358886719 202.70469665527344 364.8762512207031 198.10508728027344 C 368.9435119628906 194.94203186035156 369.1239013671875 185.12205505371094 367.11083984375 171.46826171875 C 367.4685363769531 160.65902709960938 362.4720153808594 151.69593811035156 359.1233215332031 146.21856689453125 C 336.49420166015625 124.08784484863281 316.05914306640625 97.3314208984375 289.21533203125 79.08316040039062" stroke-width="0.0" fill="rgb(69, 85, 36)" opacity="0.9957847" stroke="rgb(0, 0, 0)" stroke-opacity="1.0" stroke-linecap="round" stroke-linejoin="round"/>
    <path d="M 323.334228515625 1.914374828338623 C 315.3377380371094 22.33548355102539 302.4166564941406 42.924659729003906 295.7191162109375 66.89930725097656 C 322.7511291503906 84.72599792480469 341.1520690917969 111.21688079833984 370.13934326171875 135.83798217773438 C 373.5533447265625 99.32579040527344 372.2089538574219 48.063716888427734 373.342041015625 0.8451868295669556 C 354.27886962890625 2.1460626125335693 343.04083251953125 -4.256763935089111 323.334228515625 1.914374828338623" stroke-width="0.0" fill="rgb(103, 113, 62)" opacity="1.0015774" stroke="rgb(0, 0, 0)" stroke-opacity="1.0" stroke-linecap="round" stroke-linejoin="round"/>
    <path d="M 296.15313720703125 66.55860137939453 C 290.93817138671875 69.2413330078125 291.1201171875 77.75605010986328 290.6435852050781 80.32546997070312 C 320.21868896484375 101.8040771484375 343.470947265625 128.78512573242188 366.9932861328125 157.2940216064453 C 372.4888000488281 149.3719024658203 371.446533203125 130.91627502441406 370.5538330078125 134.67396545410156 C 340.4984436035156 110.7556381225586 322.2940673828125 84.119873046875 296.15313720703125 66.55860137939453" stroke-width="0.0" fill="rgb(29, 25, 9)" opacity="0.9857242" stroke="rgb(0, 0, 0)" stroke-opacity="1.0" stroke-linecap="round" stroke-linejoin="round"/>
    <path d="M 348.58837890625 411.4888000488281 C 344.4381408691406 397.5224914550781 346.64190673828125 396.1610412597656 349.5126647949219 396.7831115722656 C 329.69000244140625 400.5034484863281 320.8484802246094 392.5079040527344 323.00738525390625 407.019287109375 C 318.0104675292969 405.6989440917969 315.8951721191406 408.4555969238281 316.106201171875 404.9795227050781 C 323.77227783203125 414.24615478515625 337.01287841796875 411.02557373046875 348.58837890625 411.4888000488281" stroke-width="0.0" fill="rgb(203, 214, 215)" opacity="0.96882117" stroke="rgb(0, 0, 0)" stroke-opacity="1.0" stroke-linecap="round" stroke-linejoin="round"/>
    <path d="M 303.6326904296875 -2.3888442516326904 C 282.9284362792969 -6.189992904663086 264.5221862792969 -4.457313060760498 248.0205841064453 -2.024925708770752 C 235.37649536132812 23.517024993896484 225.53521728515625 49.333927154541016 212.31112670898438 74.47537231445312 C 209.54164123535156 77.06103515625 202.27081298828125 62.47172546386719 200.43649291992188 68.9195327758789 C 196.9993438720703 74.3235855102539 205.33242797851562 79.78148651123047 208.61000061035156 90.67247772216797 C 196.01687622070312 117.85851287841797 186.2137451171875 148.35504150390625 173.58921813964844 180.25039672851562 C 183.70126342773438 182.47842407226562 173.19754028320312 181.17501831054688 176.2204132080078 200.11297607421875 C 183.48548889160156 200.0003204345703 190.79290771484375 200.55528259277344 192.4452667236328 197.2642364501953 C 206.06307983398438 198.86495971679688 211.8607940673828 204.90200805664062 221.45452880859375 207.96932983398438 C 230.19679260253906 180.9611358642578 236.42111206054688 152.6874237060547 245.3274383544922 126.6591567993164 C 262.10931396484375 82.52351379394531 279.2841491699219 40.06888961791992 303.6326904296875 -2.3888442516326904" stroke-width="0.0" fill="rgb(91, 99, 71)" opacity="0.99302226" stroke="rgb(0, 0, 0)" stroke-opacity="1.0" stroke-linecap="round" stroke-linejoin="round"/>
    <path d="M 141.62364196777344 357.7450256347656 C 138.74288940429688 369.7990417480469 150.0323486328125 376.16351318359375 154.22323608398438 386.3360595703125 C 151.23159790039062 384.68756103515625 175.40817260742188 387.9639587402344 179.93528747558594 384.79376220703125 C 180.47784423828125 371.4665832519531 166.5380859375 367.4035949707031 167.49868774414062 356.8028564453125 C 171.98565673828125 366.90191650390625 149.49237060546875 367.74713134765625 141.62364196777344 357.7450256347656" stroke-width="0.0" fill="rgb(50, 47, 48)" opacity="0.9932308" stroke="rgb(0, 0, 0)" stroke-opacity="1.0" stroke-linecap="round" stroke-linejoin="round"/>
    <path d="M 4.6727166175842285 390.408935546875 C -0.7801624536514282 396.2452697753906 4.7942705154418945 402.1285705566406 3.605957269668579 413.4501037597656 C 21.999523162841797 416.2012634277344 22.74629020690918 412.09710693359375 13.112314224243164 413.0572204589844 C 9.406771659851074 409.357421875 8.906718254089355 416.37396240234375 7.837027072906494 411.25372314453125 C 14.043268203735352 410.0948181152344 17.250320434570312 410.6956787109375 25.803068161010742 411.9522399902344 C 28.68184471130371 408.170654296875 31.476444244384766 405.4535827636719 38.27629089355469 401.98919677734375 C 26.705158233642578 397.3368835449219 14.918807029724121 391.57672119140625 4.6727166175842285 390.408935546875" stroke-width="0.0" fill="rgb(147, 145, 141)" opacity="1.0443728" stroke="rgb(0, 0, 0)" stroke-opacity="1.0" stroke-linecap="round" stroke-linejoin="round"/>
    <path d="M 354.75 364.6559143066406 C 338.93133544921875 380.16949462890625 351.7139587402344 447.5341796875 345.4701843261719 494.7664794921875 C 346.2407531738281 491.36279296875 350.826171875 499.5464782714844 358.5627746582031 495.8871765136719 C 355.6324157714844 451.3475341796875 357.4698486328125 396.87237548828125 354.75 364.6559143066406" stroke-width="0.0" fill="rgb(190, 196, 197)" opacity="0.90548867" stroke="rgb(0, 0, 0)" stroke-opacity="1.0" stroke-linecap="round" stroke-linejoin="round"/>
    <path d="M 308.4590759277344 388.3994140625 C 307.26715087890625 403.983154296875 316.5977478027344 418.9044189453125 320.9270324707031 434.48626708984375 C 330.3412170410156 432.9947509765625 324.3085632324219 415.6753234863281 325.46514892578125 392.62652587890625 C 323.7217102050781 386.9527282714844 315.368408203125 390.0098571777344 308.4590759277344 388.3994140625" stroke-width="0.0" fill="rgb(185, 197, 194)" opacity="1.0118742" stroke="rgb(0, 0, 0)" stroke-opacity="1.0" stroke-linecap="round" stroke-linejoin="round"/>
    <path d="M 3.581408739089966 426.3715515136719 C 4.489358425140381 445.5415954589844 3.831514835357666 460.3946533203125 2.7697560787200928 478.4047546386719 C 4.007795333862305 482.7699890136719 9.75921630859375 479.7677917480469 12.839144706726074 482.27117919921875 C 15.278185844421387 454.8996276855469 8.607097625732422 450.83367919921875 16.53994369506836 430.6275329589844 C 10.907242774963379 429.02667236328125 7.807880878448486 427.8584899902344 3.581408739089966 426.3715515136719" stroke-width="0.0" fill="rgb(17, 16, 14)" opacity="0.99550426" stroke="rgb(0, 0, 0)" stroke-opacity="1.0" stroke-linecap="round" stroke-linejoin="round"/>
    <path d="M 520.6842651367188 369.1233215332031 C 468.36334228515625 372.6231384277344 427.49835205078125 375.58819580078125 389.2413635253906 373.13446044921875 C 396.9073181152344 437.52484130859375 391.3259582519531 447.7112121582031 393.5980529785156 496.5103759765625 C 433.2579040527344 496.7786865234375 473.6754150390625 495.4969787597656 519.6970825195312 496.00787353515625 C 519.58203125 450.8829345703125 520.9666137695312 407.9159240722656 520.6842651367188 369.1233215332031" stroke-width="0.0" fill="rgb(85, 89, 98)" opacity="1.0172695" stroke="rgb(0, 0, 0)" stroke-opacity="1.0" stroke-linecap="round" stroke-linejoin="round"/>
    <path d="M 13.376856803894043 449.27789306640625 C 15.612092018127441 468.32183837890625 10.005788803100586 483.5381774902344 15.169024467468262 490.0959777832031 C 53.70951843261719 490.0558776855469 95.20083618164062 488.962158203125 125.36387634277344 488.45880126953125 C 129.24803161621094 477.3179931640625 126.0645523071289 455.87957763671875 127.31927490234375 447.99273681640625 C 83.85411834716797 447.28411865234375 49.80079650878906 448.59991455078125 13.376856803894043 449.27789306640625" stroke-width="0.0" fill="rgb(147, 154, 162)" opacity="0.9712294" stroke="rgb(0, 0, 0)" stroke-opacity="1.0" stroke-linecap="round" stroke-linejoin="round"/>
    <path d="M 516.6430053710938 340.0348815917969 C 469.6452331542969 343.1263427734375 426.24542236328125 341.2920227050781 386.9599609375 344.2518005371094 C 382.82269287109375 346.34521484375 378.5865783691406 351.4625549316406 382.50726318359375 358.63189697265625 C 422.87481689453125 360.3525390625 465.8839416503906 356.54766845703125 516.1903686523438 360.0166320800781 C 518.6746215820312 352.767822265625 518.549560546875 346.06121826171875 516.6430053710938 340.0348815917969" stroke-width="0.0" fill="rgb(217, 220, 223)" opacity="1.1438739" stroke="rgb(0, 0, 0)" stroke-opacity="1.0" stroke-linecap="round" stroke-linejoin="round"/>
    <path d="M 518.9303588867188 357.3712158203125 C 467.0281677246094 360.7332458496094 426.9254150390625 357.20135498046875 389.65277099609375 360.5193786621094 C 382.6671447753906 355.8247985839844 379.85992431640625 370.85064697265625 385.0804443359375 372.5273742675781 C 415.1747131347656 374.3214416503906 461.8487243652344 372.4375 521.0780639648438 373.7774658203125 C 520.0185546875 369.2460632324219 520.0769653320312 360.3488464355469 518.9303588867188 357.3712158203125" stroke-width="0.0" fill="rgb(255, 258, 261)" opacity="0.82324696" stroke="rgb(0, 0, 0)" stroke-opacity="1.0" stroke-linecap="round" stroke-linejoin="round"/>
    <path d="M 384.211181640625 498.0540771484375 C 379.7307434082031 505.5849914550781 383.1122131347656 506.1728515625 396.4130554199219 507.86260986328125 C 430.8794860839844 508.5173645019531 475.00958251953125 508.2513427734375 521.5715942382812 506.41571044921875 C 518.6141967773438 500.3324279785156 519.1599731445312 496.1473693847656 523.2108154296875 496.9049072265625 C 468.4358215332031 497.7219543457031 414.52386474609375 495.2500915527344 384.211181640625 498.0540771484375" stroke-width="0.0" fill="rgb(202, 208, 212)" opacity="0.7500405" stroke="rgb(0, 0, 0)" stroke-opacity="1.0" stroke-linecap="round" stroke-linejoin="round"/>
    <path d="M 469.3008117675781 -2.2742202281951904 C 483.2725524902344 16.210988998413086 496.4031982421875 32.0350341796875 514.3644409179688 51.53864288330078 C 521.8480224609375 36.388248443603516 519.7899780273438 18.40984344482422 518.994873046875 -6.152806758880615 C 496.5478210449219 -6.231476306915283 482.10308837890625 -7.078949928283691 469.3008117675781 -2.2742202281951904" stroke-width="0.0" fill="rgb(78, 87, 49)" opacity="1.0011201" stroke="rgb(0, 0, 0)" stroke-opacity="1.0" stroke-linecap="round" stroke-linejoin="round"/>
    <path d="M 517.0450439453125 320.0639343261719 C 480.0247497558594 319.6110534667969 442.5669860839844 320.79046630859375 417.759765625 321.5270690917969 C 410.8407897949219 322.67352294921875 411.1243591308594 327.06683349609375 410.3698425292969 332.1599426269531 C 447.8468322753906 329.6203308105469 482.4332275390625 331.0994873046875 519.43408203125 329.3832702636719 C 519.1738891601562 321.9590148925781 520.4041137695312 317.57476806640625 517.0450439453125 320.0639343261719" stroke-width="0.0" fill="rgb(210, 214, 214)" opacity="0.9769217" stroke="rgb(0, 0, 0)" stroke-opacity="1.0" stroke-linecap="round" stroke-linejoin="round"/>
    <path d="M 517.1552124023438 290.2364196777344 C 499.14892578125 289.5380859375 491.573974609375 289.66546630859375 486.87152099609375 294.1450500488281 C 484.3773498535156 297.6377868652344 479.8991394042969 305.1502380371094 484.48828125 318.3722839355469 C 487.019775390625 319.9177551269531 502.5675964355469 318.30743408203125 519.5919189453125 319.29437255859375 C 519.4944458007812 312.40753173828125 518.9751586914062 302.689208984375 517.1552124023438 290.2364196777344" stroke-width="0.0" fill="rgb(18, 11, 7)" opacity="0.9743634" stroke="rgb(0, 0, 0)" stroke-opacity="1.0" stroke-linecap="round" stroke-linejoin="round"/>
    <path d="M 443.59161376953125 31.16616439819336 C 437.0712585449219 32.515045166015625 429.2393798828125 39.77812576293945 430.97125244140625 45.45991897583008 C 432.74176025390625 51.86172866821289 437.5773620605469 53.34185028076172 447.98028564453125 53.02878952026367 C 454.958251953125 50.796302795410156 458.61590576171875 46.820613861083984 457.0341796875 36.25471115112305 C 453.86492919921875 30.069320678710938 452.50531005859375 30.850801467895508 443.59161376953125 31.16616439819336" stroke-width="0.0" fill="rgb(248, 249, 249)" opacity="0.97953546" stroke="rgb(0, 0, 0)" stroke-opacity="1.0" stroke-linecap="round" stroke-linejoin="round"/>
    <path d="M 3.3295929431915283 263.91510009765625 C 4.774106502532959 272.4503173828125 2.0500636100769043 291.3146667480469 7.5570173263549805 296.92327880859375 C 43.9510383605957 312.5593566894531 85.11845397949219 328.8247985839844 126.06163787841797 345.67742919921875 C 134.42626953125 333.9806213378906 129.75424194335938 322.0716552734375 125.36164855957031 312.9776916503906 C 87.18016815185547 295.35394287109375 43.3505859375 275.80975341796875 3.3295929431915283 263.91510009765625" stroke-width="0.0" fill="rgb(22, 23, 19)" opacity="0.9549306" stroke="rgb(0, 0, 0)" stroke-opacity="1.0" stroke-linecap="round" stroke-linejoin="round"/>
    <path d="M 331.9493103027344 210.3015899658203 C 323.5550842285156 222.64053344726562 327.1577453613281 215.41519165039062 330.131103515625 232.67996215820312 C 333.12628173828125 239.93299865722656 334.65924072265625 246.45254516601562 339.6761779785156 248.44729614257812 C 346.77593994140625 254.32000732421875 358.5291442871094 255.7113494873047 367.35247802734375 257.14166259765625 C 373.6983642578125 259.8431701660156 386.9266052246094 255.38037109375 389.0577087402344 252.92007446289062 C 393.6134033203125 248.21920776367188 395.014892578125 239.73768615722656 393.6738586425781 228.04380798339844 C 391.54193115234375 218.4989776611328 389.0237731933594 210.7506561279297 384.56329345703125 206.7003936767578 C 376.8984680175781 202.0517578125 369.4658203125 202.31813049316406 364.2823181152344 200.60321044921875 C 348.9297180175781 203.22218322753906 336.93670654296875 205.7158660888672 331.9493103027344 210.3015899658203" stroke-width="0.0" fill="rgb(18, 18, 18)" opacity="1.0030737" stroke="rgb(0, 0, 0)" stroke-opacity="1.0" stroke-linecap="round" stroke-linejoin="round"/>
    <path d="M 128.4969482421875 417.54351806640625 C 132.0673065185547 430.9208679199219 134.1910858154297 447.1329345703125 134.35623168945312 465.66558837890625 C 130.78536987304688 463.6244201660156 133.49229431152344 465.4436950683594 139.4763946533203 466.241943359375 C 141.96463012695312 468.3354797363281 136.57460021972656 467.14788818359375 132.63478088378906 469.8468322753906 C 145.73995971679688 469.1083679199219 133.78887939453125 478.54290771484375 142.8842010498047 481.8506164550781 C 145.18853759765625 484.139892578125 143.20855712890625 474.3044738769531 145.15765380859375 473.4560241699219 C 155.1576690673828 475.3194885253906 141.82196044921875 483.3081970214844 151.5679931640625 482.35467529296875 C 154.16146850585938 480.076416015625 149.57614135742188 471.2010803222656 157.1942138671875 474.47418212890625 C 153.9886016845703 477.529296875 153.9197235107422 491.8517150878906 162.06658935546875 488.9482116699219 C 158.78062438964844 495.11810302734375 153.79656982421875 489.2316589355469 156.365234375 494.38287353515625 C 164.83633422851562 492.9247741699219 169.85569763183594 496.6969299316406 164.2796630859375 494.33282470703125 C 164.00234985351562 476.552490234375 166.4943084716797 464.1593933105469 160.84823608398438 468.5247802734375 C 158.76754760742188 460.7842712402344 166.01693725585938 468.1105041503906 165.65057373046875 463.35882568359375 C 170.35861206054688 444.9346923828125 166.5067596435547 435.1142272949219 169.6450958251953 416.7901611328125 C 157.9363555908203 414.0419616699219 142.53135681152344 417.10394287109375 128.4969482421875 417.54351806640625" stroke-width="0.0" fill="rgb(80, 78, 83)" opacity="0.9732715" stroke="rgb(0, 0, 0)" stroke-opacity="1.0" stroke-linecap="round" stroke-linejoin="round"/>
    <path d="M 137.9868927001953 363.4376220703125 C 110.21842193603516 360.73486328125 88.73905944824219 365.650634765625 64.827880859375 367.9913330078125 C 59.409698486328125 369.0342712402344 56.56702423095703 371.6600036621094 58.65766143798828 379.9674377441406 C 58.73984146118164 389.5259704589844 78.37488555908203 378.726806640625 74.1562728881836 388.5716247558594 C 97.80355072021484 387.177978515625 125.63206481933594 388.95928955078125 140.055908203125 383.14605712890625 C 140.75367736816406 375.568359375 139.32044982910156 366.46630859375 137.9868927001953 363.4376220703125" stroke-width="0.0" fill="rgb(155, 148, 139)" opacity="0.97782874" stroke="rgb(0, 0, 0)" stroke-opacity="1.0" stroke-linecap="round" stroke-linejoin="round"/>
    <path d="M 146.91636657714844 -1.7855024337768555 C 162.37509155273438 15.763124465942383 178.61163330078125 31.429147720336914 197.37847900390625 40.94170379638672 C 206.5819854736328 33.70834732055664 210.23440551757812 13.912534713745117 224.0495147705078 -5.815063953399658 C 199.37525939941406 -8.686812400817871 176.10910034179688 -8.127045631408691 146.91636657714844 -1.7855024337768555" stroke-width="0.0" fill="rgb(54, 56, 49)" opacity="1.0027455" stroke="rgb(0, 0, 0)" stroke-opacity="1.0" stroke-linecap="round" stroke-linejoin="round"/>
    <path d="M 458.3153076171875 268.54345703125 C 449.087646484375 273.9492492675781 449.0020446777344 277.17962646484375 444.26995849609375 291.2114562988281 C 450.3056945800781 306.67559814453125 446.1520690917969 299.1431579589844 444.593505859375 317.9887390136719 C 455.2043151855469 320.62933349609375 466.97613525390625 323.1308898925781 479.8727722167969 318.2613525390625 C 481.78582763671875 307.4049377441406 477.4870910644531 291.9050598144531 479.4613952636719 279.5052490234375 C 472.1827087402344 267.4745788574219 477.32110595703125 270.1518249511719 458.3153076171875 268.54345703125" stroke-width="0.0" fill="rgb(180, 193, 159)" opacity="0.99801624" stroke="rgb(0, 0, 0)" stroke-opacity="1.0" stroke-linecap="round" stroke-linejoin="round"/>
    <path d="M 125.30016326904297 500.2955627441406 C 98.00057983398438 501.6133728027344 51.481075286865234 500.3660888671875 15.454911231994629 501.21728515625 C 12.495048522949219 502.2117004394531 11.9657564163208 507.1493835449219 13.717944145202637 519.1385498046875 C 49.62150955200195 518.8800048828125 87.19490814208984 518.9369506835938 122.93875122070312 518.5692138671875 C 127.22551727294922 509.52130126953125 127.64337921142578 507.78363037109375 125.30016326904297 500.2955627441406" stroke-width="0.0" fill="rgb(137, 137, 139)" opacity="1.00068" stroke="rgb(0, 0, 0)" stroke-opacity="1.0" stroke-linecap="round" stroke-linejoin="round"/>
    <path d="M 521.9384155273438 329.9200744628906 C 485.71844482421875 329.6246032714844 452.8927001953125 330.84808349609375 427.32049560546875 330.9346008300781 C 419.624755859375 332.201171875 417.45428466796875 334.3690490722656 419.6507873535156 343.34710693359375 C 449.7388916015625 341.66375732421875 481.7577209472656 342.6672668457031 519.4441528320312 340.0050048828125 C 517.6893310546875 336.8938903808594 517.974853515625 334.09967041015625 521.9384155273438 329.9200744628906" stroke-width="0.0" fill="rgb(82, 86, 92)" opacity="1.0079697" stroke="rgb(0, 0, 0)" stroke-opacity="1.0" stroke-linecap="round" stroke-linejoin="round"/>
    <path d="M 176.36341857910156 494.869384765625 C 164.2482452392578 494.58642578125 147.23382568359375 497.1156005859375 134.0156707763672 495.5732421875 C 126.49268341064453 496.835693359375 131.96275329589844 504.17828369140625 127.37852478027344 518.2523193359375 C 145.16026306152344 518.5579833984375 161.5424346923828 518.5957641601562 179.2108612060547 519.0925903320312 C 178.1753692626953 507.8409729003906 181.70880126953125 497.336669921875 176.36341857910156 494.869384765625" stroke-width="0.0" fill="rgb(120, 124, 131)" opacity="1.0008224" stroke="rgb(0, 0, 0)" stroke-opacity="1.0" stroke-linecap="round" stroke-linejoin="round"/>
    <path d="M 33.6953010559082 322.99713134765625 C 21.683210372924805 319.94189453125 26.223522186279297 336.1726989746094 19.5685977935791 350.31964111328125 C 19.095500946044922 372.23614501953125 11.393953323364258 399.46856689453125 23.234073638916016 392.02545166015625 C 26.828805923461914 377.44427490234375 28.464706420898438 349.1381530761719 33.6953010559082 322.99713134765625" stroke-width="0.0" fill="rgb(155, 157, 157)" opacity="0.9984397" stroke="rgb(0, 0, 0)" stroke-opacity="1.0" stroke-linecap="round" stroke-linejoin="round"/>
    <path d="M 274.72723388671875 242.37213134765625 C 266.7828674316406 242.909912109375 266.2749328613281 251.18875122070312 267.1889953613281 263.85394287109375 C 275.9825134277344 271.7388610839844 291.96881103515625 271.2790222167969 301.87872314453125 276.6750793457031 C 310.0071716308594 280.1101989746094 311.354736328125 285.8338623046875 317.2547302246094 296.0997314453125 C 320.4595031738281 312.6701354980469 325.75018310546875 341.8935241699219 320.71575927734375 360.6133117675781 C 322.3210144042969 368.4160461425781 324.054931640625 365.5388488769531 333.0327453613281 366.6689758300781 C 334.9566650390625 362.62744140625 341.92364501953125 362.7697448730469 342.3747863769531 356.03375244140625 C 340.265625 320.5273742675781 347.04791259765625 288.4884948730469 346.8378601074219 260.45635986328125 C 344.2200012207031 244.12213134765625 325.9327087402344 247.25025939941406 325.27032470703125 240.9279022216797 C 305.7937927246094 243.83468627929688 287.6455078125 243.02212524414062 274.72723388671875 242.37213134765625" stroke-width="0.0" fill="rgb(31, 30, 24)" opacity="1.0133812" stroke="rgb(0, 0, 0)" stroke-opacity="1.0" stroke-linecap="round" stroke-linejoin="round"/>
    <path d="M 251.88816833496094 471.0247802734375 C 249.3450164794922 479.96044921875 252.45188903808594 498.5583801269531 250.3024444580078 519.9065551757812 C 273.3720397949219 518.8716430664062 295.74566650390625 518.9457397460938 327.71856689453125 515.4259643554688 C 308.03607177734375 505.2712097167969 316.142822265625 504.58172607421875 312.84808349609375 483.7940979003906 C 313.33349609375 480.32745361328125 316.6196594238281 476.0426025390625 318.0728759765625 484.2237854003906 C 316.5035095214844 484.4709167480469 311.18701171875 476.3810119628906 310.2335510253906 478.06036376953125 C 319.9819030761719 475.9059753417969 319.49139404296875 480.0822448730469 319.20989990234375 469.8908386230469 C 293.4890441894531 470.32623291015625 260.8479919433594 466.01763916015625 251.88816833496094 471.0247802734375" stroke-width="0.0" fill="rgb(30, 30, 35)" opacity="1.0161158" stroke="rgb(0, 0, 0)" stroke-opacity="1.0" stroke-linecap="round" stroke-linejoin="round"/>
    <path d="M 339.75347900390625 256.1097412109375 C 344.9465026855469 255.74658203125 346.2323303222656 254.95684814453125 346.59735107421875 256.5364074707031 C 345.4624328613281 292.5806884765625 342.4564208984375 321.1042175292969 342.7512512207031 343.06854248046875 C 355.62933349609375 344.99267578125 368.3038635253906 344.1170959472656 374.09112548828125 343.0135498046875 C 372.0295715332031 314.5954284667969 371.9809875488281 285.2523498535156 370.39923095703125 261.73382568359375 C 368.22674560546875 257.8171691894531 358.89642333984375 255.30419921875 339.75347900390625 256.1097412109375" stroke-width="0.0" fill="rgb(39, 43, 21)" opacity="0.99475145" stroke="rgb(0, 0, 0)" stroke-opacity="1.0" stroke-linecap="round" stroke-linejoin="round"/>
    <path d="M 166.48814392089844 220.47242736816406 C 163.02740478515625 228.5753936767578 162.837646484375 238.450439453125 165.69667053222656 249.45742797851562 C 182.2991943359375 245.74192810058594 202.1913299560547 247.9532012939453 223.79522705078125 245.72027587890625 C 226.8036651611328 235.5948028564453 216.5841522216797 232.44210815429688 219.99075317382812 216.7146453857422 C 217.1517333984375 208.65139770507812 209.4150390625 205.93453979492188 204.04733276367188 201.9942626953125 C 191.052734375 199.23822021484375 187.56263732910156 201.27825927734375 181.87681579589844 203.67694091796875 C 173.9132843017578 206.60763549804688 169.7815399169922 214.16456604003906 166.48814392089844 220.47242736816406" stroke-width="0.0" fill="rgb(16, 17, 16)" opacity="1.0639938" stroke="rgb(0, 0, 0)" stroke-opacity="1.0" stroke-linecap="round" stroke-linejoin="round"/>
    <path d="M 326.28411865234375 206.44033813476562 C 308.15185546875 208.6163787841797 288.921630859375 209.56854248046875 273.4249267578125 212.6826629638672 C 275.1048583984375 233.76271057128906 276.7372131347656 222.8931121826172 270.946044921875 242.84112548828125 C 290.7069396972656 243.15859985351562 308.5936279296875 244.5716552734375 323.2505798339844 241.36669921875 C 323.8897705078125 231.0138702392578 318.8880920410156 229.4425506591797 318.5204772949219 217.9737548828125 C 320.3572998046875 208.13331604003906 326.8298034667969 212.3425750732422 326.28411865234375 206.44033813476562" stroke-width="0.0" fill="rgb(14, 14, 13)" opacity="0.99369985" stroke="rgb(0, 0, 0)" stroke-opacity="1.0" stroke-linecap="round" stroke-linejoin="round"/>
    <path d="M 521.7228393554688 234.48184204101562 C 513.7120971679688 242.9219207763672 515.8900756835938 248.9820098876953 522.0675048828125 259.4521789550781 C 509.20941162109375 261.9183349609375 501.760986328125 263.3494567871094 504.11383056640625 277.317626953125 C 490.3642883300781 275.04058837890625 479.66558837890625 280.08245849609375 478.3457336425781 276.8745422363281 C 480.90338134765625 288.3501892089844 475.07025146484375 301.0389404296875 483.0914306640625 307.25262451171875 C 485.28900146484375 290.8697814941406 491.9732971191406 287.8327331542969 520.0426635742188 291.0284423828125 C 520.8602294921875 277.72259521484375 521.3157348632812 259.4060363769531 521.7228393554688 234.48184204101562" stroke-width="0.0" fill="rgb(62, 52, 44)" opacity="1.0072557" stroke="rgb(0, 0, 0)" stroke-opacity="1.0" stroke-linecap="round" stroke-linejoin="round"/>
    <path d="M 520.8460083007812 211.45411682128906 C 499.54656982421875 210.2962646484375 496.0470886230469 219.4408721923828 494.5323791503906 225.17298889160156 C 496.4678955078125 236.638916015625 501.6007995605469 246.16392517089844 505.8634338378906 255.1232452392578 C 506.71905517578125 263.171142578125 502.1781921386719 270.1456604003906 506.4857482910156 276.3726501464844 C 506.7095642089844 276.1839599609375 508.0100402832031 277.5998840332031 521.2356567382812 275.23828125 C 523.6697387695312 249.5336456298828 523.7904052734375 224.8009490966797 520.8460083007812 211.45411682128906" stroke-width="0.0" fill="rgb(49, 38, 30)" opacity="1.0440238" stroke="rgb(0, 0, 0)" stroke-opacity="1.0" stroke-linecap="round" stroke-linejoin="round"/>
    <path d="M 228.1973419189453 381.1600036621094 C 223.20872497558594 378.1838073730469 225.7744903564453 373.6151428222656 222.27752685546875 370.3415832519531 C 208.98594665527344 375.9589538574219 196.18804931640625 375.6168518066406 180.20742797851562 373.6606140136719 C 179.1285858154297 379.28179931640625 179.8285369873047 386.3648376464844 183.7949981689453 392.1789245605469 C 196.3262481689453 383.1466369628906 213.2294158935547 387.1530456542969 228.1973419189453 381.1600036621094" stroke-width="0.0" fill="rgb(118, 17, 21)" opacity="0.9771821" stroke="rgb(0, 0, 0)" stroke-opacity="1.0" stroke-linecap="round" stroke-linejoin="round"/>
    <path d="M 260.111572265625 -6.997277736663818 C 262.313720703125 7.8989458084106445 270.1073913574219 8.510483741760254 271.9798889160156 15.581816673278809 C 277.75274658203125 20.192989349365234 289.4864501953125 13.284055709838867 288.6764831542969 20.11103630065918 C 294.06390380859375 14.025803565979004 299.0150146484375 9.39264965057373 303.1294250488281 -4.538598537445068 C 292.517578125 -8.730305671691895 278.99072265625 -8.53453540802002 260.111572265625 -6.997277736663818" stroke-width="0.0" fill="rgb(112, 122, 87)" opacity="0.99953216" stroke="rgb(0, 0, 0)" stroke-opacity="1.0" stroke-linecap="round" stroke-linejoin="round"/>
    <path d="M 6.543785572052002 316.82537841796875 C 1.195357322692871 324.7211608886719 5.146600246429443 343.246337890625 4.785306930541992 353.0982360839844 C 10.359697341918945 381.1397705078125 5.296395778656006 400.1231689453125 16.60167121887207 390.2265319824219 C 15.112448692321777 365.0354919433594 11.588102340698242 340.6964111328125 6.543785572052002 316.82537841796875" stroke-width="0.0" fill="rgb(124, 119, 112)" opacity="0.97734994" stroke="rgb(0, 0, 0)" stroke-opacity="1.0" stroke-linecap="round" stroke-linejoin="round"/>
    <path d="M 31.821691513061523 330.2028503417969 C 37.62947082519531 320.6378173828125 35.03852081298828 329.9089660644531 36.79118728637695 334.12841796875 C 38.61381912231445 353.83258056640625 47.9907112121582 391.3579406738281 39.78171157836914 402.1124267578125 C 33.72847366333008 381.56988525390625 31.528656005859375 349.4590759277344 31.821691513061523 330.2028503417969" stroke-width="0.0" fill="rgb(97, 96, 93)" opacity="0.9653809" stroke="rgb(0, 0, 0)" stroke-opacity="1.0" stroke-linecap="round" stroke-linejoin="round"/>
    <path d="M 223.60704040527344 246.7420196533203 C 199.0920867919922 246.6456298828125 175.10772705078125 245.8539581298828 156.486328125 249.58987426757812 C 157.09292602539062 273.9053955078125 159.68812561035156 301.1716613769531 162.22018432617188 327.34893798828125 C 168.30670166015625 313.9169616699219 165.66233825683594 292.15777587890625 175.9069366455078 279.6199645996094 C 186.27908325195312 269.09368896484375 202.99134826660156 274.95526123046875 223.11692810058594 262.7410888671875 C 224.78778076171875 259.12542724609375 227.1856231689453 248.76402282714844 223.60704040527344 246.7420196533203" stroke-width="0.0" fill="rgb(28, 28, 29)" opacity="1.0354856" stroke="rgb(0, 0, 0)" stroke-opacity="1.0" stroke-linecap="round" stroke-linejoin="round"/>
    <path d="M 141.66534423828125 351.31787109375 C 139.6233673095703 359.67767333984375 141.83624267578125 379.131103515625 142.09857177734375 386.15594482421875 C 148.02182006835938 385.7940673828125 157.59161376953125 386.6562194824219 164.40045166015625 385.9631652832031 C 163.28958129882812 371.6491394042969 165.83055114746094 364.2459716796875 165.01068115234375 354.2389221191406 C 159.7357635498047 350.99505615234375 150.21560668945312 354.3582763671875 141.66534423828125 351.31787109375" stroke-width="0.0" fill="rgb(48, 47, 49)" opacity="1.0670387" stroke="rgb(0, 0, 0)" stroke-opacity="1.0" stroke-linecap="round" stroke-linejoin="round"/>
    <path d="M 457.22821044921875 157.2611083984375 C 464.6175537109375 182.88453674316406 480.9760437011719 200.63751220703125 493.55010986328125 219.80458068847656 C 498.32159423828125 213.98904418945312 500.51812744140625 214.11399841308594 500.27032470703125 209.06729125976562 C 484.37188720703125 192.72312927246094 474.2651062011719 165.58450317382812 457.22821044921875 157.2611083984375" stroke-width="0.0" fill="rgb(57, 67, 15)" opacity="0.9767493" stroke="rgb(0, 0, 0)" stroke-opacity="1.0" stroke-linecap="round" stroke-linejoin="round"/>
    <path d="M 375.86199951171875 -7.6457366943359375 C 374.5307312011719 43.53347396850586 368.6802978515625 85.20777130126953 368.41876220703125 123.58232879638672 C 373.08447265625 141.7882843017578 389.58935546875 131.6070556640625 395.4783935546875 145.3984832763672 C 407.45697021484375 149.84640502929688 409.2181396484375 146.38580322265625 408.4242858886719 145.41685485839844 C 409.66339111328125 91.36991882324219 414.0858459472656 47.92137145996094 416.4859313964844 -1.1970901489257812 C 405.79302978515625 -7.497563362121582 392.6650695800781 -7.7918291091918945 375.86199951171875 -7.6457366943359375" stroke-width="0.0" fill="rgb(50, 43, 25)" opacity="0.8599571" stroke="rgb(0, 0, 0)" stroke-opacity="1.0" stroke-linecap="round" stroke-linejoin="round"/>
    <path d="M 408.7473449707031 196.01980590820312 C 399.5854797363281 193.23037719726562 404.9897155761719 205.23141479492188 393.2413635253906 205.16836547851562 C 396.0471496582031 217.70896911621094 402.29254150390625 227.46266174316406 399.3497009277344 240.8373565673828 C 391.2958068847656 252.63870239257812 385.7359619140625 260.2023620605469 371.7151184082031 261.2048645019531 C 372.6695861816406 286.1824645996094 370.3516845703125 316.1869201660156 373.6018981933594 341.67694091796875 C 384.3955078125 339.4661560058594 389.9822692871094 345.7013244628906 401.3287048339844 338.9491882324219 C 400.4345703125 333.79791259765625 405.80419921875 338.3451232910156 408.5653076171875 334.0289306640625 C 410.1194763183594 330.7991027832031 407.7569885253906 323.6267395019531 410.4429626464844 319.89019775390625 C 411.7808837890625 319.5392150878906 416.56158447265625 322.1204528808594 420.5642395019531 316.8492126464844 C 417.83050537109375 274.1207580566406 409.60882568359375 235.86920166015625 408.7473449707031 196.01980590820312" stroke-width="0.0" fill="rgb(45, 34, 17)" opacity="0.904688" stroke="rgb(0, 0, 0)" stroke-opacity="1.0" stroke-linecap="round" stroke-linejoin="round"/>
    <path d="M 182.5052490234375 470.68853759765625 C 178.9025115966797 479.19720458984375 181.4044189453125 498.3310241699219 177.4910888671875 518.9598999023438 C 201.47958374023438 519.0390014648438 225.29852294921875 519.0910034179688 248.77056884765625 519.4263305664062 C 253.30638122558594 487.96044921875 246.5382537841797 484.07684326171875 248.14230346679688 467.68133544921875 C 220.01742553710938 469.7273864746094 190.7598114013672 465.1536865234375 182.5052490234375 470.68853759765625" stroke-width="0.0" fill="rgb(32, 33, 39)" opacity="1.00569" stroke="rgb(0, 0, 0)" stroke-opacity="1.0" stroke-linecap="round" stroke-linejoin="round"/>
    <path d="M 317.108642578125 338.92852783203125 C 309.86407470703125 337.3223571777344 304.6285400390625 336.2607116699219 295.8149108886719 337.2333984375 C 273.0431213378906 349.2503967285156 247.36972045898438 358.7701416015625 223.02041625976562 371.1368408203125 C 235.765380859375 372.95806884765625 233.98745727539062 371.961669921875 235.60870361328125 383.0044250488281 C 258.3026123046875 381.8091735839844 280.1583251953125 381.739501953125 296.5167541503906 377.7164611816406 C 304.62335205078125 376.0255432128906 310.90087890625 368.88958740234375 319.24554443359375 365.0676574707031 C 323.2402038574219 354.3518981933594 321.590087890625 343.8841552734375 317.108642578125 338.92852783203125" stroke-width="0.0" fill="rgb(188, 137, 109)" opacity="0.72807974" stroke="rgb(0, 0, 0)" stroke-opacity="1.0" stroke-linecap="round" stroke-linejoin="round"/>
    <path d="M 325.933837890625 412.2996520996094 C 326.55303955078125 424.6168212890625 327.5711975097656 434.1864013671875 321.6885986328125 434.2757263183594 C 326.1537170410156 457.2592468261719 335.43511962890625 459.11846923828125 330.8971862792969 471.96319580078125 C 333.2068176269531 491.13800048828125 320.9671630859375 477.4091491699219 317.5080871582031 487.2940979003906 C 319.4164733886719 495.32061767578125 323.323486328125 491.4577331542969 340.86614990234375 491.5706787109375 C 341.0257873535156 488.08514404296875 345.1944274902344 486.6504821777344 347.062744140625 483.3176574707031 C 346.914306640625 461.0047912597656 347.44085693359375 434.7119140625 346.7823181152344 412.9345703125 C 347.202392578125 411.0985412597656 331.2576599121094 412.1167907714844 325.933837890625 412.2996520996094" stroke-width="0.0" fill="rgb(69, 73, 79)" opacity="0.9866788" stroke="rgb(0, 0, 0)" stroke-opacity="1.0" stroke-linecap="round" stroke-linejoin="round"/>
    <path d="M 5.579938888549805 296.5367431640625 C 2.3834547996520996 300.3849792480469 4.6143646240234375 309.4905090332031 7.259101390838623 311.64495849609375 C 38.45573425292969 324.293212890625 69.68712615966797 335.09918212890625 99.0908203125 348.5893859863281 C 109.62238311767578 348.8035583496094 125.30223846435547 352.0579528808594 125.424072265625 347.890625 C 85.81560516357422 330.391845703125 44.98625946044922 314.0884704589844 5.579938888549805 296.5367431640625" stroke-width="0.0" fill="rgb(101, 101, 97)" opacity="0.9993171" stroke="rgb(0, 0, 0)" stroke-opacity="1.0" stroke-linecap="round" stroke-linejoin="round"/>
    <path d="M 72.98918914794922 437.23040771484375 C 70.3395004272461 441.2647399902344 71.8232192993164 447.449462890625 78.39778137207031 447.18902587890625 C 82.4820556640625 444.7484130859375 104.44389343261719 446.8978271484375 118.41064453125 445.9266662597656 C 123.48799133300781 448.4544372558594 126.3809585571289 450.06695556640625 128.5625762939453 452.0458068847656 C 130.76353454589844 454.2784729003906 132.9335479736328 444.65313720703125 130.98036193847656 440.1424560546875 C 122.99842834472656 439.5758972167969 115.87325286865234 430.4520568847656 97.69638061523438 432.0859680175781 C 82.53535461425781 430.6598205566406 81.92903900146484 437.58111572265625 72.98918914794922 437.23040771484375" stroke-width="0.0" fill="rgb(208, 105, 25)" opacity="0.93409854" stroke="rgb(0, 0, 0)" stroke-opacity="1.0" stroke-linecap="round" stroke-linejoin="round"/>
    <path d="M 156.1490020751953 283.9141540527344 C 150.33816528320312 301.53448486328125 147.6165008544922 330.1595458984375 147.3267364501953 350.79412841796875 C 162.9156951904297 355.5141906738281 151.4613800048828 344.7462158203125 159.10128784179688 322.0757751464844 C 157.5560302734375 310.3973693847656 161.5619354248047 295.8772888183594 156.1490020751953 283.9141540527344" stroke-width="0.0" fill="rgb(106, 107, 104)" opacity="1.0112883" stroke="rgb(0, 0, 0)" stroke-opacity="1.0" stroke-linecap="round" stroke-linejoin="round"/>
    <path d="M 381.6163635253906 342.6785583496094 C 365.8223571777344 342.8373107910156 352.9183654785156 346.186279296875 342.3386535644531 341.49578857421875 C 344.10455322265625 351.85101318359375 342.56390380859375 352.15576171875 342.994384765625 356.8541564941406 C 347.9883117675781 358.8875427246094 362.72711181640625 356.2312927246094 376.9510498046875 357.14324951171875 C 381.7452697753906 356.1069641113281 379.5831298828125 351.88360595703125 381.6163635253906 342.6785583496094" stroke-width="0.0" fill="rgb(49, 50, 49)" opacity="1.0309196" stroke="rgb(0, 0, 0)" stroke-opacity="1.0" stroke-linecap="round" stroke-linejoin="round"/>
    <path d="M 392.7853698730469 420.7301330566406 C 390.7060546875 426.7834777832031 392.75970458984375 438.34674072265625 391.9027099609375 448.7979431152344 C 403.0711364746094 451.1881103515625 420.9219055175781 450.1650390625 431.4901428222656 448.33258056640625 C 432.1219177246094 435.9556579589844 433.5132751464844 421.8556823730469 428.9964294433594 421.71759033203125 C 422.638916015625 419.82623291015625 404.11669921875 421.7755126953125 392.7853698730469 420.7301330566406" stroke-width="0.0" fill="rgb(163, 176, 184)" opacity="1.0474406" stroke="rgb(0, 0, 0)" stroke-opacity="1.0" stroke-linecap="round" stroke-linejoin="round"/>
    <path d="M 519.1220703125 421.77001953125 C 499.633056640625 416.4190979003906 491.3880615234375 421.5395202636719 479.1136474609375 419.71246337890625 C 472.96392822265625 421.599853515625 474.496337890625 434.44415283203125 476.71563720703125 446.9716796875 C 482.62786865234375 450.9126281738281 494.6903991699219 447.74359130859375 519.5610961914062 449.6094055175781 C 518.3124389648438 436.8536682128906 518.1474609375 428.10272216796875 519.1220703125 421.77001953125" stroke-width="0.0" fill="rgb(169, 181, 188)" opacity="0.9998411" stroke="rgb(0, 0, 0)" stroke-opacity="1.0" stroke-linecap="round" stroke-linejoin="round"/>
    <path d="M 523.2284545898438 350.19189453125 C 471.04840087890625 352.05596923828125 414.9366149902344 350.34527587890625 386.2308044433594 353.6548767089844 C 407.3954772949219 364.54376220703125 464.383056640625 356.7550048828125 516.193359375 358.5296630859375 C 520.0054931640625 365.5414733886719 519.0369262695312 354.44549560546875 523.2284545898438 350.19189453125" stroke-width="0.0" fill="rgb(108, 113, 122)" opacity="0.98542905" stroke="rgb(0, 0, 0)" stroke-opacity="1.0" stroke-linecap="round" stroke-linejoin="round"/>
    <path d="M 153.7110595703125 -3.926945924758911 C 173.23724365234375 10.707283973693848 185.11541748046875 23.750274658203125 203.2362823486328 35.309471130371094 C 208.60606384277344 25.802322387695312 214.339599609375 13.618549346923828 223.75965881347656 -6.150849342346191 C 201.92501831054688 -8.076993942260742 181.865234375 -7.662703514099121 153.7110595703125 -3.926945924758911" stroke-width="0.0" fill="rgb(33, 33, 29)" opacity="0.99081755" stroke="rgb(0, 0, 0)" stroke-opacity="1.0" stroke-linecap="round" stroke-linejoin="round"/>
    <path d="M 141.8815460205078 -1.032111644744873 C 161.68910217285156 16.65530014038086 180.6240997314453 33.08604431152344 201.7654571533203 48.39091873168945 C 206.20762634277344 42.853397369384766 205.88922119140625 38.26173782348633 202.80966186523438 35.968894958496094 C 192.3734130859375 27.297401428222656 181.1735076904297 18.330087661743164 167.79283142089844 6.284850120544434 C 156.3280487060547 0.65032958984375 157.35105895996094 -9.786309242248535 141.8815460205078 -1.032111644744873" stroke-width="0.0" fill="rgb(75, 77, 69)" opacity="0.9370948" stroke="rgb(0, 0, 0)" stroke-opacity="1.0" stroke-linecap="round" stroke-linejoin="round"/>
    <path d="M 521.2279663085938 295.8682556152344 C 501.114013671875 295.5589599609375 491.3078308105469 303.38739013671875 480.9920959472656 305.6048278808594 C 481.68798828125 309.81756591796875 478.3691101074219 316.9595642089844 484.00787353515625 320.0032043457031 C 493.0124816894531 318.5903625488281 501.9755554199219 319.1143798828125 518.51318359375 319.0955810546875 C 518.4157104492188 311.3011474609375 518.537353515625 304.09735107421875 521.2279663085938 295.8682556152344" stroke-width="0.0" fill="rgb(8, 7, 7)" opacity="1.0004655" stroke="rgb(0, 0, 0)" stroke-opacity="1.0" stroke-linecap="round" stroke-linejoin="round"/>
    <path d="M 321.9364929199219 244.16146850585938 C 303.9577941894531 245.17591857910156 286.6910705566406 244.2274169921875 268.382080078125 246.71517944335938 C 267.0928039550781 249.84339904785156 263.5401306152344 261.7901611328125 267.3659362792969 264.8108215332031 C 279.7405090332031 274.1373291015625 303.1156921386719 270.09271240234375 318.58740234375 288.5770568847656 C 323.84930419921875 270.8953552246094 321.699462890625 258.8929748535156 321.9364929199219 244.16146850585938" stroke-width="0.0" fill="rgb(38, 38, 39)" opacity="1.0250401" stroke="rgb(0, 0, 0)" stroke-opacity="1.0" stroke-linecap="round" stroke-linejoin="round"/>
    <path d="M 139.99822998046875 360.28875732421875 C 125.35929870605469 361.4469299316406 106.7562026977539 361.68316650390625 92.93927764892578 363.50592041015625 C 91.64088439941406 365.0420227050781 94.68013000488281 380.226806640625 91.70266723632812 386.57586669921875 C 108.09525299072266 387.89019775390625 123.42526245117188 386.92462158203125 141.17030334472656 385.5804138183594 C 140.54771423339844 377.25555419921875 141.92532348632812 368.4515075683594 139.99822998046875 360.28875732421875" stroke-width="0.0" fill="rgb(149, 160, 170)" opacity="0.8095924" stroke="rgb(0, 0, 0)" stroke-opacity="1.0" stroke-linecap="round" stroke-linejoin="round"/>
    <path d="M 363.420654296875 286.0438232421875 C 363.05682373046875 286.9583740234375 361.89166259765625 288.12115478515625 363.1097412109375 287.7614440917969 C 360.7740783691406 289.3953552246094 361.9060363769531 295.4953918457031 372.2161865234375 304.8319396972656 C 363.18475341796875 304.7639465332031 360.4233703613281 304.0921936035156 364.5494689941406 303.46722412109375 C 362.678466796875 302.8748474121094 360.5252380371094 306.09381103515625 349.1461181640625 306.2032775878906 C 347.4507141113281 312.5515441894531 345.17864990234375 310.4265441894531 345.30633544921875 311.53125 C 344.8411865234375 332.77581787109375 343.8033447265625 343.810791015625 346.60028076171875 344.7648010253906 C 355.11962890625 344.327880859375 370.4873352050781 345.4066467285156 372.46044921875 341.2424011230469 C 368.7199401855469 321.8031921386719 375.4808654785156 306.4853820800781 370.13323974609375 304.2579650878906 C 365.4184265136719 297.703369140625 362.420166015625 294.20684814453125 361.938720703125 290.9925231933594 C 361.45587158203125 288.38372802734375 363.1612243652344 286.3228759765625 363.420654296875 286.0438232421875" stroke-width="0.0" fill="rgb(20, 27, 6)" opacity="1.0046022" stroke="rgb(0, 0, 0)" stroke-opacity="1.0" stroke-linecap="round" stroke-linejoin="round"/>
    <path d="M 307.96380615234375 281.7118835449219 C 324.06146240234375 296.62298583984375 317.1653137207031 317.50726318359375 326.0374450683594 352.13018798828125 C 327.38348388671875 360.2655334472656 322.99468994140625 359.4048156738281 319.80706787109375 366.655029296875 C 322.24005126953125 370.3541259765625 328.4468688964844 368.2254333496094 333.4598388671875 369.6514892578125 C 341.4273376464844 367.2808837890625 340.6262512207031 366.7024230957031 342.6400146484375 360.7546691894531 C 341.76092529296875 333.00030517578125 344.6683349609375 311.9649963378906 345.3202209472656 285.75677490234375 C 330.4311828613281 282.3231201171875 330.5274963378906 276.31170654296875 307.96380615234375 281.7118835449219" stroke-width="0.0" fill="rgb(34, 35, 33)" opacity="0.93294686" stroke="rgb(0, 0, 0)" stroke-opacity="1.0" stroke-linecap="round" stroke-linejoin="round"/>
    <path d="M 347.0245056152344 255.5782470703125 C 344.3977355957031 269.53857421875 347.68768310546875 295.6504211425781 343.9868469238281 315.0094909667969 C 351.946044921875 305.8822326660156 364.8744201660156 302.1236267089844 373.4892578125 307.755615234375 C 370.3490905761719 305.7825927734375 371.3895263671875 281.0157470703125 370.23138427734375 261.6955261230469 C 364.7214050292969 258.49237060546875 354.3526916503906 252.60020446777344 347.0245056152344 255.5782470703125" stroke-width="0.0" fill="rgb(36, 46, 14)" opacity="0.99306035" stroke="rgb(0, 0, 0)" stroke-opacity="1.0" stroke-linecap="round" stroke-linejoin="round"/>
    <path d="M 519.7943115234375 276.8237609863281 C 502.84222412109375 278.24676513671875 482.5637512207031 278.6936340332031 480.8410949707031 280.0218200683594 C 477.8361511230469 286.59130859375 472.4958190917969 296.90155029296875 485.9844055175781 302.3280334472656 C 496.4516296386719 300.1166076660156 501.3226623535156 296.24993896484375 517.9957275390625 296.7378234863281 C 518.461181640625 286.7763671875 520.170654296875 279.556640625 519.7943115234375 276.8237609863281" stroke-width="0.0" fill="rgb(131, 100, 87)" opacity="0.83309484" stroke="rgb(0, 0, 0)" stroke-opacity="1.0" stroke-linecap="round" stroke-linejoin="round"/>
    <path d="M 465.98468017578125 176.21011352539062 C 473.2041320800781 193.5328826904297 483.75146484375 206.64796447753906 493.1248779296875 218.6308135986328 C 500.1973571777344 216.99172973632812 501.9604797363281 209.82766723632812 499.2279968261719 207.90304565429688 C 490.6668701171875 196.77737426757812 484.41741943359375 182.56631469726562 465.98468017578125 176.21011352539062" stroke-width="0.0" fill="rgb(43, 43, 17)" opacity="0.984751" stroke="rgb(0, 0, 0)" stroke-opacity="1.0" stroke-linecap="round" stroke-linejoin="round"/>
    <path d="M 396.7647705078125 427.1805419921875 C 394.8730163574219 431.30535888671875 395.57135009765625 441.8744201660156 396.84423828125 444.1541748046875 C 409.03924560546875 443.7269287109375 424.5120544433594 444.8380432128906 426.4827575683594 443.2383117675781 C 427.4220886230469 437.476806640625 427.9037780761719 428.49603271484375 425.9627990722656 426.709716796875 C 417.1966247558594 427.29266357421875 402.41558837890625 426.6038513183594 396.7647705078125 427.1805419921875" stroke-width="0.0" fill="rgb(138, 154, 165)" opacity="1.0007893" stroke="rgb(0, 0, 0)" stroke-opacity="1.0" stroke-linecap="round" stroke-linejoin="round"/>
    <path d="M 372.2886047363281 317.4259948730469 C 362.87249755859375 320.0964660644531 355.1297912597656 317.3627624511719 343.37396240234375 321.8502197265625 C 345.82720947265625 331.4842529296875 339.58648681640625 339.5116271972656 345.13165283203125 345.12646484375 C 354.0396728515625 345.9324035644531 363.3938903808594 346.1256408691406 372.2335205078125 342.49359130859375 C 372.3862609863281 335.0909118652344 371.6637268066406 325.3974914550781 372.2886047363281 317.4259948730469" stroke-width="0.0" fill="rgb(45, 56, 13)" opacity="0.99394566" stroke="rgb(0, 0, 0)" stroke-opacity="1.0" stroke-linecap="round" stroke-linejoin="round"/>
  </g>
</svg>
