<?xml version="1.0" ?>
<svg xmlns="http://www.w3.org/2000/svg" version="1.1" width="512" height="512">
  <defs/>
  <g>
    <path d="M -0.4139542877674103 -0.5881327986717224 C -0.20621517300605774 170.3333282470703 -0.0580328032374382 340.6666564941406 -0.21237660944461823 513.06103515625 C 169.8524627685547 513.2321166992188 339.8192443847656 513.4901733398438 513.8712158203125 513.9962768554688 C 514.3396606445312 341.76556396484375 514.5150146484375 171.0701446533203 514.6049194335938 -0.3632422983646393 C 340.6666564941406 -0.7010799050331116 170.3333282470703 -0.6540636420249939 -0.4139542877674103 -0.5881327986717224" stroke-width="0.0" fill="rgb(125, 140, 160)" opacity="0.9404611" stroke="rgb(0, 0, 0)" stroke-opacity="1.0" stroke-linecap="round" stroke-linejoin="round"/>
    <path d="M 513.8685302734375 233.5781707763672 C 460.2113952636719 255.95004272460938 411.2067565917969 279.583251953125 360.48779296875 301.9635314941406 C 313.0716857910156 316.7743835449219 261.0748291015625 327.3298645019531 208.32308959960938 337.18182373046875 C 183.99745178222656 337.7039794921875 158.12142944335938 337.9630126953125 136.15626525878906 336.2339172363281 C 121.12019348144531 332.45196533203125 109.25860595703125 328.05621337890625 99.25704193115234 321.7820129394531 C 79.7192611694336 318.93536376953125 59.906341552734375 317.0434875488281 39.14133834838867 315.6473693847656 C 33.97168731689453 315.7637023925781 32.553409576416016 312.57159423828125 31.318452835083008 311.6979675292969 C 26.467784881591797 310.985595703125 19.726337432861328 310.3867492675781 11.533064842224121 308.3786315917969 C 16.665353775024414 301.7044677734375 21.310178756713867 300.5279541015625 25.093881607055664 302.0214538574219 C 20.862693786621094 303.2109069824219 16.064807891845703 301.7010498046875 10.546435356140137 299.1117248535156 C 13.912932395935059 294.4259033203125 16.14724349975586 293.8507385253906 16.377458572387695 295.1222229003906 C 14.933619499206543 293.6918029785156 13.296634674072266 290.67144775390625 11.521166801452637 288.98809814453125 C 10.608186721801758 288.49139404296875 7.361278057098389 288.6937255859375 1.4859236478805542 284.5109558105469 C -1.0029547214508057 357.52349853515625 -3.156155824661255 432.1341857910156 -4.565701484680176 513.8194580078125 C 168.73631286621094 514.406982421875 339.73773193359375 514.1115112304688 514.5863037109375 513.8016357421875 C 514.6365356445312 417.5960693359375 514.6206665039062 324.49945068359375 513.8685302734375 233.5781707763672" stroke-width="0.0" fill="rgb(50, 48, 54)" opacity="1.0246942" stroke="rgb(0, 0, 0)" stroke-opacity="1.0" stroke-linecap="round" stroke-linejoin="round"/>
    <path d="M 516.3140869140625 210.87574768066406 C 481.4153747558594 206.6444549560547 449.63189697265625 203.23228454589844 421.6943664550781 205.4637908935547 C 386.7825927734375 221.80470275878906 352.298583984375 236.3436737060547 314.8282165527344 250.2648468017578 C 293.7940368652344 245.97491455078125 275.5276184082031 239.09503173828125 257.3924865722656 230.30368041992188 C 235.49053955078125 229.2925567626953 213.08309936523438 227.63064575195312 186.16094970703125 225.38633728027344 C 156.5815887451172 233.83056640625 127.28451538085938 244.87005615234375 98.09271240234375 256.99273681640625 C 139.31613159179688 279.1775207519531 173.3796844482422 301.9727783203125 205.1520538330078 327.5367431640625 C 214.01583862304688 327.1353454589844 222.95387268066406 327.7878723144531 233.19512939453125 328.5020446777344 C 262.33306884765625 321.27593994140625 292.3722839355469 315.28948974609375 323.3595275878906 309.85980224609375 C 361.4845275878906 297.15716552734375 397.5755615234375 281.9694519042969 431.82940673828125 265.1548156738281 C 458.66473388671875 246.31126403808594 486.9431457519531 229.24464416503906 516.3140869140625 210.87574768066406" stroke-width="0.0" fill="rgb(131, 157, 181)" opacity="0.9819907" stroke="rgb(0, 0, 0)" stroke-opacity="1.0" stroke-linecap="round" stroke-linejoin="round"/>
    <path d="M 0.07828149199485779 203.86924743652344 C -3.046990394592285 244.59080505371094 -2.7203176021575928 280.8618469238281 -2.2936501502990723 313.4602966308594 C 59.89421463012695 319.0389709472656 119.34732055664062 321.2059326171875 174.78211975097656 332.19512939453125 C 192.63563537597656 334.3062438964844 209.3827362060547 332.66351318359375 223.53614807128906 330.48663330078125 C 216.91650390625 328.14093017578125 210.6890106201172 326.65777587890625 204.1386260986328 325.4147033691406 C 180.92274475097656 307.4088439941406 156.7701873779297 290.8481140136719 131.6103515625 275.5790710449219 C 87.54046630859375 252.6294403076172 45.89501190185547 227.64137268066406 0.07828149199485779 203.86924743652344" stroke-width="0.0" fill="rgb(118, 140, 165)" opacity="1.0022035" stroke="rgb(0, 0, 0)" stroke-opacity="1.0" stroke-linecap="round" stroke-linejoin="round"/>
    <path d="M 255.82632446289062 220.47274780273438 C 254.9154510498047 211.69007873535156 252.22525024414062 206.8251190185547 248.0438232421875 206.33181762695312 C 218.36961364746094 204.87538146972656 203.2083740234375 192.4104461669922 184.6438446044922 185.60577392578125 C 174.0780029296875 191.35763549804688 165.86819458007812 191.94024658203125 158.90029907226562 193.8365020751953 C 153.3080291748047 202.28341674804688 146.1362762451172 209.12413024902344 137.5873565673828 215.85398864746094 C 126.46458435058594 210.5028839111328 117.57587432861328 203.80674743652344 104.982666015625 198.93458557128906 C 93.10940551757812 214.5195770263672 81.05915832519531 227.2403106689453 65.74964141845703 236.1011962890625 C 72.68492126464844 245.73680114746094 83.73536682128906 253.41282653808594 101.00410461425781 258.587890625 C 134.28213500976562 248.66738891601562 163.8642578125 238.62454223632812 192.9539031982422 225.469970703125 C 210.52505493164062 223.7141571044922 228.4981231689453 226.53453063964844 250.53707885742188 228.3781280517578 C 253.6135711669922 227.71795654296875 255.91490173339844 225.94020080566406 255.82632446289062 220.47274780273438" stroke-width="0.0" fill="rgb(217, 232, 244)" opacity="1.0037946" stroke="rgb(0, 0, 0)" stroke-opacity="1.0" stroke-linecap="round" stroke-linejoin="round"/>
    <path d="M 206.35574340820312 333.76519775390625 C 208.82806396484375 335.4043273925781 213.82196044921875 336.6505126953125 220.30101013183594 337.6629333496094 C 227.64642333984375 333.6011047363281 233.24224853515625 331.2979431152344 236.52256774902344 329.40155029296875 C 225.519775390625 327.0400085449219 215.99351501464844 326.1412658691406 205.9911346435547 326.3070983886719 C 207.4090118408203 327.1784362792969 206.09275817871094 329.2956848144531 206.35574340820312 333.76519775390625" stroke-width="0.0" fill="rgb(133, 161, 185)" opacity="1.0000458" stroke="rgb(0, 0, 0)" stroke-opacity="1.0" stroke-linecap="round" stroke-linejoin="round"/>
    <path d="M 27.71280288696289 25.479629516601562 C 26.154541015625 32.048675537109375 26.8934268951416 39.727378845214844 27.413925170898438 49.520851135253906 C 29.772537231445312 49.326473236083984 33.6097412109375 48.40441131591797 39.461708068847656 47.64690399169922 C 40.182281494140625 42.18394088745117 40.29020309448242 36.20966720581055 39.23255920410156 27.723421096801758 C 35.678184509277344 26.904146194458008 31.91068458557129 26.41693878173828 27.71280288696289 25.479629516601562" stroke-width="0.0" fill="rgb(151, 183, 224)" opacity="1.004102" stroke="rgb(0, 0, 0)" stroke-opacity="1.0" stroke-linecap="round" stroke-linejoin="round"/>
    <path d="M 323.2076721191406 247.15907287597656 C 332.1524353027344 244.67689514160156 337.5084228515625 242.46446228027344 341.79327392578125 239.34869384765625 C 336.401123046875 232.68148803710938 332.3434753417969 231.79454040527344 327.41552734375 232.41424560546875 C 325.71075439453125 235.58570861816406 323.5687255859375 239.14633178710938 323.2076721191406 247.15907287597656" stroke-width="0.0" fill="rgb(205, 221, 235)" opacity="1.0061264" stroke="rgb(0, 0, 0)" stroke-opacity="1.0" stroke-linecap="round" stroke-linejoin="round"/>
    <path d="M 502.7109069824219 151.97012329101562 C 509.98553466796875 148.11224365234375 511.7220458984375 149.16574096679688 513.7843627929688 149.7571563720703 C 514.0896606445312 152.91690063476562 514.4252319335938 155.45518493652344 508.515869140625 160.4013214111328 C 504.0833740234375 159.53384399414062 502.4072265625 157.079345703125 502.7109069824219 151.97012329101562" stroke-width="0.0" fill="rgb(159, 183, 214)" opacity="1.0016315" stroke="rgb(0, 0, 0)" stroke-opacity="1.0" stroke-linecap="round" stroke-linejoin="round"/>
    <path d="M 137.86422729492188 221.82830810546875 C 139.64785766601562 229.24990844726562 144.67807006835938 234.24070739746094 155.38156127929688 236.26327514648438 C 168.832763671875 234.5945281982422 180.08599853515625 229.5360107421875 191.0354766845703 225.25161743164062 C 214.1269989013672 227.8543243408203 235.7295684814453 227.50721740722656 256.583251953125 226.0740509033203 C 256.2848205566406 212.67994689941406 253.1514129638672 207.17611694335938 249.44033813476562 206.0156707763672 C 223.2503662109375 204.74647521972656 206.86643981933594 198.5831756591797 193.28237915039062 187.0231170654297 C 179.94638061523438 186.0548095703125 169.9407196044922 189.8551483154297 160.39288330078125 195.0780029296875 C 152.8438720703125 202.79116821289062 144.5017547607422 209.4995574951172 137.86422729492188 221.82830810546875" stroke-width="0.0" fill="rgb(224, 233, 240)" opacity="0.99556345" stroke="rgb(0, 0, 0)" stroke-opacity="1.0" stroke-linecap="round" stroke-linejoin="round"/>
    <path d="M 96.0799789428711 256.90618896484375 C 139.77850341796875 284.37158203125 181.1101837158203 309.9906311035156 223.4059600830078 333.7535705566406 C 248.57762145996094 320.5371398925781 275.1397705078125 318.1539001464844 299.76220703125 315.4073486328125 C 301.9671630859375 291.4602355957031 308.6656188964844 273.30645751953125 309.74530029296875 250.9656982421875 C 293.1744384765625 244.14437866210938 277.6342468261719 235.99099731445312 261.1332092285156 229.6386260986328 C 238.05845642089844 228.44967651367188 219.5200958251953 223.05357360839844 199.35028076171875 224.67494201660156 C 167.16502380371094 236.24136352539062 134.62196350097656 248.5550537109375 96.0799789428711 256.90618896484375" stroke-width="0.0" fill="rgb(151, 178, 202)" opacity="1.0062778" stroke="rgb(0, 0, 0)" stroke-opacity="1.0" stroke-linecap="round" stroke-linejoin="round"/>
    <path d="M 512.756591796875 219.95199584960938 C 499.645751953125 224.6590576171875 486.95849609375 227.9856719970703 476.4559020996094 233.41661071777344 C 459.83770751953125 245.5122833251953 443.99078369140625 258.3271789550781 426.67205810546875 269.2765197753906 C 410.4644775390625 279.4452819824219 391.4546813964844 286.5135803222656 373.5236511230469 295.1628112792969 C 335.60504150390625 305.536865234375 299.4342956542969 318.84332275390625 255.22430419921875 324.13177490234375 C 236.06971740722656 326.7637939453125 220.21240234375 332.9809265136719 206.17156982421875 347.8002624511719 C 227.76449584960938 351.0417175292969 249.73638916015625 352.45672607421875 273.885986328125 353.4662170410156 C 296.4234619140625 353.4446105957031 317.6010437011719 351.3551330566406 338.36968994140625 348.6432800292969 C 375.6728210449219 345.6643371582031 406.6915588378906 336.4851379394531 433.8931579589844 322.8063049316406 C 437.262451171875 316.8131103515625 440.7115783691406 310.8463439941406 444.39288330078125 305.4056396484375 C 466.0831604003906 281.78021240234375 488.7953796386719 259.144287109375 514.5524291992188 238.95033264160156 C 514.2261352539062 229.15965270996094 514.7966918945312 223.14012145996094 512.756591796875 219.95199584960938" stroke-width="0.0" fill="rgb(59, 76, 95)" opacity="0.9463139" stroke="rgb(0, 0, 0)" stroke-opacity="1.0" stroke-linecap="round" stroke-linejoin="round"/>
    <path d="M 103.74004364013672 199.90830993652344 C 99.72492980957031 204.63442993164062 95.43020629882812 210.26370239257812 91.9364013671875 221.2396697998047 C 92.14958953857422 223.2051544189453 96.77983856201172 224.75389099121094 98.31104278564453 225.5780029296875 C 97.69371795654297 220.4260711669922 97.70243072509766 213.67880249023438 102.05937957763672 206.9154052734375 C 108.69416046142578 205.04608154296875 111.9302749633789 208.44158935546875 119.67513275146484 210.46441650390625 C 115.76332092285156 203.5988006591797 110.4625015258789 202.08998107910156 103.74004364013672 199.90830993652344" stroke-width="0.0" fill="rgb(241, 246, 248)" opacity="1.0023315" stroke="rgb(0, 0, 0)" stroke-opacity="1.0" stroke-linecap="round" stroke-linejoin="round"/>
    <path d="M 513.4144897460938 427.688720703125 C 490.277587890625 428.2289123535156 473.92938232421875 432.3655090332031 458.1952209472656 437.0224914550781 C 450.5562744140625 427.5035095214844 443.38006591796875 422.4533996582031 431.5773010253906 422.82794189453125 C 430.6008605957031 416.8045959472656 438.6877746582031 422.25848388671875 440.4723205566406 419.8497009277344 C 432.45294189453125 414.6705017089844 429.85894775390625 408.41448974609375 428.6317443847656 403.04901123046875 C 427.9370422363281 392.8087463378906 425.65081787109375 383.86737060546875 423.7433776855469 369.84429931640625 C 415.1037902832031 376.6715087890625 410.6081848144531 380.52899169921875 402.2843933105469 378.5905456542969 C 395.22772216796875 374.4374694824219 391.3180847167969 370.0557861328125 389.419677734375 368.1690979003906 C 384.5142822265625 367.9415588378906 378.2859191894531 365.86602783203125 370.6017761230469 365.135498046875 C 363.3550720214844 389.3782653808594 363.2950744628906 420.13958740234375 360.6961364746094 449.70257568359375 C 350.6309509277344 441.5183410644531 352.2030944824219 431.2147521972656 351.29766845703125 425.3829650878906 C 353.3866882324219 424.8080749511719 350.56988525390625 416.7181091308594 352.4422912597656 416.4150390625 C 349.3172302246094 395.0072937011719 347.6201477050781 373.9726867675781 349.9496154785156 349.4152526855469 C 343.19622802734375 350.40850830078125 338.9649658203125 351.5232849121094 333.90252685546875 352.7176818847656 C 336.58892822265625 360.7922668457031 337.6168518066406 365.4931945800781 334.71649169921875 372.19085693359375 C 327.7990417480469 367.94549560546875 331.3486633300781 360.20562744140625 334.1241149902344 352.2627868652344 C 307.5394287109375 353.475341796875 287.0971984863281 355.9973449707031 262.7040100097656 359.2268981933594 C 258.5522155761719 389.73260498046875 254.32681274414062 424.5707702636719 253.70492553710938 458.4983215332031 C 245.88436889648438 457.0528564453125 237.70411682128906 454.4371032714844 234.7510223388672 446.283447265625 C 230.49476623535156 420.008544921875 227.45339965820312 393.6443176269531 223.80702209472656 368.7776184082031 C 225.55557250976562 363.0078430175781 228.6735382080078 358.4750061035156 232.87594604492188 352.7059020996094 C 201.0959014892578 351.91632080078125 173.2967987060547 351.505615234375 149.0084686279297 351.72308349609375 C 152.0962677001953 359.752685546875 154.65663146972656 363.6203918457031 159.71481323242188 367.02337646484375 C 157.3751220703125 366.2510681152344 152.3838348388672 364.2740173339844 150.5803985595703 367.9916076660156 C 153.5614471435547 369.6000061035156 157.79498291015625 368.19989013671875 162.61895751953125 367.4755859375 C 159.5565948486328 370.7878112792969 158.61508178710938 375.7548828125 153.08230590820312 374.54046630859375 C 113.90576934814453 376.3830871582031 76.9255599975586 378.9822998046875 44.70954513549805 374.447509765625 C 42.72058868408203 382.7752685546875 36.591148376464844 387.8876647949219 33.25262451171875 394.9070129394531 C 34.22462463378906 429.5843200683594 34.33755111694336 464.25152587890625 34.30620193481445 500.8720397949219 C 33.76949691772461 500.6858825683594 29.172653198242188 499.4515075683594 25.29620933532715 499.0262451171875 C 30.149272918701172 461.2680358886719 29.51195526123047 423.0834655761719 28.367889404296875 386.0714111328125 C 18.980207443237305 388.7506103515625 15.478555679321289 387.5729675292969 14.137357711791992 384.5002136230469 C 11.674734115600586 378.38470458984375 10.960915565490723 371.2143859863281 11.766379356384277 364.1551818847656 C 4.928520679473877 363.556884765625 3.5559511184692383 359.8573303222656 -1.888085126876831 352.4210205078125 C -2.4092624187469482 407.50762939453125 -2.444417953491211 459.18438720703125 -2.527467727661133 514.7015991210938 C 171.01522827148438 514.2467651367188 341.0581970214844 513.9019775390625 513.6083984375 513.7025756835938 C 513.8955078125 483.1712646484375 514.2728271484375 455.0205078125 513.4144897460938 427.688720703125" stroke-width="0.0" fill="rgb(75, 64, 56)" opacity="0.99849856" stroke="rgb(0, 0, 0)" stroke-opacity="1.0" stroke-linecap="round" stroke-linejoin="round"/>
    <path d="M 513.5302734375 235.41424560546875 C 499.9139404296875 247.92861938476562 491.34735107421875 261.4370422363281 472.633056640625 266.861083984375 C 462.2444152832031 294.3872375488281 452.9569091796875 324.1889343261719 433.87164306640625 346.0862731933594 C 429.2850036621094 359.1925354003906 427.5196838378906 374.9412536621094 428.2049560546875 390.1021728515625 C 442.6307373046875 403.384765625 444.2242126464844 423.8046875 452.3916015625 434.56689453125 C 475.5169372558594 431.18707275390625 493.1438293457031 428.54840087890625 514.6871948242188 425.40673828125 C 514.4432373046875 361.7085876464844 514.6235961914062 298.3306579589844 513.5302734375 235.41424560546875" stroke-width="0.0" fill="rgb(60, 51, 42)" opacity="0.99010956" stroke="rgb(0, 0, 0)" stroke-opacity="1.0" stroke-linecap="round" stroke-linejoin="round"/>
    <path d="M 0.634061336517334 237.77760314941406 C -2.3794212341308594 277.89471435546875 -2.6721479892730713 314.0869140625 0.3057805001735687 352.8468322753906 C 6.871991157531738 333.5694885253906 13.507574081420898 316.9490661621094 20.466609954833984 303.6595153808594 C 29.574539184570312 315.7456359863281 39.56040954589844 327.0858459472656 49.978553771972656 337.80755615234375 C 46.76127624511719 343.745361328125 43.92121887207031 352.99871826171875 43.34929656982422 368.0037536621094 C 53.773834228515625 369.4305419921875 64.60881042480469 369.2436828613281 74.61800384521484 376.70281982421875 C 100.43856811523438 373.9482727050781 128.55819702148438 370.81231689453125 160.8138427734375 371.45953369140625 C 150.88861083984375 364.79876708984375 142.78097534179688 358.3973693847656 133.36895751953125 350.9325256347656 C 161.66189575195312 348.482421875 191.77310180664062 349.4760437011719 212.90882873535156 348.34747314453125 C 213.68824768066406 338.85247802734375 219.1443634033203 339.0157775878906 223.25083923339844 336.2956237792969 C 197.61749267578125 337.0343017578125 177.2333221435547 334.3415832519531 154.29652404785156 332.7514953613281 C 139.16021728515625 327.93988037109375 125.13504028320312 320.769287109375 107.64713287353516 314.3899841308594 C 69.74149322509766 294.82745361328125 36.08000564575195 267.78167724609375 0.634061336517334 237.77760314941406" stroke-width="0.0" fill="rgb(78, 95, 117)" opacity="0.9456894" stroke="rgb(0, 0, 0)" stroke-opacity="1.0" stroke-linecap="round" stroke-linejoin="round"/>
    <path d="M 504.11688232421875 207.3836669921875 C 489.0951843261719 201.92372131347656 481.4254150390625 209.1328125 470.5975646972656 209.77049255371094 C 458.8074035644531 201.0618438720703 444.05712890625 198.22760009765625 424.7763671875 198.8819580078125 C 389.5437316894531 220.28750610351562 352.2312316894531 236.53070068359375 310.51422119140625 251.3712921142578 C 306.5777282714844 267.69921875 311.6914367675781 292.8017578125 308.6069641113281 315.9359436035156 C 349.55316162109375 302.6777648925781 387.5322570800781 288.65045166015625 424.753662109375 273.8013610839844 C 450.41064453125 251.4124298095703 476.93023681640625 229.93203735351562 504.11688232421875 207.3836669921875" stroke-width="0.0" fill="rgb(119, 145, 173)" opacity="0.99670076" stroke="rgb(0, 0, 0)" stroke-opacity="1.0" stroke-linecap="round" stroke-linejoin="round"/>
    <path d="M 0.742577075958252 201.01199340820312 C -3.8481788635253906 213.3741455078125 -3.127507448196411 227.07728576660156 -0.10831835865974426 239.8921356201172 C 29.76105308532715 260.23974609375 58.8050422668457 281.1939392089844 87.95909881591797 302.39520263671875 C 106.6800765991211 313.08917236328125 128.62228393554688 320.765625 150.1053466796875 329.67486572265625 C 169.39065551757812 333.8727722167969 190.6102294921875 335.67681884765625 215.2686309814453 329.9506530761719 C 187.48829650878906 306.5223693847656 158.60189819335938 287.4848327636719 127.49317169189453 270.56097412109375 C 114.87857055664062 263.8462829589844 100.17508697509766 259.593994140625 88.12590789794922 252.98703002929688 C 60.39781188964844 234.572509765625 32.08004379272461 216.93136596679688 0.742577075958252 201.01199340820312" stroke-width="0.0" fill="rgb(127, 153, 179)" opacity="0.98311853" stroke="rgb(0, 0, 0)" stroke-opacity="1.0" stroke-linecap="round" stroke-linejoin="round"/>
    <path d="M 241.77105712890625 349.180908203125 C 235.02113342285156 353.7484436035156 230.76852416992188 357.1787414550781 228.01148986816406 362.4790954589844 C 225.4176483154297 373.02728271484375 225.49977111816406 386.05487060546875 227.84571838378906 396.92230224609375 C 230.56956481933594 413.42041015625 231.58905029296875 432.3477783203125 233.29095458984375 453.917236328125 C 236.77969360351562 458.1093444824219 243.90130615234375 461.080078125 253.24876403808594 463.1399841308594 C 256.5361633300781 430.00775146484375 262.43377685546875 402.13751220703125 265.0369567871094 371.0212097167969 C 259.56292724609375 364.0605773925781 257.0593566894531 359.21136474609375 253.75807189941406 355.648681640625 C 249.39715576171875 352.9286193847656 246.82769775390625 349.30413818359375 241.77105712890625 349.180908203125" stroke-width="0.0" fill="rgb(55, 52, 47)" opacity="0.99590737" stroke="rgb(0, 0, 0)" stroke-opacity="1.0" stroke-linecap="round" stroke-linejoin="round"/>
    <path d="M 26.797164916992188 301.8507385253906 C 20.223054885864258 306.13690185546875 14.09895133972168 306.98114013671875 14.433370590209961 311.5314025878906 C 12.967818260192871 325.0189208984375 7.245126724243164 334.630126953125 4.806326389312744 344.8490905761719 C 12.260629653930664 361.6476135253906 15.491300582885742 381.07684326171875 25.233232498168945 396.6476135253906 C 23.49822235107422 431.85296630859375 23.95374298095703 467.352783203125 32.16461944580078 502.14324951171875 C 34.19689178466797 460.45703125 32.884239196777344 427.0940246582031 31.55426597595215 395.40838623046875 C 40.73173904418945 378.2176513671875 47.11883544921875 358.46258544921875 49.92441177368164 338.751220703125 C 40.61414337158203 325.7084045410156 35.07132339477539 311.0320739746094 26.797164916992188 301.8507385253906" stroke-width="0.0" fill="rgb(76, 65, 63)" opacity="0.9825224" stroke="rgb(0, 0, 0)" stroke-opacity="1.0" stroke-linecap="round" stroke-linejoin="round"/>
    <path d="M 512.39013671875 202.5658721923828 C 500.18841552734375 208.0523681640625 490.2481994628906 214.5579071044922 480.7568664550781 226.30770874023438 C 495.27056884765625 225.01181030273438 503.4211730957031 221.98956298828125 513.7193603515625 218.21046447753906 C 514.4989624023438 210.48727416992188 514.8031616210938 204.56857299804688 512.39013671875 202.5658721923828" stroke-width="0.0" fill="rgb(122, 135, 157)" opacity="0.99924725" stroke="rgb(0, 0, 0)" stroke-opacity="1.0" stroke-linecap="round" stroke-linejoin="round"/>
    <path d="M 383.4217224121094 341.7235412597656 C 373.8916015625 342.0119934082031 364.6283874511719 342.3095397949219 358.00848388671875 342.5743408203125 C 351.6346740722656 348.2892150878906 349.77264404296875 357.4354553222656 351.27862548828125 372.5304870605469 C 365.64898681640625 371.74285888671875 376.59320068359375 370.1190185546875 389.4241638183594 366.99462890625 C 387.9056396484375 352.0046691894531 385.30523681640625 343.1108703613281 383.4217224121094 341.7235412597656" stroke-width="0.0" fill="rgb(62, 57, 58)" opacity="0.9969219" stroke="rgb(0, 0, 0)" stroke-opacity="1.0" stroke-linecap="round" stroke-linejoin="round"/>
    <path d="M 400.56585693359375 341.0311279296875 C 390.6710205078125 345.98297119140625 387.45220947265625 352.0754089355469 386.96466064453125 366.151611328125 C 385.7182312011719 370.8711853027344 395.09698486328125 371.4898376464844 397.50408935546875 377.2203369140625 C 398.6521911621094 378.95526123046875 400.9533386230469 375.64178466796875 401.2442626953125 371.757080078125 C 402.169677734375 358.977783203125 402.8126525878906 350.1919250488281 400.56585693359375 341.0311279296875" stroke-width="0.0" fill="rgb(57, 50, 48)" opacity="1.000057" stroke="rgb(0, 0, 0)" stroke-opacity="1.0" stroke-linecap="round" stroke-linejoin="round"/>
    <path d="M 77.57122802734375 244.71612548828125 C 78.87019348144531 249.103271484375 82.0023422241211 254.43104553222656 85.34870910644531 258.1737060546875 C 96.19894409179688 255.56039428710938 102.05951690673828 253.8759307861328 109.98170471191406 250.47964477539062 C 101.5339584350586 244.9014129638672 87.16069793701172 247.2742462158203 82.9383544921875 237.92019653320312 C 78.48194122314453 237.11447143554688 78.10980987548828 238.99887084960938 77.57122802734375 244.71612548828125" stroke-width="0.0" fill="rgb(235, 242, 247)" opacity="1.0014552" stroke="rgb(0, 0, 0)" stroke-opacity="1.0" stroke-linecap="round" stroke-linejoin="round"/>
    <path d="M 416.3518981933594 320.67022705078125 C 421.724609375 324.8790283203125 422.38323974609375 325.5630187988281 424.3565673828125 331.6544189453125 C 425.77239990234375 341.3797607421875 424.0484619140625 350.4820861816406 413.6631774902344 357.0906982421875 C 412.72149658203125 338.9906921386719 414.2958679199219 328.8127136230469 416.3518981933594 320.67022705078125" stroke-width="0.0" fill="rgb(63, 57, 57)" opacity="0.9999934" stroke="rgb(0, 0, 0)" stroke-opacity="1.0" stroke-linecap="round" stroke-linejoin="round"/>
    <path d="M 230.65362548828125 326.17474365234375 C 233.85707092285156 330.8838806152344 233.52886962890625 333.0682678222656 237.33038330078125 334.727783203125 C 228.1290740966797 336.7778015136719 216.70855712890625 337.9458923339844 201.58473205566406 332.7839050292969 C 210.9293212890625 326.4516296386719 220.90858459472656 325.97027587890625 230.65362548828125 326.17474365234375" stroke-width="0.0" fill="rgb(140, 167, 189)" opacity="0.9950325" stroke="rgb(0, 0, 0)" stroke-opacity="1.0" stroke-linecap="round" stroke-linejoin="round"/>
    <path d="M 427.3780212402344 364.35595703125 C 420.8726501464844 364.81512451171875 416.6559753417969 365.51922607421875 413.4419860839844 369.32269287109375 C 414.5887756347656 374.6305236816406 417.21063232421875 376.3354187011719 425.4042663574219 375.7171325683594 C 427.8805236816406 372.2545166015625 427.934814453125 369.94561767578125 427.3780212402344 364.35595703125" stroke-width="0.0" fill="rgb(34, 33, 42)" opacity="1.0001775" stroke="rgb(0, 0, 0)" stroke-opacity="1.0" stroke-linecap="round" stroke-linejoin="round"/>
    <path d="M 509.5761413574219 434.8831481933594 C 499.2333068847656 432.9893798828125 486.88922119140625 433.0235900878906 473.83831787109375 435.2954406738281 C 399.4393310546875 444.8486022949219 325.63299560546875 454.3498840332031 251.5296630859375 464.1366271972656 C 201.72555541992188 462.2787170410156 152.3078155517578 464.8492431640625 97.76078033447266 467.2881164550781 C 92.76022338867188 478.7704772949219 84.35198974609375 490.7339782714844 73.35464477539062 498.1588134765625 C 54.72578048706055 498.2464599609375 40.531898498535156 498.8468017578125 29.759204864501953 505.2580871582031 C 26.814754486083984 509.21417236328125 22.9190616607666 503.4861145019531 15.445865631103516 497.27630615234375 C 9.355273246765137 501.4845886230469 3.51528000831604 503.96575927734375 -1.499189853668213 514.3248291015625 C 171.49609375 514.7151489257812 341.2895812988281 514.7593383789062 511.69915771484375 514.567626953125 C 510.1351623535156 486.3878173828125 510.891845703125 460.8279724121094 509.5761413574219 434.8831481933594" stroke-width="0.0" fill="rgb(64, 56, 48)" opacity="0.97454655" stroke="rgb(0, 0, 0)" stroke-opacity="1.0" stroke-linecap="round" stroke-linejoin="round"/>
    <path d="M 495.4300842285156 256.1618347167969 C 483.1520080566406 262.09429931640625 476.43975830078125 270.01763916015625 470.9230651855469 280.0931701660156 C 463.6221008300781 291.6192932128906 458.0643005371094 305.0733337402344 451.9131774902344 318.91009521484375 C 447.6294250488281 321.6802062988281 446.1727600097656 318.3336181640625 442.61907958984375 313.8964538574219 C 439.7330627441406 326.0813293457031 436.9581604003906 335.6164245605469 433.307861328125 345.4657287597656 C 428.899169921875 358.2587585449219 427.1502380371094 373.2586669921875 430.8348693847656 389.2992858886719 C 438.5496826171875 398.7506103515625 443.64813232421875 408.8529357910156 448.0204162597656 420.52947998046875 C 451.4051513671875 424.2080383300781 454.9698791503906 427.60833740234375 458.70599365234375 429.11572265625 C 467.6568908691406 426.980224609375 473.9148864746094 425.6506652832031 479.5099792480469 423.524658203125 C 478.912109375 412.203857421875 483.9879150390625 406.7838439941406 485.77984619140625 399.3062438964844 C 487.3145751953125 377.0146484375 486.4572448730469 359.6844787597656 483.8559875488281 347.09417724609375 C 487.9683532714844 318.382080078125 492.0993347167969 289.2969970703125 495.4300842285156 256.1618347167969" stroke-width="0.0" fill="rgb(59, 48, 36)" opacity="0.9994453" stroke="rgb(0, 0, 0)" stroke-opacity="1.0" stroke-linecap="round" stroke-linejoin="round"/>
    <path d="M 513.6532592773438 237.66273498535156 C 504.57403564453125 242.9801025390625 500.0743713378906 249.15882873535156 497.07879638671875 254.3479766845703 C 491.60870361328125 286.4879150390625 487.6072692871094 316.8629150390625 482.7911376953125 351.1695556640625 C 481.10931396484375 367.0356750488281 484.10223388671875 384.1731262207031 490.3746032714844 399.7177429199219 C 491.9388122558594 402.8597106933594 485.7021789550781 406.074951171875 486.58428955078125 418.4351806640625 C 490.8088684082031 421.96063232421875 498.4802551269531 424.37335205078125 514.1295166015625 426.1401672363281 C 514.6243896484375 360.00872802734375 514.953125 298.0228271484375 513.6532592773438 237.66273498535156" stroke-width="0.0" fill="rgb(69, 54, 32)" opacity="1.0062526" stroke="rgb(0, 0, 0)" stroke-opacity="1.0" stroke-linecap="round" stroke-linejoin="round"/>
    <path d="M 73.30809020996094 392.0947570800781 C 64.55453491210938 409.02398681640625 55.485599517822266 424.69573974609375 36.43909454345703 433.7488708496094 C 34.960567474365234 452.29913330078125 34.857295989990234 475.11956787109375 35.39225387573242 495.7365417480469 C 47.85645294189453 495.7684631347656 57.88378143310547 496.0063781738281 67.85189819335938 495.43280029296875 C 74.09001922607422 493.5663757324219 78.6934585571289 489.0382385253906 83.49283599853516 483.46875 C 86.501708984375 462.67449951171875 88.53399658203125 440.5494079589844 88.7405014038086 416.5854187011719 C 84.80501556396484 407.36956787109375 82.98058319091797 399.6958923339844 73.30809020996094 392.0947570800781" stroke-width="0.0" fill="rgb(66, 53, 44)" opacity="0.9979894" stroke="rgb(0, 0, 0)" stroke-opacity="1.0" stroke-linecap="round" stroke-linejoin="round"/>
    <path d="M 44.79768371582031 353.3943176269531 C 44.35334396362305 359.3073425292969 45.57225036621094 364.4486389160156 46.74491500854492 368.8772888183594 C 57.52350616455078 371.3943176269531 67.18921661376953 373.30340576171875 78.58153533935547 377.1850891113281 C 105.9146957397461 376.45703125 134.20828247070312 375.5528869628906 163.33648681640625 373.9134521484375 C 144.27508544921875 352.5794372558594 122.50946044921875 343.0415344238281 105.19601440429688 333.81451416015625 C 87.41793823242188 334.92822265625 70.57282257080078 333.4491882324219 57.08025360107422 333.6460266113281 C 52.49519348144531 340.60711669921875 48.064002990722656 345.6238098144531 44.79768371582031 353.3943176269531" stroke-width="0.0" fill="rgb(43, 57, 77)" opacity="0.9994741" stroke="rgb(0, 0, 0)" stroke-opacity="1.0" stroke-linecap="round" stroke-linejoin="round"/>
    <path d="M 194.3740997314453 220.8599090576172 C 203.41998291015625 220.20135498046875 209.18702697753906 227.61952209472656 218.99693298339844 227.84202575683594 C 235.5840301513672 232.7135009765625 250.87803649902344 239.76522827148438 265.5623474121094 248.37754821777344 C 277.984130859375 252.4667510986328 291.7088928222656 255.18109130859375 309.7042541503906 252.50904846191406 C 292.26788330078125 242.47605895996094 276.2935791015625 234.978759765625 261.9559326171875 228.3883819580078 C 237.94833374023438 229.32716369628906 220.6751708984375 225.97080993652344 206.6809539794922 218.76158142089844 C 200.7824249267578 217.3949737548828 196.74777221679688 220.0001220703125 194.3740997314453 220.8599090576172" stroke-width="0.0" fill="rgb(159, 183, 209)" opacity="0.99494624" stroke="rgb(0, 0, 0)" stroke-opacity="1.0" stroke-linecap="round" stroke-linejoin="round"/>
    <path d="M 85.45040130615234 414.21368408203125 C 94.29503631591797 419.809326171875 102.5338134765625 421.39471435546875 113.20893859863281 417.42950439453125 C 148.66830444335938 415.1241760253906 183.6304931640625 413.8663330078125 219.37002563476562 409.2861022949219 C 183.88499450683594 402.2934265136719 147.8997802734375 403.8116760253906 112.35346984863281 405.5984802246094 C 104.90306854248047 409.4916076660156 93.86129760742188 409.1578063964844 85.45040130615234 414.21368408203125" stroke-width="0.0" fill="rgb(52, 50, 59)" opacity="1.000412" stroke="rgb(0, 0, 0)" stroke-opacity="1.0" stroke-linecap="round" stroke-linejoin="round"/>
    <path d="M 26.242942810058594 313.49505615234375 C 28.03003692626953 311.914306640625 28.386404037475586 312.8040771484375 29.749156951904297 313.2917175292969 C 32.39204788208008 373.505126953125 35.12263488769531 434.346923828125 30.914451599121094 503.4269714355469 C 24.312191009521484 441.86834716796875 27.38949203491211 375.8365478515625 26.242942810058594 313.49505615234375" stroke-width="0.0" fill="rgb(50, 43, 47)" opacity="0.9964669" stroke="rgb(0, 0, 0)" stroke-opacity="1.0" stroke-linecap="round" stroke-linejoin="round"/>
    <path d="M 409.4183349609375 414.83453369140625 C 412.3831481933594 421.798095703125 416.8334655761719 426.9859924316406 426.4408874511719 434.5639953613281 C 434.4385070800781 433.2764892578125 440.7201232910156 430.3929748535156 442.9163818359375 425.4559631347656 C 442.2509765625 414.0168762207031 441.09063720703125 407.7962951660156 437.5870361328125 403.5921936035156 C 424.6269836425781 403.65350341796875 416.8428955078125 407.9154968261719 409.4183349609375 414.83453369140625" stroke-width="0.0" fill="rgb(43, 40, 43)" opacity="1.0011318" stroke="rgb(0, 0, 0)" stroke-opacity="1.0" stroke-linecap="round" stroke-linejoin="round"/>
    <path d="M 314.6650390625 380.0603332519531 C 311.9884948730469 386.53485107421875 309.9925231933594 392.8428039550781 308.0603332519531 403.93988037109375 C 311.3241882324219 407.5695495605469 313.63726806640625 410.7264709472656 319.6668701171875 412.7759704589844 C 325.02862548828125 408.6912841796875 326.77069091796875 405.46728515625 324.4769592285156 400.1862487792969 C 321.9861755371094 392.3273010253906 321.7915344238281 385.5326232910156 314.6650390625 380.0603332519531" stroke-width="0.0" fill="rgb(36, 38, 49)" opacity="1.0012398" stroke="rgb(0, 0, 0)" stroke-opacity="1.0" stroke-linecap="round" stroke-linejoin="round"/>
    <path d="M 145.52891540527344 361.0048828125 C 154.13197326660156 368.6340026855469 161.9818115234375 374.4777526855469 173.9679718017578 380.19610595703125 C 176.85830688476562 368.10400390625 171.5277099609375 365.7112121582031 167.1540985107422 362.29193115234375 C 163.3893280029297 357.9237976074219 157.96351623535156 355.312744140625 145.52891540527344 361.0048828125" stroke-width="0.0" fill="rgb(127, 140, 153)" opacity="1.0136396" stroke="rgb(0, 0, 0)" stroke-opacity="1.0" stroke-linecap="round" stroke-linejoin="round"/>
    <path d="M 310.4454650878906 399.57183837890625 C 314.1813659667969 403.6073303222656 314.47943115234375 405.9901123046875 313.8863525390625 405.4722595214844 C 302.5045166015625 407.474365234375 288.8611755371094 410.2548522949219 278.58770751953125 406.25396728515625 C 288.64935302734375 401.44415283203125 297.96185302734375 400.2261962890625 310.4454650878906 399.57183837890625" stroke-width="0.0" fill="rgb(98, 103, 109)" opacity="1.0029049" stroke="rgb(0, 0, 0)" stroke-opacity="1.0" stroke-linecap="round" stroke-linejoin="round"/>
    <path d="M 219.4711456298828 374.3670654296875 C 173.1883087158203 375.3490905761719 130.52613830566406 376.61517333984375 88.1437759399414 378.63031005859375 C 90.71160888671875 386.8699035644531 93.57415008544922 390.28863525390625 96.95697784423828 388.8711242675781 C 91.71308898925781 388.3072204589844 86.36742401123047 391.8990478515625 82.43711853027344 396.3270568847656 C 84.42381286621094 405.755615234375 87.44422912597656 410.16265869140625 92.32463073730469 406.6670227050781 C 133.26731872558594 403.8541564941406 175.64288330078125 408.38134765625 216.20513916015625 407.5500793457031 C 212.54037475585938 393.6586608886719 212.8970184326172 385.3761901855469 219.4711456298828 374.3670654296875" stroke-width="0.0" fill="rgb(100, 85, 75)" opacity="1.0000963" stroke="rgb(0, 0, 0)" stroke-opacity="1.0" stroke-linecap="round" stroke-linejoin="round"/>
    <path d="M 424.98687744140625 438.6129150390625 C 422.25152587890625 429.92669677734375 418.758056640625 427.7323303222656 415.14080810546875 425.6266784667969 C 415.85137939453125 421.98388671875 413.2139587402344 420.62164306640625 409.8660888671875 419.9666748046875 C 402.03045654296875 421.1435546875 393.1622009277344 421.08905029296875 385.6830139160156 422.28497314453125 C 381.5787353515625 423.8153076171875 378.8385314941406 426.1642761230469 376.169677734375 434.3441467285156 C 376.397216796875 438.7950744628906 381.8382568359375 441.29449462890625 390.7489318847656 446.5486145019531 C 404.5636901855469 444.55224609375 415.85443115234375 441.5181579589844 424.98687744140625 438.6129150390625" stroke-width="0.0" fill="rgb(39, 38, 37)" opacity="0.99937093" stroke="rgb(0, 0, 0)" stroke-opacity="1.0" stroke-linecap="round" stroke-linejoin="round"/>
    <path d="M 317.2490234375 378.9241027832031 C 300.7206726074219 380.6263732910156 290.0567932128906 385.7131652832031 278.3308410644531 388.9813537597656 C 269.05584716796875 386.4600524902344 267.0658264160156 389.5602111816406 265.725830078125 401.9820861816406 C 277.8336181640625 403.9569396972656 292.2256164550781 405.47967529296875 313.0787658691406 406.60205078125 C 315.680908203125 398.43756103515625 317.35821533203125 392.13421630859375 317.2490234375 378.9241027832031" stroke-width="0.0" fill="rgb(54, 53, 60)" opacity="0.9971824" stroke="rgb(0, 0, 0)" stroke-opacity="1.0" stroke-linecap="round" stroke-linejoin="round"/>
    <path d="M 242.02896118164062 347.0411071777344 C 241.78208923339844 387.7584533691406 243.7333221435547 420.52020263671875 247.5186309814453 453.2543029785156 C 246.57298278808594 461.057373046875 247.92254638671875 464.9645690917969 257.91748046875 465.07867431640625 C 250.54103088378906 427.17327880859375 247.869140625 388.3174743652344 242.02896118164062 347.0411071777344" stroke-width="0.0" fill="rgb(37, 36, 39)" opacity="1.0007738" stroke="rgb(0, 0, 0)" stroke-opacity="1.0" stroke-linecap="round" stroke-linejoin="round"/>
    <path d="M 330.7620544433594 351.37945556640625 C 307.45831298828125 350.6653747558594 288.9595947265625 352.3820495605469 270.1954650878906 361.2906799316406 C 286.790283203125 366.3380432128906 305.01898193359375 367.3780517578125 327.453857421875 366.298095703125 C 329.4335021972656 360.644775390625 330.6175537109375 357.2888488769531 330.7620544433594 351.37945556640625" stroke-width="0.0" fill="rgb(94, 85, 80)" opacity="1.0055269" stroke="rgb(0, 0, 0)" stroke-opacity="1.0" stroke-linecap="round" stroke-linejoin="round"/>
    <path d="M 255.2371826171875 438.95867919921875 C 254.75257873535156 449.75079345703125 256.77886962890625 456.66180419921875 263.43597412109375 463.0398864746094 C 271.3877258300781 461.55999755859375 277.2653503417969 459.10186767578125 284.6009826660156 455.4530334472656 C 281.9757080078125 446.33160400390625 277.71038818359375 442.0111999511719 271.40814208984375 440.76251220703125 C 265.63153076171875 437.5506896972656 260.5592346191406 436.77886962890625 255.2371826171875 438.95867919921875" stroke-width="0.0" fill="rgb(37, 35, 40)" opacity="1.000166" stroke="rgb(0, 0, 0)" stroke-opacity="1.0" stroke-linecap="round" stroke-linejoin="round"/>
    <path d="M 222.15972900390625 347.5284423828125 C 208.05722045898438 354.8032531738281 200.0382080078125 362.8982238769531 191.9154052734375 373.0334167480469 C 199.4784393310547 375.09759521484375 208.61228942871094 376.7371826171875 223.99136352539062 377.6063537597656 C 224.86764526367188 367.45257568359375 224.77975463867188 357.9218444824219 222.15972900390625 347.5284423828125" stroke-width="0.0" fill="rgb(59, 63, 72)" opacity="1.000324" stroke="rgb(0, 0, 0)" stroke-opacity="1.0" stroke-linecap="round" stroke-linejoin="round"/>
    <path d="M 178.86741638183594 351.20947265625 C 181.8876495361328 358.8910217285156 184.9721221923828 362.775390625 189.01072692871094 366.29449462890625 C 200.35508728027344 364.4742126464844 207.76092529296875 363.0775451660156 214.73550415039062 360.95379638671875 C 215.38465881347656 357.7783203125 214.9656982421875 354.79998779296875 214.7762451171875 350.7505187988281 C 203.58815002441406 351.33184814453125 193.0072021484375 350.83502197265625 178.86741638183594 351.20947265625" stroke-width="0.0" fill="rgb(105, 95, 95)" opacity="1.0014062" stroke="rgb(0, 0, 0)" stroke-opacity="1.0" stroke-linecap="round" stroke-linejoin="round"/>
    <path d="M 61.200069427490234 392.5141296386719 C 70.54463195800781 392.6624450683594 83.33953857421875 392.4886474609375 103.30950164794922 391.981689453125 C 95.32003784179688 381.9180603027344 81.82301330566406 384.693359375 73.78047180175781 377.75238037109375 C 70.16767120361328 378.7203369140625 65.83824157714844 382.27142333984375 61.200069427490234 392.5141296386719" stroke-width="0.0" fill="rgb(59, 61, 69)" opacity="1.0005934" stroke="rgb(0, 0, 0)" stroke-opacity="1.0" stroke-linecap="round" stroke-linejoin="round"/>
    <path d="M 179.0386199951172 349.635498046875 C 173.609375 354.8197326660156 171.2698211669922 360.65863037109375 169.38134765625 373.97723388671875 C 173.2653045654297 374.73431396484375 178.39573669433594 374.3950500488281 186.68264770507812 373.4517517089844 C 189.80947875976562 372.53948974609375 192.37872314453125 371.78778076171875 191.8401336669922 368.3578186035156 C 188.1464080810547 360.33184814453125 185.3381805419922 353.9652099609375 179.0386199951172 349.635498046875" stroke-width="0.0" fill="rgb(58, 66, 79)" opacity="0.9973565" stroke="rgb(0, 0, 0)" stroke-opacity="1.0" stroke-linecap="round" stroke-linejoin="round"/>
    <path d="M 64.6937026977539 372.0605163574219 C 57.9023551940918 372.5696716308594 51.839881896972656 372.8748474121094 45.432403564453125 370.9387512207031 C 43.98451232910156 373.5391845703125 43.43640899658203 378.0103759765625 44.249671936035156 383.3909912109375 C 51.96400833129883 384.4678039550781 58.0552978515625 384.5791320800781 64.25294494628906 382.359130859375 C 68.064208984375 379.85345458984375 68.09729766845703 375.7620544433594 64.6937026977539 372.0605163574219" stroke-width="0.0" fill="rgb(84, 70, 58)" opacity="0.99907166" stroke="rgb(0, 0, 0)" stroke-opacity="1.0" stroke-linecap="round" stroke-linejoin="round"/>
    <path d="M 320.5180969238281 436.1741943359375 C 320.5312805175781 443.23919677734375 314.1324462890625 444.76568603515625 315.0320129394531 451.42333984375 C 319.3829040527344 456.9068298339844 325.22039794921875 455.6319885253906 334.4200134277344 454.9891052246094 C 333.738037109375 446.3304138183594 333.013916015625 441.0588073730469 332.6180419921875 434.65118408203125 C 327.17388916015625 434.1725769042969 323.6177673339844 434.4713134765625 320.5180969238281 436.1741943359375" stroke-width="0.0" fill="rgb(42, 38, 40)" opacity="1.000456" stroke="rgb(0, 0, 0)" stroke-opacity="1.0" stroke-linecap="round" stroke-linejoin="round"/>
    <path d="M 273.7586975097656 422.3398132324219 C 283.09527587890625 424.3283996582031 293.8536682128906 424.44854736328125 310.7024230957031 423.4388732910156 C 308.9501953125 414.5495300292969 305.0804138183594 414.18878173828125 300.2987365722656 414.27215576171875 C 289.268310546875 412.03155517578125 281.03460693359375 412.5484313964844 273.7586975097656 422.3398132324219" stroke-width="0.0" fill="rgb(53, 48, 47)" opacity="1.000012" stroke="rgb(0, 0, 0)" stroke-opacity="1.0" stroke-linecap="round" stroke-linejoin="round"/>
    <path d="M 256.1880187988281 363.53411865234375 C 256.7968444824219 365.8507385253906 257.290283203125 368.36322021484375 259.8742980957031 369.7225646972656 C 269.2509765625 369.57806396484375 278.8758239746094 369.3226013183594 292.7412414550781 365.6827697753906 C 286.0476379394531 359.99609375 277.635986328125 359.5636291503906 266.6392517089844 359.40283203125 C 262.6881103515625 358.5091857910156 259.450439453125 360.6534118652344 256.1880187988281 363.53411865234375" stroke-width="0.0" fill="rgb(57, 59, 70)" opacity="1.0004227" stroke="rgb(0, 0, 0)" stroke-opacity="1.0" stroke-linecap="round" stroke-linejoin="round"/>
    <path d="M 476.2322082519531 424.5114440917969 C 471.5352478027344 423.8615417480469 465.2056884765625 425.25274658203125 460.30572509765625 426.35235595703125 C 455.9860534667969 424.517333984375 454.887451171875 428.14886474609375 454.27471923828125 435.438720703125 C 459.14361572265625 437.3873596191406 465.1218566894531 436.7886047363281 472.77398681640625 435.9991455078125 C 474.5047607421875 433.16290283203125 475.91839599609375 430.8294372558594 476.2322082519531 424.5114440917969" stroke-width="0.0" fill="rgb(41, 36, 33)" opacity="1.0005387" stroke="rgb(0, 0, 0)" stroke-opacity="1.0" stroke-linecap="round" stroke-linejoin="round"/>
    <path d="M 234.32711791992188 418.7321472167969 C 226.35353088378906 412.9206848144531 219.55374145507812 413.8312072753906 212.3744659423828 416.04852294921875 C 210.72084045410156 421.3311462402344 209.45068359375 425.2805480957031 213.9189453125 432.4737548828125 C 222.72683715820312 429.215087890625 228.87977600097656 425.74700927734375 234.32711791992188 418.7321472167969" stroke-width="0.0" fill="rgb(71, 58, 39)" opacity="1.0000598" stroke="rgb(0, 0, 0)" stroke-opacity="1.0" stroke-linecap="round" stroke-linejoin="round"/>
    <path d="M 336.2297668457031 351.5510559082031 C 338.0343322753906 355.819580078125 338.4920654296875 361.9565734863281 337.3473205566406 370.6446533203125 C 339.2372741699219 370.64801025390625 342.740234375 369.9256286621094 348.0306091308594 369.89630126953125 C 349.3734436035156 363.60675048828125 350.56353759765625 357.97967529296875 350.34814453125 351.0571594238281 C 343.9203186035156 349.6802062988281 339.94049072265625 349.5627136230469 336.2297668457031 351.5510559082031" stroke-width="0.0" fill="rgb(98, 86, 76)" opacity="1.0007085" stroke="rgb(0, 0, 0)" stroke-opacity="1.0" stroke-linecap="round" stroke-linejoin="round"/>
    <path d="M 340.2820129394531 372.7513427734375 C 344.6192932128906 376.515869140625 342.1937255859375 380.45404052734375 344.369140625 381.23712158203125 C 338.64617919921875 382.87493896484375 327.3105163574219 383.7298583984375 307.4282531738281 381.0123596191406 C 317.5504150390625 372.0204162597656 328.4897766113281 371.5157470703125 340.2820129394531 372.7513427734375" stroke-width="0.0" fill="rgb(59, 54, 56)" opacity="0.99975723" stroke="rgb(0, 0, 0)" stroke-opacity="1.0" stroke-linecap="round" stroke-linejoin="round"/>
    <path d="M 147.0252227783203 353.7225341796875 C 154.03887939453125 359.20489501953125 162.5155487060547 360.1674499511719 174.78396606445312 363.2520446777344 C 175.46688842773438 361.919921875 177.5526885986328 358.66717529296875 178.75509643554688 353.2545166015625 C 163.74160766601562 349.9704895019531 155.35061645507812 350.7503662109375 147.0252227783203 353.7225341796875" stroke-width="0.0" fill="rgb(102, 97, 101)" opacity="1.002627" stroke="rgb(0, 0, 0)" stroke-opacity="1.0" stroke-linecap="round" stroke-linejoin="round"/>
    <path d="M 505.1642761230469 201.88998413085938 C 491.78009033203125 199.8397979736328 488.8311767578125 206.08407592773438 483.7615661621094 210.212158203125 C 484.1349792480469 213.74462890625 484.5127258300781 217.4873809814453 484.2073059082031 222.34754943847656 C 491.1069641113281 216.82785034179688 499.0927734375 212.62416076660156 505.1642761230469 201.88998413085938" stroke-width="0.0" fill="rgb(119, 146, 177)" opacity="1.0004802" stroke="rgb(0, 0, 0)" stroke-opacity="1.0" stroke-linecap="round" stroke-linejoin="round"/>
    <path d="M 314.6022033691406 454.6112365722656 C 311.27996826171875 445.6564636230469 307.91058349609375 444.91619873046875 301.5328063964844 447.92193603515625 C 297.720703125 448.8089294433594 295.6077575683594 450.7579650878906 296.34326171875 458.6607360839844 C 305.5107421875 458.4967346191406 311.1453552246094 457.555908203125 314.6022033691406 454.6112365722656" stroke-width="0.0" fill="rgb(31, 30, 35)" opacity="1.0003196" stroke="rgb(0, 0, 0)" stroke-opacity="1.0" stroke-linecap="round" stroke-linejoin="round"/>
    <path d="M 70.20177459716797 389.3841857910156 C 61.049888610839844 394.3858947753906 57.1088752746582 400.84814453125 53.83302688598633 410.5834045410156 C 54.76655578613281 409.4338073730469 57.71880340576172 409.7318115234375 60.675167083740234 410.4575500488281 C 63.72307205200195 404.06317138671875 69.13754272460938 400.33148193359375 70.20177459716797 389.3841857910156" stroke-width="0.0" fill="rgb(97, 81, 72)" opacity="1.0013145" stroke="rgb(0, 0, 0)" stroke-opacity="1.0" stroke-linecap="round" stroke-linejoin="round"/>
    <path d="M 2.5295515060424805 497.5408020019531 C 0.6117969155311584 504.1040344238281 0.3854225277900696 505.52362060546875 1.3221383094787598 505.2022399902344 C 10.95678424835205 505.6559753417969 16.22903823852539 506.21319580078125 21.186708450317383 501.7159729003906 C 16.410181045532227 496.1916198730469 10.951859474182129 495.3179626464844 2.5295515060424805 497.5408020019531" stroke-width="0.0" fill="rgb(31, 30, 36)" opacity="1.0002944" stroke="rgb(0, 0, 0)" stroke-opacity="1.0" stroke-linecap="round" stroke-linejoin="round"/>
    <path d="M 399.91912841796875 382.3229675292969 C 405.88232421875 385.89892578125 403.9744873046875 389.9715881347656 403.101806640625 384.87933349609375 C 400.7740783691406 392.8475341796875 397.3621520996094 396.405029296875 387.92864990234375 395.8953552246094 C 390.31622314453125 386.7093200683594 394.4783935546875 383.7016296386719 399.91912841796875 382.3229675292969" stroke-width="0.0" fill="rgb(46, 43, 49)" opacity="1.0000985" stroke="rgb(0, 0, 0)" stroke-opacity="1.0" stroke-linecap="round" stroke-linejoin="round"/>
    <path d="M 128.6116485595703 457.5509948730469 C 131.17254638671875 462.8743896484375 132.8800506591797 463.30426025390625 130.0587158203125 461.0010681152344 C 140.8028564453125 464.90618896484375 147.01416015625 463.9469299316406 150.78436279296875 454.5793762207031 C 138.66619873046875 454.1944885253906 133.03350830078125 455.8031311035156 128.6116485595703 457.5509948730469" stroke-width="0.0" fill="rgb(41, 40, 40)" opacity="1.0003252" stroke="rgb(0, 0, 0)" stroke-opacity="1.0" stroke-linecap="round" stroke-linejoin="round"/>
    <path d="M 51.964515686035156 421.4174499511719 C 53.95465850830078 423.8004150390625 53.32620620727539 426.4022521972656 54.56687927246094 424.9947509765625 C 50.20252990722656 426.03350830078125 42.777278900146484 426.4022521972656 28.526836395263672 424.9203796386719 C 35.69076919555664 420.6663818359375 44.838157653808594 421.5034484863281 51.964515686035156 421.4174499511719" stroke-width="0.0" fill="rgb(109, 101, 92)" opacity="1.0012667" stroke="rgb(0, 0, 0)" stroke-opacity="1.0" stroke-linecap="round" stroke-linejoin="round"/>
    <path d="M 261.7203369140625 409.39306640625 C 261.294921875 414.453857421875 262.19134521484375 418.040771484375 265.6827697753906 421.8434753417969 C 270.8507385253906 417.9932861328125 271.1712341308594 414.48394775390625 271.47283935546875 409.88592529296875 C 268.1237487792969 408.513427734375 265.85418701171875 408.5926208496094 261.7203369140625 409.39306640625" stroke-width="0.0" fill="rgb(48, 43, 39)" opacity="1.0000411" stroke="rgb(0, 0, 0)" stroke-opacity="1.0" stroke-linecap="round" stroke-linejoin="round"/>
    <path d="M 304.94451904296875 432.29632568359375 C 312.043701171875 435.9815979003906 309.7706298828125 440.2025146484375 309.50494384765625 438.8306884765625 C 307.12945556640625 440.0877685546875 304.5003967285156 443.9003601074219 297.8292236328125 443.4763488769531 C 299.5268249511719 436.3374938964844 302.12005615234375 433.9284973144531 304.94451904296875 432.29632568359375" stroke-width="0.0" fill="rgb(50, 43, 40)" opacity="1.0000266" stroke="rgb(0, 0, 0)" stroke-opacity="1.0" stroke-linecap="round" stroke-linejoin="round"/>
    <path d="M 193.36904907226562 461.93243408203125 C 193.29090881347656 464.6939392089844 196.16738891601562 465.4572448730469 204.63710021972656 466.2132873535156 C 204.1053466796875 458.50604248046875 203.26333618164062 457.0406494140625 201.7428436279297 456.4984436035156 C 197.0857391357422 455.5302429199219 195.24478149414062 456.3893737792969 193.36904907226562 461.93243408203125" stroke-width="0.0" fill="rgb(41, 38, 40)" opacity="0.99986184" stroke="rgb(0, 0, 0)" stroke-opacity="1.0" stroke-linecap="round" stroke-linejoin="round"/>
    <path d="M 79.05086517333984 396.57672119140625 C 73.04117584228516 396.3249816894531 69.35321807861328 396.5126037597656 70.10359954833984 399.7087707519531 C 61.75027847290039 411.4283142089844 55.83564376831055 422.5491027832031 52.23530960083008 439.74273681640625 C 49.96615219116211 459.31982421875 52.763458251953125 478.0556640625 56.33659362792969 493.70550537109375 C 65.6517333984375 493.9611511230469 69.64376068115234 493.2593078613281 74.366455078125 491.80938720703125 C 77.55831146240234 488.4443054199219 80.12188720703125 484.2381591796875 81.11070251464844 477.6455383300781 C 79.3351821899414 455.32147216796875 87.03771209716797 439.6314392089844 87.93753051757812 419.1988830566406 C 85.4647216796875 409.2666320800781 82.1866455078125 402.2734069824219 79.05086517333984 396.57672119140625" stroke-width="0.0" fill="rgb(73, 56, 40)" opacity="0.9994834" stroke="rgb(0, 0, 0)" stroke-opacity="1.0" stroke-linecap="round" stroke-linejoin="round"/>
    <path d="M 113.68769836425781 376.8085632324219 C 133.52842712402344 376.69195556640625 148.49090576171875 375.83905029296875 161.41224670410156 374.08709716796875 C 151.4503173828125 360.2451477050781 142.18736267089844 353.9168701171875 129.84088134765625 348.977294921875 C 121.65067291259766 353.27984619140625 116.54972839355469 361.02777099609375 113.68769836425781 376.8085632324219" stroke-width="0.0" fill="rgb(50, 61, 76)" opacity="0.9997496" stroke="rgb(0, 0, 0)" stroke-opacity="1.0" stroke-linecap="round" stroke-linejoin="round"/>
    <path d="M 101.05907440185547 417.4718933105469 C 99.5588150024414 418.815673828125 98.87850952148438 419.1646728515625 101.67604064941406 416.6687927246094 C 112.2888412475586 420.81695556640625 119.1732177734375 421.3916015625 125.73409271240234 416.0731506347656 C 117.39897918701172 413.0550231933594 109.86894989013672 414.58880615234375 101.05907440185547 417.4718933105469" stroke-width="0.0" fill="rgb(104, 104, 108)" opacity="0.99629205" stroke="rgb(0, 0, 0)" stroke-opacity="1.0" stroke-linecap="round" stroke-linejoin="round"/>
    <path d="M 513.6378173828125 430.10540771484375 C 437.3595275878906 437.2793273925781 368.82611083984375 448.3957214355469 299.3835754394531 459.7859802246094 C 282.2753601074219 464.53680419921875 263.43798828125 467.9525451660156 245.83973693847656 472.4740905761719 C 245.99957275390625 479.7055969238281 240.2736358642578 481.6938171386719 237.38888549804688 489.4350280761719 C 245.86212158203125 487.6953125 249.96112060546875 484.7296447753906 252.65504455566406 485.07501220703125 C 248.08065795898438 495.6728210449219 241.3377685546875 499.6866149902344 232.845458984375 503.53900146484375 C 223.45132446289062 504.1461486816406 211.3054656982422 504.9214782714844 199.86476135253906 503.90325927734375 C 202.0347900390625 496.2048034667969 201.43069458007812 489.6717529296875 199.31716918945312 486.98126220703125 C 195.3846435546875 495.3411865234375 190.82928466796875 500.5381774902344 184.34812927246094 503.71533203125 C 176.79318237304688 506.759521484375 164.7022247314453 505.8451232910156 156.66891479492188 514.3372192382812 C 274.6382141113281 514.8797607421875 391.562255859375 515.2151489257812 513.8662109375 515.5475463867188 C 514.3511352539062 484.6847229003906 514.6083374023438 455.98114013671875 513.6378173828125 430.10540771484375" stroke-width="0.0" fill="rgb(54, 49, 39)" opacity="0.9899156" stroke="rgb(0, 0, 0)" stroke-opacity="1.0" stroke-linecap="round" stroke-linejoin="round"/>
    <path d="M 444.19854736328125 287.7569885253906 C 437.4593811035156 317.4350891113281 430.9418640136719 346.8685607910156 425.88543701171875 383.3305358886719 C 425.3869934082031 392.9100646972656 430.865966796875 401.7079162597656 443.7822570800781 410.96038818359375 C 447.5929870605469 381.6904296875 442.8646545410156 345.3164367675781 450.58868408203125 318.3122253417969 C 455.078125 308.0425109863281 452.8887939453125 297.2840270996094 444.19854736328125 287.7569885253906" stroke-width="0.0" fill="rgb(67, 55, 41)" opacity="0.9937983" stroke="rgb(0, 0, 0)" stroke-opacity="1.0" stroke-linecap="round" stroke-linejoin="round"/>
    <path d="M 141.0315704345703 501.86041259765625 C 129.70297241210938 501.01171875 124.58356475830078 501.9635925292969 118.20700073242188 508.9964599609375 C 118.19844055175781 502.3281555175781 118.79786682128906 497.757568359375 115.52887725830078 497.068603515625 C 108.54682922363281 501.64105224609375 111.71018981933594 506.4544677734375 112.42443084716797 507.9487609863281 C 107.27080535888672 505.889404296875 107.20460510253906 501.2703857421875 105.19628143310547 497.7866516113281 C 104.36780548095703 501.4425964355469 102.9078369140625 503.0287780761719 102.23749542236328 505.2503356933594 C 99.76136779785156 505.4969482421875 102.01852416992188 501.5314636230469 102.94670867919922 499.4919128417969 C 96.26729583740234 499.788818359375 95.09310150146484 499.9346008300781 96.00503540039062 506.82830810546875 C 93.9351577758789 502.07720947265625 94.35469818115234 499.4848937988281 90.88928985595703 497.2837219238281 C 60.720394134521484 499.3375549316406 31.270063400268555 502.4126892089844 1.7817504405975342 512.1397705078125 C 48.61592483520508 515.389892578125 93.53353118896484 514.8824462890625 139.4772491455078 514.7057495117188 C 139.36378479003906 508.9857482910156 142.03590393066406 508.23974609375 141.0315704345703 501.86041259765625" stroke-width="0.0" fill="rgb(53, 49, 41)" opacity="1.0000477" stroke="rgb(0, 0, 0)" stroke-opacity="1.0" stroke-linecap="round" stroke-linejoin="round"/>
    <path d="M 435.47705078125 405.35577392578125 C 429.2787780761719 407.9455261230469 426.7091064453125 414.83868408203125 421.74603271484375 420.66571044921875 C 420.6023254394531 423.7920837402344 421.4871520996094 427.76214599609375 423.1075134277344 431.51776123046875 C 429.95587158203125 431.07684326171875 434.97528076171875 429.6598205566406 440.7016906738281 427.7162170410156 C 442.1835021972656 417.5689697265625 442.56817626953125 411.2823486328125 435.47705078125 405.35577392578125" stroke-width="0.0" fill="rgb(52, 50, 53)" opacity="1.0012176" stroke="rgb(0, 0, 0)" stroke-opacity="1.0" stroke-linecap="round" stroke-linejoin="round"/>
    <path d="M 98.45431518554688 322.0503234863281 C 103.86370086669922 323.01519775390625 104.1008529663086 323.7353515625 108.1943359375 327.11627197265625 C 108.36328125 338.8827209472656 107.64105987548828 351.006103515625 99.72976684570312 362.2239685058594 C 96.3525390625 345.2381286621094 97.00965881347656 332.66265869140625 98.45431518554688 322.0503234863281" stroke-width="0.0" fill="rgb(65, 74, 85)" opacity="0.9994567" stroke="rgb(0, 0, 0)" stroke-opacity="1.0" stroke-linecap="round" stroke-linejoin="round"/>
    <path d="M 64.98328399658203 337.487060546875 C 67.78081512451172 331.945556640625 68.08097076416016 334.9593505859375 70.42180633544922 338.19097900390625 C 73.77983856201172 348.12017822265625 74.33743286132812 360.4696960449219 69.94991302490234 378.3960876464844 C 63.56559371948242 365.6673889160156 64.64266967773438 350.77960205078125 64.98328399658203 337.487060546875" stroke-width="0.0" fill="rgb(51, 63, 77)" opacity="1.0000812" stroke="rgb(0, 0, 0)" stroke-opacity="1.0" stroke-linecap="round" stroke-linejoin="round"/>
    <path d="M 437.7685546875 407.3779296875 C 432.0089111328125 401.34002685546875 426.63818359375 402.7734069824219 421.6197509765625 404.3714294433594 C 414.51702880859375 406.25732421875 408.1570739746094 408.7596740722656 406.26251220703125 420.6929016113281 C 420.3413391113281 417.09649658203125 428.50445556640625 412.524658203125 437.7685546875 407.3779296875" stroke-width="0.0" fill="rgb(45, 41, 44)" opacity="0.9977509" stroke="rgb(0, 0, 0)" stroke-opacity="1.0" stroke-linecap="round" stroke-linejoin="round"/>
    <path d="M 117.01074981689453 331.389404296875 C 109.13465881347656 337.3529052734375 109.8106460571289 344.74859619140625 110.5738296508789 353.468505859375 C 110.95841979980469 355.39471435546875 113.04720306396484 357.4150695800781 121.70455932617188 358.59942626953125 C 120.47187042236328 345.9779968261719 118.96939849853516 338.1091613769531 117.01074981689453 331.389404296875" stroke-width="0.0" fill="rgb(40, 56, 80)" opacity="0.9997559" stroke="rgb(0, 0, 0)" stroke-opacity="1.0" stroke-linecap="round" stroke-linejoin="round"/>
    <path d="M 179.74044799804688 349.35595703125 C 174.7921142578125 352.91082763671875 171.95095825195312 358.3491516113281 170.50674438476562 369.6427307128906 C 179.7938232421875 369.51715087890625 182.247314453125 366.67108154296875 182.3607940673828 363.64373779296875 C 182.69610595703125 356.1744384765625 184.39797973632812 351.26239013671875 179.74044799804688 349.35595703125" stroke-width="0.0" fill="rgb(54, 64, 76)" opacity="0.999789" stroke="rgb(0, 0, 0)" stroke-opacity="1.0" stroke-linecap="round" stroke-linejoin="round"/>
    <path d="M 313.4908447265625 375.6875915527344 C 315.9739990234375 381.5233154296875 319.03924560546875 381.9674072265625 316.8497009277344 379.1609802246094 C 326.7441101074219 384.3136901855469 335.1590270996094 384.3819885253906 340.4593811035156 375.4521789550781 C 326.09967041015625 373.84783935546875 319.1180419921875 374.1956481933594 313.4908447265625 375.6875915527344" stroke-width="0.0" fill="rgb(51, 50, 54)" opacity="0.99995804" stroke="rgb(0, 0, 0)" stroke-opacity="1.0" stroke-linecap="round" stroke-linejoin="round"/>
    <path d="M 219.67184448242188 348.9172668457031 C 213.63223266601562 352.7846374511719 213.31370544433594 356.3648681640625 214.69895935058594 361.5987854003906 C 217.65054321289062 364.3702392578125 220.0247039794922 364.1168212890625 224.728271484375 362.2460632324219 C 224.09414672851562 354.3923645019531 222.89492797851562 350.4969787597656 219.67184448242188 348.9172668457031" stroke-width="0.0" fill="rgb(61, 63, 76)" opacity="0.99978745" stroke="rgb(0, 0, 0)" stroke-opacity="1.0" stroke-linecap="round" stroke-linejoin="round"/>
    <path d="M 234.15057373046875 479.6650085449219 C 239.6663360595703 484.7771911621094 239.24517822265625 487.7256774902344 240.45162963867188 487.0789489746094 C 237.35079956054688 488.95318603515625 233.6207275390625 489.873291015625 226.0924530029297 488.3155822753906 C 226.7324676513672 481.8016662597656 229.81326293945312 480.40289306640625 234.15057373046875 479.6650085449219" stroke-width="0.0" fill="rgb(38, 35, 33)" opacity="0.99995" stroke="rgb(0, 0, 0)" stroke-opacity="1.0" stroke-linecap="round" stroke-linejoin="round"/>
    <path d="M 320.7145080566406 435.48779296875 C 320.3291931152344 439.239013671875 320.26861572265625 440.9079284667969 322.064453125 443.1324157714844 C 328.8658142089844 443.8403015136719 331.2669677734375 443.7562255859375 333.68927001953125 437.6743469238281 C 330.295166015625 434.42828369140625 326.8672790527344 434.48638916015625 320.7145080566406 435.48779296875" stroke-width="0.0" fill="rgb(51, 43, 40)" opacity="0.99987525" stroke="rgb(0, 0, 0)" stroke-opacity="1.0" stroke-linecap="round" stroke-linejoin="round"/>
    <path d="M 104.65434265136719 416.178955078125 C 105.71270751953125 417.2690734863281 106.34624481201172 418.04595947265625 108.06840515136719 417.2105407714844 C 114.09562683105469 418.6605529785156 119.21831512451172 420.1172180175781 123.95050048828125 416.55841064453125 C 117.9262466430664 413.640380859375 110.27289581298828 416.47882080078125 104.65434265136719 416.178955078125" stroke-width="0.0" fill="rgb(129, 128, 129)" opacity="0.9996405" stroke="rgb(0, 0, 0)" stroke-opacity="1.0" stroke-linecap="round" stroke-linejoin="round"/>
    <path d="M 513.7787475585938 430.4656066894531 C 464.96484375 436.46124267578125 421.9620361328125 443.13055419921875 378.58111572265625 450.6270751953125 C 365.58245849609375 459.30029296875 357.6721496582031 474.5008544921875 346.2647705078125 486.6321105957031 C 352.6159973144531 492.5306091308594 360.5639953613281 497.6025390625 365.8958435058594 508.04034423828125 C 364.1028137207031 507.5357666015625 360.9698791503906 508.0086669921875 357.9622802734375 513.9663696289062 C 408.4706115722656 514.8140869140625 459.42962646484375 514.622314453125 514.5062866210938 514.662353515625 C 514.7001953125 483.3613586425781 515.2177124023438 456.53106689453125 513.7787475585938 430.4656066894531" stroke-width="0.0" fill="rgb(44, 38, 33)" opacity="1.0026933" stroke="rgb(0, 0, 0)" stroke-opacity="1.0" stroke-linecap="round" stroke-linejoin="round"/>
    <path d="M 353.0218505859375 514.0433349609375 C 348.668701171875 502.16510009765625 343.7369689941406 498.4294738769531 337.7350158691406 495.4364013671875 C 331.22418212890625 492.0741882324219 324.33367919921875 489.30615234375 319.5489501953125 488.5901184082031 C 301.41400146484375 488.4683837890625 291.44488525390625 493.5468444824219 282.12908935546875 500.4005432128906 C 275.5831604003906 501.2710876464844 271.6087951660156 504.7103576660156 268.4769287109375 515.771240234375 C 299.7572326660156 515.2530517578125 326.9678649902344 514.7716064453125 353.0218505859375 514.0433349609375" stroke-width="0.0" fill="rgb(28, 27, 31)" opacity="0.9995566" stroke="rgb(0, 0, 0)" stroke-opacity="1.0" stroke-linecap="round" stroke-linejoin="round"/>
    <path d="M 129.74508666992188 350.1006774902344 C 128.11459350585938 359.1625671386719 127.72018432617188 366.42242431640625 127.29154205322266 375.3711853027344 C 141.5335235595703 375.91705322265625 154.37562561035156 377.33837890625 167.2487030029297 376.23724365234375 C 158.53961181640625 363.61187744140625 145.56370544433594 360.01055908203125 138.21107482910156 352.7904052734375 C 135.2047882080078 355.5042724609375 132.3813934326172 352.0130615234375 129.74508666992188 350.1006774902344" stroke-width="0.0" fill="rgb(46, 58, 74)" opacity="0.9997297" stroke="rgb(0, 0, 0)" stroke-opacity="1.0" stroke-linecap="round" stroke-linejoin="round"/>
    <path d="M 119.60077667236328 513.2256469726562 C 126.49876403808594 514.287109375 133.9453582763672 514.7127685546875 146.4956817626953 513.9111938476562 C 143.68218994140625 504.30755615234375 139.6849365234375 502.6797180175781 132.71331787109375 502.5849304199219 C 127.051513671875 502.90142822265625 123.0745620727539 504.4016418457031 119.60077667236328 513.2256469726562" stroke-width="0.0" fill="rgb(73, 58, 46)" opacity="1.0001836" stroke="rgb(0, 0, 0)" stroke-opacity="1.0" stroke-linecap="round" stroke-linejoin="round"/>
    <path d="M 136.09219360351562 352.3622741699219 C 133.7821807861328 354.7355041503906 135.8959503173828 361.7126770019531 136.0814208984375 369.21746826171875 C 141.6509552001953 364.97509765625 147.59397888183594 363.7408142089844 153.8394012451172 364.8401184082031 C 148.1246337890625 360.60650634765625 141.2845916748047 357.6625671386719 136.09219360351562 352.3622741699219" stroke-width="0.0" fill="rgb(47, 61, 77)" opacity="1.0000652" stroke="rgb(0, 0, 0)" stroke-opacity="1.0" stroke-linecap="round" stroke-linejoin="round"/>
    <path d="M 392.538818359375 457.1828918457031 C 390.3767395019531 465.6825866699219 390.947509765625 466.7717590332031 392.7051696777344 467.2988586425781 C 399.6448974609375 467.3476867675781 402.6810607910156 467.1154479980469 406.9238586425781 463.4788818359375 C 403.2454833984375 458.7435607910156 399.26727294921875 457.30145263671875 392.538818359375 457.1828918457031" stroke-width="0.0" fill="rgb(32, 28, 30)" opacity="1.0000856" stroke="rgb(0, 0, 0)" stroke-opacity="1.0" stroke-linecap="round" stroke-linejoin="round"/>
    <path d="M 369.0851135253906 499.47052001953125 C 363.94537353515625 502.4097900390625 366.3052673339844 507.2109069824219 366.37396240234375 513.9869995117188 C 367.79443359375 513.5626220703125 370.4388732910156 514.136474609375 375.75347900390625 511.3600158691406 C 375.1544494628906 502.9999084472656 373.5489196777344 499.4825134277344 369.0851135253906 499.47052001953125" stroke-width="0.0" fill="rgb(28, 25, 30)" opacity="1.0000039" stroke="rgb(0, 0, 0)" stroke-opacity="1.0" stroke-linecap="round" stroke-linejoin="round"/>
    <path d="M 136.9182891845703 350.52459716796875 C 141.23313903808594 346.3829040527344 141.6078338623047 347.8332214355469 139.47962951660156 351.5396423339844 C 140.47459411621094 356.5538330078125 143.28504943847656 358.01751708984375 136.2271270751953 359.46124267578125 C 134.99232482910156 357.8709716796875 135.6287841796875 355.150146484375 136.9182891845703 350.52459716796875" stroke-width="0.0" fill="rgb(46, 60, 77)" opacity="1.0000018" stroke="rgb(0, 0, 0)" stroke-opacity="1.0" stroke-linecap="round" stroke-linejoin="round"/>
  </g>
</svg>
