<?xml version="1.0" ?>
<svg xmlns="http://www.w3.org/2000/svg" version="1.1" width="512" height="512">
  <defs/>
  <g>
    <path d="M -0.4340512156486511 -0.6176701188087463 C -0.21583476662635803 170.3333282470703 -0.06066478416323662 340.6666564941406 -0.25246745347976685 513.4476928710938 C 169.7644805908203 513.6595458984375 339.6739196777344 513.984375 514.205810546875 514.4825439453125 C 514.676025390625 341.87261962890625 514.8543090820312 171.13734436035156 514.950439453125 -0.3693816661834717 C 340.6666564941406 -0.7370791435241699 170.3333282470703 -0.6873394846916199 -0.4340512156486511 -0.6176701188087463" stroke-width="0.0" fill="rgb(127, 142, 162)" opacity="0.93073684" stroke="rgb(0, 0, 0)" stroke-opacity="1.0" stroke-linecap="round" stroke-linejoin="round"/>
    <path d="M 514.4514770507812 233.79153442382812 C 460.377685546875 256.1199951171875 411.5826416015625 279.9687194824219 360.4630432128906 301.928955078125 C 313.27215576171875 316.9607238769531 260.9414367675781 327.1584777832031 208.09970092773438 337.318115234375 C 183.87887573242188 338.1834411621094 157.82745361328125 338.4789123535156 136.14720153808594 336.4361572265625 C 120.82027435302734 332.7876892089844 108.85549926757812 328.4847717285156 99.05937957763672 321.8363342285156 C 79.84063720703125 318.6905822753906 60.18130111694336 316.654541015625 39.45732116699219 315.2355651855469 C 33.679996490478516 316.0467834472656 32.21696853637695 312.8189392089844 30.919384002685547 312.3219909667969 C 26.30569076538086 311.5939636230469 19.54190444946289 311.0090026855469 11.030332565307617 308.76141357421875 C 16.345876693725586 301.2628479003906 21.10820198059082 300.25830078125 24.88787078857422 301.89874267578125 C 20.684001922607422 303.4881896972656 15.81815242767334 302.16241455078125 10.062932968139648 299.43768310546875 C 13.665276527404785 294.08984375 15.996569633483887 293.57183837890625 16.0353946685791 295.1763610839844 C 14.574718475341797 293.9573669433594 12.93690299987793 290.94024658203125 11.13323974609375 289.46160888671875 C 10.473302841186523 288.90606689453125 7.150476932525635 289.1604919433594 1.7004730701446533 284.943603515625 C -1.1530464887619019 357.46209716796875 -3.5904598236083984 431.8362121582031 -5.031303882598877 514.3716430664062 C 168.54600524902344 514.89599609375 339.6310729980469 514.5442504882812 515.0662231445312 514.18017578125 C 515.1182861328125 417.4704284667969 515.1240234375 324.2709655761719 514.4514770507812 233.79153442382812" stroke-width="0.0" fill="rgb(49, 48, 54)" opacity="1.025322" stroke="rgb(0, 0, 0)" stroke-opacity="1.0" stroke-linecap="round" stroke-linejoin="round"/>
    <path d="M 516.9387817382812 210.60794067382812 C 481.28668212890625 206.76531982421875 449.1168518066406 202.91940307617188 422.10882568359375 205.615478515625 C 387.08441162109375 222.0955810546875 352.50555419921875 236.5506591796875 314.88720703125 249.8553009033203 C 294.1045227050781 245.670166015625 276.042724609375 238.6251220703125 257.97662353515625 230.02801513671875 C 235.5065460205078 229.30319213867188 213.0843505859375 227.61032104492188 185.84104919433594 225.57948303222656 C 156.26918029785156 233.51278686523438 126.97390747070312 244.54966735839844 97.52926635742188 257.17376708984375 C 138.98329162597656 279.53741455078125 173.62863159179688 301.7934875488281 205.11080932617188 327.7112731933594 C 213.81060791015625 327.42620849609375 222.7039337158203 328.1429443359375 233.44390869140625 328.8554382324219 C 262.4336242675781 321.36798095703125 292.4191589355469 315.3262939453125 322.9479675292969 309.4215087890625 C 361.3518371582031 297.01434326171875 397.36328125 281.7677307128906 431.22314453125 264.5843811035156 C 458.09381103515625 245.7239990234375 486.59283447265625 228.8673095703125 516.9387817382812 210.60794067382812" stroke-width="0.0" fill="rgb(130, 156, 180)" opacity="0.9801259" stroke="rgb(0, 0, 0)" stroke-opacity="1.0" stroke-linecap="round" stroke-linejoin="round"/>
    <path d="M -0.19301071763038635 204.0900115966797 C -3.3520939350128174 244.66806030273438 -3.0290586948394775 280.9294738769531 -2.4505200386047363 312.83697509765625 C 60.13498306274414 318.75579833984375 119.70216369628906 320.74658203125 174.65594482421875 332.34228515625 C 192.8867950439453 334.1856689453125 209.348876953125 332.4394226074219 223.15286254882812 330.1622009277344 C 216.7137451171875 328.5570068359375 210.5168914794922 326.9762878417969 204.23805236816406 325.379150390625 C 180.87081909179688 307.4663391113281 156.7981414794922 290.81646728515625 131.988525390625 275.198486328125 C 86.79630279541016 253.3892364501953 45.40571975708008 228.1181182861328 -0.19301071763038635 204.0900115966797" stroke-width="0.0" fill="rgb(118, 140, 165)" opacity="1.0023619" stroke="rgb(0, 0, 0)" stroke-opacity="1.0" stroke-linecap="round" stroke-linejoin="round"/>
    <path d="M 255.18130493164062 221.11773681640625 C 254.4825897216797 211.94406127929688 251.95611572265625 207.04986572265625 247.92672729492188 206.36239624023438 C 217.65594482421875 205.50807189941406 203.86077880859375 191.90672302246094 185.52615356445312 185.5531005859375 C 174.02362060546875 191.15280151367188 165.46226501464844 191.434814453125 159.04458618164062 194.06134033203125 C 153.5091552734375 202.47836303710938 146.3389434814453 209.31944274902344 137.51963806152344 215.57005310058594 C 126.32877349853516 210.60833740234375 117.66236877441406 203.72508239746094 104.4131088256836 199.13409423828125 C 92.61063385009766 214.12249755859375 80.92692565917969 227.1761016845703 66.5259017944336 235.48085021972656 C 72.90311431884766 245.70068359375 83.52291870117188 253.6800079345703 100.75142669677734 258.4615478515625 C 134.2938232421875 248.6824493408203 163.8460235595703 238.63536071777344 192.81805419921875 225.1182861328125 C 210.4150390625 223.49185180664062 228.153076171875 226.75706481933594 250.1106719970703 228.51434326171875 C 253.4203338623047 227.44140625 255.71148681640625 225.86973571777344 255.18130493164062 221.11773681640625" stroke-width="0.0" fill="rgb(216, 231, 243)" opacity="1.0016332" stroke="rgb(0, 0, 0)" stroke-opacity="1.0" stroke-linecap="round" stroke-linejoin="round"/>
    <path d="M 206.76315307617188 333.4507751464844 C 209.17530822753906 335.05792236328125 214.08914184570312 336.3983154296875 220.02284240722656 337.4585876464844 C 227.34278869628906 333.2103576660156 232.9225616455078 330.8998718261719 236.171142578125 329.06292724609375 C 225.5647430419922 327.0926208496094 215.89617919921875 326.3087463378906 206.10121154785156 326.70550537109375 C 207.9554443359375 327.3786926269531 206.5496063232422 329.45965576171875 206.76315307617188 333.4507751464844" stroke-width="0.0" fill="rgb(133, 161, 185)" opacity="0.99991155" stroke="rgb(0, 0, 0)" stroke-opacity="1.0" stroke-linecap="round" stroke-linejoin="round"/>
    <path d="M 27.48540687561035 25.214576721191406 C 25.947010040283203 31.89073371887207 26.77849006652832 39.83241653442383 27.227069854736328 49.79377365112305 C 29.459230422973633 49.21084976196289 33.297664642333984 48.00497055053711 39.28758239746094 47.15464782714844 C 39.995208740234375 42.2753791809082 40.08528137207031 36.2847900390625 39.238807678222656 27.312753677368164 C 35.924293518066406 26.571788787841797 32.06502914428711 26.2133846282959 27.48540687561035 25.214576721191406" stroke-width="0.0" fill="rgb(151, 183, 224)" opacity="1.00454" stroke="rgb(0, 0, 0)" stroke-opacity="1.0" stroke-linecap="round" stroke-linejoin="round"/>
    <path d="M 322.83062744140625 247.2793731689453 C 332.2959289550781 244.80372619628906 337.5807800292969 242.5819854736328 341.4464111328125 239.13328552246094 C 336.42333984375 232.53553771972656 332.3910827636719 231.5529022216797 327.13616943359375 232.17796325683594 C 325.40704345703125 235.27101135253906 323.062744140625 238.7936553955078 322.83062744140625 247.2793731689453" stroke-width="0.0" fill="rgb(205, 221, 235)" opacity="1.0065994" stroke="rgb(0, 0, 0)" stroke-opacity="1.0" stroke-linecap="round" stroke-linejoin="round"/>
    <path d="M 503.05535888671875 152.24635314941406 C 510.3377380371094 148.34649658203125 512.1513671875 149.42149353027344 514.3330688476562 149.6262664794922 C 514.6298217773438 152.85794067382812 514.8887329101562 155.4342498779297 508.0886535644531 160.1843719482422 C 503.7840270996094 159.82797241210938 502.3196716308594 157.3916778564453 503.05535888671875 152.24635314941406" stroke-width="0.0" fill="rgb(159, 183, 214)" opacity="1.0017717" stroke="rgb(0, 0, 0)" stroke-opacity="1.0" stroke-linecap="round" stroke-linejoin="round"/>
    <path d="M 138.2882843017578 221.3973388671875 C 139.70828247070312 229.3405303955078 144.66526794433594 233.98390197753906 155.64894104003906 235.69674682617188 C 168.86231994628906 234.63943481445312 179.96751403808594 229.3975830078125 191.15289306640625 225.1912384033203 C 214.21182250976562 227.99559020996094 235.62423706054688 227.49241638183594 255.9744873046875 225.64822387695312 C 256.0887756347656 212.63706970214844 253.10879516601562 207.22885131835938 249.7176971435547 205.4008026123047 C 223.1604766845703 204.71717834472656 207.04234313964844 198.5379638671875 193.92013549804688 186.82723999023438 C 180.30130004882812 186.34156799316406 170.2828369140625 190.21847534179688 160.38092041015625 195.16636657714844 C 152.71229553222656 202.62823486328125 144.01683044433594 209.01966857910156 138.2882843017578 221.3973388671875" stroke-width="0.0" fill="rgb(223, 232, 240)" opacity="0.9954569" stroke="rgb(0, 0, 0)" stroke-opacity="1.0" stroke-linecap="round" stroke-linejoin="round"/>
    <path d="M 95.94300079345703 256.30389404296875 C 140.08685302734375 284.0747375488281 181.01043701171875 310.1096496582031 223.1289520263672 333.8677062988281 C 248.32220458984375 320.20916748046875 275.21038818359375 318.3156433105469 299.6548767089844 315.6545715332031 C 301.6487121582031 291.2266845703125 308.51397705078125 273.2951965332031 309.46661376953125 250.61532592773438 C 293.22216796875 244.09475708007812 277.7271423339844 235.88906860351562 261.2437438964844 229.47962951660156 C 238.28640747070312 228.2085418701172 219.72286987304688 223.17005920410156 198.84371948242188 224.5400390625 C 166.86956787109375 235.9160919189453 134.46519470214844 248.33401489257812 95.94300079345703 256.30389404296875" stroke-width="0.0" fill="rgb(151, 178, 202)" opacity="1.0071747" stroke="rgb(0, 0, 0)" stroke-opacity="1.0" stroke-linecap="round" stroke-linejoin="round"/>
    <path d="M 513.1160278320312 220.02830505371094 C 499.6650695800781 224.6490936279297 486.9772033691406 227.97146606445312 476.5343933105469 233.48675537109375 C 459.98638916015625 245.66525268554688 444.2946472167969 258.63824462890625 426.74127197265625 269.2936706542969 C 410.553955078125 279.5438537597656 391.2450866699219 286.32049560546875 373.2859191894531 295.0377502441406 C 336.25457763671875 306.20465087890625 299.9835510253906 319.3122253417969 255.3649139404297 324.0917053222656 C 236.11834716796875 327.0234375 219.8884735107422 332.7823791503906 206.25851440429688 347.3744201660156 C 227.94674682617188 350.752197265625 250.0032501220703 351.9786682128906 274.45916748046875 353.0256652832031 C 296.5720520019531 353.5943603515625 317.769775390625 351.5177001953125 338.2638854980469 348.6292724609375 C 376.22601318359375 346.2799377441406 406.7757873535156 336.77001953125 433.41455078125 322.1434631347656 C 437.251953125 316.8197326660156 440.644775390625 310.782958984375 444.2071838378906 305.2180480957031 C 465.71044921875 281.40673828125 488.3818054199219 258.7259216308594 514.7681884765625 239.07366943359375 C 514.5974731445312 228.98538208007812 515.285888671875 222.84219360351562 513.1160278320312 220.02830505371094" stroke-width="0.0" fill="rgb(59, 75, 94)" opacity="0.9374634" stroke="rgb(0, 0, 0)" stroke-opacity="1.0" stroke-linecap="round" stroke-linejoin="round"/>
    <path d="M 103.62379455566406 200.07508850097656 C 99.671875 204.58934020996094 95.2468032836914 210.11288452148438 91.85391235351562 221.1882781982422 C 92.25605010986328 223.0468292236328 97.08032989501953 224.35487365722656 98.10531616210938 225.06272888183594 C 97.34146118164062 220.6941680908203 97.42206573486328 214.07667541503906 102.63604736328125 207.025146484375 C 109.06734466552734 204.5132293701172 111.94339752197266 208.38427734375 119.62114715576172 210.98471069335938 C 115.99125671386719 203.47015380859375 110.43250274658203 202.2122344970703 103.62379455566406 200.07508850097656" stroke-width="0.0" fill="rgb(242, 246, 249)" opacity="1.0025527" stroke="rgb(0, 0, 0)" stroke-opacity="1.0" stroke-linecap="round" stroke-linejoin="round"/>
    <path d="M 513.7973022460938 427.9374694824219 C 489.81439208984375 427.7979431152344 473.5800476074219 432.042236328125 458.00341796875 437.1383361816406 C 450.3871154785156 427.52911376953125 443.4683837890625 422.2041015625 431.9827575683594 422.9021301269531 C 430.67303466796875 416.1787414550781 438.7659606933594 422.45135498046875 440.2720031738281 420.04351806640625 C 432.0953674316406 415.0596008300781 429.74542236328125 408.5423889160156 428.1780700683594 403.3471984863281 C 427.70208740234375 393.1367492675781 425.1998596191406 384.3258361816406 423.2342529296875 369.5669860839844 C 415.1820068359375 376.9849853515625 411.15093994140625 380.9125671386719 402.04510498046875 378.5194396972656 C 394.9525451660156 374.7613525390625 391.39459228515625 369.9861145019531 389.7734680175781 367.9337463378906 C 384.8139343261719 367.6561279296875 378.2279968261719 365.7823181152344 370.776123046875 365.3812255859375 C 363.0584411621094 389.15667724609375 363.1326599121094 420.146484375 360.65655517578125 449.6354675292969 C 350.1141662597656 441.93194580078125 351.9971923828125 431.3778991699219 351.1054992675781 425.20074462890625 C 353.2252197265625 424.8053283691406 350.0539245605469 416.66595458984375 352.7200622558594 416.09783935546875 C 349.4861145019531 394.917236328125 347.88629150390625 374.07196044921875 349.4963684082031 349.06951904296875 C 342.9595642089844 350.0555114746094 338.8745422363281 351.35211181640625 333.78546142578125 352.85174560546875 C 336.3780822753906 360.8475036621094 337.4922790527344 365.22216796875 334.308349609375 371.8129577636719 C 327.78717041015625 368.1800231933594 331.8201904296875 360.35791015625 334.1997985839844 352.039794921875 C 307.11810302734375 353.0025634765625 286.7006530761719 355.57159423828125 262.771728515625 359.01708984375 C 258.53472900390625 389.6822814941406 254.32203674316406 424.5386657714844 253.2885284423828 458.3956604003906 C 245.5489044189453 457.5565185546875 237.1996612548828 455.0286865234375 234.9291229248047 446.2083435058594 C 230.5310516357422 420.0037841796875 227.40806579589844 393.6605224609375 223.9537353515625 368.90325927734375 C 225.58392333984375 363.0433349609375 228.7110137939453 358.5478820800781 233.23812866210938 353.1080627441406 C 201.02708435058594 352.2052917480469 173.10887145996094 351.7069396972656 149.47793579101562 351.86846923828125 C 152.31790161132812 359.67388916015625 154.75747680664062 363.52874755859375 160.20884704589844 366.8469543457031 C 157.5389404296875 366.22906494140625 152.39207458496094 364.3536682128906 150.8318328857422 368.19635009765625 C 153.63247680664062 369.8398132324219 158.0098876953125 368.3678894042969 162.62771606445312 367.59613037109375 C 159.57977294921875 370.9414367675781 159.14479064941406 376.33856201171875 153.15719604492188 374.21380615234375 C 113.5537338256836 376.15185546875 76.63251495361328 379.483154296875 44.36665344238281 373.923828125 C 42.79921340942383 382.84326171875 36.302852630615234 387.55517578125 33.05575942993164 394.7762145996094 C 34.32453536987305 429.55267333984375 34.63893508911133 464.3676452636719 34.39548873901367 500.8500671386719 C 33.896484375 500.8273010253906 28.83627700805664 499.82891845703125 25.05099868774414 498.9552917480469 C 30.18535614013672 460.89581298828125 29.879573822021484 422.8103332519531 28.72556495666504 386.21014404296875 C 18.952632904052734 388.8542785644531 15.371843338012695 387.65521240234375 13.994806289672852 384.65283203125 C 11.682585716247559 378.4349060058594 11.037097930908203 371.16943359375 11.678839683532715 363.9816589355469 C 4.728124141693115 363.794189453125 3.738473653793335 359.87054443359375 -2.191760778427124 351.9454345703125 C -2.7405121326446533 407.43109130859375 -2.7726006507873535 459.1423645019531 -2.8414862155914307 515.1751708984375 C 171.08990478515625 514.702880859375 341.1044616699219 514.29736328125 513.9701538085938 514.06640625 C 514.2930297851562 483.1177062988281 514.7129516601562 454.8680114746094 513.7973022460938 427.9374694824219" stroke-width="0.0" fill="rgb(76, 64, 55)" opacity="0.9952255" stroke="rgb(0, 0, 0)" stroke-opacity="1.0" stroke-linecap="round" stroke-linejoin="round"/>
    <path d="M 514.083251953125 235.37818908691406 C 500.05792236328125 248.09527587890625 491.8524475097656 262.04876708984375 472.7426452636719 267.37969970703125 C 462.2293701171875 294.4068298339844 453.43743896484375 324.5870666503906 434.0510559082031 345.6663513183594 C 429.59161376953125 359.6072082519531 427.6240234375 375.14239501953125 428.6289978027344 389.7623596191406 C 443.3128356933594 402.78387451171875 444.4846496582031 423.6625671386719 452.3399353027344 434.64324951171875 C 475.8140563964844 431.50592041015625 493.4172668457031 428.85528564453125 515.1141357421875 425.6079406738281 C 514.93115234375 361.56207275390625 515.1559448242188 298.12109375 514.083251953125 235.37818908691406" stroke-width="0.0" fill="rgb(60, 51, 43)" opacity="0.988182" stroke="rgb(0, 0, 0)" stroke-opacity="1.0" stroke-linecap="round" stroke-linejoin="round"/>
    <path d="M 0.47581976652145386 237.55931091308594 C -2.7208755016326904 277.8212890625 -3.084024667739868 314.1069030761719 -0.03542447090148926 353.00177001953125 C 6.513895034790039 333.2651062011719 13.112855911254883 316.6167297363281 20.835569381713867 303.8145446777344 C 29.551456451416016 315.7722473144531 39.51080322265625 327.1357116699219 49.84397888183594 338.0246887207031 C 46.63785934448242 343.71368408203125 43.68497848510742 352.84844970703125 43.14846420288086 368.3805847167969 C 53.712982177734375 369.65374755859375 64.87001037597656 369.0199279785156 75.36833953857422 376.66534423828125 C 100.45188903808594 373.945556640625 128.3323516845703 370.64007568359375 160.98934936523438 371.8704833984375 C 150.8388671875 364.8500671386719 143.14401245117188 357.9913330078125 133.89898681640625 351.36602783203125 C 161.6586456298828 348.5854187011719 191.86732482910156 349.37158203125 212.12896728515625 348.01275634765625 C 212.87710571289062 338.1129455566406 218.5563201904297 338.368408203125 223.1622314453125 336.30242919921875 C 197.40548706054688 337.5188903808594 177.3362579345703 334.48272705078125 154.41635131835938 332.4673156738281 C 139.2761688232422 327.84564208984375 125.38453674316406 320.50677490234375 107.28147888183594 314.63153076171875 C 69.259765625 295.3500061035156 36.05463409423828 267.8274230957031 0.47581976652145386 237.55931091308594" stroke-width="0.0" fill="rgb(79, 96, 119)" opacity="0.93688077" stroke="rgb(0, 0, 0)" stroke-opacity="1.0" stroke-linecap="round" stroke-linejoin="round"/>
    <path d="M 504.2364501953125 206.99447631835938 C 489.5093994140625 201.25181579589844 481.78662109375 209.1034393310547 469.9664001464844 210.22222900390625 C 458.62335205078125 200.94284057617188 444.1763610839844 198.0190887451172 424.9700927734375 198.94236755371094 C 389.81744384765625 220.55340576171875 352.3044738769531 236.58335876464844 310.4761657714844 251.22901916503906 C 307.0080261230469 267.3236999511719 312.1463928222656 292.5730285644531 308.2522888183594 316.0063781738281 C 349.6953430175781 302.8353576660156 387.5719299316406 288.7104797363281 424.4257507324219 273.5184020996094 C 449.9661865234375 250.96401977539062 476.60369873046875 229.60025024414062 504.2364501953125 206.99447631835938" stroke-width="0.0" fill="rgb(118, 145, 173)" opacity="0.99475205" stroke="rgb(0, 0, 0)" stroke-opacity="1.0" stroke-linecap="round" stroke-linejoin="round"/>
    <path d="M 0.0995832085609436 201.5607147216797 C -4.415112018585205 213.08106994628906 -3.62691593170166 227.0153350830078 -0.5362740159034729 240.28257751464844 C 29.415027618408203 260.5854187011719 58.456905364990234 281.54046630859375 87.73380279541016 302.6346740722656 C 106.54512786865234 313.2095642089844 129.00442504882812 320.3688659667969 150.74278259277344 329.09552001953125 C 169.89981079101562 333.95294189453125 191.17498779296875 336.43719482421875 215.3440704345703 330.6445007324219 C 187.4655303955078 306.56549072265625 158.27734375 287.85662841796875 126.84456634521484 271.2085876464844 C 114.78885650634766 263.9263610839844 99.73705291748047 260.00701904296875 87.8206558227539 253.30032348632812 C 60.17904281616211 234.79273986816406 31.898813247680664 217.140380859375 0.0995832085609436 201.5607147216797" stroke-width="0.0" fill="rgb(127, 153, 179)" opacity="0.9790996" stroke="rgb(0, 0, 0)" stroke-opacity="1.0" stroke-linecap="round" stroke-linejoin="round"/>
    <path d="M 242.16989135742188 349.3276062011719 C 234.73263549804688 353.50457763671875 230.3379364013672 356.7825927734375 227.8485107421875 362.3670959472656 C 224.99209594726562 372.63726806640625 225.55650329589844 385.7076416015625 227.67703247070312 397.25421142578125 C 230.9569549560547 413.19891357421875 231.7183837890625 432.2942199707031 233.2129669189453 453.9826965332031 C 236.84982299804688 457.9850769042969 244.0178985595703 460.8442077636719 253.43740844726562 462.8310241699219 C 256.0575866699219 429.5648193359375 262.5075988769531 402.09991455078125 265.08441162109375 371.21148681640625 C 259.74462890625 363.8370666503906 257.3560485839844 358.86700439453125 253.85897827148438 355.7230529785156 C 249.22348022460938 353.10321044921875 246.88780212402344 349.1587219238281 242.16989135742188 349.3276062011719" stroke-width="0.0" fill="rgb(54, 52, 47)" opacity="0.99550223" stroke="rgb(0, 0, 0)" stroke-opacity="1.0" stroke-linecap="round" stroke-linejoin="round"/>
    <path d="M 26.742124557495117 302.2125244140625 C 20.086477279663086 305.89581298828125 13.926257133483887 306.6956481933594 14.353979110717773 311.5752258300781 C 13.312808990478516 325.36077880859375 7.307658672332764 334.6986083984375 4.726027965545654 344.3880310058594 C 12.685331344604492 361.28021240234375 15.199384689331055 381.45355224609375 25.284603118896484 397.1685485839844 C 23.10297966003418 432.4327697753906 23.192646026611328 468.17938232421875 31.601398468017578 503.03204345703125 C 34.12415313720703 460.7041015625 32.500186920166016 427.56317138671875 31.030065536499023 394.8664855957031 C 40.60400390625 378.0421447753906 46.856414794921875 358.30084228515625 49.33369445800781 338.3833923339844 C 39.987186431884766 326.2685546875 35.019927978515625 311.01654052734375 26.742124557495117 302.2125244140625" stroke-width="0.0" fill="rgb(77, 65, 63)" opacity="0.97943205" stroke="rgb(0, 0, 0)" stroke-opacity="1.0" stroke-linecap="round" stroke-linejoin="round"/>
    <path d="M 512.80029296875 202.77783203125 C 500.3641052246094 208.23338317871094 490.3638916015625 214.6653289794922 480.85650634765625 226.17120361328125 C 494.976318359375 224.7533416748047 502.859619140625 221.42483520507812 513.3638916015625 217.55703735351562 C 514.9368286132812 210.20211791992188 515.3522338867188 204.1283416748047 512.80029296875 202.77783203125" stroke-width="0.0" fill="rgb(122, 135, 157)" opacity="0.9991336" stroke="rgb(0, 0, 0)" stroke-opacity="1.0" stroke-linecap="round" stroke-linejoin="round"/>
    <path d="M 383.4131774902344 342.4577941894531 C 374.2162170410156 342.7049560546875 364.936279296875 343.03143310546875 358.45684814453125 343.2511291503906 C 351.2712097167969 348.0209045410156 349.6557312011719 357.1776123046875 351.7274475097656 372.3387756347656 C 365.7008361816406 371.7998352050781 376.5341491699219 370.1000061035156 389.7071838378906 366.7838439941406 C 388.3208923339844 351.8780212402344 385.34527587890625 343.250732421875 383.4131774902344 342.4577941894531" stroke-width="0.0" fill="rgb(62, 57, 57)" opacity="0.9963513" stroke="rgb(0, 0, 0)" stroke-opacity="1.0" stroke-linecap="round" stroke-linejoin="round"/>
    <path d="M 400.5370178222656 341.5130615234375 C 390.7860412597656 346.18603515625 387.779052734375 352.1669616699219 387.62646484375 366.7923583984375 C 385.64825439453125 370.7945251464844 395.52227783203125 371.0572509765625 397.3930358886719 377.3314208984375 C 398.34381103515625 378.8067626953125 400.60302734375 375.3720703125 400.857421875 371.5339660644531 C 401.99835205078125 358.9601745605469 402.7669982910156 350.2123718261719 400.5370178222656 341.5130615234375" stroke-width="0.0" fill="rgb(57, 51, 48)" opacity="1.0000437" stroke="rgb(0, 0, 0)" stroke-opacity="1.0" stroke-linecap="round" stroke-linejoin="round"/>
    <path d="M 77.72257995605469 244.6438446044922 C 79.06073760986328 249.0332794189453 82.0141372680664 254.4838104248047 85.30306243896484 258.0858154296875 C 96.18226623535156 255.49618530273438 102.05866241455078 253.8553009033203 109.89251708984375 250.4396209716797 C 101.4045181274414 245.2637481689453 87.03469848632812 247.97593688964844 83.42715454101562 237.78720092773438 C 78.37220764160156 237.28208923339844 77.76555633544922 238.9591064453125 77.72257995605469 244.6438446044922" stroke-width="0.0" fill="rgb(235, 242, 247)" opacity="1.0006274" stroke="rgb(0, 0, 0)" stroke-opacity="1.0" stroke-linecap="round" stroke-linejoin="round"/>
    <path d="M 416.27410888671875 321.0710754394531 C 421.64727783203125 325.1668395996094 422.451171875 325.514892578125 423.7735900878906 332.0430603027344 C 425.83355712890625 341.95703125 424.6031799316406 351.06854248046875 414.2074890136719 356.77008056640625 C 412.6398620605469 338.651123046875 414.1407165527344 328.5794677734375 416.27410888671875 321.0710754394531" stroke-width="0.0" fill="rgb(63, 57, 57)" opacity="0.9999581" stroke="rgb(0, 0, 0)" stroke-opacity="1.0" stroke-linecap="round" stroke-linejoin="round"/>
    <path d="M 230.15509033203125 326.2575988769531 C 233.50001525878906 331.2219543457031 233.01608276367188 333.60089111328125 236.8292694091797 334.7391357421875 C 227.96376037597656 337.23046875 216.32191467285156 338.7262878417969 200.83045959472656 333.3332214355469 C 210.55001831054688 325.983154296875 220.66786193847656 325.7420959472656 230.15509033203125 326.2575988769531" stroke-width="0.0" fill="rgb(139, 167, 189)" opacity="0.99274415" stroke="rgb(0, 0, 0)" stroke-opacity="1.0" stroke-linecap="round" stroke-linejoin="round"/>
    <path d="M 427.0246887207031 364.3313293457031 C 420.7311096191406 364.73175048828125 416.5096435546875 365.34521484375 414.0054016113281 369.0966796875 C 414.8294677734375 374.8316955566406 416.97088623046875 376.6838684082031 424.7824401855469 375.3634948730469 C 427.67755126953125 371.9596252441406 427.7568054199219 369.8653259277344 427.0246887207031 364.3313293457031" stroke-width="0.0" fill="rgb(34, 33, 42)" opacity="1.0001099" stroke="rgb(0, 0, 0)" stroke-opacity="1.0" stroke-linecap="round" stroke-linejoin="round"/>
    <path d="M 509.345947265625 435.33184814453125 C 499.1812438964844 433.0460205078125 486.8438415527344 432.9699401855469 473.7496337890625 435.262451171875 C 399.44134521484375 444.83807373046875 325.8601989746094 454.6127624511719 251.653076171875 464.5730285644531 C 201.97300720214844 462.313720703125 152.69598388671875 465.2686767578125 97.08995819091797 467.7928161621094 C 92.24959564208984 478.3611755371094 84.11698913574219 490.5323181152344 73.05840301513672 497.8750305175781 C 54.742618560791016 498.57000732421875 40.201515197753906 498.7257385253906 30.139751434326172 505.6527099609375 C 27.014022827148438 509.35662841796875 22.657958984375 503.6013488769531 15.14731216430664 496.9363098144531 C 9.341432571411133 501.3796691894531 3.5905377864837646 503.8778991699219 -1.267836570739746 514.6790161132812 C 171.4820098876953 515.072998046875 341.2860412597656 515.1224975585938 511.8894958496094 514.9075927734375 C 510.0736083984375 486.42523193359375 511.06378173828125 460.7742614746094 509.345947265625 435.33184814453125" stroke-width="0.0" fill="rgb(66, 58, 49)" opacity="0.9717747" stroke="rgb(0, 0, 0)" stroke-opacity="1.0" stroke-linecap="round" stroke-linejoin="round"/>
    <path d="M 495.2860412597656 256.75323486328125 C 483.2544250488281 262.2387390136719 476.6253356933594 270.1708068847656 470.7337646484375 280.00933837890625 C 463.20501708984375 291.1972961425781 457.74188232421875 304.7599792480469 451.5677185058594 318.7377624511719 C 447.77740478515625 321.98858642578125 446.512451171875 318.1854553222656 442.87744140625 314.03717041015625 C 439.7899169921875 326.1180725097656 436.9344787597656 335.6060791015625 433.7628173828125 345.92828369140625 C 429.16156005859375 358.8005065917969 426.8653259277344 373.6361083984375 430.70928955078125 389.37493896484375 C 438.2398986816406 399.070068359375 443.22308349609375 409.2319641113281 447.65155029296875 420.7672119140625 C 451.8702697753906 423.851318359375 455.2935485839844 427.4040222167969 458.6925048828125 428.69561767578125 C 467.49456787109375 426.6480712890625 473.6841125488281 425.3184814453125 479.5467224121094 423.05584716796875 C 479.0806884765625 412.2727966308594 484.48419189453125 407.3150329589844 485.4873962402344 399.955810546875 C 487.2651062011719 376.8555908203125 486.63623046875 359.5540466308594 483.923583984375 347.1477355957031 C 488.0166931152344 318.431396484375 492.07159423828125 289.29608154296875 495.2860412597656 256.75323486328125" stroke-width="0.0" fill="rgb(59, 47, 36)" opacity="0.9993962" stroke="rgb(0, 0, 0)" stroke-opacity="1.0" stroke-linecap="round" stroke-linejoin="round"/>
    <path d="M 514.0628662109375 237.33804321289062 C 504.4659423828125 242.71141052246094 500.31317138671875 249.3243865966797 496.6463317871094 254.1987762451172 C 492.1616516113281 286.98065185546875 488.3053283691406 317.4653015136719 483.49609375 351.9720764160156 C 481.0202941894531 367.19940185546875 484.0085144042969 384.204345703125 491.016357421875 399.2753601074219 C 492.0046691894531 402.39263916015625 485.53179931640625 405.5792541503906 487.2090148925781 418.0469665527344 C 490.96881103515625 421.8941345214844 498.4861145019531 424.3050537109375 514.4893798828125 425.8930358886719 C 514.9782104492188 359.9098815917969 515.36474609375 297.78961181640625 514.0628662109375 237.33804321289062" stroke-width="0.0" fill="rgb(69, 54, 32)" opacity="1.0068634" stroke="rgb(0, 0, 0)" stroke-opacity="1.0" stroke-linecap="round" stroke-linejoin="round"/>
    <path d="M 72.68436431884766 391.8868713378906 C 64.01093292236328 408.61572265625 55.709320068359375 425.056884765625 36.73451614379883 433.6119689941406 C 35.159793853759766 452.50360107421875 35.102577209472656 475.1996765136719 35.647666931152344 495.95501708984375 C 47.83483123779297 496.0874328613281 58.00187301635742 496.3590393066406 67.52979278564453 495.32965087890625 C 73.94285583496094 493.31195068359375 78.39807891845703 488.7478942871094 83.00845336914062 482.8977966308594 C 86.23249053955078 462.4049987792969 88.28036499023438 440.4236145019531 88.15937805175781 417.2621154785156 C 84.35615539550781 407.742431640625 82.87858581542969 399.77838134765625 72.68436431884766 391.8868713378906" stroke-width="0.0" fill="rgb(67, 53, 44)" opacity="0.99765635" stroke="rgb(0, 0, 0)" stroke-opacity="1.0" stroke-linecap="round" stroke-linejoin="round"/>
    <path d="M 45.13621520996094 353.25250244140625 C 44.741363525390625 359.1744689941406 45.94266128540039 364.1168518066406 47.04556655883789 369.3128662109375 C 57.15225601196289 371.8603515625 67.13806915283203 373.4027099609375 78.6439437866211 376.73455810546875 C 105.64947509765625 376.009521484375 134.06539916992188 375.2101745605469 163.77976989746094 373.62567138671875 C 144.46046447753906 352.5679931640625 121.97059631347656 343.6278381347656 105.30186462402344 333.71990966796875 C 87.62489318847656 334.75494384765625 70.69359588623047 333.0527648925781 57.06879806518555 333.29296875 C 52.23233413696289 340.28790283203125 47.70069122314453 345.232177734375 45.13621520996094 353.25250244140625" stroke-width="0.0" fill="rgb(43, 56, 76)" opacity="0.9998178" stroke="rgb(0, 0, 0)" stroke-opacity="1.0" stroke-linecap="round" stroke-linejoin="round"/>
    <path d="M 194.60987854003906 221.33665466308594 C 203.48080444335938 220.1817169189453 209.19923400878906 227.7010955810547 219.01876831054688 227.91612243652344 C 235.4776153564453 232.8398895263672 250.73448181152344 239.9160614013672 265.46929931640625 248.3325653076172 C 278.49578857421875 252.25294494628906 292.0776672363281 255.75245666503906 310.3473815917969 252.56214904785156 C 292.32769775390625 242.45156860351562 276.00927734375 235.25473022460938 262.011962890625 227.80616760253906 C 237.791748046875 229.30418395996094 220.7872314453125 225.96963500976562 207.3450164794922 218.12290954589844 C 200.94830322265625 217.78955078125 197.0838165283203 220.46682739257812 194.60987854003906 221.33665466308594" stroke-width="0.0" fill="rgb(158, 183, 208)" opacity="0.9947078" stroke="rgb(0, 0, 0)" stroke-opacity="1.0" stroke-linecap="round" stroke-linejoin="round"/>
    <path d="M 85.70343017578125 413.5201416015625 C 94.52103424072266 419.7777404785156 102.47745513916016 421.5737609863281 113.03958892822266 417.2532958984375 C 148.46307373046875 414.8709411621094 183.8033905029297 413.97552490234375 220.17149353027344 409.3211975097656 C 184.37095642089844 401.75067138671875 148.09286499023438 403.8162841796875 112.01033782958984 405.43341064453125 C 105.0304183959961 409.740234375 93.66681671142578 409.256591796875 85.70343017578125 413.5201416015625" stroke-width="0.0" fill="rgb(51, 50, 58)" opacity="1.0004873" stroke="rgb(0, 0, 0)" stroke-opacity="1.0" stroke-linecap="round" stroke-linejoin="round"/>
    <path d="M 26.4440860748291 313.4302978515625 C 28.167932510375977 312.03607177734375 28.43562889099121 313.1044006347656 29.26205062866211 313.8231506347656 C 32.17853927612305 373.80621337890625 35.649681091308594 434.5181579589844 30.851741790771484 504.27459716796875 C 23.900341033935547 442.64581298828125 27.90813446044922 375.7683410644531 26.4440860748291 313.4302978515625" stroke-width="0.0" fill="rgb(51, 44, 47)" opacity="0.9957725" stroke="rgb(0, 0, 0)" stroke-opacity="1.0" stroke-linecap="round" stroke-linejoin="round"/>
    <path d="M 409.9761047363281 415.2415466308594 C 412.73992919921875 421.63818359375 416.5010681152344 427.3774719238281 426.4981384277344 434.40478515625 C 434.7172546386719 433.5190124511719 440.8321533203125 430.7016906738281 442.3352966308594 425.2261962890625 C 441.99591064453125 414.1668701171875 440.9905090332031 407.815673828125 437.34234619140625 404.08673095703125 C 424.56378173828125 403.55718994140625 417.07232666015625 408.0472106933594 409.9761047363281 415.2415466308594" stroke-width="0.0" fill="rgb(42, 40, 42)" opacity="1.0011854" stroke="rgb(0, 0, 0)" stroke-opacity="1.0" stroke-linecap="round" stroke-linejoin="round"/>
    <path d="M 314.5694885253906 379.946044921875 C 311.7937316894531 386.3624572753906 309.8036193847656 392.6628112792969 307.9722595214844 403.6489562988281 C 311.6744689941406 407.2281494140625 313.8996887207031 410.4197998046875 319.107421875 412.30889892578125 C 324.8563232421875 408.3265686035156 326.79150390625 405.4156799316406 324.3700866699219 400.3554382324219 C 321.8578186035156 392.4165954589844 321.95294189453125 385.3934326171875 314.5694885253906 379.946044921875" stroke-width="0.0" fill="rgb(35, 38, 48)" opacity="1.0015467" stroke="rgb(0, 0, 0)" stroke-opacity="1.0" stroke-linecap="round" stroke-linejoin="round"/>
    <path d="M 145.3289337158203 361.1865539550781 C 153.8454132080078 368.9302978515625 161.6531219482422 374.81219482421875 174.42465209960938 380.6577453613281 C 177.2765350341797 368.0704040527344 171.25804138183594 366.135498046875 166.64317321777344 362.7554931640625 C 163.56179809570312 357.7608947753906 158.2458038330078 355.1140441894531 145.3289337158203 361.1865539550781" stroke-width="0.0" fill="rgb(127, 141, 154)" opacity="1.0155971" stroke="rgb(0, 0, 0)" stroke-opacity="1.0" stroke-linecap="round" stroke-linejoin="round"/>
    <path d="M 310.22027587890625 399.1960144042969 C 314.2193908691406 403.6177978515625 314.4895324707031 406.066650390625 313.9759521484375 405.23345947265625 C 302.132080078125 407.1668701171875 288.5534973144531 410.1533203125 279.1211242675781 405.9543151855469 C 288.98345947265625 401.3941345214844 297.9270935058594 399.8902282714844 310.22027587890625 399.1960144042969" stroke-width="0.0" fill="rgb(98, 103, 109)" opacity="1.0032443" stroke="rgb(0, 0, 0)" stroke-opacity="1.0" stroke-linecap="round" stroke-linejoin="round"/>
    <path d="M 219.71017456054688 374.4378967285156 C 173.41720581054688 375.5489501953125 130.85409545898438 376.9433898925781 88.73949432373047 379.17291259765625 C 90.9200439453125 386.95428466796875 93.40054321289062 390.6118469238281 96.62271118164062 389.0849304199219 C 91.68354034423828 388.2148132324219 86.66471099853516 392.1143798828125 83.09795379638672 396.7220764160156 C 84.70777130126953 406.0198059082031 87.1515121459961 410.84832763671875 92.25465393066406 407.1005554199219 C 133.25405883789062 403.5756530761719 175.868896484375 408.0480041503906 216.08335876464844 407.1152648925781 C 212.91969299316406 393.45733642578125 213.01736450195312 385.4096984863281 219.71017456054688 374.4378967285156" stroke-width="0.0" fill="rgb(100, 85, 76)" opacity="0.99927807" stroke="rgb(0, 0, 0)" stroke-opacity="1.0" stroke-linecap="round" stroke-linejoin="round"/>
    <path d="M 424.7420349121094 438.57647705078125 C 422.4933776855469 429.63275146484375 419.0223693847656 427.4084167480469 415.30804443359375 425.3856201171875 C 416.09295654296875 421.84405517578125 413.4247741699219 420.3984375 409.8619384765625 419.6289978027344 C 401.8036193847656 420.86785888671875 392.8605041503906 420.6768493652344 385.5841979980469 422.0027770996094 C 381.2149353027344 423.47735595703125 378.3480529785156 425.70623779296875 376.44671630859375 434.40679931640625 C 376.31976318359375 438.80255126953125 382.10552978515625 440.8594665527344 391.35968017578125 446.69329833984375 C 405.0038146972656 445.0513000488281 416.1097106933594 441.8312683105469 424.7420349121094 438.57647705078125" stroke-width="0.0" fill="rgb(38, 38, 37)" opacity="0.9995965" stroke="rgb(0, 0, 0)" stroke-opacity="1.0" stroke-linecap="round" stroke-linejoin="round"/>
    <path d="M 317.1247253417969 378.799560546875 C 300.88812255859375 380.5618591308594 290.2285461425781 385.9559020996094 278.5079650878906 388.9542236328125 C 269.01458740234375 386.3406066894531 267.3692321777344 389.564453125 266.29583740234375 402.0003967285156 C 277.67266845703125 404.1653137207031 291.9170227050781 405.8447265625 313.1131286621094 406.98876953125 C 315.8262634277344 398.5809020996094 317.4964294433594 392.30029296875 317.1247253417969 378.799560546875" stroke-width="0.0" fill="rgb(54, 53, 61)" opacity="0.99544567" stroke="rgb(0, 0, 0)" stroke-opacity="1.0" stroke-linecap="round" stroke-linejoin="round"/>
    <path d="M 242.6055908203125 346.20343017578125 C 241.8314971923828 387.7322082519531 243.83668518066406 420.3877868652344 248.03919982910156 452.8483581542969 C 246.9412078857422 461.334228515625 247.73544311523438 465.36492919921875 258.39013671875 465.0096740722656 C 250.43646240234375 427.2182922363281 248.3067626953125 387.8727111816406 242.6055908203125 346.20343017578125" stroke-width="0.0" fill="rgb(37, 35, 39)" opacity="1.0008838" stroke="rgb(0, 0, 0)" stroke-opacity="1.0" stroke-linecap="round" stroke-linejoin="round"/>
    <path d="M 331.09771728515625 352.0439758300781 C 307.32891845703125 350.9020690917969 288.7890319824219 352.20166015625 269.9287109375 361.8592529296875 C 286.1088562011719 367.01300048828125 304.409912109375 367.6429138183594 326.94122314453125 365.85223388671875 C 329.3941650390625 360.71319580078125 330.68804931640625 357.41644287109375 331.09771728515625 352.0439758300781" stroke-width="0.0" fill="rgb(94, 85, 80)" opacity="1.00546" stroke="rgb(0, 0, 0)" stroke-opacity="1.0" stroke-linecap="round" stroke-linejoin="round"/>
    <path d="M 255.86505126953125 439.1853332519531 C 254.95758056640625 449.8382263183594 256.84613037109375 456.4391784667969 264.0892333984375 462.5003356933594 C 271.1316833496094 461.26251220703125 276.91436767578125 458.7425842285156 284.1466369628906 454.9706726074219 C 281.7589416503906 446.5871887207031 277.4156799316406 442.4146423339844 271.1905212402344 440.9141845703125 C 265.80401611328125 437.2156982421875 260.669677734375 436.5773010253906 255.86505126953125 439.1853332519531" stroke-width="0.0" fill="rgb(37, 35, 40)" opacity="0.9999261" stroke="rgb(0, 0, 0)" stroke-opacity="1.0" stroke-linecap="round" stroke-linejoin="round"/>
    <path d="M 221.79293823242188 347.73126220703125 C 208.11679077148438 354.8381042480469 200.1173553466797 362.9586486816406 192.3802947998047 372.58856201171875 C 199.84754943847656 374.737548828125 208.8373260498047 376.4418029785156 224.322021484375 377.162109375 C 225.1858673095703 367.74029541015625 224.74935913085938 358.2318420410156 221.79293823242188 347.73126220703125" stroke-width="0.0" fill="rgb(59, 63, 72)" opacity="1.0003377" stroke="rgb(0, 0, 0)" stroke-opacity="1.0" stroke-linecap="round" stroke-linejoin="round"/>
    <path d="M 178.57923889160156 351.0052490234375 C 181.64939880371094 359.1079406738281 184.78277587890625 362.9224548339844 188.5145263671875 365.8784484863281 C 200.0572967529297 364.0585632324219 207.53329467773438 362.7752380371094 214.3731689453125 360.5701904296875 C 215.22586059570312 357.8062438964844 214.6792449951172 354.801513671875 214.4322509765625 350.537109375 C 203.54006958007812 351.14202880859375 192.95565795898438 350.5802001953125 178.57923889160156 351.0052490234375" stroke-width="0.0" fill="rgb(105, 95, 95)" opacity="1.0013155" stroke="rgb(0, 0, 0)" stroke-opacity="1.0" stroke-linecap="round" stroke-linejoin="round"/>
    <path d="M 60.934967041015625 392.7978515625 C 70.14659118652344 392.9294738769531 83.07476806640625 392.49212646484375 103.57178497314453 391.66912841796875 C 95.73517608642578 381.5386657714844 81.60111236572266 385.1384582519531 73.94902038574219 377.806640625 C 70.02267456054688 378.5895080566406 65.61324310302734 382.095458984375 60.934967041015625 392.7978515625" stroke-width="0.0" fill="rgb(59, 61, 69)" opacity="1.0006044" stroke="rgb(0, 0, 0)" stroke-opacity="1.0" stroke-linecap="round" stroke-linejoin="round"/>
    <path d="M 179.0453338623047 350.1671142578125 C 173.69139099121094 354.9754333496094 171.47796630859375 360.7493591308594 169.6842041015625 374.3968200683594 C 173.03175354003906 374.9317321777344 178.2759246826172 374.3489074707031 186.4601593017578 373.1483459472656 C 189.5272674560547 372.15948486328125 192.2567901611328 371.61175537109375 191.4901885986328 368.76812744140625 C 187.70606994628906 360.69659423828125 185.07870483398438 354.1933288574219 179.0453338623047 350.1671142578125" stroke-width="0.0" fill="rgb(58, 66, 79)" opacity="0.99616164" stroke="rgb(0, 0, 0)" stroke-opacity="1.0" stroke-linecap="round" stroke-linejoin="round"/>
    <path d="M 64.16808319091797 371.82891845703125 C 58.016727447509766 372.2193908691406 52.17435073852539 372.5997009277344 45.12559127807617 370.3931884765625 C 43.72322082519531 373.3263244628906 43.21479797363281 377.8990783691406 44.13898849487305 383.1868896484375 C 52.07988357543945 384.4163513183594 58.34746551513672 384.7687072753906 63.99875259399414 382.2445068359375 C 68.38667297363281 379.8390808105469 68.21219635009766 376.2418212890625 64.16808319091797 371.82891845703125" stroke-width="0.0" fill="rgb(84, 70, 58)" opacity="0.9989939" stroke="rgb(0, 0, 0)" stroke-opacity="1.0" stroke-linecap="round" stroke-linejoin="round"/>
    <path d="M 320.3668518066406 436.5418395996094 C 321.04058837890625 443.8123779296875 313.8918762207031 444.56103515625 315.3114318847656 451.2738952636719 C 318.84124755859375 457.51251220703125 324.9583435058594 455.793212890625 335.1881103515625 454.9466857910156 C 334.2490234375 446.1367492675781 333.05572509765625 441.1240234375 332.3974609375 434.993408203125 C 327.2943115234375 434.4286804199219 323.9399719238281 434.72161865234375 320.3668518066406 436.5418395996094" stroke-width="0.0" fill="rgb(41, 38, 40)" opacity="1.0005674" stroke="rgb(0, 0, 0)" stroke-opacity="1.0" stroke-linecap="round" stroke-linejoin="round"/>
    <path d="M 274.0843505859375 422.85076904296875 C 282.452880859375 424.9727478027344 293.17626953125 424.4920349121094 310.47918701171875 423.0128479003906 C 309.2821960449219 414.14996337890625 305.33941650390625 414.03692626953125 300.4750061035156 414.41607666015625 C 289.4771728515625 412.1507263183594 280.99755859375 412.552490234375 274.0843505859375 422.85076904296875" stroke-width="0.0" fill="rgb(53, 49, 47)" opacity="0.99993694" stroke="rgb(0, 0, 0)" stroke-opacity="1.0" stroke-linecap="round" stroke-linejoin="round"/>
    <path d="M 256.2476806640625 363.603759765625 C 256.82232666015625 365.90069580078125 257.10400390625 368.5555114746094 259.9969787597656 369.9169006347656 C 269.2857360839844 369.67156982421875 279.0989074707031 369.52655029296875 293.1645202636719 365.7901306152344 C 286.3885192871094 359.85736083984375 277.71026611328125 359.77093505859375 266.3929138183594 359.4185791015625 C 262.5236511230469 358.1481018066406 259.36578369140625 360.5416564941406 256.2476806640625 363.603759765625" stroke-width="0.0" fill="rgb(57, 59, 70)" opacity="1.0004219" stroke="rgb(0, 0, 0)" stroke-opacity="1.0" stroke-linecap="round" stroke-linejoin="round"/>
    <path d="M 475.8565979003906 424.695556640625 C 471.635009765625 424.2449035644531 465.3105773925781 425.87164306640625 460.5496826171875 427.1181945800781 C 455.89288330078125 424.6261901855469 455.0664367675781 428.1793212890625 454.817138671875 435.1987609863281 C 459.15484619140625 437.67437744140625 465.02435302734375 436.9503173828125 472.72064208984375 435.95330810546875 C 474.35919189453125 433.05609130859375 475.7834777832031 430.7630615234375 475.8565979003906 424.695556640625" stroke-width="0.0" fill="rgb(41, 36, 33)" opacity="1.000594" stroke="rgb(0, 0, 0)" stroke-opacity="1.0" stroke-linecap="round" stroke-linejoin="round"/>
    <path d="M 234.09559631347656 418.357177734375 C 226.8050537109375 412.30853271484375 220.04412841796875 413.6902770996094 212.96084594726562 416.56390380859375 C 210.9052734375 421.48284912109375 209.5485076904297 425.07470703125 214.44635009765625 432.4901123046875 C 222.80007934570312 429.2703552246094 228.9412384033203 425.8624572753906 234.09559631347656 418.357177734375" stroke-width="0.0" fill="rgb(71, 58, 40)" opacity="1.0000062" stroke="rgb(0, 0, 0)" stroke-opacity="1.0" stroke-linecap="round" stroke-linejoin="round"/>
    <path d="M 336.2825927734375 351.36663818359375 C 338.2815246582031 355.6133117675781 338.7438049316406 361.8304748535156 337.3800048828125 370.6845397949219 C 339.01971435546875 370.449462890625 342.6625061035156 369.62567138671875 347.7277526855469 369.5576477050781 C 349.0152587890625 363.1871643066406 350.2895812988281 357.6015625 350.0306701660156 351.0247497558594 C 344.2543640136719 349.2579040527344 339.99041748046875 349.1739807128906 336.2825927734375 351.36663818359375" stroke-width="0.0" fill="rgb(98, 86, 76)" opacity="1.0008005" stroke="rgb(0, 0, 0)" stroke-opacity="1.0" stroke-linecap="round" stroke-linejoin="round"/>
    <path d="M 339.8719482421875 373.3013916015625 C 345.03228759765625 376.4009094238281 341.65765380859375 381.0166320800781 343.5891418457031 381.2023620605469 C 338.6592712402344 382.9588623046875 327.6666564941406 383.960693359375 307.2638854980469 380.7344055175781 C 316.98876953125 371.57257080078125 328.0450744628906 371.61761474609375 339.8719482421875 373.3013916015625" stroke-width="0.0" fill="rgb(59, 54, 56)" opacity="0.9996212" stroke="rgb(0, 0, 0)" stroke-opacity="1.0" stroke-linecap="round" stroke-linejoin="round"/>
    <path d="M 147.44471740722656 354.11444091796875 C 154.22396850585938 359.0047607421875 162.77964782714844 359.9154052734375 175.20484924316406 363.16387939453125 C 175.6835174560547 362.128173828125 177.7671661376953 358.8861389160156 179.0113983154297 353.35089111328125 C 163.8340301513672 349.6329345703125 155.45413208007812 350.6481018066406 147.44471740722656 354.11444091796875" stroke-width="0.0" fill="rgb(102, 98, 102)" opacity="1.0029969" stroke="rgb(0, 0, 0)" stroke-opacity="1.0" stroke-linecap="round" stroke-linejoin="round"/>
    <path d="M 505.4093933105469 201.79307556152344 C 491.69757080078125 199.3480224609375 489.00970458984375 206.21791076660156 483.546142578125 210.37457275390625 C 484.2378234863281 213.91136169433594 484.64093017578125 217.54229736328125 483.74554443359375 221.7831573486328 C 490.614013671875 216.2559814453125 499.04730224609375 212.3919219970703 505.4093933105469 201.79307556152344" stroke-width="0.0" fill="rgb(119, 146, 177)" opacity="1.0005224" stroke="rgb(0, 0, 0)" stroke-opacity="1.0" stroke-linecap="round" stroke-linejoin="round"/>
    <path d="M 314.0972900390625 455.29150390625 C 310.9817199707031 445.7418212890625 307.8692626953125 445.0580749511719 301.4320068359375 448.0741882324219 C 297.4810485839844 448.4908142089844 295.1957092285156 450.4612731933594 296.3625183105469 458.6361999511719 C 305.8708190917969 458.864013671875 311.54217529296875 458.0638427734375 314.0972900390625 455.29150390625" stroke-width="0.0" fill="rgb(31, 30, 35)" opacity="1.00027" stroke="rgb(0, 0, 0)" stroke-opacity="1.0" stroke-linecap="round" stroke-linejoin="round"/>
    <path d="M 70.63367462158203 389.4574890136719 C 61.24791717529297 394.4623718261719 57.47658157348633 401.1181640625 53.870750427246094 410.66851806640625 C 54.859188079833984 409.16656494140625 57.853816986083984 409.45941162109375 60.4994010925293 410.37255859375 C 63.243080139160156 403.57965087890625 69.27892303466797 400.2834167480469 70.63367462158203 389.4574890136719" stroke-width="0.0" fill="rgb(97, 81, 72)" opacity="1.0013999" stroke="rgb(0, 0, 0)" stroke-opacity="1.0" stroke-linecap="round" stroke-linejoin="round"/>
    <path d="M 3.0643324851989746 497.9573059082031 C 0.7110943794250488 504.26922607421875 0.45256829261779785 505.76849365234375 1.3589247465133667 504.74505615234375 C 11.036372184753418 505.4739990234375 16.352947235107422 506.4504699707031 20.63418197631836 502.1963195800781 C 16.110414505004883 496.0867919921875 11.121247291564941 495.0059509277344 3.0643324851989746 497.9573059082031" stroke-width="0.0" fill="rgb(31, 30, 36)" opacity="1.0002581" stroke="rgb(0, 0, 0)" stroke-opacity="1.0" stroke-linecap="round" stroke-linejoin="round"/>
    <path d="M 400.0350341796875 382.74798583984375 C 406.43121337890625 385.6669616699219 404.0013427734375 390.13916015625 402.81298828125 384.58209228515625 C 400.45416259765625 392.73492431640625 397.1689758300781 396.5483093261719 388.44873046875 395.7069396972656 C 390.5721130371094 386.7613830566406 394.6689453125 383.8074035644531 400.0350341796875 382.74798583984375" stroke-width="0.0" fill="rgb(46, 43, 50)" opacity="1.0000576" stroke="rgb(0, 0, 0)" stroke-opacity="1.0" stroke-linecap="round" stroke-linejoin="round"/>
    <path d="M 129.05938720703125 457.7182922363281 C 130.84063720703125 463.25732421875 132.70303344726562 463.6260070800781 129.6570587158203 460.7589111328125 C 140.63104248046875 464.5712585449219 146.9427490234375 463.81121826171875 150.4129180908203 454.91302490234375 C 138.68785095214844 454.3423156738281 133.19395446777344 456.00628662109375 129.05938720703125 457.7182922363281" stroke-width="0.0" fill="rgb(41, 40, 40)" opacity="1.0002776" stroke="rgb(0, 0, 0)" stroke-opacity="1.0" stroke-linecap="round" stroke-linejoin="round"/>
    <path d="M 52.492652893066406 421.6521911621094 C 54.354740142822266 423.53955078125 53.078556060791016 426.7354736328125 54.115482330322266 424.71368408203125 C 50.105262756347656 426.0201416015625 42.68565368652344 426.480224609375 28.04077911376953 424.86669921875 C 35.57472610473633 420.8768310546875 45.12710189819336 421.9288024902344 52.492652893066406 421.6521911621094" stroke-width="0.0" fill="rgb(109, 101, 92)" opacity="1.000998" stroke="rgb(0, 0, 0)" stroke-opacity="1.0" stroke-linecap="round" stroke-linejoin="round"/>
    <path d="M 262.0830993652344 409.67108154296875 C 261.3374328613281 414.5179748535156 262.0999755859375 418.11767578125 265.64752197265625 421.69854736328125 C 270.76849365234375 417.9547119140625 270.9045104980469 414.3648681640625 271.0840759277344 410.0399475097656 C 268.1169738769531 408.632080078125 265.8868103027344 408.76824951171875 262.0830993652344 409.67108154296875" stroke-width="0.0" fill="rgb(48, 43, 39)" opacity="1.0000052" stroke="rgb(0, 0, 0)" stroke-opacity="1.0" stroke-linecap="round" stroke-linejoin="round"/>
    <path d="M 304.5554504394531 432.54132080078125 C 312.10687255859375 436.26226806640625 309.9501647949219 440.28900146484375 309.763671875 439.0013427734375 C 307.33135986328125 440.125732421875 304.619384765625 444.1270446777344 298.4851379394531 443.7120361328125 C 300.01263427734375 436.55902099609375 302.4431457519531 434.0554504394531 304.5554504394531 432.54132080078125" stroke-width="0.0" fill="rgb(50, 43, 40)" opacity="0.9999755" stroke="rgb(0, 0, 0)" stroke-opacity="1.0" stroke-linecap="round" stroke-linejoin="round"/>
    <path d="M 193.4254608154297 461.80657958984375 C 193.1022186279297 465.0879821777344 195.87844848632812 465.77044677734375 204.41229248046875 466.4743347167969 C 203.92620849609375 458.5949401855469 203.1248779296875 457.19158935546875 201.60157775878906 456.59429931640625 C 196.846923828125 455.3078308105469 194.859375 456.0831604003906 193.4254608154297 461.80657958984375" stroke-width="0.0" fill="rgb(41, 38, 40)" opacity="0.99981594" stroke="rgb(0, 0, 0)" stroke-opacity="1.0" stroke-linecap="round" stroke-linejoin="round"/>
    <path d="M 78.9989013671875 396.73150634765625 C 73.02369689941406 396.255126953125 69.22429656982422 396.3431701660156 69.87799072265625 399.4346618652344 C 61.5288200378418 411.2730712890625 55.4374885559082 422.19775390625 52.333152770996094 439.6566162109375 C 49.934303283691406 459.5274658203125 52.81093978881836 478.033935546875 56.613372802734375 493.0641174316406 C 65.58041381835938 493.7107849121094 69.38544464111328 492.9704895019531 73.92646789550781 491.2819519042969 C 77.20833587646484 488.1197509765625 79.75299835205078 484.0135498046875 81.42121887207031 477.2796325683594 C 79.41744995117188 455.26434326171875 87.36592102050781 439.97222900390625 87.71490478515625 419.5511779785156 C 85.50995635986328 409.22637939453125 82.14061737060547 402.3157043457031 78.9989013671875 396.73150634765625" stroke-width="0.0" fill="rgb(73, 55, 40)" opacity="0.99931717" stroke="rgb(0, 0, 0)" stroke-opacity="1.0" stroke-linecap="round" stroke-linejoin="round"/>
    <path d="M 114.34807586669922 376.4685363769531 C 133.70741271972656 376.70550537109375 148.7058868408203 376.04010009765625 161.3521728515625 374.1372985839844 C 151.5340118408203 360.0909729003906 142.31427001953125 353.79736328125 130.20846557617188 349.5487365722656 C 121.81184387207031 353.4956359863281 116.8381118774414 361.1421203613281 114.34807586669922 376.4685363769531" stroke-width="0.0" fill="rgb(51, 61, 76)" opacity="0.99976414" stroke="rgb(0, 0, 0)" stroke-opacity="1.0" stroke-linecap="round" stroke-linejoin="round"/>
    <path d="M 101.0324935913086 417.6583557128906 C 99.54125213623047 418.8863525390625 98.60224914550781 419.0543212890625 101.25564575195312 416.2913513183594 C 112.26527404785156 420.4165344238281 119.22257995605469 421.0706787109375 125.5165023803711 415.8994445800781 C 117.35469818115234 412.94464111328125 109.65886688232422 414.50628662109375 101.0324935913086 417.6583557128906" stroke-width="0.0" fill="rgb(104, 104, 108)" opacity="0.9954915" stroke="rgb(0, 0, 0)" stroke-opacity="1.0" stroke-linecap="round" stroke-linejoin="round"/>
    <path d="M 514.2725219726562 430.5186767578125 C 437.420166015625 437.3612976074219 369.1092224121094 448.7315673828125 299.0220031738281 459.4866943359375 C 282.13812255859375 464.3591613769531 263.0411682128906 467.4669494628906 245.59556579589844 472.2773742675781 C 245.86082458496094 479.79205322265625 240.1034393310547 481.6532897949219 237.2099151611328 489.468017578125 C 245.7771453857422 487.71209716796875 249.75100708007812 484.4257507324219 252.3577117919922 485.31549072265625 C 248.17498779296875 495.8402099609375 241.3478240966797 499.6076965332031 232.7149658203125 503.7250671386719 C 223.4303436279297 503.9676513671875 211.1744384765625 504.6911926269531 199.8277587890625 503.64300537109375 C 202.236328125 496.324951171875 201.41030883789062 489.62615966796875 199.0072479248047 486.354736328125 C 195.3203582763672 495.2811279296875 190.70738220214844 500.2764587402344 183.91481018066406 503.32379150390625 C 177.24160766601562 507.35467529296875 164.20645141601562 505.84625244140625 156.2125701904297 514.7461547851562 C 274.457763671875 515.3411254882812 391.37408447265625 515.6768798828125 514.3448486328125 516.00927734375 C 514.8267211914062 484.7215270996094 515.1151733398438 455.7723388671875 514.2725219726562 430.5186767578125" stroke-width="0.0" fill="rgb(55, 49, 38)" opacity="0.99020606" stroke="rgb(0, 0, 0)" stroke-opacity="1.0" stroke-linecap="round" stroke-linejoin="round"/>
    <path d="M 444.50445556640625 288.05816650390625 C 437.7926940917969 317.7161865234375 431.1936340332031 347.0860290527344 426.27679443359375 383.8180847167969 C 425.1175231933594 392.96221923828125 431.039306640625 401.31353759765625 443.6737060546875 410.4570007324219 C 447.7974548339844 381.6859130859375 442.6685485839844 345.0894470214844 451.204833984375 318.86273193359375 C 455.1085205078125 308.41015625 452.7455139160156 297.5276184082031 444.50445556640625 288.05816650390625" stroke-width="0.0" fill="rgb(66, 55, 41)" opacity="0.99224126" stroke="rgb(0, 0, 0)" stroke-opacity="1.0" stroke-linecap="round" stroke-linejoin="round"/>
    <path d="M 140.9767608642578 501.943359375 C 129.25274658203125 500.62237548828125 124.92534637451172 501.5558776855469 118.397705078125 509.53955078125 C 118.38453674316406 502.1793212890625 119.2038345336914 497.6429443359375 116.12950134277344 497.6239929199219 C 108.31980895996094 501.9306335449219 111.53527069091797 506.616943359375 112.31340026855469 507.65972900390625 C 107.19644927978516 506.0011901855469 106.90277862548828 501.49224853515625 105.07041931152344 498.2495422363281 C 104.61833953857422 501.7245178222656 103.0967788696289 503.260498046875 102.23745727539062 504.9727783203125 C 99.51497650146484 505.7090148925781 102.202880859375 501.7986755371094 103.26318359375 499.513916015625 C 95.90969848632812 499.5564270019531 94.82135772705078 499.428955078125 95.73432922363281 507.0947570800781 C 93.66239166259766 502.1833190917969 94.54325866699219 499.3337707519531 91.4238510131836 497.8837585449219 C 60.7794075012207 499.4864807128906 30.899410247802734 502.100830078125 1.1374074220657349 512.4423828125 C 48.29458999633789 515.8952026367188 93.3683853149414 515.2839965820312 139.60986328125 515.0708618164062 C 139.3756103515625 508.9258117675781 142.3642578125 508.3323974609375 140.9767608642578 501.943359375" stroke-width="0.0" fill="rgb(53, 49, 41)" opacity="1.0000799" stroke="rgb(0, 0, 0)" stroke-opacity="1.0" stroke-linecap="round" stroke-linejoin="round"/>
    <path d="M 435.0289001464844 405.6733093261719 C 429.2004699707031 407.7328796386719 426.8949890136719 415.00445556640625 421.58807373046875 420.7998962402344 C 420.20074462890625 423.8827209472656 421.17181396484375 428.0401916503906 422.85064697265625 431.5146179199219 C 429.9155578613281 430.9340515136719 434.8692626953125 429.4979553222656 440.1875 427.347900390625 C 441.90283203125 417.35748291015625 442.5515441894531 411.2348327636719 435.0289001464844 405.6733093261719" stroke-width="0.0" fill="rgb(52, 50, 53)" opacity="1.0012573" stroke="rgb(0, 0, 0)" stroke-opacity="1.0" stroke-linecap="round" stroke-linejoin="round"/>
    <path d="M 98.35255432128906 322.6155700683594 C 103.76080322265625 323.40069580078125 103.95836639404297 323.9029235839844 107.99787139892578 327.666748046875 C 108.53948974609375 339.1654052734375 108.29905700683594 351.5964660644531 100.1962661743164 362.5856018066406 C 95.96695709228516 345.02276611328125 96.59772491455078 332.52874755859375 98.35255432128906 322.6155700683594" stroke-width="0.0" fill="rgb(65, 74, 86)" opacity="0.99908996" stroke="rgb(0, 0, 0)" stroke-opacity="1.0" stroke-linecap="round" stroke-linejoin="round"/>
    <path d="M 65.47383880615234 337.3009338378906 C 67.33329772949219 331.32537841796875 67.78433227539062 335.09881591796875 69.91976165771484 338.88037109375 C 74.12019348144531 348.50762939453125 75.10297393798828 360.8211364746094 70.07332611083984 378.65142822265625 C 63.52803421020508 366.035888671875 65.06407928466797 350.67572021484375 65.47383880615234 337.3009338378906" stroke-width="0.0" fill="rgb(51, 63, 77)" opacity="1.0000787" stroke="rgb(0, 0, 0)" stroke-opacity="1.0" stroke-linecap="round" stroke-linejoin="round"/>
    <path d="M 437.596435546875 407.1943664550781 C 431.8397216796875 401.5990905761719 426.3659362792969 402.9769592285156 421.8400573730469 404.58935546875 C 414.6285095214844 406.5252990722656 407.8311462402344 408.5673828125 406.355712890625 420.497314453125 C 420.2195739746094 416.965087890625 428.2810363769531 412.2944641113281 437.596435546875 407.1943664550781" stroke-width="0.0" fill="rgb(45, 41, 44)" opacity="0.9971719" stroke="rgb(0, 0, 0)" stroke-opacity="1.0" stroke-linecap="round" stroke-linejoin="round"/>
    <path d="M 116.90065002441406 331.8271484375 C 108.85676574707031 337.0882568359375 109.5628662109375 344.7768249511719 110.4155044555664 353.6896057128906 C 110.77268981933594 355.652587890625 112.76925659179688 357.78643798828125 121.61798095703125 358.90985107421875 C 120.3546371459961 346.092041015625 118.8616943359375 338.25653076171875 116.90065002441406 331.8271484375" stroke-width="0.0" fill="rgb(40, 56, 80)" opacity="0.9996032" stroke="rgb(0, 0, 0)" stroke-opacity="1.0" stroke-linecap="round" stroke-linejoin="round"/>
    <path d="M 180.32183837890625 349.9808654785156 C 175.04312133789062 353.252685546875 172.2458953857422 358.53662109375 171.08795166015625 369.2868957519531 C 179.5640106201172 369.2967224121094 181.83592224121094 366.389404296875 182.3014678955078 363.4539794921875 C 182.8609161376953 356.2189636230469 184.78750610351562 350.9703369140625 180.32183837890625 349.9808654785156" stroke-width="0.0" fill="rgb(54, 64, 76)" opacity="0.9996837" stroke="rgb(0, 0, 0)" stroke-opacity="1.0" stroke-linecap="round" stroke-linejoin="round"/>
    <path d="M 314.0114440917969 376.0999755859375 C 315.6781005859375 381.9888916015625 319.0866394042969 382.3193359375 316.83953857421875 378.8524169921875 C 327.27032470703125 384.45556640625 335.73382568359375 384.91796875 340.26641845703125 376.05633544921875 C 325.7270202636719 374.1313171386719 319.1260681152344 374.3883361816406 314.0114440917969 376.0999755859375" stroke-width="0.0" fill="rgb(51, 50, 54)" opacity="0.99992424" stroke="rgb(0, 0, 0)" stroke-opacity="1.0" stroke-linecap="round" stroke-linejoin="round"/>
    <path d="M 219.77183532714844 349.4998779296875 C 213.67608642578125 352.894775390625 213.52236938476562 356.3362731933594 215.2082977294922 361.2538146972656 C 217.68264770507812 364.2250061035156 219.96697998046875 363.9167175292969 224.48133850097656 361.8205261230469 C 224.0077667236328 354.41168212890625 222.88426208496094 350.6323547363281 219.77183532714844 349.4998779296875" stroke-width="0.0" fill="rgb(62, 63, 76)" opacity="0.9997078" stroke="rgb(0, 0, 0)" stroke-opacity="1.0" stroke-linecap="round" stroke-linejoin="round"/>
    <path d="M 233.7747344970703 479.8367614746094 C 239.8792266845703 484.6457824707031 239.38845825195312 487.6527099609375 239.85916137695312 486.5008544921875 C 236.922119140625 488.612060546875 233.44325256347656 489.7554931640625 226.76902770996094 488.07159423828125 C 226.97203063964844 481.6529235839844 229.83119201660156 480.31854248046875 233.7747344970703 479.8367614746094" stroke-width="0.0" fill="rgb(38, 35, 33)" opacity="0.9998857" stroke="rgb(0, 0, 0)" stroke-opacity="1.0" stroke-linecap="round" stroke-linejoin="round"/>
    <path d="M 320.812744140625 435.95855712890625 C 320.1670837402344 439.30255126953125 320.1134948730469 440.908447265625 322.4500427246094 443.01898193359375 C 328.8455810546875 443.8592834472656 331.0397644042969 443.7998046875 333.1852722167969 437.95184326171875 C 330.0946350097656 434.5294189453125 326.937255859375 434.7154846191406 320.812744140625 435.95855712890625" stroke-width="0.0" fill="rgb(51, 43, 40)" opacity="0.9998564" stroke="rgb(0, 0, 0)" stroke-opacity="1.0" stroke-linecap="round" stroke-linejoin="round"/>
    <path d="M 104.5774154663086 415.9309387207031 C 105.7082290649414 417.5340881347656 106.37389373779297 418.4460754394531 107.92418670654297 417.2799377441406 C 113.95320129394531 418.8624572753906 119.00891876220703 420.2900695800781 123.55953216552734 416.3205871582031 C 118.16207885742188 413.68389892578125 110.19760131835938 416.55096435546875 104.5774154663086 415.9309387207031" stroke-width="0.0" fill="rgb(129, 128, 129)" opacity="0.99962723" stroke="rgb(0, 0, 0)" stroke-opacity="1.0" stroke-linecap="round" stroke-linejoin="round"/>
    <path d="M 514.45947265625 430.74700927734375 C 465.14013671875 436.6289978027344 422.08966064453125 443.2678527832031 378.56024169921875 450.8828125 C 365.26544189453125 458.9064025878906 358.12615966796875 474.8746643066406 346.05145263671875 486.4344177246094 C 352.36358642578125 492.85333251953125 361.0352478027344 497.24615478515625 366.2384033203125 507.88397216796875 C 363.7486267089844 507.1607360839844 360.55157470703125 507.512451171875 357.6243591308594 514.4109497070312 C 408.2569274902344 515.204345703125 459.3047790527344 514.9744873046875 514.8515625 515.0161743164062 C 515.0811767578125 483.1775817871094 515.6942138671875 456.2099609375 514.45947265625 430.74700927734375" stroke-width="0.0" fill="rgb(44, 38, 33)" opacity="1.0030173" stroke="rgb(0, 0, 0)" stroke-opacity="1.0" stroke-linecap="round" stroke-linejoin="round"/>
    <path d="M 353.3285827636719 514.5114135742188 C 349.0278015136719 501.80877685546875 343.9384460449219 498.2531433105469 337.682373046875 495.5003356933594 C 331.4018249511719 491.9356994628906 324.5521545410156 489.09246826171875 319.8856506347656 488.3733825683594 C 301.0804138183594 488.0956115722656 291.2496643066406 493.3115539550781 281.98504638671875 500.2433166503906 C 275.26947021484375 500.82427978515625 271.3929748535156 504.38800048828125 268.4116516113281 516.2537841796875 C 299.99163818359375 515.7828979492188 327.2375793457031 515.3355102539062 353.3285827636719 514.5114135742188" stroke-width="0.0" fill="rgb(28, 27, 31)" opacity="0.9995698" stroke="rgb(0, 0, 0)" stroke-opacity="1.0" stroke-linecap="round" stroke-linejoin="round"/>
    <path d="M 129.78439331054688 350.0290832519531 C 127.52251434326172 358.9259948730469 127.05903625488281 366.18359375 126.65066528320312 375.044189453125 C 141.7559356689453 375.6833190917969 154.6263885498047 377.37237548828125 167.1603240966797 376.4429626464844 C 158.8092498779297 363.41143798828125 145.4613800048828 360.1319274902344 138.21726989746094 352.71893310546875 C 135.0123291015625 355.9624938964844 132.5514373779297 352.0390319824219 129.78439331054688 350.0290832519531" stroke-width="0.0" fill="rgb(46, 58, 74)" opacity="0.9995396" stroke="rgb(0, 0, 0)" stroke-opacity="1.0" stroke-linecap="round" stroke-linejoin="round"/>
    <path d="M 119.72997283935547 513.701904296875 C 126.33321380615234 514.7977294921875 133.80686950683594 515.1652221679688 146.41197204589844 514.2740478515625 C 143.78915405273438 504.2288513183594 139.69329833984375 502.9143371582031 132.6800079345703 503.17340087890625 C 127.08969116210938 503.1591796875 122.97742462158203 504.335205078125 119.72997283935547 513.701904296875" stroke-width="0.0" fill="rgb(73, 58, 46)" opacity="1.0001674" stroke="rgb(0, 0, 0)" stroke-opacity="1.0" stroke-linecap="round" stroke-linejoin="round"/>
    <path d="M 136.3120880126953 352.4994812011719 C 134.04043579101562 354.7599182128906 136.05677795410156 361.72454833984375 136.17262268066406 369.2751159667969 C 141.5755157470703 365.0501708984375 147.7593994140625 363.93841552734375 153.75210571289062 365.2000427246094 C 148.01649475097656 360.7736511230469 141.142822265625 357.8074645996094 136.3120880126953 352.4994812011719" stroke-width="0.0" fill="rgb(47, 61, 77)" opacity="1.000076" stroke="rgb(0, 0, 0)" stroke-opacity="1.0" stroke-linecap="round" stroke-linejoin="round"/>
    <path d="M 393.10101318359375 457.5858459472656 C 390.529052734375 465.8426818847656 391.1139831542969 466.6993713378906 392.9512939453125 466.9060363769531 C 399.2630615234375 467.0272216796875 402.1819763183594 466.7848815917969 406.3535461425781 463.8787536621094 C 402.8961181640625 458.8863525390625 399.110595703125 457.4194641113281 393.10101318359375 457.5858459472656" stroke-width="0.0" fill="rgb(32, 28, 30)" opacity="1.000067" stroke="rgb(0, 0, 0)" stroke-opacity="1.0" stroke-linecap="round" stroke-linejoin="round"/>
    <path d="M 369.2990417480469 499.8470458984375 C 363.88519287109375 502.2623596191406 366.59393310546875 507.14947509765625 366.254638671875 514.3137817382812 C 367.8296813964844 513.8157348632812 370.4045715332031 514.3402709960938 375.4392395019531 510.9222717285156 C 375.4300231933594 502.5322265625 374.1375732421875 498.9372863769531 369.2990417480469 499.8470458984375" stroke-width="0.0" fill="rgb(28, 25, 30)" opacity="0.9999867" stroke="rgb(0, 0, 0)" stroke-opacity="1.0" stroke-linecap="round" stroke-linejoin="round"/>
    <path d="M 137.1191864013672 350.3983459472656 C 141.3970489501953 346.0019226074219 141.6573486328125 347.5111999511719 139.21482849121094 351.5439147949219 C 140.40460205078125 356.5833435058594 143.65792846679688 357.85308837890625 136.12088012695312 359.0650939941406 C 135.0946044921875 358.1512451171875 135.87997436523438 355.36181640625 137.1191864013672 350.3983459472656" stroke-width="0.0" fill="rgb(46, 60, 77)" opacity="1.0000019" stroke="rgb(0, 0, 0)" stroke-opacity="1.0" stroke-linecap="round" stroke-linejoin="round"/>
  </g>
</svg>
