<?xml version="1.0" ?>
<svg xmlns="http://www.w3.org/2000/svg" version="1.1" width="512" height="512">
  <defs/>
  <g>
    <path d="M -1.9652124643325806 -1.5597267150878906 C -1.5523535013198853 170.3333282470703 -0.9426204562187195 340.66717529296875 -3.2633423805236816 518.1948852539062 C 170.0747833251953 518.4963989257812 340.3386535644531 519.1334228515625 518.6744995117188 520.20556640625 C 518.8843383789062 341.3227233886719 519.2498779296875 170.74221801757812 519.7069091796875 -1.2873224020004272 C 340.6666564941406 -1.367435336112976 170.3333282470703 -1.4030563831329346 -1.9652124643325806 -1.5597267150878906" stroke-width="0.0" fill="rgb(104, 114, 214)" opacity="0.75032306" stroke="rgb(0, 0, 0)" stroke-opacity="1.0" stroke-linecap="round" stroke-linejoin="round"/>
    <path d="M 523.0234985351562 178.90467834472656 C 466.2240295410156 171.0926513671875 435.3531188964844 152.68382263183594 393.9320068359375 151.5267791748047 C 375.4227294921875 145.45816040039062 364.59326171875 135.80642700195312 348.9000549316406 133.67747497558594 C 339.41058349609375 130.2430419921875 318.6479797363281 130.12435913085938 303.74810791015625 131.8923797607422 C 291.64019775390625 131.1122283935547 280.3709411621094 139.88015747070312 269.3028869628906 144.58880615234375 C 247.7617645263672 158.63795471191406 230.73489379882812 175.0247344970703 216.62921142578125 195.5751495361328 C 214.260498046875 175.88722229003906 221.7671356201172 200.6173858642578 227.396240234375 182.4606475830078 C 186.80078125 186.6336212158203 149.23228454589844 185.07498168945312 115.34310913085938 189.30072021484375 C 94.29761505126953 191.34547424316406 78.3337173461914 196.21035766601562 61.60506820678711 200.5999755859375 C 46.66801834106445 212.18777465820312 23.373607635498047 214.11199951171875 -9.614062309265137 231.04727172851562 C -12.353825569152832 308.311279296875 -12.280077934265137 406.0318603515625 -11.411942481994629 521.6376342773438 C 166.7949981689453 521.3452758789062 338.65771484375 520.2369384765625 519.3079833984375 519.1492309570312 C 520.4302978515625 397.1048889160156 521.4765625 283.8834228515625 523.0234985351562 178.90467834472656" stroke-width="0.0" fill="rgb(113, 102, 106)" opacity="1.0216264" stroke="rgb(0, 0, 0)" stroke-opacity="1.0" stroke-linecap="round" stroke-linejoin="round"/>
    <path d="M 442.6600036621094 152.03106689453125 C 431.81048583984375 154.32374572753906 439.9130859375 155.06317138671875 444.87200927734375 159.7178192138672 C 459.21771240234375 158.4390869140625 473.07672119140625 167.6792449951172 488.0558776855469 160.59866333007812 C 474.31317138671875 156.60513305664062 451.45745849609375 151.0467071533203 442.6600036621094 152.03106689453125" stroke-width="0.0" fill="rgb(109, 108, 149)" opacity="0.9908804" stroke="rgb(0, 0, 0)" stroke-opacity="1.0" stroke-linecap="round" stroke-linejoin="round"/>
    <path d="M 215.35487365722656 177.38563537597656 C 206.67300415039062 174.89849853515625 200.60910034179688 174.69898986816406 199.36048889160156 182.7451629638672 C 197.01400756835938 190.31222534179688 199.90785217285156 185.8968963623047 189.92845153808594 183.61033630371094 C 196.58551025390625 183.10012817382812 212.93093872070312 189.00909423828125 215.35487365722656 177.38563537597656" stroke-width="0.0" fill="rgb(181, 185, 211)" opacity="1.0004654" stroke="rgb(0, 0, 0)" stroke-opacity="1.0" stroke-linecap="round" stroke-linejoin="round"/>
    <path d="M 508.0737609863281 350.83026123046875 C 509.0820007324219 350.16278076171875 507.9337158203125 349.6292419433594 508.20941162109375 351.07733154296875 C 507.5824279785156 350.1382751464844 509.3150329589844 353.8675231933594 511.4627380371094 366.1615295410156 C 510.9014892578125 372.9527587890625 516.98681640625 377.5787658691406 515.3687744140625 401.3686828613281 C 482.3055419921875 401.00970458984375 473.44140625 399.792236328125 474.79779052734375 394.54522705078125 C 479.5824890136719 373.54833984375 478.82586669921875 378.2648620605469 474.79425048828125 394.3086242675781 C 440.782958984375 374.2724304199219 412.951416015625 377.5115051269531 393.4697570800781 391.3193359375 C 255.87730407714844 389.8520812988281 128.98260498046875 386.2495422363281 -6.731221675872803 389.3254089355469 C 1.9624318156274967e-05 429.0 -8.991586946649477e-05 470.0 -0.42675918340682983 519.875 C 170.1684112548828 520.3181762695312 340.61114501953125 520.6014404296875 519.8411865234375 520.5806884765625 C 521.7965087890625 454.0411376953125 519.2402954101562 400.7879943847656 508.0737609863281 350.83026123046875" stroke-width="0.0" fill="rgb(66, 63, 59)" opacity="1.0256058" stroke="rgb(0, 0, 0)" stroke-opacity="1.0" stroke-linecap="round" stroke-linejoin="round"/>
    <path d="M 510.8126525878906 172.73138427734375 C 458.885009765625 167.580322265625 433.5182800292969 153.88571166992188 397.1732482910156 152.01675415039062 C 376.6277770996094 145.45806884765625 366.78662109375 137.47413635253906 353.94293212890625 134.34329223632812 C 337.3526306152344 130.14146423339844 326.71044921875 130.11080932617188 302.951416015625 131.6419219970703 C 289.7240295410156 132.95077514648438 275.5806579589844 141.1010284423828 262.8384704589844 149.0248260498047 C 242.7455291748047 162.6983184814453 231.19094848632812 181.74327087402344 216.32101440429688 196.1509246826172 C 208.98361206054688 190.43406677246094 206.76934814453125 183.94769287109375 213.32386779785156 186.216552734375 C 168.1457977294922 186.77513122558594 146.23458862304688 185.62283325195312 108.42693328857422 190.5758819580078 C 94.30309295654297 192.24415588378906 77.19181823730469 196.24546813964844 57.20536422729492 202.9585723876953 C 39.55946350097656 217.89784240722656 9.853368759155273 216.01268005371094 1.5788317918777466 229.6876983642578 C 51.70827102661133 262.81170654296875 97.4787368774414 299.63702392578125 149.60311889648438 324.7351989746094 C 160.42935180664062 328.1720275878906 171.6998748779297 332.4253234863281 187.1183319091797 335.04510498046875 C 220.57554626464844 333.7667541503906 242.59698486328125 343.2558898925781 269.6884765625 338.30902099609375 C 294.783203125 333.2710266113281 288.87420654296875 340.7497863769531 309.2557373046875 326.9352111816406 C 318.78509521484375 320.8901062011719 325.3367919921875 312.6946105957031 331.0166931152344 305.73468017578125 C 352.3605041503906 292.6432800292969 374.9023742675781 282.0838928222656 391.2019348144531 266.62371826171875 C 410.0279846191406 251.40457153320312 423.072998046875 232.0974578857422 435.3049011230469 219.7014617919922 C 463.0820617675781 194.11094665527344 487.6724853515625 190.00296020507812 510.8126525878906 172.73138427734375" stroke-width="0.0" fill="rgb(175, 168, 168)" opacity="1.0038635" stroke="rgb(0, 0, 0)" stroke-opacity="1.0" stroke-linecap="round" stroke-linejoin="round"/>
    <path d="M 518.7164916992188 174.97274780273438 C 491.1365661621094 189.2119598388672 468.3674621582031 195.60733032226562 450.51739501953125 210.3305206298828 C 428.2558898925781 224.0964813232422 415.7821350097656 250.3905792236328 391.33355712890625 268.581787109375 C 374.5791931152344 287.2873229980469 344.6131286621094 293.2584228515625 327.163330078125 319.3063659667969 C 331.2763977050781 339.9607238769531 320.6544189453125 356.1238098144531 321.6378173828125 380.2119445800781 C 350.3524169921875 381.74609375 396.7485656738281 378.2046203613281 439.4717712402344 377.6572570800781 C 450.7837219238281 381.4008483886719 449.6985778808594 397.1168212890625 461.9811096191406 404.9422607421875 C 463.64703369140625 397.0451354980469 459.4307861328125 399.8690185546875 456.8764343261719 407.7001037597656 C 463.6009216308594 404.9974365234375 468.5052490234375 411.3509216308594 468.9920654296875 405.3805847167969 C 466.7796630859375 401.6020812988281 462.6769104003906 409.2306823730469 464.2597351074219 400.5612487792969 C 480.4031066894531 398.5603332519531 497.1011047363281 404.415283203125 521.66259765625 400.49072265625 C 521.1175537109375 323.11785888671875 521.3977661132812 248.3936004638672 518.7164916992188 174.97274780273438" stroke-width="0.0" fill="rgb(86, 78, 50)" opacity="0.87974477" stroke="rgb(0, 0, 0)" stroke-opacity="1.0" stroke-linecap="round" stroke-linejoin="round"/>
    <path d="M -2.1717605590820312 230.88339233398438 C -7.373961925506592 284.4949645996094 -7.78143835067749 334.38336181640625 -6.979017734527588 383.8153991699219 C 75.49417877197266 383.2839050292969 150.02606201171875 382.8113708496094 228.23297119140625 386.9386291503906 C 224.78977966308594 387.5643615722656 223.25497436523438 386.1239013671875 210.64801025390625 386.2361145019531 C 214.197265625 379.86456298828125 213.86434936523438 369.0392761230469 205.10264587402344 358.3216247558594 C 204.5948486328125 338.6817626953125 176.8463897705078 346.67706298828125 155.6927490234375 333.82098388671875 C 95.10130310058594 304.4131774902344 52.74953079223633 264.0080871582031 -2.1717605590820312 230.88339233398438" stroke-width="0.0" fill="rgb(111, 101, 79)" opacity="1.0082463" stroke="rgb(0, 0, 0)" stroke-opacity="1.0" stroke-linecap="round" stroke-linejoin="round"/>
    <path d="M 332.2296447753906 341.4322204589844 C 333.6153259277344 345.1680908203125 327.79345703125 346.51361083984375 323.62939453125 359.662841796875 C 328.0145568847656 351.10626220703125 320.197509765625 347.0595703125 315.79315185546875 341.11444091796875 C 312.019775390625 343.8176574707031 307.72601318359375 350.427490234375 301.12298583984375 351.9518127441406 C 294.18218994140625 346.7599792480469 281.79241943359375 354.3155822753906 271.1285400390625 350.51409912109375 C 260.3898620605469 357.5856628417969 261.310546875 367.194091796875 264.0041198730469 388.9073791503906 C 293.2015075683594 385.67742919921875 320.7989807128906 387.4085693359375 327.31671142578125 382.0018615722656 C 313.45208740234375 366.9220275878906 332.2379150390625 345.8424987792969 332.2296447753906 341.4322204589844" stroke-width="0.0" fill="rgb(115, 100, 77)" opacity="0.9345613" stroke="rgb(0, 0, 0)" stroke-opacity="1.0" stroke-linecap="round" stroke-linejoin="round"/>
    <path d="M 199.32200622558594 343.49005126953125 C 202.97268676757812 357.2690734863281 212.12252807617188 362.0491027832031 213.51124572753906 385.7462463378906 C 229.4847412109375 378.8106689453125 245.56683349609375 385.00286865234375 248.40785217285156 388.9439392089844 C 267.6030578613281 375.5368957519531 255.20590209960938 367.4394836425781 264.2833251953125 353.5836486816406 C 231.3750457763672 351.7513732910156 217.16732788085938 344.0490417480469 199.32200622558594 343.49005126953125" stroke-width="0.0" fill="rgb(147, 129, 100)" opacity="0.9952815" stroke="rgb(0, 0, 0)" stroke-opacity="1.0" stroke-linecap="round" stroke-linejoin="round"/>
    <path d="M 414.6407470703125 376.2642822265625 C 384.74853515625 372.4689025878906 372.7827453613281 385.9781188964844 351.36407470703125 380.92816162109375 C 345.3724060058594 388.0333557128906 342.53729248046875 393.8120422363281 345.5206604003906 393.8526306152344 C 363.50244140625 392.8487854003906 378.1219482421875 393.22686767578125 391.9576110839844 392.7201232910156 C 399.06634521484375 386.60357666015625 410.49127197265625 386.1484680175781 414.6407470703125 376.2642822265625" stroke-width="0.0" fill="rgb(83, 75, 50)" opacity="0.9906538" stroke="rgb(0, 0, 0)" stroke-opacity="1.0" stroke-linecap="round" stroke-linejoin="round"/>
    <path d="M 343.80072021484375 392.3024597167969 C 347.5574951171875 384.99676513671875 350.061279296875 381.2527770996094 356.94342041015625 383.2223815917969 C 336.0948791503906 383.07537841796875 327.3953857421875 380.5789794921875 317.60162353515625 387.2679443359375 C 322.7958068847656 386.9265441894531 324.18682861328125 390.4729919433594 326.0040588378906 393.6787109375 C 334.27655029296875 393.2286376953125 342.180908203125 394.541259765625 343.80072021484375 392.3024597167969" stroke-width="0.0" fill="rgb(89, 76, 66)" opacity="1.010145" stroke="rgb(0, 0, 0)" stroke-opacity="1.0" stroke-linecap="round" stroke-linejoin="round"/>
    <path d="M 207.19564819335938 335.74517822265625 C 207.18505859375 341.350341796875 215.9796905517578 341.398193359375 224.45880126953125 343.8061828613281 C 234.53201293945312 343.4919738769531 233.5470733642578 346.9732971191406 236.31338500976562 336.5925598144531 C 228.62855529785156 339.1477355957031 216.25656127929688 335.46728515625 207.19564819335938 335.74517822265625" stroke-width="0.0" fill="rgb(95, 87, 98)" opacity="1.0074047" stroke="rgb(0, 0, 0)" stroke-opacity="1.0" stroke-linecap="round" stroke-linejoin="round"/>
    <path d="M 240.92344665527344 165.03749084472656 C 233.0388946533203 161.4549102783203 231.8271026611328 173.80694580078125 216.0231475830078 178.6874542236328 C 206.12091064453125 186.94708251953125 205.42005920410156 187.96929931640625 216.86746215820312 198.0061492919922 C 205.6387939453125 189.73666381835938 212.8466033935547 190.16351318359375 211.73643493652344 197.27200317382812 C 220.11399841308594 189.7894744873047 236.6232452392578 180.26963806152344 240.92344665527344 165.03749084472656" stroke-width="0.0" fill="rgb(100, 104, 150)" opacity="0.9833622" stroke="rgb(0, 0, 0)" stroke-opacity="1.0" stroke-linecap="round" stroke-linejoin="round"/>
    <path d="M 242.59288024902344 382.94873046875 C 246.74879455566406 384.8902282714844 246.08639526367188 388.28759765625 248.9751434326172 385.5951232910156 C 238.2143096923828 392.153564453125 215.25978088378906 393.77789306640625 200.7938995361328 390.10308837890625 C 208.78025817871094 380.9641418457031 227.3695526123047 382.2317199707031 242.59288024902344 382.94873046875" stroke-width="0.0" fill="rgb(101, 90, 59)" opacity="0.94925743" stroke="rgb(0, 0, 0)" stroke-opacity="1.0" stroke-linecap="round" stroke-linejoin="round"/>
    <path d="M 437.3460388183594 152.71649169921875 C 439.2501525878906 158.76553344726562 441.9625549316406 158.7950439453125 433.6263732910156 159.1582489013672 C 452.28033447265625 159.1311492919922 468.6287841796875 163.91160583496094 467.5572814941406 159.9561004638672 C 469.3332824707031 150.39060974121094 449.93524169921875 151.25408935546875 437.3460388183594 152.71649169921875" stroke-width="0.0" fill="rgb(89, 90, 142)" opacity="0.9940887" stroke="rgb(0, 0, 0)" stroke-opacity="1.0" stroke-linecap="round" stroke-linejoin="round"/>
    <path d="M 469.6794128417969 155.82928466796875 C 462.62310791015625 161.9846954345703 469.22796630859375 160.4879608154297 465.9410095214844 163.25790405273438 C 469.9317321777344 162.13467407226562 488.11553955078125 164.80685424804688 483.8185119628906 161.28724670410156 C 486.48883056640625 157.4264678955078 474.60418701171875 155.1478271484375 469.6794128417969 155.82928466796875" stroke-width="0.0" fill="rgb(96, 96, 141)" opacity="0.9926291" stroke="rgb(0, 0, 0)" stroke-opacity="1.0" stroke-linecap="round" stroke-linejoin="round"/>
    <path d="M -2.5330984592437744 519.1082763671875 C 76.9144515991211 519.17626953125 153.9147491455078 519.2792358398438 230.27255249023438 518.8104248046875 C 237.82640075683594 497.8858947753906 232.3392333984375 482.78936767578125 240.48867797851562 477.59735107421875 C 260.7078857421875 465.49407958984375 281.09588623046875 460.3270568847656 302.13055419921875 456.44775390625 C 310.41241455078125 446.4282531738281 305.98431396484375 428.49261474609375 309.262451171875 421.988525390625 C 314.911865234375 415.96783447265625 320.85479736328125 416.4192199707031 322.9053649902344 425.645751953125 C 326.37652587890625 432.7340087890625 322.2502136230469 443.4943542480469 334.0621337890625 447.2005920410156 C 352.3089294433594 448.9090270996094 371.3889465332031 448.46246337890625 386.2724304199219 442.4425354003906 C 384.2928771972656 446.0333557128906 380.690673828125 431.6112976074219 373.1644592285156 415.84503173828125 C 379.2840576171875 413.17523193359375 381.6143493652344 411.04290771484375 382.1789855957031 402.2810363769531 C 381.7206726074219 391.2285461425781 379.2444152832031 394.3564453125 372.78900146484375 391.516845703125 C 247.24542236328125 391.9467468261719 127.25831604003906 386.9766845703125 -6.619889259338379 388.4789733886719 C -6.529942989349365 428.98358154296875 -5.311839580535889 470.14593505859375 -2.5330984592437744 519.1082763671875" stroke-width="0.0" fill="rgb(201, 172, 123)" opacity="1.0060247" stroke="rgb(0, 0, 0)" stroke-opacity="1.0" stroke-linecap="round" stroke-linejoin="round"/>
    <path d="M 520.8181762695312 448.8160095214844 C 439.8210144042969 445.961669921875 376.7143249511719 449.39208984375 313.2354431152344 455.17279052734375 C 288.156005859375 462.7816162109375 259.7872314453125 464.58612060546875 239.54408264160156 477.3765563964844 C 235.3583984375 479.654541015625 241.31593322753906 500.78936767578125 233.97418212890625 522.3776245117188 C 320.4663391113281 522.9009399414062 412.81378173828125 522.6607055664062 518.4553833007812 522.298828125 C 519.4186401367188 488.9382629394531 520.620361328125 466.0888366699219 520.8181762695312 448.8160095214844" stroke-width="0.0" fill="rgb(69, 57, 56)" opacity="0.9371451" stroke="rgb(0, 0, 0)" stroke-opacity="1.0" stroke-linecap="round" stroke-linejoin="round"/>
    <path d="M 307.8384094238281 422.4601135253906 C 308.4478759765625 428.1006164550781 306.41412353515625 441.3988037109375 305.95068359375 453.74102783203125 C 305.962158203125 458.697509765625 312.40008544921875 455.688720703125 315.6148986816406 454.8418273925781 C 316.8755187988281 455.3987731933594 326.7185974121094 453.5736083984375 324.1786193847656 454.49005126953125 C 329.10430908203125 442.2252197265625 324.369140625 428.0374450683594 321.5700378417969 421.4454650878906 C 317.944091796875 416.3475036621094 313.7370300292969 417.0185852050781 307.8384094238281 422.4601135253906" stroke-width="0.0" fill="rgb(92, 74, 65)" opacity="0.9228785" stroke="rgb(0, 0, 0)" stroke-opacity="1.0" stroke-linecap="round" stroke-linejoin="round"/>
    <path d="M 231.77957153320312 177.1177215576172 C 225.54136657714844 186.6829833984375 213.63491821289062 192.51071166992188 209.6094970703125 203.5991973876953 C 220.1807403564453 210.79373168945312 228.34539794921875 201.64480590820312 234.29501342773438 196.5770721435547 C 239.92469787597656 187.81996154785156 237.83326721191406 179.7563934326172 231.77957153320312 177.1177215576172" stroke-width="0.0" fill="rgb(229, 228, 231)" opacity="1.0195484" stroke="rgb(0, 0, 0)" stroke-opacity="1.0" stroke-linecap="round" stroke-linejoin="round"/>
    <path d="M 471.31243896484375 405.06085205078125 C 466.35064697265625 408.4418029785156 476.252197265625 406.081298828125 471.06536865234375 408.22064208984375 C 488.2125549316406 406.97222900390625 506.6695861816406 410.9835510253906 499.9779357910156 404.0436706542969 C 486.56805419921875 405.2121276855469 473.2271423339844 401.3406066894531 471.31243896484375 405.06085205078125" stroke-width="0.0" fill="rgb(47, 41, 44)" opacity="1.0119104" stroke="rgb(0, 0, 0)" stroke-opacity="1.0" stroke-linecap="round" stroke-linejoin="round"/>
    <path d="M 516.6937255859375 174.86825561523438 C 486.6248474121094 189.93016052246094 460.4803771972656 199.04620361328125 438.28045654296875 219.05592346191406 C 423.93798828125 235.85400390625 406.7181396484375 253.8529510498047 390.3509521484375 273.3045349121094 C 411.011474609375 278.8393249511719 409.40625 294.5809020996094 426.6331787109375 298.6531982421875 C 454.6533203125 293.3280334472656 482.63885498046875 285.8682556152344 517.957763671875 279.3856201171875 C 519.775390625 243.1858367919922 521.4544677734375 207.0889434814453 516.6937255859375 174.86825561523438" stroke-width="0.0" fill="rgb(100, 94, 115)" opacity="0.9696115" stroke="rgb(0, 0, 0)" stroke-opacity="1.0" stroke-linecap="round" stroke-linejoin="round"/>
    <path d="M 234.4413604736328 177.9556121826172 C 240.53219604492188 180.87997436523438 242.6314239501953 186.2624969482422 254.22186279296875 187.22537231445312 C 268.2253723144531 184.802001953125 281.2951354980469 186.59649658203125 296.809814453125 187.4085693359375 C 308.46826171875 185.251953125 301.0903625488281 174.36460876464844 306.0876770019531 170.4685516357422 C 305.4954528808594 165.66261291503906 314.403564453125 169.18894958496094 316.7296142578125 164.50155639648438 C 337.576171875 172.12010192871094 349.30078125 185.2211151123047 380.1037902832031 185.8714599609375 C 382.6075134277344 182.99465942382812 392.9429931640625 181.31472778320312 402.8384094238281 182.43862915039062 C 405.8072814941406 182.7029571533203 407.339599609375 182.46217346191406 392.6867370605469 181.94775390625 C 386.0307312011719 186.54476928710938 382.75994873046875 175.7647705078125 400.3057861328125 154.56678771972656 C 386.0478515625 153.7908477783203 377.3551940917969 139.56504821777344 358.48016357421875 133.7478790283203 C 347.4944763183594 130.78724670410156 326.3697204589844 127.49041748046875 311.4878845214844 130.12466430664062 C 287.4301452636719 130.14791870117188 281.2189025878906 139.64498901367188 260.0263977050781 145.99810791015625 C 250.12957763671875 155.76153564453125 241.00364685058594 166.02780151367188 234.4413604736328 177.9556121826172" stroke-width="0.0" fill="rgb(185, 187, 200)" opacity="0.958317" stroke="rgb(0, 0, 0)" stroke-opacity="1.0" stroke-linecap="round" stroke-linejoin="round"/>
    <path d="M 240.3338623046875 163.01368713378906 C 224.353759765625 177.0617218017578 203.20240783691406 181.08447265625 182.31695556640625 189.4584503173828 C 173.2146759033203 195.28759765625 166.4150390625 200.93357849121094 165.0143280029297 213.56605529785156 C 164.779296875 215.66464233398438 168.95840454101562 220.05795288085938 179.92324829101562 215.1361541748047 C 193.08200073242188 213.2764434814453 200.2969207763672 204.0348663330078 212.11940002441406 200.13916015625 C 221.58250427246094 189.86024475097656 234.52789306640625 182.392822265625 240.3338623046875 163.01368713378906" stroke-width="0.0" fill="rgb(160, 164, 194)" opacity="0.9490505" stroke="rgb(0, 0, 0)" stroke-opacity="1.0" stroke-linecap="round" stroke-linejoin="round"/>
    <path d="M 427.6099853515625 229.47079467773438 C 400.8231506347656 223.5592041015625 370.8409423828125 230.5402374267578 338.6466064453125 228.99411010742188 C 331.5126647949219 238.55694580078125 319.1892395019531 226.7787322998047 300.3404235839844 237.3887939453125 C 267.5284118652344 257.1128845214844 251.25320434570312 285.7424011230469 217.14511108398438 304.14990234375 C 211.1746368408203 313.84649658203125 209.15335083007812 321.4666442871094 210.74124145507812 330.7187805175781 C 212.01400756835938 336.279296875 217.60459899902344 340.59844970703125 224.18556213378906 342.04791259765625 C 242.49807739257812 340.42022705078125 255.9449005126953 341.7782897949219 273.0235595703125 334.17840576171875 C 307.8211364746094 314.05023193359375 345.5847473144531 298.1265563964844 377.8077392578125 279.8592224121094 C 395.2264709472656 264.3377990722656 409.92047119140625 247.92550659179688 427.6099853515625 229.47079467773438" stroke-width="0.0" fill="rgb(136, 123, 121)" opacity="0.8851164" stroke="rgb(0, 0, 0)" stroke-opacity="1.0" stroke-linecap="round" stroke-linejoin="round"/>
    <path d="M -2.879948377609253 227.6395263671875 C -7.326867580413818 278.6370849609375 -7.005348205566406 324.360595703125 -4.275435447692871 368.59765625 C 21.01406478881836 372.7384338378906 10.646787643432617 356.9241027832031 36.013450622558594 354.8655090332031 C 58.68259811401367 357.48187255859375 88.35736846923828 359.6730041503906 112.30889129638672 362.7025451660156 C 132.0746612548828 359.4533996582031 145.93215942382812 360.9432678222656 151.30210876464844 355.0802001953125 C 154.2942352294922 350.21221923828125 157.19155883789062 347.23236083984375 155.50234985351562 335.8653259277344 C 137.28550720214844 322.30609130859375 113.96143341064453 310.2965087890625 91.33797454833984 298.052978515625 C 63.6893310546875 274.2133483886719 31.40125846862793 252.57188415527344 -2.879948377609253 227.6395263671875" stroke-width="0.0" fill="rgb(123, 106, 63)" opacity="0.990933" stroke="rgb(0, 0, 0)" stroke-opacity="1.0" stroke-linecap="round" stroke-linejoin="round"/>
    <path d="M 174.48880004882812 191.98727416992188 C 174.00885009765625 184.76998901367188 159.94544982910156 184.06854248046875 138.19500732421875 183.8685302734375 C 120.18916320800781 194.7718505859375 116.51781463623047 182.03701782226562 73.89836120605469 191.1358184814453 C 53.27963638305664 200.6288604736328 34.07004928588867 214.52366638183594 -6.253655433654785 223.24130249023438 C 24.538084030151367 242.3590850830078 43.79828643798828 265.6285705566406 73.08506774902344 276.86767578125 C 88.53550720214844 263.4454650878906 104.14007568359375 250.65489196777344 117.88414001464844 240.55592346191406 C 137.82437133789062 230.2328643798828 157.52442932128906 230.4710235595703 168.7935791015625 221.7554931640625 C 158.70411682128906 205.32785034179688 173.46739196777344 202.9199981689453 174.48880004882812 191.98727416992188" stroke-width="0.0" fill="rgb(215, 214, 219)" opacity="0.982915" stroke="rgb(0, 0, 0)" stroke-opacity="1.0" stroke-linecap="round" stroke-linejoin="round"/>
    <path d="M 400.3790283203125 278.1637878417969 C 389.4458923339844 270.03448486328125 392.50970458984375 282.419677734375 383.1589660644531 280.7112121582031 C 343.47503662109375 296.4371337890625 345.8110046386719 308.8013610839844 326.8936462402344 317.5532531738281 C 324.83770751953125 324.0928039550781 326.8023376464844 325.2578125 332.6535339355469 325.07659912109375 C 330.8729248046875 334.0487365722656 324.71728515625 335.23223876953125 320.9787292480469 343.8200378417969 C 323.5576171875 354.6052551269531 329.52545166015625 366.01458740234375 326.2745361328125 377.990478515625 C 339.01800537109375 383.6094055175781 349.2441711425781 378.89581298828125 367.43377685546875 381.3544921875 C 385.30914306640625 369.93218994140625 397.33929443359375 380.76971435546875 417.38006591796875 367.582275390625 C 420.45489501953125 351.9465637207031 422.91485595703125 335.1112976074219 419.7856750488281 315.083251953125 C 413.8924255371094 301.3107604980469 412.35711669921875 285.2777404785156 400.3790283203125 278.1637878417969" stroke-width="0.0" fill="rgb(67, 59, 68)" opacity="0.9552395" stroke="rgb(0, 0, 0)" stroke-opacity="1.0" stroke-linecap="round" stroke-linejoin="round"/>
    <path d="M 145.4661865234375 261.7517395019531 C 130.3389434814453 272.1520080566406 135.38848876953125 289.6484680175781 126.25373840332031 291.53424072265625 C 117.82359313964844 314.5735168457031 125.47588348388672 310.3771057128906 134.6927490234375 318.3096923828125 C 139.30825805664062 318.29461669921875 144.72067260742188 316.9007873535156 146.06971740722656 312.75372314453125 C 145.3359832763672 305.1376953125 150.0391387939453 285.38360595703125 152.59117126464844 271.5055847167969 C 152.2259063720703 268.9215393066406 145.24900817871094 266.2281494140625 145.4661865234375 261.7517395019531" stroke-width="0.0" fill="rgb(104, 99, 122)" opacity="0.95957744" stroke="rgb(0, 0, 0)" stroke-opacity="1.0" stroke-linecap="round" stroke-linejoin="round"/>
    <path d="M 196.41468811035156 354.9356994628906 C 192.1881866455078 357.064697265625 190.59896850585938 362.94793701171875 187.86790466308594 360.1335754394531 C 187.57289123535156 364.2484130859375 184.02542114257812 373.10015869140625 187.90521240234375 383.6140441894531 C 190.62103271484375 385.6169128417969 200.3724822998047 385.2801208496094 205.42608642578125 385.2021484375 C 212.50384521484375 383.0447082519531 211.18942260742188 376.1475830078125 207.4077606201172 363.153076171875 C 205.0343017578125 358.9965515136719 202.5941162109375 354.4288635253906 196.41468811035156 354.9356994628906" stroke-width="0.0" fill="rgb(70, 63, 46)" opacity="1.0070492" stroke="rgb(0, 0, 0)" stroke-opacity="1.0" stroke-linecap="round" stroke-linejoin="round"/>
    <path d="M 16.949831008911133 391.822265625 C 22.82921600341797 396.06414794921875 32.85518264770508 391.3948059082031 47.310768127441406 393.0889892578125 C 49.62360763549805 381.4015197753906 40.661476135253906 388.7895202636719 26.339218139648438 386.7102966308594 C 22.469558715820312 387.9991455078125 18.35533332824707 384.50360107421875 16.949831008911133 391.822265625" stroke-width="0.0" fill="rgb(124, 109, 61)" opacity="0.9949582" stroke="rgb(0, 0, 0)" stroke-opacity="1.0" stroke-linecap="round" stroke-linejoin="round"/>
    <path d="M 189.55221557617188 341.2203369140625 C 179.12051391601562 339.836181640625 168.14553833007812 336.9373779296875 153.83106994628906 334.66552734375 C 158.4098663330078 341.58514404296875 156.23397827148438 349.1059265136719 148.26417541503906 356.2337646484375 C 140.68812561035156 361.99957275390625 121.04409790039062 359.2742614746094 106.34691619873047 368.6133728027344 C 100.96119689941406 364.3269348144531 108.52777099609375 358.5660095214844 88.06876373291016 358.8270263671875 C 64.93560791015625 365.61517333984375 53.49740219116211 353.72723388671875 25.992034912109375 357.1736145019531 C 17.55376434326172 360.09930419921875 20.901691436767578 368.3294982910156 11.64934253692627 369.936767578125 C 4.701971054077148 372.75341796875 2.9130373001098633 368.1820983886719 -7.138653755187988 365.89874267578125 C -2.948920726776123 373.3334045410156 -0.3630278408527374 380.67041015625 -4.598325729370117 388.1607666015625 C 56.09260177612305 386.6588134765625 108.4542007446289 388.9439392089844 164.9923858642578 387.7288818359375 C 168.00160217285156 382.1224060058594 174.65194702148438 377.6106262207031 183.6195831298828 378.14215087890625 C 189.5907440185547 365.3569030761719 186.7039794921875 352.5575866699219 189.55221557617188 341.2203369140625" stroke-width="0.0" fill="rgb(156, 136, 100)" opacity="0.917231" stroke="rgb(0, 0, 0)" stroke-opacity="1.0" stroke-linecap="round" stroke-linejoin="round"/>
    <path d="M 371.7052307128906 416.7855529785156 C 399.8908996582031 419.2075500488281 404.7042541503906 444.3868713378906 425.50958251953125 455.2704162597656 C 430.0274353027344 457.0079345703125 442.15655517578125 457.2549133300781 445.2149353027344 452.6236877441406 C 447.47149658203125 445.6008605957031 467.7068176269531 448.1923828125 477.09490966796875 435.8661193847656 C 480.1045227050781 423.9541931152344 466.4920349121094 433.27374267578125 465.4200134277344 414.4159240722656 C 451.08837890625 416.8518981933594 454.3368225097656 410.02410888671875 448.11859130859375 404.08624267578125 C 446.7343444824219 394.5335388183594 444.74932861328125 386.07135009765625 441.6189880371094 380.9941711425781 C 435.3887939453125 380.678466796875 430.699951171875 378.1851806640625 418.59698486328125 378.9781494140625 C 409.780029296875 384.2023620605469 398.13995361328125 387.6870422363281 384.90838623046875 396.26605224609375 C 379.17901611328125 395.67095947265625 389.5820007324219 405.5252685546875 371.7052307128906 416.7855529785156" stroke-width="0.0" fill="rgb(84, 74, 38)" opacity="0.9122886" stroke="rgb(0, 0, 0)" stroke-opacity="1.0" stroke-linecap="round" stroke-linejoin="round"/>
    <path d="M 375.28826904296875 187.33628845214844 C 387.9837341308594 188.5657501220703 409.0502014160156 186.28005981445312 417.2394714355469 181.75717163085938 C 418.97320556640625 185.92601013183594 430.3358154296875 187.7938995361328 438.162353515625 190.2889404296875 C 449.61102294921875 187.86595153808594 453.026611328125 183.18434143066406 459.9311828613281 179.96351623535156 C 476.65277099609375 179.1924285888672 492.4598693847656 175.9914093017578 509.9507141113281 173.96221923828125 C 507.45330810546875 171.97113037109375 511.89105224609375 172.32891845703125 510.55450439453125 166.39207458496094 C 493.4861755371094 165.9605255126953 479.9246826171875 156.29388427734375 452.0313720703125 152.42333984375 C 437.46307373046875 154.52745056152344 425.5148620605469 149.90731811523438 407.7325744628906 149.6656494140625 C 388.28106689453125 156.64694213867188 393.87939453125 177.23773193359375 375.28826904296875 187.33628845214844" stroke-width="0.0" fill="rgb(174, 175, 186)" opacity="0.6937569" stroke="rgb(0, 0, 0)" stroke-opacity="1.0" stroke-linecap="round" stroke-linejoin="round"/>
    <path d="M 302.8062438964844 360.0260314941406 C 300.7870178222656 354.02142333984375 292.9266662597656 345.5438537597656 286.6165771484375 349.9320068359375 C 279.3783264160156 358.3234558105469 278.91070556640625 347.63555908203125 272.5940856933594 350.7716369628906 C 258.3056640625 355.4310607910156 263.77374267578125 368.98529052734375 261.72021484375 387.44378662109375 C 272.1408386230469 389.34130859375 286.44647216796875 388.8106994628906 300.7770690917969 385.53997802734375 C 307.50042724609375 373.27947998046875 307.5907897949219 372.07049560546875 302.8062438964844 360.0260314941406" stroke-width="0.0" fill="rgb(82, 72, 52)" opacity="0.9841734" stroke="rgb(0, 0, 0)" stroke-opacity="1.0" stroke-linecap="round" stroke-linejoin="round"/>
    <path d="M 373.8868103027344 416.77691650390625 C 373.1932678222656 420.1181335449219 380.162841796875 429.1929931640625 382.98583984375 441.7547912597656 C 382.78533935546875 443.6923522949219 394.1607666015625 446.5213317871094 411.30755615234375 445.92620849609375 C 401.4837951660156 429.4644775390625 389.61175537109375 419.0160827636719 373.8868103027344 416.77691650390625" stroke-width="0.0" fill="rgb(137, 114, 72)" opacity="1.0403452" stroke="rgb(0, 0, 0)" stroke-opacity="1.0" stroke-linecap="round" stroke-linejoin="round"/>
    <path d="M 349.34881591796875 383.5207214355469 C 347.10125732421875 380.9610595703125 342.8501281738281 384.1396179199219 339.7779235839844 382.57763671875 C 335.4508361816406 387.07977294921875 334.9462890625 386.53082275390625 337.89996337890625 394.40521240234375 C 340.58624267578125 393.07696533203125 345.2367248535156 395.2733459472656 350.7829284667969 393.18365478515625 C 352.15069580078125 394.4013366699219 350.17401123046875 383.3849792480469 349.34881591796875 383.5207214355469" stroke-width="0.0" fill="rgb(108, 87, 70)" opacity="0.95945406" stroke="rgb(0, 0, 0)" stroke-opacity="1.0" stroke-linecap="round" stroke-linejoin="round"/>
    <path d="M 436.521240234375 218.70912170410156 C 434.7091064453125 215.36715698242188 423.9323425292969 218.621826171875 426.2218933105469 219.91702270507812 C 422.2081298828125 225.52536010742188 419.7999267578125 221.74786376953125 423.9498291015625 235.6972198486328 C 428.76043701171875 229.18905639648438 434.126708984375 225.70436096191406 436.521240234375 218.70912170410156" stroke-width="0.0" fill="rgb(82, 77, 109)" opacity="1.0044196" stroke="rgb(0, 0, 0)" stroke-opacity="1.0" stroke-linecap="round" stroke-linejoin="round"/>
    <path d="M 434.9468994140625 304.1622314453125 C 430.9850158691406 301.21160888671875 433.1265563964844 310.0349426269531 427.5427551269531 313.27349853515625 C 424.8320617675781 308.3232116699219 421.3677978515625 308.6640625 418.4219665527344 312.9891052246094 C 421.1287841796875 326.8988952636719 424.0911560058594 339.45361328125 420.2474060058594 367.96978759765625 C 427.6588439941406 370.5626525878906 427.4333190917969 379.5164794921875 433.97088623046875 378.70074462890625 C 440.9776611328125 378.0308837890625 438.2135314941406 371.04571533203125 441.14544677734375 357.97711181640625 C 439.27545166015625 335.5475158691406 444.20458984375 318.4989929199219 434.9468994140625 304.1622314453125" stroke-width="0.0" fill="rgb(58, 52, 47)" opacity="1.0005519" stroke="rgb(0, 0, 0)" stroke-opacity="1.0" stroke-linecap="round" stroke-linejoin="round"/>
    <path d="M 314.9445495605469 339.4958190917969 C 308.89520263671875 350.7604675292969 307.78216552734375 369.6282958984375 301.7750549316406 385.464111328125 C 318.7773132324219 388.09765625 314.4174499511719 387.82379150390625 325.68328857421875 381.16845703125 C 327.369384765625 378.4653625488281 327.3431701660156 367.1322937011719 326.3809814453125 357.6134338378906 C 322.4884948730469 353.6394958496094 319.69866943359375 342.8805236816406 314.9445495605469 339.4958190917969" stroke-width="0.0" fill="rgb(63, 55, 47)" opacity="1.0071894" stroke="rgb(0, 0, 0)" stroke-opacity="1.0" stroke-linecap="round" stroke-linejoin="round"/>
    <path d="M 224.60934448242188 366.473388671875 C 209.56561279296875 369.1744079589844 215.634521484375 372.2318115234375 218.20721435546875 373.991943359375 C 222.64151000976562 375.7666320800781 253.7609405517578 375.0107727050781 260.08563232421875 374.91021728515625 C 261.2577209472656 362.5064392089844 241.72792053222656 370.98486328125 224.60934448242188 366.473388671875" stroke-width="0.0" fill="rgb(124, 110, 81)" opacity="0.9745965" stroke="rgb(0, 0, 0)" stroke-opacity="1.0" stroke-linecap="round" stroke-linejoin="round"/>
    <path d="M 189.81849670410156 340.3454284667969 C 187.95159912109375 349.26202392578125 184.1479949951172 355.41650390625 184.96603393554688 359.57562255859375 C 190.9117431640625 365.5376281738281 194.88943481445312 355.94482421875 196.92855834960938 351.3792724609375 C 195.35243225097656 346.4784240722656 193.73971557617188 340.34771728515625 189.81849670410156 340.3454284667969" stroke-width="0.0" fill="rgb(119, 103, 60)" opacity="0.99882615" stroke="rgb(0, 0, 0)" stroke-opacity="1.0" stroke-linecap="round" stroke-linejoin="round"/>
    <path d="M 397.66717529296875 225.08721923828125 C 401.4883728027344 227.08189392089844 400.0780029296875 227.9774169921875 393.6782531738281 227.67123413085938 C 403.7513122558594 226.85787963867188 414.2126159667969 227.1732940673828 416.7518615722656 227.83551025390625 C 418.61083984375 222.56446838378906 406.3202819824219 222.99554443359375 397.66717529296875 225.08721923828125" stroke-width="0.0" fill="rgb(174, 166, 159)" opacity="1.0017838" stroke="rgb(0, 0, 0)" stroke-opacity="1.0" stroke-linecap="round" stroke-linejoin="round"/>
    <path d="M 398.90130615234375 277.299072265625 C 388.1222839355469 276.1597595214844 399.4706115722656 284.0524597167969 388.9886474609375 289.80426025390625 C 389.3937683105469 301.0704040527344 392.77996826171875 295.9076232910156 397.9406433105469 304.289306640625 C 389.4743347167969 322.3092956542969 383.47991943359375 328.14495849609375 380.822021484375 352.97808837890625 C 379.08636474609375 357.1963806152344 380.0198974609375 374.3645324707031 386.5478515625 375.0505065917969 C 397.4752197265625 375.4190368652344 407.8433532714844 373.8145751953125 415.2945556640625 369.5718688964844 C 420.0469970703125 365.154541015625 418.503173828125 357.3214416503906 420.8834228515625 349.342041015625 C 421.9429626464844 336.87066650390625 420.8616943359375 321.04949951171875 418.61090087890625 312.7475891113281 C 413.19696044921875 298.70263671875 409.67230224609375 280.73492431640625 398.90130615234375 277.299072265625" stroke-width="0.0" fill="rgb(64, 55, 45)" opacity="1.0052581" stroke="rgb(0, 0, 0)" stroke-opacity="1.0" stroke-linecap="round" stroke-linejoin="round"/>
    <path d="M -1.5449812412261963 229.01950073242188 C -9.692085266113281 240.0226287841797 -7.0880513191223145 256.6938171386719 -3.1492416858673096 273.4901123046875 C 12.197840690612793 271.1410827636719 18.235416412353516 279.6197814941406 35.6395263671875 278.11309814453125 C 51.67249298095703 276.1982421875 42.328163146972656 267.1559753417969 55.9978141784668 272.1661682128906 C 36.58345413208008 256.1252746582031 19.817350387573242 240.7510223388672 -1.5449812412261963 229.01950073242188" stroke-width="0.0" fill="rgb(135, 117, 83)" opacity="0.97263575" stroke="rgb(0, 0, 0)" stroke-opacity="1.0" stroke-linecap="round" stroke-linejoin="round"/>
    <path d="M 241.18356323242188 163.60276794433594 C 229.94654846191406 168.31625366210938 222.7775421142578 180.93399047851562 211.06796264648438 179.86497497558594 C 212.26852416992188 191.08042907714844 201.98634338378906 197.84518432617188 203.25274658203125 202.20225524902344 C 202.04244995117188 201.00387573242188 198.22647094726562 206.86032104492188 196.4928741455078 208.47409057617188 C 195.17100524902344 204.67483520507812 203.63861083984375 202.56448364257812 210.633056640625 201.2564697265625 C 222.59385681152344 188.9668731689453 235.12974548339844 181.19015502929688 241.18356323242188 163.60276794433594" stroke-width="0.0" fill="rgb(97, 101, 147)" opacity="0.9698001" stroke="rgb(0, 0, 0)" stroke-opacity="1.0" stroke-linecap="round" stroke-linejoin="round"/>
    <path d="M 408.07305908203125 154.17086791992188 C 399.3909912109375 149.95370483398438 400.4720764160156 159.4251251220703 392.619384765625 158.75682067871094 C 387.43756103515625 172.49427795410156 387.5137939453125 175.87754821777344 377.4021301269531 185.21408081054688 C 393.461181640625 189.67141723632812 409.86309814453125 184.92564392089844 417.38482666015625 179.903076171875 C 420.3421630859375 166.9421844482422 399.68707275390625 162.7052764892578 408.07305908203125 154.17086791992188" stroke-width="0.0" fill="rgb(95, 96, 140)" opacity="0.99032193" stroke="rgb(0, 0, 0)" stroke-opacity="1.0" stroke-linecap="round" stroke-linejoin="round"/>
    <path d="M 309.3215637207031 445.1108093261719 C 306.72113037109375 451.41510009765625 307.73590087890625 473.78680419921875 309.22540283203125 482.8502197265625 C 306.5201110839844 481.9620666503906 318.1235046386719 485.3593444824219 321.3335266113281 483.3930969238281 C 323.39019775390625 470.494384765625 321.91412353515625 460.1805725097656 325.909423828125 452.70391845703125 C 327.9523010253906 437.51348876953125 320.94842529296875 443.25689697265625 309.3215637207031 445.1108093261719" stroke-width="0.0" fill="rgb(42, 31, 46)" opacity="1.0042524" stroke="rgb(0, 0, 0)" stroke-opacity="1.0" stroke-linecap="round" stroke-linejoin="round"/>
    <path d="M 11.994190216064453 334.4056091308594 C 11.001474380493164 331.0584716796875 2.3956499099731445 332.8226013183594 -7.95550537109375 336.3101806640625 C -8.436601638793945 349.3963623046875 -8.635848999023438 361.7747802734375 -8.36548137664795 368.5292053222656 C 14.067136764526367 371.2239685058594 16.214460372924805 367.71844482421875 18.388166427612305 354.2549133300781 C 16.692277908325195 347.2244567871094 17.243610382080078 338.89532470703125 11.994190216064453 334.4056091308594" stroke-width="0.0" fill="rgb(113, 102, 77)" opacity="0.98178107" stroke="rgb(0, 0, 0)" stroke-opacity="1.0" stroke-linecap="round" stroke-linejoin="round"/>
    <path d="M 315.4217529296875 412.821044921875 C 311.2262268066406 411.8426818847656 309.8614501953125 419.0593566894531 306.3593444824219 420.907958984375 C 308.039306640625 429.0923767089844 310.51275634765625 433.74981689453125 308.0570983886719 446.6444091796875 C 310.356201171875 443.834716796875 319.8376770019531 443.94970703125 325.3782958984375 443.6882019042969 C 327.744873046875 438.3297424316406 326.027099609375 425.4579162597656 325.3403015136719 419.84564208984375 C 321.194091796875 414.579345703125 323.37457275390625 411.739013671875 315.4217529296875 412.821044921875" stroke-width="0.0" fill="rgb(68, 51, 74)" opacity="0.8062927" stroke="rgb(0, 0, 0)" stroke-opacity="1.0" stroke-linecap="round" stroke-linejoin="round"/>
    <path d="M 291.650634765625 166.1473388671875 C 283.7205810546875 172.87416076660156 281.3175048828125 174.06085205078125 284.9904479980469 187.6269989013672 C 280.3320617675781 185.40834045410156 304.18939208984375 189.83676147460938 304.172607421875 184.4547882080078 C 303.74267578125 180.7169647216797 301.2833557128906 175.40345764160156 299.38037109375 170.3211212158203 C 294.4441833496094 170.12974548339844 292.7204284667969 167.02963256835938 291.650634765625 166.1473388671875" stroke-width="0.0" fill="rgb(112, 116, 156)" opacity="1.0019469" stroke="rgb(0, 0, 0)" stroke-opacity="1.0" stroke-linecap="round" stroke-linejoin="round"/>
    <path d="M 92.05139923095703 389.43597412109375 C 87.76653289794922 394.0890808105469 92.22479248046875 395.3860778808594 91.64013671875 395.3487854003906 C 99.60311126708984 394.64703369140625 108.46184539794922 396.91278076171875 107.95313262939453 392.5525817871094 C 104.43643188476562 387.6529846191406 97.86390686035156 385.8509521484375 92.05139923095703 389.43597412109375" stroke-width="0.0" fill="rgb(108, 96, 50)" opacity="1.0077311" stroke="rgb(0, 0, 0)" stroke-opacity="1.0" stroke-linecap="round" stroke-linejoin="round"/>
    <path d="M 329.29034423828125 459.2940673828125 C 323.29339599609375 464.56988525390625 327.7007751464844 476.5003662109375 323.9722900390625 489.1144104003906 C 341.58843994140625 489.93536376953125 348.3511962890625 503.0081481933594 356.19964599609375 518.889892578125 C 410.4348449707031 519.3311157226562 460.7625732421875 519.331787109375 521.59423828125 519.2340698242188 C 521.6348266601562 491.240478515625 518.7386474609375 480.8358154296875 507.62615966796875 466.3811340332031 C 506.13092041015625 461.72222900390625 489.3484191894531 457.18328857421875 473.340576171875 451.8526611328125 C 460.6524353027344 451.357421875 447.2603454589844 460.7682800292969 441.6196594238281 464.876708984375 C 419.800048828125 464.8104248046875 419.8641662597656 454.89715576171875 409.70843505859375 449.37579345703125 C 403.04205322265625 446.4835510253906 387.069091796875 448.5419616699219 381.573974609375 447.8211975097656 C 360.5316467285156 452.1090393066406 342.301025390625 458.0565490722656 329.29034423828125 459.2940673828125" stroke-width="0.0" fill="rgb(60, 50, 62)" opacity="1.0311152" stroke="rgb(0, 0, 0)" stroke-opacity="1.0" stroke-linecap="round" stroke-linejoin="round"/>
    <path d="M 173.31216430664062 191.23153686523438 C 169.68759155273438 180.8538055419922 153.6144256591797 186.45420837402344 140.4251708984375 181.40623474121094 C 136.14059448242188 183.136962890625 131.4604949951172 188.58245849609375 121.23201751708984 190.1649169921875 C 117.05839538574219 185.3794708251953 94.26457977294922 187.37576293945312 74.24467468261719 188.7707977294922 C 60.4649658203125 195.55323791503906 49.501564025878906 202.92926025390625 40.135276794433594 211.91595458984375 C 38.12348556518555 213.22601318359375 36.990516662597656 208.06834411621094 32.18135070800781 208.0588836669922 C 18.30071258544922 221.24728393554688 -5.532104015350342 213.92874145507812 8.338895797729492 229.4308624267578 C 35.2379150390625 218.37953186035156 39.39686584472656 230.18994140625 78.96227264404297 226.75698852539062 C 104.731689453125 230.55545043945312 88.11222076416016 228.87472534179688 94.9837417602539 239.16058349609375 C 103.16616821289062 238.14503479003906 106.95275115966797 235.8570556640625 106.98688507080078 231.39932250976562 C 127.85018157958984 226.82774353027344 143.0268096923828 232.8865203857422 167.6542510986328 222.9802703857422 C 162.60910034179688 212.13491821289062 170.81935119628906 200.16238403320312 173.31216430664062 191.23153686523438" stroke-width="0.0" fill="rgb(209, 209, 217)" opacity="0.95493764" stroke="rgb(0, 0, 0)" stroke-opacity="1.0" stroke-linecap="round" stroke-linejoin="round"/>
    <path d="M 220.60763549804688 477.6282653808594 C 223.18478393554688 481.77301025390625 240.3932342529297 479.42669677734375 238.8017578125 491.4468078613281 C 239.78042602539062 503.573974609375 236.71884155273438 503.3722839355469 228.03834533691406 517.30029296875 C 274.63336181640625 519.1841430664062 317.064697265625 519.2568969726562 361.47308349609375 519.8773803710938 C 352.8569030761719 509.2288818359375 348.41107177734375 506.4227600097656 344.1667175292969 505.2984619140625 C 346.5950927734375 498.22796630859375 334.18719482421875 492.46539306640625 325.1096496582031 486.4214782714844 C 324.72967529296875 486.8532409667969 317.0882873535156 489.69488525390625 310.34375 486.73388671875 C 302.829833984375 481.60211181640625 308.7442932128906 460.9015197753906 304.4268798828125 459.45220947265625 C 301.7087097167969 458.1707458496094 289.1401672363281 459.44036865234375 278.60791015625 460.7986755371094 C 271.81011962890625 476.7581787109375 258.5054016113281 467.0934753417969 245.6090545654297 478.0876159667969 C 240.00894165039062 477.46002197265625 227.9121551513672 475.8897705078125 220.60763549804688 477.6282653808594" stroke-width="0.0" fill="rgb(115, 99, 88)" opacity="1.0389113" stroke="rgb(0, 0, 0)" stroke-opacity="1.0" stroke-linecap="round" stroke-linejoin="round"/>
    <path d="M 382.11700439453125 394.1354675292969 C 357.1935119628906 393.3157653808594 321.0419616699219 394.9667663574219 309.7025146484375 401.0470886230469 C 310.95477294921875 405.60614013671875 316.5768737792969 399.4103088378906 320.6376953125 403.2561950683594 C 326.3963623046875 423.9864807128906 329.2744140625 418.3962707519531 327.72369384765625 455.41168212890625 C 349.0357971191406 453.68780517578125 365.5828552246094 448.12591552734375 383.9721984863281 445.65130615234375 C 391.19830322265625 435.5643005371094 375.4135437011719 432.52398681640625 373.8106689453125 414.0875549316406 C 376.4332580566406 408.67327880859375 380.2420349121094 415.6184997558594 382.11700439453125 394.1354675292969" stroke-width="0.0" fill="rgb(181, 153, 103)" opacity="0.73834705" stroke="rgb(0, 0, 0)" stroke-opacity="1.0" stroke-linecap="round" stroke-linejoin="round"/>
    <path d="M 362.5045166015625 307.6512145996094 C 349.53936767578125 311.13519287109375 354.1969299316406 306.94439697265625 348.636962890625 320.3794250488281 C 347.3857727050781 343.0137023925781 339.02874755859375 360.9640197753906 338.145263671875 378.73583984375 C 356.13720703125 378.8106689453125 361.3816833496094 381.9071350097656 366.05499267578125 380.84564208984375 C 376.7662048339844 381.41204833984375 378.09844970703125 376.78070068359375 381.1036071777344 374.6297302246094 C 379.1622619628906 351.63134765625 375.2376708984375 333.4201354980469 371.4288635253906 312.230712890625 C 370.2312927246094 311.1183776855469 362.1939392089844 309.162353515625 362.5045166015625 307.6512145996094" stroke-width="0.0" fill="rgb(53, 47, 46)" opacity="1.0015477" stroke="rgb(0, 0, 0)" stroke-opacity="1.0" stroke-linecap="round" stroke-linejoin="round"/>
    <path d="M 267.7272033691406 261.6017761230469 C 252.3760223388672 281.4075622558594 236.41925048828125 291.86614990234375 215.74111938476562 306.58978271484375 C 213.7093963623047 306.1080627441406 213.5165557861328 314.14324951171875 210.3494415283203 321.2247314453125 C 225.67788696289062 319.6516418457031 220.52590942382812 310.4476623535156 245.2857666015625 307.03289794921875 C 241.83975219726562 307.34130859375 241.5091552734375 311.7207336425781 247.9048309326172 312.6202087402344 C 257.18109130859375 308.7513427734375 260.9083251953125 296.8469543457031 269.86834716796875 290.2752990722656 C 271.2481689453125 282.5911560058594 267.8118896484375 277.5859375 265.6074523925781 275.9074401855469 C 270.74029541015625 274.6783142089844 278.5233154296875 262.7469482421875 267.7272033691406 261.6017761230469" stroke-width="0.0" fill="rgb(62, 60, 92)" opacity="1.001771" stroke="rgb(0, 0, 0)" stroke-opacity="1.0" stroke-linecap="round" stroke-linejoin="round"/>
    <path d="M 213.60089111328125 178.37875366210938 C 193.33689880371094 174.97059631347656 204.86492919921875 185.4662628173828 182.77525329589844 181.54698181152344 C 171.26214599609375 189.17495727539062 168.4773712158203 201.574951171875 162.6389617919922 216.95643615722656 C 165.5834197998047 215.5906219482422 165.89773559570312 219.54296875 172.5010223388672 221.3094482421875 C 177.00010681152344 214.9792022705078 187.87265014648438 213.7814178466797 198.23544311523438 206.45712280273438 C 203.4157257080078 204.21322631835938 210.0686798095703 188.33311462402344 213.60089111328125 178.37875366210938" stroke-width="0.0" fill="rgb(123, 127, 164)" opacity="0.95772964" stroke="rgb(0, 0, 0)" stroke-opacity="1.0" stroke-linecap="round" stroke-linejoin="round"/>
    <path d="M 384.30194091796875 177.29823303222656 C 379.77020263671875 157.525390625 372.67291259765625 166.95404052734375 375.5108337402344 147.42501831054688 C 362.70880126953125 161.93833923339844 346.9195861816406 165.25189208984375 342.84381103515625 175.1641845703125 C 345.1440734863281 179.49835205078125 352.0642395019531 180.9684600830078 360.42095947265625 182.8043212890625 C 378.4175109863281 182.74452209472656 375.2933349609375 185.64572143554688 384.30194091796875 177.29823303222656" stroke-width="0.0" fill="rgb(103, 105, 150)" opacity="1.0012505" stroke="rgb(0, 0, 0)" stroke-opacity="1.0" stroke-linecap="round" stroke-linejoin="round"/>
    <path d="M 268.8558654785156 351.65399169921875 C 260.85174560546875 360.3332214355469 261.68096923828125 365.971435546875 261.72430419921875 387.0730895996094 C 262.35662841796875 388.4895935058594 277.951904296875 388.4140319824219 286.1918029785156 387.6698303222656 C 284.1328430175781 377.9820556640625 282.10870361328125 367.1152038574219 282.6788330078125 356.22271728515625 C 275.3353576660156 353.6357727050781 280.53466796875 348.44140625 268.8558654785156 351.65399169921875" stroke-width="0.0" fill="rgb(86, 75, 52)" opacity="1.0067306" stroke="rgb(0, 0, 0)" stroke-opacity="1.0" stroke-linecap="round" stroke-linejoin="round"/>
    <path d="M 168.9876708984375 428.97906494140625 C 167.82546997070312 421.54534912109375 164.10946655273438 420.4448547363281 158.8119659423828 418.78167724609375 C 135.9976043701172 425.31915283203125 148.57579040527344 426.7891845703125 132.08131408691406 423.5951843261719 C 111.5564956665039 424.8802185058594 106.3625259399414 428.9512634277344 105.48362731933594 437.7142333984375 C 118.88822174072266 435.55853271484375 140.71005249023438 435.13922119140625 154.91494750976562 436.4552307128906 C 164.39590454101562 433.56060791015625 166.6633758544922 435.5469055175781 168.9876708984375 428.97906494140625" stroke-width="0.0" fill="rgb(185, 156, 109)" opacity="0.9888621" stroke="rgb(0, 0, 0)" stroke-opacity="1.0" stroke-linecap="round" stroke-linejoin="round"/>
    <path d="M 19.88371467590332 361.69207763671875 C 18.791574478149414 365.82257080078125 26.163917541503906 365.16729736328125 33.38920593261719 367.6913146972656 C 43.30182647705078 368.9227600097656 58.2699089050293 367.3814697265625 63.419925689697266 362.7447204589844 C 63.21924591064453 354.241943359375 52.158756256103516 358.454833984375 39.685699462890625 354.88775634765625 C 34.12443542480469 354.4107666015625 19.61646842956543 356.47784423828125 19.88371467590332 361.69207763671875" stroke-width="0.0" fill="rgb(136, 121, 85)" opacity="0.9882894" stroke="rgb(0, 0, 0)" stroke-opacity="1.0" stroke-linecap="round" stroke-linejoin="round"/>
    <path d="M 146.32498168945312 260.2540588378906 C 127.10935974121094 273.7190246582031 140.66848754882812 287.56719970703125 122.47723388671875 301.6264953613281 C 126.3237075805664 307.97998046875 127.44612121582031 298.9841613769531 136.7171173095703 298.3424987792969 C 140.126220703125 292.6775817871094 140.5933837890625 285.51678466796875 142.26210021972656 279.5779724121094 C 144.37786865234375 275.97918701171875 150.5552520751953 275.3605041503906 154.80642700195312 272.566650390625 C 151.93223571777344 266.2464294433594 145.8656005859375 271.0300598144531 146.32498168945312 260.2540588378906" stroke-width="0.0" fill="rgb(83, 84, 113)" opacity="0.976385" stroke="rgb(0, 0, 0)" stroke-opacity="1.0" stroke-linecap="round" stroke-linejoin="round"/>
    <path d="M 97.78556823730469 256.2859802246094 C 81.8786392211914 255.16293334960938 72.48255157470703 264.5793151855469 60.21516799926758 270.828857421875 C 65.35586547851562 276.2146301269531 68.34008026123047 279.110595703125 75.81829071044922 282.776123046875 C 82.40057373046875 267.2896728515625 91.7856674194336 264.42266845703125 97.78556823730469 256.2859802246094" stroke-width="0.0" fill="rgb(178, 167, 162)" opacity="0.9547052" stroke="rgb(0, 0, 0)" stroke-opacity="1.0" stroke-linecap="round" stroke-linejoin="round"/>
    <path d="M 320.1647033691406 269.62396240234375 C 310.879638671875 281.911376953125 314.92828369140625 279.6920166015625 314.9898681640625 290.4969482421875 C 329.78515625 294.5545349121094 323.313232421875 287.0395202636719 334.13873291015625 289.5245361328125 C 338.8953857421875 282.83502197265625 334.9126892089844 279.4580383300781 333.2547912597656 272.1063232421875 C 324.2755432128906 273.1787109375 320.2424621582031 273.36163330078125 320.1647033691406 269.62396240234375" stroke-width="0.0" fill="rgb(141, 132, 142)" opacity="0.9845661" stroke="rgb(0, 0, 0)" stroke-opacity="1.0" stroke-linecap="round" stroke-linejoin="round"/>
    <path d="M 247.8950958251953 158.52244567871094 C 242.5281219482422 160.21653747558594 243.1009063720703 170.26112365722656 238.1536407470703 177.61087036132812 C 245.69166564941406 181.30784606933594 243.43389892578125 190.9393768310547 254.2815399169922 188.4071807861328 C 260.1559143066406 187.54600524902344 256.0565490722656 188.42457580566406 257.43756103515625 179.46763610839844 C 255.04664611816406 169.75228881835938 248.09300231933594 167.2759552001953 247.8950958251953 158.52244567871094" stroke-width="0.0" fill="rgb(114, 117, 157)" opacity="1.0086553" stroke="rgb(0, 0, 0)" stroke-opacity="1.0" stroke-linecap="round" stroke-linejoin="round"/>
    <path d="M 111.44987487792969 347.7785949707031 C 107.51683044433594 348.0965881347656 104.09420776367188 352.2601318359375 102.98237609863281 357.33160400390625 C 105.17704010009766 364.23663330078125 100.90023803710938 369.5451354980469 107.25502014160156 369.1473693847656 C 112.69730377197266 366.7558898925781 120.27664184570312 367.26873779296875 119.86669158935547 362.0428161621094 C 123.47396087646484 357.0869140625 113.82295989990234 352.5708312988281 111.44987487792969 347.7785949707031" stroke-width="0.0" fill="rgb(78, 71, 56)" opacity="1.0010368" stroke="rgb(0, 0, 0)" stroke-opacity="1.0" stroke-linecap="round" stroke-linejoin="round"/>
    <path d="M 286.4047546386719 279.5785217285156 C 280.6568908691406 285.18115234375 273.98876953125 291.1942138671875 276.3688659667969 296.0711669921875 C 280.4674377441406 298.7701721191406 284.9052734375 305.3483581542969 293.59521484375 302.778564453125 C 284.0400695800781 295.451904296875 288.6764831542969 289.87713623046875 286.4047546386719 279.5785217285156" stroke-width="0.0" fill="rgb(53, 53, 85)" opacity="1.004473" stroke="rgb(0, 0, 0)" stroke-opacity="1.0" stroke-linecap="round" stroke-linejoin="round"/>
    <path d="M 147.0446319580078 373.9536437988281 C 141.3597412109375 374.5412902832031 141.53335571289062 383.5133361816406 145.9853973388672 384.0964660644531 C 151.70310974121094 384.5648193359375 159.43601989746094 388.5321350097656 165.48472595214844 383.5867004394531 C 153.05958557128906 379.4735107421875 151.8726348876953 371.6102600097656 147.0446319580078 373.9536437988281" stroke-width="0.0" fill="rgb(133, 116, 87)" opacity="0.9999255" stroke="rgb(0, 0, 0)" stroke-opacity="1.0" stroke-linecap="round" stroke-linejoin="round"/>
    <path d="M 252.35397338867188 387.2506103515625 C 244.30386352539062 393.16522216796875 249.0475616455078 392.04132080078125 249.19854736328125 396.4580993652344 C 261.73486328125 395.4813232421875 271.21600341796875 398.11260986328125 271.2120361328125 391.6343688964844 C 268.8877258300781 386.8222961425781 260.379150390625 390.8253173828125 252.35397338867188 387.2506103515625" stroke-width="0.0" fill="rgb(125, 108, 89)" opacity="0.9883526" stroke="rgb(0, 0, 0)" stroke-opacity="1.0" stroke-linecap="round" stroke-linejoin="round"/>
    <path d="M 170.69232177734375 349.1525573730469 C 169.45462036132812 352.7126159667969 166.56808471679688 356.9245300292969 168.26858520507812 363.1878967285156 C 168.01480102539062 364.4960632324219 174.44369506835938 364.2167053222656 175.11988830566406 363.63116455078125 C 176.6688690185547 362.52056884765625 177.6883087158203 357.8017272949219 178.3976593017578 353.9134216308594 C 176.61428833007812 348.2564392089844 175.63282775878906 348.3126525878906 170.69232177734375 349.1525573730469" stroke-width="0.0" fill="rgb(116, 101, 68)" opacity="0.9997948" stroke="rgb(0, 0, 0)" stroke-opacity="1.0" stroke-linecap="round" stroke-linejoin="round"/>
    <path d="M 50.014747619628906 389.5286560058594 C 50.195556640625 388.5360107421875 52.23859786987305 393.3861389160156 50.30226135253906 394.36358642578125 C 60.206241607666016 393.5643310546875 71.13707733154297 394.4875183105469 65.02301788330078 387.37457275390625 C 57.96075439453125 383.90203857421875 58.22486877441406 385.9189758300781 50.014747619628906 389.5286560058594" stroke-width="0.0" fill="rgb(127, 112, 64)" opacity="1.0152055" stroke="rgb(0, 0, 0)" stroke-opacity="1.0" stroke-linecap="round" stroke-linejoin="round"/>
    <path d="M 69.93859100341797 351.5835876464844 C 69.465087890625 356.3254699707031 70.15715789794922 359.21026611328125 75.18106842041016 361.72064208984375 C 75.89534759521484 359.5310363769531 81.11758422851562 359.87591552734375 81.53704833984375 356.2939147949219 C 81.96363067626953 353.05181884765625 73.8742446899414 347.3292236328125 69.93859100341797 351.5835876464844" stroke-width="0.0" fill="rgb(92, 83, 65)" opacity="1.001623" stroke="rgb(0, 0, 0)" stroke-opacity="1.0" stroke-linecap="round" stroke-linejoin="round"/>
    <path d="M 30.093461990356445 303.96636962890625 C 26.68172836303711 302.8726806640625 30.768936157226562 314.51904296875 29.702848434448242 314.22637939453125 C 30.13985252380371 309.8775634765625 30.77211570739746 316.9395446777344 37.903663635253906 315.6101379394531 C 38.54372024536133 306.7464904785156 32.74951934814453 300.3506164550781 30.093461990356445 303.96636962890625" stroke-width="0.0" fill="rgb(101, 88, 56)" opacity="0.99925524" stroke="rgb(0, 0, 0)" stroke-opacity="1.0" stroke-linecap="round" stroke-linejoin="round"/>
    <path d="M -0.7943754196166992 457.6244201660156 C -5.584547996520996 476.4124450683594 -6.543997287750244 495.1444091796875 -5.927937984466553 522.1939086914062 C 51.659854888916016 522.6417236328125 97.72649383544922 522.8191528320312 136.0031280517578 522.2858276367188 C 136.9752655029297 499.1490173339844 127.96564483642578 505.0710144042969 121.77984619140625 503.71319580078125 C 117.93887329101562 484.9244079589844 109.08255004882812 474.9284362792969 113.1190185546875 460.79791259765625 C 96.72642517089844 455.9908142089844 93.60710144042969 460.9095153808594 89.33633422851562 452.5892639160156 C 56.016902923583984 453.3600769042969 22.981847763061523 455.3108825683594 -0.7943754196166992 457.6244201660156" stroke-width="0.0" fill="rgb(203, 171, 116)" opacity="0.9998135" stroke="rgb(0, 0, 0)" stroke-opacity="1.0" stroke-linecap="round" stroke-linejoin="round"/>
    <path d="M 117.90776824951172 386.76531982421875 C 116.17201232910156 375.3096008300781 98.80085754394531 380.2984619140625 104.87576293945312 370.551513671875 C 80.2786865234375 371.8924865722656 66.30962371826172 371.45086669921875 68.83621215820312 374.2052307128906 C 63.57612228393555 379.59527587890625 65.05014038085938 383.2158508300781 72.83928680419922 385.6664733886719 C 94.48571014404297 383.5840148925781 93.89253234863281 384.4356689453125 117.90776824951172 386.76531982421875" stroke-width="0.0" fill="rgb(125, 108, 72)" opacity="1.0059539" stroke="rgb(0, 0, 0)" stroke-opacity="1.0" stroke-linecap="round" stroke-linejoin="round"/>
    <path d="M 202.6878662109375 356.94775390625 C 198.51202392578125 366.6559143066406 202.07383728027344 382.4580383300781 200.5681610107422 384.8299560546875 C 207.93031311035156 388.1088562011719 213.66807556152344 383.73712158203125 212.38406372070312 380.3690185546875 C 208.7966766357422 369.9185485839844 207.74510192871094 359.4882507324219 202.6878662109375 356.94775390625" stroke-width="0.0" fill="rgb(83, 77, 52)" opacity="0.98554677" stroke="rgb(0, 0, 0)" stroke-opacity="1.0" stroke-linecap="round" stroke-linejoin="round"/>
    <path d="M 233.46385192871094 368.8990173339844 C 233.76712036132812 362.2413635253906 231.18206787109375 375.6875 234.67588806152344 375.076416015625 C 237.2254638671875 374.0581970214844 256.6414794921875 376.8635559082031 260.6503601074219 373.7703857421875 C 253.88717651367188 363.06060791015625 247.4468994140625 370.40887451171875 233.46385192871094 368.8990173339844" stroke-width="0.0" fill="rgb(103, 90, 65)" opacity="0.99925977" stroke="rgb(0, 0, 0)" stroke-opacity="1.0" stroke-linecap="round" stroke-linejoin="round"/>
    <path d="M 318.6970520019531 340.8174133300781 C 310.60589599609375 338.1852722167969 311.88037109375 350.8485107421875 311.97723388671875 355.6039123535156 C 313.3789367675781 356.0906677246094 316.54840087890625 362.6544494628906 323.8030090332031 356.59063720703125 C 322.19537353515625 350.1747131347656 317.6567687988281 344.8582458496094 318.6970520019531 340.8174133300781" stroke-width="0.0" fill="rgb(127, 106, 71)" opacity="1.0077622" stroke="rgb(0, 0, 0)" stroke-opacity="1.0" stroke-linecap="round" stroke-linejoin="round"/>
    <path d="M 15.72821044921875 391.45361328125 C 16.57406234741211 396.04718017578125 21.48398208618164 393.2555236816406 32.02617645263672 394.37884521484375 C 35.39735412597656 387.9251708984375 32.045326232910156 385.4686584472656 29.951894760131836 385.2323913574219 C 24.915626525878906 383.6745910644531 16.264142990112305 385.3116455078125 15.72821044921875 391.45361328125" stroke-width="0.0" fill="rgb(126, 111, 63)" opacity="0.969583" stroke="rgb(0, 0, 0)" stroke-opacity="1.0" stroke-linecap="round" stroke-linejoin="round"/>
    <path d="M 427.29522705078125 179.2673797607422 C 414.866455078125 184.2669677734375 422.7356872558594 182.885009765625 423.62567138671875 187.02940368652344 C 426.3677673339844 187.0745849609375 436.395751953125 191.68875122070312 442.4139404296875 189.66233825683594 C 440.2166748046875 179.0449981689453 429.1468811035156 185.62315368652344 427.29522705078125 179.2673797607422" stroke-width="0.0" fill="rgb(126, 127, 146)" opacity="0.9993827" stroke="rgb(0, 0, 0)" stroke-opacity="1.0" stroke-linecap="round" stroke-linejoin="round"/>
    <path d="M 155.02127075195312 377.736572265625 C 156.0286865234375 382.0399475097656 162.29656982421875 380.26959228515625 162.4976348876953 385.841552734375 C 163.19497680664062 390.034912109375 170.55645751953125 386.06707763671875 170.24942016601562 378.31689453125 C 169.1696014404297 377.62579345703125 163.27708435058594 373.7000427246094 155.02127075195312 377.736572265625" stroke-width="0.0" fill="rgb(171, 160, 141)" opacity="0.9902831" stroke="rgb(0, 0, 0)" stroke-opacity="1.0" stroke-linecap="round" stroke-linejoin="round"/>
    <path d="M 33.48142623901367 392.04913330078125 C 30.33502769470215 394.53369140625 36.42320251464844 392.35009765625 46.9460563659668 393.1974792480469 C 47.526119232177734 388.6349182128906 45.27046203613281 386.1788635253906 44.45909118652344 385.8079528808594 C 38.289146423339844 383.54119873046875 30.819896697998047 384.2551574707031 33.48142623901367 392.04913330078125" stroke-width="0.0" fill="rgb(126, 110, 60)" opacity="0.985" stroke="rgb(0, 0, 0)" stroke-opacity="1.0" stroke-linecap="round" stroke-linejoin="round"/>
    <path d="M 30.402267456054688 339.9921875 C 33.381324768066406 332.23016357421875 35.00788879394531 337.84954833984375 35.49776840209961 340.3054504394531 C 36.99366760253906 338.8877258300781 39.2998046875 351.3487243652344 39.13313293457031 353.0218200683594 C 31.169965744018555 358.4856872558594 31.95688247680664 345.4100341796875 30.402267456054688 339.9921875" stroke-width="0.0" fill="rgb(100, 88, 63)" opacity="0.9997178" stroke="rgb(0, 0, 0)" stroke-opacity="1.0" stroke-linecap="round" stroke-linejoin="round"/>
    <path d="M 214.6407012939453 372.1423034667969 C 215.28695678710938 373.706298828125 223.08929443359375 375.6123046875 231.8628692626953 374.9191589355469 C 227.2458953857422 369.7809143066406 231.58016967773438 368.77484130859375 223.79638671875 366.5481872558594 C 222.57943725585938 368.3565979003906 213.42745971679688 367.6546936035156 214.6407012939453 372.1423034667969" stroke-width="0.0" fill="rgb(102, 91, 66)" opacity="0.99747837" stroke="rgb(0, 0, 0)" stroke-opacity="1.0" stroke-linecap="round" stroke-linejoin="round"/>
    <path d="M 207.2810516357422 426.2008972167969 C 210.85525512695312 425.2455749511719 212.18096923828125 428.3202819824219 204.28541564941406 428.357666015625 C 217.76499938964844 425.9101867675781 226.10264587402344 426.6903076171875 220.87200927734375 419.9153137207031 C 213.37533569335938 419.2461242675781 209.53903198242188 420.8605651855469 207.2810516357422 426.2008972167969" stroke-width="0.0" fill="rgb(162, 137, 92)" opacity="0.9980781" stroke="rgb(0, 0, 0)" stroke-opacity="1.0" stroke-linecap="round" stroke-linejoin="round"/>
    <path d="M -1.938193678855896 245.01385498046875 C -6.462107181549072 254.19027709960938 -5.481856822967529 264.3301086425781 -3.733191967010498 272.6986389160156 C 11.995670318603516 268.27935791015625 19.44993782043457 281.6086120605469 43.005828857421875 279.5934753417969 C 36.948368072509766 263.7336120605469 10.064377784729004 261.9403991699219 -1.938193678855896 245.01385498046875" stroke-width="0.0" fill="rgb(153, 137, 120)" opacity="0.9943737" stroke="rgb(0, 0, 0)" stroke-opacity="1.0" stroke-linecap="round" stroke-linejoin="round"/>
    <path d="M 139.2442169189453 425.4289855957031 C 135.9871063232422 422.6460876464844 124.95226287841797 423.340576171875 119.21243286132812 425.1143493652344 C 110.40147399902344 427.8499450683594 108.50719451904297 427.3881530761719 104.3025131225586 437.6396484375 C 110.92472076416016 436.09820556640625 126.6410903930664 436.7164611816406 133.1903839111328 434.9623107910156 C 134.6482696533203 431.6703186035156 140.12730407714844 429.5088195800781 139.2442169189453 425.4289855957031" stroke-width="0.0" fill="rgb(163, 139, 99)" opacity="0.9965383" stroke="rgb(0, 0, 0)" stroke-opacity="1.0" stroke-linecap="round" stroke-linejoin="round"/>
    <path d="M 114.34506225585938 201.07139587402344 C 98.324951171875 209.01541137695312 102.47695922851562 227.92291259765625 88.12093353271484 239.2413330078125 C 100.70097351074219 241.35415649414062 106.30609130859375 236.01329040527344 104.91976165771484 235.28997802734375 C 103.48809814453125 226.1776580810547 113.72675323486328 216.0944061279297 114.34506225585938 201.07139587402344" stroke-width="0.0" fill="rgb(128, 132, 167)" opacity="0.98748595" stroke="rgb(0, 0, 0)" stroke-opacity="1.0" stroke-linecap="round" stroke-linejoin="round"/>
    <path d="M 18.40467643737793 361.812255859375 C 29.441482543945312 365.9365539550781 37.81003189086914 368.8378601074219 52.59239196777344 366.8716735839844 C 55.28425598144531 360.1656799316406 49.3061408996582 357.4384765625 46.417423248291016 356.0144348144531 C 35.45066452026367 356.3910827636719 25.786951065063477 354.3125 18.40467643737793 361.812255859375" stroke-width="0.0" fill="rgb(160, 151, 127)" opacity="1.001369" stroke="rgb(0, 0, 0)" stroke-opacity="1.0" stroke-linecap="round" stroke-linejoin="round"/>
    <path d="M 227.61326599121094 476.1513671875 C 206.2518768310547 474.6701354980469 219.60704040527344 478.973876953125 224.59878540039062 479.34564208984375 C 239.38336181640625 485.2562255859375 258.77276611328125 488.39605712890625 294.1033630371094 487.3774108886719 C 255.74440002441406 484.06243896484375 238.66065979003906 475.7767639160156 227.61326599121094 476.1513671875" stroke-width="0.0" fill="rgb(74, 60, 56)" opacity="0.9907158" stroke="rgb(0, 0, 0)" stroke-opacity="1.0" stroke-linecap="round" stroke-linejoin="round"/>
    <path d="M 122.4105453491211 193.5549774169922 C 114.86354064941406 181.6238250732422 98.85506439208984 190.8082733154297 73.71676635742188 187.13839721679688 C 50.8836784362793 203.5163116455078 31.5887508392334 213.65805053710938 -8.213194847106934 218.9673309326172 C 4.870370388031006 224.5042724609375 7.194492340087891 231.97994995117188 11.936951637268066 229.4963836669922 C 36.807884216308594 221.33567810058594 55.84095001220703 233.30194091796875 96.45191955566406 225.64012145996094 C 103.55210876464844 215.79812622070312 109.3682861328125 200.92556762695312 122.4105453491211 193.5549774169922" stroke-width="0.0" fill="rgb(193, 194, 209)" opacity="0.9582259" stroke="rgb(0, 0, 0)" stroke-opacity="1.0" stroke-linecap="round" stroke-linejoin="round"/>
    <path d="M 218.78533935546875 175.04331970214844 C 189.5548858642578 185.2764892578125 186.30531311035156 177.03826904296875 176.2438201904297 184.90660095214844 C 172.5723876953125 194.917724609375 166.31224060058594 203.86248779296875 163.29046630859375 214.818603515625 C 165.35894775390625 219.5021209716797 167.77752685546875 221.05514526367188 172.5181427001953 221.16824340820312 C 178.08853149414062 214.9126739501953 178.041015625 216.8037567138672 184.7921142578125 214.09329223632812 C 192.45077514648438 204.55242919921875 183.75531005859375 205.8610382080078 189.8173370361328 192.44679260253906 C 197.32066345214844 192.6787567138672 195.9390869140625 183.316650390625 218.78533935546875 175.04331970214844" stroke-width="0.0" fill="rgb(147, 150, 180)" opacity="1.0470728" stroke="rgb(0, 0, 0)" stroke-opacity="1.0" stroke-linecap="round" stroke-linejoin="round"/>
    <path d="M 13.178887367248535 327.2197570800781 C 11.263861656188965 346.91552734375 2.7326269149780273 353.02264404296875 4.333902359008789 370.8158264160156 C 12.353150367736816 368.0938415527344 17.730213165283203 370.5755310058594 18.463865280151367 366.3497009277344 C 22.335540771484375 355.644775390625 16.586828231811523 343.42266845703125 13.178887367248535 327.2197570800781" stroke-width="0.0" fill="rgb(83, 77, 59)" opacity="0.9918274" stroke="rgb(0, 0, 0)" stroke-opacity="1.0" stroke-linecap="round" stroke-linejoin="round"/>
    <path d="M 146.3135223388672 261.9771728515625 C 134.79588317871094 260.6378479003906 142.45291137695312 268.0733642578125 134.41078186035156 272.5997009277344 C 131.7543182373047 278.4151611328125 134.34666442871094 293.8240966796875 132.35633850097656 296.9061584472656 C 141.48037719726562 301.6248474121094 140.20010375976562 290.69073486328125 142.323974609375 279.7671203613281 C 144.54696655273438 274.2127685546875 153.57591247558594 276.9490661621094 155.65634155273438 271.5756530761719 C 151.7740478515625 268.80328369140625 146.08413696289062 261.8769836425781 146.3135223388672 261.9771728515625" stroke-width="0.0" fill="rgb(74, 75, 107)" opacity="0.91143495" stroke="rgb(0, 0, 0)" stroke-opacity="1.0" stroke-linecap="round" stroke-linejoin="round"/>
    <path d="M 94.43968200683594 384.4288330078125 C 97.42496490478516 383.5178527832031 106.96995544433594 388.1119689941406 117.99246215820312 385.5015869140625 C 119.88163757324219 381.746826171875 110.24899291992188 379.8211975097656 104.68360137939453 375.74078369140625 C 94.57483673095703 375.2737731933594 91.33543395996094 376.4427490234375 94.43968200683594 384.4288330078125" stroke-width="0.0" fill="rgb(121, 106, 70)" opacity="0.98787796" stroke="rgb(0, 0, 0)" stroke-opacity="1.0" stroke-linecap="round" stroke-linejoin="round"/>
    <path d="M 319.2268981933594 272.2694396972656 C 313.9495849609375 283.5398254394531 314.5845642089844 274.7931213378906 315.59844970703125 289.8760986328125 C 323.10504150390625 290.843017578125 323.6664123535156 289.69830322265625 332.4052734375 286.66156005859375 C 326.1473083496094 281.4485168457031 324.2579650878906 275.091552734375 319.2268981933594 272.2694396972656" stroke-width="0.0" fill="rgb(93, 88, 111)" opacity="1.0005417" stroke="rgb(0, 0, 0)" stroke-opacity="1.0" stroke-linecap="round" stroke-linejoin="round"/>
    <path d="M 68.91763305664062 384.8338928222656 C 75.7684555053711 385.2815246582031 84.88127899169922 386.5074462890625 88.83491516113281 381.5920104980469 C 79.82730102539062 376.5907287597656 82.64740753173828 374.62615966796875 78.7099380493164 375.80633544921875 C 71.92376708984375 375.1450500488281 66.97525024414062 379.9752502441406 68.91763305664062 384.8338928222656" stroke-width="0.0" fill="rgb(154, 138, 113)" opacity="1.0001317" stroke="rgb(0, 0, 0)" stroke-opacity="1.0" stroke-linecap="round" stroke-linejoin="round"/>
    <path d="M 249.8338623046875 392.2511291503906 C 250.2862091064453 400.13385009765625 249.6090545654297 396.1296081542969 254.38206481933594 397.3536376953125 C 258.88421630859375 395.3264465332031 268.3307189941406 399.6623840332031 269.0966796875 393.969970703125 C 268.5257568359375 388.7195739746094 258.5928649902344 390.7406005859375 249.8338623046875 392.2511291503906" stroke-width="0.0" fill="rgb(127, 110, 61)" opacity="0.9779822" stroke="rgb(0, 0, 0)" stroke-opacity="1.0" stroke-linecap="round" stroke-linejoin="round"/>
    <path d="M 101.0949478149414 227.24647521972656 C 97.36156463623047 228.1833038330078 94.3685531616211 234.69271850585938 89.04844665527344 236.47933959960938 C 92.4092025756836 242.58522033691406 100.80745697021484 239.1158905029297 106.6280517578125 235.57505798339844 C 106.85609436035156 237.22433471679688 104.5923843383789 227.95162963867188 101.0949478149414 227.24647521972656" stroke-width="0.0" fill="rgb(121, 128, 167)" opacity="0.979285" stroke="rgb(0, 0, 0)" stroke-opacity="1.0" stroke-linecap="round" stroke-linejoin="round"/>
  </g>
</svg>
