<?xml version="1.0" ?>
<svg xmlns="http://www.w3.org/2000/svg" version="1.1" width="512" height="512">
  <defs/>
  <g>
    <path d="M -3.3762283325195312 -3.1279566287994385 C -3.133366107940674 170.3333282470703 -2.2314140796661377 340.6666564941406 -0.9669420719146729 517.6343994140625 C 169.69529724121094 518.197509765625 339.54669189453125 519.1193237304688 517.8583374023438 520.085693359375 C 518.3350219726562 342.0111083984375 518.5574951171875 171.1721954345703 518.7269897460938 -2.4150400161743164 C 340.6666564941406 -2.8275368213653564 170.3333282470703 -2.9794750213623047 -3.3762283325195312 -3.1279566287994385" stroke-width="0.0" fill="rgb(167, 206, 232)" opacity="0.7900994" stroke="rgb(0, 0, 0)" stroke-opacity="1.0" stroke-linecap="round" stroke-linejoin="round"/>
    <path d="M 518.57568359375 215.99014282226562 C 489.89227294921875 211.1157989501953 478.9580383300781 213.70492553710938 461.34808349609375 218.52792358398438 C 402.46636962890625 243.83677673339844 350.2394714355469 276.40496826171875 288.1194763183594 298.2539978027344 C 261.3448791503906 293.9959411621094 239.82626342773438 287.775634765625 209.82958984375 287.51788330078125 C 177.8541259765625 280.3266906738281 159.04061889648438 255.91932678222656 115.9972152709961 248.16796875 C 81.760498046875 260.8921203613281 48.46860885620117 282.3363952636719 -10.534846305847168 298.93060302734375 C -10.972078323364258 355.8659362792969 -11.003376960754395 429.79351806640625 -10.534358978271484 520.521484375 C 166.79934692382812 520.3523559570312 338.6441955566406 519.3453369140625 518.6746826171875 518.3720703125 C 518.27294921875 414.41851806640625 518.4959106445312 315.283203125 518.57568359375 215.99014282226562" stroke-width="0.0" fill="rgb(101, 129, 147)" opacity="0.85051244" stroke="rgb(0, 0, 0)" stroke-opacity="1.0" stroke-linecap="round" stroke-linejoin="round"/>
    <path d="M -3.6694586277008057 212.6509246826172 C -8.081299781799316 246.1637420654297 -8.44612979888916 272.759521484375 -7.447063446044922 297.27606201171875 C 7.678527355194092 292.8943786621094 10.190346717834473 290.0627746582031 13.007172584533691 289.77081298828125 C 13.796833038330078 278.5246276855469 16.246856689453125 268.90008544921875 14.185123443603516 257.1334533691406 C 14.181671142578125 238.99514770507812 9.766622543334961 226.59039306640625 -3.6694586277008057 212.6509246826172" stroke-width="0.0" fill="rgb(215, 232, 246)" opacity="1.0018306" stroke="rgb(0, 0, 0)" stroke-opacity="1.0" stroke-linecap="round" stroke-linejoin="round"/>
    <path d="M 163.9112091064453 265.45513916015625 C 178.86680603027344 275.9336242675781 193.99696350097656 284.11810302734375 215.3334503173828 290.5198669433594 C 235.58460998535156 287.70263671875 254.36907958984375 291.6766662597656 278.25982666015625 297.5989990234375 C 252.0406494140625 285.4839172363281 229.5464324951172 274.4993591308594 207.39646911621094 266.069580078125 C 195.4256591796875 263.9231872558594 177.60427856445312 261.783447265625 163.9112091064453 265.45513916015625" stroke-width="0.0" fill="rgb(195, 212, 225)" opacity="1.0024447" stroke="rgb(0, 0, 0)" stroke-opacity="1.0" stroke-linecap="round" stroke-linejoin="round"/>
    <path d="M 119.23389434814453 193.82992553710938 C 116.83354187011719 192.63967895507812 113.90796661376953 196.5055694580078 112.05694580078125 197.9523162841797 C 112.19751739501953 211.5225067138672 111.1176528930664 229.63497924804688 112.59104919433594 238.97645568847656 C 117.59160614013672 240.1049041748047 120.76539611816406 239.44845581054688 120.36907196044922 237.2109832763672 C 120.23036193847656 216.9148712158203 123.1951904296875 206.47415161132812 119.23389434814453 193.82992553710938" stroke-width="0.0" fill="rgb(199, 221, 240)" opacity="1.0073729" stroke="rgb(0, 0, 0)" stroke-opacity="1.0" stroke-linecap="round" stroke-linejoin="round"/>
    <path d="M 519.163818359375 303.861572265625 C 482.669189453125 311.05657958984375 462.6915283203125 325.5666809082031 430.12884521484375 332.5634460449219 C 408.0658874511719 339.3665466308594 378.8050537109375 337.84014892578125 350.7665100097656 340.7314453125 C 321.5273132324219 352.5925598144531 286.1786193847656 357.48101806640625 253.6486358642578 365.07574462890625 C 247.1340789794922 363.60589599609375 236.21693420410156 366.6075439453125 234.17501831054688 361.6178283691406 C 220.82949829101562 355.4445495605469 225.89955139160156 339.59600830078125 212.41983032226562 341.66064453125 C 198.96754455566406 343.02215576171875 197.58131408691406 361.55078125 183.764404296875 372.2474365234375 C 157.905517578125 376.248779296875 138.75836181640625 388.61138916015625 118.97479248046875 390.8379211425781 C 103.8865737915039 392.8290100097656 95.98603820800781 389.4232177734375 85.86585998535156 386.2426452636719 C 61.6702766418457 375.6373291015625 39.30028533935547 363.02386474609375 18.63313102722168 348.72882080078125 C 11.751489639282227 345.8721618652344 5.931039810180664 346.9100036621094 -7.877035140991211 351.4404296875 C -8.493953704833984 398.107666015625 -8.23323917388916 453.1932373046875 -7.636317729949951 519.7822875976562 C 168.05477905273438 519.9306640625 339.5315246582031 519.06201171875 517.8960571289062 518.247802734375 C 518.7894287109375 441.4740905761719 520.4494018554688 370.876708984375 519.163818359375 303.861572265625" stroke-width="0.0" fill="rgb(53, 50, 38)" opacity="1.0324557" stroke="rgb(0, 0, 0)" stroke-opacity="1.0" stroke-linecap="round" stroke-linejoin="round"/>
    <path d="M 521.2976684570312 216.91925048828125 C 486.5184631347656 211.40280151367188 475.1803894042969 213.36058044433594 456.77020263671875 220.2407684326172 C 407.62408447265625 243.587158203125 360.386962890625 268.4681091308594 311.3932189941406 291.3428039550781 C 281.1719970703125 299.8713684082031 251.96533203125 309.03057861328125 223.82135009765625 319.70233154296875 C 221.70806884765625 327.5126647949219 214.08377075195312 316.62127685546875 217.80409240722656 326.472412109375 C 225.2334442138672 335.37432861328125 229.8308868408203 344.1389465332031 234.5960235595703 354.48291015625 C 240.49327087402344 357.2879333496094 240.76190185546875 361.5428466796875 251.806396484375 361.7438049316406 C 287.9802551269531 356.0406799316406 321.19793701171875 346.5541687011719 354.27606201171875 338.4373779296875 C 377.6106262207031 336.1791687011719 407.6710510253906 336.5525817871094 421.681640625 331.51776123046875 C 454.2627868652344 324.1653747558594 479.3175964355469 311.4827575683594 518.3900146484375 300.3498229980469 C 521.6409912109375 281.3372802734375 521.514892578125 251.34613037109375 521.2976684570312 216.91925048828125" stroke-width="0.0" fill="rgb(110, 132, 152)" opacity="0.9700638" stroke="rgb(0, 0, 0)" stroke-opacity="1.0" stroke-linecap="round" stroke-linejoin="round"/>
    <path d="M 235.93521118164062 297.0960388183594 C 187.92823791503906 293.362548828125 164.6291961669922 257.0838317871094 115.8030014038086 245.17327880859375 C 76.97328186035156 265.5047607421875 42.75997543334961 284.4478454589844 -2.8036482334136963 296.7531433105469 C -8.540526390075684 302.5687561035156 -8.464688301086426 321.0380859375 -2.679262161254883 324.6246337890625 C 31.00636863708496 340.09466552734375 56.117130279541016 361.4969482421875 84.92867279052734 380.00616455078125 C 95.65718078613281 383.0805358886719 100.3857421875 391.42889404296875 117.7693099975586 389.3170471191406 C 142.42788696289062 387.52642822265625 160.01324462890625 373.907958984375 186.89544677734375 367.4988708496094 C 191.3507843017578 358.8190002441406 191.87734985351562 343.16241455078125 202.23281860351562 331.543212890625 C 210.52622985839844 320.51611328125 234.17324829101562 323.2840270996094 235.93521118164062 297.0960388183594" stroke-width="0.0" fill="rgb(138, 166, 188)" opacity="0.957927" stroke="rgb(0, 0, 0)" stroke-opacity="1.0" stroke-linecap="round" stroke-linejoin="round"/>
    <path d="M -7.221688747406006 324.9290771484375 C -8.130060195922852 347.033203125 -8.412995338439941 361.6307373046875 -3.7129859924316406 385.3351135253906 C 5.296219348907471 363.8670959472656 8.045506477355957 345.2204895019531 11.711234092712402 334.187744140625 C 8.691427230834961 328.72564697265625 5.185338497161865 327.0103454589844 -7.221688747406006 324.9290771484375" stroke-width="0.0" fill="rgb(123, 145, 164)" opacity="1.012569" stroke="rgb(0, 0, 0)" stroke-opacity="1.0" stroke-linecap="round" stroke-linejoin="round"/>
    <path d="M 96.40469360351562 381.8481140136719 C 94.35874938964844 383.58648681640625 94.38435363769531 385.2696533203125 91.7806167602539 383.99798583984375 C 102.36705780029297 384.4257507324219 96.91063690185547 387.7909240722656 98.48709106445312 389.9681396484375 C 93.17762756347656 389.8791809082031 93.02483367919922 385.90057373046875 96.40469360351562 381.8481140136719" stroke-width="0.0" fill="rgb(67, 88, 102)" opacity="0.9993043" stroke="rgb(0, 0, 0)" stroke-opacity="1.0" stroke-linecap="round" stroke-linejoin="round"/>
    <path d="M 518.27490234375 413.6733093261719 C 499.8180847167969 418.03009033203125 486.7869873046875 419.2124328613281 468.6380920410156 420.9525451660156 C 448.97247314453125 422.3943786621094 437.3409118652344 433.448486328125 406.944091796875 438.26513671875 C 282.3206481933594 442.23931884765625 140.9537811279297 442.3440856933594 -6.797515869140625 441.12890625 C -5.937099456787109 463.7260437011719 -6.321099281311035 486.6379089355469 -6.435018539428711 519.4758911132812 C 169.79754638671875 519.090576171875 340.49371337890625 518.448974609375 517.8575439453125 518.0003662109375 C 518.2166137695312 480.9537658691406 518.2772216796875 450.33795166015625 518.27490234375 413.6733093261719" stroke-width="0.0" fill="rgb(96, 71, 41)" opacity="0.9638565" stroke="rgb(0, 0, 0)" stroke-opacity="1.0" stroke-linecap="round" stroke-linejoin="round"/>
    <path d="M 215.98377990722656 332.20526123046875 C 207.09214782714844 330.45196533203125 202.36216735839844 339.6211853027344 196.8413848876953 345.07696533203125 C 194.67625427246094 352.7290344238281 190.7030792236328 360.99932861328125 191.40101623535156 371.765625 C 208.9788818359375 373.61553955078125 223.48446655273438 373.32977294921875 232.66343688964844 364.9787902832031 C 230.01239013671875 348.7445373535156 224.8814239501953 338.5172424316406 215.98377990722656 332.20526123046875" stroke-width="0.0" fill="rgb(42, 50, 46)" opacity="0.97628486" stroke="rgb(0, 0, 0)" stroke-opacity="1.0" stroke-linecap="round" stroke-linejoin="round"/>
    <path d="M 72.87202453613281 420.6651611328125 C 82.55477142333984 419.8382873535156 84.82250213623047 422.9747619628906 78.98857116699219 430.36865234375 C 77.60482788085938 429.79150390625 77.27442932128906 435.2634582519531 71.92720031738281 430.66363525390625 C 69.2559814453125 421.9745178222656 72.50724029541016 418.51824951171875 72.87202453613281 420.6651611328125" stroke-width="0.0" fill="rgb(142, 133, 118)" opacity="0.9611352" stroke="rgb(0, 0, 0)" stroke-opacity="1.0" stroke-linecap="round" stroke-linejoin="round"/>
    <path d="M -4.476295471191406 331.4132080078125 C -4.82887601852417 354.38330078125 -6.036549091339111 377.0875244140625 -7.0582404136657715 398.3012390136719 C 35.098175048828125 399.2082214355469 69.4066390991211 396.6372375488281 103.56570434570312 394.0867919921875 C 72.76422882080078 373.2596435546875 45.329063415527344 354.6051330566406 18.117660522460938 335.9429016113281 C 13.101618766784668 334.41522216796875 6.807055473327637 332.53515625 -4.476295471191406 331.4132080078125" stroke-width="0.0" fill="rgb(68, 85, 96)" opacity="0.8022978" stroke="rgb(0, 0, 0)" stroke-opacity="1.0" stroke-linecap="round" stroke-linejoin="round"/>
    <path d="M 516.1168212890625 300.7125549316406 C 490.38421630859375 309.60284423828125 469.50433349609375 317.2581787109375 448.2493896484375 329.0037841796875 C 451.1470947265625 337.6999206542969 460.0888671875 350.1952209472656 451.53985595703125 362.55352783203125 C 464.47125244140625 365.6686096191406 488.2037658691406 365.7498474121094 519.2859497070312 366.4822692871094 C 518.4616088867188 343.2927551269531 519.2872924804688 321.56005859375 516.1168212890625 300.7125549316406" stroke-width="0.0" fill="rgb(28, 36, 40)" opacity="0.9196116" stroke="rgb(0, 0, 0)" stroke-opacity="1.0" stroke-linecap="round" stroke-linejoin="round"/>
    <path d="M 297.8379821777344 379.0627746582031 C 295.3236083984375 384.1056823730469 297.6124267578125 389.00579833984375 299.4720153808594 392.40631103515625 C 303.65460205078125 395.08575439453125 309.4593811035156 398.6523132324219 318.650390625 399.21112060546875 C 334.548828125 398.5008850097656 351.85174560546875 397.9203796386719 359.7410583496094 389.0511169433594 C 361.8049011230469 374.9534606933594 351.8708190917969 368.9124450683594 344.24957275390625 361.9993896484375 C 334.9416198730469 362.4064025878906 315.9512634277344 361.4666748046875 310.8939514160156 362.5408020019531 C 303.4224853515625 366.5764465332031 298.0096130371094 372.2287292480469 297.8379821777344 379.0627746582031" stroke-width="0.0" fill="rgb(17, 22, 22)" opacity="1.0048503" stroke="rgb(0, 0, 0)" stroke-opacity="1.0" stroke-linecap="round" stroke-linejoin="round"/>
    <path d="M 357.1397705078125 323.0967102050781 C 351.3714294433594 330.5552978515625 348.34454345703125 341.9502868652344 343.19775390625 350.66265869140625 C 347.63726806640625 356.6456298828125 351.89727783203125 359.4964904785156 360.79681396484375 357.6447448730469 C 367.5166320800781 355.9905090332031 366.0668029785156 354.80889892578125 365.8930969238281 343.04058837890625 C 363.7587890625 335.2632141113281 362.07135009765625 325.8446960449219 357.1397705078125 323.0967102050781" stroke-width="0.0" fill="rgb(22, 31, 35)" opacity="0.9422747" stroke="rgb(0, 0, 0)" stroke-opacity="1.0" stroke-linecap="round" stroke-linejoin="round"/>
    <path d="M -5.050815105438232 439.50604248046875 C 21.80406951904297 444.2231750488281 40.00185012817383 438.50872802734375 58.487449645996094 434.05120849609375 C 73.28523254394531 420.9560852050781 91.7255630493164 413.6019287109375 103.33109283447266 397.2615661621094 C 63.58222579956055 395.03741455078125 35.125179290771484 396.05682373046875 -4.818916320800781 409.1379699707031 C -4.805201530456543 414.6892395019531 -5.056856155395508 427.89434814453125 -5.050815105438232 439.50604248046875" stroke-width="0.0" fill="rgb(43, 47, 48)" opacity="1.0029536" stroke="rgb(0, 0, 0)" stroke-opacity="1.0" stroke-linecap="round" stroke-linejoin="round"/>
    <path d="M 346.00079345703125 352.82135009765625 C 342.5650939941406 347.3604736328125 339.9282531738281 343.4958801269531 335.9183349609375 343.03076171875 C 328.9339904785156 344.6947326660156 330.5432434082031 352.7141418457031 315.5733947753906 350.58856201171875 C 295.9676208496094 342.4643859863281 297.5177307128906 362.5718994140625 280.85089111328125 356.2730712890625 C 279.4947509765625 348.4537658691406 275.7979736328125 358.75152587890625 275.5450439453125 367.2375183105469 C 299.0491638183594 367.0124816894531 307.2731628417969 357.07952880859375 347.199951171875 357.713623046875 C 341.14263916015625 358.1446838378906 346.7556457519531 358.33721923828125 346.00079345703125 352.82135009765625" stroke-width="0.0" fill="rgb(78, 90, 95)" opacity="0.9784723" stroke="rgb(0, 0, 0)" stroke-opacity="1.0" stroke-linecap="round" stroke-linejoin="round"/>
    <path d="M 449.54248046875 330.1553955078125 C 443.0855407714844 336.1048583984375 438.71392822265625 341.6796569824219 437.19122314453125 349.33587646484375 C 435.8146667480469 354.8076477050781 435.7167053222656 356.3132019042969 440.12213134765625 361.44000244140625 C 449.4317321777344 360.885009765625 455.36932373046875 361.6820068359375 454.7861633300781 356.3166809082031 C 456.5837097167969 346.61700439453125 453.5937805175781 338.36407470703125 449.54248046875 330.1553955078125" stroke-width="0.0" fill="rgb(65, 56, 29)" opacity="0.9854408" stroke="rgb(0, 0, 0)" stroke-opacity="1.0" stroke-linecap="round" stroke-linejoin="round"/>
    <path d="M 381.76470947265625 329.0229797363281 C 380.7955627441406 333.9757995605469 375.6734619140625 335.4079895019531 372.7680969238281 333.49700927734375 C 364.2772216796875 347.95147705078125 367.1885681152344 343.47088623046875 369.4973449707031 357.3069763183594 C 376.9473571777344 360.1607666015625 380.71044921875 361.0461120605469 385.18621826171875 356.022705078125 C 387.1465148925781 348.5374755859375 386.662353515625 337.26141357421875 381.76470947265625 329.0229797363281" stroke-width="0.0" fill="rgb(40, 50, 52)" opacity="0.9471452" stroke="rgb(0, 0, 0)" stroke-opacity="1.0" stroke-linecap="round" stroke-linejoin="round"/>
    <path d="M 249.12474060058594 425.58343505859375 C 250.2943572998047 429.3878173828125 261.402587890625 427.8830261230469 267.5314636230469 429.3620300292969 C 275.26617431640625 427.7487487792969 283.7554016113281 427.0798645019531 283.2778625488281 421.8581848144531 C 279.6806335449219 416.7348937988281 273.4974365234375 415.38397216796875 264.4771423339844 415.6015930175781 C 256.9683837890625 419.49822998046875 248.39764404296875 418.6073303222656 249.12474060058594 425.58343505859375" stroke-width="0.0" fill="rgb(17, 21, 23)" opacity="1.0005602" stroke="rgb(0, 0, 0)" stroke-opacity="1.0" stroke-linecap="round" stroke-linejoin="round"/>
    <path d="M 390.01129150390625 335.0338439941406 C 385.35137939453125 336.9280090332031 385.9274597167969 344.481201171875 385.63446044921875 353.6109619140625 C 381.8218994140625 358.9549560546875 390.9193420410156 360.81890869140625 396.3562927246094 360.55108642578125 C 399.8978576660156 358.22344970703125 400.35284423828125 349.29608154296875 397.0007629394531 340.17388916015625 C 396.24041748046875 335.97186279296875 395.7691650390625 334.11114501953125 390.01129150390625 335.0338439941406" stroke-width="0.0" fill="rgb(39, 46, 43)" opacity="0.97867846" stroke="rgb(0, 0, 0)" stroke-opacity="1.0" stroke-linecap="round" stroke-linejoin="round"/>
    <path d="M 401.5962829589844 337.62530517578125 C 398.2497863769531 341.7489013671875 400.6720275878906 349.3779296875 399.5681457519531 358.5006408691406 C 402.34478759765625 360.9817199707031 404.9835510253906 361.8534240722656 409.9901428222656 361.44366455078125 C 410.9523010253906 355.7008056640625 409.3422546386719 348.2367858886719 412.0581359863281 344.4659118652344 C 408.0679626464844 337.189697265625 408.6979064941406 334.78173828125 401.5962829589844 337.62530517578125" stroke-width="0.0" fill="rgb(35, 44, 46)" opacity="0.9983404" stroke="rgb(0, 0, 0)" stroke-opacity="1.0" stroke-linecap="round" stroke-linejoin="round"/>
    <path d="M 289.46661376953125 404.5939025878906 C 285.2369079589844 407.6982116699219 286.3058166503906 410.7615661621094 296.03204345703125 413.3302307128906 C 302.82928466796875 412.4717712402344 309.6988830566406 414.7012634277344 310.9837341308594 407.29742431640625 C 304.7799377441406 400.8328857421875 292.74957275390625 401.8079528808594 289.46661376953125 404.5939025878906" stroke-width="0.0" fill="rgb(14, 19, 21)" opacity="1.0006665" stroke="rgb(0, 0, 0)" stroke-opacity="1.0" stroke-linecap="round" stroke-linejoin="round"/>
    <path d="M 96.33194732666016 380.63409423828125 C 91.90882110595703 383.3638916015625 93.54312133789062 388.4492492675781 94.56431579589844 396.556640625 C 97.84407806396484 394.8460693359375 103.51021575927734 397.9641418457031 106.60045623779297 393.1045837402344 C 101.20161437988281 387.98486328125 96.10355377197266 385.99359130859375 96.33194732666016 380.63409423828125" stroke-width="0.0" fill="rgb(79, 98, 111)" opacity="0.9972669" stroke="rgb(0, 0, 0)" stroke-opacity="1.0" stroke-linecap="round" stroke-linejoin="round"/>
    <path d="M 446.2788391113281 385.80096435546875 C 438.18359375 386.860595703125 433.6666564941406 386.78204345703125 432.6966247558594 393.08062744140625 C 435.16998291015625 397.2434387207031 437.8115539550781 396.88043212890625 443.58038330078125 395.1845397949219 C 447.4696960449219 394.1397705078125 448.5361328125 390.5356750488281 446.2788391113281 385.80096435546875" stroke-width="0.0" fill="rgb(83, 64, 32)" opacity="1.0001812" stroke="rgb(0, 0, 0)" stroke-opacity="1.0" stroke-linecap="round" stroke-linejoin="round"/>
    <path d="M 33.635135650634766 342.00482177734375 C 57.20429611206055 361.8123474121094 86.2689208984375 375.1240539550781 111.14019012451172 393.1331481933594 C 139.57012939453125 387.31494140625 156.5644073486328 373.6095886230469 192.1540985107422 368.6314697265625 C 189.0399932861328 349.82794189453125 194.93414306640625 341.6912536621094 200.3974609375 329.8243103027344 C 189.53846740722656 325.6286926269531 181.1752166748047 322.12603759765625 168.1891632080078 322.14483642578125 C 157.609375 314.4874572753906 150.55230712890625 304.5664367675781 140.57717895507812 298.92230224609375 C 129.85218811035156 297.514404296875 128.48617553710938 301.4832763671875 124.3362045288086 301.2034606933594 C 115.6256103515625 300.3771057128906 114.3625259399414 293.92529296875 110.45655822753906 291.6649169921875 C 82.90087890625 308.8507385253906 51.32630157470703 317.46612548828125 33.635135650634766 342.00482177734375" stroke-width="0.0" fill="rgb(142, 168, 188)" opacity="0.9534248" stroke="rgb(0, 0, 0)" stroke-opacity="1.0" stroke-linecap="round" stroke-linejoin="round"/>
    <path d="M -4.844779014587402 321.5947570800781 C 3.058654546737671 325.8438720703125 3.772109031677246 328.7837829589844 11.199548721313477 329.4243469238281 C 15.789994239807129 326.0091552734375 16.581933975219727 319.34808349609375 20.618938446044922 320.2886962890625 C 27.48833656311035 324.13861083984375 24.49114418029785 337.96539306640625 30.991243362426758 340.12890625 C 55.73843002319336 323.03875732421875 84.17804718017578 310.4818420410156 110.4026107788086 292.8889465332031 C 120.31372833251953 299.2666320800781 118.6060791015625 300.6478271484375 141.0526580810547 296.6206359863281 C 150.98764038085938 288.99090576171875 163.26959228515625 284.6543273925781 167.4676513671875 272.7052001953125 C 169.5543975830078 272.3796081542969 155.6036834716797 272.1052551269531 150.71444702148438 270.6599426269531 C 160.57115173339844 270.37774658203125 172.0615997314453 268.96795654296875 177.3509521484375 273.1270446777344 C 190.00668334960938 282.5973815917969 205.30535888671875 291.0671691894531 218.0203399658203 298.53778076171875 C 247.71372985839844 292.73779296875 252.7125244140625 310.596923828125 282.633544921875 299.37982177734375 C 256.8157653808594 285.52459716796875 228.39634704589844 276.2487487792969 203.95751953125 262.3852233886719 C 187.88839721679688 265.85693359375 175.7393035888672 260.3128662109375 160.0594940185547 262.1449279785156 C 143.2643585205078 255.7361602783203 131.81448364257812 246.82571411132812 113.5678482055664 243.3173065185547 C 100.998291015625 250.93406677246094 86.12882232666016 259.420166015625 73.9764404296875 267.36553955078125 C 48.22445297241211 276.1808166503906 28.0404052734375 288.4906921386719 -3.0136725902557373 295.18145751953125 C -8.227263450622559 299.0733337402344 -6.8711042404174805 311.04815673828125 -4.844779014587402 321.5947570800781" stroke-width="0.0" fill="rgb(171, 193, 210)" opacity="0.8265664" stroke="rgb(0, 0, 0)" stroke-opacity="1.0" stroke-linecap="round" stroke-linejoin="round"/>
    <path d="M 443.1546936035156 368.2532043457031 C 439.4929504394531 378.82476806640625 446.5849914550781 374.8785400390625 449.5380859375 377.9435119628906 C 473.6569519042969 376.1197509765625 490.4692687988281 384.71875 507.4031982421875 381.79888916015625 C 518.4610595703125 380.7251892089844 519.7003784179688 377.5921630859375 516.2254638671875 373.7474060058594 C 488.776123046875 366.1922302246094 472.2498779296875 366.616455078125 443.1546936035156 368.2532043457031" stroke-width="0.0" fill="rgb(65, 59, 44)" opacity="0.99522805" stroke="rgb(0, 0, 0)" stroke-opacity="1.0" stroke-linecap="round" stroke-linejoin="round"/>
    <path d="M 305.94500732421875 440.7723388671875 C 323.6417236328125 441.4299621582031 341.05792236328125 439.9475402832031 358.0111999511719 439.710693359375 C 356.0541076660156 435.60284423828125 352.6361389160156 432.81787109375 351.5345153808594 432.356201171875 C 339.9091796875 430.47772216796875 328.1767883300781 431.01031494140625 315.080078125 430.36871337890625 C 316.80133056640625 438.109375 305.5564880371094 433.1868896484375 305.94500732421875 440.7723388671875" stroke-width="0.0" fill="rgb(45, 40, 31)" opacity="1.0048782" stroke="rgb(0, 0, 0)" stroke-opacity="1.0" stroke-linecap="round" stroke-linejoin="round"/>
    <path d="M 439.8442687988281 328.74505615234375 C 434.68768310546875 322.014404296875 430.4014892578125 333.2806091308594 416.73370361328125 338.5363464355469 C 417.72076416015625 347.8855895996094 418.6169128417969 352.9123229980469 418.41192626953125 356.710205078125 C 424.9085388183594 360.7984619140625 432.09442138671875 360.9030456542969 437.95501708984375 358.1167907714844 C 432.52813720703125 344.1971435546875 446.7854919433594 339.827880859375 439.8442687988281 328.74505615234375" stroke-width="0.0" fill="rgb(40, 46, 45)" opacity="0.96146643" stroke="rgb(0, 0, 0)" stroke-opacity="1.0" stroke-linecap="round" stroke-linejoin="round"/>
    <path d="M 490.6895446777344 394.8049011230469 C 495.5240173339844 400.60357666015625 498.65411376953125 401.82427978515625 497.7928466796875 411.2148742675781 C 501.5657958984375 415.6000061035156 504.92242431640625 417.59747314453125 521.4448852539062 419.5865173339844 C 520.19384765625 411.8943786621094 518.2185668945312 401.6252746582031 517.501953125 389.2507019042969 C 506.0793151855469 392.7700500488281 500.0577392578125 394.0366516113281 490.6895446777344 394.8049011230469" stroke-width="0.0" fill="rgb(20, 23, 24)" opacity="0.9997024" stroke="rgb(0, 0, 0)" stroke-opacity="1.0" stroke-linecap="round" stroke-linejoin="round"/>
    <path d="M 368.66204833984375 393.25494384765625 C 366.1977233886719 398.5567932128906 367.62939453125 401.47296142578125 374.3711853027344 403.4539489746094 C 380.07635498046875 403.42010498046875 388.1416015625 400.01080322265625 393.22894287109375 397.14483642578125 C 394.0921630859375 389.1077575683594 386.8751220703125 390.8363342285156 384.2907409667969 388.5216064453125 C 375.7677001953125 386.6373596191406 372.0581359863281 388.6336975097656 368.66204833984375 393.25494384765625" stroke-width="0.0" fill="rgb(28, 29, 27)" opacity="1.0003814" stroke="rgb(0, 0, 0)" stroke-opacity="1.0" stroke-linecap="round" stroke-linejoin="round"/>
    <path d="M 447.019287109375 375.15179443359375 C 447.3801574707031 381.56829833984375 454.22705078125 382.1925964355469 460.9731140136719 385.3710632324219 C 468.4897766113281 387.5979309082031 479.9966735839844 385.3732604980469 474.6352233886719 379.4914245605469 C 473.1939392089844 378.2229919433594 463.1881408691406 378.7976379394531 455.0792236328125 375.3723449707031 C 459.5113525390625 375.66204833984375 455.6589050292969 377.44989013671875 447.019287109375 375.15179443359375" stroke-width="0.0" fill="rgb(17, 22, 21)" opacity="1.0084229" stroke="rgb(0, 0, 0)" stroke-opacity="1.0" stroke-linecap="round" stroke-linejoin="round"/>
    <path d="M 351.0916442871094 395.46112060546875 C 345.5005798339844 400.5625915527344 347.8617248535156 402.59735107421875 349.9477233886719 409.85211181640625 C 352.6900329589844 410.98931884765625 357.48797607421875 412.5245361328125 361.1756896972656 410.2341613769531 C 364.52996826171875 410.3681640625 363.45263671875 405.23541259765625 363.9333801269531 399.5469055175781 C 359.6653747558594 398.5467224121094 354.7755126953125 395.2332458496094 351.0916442871094 395.46112060546875" stroke-width="0.0" fill="rgb(39, 34, 25)" opacity="1.0000559" stroke="rgb(0, 0, 0)" stroke-opacity="1.0" stroke-linecap="round" stroke-linejoin="round"/>
    <path d="M 415.8621520996094 339.63055419921875 C 408.2582092285156 339.6529541015625 412.34356689453125 347.9582214355469 409.1325378417969 359.13250732421875 C 409.39349365234375 360.8240051269531 414.40850830078125 360.0924987792969 421.0863952636719 359.5351867675781 C 420.5915832519531 348.53045654296875 418.53680419921875 341.14288330078125 415.8621520996094 339.63055419921875" stroke-width="0.0" fill="rgb(28, 37, 39)" opacity="1.0003452" stroke="rgb(0, 0, 0)" stroke-opacity="1.0" stroke-linecap="round" stroke-linejoin="round"/>
    <path d="M 211.12718200683594 376.6561584472656 C 206.80841064453125 372.774658203125 204.0521697998047 377.3663024902344 198.8555908203125 375.6551208496094 C 195.5293426513672 376.9808654785156 197.9468231201172 379.7153625488281 196.6223907470703 383.4725341796875 C 200.45753479003906 384.0612487792969 203.0837860107422 387.567138671875 207.90090942382812 387.1618957519531 C 212.74937438964844 386.17559814453125 210.1488494873047 381.04302978515625 211.12718200683594 376.6561584472656" stroke-width="0.0" fill="rgb(62, 52, 35)" opacity="0.9995739" stroke="rgb(0, 0, 0)" stroke-opacity="1.0" stroke-linecap="round" stroke-linejoin="round"/>
    <path d="M 157.165283203125 436.7886047363281 C 152.696044921875 441.85015869140625 156.06399536132812 443.8645935058594 153.75576782226562 442.6077575683594 C 158.1351318359375 443.34454345703125 164.8758544921875 442.9145812988281 162.9669647216797 439.07537841796875 C 162.1012725830078 435.9531555175781 161.4886016845703 436.3017883300781 157.165283203125 436.7886047363281" stroke-width="0.0" fill="rgb(97, 78, 54)" opacity="0.99976677" stroke="rgb(0, 0, 0)" stroke-opacity="1.0" stroke-linecap="round" stroke-linejoin="round"/>
    <path d="M -2.674543857574463 479.8558349609375 C -3.072028160095215 492.3258361816406 -1.639377474784851 501.6640930175781 -0.29585301876068115 519.84326171875 C 170.3311767578125 520.0570068359375 340.66473388671875 520.27978515625 517.5397338867188 520.3981323242188 C 517.5277709960938 501.88494873046875 517.5874633789062 492.56744384765625 518.1399536132812 481.4520568847656 C 337.412841796875 487.1009216308594 170.47364807128906 484.4128112792969 -2.674543857574463 479.8558349609375" stroke-width="0.0" fill="rgb(128, 101, 60)" opacity="1.0637102" stroke="rgb(0, 0, 0)" stroke-opacity="1.0" stroke-linecap="round" stroke-linejoin="round"/>
    <path d="M 315.7132263183594 484.43072509765625 C 301.61187744140625 475.8402404785156 286.0433654785156 475.6098327636719 278.37646484375 465.7757568359375 C 275.3244934082031 461.2425231933594 269.5167236328125 453.22357177734375 262.798828125 449.9091491699219 C 262.0043029785156 443.51287841796875 260.6958312988281 448.629150390625 266.3133239746094 442.8347473144531 C 175.90554809570312 442.938720703125 84.13458251953125 442.814208984375 -7.168918609619141 442.73883056640625 C -5.934144973754883 456.7936706542969 -6.101134777069092 470.4870910644531 -4.817235469818115 482.3170471191406 C 110.14552307128906 483.3329772949219 216.9048614501953 485.7590637207031 315.7132263183594 484.43072509765625" stroke-width="0.0" fill="rgb(106, 81, 54)" opacity="1.0002103" stroke="rgb(0, 0, 0)" stroke-opacity="1.0" stroke-linecap="round" stroke-linejoin="round"/>
    <path d="M 73.72769165039062 421.6400146484375 C 68.41363525390625 425.39544677734375 71.74609375 429.6145935058594 76.60231018066406 429.13409423828125 C 79.94613647460938 427.08123779296875 82.17576599121094 427.6372985839844 81.96382904052734 422.10809326171875 C 66.41532135009766 422.3712158203125 66.19110870361328 421.28594970703125 73.72769165039062 421.6400146484375" stroke-width="0.0" fill="rgb(171, 164, 148)" opacity="0.9989248" stroke="rgb(0, 0, 0)" stroke-opacity="1.0" stroke-linecap="round" stroke-linejoin="round"/>
    <path d="M 19.711530685424805 327.2411804199219 C 18.025144577026367 329.20269775390625 13.255536079406738 333.6079406738281 10.392602920532227 333.5228576660156 C 8.911750793457031 340.2071228027344 7.765074729919434 348.3168640136719 5.153339862823486 354.0598449707031 C 3.5497334003448486 374.61962890625 1.6321653127670288 395.0308837890625 5.94920539855957 400.95489501953125 C 16.615774154663086 404.41827392578125 28.32098960876465 400.9467468261719 33.346099853515625 394.4849548339844 C 34.11013412475586 367.0123291015625 29.63551902770996 345.9661865234375 19.711530685424805 327.2411804199219" stroke-width="0.0" fill="rgb(52, 60, 53)" opacity="0.9181391" stroke="rgb(0, 0, 0)" stroke-opacity="1.0" stroke-linecap="round" stroke-linejoin="round"/>
    <path d="M 214.2946014404297 325.0367431640625 C 206.16696166992188 328.8957824707031 200.52450561523438 333.26007080078125 196.94068908691406 342.6748352050781 C 193.11074829101562 348.32470703125 192.08209228515625 361.7183532714844 193.35606384277344 366.02923583984375 C 205.14553833007812 366.28607177734375 217.4913787841797 366.1335144042969 223.2147979736328 364.3901062011719 C 225.6361541748047 358.7369689941406 231.7383575439453 355.8016052246094 230.37066650390625 344.8135681152344 C 225.33932495117188 336.2651672363281 221.75405883789062 328.8805236816406 214.2946014404297 325.0367431640625" stroke-width="0.0" fill="rgb(26, 37, 44)" opacity="0.8847154" stroke="rgb(0, 0, 0)" stroke-opacity="1.0" stroke-linecap="round" stroke-linejoin="round"/>
    <path d="M 27.761316299438477 341.64697265625 C 32.07907485961914 361.2119140625 32.36088943481445 377.5260925292969 37.18812561035156 393.65948486328125 C 54.62769317626953 394.7002258300781 74.65348815917969 393.5080261230469 97.41445922851562 394.5870666503906 C 97.36953735351562 393.305908203125 100.88021087646484 388.23968505859375 93.33096313476562 385.6505432128906 C 72.05473327636719 370.218505859375 50.901336669921875 355.85650634765625 27.761316299438477 341.64697265625" stroke-width="0.0" fill="rgb(87, 114, 134)" opacity="0.935588" stroke="rgb(0, 0, 0)" stroke-opacity="1.0" stroke-linecap="round" stroke-linejoin="round"/>
    <path d="M 312.27667236328125 348.4515686035156 C 301.3342590332031 349.79595947265625 311.35223388671875 352.7105712890625 298.3563537597656 349.2232971191406 C 296.6136474609375 353.8389587402344 291.80657958984375 359.43157958984375 293.04541015625 363.6768798828125 C 302.44281005859375 365.88922119140625 305.2612609863281 360.0235900878906 314.67657470703125 358.65533447265625 C 316.1776123046875 358.3641357421875 314.1861267089844 349.69879150390625 312.27667236328125 348.4515686035156" stroke-width="0.0" fill="rgb(43, 52, 56)" opacity="0.9862337" stroke="rgb(0, 0, 0)" stroke-opacity="1.0" stroke-linecap="round" stroke-linejoin="round"/>
    <path d="M 229.60386657714844 350.69134521484375 C 227.64613342285156 357.6033630371094 225.02438354492188 361.1145935058594 221.7392578125 364.6191711425781 C 219.1668243408203 371.0502014160156 220.8983154296875 371.624755859375 227.98269653320312 374.1141662597656 C 232.34326171875 375.05206298828125 234.9523162841797 372.1761779785156 235.61488342285156 366.48541259765625 C 234.1848907470703 361.03289794921875 233.65997314453125 355.366943359375 229.60386657714844 350.69134521484375" stroke-width="0.0" fill="rgb(80, 69, 46)" opacity="0.9934399" stroke="rgb(0, 0, 0)" stroke-opacity="1.0" stroke-linecap="round" stroke-linejoin="round"/>
    <path d="M 334.7180480957031 341.2545166015625 C 330.5506591796875 346.5392150878906 327.22357177734375 350.0547790527344 329.1656799316406 359.25628662109375 C 333.3811950683594 359.52691650390625 337.94989013671875 358.3708190917969 341.6004943847656 356.7821044921875 C 343.0760192871094 347.2117919921875 340.74017333984375 344.7372131347656 334.7180480957031 341.2545166015625" stroke-width="0.0" fill="rgb(44, 52, 51)" opacity="0.99082035" stroke="rgb(0, 0, 0)" stroke-opacity="1.0" stroke-linecap="round" stroke-linejoin="round"/>
    <path d="M 280.0419616699219 350.510009765625 C 276.9487609863281 356.7941589355469 273.7106628417969 360.5314636230469 274.9235534667969 368.4819030761719 C 278.08734130859375 368.4653015136719 290.9450988769531 367.16021728515625 291.1235046386719 363.6283874511719 C 291.1753845214844 345.8404235839844 282.0509338378906 367.8973693847656 280.0419616699219 350.510009765625" stroke-width="0.0" fill="rgb(67, 75, 77)" opacity="0.99257195" stroke="rgb(0, 0, 0)" stroke-opacity="1.0" stroke-linecap="round" stroke-linejoin="round"/>
    <path d="M 96.04198455810547 378.80877685546875 C 97.02615356445312 381.0354309082031 97.04301452636719 386.95892333984375 96.83873748779297 380.4798278808594 C 97.12543487548828 385.32366943359375 100.84790802001953 393.736572265625 98.36271667480469 395.6768798828125 C 92.49285888671875 392.1465148925781 92.75946807861328 389.0500793457031 96.04198455810547 378.80877685546875" stroke-width="0.0" fill="rgb(64, 84, 97)" opacity="0.9995284" stroke="rgb(0, 0, 0)" stroke-opacity="1.0" stroke-linecap="round" stroke-linejoin="round"/>
    <path d="M 46.20380783081055 400.2107849121094 C 39.54966354370117 396.722900390625 40.62147903442383 398.2735290527344 32.08966064453125 397.87548828125 C 19.180469512939453 401.6407165527344 10.151451110839844 406.3033752441406 -2.8361098766326904 411.5872497558594 C -6.235536098480225 417.3874206542969 -5.949544429779053 429.05810546875 -5.532458782196045 435.2917175292969 C 20.881145477294922 444.4141540527344 34.26118469238281 439.2279968261719 49.58334732055664 430.8767395019531 C 49.62723922729492 422.8655090332031 49.361717224121094 409.7221984863281 46.20380783081055 400.2107849121094" stroke-width="0.0" fill="rgb(54, 55, 57)" opacity="1.000517" stroke="rgb(0, 0, 0)" stroke-opacity="1.0" stroke-linecap="round" stroke-linejoin="round"/>
    <path d="M 432.2751770019531 423.6143798828125 C 436.36187744140625 431.559326171875 438.76409912109375 436.0401306152344 448.025146484375 436.94146728515625 C 444.7687683105469 437.70062255859375 440.6075744628906 438.62335205078125 442.8528137207031 443.1878356933594 C 463.6524353027344 445.31365966796875 486.8420715332031 446.72552490234375 516.9944458007812 444.5321960449219 C 517.1947631835938 436.4571838378906 517.231689453125 428.3872375488281 516.1304321289062 420.05218505859375 C 484.5185852050781 422.0096435546875 457.8261413574219 421.36737060546875 432.2751770019531 423.6143798828125" stroke-width="0.0" fill="rgb(94, 69, 42)" opacity="1.0005592" stroke="rgb(0, 0, 0)" stroke-opacity="1.0" stroke-linecap="round" stroke-linejoin="round"/>
    <path d="M 306.3165283203125 363.9073791503906 C 299.64532470703125 367.7899169921875 296.6015625 376.5329284667969 297.06475830078125 391.48443603515625 C 300.0635070800781 397.884765625 311.82391357421875 397.8193054199219 325.2481994628906 400.3460388183594 C 333.754638671875 394.32476806640625 332.8347473144531 387.6488952636719 331.67041015625 370.6500244140625 C 332.11102294921875 367.1214599609375 326.0292663574219 366.96990966796875 327.0324401855469 363.4010314941406 C 323.4617004394531 358.8433837890625 305.718505859375 361.9931640625 306.3165283203125 363.9073791503906" stroke-width="0.0" fill="rgb(20, 26, 24)" opacity="0.99298275" stroke="rgb(0, 0, 0)" stroke-opacity="1.0" stroke-linecap="round" stroke-linejoin="round"/>
    <path d="M 108.02750396728516 398.8157958984375 C 96.35881805419922 393.624267578125 85.17691040039062 395.11944580078125 70.10713195800781 399.9390869140625 C 62.06605911254883 401.1902770996094 55.50254821777344 404.59466552734375 52.125892639160156 412.5271301269531 C 61.75423812866211 415.8508605957031 63.22354507446289 422.0594177246094 67.88648986816406 424.801025390625 C 84.15070343017578 417.8734436035156 96.9593734741211 410.33624267578125 108.02750396728516 398.8157958984375" stroke-width="0.0" fill="rgb(62, 67, 68)" opacity="0.9989636" stroke="rgb(0, 0, 0)" stroke-opacity="1.0" stroke-linecap="round" stroke-linejoin="round"/>
    <path d="M 485.3441467285156 318.5672302246094 C 478.3263244628906 317.2117919921875 477.31146240234375 330.0931701660156 474.35284423828125 335.6122741699219 C 478.2599792480469 342.16729736328125 475.6090087890625 349.86004638671875 478.1122131347656 354.9689025878906 C 478.9422607421875 359.41656494140625 483.2756652832031 358.47601318359375 487.0995788574219 356.8951721191406 C 490.1325378417969 357.7226867675781 491.1796875 350.68572998046875 491.2523193359375 344.3421630859375 C 488.2826843261719 332.9935607910156 489.78106689453125 319.5987548828125 485.3441467285156 318.5672302246094" stroke-width="0.0" fill="rgb(29, 36, 37)" opacity="0.9999421" stroke="rgb(0, 0, 0)" stroke-opacity="1.0" stroke-linecap="round" stroke-linejoin="round"/>
    <path d="M 371.019775390625 331.04620361328125 C 369.58197021484375 333.62310791015625 369.56915283203125 346.66790771484375 367.05035400390625 350.63214111328125 C 369.37359619140625 360.1662292480469 364.91351318359375 358.0957336425781 377.26171875 360.10101318359375 C 378.2001037597656 338.2173767089844 379.5528869628906 334.3171691894531 371.019775390625 331.04620361328125" stroke-width="0.0" fill="rgb(41, 48, 47)" opacity="0.9665395" stroke="rgb(0, 0, 0)" stroke-opacity="1.0" stroke-linecap="round" stroke-linejoin="round"/>
    <path d="M 478.6338195800781 472.4384765625 C 473.1412048339844 474.3181457519531 474.0150451660156 481.1969299316406 477.9491882324219 481.9053955078125 C 484.71490478515625 481.3936767578125 488.2062683105469 484.54425048828125 488.7875061035156 477.739501953125 C 485.31317138671875 474.7660217285156 478.5217590332031 470.0487060546875 478.6338195800781 472.4384765625" stroke-width="0.0" fill="rgb(75, 55, 34)" opacity="0.9997558" stroke="rgb(0, 0, 0)" stroke-opacity="1.0" stroke-linecap="round" stroke-linejoin="round"/>
    <path d="M 63.25785827636719 423.2135925292969 C 59.752567291259766 420.2797546386719 56.442073822021484 422.4563903808594 54.97709274291992 423.49249267578125 C 52.30120086669922 424.093994140625 51.854496002197266 436.14422607421875 58.8072509765625 434.52789306640625 C 62.0167236328125 434.25164794921875 62.05011749267578 429.8910827636719 63.25785827636719 423.2135925292969" stroke-width="0.0" fill="rgb(30, 28, 33)" opacity="1.0000728" stroke="rgb(0, 0, 0)" stroke-opacity="1.0" stroke-linecap="round" stroke-linejoin="round"/>
    <path d="M 102.21138000488281 386.74481201171875 C 106.4221420288086 386.9783630371094 108.37105560302734 388.95501708984375 105.60301208496094 386.74871826171875 C 103.32957458496094 394.35675048828125 108.51140594482422 397.2757873535156 100.31975555419922 395.7051086425781 C 99.08076477050781 389.0110168457031 101.3443832397461 388.260986328125 102.21138000488281 386.74481201171875" stroke-width="0.0" fill="rgb(85, 105, 117)" opacity="0.99012274" stroke="rgb(0, 0, 0)" stroke-opacity="1.0" stroke-linecap="round" stroke-linejoin="round"/>
    <path d="M 279.01226806640625 349.7725524902344 C 277.2684326171875 358.1630859375 273.7212219238281 361.39312744140625 275.1134948730469 368.0113830566406 C 278.4085998535156 368.862548828125 280.186279296875 367.6396484375 283.7174377441406 367.1394958496094 C 285.5593566894531 360.673828125 280.9400634765625 358.1309509277344 279.01226806640625 349.7725524902344" stroke-width="0.0" fill="rgb(47, 60, 66)" opacity="0.9972451" stroke="rgb(0, 0, 0)" stroke-opacity="1.0" stroke-linecap="round" stroke-linejoin="round"/>
    <path d="M 45.698482513427734 376.48199462890625 C 42.69187545776367 380.8548278808594 42.32556915283203 388.1957702636719 40.37910842895508 393.7615966796875 C 46.64326477050781 397.0289001464844 47.996826171875 395.0546875 50.63393020629883 393.3558349609375 C 52.59934997558594 387.0691833496094 49.496253967285156 382.4498596191406 45.698482513427734 376.48199462890625" stroke-width="0.0" fill="rgb(41, 61, 73)" opacity="0.9988564" stroke="rgb(0, 0, 0)" stroke-opacity="1.0" stroke-linecap="round" stroke-linejoin="round"/>
  </g>
</svg>
