<?xml version="1.0" ?>
<svg xmlns="http://www.w3.org/2000/svg" version="1.1" width="512" height="512">
  <defs/>
  <g>
    <path d="M -3.392047643661499 -3.1417481899261475 C -3.1471993923187256 170.3333282470703 -2.239398241043091 340.6666564941406 -0.9704681038856506 517.771240234375 C 169.69158935546875 518.3462524414062 339.5401306152344 519.288330078125 517.9769897460938 520.2661743164062 C 518.4540405273438 342.01702880859375 518.6768798828125 171.17552185058594 518.8472290039062 -2.4243056774139404 C 340.6666564941406 -2.839139938354492 170.3333282470703 -2.9921507835388184 -3.392047643661499 -3.1417481899261475" stroke-width="0.0" fill="rgb(164, 204, 234)" opacity="0.79210174" stroke="rgb(0, 0, 0)" stroke-opacity="1.0" stroke-linecap="round" stroke-linejoin="round"/>
    <path d="M 518.7291259765625 215.91822814941406 C 489.69903564453125 211.0423126220703 478.92144775390625 213.62205505371094 461.294921875 218.4535369873047 C 402.5858154296875 243.95298767089844 350.5003356933594 276.73968505859375 288.1887512207031 298.60699462890625 C 261.1241760253906 294.1924743652344 239.9929962158203 287.6874084472656 209.8499755859375 287.67852783203125 C 177.46266174316406 280.6327209472656 159.14556884765625 255.6085968017578 115.664306640625 248.31600952148438 C 81.94831848144531 260.96783447265625 48.61253356933594 282.3459167480469 -10.802854537963867 299.0954895019531 C -11.227097511291504 355.7604675292969 -11.220111846923828 429.71484375 -10.705546379089355 520.721435546875 C 166.77760314941406 520.5292358398438 338.6336975097656 519.5010986328125 518.8124389648438 518.5079956054688 C 518.393798828125 414.42913818359375 518.615234375 315.2906799316406 518.7291259765625 215.91822814941406" stroke-width="0.0" fill="rgb(99, 129, 148)" opacity="0.8536761" stroke="rgb(0, 0, 0)" stroke-opacity="1.0" stroke-linecap="round" stroke-linejoin="round"/>
    <path d="M -3.707634925842285 212.4661102294922 C -8.211893081665039 246.18771362304688 -8.59660530090332 272.79193115234375 -7.610677242279053 297.2633056640625 C 7.550849914550781 292.78521728515625 9.864736557006836 289.67071533203125 13.12688159942627 289.2576904296875 C 13.800512313842773 278.6524658203125 15.890935897827148 269.1851806640625 14.125555992126465 257.057861328125 C 14.49228572845459 238.66912841796875 9.872722625732422 226.80828857421875 -3.707634925842285 212.4661102294922" stroke-width="0.0" fill="rgb(215, 232, 246)" opacity="1.0017502" stroke="rgb(0, 0, 0)" stroke-opacity="1.0" stroke-linecap="round" stroke-linejoin="round"/>
    <path d="M 163.99945068359375 265.1621398925781 C 178.99459838867188 275.7645568847656 194.3079071044922 283.7521057128906 215.88279724121094 290.359375 C 235.719970703125 287.436767578125 254.17864990234375 291.75408935546875 278.3260498046875 297.7691955566406 C 252.215576171875 285.3140563964844 229.58680725097656 274.4285888671875 207.13922119140625 266.5174865722656 C 195.2952423095703 264.3729553222656 177.21031188964844 261.90191650390625 163.99945068359375 265.1621398925781" stroke-width="0.0" fill="rgb(196, 213, 226)" opacity="1.0024737" stroke="rgb(0, 0, 0)" stroke-opacity="1.0" stroke-linecap="round" stroke-linejoin="round"/>
    <path d="M 118.96664428710938 193.8815460205078 C 116.78889465332031 192.49526977539062 113.86502838134766 196.4574737548828 111.92852020263672 198.27134704589844 C 112.0080795288086 211.50625610351562 111.02787780761719 229.78184509277344 112.461181640625 238.67242431640625 C 117.76541137695312 240.00376892089844 121.02433013916016 239.59390258789062 120.18270874023438 237.3817138671875 C 120.08267974853516 216.96522521972656 123.0389633178711 207.099365234375 118.96664428710938 193.8815460205078" stroke-width="0.0" fill="rgb(199, 220, 240)" opacity="1.007258" stroke="rgb(0, 0, 0)" stroke-opacity="1.0" stroke-linecap="round" stroke-linejoin="round"/>
    <path d="M 519.3704833984375 303.95953369140625 C 482.8150634765625 311.1588439941406 462.6294860839844 325.4120178222656 429.7669372558594 332.4838562011719 C 407.9823303222656 339.6775207519531 378.94720458984375 338.0793762207031 350.67352294921875 340.6209411621094 C 321.4499206542969 352.4629211425781 286.00689697265625 357.24371337890625 253.58604431152344 365.0287780761719 C 247.3937225341797 363.7247619628906 236.2596435546875 366.3101501464844 233.73443603515625 361.62249755859375 C 220.5750274658203 355.3333740234375 226.07077026367188 339.6112976074219 212.5736541748047 341.6356506347656 C 198.95120239257812 343.0132141113281 197.63629150390625 361.7187194824219 183.21316528320312 372.0823974609375 C 157.6973876953125 376.35601806640625 138.7124481201172 388.822509765625 119.39218139648438 390.89111328125 C 103.88363647460938 392.4993591308594 95.9421615600586 389.408935546875 85.99071502685547 386.27325439453125 C 61.7214469909668 375.61480712890625 39.394412994384766 362.9101867675781 18.58942222595215 348.91119384765625 C 11.262540817260742 346.08746337890625 5.784512519836426 346.8529968261719 -8.01479434967041 351.7621154785156 C -8.647180557250977 398.0871276855469 -8.368477821350098 453.1780700683594 -7.748572826385498 519.9595336914062 C 168.0428009033203 520.097900390625 339.52618408203125 519.21142578125 518.0126953125 518.380859375 C 518.9166870117188 441.4687194824219 520.6070556640625 370.8557434082031 519.3704833984375 303.95953369140625" stroke-width="0.0" fill="rgb(53, 49, 39)" opacity="1.0295653" stroke="rgb(0, 0, 0)" stroke-opacity="1.0" stroke-linecap="round" stroke-linejoin="round"/>
    <path d="M 521.6121215820312 216.65737915039062 C 486.4273986816406 211.2863311767578 475.09991455078125 213.23019409179688 456.680419921875 220.14540100097656 C 407.6581115722656 243.6213836669922 360.2876892089844 268.3822326660156 311.2740783691406 291.2206726074219 C 281.03973388671875 299.7250671386719 252.22384643554688 309.2400207519531 223.7250213623047 319.45050048828125 C 221.09642028808594 327.62469482421875 214.37916564941406 316.2705078125 217.92333984375 326.9031066894531 C 225.6272735595703 335.1036682128906 229.75331115722656 344.13006591796875 234.5336151123047 354.34881591796875 C 240.9051055908203 356.92266845703125 240.77980041503906 361.51141357421875 251.65048217773438 361.6969909667969 C 287.7540588378906 355.8486328125 321.0289001464844 346.3753356933594 353.9610595703125 338.2322082519531 C 377.69189453125 336.3565979003906 408.19671630859375 336.6567687988281 421.67706298828125 331.5181579589844 C 454.47930908203125 324.2601623535156 479.4736022949219 311.6097106933594 518.4491577148438 300.3162841796875 C 521.8394165039062 281.3962707519531 521.6968994140625 251.3968048095703 521.6121215820312 216.65737915039062" stroke-width="0.0" fill="rgb(110, 132, 152)" opacity="0.9690894" stroke="rgb(0, 0, 0)" stroke-opacity="1.0" stroke-linecap="round" stroke-linejoin="round"/>
    <path d="M 235.19161987304688 296.9144287109375 C 187.83995056152344 293.3253173828125 164.7974853515625 256.81964111328125 115.3992919921875 245.41062927246094 C 77.11299896240234 265.65673828125 42.877586364746094 284.4300537109375 -3.1210618019104004 296.5013122558594 C -8.669654846191406 302.54071044921875 -8.592528343200684 321.0622253417969 -2.48291277885437 324.3758544921875 C 30.760549545288086 340.1170349121094 56.0695686340332 361.506591796875 85.05587768554688 380.07208251953125 C 96.12105560302734 382.7392272949219 100.53245544433594 391.4193115234375 117.91460418701172 389.32891845703125 C 141.9751434326172 387.3532409667969 159.75628662109375 373.8150329589844 186.87648010253906 367.378173828125 C 191.66831970214844 359.0284118652344 191.84959411621094 343.02947998046875 202.13247680664062 331.2614440917969 C 210.187744140625 320.0399169921875 234.87513732910156 323.7980651855469 235.19161987304688 296.9144287109375" stroke-width="0.0" fill="rgb(138, 166, 188)" opacity="0.95844805" stroke="rgb(0, 0, 0)" stroke-opacity="1.0" stroke-linecap="round" stroke-linejoin="round"/>
    <path d="M -7.416551113128662 325.1353454589844 C -8.258828163146973 347.0669860839844 -8.560234069824219 361.6748046875 -3.9360482692718506 385.3173522949219 C 5.233643531799316 364.0207214355469 8.389629364013672 345.57891845703125 11.765109062194824 334.0799865722656 C 8.951088905334473 328.7376708984375 4.974522113800049 327.3893127441406 -7.416551113128662 325.1353454589844" stroke-width="0.0" fill="rgb(125, 147, 165)" opacity="1.0136216" stroke="rgb(0, 0, 0)" stroke-opacity="1.0" stroke-linecap="round" stroke-linejoin="round"/>
    <path d="M 96.3293228149414 382.0677490234375 C 94.1256332397461 383.5840148925781 94.42398834228516 385.4378356933594 91.52757263183594 384.5748596191406 C 102.18250274658203 384.8164367675781 96.88127899169922 387.9798889160156 98.78255462646484 389.7033386230469 C 93.15617370605469 389.6871032714844 93.05818176269531 386.0251159667969 96.3293228149414 382.0677490234375" stroke-width="0.0" fill="rgb(67, 88, 102)" opacity="0.9992326" stroke="rgb(0, 0, 0)" stroke-opacity="1.0" stroke-linecap="round" stroke-linejoin="round"/>
    <path d="M 518.3828125 413.5924072265625 C 499.97705078125 418.1974792480469 487.01055908203125 419.3294982910156 468.711181640625 420.921875 C 448.5567321777344 422.2336120605469 437.16888427734375 433.24237060546875 406.60479736328125 438.1125183105469 C 282.46087646484375 442.37249755859375 140.9122314453125 442.39996337890625 -6.9316887855529785 441.24786376953125 C -6.017655372619629 463.72235107421875 -6.403780460357666 486.63385009765625 -6.505777835845947 519.6377563476562 C 169.79518127441406 519.2389526367188 340.49298095703125 518.58447265625 517.9567260742188 518.1277465820312 C 518.3162231445312 480.9548034667969 518.377685546875 450.33795166015625 518.3828125 413.5924072265625" stroke-width="0.0" fill="rgb(95, 69, 42)" opacity="0.9602902" stroke="rgb(0, 0, 0)" stroke-opacity="1.0" stroke-linecap="round" stroke-linejoin="round"/>
    <path d="M 215.86520385742188 332.4870300292969 C 207.28399658203125 330.6296691894531 202.06777954101562 339.458251953125 196.96786499023438 345.1366271972656 C 194.4910125732422 352.60235595703125 190.4724578857422 360.8250732421875 191.69410705566406 371.72955322265625 C 208.73126220703125 373.5740051269531 223.6295928955078 373.2695007324219 232.25563049316406 365.1285400390625 C 229.5818634033203 349.0216369628906 224.70700073242188 338.60235595703125 215.86520385742188 332.4870300292969" stroke-width="0.0" fill="rgb(42, 50, 46)" opacity="0.9748318" stroke="rgb(0, 0, 0)" stroke-opacity="1.0" stroke-linecap="round" stroke-linejoin="round"/>
    <path d="M 72.83326721191406 421.0303039550781 C 82.35820007324219 419.81561279296875 84.87217712402344 423.32806396484375 79.19342803955078 430.4307556152344 C 77.53369903564453 429.67889404296875 77.53842163085938 435.0733642578125 71.80191802978516 430.42724609375 C 69.41510772705078 422.17474365234375 73.03533172607422 418.7109375 72.83326721191406 421.0303039550781" stroke-width="0.0" fill="rgb(141, 133, 117)" opacity="0.95892733" stroke="rgb(0, 0, 0)" stroke-opacity="1.0" stroke-linecap="round" stroke-linejoin="round"/>
    <path d="M -4.6043901443481445 331.44256591796875 C -4.880268096923828 354.38470458984375 -6.117746829986572 377.092041015625 -7.229557037353516 398.18865966796875 C 35.118019104003906 399.15655517578125 69.57537078857422 396.8434143066406 103.84732055664062 394.3326721191406 C 72.62591552734375 373.4067077636719 45.188392639160156 354.7456359863281 18.014951705932617 335.9945068359375 C 13.291250228881836 334.1263122558594 6.852201461791992 332.3371276855469 -4.6043901443481445 331.44256591796875" stroke-width="0.0" fill="rgb(67, 84, 96)" opacity="0.7896584" stroke="rgb(0, 0, 0)" stroke-opacity="1.0" stroke-linecap="round" stroke-linejoin="round"/>
    <path d="M 516.0814208984375 300.5491943359375 C 490.3153991699219 309.5109558105469 469.359619140625 317.100830078125 448.27294921875 329.0438537597656 C 451.2264099121094 337.5827331542969 460.0386047363281 350.0712890625 451.298828125 362.4433288574219 C 464.3324279785156 365.7025451660156 488.2168884277344 365.87689208984375 519.4083862304688 366.75927734375 C 518.5546875 343.28997802734375 519.3917236328125 321.5535583496094 516.0814208984375 300.5491943359375" stroke-width="0.0" fill="rgb(28, 37, 41)" opacity="0.9141525" stroke="rgb(0, 0, 0)" stroke-opacity="1.0" stroke-linecap="round" stroke-linejoin="round"/>
    <path d="M 297.7306213378906 379.095947265625 C 295.0244140625 384.1065673828125 297.50830078125 389.09136962890625 299.2897644042969 392.8054504394531 C 303.2442321777344 395.43438720703125 309.3498229980469 398.7029113769531 318.78173828125 399.2943420410156 C 334.7114562988281 398.72918701171875 352.0893249511719 398.1661071777344 359.7740783691406 389.01611328125 C 362.1038513183594 375.1246643066406 352.0097351074219 368.6422119140625 344.3902282714844 361.96270751953125 C 335.0160827636719 362.58099365234375 315.7334289550781 361.2054443359375 311.4215087890625 362.4967346191406 C 303.4346618652344 366.53375244140625 298.1833801269531 372.3222351074219 297.7306213378906 379.095947265625" stroke-width="0.0" fill="rgb(17, 22, 22)" opacity="1.004839" stroke="rgb(0, 0, 0)" stroke-opacity="1.0" stroke-linecap="round" stroke-linejoin="round"/>
    <path d="M 356.79302978515625 322.97515869140625 C 351.3578186035156 330.3935241699219 348.18096923828125 341.7878112792969 343.03985595703125 350.2585144042969 C 347.56964111328125 356.5935363769531 351.76348876953125 359.2371826171875 361.0455017089844 357.89874267578125 C 367.5035095214844 355.7566223144531 365.8573303222656 354.88555908203125 366.1110534667969 342.8858337402344 C 363.77545166015625 335.3551025390625 361.8837890625 325.8593444824219 356.79302978515625 322.97515869140625" stroke-width="0.0" fill="rgb(22, 31, 35)" opacity="0.93894345" stroke="rgb(0, 0, 0)" stroke-opacity="1.0" stroke-linecap="round" stroke-linejoin="round"/>
    <path d="M -5.127441883087158 439.5998229980469 C 21.562580108642578 444.665771484375 39.370201110839844 437.8906555175781 59.12272644042969 434.420166015625 C 73.17511749267578 420.83587646484375 91.44603729248047 413.3562316894531 103.01367950439453 397.2676086425781 C 63.295654296875 394.9792175292969 35.50096130371094 396.1453552246094 -4.546350955963135 409.6343078613281 C -4.852720737457275 414.6893005371094 -5.110882759094238 427.896484375 -5.127441883087158 439.5998229980469" stroke-width="0.0" fill="rgb(43, 47, 48)" opacity="1.0030897" stroke="rgb(0, 0, 0)" stroke-opacity="1.0" stroke-linecap="round" stroke-linejoin="round"/>
    <path d="M 346.0821533203125 352.9778137207031 C 342.5306701660156 347.4424743652344 339.76483154296875 343.6742248535156 335.8898010253906 343.02996826171875 C 328.99908447265625 344.6820068359375 330.6388244628906 352.638427734375 315.457763671875 350.7728271484375 C 295.3736877441406 342.6648864746094 297.5782775878906 362.4819641113281 280.41729736328125 356.0783996582031 C 279.59521484375 348.4206237792969 275.6034240722656 358.73370361328125 276.1715393066406 367.46514892578125 C 299.0703430175781 367.16876220703125 306.29681396484375 356.8459777832031 347.0121154785156 357.6232604980469 C 340.7568054199219 357.7144775390625 346.8768615722656 358.10955810546875 346.0821533203125 352.9778137207031" stroke-width="0.0" fill="rgb(78, 90, 95)" opacity="0.97650164" stroke="rgb(0, 0, 0)" stroke-opacity="1.0" stroke-linecap="round" stroke-linejoin="round"/>
    <path d="M 449.3260192871094 330.00384521484375 C 443.11053466796875 336.11669921875 438.5961608886719 341.687744140625 436.8984680175781 349.1099853515625 C 436.05615234375 354.92242431640625 435.69390869140625 356.33392333984375 440.2388916015625 361.3127136230469 C 449.3974304199219 360.58477783203125 454.9764404296875 361.4647216796875 454.6599426269531 355.86590576171875 C 456.87939453125 346.7294616699219 453.6719055175781 338.32781982421875 449.3260192871094 330.00384521484375" stroke-width="0.0" fill="rgb(65, 56, 29)" opacity="0.98526126" stroke="rgb(0, 0, 0)" stroke-opacity="1.0" stroke-linecap="round" stroke-linejoin="round"/>
    <path d="M 381.3752136230469 328.84893798828125 C 380.3924255371094 333.7345886230469 375.5640563964844 335.24945068359375 372.5754089355469 333.33575439453125 C 364.0545349121094 348.4682922363281 367.11981201171875 343.09112548828125 369.3887634277344 357.1321105957031 C 377.1728210449219 359.9583740234375 380.9945373535156 361.1059265136719 385.1218566894531 355.7088928222656 C 387.1483459472656 348.9342346191406 386.3482360839844 337.54461669921875 381.3752136230469 328.84893798828125" stroke-width="0.0" fill="rgb(40, 50, 52)" opacity="0.944279" stroke="rgb(0, 0, 0)" stroke-opacity="1.0" stroke-linecap="round" stroke-linejoin="round"/>
    <path d="M 248.68284606933594 425.714111328125 C 249.9013214111328 429.60272216796875 261.09808349609375 427.7880554199219 267.0699157714844 429.26983642578125 C 275.25128173828125 427.7878723144531 283.7003479003906 427.2130432128906 283.3481750488281 421.8469543457031 C 279.53765869140625 416.7864990234375 273.3929748535156 415.087158203125 264.88226318359375 415.7751770019531 C 257.0706787109375 419.710205078125 247.9770965576172 418.477783203125 248.68284606933594 425.714111328125" stroke-width="0.0" fill="rgb(16, 21, 23)" opacity="1.0006007" stroke="rgb(0, 0, 0)" stroke-opacity="1.0" stroke-linecap="round" stroke-linejoin="round"/>
    <path d="M 390.1896057128906 334.9839172363281 C 385.71466064453125 336.8273620605469 386.4498291015625 344.74737548828125 385.7538757324219 353.34521484375 C 381.7409362792969 358.7491149902344 391.0224609375 360.6830749511719 396.56829833984375 360.30316162109375 C 400.07232666015625 358.77679443359375 400.06317138671875 349.7715759277344 396.9454650878906 340.1143798828125 C 396.392578125 335.8944396972656 395.816650390625 334.12060546875 390.1896057128906 334.9839172363281" stroke-width="0.0" fill="rgb(39, 46, 43)" opacity="0.9774142" stroke="rgb(0, 0, 0)" stroke-opacity="1.0" stroke-linecap="round" stroke-linejoin="round"/>
    <path d="M 401.8855285644531 337.64874267578125 C 398.22222900390625 341.8748779296875 400.64678955078125 349.4198913574219 399.5562438964844 358.4644470214844 C 402.4071350097656 360.86688232421875 405.01953125 361.644775390625 409.78125 361.2388000488281 C 410.9962158203125 355.6890563964844 409.2245788574219 348.12396240234375 412.0446472167969 344.2223205566406 C 408.263427734375 337.0289611816406 408.8848876953125 334.6622009277344 401.8855285644531 337.64874267578125" stroke-width="0.0" fill="rgb(35, 44, 46)" opacity="0.9983411" stroke="rgb(0, 0, 0)" stroke-opacity="1.0" stroke-linecap="round" stroke-linejoin="round"/>
    <path d="M 289.65155029296875 404.75518798828125 C 285.2523498535156 408.0708312988281 286.04925537109375 411.00390625 296.1475830078125 413.0296325683594 C 303.14117431640625 412.34222412109375 310.0586853027344 414.87066650390625 310.9110412597656 407.3036804199219 C 304.923583984375 400.8574523925781 292.57379150390625 401.8146057128906 289.65155029296875 404.75518798828125" stroke-width="0.0" fill="rgb(14, 19, 21)" opacity="1.0006984" stroke="rgb(0, 0, 0)" stroke-opacity="1.0" stroke-linecap="round" stroke-linejoin="round"/>
    <path d="M 96.35807037353516 380.8426818847656 C 91.77555084228516 383.4579772949219 93.31592559814453 388.5260314941406 94.66964721679688 396.2294921875 C 97.62873077392578 394.96563720703125 103.32846069335938 398.0166931152344 106.08607482910156 393.2119140625 C 101.24353790283203 387.8910217285156 96.08160400390625 386.0494384765625 96.35807037353516 380.8426818847656" stroke-width="0.0" fill="rgb(79, 99, 112)" opacity="0.9966476" stroke="rgb(0, 0, 0)" stroke-opacity="1.0" stroke-linecap="round" stroke-linejoin="round"/>
    <path d="M 446.1529846191406 385.6453857421875 C 437.976318359375 386.858642578125 433.46380615234375 386.6069641113281 432.5398864746094 393.064208984375 C 435.06109619140625 397.1126708984375 437.82196044921875 396.7487487792969 443.5416564941406 395.1085510253906 C 447.2809143066406 394.15032958984375 448.3749084472656 390.3033752441406 446.1529846191406 385.6453857421875" stroke-width="0.0" fill="rgb(83, 64, 32)" opacity="1.0001991" stroke="rgb(0, 0, 0)" stroke-opacity="1.0" stroke-linecap="round" stroke-linejoin="round"/>
    <path d="M 33.304405212402344 342.1983642578125 C 56.90876388549805 362.0847473144531 86.27632141113281 375.1729431152344 111.40250396728516 393.1381530761719 C 139.4835662841797 387.4031982421875 156.2333526611328 373.7491149902344 192.1588134765625 368.7174072265625 C 189.18406677246094 349.57293701171875 194.89944458007812 341.6722106933594 200.74452209472656 329.9817810058594 C 189.75909423828125 325.23150634765625 181.68214416503906 321.8827819824219 168.3004150390625 322.1332702636719 C 157.6626434326172 314.4129333496094 150.4376983642578 304.6747131347656 140.40927124023438 298.99560546875 C 129.3946990966797 297.41241455078125 128.29421997070312 301.37652587890625 124.86734771728516 301.00372314453125 C 115.80035400390625 300.0182800292969 114.4409408569336 293.7803955078125 110.07646942138672 291.151611328125 C 83.47049713134766 309.6094055175781 50.64692687988281 317.1700134277344 33.304405212402344 342.1983642578125" stroke-width="0.0" fill="rgb(142, 168, 188)" opacity="0.95143414" stroke="rgb(0, 0, 0)" stroke-opacity="1.0" stroke-linecap="round" stroke-linejoin="round"/>
    <path d="M -4.770589828491211 321.4117736816406 C 3.10280704498291 325.7906799316406 3.5475199222564697 328.82275390625 11.331828117370605 329.5354919433594 C 15.504921913146973 326.01922607421875 16.411575317382812 319.7926025390625 20.53867530822754 320.24462890625 C 27.188613891601562 324.486328125 24.739761352539062 337.75262451171875 30.996112823486328 339.8601379394531 C 55.60846710205078 322.9176025390625 84.42041015625 310.75 110.41254425048828 292.9054870605469 C 120.88731384277344 299.3278503417969 118.50827026367188 300.8906555175781 141.2757568359375 296.82403564453125 C 150.8387451171875 288.6783752441406 163.51339721679688 284.7958679199219 167.25149536132812 272.78765869140625 C 169.6892852783203 272.1461486816406 155.68682861328125 272.0396728515625 150.72732543945312 270.3511962890625 C 160.359130859375 270.0164489746094 171.67730712890625 269.15850830078125 177.40475463867188 273.2127380371094 C 189.81895446777344 282.7350769042969 205.44622802734375 290.93658447265625 218.2503662109375 298.6670227050781 C 247.58839416503906 292.6119079589844 251.9123077392578 310.46820068359375 282.7466735839844 299.584716796875 C 256.7674865722656 285.57061767578125 228.31320190429688 276.2735290527344 204.18093872070312 262.4394226074219 C 187.95225524902344 265.59906005859375 175.9601287841797 260.0883483886719 159.85107421875 262.1978454589844 C 143.39137268066406 255.58631896972656 132.28094482421875 246.34632873535156 113.79107666015625 243.2216033935547 C 101.1584243774414 251.07864379882812 86.02642822265625 259.3377990722656 74.2289810180664 267.41082763671875 C 48.36644744873047 276.27764892578125 28.21657371520996 288.6600036621094 -2.9177651405334473 295.3755187988281 C -8.339271545410156 299.04644775390625 -6.9580979347229 311.0363464355469 -4.770589828491211 321.4117736816406" stroke-width="0.0" fill="rgb(171, 193, 210)" opacity="0.81687397" stroke="rgb(0, 0, 0)" stroke-opacity="1.0" stroke-linecap="round" stroke-linejoin="round"/>
    <path d="M 443.2156982421875 368.13372802734375 C 439.164794921875 379.0495910644531 446.392333984375 374.71124267578125 449.5567932128906 377.8001403808594 C 473.54058837890625 376.19659423828125 490.1035461425781 384.9183044433594 507.58062744140625 381.7008361816406 C 518.8665771484375 381.12554931640625 519.9227294921875 377.8948669433594 516.3358764648438 373.74188232421875 C 488.7503356933594 365.8223571777344 473.0336608886719 366.3399658203125 443.2156982421875 368.13372802734375" stroke-width="0.0" fill="rgb(65, 59, 44)" opacity="0.99535334" stroke="rgb(0, 0, 0)" stroke-opacity="1.0" stroke-linecap="round" stroke-linejoin="round"/>
    <path d="M 305.55419921875 441.1402587890625 C 323.6234130859375 441.712890625 341.110595703125 440.0525817871094 357.9715270996094 439.8775939941406 C 356.1180725097656 435.5551452636719 352.6789245605469 432.7337646484375 351.58099365234375 432.34771728515625 C 339.8882751464844 430.5559387207031 328.16241455078125 431.1608581542969 315.2506408691406 430.3835754394531 C 316.7071228027344 438.1190490722656 305.2177429199219 433.3157958984375 305.55419921875 441.1402587890625" stroke-width="0.0" fill="rgb(45, 40, 31)" opacity="1.0050358" stroke="rgb(0, 0, 0)" stroke-opacity="1.0" stroke-linecap="round" stroke-linejoin="round"/>
    <path d="M 439.988525390625 328.8884582519531 C 434.59710693359375 321.9844055175781 430.517578125 332.9509582519531 416.6155090332031 338.3755187988281 C 418.4318542480469 347.7534484863281 419.3371276855469 352.68182373046875 418.81439208984375 356.6654968261719 C 424.7780456542969 360.7535400390625 432.4541015625 360.9642639160156 438.07086181640625 358.4332275390625 C 432.49127197265625 344.2124938964844 447.1784973144531 339.88922119140625 439.988525390625 328.8884582519531" stroke-width="0.0" fill="rgb(40, 46, 45)" opacity="0.95861256" stroke="rgb(0, 0, 0)" stroke-opacity="1.0" stroke-linecap="round" stroke-linejoin="round"/>
    <path d="M 490.69329833984375 394.9334716796875 C 495.3173522949219 400.7848815917969 498.45098876953125 401.8380432128906 497.8985900878906 411.100830078125 C 501.7319030761719 415.4974060058594 505.0143737792969 417.72711181640625 521.587646484375 419.8311767578125 C 520.309814453125 411.916259765625 518.3084106445312 401.6348876953125 517.4893188476562 389.0826110839844 C 506.0369567871094 392.6954650878906 500.02423095703125 394.0546569824219 490.69329833984375 394.9334716796875" stroke-width="0.0" fill="rgb(20, 23, 24)" opacity="0.99975777" stroke="rgb(0, 0, 0)" stroke-opacity="1.0" stroke-linecap="round" stroke-linejoin="round"/>
    <path d="M 368.5263366699219 392.940673828125 C 366.5710144042969 398.6170654296875 367.7945556640625 401.591796875 374.35205078125 403.568115234375 C 379.8473815917969 403.36962890625 388.1222839355469 399.8720397949219 393.10491943359375 397.2782287597656 C 393.71221923828125 389.5109558105469 386.6346435546875 390.90667724609375 384.2900085449219 388.4507141113281 C 375.4359130859375 386.4254150390625 371.7398681640625 388.2825927734375 368.5263366699219 392.940673828125" stroke-width="0.0" fill="rgb(28, 29, 27)" opacity="1.0004115" stroke="rgb(0, 0, 0)" stroke-opacity="1.0" stroke-linecap="round" stroke-linejoin="round"/>
    <path d="M 447.36395263671875 375.2918701171875 C 447.50762939453125 381.59765625 454.1041564941406 382.291748046875 461.16986083984375 385.357421875 C 468.0596923828125 387.908935546875 479.981201171875 385.2676086425781 474.39691162109375 379.3381652832031 C 473.2560119628906 378.16021728515625 463.07611083984375 378.7416687011719 454.720703125 375.51416015625 C 459.5191345214844 375.8739929199219 455.60198974609375 377.8130798339844 447.36395263671875 375.2918701171875" stroke-width="0.0" fill="rgb(17, 21, 21)" opacity="1.0084625" stroke="rgb(0, 0, 0)" stroke-opacity="1.0" stroke-linecap="round" stroke-linejoin="round"/>
    <path d="M 351.280029296875 395.4425048828125 C 345.37884521484375 400.69403076171875 347.8974609375 402.31622314453125 350.2022705078125 409.89013671875 C 352.3952941894531 411.21929931640625 357.51177978515625 412.6239013671875 361.0169372558594 410.1788635253906 C 364.90618896484375 410.05499267578125 363.4320373535156 405.28436279296875 363.7759094238281 399.461669921875 C 359.92095947265625 398.25860595703125 354.8168640136719 394.98602294921875 351.280029296875 395.4425048828125" stroke-width="0.0" fill="rgb(39, 34, 25)" opacity="1.0000638" stroke="rgb(0, 0, 0)" stroke-opacity="1.0" stroke-linecap="round" stroke-linejoin="round"/>
    <path d="M 416.0794372558594 339.5380554199219 C 408.1857604980469 339.4468078613281 412.5086364746094 347.7924499511719 409.614501953125 358.8886413574219 C 409.5818176269531 360.7591552734375 414.5192565917969 360.2506408691406 421.09564208984375 359.8986511230469 C 420.3363342285156 348.7542419433594 418.22808837890625 340.9089050292969 416.0794372558594 339.5380554199219" stroke-width="0.0" fill="rgb(28, 37, 39)" opacity="1.0003806" stroke="rgb(0, 0, 0)" stroke-opacity="1.0" stroke-linecap="round" stroke-linejoin="round"/>
    <path d="M 211.36972045898438 376.63525390625 C 206.8406219482422 372.7754821777344 204.23300170898438 377.44061279296875 198.8116455078125 375.6671142578125 C 195.24644470214844 376.94158935546875 197.87826538085938 379.65606689453125 196.7168731689453 383.2739562988281 C 200.58714294433594 383.8933410644531 203.07977294921875 387.7281494140625 207.75473022460938 387.1741638183594 C 212.80807495117188 386.1086120605469 210.26841735839844 381.0610046386719 211.36972045898438 376.63525390625" stroke-width="0.0" fill="rgb(62, 52, 35)" opacity="0.9995745" stroke="rgb(0, 0, 0)" stroke-opacity="1.0" stroke-linecap="round" stroke-linejoin="round"/>
    <path d="M 157.02146911621094 436.53216552734375 C 152.59605407714844 441.5071105957031 156.38531494140625 443.7959899902344 154.03314208984375 442.2358703613281 C 158.07485961914062 443.3179931640625 164.91476440429688 442.92083740234375 162.83883666992188 439.0691833496094 C 162.17433166503906 435.8918151855469 161.57229614257812 436.3606872558594 157.02146911621094 436.53216552734375" stroke-width="0.0" fill="rgb(97, 78, 54)" opacity="0.9997531" stroke="rgb(0, 0, 0)" stroke-opacity="1.0" stroke-linecap="round" stroke-linejoin="round"/>
    <path d="M -3.155190944671631 480.3282165527344 C -3.0919907093048096 492.3258361816406 -1.647107720375061 501.6640930175781 -0.29688960313796997 519.9722290039062 C 170.3311767578125 520.1868896484375 340.66473388671875 520.4117431640625 517.6231079101562 520.531494140625 C 517.6083984375 501.8857116699219 517.6676025390625 492.5682678222656 518.8598022460938 481.90374755859375 C 336.9338073730469 487.2573547363281 170.13638305664062 484.8194580078125 -3.155190944671631 480.3282165527344" stroke-width="0.0" fill="rgb(128, 101, 60)" opacity="1.0646037" stroke="rgb(0, 0, 0)" stroke-opacity="1.0" stroke-linecap="round" stroke-linejoin="round"/>
    <path d="M 314.9700927734375 484.3409423828125 C 301.7728576660156 475.8908386230469 285.9463806152344 475.8731994628906 278.1427001953125 465.92498779296875 C 275.1875305175781 461.556884765625 269.2713317871094 453.3951110839844 263.0291748046875 450.17376708984375 C 262.2878723144531 442.8744201660156 260.3623352050781 448.40802001953125 265.89947509765625 443.02947998046875 C 175.94369506835938 442.99786376953125 84.06696319580078 442.76690673828125 -7.29727029800415 442.75250244140625 C -6.022292613983154 456.79840087890625 -6.198470592498779 470.49835205078125 -5.136470794677734 482.7027587890625 C 110.08839416503906 483.30291748046875 217.31492614746094 485.84368896484375 314.9700927734375 484.3409423828125" stroke-width="0.0" fill="rgb(105, 81, 54)" opacity="0.99962807" stroke="rgb(0, 0, 0)" stroke-opacity="1.0" stroke-linecap="round" stroke-linejoin="round"/>
    <path d="M 73.5822525024414 422.00689697265625 C 67.94636535644531 424.97894287109375 71.65764617919922 429.5514831542969 76.66057586669922 429.33001708984375 C 79.96701049804688 427.2817077636719 82.01779174804688 427.6720886230469 82.08122253417969 421.96978759765625 C 66.17033386230469 421.7670593261719 66.12926483154297 421.0565490722656 73.5822525024414 422.00689697265625" stroke-width="0.0" fill="rgb(171, 164, 148)" opacity="0.9982326" stroke="rgb(0, 0, 0)" stroke-opacity="1.0" stroke-linecap="round" stroke-linejoin="round"/>
    <path d="M 19.601409912109375 327.4812927246094 C 18.360774993896484 329.3939208984375 13.231727600097656 333.5373229980469 10.187152862548828 333.08380126953125 C 8.753101348876953 340.0761413574219 7.785138130187988 348.3610534667969 4.904199123382568 353.8731384277344 C 3.8286550045013428 374.6329345703125 1.8672714233398438 395.4483337402344 6.219670295715332 400.82989501953125 C 16.03997039794922 404.4540710449219 28.495065689086914 400.7618713378906 33.31401062011719 394.99603271484375 C 33.7319450378418 367.4935302734375 29.150453567504883 346.2983093261719 19.601409912109375 327.4812927246094" stroke-width="0.0" fill="rgb(52, 60, 53)" opacity="0.9122736" stroke="rgb(0, 0, 0)" stroke-opacity="1.0" stroke-linecap="round" stroke-linejoin="round"/>
    <path d="M 214.08984375 324.8659362792969 C 206.12249755859375 328.9179992675781 200.41468811035156 333.135498046875 196.7504425048828 342.4872741699219 C 193.45657348632812 348.371826171875 192.50135803222656 362.1697692871094 193.7471923828125 366.3512878417969 C 205.13739013671875 366.1527099609375 217.56829833984375 366.0688171386719 223.15216064453125 364.3950500488281 C 225.6158447265625 358.73760986328125 231.5795440673828 355.8946533203125 230.11935424804688 344.8507385253906 C 225.3284149169922 336.2738037109375 221.80638122558594 328.877685546875 214.08984375 324.8659362792969" stroke-width="0.0" fill="rgb(26, 37, 43)" opacity="0.8773568" stroke="rgb(0, 0, 0)" stroke-opacity="1.0" stroke-linecap="round" stroke-linejoin="round"/>
    <path d="M 27.85369300842285 341.8281555175781 C 31.955564498901367 361.14007568359375 32.17726135253906 377.4423828125 37.34966278076172 393.6663513183594 C 54.64760971069336 394.77911376953125 74.70100402832031 393.4273986816406 97.34979248046875 394.7335205078125 C 96.88577270507812 393.2074890136719 100.56893920898438 388.2078552246094 93.32841491699219 385.5744323730469 C 72.08291625976562 370.1824035644531 50.79951858520508 355.98095703125 27.85369300842285 341.8281555175781" stroke-width="0.0" fill="rgb(87, 115, 134)" opacity="0.92917895" stroke="rgb(0, 0, 0)" stroke-opacity="1.0" stroke-linecap="round" stroke-linejoin="round"/>
    <path d="M 311.8607482910156 348.3828125 C 301.21173095703125 349.7020263671875 312.0070495605469 353.2383728027344 298.3749084472656 349.07025146484375 C 296.41387939453125 353.5658264160156 291.8919372558594 359.5521240234375 292.99639892578125 363.99847412109375 C 302.2377624511719 365.716064453125 305.2019348144531 360.07135009765625 314.6343078613281 358.78839111328125 C 316.02825927734375 358.4387512207031 313.88116455078125 349.9039306640625 311.8607482910156 348.3828125" stroke-width="0.0" fill="rgb(43, 52, 56)" opacity="0.98562926" stroke="rgb(0, 0, 0)" stroke-opacity="1.0" stroke-linecap="round" stroke-linejoin="round"/>
    <path d="M 229.79017639160156 350.6969909667969 C 227.53509521484375 357.4877624511719 224.94998168945312 361.11456298828125 221.74432373046875 364.3744812011719 C 219.360107421875 370.77191162109375 221.184326171875 371.5543518066406 228.08741760253906 374.54998779296875 C 232.23243713378906 375.3069763183594 234.7627410888672 372.12835693359375 235.56387329101562 366.49310302734375 C 234.13406372070312 361.062255859375 233.73233032226562 355.4224548339844 229.79017639160156 350.6969909667969" stroke-width="0.0" fill="rgb(80, 69, 46)" opacity="0.9929902" stroke="rgb(0, 0, 0)" stroke-opacity="1.0" stroke-linecap="round" stroke-linejoin="round"/>
    <path d="M 334.7785949707031 341.22271728515625 C 330.61810302734375 346.59698486328125 327.3007507324219 350.0995178222656 329.05938720703125 359.1076965332031 C 333.3800048828125 359.5823669433594 337.9945373535156 358.4093017578125 341.62982177734375 357.1330261230469 C 343.0310974121094 347.1264343261719 340.84405517578125 344.5859375 334.7785949707031 341.22271728515625" stroke-width="0.0" fill="rgb(44, 52, 51)" opacity="0.99036914" stroke="rgb(0, 0, 0)" stroke-opacity="1.0" stroke-linecap="round" stroke-linejoin="round"/>
    <path d="M 279.95806884765625 350.6721496582031 C 277.0970153808594 356.98699951171875 273.7911071777344 360.80963134765625 274.7981872558594 368.5255126953125 C 277.8761901855469 368.7263488769531 291.1796569824219 366.9802551269531 290.9047546386719 363.7445983886719 C 290.99542236328125 345.5919494628906 282.2835693359375 368.35052490234375 279.95806884765625 350.6721496582031" stroke-width="0.0" fill="rgb(68, 76, 78)" opacity="0.9921079" stroke="rgb(0, 0, 0)" stroke-opacity="1.0" stroke-linecap="round" stroke-linejoin="round"/>
    <path d="M 96.13203430175781 378.9940185546875 C 97.20256805419922 381.0416564941406 97.28045654296875 386.9686584472656 96.86962127685547 380.428955078125 C 97.17048645019531 385.2090148925781 101.02338409423828 393.5278015136719 98.24089813232422 396.1203918457031 C 92.24312591552734 392.61932373046875 92.84513854980469 389.4036560058594 96.13203430175781 378.9940185546875" stroke-width="0.0" fill="rgb(64, 84, 97)" opacity="0.9996502" stroke="rgb(0, 0, 0)" stroke-opacity="1.0" stroke-linecap="round" stroke-linejoin="round"/>
    <path d="M 46.38569641113281 400.0455627441406 C 39.1159782409668 396.6052551269531 40.67300033569336 398.4173889160156 32.04463195800781 397.8680725097656 C 19.10188102722168 401.6279296875 10.289257049560547 406.48272705078125 -2.605900764465332 411.90380859375 C -6.326260566711426 417.3800048828125 -6.036734104156494 429.0625 -5.520721435546875 434.89398193359375 C 21.13998794555664 443.9635925292969 34.85390090942383 439.19329833984375 50.05017852783203 430.76593017578125 C 49.84605026245117 422.9139099121094 49.67063522338867 409.1954345703125 46.38569641113281 400.0455627441406" stroke-width="0.0" fill="rgb(54, 55, 57)" opacity="1.0005461" stroke="rgb(0, 0, 0)" stroke-opacity="1.0" stroke-linecap="round" stroke-linejoin="round"/>
    <path d="M 432.3406066894531 423.605712890625 C 436.565673828125 431.6180725097656 438.603759765625 436.2023620605469 447.8429260253906 437.2293395996094 C 444.76416015625 437.73675537109375 440.3299255371094 438.82232666015625 442.703857421875 443.103759765625 C 463.6214904785156 445.45501708984375 486.99365234375 447.0419616699219 517.166748046875 444.8636779785156 C 517.2603149414062 436.4576110839844 517.2974853515625 428.3862609863281 516.2572631835938 420.20037841796875 C 484.5517578125 422.1722412109375 457.8660888671875 421.5397033691406 432.3406066894531 423.605712890625" stroke-width="0.0" fill="rgb(94, 70, 42)" opacity="1.000607" stroke="rgb(0, 0, 0)" stroke-opacity="1.0" stroke-linecap="round" stroke-linejoin="round"/>
    <path d="M 306.7106018066406 364.1840515136719 C 299.8267517089844 367.8824157714844 296.93994140625 376.691162109375 297.2577209472656 391.49200439453125 C 299.73626708984375 398.0248107910156 311.7707214355469 397.55743408203125 325.1341247558594 400.75006103515625 C 333.9608154296875 394.6797790527344 332.6518859863281 388.0896911621094 331.47357177734375 371.1078796386719 C 332.2638854980469 366.9964294433594 326.5004577636719 366.6281433105469 327.0027160644531 363.29296875 C 323.845947265625 358.6599426269531 305.5336608886719 361.950927734375 306.7106018066406 364.1840515136719" stroke-width="0.0" fill="rgb(20, 26, 24)" opacity="0.99254835" stroke="rgb(0, 0, 0)" stroke-opacity="1.0" stroke-linecap="round" stroke-linejoin="round"/>
    <path d="M 107.93341064453125 399.0390319824219 C 96.23992919921875 393.69232177734375 85.2529067993164 395.1541442871094 70.19066619873047 400.068359375 C 62.16980743408203 401.4338684082031 55.62531280517578 404.689453125 52.3415412902832 412.8798828125 C 61.8625602722168 416.0832214355469 63.13200759887695 422.1498718261719 67.64237976074219 424.4343566894531 C 84.51810455322266 418.2518615722656 97.082763671875 410.58966064453125 107.93341064453125 399.0390319824219" stroke-width="0.0" fill="rgb(62, 67, 68)" opacity="0.99945956" stroke="rgb(0, 0, 0)" stroke-opacity="1.0" stroke-linecap="round" stroke-linejoin="round"/>
    <path d="M 484.7874450683594 318.5594787597656 C 478.4862976074219 316.9149475097656 477.1742858886719 329.9964599609375 474.4980163574219 335.26611328125 C 478.188232421875 342.29620361328125 475.52862548828125 350.0066833496094 478.00347900390625 354.98052978515625 C 478.84454345703125 359.2388610839844 483.6850891113281 358.45556640625 487.1256103515625 357.0145568847656 C 489.95330810546875 357.75701904296875 490.90899658203125 350.5256652832031 491.2057189941406 344.4638671875 C 488.2273864746094 333.09124755859375 489.5354919433594 319.80950927734375 484.7874450683594 318.5594787597656" stroke-width="0.0" fill="rgb(29, 36, 37)" opacity="0.9999431" stroke="rgb(0, 0, 0)" stroke-opacity="1.0" stroke-linecap="round" stroke-linejoin="round"/>
    <path d="M 371.3513488769531 330.7650146484375 C 369.7826232910156 333.6334533691406 369.626220703125 346.86572265625 366.79150390625 350.5921936035156 C 369.5691223144531 360.3360900878906 364.69866943359375 358.3119812011719 377.5454406738281 360.0809020996094 C 378.0230712890625 337.69677734375 379.6780090332031 334.0363464355469 371.3513488769531 330.7650146484375" stroke-width="0.0" fill="rgb(41, 48, 47)" opacity="0.9645245" stroke="rgb(0, 0, 0)" stroke-opacity="1.0" stroke-linecap="round" stroke-linejoin="round"/>
    <path d="M 478.80450439453125 472.506103515625 C 472.894775390625 473.6224670410156 474.1146240234375 481.190673828125 477.8938293457031 482.2213134765625 C 484.8392333984375 481.4417724609375 488.048828125 484.5232238769531 488.63739013671875 477.2054443359375 C 485.2862548828125 474.916748046875 478.3755187988281 470.17889404296875 478.80450439453125 472.506103515625" stroke-width="0.0" fill="rgb(74, 55, 34)" opacity="0.9997663" stroke="rgb(0, 0, 0)" stroke-opacity="1.0" stroke-linecap="round" stroke-linejoin="round"/>
    <path d="M 63.336219787597656 423.5382385253906 C 59.6757698059082 420.29974365234375 56.29811096191406 422.32855224609375 54.92677688598633 423.3602294921875 C 52.24574661254883 423.82464599609375 51.98421859741211 436.0345153808594 58.67394256591797 434.2760009765625 C 61.859676361083984 434.2547912597656 61.92216491699219 429.8497009277344 63.336219787597656 423.5382385253906" stroke-width="0.0" fill="rgb(30, 28, 33)" opacity="1.0000674" stroke="rgb(0, 0, 0)" stroke-opacity="1.0" stroke-linecap="round" stroke-linejoin="round"/>
    <path d="M 102.40084075927734 386.5484313964844 C 106.5323257446289 386.8865051269531 108.39103698730469 388.9870910644531 105.64263916015625 386.875 C 103.25457763671875 394.4111328125 108.4320297241211 397.291259765625 100.46823120117188 395.87896728515625 C 99.11186218261719 388.9019470214844 101.30303955078125 388.19830322265625 102.40084075927734 386.5484313964844" stroke-width="0.0" fill="rgb(85, 105, 117)" opacity="0.9892785" stroke="rgb(0, 0, 0)" stroke-opacity="1.0" stroke-linecap="round" stroke-linejoin="round"/>
    <path d="M 279.2361145019531 349.86126708984375 C 277.2957763671875 358.222900390625 273.4728088378906 361.2529296875 275.06427001953125 368.00640869140625 C 278.5038146972656 368.89300537109375 280.2100830078125 367.6141662597656 284.003662109375 367.32861328125 C 285.64031982421875 360.7317199707031 281.0298767089844 358.1465759277344 279.2361145019531 349.86126708984375" stroke-width="0.0" fill="rgb(47, 60, 66)" opacity="0.9971949" stroke="rgb(0, 0, 0)" stroke-opacity="1.0" stroke-linecap="round" stroke-linejoin="round"/>
    <path d="M 45.85789108276367 376.66802978515625 C 42.42432403564453 380.57568359375 42.05478286743164 387.951171875 40.00912857055664 393.628173828125 C 46.42853546142578 397.0789489746094 47.987091064453125 394.961181640625 50.86989212036133 393.53985595703125 C 52.88127899169922 387.03851318359375 49.59397888183594 382.4771728515625 45.85789108276367 376.66802978515625" stroke-width="0.0" fill="rgb(41, 61, 73)" opacity="0.9986895" stroke="rgb(0, 0, 0)" stroke-opacity="1.0" stroke-linecap="round" stroke-linejoin="round"/>
  </g>
</svg>
