<?xml version="1.0" ?>
<svg xmlns="http://www.w3.org/2000/svg" version="1.1" width="512" height="512">
  <defs/>
  <g>
    <path d="M -1.9727567434310913 -1.8610200881958008 C -1.8635122776031494 170.3333282470703 -1.4126428365707397 340.6666564941406 -0.5557612180709839 512.60302734375 C 170.122802734375 512.72412109375 340.2772521972656 512.887939453125 513.4833374023438 513.4209594726562 C 513.9371337890625 341.3746337890625 514.120849609375 170.79196166992188 514.2140502929688 -1.5141425132751465 C 340.6666564941406 -1.7186241149902344 170.3333282470703 -1.7916284799575806 -1.9727567434310913 -1.8610200881958008" stroke-width="0.0" fill="rgb(150, 165, 175)" opacity="0.9502423" stroke="rgb(0, 0, 0)" stroke-opacity="1.0" stroke-linecap="round" stroke-linejoin="round"/>
    <path d="M 514.155517578125 213.1451873779297 C 490.84686279296875 212.16641235351562 474.1169128417969 212.7398681640625 460.6988830566406 217.06948852539062 C 405.0803527832031 246.47296142578125 348.53955078125 274.25006103515625 290.9979248046875 300.21929931640625 C 266.38916015625 291.3404846191406 239.48388671875 289.8572692871094 213.17774963378906 289.0223388671875 C 184.7047882080078 274.5694580078125 155.8885955810547 260.7254638671875 119.99842071533203 246.74710083007812 C 81.24079895019531 261.40606689453125 45.66693878173828 280.51080322265625 0.15583544969558716 297.1510925292969 C -1.524705171585083 362.210205078125 -2.9351871013641357 434.82745361328125 -4.102353096008301 513.1968994140625 C 168.80885314941406 513.8773803710938 339.7413024902344 513.63916015625 513.5639038085938 513.3888549804688 C 513.8024291992188 413.36834716796875 514.0723876953125 314.5002136230469 514.155517578125 213.1451873779297" stroke-width="0.0" fill="rgb(105, 107, 102)" opacity="0.9555495" stroke="rgb(0, 0, 0)" stroke-opacity="1.0" stroke-linecap="round" stroke-linejoin="round"/>
    <path d="M 0.04309326410293579 211.9250030517578 C -2.964578151702881 244.13682556152344 -2.6363372802734375 270.17279052734375 -2.1292624473571777 294.5143737792969 C 6.401970863342285 292.1585388183594 9.868006706237793 290.7005920410156 13.071206092834473 289.2628173828125 C 14.23108196258545 280.23779296875 14.739815711975098 271.27191162109375 15.3790922164917 257.02349853515625 C 14.10716438293457 241.344482421875 9.416852951049805 226.42950439453125 0.04309326410293579 211.9250030517578" stroke-width="0.0" fill="rgb(216, 234, 247)" opacity="1.0074716" stroke="rgb(0, 0, 0)" stroke-opacity="1.0" stroke-linecap="round" stroke-linejoin="round"/>
    <path d="M 162.5247802734375 265.3740539550781 C 178.2476348876953 276.47613525390625 193.75765991210938 284.5747985839844 210.51876831054688 288.8224182128906 C 234.63401794433594 288.91357421875 253.76673889160156 293.9118347167969 276.1539306640625 296.7191162109375 C 252.19549560546875 285.1327209472656 228.73806762695312 275.9126892089844 205.32717895507812 266.4585876464844 C 192.71246337890625 263.24652099609375 179.5650177001953 261.6499328613281 162.5247802734375 265.3740539550781" stroke-width="0.0" fill="rgb(183, 202, 217)" opacity="1.0005984" stroke="rgb(0, 0, 0)" stroke-opacity="1.0" stroke-linecap="round" stroke-linejoin="round"/>
    <path d="M 120.55135345458984 193.9803924560547 C 114.69134521484375 193.97837829589844 112.59819793701172 195.25137329101562 112.60907745361328 199.2813720703125 C 112.17411804199219 212.9970245361328 111.35658264160156 227.46319580078125 112.07923126220703 240.0529327392578 C 118.30481719970703 239.7631378173828 120.50431060791016 239.4989471435547 120.14256286621094 238.19642639160156 C 121.76197052001953 219.64964294433594 122.01567840576172 205.3477783203125 120.55135345458984 193.9803924560547" stroke-width="0.0" fill="rgb(200, 222, 242)" opacity="1.0065253" stroke="rgb(0, 0, 0)" stroke-opacity="1.0" stroke-linecap="round" stroke-linejoin="round"/>
    <path d="M 512.8985595703125 305.1133117675781 C 485.20611572265625 314.0922546386719 460.48248291015625 323.4195556640625 431.1120910644531 332.17681884765625 C 409.1007080078125 337.7471923828125 379.9275207519531 339.6358337402344 350.7748107910156 341.2892150878906 C 319.8645324707031 351.2626647949219 286.86053466796875 358.5071105957031 253.1414031982422 364.7574768066406 C 246.00547790527344 364.7149658203125 239.1268310546875 365.04473876953125 233.23989868164062 363.9600524902344 C 227.03416442871094 354.6767883300781 222.2882843017578 344.58770751953125 213.7047576904297 338.3741149902344 C 200.26229858398438 348.104736328125 194.14492797851562 359.7298889160156 187.3304901123047 369.7940979003906 C 161.3684539794922 377.04779052734375 138.6216583251953 386.18994140625 114.61009216308594 392.70172119140625 C 104.01514434814453 390.1613464355469 93.82191467285156 389.47186279296875 85.62091064453125 386.119384765625 C 61.6616325378418 375.6908874511719 39.880550384521484 362.7767639160156 18.87702751159668 348.9273986816406 C 15.189706802368164 345.84259033203125 8.832761764526367 345.8704833984375 -2.0011353492736816 345.9087829589844 C -2.643683910369873 399.9780578613281 -3.0063631534576416 454.6394348144531 -3.2465476989746094 513.2771606445312 C 169.286865234375 513.7896118164062 340.1314392089844 513.569580078125 513.5119018554688 513.3526000976562 C 514.0015869140625 442.0823059082031 514.4907836914062 372.8324279785156 512.8985595703125 305.1133117675781" stroke-width="0.0" fill="rgb(64, 53, 36)" opacity="1.0477865" stroke="rgb(0, 0, 0)" stroke-opacity="1.0" stroke-linecap="round" stroke-linejoin="round"/>
    <path d="M 515.0430908203125 213.7726593017578 C 488.2574157714844 212.07167053222656 469.9830627441406 213.5394287109375 455.7587890625 219.18338012695312 C 407.82177734375 243.82286071777344 359.67340087890625 267.6754150390625 310.6940612792969 290.6047058105469 C 280.2679748535156 298.9510803222656 251.2400360107422 308.5649719238281 224.50868225097656 319.55908203125 C 222.51182556152344 321.83209228515625 218.9511260986328 323.0047302246094 216.8888702392578 326.66064453125 C 224.9205780029297 334.688232421875 230.4154052734375 343.7908630371094 235.4188232421875 355.61260986328125 C 238.47386169433594 358.3997497558594 243.49755859375 360.70965576171875 252.06809997558594 362.1187438964844 C 287.01983642578125 354.70611572265625 321.32354736328125 346.68402099609375 355.4547119140625 338.3887023925781 C 379.1236572265625 337.5922546386719 402.1263427734375 336.16162109375 421.9849853515625 331.706298828125 C 451.49755859375 322.18524169921875 479.4405822753906 311.7609558105469 512.9869384765625 301.72320556640625 C 514.1864624023438 277.2056579589844 514.65576171875 247.695556640625 515.0430908203125 213.7726593017578" stroke-width="0.0" fill="rgb(109, 132, 151)" opacity="1.0014142" stroke="rgb(0, 0, 0)" stroke-opacity="1.0" stroke-linecap="round" stroke-linejoin="round"/>
    <path d="M 240.23031616210938 305.5667724609375 C 195.7238006591797 286.6025695800781 158.94332885742188 262.5529479980469 118.39947509765625 242.57701110839844 C 79.83257293701172 267.239013671875 41.614505767822266 283.2869567871094 0.6072805523872375 297.9757995605469 C -2.763707160949707 305.17596435546875 -2.7371280193328857 318.6964416503906 0.40809446573257446 325.35137939453125 C 31.349214553833008 341.5528869628906 57.97789764404297 359.8813171386719 82.76525115966797 380.57916259765625 C 91.83232116699219 385.4883117675781 102.22203826904297 388.9707336425781 117.21693420410156 391.541015625 C 141.1079864501953 384.22796630859375 162.8037109375 375.8866882324219 185.8974151611328 368.08734130859375 C 190.86346435546875 357.6325378417969 193.82421875 344.2914733886719 198.52406311035156 332.5502014160156 C 214.27479553222656 325.0810546875 228.94805908203125 316.923095703125 240.23031616210938 305.5667724609375" stroke-width="0.0" fill="rgb(138, 165, 187)" opacity="0.96960956" stroke="rgb(0, 0, 0)" stroke-opacity="1.0" stroke-linecap="round" stroke-linejoin="round"/>
    <path d="M -2.9591381549835205 325.77520751953125 C -2.993583917617798 344.46484375 -2.6371312141418457 358.47344970703125 -1.8231487274169922 372.9689636230469 C 6.853300094604492 359.1947326660156 8.887216567993164 346.4205627441406 11.327384948730469 332.24822998046875 C 9.1511869430542 328.4060974121094 6.220478057861328 326.2354736328125 -2.9591381549835205 325.77520751953125" stroke-width="0.0" fill="rgb(105, 126, 143)" opacity="1.0009141" stroke="rgb(0, 0, 0)" stroke-opacity="1.0" stroke-linecap="round" stroke-linejoin="round"/>
    <path d="M 96.50382232666016 379.6998596191406 C 95.13617706298828 381.25701904296875 94.97230529785156 382.5830993652344 95.01679229736328 384.3890686035156 C 99.40914154052734 386.41400146484375 96.87345886230469 389.46258544921875 97.19889068603516 391.71124267578125 C 95.3247299194336 388.9838562011719 94.05758666992188 384.1070861816406 96.50382232666016 379.6998596191406" stroke-width="0.0" fill="rgb(66, 87, 101)" opacity="1.0000272" stroke="rgb(0, 0, 0)" stroke-opacity="1.0" stroke-linecap="round" stroke-linejoin="round"/>
    <path d="M 513.85498046875 417.1971130371094 C 496.4325256347656 417.7674560546875 483.19891357421875 419.3042297363281 468.72265625 421.1040344238281 C 450.4382629394531 423.4029235839844 433.1991882324219 429.4581298828125 413.13037109375 439.3515319824219 C 280.3533935546875 441.5737609863281 141.64544677734375 442.811767578125 -2.0461206436157227 441.91851806640625 C -2.3073511123657227 464.1433410644531 -2.6504967212677 487.0889587402344 -2.954409122467041 513.4786376953125 C 170.0768585205078 513.5797119140625 340.58251953125 513.408447265625 513.7320556640625 513.2603149414062 C 514.0086669921875 480.8299255371094 514.0419311523438 450.33599853515625 513.85498046875 417.1971130371094" stroke-width="0.0" fill="rgb(99, 74, 41)" opacity="0.9578867" stroke="rgb(0, 0, 0)" stroke-opacity="1.0" stroke-linecap="round" stroke-linejoin="round"/>
    <path d="M 218.8314971923828 329.3728332519531 C 205.5921630859375 332.7769775390625 201.1417236328125 338.2971496582031 197.3823699951172 345.4622802734375 C 194.20306396484375 353.01861572265625 191.0819091796875 360.3342590332031 190.8956756591797 374.3545227050781 C 208.689208984375 373.9403991699219 221.35580444335938 372.3735046386719 234.6776123046875 368.87298583984375 C 229.86721801757812 349.968505859375 224.7316436767578 338.81658935546875 218.8314971923828 329.3728332519531" stroke-width="0.0" fill="rgb(37, 44, 44)" opacity="0.9959497" stroke="rgb(0, 0, 0)" stroke-opacity="1.0" stroke-linecap="round" stroke-linejoin="round"/>
    <path d="M 75.138671875 418.293701171875 C 81.1730728149414 421.6556701660156 82.21751403808594 423.29168701171875 81.17349243164062 428.0459289550781 C 82.0804214477539 430.41302490234375 79.15708923339844 432.2501220703125 69.91373443603516 431.5273742675781 C 70.6966552734375 423.33782958984375 72.87578582763672 420.36083984375 75.138671875 418.293701171875" stroke-width="0.0" fill="rgb(150, 142, 127)" opacity="0.99819636" stroke="rgb(0, 0, 0)" stroke-opacity="1.0" stroke-linecap="round" stroke-linejoin="round"/>
    <path d="M -1.8094569444656372 330.70172119140625 C -1.827778935432434 354.2164306640625 -2.2628328800201416 376.5831604003906 -1.3871090412139893 399.2223815917969 C 36.3167724609375 399.6822204589844 69.7551040649414 397.9420166015625 101.76649475097656 395.030029296875 C 72.78985595703125 373.1763916015625 44.898529052734375 355.06866455078125 17.441003799438477 336.5447692871094 C 11.844575881958008 334.92236328125 6.390881061553955 332.9204406738281 -1.8094569444656372 330.70172119140625" stroke-width="0.0" fill="rgb(69, 84, 91)" opacity="0.9713601" stroke="rgb(0, 0, 0)" stroke-opacity="1.0" stroke-linecap="round" stroke-linejoin="round"/>
    <path d="M 512.938232421875 301.98553466796875 C 490.2729797363281 309.5560302734375 470.5527648925781 318.18731689453125 450.125 327.9678649902344 C 448.16217041015625 336.67340087890625 449.35198974609375 348.2635498046875 446.1121826171875 363.24761962890625 C 466.4453430175781 365.4854736328125 487.3685302734375 367.13140869140625 514.0409545898438 368.21868896484375 C 514.1791381835938 343.61578369140625 514.4237670898438 322.276611328125 512.938232421875 301.98553466796875" stroke-width="0.0" fill="rgb(30, 38, 41)" opacity="0.99092484" stroke="rgb(0, 0, 0)" stroke-opacity="1.0" stroke-linecap="round" stroke-linejoin="round"/>
    <path d="M 297.77850341796875 379.511474609375 C 297.04949951171875 384.9521484375 297.88299560546875 388.6657409667969 300.1951904296875 391.9648132324219 C 303.6706848144531 395.2961730957031 308.4764404296875 397.02423095703125 317.5115661621094 400.9821472167969 C 333.0150146484375 399.3747863769531 348.0374755859375 396.0581359863281 363.1783752441406 392.15240478515625 C 358.2491149902344 375.01287841796875 352.846435546875 366.4119873046875 346.5733947753906 362.60736083984375 C 331.83990478515625 362.224609375 320.5757751464844 361.5468444824219 309.26873779296875 363.74835205078125 C 303.0417175292969 366.3017578125 298.7154846191406 371.70782470703125 297.77850341796875 379.511474609375" stroke-width="0.0" fill="rgb(16, 21, 21)" opacity="1.0053207" stroke="rgb(0, 0, 0)" stroke-opacity="1.0" stroke-linecap="round" stroke-linejoin="round"/>
    <path d="M 357.55438232421875 322.9859619140625 C 351.8481140136719 332.5874328613281 347.4768371582031 340.9523010253906 342.3634338378906 352.9139709472656 C 346.1930847167969 357.41522216796875 351.5962219238281 359.11834716796875 364.561279296875 359.2740783691406 C 366.5694580078125 355.84954833984375 367.4943542480469 350.7874755859375 366.1474304199219 342.26873779296875 C 364.17376708984375 333.6846008300781 361.9346008300781 327.0445861816406 357.55438232421875 322.9859619140625" stroke-width="0.0" fill="rgb(24, 33, 37)" opacity="0.99486315" stroke="rgb(0, 0, 0)" stroke-opacity="1.0" stroke-linecap="round" stroke-linejoin="round"/>
    <path d="M -0.737669825553894 444.3550720214844 C 22.967126846313477 442.287353515625 42.27600860595703 439.5774841308594 59.42408752441406 434.85919189453125 C 76.10128784179688 423.77374267578125 91.29194641113281 412.72137451171875 105.57469940185547 395.9396667480469 C 66.48068237304688 395.54693603515625 33.87300491333008 397.2033386230469 -0.7545338273048401 406.6294860839844 C -1.9138929843902588 414.6796569824219 -1.9523048400878906 427.6451721191406 -0.737669825553894 444.3550720214844" stroke-width="0.0" fill="rgb(46, 48, 50)" opacity="1.0043525" stroke="rgb(0, 0, 0)" stroke-opacity="1.0" stroke-linecap="round" stroke-linejoin="round"/>
    <path d="M 346.3811950683594 351.1891784667969 C 341.62701416015625 347.747314453125 338.89093017578125 344.8143615722656 335.4208068847656 342.08502197265625 C 331.07244873046875 345.7217102050781 328.55462646484375 350.2110595703125 322.2989501953125 349.6171569824219 C 305.61810302734375 347.3644714355469 294.6696472167969 356.256103515625 278.752685546875 358.5676574707031 C 276.33837890625 357.02960205078125 274.9684753417969 360.5388488769531 276.46636962890625 368.5876770019531 C 298.16644287109375 364.3031311035156 316.0228576660156 356.14837646484375 344.5435485839844 358.1792907714844 C 346.1468811035156 358.19940185546875 347.4508972167969 355.7880554199219 346.3811950683594 351.1891784667969" stroke-width="0.0" fill="rgb(60, 70, 73)" opacity="0.9934493" stroke="rgb(0, 0, 0)" stroke-opacity="1.0" stroke-linecap="round" stroke-linejoin="round"/>
    <path d="M 450.79351806640625 328.8500671386719 C 442.4294738769531 334.97119140625 438.1738586425781 340.0543518066406 433.94000244140625 345.48114013671875 C 434.8067932128906 354.5964660644531 435.73968505859375 358.489501953125 439.043212890625 361.060302734375 C 447.8121643066406 361.88336181640625 452.41131591796875 361.0762023925781 457.2125549316406 358.8896179199219 C 456.3382263183594 344.8716735839844 454.6798095703125 336.7418518066406 450.79351806640625 328.8500671386719" stroke-width="0.0" fill="rgb(68, 58, 29)" opacity="0.9968066" stroke="rgb(0, 0, 0)" stroke-opacity="1.0" stroke-linecap="round" stroke-linejoin="round"/>
    <path d="M 383.1199645996094 329.42041015625 C 379.9486389160156 333.74798583984375 376.7861633300781 335.021240234375 371.8177490234375 335.39703369140625 C 366.79693603515625 340.4504699707031 367.3699645996094 347.0896301269531 369.21661376953125 357.5794372558594 C 376.5121154785156 359.44146728515625 380.5390625 360.09210205078125 387.0074768066406 358.2605285644531 C 386.90655517578125 345.4399719238281 386.1665954589844 337.2542419433594 383.1199645996094 329.42041015625" stroke-width="0.0" fill="rgb(39, 49, 49)" opacity="0.9907289" stroke="rgb(0, 0, 0)" stroke-opacity="1.0" stroke-linecap="round" stroke-linejoin="round"/>
    <path d="M 246.8459014892578 426.9965515136719 C 252.810302734375 429.4107666015625 259.95147705078125 429.354736328125 270.02960205078125 428.9545593261719 C 277.30126953125 429.0995178222656 282.11669921875 427.7314453125 284.06707763671875 419.9689025878906 C 277.93121337890625 416.6047668457031 272.1380920410156 414.5746765136719 267.0506896972656 416.8519592285156 C 256.1354675292969 417.8989562988281 250.1178436279297 418.70037841796875 246.8459014892578 426.9965515136719" stroke-width="0.0" fill="rgb(16, 20, 23)" opacity="1.0011955" stroke="rgb(0, 0, 0)" stroke-opacity="1.0" stroke-linecap="round" stroke-linejoin="round"/>
    <path d="M 388.8801574707031 333.62957763671875 C 385.840087890625 340.2421875 383.73681640625 347.024658203125 384.99639892578125 356.1316833496094 C 387.6624450683594 359.6410217285156 390.83319091796875 360.1883850097656 398.2799987792969 360.0166320800781 C 400.0592956542969 355.7384033203125 399.44476318359375 350.4541015625 397.2037048339844 341.1310119628906 C 397.4828186035156 336.3803405761719 395.6507873535156 334.39520263671875 388.8801574707031 333.62957763671875" stroke-width="0.0" fill="rgb(40, 46, 43)" opacity="0.99772626" stroke="rgb(0, 0, 0)" stroke-opacity="1.0" stroke-linecap="round" stroke-linejoin="round"/>
    <path d="M 400.6793518066406 336.4549865722656 C 399.17596435546875 342.3061828613281 398.95819091796875 349.6199951171875 399.4510803222656 358.7252502441406 C 402.03143310546875 360.7640380859375 404.8275451660156 361.47003173828125 410.07501220703125 361.7217102050781 C 411.4482116699219 354.5636901855469 412.45684814453125 348.7661437988281 412.2062683105469 341.4753112792969 C 409.6841125488281 337.9452819824219 407.4601745605469 336.8321838378906 400.6793518066406 336.4549865722656" stroke-width="0.0" fill="rgb(33, 42, 44)" opacity="1.000525" stroke="rgb(0, 0, 0)" stroke-opacity="1.0" stroke-linecap="round" stroke-linejoin="round"/>
    <path d="M 286.87664794921875 402.9471740722656 C 287.6646423339844 409.5263366699219 288.40875244140625 410.6739501953125 291.16375732421875 413.52099609375 C 300.8883056640625 413.0896911621094 307.1684265136719 412.39642333984375 313.5155334472656 407.0240478515625 C 304.4335632324219 402.5624694824219 296.19683837890625 402.8550720214844 286.87664794921875 402.9471740722656" stroke-width="0.0" fill="rgb(13, 18, 20)" opacity="1.0010822" stroke="rgb(0, 0, 0)" stroke-opacity="1.0" stroke-linecap="round" stroke-linejoin="round"/>
    <path d="M 95.60230255126953 380.3255615234375 C 93.23150634765625 384.7093811035156 92.65504455566406 388.9033508300781 93.10137176513672 397.0942077636719 C 97.5372543334961 397.3674621582031 101.29888916015625 396.9664306640625 108.19342041015625 393.76129150390625 C 100.17093658447266 389.8691711425781 96.53439331054688 386.0673522949219 95.60230255126953 380.3255615234375" stroke-width="0.0" fill="rgb(73, 92, 105)" opacity="0.9990923" stroke="rgb(0, 0, 0)" stroke-opacity="1.0" stroke-linecap="round" stroke-linejoin="round"/>
    <path d="M 446.4936828613281 384.3053283691406 C 438.08367919921875 385.3411560058594 434.19171142578125 387.3526916503906 431.7493896484375 392.63983154296875 C 433.7668762207031 397.1938171386719 437.13885498046875 397.214111328125 444.525390625 395.9209899902344 C 447.4390869140625 393.7737121582031 447.92059326171875 392.2038879394531 446.4936828613281 384.3053283691406" stroke-width="0.0" fill="rgb(83, 65, 33)" opacity="0.9999777" stroke="rgb(0, 0, 0)" stroke-opacity="1.0" stroke-linecap="round" stroke-linejoin="round"/>
    <path d="M 32.45238494873047 342.85992431640625 C 58.15996170043945 361.17034912109375 83.8272933959961 377.8154296875 112.99767303466797 393.8542175292969 C 138.61062622070312 385.32501220703125 159.7509307861328 373.1632080078125 191.12594604492188 369.8244323730469 C 190.48611450195312 352.3254089355469 194.42507934570312 339.2403259277344 198.96812438964844 329.7170715332031 C 190.86961364746094 324.3360290527344 180.7635955810547 321.3702392578125 166.55255126953125 322.2784729003906 C 158.1642608642578 314.179443359375 150.0947265625 305.57379150390625 140.55404663085938 299.0306396484375 C 132.93324279785156 298.519287109375 128.42030334472656 300.78076171875 121.41618347167969 302.1893615722656 C 116.55148315429688 299.0670166015625 113.61579132080078 294.4698181152344 104.86343383789062 290.1066589355469 C 80.28260803222656 305.2713928222656 55.901973724365234 320.9173278808594 32.45238494873047 342.85992431640625" stroke-width="0.0" fill="rgb(142, 168, 187)" opacity="0.9887896" stroke="rgb(0, 0, 0)" stroke-opacity="1.0" stroke-linecap="round" stroke-linejoin="round"/>
    <path d="M -2.5429739952087402 323.72857666015625 C 3.2904374599456787 326.08642578125 5.77252721786499 328.73028564453125 11.42916488647461 329.94976806640625 C 13.854992866516113 324.9568786621094 15.646069526672363 320.7308044433594 20.549468994140625 320.251953125 C 24.212053298950195 325.0979919433594 25.15340232849121 334.5334167480469 33.8452262878418 342.44390869140625 C 59.204002380371094 326.2491760253906 84.37550354003906 310.4176025390625 109.53715515136719 294.664794921875 C 114.73223114013672 297.9132080078125 125.35857391357422 299.40069580078125 140.18788146972656 297.91357421875 C 151.4024658203125 290.44305419921875 160.8852081298828 283.07220458984375 169.34524536132812 272.3551025390625 C 165.66529846191406 271.9049072265625 158.33346557617188 272.2031555175781 151.9958038330078 272.5980224609375 C 162.69985961914062 269.3702087402344 172.15838623046875 268.3983154296875 177.07765197753906 272.9067687988281 C 190.4596710205078 282.25299072265625 204.20445251464844 291.154541015625 218.65162658691406 298.1242370605469 C 240.54666137695312 300.3540344238281 260.7989807128906 303.2767639160156 281.6458435058594 300.7019958496094 C 256.07257080078125 285.9140930175781 228.9316864013672 276.1764831542969 204.54786682128906 262.57025146484375 C 188.31324768066406 264.315185546875 172.9452667236328 262.63275146484375 158.16387939453125 262.26715087890625 C 144.60736083984375 254.67543029785156 130.38290405273438 248.24676513671875 115.25055694580078 243.057373046875 C 100.41131591796875 250.73883056640625 87.27580261230469 259.9529113769531 72.6778335571289 267.2163391113281 C 50.06465530395508 277.8824768066406 26.489681243896484 286.8724060058594 -0.7074191570281982 294.9595642089844 C -3.048200845718384 301.5537109375 -2.856903553009033 312.2627258300781 -2.5429739952087402 323.72857666015625" stroke-width="0.0" fill="rgb(166, 189, 207)" opacity="0.9724902" stroke="rgb(0, 0, 0)" stroke-opacity="1.0" stroke-linecap="round" stroke-linejoin="round"/>
    <path d="M 441.82989501953125 367.4243469238281 C 440.9735107421875 376.2901306152344 444.1913757324219 378.2804870605469 447.6839904785156 380.12799072265625 C 468.6123962402344 381.46832275390625 488.1790771484375 382.5870056152344 511.1862487792969 382.85467529296875 C 513.864501953125 378.847900390625 513.89306640625 376.1273193359375 513.44970703125 369.6930236816406 C 490.8822937011719 367.0922546386719 468.1643371582031 366.7413635253906 441.82989501953125 367.4243469238281" stroke-width="0.0" fill="rgb(67, 61, 45)" opacity="0.99876475" stroke="rgb(0, 0, 0)" stroke-opacity="1.0" stroke-linecap="round" stroke-linejoin="round"/>
    <path d="M 304.1272277832031 440.5488586425781 C 323.1269226074219 441.4557800292969 340.2226867675781 440.77142333984375 358.0570373535156 440.5325927734375 C 355.9266052246094 435.4568176269531 353.62591552734375 433.2348327636719 350.42730712890625 433.24462890625 C 339.41534423828125 430.7777099609375 328.43096923828125 429.87689208984375 316.32159423828125 430.5208740234375 C 314.23675537109375 433.8616027832031 309.46661376953125 436.57354736328125 304.1272277832031 440.5488586425781" stroke-width="0.0" fill="rgb(44, 40, 30)" opacity="1.0021892" stroke="rgb(0, 0, 0)" stroke-opacity="1.0" stroke-linecap="round" stroke-linejoin="round"/>
    <path d="M 442.0244445800781 326.18121337890625 C 430.0529479980469 327.5364990234375 426.9425354003906 334.7850646972656 416.18170166015625 337.5396728515625 C 415.8000183105469 346.1492614746094 416.99951171875 353.42474365234375 418.3543395996094 359.6875305175781 C 426.82421875 360.1111755371094 431.0027160644531 360.4866638183594 439.0154724121094 360.94830322265625 C 439.7879638671875 349.56500244140625 441.7152099609375 340.1699523925781 442.0244445800781 326.18121337890625" stroke-width="0.0" fill="rgb(40, 46, 44)" opacity="0.9968837" stroke="rgb(0, 0, 0)" stroke-opacity="1.0" stroke-linecap="round" stroke-linejoin="round"/>
    <path d="M 489.9436950683594 395.45941162109375 C 495.6352844238281 399.9214782714844 498.7222900390625 403.6879577636719 497.9515075683594 413.2887268066406 C 500.1007385253906 415.63104248046875 503.5151672363281 418.4850158691406 512.5452880859375 420.96295166015625 C 514.49853515625 409.8137512207031 513.991455078125 400.6225280761719 514.0293579101562 390.9900817871094 C 505.0008850097656 391.97650146484375 499.44659423828125 393.5829772949219 489.9436950683594 395.45941162109375" stroke-width="0.0" fill="rgb(20, 23, 24)" opacity="1.0012159" stroke="rgb(0, 0, 0)" stroke-opacity="1.0" stroke-linecap="round" stroke-linejoin="round"/>
    <path d="M 368.8697509765625 392.95025634765625 C 367.16876220703125 398.6558837890625 367.65057373046875 401.5021057128906 371.3514404296875 403.88372802734375 C 381.5958557128906 403.17529296875 388.00555419921875 401.13043212890625 394.72039794921875 397.42584228515625 C 392.4681091308594 389.6403503417969 388.2616882324219 388.3422546386719 383.2822570800781 387.946044921875 C 374.98724365234375 387.5384216308594 370.782958984375 388.7666931152344 368.8697509765625 392.95025634765625" stroke-width="0.0" fill="rgb(28, 29, 27)" opacity="1.0005316" stroke="rgb(0, 0, 0)" stroke-opacity="1.0" stroke-linecap="round" stroke-linejoin="round"/>
    <path d="M 444.0999450683594 377.1397705078125 C 449.0265197753906 380.9517517089844 454.8078918457031 384.03253173828125 462.6214294433594 385.9562072753906 C 469.9657897949219 386.7800598144531 473.8139343261719 386.49066162109375 477.9063720703125 382.2571716308594 C 472.7469482421875 375.21722412109375 465.1362609863281 374.4992370605469 457.5751647949219 374.6463317871094 C 456.1624450683594 374.7368469238281 452.25048828125 375.8380126953125 444.0999450683594 377.1397705078125" stroke-width="0.0" fill="rgb(23, 25, 23)" opacity="1.0026989" stroke="rgb(0, 0, 0)" stroke-opacity="1.0" stroke-linecap="round" stroke-linejoin="round"/>
    <path d="M 348.8653869628906 394.3909912109375 C 347.1349182128906 399.5668640136719 347.8131103515625 404.6033935546875 348.4906311035156 410.9186706542969 C 352.2337341308594 411.7545471191406 355.5723571777344 411.9917907714844 363.1693420410156 411.16925048828125 C 363.8426818847656 408.3186950683594 364.326904296875 405.2268371582031 362.89544677734375 399.840087890625 C 359.0077819824219 398.1793518066406 355.2216491699219 396.3172912597656 348.8653869628906 394.3909912109375" stroke-width="0.0" fill="rgb(38, 34, 26)" opacity="1.0000355" stroke="rgb(0, 0, 0)" stroke-opacity="1.0" stroke-linecap="round" stroke-linejoin="round"/>
    <path d="M 415.9666442871094 337.5476989746094 C 409.14044189453125 343.5465393066406 408.8853759765625 349.41387939453125 408.3779602050781 359.6038818359375 C 411.0704345703125 360.2405700683594 414.6997375488281 360.3341369628906 422.72454833984375 360.11907958984375 C 421.7324523925781 348.8184814453125 419.5713806152344 342.433349609375 415.9666442871094 337.5476989746094" stroke-width="0.0" fill="rgb(27, 36, 38)" opacity="1.0008097" stroke="rgb(0, 0, 0)" stroke-opacity="1.0" stroke-linecap="round" stroke-linejoin="round"/>
    <path d="M 211.46139526367188 375.87701416015625 C 205.9630126953125 374.6098937988281 202.04244995117188 375.702880859375 198.18312072753906 376.3907470703125 C 196.5701446533203 377.6269226074219 196.89820861816406 379.648193359375 197.62852478027344 382.9961242675781 C 199.81607055664062 384.9548645019531 203.02569580078125 386.7832946777344 209.44219970703125 388.510498046875 C 211.65408325195312 384.1808776855469 211.54708862304688 380.6244201660156 211.46139526367188 375.87701416015625" stroke-width="0.0" fill="rgb(63, 52, 35)" opacity="0.9996691" stroke="rgb(0, 0, 0)" stroke-opacity="1.0" stroke-linecap="round" stroke-linejoin="round"/>
    <path d="M 156.55535888671875 436.2707214355469 C 154.39649963378906 442.76531982421875 154.67105102539062 443.0870056152344 155.6553955078125 443.1665344238281 C 159.88763427734375 443.52935791015625 161.72091674804688 443.9776611328125 164.0423583984375 437.9114074707031 C 162.96536254882812 436.3657531738281 160.85279846191406 435.8324279785156 156.55535888671875 436.2707214355469" stroke-width="0.0" fill="rgb(97, 78, 54)" opacity="0.9999569" stroke="rgb(0, 0, 0)" stroke-opacity="1.0" stroke-linecap="round" stroke-linejoin="round"/>
    <path d="M -1.1844847202301025 483.10107421875 C -1.3913580179214478 492.3290100097656 -0.8370169401168823 501.6651306152344 -0.17098984122276306 514.6665649414062 C 170.33206176757812 514.754638671875 340.6654968261719 514.8419799804688 513.6798095703125 514.8866577148438 C 513.7093505859375 501.79132080078125 513.7626953125 492.4668884277344 513.8099365234375 483.90045166015625 C 340.7947998046875 484.4039306640625 170.6207733154297 483.7193908691406 -1.1844847202301025 483.10107421875" stroke-width="0.0" fill="rgb(130, 102, 60)" opacity="1.0262251" stroke="rgb(0, 0, 0)" stroke-opacity="1.0" stroke-linecap="round" stroke-linejoin="round"/>
    <path d="M 309.3299560546875 483.9766845703125 C 296.7855224609375 477.8685607910156 285.6043701171875 474.3644714355469 279.4670715332031 465.65716552734375 C 275.4129638671875 458.62725830078125 269.96331787109375 453.119873046875 263.44036865234375 448.7468566894531 C 261.4336242675781 446.9017639160156 262.3345947265625 444.9029541015625 267.0070495605469 442.4928283691406 C 176.36334228515625 443.1070556640625 87.93099975585938 443.4408874511719 -1.9865329265594482 443.4779968261719 C -2.0502610206604004 456.26995849609375 -2.0827739238739014 469.3993225097656 -0.8163090944290161 484.8477478027344 C 106.90254211425781 485.1468811035156 210.37429809570312 484.6455078125 309.3299560546875 483.9766845703125" stroke-width="0.0" fill="rgb(107, 81, 54)" opacity="0.99288404" stroke="rgb(0, 0, 0)" stroke-opacity="1.0" stroke-linecap="round" stroke-linejoin="round"/>
    <path d="M 69.60448455810547 422.78509521484375 C 71.15999603271484 428.10516357421875 72.01266479492188 428.6521911621094 77.231201171875 429.0343933105469 C 79.76382446289062 429.8055419921875 82.01065063476562 427.680419921875 82.91337585449219 422.6505432128906 C 74.34861755371094 419.7335510253906 71.03175354003906 420.8952941894531 69.60448455810547 422.78509521484375" stroke-width="0.0" fill="rgb(171, 164, 148)" opacity="1.0035974" stroke="rgb(0, 0, 0)" stroke-opacity="1.0" stroke-linecap="round" stroke-linejoin="round"/>
    <path d="M 23.576467514038086 327.42449951171875 C 16.441688537597656 330.4486083984375 13.219802856445312 332.202880859375 9.371262550354004 333.4336853027344 C 8.702686309814453 341.0987548828125 8.24346923828125 348.2860412597656 5.380219459533691 355.6239318847656 C 2.36746883392334 372.0268249511719 2.8903443813323975 388.0914306640625 4.269505023956299 403.7848815917969 C 19.817394256591797 402.8577880859375 27.874980926513672 400.7167053222656 35.58625411987305 396.2597961425781 C 32.48358917236328 368.17401123046875 28.711896896362305 346.36041259765625 23.576467514038086 327.42449951171875" stroke-width="0.0" fill="rgb(53, 60, 53)" opacity="0.9929514" stroke="rgb(0, 0, 0)" stroke-opacity="1.0" stroke-linecap="round" stroke-linejoin="round"/>
    <path d="M 214.9741668701172 324.80816650390625 C 206.43081665039062 328.62286376953125 201.06617736816406 333.9566955566406 197.42628479003906 342.36029052734375 C 193.1810302734375 348.1881408691406 192.2066192626953 355.68994140625 192.2086181640625 365.3124694824219 C 205.79293823242188 365.8778381347656 214.74685668945312 366.3935852050781 223.72296142578125 366.4801025390625 C 226.70068359375 360.0761413574219 229.90960693359375 353.954833984375 230.35549926757812 344.45159912109375 C 225.71372985839844 335.87713623046875 221.17489624023438 329.239501953125 214.9741668701172 324.80816650390625" stroke-width="0.0" fill="rgb(28, 40, 46)" opacity="0.98649913" stroke="rgb(0, 0, 0)" stroke-opacity="1.0" stroke-linecap="round" stroke-linejoin="round"/>
    <path d="M 28.44825553894043 341.84149169921875 C 29.262239456176758 361.4705505371094 33.08285140991211 377.0130920410156 37.54146957397461 393.7408142089844 C 56.0072021484375 394.1982421875 73.92281341552734 394.165771484375 95.24510955810547 394.38946533203125 C 96.34175109863281 392.8556823730469 96.8965835571289 389.9755554199219 92.65706634521484 385.76849365234375 C 71.86798095703125 370.4610595703125 50.828311920166016 355.8351135253906 28.44825553894043 341.84149169921875" stroke-width="0.0" fill="rgb(86, 113, 132)" opacity="1.003352" stroke="rgb(0, 0, 0)" stroke-opacity="1.0" stroke-linecap="round" stroke-linejoin="round"/>
    <path d="M 311.93829345703125 348.1015319824219 C 306.1834411621094 350.22979736328125 303.70098876953125 351.21142578125 298.6183166503906 349.6258544921875 C 296.27813720703125 354.3229064941406 293.14434814453125 357.3348693847656 292.4432678222656 364.35150146484375 C 302.0319519042969 363.9596252441406 307.9767150878906 361.62994384765625 314.0505676269531 358.94439697265625 C 315.46185302734375 353.46868896484375 314.34320068359375 351.4798278808594 311.93829345703125 348.1015319824219" stroke-width="0.0" fill="rgb(44, 53, 56)" opacity="0.9960098" stroke="rgb(0, 0, 0)" stroke-opacity="1.0" stroke-linecap="round" stroke-linejoin="round"/>
    <path d="M 230.42166137695312 348.48773193359375 C 225.2279052734375 354.38909912109375 222.7102508544922 358.74798583984375 219.68557739257812 365.2076110839844 C 219.5758056640625 369.8003234863281 221.56845092773438 372.1563720703125 225.99154663085938 374.1959228515625 C 231.8925323486328 375.3924255371094 233.7551727294922 373.58843994140625 236.1334228515625 369.3691711425781 C 234.90582275390625 360.71075439453125 233.3939208984375 354.6876525878906 230.42166137695312 348.48773193359375" stroke-width="0.0" fill="rgb(78, 67, 45)" opacity="0.99922675" stroke="rgb(0, 0, 0)" stroke-opacity="1.0" stroke-linecap="round" stroke-linejoin="round"/>
    <path d="M 335.02215576171875 340.4863586425781 C 330.3246765136719 345.138916015625 328.4619140625 350.19866943359375 327.8283996582031 360.5863037109375 C 334.84735107421875 360.0277404785156 338.552734375 359.2523193359375 343.589111328125 356.1410217285156 C 342.8797302246094 347.7672424316406 340.7337951660156 343.6052551269531 335.02215576171875 340.4863586425781" stroke-width="0.0" fill="rgb(43, 51, 50)" opacity="0.9992289" stroke="rgb(0, 0, 0)" stroke-opacity="1.0" stroke-linecap="round" stroke-linejoin="round"/>
    <path d="M 278.90362548828125 352.9080810546875 C 277.46478271484375 356.8988952636719 275.0675048828125 360.7384033203125 274.971435546875 368.0246276855469 C 280.965087890625 368.2001037597656 285.02984619140625 367.1412658691406 292.5653381347656 364.2697448730469 C 290.13665771484375 356.3598327636719 281.96881103515625 357.52313232421875 278.90362548828125 352.9080810546875" stroke-width="0.0" fill="rgb(58, 67, 71)" opacity="0.99971044" stroke="rgb(0, 0, 0)" stroke-opacity="1.0" stroke-linecap="round" stroke-linejoin="round"/>
    <path d="M 96.02194213867188 379.0959777832031 C 97.65693664550781 379.17218017578125 96.67150115966797 382.3593444824219 96.40435791015625 383.2010803222656 C 98.3468246459961 385.97808837890625 102.33737182617188 392.21783447265625 94.74899291992188 396.9326171875 C 92.8132553100586 392.7189636230469 93.53413391113281 387.81072998046875 96.02194213867188 379.0959777832031" stroke-width="0.0" fill="rgb(64, 84, 98)" opacity="0.9990196" stroke="rgb(0, 0, 0)" stroke-opacity="1.0" stroke-linecap="round" stroke-linejoin="round"/>
    <path d="M 47.61094284057617 398.6903381347656 C 42.037689208984375 396.4832458496094 37.18462371826172 396.4527587890625 30.11394691467285 397.4553527832031 C 19.45233726501465 401.49725341796875 10.01303482055664 406.054443359375 -0.8341593146324158 410.6962585449219 C -2.1208248138427734 418.19580078125 -2.0440690517425537 428.5692138671875 -0.9593667984008789 439.9051513671875 C 19.017812728881836 440.08148193359375 34.02335739135742 438.4652099609375 49.10188293457031 436.0968017578125 C 48.150352478027344 420.04705810546875 48.079071044921875 410.6917724609375 47.61094284057617 398.6903381347656" stroke-width="0.0" fill="rgb(56, 57, 59)" opacity="1.0001497" stroke="rgb(0, 0, 0)" stroke-opacity="1.0" stroke-linecap="round" stroke-linejoin="round"/>
    <path d="M 431.0600280761719 423.71197509765625 C 434.9595642089844 431.18072509765625 439.550048828125 435.3994445800781 445.1210632324219 438.23236083984375 C 443.2919921875 436.4048156738281 441.9443664550781 437.88311767578125 441.503662109375 444.1068115234375 C 464.26043701171875 445.792236328125 486.6832580566406 446.7095642089844 513.4180297851562 446.48870849609375 C 513.6807861328125 436.404541015625 513.7056274414062 428.50750732421875 513.2590942382812 421.1348876953125 C 484.7964172363281 421.75213623046875 458.51861572265625 422.27655029296875 431.0600280761719 423.71197509765625" stroke-width="0.0" fill="rgb(94, 70, 42)" opacity="0.99884236" stroke="rgb(0, 0, 0)" stroke-opacity="1.0" stroke-linecap="round" stroke-linejoin="round"/>
    <path d="M 305.0766296386719 363.2324523925781 C 300.03900146484375 367.2960510253906 296.7427062988281 376.7100524902344 295.0119934082031 393.17919921875 C 302.5057067871094 397.0729675292969 312.0837097167969 399.6153869628906 329.2950134277344 401.9057922363281 C 331.6703186035156 393.5166320800781 333.4788818359375 383.72076416015625 333.8459167480469 372.7568359375 C 328.6653137207031 367.5964660644531 326.49078369140625 365.2086486816406 325.82708740234375 361.59576416015625 C 318.9477844238281 359.0929260253906 312.8876953125 362.4781188964844 305.0766296386719 363.2324523925781" stroke-width="0.0" fill="rgb(21, 27, 24)" opacity="0.99973565" stroke="rgb(0, 0, 0)" stroke-opacity="1.0" stroke-linecap="round" stroke-linejoin="round"/>
    <path d="M 109.76578521728516 397.6665344238281 C 95.01439666748047 393.7344970703125 82.99118041992188 394.4127197265625 72.16630554199219 400.1690368652344 C 62.709041595458984 401.34014892578125 56.62119674682617 405.31268310546875 51.37353515625 410.7633056640625 C 58.84724426269531 415.2581481933594 62.26321792602539 421.5003967285156 70.90460968017578 426.3547668457031 C 84.98733520507812 418.3554992675781 97.6585464477539 410.4076232910156 109.76578521728516 397.6665344238281" stroke-width="0.0" fill="rgb(61, 66, 68)" opacity="0.99884295" stroke="rgb(0, 0, 0)" stroke-opacity="1.0" stroke-linecap="round" stroke-linejoin="round"/>
    <path d="M 485.98736572265625 316.80517578125 C 477.4498596191406 322.5611572265625 476.2189025878906 329.0322570800781 475.3025817871094 334.81524658203125 C 477.9163818359375 340.8911437988281 476.68499755859375 348.7530212402344 478.1094665527344 355.1329345703125 C 479.48297119140625 357.53424072265625 481.2033386230469 358.4453125 488.24407958984375 359.4750671386719 C 490.3763732910156 355.33709716796875 491.9776611328125 350.4810485839844 491.3126525878906 342.77520751953125 C 490.1775817871094 331.4241638183594 488.68426513671875 322.8586120605469 485.98736572265625 316.80517578125" stroke-width="0.0" fill="rgb(28, 36, 36)" opacity="0.9999919" stroke="rgb(0, 0, 0)" stroke-opacity="1.0" stroke-linecap="round" stroke-linejoin="round"/>
    <path d="M 374.35150146484375 326.8356628417969 C 368.50872802734375 336.7406921386719 368.5846252441406 345.08203125 366.5043029785156 353.80511474609375 C 366.7724304199219 357.8285217285156 368.95941162109375 359.65753173828125 379.0184631347656 360.76605224609375 C 378.44659423828125 345.40924072265625 377.1745910644531 336.0627136230469 374.35150146484375 326.8356628417969" stroke-width="0.0" fill="rgb(39, 47, 46)" opacity="0.9989277" stroke="rgb(0, 0, 0)" stroke-opacity="1.0" stroke-linecap="round" stroke-linejoin="round"/>
    <path d="M 476.18603515625 471.9587707519531 C 475.1225280761719 478.8788146972656 474.3629150390625 480.91302490234375 476.5142822265625 483.0917663574219 C 483.7959289550781 483.0414733886719 487.7438659667969 482.8443603515625 490.27825927734375 479.7064514160156 C 485.8345642089844 473.4481506347656 482.54620361328125 471.9458312988281 476.18603515625 471.9587707519531" stroke-width="0.0" fill="rgb(74, 54, 33)" opacity="1.0001549" stroke="rgb(0, 0, 0)" stroke-opacity="1.0" stroke-linecap="round" stroke-linejoin="round"/>
    <path d="M 64.73147583007812 423.1378173828125 C 57.44757080078125 421.1993408203125 55.57584762573242 422.2767333984375 54.7384033203125 424.1300354003906 C 52.629661560058594 428.76458740234375 51.56298828125 432.0164489746094 58.76627731323242 436.2709045410156 C 61.59526062011719 433.66644287109375 63.46187973022461 429.88690185546875 64.73147583007812 423.1378173828125" stroke-width="0.0" fill="rgb(29, 27, 33)" opacity="1.0002922" stroke="rgb(0, 0, 0)" stroke-opacity="1.0" stroke-linecap="round" stroke-linejoin="round"/>
    <path d="M 101.31665802001953 385.6837158203125 C 103.44376373291016 387.99737548828125 104.77783966064453 389.1905212402344 104.27770233154297 389.88385009765625 C 106.35147094726562 392.84088134765625 106.44908142089844 396.30084228515625 99.97541809082031 397.4087219238281 C 99.85070037841797 390.60711669921875 100.93927001953125 388.1252136230469 101.31665802001953 385.6837158203125" stroke-width="0.0" fill="rgb(84, 104, 116)" opacity="0.9997044" stroke="rgb(0, 0, 0)" stroke-opacity="1.0" stroke-linecap="round" stroke-linejoin="round"/>
    <path d="M 279.032958984375 351.5594177246094 C 276.9383239746094 356.6122741699219 275.58154296875 361.4124755859375 274.623046875 369.13958740234375 C 278.8229675292969 368.6626892089844 281.5837097167969 368.4773254394531 284.3459167480469 366.5549011230469 C 283.461181640625 360.02117919921875 281.535400390625 355.9825744628906 279.032958984375 351.5594177246094" stroke-width="0.0" fill="rgb(46, 59, 66)" opacity="0.9993452" stroke="rgb(0, 0, 0)" stroke-opacity="1.0" stroke-linecap="round" stroke-linejoin="round"/>
    <path d="M 45.932830810546875 376.0659484863281 C 41.96151351928711 380.97296142578125 41.06940460205078 386.5428161621094 40.51918029785156 394.8782958984375 C 46.192996978759766 395.4908447265625 48.14334487915039 394.901611328125 52.464813232421875 393.4135437011719 C 51.27571487426758 385.9118347167969 49.60305404663086 381.3845520019531 45.932830810546875 376.0659484863281" stroke-width="0.0" fill="rgb(41, 61, 73)" opacity="1.0016311" stroke="rgb(0, 0, 0)" stroke-opacity="1.0" stroke-linecap="round" stroke-linejoin="round"/>
  </g>
</svg>
