<?xml version="1.0" ?>
<svg xmlns="http://www.w3.org/2000/svg" version="1.1" width="512" height="512">
  <defs/>
  <g>
    <path d="M -3.427827835083008 -3.1728322505950928 C -3.1783807277679443 170.3333282470703 -2.2572145462036133 340.6666564941406 -0.9782600402832031 518.1470336914062 C 169.68341064453125 518.7542724609375 339.5256042480469 519.751708984375 518.3021850585938 520.7605590820312 C 518.780029296875 342.0301513671875 519.0031127929688 171.18292236328125 519.1744384765625 -2.445077896118164 C 340.6666564941406 -2.8651936054229736 170.3333282470703 -3.020665407180786 -3.427827835083008 -3.1728322505950928" stroke-width="0.0" fill="rgb(155, 196, 235)" opacity="0.8056974" stroke="rgb(0, 0, 0)" stroke-opacity="1.0" stroke-linecap="round" stroke-linejoin="round"/>
    <path d="M 519.2142944335938 215.80299377441406 C 489.06964111328125 211.19424438476562 478.81121826171875 213.64285278320312 461.40185546875 218.4195556640625 C 402.8198547363281 244.14511108398438 350.2281799316406 276.7687683105469 287.9377746582031 298.33050537109375 C 261.2866516113281 293.8769836425781 241.07992553710938 286.8423767089844 210.8574676513672 287.3644104003906 C 176.9552459716797 280.736083984375 159.30032348632812 254.47511291503906 114.14903259277344 248.85995483398438 C 82.23262786865234 260.84417724609375 48.529449462890625 281.7789306640625 -11.604217529296875 299.55670166015625 C -11.924840927124023 355.508544921875 -11.811933517456055 429.52886962890625 -11.171249389648438 521.2711181640625 C 166.72865295410156 521.0155029296875 338.6103515625 519.9292602539062 519.1890869140625 518.881591796875 C 518.724609375 414.45294189453125 518.94140625 315.307373046875 519.2142944335938 215.80299377441406" stroke-width="0.0" fill="rgb(97, 125, 147)" opacity="0.86831045" stroke="rgb(0, 0, 0)" stroke-opacity="1.0" stroke-linecap="round" stroke-linejoin="round"/>
    <path d="M -3.763195514678955 211.7330780029297 C -8.561476707458496 246.24220275878906 -9.00163745880127 272.86602783203125 -8.266524314880371 296.5795593261719 C 7.7923197746276855 292.8215026855469 10.776829719543457 290.3519287109375 12.534725189208984 289.2418212890625 C 13.96886920928955 278.7318115234375 16.256689071655273 270.1385192871094 13.883194923400879 257.17950439453125 C 14.615591049194336 237.7534637451172 9.808171272277832 228.0513153076172 -3.763195514678955 211.7330780029297" stroke-width="0.0" fill="rgb(215, 232, 246)" opacity="1.001424" stroke="rgb(0, 0, 0)" stroke-opacity="1.0" stroke-linecap="round" stroke-linejoin="round"/>
    <path d="M 164.8612823486328 265.77557373046875 C 178.83412170410156 275.9703369140625 194.185546875 283.77459716796875 217.71234130859375 290.5755310058594 C 236.33221435546875 287.4027099609375 254.01089477539062 291.763916015625 279.0996398925781 297.4983215332031 C 251.77484130859375 285.8424072265625 228.92776489257812 274.9332275390625 207.6453094482422 266.0626220703125 C 196.3682098388672 263.6664733886719 177.36021423339844 262.2584533691406 164.8612823486328 265.77557373046875" stroke-width="0.0" fill="rgb(201, 218, 229)" opacity="1.0032558" stroke="rgb(0, 0, 0)" stroke-opacity="1.0" stroke-linecap="round" stroke-linejoin="round"/>
    <path d="M 119.2342529296875 194.11801147460938 C 116.80982208251953 192.71914672851562 113.51316833496094 196.2772216796875 111.65432739257812 198.6421661376953 C 112.40569305419922 211.57940673828125 111.6385726928711 230.2593231201172 111.8521957397461 238.2174072265625 C 118.0174789428711 240.01376342773438 121.5132827758789 240.02964782714844 119.9144058227539 237.71266174316406 C 120.19245910644531 217.43348693847656 123.22774505615234 208.5714569091797 119.2342529296875 194.11801147460938" stroke-width="0.0" fill="rgb(199, 220, 240)" opacity="1.0070924" stroke="rgb(0, 0, 0)" stroke-opacity="1.0" stroke-linecap="round" stroke-linejoin="round"/>
    <path d="M 519.6239624023438 303.4747314453125 C 483.21337890625 311.2776184082031 462.912353515625 325.37823486328125 429.42352294921875 332.62652587890625 C 407.0574951171875 339.7110290527344 378.75982666015625 337.7765197753906 351.0732116699219 340.6631774902344 C 321.7850646972656 352.6470947265625 286.02362060546875 357.02130126953125 253.80931091308594 365.2183837890625 C 248.2062530517578 364.745849609375 235.67759704589844 365.6990966796875 232.91050720214844 360.78509521484375 C 220.44703674316406 354.1606140136719 226.6793975830078 339.78460693359375 213.08853149414062 341.90130615234375 C 197.7294158935547 342.8404541015625 197.6952362060547 362.8712158203125 183.40744018554688 371.9482116699219 C 156.90234375 376.6457824707031 138.09510803222656 388.9027099609375 120.028564453125 390.7923583984375 C 103.76898956298828 392.8897399902344 96.28681182861328 389.29400634765625 86.02791595458984 386.5325012207031 C 61.67095947265625 375.80804443359375 39.49118423461914 362.7461242675781 18.45222282409668 349.0954895019531 C 10.364952087402344 345.72723388671875 5.815539360046387 346.1936950683594 -8.344892501831055 352.78631591796875 C -9.061396598815918 398.04083251953125 -8.732358932495117 453.14398193359375 -8.04928207397461 520.4462280273438 C 168.01605224609375 520.55712890625 339.5143737792969 519.6213989257812 518.3301391601562 518.7460327148438 C 519.2627563476562 441.4568176269531 521.0350341796875 370.80859375 519.6239624023438 303.4747314453125" stroke-width="0.0" fill="rgb(49, 48, 43)" opacity="1.0182209" stroke="rgb(0, 0, 0)" stroke-opacity="1.0" stroke-linecap="round" stroke-linejoin="round"/>
    <path d="M 522.3463134765625 216.5850372314453 C 485.60821533203125 211.6582489013672 474.845947265625 213.19363403320312 456.4810791015625 219.9663543701172 C 407.80450439453125 243.77186584472656 359.9589538574219 268.11163330078125 311.18621826171875 291.2008056640625 C 280.732177734375 299.4494323730469 252.6583251953125 309.5111389160156 224.6331787109375 319.0878601074219 C 220.34934997558594 328.13775634765625 214.8888702392578 315.4963073730469 218.3564910888672 328.1317138671875 C 226.03729248046875 334.89410400390625 229.14175415039062 344.5137939453125 234.9315643310547 354.2584228515625 C 240.2295684814453 357.2176208496094 240.3748779296875 361.1432189941406 251.7423858642578 361.92291259765625 C 287.3981628417969 355.6513977050781 321.28570556640625 346.5890197753906 354.1918029785156 338.44390869140625 C 377.5272216796875 336.0707702636719 410.019287109375 336.5934753417969 421.53802490234375 331.43670654296875 C 454.6153564453125 323.93804931640625 479.5838928222656 311.6242370605469 518.4428100585938 300.12786865234375 C 522.379150390625 281.53369140625 522.1915893554688 251.51434326171875 522.3463134765625 216.5850372314453" stroke-width="0.0" fill="rgb(110, 133, 152)" opacity="0.96589965" stroke="rgb(0, 0, 0)" stroke-opacity="1.0" stroke-linecap="round" stroke-linejoin="round"/>
    <path d="M 235.4997100830078 297.29248046875 C 187.79286193847656 292.8635559082031 164.2171173095703 256.35400390625 114.2093734741211 245.51058959960938 C 77.42363739013672 266.0190734863281 43.179725646972656 284.2899475097656 -3.598827600479126 296.41729736328125 C -9.000435829162598 302.4775390625 -8.9198637008667 321.1163635253906 -2.699110984802246 324.7357482910156 C 30.214879989624023 339.9812316894531 56.411834716796875 361.01739501953125 85.3341293334961 380.5137939453125 C 95.6889419555664 383.1983642578125 100.49433898925781 391.05645751953125 119.20094299316406 389.3780517578125 C 140.46734619140625 387.1043701171875 159.79856872558594 374.6714172363281 186.55746459960938 367.5165100097656 C 191.9842987060547 359.03778076171875 191.32859802246094 342.3658447265625 202.60452270507812 331.6590576171875 C 209.84158325195312 319.0229797363281 237.67578125 324.3907470703125 235.4997100830078 297.29248046875" stroke-width="0.0" fill="rgb(140, 167, 188)" opacity="0.9605739" stroke="rgb(0, 0, 0)" stroke-opacity="1.0" stroke-linecap="round" stroke-linejoin="round"/>
    <path d="M -7.662054538726807 324.5714416503906 C -8.601272583007812 347.144775390625 -8.95419979095459 361.77703857421875 -4.361848831176758 385.37432861328125 C 4.760523319244385 364.4123229980469 9.129011154174805 346.3428955078125 11.41165828704834 334.63458251953125 C 8.988102912902832 328.93316650390625 4.628600597381592 327.48638916015625 -7.662054538726807 324.5714416503906" stroke-width="0.0" fill="rgb(129, 151, 170)" opacity="1.0183954" stroke="rgb(0, 0, 0)" stroke-opacity="1.0" stroke-linecap="round" stroke-linejoin="round"/>
    <path d="M 95.15216827392578 382.1292419433594 C 94.39163208007812 384.31103515625 95.0801010131836 385.90887451171875 91.54153442382812 384.70965576171875 C 101.86101531982422 384.30706787109375 96.27125549316406 387.6893005371094 98.33425903320312 389.653564453125 C 92.27774047851562 390.2699279785156 92.27294158935547 386.3433837890625 95.15216827392578 382.1292419433594" stroke-width="0.0" fill="rgb(67, 88, 102)" opacity="0.9990145" stroke="rgb(0, 0, 0)" stroke-opacity="1.0" stroke-linecap="round" stroke-linejoin="round"/>
    <path d="M 518.4924926757812 412.42926025390625 C 499.7242431640625 417.529541015625 487.2680969238281 419.33447265625 469.1075439453125 421.09173583984375 C 447.520263671875 422.2181091308594 437.5740051269531 433.7886047363281 406.5060729980469 438.1477355957031 C 283.00909423828125 442.5997009277344 140.7615509033203 442.12420654296875 -7.238626480102539 441.2348937988281 C -6.223573207855225 463.7141418457031 -6.616064071655273 486.6248779296875 -6.682377338409424 520.08056640625 C 169.78994750976562 519.64453125 340.49139404296875 518.9546508789062 518.216796875 518.475830078125 C 518.575927734375 480.9570617675781 518.6397705078125 450.33795166015625 518.4924926757812 412.42926025390625" stroke-width="0.0" fill="rgb(95, 69, 43)" opacity="0.96073794" stroke="rgb(0, 0, 0)" stroke-opacity="1.0" stroke-linecap="round" stroke-linejoin="round"/>
    <path d="M 215.50308227539062 332.2883605957031 C 207.76419067382812 330.0421447753906 201.90521240234375 339.25592041015625 197.0935821533203 345.3442077636719 C 194.34178161621094 352.4764709472656 190.08201599121094 360.9106140136719 191.23439025878906 371.614501953125 C 208.36846923828125 373.7054138183594 224.41586303710938 373.4386901855469 232.56959533691406 364.8839111328125 C 229.8443145751953 348.7181091308594 224.99339294433594 338.34967041015625 215.50308227539062 332.2883605957031" stroke-width="0.0" fill="rgb(42, 49, 45)" opacity="0.9689944" stroke="rgb(0, 0, 0)" stroke-opacity="1.0" stroke-linecap="round" stroke-linejoin="round"/>
    <path d="M 72.8708267211914 420.9727783203125 C 81.8115463256836 418.8382263183594 85.00455474853516 424.0409851074219 79.48906707763672 430.11737060546875 C 77.37438201904297 429.59429931640625 78.07987213134766 435.2572326660156 71.64933013916016 430.33575439453125 C 69.22640228271484 422.81219482421875 74.28925323486328 419.4217224121094 72.8708267211914 420.9727783203125" stroke-width="0.0" fill="rgb(139, 131, 116)" opacity="0.95167035" stroke="rgb(0, 0, 0)" stroke-opacity="1.0" stroke-linecap="round" stroke-linejoin="round"/>
    <path d="M -4.6553168296813965 330.644287109375 C -5.003724575042725 354.38775634765625 -6.323478698730469 377.1020812988281 -7.6319499015808105 397.815673828125 C 35.1611213684082 399.280517578125 69.5727310180664 396.92816162109375 104.07715606689453 394.1387023925781 C 72.35826873779297 373.7013854980469 45.45870590209961 354.4641418457031 18.094167709350586 336.0470886230469 C 12.545048713684082 335.0043029785156 6.607067108154297 331.9132385253906 -4.6553168296813965 330.644287109375" stroke-width="0.0" fill="rgb(65, 83, 94)" opacity="0.7455309" stroke="rgb(0, 0, 0)" stroke-opacity="1.0" stroke-linecap="round" stroke-linejoin="round"/>
    <path d="M 516.0836181640625 300.2273254394531 C 490.5842590332031 309.76312255859375 469.3779602050781 317.2334899902344 448.566650390625 328.6282653808594 C 452.6070556640625 336.6500549316406 461.010986328125 349.4037780761719 451.1880798339844 362.13250732421875 C 463.6184387207031 366.1781921386719 488.21124267578125 365.79217529296875 519.8571166992188 366.2307434082031 C 518.7911376953125 343.2838439941406 519.6563110351562 321.5392150878906 516.0836181640625 300.2273254394531" stroke-width="0.0" fill="rgb(28, 37, 40)" opacity="0.89578086" stroke="rgb(0, 0, 0)" stroke-opacity="1.0" stroke-linecap="round" stroke-linejoin="round"/>
    <path d="M 297.601318359375 379.10040283203125 C 295.03179931640625 383.7857666015625 298.1812744140625 388.70458984375 300.201416015625 392.48724365234375 C 302.5240783691406 395.9595642089844 309.12530517578125 398.684814453125 319.006103515625 399.2729797363281 C 334.4844970703125 398.766357421875 352.0497741699219 397.9266052246094 360.295166015625 388.91107177734375 C 362.0711364746094 376.6872253417969 351.7969665527344 368.16436767578125 344.6089782714844 361.5652160644531 C 335.17578125 362.76239013671875 315.32061767578125 360.88519287109375 312.24853515625 362.5157775878906 C 303.0089416503906 365.6448669433594 298.43408203125 372.3988952636719 297.601318359375 379.10040283203125" stroke-width="0.0" fill="rgb(17, 22, 22)" opacity="1.004574" stroke="rgb(0, 0, 0)" stroke-opacity="1.0" stroke-linecap="round" stroke-linejoin="round"/>
    <path d="M 357.1822509765625 323.02557373046875 C 351.63739013671875 330.2591247558594 348.0335388183594 341.63311767578125 343.7278747558594 350.06500244140625 C 347.1131286621094 357.0450439453125 350.6489562988281 358.697265625 361.39227294921875 357.90228271484375 C 368.0089111328125 354.9237060546875 365.5703125 355.5044250488281 366.16522216796875 343.0128173828125 C 363.7212219238281 335.5855712890625 361.6244812011719 325.29248046875 357.1822509765625 323.02557373046875" stroke-width="0.0" fill="rgb(21, 30, 34)" opacity="0.92770934" stroke="rgb(0, 0, 0)" stroke-opacity="1.0" stroke-linecap="round" stroke-linejoin="round"/>
    <path d="M -4.752475261688232 438.8468017578125 C 21.955549240112305 445.8786315917969 38.4188117980957 437.3956604003906 59.3349609375 434.2718811035156 C 72.55109405517578 420.2728271484375 91.89756774902344 414.21917724609375 101.76908874511719 398.13494873046875 C 61.76348876953125 394.6162109375 36.11397933959961 395.2614440917969 -4.479470252990723 410.03076171875 C -4.965994358062744 414.68951416015625 -5.241079330444336 427.90118408203125 -4.752475261688232 438.8468017578125" stroke-width="0.0" fill="rgb(43, 47, 48)" opacity="1.0035421" stroke="rgb(0, 0, 0)" stroke-opacity="1.0" stroke-linecap="round" stroke-linejoin="round"/>
    <path d="M 346.22332763671875 353.1153564453125 C 343.0885009765625 347.2626037597656 339.2888488769531 344.31951904296875 335.8007507324219 342.80389404296875 C 329.9832763671875 344.96893310546875 331.0306701660156 351.79510498046875 315.9162292480469 350.89678955078125 C 293.9844665527344 344.1529846191406 298.3324279785156 362.2447204589844 279.9568176269531 355.7470703125 C 281.23040771484375 349.8013916015625 274.1553039550781 359.72198486328125 276.0147705078125 366.9822998046875 C 299.8367004394531 367.7845764160156 303.6385192871094 356.9874572753906 346.3208312988281 357.543212890625 C 339.1753845214844 357.2194519042969 347.1529235839844 358.30352783203125 346.22332763671875 353.1153564453125" stroke-width="0.0" fill="rgb(78, 91, 96)" opacity="0.9691287" stroke="rgb(0, 0, 0)" stroke-opacity="1.0" stroke-linecap="round" stroke-linejoin="round"/>
    <path d="M 448.8608093261719 330.01708984375 C 443.63397216796875 336.6140441894531 438.5021667480469 341.9612121582031 436.3160400390625 348.6004333496094 C 436.7935485839844 355.4495544433594 435.3668518066406 356.68389892578125 440.3754577636719 361.0904846191406 C 450.23016357421875 361.3534851074219 454.0826416015625 362.6321716308594 454.82305908203125 355.88531494140625 C 457.5902404785156 346.82208251953125 454.30841064453125 337.6540832519531 448.8608093261719 330.01708984375" stroke-width="0.0" fill="rgb(65, 57, 29)" opacity="0.98490816" stroke="rgb(0, 0, 0)" stroke-opacity="1.0" stroke-linecap="round" stroke-linejoin="round"/>
    <path d="M 381.6956481933594 327.7094421386719 C 379.8244934082031 334.51397705078125 376.75042724609375 335.88836669921875 372.1830139160156 332.9492492675781 C 363.8487548828125 350.2654724121094 367.53326416015625 341.68927001953125 369.46435546875 357.6358947753906 C 377.5938720703125 359.8092041015625 382.6546630859375 361.589111328125 384.2372131347656 354.5723571777344 C 387.2801818847656 349.68902587890625 386.05242919921875 337.4972839355469 381.6956481933594 327.7094421386719" stroke-width="0.0" fill="rgb(40, 49, 52)" opacity="0.9344955" stroke="rgb(0, 0, 0)" stroke-opacity="1.0" stroke-linecap="round" stroke-linejoin="round"/>
    <path d="M 249.46726989746094 425.5528869628906 C 250.24864196777344 430.1217041015625 260.0671691894531 427.7018127441406 265.6337585449219 429.2559814453125 C 275.1278381347656 427.9065246582031 283.3238220214844 427.44158935546875 283.290283203125 421.40289306640625 C 279.582275390625 416.9052734375 273.1317443847656 414.9440612792969 264.6080322265625 415.9327087402344 C 257.2831115722656 419.0869445800781 248.27980041503906 418.4319763183594 249.46726989746094 425.5528869628906" stroke-width="0.0" fill="rgb(16, 21, 23)" opacity="1.0007482" stroke="rgb(0, 0, 0)" stroke-opacity="1.0" stroke-linecap="round" stroke-linejoin="round"/>
    <path d="M 390.2858581542969 335.2160949707031 C 385.4344177246094 336.0527038574219 386.20062255859375 344.61517333984375 385.8058776855469 352.754638671875 C 381.4375915527344 359.0639953613281 390.728515625 361.0479431152344 396.5794982910156 359.91363525390625 C 400.511474609375 359.5168762207031 399.5844421386719 350.6965026855469 397.29351806640625 339.7195129394531 C 396.7140197753906 335.9659423828125 395.62762451171875 334.27166748046875 390.2858581542969 335.2160949707031" stroke-width="0.0" fill="rgb(39, 46, 42)" opacity="0.97299385" stroke="rgb(0, 0, 0)" stroke-opacity="1.0" stroke-linecap="round" stroke-linejoin="round"/>
    <path d="M 401.1389465332031 338.02978515625 C 397.7648620605469 341.4271545410156 401.150146484375 349.35162353515625 399.9665832519531 358.7076110839844 C 402.1590576171875 361.2842102050781 404.7606201171875 361.5316162109375 410.03790283203125 360.9639892578125 C 411.36260986328125 355.66802978515625 409.0065612792969 347.894287109375 411.5135192871094 343.9869384765625 C 408.4969482421875 337.1575622558594 409.3097839355469 335.2966613769531 401.1389465332031 338.02978515625" stroke-width="0.0" fill="rgb(34, 43, 45)" opacity="0.9983822" stroke="rgb(0, 0, 0)" stroke-opacity="1.0" stroke-linecap="round" stroke-linejoin="round"/>
    <path d="M 289.3677062988281 404.7455139160156 C 285.56494140625 407.8590087890625 285.9936218261719 411.57666015625 297.2479553222656 413.0657653808594 C 303.7071533203125 412.57977294921875 310.1221923828125 415.1841735839844 310.2056579589844 406.45892333984375 C 306.14178466796875 400.6133728027344 292.9951171875 402.2069091796875 289.3677062988281 404.7455139160156" stroke-width="0.0" fill="rgb(13, 18, 20)" opacity="1.0008188" stroke="rgb(0, 0, 0)" stroke-opacity="1.0" stroke-linecap="round" stroke-linejoin="round"/>
    <path d="M 97.8467025756836 380.7334289550781 C 92.08493041992188 383.6419982910156 93.22562408447266 388.8328552246094 93.68890380859375 396.2513427734375 C 96.95965576171875 395.47967529296875 102.59101104736328 398.0068359375 106.76193237304688 392.7557067871094 C 100.82254028320312 388.827392578125 96.66729736328125 386.69464111328125 97.8467025756836 380.7334289550781" stroke-width="0.0" fill="rgb(80, 100, 113)" opacity="0.99432856" stroke="rgb(0, 0, 0)" stroke-opacity="1.0" stroke-linecap="round" stroke-linejoin="round"/>
    <path d="M 446.1768798828125 385.6636047363281 C 437.4922790527344 386.975341796875 433.56573486328125 386.28515625 432.99151611328125 393.2518310546875 C 434.7751159667969 397.151123046875 437.97540283203125 396.9160461425781 443.5682373046875 395.0699157714844 C 447.2034606933594 394.3150939941406 448.4286193847656 390.068115234375 446.1768798828125 385.6636047363281" stroke-width="0.0" fill="rgb(83, 64, 32)" opacity="1.0002376" stroke="rgb(0, 0, 0)" stroke-opacity="1.0" stroke-linecap="round" stroke-linejoin="round"/>
    <path d="M 34.76398468017578 341.9462890625 C 56.43849563598633 362.53460693359375 86.1935806274414 375.6640930175781 112.0672378540039 392.84527587890625 C 139.16018676757812 387.593994140625 154.95529174804688 374.0739440917969 191.3751678466797 368.8493347167969 C 189.6356201171875 349.2201232910156 194.72720336914062 341.548583984375 200.91757202148438 330.1563720703125 C 189.0737762451172 325.5392761230469 182.1085662841797 322.0354919433594 167.42550659179688 321.9445495605469 C 157.48338317871094 314.49835205078125 150.50782775878906 304.4886169433594 140.77444458007812 299.0563659667969 C 128.4660186767578 297.7547912597656 128.0352020263672 301.3924865722656 125.50926971435547 300.9087219238281 C 115.15451049804688 300.04180908203125 113.70594024658203 294.3521728515625 109.77786254882812 290.8802185058594 C 86.44230651855469 313.3394775390625 49.39792251586914 317.2847900390625 34.76398468017578 341.9462890625" stroke-width="0.0" fill="rgb(142, 169, 188)" opacity="0.94505835" stroke="rgb(0, 0, 0)" stroke-opacity="1.0" stroke-linecap="round" stroke-linejoin="round"/>
    <path d="M -4.576204776763916 321.0130920410156 C 3.170212507247925 325.8202209472656 2.644383430480957 329.13519287109375 11.8989839553833 329.0291442871094 C 15.235265731811523 326.2197570800781 15.4270601272583 320.53253173828125 20.802717208862305 320.0268859863281 C 27.077529907226562 324.7305603027344 25.149654388427734 337.5515441894531 30.91579818725586 340.1290588378906 C 55.54019546508789 322.9566650390625 85.45072937011719 311.9990234375 108.80939483642578 291.9189147949219 C 122.40758514404297 300.0016174316406 117.70408630371094 301.7981262207031 140.97901916503906 296.8644104003906 C 150.59783935546875 287.96978759765625 164.44720458984375 285.3748474121094 166.70693969726562 273.3743591308594 C 169.66978454589844 271.6360778808594 155.9433135986328 271.9906005859375 152.47779846191406 271.3442687988281 C 160.50267028808594 269.451904296875 170.518798828125 268.721435546875 177.6932373046875 273.41522216796875 C 189.3614044189453 282.89300537109375 205.9543914794922 290.4265441894531 219.0671844482422 299.6814270019531 C 246.91864013671875 292.27667236328125 248.89056396484375 309.4090881347656 282.0541076660156 299.8359069824219 C 256.9957275390625 285.2178649902344 227.92120361328125 276.34881591796875 203.97512817382812 262.3289794921875 C 187.16464233398438 265.50030517578125 175.8678436279297 260.6992492675781 159.82212829589844 261.9215393066406 C 143.2183380126953 255.76329040527344 132.21922302246094 246.58689880371094 112.45303344726562 243.13189697265625 C 101.34039306640625 251.24151611328125 86.06256103515625 259.4026794433594 74.84404754638672 266.9461364746094 C 48.49311447143555 276.1443176269531 28.276758193969727 288.5957336425781 -3.171382188796997 295.40069580078125 C -8.623475074768066 298.9859924316406 -7.178959846496582 311.0099792480469 -4.576204776763916 321.0130920410156" stroke-width="0.0" fill="rgb(172, 194, 211)" opacity="0.7879907" stroke="rgb(0, 0, 0)" stroke-opacity="1.0" stroke-linecap="round" stroke-linejoin="round"/>
    <path d="M 442.9559326171875 368.317138671875 C 438.01666259765625 378.4776306152344 446.2330627441406 374.1077880859375 449.49334716796875 377.54095458984375 C 473.03338623046875 376.5820007324219 488.9705810546875 385.2644958496094 508.40728759765625 381.1354675292969 C 519.765869140625 381.27520751953125 520.4525146484375 378.4294738769531 516.204833984375 374.1898193359375 C 488.05279541015625 365.3470458984375 475.6653137207031 366.4958801269531 442.9559326171875 368.317138671875" stroke-width="0.0" fill="rgb(65, 60, 44)" opacity="0.9953654" stroke="rgb(0, 0, 0)" stroke-opacity="1.0" stroke-linecap="round" stroke-linejoin="round"/>
    <path d="M 305.6123962402344 440.19244384765625 C 323.4754943847656 441.1668701171875 341.0812683105469 439.7420959472656 358.4190368652344 439.90545654296875 C 356.25323486328125 435.6183166503906 352.4267883300781 432.8734436035156 351.4739685058594 432.54412841796875 C 339.8045654296875 430.3961181640625 328.1494445800781 431.098388671875 316.1720886230469 430.2395935058594 C 316.4678039550781 438.2571105957031 304.8906555175781 434.3351745605469 305.6123962402344 440.19244384765625" stroke-width="0.0" fill="rgb(44, 40, 31)" opacity="1.0055628" stroke="rgb(0, 0, 0)" stroke-opacity="1.0" stroke-linecap="round" stroke-linejoin="round"/>
    <path d="M 440.109619140625 328.5929870605469 C 434.0224304199219 322.1319580078125 431.7421569824219 332.5054016113281 417.62152099609375 337.6943359375 C 419.4763488769531 347.81243896484375 421.3785095214844 352.3083190917969 420.39813232421875 356.88873291015625 C 424.2958984375 360.6390686035156 433.6435241699219 361.1854248046875 438.0829162597656 358.8314208984375 C 431.9740905761719 344.0632019042969 447.02850341796875 339.40576171875 440.109619140625 328.5929870605469" stroke-width="0.0" fill="rgb(40, 46, 45)" opacity="0.94856286" stroke="rgb(0, 0, 0)" stroke-opacity="1.0" stroke-linecap="round" stroke-linejoin="round"/>
    <path d="M 490.9803466796875 394.5035095214844 C 495.1738586425781 400.9261169433594 498.43975830078125 401.06341552734375 497.8919677734375 411.9792785644531 C 501.8339538574219 415.1092834472656 505.6570129394531 417.4044494628906 522.1749267578125 419.9583740234375 C 520.5992431640625 411.9654541015625 518.535400390625 401.6562805175781 517.6162719726562 388.9039001464844 C 506.23883056640625 392.85797119140625 500.0537414550781 394.1672668457031 490.9803466796875 394.5035095214844" stroke-width="0.0" fill="rgb(20, 23, 24)" opacity="0.99972165" stroke="rgb(0, 0, 0)" stroke-opacity="1.0" stroke-linecap="round" stroke-linejoin="round"/>
    <path d="M 368.31683349609375 393.08819580078125 C 367.1207580566406 399.5980224609375 367.4353942871094 402.3646545410156 374.34857177734375 403.0641174316406 C 379.8238220214844 403.6925964355469 388.9683532714844 400.450439453125 392.9179992675781 396.8546142578125 C 394.2547302246094 389.3711853027344 387.0081787109375 390.49078369140625 384.28265380859375 388.4776611328125 C 375.2436828613281 386.7686767578125 372.0706481933594 388.524169921875 368.31683349609375 393.08819580078125" stroke-width="0.0" fill="rgb(28, 29, 27)" opacity="1.0004888" stroke="rgb(0, 0, 0)" stroke-opacity="1.0" stroke-linecap="round" stroke-linejoin="round"/>
    <path d="M 446.85455322265625 375.8786926269531 C 448.0752258300781 381.1260070800781 453.8846435546875 383.0845947265625 461.75433349609375 385.0531921386719 C 467.7264099121094 388.16986083984375 480.6676025390625 385.257568359375 473.96429443359375 379.11273193359375 C 473.55841064453125 377.52532958984375 462.6853942871094 378.8260498046875 453.54583740234375 376.6508483886719 C 459.52508544921875 376.685302734375 455.37652587890625 379.1107482910156 446.85455322265625 375.8786926269531" stroke-width="0.0" fill="rgb(17, 21, 21)" opacity="1.0086042" stroke="rgb(0, 0, 0)" stroke-opacity="1.0" stroke-linecap="round" stroke-linejoin="round"/>
    <path d="M 351.4888000488281 395.1376647949219 C 345.46734619140625 400.4160461425781 348.302490234375 401.6031799316406 349.7818298339844 409.7155456542969 C 352.4639587402344 410.79571533203125 358.3518981933594 412.22088623046875 360.843505859375 410.3955993652344 C 365.2887268066406 409.1515197753906 362.6395568847656 405.6954345703125 364.32611083984375 399.7902526855469 C 359.87652587890625 398.3180847167969 354.1079406738281 395.01611328125 351.4888000488281 395.1376647949219" stroke-width="0.0" fill="rgb(39, 34, 25)" opacity="1.0000924" stroke="rgb(0, 0, 0)" stroke-opacity="1.0" stroke-linecap="round" stroke-linejoin="round"/>
    <path d="M 417.1233825683594 339.7986755371094 C 407.7062072753906 338.668701171875 412.27301025390625 346.7938537597656 409.540283203125 357.8760986328125 C 409.871826171875 360.7255554199219 414.5605163574219 360.5126953125 421.5381774902344 360.2882995605469 C 420.7882995605469 348.6620788574219 418.5342712402344 339.7445373535156 417.1233825683594 339.7986755371094" stroke-width="0.0" fill="rgb(28, 37, 39)" opacity="1.0004638" stroke="rgb(0, 0, 0)" stroke-opacity="1.0" stroke-linecap="round" stroke-linejoin="round"/>
    <path d="M 211.14920043945312 376.7911376953125 C 206.6143798828125 372.5835266113281 204.68560791015625 377.3191223144531 199.23910522460938 375.6300964355469 C 195.1130828857422 377.1402282714844 198.1543426513672 379.57037353515625 196.646728515625 383.4073486328125 C 200.57882690429688 383.97271728515625 203.23756408691406 387.82293701171875 207.6239013671875 387.2586669921875 C 212.8446044921875 385.9156799316406 210.3243865966797 381.0328674316406 211.14920043945312 376.7911376953125" stroke-width="0.0" fill="rgb(62, 52, 35)" opacity="0.99957746" stroke="rgb(0, 0, 0)" stroke-opacity="1.0" stroke-linecap="round" stroke-linejoin="round"/>
    <path d="M 157.28636169433594 437.03411865234375 C 151.89451599121094 440.4579772949219 156.8478546142578 442.8973693847656 155.0229034423828 441.7674255371094 C 157.52865600585938 444.5339660644531 164.64234924316406 443.0684814453125 163.04103088378906 438.3264465332031 C 162.07601928710938 436.1634826660156 161.6306915283203 437.2615966796875 157.28636169433594 437.03411865234375" stroke-width="0.0" fill="rgb(97, 78, 54)" opacity="0.9996553" stroke="rgb(0, 0, 0)" stroke-opacity="1.0" stroke-linecap="round" stroke-linejoin="round"/>
    <path d="M -4.900996685028076 481.87445068359375 C -3.1373982429504395 492.3258361816406 -1.664340615272522 501.6640930175781 -0.29917535185813904 520.314453125 C 170.3311767578125 520.5297241210938 340.66473388671875 520.7586669921875 517.83447265625 520.8818969726562 C 517.8115844726562 501.887451171875 517.869140625 492.5700988769531 520.5203857421875 481.8623352050781 C 334.9251708984375 486.1986083984375 169.27821350097656 484.8610534667969 -4.900996685028076 481.87445068359375" stroke-width="0.0" fill="rgb(128, 101, 60)" opacity="1.0653346" stroke="rgb(0, 0, 0)" stroke-opacity="1.0" stroke-linecap="round" stroke-linejoin="round"/>
    <path d="M 312.7630310058594 483.6474609375 C 303.1905822753906 475.5123291015625 285.9017333984375 476.54925537109375 278.19915771484375 465.8226318359375 C 275.806884765625 461.56390380859375 268.8832092285156 453.4396057128906 263.3500671386719 451.0095520019531 C 262.336669921875 441.7019348144531 259.8272705078125 448.76593017578125 266.27716064453125 442.83978271484375 C 176.0292510986328 442.9423828125 83.8752670288086 442.89837646484375 -7.649296760559082 442.98028564453125 C -6.249127388000488 456.8088684082031 -6.454240322113037 470.5235900878906 -5.774031162261963 482.6259765625 C 110.35873413085938 482.66827392578125 218.7256622314453 486.0847473144531 312.7630310058594 483.6474609375" stroke-width="0.0" fill="rgb(107, 81, 54)" opacity="0.99733603" stroke="rgb(0, 0, 0)" stroke-opacity="1.0" stroke-linecap="round" stroke-linejoin="round"/>
    <path d="M 73.9227066040039 422.3983154296875 C 67.61195373535156 425.0028076171875 71.54376220703125 429.8254089355469 76.49324798583984 429.0276184082031 C 80.01203918457031 427.9664611816406 81.2198715209961 427.8575744628906 82.3648452758789 421.968017578125 C 65.31229400634766 421.97149658203125 65.92521667480469 421.48211669921875 73.9227066040039 422.3983154296875" stroke-width="0.0" fill="rgb(171, 163, 148)" opacity="0.9957304" stroke="rgb(0, 0, 0)" stroke-opacity="1.0" stroke-linecap="round" stroke-linejoin="round"/>
    <path d="M 19.938562393188477 328.37762451171875 C 18.153697967529297 328.82586669921875 12.066547393798828 332.3272705078125 10.712742805480957 332.4593811035156 C 8.666275024414062 339.929443359375 7.953628063201904 348.5744323730469 4.704115867614746 353.9254150390625 C 4.1732282638549805 374.761474609375 2.0132439136505127 397.3791809082031 6.3717451095581055 401.0561828613281 C 14.098669052124023 404.8193054199219 28.35602569580078 399.9714050292969 33.08417892456055 395.1716003417969 C 34.114540100097656 367.3711242675781 29.605623245239258 345.7070617675781 19.938562393188477 328.37762451171875" stroke-width="0.0" fill="rgb(51, 59, 52)" opacity="0.891777" stroke="rgb(0, 0, 0)" stroke-opacity="1.0" stroke-linecap="round" stroke-linejoin="round"/>
    <path d="M 213.7130126953125 324.8834228515625 C 206.09088134765625 329.22686767578125 200.24713134765625 332.7474670410156 196.85543823242188 342.7789001464844 C 193.513916015625 348.47247314453125 191.90968322753906 363.1647033691406 193.59315490722656 366.06597900390625 C 205.29244995117188 365.6007385253906 218.0424346923828 366.475341796875 222.470703125 364.6930847167969 C 225.14285278320312 358.2711486816406 231.12472534179688 355.9082946777344 229.9877166748047 344.2066345214844 C 225.5825653076172 336.0577392578125 221.9827423095703 328.9612731933594 213.7130126953125 324.8834228515625" stroke-width="0.0" fill="rgb(26, 37, 43)" opacity="0.85226333" stroke="rgb(0, 0, 0)" stroke-opacity="1.0" stroke-linecap="round" stroke-linejoin="round"/>
    <path d="M 27.9038143157959 342.0384826660156 C 31.77278709411621 360.89910888671875 31.581819534301758 376.9056701660156 37.405452728271484 393.6902160644531 C 54.903648376464844 394.8548889160156 74.88960266113281 393.1072692871094 96.83015441894531 394.820556640625 C 94.99456024169922 393.0375061035156 99.15473937988281 388.1158752441406 93.0792465209961 385.4102783203125 C 72.0675048828125 370.13555908203125 50.90841293334961 355.944091796875 27.9038143157959 342.0384826660156" stroke-width="0.0" fill="rgb(87, 115, 135)" opacity="0.9060218" stroke="rgb(0, 0, 0)" stroke-opacity="1.0" stroke-linecap="round" stroke-linejoin="round"/>
    <path d="M 311.9144287109375 348.6195983886719 C 301.08319091796875 348.92779541015625 314.3214111328125 353.45263671875 299.0857238769531 349.33575439453125 C 295.9234924316406 352.8995361328125 291.9537658691406 359.7689514160156 292.8699035644531 363.8861389160156 C 302.054443359375 365.2438049316406 305.7139892578125 361.0598449707031 314.073974609375 358.7696838378906 C 316.3051452636719 357.667724609375 313.97613525390625 349.630126953125 311.9144287109375 348.6195983886719" stroke-width="0.0" fill="rgb(43, 52, 56)" opacity="0.98362756" stroke="rgb(0, 0, 0)" stroke-opacity="1.0" stroke-linecap="round" stroke-linejoin="round"/>
    <path d="M 229.67623901367188 350.593994140625 C 227.3267364501953 357.15185546875 224.83718872070312 361.341064453125 221.83384704589844 364.87554931640625 C 219.26803588867188 370.5566101074219 221.31846618652344 371.8945007324219 228.0326385498047 374.529296875 C 231.9154815673828 374.799072265625 235.30909729003906 372.0253601074219 235.24267578125 367.52490234375 C 233.98583984375 361.16558837890625 234.10289001464844 355.7089538574219 229.67623901367188 350.593994140625" stroke-width="0.0" fill="rgb(80, 69, 46)" opacity="0.99132305" stroke="rgb(0, 0, 0)" stroke-opacity="1.0" stroke-linecap="round" stroke-linejoin="round"/>
    <path d="M 334.55877685546875 341.5743103027344 C 330.43792724609375 346.37750244140625 327.65338134765625 349.8426208496094 329.0782775878906 358.83367919921875 C 333.5240783691406 359.8688659667969 338.102783203125 358.4595031738281 341.5177001953125 357.0756530761719 C 343.2304382324219 346.9400634765625 341.11346435546875 344.3582458496094 334.55877685546875 341.5743103027344" stroke-width="0.0" fill="rgb(43, 52, 51)" opacity="0.988728" stroke="rgb(0, 0, 0)" stroke-opacity="1.0" stroke-linecap="round" stroke-linejoin="round"/>
    <path d="M 279.6776123046875 350.0994567871094 C 277.1385192871094 357.1412353515625 273.76318359375 361.261474609375 275.0068664550781 368.0576477050781 C 277.1288146972656 369.2374572753906 291.48529052734375 365.86865234375 291.3736877441406 364.5805358886719 C 290.1943054199219 345.50994873046875 282.8976745605469 368.76190185546875 279.6776123046875 350.0994567871094" stroke-width="0.0" fill="rgb(69, 77, 79)" opacity="0.9906555" stroke="rgb(0, 0, 0)" stroke-opacity="1.0" stroke-linecap="round" stroke-linejoin="round"/>
    <path d="M 95.67086791992188 378.6894226074219 C 98.00341033935547 380.8886413574219 97.93315887451172 386.8392028808594 96.8636245727539 380.46435546875 C 96.74295043945312 385.2499694824219 101.17952728271484 392.84552001953125 98.45053100585938 395.6943664550781 C 91.86575317382812 393.61676025390625 93.20472717285156 390.3327331542969 95.67086791992188 378.6894226074219" stroke-width="0.0" fill="rgb(64, 83, 97)" opacity="1.000339" stroke="rgb(0, 0, 0)" stroke-opacity="1.0" stroke-linecap="round" stroke-linejoin="round"/>
    <path d="M 45.804256439208984 399.8171081542969 C 38.80558776855469 394.7731018066406 41.61168670654297 398.21014404296875 32.45613098144531 398.09783935546875 C 18.729360580444336 401.6636657714844 10.160089492797852 406.4700927734375 -2.631880044937134 412.0133361816406 C -6.557732105255127 417.3634948730469 -6.259998798370361 429.07220458984375 -5.849432945251465 434.7850036621094 C 21.5653076171875 444.33538818359375 36.0259895324707 440.2541198730469 50.0086784362793 428.8056335449219 C 49.74653625488281 423.225830078125 49.98216247558594 407.9557189941406 45.804256439208984 399.8171081542969" stroke-width="0.0" fill="rgb(54, 55, 57)" opacity="1.0010182" stroke="rgb(0, 0, 0)" stroke-opacity="1.0" stroke-linecap="round" stroke-linejoin="round"/>
    <path d="M 432.1142578125 423.7066650390625 C 436.8132629394531 431.704833984375 438.4422607421875 435.7373962402344 447.9215393066406 437.1293029785156 C 444.9234313964844 437.9897766113281 439.7638244628906 439.5990295410156 442.10992431640625 443.22021484375 C 463.4122314453125 445.297119140625 487.4921875 446.8003845214844 517.65283203125 445.1636047363281 C 517.4205322265625 436.45855712890625 517.45849609375 428.38409423828125 516.5596313476562 420.3067321777344 C 484.4345397949219 422.0155334472656 457.86517333984375 421.5779724121094 432.1142578125 423.7066650390625" stroke-width="0.0" fill="rgb(94, 70, 42)" opacity="1.0007582" stroke="rgb(0, 0, 0)" stroke-opacity="1.0" stroke-linecap="round" stroke-linejoin="round"/>
    <path d="M 306.8467712402344 363.763671875 C 299.9570617675781 367.9720153808594 296.8282165527344 376.8263244628906 297.2226257324219 390.4605407714844 C 299.3567199707031 398.874267578125 311.5282287597656 396.91357421875 324.64337158203125 400.7709655761719 C 334.0361328125 395.1745910644531 332.0455627441406 388.4073791503906 332.4185485839844 372.0207824707031 C 331.6192321777344 367.886474609375 326.8251647949219 367.1880187988281 327.3032531738281 363.44927978515625 C 324.96484375 358.87548828125 304.03668212890625 362.19189453125 306.8467712402344 363.763671875" stroke-width="0.0" fill="rgb(20, 26, 24)" opacity="0.99115664" stroke="rgb(0, 0, 0)" stroke-opacity="1.0" stroke-linecap="round" stroke-linejoin="round"/>
    <path d="M 107.76980590820312 398.864013671875 C 95.60283660888672 394.0097961425781 85.23929595947266 395.1422424316406 69.87953186035156 399.7271423339844 C 62.254512786865234 401.99481201171875 55.418582916259766 404.5957946777344 51.952232360839844 413.1309509277344 C 63.2460823059082 415.412841796875 62.69516372680664 422.4106140136719 66.55070495605469 424.6275329589844 C 84.99845886230469 418.6747741699219 96.71733856201172 410.5799255371094 107.76980590820312 398.864013671875" stroke-width="0.0" fill="rgb(63, 67, 68)" opacity="1.0007745" stroke="rgb(0, 0, 0)" stroke-opacity="1.0" stroke-linecap="round" stroke-linejoin="round"/>
    <path d="M 485.1672668457031 318.8197937011719 C 479.3555603027344 317.0421447753906 476.5856018066406 329.8793640136719 474.77374267578125 334.34161376953125 C 478.1800537109375 342.7795715332031 475.8221130371094 350.0390930175781 477.9757995605469 354.709228515625 C 478.5644226074219 358.98468017578125 485.0068664550781 358.9537658691406 486.90997314453125 357.2388000488281 C 489.79901123046875 357.49176025390625 490.8699951171875 350.5229797363281 491.326416015625 345.135498046875 C 488.1241455078125 333.0579833984375 489.3692321777344 319.17327880859375 485.1672668457031 318.8197937011719" stroke-width="0.0" fill="rgb(29, 36, 37)" opacity="0.9999447" stroke="rgb(0, 0, 0)" stroke-opacity="1.0" stroke-linecap="round" stroke-linejoin="round"/>
    <path d="M 370.9159851074219 330.3558349609375 C 369.0643005371094 332.96844482421875 370.16497802734375 348.1885070800781 366.45538330078125 351.35736083984375 C 370.2994079589844 360.18829345703125 364.69061279296875 358.77252197265625 377.8167724609375 359.90618896484375 C 377.4867858886719 337.168212890625 380.05950927734375 335.05389404296875 370.9159851074219 330.3558349609375" stroke-width="0.0" fill="rgb(40, 48, 46)" opacity="0.9577073" stroke="rgb(0, 0, 0)" stroke-opacity="1.0" stroke-linecap="round" stroke-linejoin="round"/>
    <path d="M 479.70062255859375 472.3478088378906 C 472.7134094238281 473.1375732421875 474.0745544433594 481.6182556152344 477.6581115722656 481.966552734375 C 485.5743408203125 480.7152099609375 488.7894592285156 484.2928466796875 488.468017578125 477.36474609375 C 484.9517822265625 475.34429931640625 478.5467529296875 469.3916320800781 479.70062255859375 472.3478088378906" stroke-width="0.0" fill="rgb(74, 55, 34)" opacity="0.99980235" stroke="rgb(0, 0, 0)" stroke-opacity="1.0" stroke-linecap="round" stroke-linejoin="round"/>
    <path d="M 63.408729553222656 423.8228454589844 C 60.3139533996582 419.8411865234375 56.41157913208008 422.3670654296875 55.055267333984375 423.1430969238281 C 52.105712890625 424.2689514160156 51.8182258605957 436.2016296386719 57.98130798339844 433.82470703125 C 61.88745880126953 434.8028564453125 61.90414810180664 429.98834228515625 63.408729553222656 423.8228454589844" stroke-width="0.0" fill="rgb(30, 28, 33)" opacity="1.0000589" stroke="rgb(0, 0, 0)" stroke-opacity="1.0" stroke-linecap="round" stroke-linejoin="round"/>
    <path d="M 103.15316772460938 386.0147705078125 C 106.38407135009766 386.93988037109375 108.32149505615234 389.2264404296875 105.48184967041016 386.7696838378906 C 103.38275909423828 394.4572448730469 108.43340301513672 397.2198791503906 100.56098937988281 395.6855773925781 C 98.66867065429688 389.0686950683594 101.43080139160156 388.6690368652344 103.15316772460938 386.0147705078125" stroke-width="0.0" fill="rgb(85, 105, 117)" opacity="0.98626626" stroke="rgb(0, 0, 0)" stroke-opacity="1.0" stroke-linecap="round" stroke-linejoin="round"/>
    <path d="M 279.3403625488281 350.47137451171875 C 277.2431945800781 358.2151184082031 273.1147766113281 360.81536865234375 275.3040466308594 368.11383056640625 C 278.9960021972656 369.1759033203125 280.37939453125 367.5274658203125 283.8860168457031 367.03948974609375 C 285.5978698730469 360.9633483886719 281.24102783203125 358.2430114746094 279.3403625488281 350.47137451171875" stroke-width="0.0" fill="rgb(47, 60, 66)" opacity="0.9971365" stroke="rgb(0, 0, 0)" stroke-opacity="1.0" stroke-linecap="round" stroke-linejoin="round"/>
    <path d="M 46.180965423583984 376.97943115234375 C 42.030818939208984 379.6526184082031 42.363258361816406 387.98858642578125 40.4653434753418 393.9019775390625 C 45.46711349487305 396.73773193359375 47.96328353881836 394.3703308105469 50.819061279296875 394.4578857421875 C 52.70277404785156 387.0213928222656 49.707977294921875 382.499267578125 46.180965423583984 376.97943115234375" stroke-width="0.0" fill="rgb(42, 61, 73)" opacity="0.9980738" stroke="rgb(0, 0, 0)" stroke-opacity="1.0" stroke-linecap="round" stroke-linejoin="round"/>
  </g>
</svg>
