<?xml version="1.0" ?>
<svg xmlns="http://www.w3.org/2000/svg" version="1.1" width="512" height="512">
  <defs/>
  <g>
    <path d="M -3.098393440246582 -4.850144863128662 C -1.9015895128250122 170.3333282470703 -1.9628275632858276 340.6666564941406 -1.526399850845337 516.4920043945312 C 169.88966369628906 516.9307250976562 339.90057373046875 517.640625 517.1332397460938 518.6273803710938 C 517.4707641601562 340.0383605957031 518.309326171875 169.61322021484375 518.7232055664062 -5.267796039581299 C 340.050048828125 -5.129680156707764 169.7084503173828 -5.057140827178955 -3.098393440246582 -4.850144863128662" stroke-width="0.0" fill="rgb(60, 60, 60)" opacity="1.0019498" stroke="rgb(0, 0, 0)" stroke-opacity="1.0" stroke-linecap="round" stroke-linejoin="round"/>
    <path d="M -4.090358734130859 128.9683837890625 C -5.611797332763672 205.42672729492188 -5.952084541320801 280.7369079589844 -5.393611431121826 355.82000732421875 C 6.51051139831543 364.3956298828125 11.522134780883789 367.8495178222656 27.144832611083984 365.55633544921875 C 25.090593338012695 368.7852478027344 19.077327728271484 366.86419677734375 9.274871826171875 369.33319091796875 C 18.349441528320312 371.3455505371094 24.737520217895508 372.44140625 33.75447463989258 375.3713684082031 C 34.62266540527344 381.3481750488281 32.03404235839844 385.1474304199219 32.00497817993164 378.4742126464844 C 33.922210693359375 377.05517578125 34.065650939941406 380.6351013183594 37.91499710083008 386.64813232421875 C 40.428993225097656 382.81378173828125 40.14839553833008 377.3021545410156 41.44365310668945 374.074951171875 C 45.11803436279297 378.250732421875 48.031124114990234 377.8414306640625 42.82572937011719 384.2599792480469 C 51.28068923950195 376.5684814453125 52.744537353515625 383.1497802734375 57.20260238647461 379.7029724121094 C 74.25389862060547 392.68115234375 80.86346435546875 413.73089599609375 100.82881164550781 430.6283874511719 C 111.97566223144531 423.7938232421875 133.07110595703125 422.91839599609375 147.7237091064453 423.4718933105469 C 145.44772338867188 407.8680114746094 154.66343688964844 411.9537353515625 166.11358642578125 408.892822265625 C 239.50390625 402.6386413574219 312.7864685058594 398.12091064453125 389.05987548828125 392.2660827636719 C 389.1000671386719 310.2015380859375 389.468505859375 220.1387939453125 389.3365478515625 130.93736267089844 C 259.5973815917969 128.56260681152344 129.49269104003906 132.1648712158203 -4.090358734130859 128.9683837890625" stroke-width="0.0" fill="rgb(75, 75, 75)" opacity="0.8627931" stroke="rgb(0, 0, 0)" stroke-opacity="1.0" stroke-linecap="round" stroke-linejoin="round"/>
    <path d="M -5.012144565582275 375.7241516113281 C -5.468635082244873 420.3847961425781 -5.1600871086120605 465.929443359375 -3.0213937759399414 519.1295166015625 C 171.2932586669922 518.1798095703125 341.2283935546875 517.406005859375 517.2175903320312 517.0427856445312 C 517.4104614257812 472.64410400390625 517.453857421875 433.5166931152344 517.687255859375 394.4195861816406 C 490.75592041015625 395.5105895996094 470.760986328125 395.8770751953125 448.5565185546875 399.2950134277344 C 447.9080505371094 407.2860107421875 439.65277099609375 407.1855163574219 436.7425537109375 413.5684814453125 C 405.6028747558594 421.3818054199219 365.82708740234375 420.43499755859375 328.8569641113281 427.3790283203125 C 240.94326782226562 429.2839660644531 152.9477996826172 426.8348693847656 81.1329116821289 436.16265869140625 C 50.312904357910156 428.7632141113281 44.81669998168945 436.5351867675781 38.661773681640625 419.11175537109375 C 43.05876541137695 420.0970153808594 34.280067443847656 412.1458740234375 45.21719741821289 410.0677185058594 C 38.06550979614258 406.928955078125 32.531944274902344 410.98736572265625 38.64094924926758 401.3733215332031 C 34.981117248535156 398.5089416503906 31.048532485961914 387.7894592285156 30.968307495117188 378.5250549316406 C 20.508865356445312 371.531005859375 11.408404350280762 372.1374206542969 -5.012144565582275 375.7241516113281" stroke-width="0.0" fill="rgb(69, 69, 69)" opacity="1.0070809" stroke="rgb(0, 0, 0)" stroke-opacity="1.0" stroke-linecap="round" stroke-linejoin="round"/>
    <path d="M 8.894939422607422 -7.459634780883789 C 7.072683811187744 35.46281051635742 8.967413902282715 70.56169128417969 7.790518283843994 102.70784759521484 C 9.723284721374512 111.74127197265625 6.28917932510376 113.23446655273438 16.646324157714844 117.54348754882812 C 141.2815399169922 114.96984100341797 267.3239440917969 115.71479797363281 388.42626953125 117.55484771728516 C 390.3739318847656 74.80316162109375 390.29132080078125 36.58164596557617 388.7596130371094 -8.853506088256836 C 255.06088256835938 -9.262255668640137 127.08785247802734 -8.899576187133789 8.894939422607422 -7.459634780883789" stroke-width="0.0" fill="rgb(45, 45, 45)" opacity="0.9532854" stroke="rgb(0, 0, 0)" stroke-opacity="1.0" stroke-linecap="round" stroke-linejoin="round"/>
    <path d="M 518.1436767578125 -6.5903120040893555 C 467.77459716796875 -6.936111927032471 426.91326904296875 -7.152108669281006 389.889404296875 -5.657630443572998 C 389.8863830566406 126.12699890136719 390.6961975097656 250.65484619140625 391.9368896484375 370.57550048828125 C 395.1724548339844 390.22442626953125 391.8919982910156 402.1158142089844 404.4964294433594 406.44134521484375 C 415.35638427734375 403.9173278808594 428.3385314941406 407.5062561035156 437.1377868652344 402.75823974609375 C 441.70538330078125 401.6832580566406 441.53924560546875 396.9328918457031 443.1456604003906 387.553955078125 C 442.7774353027344 315.59356689453125 443.2358093261719 240.36952209472656 442.98248291015625 165.06190490722656 C 462.124755859375 162.5768280029297 486.9399108886719 162.60626220703125 519.0054931640625 162.89027404785156 C 518.4528198242188 106.46701049804688 518.4656372070312 51.894554138183594 518.1436767578125 -6.5903120040893555" stroke-width="0.0" fill="rgb(53, 53, 53)" opacity="0.9849925" stroke="rgb(0, 0, 0)" stroke-opacity="1.0" stroke-linecap="round" stroke-linejoin="round"/>
    <path d="M 445.91290283203125 166.75509643554688 C 443.56854248046875 168.2464141845703 443.365478515625 171.22396850585938 444.0023498535156 176.9620361328125 C 443.9270324707031 246.15557861328125 443.8566589355469 315.1457214355469 443.9659118652344 373.0433044433594 C 446.3581848144531 384.0116882324219 445.74346923828125 387.33642578125 452.22509765625 389.00262451171875 C 470.8499755859375 389.00616455078125 492.12841796875 389.6976013183594 518.1416625976562 388.1112976074219 C 517.9373779296875 313.38934326171875 517.6629638671875 238.7672119140625 517.357421875 164.2021942138672 C 493.400146484375 166.3671875 466.0350646972656 164.41976928710938 445.91290283203125 166.75509643554688" stroke-width="0.0" fill="rgb(3, 3, 3)" opacity="1.0113246" stroke="rgb(0, 0, 0)" stroke-opacity="1.0" stroke-linecap="round" stroke-linejoin="round"/>
    <path d="M 378.8277282714844 410.9775085449219 C 378.0826110839844 399.7178039550781 372.8379211425781 399.4357604980469 362.32696533203125 395.8951721191406 C 302.5203552246094 399.3470458984375 241.59251403808594 403.551025390625 184.0172119140625 410.7920227050781 C 175.88253784179688 413.6474914550781 169.53199768066406 413.5901794433594 165.69235229492188 427.717529296875 C 212.34176635742188 428.2855224609375 265.3428649902344 426.9507141113281 321.13104248046875 425.4048156738281 C 337.4845886230469 422.4840393066406 353.83856201171875 421.1209716796875 367.0773620605469 417.7972412109375 C 374.4848937988281 415.7223815917969 379.6101379394531 414.81451416015625 378.8277282714844 410.9775085449219" stroke-width="0.0" fill="rgb(139, 139, 139)" opacity="0.834279" stroke="rgb(0, 0, 0)" stroke-opacity="1.0" stroke-linecap="round" stroke-linejoin="round"/>
    <path d="M -1.5880954265594482 118.26708984375 C -2.3413357734680176 122.21976470947266 -3.2070817947387695 125.4634017944336 -5.001662731170654 128.7623748779297 C 129.3806610107422 129.00437927246094 260.76068115234375 128.29376220703125 389.5687255859375 129.51168823242188 C 390.8138122558594 121.84617614746094 391.2197265625 118.99446868896484 388.143798828125 118.09638977050781 C 258.8246154785156 117.78451538085938 128.8374481201172 118.29685974121094 -1.5880954265594482 118.26708984375" stroke-width="0.0" fill="rgb(31, 31, 31)" opacity="0.9968536" stroke="rgb(0, 0, 0)" stroke-opacity="1.0" stroke-linecap="round" stroke-linejoin="round"/>
    <path d="M 142.5357208251953 409.38970947265625 C 151.8346710205078 407.3094787597656 147.12660217285156 407.31781005859375 149.74386596679688 411.2171325683594 C 139.68167114257812 427.84918212890625 140.71913146972656 458.16668701171875 141.13739013671875 476.4667053222656 C 141.7790069580078 479.3829345703125 142.7694091796875 483.24774169921875 141.782470703125 478.11480712890625 C 143.46885681152344 478.32769775390625 145.60745239257812 478.4725341796875 143.18699645996094 476.82086181640625 C 142.76675415039062 468.9459228515625 142.9226837158203 450.0551452636719 142.98980712890625 432.11248779296875 C 159.7542266845703 430.82501220703125 167.4665985107422 431.1296691894531 178.04266357421875 429.9764709472656 C 167.18783569335938 418.9532470703125 166.3265380859375 416.0734558105469 172.90447998046875 407.34844970703125 C 152.51422119140625 412.1584167480469 144.60655212402344 414.1157531738281 142.5357208251953 409.38970947265625" stroke-width="0.0" fill="rgb(41, 41, 41)" opacity="1.0060606" stroke="rgb(0, 0, 0)" stroke-opacity="1.0" stroke-linecap="round" stroke-linejoin="round"/>
    <path d="M 114.48976135253906 419.4806213378906 C 116.24137115478516 424.5354919433594 114.49258422851562 429.7451477050781 112.54979705810547 434.5143737792969 C 123.19679260253906 434.7090148925781 129.55084228515625 434.81298828125 147.47019958496094 435.0055236816406 C 148.05108642578125 422.8940734863281 146.91943359375 417.6147766113281 144.2126922607422 419.0611572265625 C 127.15846252441406 420.8365173339844 120.91817474365234 419.9336853027344 114.48976135253906 419.4806213378906" stroke-width="0.0" fill="rgb(64, 64, 64)" opacity="0.9982831" stroke="rgb(0, 0, 0)" stroke-opacity="1.0" stroke-linecap="round" stroke-linejoin="round"/>
    <path d="M 406.3553161621094 377.7227783203125 C 406.2770690917969 396.7757873535156 404.8498229980469 415.3580627441406 405.8335266113281 418.71820068359375 C 420.4106140136719 418.8947448730469 424.3714294433594 421.89447021484375 423.06121826171875 424.5310363769531 C 420.30438232421875 430.3325500488281 423.9434509277344 429.357177734375 420.6213073730469 423.2460632324219 C 430.5562438964844 416.89990234375 430.2463684082031 401.60333251953125 425.88543701171875 382.3257141113281 C 417.9734191894531 383.2845153808594 411.6950378417969 384.5846252441406 406.3553161621094 377.7227783203125" stroke-width="0.0" fill="rgb(53, 53, 53)" opacity="1.0003724" stroke="rgb(0, 0, 0)" stroke-opacity="1.0" stroke-linecap="round" stroke-linejoin="round"/>
    <path d="M 152.7592010498047 185.2457275390625 C 139.27940368652344 192.07496643066406 134.359130859375 203.7440643310547 124.32205200195312 212.61915588378906 C 122.50810241699219 223.46189880371094 118.16726684570312 232.84320068359375 115.51828002929688 243.48841857910156 C 112.01337432861328 284.58062744140625 112.11604309082031 326.1622314453125 115.26017761230469 371.3211975097656 C 167.74163818359375 376.6985778808594 226.82827758789062 377.14208984375 292.7807922363281 377.53607177734375 C 294.4952697753906 333.4563903808594 294.728759765625 288.280517578125 292.4075927734375 240.516357421875 C 290.1399841308594 225.78639221191406 280.4350280761719 216.43263244628906 276.9383239746094 201.29942321777344 C 262.8966064453125 187.787109375 247.98825073242188 176.6147003173828 229.73802185058594 170.52317810058594 C 217.20091247558594 168.39295959472656 203.3105010986328 167.04534912109375 188.5924835205078 169.10476684570312 C 171.7594451904297 171.25485229492188 162.78054809570312 177.212646484375 152.7592010498047 185.2457275390625" stroke-width="0.0" fill="rgb(25, 25, 25)" opacity="0.97221345" stroke="rgb(0, 0, 0)" stroke-opacity="1.0" stroke-linecap="round" stroke-linejoin="round"/>
    <path d="M 391.2843017578125 -5.020567893981934 C 390.5005798339844 124.7732162475586 389.8556213378906 252.68896484375 392.5137634277344 371.06060791015625 C 393.060791015625 385.9909362792969 401.09576416015625 391.4523010253906 407.2113342285156 389.7070617675781 C 416.4540710449219 388.6664733886719 422.0406188964844 392.50128173828125 431.73980712890625 408.485595703125 C 437.70037841796875 405.4106140136719 440.90631103515625 399.62554931640625 442.2691345214844 390.1596374511719 C 442.09393310546875 304.35418701171875 434.9332580566406 214.481689453125 427.66790771484375 124.4908676147461 C 437.9470520019531 121.95674133300781 436.5871887207031 119.74784088134766 427.13507080078125 128.36361694335938 C 428.1694030761719 120.78784942626953 427.6333923339844 108.8735122680664 430.1593322753906 94.77342224121094 C 432.6902160644531 64.29046630859375 432.24591064453125 31.39109230041504 429.9619445800781 -1.7686436176300049 C 414.5669860839844 -3.9547839164733887 401.76995849609375 -4.907470703125 391.2843017578125 -5.020567893981934" stroke-width="0.0" fill="rgb(52, 52, 52)" opacity="0.93539464" stroke="rgb(0, 0, 0)" stroke-opacity="1.0" stroke-linecap="round" stroke-linejoin="round"/>
    <path d="M 13.423481941223145 -6.326550483703613 C 5.996981620788574 38.665565490722656 5.086538314819336 78.07540893554688 9.139931678771973 115.702392578125 C 48.83244323730469 118.79525756835938 95.69983673095703 118.1329345703125 142.93226623535156 116.05599975585938 C 142.7486572265625 74.22728729248047 144.01832580566406 33.976539611816406 142.1555938720703 -6.603625774383545 C 93.1982421875 -7.042176246643066 48.81757354736328 -7.265565872192383 13.423481941223145 -6.326550483703613" stroke-width="0.0" fill="rgb(103, 103, 103)" opacity="1.0003301" stroke="rgb(0, 0, 0)" stroke-opacity="1.0" stroke-linecap="round" stroke-linejoin="round"/>
    <path d="M 271.1107177734375 -3.048588991165161 C 268.1276550292969 41.85972595214844 267.8419494628906 82.73783874511719 272.08221435546875 113.65740966796875 C 305.8562927246094 119.15796661376953 344.8815002441406 117.72298431396484 389.06292724609375 116.30030822753906 C 390.74102783203125 76.25022888183594 389.0207214355469 33.234683990478516 391.31005859375 -6.2996954917907715 C 345.84130859375 -5.863386631011963 306.6772766113281 -5.454352378845215 271.1107177734375 -3.048588991165161" stroke-width="0.0" fill="rgb(110, 110, 110)" opacity="0.99485856" stroke="rgb(0, 0, 0)" stroke-opacity="1.0" stroke-linecap="round" stroke-linejoin="round"/>
    <path d="M 517.5256958007812 481.5765075683594 C 382.9244689941406 482.3610534667969 246.7135009765625 483.3975524902344 113.76647186279297 482.6374206542969 C 74.41606903076172 487.3206481933594 44.958431243896484 497.2332458496094 8.945319175720215 500.0958251953125 C 5.974648475646973 502.10205078125 3.3479528427124023 506.5150451660156 -0.053335368633270264 518.0200805664062 C 171.63975524902344 518.0504760742188 341.3181457519531 518.186279296875 517.0685424804688 518.266845703125 C 517.0648803710938 502.3805847167969 517.0681762695312 493.60577392578125 517.5256958007812 481.5765075683594" stroke-width="0.0" fill="rgb(85, 85, 85)" opacity="0.98586226" stroke="rgb(0, 0, 0)" stroke-opacity="1.0" stroke-linecap="round" stroke-linejoin="round"/>
    <path d="M 144.482177734375 -3.7616281509399414 C 144.97714233398438 35.786376953125 144.6353302001953 70.91043853759766 147.81234741210938 103.86592864990234 C 187.72244262695312 106.27009582519531 225.5554962158203 105.62702941894531 266.5606994628906 103.67101287841797 C 265.5622253417969 67.52775573730469 264.22821044921875 33.50518798828125 265.1133117675781 -6.119677543640137 C 223.2258758544922 -5.706183433532715 183.5935516357422 -5.331995010375977 144.482177734375 -3.7616281509399414" stroke-width="0.0" fill="rgb(30, 30, 30)" opacity="0.99381286" stroke="rgb(0, 0, 0)" stroke-opacity="1.0" stroke-linecap="round" stroke-linejoin="round"/>
    <path d="M 427.6004638671875 -4.840207099914551 C 428.10101318359375 34.07511901855469 428.2681579589844 65.6764144897461 429.19775390625 84.99894714355469 C 464.3431091308594 84.47509002685547 493.24652099609375 82.50165557861328 519.6685791015625 92.08203125 C 518.3631591796875 65.88511657714844 517.960205078125 32.93212127685547 517.9035034179688 -2.2504258155822754 C 483.6358642578125 -4.644074440002441 455.8218994140625 -5.390843868255615 427.6004638671875 -4.840207099914551" stroke-width="0.0" fill="rgb(3, 3, 3)" opacity="1.0125682" stroke="rgb(0, 0, 0)" stroke-opacity="1.0" stroke-linecap="round" stroke-linejoin="round"/>
    <path d="M -8.205364227294922 180.9519805908203 C -9.28500747680664 251.02593994140625 -8.75820255279541 310.619873046875 -7.758090496063232 363.3047790527344 C 16.958009719848633 360.5208435058594 25.861572265625 358.8841247558594 32.15557098388672 356.39263916015625 C 32.9309196472168 308.78692626953125 34.09172058105469 265.44708251953125 30.37039566040039 229.44580078125 C 19.008426666259766 212.84487915039062 16.50031089782715 193.6564483642578 -8.205364227294922 180.9519805908203" stroke-width="0.0" fill="rgb(42, 42, 42)" opacity="0.9452712" stroke="rgb(0, 0, 0)" stroke-opacity="1.0" stroke-linecap="round" stroke-linejoin="round"/>
    <path d="M 517.8322143554688 165.3099365234375 C 487.9071350097656 166.09385681152344 466.07464599609375 166.62828063964844 441.10693359375 166.82183837890625 C 441.86578369140625 200.01974487304688 443.4402160644531 231.45928955078125 445.6175537109375 255.71617126464844 C 445.50897216796875 251.1002655029297 451.5955810546875 247.96328735351562 448.36956787109375 240.81961059570312 C 452.17828369140625 235.22792053222656 458.195068359375 232.55398559570312 464.0923767089844 237.25128173828125 C 471.978759765625 238.96054077148438 484.36590576171875 239.3018035888672 501.72760009765625 238.62289428710938 C 505.76226806640625 236.69947814941406 504.42193603515625 240.29576110839844 499.332275390625 246.09324645996094 C 500.2558288574219 247.2645721435547 504.64373779296875 248.2641143798828 508.8197937011719 250.1717071533203 C 504.9964599609375 250.0452880859375 503.193359375 253.76922607421875 500.3350830078125 254.14865112304688 C 504.4368591308594 255.59976196289062 507.6671447753906 256.7752380371094 518.125 258.7738342285156 C 517.8359375 226.00091552734375 517.8839721679688 195.99063110351562 517.8322143554688 165.3099365234375" stroke-width="0.0" fill="rgb(2, 2, 2)" opacity="1.0072962" stroke="rgb(0, 0, 0)" stroke-opacity="1.0" stroke-linecap="round" stroke-linejoin="round"/>
    <path d="M 519.193603515625 85.80097961425781 C 482.6870422363281 86.6163101196289 455.0847473144531 82.6220932006836 427.63519287109375 83.38740539550781 C 429.43243408203125 190.3602294921875 428.3015441894531 294.8654479980469 431.20770263671875 392.860595703125 C 441.80841064453125 399.7680358886719 439.8162536621094 399.7602233886719 443.2752990722656 391.90313720703125 C 445.25311279296875 323.4969482421875 442.3499450683594 247.00819396972656 444.0016784667969 167.2115020751953 C 461.1336364746094 164.33367919921875 487.56707763671875 167.1663818359375 519.7684326171875 164.86866760253906 C 519.8422241210938 133.28250122070312 519.7881469726562 106.31011962890625 519.193603515625 85.80097961425781" stroke-width="0.0" fill="rgb(48, 48, 48)" opacity="0.9553551" stroke="rgb(0, 0, 0)" stroke-opacity="1.0" stroke-linecap="round" stroke-linejoin="round"/>
    <path d="M 291.0918273925781 131.350341796875 C 302.667236328125 131.1146697998047 307.4483642578125 133.14300537109375 311.52935791015625 133.0426483154297 C 312.2890625 136.6092529296875 310.4098205566406 137.24241638183594 306.78173828125 138.20140075683594 C 313.387451171875 149.37130737304688 323.0526123046875 156.73313903808594 329.331298828125 163.7915496826172 C 327.10357666015625 202.56057739257812 324.9449768066406 234.8402557373047 324.306640625 258.5284729003906 C 347.3735656738281 262.583740234375 369.6600036621094 260.4085998535156 390.6092834472656 261.3139953613281 C 390.11627197265625 221.20416259765625 389.3996887207031 174.92092895507812 388.68377685546875 130.03208923339844 C 363.8575134277344 127.66828155517578 330.27886962890625 129.3365478515625 291.0918273925781 131.350341796875" stroke-width="0.0" fill="rgb(104, 104, 104)" opacity="0.9914948" stroke="rgb(0, 0, 0)" stroke-opacity="1.0" stroke-linecap="round" stroke-linejoin="round"/>
    <path d="M 330.3581237792969 278.8409423828125 C 327.9486389160156 312.66278076171875 327.3066711425781 342.7804870605469 330.177734375 375.01129150390625 C 349.34881591796875 379.1853942871094 365.5076599121094 378.5374450683594 388.7223205566406 371.04205322265625 C 390.7189636230469 345.9308166503906 390.7478942871094 312.55914306640625 393.5423278808594 279.0835266113281 C 368.7239990234375 278.3276672363281 349.1567077636719 278.7461853027344 330.3581237792969 278.8409423828125" stroke-width="0.0" fill="rgb(113, 113, 113)" opacity="0.9761139" stroke="rgb(0, 0, 0)" stroke-opacity="1.0" stroke-linecap="round" stroke-linejoin="round"/>
    <path d="M 71.36471557617188 276.76025390625 C 72.08413696289062 323.3591003417969 69.93306732177734 369.955078125 72.32698822021484 412.3413391113281 C 77.14346313476562 421.5123291015625 90.27288055419922 421.3571472167969 98.0259780883789 424.12725830078125 C 105.04853057861328 419.4437561035156 110.67088317871094 418.55865478515625 109.64583587646484 409.4423522949219 C 110.22251892089844 363.5046081542969 109.63935852050781 319.0552673339844 107.68480682373047 279.32470703125 C 97.50865173339844 275.685302734375 83.44679260253906 276.694091796875 71.36471557617188 276.76025390625" stroke-width="0.0" fill="rgb(101, 101, 101)" opacity="0.9918878" stroke="rgb(0, 0, 0)" stroke-opacity="1.0" stroke-linecap="round" stroke-linejoin="round"/>
    <path d="M 450.5066223144531 235.18807983398438 C 451.85174560546875 251.65097045898438 449.64996337890625 275.23046875 452.0413513183594 292.89288330078125 C 451.9787902832031 297.37103271484375 461.8562316894531 291.7076721191406 456.6568908691406 308.288330078125 C 471.2215881347656 310.65625 484.72650146484375 310.8966979980469 503.15509033203125 308.5987548828125 C 503.75567626953125 287.6639404296875 503.2254333496094 261.1282958984375 502.9166564941406 235.67698669433594 C 485.39697265625 234.45742797851562 467.3726501464844 234.79054260253906 450.5066223144531 235.18807983398438" stroke-width="0.0" fill="rgb(26, 26, 26)" opacity="1.0098622" stroke="rgb(0, 0, 0)" stroke-opacity="1.0" stroke-linecap="round" stroke-linejoin="round"/>
    <path d="M 278.135498046875 402.56988525390625 C 240.62515258789062 402.93646240234375 210.5829315185547 412.4676208496094 164.87725830078125 414.4485168457031 C 170.0973663330078 416.2792053222656 168.98880004882812 420.7939453125 164.70970153808594 429.3642578125 C 201.92677307128906 431.2779235839844 240.68435668945312 429.9533996582031 280.8876647949219 427.1228332519531 C 282.35626220703125 422.3440856933594 282.63861083984375 415.6863708496094 278.135498046875 402.56988525390625" stroke-width="0.0" fill="rgb(139, 139, 139)" opacity="0.942292" stroke="rgb(0, 0, 0)" stroke-opacity="1.0" stroke-linecap="round" stroke-linejoin="round"/>
    <path d="M 370.76519775390625 399.4239807128906 C 370.36492919921875 397.0438232421875 367.80487060546875 394.7786560058594 362.12200927734375 393.28631591796875 C 338.80157470703125 400.19647216796875 314.052490234375 395.33428955078125 284.9212341308594 403.696533203125 C 278.5177001953125 401.3096618652344 278.6441955566406 404.0036315917969 281.4176025390625 415.54449462890625 C 284.5097961425781 420.55364990234375 290.8907470703125 424.8460998535156 300.95684814453125 429.5224914550781 C 321.7090148925781 430.3578796386719 336.5580749511719 421.5387878417969 354.31719970703125 419.0464172363281 C 358.079833984375 423.4631652832031 359.1529541015625 426.2944030761719 365.72906494140625 428.6428527832031 C 367.104248046875 415.150634765625 373.80865478515625 416.4894714355469 370.76519775390625 399.4239807128906" stroke-width="0.0" fill="rgb(165, 165, 165)" opacity="0.9002956" stroke="rgb(0, 0, 0)" stroke-opacity="1.0" stroke-linecap="round" stroke-linejoin="round"/>
    <path d="M 49.40392303466797 156.26502990722656 C 48.63832473754883 184.71498107910156 50.05755615234375 222.06161499023438 49.67729187011719 257.07000732421875 C 48.99765396118164 256.4863586425781 56.47364807128906 259.4109802246094 60.87559509277344 256.61444091796875 C 59.29924774169922 224.26524353027344 58.74546813964844 193.4962615966797 59.06591796875 163.92062377929688 C 56.81678009033203 157.513671875 55.297367095947266 154.47474670410156 49.40392303466797 156.26502990722656" stroke-width="0.0" fill="rgb(45, 45, 45)" opacity="1.0008667" stroke="rgb(0, 0, 0)" stroke-opacity="1.0" stroke-linecap="round" stroke-linejoin="round"/>
    <path d="M 322.1907043457031 276.6791076660156 C 319.81207275390625 274.20562744140625 322.529052734375 273.8879699707031 331.015625 276.04541015625 C 348.1137390136719 275.8516540527344 370.8913269042969 275.9504699707031 390.13714599609375 276.6128845214844 C 390.8584289550781 267.18634033203125 390.0501403808594 263.9793701171875 388.6089782714844 261.2860412597656 C 365.1434326171875 263.1993713378906 343.4095764160156 260.62603759765625 327.0411071777344 261.0062561035156 C 321.2318115234375 262.2441101074219 320.9930114746094 264.432373046875 322.1907043457031 276.6791076660156" stroke-width="0.0" fill="rgb(123, 123, 123)" opacity="0.9973247" stroke="rgb(0, 0, 0)" stroke-opacity="1.0" stroke-linecap="round" stroke-linejoin="round"/>
    <path d="M 137.22532653808594 434.3562316894531 C 134.40335083007812 449.2200012207031 134.9386749267578 465.4131774902344 134.7345733642578 482.0358581542969 C 146.13748168945312 482.9925231933594 155.36769104003906 483.6217956542969 150.3662872314453 481.54498291015625 C 149.4091796875 475.29296875 149.95713806152344 454.6893310546875 149.9748992919922 435.2911071777344 C 147.3928985595703 435.1666564941406 138.2998504638672 435.0608825683594 137.22532653808594 434.3562316894531" stroke-width="0.0" fill="rgb(57, 57, 57)" opacity="0.988196" stroke="rgb(0, 0, 0)" stroke-opacity="1.0" stroke-linecap="round" stroke-linejoin="round"/>
    <path d="M 309.5439453125 275.6409912109375 C 307.0782470703125 305.50390625 312.2339172363281 336.7966003417969 309.27935791015625 370.8267822265625 C 311.3563232421875 373.4393310546875 311.0077209472656 373.5292663574219 317.6028137207031 373.0455322265625 C 318.6131591796875 343.7066650390625 317.8766174316406 309.8163146972656 318.0798034667969 278.5149841308594 C 317.302001953125 275.5987243652344 312.18853759765625 274.8547668457031 309.5439453125 275.6409912109375" stroke-width="0.0" fill="rgb(33, 33, 33)" opacity="0.9996323" stroke="rgb(0, 0, 0)" stroke-opacity="1.0" stroke-linecap="round" stroke-linejoin="round"/>
    <path d="M 322.0881042480469 277.9011535644531 C 322.26080322265625 307.80523681640625 321.57794189453125 342.508056640625 321.82427978515625 371.8014831542969 C 323.5573425292969 375.43646240234375 323.5281677246094 378.4489440917969 329.99810791015625 380.1447448730469 C 329.97052001953125 343.2923583984375 329.6820983886719 310.2434997558594 329.9101867675781 280.10498046875 C 329.5201416015625 276.2856750488281 326.6727294921875 275.3019714355469 322.0881042480469 277.9011535644531" stroke-width="0.0" fill="rgb(42, 42, 42)" opacity="1.0105369" stroke="rgb(0, 0, 0)" stroke-opacity="1.0" stroke-linecap="round" stroke-linejoin="round"/>
    <path d="M 322.2234802246094 148.8325653076172 C 322.6763916015625 193.29783630371094 322.74737548828125 233.08279418945312 324.2847900390625 266.68267822265625 C 335.0545349121094 234.86685180664062 330.5788879394531 203.54388427734375 328.8994445800781 169.12864685058594 C 330.7726745605469 163.33543395996094 324.6547546386719 160.9612579345703 322.2234802246094 148.8325653076172" stroke-width="0.0" fill="rgb(59, 59, 59)" opacity="1.0012442" stroke="rgb(0, 0, 0)" stroke-opacity="1.0" stroke-linecap="round" stroke-linejoin="round"/>
    <path d="M 283.9527282714844 157.3452606201172 C 283.7013854980469 166.01239013671875 284.07037353515625 179.6721954345703 283.82647705078125 188.4479217529297 C 284.7161560058594 193.33518981933594 288.0240173339844 196.7517547607422 293.58380126953125 201.9429931640625 C 295.16680908203125 190.92239379882812 294.3780212402344 173.01417541503906 293.5993347167969 158.36167907714844 C 293.46697998046875 155.9905242919922 289.7729187011719 157.32400512695312 283.9527282714844 157.3452606201172" stroke-width="0.0" fill="rgb(58, 58, 58)" opacity="1.000753" stroke="rgb(0, 0, 0)" stroke-opacity="1.0" stroke-linecap="round" stroke-linejoin="round"/>
    <path d="M 366.4953918457031 431.87371826171875 C 370.6998291015625 428.90826416015625 369.3700256347656 435.4453430175781 372.39727783203125 436.79339599609375 C 370.0178527832031 456.0627746582031 375.7150573730469 479.94952392578125 369.2744445800781 484.093017578125 C 365.1520080566406 471.77386474609375 365.470703125 451.9666748046875 366.4953918457031 431.87371826171875" stroke-width="0.0" fill="rgb(60, 60, 60)" opacity="0.99817157" stroke="rgb(0, 0, 0)" stroke-opacity="1.0" stroke-linecap="round" stroke-linejoin="round"/>
    <path d="M 10.418370246887207 155.72467041015625 C 7.8899335861206055 160.09823608398438 11.909896850585938 169.9901123046875 10.755048751831055 178.10076904296875 C 13.490978240966797 177.82919311523438 14.438382148742676 181.4730987548828 20.37871551513672 182.08644104003906 C 20.103191375732422 174.35528564453125 19.937862396240234 164.18658447265625 20.139856338500977 157.66490173339844 C 16.68568992614746 154.9498291015625 13.999086380004883 152.9685821533203 10.418370246887207 155.72467041015625" stroke-width="0.0" fill="rgb(58, 58, 58)" opacity="0.99943906" stroke="rgb(0, 0, 0)" stroke-opacity="1.0" stroke-linecap="round" stroke-linejoin="round"/>
    <path d="M 142.32542419433594 155.83103942871094 C 140.78639221191406 155.53720092773438 133.6126708984375 155.88076782226562 132.54019165039062 157.05218505859375 C 136.27005004882812 163.2731170654297 131.93972778320312 172.98284912109375 134.63739013671875 179.32464599609375 C 143.9396209716797 175.60028076171875 144.4005126953125 170.07362365722656 142.32542419433594 155.83103942871094" stroke-width="0.0" fill="rgb(60, 60, 60)" opacity="0.9994311" stroke="rgb(0, 0, 0)" stroke-opacity="1.0" stroke-linecap="round" stroke-linejoin="round"/>
    <path d="M 212.13858032226562 381.1930847167969 C 210.3135986328125 388.27471923828125 211.30364990234375 396.66595458984375 210.8140869140625 401.022216796875 C 211.5939178466797 403.6407470703125 214.39120483398438 402.6278991699219 218.71914672851562 403.3488464355469 C 220.44789123535156 397.8511047363281 222.23011779785156 392.91448974609375 221.04812622070312 383.6410827636719 C 218.81341552734375 381.6318664550781 216.78512573242188 381.3177490234375 212.13858032226562 381.1930847167969" stroke-width="0.0" fill="rgb(27, 27, 27)" opacity="0.99867636" stroke="rgb(0, 0, 0)" stroke-opacity="1.0" stroke-linecap="round" stroke-linejoin="round"/>
    <path d="M 172.8831787109375 383.70379638671875 C 172.71189880371094 389.9154357910156 171.8345489501953 396.8075866699219 173.4652099609375 402.0355529785156 C 175.15782165527344 402.0846252441406 178.53958129882812 401.6864013671875 182.77987670898438 402.1481018066406 C 182.93881225585938 396.2091369628906 182.59841918945312 390.93414306640625 183.5469970703125 384.7652282714844 C 178.89395141601562 385.1170959472656 175.60044860839844 384.8883361816406 172.8831787109375 383.70379638671875" stroke-width="0.0" fill="rgb(29, 29, 29)" opacity="1.000551" stroke="rgb(0, 0, 0)" stroke-opacity="1.0" stroke-linecap="round" stroke-linejoin="round"/>
    <path d="M 43.322113037109375 352.2809753417969 C 27.087480545043945 350.7528991699219 18.8781681060791 356.26898193359375 11.888413429260254 364.27020263671875 C 4.969295978546143 361.94976806640625 4.2326507568359375 357.5013732910156 -6.482970237731934 353.6878356933594 C -5.465465068817139 402.30877685546875 -5.806600093841553 447.40399169921875 -5.3249406814575195 491.1849060058594 C 8.228439331054688 490.344970703125 12.49616813659668 485.2025451660156 17.848155975341797 480.8057861328125 C 20.374588012695312 465.2972106933594 27.497142791748047 453.4060363769531 31.404396057128906 439.78741455078125 C 51.684017181396484 436.1637878417969 54.88667297363281 448.5089111328125 74.31781005859375 453.6807556152344 C 75.81729125976562 440.87860107421875 64.10467529296875 441.80255126953125 64.96077728271484 431.86431884765625 C 63.92618179321289 426.1470642089844 67.24825286865234 420.7182312011719 71.94640350341797 417.81793212890625 C 71.77716827392578 407.4816589355469 70.67701721191406 400.0842590332031 68.83704376220703 392.6579895019531 C 57.6161994934082 387.9848937988281 51.19206619262695 376.4917907714844 41.64138412475586 370.6785888671875 C 42.866695404052734 360.0224914550781 44.25463104248047 351.7087097167969 43.322113037109375 352.2809753417969" stroke-width="0.0" fill="rgb(26, 26, 26)" opacity="1.0313092" stroke="rgb(0, 0, 0)" stroke-opacity="1.0" stroke-linecap="round" stroke-linejoin="round"/>
    <path d="M 430.34796142578125 406.0445556640625 C 429.4053649902344 412.2479553222656 430.75775146484375 425.4895324707031 429.8970947265625 437.67498779296875 C 456.9842529296875 431.28936767578125 482.984130859375 426.8879699707031 518.2406616210938 423.836181640625 C 519.6117553710938 412.7723388671875 519.7510375976562 397.33807373046875 519.8054809570312 376.256103515625 C 491.38690185546875 378.0586242675781 467.5645751953125 376.61785888671875 450.3691711425781 376.704833984375 C 444.09344482421875 381.1453857421875 445.6817626953125 392.3682556152344 445.7870788574219 402.82354736328125 C 442.2186584472656 402.6902160644531 434.3697204589844 402.3008117675781 430.34796142578125 406.0445556640625" stroke-width="0.0" fill="rgb(37, 37, 37)" opacity="0.99224895" stroke="rgb(0, 0, 0)" stroke-opacity="1.0" stroke-linecap="round" stroke-linejoin="round"/>
    <path d="M 139.58255004882812 384.8675537109375 C 204.35243225097656 384.58343505859375 272.42669677734375 385.5603332519531 342.8305969238281 386.5742492675781 C 347.0107116699219 385.3370361328125 344.49945068359375 392.60076904296875 347.6730651855469 391.91351318359375 C 360.3858337402344 390.03936767578125 367.59747314453125 392.59088134765625 367.5392761230469 389.62677001953125 C 372.4500427246094 381.83135986328125 379.4506530761719 389.79534912109375 374.5370178222656 373.86395263671875 C 297.95855712890625 376.0487365722656 220.87318420410156 373.6258850097656 136.22412109375 368.7857971191406 C 140.8275909423828 366.3043518066406 141.4927215576172 371.50457763671875 139.58255004882812 384.8675537109375" stroke-width="0.0" fill="rgb(51, 51, 51)" opacity="0.9297586" stroke="rgb(0, 0, 0)" stroke-opacity="1.0" stroke-linecap="round" stroke-linejoin="round"/>
    <path d="M 401.7101745605469 381.9947814941406 C 399.3839111328125 392.5866394042969 401.6891784667969 414.9988708496094 400.87579345703125 438.3354797363281 C 411.5819396972656 438.1285705566406 420.2571716308594 438.7413635253906 428.5296325683594 435.64154052734375 C 429.7699279785156 413.7178039550781 431.3052673339844 394.4749450683594 418.6947937011719 382.9801330566406 C 419.6842041015625 383.36810302734375 409.4991149902344 383.5636291503906 401.7101745605469 381.9947814941406" stroke-width="0.0" fill="rgb(46, 46, 46)" opacity="1.0288137" stroke="rgb(0, 0, 0)" stroke-opacity="1.0" stroke-linecap="round" stroke-linejoin="round"/>
    <path d="M 319.9931640625 483.5672302246094 C 313.1237487792969 471.69696044921875 297.0926208496094 474.7532653808594 286.1994323730469 469.73651123046875 C 253.04214477539062 471.7839050292969 222.82521057128906 469.92730712890625 192.38658142089844 474.76104736328125 C 189.97731018066406 473.9291076660156 190.0004425048828 480.680419921875 184.23507690429688 483.62957763671875 C 230.17388916015625 483.5955505371094 275.7125549316406 482.7350769042969 319.9931640625 483.5672302246094" stroke-width="0.0" fill="rgb(26, 26, 26)" opacity="1.0054089" stroke="rgb(0, 0, 0)" stroke-opacity="1.0" stroke-linecap="round" stroke-linejoin="round"/>
    <path d="M 514.85546875 422.21563720703125 C 484.1328125 428.142333984375 453.3909912109375 429.6707763671875 426.3757629394531 440.36627197265625 C 453.482421875 441.4012451171875 484.9515686035156 440.74981689453125 518.2591552734375 441.4582824707031 C 517.9779052734375 433.7357482910156 517.9445190429688 426.8833312988281 514.85546875 422.21563720703125" stroke-width="0.0" fill="rgb(132, 132, 132)" opacity="0.9975781" stroke="rgb(0, 0, 0)" stroke-opacity="1.0" stroke-linecap="round" stroke-linejoin="round"/>
    <path d="M 151.62696838378906 390.6968994140625 C 147.8398895263672 396.49072265625 147.81439208984375 401.39862060546875 142.595458984375 397.155517578125 C 140.86512756347656 406.0158386230469 138.73178100585938 411.1817626953125 141.71292114257812 415.9234619140625 C 147.38372802734375 422.2355041503906 154.1491241455078 428.016357421875 165.23756408691406 430.6669006347656 C 169.0264892578125 424.75830078125 168.8369903564453 418.1733703613281 170.66978454589844 407.97833251953125 C 164.63417053222656 407.1808166503906 165.07017517089844 403.0943298339844 164.9949188232422 395.4386901855469 C 159.0997772216797 394.875 154.12547302246094 391.678466796875 151.62696838378906 390.6968994140625" stroke-width="0.0" fill="rgb(34, 34, 34)" opacity="0.98041624" stroke="rgb(0, 0, 0)" stroke-opacity="1.0" stroke-linecap="round" stroke-linejoin="round"/>
    <path d="M 48.59091567993164 260.2991638183594 C 48.93484878540039 263.114501953125 48.358856201171875 269.79827880859375 49.130435943603516 272.8627624511719 C 67.07594299316406 272.72662353515625 89.26178741455078 273.34783935546875 106.1280288696289 273.6552429199219 C 109.51581573486328 254.81239318847656 96.70429992675781 271.5494384765625 94.35778045654297 260.1204833984375 C 83.29341125488281 259.63568115234375 61.63062286376953 260.0334167480469 48.59091567993164 260.2991638183594" stroke-width="0.0" fill="rgb(102, 102, 102)" opacity="0.96074253" stroke="rgb(0, 0, 0)" stroke-opacity="1.0" stroke-linecap="round" stroke-linejoin="round"/>
    <path d="M 332.2008361816406 434.3333435058594 C 348.348876953125 435.28021240234375 361.5234069824219 436.0203857421875 364.5810241699219 435.817138671875 C 363.1612548828125 428.7656555175781 361.2046203613281 422.1645812988281 354.466796875 417.3617248535156 C 350.6448669433594 416.0564270019531 345.25567626953125 416.3153076171875 343.7479248046875 417.483642578125 C 338.98089599609375 426.10333251953125 330.2080993652344 427.0169982910156 332.2008361816406 434.3333435058594" stroke-width="0.0" fill="rgb(10, 10, 10)" opacity="1.0101902" stroke="rgb(0, 0, 0)" stroke-opacity="1.0" stroke-linecap="round" stroke-linejoin="round"/>
    <path d="M 109.18152618408203 154.28785705566406 C 111.4134292602539 171.33291625976562 108.76145935058594 193.93194580078125 113.6978530883789 203.69735717773438 C 122.08598327636719 195.02212524414062 119.06179809570312 177.00546264648438 117.99952697753906 153.27561950683594 C 121.20339965820312 153.65769958496094 115.58500671386719 155.94509887695312 109.18152618408203 154.28785705566406" stroke-width="0.0" fill="rgb(61, 61, 61)" opacity="0.9974279" stroke="rgb(0, 0, 0)" stroke-opacity="1.0" stroke-linecap="round" stroke-linejoin="round"/>
    <path d="M 149.4951934814453 484.6024169921875 C 157.14248657226562 480.8983154296875 176.1141815185547 485.783447265625 184.71347045898438 480.9702453613281 C 178.4251708984375 474.0527648925781 166.87890625 475.8741149902344 152.63243103027344 476.33380126953125 C 152.37527465820312 476.69793701171875 150.92630004882812 483.03509521484375 149.4951934814453 484.6024169921875" stroke-width="0.0" fill="rgb(67, 67, 67)" opacity="0.9949706" stroke="rgb(0, 0, 0)" stroke-opacity="1.0" stroke-linecap="round" stroke-linejoin="round"/>
    <path d="M 23.18157958984375 155.5769500732422 C 24.57058334350586 164.94296264648438 22.9163818359375 180.68386840820312 23.525136947631836 191.13771057128906 C 27.6258544921875 191.52735900878906 26.427215576171875 198.24005126953125 32.86561584472656 198.30047607421875 C 33.00228500366211 183.76126098632812 33.25819396972656 168.55661010742188 32.42454147338867 155.5969696044922 C 30.459903717041016 156.30825805664062 26.184646606445312 156.42601013183594 23.18157958984375 155.5769500732422" stroke-width="0.0" fill="rgb(59, 59, 59)" opacity="0.99960726" stroke="rgb(0, 0, 0)" stroke-opacity="1.0" stroke-linecap="round" stroke-linejoin="round"/>
    <path d="M 114.0335922241211 419.6936340332031 C 116.29972076416016 424.3825378417969 113.71861267089844 430.12896728515625 114.76519775390625 434.8865966796875 C 118.07058715820312 436.78936767578125 121.74403381347656 435.7009582519531 127.63638305664062 435.7608947753906 C 126.48019409179688 430.28936767578125 125.26622009277344 424.8669128417969 125.87687683105469 419.827880859375 C 121.96731567382812 419.2117919921875 118.17440795898438 420.21258544921875 114.0335922241211 419.6936340332031" stroke-width="0.0" fill="rgb(70, 70, 70)" opacity="0.99971116" stroke="rgb(0, 0, 0)" stroke-opacity="1.0" stroke-linecap="round" stroke-linejoin="round"/>
    <path d="M 60.45063400268555 134.28326416015625 C 59.65044021606445 137.310546875 51.82457733154297 134.94053649902344 52.125179290771484 140.02362060546875 C 54.58561706542969 152.19602966308594 68.06178283691406 152.46945190429688 71.67739868164062 166.2439422607422 C 70.96331787109375 194.198974609375 74.13813781738281 225.05972290039062 72.76750183105469 258.1171569824219 C 78.21367645263672 259.65545654296875 86.85208892822266 258.6343994140625 94.0267333984375 259.0549621582031 C 95.01131439208984 220.52513122558594 91.99472045898438 178.83287048339844 93.04193115234375 137.76002502441406 C 84.42323303222656 135.11553955078125 75.08406066894531 132.67803955078125 60.45063400268555 134.28326416015625" stroke-width="0.0" fill="rgb(96, 96, 96)" opacity="1.0023497" stroke="rgb(0, 0, 0)" stroke-opacity="1.0" stroke-linecap="round" stroke-linejoin="round"/>
    <path d="M 375.44610595703125 472.0719299316406 C 374.434814453125 472.69683837890625 376.3409423828125 480.46923828125 376.16522216796875 484.2044677734375 C 394.8766174316406 482.55419921875 414.1905517578125 485.6437683105469 437.0382385253906 484.1913146972656 C 426.8653564453125 477.66619873046875 421.43914794921875 482.3439636230469 425.3643798828125 472.9647521972656 C 405.3540344238281 469.897705078125 393.92633056640625 466.1589050292969 375.44610595703125 472.0719299316406" stroke-width="0.0" fill="rgb(31, 31, 31)" opacity="0.99517363" stroke="rgb(0, 0, 0)" stroke-opacity="1.0" stroke-linecap="round" stroke-linejoin="round"/>
    <path d="M 107.42174530029297 217.0547332763672 C 100.78154754638672 230.08621215820312 97.28968048095703 243.40000915527344 97.57968139648438 259.8243713378906 C 100.31613159179688 262.9037170410156 102.39331817626953 258.8934326171875 108.54073333740234 260.6916198730469 C 109.07806396484375 245.3330535888672 108.09573364257812 228.8413543701172 107.42174530029297 217.0547332763672" stroke-width="0.0" fill="rgb(150, 150, 150)" opacity="0.99858993" stroke="rgb(0, 0, 0)" stroke-opacity="1.0" stroke-linecap="round" stroke-linejoin="round"/>
    <path d="M 273.13116455078125 392.39886474609375 C 266.2456359863281 395.42340087890625 263.3294677734375 398.14947509765625 265.06414794921875 407.1104736328125 C 266.9191589355469 407.9737243652344 274.34814453125 408.9192810058594 283.7425842285156 409.0199279785156 C 281.91986083984375 415.73974609375 278.8444519042969 425.36297607421875 284.2203674316406 425.2956237792969 C 284.3261413574219 417.666259765625 280.874267578125 414.7170715332031 279.3840637207031 409.70281982421875 C 282.91180419921875 406.75537109375 284.54022216796875 405.11383056640625 288.6053161621094 400.2763671875 C 283.0998840332031 396.1181640625 278.59185791015625 392.9129638671875 273.13116455078125 392.39886474609375" stroke-width="0.0" fill="rgb(81, 81, 81)" opacity="1.075472" stroke="rgb(0, 0, 0)" stroke-opacity="1.0" stroke-linecap="round" stroke-linejoin="round"/>
    <path d="M -3.327488660812378 185.09954833984375 C -5.5936198234558105 216.68801879882812 -4.341124057769775 248.69505310058594 -1.8065940141677856 280.7767028808594 C 10.419001579284668 280.21673583984375 20.736618041992188 281.9036560058594 31.311338424682617 280.7314758300781 C 32.644039154052734 263.1684265136719 32.74695587158203 245.27720642089844 30.19399070739746 228.49826049804688 C 25.744935989379883 218.56797790527344 17.523094177246094 218.5527801513672 19.99402618408203 203.4044189453125 C 5.776395797729492 198.98780822753906 9.527261734008789 188.34132385253906 -3.327488660812378 185.09954833984375" stroke-width="0.0" fill="rgb(34, 34, 34)" opacity="1.0086255" stroke="rgb(0, 0, 0)" stroke-opacity="1.0" stroke-linecap="round" stroke-linejoin="round"/>
    <path d="M 145.55877685546875 286.3575744628906 C 144.1170196533203 288.06414794921875 137.97105407714844 285.6943359375 134.44097900390625 287.4413146972656 C 134.88934326171875 313.8917541503906 135.17015075683594 341.594482421875 136.14639282226562 367.23406982421875 C 147.6875 365.1883239746094 144.26104736328125 367.34600830078125 145.3963623046875 358.9587097167969 C 147.04066467285156 333.59368896484375 145.50936889648438 309.90106201171875 145.55877685546875 286.3575744628906" stroke-width="0.0" fill="rgb(8, 8, 8)" opacity="0.9971318" stroke="rgb(0, 0, 0)" stroke-opacity="1.0" stroke-linecap="round" stroke-linejoin="round"/>
    <path d="M 201.19346618652344 190.24676513671875 C 194.7019500732422 211.50888061523438 197.59031677246094 245.7574462890625 197.0410919189453 278.80865478515625 C 203.47396850585938 280.7156982421875 206.1306915283203 280.47027587890625 207.12229919433594 278.1985778808594 C 206.90322875976562 243.63116455078125 211.43519592285156 207.76451110839844 201.19346618652344 190.24676513671875" stroke-width="0.0" fill="rgb(8, 8, 8)" opacity="0.98884314" stroke="rgb(0, 0, 0)" stroke-opacity="1.0" stroke-linecap="round" stroke-linejoin="round"/>
    <path d="M 271.5574645996094 287.7222900390625 C 272.3474426269531 307.94512939453125 270.5531921386719 334.50439453125 273.54156494140625 363.7750549316406 C 277.7884216308594 359.3377685546875 278.62567138671875 357.1576843261719 281.575927734375 366.9024353027344 C 283.6175537109375 343.5912170410156 283.6617736816406 317.35504150390625 281.6299133300781 288.8958740234375 C 283.9889221191406 285.7153625488281 275.96954345703125 286.7774963378906 271.5574645996094 287.7222900390625" stroke-width="0.0" fill="rgb(9, 9, 9)" opacity="0.99487066" stroke="rgb(0, 0, 0)" stroke-opacity="1.0" stroke-linecap="round" stroke-linejoin="round"/>
    <path d="M 143.4318389892578 196.48866271972656 C 140.03131103515625 201.6837158203125 138.6992950439453 205.08509826660156 134.87994384765625 206.42636108398438 C 134.6952667236328 232.3219451904297 134.90077209472656 258.04913330078125 134.7041015625 278.88238525390625 C 139.65599060058594 281.96441650390625 144.8115234375 279.4771728515625 145.1160125732422 278.84716796875 C 145.14671325683594 249.83135986328125 145.72305297851562 222.1128692626953 143.4318389892578 196.48866271972656" stroke-width="0.0" fill="rgb(7, 7, 7)" opacity="0.99538594" stroke="rgb(0, 0, 0)" stroke-opacity="1.0" stroke-linecap="round" stroke-linejoin="round"/>
    <path d="M 232.66867065429688 285.3502502441406 C 232.55458068847656 288.3617248535156 224.67068481445312 286.7217102050781 222.6669921875 286.4588623046875 C 223.01242065429688 312.5139465332031 221.7863006591797 343.1514892578125 223.91026306152344 369.74383544921875 C 223.56607055664062 368.1971130371094 232.13925170898438 365.2081298828125 230.75411987304688 368.0135192871094 C 234.90682983398438 339.563720703125 231.97186279296875 314.8901672363281 232.66867065429688 285.3502502441406" stroke-width="0.0" fill="rgb(2, 2, 2)" opacity="0.99930567" stroke="rgb(0, 0, 0)" stroke-opacity="1.0" stroke-linecap="round" stroke-linejoin="round"/>
    <path d="M 222.37185668945312 202.5293426513672 C 221.13455200195312 221.12646484375 222.06362915039062 246.50547790527344 222.5206756591797 275.6701354980469 C 224.4041290283203 279.78253173828125 222.2121124267578 281.9330749511719 231.0807342529297 280.07391357421875 C 233.30271911621094 255.90415954589844 231.2442626953125 230.7487335205078 230.1087188720703 207.34967041015625 C 228.0904998779297 204.4327850341797 230.57081604003906 198.51318359375 222.37185668945312 202.5293426513672" stroke-width="0.0" fill="rgb(4, 4, 4)" opacity="0.9991085" stroke="rgb(0, 0, 0)" stroke-opacity="1.0" stroke-linecap="round" stroke-linejoin="round"/>
    <path d="M 207.4733123779297 286.3393859863281 C 205.04786682128906 287.1954040527344 199.05299377441406 287.1087646484375 197.5836181640625 287.15655517578125 C 197.8795928955078 312.47723388671875 197.85174560546875 339.27117919921875 199.34646606445312 363.2966613769531 C 206.82777404785156 361.0875244140625 206.66477966308594 359.3282165527344 207.66761779785156 355.38922119140625 C 208.32908630371094 330.53717041015625 208.77975463867188 305.360595703125 207.4733123779297 286.3393859863281" stroke-width="0.0" fill="rgb(2, 2, 2)" opacity="0.99888366" stroke="rgb(0, 0, 0)" stroke-opacity="1.0" stroke-linecap="round" stroke-linejoin="round"/>
    <path d="M 293.6147766113281 287.9535827636719 C 291.25103759765625 286.2508239746094 284.3211975097656 286.8406677246094 284.36383056640625 286.092529296875 C 285.5868835449219 313.6942138671875 283.7705993652344 345.7403259277344 285.92462158203125 371.3111572265625 C 291.6287536621094 373.1851501464844 286.0952453613281 364.0970153808594 292.3168029785156 369.3432312011719 C 294.3273620605469 342.0731201171875 294.4839782714844 315.3791809082031 293.6147766113281 287.9535827636719" stroke-width="0.0" fill="rgb(6, 6, 6)" opacity="1.0038173" stroke="rgb(0, 0, 0)" stroke-opacity="1.0" stroke-linecap="round" stroke-linejoin="round"/>
    <path d="M 259.22259521484375 284.7655944824219 C 259.9053955078125 314.89117431640625 257.91143798828125 346.5549621582031 266.3436279296875 363.8049621582031 C 272.895751953125 347.0853271484375 268.4079895019531 316.5348205566406 270.8623352050781 284.4427185058594 C 271.04669189453125 288.20867919921875 260.7605285644531 288.1325988769531 259.22259521484375 284.7655944824219" stroke-width="0.0" fill="rgb(6, 6, 6)" opacity="0.9977762" stroke="rgb(0, 0, 0)" stroke-opacity="1.0" stroke-linecap="round" stroke-linejoin="round"/>
    <path d="M 234.49337768554688 286.2440185546875 C 235.7404022216797 308.351318359375 233.99595642089844 331.3382873535156 236.38870239257812 352.4483337402344 C 240.62330627441406 350.7854919433594 238.80728149414062 353.5227966308594 244.466064453125 357.45269775390625 C 246.21145629882812 335.8868408203125 245.023681640625 310.9338073730469 244.85398864746094 287.0135192871094 C 243.95143127441406 286.5987243652344 238.5570526123047 286.9940490722656 234.49337768554688 286.2440185546875" stroke-width="0.0" fill="rgb(3, 3, 3)" opacity="0.99912894" stroke="rgb(0, 0, 0)" stroke-opacity="1.0" stroke-linecap="round" stroke-linejoin="round"/>
    <path d="M 269.08050537109375 208.4592742919922 C 268.1604919433594 216.81690979003906 262.815185546875 218.09707641601562 258.79376220703125 221.5293731689453 C 257.77899169921875 238.99627685546875 260.06268310546875 258.94854736328125 260.0090026855469 279.64495849609375 C 269.4183044433594 281.3433837890625 268.01068115234375 281.7254638671875 270.19525146484375 271.10162353515625 C 268.8481140136719 251.32510375976562 269.4351806640625 230.44268798828125 269.08050537109375 208.4592742919922" stroke-width="0.0" fill="rgb(6, 6, 6)" opacity="0.9999176" stroke="rgb(0, 0, 0)" stroke-opacity="1.0" stroke-linecap="round" stroke-linejoin="round"/>
    <path d="M 111.48599243164062 285.55670166015625 C 114.59793090820312 288.10638427734375 119.44892883300781 285.6214599609375 119.55291748046875 288.8562316894531 C 120.70462799072266 317.29296875 123.05382537841797 345.3436584472656 115.90412139892578 374.2427062988281 C 110.28385162353516 347.0062561035156 114.52391052246094 313.5631103515625 111.48599243164062 285.55670166015625" stroke-width="0.0" fill="rgb(5, 5, 5)" opacity="1.0032617" stroke="rgb(0, 0, 0)" stroke-opacity="1.0" stroke-linecap="round" stroke-linejoin="round"/>
    <path d="M 285.56402587890625 223.14259338378906 C 280.5845031738281 233.8485565185547 285.0190734863281 260.3141174316406 285.0055236816406 280.2353515625 C 288.7900390625 277.9881286621094 291.8672180175781 282.4607849121094 293.61785888671875 281.3817138671875 C 293.44219970703125 255.1453094482422 295.9586486816406 233.21066284179688 285.56402587890625 223.14259338378906" stroke-width="0.0" fill="rgb(14, 14, 14)" opacity="0.998924" stroke="rgb(0, 0, 0)" stroke-opacity="1.0" stroke-linecap="round" stroke-linejoin="round"/>
    <path d="M 32.550689697265625 287.1151123046875 C 21.29088592529297 286.06402587890625 9.81709098815918 285.2911682128906 -6.709490776062012 285.6985778808594 C -6.922086715698242 312.5010681152344 -7.077704429626465 336.1145935058594 -6.373441696166992 355.7059020996094 C 14.788729667663574 354.909912109375 23.16266441345215 350.83184814453125 32.56816482543945 346.489013671875 C 33.133758544921875 326.9912414550781 33.13759231567383 306.7746887207031 32.550689697265625 287.1151123046875" stroke-width="0.0" fill="rgb(18, 18, 18)" opacity="1.0118808" stroke="rgb(0, 0, 0)" stroke-opacity="1.0" stroke-linecap="round" stroke-linejoin="round"/>
    <path d="M 117.79943084716797 229.758544921875 C 111.68992614746094 242.50253295898438 112.73184204101562 259.6155700683594 113.04006958007812 281.153076171875 C 117.67792510986328 279.05816650390625 121.69600677490234 278.9746398925781 120.5738525390625 280.721435546875 C 120.22974395751953 263.4507751464844 119.93707275390625 243.9178466796875 117.79943084716797 229.758544921875" stroke-width="0.0" fill="rgb(10, 10, 10)" opacity="0.99438244" stroke="rgb(0, 0, 0)" stroke-opacity="1.0" stroke-linecap="round" stroke-linejoin="round"/>
    <path d="M 429.6160888671875 84.74370574951172 C 430.5252685546875 104.9688720703125 429.3404846191406 127.21886444091797 431.10040283203125 143.40762329101562 C 444.8611755371094 144.73739624023438 441.94537353515625 154.64193725585938 439.3074951171875 166.0709686279297 C 465.3891906738281 165.8745574951172 488.29400634765625 165.89031982421875 517.4857788085938 165.89674377441406 C 517.3403930664062 137.9617462158203 517.130859375 111.38836669921875 516.9368286132812 83.91485595703125 C 481.7217102050781 88.29832458496094 456.2179870605469 84.17035675048828 429.6160888671875 84.74370574951172" stroke-width="0.0" fill="rgb(78, 78, 78)" opacity="0.93620867" stroke="rgb(0, 0, 0)" stroke-opacity="1.0" stroke-linecap="round" stroke-linejoin="round"/>
    <path d="M 408.7820739746094 165.600830078125 C 408.4491882324219 193.2520294189453 409.9571838378906 226.31626892089844 407.76214599609375 257.83203125 C 412.69744873046875 261.17608642578125 414.52227783203125 265.4147033691406 420.5566711425781 260.5854797363281 C 422.6201477050781 234.20428466796875 422.45416259765625 201.42930603027344 420.70404052734375 166.93002319335938 C 416.81103515625 166.2569580078125 411.9117736816406 165.67356872558594 408.7820739746094 165.600830078125" stroke-width="0.0" fill="rgb(88, 88, 88)" opacity="0.99649286" stroke="rgb(0, 0, 0)" stroke-opacity="1.0" stroke-linecap="round" stroke-linejoin="round"/>
    <path d="M 159.6776123046875 288.0752868652344 C 160.22079467773438 314.6750183105469 159.5132293701172 343.1283874511719 160.8468780517578 371.8271484375 C 161.4013671875 373.544921875 164.7323760986328 373.9278869628906 171.19993591308594 372.22344970703125 C 171.07806396484375 348.8686828613281 170.22914123535156 318.8300476074219 170.24285888671875 286.301025390625 C 164.41323852539062 287.343017578125 161.5596923828125 286.0236511230469 159.6776123046875 288.0752868652344" stroke-width="0.0" fill="rgb(7, 7, 7)" opacity="0.99762577" stroke="rgb(0, 0, 0)" stroke-opacity="1.0" stroke-linecap="round" stroke-linejoin="round"/>
    <path d="M 172.70916748046875 286.6107177734375 C 173.21389770507812 312.6165466308594 172.58895874023438 342.37054443359375 173.07472229003906 367.3435363769531 C 175.42987060546875 374.49395751953125 175.59547424316406 373.4689025878906 183.86541748046875 370.7688293457031 C 182.85943603515625 345.6397399902344 182.86978149414062 315.49395751953125 183.0364227294922 286.5516662597656 C 182.09010314941406 286.5782165527344 176.47360229492188 287.5153503417969 172.70916748046875 286.6107177734375" stroke-width="0.0" fill="rgb(4, 4, 4)" opacity="0.99868155" stroke="rgb(0, 0, 0)" stroke-opacity="1.0" stroke-linecap="round" stroke-linejoin="round"/>
    <path d="M 401.5030822753906 -5.76407527923584 C 398.9516906738281 43.27974319458008 401.0126037597656 83.48348236083984 402.0599670410156 129.50839233398438 C 403.9905700683594 128.09300231933594 417.44146728515625 127.88719940185547 427.9555358886719 129.23207092285156 C 427.3239440917969 90.42645263671875 428.71026611328125 43.81935501098633 427.9416198730469 -2.6918892860412598 C 422.6322326660156 -5.892479419708252 412.0022888183594 -5.550941467285156 401.5030822753906 -5.76407527923584" stroke-width="0.0" fill="rgb(65, 65, 65)" opacity="0.996119" stroke="rgb(0, 0, 0)" stroke-opacity="1.0" stroke-linecap="round" stroke-linejoin="round"/>
    <path d="M 430.4040832519531 403.01385498046875 C 428.4961242675781 415.58612060546875 431.84478759765625 425.277587890625 431.9596862792969 436.7170715332031 C 458.2295227050781 430.7383117675781 487.0000915527344 428.9141845703125 515.4195556640625 421.8857116699219 C 518.4205932617188 411.7978515625 518.27392578125 404.5072021484375 516.7572631835938 399.81378173828125 C 490.7403259277344 400.2198486328125 468.77001953125 398.3885192871094 445.8796081542969 397.4953308105469 C 448.409912109375 405.2500305175781 442.4068298339844 401.6455383300781 430.4040832519531 403.01385498046875" stroke-width="0.0" fill="rgb(40, 40, 40)" opacity="0.9799497" stroke="rgb(0, 0, 0)" stroke-opacity="1.0" stroke-linecap="round" stroke-linejoin="round"/>
    <path d="M 464.17291259765625 252.00518798828125 C 469.31903076171875 257.945556640625 482.4457702636719 251.7748260498047 489.4140319824219 258.4805603027344 C 480.8533020019531 261.4453430175781 467.4910583496094 259.2017517089844 456.0761413574219 260.3065185546875 C 456.3168029785156 272.7829895019531 455.67291259765625 289.48614501953125 455.7604064941406 302.60821533203125 C 466.64141845703125 301.7833557128906 479.19012451171875 302.25787353515625 491.95306396484375 301.7502136230469 C 488.8348083496094 292.9319152832031 497.740234375 297.5696105957031 497.6669921875 290.9144287109375 C 498.3837890625 277.9044494628906 498.1806640625 263.9501953125 497.4704284667969 252.81846618652344 C 492.1419677734375 251.22535705566406 479.03839111328125 253.1221160888672 464.17291259765625 252.00518798828125" stroke-width="0.0" fill="rgb(6, 6, 6)" opacity="0.99981344" stroke="rgb(0, 0, 0)" stroke-opacity="1.0" stroke-linecap="round" stroke-linejoin="round"/>
    <path d="M 443.842041015625 373.4713134765625 C 446.5874938964844 381.36871337890625 445.037841796875 389.016357421875 444.2219543457031 397.1744384765625 C 466.00390625 398.3288879394531 488.3060607910156 398.82763671875 518.8301391601562 400.42816162109375 C 518.7584838867188 387.4415283203125 518.5469360351562 378.90325927734375 517.4912109375 373.24298095703125 C 489.0610656738281 372.6224365234375 463.57098388671875 372.4773864746094 443.842041015625 373.4713134765625" stroke-width="0.0" fill="rgb(19, 19, 19)" opacity="0.95755017" stroke="rgb(0, 0, 0)" stroke-opacity="1.0" stroke-linecap="round" stroke-linejoin="round"/>
    <path d="M 278.4208679199219 409.4840087890625 C 275.1896057128906 406.4476623535156 267.1893615722656 407.2152099609375 262.54620361328125 403.68048095703125 C 248.7708282470703 405.36297607421875 236.03469848632812 406.86053466796875 217.8679656982422 407.5717468261719 C 216.42623901367188 409.38616943359375 219.099365234375 417.9228820800781 220.74658203125 428.86322021484375 C 236.2411346435547 428.5732116699219 255.15618896484375 429.99346923828125 274.27142333984375 427.18133544921875 C 273.2939758300781 421.8345947265625 275.7245788574219 416.6571960449219 278.4208679199219 409.4840087890625" stroke-width="0.0" fill="rgb(175, 175, 175)" opacity="0.9122039" stroke="rgb(0, 0, 0)" stroke-opacity="1.0" stroke-linecap="round" stroke-linejoin="round"/>
    <path d="M 216.26199340820312 407.5895690917969 C 206.008544921875 414.45989990234375 192.4711456298828 414.43603515625 166.6735076904297 410.36212158203125 C 168.5418243408203 412.46649169921875 169.6683807373047 419.5520935058594 167.33120727539062 429.49371337890625 C 185.46458435058594 431.1533508300781 199.78541564941406 432.19873046875 217.3447723388672 428.5760803222656 C 221.583251953125 426.6300354003906 219.8608856201172 418.5896301269531 216.26199340820312 407.5895690917969" stroke-width="0.0" fill="rgb(175, 175, 175)" opacity="0.89751613" stroke="rgb(0, 0, 0)" stroke-opacity="1.0" stroke-linecap="round" stroke-linejoin="round"/>
    <path d="M 356.6387634277344 393.02838134765625 C 348.6229553222656 393.9692687988281 343.27337646484375 394.6661071777344 343.95660400390625 397.33734130859375 C 342.9864501953125 405.4900207519531 337.0567626953125 409.7104797363281 333.40155029296875 418.07061767578125 C 348.4873046875 419.542724609375 355.4278259277344 419.59637451171875 360.7130432128906 415.2539367675781 C 364.25921630859375 403.8864440917969 354.23333740234375 406.0422668457031 356.6387634277344 393.02838134765625" stroke-width="0.0" fill="rgb(211, 211, 211)" opacity="0.932236" stroke="rgb(0, 0, 0)" stroke-opacity="1.0" stroke-linecap="round" stroke-linejoin="round"/>
    <path d="M 430.15496826171875 140.4748077392578 C 428.4034729003906 224.26670837402344 429.415283203125 312.4208068847656 428.4504089355469 400.0235900878906 C 432.5328674316406 399.90576171875 440.30242919921875 400.01806640625 444.4084167480469 400.04864501953125 C 444.5962219238281 313.9712219238281 444.6455078125 221.49806213378906 441.6244812011719 141.53125 C 443.7388916015625 148.07046508789062 437.60906982421875 145.3852081298828 430.15496826171875 140.4748077392578" stroke-width="0.0" fill="rgb(90, 90, 90)" opacity="0.9296933" stroke="rgb(0, 0, 0)" stroke-opacity="1.0" stroke-linecap="round" stroke-linejoin="round"/>
    <path d="M 341.13018798828125 404.2602233886719 C 337.1891174316406 399.739013671875 330.4919128417969 397.3265380859375 322.651123046875 396.3125915527344 C 307.81103515625 400.026123046875 288.341796875 400.65130615234375 280.4969787597656 406.1575012207031 C 283.7637023925781 414.1091613769531 284.99920654296875 420.88079833984375 287.0968933105469 425.4468078613281 C 296.85113525390625 428.02081298828125 303.1536560058594 432.8246154785156 309.5585021972656 432.29876708984375 C 320.0216369628906 430.7762756347656 326.8910827636719 430.6180114746094 331.13629150390625 429.526123046875 C 337.9823913574219 424.10040283203125 339.5082092285156 417.32720947265625 341.13018798828125 404.2602233886719" stroke-width="0.0" fill="rgb(204, 204, 204)" opacity="0.83145046" stroke="rgb(0, 0, 0)" stroke-opacity="1.0" stroke-linecap="round" stroke-linejoin="round"/>
    <path d="M 214.40574645996094 2.715297222137451 C 212.03147888183594 15.699337005615234 212.52749633789062 17.067800521850586 218.17164611816406 24.450023651123047 C 229.9719696044922 24.274940490722656 242.4629364013672 22.99624252319336 255.36695861816406 22.89905548095703 C 254.5415802001953 15.759325981140137 255.0692138671875 5.706185340881348 255.69439697265625 2.9235262870788574 C 241.10691833496094 2.8519089221954346 224.1253662109375 3.7651731967926025 214.40574645996094 2.715297222137451" stroke-width="0.0" fill="rgb(26, 26, 26)" opacity="0.9998668" stroke="rgb(0, 0, 0)" stroke-opacity="1.0" stroke-linecap="round" stroke-linejoin="round"/>
    <path d="M 150.51963806152344 396.5567932128906 C 150.0654296875 404.5865478515625 147.30484008789062 415.2176513671875 145.1842041015625 421.32159423828125 C 152.33026123046875 425.8240051269531 158.41851806640625 429.57293701171875 167.18067932128906 431.6148376464844 C 170.28993225097656 427.2066650390625 170.52951049804688 419.22601318359375 171.6678009033203 407.89581298828125 C 160.78060913085938 405.7061462402344 164.9078826904297 391.0489501953125 150.51963806152344 396.5567932128906" stroke-width="0.0" fill="rgb(18, 18, 18)" opacity="0.93906146" stroke="rgb(0, 0, 0)" stroke-opacity="1.0" stroke-linecap="round" stroke-linejoin="round"/>
    <path d="M 141.80307006835938 442.90753173828125 C 139.34713745117188 454.9512634277344 138.55679321289062 473.52093505859375 138.77301025390625 489.65008544921875 C 141.35934448242188 494.6282653808594 143.56204223632812 496.95989990234375 152.0109100341797 494.0649108886719 C 152.49232482910156 484.2371826171875 152.08265686035156 469.21551513671875 150.3679656982422 452.13787841796875 C 150.21929931640625 449.8280944824219 147.95693969726562 444.49578857421875 141.80307006835938 442.90753173828125" stroke-width="0.0" fill="rgb(78, 78, 78)" opacity="0.9728852" stroke="rgb(0, 0, 0)" stroke-opacity="1.0" stroke-linecap="round" stroke-linejoin="round"/>
    <path d="M 332.0868835449219 394.7128601074219 C 334.8651123046875 396.8096008300781 339.7781982421875 396.2902526855469 343.98638916015625 398.07696533203125 C 351.5947265625 390.5283203125 365.72564697265625 395.51373291015625 369.9199523925781 389.9149475097656 C 365.5003662109375 378.5723571777344 359.11602783203125 377.6744689941406 347.92645263671875 378.03009033203125 C 341.591064453125 377.5519104003906 339.7930603027344 389.2137756347656 332.0868835449219 394.7128601074219" stroke-width="0.0" fill="rgb(97, 97, 97)" opacity="0.9857551" stroke="rgb(0, 0, 0)" stroke-opacity="1.0" stroke-linecap="round" stroke-linejoin="round"/>
    <path d="M 42.818336486816406 438.1986083984375 C 48.752201080322266 447.0197448730469 63.48731231689453 445.3106994628906 70.71192169189453 455.4677734375 C 71.67704010009766 454.0282897949219 74.42459869384766 453.1893615722656 78.29276275634766 452.4584655761719 C 74.2153549194336 444.94732666015625 68.94778442382812 439.7864990234375 63.86018371582031 435.78228759765625 C 56.878273010253906 434.6760559082031 48.335693359375 433.92333984375 42.818336486816406 438.1986083984375" stroke-width="0.0" fill="rgb(32, 32, 32)" opacity="0.98092335" stroke="rgb(0, 0, 0)" stroke-opacity="1.0" stroke-linecap="round" stroke-linejoin="round"/>
    <path d="M 240.064208984375 219.0370635986328 C 237.21116638183594 237.25929260253906 239.94931030273438 258.8369445800781 238.09664916992188 278.89654541015625 C 234.8058319091797 278.7537536621094 239.0020294189453 278.2939758300781 244.57257080078125 279.22735595703125 C 243.74778747558594 257.505615234375 246.08555603027344 234.27090454101562 240.064208984375 219.0370635986328" stroke-width="0.0" fill="rgb(4, 4, 4)" opacity="0.99966395" stroke="rgb(0, 0, 0)" stroke-opacity="1.0" stroke-linecap="round" stroke-linejoin="round"/>
    <path d="M 406.9384765625 372.5756530761719 C 404.29998779296875 379.7649230957031 407.67724609375 380.3319396972656 411.1473693847656 384.2114562988281 C 417.4590148925781 384.70697021484375 422.1199951171875 382.71990966796875 427.6031799316406 382.71087646484375 C 428.098876953125 377.2427062988281 428.658203125 371.6424255371094 428.0030517578125 372.34716796875 C 420.4420166015625 373.69970703125 410.5264892578125 372.5762634277344 406.9384765625 372.5756530761719" stroke-width="0.0" fill="rgb(19, 19, 19)" opacity="0.99891007" stroke="rgb(0, 0, 0)" stroke-opacity="1.0" stroke-linecap="round" stroke-linejoin="round"/>
    <path d="M 66.46318054199219 265.6410217285156 C 62.85261917114258 265.981201171875 65.98063659667969 270.4018249511719 65.19165802001953 272.85595703125 C 72.49315643310547 273.2660827636719 85.55669403076172 275.0600891113281 97.43498992919922 268.4801330566406 C 92.29734802246094 264.1785583496094 76.4942626953125 267.5944519042969 66.46318054199219 265.6410217285156" stroke-width="0.0" fill="rgb(153, 153, 153)" opacity="0.99476165" stroke="rgb(0, 0, 0)" stroke-opacity="1.0" stroke-linecap="round" stroke-linejoin="round"/>
    <path d="M 22.99475860595703 223.71047973632812 C 22.63814926147461 237.009521484375 24.79871368408203 259.71282958984375 23.984804153442383 279.3746032714844 C 22.86902618408203 278.8508605957031 30.59703254699707 280.9902648925781 32.239871978759766 280.21197509765625 C 31.984861373901367 267.4739074707031 33.12868881225586 249.8718719482422 31.619503021240234 236.55487060546875 C 29.607349395751953 229.1062774658203 30.709064483642578 220.83460998535156 22.99475860595703 223.71047973632812" stroke-width="0.0" fill="rgb(9, 9, 9)" opacity="0.99799013" stroke="rgb(0, 0, 0)" stroke-opacity="1.0" stroke-linecap="round" stroke-linejoin="round"/>
    <path d="M 23.43094253540039 286.0098876953125 C 24.93033218383789 303.2698669433594 22.83185386657715 324.0519714355469 25.07780647277832 347.6893005371094 C 26.20632553100586 349.67059326171875 24.287342071533203 348.7874450683594 32.815189361572266 348.2781066894531 C 34.623538970947266 331.526123046875 34.5234375 310.9818115234375 32.386131286621094 283.9109191894531 C 34.49833297729492 287.39691162109375 28.75993537902832 288.0747985839844 23.43094253540039 286.0098876953125" stroke-width="0.0" fill="rgb(10, 10, 10)" opacity="0.9992303" stroke="rgb(0, 0, 0)" stroke-opacity="1.0" stroke-linecap="round" stroke-linejoin="round"/>
    <path d="M 430.11956787109375 85.04302978515625 C 428.7964172363281 94.99015808105469 428.0099182128906 109.77244567871094 430.6937255859375 120.51653289794922 C 457.1853942871094 119.3835220336914 481.9458312988281 123.06903076171875 516.0850219726562 122.11100006103516 C 518.8823852539062 111.33433532714844 518.66357421875 95.57742309570312 517.9931640625 84.74737548828125 C 485.5722961425781 84.85942840576172 456.2268981933594 85.05005645751953 430.11956787109375 85.04302978515625" stroke-width="0.0" fill="rgb(39, 39, 39)" opacity="0.9867397" stroke="rgb(0, 0, 0)" stroke-opacity="1.0" stroke-linecap="round" stroke-linejoin="round"/>
    <path d="M 10.896626472473145 196.40696716308594 C 11.277581214904785 222.13882446289062 10.650202751159668 250.25051879882812 11.010347366333008 275.7420654296875 C 13.146490097045898 280.6040954589844 14.114131927490234 279.7893371582031 21.080215454101562 277.791748046875 C 20.960529327392578 256.0833740234375 21.568941116333008 230.71414184570312 19.244352340698242 206.1283721923828 C 17.78837776184082 202.0932159423828 16.20903205871582 197.67176818847656 10.896626472473145 196.40696716308594" stroke-width="0.0" fill="rgb(12, 12, 12)" opacity="0.99686396" stroke="rgb(0, 0, 0)" stroke-opacity="1.0" stroke-linecap="round" stroke-linejoin="round"/>
    <path d="M 441.4662780761719 400.8686828613281 C 457.1221923828125 412.0531921386719 486.1047668457031 409.0357360839844 512.6339721679688 410.4768371582031 C 516.5012817382812 407.8888244628906 517.6634521484375 405.7380676269531 520.1964721679688 400.2945251464844 C 484.3536682128906 401.22381591796875 454.8304748535156 395.2104187011719 441.4662780761719 400.8686828613281" stroke-width="0.0" fill="rgb(49, 49, 49)" opacity="1.0000046" stroke="rgb(0, 0, 0)" stroke-opacity="1.0" stroke-linecap="round" stroke-linejoin="round"/>
    <path d="M 349.44622802734375 391.0354919433594 C 353.8815002441406 391.1816711425781 359.76312255859375 395.5050354003906 369.64678955078125 391.57843017578125 C 368.8869934082031 383.3647766113281 362.6438903808594 380.76434326171875 356.65057373046875 376.65496826171875 C 354.20941162109375 379.54864501953125 350.1080627441406 383.40753173828125 349.44622802734375 391.0354919433594" stroke-width="0.0" fill="rgb(53, 53, 53)" opacity="0.99585235" stroke="rgb(0, 0, 0)" stroke-opacity="1.0" stroke-linecap="round" stroke-linejoin="round"/>
    <path d="M 439.7859191894531 119.08950805664062 C 434.748046875 115.25765228271484 430.94500732421875 115.29607391357422 428.2785949707031 118.95199584960938 C 428.8840026855469 124.00820922851562 430.6181335449219 131.279541015625 429.9545593261719 138.16563415527344 C 436.64801025390625 138.735107421875 437.5017395019531 134.520751953125 440.0904541015625 129.60250854492188 C 439.78155517578125 123.66704559326172 439.80584716796875 117.17041778564453 439.7859191894531 119.08950805664062" stroke-width="0.0" fill="rgb(27, 27, 27)" opacity="0.997928" stroke="rgb(0, 0, 0)" stroke-opacity="1.0" stroke-linecap="round" stroke-linejoin="round"/>
    <path d="M 447.12115478515625 142.2427978515625 C 451.88250732421875 154.5653533935547 450.0491027832031 148.943359375 449.78192138671875 161.4441375732422 C 452.4158020019531 166.81640625 452.89984130859375 168.05601501464844 457.8538513183594 164.68109130859375 C 461.1455383300781 156.88931274414062 454.3351745605469 154.2177276611328 457.42901611328125 144.9577178955078 C 454.8288879394531 141.02755737304688 452.12811279296875 141.59280395507812 447.12115478515625 142.2427978515625" stroke-width="0.0" fill="rgb(76, 76, 76)" opacity="1.0000144" stroke="rgb(0, 0, 0)" stroke-opacity="1.0" stroke-linecap="round" stroke-linejoin="round"/>
    <path d="M 429.86077880859375 85.11227416992188 C 430.6709289550781 91.05088806152344 427.4540100097656 97.9808578491211 430.3778076171875 102.02268981933594 C 457.2606506347656 101.96588897705078 485.53985595703125 102.73516082763672 517.7587890625 101.11343383789062 C 517.7086791992188 92.3910903930664 519.0759887695312 85.85089111328125 517.9507446289062 84.9605712890625 C 481.5086364746094 85.00865936279297 448.7428894042969 85.41133117675781 429.86077880859375 85.11227416992188" stroke-width="0.0" fill="rgb(27, 27, 27)" opacity="0.9978389" stroke="rgb(0, 0, 0)" stroke-opacity="1.0" stroke-linecap="round" stroke-linejoin="round"/>
  </g>
</svg>
