<?xml version="1.0" ?>
<svg xmlns="http://www.w3.org/2000/svg" version="1.1" width="512" height="512">
  <defs/>
  <g>
    <path d="M -3.1931049823760986 -5.354722499847412 C -1.9483122825622559 170.3333282470703 -2.0116820335388184 340.6666564941406 -1.5654643774032593 517.0748901367188 C 169.87010192871094 517.56005859375 339.8671569824219 518.3515014648438 517.6461791992188 519.4061279296875 C 518.019775390625 340.0199890136719 518.9689331054688 169.59107971191406 519.4435424804688 -5.776742935180664 C 340.0323181152344 -5.638206481933594 169.69046020507812 -5.56477165222168 -3.1931049823760986 -5.354722499847412" stroke-width="0.0" fill="rgb(64, 64, 64)" opacity="0.98103476" stroke="rgb(0, 0, 0)" stroke-opacity="1.0" stroke-linecap="round" stroke-linejoin="round"/>
    <path d="M -4.664082050323486 129.63002014160156 C -6.083906650543213 205.3798370361328 -6.425018310546875 280.689208984375 -5.399839401245117 354.4569396972656 C 7.215500831604004 364.4039001464844 10.83508586883545 368.13909912109375 27.5377197265625 365.65283203125 C 26.127126693725586 369.96197509765625 19.39105224609375 366.6000671386719 10.081279754638672 369.0445251464844 C 18.576757431030273 371.1346130371094 25.03640365600586 371.92169189453125 34.196533203125 374.5101013183594 C 33.96445846557617 380.62335205078125 32.44936752319336 384.25482177734375 32.06078338623047 377.47216796875 C 34.81685256958008 375.92230224609375 33.66434860229492 380.62042236328125 37.90813064575195 387.9869384765625 C 40.816490173339844 383.6761474609375 39.237640380859375 377.14227294921875 41.25783920288086 373.93768310546875 C 45.390480041503906 378.18389892578125 47.808895111083984 376.74822998046875 43.487125396728516 384.49066162109375 C 52.15669631958008 375.8297119140625 52.06168746948242 384.2419738769531 57.39204406738281 379.91644287109375 C 74.8184585571289 392.9682312011719 80.40013122558594 414.3642272949219 101.96236419677734 431.67340087890625 C 111.68110656738281 420.95220947265625 132.0126190185547 420.0238342285156 148.5318603515625 424.0159912109375 C 146.65560913085938 409.5946350097656 156.1907196044922 413.9340515136719 166.4589385986328 409.3860168457031 C 239.4210662841797 402.59039306640625 312.689453125 397.9387512207031 389.13818359375 392.0400695800781 C 388.7702331542969 310.3708190917969 389.0323791503906 219.79786682128906 389.1913146972656 130.6594696044922 C 259.6636047363281 127.7524642944336 128.68313598632812 132.48104858398438 -4.664082050323486 129.63002014160156" stroke-width="0.0" fill="rgb(73, 73, 73)" opacity="0.84300596" stroke="rgb(0, 0, 0)" stroke-opacity="1.0" stroke-linecap="round" stroke-linejoin="round"/>
    <path d="M -5.57924222946167 376.0382080078125 C -5.936495304107666 420.34307861328125 -5.5329132080078125 465.9182434082031 -3.127727508544922 519.8687133789062 C 171.32635498046875 518.853271484375 341.24810791015625 518.00048828125 517.7145385742188 517.6018676757812 C 517.9087524414062 472.6627197265625 517.9525146484375 433.53125 518.1910400390625 394.1181640625 C 490.7024841308594 395.82049560546875 470.4868469238281 395.5695495605469 448.1703186035156 400.40740966796875 C 447.8413391113281 408.7431945800781 438.5909423828125 406.11505126953125 437.7889709472656 413.7481689453125 C 405.6349182128906 420.8963623046875 366.6168212890625 420.9424743652344 329.8523864746094 427.210205078125 C 240.3109893798828 429.23858642578125 154.39004516601562 426.4908752441406 84.6934814453125 437.0649108886719 C 49.59954833984375 428.45660400390625 46.32892608642578 436.8635559082031 38.70199203491211 418.962646484375 C 43.94306182861328 418.455322265625 32.495338439941406 410.6193542480469 43.828330993652344 410.5444641113281 C 38.66398239135742 406.7900390625 32.230648040771484 411.48516845703125 38.69565200805664 401.3785400390625 C 34.07263946533203 400.2479553222656 31.108884811401367 388.2340087890625 32.13648986816406 379.74609375 C 19.61385154724121 372.0487060546875 10.396122932434082 372.3789978027344 -5.57924222946167 376.0382080078125" stroke-width="0.0" fill="rgb(71, 71, 71)" opacity="1.0086612" stroke="rgb(0, 0, 0)" stroke-opacity="1.0" stroke-linecap="round" stroke-linejoin="round"/>
    <path d="M 8.852517127990723 -8.577420234680176 C 6.4254937171936035 34.933349609375 8.462835311889648 70.51056671142578 7.834709644317627 101.0974349975586 C 11.096489906311035 112.47511291503906 4.790243148803711 113.73214721679688 18.009756088256836 117.93020629882812 C 141.8592529296875 115.5922622680664 266.7491149902344 116.33513641357422 388.4927673339844 117.7936019897461 C 390.4531555175781 75.0728759765625 389.9128723144531 36.86394500732422 388.1346740722656 -9.55643081665039 C 254.77700805664062 -10.198973655700684 126.69396209716797 -9.994593620300293 8.852517127990723 -8.577420234680176" stroke-width="0.0" fill="rgb(45, 45, 45)" opacity="0.9447083" stroke="rgb(0, 0, 0)" stroke-opacity="1.0" stroke-linecap="round" stroke-linejoin="round"/>
    <path d="M 518.8640747070312 -7.070926666259766 C 467.69049072265625 -7.505183219909668 426.8052062988281 -7.802545070648193 390.1689453125 -6.226752281188965 C 389.9479064941406 126.0186538696289 390.3395690917969 251.0033416748047 391.6180114746094 370.52020263671875 C 394.5041809082031 390.7754211425781 390.8010559082031 401.6680908203125 405.5263977050781 406.48828125 C 415.6689758300781 402.814208984375 428.1246032714844 407.67291259765625 436.18975830078125 402.50665283203125 C 441.142822265625 401.4976806640625 441.5475158691406 396.70391845703125 443.0976257324219 387.7949523925781 C 443.0384521484375 315.544921875 443.30804443359375 240.12139892578125 443.1791687011719 164.76011657714844 C 462.39056396484375 163.3586883544922 487.5231628417969 163.09674072265625 519.7478637695312 162.98146057128906 C 519.1361083984375 106.41095733642578 519.1561889648438 51.81186294555664 518.8640747070312 -7.070926666259766" stroke-width="0.0" fill="rgb(57, 57, 57)" opacity="0.97992766" stroke="rgb(0, 0, 0)" stroke-opacity="1.0" stroke-linecap="round" stroke-linejoin="round"/>
    <path d="M 446.6903076171875 167.1541290283203 C 443.1425476074219 168.70220947265625 443.16845703125 170.33932495117188 443.7594299316406 175.236083984375 C 444.0356750488281 245.7792510986328 443.7715759277344 315.0928039550781 444.088134765625 370.8562316894531 C 445.6896667480469 384.1714172363281 445.91229248046875 386.2171325683594 453.1325988769531 389.2584533691406 C 470.863037109375 388.7229309082031 492.5063171386719 389.8710021972656 518.7316284179688 388.333740234375 C 518.465576171875 313.3818359375 518.1768188476562 238.75106811523438 517.9116821289062 164.17349243164062 C 493.898681640625 166.15072631835938 465.4570007324219 164.24700927734375 446.6903076171875 167.1541290283203" stroke-width="0.0" fill="rgb(4, 4, 4)" opacity="1.0093405" stroke="rgb(0, 0, 0)" stroke-opacity="1.0" stroke-linecap="round" stroke-linejoin="round"/>
    <path d="M 379.3280029296875 409.5025939941406 C 379.0751953125 399.2077331542969 373.2331848144531 399.4391784667969 362.18731689453125 396.56890869140625 C 302.5030212402344 399.3009948730469 241.7166748046875 403.6379699707031 184.61256408691406 411.3179931640625 C 175.18955993652344 413.44073486328125 169.25363159179688 412.88818359375 167.53759765625 427.9894104003906 C 211.79330444335938 428.2442321777344 264.7718200683594 426.0797424316406 321.02264404296875 424.983642578125 C 337.6155700683594 422.582763671875 354.9259948730469 421.91815185546875 368.7201232910156 419.52374267578125 C 374.2845764160156 416.5301208496094 378.7767028808594 413.85101318359375 379.3280029296875 409.5025939941406" stroke-width="0.0" fill="rgb(130, 130, 130)" opacity="0.7994792" stroke="rgb(0, 0, 0)" stroke-opacity="1.0" stroke-linecap="round" stroke-linejoin="round"/>
    <path d="M -1.7326440811157227 118.01399230957031 C -2.4360315799713135 122.22565460205078 -3.3653860092163086 125.47635650634766 -5.510352611541748 129.1509552001953 C 129.04681396484375 129.6115264892578 260.6893615722656 128.71620178222656 388.49090576171875 129.37147521972656 C 390.8360290527344 122.13050079345703 390.988037109375 119.04261779785156 388.1807861328125 118.30361938476562 C 258.8349304199219 117.70240020751953 128.79347229003906 118.30596160888672 -1.7326440811157227 118.01399230957031" stroke-width="0.0" fill="rgb(30, 30, 30)" opacity="0.9981867" stroke="rgb(0, 0, 0)" stroke-opacity="1.0" stroke-linecap="round" stroke-linejoin="round"/>
    <path d="M 144.27615356445312 411.9875793457031 C 151.47964477539062 410.4456481933594 145.52117919921875 409.05517578125 150.65341186523438 411.607421875 C 140.51585388183594 428.8146057128906 141.66104125976562 459.5934143066406 142.22532653808594 475.4844665527344 C 141.7325439453125 478.63226318359375 142.43504333496094 482.5330810546875 140.88241577148438 475.25921630859375 C 143.3923797607422 475.85504150390625 145.0972442626953 477.0142517089844 142.1749267578125 476.7523498535156 C 141.5618896484375 469.1647644042969 141.7173614501953 450.0649719238281 141.97840881347656 432.16522216796875 C 159.3177032470703 430.3846130371094 167.04090881347656 429.9752502441406 178.81442260742188 429.0380859375 C 166.29583740234375 421.0362243652344 166.45523071289062 417.6564025878906 172.864501953125 406.9732971191406 C 151.32945251464844 411.6084289550781 143.36758422851562 413.55230712890625 144.27615356445312 411.9875793457031" stroke-width="0.0" fill="rgb(40, 40, 40)" opacity="1.0072984" stroke="rgb(0, 0, 0)" stroke-opacity="1.0" stroke-linecap="round" stroke-linejoin="round"/>
    <path d="M 114.85714721679688 420.0978088378906 C 115.80946350097656 424.07342529296875 114.17465209960938 429.640869140625 113.55277252197266 433.0295715332031 C 123.28123474121094 433.1999206542969 129.6092071533203 433.36865234375 149.36920166015625 433.84478759765625 C 149.87384033203125 422.21087646484375 148.81529235839844 416.1737365722656 145.84193420410156 417.59552001953125 C 127.13794708251953 420.8836669921875 120.78475189208984 420.0780029296875 114.85714721679688 420.0978088378906" stroke-width="0.0" fill="rgb(60, 60, 60)" opacity="0.9973457" stroke="rgb(0, 0, 0)" stroke-opacity="1.0" stroke-linecap="round" stroke-linejoin="round"/>
    <path d="M 405.45623779296875 377.6302490234375 C 406.942626953125 396.9501647949219 405.6733093261719 416.0242614746094 406.02197265625 419.10162353515625 C 422.31591796875 416.22039794921875 425.50677490234375 419.1571044921875 421.2085266113281 422.39019775390625 C 420.1147766113281 429.4512023925781 424.8381042480469 428.67498779296875 420.7372131347656 421.4788513183594 C 430.801513671875 417.2789001464844 430.21783447265625 401.9808654785156 426.6647033691406 382.69000244140625 C 418.05902099609375 383.1676940917969 412.0675354003906 384.26934814453125 405.45623779296875 377.6302490234375" stroke-width="0.0" fill="rgb(53, 53, 53)" opacity="1.0004518" stroke="rgb(0, 0, 0)" stroke-opacity="1.0" stroke-linecap="round" stroke-linejoin="round"/>
    <path d="M 151.9520263671875 184.09580993652344 C 138.7643280029297 192.15684509277344 134.83233642578125 204.31422424316406 124.50202941894531 212.8497772216797 C 122.91110229492188 224.09226989746094 117.79976654052734 232.62948608398438 114.52191162109375 241.85015869140625 C 112.00252532958984 283.66888427734375 112.14329528808594 327.0174560546875 114.45824432373047 372.0772399902344 C 166.1880645751953 377.37445068359375 226.89218139648438 376.3367919921875 293.545166015625 376.4369812011719 C 294.9136047363281 334.85040283203125 295.1933288574219 286.8155517578125 293.3306579589844 239.61770629882812 C 290.655029296875 225.71485900878906 280.8034362792969 216.57699584960938 277.3699645996094 202.23707580566406 C 263.49261474609375 186.99073791503906 248.90650939941406 175.8907012939453 229.481689453125 170.88746643066406 C 216.98178100585938 168.42723083496094 204.13284301757812 166.42982482910156 189.470947265625 169.46263122558594 C 172.46893310546875 172.71726989746094 162.65499877929688 177.3140106201172 151.9520263671875 184.09580993652344" stroke-width="0.0" fill="rgb(23, 23, 23)" opacity="0.9778498" stroke="rgb(0, 0, 0)" stroke-opacity="1.0" stroke-linecap="round" stroke-linejoin="round"/>
    <path d="M 390.56292724609375 -5.8897600173950195 C 390.2203369140625 124.05765533447266 389.7475280761719 252.70094299316406 392.566162109375 370.80853271484375 C 393.6605224609375 386.2989501953125 401.20587158203125 391.7563781738281 407.6439208984375 386.6658020019531 C 418.434326171875 385.37139892578125 423.0630798339844 390.24176025390625 430.6423645019531 407.8456115722656 C 436.6844177246094 404.5419006347656 439.98529052734375 398.8461608886719 441.3722839355469 389.77777099609375 C 440.4548034667969 306.61712646484375 431.11016845703125 216.99716186523438 428.20947265625 126.08090209960938 C 437.2323913574219 123.28833770751953 434.98944091796875 118.64774322509766 428.236572265625 128.12721252441406 C 429.9779357910156 121.74933624267578 427.7474060058594 108.59513854980469 427.6006774902344 92.96589660644531 C 431.33062744140625 63.90529251098633 430.8481140136719 31.825607299804688 427.6496276855469 -0.763263463973999 C 414.554931640625 -4.187166213989258 401.7303466796875 -5.280872821807861 390.56292724609375 -5.8897600173950195" stroke-width="0.0" fill="rgb(51, 51, 51)" opacity="0.93497515" stroke="rgb(0, 0, 0)" stroke-opacity="1.0" stroke-linecap="round" stroke-linejoin="round"/>
    <path d="M 12.019989013671875 -7.659274101257324 C 6.234802722930908 37.54280090332031 4.914645195007324 80.65226745605469 8.262765884399414 115.3677978515625 C 47.61661148071289 118.27484893798828 96.04370880126953 117.51969146728516 142.9137420654297 116.23523712158203 C 142.6588592529297 74.00199127197266 144.04766845703125 33.46855926513672 141.6744384765625 -7.030459403991699 C 93.04829406738281 -7.639883995056152 48.627296447753906 -7.945333003997803 12.019989013671875 -7.659274101257324" stroke-width="0.0" fill="rgb(103, 103, 103)" opacity="1.002145" stroke="rgb(0, 0, 0)" stroke-opacity="1.0" stroke-linecap="round" stroke-linejoin="round"/>
    <path d="M 270.49249267578125 -3.933525323867798 C 268.3456726074219 41.93909454345703 266.68023681640625 84.8086929321289 271.4808349609375 113.71540069580078 C 303.5586242675781 119.13333129882812 344.0635070800781 116.7928466796875 388.3084716796875 115.84038543701172 C 390.5238037109375 76.14755249023438 388.8664245605469 32.471290588378906 391.8646545410156 -6.763800144195557 C 345.7971496582031 -6.316664695739746 306.6386413574219 -5.898026466369629 270.49249267578125 -3.933525323867798" stroke-width="0.0" fill="rgb(110, 110, 110)" opacity="0.99557745" stroke="rgb(0, 0, 0)" stroke-opacity="1.0" stroke-linecap="round" stroke-linejoin="round"/>
    <path d="M 518.32568359375 481.4130554199219 C 383.87872314453125 482.7369079589844 246.91275024414062 483.59814453125 116.21870422363281 482.495849609375 C 74.25007629394531 487.7881164550781 44.33496856689453 496.7669372558594 9.21194076538086 499.6649169921875 C 5.3486104011535645 501.68634033203125 2.325615406036377 505.6255187988281 -1.2122447490692139 518.388427734375 C 171.63906860351562 518.5947265625 341.3177490234375 518.7396240234375 517.5360107421875 518.8262939453125 C 517.5283813476562 502.3910827636719 517.5289916992188 493.6231384277344 518.32568359375 481.4130554199219" stroke-width="0.0" fill="rgb(85, 85, 85)" opacity="0.9840829" stroke="rgb(0, 0, 0)" stroke-opacity="1.0" stroke-linecap="round" stroke-linejoin="round"/>
    <path d="M 144.73277282714844 -4.208370208740234 C 144.84512329101562 36.03435134887695 143.8303985595703 71.17744445800781 147.8218231201172 102.92566680908203 C 188.04090881347656 105.8962631225586 225.1005401611328 105.0557632446289 266.17596435546875 102.97551727294922 C 265.4657287597656 67.59263610839844 264.69976806640625 33.48324966430664 265.677001953125 -6.600377559661865 C 223.20272827148438 -6.126619815826416 183.57131958007812 -5.747775077819824 144.73277282714844 -4.208370208740234" stroke-width="0.0" fill="rgb(31, 31, 31)" opacity="0.9924739" stroke="rgb(0, 0, 0)" stroke-opacity="1.0" stroke-linecap="round" stroke-linejoin="round"/>
    <path d="M 429.5841064453125 -5.363614082336426 C 430.2233581542969 33.64314651489258 430.1148376464844 65.21623229980469 430.46728515625 84.18587493896484 C 464.3433532714844 85.44457244873047 494.4755554199219 83.0284652709961 520.5615844726562 90.06564331054688 C 518.8995361328125 65.88209533691406 518.4599609375 32.93034744262695 518.4074096679688 -2.3338305950164795 C 483.6258544921875 -4.9455342292785645 455.7843017578125 -5.8179545402526855 429.5841064453125 -5.363614082336426" stroke-width="0.0" fill="rgb(5, 5, 5)" opacity="1.0067844" stroke="rgb(0, 0, 0)" stroke-opacity="1.0" stroke-linecap="round" stroke-linejoin="round"/>
    <path d="M -8.433953285217285 180.36489868164062 C -10.210298538208008 251.3438262939453 -9.825886726379395 311.0517272949219 -8.936105728149414 362.4768981933594 C 16.548973083496094 359.7467956542969 25.255252838134766 357.9647521972656 33.49580383300781 355.3471984863281 C 33.42510986328125 309.2705078125 34.13332748413086 265.1101379394531 30.987001419067383 228.1396026611328 C 18.986665725708008 212.60171508789062 17.461013793945312 193.01107788085938 -8.433953285217285 180.36489868164062" stroke-width="0.0" fill="rgb(43, 43, 43)" opacity="0.94264936" stroke="rgb(0, 0, 0)" stroke-opacity="1.0" stroke-linecap="round" stroke-linejoin="round"/>
    <path d="M 518.3251953125 165.45999145507812 C 487.9218444824219 166.4007568359375 466.21319580078125 167.2196502685547 440.86865234375 166.89810180664062 C 441.5507507324219 200.05404663085938 442.580078125 232.4140625 445.1126403808594 256.7893371582031 C 446.19677734375 250.15577697753906 453.0304870605469 246.80686950683594 449.21917724609375 242.09043884277344 C 453.02001953125 236.0500946044922 458.74444580078125 233.1052703857422 465.7313232421875 236.02569580078125 C 472.38140869140625 237.75900268554688 484.4274597167969 238.11422729492188 501.9737548828125 237.436279296875 C 506.1971435546875 237.916259765625 504.7630920410156 241.24424743652344 499.0971984863281 246.0839385986328 C 500.1838684082031 247.1929931640625 504.3753356933594 248.54151916503906 508.7899475097656 249.49490356445312 C 504.9405212402344 249.70265197753906 503.4691162109375 254.36387634277344 500.7747497558594 254.48692321777344 C 504.1857604980469 255.5879669189453 507.8697814941406 256.5321350097656 518.71826171875 258.76361083984375 C 518.31591796875 226.00091552734375 518.3735961914062 195.99038696289062 518.3251953125 165.45999145507812" stroke-width="0.0" fill="rgb(2, 2, 2)" opacity="1.0097041" stroke="rgb(0, 0, 0)" stroke-opacity="1.0" stroke-linecap="round" stroke-linejoin="round"/>
    <path d="M 520.0255126953125 85.68504333496094 C 482.9612121582031 86.18968200683594 455.0675964355469 82.9264907836914 427.75189208984375 84.55825805664062 C 430.43927001953125 190.2938232421875 428.969482421875 295.0699768066406 429.2402038574219 392.8489990234375 C 442.9319152832031 400.69970703125 441.3450622558594 401.3440246582031 443.52685546875 392.01165771484375 C 445.3265686035156 324.5600891113281 441.2755126953125 247.45587158203125 443.9158935546875 166.88055419921875 C 459.9566345214844 164.5137481689453 487.171875 168.08831787109375 520.45703125 165.31236267089844 C 520.60009765625 133.08372497558594 520.608154296875 106.09221649169922 520.0255126953125 85.68504333496094" stroke-width="0.0" fill="rgb(44, 44, 44)" opacity="0.9479949" stroke="rgb(0, 0, 0)" stroke-opacity="1.0" stroke-linecap="round" stroke-linejoin="round"/>
    <path d="M 290.706298828125 131.3171844482422 C 302.5015869140625 131.1912078857422 307.6609191894531 133.69345092773438 312.1820068359375 133.037841796875 C 312.531494140625 136.2787628173828 310.4697265625 137.15582275390625 306.3367614746094 138.21697998046875 C 313.4896545410156 149.3925018310547 323.0081481933594 156.86561584472656 328.4362487792969 164.13803100585938 C 328.4691162109375 203.69615173339844 325.8670959472656 236.06153869628906 324.7359313964844 258.8847961425781 C 346.6543273925781 262.7702941894531 369.548583984375 259.8777770996094 389.58868408203125 261.4320983886719 C 390.3555603027344 221.51913452148438 390.27252197265625 174.1199493408203 389.07666015625 130.03985595703125 C 365.4003601074219 127.20913696289062 330.67669677734375 130.02352905273438 290.706298828125 131.3171844482422" stroke-width="0.0" fill="rgb(104, 104, 104)" opacity="0.9902456" stroke="rgb(0, 0, 0)" stroke-opacity="1.0" stroke-linecap="round" stroke-linejoin="round"/>
    <path d="M 329.8821716308594 279.0610046386719 C 330.02703857421875 312.8858947753906 329.17279052734375 342.3586730957031 332.8164367675781 372.4644775390625 C 349.8379821777344 378.2692565917969 366.0770568847656 378.56622314453125 389.5488586425781 371.470458984375 C 389.91436767578125 345.745361328125 388.5402526855469 311.1579284667969 391.3028869628906 279.6062927246094 C 368.7540588378906 278.3865051269531 349.1917724609375 279.04718017578125 329.8821716308594 279.0610046386719" stroke-width="0.0" fill="rgb(114, 114, 114)" opacity="0.96493477" stroke="rgb(0, 0, 0)" stroke-opacity="1.0" stroke-linecap="round" stroke-linejoin="round"/>
    <path d="M 70.56462097167969 276.7444763183594 C 72.59932708740234 324.08935546875 69.3599853515625 371.1072998046875 72.36476135253906 411.98028564453125 C 76.21903991699219 422.2383117675781 90.48381805419922 420.5263977050781 99.30868530273438 424.44921875 C 105.59966278076172 420.2380676269531 110.02934265136719 419.0697021484375 110.01896667480469 409.2677001953125 C 111.12604522705078 363.23138427734375 110.67620849609375 318.4362487792969 107.22704315185547 278.4134521484375 C 98.15849304199219 276.5590515136719 82.94607543945312 277.6703796386719 70.56462097167969 276.7444763183594" stroke-width="0.0" fill="rgb(101, 101, 101)" opacity="0.98860127" stroke="rgb(0, 0, 0)" stroke-opacity="1.0" stroke-linecap="round" stroke-linejoin="round"/>
    <path d="M 450.6495361328125 234.56735229492188 C 451.522216796875 251.21051025390625 449.7412414550781 275.36773681640625 452.3287353515625 294.85858154296875 C 452.3158874511719 297.59130859375 461.98919677734375 289.1741638183594 456.4186706542969 308.9506530761719 C 470.435791015625 311.2564697265625 485.38433837890625 311.10198974609375 502.7707214355469 307.9722595214844 C 503.0444641113281 288.6851501464844 502.6347351074219 260.9501953125 503.5447692871094 236.4377899169922 C 485.4858703613281 234.81590270996094 467.148193359375 234.8572540283203 450.6495361328125 234.56735229492188" stroke-width="0.0" fill="rgb(25, 25, 25)" opacity="1.0081048" stroke="rgb(0, 0, 0)" stroke-opacity="1.0" stroke-linecap="round" stroke-linejoin="round"/>
    <path d="M 278.59991455078125 404.115478515625 C 239.9550018310547 402.59716796875 210.4130859375 412.52374267578125 164.88397216796875 413.7886047363281 C 171.07513427734375 415.5166931152344 169.98294067382812 421.0694580078125 164.80859375 429.5199890136719 C 200.785888671875 430.5300598144531 240.06349182128906 428.7060546875 280.2856140136719 426.4604187011719 C 282.06768798828125 422.5247497558594 282.9866638183594 415.31878662109375 278.59991455078125 404.115478515625" stroke-width="0.0" fill="rgb(132, 132, 132)" opacity="0.9226057" stroke="rgb(0, 0, 0)" stroke-opacity="1.0" stroke-linecap="round" stroke-linejoin="round"/>
    <path d="M 370.5368347167969 399.9404602050781 C 369.92010498046875 397.05157470703125 368.4214782714844 393.1322937011719 361.7940368652344 393.2265319824219 C 338.17779541015625 400.723876953125 315.1810302734375 395.0450439453125 284.7457275390625 403.9610595703125 C 277.75225830078125 402.0566711425781 277.6711730957031 404.24737548828125 281.1473083496094 415.7430725097656 C 283.81158447265625 421.2592468261719 289.9858703613281 425.8636169433594 302.1634521484375 428.47845458984375 C 321.7582702636719 430.5894775390625 335.7873229980469 420.71600341796875 352.98828125 418.3231506347656 C 357.9393005371094 423.8468322753906 358.4721374511719 427.5501403808594 365.3465270996094 428.6259460449219 C 365.7694091796875 413.93377685546875 374.4067687988281 418.7308044433594 370.5368347167969 399.9404602050781" stroke-width="0.0" fill="rgb(160, 160, 160)" opacity="0.88394624" stroke="rgb(0, 0, 0)" stroke-opacity="1.0" stroke-linecap="round" stroke-linejoin="round"/>
    <path d="M 48.35105895996094 156.89309692382812 C 48.81364822387695 183.67364501953125 50.883384704589844 221.87283325195312 49.867496490478516 257.30517578125 C 48.22417449951172 257.3800354003906 56.2960090637207 260.5836181640625 60.13251876831055 256.66180419921875 C 59.54826354980469 223.87820434570312 58.593746185302734 193.37445068359375 59.419044494628906 163.04043579101562 C 58.209686279296875 157.27847290039062 55.734642028808594 154.87283325195312 48.35105895996094 156.89309692382812" stroke-width="0.0" fill="rgb(46, 46, 46)" opacity="1.0006129" stroke="rgb(0, 0, 0)" stroke-opacity="1.0" stroke-linecap="round" stroke-linejoin="round"/>
    <path d="M 322.22857666015625 277.1165771484375 C 320.25701904296875 273.93243408203125 322.197509765625 274.3785705566406 331.1578063964844 276.23748779296875 C 347.8775939941406 275.80548095703125 371.32476806640625 275.8973693847656 389.4079284667969 276.1923828125 C 390.5002136230469 267.17138671875 389.56787109375 264.6144104003906 388.4564208984375 261.3163757324219 C 365.0548400878906 263.3877258300781 343.2852478027344 260.5055847167969 326.8417663574219 260.7663269042969 C 320.7376403808594 261.3590087890625 320.9480285644531 263.8638000488281 322.22857666015625 277.1165771484375" stroke-width="0.0" fill="rgb(124, 124, 124)" opacity="0.9996053" stroke="rgb(0, 0, 0)" stroke-opacity="1.0" stroke-linecap="round" stroke-linejoin="round"/>
    <path d="M 137.21969604492188 434.9046325683594 C 133.6548309326172 448.7024841308594 134.85250854492188 465.1224060058594 134.63600158691406 481.8715515136719 C 145.89088439941406 484.0487060546875 156.31504821777344 484.70697021484375 150.50146484375 482.88397216796875 C 149.81817626953125 475.4486999511719 150.28030395507812 454.4188537597656 150.1798858642578 435.6680908203125 C 147.69776916503906 434.3263244628906 137.4972381591797 434.8289489746094 137.21969604492188 434.9046325683594" stroke-width="0.0" fill="rgb(57, 57, 57)" opacity="0.9886293" stroke="rgb(0, 0, 0)" stroke-opacity="1.0" stroke-linecap="round" stroke-linejoin="round"/>
    <path d="M 310.1950988769531 276.4609069824219 C 306.4787902832031 305.1360168457031 312.0810852050781 336.1121520996094 309.4305725097656 369.677490234375 C 312.31195068359375 373.295166015625 310.68975830078125 373.3907470703125 317.2137451171875 372.677001953125 C 318.4294128417969 344.0674743652344 317.5443115234375 309.7916259765625 318.430419921875 278.7486572265625 C 318.078857421875 275.673095703125 312.1612548828125 275.6492919921875 310.1950988769531 276.4609069824219" stroke-width="0.0" fill="rgb(33, 33, 33)" opacity="1.0005708" stroke="rgb(0, 0, 0)" stroke-opacity="1.0" stroke-linecap="round" stroke-linejoin="round"/>
    <path d="M 321.93511962890625 277.8940734863281 C 321.7318420410156 307.5000915527344 321.68389892578125 342.69598388671875 322.24481201171875 371.9257507324219 C 323.6889953613281 375.41290283203125 323.8520812988281 378.1066589355469 330.3019104003906 379.5461730957031 C 330.0951843261719 343.4078369140625 329.4327697753906 310.0176086425781 330.453369140625 280.601318359375 C 328.881103515625 277.0305480957031 325.97808837890625 275.8733825683594 321.93511962890625 277.8940734863281" stroke-width="0.0" fill="rgb(42, 42, 42)" opacity="1.0122663" stroke="rgb(0, 0, 0)" stroke-opacity="1.0" stroke-linecap="round" stroke-linejoin="round"/>
    <path d="M 321.95904541015625 148.89967346191406 C 323.7100524902344 192.91734313964844 322.7221984863281 233.8321075439453 324.27142333984375 265.2983093261719 C 333.96063232421875 234.2349853515625 328.94219970703125 203.57672119140625 330.2565612792969 167.906982421875 C 332.9703674316406 162.4727783203125 323.3084716796875 162.27223205566406 321.95904541015625 148.89967346191406" stroke-width="0.0" fill="rgb(57, 57, 57)" opacity="1.0074869" stroke="rgb(0, 0, 0)" stroke-opacity="1.0" stroke-linecap="round" stroke-linejoin="round"/>
    <path d="M 284.0251770019531 157.6395263671875 C 283.7248840332031 165.64425659179688 283.99395751953125 179.65835571289062 283.8329772949219 187.96661376953125 C 284.7203369140625 193.0180206298828 288.461669921875 196.190673828125 293.3135986328125 202.071533203125 C 294.50146484375 191.7789764404297 294.0208435058594 172.64822387695312 293.8244323730469 158.81500244140625 C 292.35003662109375 155.86740112304688 289.1563720703125 156.24093627929688 284.0251770019531 157.6395263671875" stroke-width="0.0" fill="rgb(58, 58, 58)" opacity="1.0010873" stroke="rgb(0, 0, 0)" stroke-opacity="1.0" stroke-linecap="round" stroke-linejoin="round"/>
    <path d="M 366.0836181640625 432.4544677734375 C 372.21728515625 427.6235656738281 369.9363098144531 434.79217529296875 372.6037292480469 436.8537902832031 C 369.9231262207031 456.5418701171875 375.68536376953125 482.0156555175781 367.8899841308594 484.6688537597656 C 364.5704040527344 473.5578918457031 365.6997375488281 452.5804443359375 366.0836181640625 432.4544677734375" stroke-width="0.0" fill="rgb(60, 60, 60)" opacity="0.998011" stroke="rgb(0, 0, 0)" stroke-opacity="1.0" stroke-linecap="round" stroke-linejoin="round"/>
    <path d="M 10.442394256591797 155.72921752929688 C 7.750677585601807 160.169677734375 12.20362663269043 170.09327697753906 10.702678680419922 178.05332946777344 C 13.80781078338623 177.28314208984375 14.737099647521973 181.53216552734375 20.334993362426758 182.83277893066406 C 19.8050479888916 174.50299072265625 19.599233627319336 163.955810546875 20.489299774169922 156.87269592285156 C 16.909866333007812 155.27760314941406 13.580092430114746 153.44412231445312 10.442394256591797 155.72921752929688" stroke-width="0.0" fill="rgb(58, 58, 58)" opacity="0.9996072" stroke="rgb(0, 0, 0)" stroke-opacity="1.0" stroke-linecap="round" stroke-linejoin="round"/>
    <path d="M 142.95375061035156 155.45977783203125 C 140.94577026367188 156.39207458496094 132.86334228515625 155.3161163330078 132.19581604003906 157.0201416015625 C 135.66029357910156 163.4316864013672 131.62857055664062 173.2223358154297 135.1893310546875 179.61817932128906 C 143.5419921875 175.3842315673828 143.660400390625 170.0784454345703 142.95375061035156 155.45977783203125" stroke-width="0.0" fill="rgb(60, 60, 60)" opacity="0.9994932" stroke="rgb(0, 0, 0)" stroke-opacity="1.0" stroke-linecap="round" stroke-linejoin="round"/>
    <path d="M 211.87982177734375 382.0915832519531 C 209.73414611816406 388.00469970703125 211.32003784179688 396.7559509277344 210.60711669921875 401.1028137207031 C 211.59759521484375 404.2023620605469 214.2703857421875 402.39117431640625 218.9382781982422 403.1051025390625 C 219.86868286132812 397.4188232421875 221.75306701660156 392.2027893066406 220.3643035888672 384.64483642578125 C 218.1612548828125 382.3934020996094 216.3915557861328 382.1355285644531 211.87982177734375 382.0915832519531" stroke-width="0.0" fill="rgb(27, 27, 27)" opacity="0.9985956" stroke="rgb(0, 0, 0)" stroke-opacity="1.0" stroke-linecap="round" stroke-linejoin="round"/>
    <path d="M 172.97154235839844 384.423828125 C 173.33961486816406 389.9034118652344 171.65890502929688 397.3733215332031 174.0836944580078 402.13848876953125 C 174.89996337890625 402.3898620605469 178.40469360351562 401.8354187011719 183.39686584472656 402.3077392578125 C 183.3605194091797 396.2928466796875 182.55563354492188 390.9228210449219 183.88487243652344 384.94158935546875 C 178.78614807128906 385.578857421875 175.2937774658203 385.7966613769531 172.97154235839844 384.423828125" stroke-width="0.0" fill="rgb(29, 29, 29)" opacity="1.0006297" stroke="rgb(0, 0, 0)" stroke-opacity="1.0" stroke-linecap="round" stroke-linejoin="round"/>
    <path d="M 43.095481872558594 352.172607421875 C 27.42315673828125 350.4639587402344 18.650794982910156 356.4313659667969 11.636733055114746 362.22955322265625 C 6.931792736053467 359.6768798828125 4.57200288772583 357.215087890625 -7.280458927154541 354.11688232421875 C -5.743699550628662 402.3171691894531 -6.240175247192383 447.4507141113281 -5.975408554077148 490.6131896972656 C 8.275694847106934 490.18707275390625 12.658622741699219 485.4047546386719 18.352243423461914 480.809326171875 C 20.200056076049805 465.2763671875 28.216962814331055 454.0968933105469 31.07753562927246 438.997314453125 C 53.65105056762695 434.74493408203125 54.1088752746582 448.93701171875 73.82801818847656 453.2036437988281 C 76.06651306152344 442.30780029296875 64.98584747314453 442.10174560546875 64.7723388671875 430.5792541503906 C 63.5462760925293 426.4829406738281 67.21363067626953 420.33990478515625 71.75425720214844 417.5332946777344 C 71.90743255615234 407.28631591796875 70.7933120727539 400.0415344238281 68.63541412353516 392.886962890625 C 57.64947509765625 388.4339599609375 51.37238311767578 376.6592102050781 41.95162582397461 370.8794250488281 C 43.13399124145508 360.1431884765625 44.098228454589844 351.0025634765625 43.095481872558594 352.172607421875" stroke-width="0.0" fill="rgb(26, 26, 26)" opacity="1.0464939" stroke="rgb(0, 0, 0)" stroke-opacity="1.0" stroke-linecap="round" stroke-linejoin="round"/>
    <path d="M 430.4480285644531 406.3584899902344 C 428.9500427246094 412.01116943359375 430.4864501953125 426.3286437988281 431.455078125 438.7884826660156 C 457.3630676269531 431.7371520996094 483.02618408203125 426.93487548828125 518.8779296875 423.5167236328125 C 520.37939453125 412.95574951171875 520.4603881835938 397.4937438964844 520.5718994140625 376.0630187988281 C 491.7003479003906 378.09979248046875 467.2015380859375 376.55157470703125 450.3938903808594 376.68798828125 C 442.70068359375 379.4490661621094 445.9229431152344 391.38348388671875 446.0216369628906 402.83135986328125 C 442.1206359863281 402.74761962890625 434.39581298828125 402.03900146484375 430.4480285644531 406.3584899902344" stroke-width="0.0" fill="rgb(38, 38, 38)" opacity="0.98998827" stroke="rgb(0, 0, 0)" stroke-opacity="1.0" stroke-linecap="round" stroke-linejoin="round"/>
    <path d="M 138.8121795654297 385.40216064453125 C 203.88360595703125 385.2574768066406 272.10302734375 386.26397705078125 342.69482421875 386.88983154296875 C 346.923828125 386.6685791015625 344.7603759765625 391.7849426269531 348.2352600097656 391.4900207519531 C 360.40216064453125 390.68328857421875 366.46820068359375 392.24737548828125 367.8616943359375 388.9018859863281 C 372.002197265625 381.7625427246094 379.71575927734375 391.41790771484375 374.4625549316406 374.5020446777344 C 298.0839538574219 376.3678894042969 218.92684936523438 375.3352355957031 134.18576049804688 370.8316345214844 C 141.1009063720703 365.7103576660156 140.7777862548828 370.4898986816406 138.8121795654297 385.40216064453125" stroke-width="0.0" fill="rgb(54, 54, 54)" opacity="0.9095136" stroke="rgb(0, 0, 0)" stroke-opacity="1.0" stroke-linecap="round" stroke-linejoin="round"/>
    <path d="M 401.77978515625 384.24981689453125 C 399.3442687988281 392.0356750488281 402.2172546386719 414.6593933105469 400.33404541015625 438.5611572265625 C 411.4765625 437.9741516113281 420.5732727050781 438.8133239746094 428.7739562988281 435.95806884765625 C 429.1912536621094 412.2823486328125 431.8782043457031 393.8805236816406 417.5147399902344 384.8863830566406 C 419.6806945800781 384.5252380371094 409.11328125 385.2119445800781 401.77978515625 384.24981689453125" stroke-width="0.0" fill="rgb(47, 47, 47)" opacity="1.036165" stroke="rgb(0, 0, 0)" stroke-opacity="1.0" stroke-linecap="round" stroke-linejoin="round"/>
    <path d="M 318.0206298828125 482.5939636230469 C 315.6202087402344 469.36724853515625 298.23785400390625 475.6939697265625 286.7987976074219 469.8032531738281 C 253.10179138183594 471.58038330078125 223.63699340820312 469.11456298828125 191.86807250976562 475.20733642578125 C 189.8692169189453 473.63946533203125 190.87164306640625 481.724609375 185.46934509277344 482.84552001953125 C 230.10101318359375 483.8115234375 276.14398193359375 483.2830810546875 318.0206298828125 482.5939636230469" stroke-width="0.0" fill="rgb(25, 25, 25)" opacity="1.0094761" stroke="rgb(0, 0, 0)" stroke-opacity="1.0" stroke-linecap="round" stroke-linejoin="round"/>
    <path d="M 515.5997924804688 422.63690185546875 C 485.10302734375 429.407958984375 452.9471740722656 429.8872985839844 425.281982421875 440.4755859375 C 452.9876708984375 441.6598815917969 485.4100341796875 440.3499450683594 519.1136474609375 441.63580322265625 C 518.447021484375 433.712646484375 518.3974609375 426.8155212402344 515.5997924804688 422.63690185546875" stroke-width="0.0" fill="rgb(132, 132, 132)" opacity="0.99534595" stroke="rgb(0, 0, 0)" stroke-opacity="1.0" stroke-linecap="round" stroke-linejoin="round"/>
    <path d="M 151.11370849609375 390.6900634765625 C 147.21737670898438 396.0445251464844 148.0537109375 401.3822021484375 142.87637329101562 397.2054748535156 C 139.949462890625 405.1623840332031 139.09059143066406 410.1129455566406 141.3354034423828 416.6673889160156 C 147.1632537841797 422.3583679199219 154.03712463378906 428.212646484375 166.61988830566406 431.1888427734375 C 169.5829620361328 425.6688537597656 168.21121215820312 417.8795166015625 170.43417358398438 407.698974609375 C 165.23001098632812 406.42791748046875 165.71824645996094 402.669677734375 164.3004150390625 395.253173828125 C 159.5105743408203 394.3036193847656 153.72903442382812 391.857177734375 151.11370849609375 390.6900634765625" stroke-width="0.0" fill="rgb(35, 35, 35)" opacity="0.97969913" stroke="rgb(0, 0, 0)" stroke-opacity="1.0" stroke-linecap="round" stroke-linejoin="round"/>
    <path d="M 49.26130676269531 259.7644958496094 C 49.33781433105469 263.08349609375 48.223148345947266 269.8806457519531 50.02494812011719 273.15997314453125 C 66.50396728515625 273.1717224121094 89.50691223144531 273.1701965332031 105.64591979980469 273.23345947265625 C 108.60987854003906 253.92335510253906 95.45516967773438 270.8191223144531 95.16407775878906 259.67822265625 C 83.53334045410156 259.5824279785156 60.87453079223633 259.8238830566406 49.26130676269531 259.7644958496094" stroke-width="0.0" fill="rgb(101, 101, 101)" opacity="0.9587208" stroke="rgb(0, 0, 0)" stroke-opacity="1.0" stroke-linecap="round" stroke-linejoin="round"/>
    <path d="M 332.27789306640625 435.9664306640625 C 346.6358642578125 437.1040954589844 360.87921142578125 437.4357604980469 364.1505432128906 435.1686096191406 C 362.8350830078125 429.3032531738281 360.6468200683594 421.88360595703125 354.5220031738281 418.07952880859375 C 350.44134521484375 416.76904296875 345.6908874511719 416.9915466308594 342.3604431152344 415.74322509765625 C 338.7692565917969 425.282958984375 331.0538635253906 428.8385314941406 332.27789306640625 435.9664306640625" stroke-width="0.0" fill="rgb(10, 10, 10)" opacity="1.0157617" stroke="rgb(0, 0, 0)" stroke-opacity="1.0" stroke-linecap="round" stroke-linejoin="round"/>
    <path d="M 109.74140167236328 154.07972717285156 C 111.14791870117188 170.85418701171875 108.45321655273438 194.8960418701172 113.93524932861328 204.40081787109375 C 121.59907531738281 197.1459197998047 118.27767944335938 177.59735107421875 118.5375747680664 153.14756774902344 C 122.11573028564453 154.22764587402344 116.07555389404297 156.5601806640625 109.74140167236328 154.07972717285156" stroke-width="0.0" fill="rgb(60, 60, 60)" opacity="0.9979609" stroke="rgb(0, 0, 0)" stroke-opacity="1.0" stroke-linecap="round" stroke-linejoin="round"/>
    <path d="M 150.3717803955078 484.6717224121094 C 156.63778686523438 480.7824401855469 176.24539184570312 486.4382629394531 183.5139617919922 481.05499267578125 C 178.707275390625 473.9761962890625 166.85693359375 475.741455078125 152.51803588867188 476.3240966796875 C 152.02159118652344 476.0377502441406 151.1647491455078 483.3360595703125 150.3717803955078 484.6717224121094" stroke-width="0.0" fill="rgb(66, 66, 66)" opacity="0.99471146" stroke="rgb(0, 0, 0)" stroke-opacity="1.0" stroke-linecap="round" stroke-linejoin="round"/>
    <path d="M 22.75113868713379 156.7159881591797 C 24.134878158569336 164.31561279296875 22.810501098632812 180.60110473632812 24.137739181518555 191.51780700683594 C 27.40737533569336 191.65818786621094 26.28489875793457 198.65501403808594 33.45846176147461 198.4062957763672 C 33.168975830078125 183.84487915039062 33.10129165649414 168.51658630371094 31.87376594543457 155.70135498046875 C 30.485107421875 155.6371612548828 25.6142635345459 155.62542724609375 22.75113868713379 156.7159881591797" stroke-width="0.0" fill="rgb(59, 59, 59)" opacity="1.0001252" stroke="rgb(0, 0, 0)" stroke-opacity="1.0" stroke-linecap="round" stroke-linejoin="round"/>
    <path d="M 114.30024719238281 419.52728271484375 C 115.83541870117188 424.20257568359375 114.15568542480469 430.20977783203125 115.41390991210938 435.3804626464844 C 117.84660339355469 437.29669189453125 121.98086547851562 435.9439697265625 127.06957244873047 435.6570739746094 C 126.22084045410156 430.6581726074219 125.78074645996094 424.7210388183594 126.60863494873047 419.9762268066406 C 122.11640167236328 419.4580383300781 118.22825622558594 420.8551025390625 114.30024719238281 419.52728271484375" stroke-width="0.0" fill="rgb(70, 70, 70)" opacity="0.9997438" stroke="rgb(0, 0, 0)" stroke-opacity="1.0" stroke-linecap="round" stroke-linejoin="round"/>
    <path d="M 60.97206497192383 134.10595703125 C 60.600730895996094 138.4364471435547 52.17758560180664 135.61874389648438 52.06289291381836 139.9145050048828 C 54.21992492675781 153.00682067871094 67.64012908935547 152.9192657470703 72.24048614501953 166.0525665283203 C 71.16619110107422 193.84933471679688 74.05371856689453 224.57220458984375 72.37158966064453 258.39984130859375 C 77.48978424072266 259.9168395996094 87.29608154296875 257.8586730957031 94.19867706298828 258.6100769042969 C 95.20368957519531 220.5294952392578 92.05534362792969 178.77857971191406 93.62126922607422 137.93075561523438 C 84.42909240722656 135.17526245117188 75.0865478515625 132.40940856933594 60.97206497192383 134.10595703125" stroke-width="0.0" fill="rgb(95, 95, 95)" opacity="1.0017146" stroke="rgb(0, 0, 0)" stroke-opacity="1.0" stroke-linecap="round" stroke-linejoin="round"/>
    <path d="M 376.206787109375 471.6193542480469 C 375.9853820800781 472.41119384765625 376.7734375 481.41351318359375 375.3964538574219 484.2408447265625 C 394.9486083984375 481.3170166015625 414.299560546875 484.9010314941406 437.25164794921875 483.261474609375 C 426.6950988769531 476.8105773925781 421.1942138671875 483.6819763183594 425.17633056640625 472.16949462890625 C 403.9437561035156 470.7058410644531 393.6104431152344 465.8816833496094 376.206787109375 471.6193542480469" stroke-width="0.0" fill="rgb(29, 29, 29)" opacity="0.999871" stroke="rgb(0, 0, 0)" stroke-opacity="1.0" stroke-linecap="round" stroke-linejoin="round"/>
    <path d="M 107.40208435058594 215.02244567871094 C 100.40972137451172 229.49620056152344 97.0552749633789 243.3169708251953 98.04824829101562 259.61572265625 C 101.68309020996094 263.79022216796875 103.46919250488281 259.77252197265625 107.75470733642578 259.8283386230469 C 109.11663055419922 245.72425842285156 108.68993377685547 228.17819213867188 107.40208435058594 215.02244567871094" stroke-width="0.0" fill="rgb(151, 151, 151)" opacity="1.0029327" stroke="rgb(0, 0, 0)" stroke-opacity="1.0" stroke-linecap="round" stroke-linejoin="round"/>
    <path d="M 272.97686767578125 392.3016052246094 C 266.6372985839844 395.60919189453125 263.546875 398.6604309082031 265.6487121582031 406.2566833496094 C 267.2923278808594 406.9670715332031 275.1059265136719 407.7609558105469 282.2400207519531 408.3287353515625 C 280.56793212890625 414.8970947265625 277.63641357421875 426.40087890625 285.58306884765625 425.5277404785156 C 285.6007995605469 416.8525695800781 281.00006103515625 414.8335266113281 278.7216796875 408.81414794921875 C 281.83294677734375 406.032958984375 284.0967712402344 405.0584411621094 288.5063171386719 400.73260498046875 C 282.4464111328125 396.63079833984375 278.44000244140625 392.9033203125 272.97686767578125 392.3016052246094" stroke-width="0.0" fill="rgb(82, 82, 82)" opacity="1.0889108" stroke="rgb(0, 0, 0)" stroke-opacity="1.0" stroke-linecap="round" stroke-linejoin="round"/>
    <path d="M -3.043668746948242 185.2708282470703 C -5.995026588439941 216.6450958251953 -4.5522356033325195 248.68675231933594 -1.8542025089263916 281.45367431640625 C 10.440942764282227 279.7325439453125 20.993362426757812 281.48016357421875 32.387779235839844 281.2984619140625 C 32.077091217041016 263.0947570800781 32.906673431396484 244.17507934570312 30.611635208129883 227.85691833496094 C 26.212045669555664 218.39007568359375 18.856515884399414 218.90196228027344 19.220300674438477 203.50730895996094 C 4.294009685516357 197.81149291992188 10.132463455200195 187.06918334960938 -3.043668746948242 185.2708282470703" stroke-width="0.0" fill="rgb(32, 32, 32)" opacity="1.010517" stroke="rgb(0, 0, 0)" stroke-opacity="1.0" stroke-linecap="round" stroke-linejoin="round"/>
    <path d="M 145.15689086914062 286.51239013671875 C 144.85928344726562 288.4275817871094 137.75767517089844 285.6974792480469 134.7537384033203 287.2849426269531 C 134.53158569335938 313.9942626953125 134.65223693847656 341.74627685546875 136.18341064453125 367.70477294921875 C 148.99110412597656 364.4613037109375 144.3885955810547 368.6396179199219 145.29733276367188 359.56024169921875 C 147.504638671875 334.072509765625 144.97608947753906 310.0757141113281 145.15689086914062 286.51239013671875" stroke-width="0.0" fill="rgb(7, 7, 7)" opacity="0.99794847" stroke="rgb(0, 0, 0)" stroke-opacity="1.0" stroke-linecap="round" stroke-linejoin="round"/>
    <path d="M 200.48854064941406 192.4331512451172 C 194.19969177246094 208.55642700195312 198.08551025390625 244.5091552734375 196.30824279785156 278.63031005859375 C 202.72760009765625 280.23602294921875 206.52203369140625 279.8630676269531 207.57322692871094 279.3456115722656 C 205.30015563964844 244.43572998046875 209.83621215820312 205.33126831054688 200.48854064941406 192.4331512451172" stroke-width="0.0" fill="rgb(5, 5, 5)" opacity="0.991154" stroke="rgb(0, 0, 0)" stroke-opacity="1.0" stroke-linecap="round" stroke-linejoin="round"/>
    <path d="M 271.83856201171875 288.1011657714844 C 272.635986328125 307.7925109863281 270.3281555175781 334.6753845214844 273.97314453125 364.75897216796875 C 278.5736083984375 358.99591064453125 277.5946960449219 356.35882568359375 281.4845275878906 367.12200927734375 C 284.09344482421875 344.50335693359375 283.83251953125 317.12567138671875 282.1790771484375 289.5747985839844 C 283.6494140625 286.1600646972656 275.1059875488281 286.3800048828125 271.83856201171875 288.1011657714844" stroke-width="0.0" fill="rgb(8, 8, 8)" opacity="0.99552816" stroke="rgb(0, 0, 0)" stroke-opacity="1.0" stroke-linecap="round" stroke-linejoin="round"/>
    <path d="M 142.8831329345703 197.82577514648438 C 140.60377502441406 201.82228088378906 138.0572967529297 204.35433959960938 135.23025512695312 206.40646362304688 C 134.59515380859375 232.27297973632812 134.8184356689453 258.2795104980469 135.03085327148438 278.4462585449219 C 138.93356323242188 282.2474060058594 144.92271423339844 279.38385009765625 145.42691040039062 279.0951843261719 C 144.943603515625 249.79515075683594 145.453125 222.17442321777344 142.8831329345703 197.82577514648438" stroke-width="0.0" fill="rgb(6, 6, 6)" opacity="0.9965166" stroke="rgb(0, 0, 0)" stroke-opacity="1.0" stroke-linecap="round" stroke-linejoin="round"/>
    <path d="M 232.2205047607422 285.0687255859375 C 234.19287109375 288.1329345703125 224.037109375 286.3428039550781 223.07530212402344 287.6892395019531 C 223.51699829101562 312.442138671875 221.55418395996094 343.88427734375 223.80758666992188 370.3736267089844 C 223.16656494140625 367.810791015625 232.04913330078125 365.2381286621094 231.1164093017578 368.5190124511719 C 234.98696899414062 340.23248291015625 230.8822479248047 315.7552490234375 232.2205047607422 285.0687255859375" stroke-width="0.0" fill="rgb(2, 2, 2)" opacity="0.9995371" stroke="rgb(0, 0, 0)" stroke-opacity="1.0" stroke-linecap="round" stroke-linejoin="round"/>
    <path d="M 222.66757202148438 201.91845703125 C 221.18438720703125 220.79173278808594 221.4825439453125 246.67567443847656 222.68165588378906 276.41607666015625 C 225.1387481689453 279.7074279785156 222.37429809570312 281.2070007324219 231.35122680664062 279.8172912597656 C 233.24032592773438 256.0189208984375 231.32923889160156 230.61036682128906 230.89035034179688 206.83050537109375 C 226.77218627929688 204.23011779785156 229.9546356201172 197.24853515625 222.66757202148438 201.91845703125" stroke-width="0.0" fill="rgb(4, 4, 4)" opacity="0.99957305" stroke="rgb(0, 0, 0)" stroke-opacity="1.0" stroke-linecap="round" stroke-linejoin="round"/>
    <path d="M 206.82916259765625 287.1813659667969 C 205.27879333496094 287.2572326660156 198.59510803222656 286.47467041015625 197.8308563232422 287.2056884765625 C 197.56069946289062 312.7188720703125 197.28839111328125 339.58416748046875 199.28399658203125 363.6977233886719 C 206.96690368652344 361.08001708984375 205.9569854736328 359.5072937011719 207.5860595703125 355.00335693359375 C 208.412353515625 331.0985107421875 208.19125366210938 305.0548400878906 206.82916259765625 287.1813659667969" stroke-width="0.0" fill="rgb(2, 2, 2)" opacity="0.9992432" stroke="rgb(0, 0, 0)" stroke-opacity="1.0" stroke-linecap="round" stroke-linejoin="round"/>
    <path d="M 293.48687744140625 286.9579772949219 C 292.6462707519531 285.91162109375 283.665771484375 288.0251159667969 284.8190612792969 287.2220458984375 C 285.70855712890625 313.6262512207031 283.3974304199219 346.2590637207031 286.2610778808594 370.6565246582031 C 290.7104187011719 372.95343017578125 285.814697265625 364.1650695800781 293.2235107421875 369.4256896972656 C 294.79022216796875 342.6415100097656 294.5989685058594 315.1441650390625 293.48687744140625 286.9579772949219" stroke-width="0.0" fill="rgb(6, 6, 6)" opacity="1.0044836" stroke="rgb(0, 0, 0)" stroke-opacity="1.0" stroke-linecap="round" stroke-linejoin="round"/>
    <path d="M 259.8061218261719 285.4692077636719 C 260.70782470703125 315.1545715332031 256.7401123046875 348.9514465332031 266.4559326171875 364.18994140625 C 273.5495910644531 349.7617492675781 267.9239501953125 317.2106628417969 271.10589599609375 284.036376953125 C 272.5537109375 288.1307373046875 258.5634460449219 288.3824462890625 259.8061218261719 285.4692077636719" stroke-width="0.0" fill="rgb(6, 6, 6)" opacity="0.99800515" stroke="rgb(0, 0, 0)" stroke-opacity="1.0" stroke-linecap="round" stroke-linejoin="round"/>
    <path d="M 234.82470703125 287.0323486328125 C 235.4796905517578 308.483154296875 233.2963104248047 331.6495666503906 236.21429443359375 352.4435119628906 C 241.6078643798828 350.3800964355469 238.80540466308594 353.5543518066406 244.04225158691406 356.58807373046875 C 245.88711547851562 336.5082702636719 244.70326232910156 310.8716735839844 244.88697814941406 287.142578125 C 244.15972900390625 286.3188781738281 238.4665069580078 286.970458984375 234.82470703125 287.0323486328125" stroke-width="0.0" fill="rgb(3, 3, 3)" opacity="0.99958813" stroke="rgb(0, 0, 0)" stroke-opacity="1.0" stroke-linecap="round" stroke-linejoin="round"/>
    <path d="M 268.8432312011719 207.85812377929688 C 268.77764892578125 217.48146057128906 262.7544250488281 217.22850036621094 259.46722412109375 221.9539794921875 C 257.74993896484375 239.2213134765625 259.65960693359375 259.3668212890625 259.7625732421875 279.6343994140625 C 271.2364807128906 280.73895263671875 268.7354736328125 282.2718200683594 270.3654479980469 269.06494140625 C 268.4187927246094 251.35745239257812 269.33880615234375 230.59402465820312 268.8432312011719 207.85812377929688" stroke-width="0.0" fill="rgb(6, 6, 6)" opacity="0.99985886" stroke="rgb(0, 0, 0)" stroke-opacity="1.0" stroke-linecap="round" stroke-linejoin="round"/>
    <path d="M 112.38606262207031 286.2310791015625 C 113.86263275146484 289.0694580078125 120.56959533691406 284.8544921875 119.91422271728516 287.55340576171875 C 119.55569458007812 317.3066711425781 122.38821411132812 345.8186340332031 114.60560607910156 373.4472961425781 C 109.9674301147461 348.56805419921875 115.31217193603516 313.2447204589844 112.38606262207031 286.2310791015625" stroke-width="0.0" fill="rgb(3, 3, 3)" opacity="1.0080743" stroke="rgb(0, 0, 0)" stroke-opacity="1.0" stroke-linecap="round" stroke-linejoin="round"/>
    <path d="M 285.93182373046875 221.88209533691406 C 281.1910705566406 231.87673950195312 285.22747802734375 261.145751953125 285.04827880859375 281.44146728515625 C 288.3384094238281 278.90655517578125 292.03521728515625 282.3949279785156 294.3769226074219 281.5089111328125 C 292.0813903808594 255.1205596923828 295.36822509765625 230.73709106445312 285.93182373046875 221.88209533691406" stroke-width="0.0" fill="rgb(14, 14, 14)" opacity="0.99991524" stroke="rgb(0, 0, 0)" stroke-opacity="1.0" stroke-linecap="round" stroke-linejoin="round"/>
    <path d="M 33.46287155151367 287.252197265625 C 21.474136352539062 285.9186706542969 9.735041618347168 285.5682067871094 -7.223676681518555 286.0553894042969 C -7.482030391693115 312.61395263671875 -7.714219570159912 336.2586364746094 -6.962749004364014 355.6771545410156 C 14.736416816711426 354.9477844238281 22.80834197998047 350.578125 32.6804313659668 346.81085205078125 C 33.26280975341797 327.2754211425781 33.167259216308594 306.5912780761719 33.46287155151367 287.252197265625" stroke-width="0.0" fill="rgb(19, 19, 19)" opacity="1.0110403" stroke="rgb(0, 0, 0)" stroke-opacity="1.0" stroke-linecap="round" stroke-linejoin="round"/>
    <path d="M 118.94630432128906 229.3529815673828 C 111.26927947998047 241.57643127441406 113.04081726074219 259.27294921875 112.61336517333984 280.72308349609375 C 117.99551391601562 279.41571044921875 122.36390686035156 278.9215393066406 119.94786834716797 281.02020263671875 C 120.13154602050781 263.9588928222656 120.55249786376953 243.3920440673828 118.94630432128906 229.3529815673828" stroke-width="0.0" fill="rgb(10, 10, 10)" opacity="0.9945044" stroke="rgb(0, 0, 0)" stroke-opacity="1.0" stroke-linecap="round" stroke-linejoin="round"/>
    <path d="M 429.7453308105469 84.94795989990234 C 430.47869873046875 105.08098602294922 428.65740966796875 127.59771728515625 431.10223388671875 142.86105346679688 C 444.7752685546875 144.18655395507812 441.70068359375 154.5248260498047 439.4680480957031 166.4026641845703 C 465.45184326171875 166.3683624267578 488.4320983886719 166.51194763183594 517.995849609375 166.241455078125 C 517.817138671875 137.941162109375 517.6015625 111.3595199584961 517.4818115234375 83.86153411865234 C 481.4667663574219 88.52923583984375 456.1759033203125 84.06035614013672 429.7453308105469 84.94795989990234" stroke-width="0.0" fill="rgb(74, 74, 74)" opacity="0.91701627" stroke="rgb(0, 0, 0)" stroke-opacity="1.0" stroke-linecap="round" stroke-linejoin="round"/>
    <path d="M 409.1888122558594 166.47055053710938 C 408.2514343261719 193.116455078125 410.2109069824219 227.19818115234375 407.9914855957031 258.8311767578125 C 413.4621276855469 260.3174743652344 415.7264709472656 265.0090026855469 421.4815979003906 259.5836486816406 C 423.2598571777344 235.47970581054688 422.9615173339844 200.62173461914062 421.1925048828125 167.27294921875 C 416.9130859375 165.81727600097656 411.9012145996094 165.27333068847656 409.1888122558594 166.47055053710938" stroke-width="0.0" fill="rgb(88, 88, 88)" opacity="0.9979704" stroke="rgb(0, 0, 0)" stroke-opacity="1.0" stroke-linecap="round" stroke-linejoin="round"/>
    <path d="M 159.72174072265625 288.91400146484375 C 160.2391357421875 314.8574523925781 159.5312042236328 343.0797119140625 161.05128479003906 371.74261474609375 C 161.1243438720703 373.4084167480469 164.8061065673828 373.95123291015625 171.34242248535156 371.845947265625 C 171.63880920410156 348.8940124511719 170.21194458007812 318.9788818359375 170.00271606445312 287.02923583984375 C 164.50819396972656 287.1441345214844 161.8992919921875 285.67254638671875 159.72174072265625 288.91400146484375" stroke-width="0.0" fill="rgb(6, 6, 6)" opacity="0.99862003" stroke="rgb(0, 0, 0)" stroke-opacity="1.0" stroke-linecap="round" stroke-linejoin="round"/>
    <path d="M 172.81210327148438 286.87493896484375 C 173.09678649902344 312.4599914550781 173.00384521484375 342.5036315917969 172.80052185058594 368.04803466796875 C 174.09165954589844 374.3451843261719 174.40127563476562 372.9013977050781 183.0522918701172 371.30914306640625 C 182.76028442382812 346.1496887207031 183.26931762695312 315.3001708984375 182.9364471435547 287.0233459472656 C 182.30657958984375 286.4726257324219 176.0781707763672 286.9775390625 172.81210327148438 286.87493896484375" stroke-width="0.0" fill="rgb(3, 3, 3)" opacity="0.9997538" stroke="rgb(0, 0, 0)" stroke-opacity="1.0" stroke-linecap="round" stroke-linejoin="round"/>
    <path d="M 401.8797912597656 -5.899842739105225 C 398.65966796875 44.40849685668945 400.7926025390625 83.19574737548828 402.0386962890625 129.65966796875 C 403.8806457519531 127.86306762695312 417.1234436035156 127.98673248291016 429.1782531738281 129.3047332763672 C 427.8709411621094 90.70759582519531 428.6069030761719 43.41062927246094 427.6918029785156 -3.5121500492095947 C 422.94757080078125 -6.41500997543335 412.0797119140625 -5.939276218414307 401.8797912597656 -5.899842739105225" stroke-width="0.0" fill="rgb(66, 66, 66)" opacity="0.9965529" stroke="rgb(0, 0, 0)" stroke-opacity="1.0" stroke-linecap="round" stroke-linejoin="round"/>
    <path d="M 430.0959777832031 404.00543212890625 C 427.897216796875 415.7193603515625 431.9725341796875 425.06402587890625 431.9027404785156 436.5096740722656 C 457.83294677734375 430.42242431640625 487.2812194824219 429.2755126953125 515.9694213867188 422.11590576171875 C 518.9537353515625 411.7093505859375 518.8114013671875 404.4239501953125 517.0341796875 399.6255187988281 C 490.49774169921875 400.8236389160156 468.6704406738281 398.55352783203125 445.6730651855469 397.89874267578125 C 447.8401794433594 404.7850341796875 442.35528564453125 401.1101379394531 430.0959777832031 404.00543212890625" stroke-width="0.0" fill="rgb(39, 39, 39)" opacity="0.9768207" stroke="rgb(0, 0, 0)" stroke-opacity="1.0" stroke-linecap="round" stroke-linejoin="round"/>
    <path d="M 464.80426025390625 252.2845001220703 C 467.9808654785156 259.4581298828125 481.5962829589844 251.58558654785156 488.39520263671875 258.336669921875 C 480.9512023925781 261.5048522949219 467.59375 258.98004150390625 455.8365173339844 260.0741882324219 C 455.97564697265625 272.56585693359375 455.7049865722656 289.8191833496094 455.81695556640625 301.93988037109375 C 466.6110534667969 301.6643981933594 479.479736328125 302.8049011230469 491.4882507324219 301.46978759765625 C 487.6402587890625 290.7711486816406 497.80560302734375 298.15240478515625 497.0476989746094 292.01361083984375 C 498.8154296875 278.6114807128906 498.5080871582031 263.5322265625 497.80316162109375 252.6212158203125 C 493.0753479003906 250.86224365234375 479.6910095214844 252.8121795654297 464.80426025390625 252.2845001220703" stroke-width="0.0" fill="rgb(6, 6, 6)" opacity="1.000082" stroke="rgb(0, 0, 0)" stroke-opacity="1.0" stroke-linecap="round" stroke-linejoin="round"/>
    <path d="M 443.6717834472656 373.68359375 C 445.5458984375 380.8569641113281 443.75775146484375 388.6507568359375 443.29473876953125 397.935546875 C 465.70733642578125 398.68408203125 488.47882080078125 398.2825927734375 519.2808837890625 400.9742126464844 C 519.3228759765625 387.35577392578125 519.11083984375 378.82293701171875 517.8875732421875 373.7328186035156 C 489.22406005859375 372.62396240234375 463.19659423828125 371.9726257324219 443.6717834472656 373.68359375" stroke-width="0.0" fill="rgb(18, 18, 18)" opacity="0.9470176" stroke="rgb(0, 0, 0)" stroke-opacity="1.0" stroke-linecap="round" stroke-linejoin="round"/>
    <path d="M 278.186767578125 409.59423828125 C 275.5169982910156 406.02923583984375 266.92236328125 407.7044372558594 261.9903869628906 403.2510681152344 C 248.72027587890625 405.4729919433594 236.2751922607422 407.0949401855469 217.1398162841797 407.6862487792969 C 215.12832641601562 409.1174621582031 219.79611206054688 417.3516540527344 221.01625061035156 429.8938293457031 C 236.16470336914062 428.44061279296875 255.33653259277344 430.010009765625 274.6975402832031 427.7242736816406 C 272.9117431640625 421.71002197265625 275.76934814453125 416.8858642578125 278.186767578125 409.59423828125" stroke-width="0.0" fill="rgb(177, 177, 177)" opacity="0.90331984" stroke="rgb(0, 0, 0)" stroke-opacity="1.0" stroke-linecap="round" stroke-linejoin="round"/>
    <path d="M 217.98289489746094 407.8899841308594 C 206.77500915527344 413.89306640625 191.5517578125 413.9806213378906 165.4845733642578 411.1837463378906 C 169.5680694580078 412.0000915527344 171.05343627929688 419.5015563964844 168.23184204101562 429.56988525390625 C 186.59310913085938 430.834716796875 200.4022216796875 432.638427734375 217.7532958984375 429.07568359375 C 220.2371368408203 427.5587463378906 218.7794952392578 417.49957275390625 217.98289489746094 407.8899841308594" stroke-width="0.0" fill="rgb(177, 177, 177)" opacity="0.88432676" stroke="rgb(0, 0, 0)" stroke-opacity="1.0" stroke-linecap="round" stroke-linejoin="round"/>
    <path d="M 356.44696044921875 394.0191650390625 C 349.18023681640625 395.1523132324219 343.64886474609375 395.71343994140625 343.5758972167969 396.94189453125 C 342.4003601074219 404.9810791015625 336.9265441894531 409.8935241699219 334.44110107421875 418.2031555175781 C 348.6204528808594 419.8125915527344 356.00067138671875 420.03167724609375 360.8146057128906 416.07855224609375 C 364.1145935058594 402.6180114746094 353.07440185546875 407.0812072753906 356.44696044921875 394.0191650390625" stroke-width="0.0" fill="rgb(212, 212, 212)" opacity="0.91844153" stroke="rgb(0, 0, 0)" stroke-opacity="1.0" stroke-linecap="round" stroke-linejoin="round"/>
    <path d="M 430.1257629394531 141.71340942382812 C 427.67926025390625 223.98130798339844 429.23883056640625 312.36370849609375 428.7830810546875 400.8931884765625 C 432.1763916015625 399.9552917480469 440.79241943359375 399.945068359375 444.17919921875 399.86962890625 C 443.54254150390625 314.3742370605469 444.5255432128906 220.9232635498047 442.3968200683594 140.98529052734375 C 444.42584228515625 148.73464965820312 438.08892822265625 145.40713500976562 430.1257629394531 141.71340942382812" stroke-width="0.0" fill="rgb(91, 91, 91)" opacity="0.9215986" stroke="rgb(0, 0, 0)" stroke-opacity="1.0" stroke-linecap="round" stroke-linejoin="round"/>
    <path d="M 340.07025146484375 404.7600402832031 C 337.12957763671875 399.685791015625 330.6934814453125 396.8123779296875 322.7553405761719 395.6275329589844 C 307.9624328613281 400.425048828125 287.978515625 400.606689453125 280.617919921875 407.2619323730469 C 283.5298767089844 414.28216552734375 284.5611267089844 421.3343505859375 286.7535400390625 425.4279479980469 C 297.2772521972656 428.07623291015625 303.88720703125 432.6989440917969 309.57391357421875 432.4425964355469 C 319.61859130859375 430.5119934082031 326.8485107421875 430.51263427734375 330.8160705566406 429.5384216308594 C 338.3115234375 424.3253173828125 338.853759765625 417.6561584472656 340.07025146484375 404.7600402832031" stroke-width="0.0" fill="rgb(208, 208, 208)" opacity="0.7940708" stroke="rgb(0, 0, 0)" stroke-opacity="1.0" stroke-linecap="round" stroke-linejoin="round"/>
    <path d="M 214.61929321289062 2.8860182762145996 C 211.46517944335938 16.564424514770508 212.39869689941406 16.13191032409668 217.7992706298828 24.09547233581543 C 229.69473266601562 24.108985900878906 242.35296630859375 22.880571365356445 255.4486541748047 21.936567306518555 C 254.7230224609375 16.02858543395996 255.27374267578125 4.981908798217773 254.99478149414062 3.1103768348693848 C 241.12242126464844 2.1702139377593994 223.67677307128906 3.038313150405884 214.61929321289062 2.8860182762145996" stroke-width="0.0" fill="rgb(26, 26, 26)" opacity="0.9998645" stroke="rgb(0, 0, 0)" stroke-opacity="1.0" stroke-linecap="round" stroke-linejoin="round"/>
    <path d="M 150.93545532226562 397.42059326171875 C 151.1883544921875 405.4039611816406 147.53359985351562 415.31915283203125 144.7513885498047 421.3172302246094 C 151.51644897460938 426.4936218261719 158.25775146484375 430.014404296875 168.16156005859375 431.75262451171875 C 170.1327362060547 428.4574279785156 169.11080932617188 418.7888488769531 170.98573303222656 407.6994323730469 C 159.7837677001953 404.9668884277344 166.3467254638672 388.85089111328125 150.93545532226562 397.42059326171875" stroke-width="0.0" fill="rgb(15, 15, 15)" opacity="0.9301355" stroke="rgb(0, 0, 0)" stroke-opacity="1.0" stroke-linecap="round" stroke-linejoin="round"/>
    <path d="M 142.6024169921875 443.90557861328125 C 138.65512084960938 453.8924255371094 138.6511688232422 473.38446044921875 138.79058837890625 489.6749572753906 C 141.71788024902344 493.77313232421875 144.57911682128906 496.7823791503906 152.31349182128906 493.52496337890625 C 152.42189025878906 484.896484375 152.0468292236328 469.1379089355469 150.53781127929688 451.77239990234375 C 150.59300231933594 449.4176025390625 148.64468383789062 443.5285949707031 142.6024169921875 443.90557861328125" stroke-width="0.0" fill="rgb(78, 78, 78)" opacity="0.96304196" stroke="rgb(0, 0, 0)" stroke-opacity="1.0" stroke-linecap="round" stroke-linejoin="round"/>
    <path d="M 332.27301025390625 394.10931396484375 C 334.5976257324219 398.0531921386719 339.25445556640625 397.07037353515625 343.8551940917969 398.6707458496094 C 351.3568115234375 390.6200256347656 365.4737854003906 396.6361083984375 369.3114929199219 389.13360595703125 C 365.5065002441406 378.58746337890625 358.7572021484375 376.81036376953125 347.7213439941406 378.54840087890625 C 341.2016906738281 377.4793395996094 339.4559326171875 388.8540954589844 332.27301025390625 394.10931396484375" stroke-width="0.0" fill="rgb(100, 100, 100)" opacity="0.9853407" stroke="rgb(0, 0, 0)" stroke-opacity="1.0" stroke-linecap="round" stroke-linejoin="round"/>
    <path d="M 43.210472106933594 437.35003662109375 C 48.3453369140625 447.9548645019531 63.9792594909668 445.1034240722656 70.1972885131836 456.14447021484375 C 72.14988708496094 454.3619384765625 74.4084243774414 452.9063415527344 78.10957336425781 453.2872619628906 C 73.98031616210938 445.23809814453125 68.64701080322266 439.99237060546875 63.90065002441406 435.7515563964844 C 57.39523696899414 434.9704895019531 47.92301940917969 434.5631103515625 43.210472106933594 437.35003662109375" stroke-width="0.0" fill="rgb(31, 31, 31)" opacity="0.9778133" stroke="rgb(0, 0, 0)" stroke-opacity="1.0" stroke-linecap="round" stroke-linejoin="round"/>
    <path d="M 241.024658203125 220.3455047607422 C 237.57664489746094 236.9047088623047 240.2723388671875 258.49560546875 237.06578063964844 278.2681579589844 C 234.2746124267578 278.0944519042969 238.38124084472656 278.3037109375 243.78329467773438 279.9169921875 C 242.956298828125 257.2947998046875 247.2827911376953 232.35098266601562 241.024658203125 220.3455047607422" stroke-width="0.0" fill="rgb(3, 3, 3)" opacity="0.99984205" stroke="rgb(0, 0, 0)" stroke-opacity="1.0" stroke-linecap="round" stroke-linejoin="round"/>
    <path d="M 406.61590576171875 373.0714111328125 C 403.378173828125 379.7619323730469 407.8956604003906 379.6601867675781 411.6417541503906 383.8560485839844 C 418.01983642578125 385.21246337890625 422.4342346191406 383.2602233886719 427.82342529296875 382.6771240234375 C 428.6702880859375 377.5870666503906 428.4732360839844 371.684326171875 427.48577880859375 372.7992858886719 C 420.5159606933594 373.22747802734375 410.19073486328125 372.4413757324219 406.61590576171875 373.0714111328125" stroke-width="0.0" fill="rgb(19, 19, 19)" opacity="0.9990004" stroke="rgb(0, 0, 0)" stroke-opacity="1.0" stroke-linecap="round" stroke-linejoin="round"/>
    <path d="M 67.27935028076172 264.7447509765625 C 64.12940979003906 266.1419677734375 65.63433837890625 271.2201843261719 64.75270080566406 271.9333801269531 C 72.5728988647461 272.7677917480469 87.10033416748047 275.47314453125 95.90548706054688 269.6278991699219 C 93.1742935180664 265.47589111328125 76.49658966064453 268.2785339355469 67.27935028076172 264.7447509765625" stroke-width="0.0" fill="rgb(154, 154, 154)" opacity="0.9950415" stroke="rgb(0, 0, 0)" stroke-opacity="1.0" stroke-linecap="round" stroke-linejoin="round"/>
    <path d="M 22.4298095703125 224.3858642578125 C 22.974300384521484 236.03445434570312 25.155658721923828 259.1217346191406 23.353178024291992 280.0780029296875 C 21.235580444335938 279.429443359375 30.356754302978516 281.1400146484375 32.61618423461914 280.05029296875 C 32.165992736816406 267.90167236328125 32.68592834472656 249.35879516601562 31.551118850708008 236.77757263183594 C 30.276611328125 229.38018798828125 30.113012313842773 220.59478759765625 22.4298095703125 224.3858642578125" stroke-width="0.0" fill="rgb(9, 9, 9)" opacity="0.99885684" stroke="rgb(0, 0, 0)" stroke-opacity="1.0" stroke-linecap="round" stroke-linejoin="round"/>
    <path d="M 23.89683723449707 286.58953857421875 C 24.4605770111084 302.97650146484375 22.370349884033203 324.3151550292969 25.20048713684082 348.25213623046875 C 26.440656661987305 348.8702392578125 23.953746795654297 347.33026123046875 32.63374328613281 347.5203552246094 C 33.963863372802734 331.6004943847656 34.366050720214844 310.6045227050781 32.905696868896484 283.5685119628906 C 34.73170471191406 287.7082824707031 28.799551010131836 287.50238037109375 23.89683723449707 286.58953857421875" stroke-width="0.0" fill="rgb(9, 9, 9)" opacity="0.99982977" stroke="rgb(0, 0, 0)" stroke-opacity="1.0" stroke-linecap="round" stroke-linejoin="round"/>
    <path d="M 430.5407409667969 84.92918395996094 C 428.3673400878906 94.79359436035156 427.849365234375 109.82202911376953 430.89862060546875 120.00460052490234 C 458.2646484375 118.32190704345703 482.06683349609375 123.11983489990234 516.4181518554688 122.18587493896484 C 519.5123291015625 111.42847442626953 519.2811279296875 95.52275848388672 518.6836547851562 85.00826263427734 C 485.7720947265625 84.83128356933594 456.0079040527344 84.41806030273438 430.5407409667969 84.92918395996094" stroke-width="0.0" fill="rgb(40, 40, 40)" opacity="0.9839784" stroke="rgb(0, 0, 0)" stroke-opacity="1.0" stroke-linecap="round" stroke-linejoin="round"/>
    <path d="M 10.494400024414062 195.894775390625 C 11.378772735595703 222.10279846191406 10.787158012390137 250.36927795410156 10.88463020324707 275.56903076171875 C 13.479097366333008 280.5420837402344 14.731935501098633 280.2360534667969 21.41718101501465 278.4802551269531 C 20.838623046875 255.89266967773438 21.845291137695312 230.3035888671875 19.8746337890625 205.5651092529297 C 18.295921325683594 201.8612823486328 16.55462646484375 197.19412231445312 10.494400024414062 195.894775390625" stroke-width="0.0" fill="rgb(10, 10, 10)" opacity="0.99904186" stroke="rgb(0, 0, 0)" stroke-opacity="1.0" stroke-linecap="round" stroke-linejoin="round"/>
    <path d="M 443.42205810546875 399.7074279785156 C 455.013427734375 411.3409118652344 486.5083923339844 407.69512939453125 513.5875244140625 411.02081298828125 C 516.7808837890625 407.8768310546875 518.07177734375 405.81622314453125 521.8917236328125 400.0975341796875 C 483.6778259277344 402.064697265625 452.2547302246094 394.4774169921875 443.42205810546875 399.7074279785156" stroke-width="0.0" fill="rgb(49, 49, 49)" opacity="1.0005642" stroke="rgb(0, 0, 0)" stroke-opacity="1.0" stroke-linecap="round" stroke-linejoin="round"/>
    <path d="M 349.45928955078125 392.0164794921875 C 354.1425476074219 391.08319091796875 361.0097351074219 395.82861328125 368.8871154785156 390.4244689941406 C 370.2167053222656 382.9992370605469 362.7991027832031 380.7624816894531 356.35589599609375 377.2305603027344 C 353.57623291015625 378.42498779296875 350.357421875 383.1387023925781 349.45928955078125 392.0164794921875" stroke-width="0.0" fill="rgb(53, 53, 53)" opacity="0.9967808" stroke="rgb(0, 0, 0)" stroke-opacity="1.0" stroke-linecap="round" stroke-linejoin="round"/>
    <path d="M 440.1705017089844 119.35289764404297 C 434.922119140625 116.0736083984375 430.84844970703125 115.92108917236328 428.82049560546875 119.00370025634766 C 428.5765380859375 124.27657318115234 430.6109619140625 131.34249877929688 429.9074401855469 138.19110107421875 C 437.0447082519531 139.56260681152344 437.37786865234375 134.64552307128906 440.5551452636719 129.70416259765625 C 440.306396484375 123.44786071777344 440.1788330078125 116.62709045410156 440.1705017089844 119.35289764404297" stroke-width="0.0" fill="rgb(28, 28, 28)" opacity="0.9970783" stroke="rgb(0, 0, 0)" stroke-opacity="1.0" stroke-linecap="round" stroke-linejoin="round"/>
    <path d="M 446.82354736328125 142.67007446289062 C 453.15045166015625 156.6141815185547 451.3125915527344 147.25064086914062 448.7851257324219 161.24029541015625 C 451.7907409667969 166.8316650390625 453.21124267578125 168.08969116210938 458.36566162109375 164.61639404296875 C 461.71380615234375 157.08163452148438 453.00140380859375 155.6599578857422 457.4153137207031 145.44216918945312 C 455.116943359375 140.56495666503906 452.6742858886719 141.47828674316406 446.82354736328125 142.67007446289062" stroke-width="0.0" fill="rgb(76, 76, 76)" opacity="0.9998872" stroke="rgb(0, 0, 0)" stroke-opacity="1.0" stroke-linecap="round" stroke-linejoin="round"/>
    <path d="M 430.2910461425781 83.99739837646484 C 430.739501953125 90.92377471923828 427.8876647949219 97.89977264404297 430.5728759765625 102.32557678222656 C 457.32244873046875 101.86100006103516 485.3561706542969 102.39960479736328 518.2018432617188 100.43822479248047 C 518.1921997070312 92.28612518310547 519.6762084960938 85.64777374267578 518.901123046875 84.87428283691406 C 482.04412841796875 85.1155776977539 448.51763916015625 85.05445861816406 430.2910461425781 83.99739837646484" stroke-width="0.0" fill="rgb(27, 27, 27)" opacity="0.9974302" stroke="rgb(0, 0, 0)" stroke-opacity="1.0" stroke-linecap="round" stroke-linejoin="round"/>
  </g>
</svg>
