<?xml version="1.0" ?>
<svg xmlns="http://www.w3.org/2000/svg" version="1.1" width="512" height="512">
  <defs/>
  <g>
    <path d="M -6.574290752410889 -8.389451026916504 C -7.334497451782227 169.8363494873047 -6.0116376876831055 340.6107177734375 -2.747997999191284 518.7788696289062 C 170.3004913330078 518.5723876953125 340.6568603515625 518.5432739257812 520.3265380859375 518.4175415039062 C 519.9255981445312 340.5912170410156 519.4719848632812 170.17787170410156 519.0301513671875 -9.213839530944824 C 340.41485595703125 -8.800861358642578 170.214599609375 -8.43333911895752 -6.574290752410889 -8.389451026916504" stroke-width="0.0" fill="rgb(59, 69, 82)" opacity="1.0250375" stroke="rgb(0, 0, 0)" stroke-opacity="1.0" stroke-linecap="round" stroke-linejoin="round"/>
    <path d="M -7.527042388916016 389.666259765625 C -1.0473533868789673 429.6666564941406 -0.6083980202674866 470.3333435058594 -0.15870895981788635 520.2586669921875 C 170.33128356933594 520.4668579101562 340.6651611328125 520.67333984375 521.73974609375 520.780029296875 C 521.5115356445312 465.64990234375 521.1674194335938 424.42474365234375 519.6071166992188 386.4377746582031 C 346.7608947753906 389.8666687011719 177.16612243652344 384.6873474121094 -7.527042388916016 389.666259765625" stroke-width="0.0" fill="rgb(39, 46, 49)" opacity="1.0001422" stroke="rgb(0, 0, 0)" stroke-opacity="1.0" stroke-linecap="round" stroke-linejoin="round"/>
    <path d="M 219.1844940185547 -3.6498847007751465 C 239.76174926757812 14.501592636108398 245.8191680908203 33.097694396972656 272.30316162109375 52.096900939941406 C 283.31365966796875 55.405914306640625 299.0679931640625 63.153663635253906 318.0587158203125 72.02556610107422 C 309.81072998046875 83.82949829101562 325.32000732421875 77.4449691772461 322.67572021484375 89.90653991699219 C 316.6805114746094 98.59500122070312 309.68157958984375 109.58012390136719 301.5061950683594 117.68540954589844 C 331.0979309082031 126.77842712402344 366.1180419921875 132.243408203125 392.718505859375 139.214111328125 C 437.6474304199219 143.07044982910156 471.0445861816406 140.3490447998047 519.643310546875 139.6982421875 C 519.018310546875 93.39350128173828 519.0186157226562 46.46282196044922 518.8900756835938 -7.797538757324219 C 412.55548095703125 -7.507875919342041 316.6802673339844 -7.165645122528076 219.1844940185547 -3.6498847007751465" stroke-width="0.0" fill="rgb(174, 195, 185)" opacity="0.9954305" stroke="rgb(0, 0, 0)" stroke-opacity="1.0" stroke-linecap="round" stroke-linejoin="round"/>
    <path d="M 520.7118530273438 319.57391357421875 C 424.4710388183594 324.62457275390625 330.8738708496094 320.70556640625 242.0816650390625 322.9590148925781 C 246.50936889648438 347.5584411621094 241.4929656982422 358.9171142578125 241.48170471191406 385.375732421875 C 320.75225830078125 386.845947265625 422.67138671875 385.8741149902344 520.0557861328125 385.63861083984375 C 518.9583740234375 363.83087158203125 518.963134765625 342.447998046875 520.7118530273438 319.57391357421875" stroke-width="0.0" fill="rgb(48, 45, 55)" opacity="0.9972515" stroke="rgb(0, 0, 0)" stroke-opacity="1.0" stroke-linecap="round" stroke-linejoin="round"/>
    <path d="M 99.91182708740234 92.97183990478516 C 101.4552993774414 96.85554504394531 113.59420013427734 94.18640899658203 122.77111053466797 95.31200408935547 C 127.250244140625 91.95612335205078 130.96804809570312 97.41506958007812 129.85443115234375 88.58830261230469 C 125.80255889892578 83.20109558105469 125.5152587890625 82.46397399902344 116.13849639892578 82.93903350830078 C 110.03546142578125 83.31808471679688 100.0113525390625 88.6843032836914 99.91182708740234 92.97183990478516" stroke-width="0.0" fill="rgb(183, 200, 186)" opacity="1.0072359" stroke="rgb(0, 0, 0)" stroke-opacity="1.0" stroke-linecap="round" stroke-linejoin="round"/>
    <path d="M 171.64894104003906 308.5011291503906 C 165.40126037597656 313.02215576171875 171.21656799316406 319.0760498046875 164.28884887695312 332.7815246582031 C 170.0908660888672 350.5307922363281 179.62648010253906 367.0350646972656 188.15679931640625 384.06097412109375 C 198.27281188964844 385.1174621582031 219.5038604736328 381.87823486328125 242.0865936279297 383.6412353515625 C 241.6239013671875 359.47100830078125 248.7091827392578 347.0315856933594 242.50550842285156 326.3996887207031 C 230.4787139892578 325.41943359375 220.42030334472656 320.45086669921875 203.88430786132812 321.8870544433594 C 197.07106018066406 316.4863586425781 193.77163696289062 308.7614440917969 187.19061279296875 305.6363525390625 C 182.91444396972656 302.7015686035156 173.71156311035156 304.82745361328125 171.64894104003906 308.5011291503906" stroke-width="0.0" fill="rgb(44, 45, 35)" opacity="0.9853042" stroke="rgb(0, 0, 0)" stroke-opacity="1.0" stroke-linecap="round" stroke-linejoin="round"/>
    <path d="M -3.5129458904266357 144.504638671875 C -7.2245941162109375 169.99656677246094 -7.127094745635986 197.9374542236328 -1.3832759857177734 219.73516845703125 C 27.623071670532227 227.0804443359375 38.1335563659668 208.5055389404297 64.31010437011719 211.21282958984375 C 77.49179077148438 198.5223846435547 73.61128997802734 197.65928649902344 71.10517883300781 181.9512481689453 C 65.70098114013672 179.59425354003906 62.13322067260742 172.7200469970703 56.1428337097168 169.71337890625 C 40.57080841064453 162.31871032714844 18.389142990112305 158.21800231933594 -3.5129458904266357 144.504638671875" stroke-width="0.0" fill="rgb(67, 69, 43)" opacity="0.9958009" stroke="rgb(0, 0, 0)" stroke-opacity="1.0" stroke-linecap="round" stroke-linejoin="round"/>
    <path d="M 512.068115234375 214.4204864501953 C 518.58203125 189.21249389648438 518.8195190429688 165.0938720703125 518.7959594726562 140.73765563964844 C 475.2401428222656 144.17767333984375 438.20184326171875 143.12037658691406 410.6617736816406 145.7021026611328 C 439.00457763671875 172.92410278320312 483.1665344238281 185.62387084960938 512.068115234375 214.4204864501953" stroke-width="0.0" fill="rgb(75, 96, 99)" opacity="0.99671435" stroke="rgb(0, 0, 0)" stroke-opacity="1.0" stroke-linecap="round" stroke-linejoin="round"/>
    <path d="M 100.85548400878906 47.042213439941406 C 102.28096008300781 51.30767059326172 105.33238983154297 52.12208557128906 109.20709991455078 55.07917404174805 C 116.43731689453125 54.83380126953125 123.3720474243164 55.81749725341797 125.1422119140625 51.49317169189453 C 127.39226531982422 45.67749786376953 117.38360595703125 41.53323745727539 112.52879333496094 38.88240432739258 C 105.17495727539062 38.920570373535156 103.38519287109375 40.04783630371094 100.85548400878906 47.042213439941406" stroke-width="0.0" fill="rgb(140, 166, 179)" opacity="1.0054419" stroke="rgb(0, 0, 0)" stroke-opacity="1.0" stroke-linecap="round" stroke-linejoin="round"/>
    <path d="M 88.00878143310547 335.6875305175781 C 81.57980346679688 350.6670837402344 82.7055435180664 379.20855712890625 86.02497863769531 386.5441589355469 C 117.87914276123047 387.2925720214844 167.98179626464844 387.21453857421875 180.12461853027344 386.289794921875 C 191.22122192382812 384.7682800292969 184.96612548828125 378.50494384765625 186.77015686035156 370.2615051269531 C 174.60084533691406 361.5882873535156 168.447021484375 347.7716979980469 162.70697021484375 332.2027282714844 C 151.32960510253906 329.45941162109375 143.5563201904297 315.02716064453125 128.7275848388672 317.2058410644531 C 115.04257202148438 319.9510803222656 116.98641967773438 336.30267333984375 88.00878143310547 335.6875305175781" stroke-width="0.0" fill="rgb(23, 14, 30)" opacity="1.0267153" stroke="rgb(0, 0, 0)" stroke-opacity="1.0" stroke-linecap="round" stroke-linejoin="round"/>
    <path d="M 21.684009552001953 342.670654296875 C 11.899263381958008 346.1877746582031 16.90514373779297 363.1829528808594 17.264636993408203 385.4436950683594 C 25.712221145629883 387.48187255859375 55.10169219970703 390.7212219238281 56.32221603393555 379.2088317871094 C 44.21935272216797 363.2752990722656 50.52912902832031 364.8337097167969 45.19364929199219 348.82977294921875 C 39.55473327636719 337.40789794921875 35.76905059814453 345.9674377441406 21.684009552001953 342.670654296875" stroke-width="0.0" fill="rgb(27, 18, 28)" opacity="1.000762" stroke="rgb(0, 0, 0)" stroke-opacity="1.0" stroke-linecap="round" stroke-linejoin="round"/>
    <path d="M 194.51470947265625 46.56515884399414 C 192.09814453125 51.62729263305664 180.3273162841797 50.89104080200195 180.023193359375 60.29197692871094 C 178.5194854736328 67.75360107421875 185.57174682617188 71.25016784667969 193.32220458984375 74.62496185302734 C 201.5848846435547 73.05937957763672 209.24537658691406 72.74462890625 211.31288146972656 65.77147674560547 C 206.273681640625 53.79085922241211 210.59231567382812 49.37710952758789 194.51470947265625 46.56515884399414" stroke-width="0.0" fill="rgb(168, 190, 191)" opacity="1.0060759" stroke="rgb(0, 0, 0)" stroke-opacity="1.0" stroke-linecap="round" stroke-linejoin="round"/>
    <path d="M 66.32300567626953 246.8619384765625 C 61.366268157958984 244.2043914794922 55.09775924682617 248.671142578125 54.58450698852539 251.82325744628906 C 51.65281295776367 253.44674682617188 51.58457946777344 266.377685546875 57.55158233642578 267.44464111328125 C 63.990989685058594 265.81427001953125 71.1863784790039 265.984130859375 72.98560333251953 262.5042724609375 C 72.80834197998047 253.78240966796875 70.12626647949219 249.00555419921875 66.32300567626953 246.8619384765625" stroke-width="0.0" fill="rgb(24, 23, 31)" opacity="1.0173645" stroke="rgb(0, 0, 0)" stroke-opacity="1.0" stroke-linecap="round" stroke-linejoin="round"/>
    <path d="M 26.058679580688477 249.7513427734375 C 23.586681365966797 256.22259521484375 30.814659118652344 258.5211486816406 36.36384963989258 263.0856628417969 C 46.43326950073242 263.2306823730469 42.953651428222656 263.0025329589844 46.75801086425781 259.18988037109375 C 49.834354400634766 249.68402099609375 48.811279296875 250.3670654296875 42.012535095214844 246.39483642578125 C 40.64014434814453 242.7244873046875 22.937402725219727 245.884765625 26.058679580688477 249.7513427734375" stroke-width="0.0" fill="rgb(47, 49, 32)" opacity="1.0006179" stroke="rgb(0, 0, 0)" stroke-opacity="1.0" stroke-linecap="round" stroke-linejoin="round"/>
    <path d="M -5.312841892242432 94.64421844482422 C -8.544071197509766 117.42511749267578 -10.787957191467285 132.18887329101562 -6.6757683753967285 142.4105987548828 C 12.547231674194336 131.743896484375 10.226348876953125 130.98968505859375 8.685633659362793 112.69001770019531 C 8.368276596069336 109.71428680419922 2.7295451164245605 101.1353988647461 -5.312841892242432 94.64421844482422" stroke-width="0.0" fill="rgb(41, 43, 54)" opacity="1.0001919" stroke="rgb(0, 0, 0)" stroke-opacity="1.0" stroke-linecap="round" stroke-linejoin="round"/>
    <path d="M 379.0216369628906 192.07981872558594 C 375.3592529296875 199.0767822265625 376.983154296875 199.61334228515625 380.7143249511719 208.57293701171875 C 381.6667785644531 210.8170623779297 385.28790283203125 209.72183227539062 389.2779846191406 210.33958435058594 C 392.75262451171875 208.1567840576172 394.4564208984375 198.4212646484375 391.8958740234375 194.46226501464844 C 391.84234619140625 189.33982849121094 383.62945556640625 190.39695739746094 379.0216369628906 192.07981872558594" stroke-width="0.0" fill="rgb(57, 70, 70)" opacity="0.99976563" stroke="rgb(0, 0, 0)" stroke-opacity="1.0" stroke-linecap="round" stroke-linejoin="round"/>
    <path d="M 268.2103576660156 97.36102294921875 C 276.9652099609375 97.62110900878906 291.5195007324219 100.26486206054688 297.11004638671875 98.23881530761719 C 299.2882385253906 92.07083129882812 293.2901916503906 89.77111053466797 290.20294189453125 88.88957214355469 C 278.3127136230469 89.30377960205078 276.55908203125 85.87039947509766 268.2103576660156 97.36102294921875" stroke-width="0.0" fill="rgb(176, 200, 201)" opacity="1.0124457" stroke="rgb(0, 0, 0)" stroke-opacity="1.0" stroke-linecap="round" stroke-linejoin="round"/>
    <path d="M 51.01195526123047 320.32061767578125 C 55.119239807128906 339.4331970214844 54.69194793701172 346.1025390625 55.313926696777344 364.5096130371094 C 61.17281723022461 368.68402099609375 74.31382751464844 364.9507141113281 78.16776275634766 365.6367492675781 C 84.1451644897461 354.60150146484375 85.87294006347656 335.2828674316406 79.65840148925781 328.80712890625 C 71.42414855957031 316.4255676269531 70.56941986083984 323.6134338378906 51.01195526123047 320.32061767578125" stroke-width="0.0" fill="rgb(32, 28, 30)" opacity="1.0025601" stroke="rgb(0, 0, 0)" stroke-opacity="1.0" stroke-linecap="round" stroke-linejoin="round"/>
    <path d="M 87.51874542236328 298.59747314453125 C 81.96732330322266 300.286376953125 79.97663116455078 316.02618408203125 77.62173461914062 323.5600891113281 C 84.24964904785156 330.8429260253906 80.97747039794922 335.2179870605469 89.88684844970703 336.9632263183594 C 96.74420928955078 332.7088928222656 99.25910186767578 326.7801513671875 99.13468933105469 319.0855712890625 C 93.78517150878906 310.94390869140625 93.8064193725586 299.8702697753906 87.51874542236328 298.59747314453125" stroke-width="0.0" fill="rgb(23, 14, 31)" opacity="1.0018399" stroke="rgb(0, 0, 0)" stroke-opacity="1.0" stroke-linecap="round" stroke-linejoin="round"/>
    <path d="M 219.40390014648438 107.01988220214844 C 226.05255126953125 113.82776641845703 243.58441162109375 112.90348815917969 252.83367919921875 117.50365447998047 C 271.04638671875 117.74861907958984 262.303955078125 117.64689636230469 269.6172790527344 111.00300598144531 C 269.0184020996094 106.08297729492188 264.5625915527344 104.79826354980469 259.5213317871094 102.29273223876953 C 251.10263061523438 108.24897003173828 230.9010467529297 98.94705200195312 219.40390014648438 107.01988220214844" stroke-width="0.0" fill="rgb(144, 171, 187)" opacity="1.0068551" stroke="rgb(0, 0, 0)" stroke-opacity="1.0" stroke-linecap="round" stroke-linejoin="round"/>
    <path d="M 298.445068359375 304.3965759277344 C 296.1679382324219 310.140625 293.6537170410156 309.3905334472656 295.04571533203125 316.6475524902344 C 295.4704284667969 325.9985046386719 295.3518981933594 321.1316833496094 305.6302795410156 322.434326171875 C 307.5723876953125 326.0231628417969 308.87060546875 317.499267578125 308.0030822753906 310.134765625 C 304.6794738769531 305.5093994140625 306.29302978515625 302.8614501953125 298.445068359375 304.3965759277344" stroke-width="0.0" fill="rgb(50, 53, 50)" opacity="1.0002193" stroke="rgb(0, 0, 0)" stroke-opacity="1.0" stroke-linecap="round" stroke-linejoin="round"/>
    <path d="M 308.279052734375 110.25296783447266 C 291.2325744628906 110.9045181274414 283.90625 110.23823547363281 276.23175048828125 119.15410614013672 C 283.99066162109375 120.80870056152344 292.82745361328125 121.23277282714844 299.9551696777344 121.25031280517578 C 301.4609069824219 119.27935791015625 303.9156799316406 115.7791748046875 308.279052734375 110.25296783447266" stroke-width="0.0" fill="rgb(214, 226, 218)" opacity="1.0326337" stroke="rgb(0, 0, 0)" stroke-opacity="1.0" stroke-linecap="round" stroke-linejoin="round"/>
    <path d="M 70.15718078613281 68.1544189453125 C 65.52252197265625 72.23222351074219 65.30364227294922 74.13825988769531 69.44197845458984 76.42713928222656 C 77.98294830322266 74.84684753417969 92.42939758300781 75.7308578491211 95.39427185058594 74.35708618164062 C 95.84473419189453 65.6767578125 79.95419311523438 68.07671356201172 70.15718078613281 68.1544189453125" stroke-width="0.0" fill="rgb(104, 138, 169)" opacity="0.9982872" stroke="rgb(0, 0, 0)" stroke-opacity="1.0" stroke-linecap="round" stroke-linejoin="round"/>
    <path d="M 258.39898681640625 301.50048828125 C 253.58001708984375 303.923583984375 252.5162353515625 309.8136901855469 255.72784423828125 321.6830749511719 C 253.1632080078125 320.58587646484375 259.45660400390625 321.1557922363281 261.701416015625 320.9905700683594 C 269.1962890625 316.0340270996094 264.6584777832031 314.4462890625 265.1226806640625 307.24346923828125 C 263.3018493652344 302.1290588378906 262.189453125 302.96490478515625 258.39898681640625 301.50048828125" stroke-width="0.0" fill="rgb(36, 40, 47)" opacity="1.0008624" stroke="rgb(0, 0, 0)" stroke-opacity="1.0" stroke-linecap="round" stroke-linejoin="round"/>
    <path d="M 361.83441162109375 280.7703857421875 C 357.89599609375 283.9856262207031 357.7167663574219 285.67486572265625 357.77691650390625 289.8002624511719 C 357.3791198730469 295.7232971191406 362.5144958496094 297.1411437988281 366.79681396484375 298.4258117675781 C 371.2746276855469 294.56927490234375 372.1625671386719 295.8175964355469 370.90911865234375 287.0472717285156 C 367.99725341796875 284.4422607421875 366.42645263671875 281.740234375 361.83441162109375 280.7703857421875" stroke-width="0.0" fill="rgb(78, 77, 60)" opacity="0.9994764" stroke="rgb(0, 0, 0)" stroke-opacity="1.0" stroke-linecap="round" stroke-linejoin="round"/>
    <path d="M 146.19012451171875 193.92193603515625 C 139.5113067626953 197.93898010253906 144.0718994140625 206.3371124267578 147.693115234375 208.4818115234375 C 153.6717987060547 206.8629913330078 161.96823120117188 206.63247680664062 166.81942749023438 203.98715209960938 C 155.30816650390625 199.7041473388672 152.0205841064453 199.37417602539062 146.19012451171875 193.92193603515625" stroke-width="0.0" fill="rgb(55, 69, 40)" opacity="1.0005146" stroke="rgb(0, 0, 0)" stroke-opacity="1.0" stroke-linecap="round" stroke-linejoin="round"/>
    <path d="M 96.7093734741211 17.962352752685547 C 97.4884033203125 22.193838119506836 100.42391204833984 25.420656204223633 103.74781036376953 28.971324920654297 C 108.15028381347656 29.853330612182617 112.96234130859375 28.091535568237305 116.25554656982422 21.247297286987305 C 110.76473236083984 17.48900604248047 105.61441802978516 14.469548225402832 96.7093734741211 17.962352752685547" stroke-width="0.0" fill="rgb(130, 156, 174)" opacity="1.0107633" stroke="rgb(0, 0, 0)" stroke-opacity="1.0" stroke-linecap="round" stroke-linejoin="round"/>
    <path d="M 498.19940185546875 299.9261779785156 C 496.775634765625 312.5824890136719 497.4013671875 310.10638427734375 506.3302307128906 315.6359558105469 C 509.7436218261719 310.673095703125 512.7779541015625 309.8510437011719 510.7827453613281 304.20001220703125 C 509.03729248046875 300.7955017089844 502.7154846191406 299.645263671875 498.19940185546875 299.9261779785156" stroke-width="0.0" fill="rgb(79, 81, 70)" opacity="0.9999332" stroke="rgb(0, 0, 0)" stroke-opacity="1.0" stroke-linecap="round" stroke-linejoin="round"/>
    <path d="M 224.1500244140625 223.88699340820312 C 222.60777282714844 215.91629028320312 229.73861694335938 218.61077880859375 234.31817626953125 221.0447235107422 C 230.8452911376953 221.55857849121094 238.04627990722656 227.07933044433594 238.19906616210938 230.77745056152344 C 232.4165802001953 236.44276428222656 225.2271270751953 223.99508666992188 224.1500244140625 223.88699340820312" stroke-width="0.0" fill="rgb(45, 59, 50)" opacity="1.0003364" stroke="rgb(0, 0, 0)" stroke-opacity="1.0" stroke-linecap="round" stroke-linejoin="round"/>
    <path d="M 321.45758056640625 241.36354064941406 C 318.31689453125 247.3951873779297 325.58526611328125 244.4317626953125 329.07745361328125 252.4120330810547 C 332.738525390625 251.5889129638672 334.6949462890625 245.95819091796875 335.44744873046875 243.8921356201172 C 335.1101379394531 240.25344848632812 324.96795654296875 240.02354431152344 321.45758056640625 241.36354064941406" stroke-width="0.0" fill="rgb(55, 68, 57)" opacity="1.0000703" stroke="rgb(0, 0, 0)" stroke-opacity="1.0" stroke-linecap="round" stroke-linejoin="round"/>
    <path d="M 305.7105407714844 154.2964324951172 C 303.26605224609375 159.78280639648438 308.0130920410156 161.1443634033203 308.664794921875 166.35440063476562 C 314.6751708984375 165.33828735351562 316.6145324707031 160.99899291992188 315.9292907714844 157.85508728027344 C 312.4403381347656 156.2381134033203 309.3451232910156 151.98143005371094 305.7105407714844 154.2964324951172" stroke-width="0.0" fill="rgb(90, 102, 59)" opacity="1.0006638" stroke="rgb(0, 0, 0)" stroke-opacity="1.0" stroke-linecap="round" stroke-linejoin="round"/>
    <path d="M 73.09904479980469 267.73590087890625 C 76.2930679321289 267.0785827636719 74.6045913696289 270.751953125 80.10440826416016 273.8390197753906 C 77.5717544555664 274.7103576660156 75.91510009765625 279.2181396484375 72.88465118408203 280.28363037109375 C 67.75102233886719 273.97027587890625 69.75016021728516 268.95062255859375 73.09904479980469 267.73590087890625" stroke-width="0.0" fill="rgb(36, 36, 35)" opacity="1.0034832" stroke="rgb(0, 0, 0)" stroke-opacity="1.0" stroke-linecap="round" stroke-linejoin="round"/>
    <path d="M 160.32867431640625 174.72366333007812 C 163.05123901367188 172.26388549804688 166.059814453125 175.65237426757812 163.01644897460938 173.6869659423828 C 168.41612243652344 173.2073974609375 168.31727600097656 186.77337646484375 164.86769104003906 185.96177673339844 C 161.0384521484375 187.5004425048828 159.40695190429688 175.7122802734375 160.32867431640625 174.72366333007812" stroke-width="0.0" fill="rgb(66, 71, 46)" opacity="1.0002209" stroke="rgb(0, 0, 0)" stroke-opacity="1.0" stroke-linecap="round" stroke-linejoin="round"/>
    <path d="M 195.56602478027344 199.70196533203125 C 191.89515686035156 202.14703369140625 194.32861328125 206.2257843017578 196.02542114257812 205.71890258789062 C 195.0733642578125 210.77549743652344 201.821044921875 209.9353790283203 205.37095642089844 206.62982177734375 C 201.70831298828125 203.16415405273438 198.8618927001953 199.34860229492188 195.56602478027344 199.70196533203125" stroke-width="0.0" fill="rgb(52, 67, 46)" opacity="1.0008781" stroke="rgb(0, 0, 0)" stroke-opacity="1.0" stroke-linecap="round" stroke-linejoin="round"/>
    <path d="M 72.94229125976562 12.651299476623535 C 73.58843994140625 7.014687538146973 77.20768737792969 11.819652557373047 79.65546417236328 12.044785499572754 C 78.84136962890625 11.833547592163086 83.99156951904297 14.76131534576416 81.57354736328125 17.016845703125 C 75.97532653808594 17.839847564697266 71.35029602050781 15.356446266174316 72.94229125976562 12.651299476623535" stroke-width="0.0" fill="rgb(119, 147, 172)" opacity="1.0124784" stroke="rgb(0, 0, 0)" stroke-opacity="1.0" stroke-linecap="round" stroke-linejoin="round"/>
    <path d="M 199.04885864257812 169.34664916992188 C 198.3761749267578 172.83782958984375 199.45750427246094 173.97166442871094 202.22019958496094 175.26585388183594 C 203.728759765625 176.41885375976562 208.2610626220703 170.42633056640625 204.81129455566406 171.90505981445312 C 205.27305603027344 168.27394104003906 203.2410888671875 168.6502227783203 199.04885864257812 169.34664916992188" stroke-width="0.0" fill="rgb(48, 61, 51)" opacity="1.0005944" stroke="rgb(0, 0, 0)" stroke-opacity="1.0" stroke-linecap="round" stroke-linejoin="round"/>
    <path d="M 397.3857116699219 1.9355601072311401 C 395.478515625 12.730076789855957 397.4637451171875 12.06828784942627 406.155517578125 15.053420066833496 C 415.8549499511719 15.272692680358887 421.0582275390625 12.992897987365723 424.0821533203125 8.71902847290039 C 424.8150939941406 2.631263017654419 422.3804626464844 3.7502501010894775 422.308837890625 2.3978261947631836 C 415.99420166015625 -0.7714070081710815 396.7170104980469 0.86714106798172 397.3857116699219 1.9355601072311401" stroke-width="0.0" fill="rgb(230, 236, 221)" opacity="0.98561966" stroke="rgb(0, 0, 0)" stroke-opacity="1.0" stroke-linecap="round" stroke-linejoin="round"/>
    <path d="M 400.8872985839844 113.95600891113281 C 397.4584655761719 100.98339080810547 387.7331848144531 93.31221008300781 379.6571044921875 85.89852142333984 C 375.3917541503906 84.11327362060547 363.4282531738281 82.97547149658203 356.12811279296875 84.6451644897461 C 344.85943603515625 85.02854919433594 338.22149658203125 85.88632202148438 327.0641784667969 92.5044174194336 C 315.9820251464844 101.8495864868164 302.88861083984375 109.30036926269531 288.17413330078125 119.1959228515625 C 328.4629821777344 123.48780059814453 358.6825866699219 131.5939178466797 391.0182800292969 139.6944122314453 C 392.423583984375 120.74797058105469 404.111083984375 125.33980560302734 400.8872985839844 113.95600891113281" stroke-width="0.0" fill="rgb(147, 176, 170)" opacity="0.83205605" stroke="rgb(0, 0, 0)" stroke-opacity="1.0" stroke-linecap="round" stroke-linejoin="round"/>
    <path d="M 244.77529907226562 327.0536804199219 C 245.8111572265625 335.42779541015625 247.2543182373047 349.5543518066406 243.86322021484375 363.4275817871094 C 245.7422637939453 368.9656066894531 249.4853057861328 371.97772216796875 253.9092254638672 370.72784423828125 C 285.1826477050781 376.1447448730469 320.6407470703125 375.15478515625 361.5006408691406 375.1425476074219 C 363.4845886230469 374.5792236328125 364.5900573730469 383.52276611328125 371.57476806640625 386.4864501953125 C 404.8150329589844 384.972900390625 439.54541015625 387.8055114746094 461.8389587402344 383.1809997558594 C 463.8177795410156 357.7442932128906 449.0223388671875 352.95465087890625 460.9092712402344 334.8509826660156 C 455.9156494140625 323.32080078125 452.6212158203125 316.2309265136719 439.70709228515625 317.8873291015625 C 427.3901672363281 323.2826232910156 436.5873107910156 317.6422119140625 419.8271484375 313.3533630371094 C 402.2098693847656 322.204345703125 387.3567810058594 323.2207946777344 368.27947998046875 325.5740661621094 C 349.00189208984375 327.8137512207031 350.7345886230469 323.16827392578125 340.12841796875 317.1212463378906 C 329.5030517578125 322.01763916015625 320.3331298828125 324.6845397949219 315.4673767089844 325.85638427734375 C 306.63995361328125 326.6926574707031 307.8646240234375 319.14471435546875 304.69696044921875 313.79876708984375 C 296.54925537109375 314.5745544433594 290.4717712402344 313.69476318359375 285.47332763671875 312.53765869140625 C 276.07208251953125 320.7679138183594 258.6820068359375 324.1200866699219 244.77529907226562 327.0536804199219" stroke-width="0.0" fill="rgb(54, 55, 51)" opacity="0.99761003" stroke="rgb(0, 0, 0)" stroke-opacity="1.0" stroke-linecap="round" stroke-linejoin="round"/>
    <path d="M 121.70111846923828 321.7984313964844 C 119.41812896728516 326.9495849609375 123.74699401855469 350.994384765625 119.7105941772461 384.9734191894531 C 137.55029296875 388.48052978515625 160.8645782470703 387.43658447265625 182.55752563476562 385.5995788574219 C 189.2491455078125 380.53375244140625 187.61788940429688 381.0574035644531 184.9357147216797 368.822509765625 C 172.94705200195312 359.7838134765625 169.69114685058594 348.2681579589844 162.1509552001953 331.80902099609375 C 145.95565795898438 326.82159423828125 138.06399536132812 309.7973937988281 121.70111846923828 321.7984313964844" stroke-width="0.0" fill="rgb(36, 36, 27)" opacity="1.0081339" stroke="rgb(0, 0, 0)" stroke-opacity="1.0" stroke-linecap="round" stroke-linejoin="round"/>
    <path d="M 191.9697265625 368.0255432128906 C 186.09402465820312 373.6565856933594 193.80030822753906 374.5650634765625 189.2180633544922 383.7914123535156 C 251.0186309814453 383.9535827636719 295.35760498046875 388.84161376953125 366.5683288574219 385.7604675292969 C 367.5386962890625 379.4891357421875 363.17132568359375 378.8854064941406 361.95928955078125 374.9911804199219 C 297.12451171875 379.7818603515625 250.82241821289062 366.8775939941406 191.9697265625 368.0255432128906" stroke-width="0.0" fill="rgb(50, 50, 55)" opacity="0.98480517" stroke="rgb(0, 0, 0)" stroke-opacity="1.0" stroke-linecap="round" stroke-linejoin="round"/>
    <path d="M 179.35610961914062 337.7893371582031 C 175.17576599121094 343.9566650390625 174.40594482421875 353.16387939453125 177.39756774902344 359.2640075683594 C 180.36080932617188 363.3100891113281 187.5743408203125 363.9094543457031 191.3704376220703 370.6345520019531 C 212.94065856933594 368.0045166015625 232.1664276123047 368.53656005859375 242.21763610839844 369.9768981933594 C 245.6724853515625 355.2886962890625 241.471923828125 349.71868896484375 237.08486938476562 342.2433776855469 C 214.5388641357422 340.6783142089844 196.365234375 337.35382080078125 179.35610961914062 337.7893371582031" stroke-width="0.0" fill="rgb(82, 85, 71)" opacity="0.9923867" stroke="rgb(0, 0, 0)" stroke-opacity="1.0" stroke-linecap="round" stroke-linejoin="round"/>
    <path d="M 171.92266845703125 310.2823181152344 C 172.60610961914062 313.3623046875 174.10174560546875 329.7633056640625 175.633544921875 338.7171630859375 C 196.7632293701172 335.6944274902344 213.0586700439453 341.2143249511719 236.75051879882812 342.4626770019531 C 239.8006134033203 344.51788330078125 236.87094116210938 351.0403137207031 243.7342529296875 350.0163269042969 C 248.07907104492188 343.1680908203125 244.5138397216797 331.0425720214844 242.04647827148438 327.5634765625 C 223.1171112060547 320.9786376953125 225.22579956054688 320.2623596191406 202.55079650878906 324.2193908691406 C 198.59060668945312 319.62078857421875 195.54364013671875 309.4537048339844 187.90390014648438 305.38262939453125 C 186.9831085205078 302.0378112792969 173.65673828125 300.4373474121094 171.92266845703125 310.2823181152344" stroke-width="0.0" fill="rgb(83, 81, 48)" opacity="0.97278947" stroke="rgb(0, 0, 0)" stroke-opacity="1.0" stroke-linecap="round" stroke-linejoin="round"/>
    <path d="M 468.5567321777344 181.760009765625 C 480.5350036621094 190.51805114746094 495.8173522949219 197.50015258789062 513.8366088867188 213.0631561279297 C 520.394775390625 202.14772033691406 519.082275390625 190.66622924804688 521.5667114257812 176.40097045898438 C 492.52618408203125 181.04473876953125 468.47857666015625 173.7544403076172 468.5567321777344 181.760009765625" stroke-width="0.0" fill="rgb(64, 80, 96)" opacity="0.99992853" stroke="rgb(0, 0, 0)" stroke-opacity="1.0" stroke-linecap="round" stroke-linejoin="round"/>
    <path d="M 519.2373657226562 318.18011474609375 C 496.6632080078125 334.1496887207031 509.21923828125 346.7576599121094 498.4442443847656 356.7342834472656 C 494.23321533203125 365.8669128417969 504.5821228027344 376.4496765136719 515.7276611328125 391.5766906738281 C 521.138916015625 368.33489990234375 521.4557495117188 348.8277587890625 519.2373657226562 318.18011474609375" stroke-width="0.0" fill="rgb(45, 34, 59)" opacity="0.99968165" stroke="rgb(0, 0, 0)" stroke-opacity="1.0" stroke-linecap="round" stroke-linejoin="round"/>
    <path d="M 480.7402648925781 298.0023193359375 C 472.5555114746094 297.61126708984375 472.03814697265625 312.695556640625 476.4955139160156 325.3370666503906 C 470.8314514160156 322.5538330078125 466.51641845703125 328.4725036621094 459.9416198730469 329.91619873046875 C 460.09619140625 332.8738098144531 457.4770812988281 340.2318115234375 455.8646545410156 346.76708984375 C 458.43572998046875 357.45574951171875 462.8475646972656 367.2147521972656 464.5697937011719 381.823486328125 C 468.7545166015625 385.55194091796875 484.44683837890625 385.4354248046875 497.1282958984375 384.8097229003906 C 502.7021179199219 375.4146423339844 493.8283996582031 367.89501953125 493.359619140625 355.34356689453125 C 496.4429016113281 351.839111328125 504.489990234375 349.12396240234375 506.23236083984375 339.9541320800781 C 488.3907165527344 328.7530822753906 499.9665832519531 309.4364013671875 480.7402648925781 298.0023193359375" stroke-width="0.0" fill="rgb(63, 62, 59)" opacity="0.94704103" stroke="rgb(0, 0, 0)" stroke-opacity="1.0" stroke-linecap="round" stroke-linejoin="round"/>
    <path d="M 60.79030227661133 246.029541015625 C 56.06675720214844 246.5979461669922 54.30661392211914 256.13323974609375 57.6949348449707 259.924560546875 C 60.94978332519531 260.2624816894531 62.793033599853516 264.9591979980469 70.41767120361328 265.3294677734375 C 76.0318374633789 260.6298522949219 75.287109375 255.25491333007812 68.70494079589844 247.226806640625 C 66.51607513427734 246.20571899414062 62.81463623046875 245.52255249023438 60.79030227661133 246.029541015625" stroke-width="0.0" fill="rgb(44, 47, 35)" opacity="1.0091436" stroke="rgb(0, 0, 0)" stroke-opacity="1.0" stroke-linecap="round" stroke-linejoin="round"/>
    <path d="M 68.86173248291016 69.13631439208984 C 64.15679168701172 72.45106506347656 68.51991271972656 78.60222625732422 67.05179595947266 76.07717895507812 C 67.67941284179688 75.11072540283203 77.9032974243164 77.90555572509766 79.71446228027344 74.47718811035156 C 78.8971939086914 68.14836883544922 73.99205780029297 66.54703521728516 68.86173248291016 69.13631439208984" stroke-width="0.0" fill="rgb(109, 141, 169)" opacity="1.0042313" stroke="rgb(0, 0, 0)" stroke-opacity="1.0" stroke-linecap="round" stroke-linejoin="round"/>
    <path d="M 85.27764892578125 68.00611114501953 C 78.40657806396484 69.07051086425781 83.71947479248047 73.24401092529297 83.02354431152344 72.77444458007812 C 83.96723175048828 74.8072738647461 95.44571685791016 76.50870513916016 94.00750732421875 73.2138671875 C 94.79256439208984 66.24803161621094 91.14353942871094 70.61029052734375 85.27764892578125 68.00611114501953" stroke-width="0.0" fill="rgb(117, 147, 173)" opacity="1.004805" stroke="rgb(0, 0, 0)" stroke-opacity="1.0" stroke-linecap="round" stroke-linejoin="round"/>
    <path d="M 404.21728515625 -8.867448806762695 C 397.1223449707031 7.419670581817627 398.1939697265625 11.162694931030273 408.5451354980469 13.50355052947998 C 416.8337097167969 12.590612411499023 432.5750732421875 10.048650741577148 423.0113830566406 -2.874447822570801 C 425.2835693359375 -9.992069244384766 417.2825012207031 -11.4105806350708 404.21728515625 -8.867448806762695" stroke-width="0.0" fill="rgb(241, 244, 234)" opacity="1.011343" stroke="rgb(0, 0, 0)" stroke-opacity="1.0" stroke-linecap="round" stroke-linejoin="round"/>
    <path d="M 459.3837890625 334.0350036621094 C 451.4161071777344 306.2061462402344 441.1092529296875 326.8833923339844 420.08782958984375 313.62261962890625 C 396.47149658203125 326.9530029296875 376.9288024902344 320.4689636230469 359.4854431152344 330.76715087890625 C 358.8065490722656 336.80999755859375 352.16778564453125 354.62432861328125 356.2049560546875 361.8499450683594 C 364.6566162109375 367.16339111328125 364.09808349609375 371.1770935058594 367.8458557128906 385.2911682128906 C 396.2500915527344 386.35113525390625 428.770263671875 385.68548583984375 461.2454528808594 383.4254455566406 C 461.7542419433594 355.35589599609375 450.66375732421875 356.07379150390625 459.3837890625 334.0350036621094" stroke-width="0.0" fill="rgb(50, 49, 51)" opacity="1.0004916" stroke="rgb(0, 0, 0)" stroke-opacity="1.0" stroke-linecap="round" stroke-linejoin="round"/>
    <path d="M 329.1498718261719 372.1260070800781 C 332.2763977050781 361.5956115722656 326.9756774902344 355.7535705566406 326.9741516113281 347.94854736328125 C 316.9723205566406 335.3545227050781 307.4425048828125 323.2706604003906 304.31048583984375 310.7308654785156 C 279.0202331542969 312.76251220703125 266.7365417480469 323.5841979980469 244.33038330078125 327.56048583984375 C 248.70252990722656 344.0016174316406 246.48629760742188 347.5608825683594 244.73268127441406 360.1942443847656 C 245.27879333496094 366.99127197265625 249.81683349609375 370.6720886230469 255.7634735107422 371.282470703125 C 277.1548767089844 376.1488952636719 306.14849853515625 373.4589538574219 329.1498718261719 372.1260070800781" stroke-width="0.0" fill="rgb(46, 47, 46)" opacity="0.9984216" stroke="rgb(0, 0, 0)" stroke-opacity="1.0" stroke-linecap="round" stroke-linejoin="round"/>
    <path d="M 187.87628173828125 370.4145202636719 C 190.42080688476562 373.2275695800781 190.314453125 383.83685302734375 189.724365234375 383.8760986328125 C 209.47207641601562 385.0121765136719 232.35986328125 383.2245788574219 247.4405975341797 385.05426025390625 C 249.84652709960938 373.97698974609375 246.4040069580078 367.2801818847656 247.27874755859375 370.3995666503906 C 220.3599395751953 368.4325866699219 207.06121826171875 368.6482238769531 187.87628173828125 370.4145202636719" stroke-width="0.0" fill="rgb(54, 56, 52)" opacity="0.99568546" stroke="rgb(0, 0, 0)" stroke-opacity="1.0" stroke-linecap="round" stroke-linejoin="round"/>
    <path d="M 201.0489959716797 324.8092956542969 C 201.48370361328125 321.8764953613281 200.71090698242188 332.8055419921875 197.29434204101562 334.4278259277344 C 216.7576141357422 347.13916015625 237.2948760986328 335.23309326171875 241.60528564453125 351.4165954589844 C 250.1907958984375 340.238037109375 244.0609588623047 333.8731994628906 242.91490173339844 327.705078125 C 225.8760223388672 320.8571472167969 219.77200317382812 320.50042724609375 201.0489959716797 324.8092956542969" stroke-width="0.0" fill="rgb(78, 74, 48)" opacity="0.996239" stroke="rgb(0, 0, 0)" stroke-opacity="1.0" stroke-linecap="round" stroke-linejoin="round"/>
    <path d="M 172.92617797851562 307.9023742675781 C 171.57627868652344 312.57550048828125 175.9007568359375 323.7391052246094 175.7951202392578 337.8736572265625 C 179.14971923828125 336.0564880371094 190.3117218017578 336.5038757324219 193.26010131835938 335.6922302246094 C 199.6307830810547 333.61260986328125 199.64889526367188 321.2438049316406 200.4806671142578 322.39251708984375 C 194.728271484375 311.2061462402344 191.4186553955078 307.0589294433594 188.45999145507812 304.8522644042969 C 185.947998046875 302.289794921875 174.13632202148438 300.83740234375 172.92617797851562 307.9023742675781" stroke-width="0.0" fill="rgb(86, 90, 19)" opacity="0.99710196" stroke="rgb(0, 0, 0)" stroke-opacity="1.0" stroke-linecap="round" stroke-linejoin="round"/>
    <path d="M 327.07904052734375 341.76678466796875 C 324.4024353027344 349.86358642578125 330.0451354980469 359.7034606933594 332.2967834472656 372.94891357421875 C 335.8761901855469 370.77093505859375 343.05975341796875 373.09039306640625 347.7294921875 372.9592590332031 C 354.12689208984375 364.0672912597656 347.40924072265625 358.6984558105469 345.90802001953125 350.8349914550781 C 342.54766845703125 346.09967041015625 334.19110107421875 340.1553955078125 327.07904052734375 341.76678466796875" stroke-width="0.0" fill="rgb(50, 53, 43)" opacity="0.9995166" stroke="rgb(0, 0, 0)" stroke-opacity="1.0" stroke-linecap="round" stroke-linejoin="round"/>
    <path d="M 214.14492797851562 359.8663635253906 C 214.49307250976562 365.563232421875 211.85653686523438 363.47711181640625 217.10894775390625 364.1295166015625 C 221.08323669433594 363.6131591796875 219.97488403320312 367.6852111816406 219.6396026611328 358.42816162109375 C 220.49557495117188 360.4853210449219 218.38699340820312 359.70184326171875 214.14492797851562 359.8663635253906" stroke-width="0.0" fill="rgb(97, 95, 73)" opacity="1.0017667" stroke="rgb(0, 0, 0)" stroke-opacity="1.0" stroke-linecap="round" stroke-linejoin="round"/>
    <path d="M 330.56451416015625 97.23919677734375 C 323.3005676269531 95.4227066040039 342.0511169433594 89.39173889160156 352.990478515625 101.0464096069336 C 350.26214599609375 106.40644073486328 354.67315673828125 115.31208038330078 371.2594299316406 122.34376525878906 C 382.95843505859375 120.8651351928711 381.3586730957031 105.05660247802734 391.80926513671875 98.1013412475586 C 380.5050354003906 95.58271789550781 383.56634521484375 93.34236145019531 381.153076171875 86.7538070678711 C 377.39263916015625 81.46965789794922 371.0347900390625 85.54785919189453 361.03375244140625 82.27217102050781 C 359.4031677246094 94.84809112548828 342.1604919433594 78.505615234375 330.56451416015625 97.23919677734375" stroke-width="0.0" fill="rgb(215, 225, 209)" opacity="1.0027192" stroke="rgb(0, 0, 0)" stroke-opacity="1.0" stroke-linecap="round" stroke-linejoin="round"/>
    <path d="M 464.3603210449219 364.4947204589844 C 462.8323059082031 374.01458740234375 463.119140625 378.3182373046875 469.0507507324219 383.705810546875 C 474.1690368652344 384.9705810546875 487.3749694824219 385.9330749511719 497.41192626953125 384.8586730957031 C 499.90838623046875 374.44110107421875 494.479736328125 361.6938781738281 490.5553894042969 357.18255615234375 C 478.54168701171875 355.61865234375 470.5578918457031 357.861083984375 464.3603210449219 364.4947204589844" stroke-width="0.0" fill="rgb(48, 40, 57)" opacity="0.998434" stroke="rgb(0, 0, 0)" stroke-opacity="1.0" stroke-linecap="round" stroke-linejoin="round"/>
    <path d="M 339.6810302734375 311.2829895019531 C 330.00201416015625 314.1481018066406 333.86920166015625 323.6887512207031 328.73223876953125 321.787841796875 C 321.3326110839844 332.9428405761719 325.59783935546875 333.92291259765625 329.44415283203125 340.2715759277344 C 327.3232116699219 338.8853454589844 335.3063049316406 341.9267578125 339.38055419921875 341.0030822753906 C 336.6487121582031 323.44537353515625 341.3876037597656 334.05230712890625 347.77825927734375 323.1562194824219 C 345.37054443359375 319.1981201171875 341.8308410644531 314.5718994140625 339.6810302734375 311.2829895019531" stroke-width="0.0" fill="rgb(57, 61, 52)" opacity="0.99404377" stroke="rgb(0, 0, 0)" stroke-opacity="1.0" stroke-linecap="round" stroke-linejoin="round"/>
    <path d="M 349.6222229003906 333.65936279296875 C 340.3995056152344 329.5049743652344 338.1220703125 340.88568115234375 338.8605651855469 343.6798095703125 C 343.8150329589844 347.4912109375 345.8929138183594 354.42987060546875 349.90386962890625 357.4953308105469 C 356.6532287597656 357.590087890625 354.5892028808594 351.8603515625 356.2620544433594 346.69818115234375 C 352.4843444824219 339.8050842285156 348.15838623046875 334.34368896484375 349.6222229003906 333.65936279296875" stroke-width="0.0" fill="rgb(60, 65, 45)" opacity="0.9991203" stroke="rgb(0, 0, 0)" stroke-opacity="1.0" stroke-linecap="round" stroke-linejoin="round"/>
    <path d="M 349.6144104003906 371.7003479003906 C 351.0670166015625 368.51507568359375 354.5011291503906 373.47650146484375 355.53759765625 371.6099853515625 C 353.6230163574219 378.3898010253906 358.1285400390625 378.42236328125 348.6341552734375 377.8952941894531 C 348.99395751953125 378.8965759277344 346.1139831542969 377.6457824707031 349.6144104003906 371.7003479003906" stroke-width="0.0" fill="rgb(96, 104, 87)" opacity="1.0024097" stroke="rgb(0, 0, 0)" stroke-opacity="1.0" stroke-linecap="round" stroke-linejoin="round"/>
    <path d="M 231.66140747070312 359.99407958984375 C 234.5167999267578 359.6676940917969 237.13418579101562 359.9505920410156 235.81227111816406 363.56298828125 C 236.57183837890625 363.2041931152344 235.37994384765625 366.3553466796875 233.80772399902344 366.0143127441406 C 229.5936279296875 365.638671875 233.08790588378906 361.2066345214844 231.66140747070312 359.99407958984375" stroke-width="0.0" fill="rgb(75, 74, 57)" opacity="0.9991786" stroke="rgb(0, 0, 0)" stroke-opacity="1.0" stroke-linecap="round" stroke-linejoin="round"/>
    <path d="M 440.41644287109375 315.9888000488281 C 434.275634765625 319.1970520019531 429.3752746582031 326.7041320800781 433.5500793457031 344.3040771484375 C 439.2406005859375 354.1252746582031 441.9574279785156 357.0132141113281 440.8851623535156 371.2905578613281 C 445.5441589355469 384.7676086425781 447.0411071777344 384.7048645019531 452.7764892578125 383.5061340332031 C 461.0592346191406 383.4986267089844 457.8587951660156 380.2923583984375 461.5655212402344 378.55987548828125 C 459.7781677246094 351.20513916015625 450.8804016113281 355.0130310058594 459.55145263671875 331.07855224609375 C 455.0675964355469 319.8099365234375 450.95703125 317.1623229980469 440.41644287109375 315.9888000488281" stroke-width="0.0" fill="rgb(58, 55, 58)" opacity="0.9941961" stroke="rgb(0, 0, 0)" stroke-opacity="1.0" stroke-linecap="round" stroke-linejoin="round"/>
    <path d="M 270.4581604003906 320.2585754394531 C 265.1519775390625 320.132080078125 265.24578857421875 327.4929504394531 263.958251953125 332.3710632324219 C 263.23150634765625 348.041748046875 264.6270751953125 358.21136474609375 264.85723876953125 364.7882385253906 C 265.71734619140625 366.5711669921875 273.19512939453125 369.0081481933594 279.9786376953125 372.7298278808594 C 284.24249267578125 361.8562927246094 292.3033447265625 368.17022705078125 292.7967224121094 355.53607177734375 C 294.7005310058594 342.1675720214844 289.2548522949219 337.7120056152344 291.4990539550781 330.5791931152344 C 282.8677978515625 327.5164794921875 280.1209411621094 320.1156005859375 270.4581604003906 320.2585754394531" stroke-width="0.0" fill="rgb(40, 41, 37)" opacity="0.99996144" stroke="rgb(0, 0, 0)" stroke-opacity="1.0" stroke-linecap="round" stroke-linejoin="round"/>
    <path d="M 248.47816467285156 324.84234619140625 C 244.3666229248047 330.56646728515625 245.48594665527344 345.6393127441406 242.77745056152344 357.0054016113281 C 249.6359100341797 363.0630187988281 246.90719604492188 374.4439697265625 262.8852233886719 368.7182922363281 C 266.62841796875 365.2422790527344 260.72442626953125 343.9963684082031 265.5827941894531 324.7838439941406 C 265.0306701660156 323.3612060546875 252.2607879638672 323.0135498046875 248.47816467285156 324.84234619140625" stroke-width="0.0" fill="rgb(53, 56, 37)" opacity="0.9962219" stroke="rgb(0, 0, 0)" stroke-opacity="1.0" stroke-linecap="round" stroke-linejoin="round"/>
    <path d="M 209.49330139160156 331.2146301269531 C 214.68753051757812 341.0990905761719 232.4458770751953 337.9703674316406 242.42745971679688 349.28204345703125 C 247.96768188476562 334.2317810058594 243.71475219726562 335.1440734863281 241.00491333007812 326.58538818359375 C 227.97862243652344 328.4537048339844 236.56712341308594 321.3973693847656 228.28369140625 323.1365966796875 C 217.23194885253906 321.5625305175781 212.32049560546875 326.7081298828125 209.49330139160156 331.2146301269531" stroke-width="0.0" fill="rgb(114, 94, 24)" opacity="1.0057247" stroke="rgb(0, 0, 0)" stroke-opacity="1.0" stroke-linecap="round" stroke-linejoin="round"/>
    <path d="M 371.32781982421875 362.8880615234375 C 364.5023498535156 370.19488525390625 364.51202392578125 370.3672790527344 367.94769287109375 384.97259521484375 C 374.2712707519531 387.37786865234375 381.793701171875 386.4775085449219 384.2298889160156 384.3509826660156 C 383.6298522949219 382.1781005859375 387.35882568359375 379.2490539550781 384.4903869628906 372.6355285644531 C 379.04608154296875 368.024658203125 374.0414123535156 360.65191650390625 371.32781982421875 362.8880615234375" stroke-width="0.0" fill="rgb(46, 45, 49)" opacity="1.0001101" stroke="rgb(0, 0, 0)" stroke-opacity="1.0" stroke-linecap="round" stroke-linejoin="round"/>
    <path d="M 286.5538635253906 311.53314208984375 C 283.3373718261719 312.8291015625 279.22967529296875 318.1564636230469 278.78985595703125 320.7539367675781 C 280.3329162597656 326.69805908203125 286.5822448730469 326.90362548828125 291.5806884765625 331.6095886230469 C 293.1046447753906 326.92938232421875 297.1070861816406 325.13671875 296.1534118652344 320.6891784667969 C 293.110595703125 315.6986389160156 290.87066650390625 310.66204833984375 286.5538635253906 311.53314208984375" stroke-width="0.0" fill="rgb(54, 63, 37)" opacity="1.0010387" stroke="rgb(0, 0, 0)" stroke-opacity="1.0" stroke-linecap="round" stroke-linejoin="round"/>
    <path d="M 173.95359802246094 327.77777099609375 C 172.97988891601562 330.97723388671875 177.3820343017578 330.5852966308594 177.13844299316406 336.4533386230469 C 179.18765258789062 335.63525390625 185.10061645507812 336.18035888671875 189.74110412597656 335.8472595214844 C 188.51687622070312 330.4040222167969 185.32550048828125 326.6015930175781 185.64747619628906 323.94598388671875 C 179.7582550048828 322.0295104980469 172.997802734375 322.23089599609375 173.95359802246094 327.77777099609375" stroke-width="0.0" fill="rgb(103, 82, 31)" opacity="0.99882287" stroke="rgb(0, 0, 0)" stroke-opacity="1.0" stroke-linecap="round" stroke-linejoin="round"/>
    <path d="M 217.38165283203125 361.0091857910156 C 216.4519500732422 360.1835021972656 214.20640563964844 361.7268981933594 217.03466796875 366.191650390625 C 220.4884490966797 364.5768127441406 219.1691131591797 361.31597900390625 217.9710235595703 358.1317138671875 C 221.1755828857422 365.6075744628906 221.759521484375 360.33056640625 217.38165283203125 361.0091857910156" stroke-width="0.0" fill="rgb(57, 55, 42)" opacity="0.9970517" stroke="rgb(0, 0, 0)" stroke-opacity="1.0" stroke-linecap="round" stroke-linejoin="round"/>
    <path d="M 213.76458740234375 326.59674072265625 C 208.10897827148438 333.14337158203125 211.4429931640625 332.4368591308594 215.48635864257812 337.4154052734375 C 219.6434326171875 337.83880615234375 227.36883544921875 340.61846923828125 234.9999237060547 343.5600891113281 C 235.1136016845703 330.6550598144531 236.5618133544922 328.8389587402344 231.55276489257812 322.99005126953125 C 223.1838836669922 322.478271484375 215.99534606933594 323.21533203125 213.76458740234375 326.59674072265625" stroke-width="0.0" fill="rgb(72, 77, 22)" opacity="0.99740916" stroke="rgb(0, 0, 0)" stroke-opacity="1.0" stroke-linecap="round" stroke-linejoin="round"/>
  </g>
</svg>
