<?xml version="1.0" ?>
<svg xmlns="http://www.w3.org/2000/svg" version="1.1" width="512" height="512">
  <defs/>
  <g>
    <path d="M -2.5381665229797363 -2.685035228729248 C -3.3605782985687256 170.33737182617188 -4.8586273193359375 340.7031555175781 -5.368753433227539 516.7191162109375 C 170.38551330566406 516.54931640625 340.5498352050781 516.5989990234375 517.5592651367188 516.7996215820312 C 517.7186279296875 340.7485046386719 517.718017578125 170.3751983642578 517.7362670898438 -3.1163814067840576 C 340.6666564941406 -2.9990155696868896 170.3333282470703 -2.8479576110839844 -2.5381665229797363 -2.685035228729248" stroke-width="0.0" fill="rgb(161, 208, 208)" opacity="0.8157951" stroke="rgb(0, 0, 0)" stroke-opacity="1.0" stroke-linecap="round" stroke-linejoin="round"/>
    <path d="M -5.474232196807861 331.1255798339844 C -5.827023029327393 388.811279296875 -5.210440635681152 450.19451904296875 -2.931993007659912 517.9169921875 C 170.3339385986328 517.9638061523438 340.6717834472656 518.0188598632812 518.7597045898438 517.9000854492188 C 519.1253051757812 472.8757019042969 517.61328125 437.5029602050781 507.7149353027344 414.6632385253906 C 507.60894775390625 413.92431640625 502.7235412597656 413.35321044921875 508.0055236816406 416.5296325683594 C 504.1300354003906 420.7632141113281 500.7884216308594 427.6147766113281 494.4822082519531 433.818359375 C 475.97711181640625 430.7237548828125 477.2435607910156 426.5609436035156 479.9682312011719 425.2241516113281 C 481.7129211425781 426.1142578125 482.8310852050781 430.431396484375 475.3681945800781 432.622802734375 C 467.7127990722656 430.0611572265625 468.51580810546875 426.7568054199219 470.5205078125 428.1763000488281 C 473.0126037597656 431.3837890625 471.0184631347656 435.7797546386719 458.08489990234375 431.2109680175781 C 412.0132141113281 444.2007141113281 370.6378173828125 441.3095397949219 326.0968017578125 437.1191711425781 C 326.8081970214844 422.59979248046875 324.03857421875 419.14434814453125 328.2019958496094 413.0600891113281 C 336.266357421875 404.1097106933594 340.0338439941406 394.7852478027344 346.8578186035156 390.44677734375 C 349.35052490234375 374.26678466796875 348.711669921875 360.85797119140625 348.4058532714844 349.0104064941406 C 347.1529846191406 343.6733703613281 342.24432373046875 338.3377685546875 338.606689453125 335.67034912109375 C 329.61492919921875 331.93182373046875 319.51171875 332.9460754394531 317.5517883300781 328.85150146484375 C 315.5779113769531 322.388427734375 322.7950439453125 323.3644714355469 322.32171630859375 326.2580261230469 C 321.4127502441406 314.0433044433594 318.2002868652344 310.76214599609375 308.8461608886719 305.4405517578125 C 279.72607421875 305.57574462890625 251.7379608154297 307.6848449707031 231.58753967285156 300.1663818359375 C 221.0888671875 300.5776062011719 226.4945526123047 293.29052734375 219.34165954589844 284.5134582519531 C 219.8389129638672 312.7230224609375 212.70089721679688 331.0843200683594 212.96424865722656 354.0338134765625 C 204.2544403076172 358.2996826171875 197.6210479736328 358.1680603027344 192.19342041015625 355.63153076171875 C 191.9617919921875 339.4642028808594 196.2317352294922 324.5914611816406 192.08340454101562 314.88427734375 C 179.18524169921875 319.21435546875 169.4457550048828 326.8597106933594 158.03903198242188 334.0154724121094 C 153.0630340576172 339.09619140625 156.65426635742188 353.1029968261719 147.7516326904297 356.7400817871094 C 140.8582305908203 352.5146789550781 141.22735595703125 336.1257019042969 139.997314453125 323.2767333984375 C 143.6744842529297 318.1806945800781 153.30123901367188 312.13201904296875 161.24705505371094 305.30023193359375 C 162.9784698486328 294.4104309082031 159.8272705078125 286.94219970703125 153.74114990234375 280.01800537109375 C 125.76007080078125 282.3777160644531 95.38794708251953 280.76019287109375 61.509281158447266 284.17999267578125 C 50.22661209106445 286.3995056152344 42.44987106323242 305.81756591796875 21.01063346862793 309.55133056640625 C 17.206693649291992 318.7831726074219 10.947430610656738 326.7697448730469 -5.474232196807861 331.1255798339844" stroke-width="0.0" fill="rgb(189, 173, 135)" opacity="1.0534004" stroke="rgb(0, 0, 0)" stroke-opacity="1.0" stroke-linecap="round" stroke-linejoin="round"/>
    <path d="M 253.9258270263672 263.83026123046875 C 251.19552612304688 270.6148986816406 249.6980743408203 282.23443603515625 250.1335906982422 299.3695373535156 C 271.342529296875 303.4206237792969 303.4560241699219 296.9407043457031 322.0496520996094 306.1816101074219 C 329.94580078125 307.68341064453125 325.8300476074219 319.0184631347656 330.306640625 325.5567626953125 C 333.5060729980469 331.9611511230469 343.0045166015625 332.8326110839844 351.6422119140625 337.0660705566406 C 355.1834411621094 348.6404113769531 356.51226806640625 363.3772277832031 362.18853759765625 375.19097900390625 C 363.7185974121094 376.25274658203125 369.8572998046875 373.6261901855469 374.2677307128906 369.0939636230469 C 382.4662170410156 375.931396484375 386.92291259765625 375.6172790527344 389.52899169921875 372.7511291503906 C 385.27508544921875 373.47412109375 374.6877746582031 376.2337341308594 364.6662292480469 359.5442199707031 C 393.80859375 364.14996337890625 411.59234619140625 366.0698547363281 428.0593566894531 365.9120178222656 C 413.4927062988281 366.35296630859375 398.6365966796875 364.7566833496094 378.12078857421875 361.8637390136719 C 384.1069030761719 359.6117248535156 388.130126953125 360.1246032714844 388.6220703125 358.8725891113281 C 383.8636474609375 361.2470703125 375.13861083984375 365.78753662109375 365.104248046875 356.8009948730469 C 378.61260986328125 349.6095275878906 385.731689453125 353.2144470214844 385.9384765625 352.5717468261719 C 401.8717346191406 353.9642028808594 417.6415710449219 357.0611572265625 431.5865173339844 361.9517517089844 C 438.4454345703125 363.26934814453125 443.4449768066406 366.6771240234375 440.12158203125 375.1298828125 C 432.3153381347656 383.5014343261719 425.1785888671875 380.77001953125 416.7405090332031 373.7467956542969 C 434.6939697265625 380.092041015625 453.5860595703125 388.50140380859375 477.9983215332031 390.2060852050781 C 486.7681579589844 391.66461181640625 489.1435852050781 389.0528869628906 492.2962341308594 385.8362121582031 C 495.8751525878906 377.928955078125 499.3458557128906 367.4630126953125 504.1958923339844 357.7939453125 C 506.27734375 342.9256896972656 502.2708435058594 332.4700622558594 500.764892578125 325.16461181640625 C 503.84600830078125 318.5724182128906 507.1487121582031 310.5328674316406 509.7358093261719 303.0378723144531 C 510.0409240722656 292.2839050292969 510.4508361816406 280.94970703125 510.6198425292969 263.7048645019531 C 504.2430114746094 265.7299499511719 496.62139892578125 263.6666259765625 489.9455261230469 257.1722717285156 C 441.7100524902344 249.17138671875 388.2243957519531 242.72068786621094 336.7575378417969 234.34225463867188 C 327.2193908691406 240.00247192382812 325.9113464355469 251.3581085205078 307.3733825683594 248.7030792236328 C 305.7304382324219 265.695068359375 291.994384765625 267.18017578125 279.906494140625 266.3536682128906 C 272.451904296875 266.6236572265625 264.9584655761719 265.9538269042969 253.9258270263672 263.83026123046875" stroke-width="0.0" fill="rgb(101, 106, 115)" opacity="0.8718901" stroke="rgb(0, 0, 0)" stroke-opacity="1.0" stroke-linecap="round" stroke-linejoin="round"/>
    <path d="M -0.9889411330223083 210.01539611816406 C -5.357341289520264 251.55770874023438 -5.944832801818848 288.7589416503906 -5.505832195281982 325.4199523925781 C 13.12022876739502 321.70159912109375 12.830889701843262 307.5235595703125 20.820499420166016 301.67596435546875 C 34.000030517578125 295.987548828125 43.82311248779297 287.3804016113281 56.54026794433594 280.1509094238281 C 89.9118881225586 277.6894226074219 128.50401306152344 280.6429138183594 156.639892578125 274.50347900390625 C 159.7906036376953 252.22879028320312 156.33642578125 238.3807830810547 154.0908203125 225.03170776367188 C 97.05754089355469 227.339111328125 56.238746643066406 212.67112731933594 -0.9889411330223083 210.01539611816406" stroke-width="0.0" fill="rgb(126, 145, 155)" opacity="0.959467" stroke="rgb(0, 0, 0)" stroke-opacity="1.0" stroke-linecap="round" stroke-linejoin="round"/>
    <path d="M 193.5623016357422 147.58419799804688 C 188.73622131347656 149.32476806640625 186.83485412597656 157.1485595703125 187.9400177001953 173.10073852539062 C 181.16273498535156 177.6475067138672 174.0554656982422 182.74961853027344 168.84242248535156 190.7331085205078 C 164.6265106201172 200.9436798095703 158.23805236816406 210.9087371826172 157.04002380371094 225.51295471191406 C 158.04388427734375 241.6178741455078 160.8219757080078 257.50921630859375 164.0397186279297 275.5645751953125 C 165.30584716796875 278.24139404296875 170.5676727294922 276.9967041015625 175.7596893310547 275.3663330078125 C 183.08326721191406 280.5395812988281 186.2931671142578 285.0881042480469 183.50119018554688 295.4172058105469 C 174.70608520507812 303.1134948730469 160.32232666015625 309.6372985839844 147.8561553955078 318.7760009765625 C 143.26756286621094 321.8081970214844 140.73544311523438 325.1607666015625 141.90057373046875 331.0129089355469 C 143.01596069335938 338.8705749511719 144.5056610107422 346.1538391113281 149.19757080078125 350.123291015625 C 154.24913024902344 343.9132995605469 152.34317016601562 335.2822570800781 160.86021423339844 329.8488464355469 C 172.24317932128906 324.3251037597656 182.0050506591797 316.5030212402344 196.112548828125 311.6632080078125 C 197.12149047851562 328.72381591796875 191.78958129882812 349.309814453125 194.21115112304688 354.9944763183594 C 202.6412811279297 356.60748291015625 207.51025390625 354.9266052246094 209.02479553222656 352.315185546875 C 210.3232421875 342.3000183105469 213.952392578125 333.2837219238281 215.4405975341797 319.0220642089844 C 217.39044189453125 289.878173828125 214.8714141845703 262.0149841308594 213.15322875976562 237.8341064453125 C 216.97708129882812 229.4807891845703 225.42990112304688 223.23159790039062 228.44451904296875 208.73785400390625 C 217.68043518066406 199.11033630371094 209.60067749023438 189.45130920410156 203.31565856933594 178.49777221679688 C 203.4816436767578 166.63623046875 211.3028564453125 162.1100616455078 208.55551147460938 153.75306701660156 C 205.51583862304688 145.80526733398438 201.310546875 144.14761352539062 193.5623016357422 147.58419799804688" stroke-width="0.0" fill="rgb(79, 68, 65)" opacity="0.8777066" stroke="rgb(0, 0, 0)" stroke-opacity="1.0" stroke-linecap="round" stroke-linejoin="round"/>
    <path d="M 516.419921875 187.34767150878906 C 519.6629638671875 167.8905792236328 519.4022827148438 145.93136596679688 517.7813110351562 133.21267700195312 C 481.60296630859375 135.08544921875 451.9444580078125 134.69210815429688 426.82843017578125 137.7791748046875 C 414.69464111328125 140.26380920410156 404.4672546386719 142.03887939453125 400.829833984375 150.71519470214844 C 400.8324279785156 156.43856811523438 403.6366882324219 161.06332397460938 409.1327209472656 164.3296661376953 C 432.9345703125 169.1256866455078 463.5410461425781 168.09681701660156 499.92535400390625 167.26866149902344 C 503.4000549316406 168.38441467285156 501.99798583984375 180.50926208496094 516.419921875 187.34767150878906" stroke-width="0.0" fill="rgb(79, 82, 90)" opacity="0.903166" stroke="rgb(0, 0, 0)" stroke-opacity="1.0" stroke-linecap="round" stroke-linejoin="round"/>
    <path d="M 268.1360778808594 211.47634887695312 C 278.1415100097656 216.6500701904297 288.5937194824219 216.51708984375 302.2442932128906 220.720703125 C 318.09197998046875 216.05023193359375 340.44512939453125 217.46829223632812 360.7502746582031 216.18197631835938 C 395.5242919921875 207.7105255126953 429.4483337402344 211.5599822998047 452.0409240722656 194.65673828125 C 411.3684387207031 185.46412658691406 368.1435546875 188.29771423339844 324.284423828125 192.82803344726562 C 308.2469177246094 191.3289794921875 299.7752380371094 194.65869140625 289.2134094238281 198.23330688476562 C 282.7542724609375 202.82630920410156 278.2747497558594 209.31027221679688 268.1360778808594 211.47634887695312" stroke-width="0.0" fill="rgb(86, 61, 52)" opacity="1.1139648" stroke="rgb(0, 0, 0)" stroke-opacity="1.0" stroke-linecap="round" stroke-linejoin="round"/>
    <path d="M -4.442159652709961 181.98167419433594 C -5.270024299621582 192.96339416503906 -4.783072471618652 204.5385284423828 -5.583530902862549 216.1466064453125 C 16.95934295654297 215.4312744140625 34.41057205200195 215.77581787109375 50.02326583862305 218.24069213867188 C 54.01963806152344 228.10528564453125 50.969242095947266 241.38426208496094 52.70320510864258 249.9477996826172 C 58.68992233276367 241.287109375 56.54451370239258 226.75015258789062 60.027225494384766 218.78062438964844 C 70.87242126464844 216.49147033691406 83.32748413085938 216.3685302734375 92.9810791015625 213.0242156982422 C 81.50749206542969 201.59548950195312 75.89486694335938 190.3227996826172 57.809635162353516 188.08497619628906 C 40.459686279296875 184.39102172851562 21.66399383544922 183.21241760253906 -4.442159652709961 181.98167419433594" stroke-width="0.0" fill="rgb(126, 104, 82)" opacity="0.98223335" stroke="rgb(0, 0, 0)" stroke-opacity="1.0" stroke-linecap="round" stroke-linejoin="round"/>
    <path d="M 365.081787109375 358.9889221191406 C 366.0247802734375 363.550048828125 365.46875 372.37432861328125 369.00201416015625 369.274658203125 C 390.2633056640625 369.6769714355469 405.49810791015625 380.9965515136719 427.5027770996094 385.1839294433594 C 432.93408203125 380.0556640625 442.0243835449219 378.3128662109375 441.087646484375 373.2261962890625 C 440.9671630859375 364.9303894042969 440.4474792480469 360.80242919921875 436.2308654785156 360.35247802734375 C 416.0631103515625 356.6759948730469 395.958984375 351.21929931640625 376.8544921875 350.6596984863281 C 369.6833801269531 350.89678955078125 367.4872741699219 352.2085266113281 365.081787109375 358.9889221191406" stroke-width="0.0" fill="rgb(148, 134, 110)" opacity="1.0135703" stroke="rgb(0, 0, 0)" stroke-opacity="1.0" stroke-linecap="round" stroke-linejoin="round"/>
    <path d="M 515.7661743164062 114.07208251953125 C 486.58489990234375 116.76660919189453 462.83319091796875 120.24163818359375 441.2042236328125 126.22289276123047 C 434.3670959472656 129.49729919433594 423.98553466796875 131.59378051757812 418.0677490234375 137.91136169433594 C 451.44195556640625 134.66842651367188 482.80108642578125 134.04348754882812 517.6025390625 135.50953674316406 C 516.8026733398438 122.79212951660156 517.9635009765625 117.1467514038086 515.7661743164062 114.07208251953125" stroke-width="0.0" fill="rgb(136, 177, 216)" opacity="0.977511" stroke="rgb(0, 0, 0)" stroke-opacity="1.0" stroke-linecap="round" stroke-linejoin="round"/>
    <path d="M 519.4080810546875 302.7520446777344 C 505.55841064453125 312.0758972167969 503.448974609375 320.66522216796875 500.6563720703125 328.1181945800781 C 503.6481628417969 336.9244689941406 508.9501647949219 341.265869140625 506.4816589355469 353.7040100097656 C 504.7193908691406 367.15460205078125 494.9455871582031 373.453125 491.657470703125 389.4756164550781 C 493.5350341796875 393.2259521484375 498.0648193359375 395.9116516113281 519.7562255859375 397.6072692871094 C 520.295654296875 374.2846984863281 520.4929809570312 344.6035461425781 519.4080810546875 302.7520446777344" stroke-width="0.0" fill="rgb(188, 164, 122)" opacity="0.9859707" stroke="rgb(0, 0, 0)" stroke-opacity="1.0" stroke-linecap="round" stroke-linejoin="round"/>
    <path d="M 298.2890319824219 437.529052734375 C 323.5498962402344 440.5910339355469 343.7807312011719 443.680908203125 360.3532409667969 445.7700500488281 C 389.380615234375 444.9426574707031 412.1806640625 444.22650146484375 435.6768798828125 441.5738830566406 C 443.1273193359375 441.0859069824219 445.1195373535156 438.7104187011719 447.51824951171875 433.1611328125 C 468.5723571777344 433.0609436035156 491.6418762207031 432.0160827636719 519.0731811523438 436.490966796875 C 519.0997314453125 421.3246154785156 519.1376342773438 408.6543273925781 518.7061157226562 397.2284240722656 C 493.66748046875 394.55078125 475.8375549316406 390.2588195800781 455.5313720703125 392.03369140625 C 449.1288757324219 387.8845520019531 442.80010986328125 383.98675537109375 434.41192626953125 381.44818115234375 C 423.78216552734375 383.42413330078125 416.102783203125 381.8367004394531 408.3105773925781 380.03192138671875 C 411.230712890625 379.42950439453125 414.4578552246094 377.4502258300781 419.4524230957031 376.53387451171875 C 395.6758728027344 378.73583984375 383.4427490234375 369.701171875 371.27703857421875 364.89923095703125 C 366.8152160644531 381.45037841796875 357.8257751464844 381.101318359375 353.0639953613281 384.35968017578125 C 336.3399658203125 402.2452087402344 321.2111511230469 420.936279296875 298.2890319824219 437.529052734375" stroke-width="0.0" fill="rgb(38, 39, 39)" opacity="1.0276889" stroke="rgb(0, 0, 0)" stroke-opacity="1.0" stroke-linecap="round" stroke-linejoin="round"/>
    <path d="M 352.0738525390625 234.8328094482422 C 393.4129943847656 242.04595947265625 439.48748779296875 247.2954864501953 487.6525573730469 252.73191833496094 C 489.8291931152344 243.46673583984375 482.1437683105469 242.5115509033203 476.0208740234375 235.87545776367188 C 445.7263488769531 229.38900756835938 405.7979736328125 230.0746612548828 371.1658630371094 222.48944091796875 C 363.65704345703125 225.31756591796875 355.21185302734375 224.7672882080078 352.0738525390625 234.8328094482422" stroke-width="0.0" fill="rgb(208, 212, 213)" opacity="0.99224156" stroke="rgb(0, 0, 0)" stroke-opacity="1.0" stroke-linecap="round" stroke-linejoin="round"/>
    <path d="M 295.3846130371094 195.98245239257812 C 344.0299987792969 187.23828125 396.50152587890625 190.88821411132812 452.4919738769531 189.5826416015625 C 419.7808837890625 178.51097106933594 387.3360290527344 177.22535705566406 359.1351013183594 178.91867065429688 C 328.7066650390625 179.1122589111328 309.90472412109375 183.2665557861328 295.3846130371094 195.98245239257812" stroke-width="0.0" fill="rgb(120, 164, 209)" opacity="0.9643981" stroke="rgb(0, 0, 0)" stroke-opacity="1.0" stroke-linecap="round" stroke-linejoin="round"/>
    <path d="M -2.786440134048462 150.46014404296875 C -5.835075378417969 160.17848205566406 -3.6470346450805664 172.43313598632812 -1.5012977123260498 185.51611328125 C 20.484102249145508 183.3728485107422 40.05247497558594 186.19436645507812 61.8232307434082 188.76849365234375 C 52.99599075317383 177.49610900878906 35.65138626098633 176.3252410888672 17.941835403442383 174.66159057617188 C 12.855571746826172 165.10403442382812 12.55506706237793 152.43807983398438 -2.786440134048462 150.46014404296875" stroke-width="0.0" fill="rgb(191, 200, 165)" opacity="0.99789673" stroke="rgb(0, 0, 0)" stroke-opacity="1.0" stroke-linecap="round" stroke-linejoin="round"/>
    <path d="M 370.8573303222656 211.06524658203125 C 370.8202209472656 224.21890258789062 378.75885009765625 221.8802947998047 388.1476135253906 221.8566131591797 C 430.2386169433594 223.75035095214844 471.4256286621094 221.5404052734375 516.5879516601562 223.28282165527344 C 517.25634765625 209.21310424804688 518.2836303710938 196.32322692871094 516.8959350585938 186.62550354003906 C 507.0072937011719 186.21372985839844 503.242919921875 182.19447326660156 500.7742614746094 175.6563720703125 C 502.1943664550781 170.6966552734375 505.59735107421875 166.71554565429688 495.7644348144531 165.75665283203125 C 481.0361328125 163.26402282714844 467.3816833496094 171.5997772216797 450.88995361328125 169.8267059326172 C 432.8761291503906 168.58612060546875 418.896484375 166.6414337158203 405.16986083984375 165.81350708007812 C 403.1956787109375 163.69566345214844 401.92620849609375 158.0095672607422 395.3982238769531 155.41636657714844 C 400.19635009765625 160.52549743652344 403.7149658203125 164.26271057128906 402.7876281738281 173.3208770751953 C 415.82305908203125 175.64674377441406 428.0699768066406 182.76341247558594 441.9573974609375 187.22433471679688 C 448.43389892578125 188.6810302734375 451.64154052734375 192.36251831054688 453.9624938964844 203.97976684570312 C 425.6747131347656 203.0736541748047 397.40252685546875 207.62686157226562 370.8573303222656 211.06524658203125" stroke-width="0.0" fill="rgb(207, 231, 240)" opacity="0.9534692" stroke="rgb(0, 0, 0)" stroke-opacity="1.0" stroke-linecap="round" stroke-linejoin="round"/>
    <path d="M 216.01246643066406 284.0664978027344 C 228.1263885498047 285.08856201171875 238.610107421875 283.9775085449219 250.0036163330078 279.06683349609375 C 249.32672119140625 266.4783630371094 250.168212890625 255.88795471191406 261.8414001464844 252.2946319580078 C 278.2429504394531 241.47373962402344 293.97467041015625 248.4230194091797 315.96417236328125 262.3658447265625 C 323.29254150390625 239.90118408203125 332.6485290527344 232.44276428222656 338.6460876464844 227.93138122558594 C 349.87115478515625 233.95059204101562 357.27667236328125 225.73593139648438 369.0473327636719 218.89761352539062 C 354.936279296875 216.29515075683594 334.7519226074219 219.6593017578125 317.984619140625 218.98394775390625 C 308.43212890625 221.800048828125 306.6623229980469 227.59701538085938 308.5084228515625 227.18511962890625 C 292.6272277832031 224.5556182861328 292.57928466796875 227.561767578125 293.386474609375 219.5863494873047 C 280.6838684082031 217.85816955566406 269.37615966796875 217.51519775390625 258.3935241699219 219.20700073242188 C 272.0841979980469 222.5283660888672 276.28411865234375 216.1845245361328 271.5843505859375 223.7159423828125 C 248.0723114013672 224.77975463867188 226.9664764404297 222.05734252929688 212.56661987304688 231.30470275878906 C 206.65480041503906 247.8566436767578 210.1669158935547 264.64776611328125 216.01246643066406 284.0664978027344" stroke-width="0.0" fill="rgb(131, 154, 164)" opacity="0.9815284" stroke="rgb(0, 0, 0)" stroke-opacity="1.0" stroke-linecap="round" stroke-linejoin="round"/>
    <path d="M 465.2386474609375 223.42987060546875 C 478.60565185546875 233.0899200439453 483.7281494140625 247.55252075195312 498.9463806152344 251.0603485107422 C 492.87640380859375 267.83575439453125 508.2935791015625 267.2452697753906 509.33172607421875 273.4417419433594 C 508.24871826171875 263.0768127441406 511.1893310546875 244.26808166503906 517.598388671875 222.7064666748047 C 496.6284484863281 222.42393493652344 481.4734802246094 222.75234985351562 465.2386474609375 223.42987060546875" stroke-width="0.0" fill="rgb(127, 169, 182)" opacity="1.0191652" stroke="rgb(0, 0, 0)" stroke-opacity="1.0" stroke-linecap="round" stroke-linejoin="round"/>
    <path d="M 297.11724853515625 248.52088928222656 C 295.6364440917969 247.33006286621094 273.4335632324219 245.32791137695312 275.5889587402344 246.03762817382812 C 272.12225341796875 246.78688049316406 266.9749450683594 248.41378784179688 254.19610595703125 248.9666748046875 C 251.04600524902344 253.24742126464844 249.95559692382812 268.5014953613281 255.1509552001953 279.3641662597656 C 256.87939453125 274.7158508300781 252.56927490234375 266.4093017578125 259.7171325683594 265.8318786621094 C 279.0770263671875 267.360595703125 297.8110656738281 266.62957763671875 319.0406494140625 266.53778076171875 C 310.30450439453125 256.81597900390625 300.2613525390625 251.3668975830078 297.11724853515625 248.52088928222656" stroke-width="0.0" fill="rgb(116, 118, 120)" opacity="1.000258" stroke="rgb(0, 0, 0)" stroke-opacity="1.0" stroke-linecap="round" stroke-linejoin="round"/>
    <path d="M 353.6448974609375 344.1869201660156 C 348.49090576171875 343.64794921875 344.6268615722656 342.9788513183594 345.0052795410156 340.9601745605469 C 346.5854187011719 349.2025146484375 347.7701416015625 355.0839538574219 349.7004089355469 351.24871826171875 C 347.4662170410156 355.5065612792969 348.383544921875 362.1841735839844 347.300537109375 372.3533020019531 C 348.7164306640625 378.6523132324219 348.61627197265625 382.641357421875 346.3416442871094 370.66827392578125 C 346.27886962890625 378.2561340332031 351.65203857421875 380.9784851074219 356.904052734375 374.6520080566406 C 359.31671142578125 362.29974365234375 356.9162292480469 353.2542419433594 353.6448974609375 344.1869201660156" stroke-width="0.0" fill="rgb(109, 68, 71)" opacity="1.009134" stroke="rgb(0, 0, 0)" stroke-opacity="1.0" stroke-linecap="round" stroke-linejoin="round"/>
    <path d="M 258.8263244628906 281.7601318359375 C 247.1380615234375 289.8377990722656 237.64662170410156 295.9286804199219 221.68865966796875 297.4526672363281 C 233.89756774902344 303.67425537109375 246.8408966064453 304.6513366699219 262.6058044433594 304.15325927734375 C 260.19036865234375 299.471923828125 262.0014953613281 292.5924987792969 258.8263244628906 281.7601318359375" stroke-width="0.0" fill="rgb(41, 29, 39)" opacity="1.0308391" stroke="rgb(0, 0, 0)" stroke-opacity="1.0" stroke-linecap="round" stroke-linejoin="round"/>
    <path d="M 161.8445281982422 267.61785888671875 C 156.65818786621094 277.8381042480469 154.31484985351562 286.2322692871094 161.37863159179688 294.512939453125 C 158.76902770996094 295.94000244140625 163.3289031982422 295.6203308105469 166.66903686523438 297.80694580078125 C 172.821533203125 292.8973693847656 177.38711547851562 290.8878173828125 175.90757751464844 278.4286804199219 C 171.97471618652344 275.4617004394531 163.98207092285156 275.3835754394531 161.8445281982422 267.61785888671875" stroke-width="0.0" fill="rgb(74, 65, 48)" opacity="0.975061" stroke="rgb(0, 0, 0)" stroke-opacity="1.0" stroke-linecap="round" stroke-linejoin="round"/>
    <path d="M 71.39055633544922 192.519775390625 C 54.06974792480469 184.69017028808594 27.84359359741211 185.7019500732422 -4.445837020874023 186.3640899658203 C -5.350654602050781 230.2600555419922 -5.534305572509766 276.91229248046875 -3.0335135459899902 330.2091369628906 C 15.44068717956543 302.9548645019531 38.280242919921875 293.2043762207031 56.00791549682617 278.61474609375 C 56.75665283203125 259.1495666503906 59.14811706542969 239.23577880859375 62.56184768676758 219.0703125 C 70.3863296508789 216.55325317382812 82.43677520751953 217.18177795410156 90.73201751708984 212.91983032226562 C 83.35557556152344 206.0447235107422 80.41783142089844 196.96665954589844 71.39055633544922 192.519775390625" stroke-width="0.0" fill="rgb(102, 119, 130)" opacity="0.98494756" stroke="rgb(0, 0, 0)" stroke-opacity="1.0" stroke-linecap="round" stroke-linejoin="round"/>
    <path d="M 194.2841033935547 168.48477172851562 C 182.29359436035156 176.16168212890625 176.24221801757812 181.08030700683594 170.59042358398438 187.4070587158203 C 166.4637908935547 195.14096069335938 163.23129272460938 205.259033203125 159.47935485839844 211.9420623779297 C 169.6970672607422 228.07696533203125 162.8904571533203 247.05491638183594 161.037109375 257.6673278808594 C 181.39149475097656 256.54376220703125 194.94212341308594 249.92868041992188 209.46815490722656 252.64747619628906 C 209.17691040039062 245.11212158203125 210.46319580078125 238.52745056152344 212.20819091796875 232.0978546142578 C 215.19520568847656 227.30674743652344 222.298583984375 224.66146850585938 225.5249786376953 221.73260498046875 C 225.3429718017578 216.73898315429688 227.109130859375 210.40382385253906 224.4385528564453 204.7555389404297 C 212.845703125 193.84852600097656 204.7713165283203 179.01283264160156 194.2841033935547 168.48477172851562" stroke-width="0.0" fill="rgb(81, 79, 74)" opacity="0.9420329" stroke="rgb(0, 0, 0)" stroke-opacity="1.0" stroke-linecap="round" stroke-linejoin="round"/>
    <path d="M 182.58567810058594 249.47088623046875 C 177.0631561279297 252.88150024414062 173.5132598876953 254.11167907714844 173.2063446044922 256.3958740234375 C 177.1613006591797 271.36627197265625 185.69834899902344 279.3631896972656 185.959228515625 294.47674560546875 C 174.24429321289062 303.5289001464844 159.11793518066406 310.7953796386719 145.7727508544922 320.7911071777344 C 142.0876922607422 322.0497131347656 141.1727752685547 328.97320556640625 143.93276977539062 339.38470458984375 C 145.91807556152344 341.1257629394531 143.40379333496094 346.03546142578125 151.53968811035156 345.17144775390625 C 152.6311492919922 337.87652587890625 155.39913940429688 330.48919677734375 165.31700134277344 330.93560791015625 C 173.6158447265625 324.3233642578125 182.7391357421875 316.8265686035156 194.72625732421875 311.56103515625 C 191.86199951171875 326.6634216308594 191.2145233154297 337.5150146484375 195.35745239257812 352.8494567871094 C 193.13902282714844 356.5670471191406 198.66241455078125 354.8881530761719 208.0611572265625 353.80377197265625 C 210.20098876953125 343.72760009765625 213.485595703125 328.9626159667969 216.223876953125 309.8908386230469 C 215.7157745361328 291.3027038574219 210.57882690429688 273.35516357421875 209.59127807617188 251.4844970703125 C 204.1476287841797 252.1122283935547 191.55723571777344 250.40895080566406 182.58567810058594 249.47088623046875" stroke-width="0.0" fill="rgb(69, 67, 68)" opacity="0.897436" stroke="rgb(0, 0, 0)" stroke-opacity="1.0" stroke-linecap="round" stroke-linejoin="round"/>
    <path d="M 97.89320373535156 370.2187805175781 C 103.4781723022461 374.5918273925781 115.7397232055664 376.4519958496094 130.2595672607422 374.89215087890625 C 150.58914184570312 371.2344055175781 170.99563598632812 370.1301574707031 181.73411560058594 359.5335998535156 C 170.27581787109375 353.5092468261719 155.39524841308594 357.0216369628906 129.8868865966797 355.9598388671875 C 119.76426696777344 358.2893371582031 108.59647369384766 358.6111755371094 100.90082550048828 360.498291015625 C 97.04957580566406 366.1971740722656 93.41549682617188 364.9834899902344 97.89320373535156 370.2187805175781" stroke-width="0.0" fill="rgb(54, 51, 48)" opacity="1.005036" stroke="rgb(0, 0, 0)" stroke-opacity="1.0" stroke-linecap="round" stroke-linejoin="round"/>
    <path d="M 200.14801025390625 144.65554809570312 C 193.71620178222656 145.35391235351562 189.91880798339844 149.12867736816406 188.85348510742188 153.7038116455078 C 186.81924438476562 157.59751892089844 190.3004913330078 162.85401916503906 188.13771057128906 173.19760131835938 C 193.67893981933594 173.0556640625 196.08926391601562 175.25717163085938 202.17581176757812 177.60916137695312 C 204.02906799316406 169.89959716796875 207.31011962890625 163.78443908691406 209.0096893310547 157.28919982910156 C 207.80209350585938 148.11231994628906 205.54273986816406 146.35934448242188 200.14801025390625 144.65554809570312" stroke-width="0.0" fill="rgb(34, 37, 44)" opacity="0.9844874" stroke="rgb(0, 0, 0)" stroke-opacity="1.0" stroke-linecap="round" stroke-linejoin="round"/>
    <path d="M 313.89801025390625 250.45834350585938 C 307.6352233886719 250.54702758789062 296.1236267089844 249.85536193847656 287.4875793457031 249.4090118408203 C 274.5611267089844 248.00633239746094 265.5931091308594 250.95948791503906 257.5409851074219 256.9497985839844 C 250.2490997314453 267.47772216796875 245.67185974121094 281.4136047363281 247.27345275878906 300.2950744628906 C 268.3009033203125 306.272705078125 291.0166015625 302.53753662109375 314.2154541015625 301.060302734375 C 320.0747985839844 285.0794982910156 319.85919189453125 271.88934326171875 313.89801025390625 250.45834350585938" stroke-width="0.0" fill="rgb(88, 81, 81)" opacity="0.8747564" stroke="rgb(0, 0, 0)" stroke-opacity="1.0" stroke-linecap="round" stroke-linejoin="round"/>
    <path d="M 301.7632751464844 439.18280029296875 C 326.66021728515625 439.20916748046875 350.6290588378906 445.398193359375 369.0453186035156 446.31390380859375 C 398.8035888671875 444.9349670410156 418.4244689941406 444.10015869140625 439.628173828125 442.22943115234375 C 442.9930725097656 440.1944580078125 446.46087646484375 438.6062316894531 448.6589050292969 431.99908447265625 C 404.9708251953125 427.7077331542969 370.76776123046875 417.89630126953125 322.4841613769531 419.32391357421875 C 315.1014099121094 424.18701171875 299.935302734375 426.43359375 301.7632751464844 439.18280029296875" stroke-width="0.0" fill="rgb(84, 80, 71)" opacity="0.98636556" stroke="rgb(0, 0, 0)" stroke-opacity="1.0" stroke-linecap="round" stroke-linejoin="round"/>
    <path d="M 192.5675506591797 313.4587097167969 C 179.20330810546875 316.9351806640625 170.3236846923828 325.1501159667969 157.56910705566406 331.6924743652344 C 154.52886962890625 336.52606201171875 151.55259704589844 343.838623046875 153.20849609375 353.7565612792969 C 162.099365234375 360.0830078125 175.63958740234375 357.83660888671875 191.25929260253906 354.86273193359375 C 195.6902618408203 343.6012268066406 200.3765411376953 326.9226379394531 192.5675506591797 313.4587097167969" stroke-width="0.0" fill="rgb(189, 168, 133)" opacity="0.9289071" stroke="rgb(0, 0, 0)" stroke-opacity="1.0" stroke-linecap="round" stroke-linejoin="round"/>
    <path d="M 252.54522705078125 215.09539794921875 C 277.27099609375 218.5933074951172 299.55450439453125 213.8640594482422 295.6069030761719 224.64132690429688 C 331.4179992675781 217.95651245117188 356.3969421386719 222.456787109375 369.9680480957031 213.40060424804688 C 342.4912414550781 203.63148498535156 312.5374755859375 202.05860900878906 281.1330261230469 202.91204833984375 C 267.7991027832031 204.6536102294922 260.2139587402344 208.54891967773438 252.54522705078125 215.09539794921875" stroke-width="0.0" fill="rgb(127, 119, 106)" opacity="1.0539808" stroke="rgb(0, 0, 0)" stroke-opacity="1.0" stroke-linecap="round" stroke-linejoin="round"/>
    <path d="M 146.0469970703125 263.4486083984375 C 126.8070068359375 260.23095703125 111.24066162109375 262.19281005859375 96.19632720947266 267.97320556640625 C 87.7598876953125 268.07733154296875 84.4984130859375 268.33056640625 85.09400177001953 278.1480712890625 C 98.18602752685547 282.1485595703125 113.58362579345703 282.0325622558594 135.30577087402344 278.1265563964844 C 145.357177734375 278.0992736816406 149.3508758544922 276.28515625 146.0469970703125 263.4486083984375" stroke-width="0.0" fill="rgb(26, 26, 33)" opacity="0.9947226" stroke="rgb(0, 0, 0)" stroke-opacity="1.0" stroke-linecap="round" stroke-linejoin="round"/>
    <path d="M 330.2958679199219 300.8042297363281 C 326.85443115234375 304.4300537109375 324.4288330078125 313.0578918457031 326.0423583984375 331.18865966796875 C 325.83502197265625 332.1856384277344 328.9596252441406 337.0865173339844 342.6009521484375 335.1241760253906 C 346.2593688964844 323.6273193359375 347.1332702636719 314.18267822265625 344.9967956542969 303.8780822753906 C 344.2790222167969 299.1409912109375 336.5541687011719 299.28302001953125 330.2958679199219 300.8042297363281" stroke-width="0.0" fill="rgb(11, 10, 17)" opacity="0.99828094" stroke="rgb(0, 0, 0)" stroke-opacity="1.0" stroke-linecap="round" stroke-linejoin="round"/>
    <path d="M -0.7855578660964966 173.44937133789062 C -3.8640925884246826 175.8072509765625 -2.5572421550750732 180.04837036132812 -1.5499616861343384 185.40296936035156 C 20.102956771850586 184.9225616455078 40.29722595214844 186.0670623779297 62.003780364990234 188.47862243652344 C 60.36675262451172 180.4847412109375 51.10186004638672 181.21043395996094 45.41949462890625 178.0613250732422 C 31.194555282592773 175.89120483398438 15.277609825134277 175.1609344482422 -0.7855578660964966 173.44937133789062" stroke-width="0.0" fill="rgb(129, 173, 212)" opacity="0.9959668" stroke="rgb(0, 0, 0)" stroke-opacity="1.0" stroke-linecap="round" stroke-linejoin="round"/>
    <path d="M 350.0408630371094 234.46182250976562 C 356.8427734375 268.10174560546875 345.8706970214844 297.263916015625 346.3540344238281 343.8274841308594 C 344.82159423828125 357.8578186035156 350.076171875 366.2889404296875 356.5627136230469 379.4112243652344 C 361.427734375 377.89154052734375 362.7322082519531 372.8723449707031 369.6235046386719 372.45135498046875 C 369.640869140625 365.63250732421875 372.0599060058594 359.6221923828125 373.46514892578125 351.09625244140625 C 396.1451416015625 352.13775634765625 415.04388427734375 360.2549743652344 441.48870849609375 362.7842102050781 C 440.1612243652344 373.3852844238281 445.6094055175781 379.80853271484375 457.4433288574219 391.55206298828125 C 462.3071594238281 393.7100524902344 475.11444091796875 394.7991638183594 489.8476867675781 395.2317199707031 C 494.9704895019531 380.07415771484375 504.4407043457031 371.6501770019531 508.3461608886719 357.8252258300781 C 509.9827880859375 341.8662109375 504.54443359375 335.6055908203125 499.30999755859375 331.1485595703125 C 502.39801025390625 320.9255676269531 506.36260986328125 315.0229797363281 516.1283569335938 309.36199951171875 C 518.3944702148438 296.37701416015625 517.4773559570312 287.6720886230469 513.0958251953125 275.1762390136719 C 507.9049377441406 281.4151916503906 508.1741027832031 287.10662841796875 501.4659118652344 285.11602783203125 C 499.5790100097656 272.5945129394531 494.25640869140625 263.90216064453125 495.4002685546875 254.0472412109375 C 486.71417236328125 248.90602111816406 485.7945861816406 238.66616821289062 475.54156494140625 236.29273986816406 C 441.47808837890625 231.24891662597656 405.6192321777344 227.5196075439453 374.0389404296875 223.17808532714844 C 362.9230651855469 224.6790771484375 356.83905029296875 225.56300354003906 350.0408630371094 234.46182250976562" stroke-width="0.0" fill="rgb(80, 63, 61)" opacity="0.9362251" stroke="rgb(0, 0, 0)" stroke-opacity="1.0" stroke-linecap="round" stroke-linejoin="round"/>
    <path d="M 293.5035705566406 222.60398864746094 C 266.9446105957031 226.95542907714844 233.33200073242188 219.7925567626953 215.26795959472656 227.60716247558594 C 212.25616455078125 234.2664031982422 207.40582275390625 245.48684692382812 210.42947387695312 255.16107177734375 C 210.29901123046875 266.7228698730469 210.69476318359375 276.4092102050781 216.44154357910156 284.2621154785156 C 227.5647430419922 283.3287353515625 239.66986083984375 284.0185546875 248.6153106689453 278.5018005371094 C 251.15631103515625 267.9508972167969 251.80101013183594 252.85659790039062 254.0412139892578 238.55528259277344 C 265.7701416015625 233.42681884765625 279.010986328125 228.35150146484375 293.5035705566406 222.60398864746094" stroke-width="0.0" fill="rgb(125, 168, 179)" opacity="0.975027" stroke="rgb(0, 0, 0)" stroke-opacity="1.0" stroke-linecap="round" stroke-linejoin="round"/>
    <path d="M 316.3812561035156 232.48760986328125 C 304.37310791015625 227.1211700439453 294.151611328125 224.6484832763672 281.544921875 228.37806701660156 C 270.2999267578125 231.32420349121094 260.0081481933594 230.05641174316406 256.6817321777344 236.14907836914062 C 253.26361083984375 237.79293823242188 252.85330200195312 243.3069610595703 253.16250610351562 250.64306640625 C 271.9319152832031 249.253662109375 294.6247253417969 250.93667602539062 316.2377624511719 252.2213897705078 C 318.7533264160156 248.2107391357422 318.3084716796875 241.54444885253906 316.3812561035156 232.48760986328125" stroke-width="0.0" fill="rgb(154, 160, 161)" opacity="1.0184418" stroke="rgb(0, 0, 0)" stroke-opacity="1.0" stroke-linecap="round" stroke-linejoin="round"/>
    <path d="M 337.23126220703125 228.38522338867188 C 334.5700988769531 232.16961669921875 329.9948425292969 235.512939453125 326.2632141113281 241.70361328125 C 331.1448669433594 252.43563842773438 330.304443359375 268.5540466308594 334.8097229003906 281.451171875 C 343.93505859375 284.2160949707031 339.8009338378906 271.65850830078125 344.8198547363281 278.78741455078125 C 351.4637145996094 279.9159851074219 352.8829345703125 277.4040222167969 353.16705322265625 269.5268859863281 C 352.9207763671875 257.0863037109375 352.9167175292969 244.864990234375 349.8279113769531 237.44236755371094 C 346.5057067871094 233.70803833007812 343.80450439453125 230.6259002685547 337.23126220703125 228.38522338867188" stroke-width="0.0" fill="rgb(105, 84, 79)" opacity="0.9611339" stroke="rgb(0, 0, 0)" stroke-opacity="1.0" stroke-linecap="round" stroke-linejoin="round"/>
    <path d="M 54.196617126464844 270.4281005859375 C 61.348167419433594 274.2254333496094 71.4487075805664 276.1587829589844 85.1819076538086 279.038330078125 C 86.28791046142578 273.8268127441406 85.48748016357422 268.0574035644531 87.39222717285156 267.6687316894531 C 109.74136352539062 267.7318115234375 129.7080078125 265.0213317871094 146.8958740234375 258.3697509765625 C 149.32034301757812 257.6517028808594 151.2578887939453 254.65875244140625 155.06362915039062 251.53854370117188 C 151.13595581054688 245.19029235839844 156.2294464111328 234.49514770507812 153.59715270996094 223.94134521484375 C 122.68144989013672 224.1757354736328 92.2009048461914 221.9950714111328 61.05773162841797 223.1935577392578 C 62.08714294433594 237.1126708984375 59.58882522583008 251.24891662597656 54.196617126464844 270.4281005859375" stroke-width="0.0" fill="rgb(111, 161, 173)" opacity="0.9728515" stroke="rgb(0, 0, 0)" stroke-opacity="1.0" stroke-linecap="round" stroke-linejoin="round"/>
    <path d="M 450.8357849121094 439.4996643066406 C 446.7719421386719 438.273681640625 448.703369140625 445.2658386230469 446.4856262207031 447.3474426269531 C 447.175537109375 462.4120178222656 458.6509094238281 461.6809997558594 455.60723876953125 471.8865661621094 C 461.8354187011719 471.45318603515625 465.5607604980469 473.6361999511719 471.536376953125 473.3230285644531 C 463.5240173339844 474.2602233886719 472.6212463378906 482.6722412109375 462.5017395019531 486.4128112792969 C 472.8799743652344 486.09014892578125 471.6997985839844 489.76641845703125 476.74163818359375 502.139892578125 C 476.3653564453125 503.81591796875 474.3346862792969 504.98956298828125 469.0202331542969 516.6878662109375 C 485.0921936035156 516.8697509765625 498.0124816894531 516.8826904296875 517.1707763671875 516.911376953125 C 517.2002563476562 487.8668212890625 517.242919921875 464.6072082519531 515.9737548828125 443.29400634765625 C 507.935791015625 435.1593017578125 500.1099853515625 435.1244201660156 490.954345703125 432.7451477050781 C 474.0225830078125 433.906005859375 458.947021484375 432.1831970214844 450.8357849121094 439.4996643066406" stroke-width="0.0" fill="rgb(196, 175, 133)" opacity="1.0032091" stroke="rgb(0, 0, 0)" stroke-opacity="1.0" stroke-linecap="round" stroke-linejoin="round"/>
    <path d="M 450.07562255859375 191.18600463867188 C 424.0301513671875 190.02853393554688 385.1506042480469 189.2113037109375 349.680419921875 191.5985107421875 C 324.64215087890625 193.19320678710938 299.1661071777344 193.6865692138672 285.30853271484375 200.36392211914062 C 302.8129577636719 211.56077575683594 331.05731201171875 208.269775390625 362.29095458984375 207.17234802246094 C 359.5280456542969 210.86053466796875 365.671142578125 208.94833374023438 368.6600036621094 217.51470947265625 C 371.77935791015625 214.27796936035156 372.3655700683594 207.8234405517578 370.5179443359375 202.44827270507812 C 392.0743103027344 198.51824951171875 388.6322021484375 204.21751403808594 390.3364562988281 207.65750122070312 C 415.25103759765625 204.87240600585938 431.1059265136719 203.9085693359375 445.1693115234375 203.3430633544922 C 453.35736083984375 196.8322296142578 456.4544677734375 203.9861297607422 450.07562255859375 191.18600463867188" stroke-width="0.0" fill="rgb(132, 89, 48)" opacity="0.9039701" stroke="rgb(0, 0, 0)" stroke-opacity="1.0" stroke-linecap="round" stroke-linejoin="round"/>
    <path d="M 172.3145751953125 190.1885986328125 C 164.49989318847656 200.9869384765625 159.2060546875 211.10597229003906 154.600341796875 222.72027587890625 C 156.92665100097656 245.4452667236328 153.78436279296875 267.9841613769531 157.322509765625 292.613037109375 C 155.7740020751953 295.5610046386719 159.1833953857422 295.6181640625 166.0117950439453 296.4924011230469 C 173.2144012451172 292.5904846191406 176.4966278076172 285.2995300292969 180.65081787109375 273.6540832519531 C 178.95587158203125 267.9071350097656 172.7216796875 260.9309387207031 175.23336791992188 246.35394287109375 C 169.7904510498047 251.68814086914062 172.22744750976562 261.9310302734375 166.8528289794922 270.97637939453125 C 167.2930450439453 266.1264343261719 168.00416564941406 269.7034912109375 162.3359375 268.7487487792969 C 166.93157958984375 245.6781463623047 168.5663299560547 219.0292510986328 172.3145751953125 190.1885986328125" stroke-width="0.0" fill="rgb(113, 102, 103)" opacity="0.8853216" stroke="rgb(0, 0, 0)" stroke-opacity="1.0" stroke-linecap="round" stroke-linejoin="round"/>
    <path d="M 85.03125 279.353515625 C 71.6520004272461 281.2687683105469 65.16822052001953 284.2828674316406 55.10857391357422 286.5175476074219 C 60.909706115722656 304.3377685546875 47.30659484863281 311.0451965332031 55.83591079711914 323.4502868652344 C 65.8288345336914 323.755126953125 73.66232299804688 320.1546325683594 83.72245025634766 320.5456237792969 C 83.62637329101562 306.74957275390625 85.06035614013672 293.9657287597656 85.03125 279.353515625" stroke-width="0.0" fill="rgb(177, 171, 157)" opacity="1.0038708" stroke="rgb(0, 0, 0)" stroke-opacity="1.0" stroke-linecap="round" stroke-linejoin="round"/>
    <path d="M 468.1941833496094 172.0364227294922 C 467.5693054199219 166.28773498535156 468.60418701171875 161.45741271972656 465.3521423339844 159.50778198242188 C 462.4032897949219 158.95252990722656 456.98614501953125 155.84173583984375 444.1831359863281 155.98033142089844 C 427.14984130859375 149.72645568847656 414.669677734375 149.80653381347656 404.5802917480469 163.99319458007812 C 420.917236328125 167.9517364501953 444.788330078125 168.2840576171875 468.1941833496094 172.0364227294922" stroke-width="0.0" fill="rgb(116, 65, 30)" opacity="0.9631509" stroke="rgb(0, 0, 0)" stroke-opacity="1.0" stroke-linecap="round" stroke-linejoin="round"/>
    <path d="M 41.797386169433594 301.3570861816406 C 32.23295974731445 299.2540283203125 25.38490867614746 301.8874816894531 16.914661407470703 305.05615234375 C 17.516143798828125 310.6839904785156 16.09453582763672 318.5924987792969 14.340291023254395 327.5511779785156 C 25.897262573242188 328.5175476074219 33.207130432128906 324.2978820800781 46.20356369018555 324.59918212890625 C 46.61225128173828 314.1518859863281 44.43400573730469 307.01971435546875 41.797386169433594 301.3570861816406" stroke-width="0.0" fill="rgb(155, 138, 108)" opacity="1.0000697" stroke="rgb(0, 0, 0)" stroke-opacity="1.0" stroke-linecap="round" stroke-linejoin="round"/>
    <path d="M 363.9587097167969 218.43594360351562 C 350.6513366699219 215.1578369140625 334.13787841796875 219.22726440429688 315.88702392578125 218.16993713378906 C 313.66668701171875 218.93067932128906 309.81353759765625 220.79415893554688 307.8282470703125 222.5577392578125 C 319.8153076171875 229.14553833007812 316.7406311035156 242.08151245117188 322.8946533203125 256.013916015625 C 322.6120910644531 236.06314086914062 332.6355895996094 235.78224182128906 337.28997802734375 226.10238647460938 C 342.57135009765625 225.19027709960938 342.2915954589844 228.9244384765625 341.8919982910156 232.53419494628906 C 352.0212097167969 227.24688720703125 359.8050231933594 228.22439575195312 363.9587097167969 218.43594360351562" stroke-width="0.0" fill="rgb(142, 177, 186)" opacity="0.97304285" stroke="rgb(0, 0, 0)" stroke-opacity="1.0" stroke-linecap="round" stroke-linejoin="round"/>
    <path d="M 257.27276611328125 332.30255126953125 C 283.2090148925781 335.7775573730469 313.96697998046875 334.6846618652344 344.5361633300781 334.7469177246094 C 335.57537841796875 334.1564025878906 326.5780029296875 330.3077697753906 323.9320068359375 324.8819885253906 C 303.96783447265625 326.5642395019531 278.0716247558594 324.48846435546875 257.27276611328125 332.30255126953125" stroke-width="0.0" fill="rgb(43, 42, 39)" opacity="0.9840929" stroke="rgb(0, 0, 0)" stroke-opacity="1.0" stroke-linecap="round" stroke-linejoin="round"/>
    <path d="M 46.95553207397461 273.7503967285156 C 48.38399124145508 278.9814147949219 52.59017562866211 283.2429504394531 54.7121696472168 286.8904724121094 C 72.40204620361328 285.9063720703125 82.36553955078125 288.0570983886719 86.9419174194336 280.5877685546875 C 81.87908172607422 275.4480285644531 68.85025024414062 279.74658203125 66.38848114013672 269.43365478515625 C 53.45429992675781 269.66961669921875 48.25296401977539 267.15673828125 46.95553207397461 273.7503967285156" stroke-width="0.0" fill="rgb(108, 107, 102)" opacity="0.99653906" stroke="rgb(0, 0, 0)" stroke-opacity="1.0" stroke-linecap="round" stroke-linejoin="round"/>
    <path d="M 292.9197998046875 503.41253662109375 C 293.29046630859375 508.87078857421875 300.1415100097656 506.7654113769531 303.3969421386719 518.6268310546875 C 317.2586669921875 519.9765625 330.7356262207031 520.9852905273438 338.3708801269531 516.131103515625 C 338.93695068359375 498.5732421875 324.61517333984375 502.8501281738281 312.0596008300781 497.50640869140625 C 306.2500305175781 497.5061950683594 300.1147766113281 501.6431579589844 292.9197998046875 503.41253662109375" stroke-width="0.0" fill="rgb(175, 152, 110)" opacity="0.99967545" stroke="rgb(0, 0, 0)" stroke-opacity="1.0" stroke-linecap="round" stroke-linejoin="round"/>
    <path d="M 372.24462890625 367.7609558105469 C 370.87030029296875 378.26141357421875 382.89581298828125 375.6200866699219 393.0928649902344 379.4649353027344 C 408.68023681640625 381.3706359863281 427.98583984375 382.0022277832031 442.3016052246094 378.7207336425781 C 416.1783752441406 374.7223815917969 395.3170166015625 369.91217041015625 372.24462890625 367.7609558105469" stroke-width="0.0" fill="rgb(172, 148, 115)" opacity="0.98351127" stroke="rgb(0, 0, 0)" stroke-opacity="1.0" stroke-linecap="round" stroke-linejoin="round"/>
    <path d="M 457.801513671875 133.6953125 C 439.4397888183594 137.23143005371094 420.8672180175781 138.3251953125 403.6226501464844 140.84637451171875 C 402.18951416015625 145.65953063964844 398.79937744140625 149.84933471679688 397.4106750488281 154.56179809570312 C 413.33270263671875 158.20774841308594 429.6395568847656 156.69395446777344 454.0174255371094 152.81973266601562 C 454.8387145996094 150.67214965820312 457.80157470703125 144.3848876953125 457.801513671875 133.6953125" stroke-width="0.0" fill="rgb(116, 85, 45)" opacity="0.9670243" stroke="rgb(0, 0, 0)" stroke-opacity="1.0" stroke-linecap="round" stroke-linejoin="round"/>
    <path d="M 457.99188232421875 136.8299560546875 C 456.4198913574219 143.69882202148438 455.7549743652344 147.0872039794922 458.3456726074219 148.59661865234375 C 473.8294372558594 151.68760681152344 491.7818908691406 152.58551025390625 517.9893188476562 151.54115295410156 C 518.1196899414062 144.5960693359375 518.4285278320312 136.6269073486328 518.0579223632812 133.2463836669922 C 490.44659423828125 132.22962951660156 471.5400390625 132.4024658203125 457.99188232421875 136.8299560546875" stroke-width="0.0" fill="rgb(117, 85, 45)" opacity="0.98824" stroke="rgb(0, 0, 0)" stroke-opacity="1.0" stroke-linecap="round" stroke-linejoin="round"/>
    <path d="M 127.26805877685547 505.2610778808594 C 134.2708282470703 514.9746704101562 141.4518280029297 519.175048828125 151.86529541015625 516.0576171875 C 159.89608764648438 505.7216491699219 170.4199676513672 506.64453125 173.53060913085938 501.6390075683594 C 168.1217498779297 493.95001220703125 158.04786682128906 496.7082824707031 147.988037109375 495.7641296386719 C 139.8601531982422 498.8730773925781 129.96273803710938 500.5751037597656 127.26805877685547 505.2610778808594" stroke-width="0.0" fill="rgb(188, 166, 122)" opacity="0.99911934" stroke="rgb(0, 0, 0)" stroke-opacity="1.0" stroke-linecap="round" stroke-linejoin="round"/>
    <path d="M 178.12564086914062 251.69625854492188 C 176.6540069580078 266.5941162109375 184.75840759277344 273.5501708984375 188.4010772705078 288.1700744628906 C 186.9296112060547 295.57171630859375 185.77825927734375 299.5794982910156 186.80345153808594 302.9044494628906 C 190.5472412109375 295.7203369140625 192.87164306640625 304.3370361328125 196.97055053710938 309.98077392578125 C 196.72193908691406 320.6986083984375 194.99041748046875 336.4400939941406 193.74993896484375 351.3538818359375 C 197.52279663085938 355.84161376953125 200.626220703125 355.953125 207.6313018798828 353.2637634277344 C 210.7496795654297 344.0506286621094 214.0037841796875 328.9472961425781 216.2254638671875 307.12603759765625 C 215.6051788330078 290.04962158203125 211.32034301757812 272.4328918457031 208.94073486328125 252.47068786621094 C 200.58824157714844 252.79026794433594 187.33042907714844 250.03292846679688 178.12564086914062 251.69625854492188" stroke-width="0.0" fill="rgb(29, 29, 35)" opacity="0.98535836" stroke="rgb(0, 0, 0)" stroke-opacity="1.0" stroke-linecap="round" stroke-linejoin="round"/>
    <path d="M -1.5066128969192505 184.70347595214844 C -4.44737434387207 192.37335205078125 -4.970289707183838 201.07308959960938 -5.783795356750488 211.4477081298828 C 27.59388542175293 205.161865234375 54.131874084472656 203.24893188476562 80.56189727783203 202.56199645996094 C 74.13272094726562 192.01431274414062 68.5848159790039 191.16236877441406 62.72821044921875 189.05532836914062 C 42.90806198120117 186.9376220703125 21.375425338745117 184.5181884765625 -1.5066128969192505 184.70347595214844" stroke-width="0.0" fill="rgb(122, 83, 49)" opacity="0.99893844" stroke="rgb(0, 0, 0)" stroke-opacity="1.0" stroke-linecap="round" stroke-linejoin="round"/>
    <path d="M 189.3735809326172 293.1653747558594 C 173.6614532470703 303.55474853515625 157.21624755859375 313.20806884765625 141.18960571289062 321.497314453125 C 141.19757080078125 332.968505859375 142.91285705566406 343.14886474609375 148.75540161132812 348.1042175292969 C 156.2852325439453 349.4814147949219 151.0997772216797 334.5146789550781 157.57980346679688 332.3982238769531 C 171.2322235107422 323.8200378417969 183.7396240234375 317.0260925292969 197.74449157714844 308.2581481933594 C 197.2305450439453 304.08905029296875 188.36639404296875 303.3836975097656 189.3735809326172 293.1653747558594" stroke-width="0.0" fill="rgb(27, 24, 25)" opacity="0.9997495" stroke="rgb(0, 0, 0)" stroke-opacity="1.0" stroke-linecap="round" stroke-linejoin="round"/>
    <path d="M 319.0590515136719 420.92279052734375 C 345.8582763671875 430.7928161621094 372.3951416015625 435.5800476074219 418.25299072265625 433.5292663574219 C 408.1695251464844 421.58843994140625 388.1514892578125 426.4177551269531 381.8717346191406 420.54443359375 C 357.58349609375 422.7870788574219 332.1480407714844 415.0897216796875 319.0590515136719 420.92279052734375" stroke-width="0.0" fill="rgb(147, 133, 107)" opacity="0.9663144" stroke="rgb(0, 0, 0)" stroke-opacity="1.0" stroke-linecap="round" stroke-linejoin="round"/>
    <path d="M 350.5013732910156 235.49664306640625 C 355.2499084472656 269.1863098144531 354.5155944824219 291.9728088378906 348.2746276855469 310.94964599609375 C 352.0871276855469 329.4294128417969 351.5047302246094 336.857666015625 362.2388000488281 346.7618103027344 C 380.4515380859375 351.6274108886719 410.780029296875 355.1779479980469 437.6519470214844 361.8006591796875 C 445.69012451171875 363.4915771484375 453.9111633300781 360.02325439453125 465.62835693359375 357.0859069824219 C 472.738525390625 346.17919921875 477.7880554199219 326.1899108886719 481.35009765625 304.8907775878906 C 482.1672058105469 293.3128356933594 491.09393310546875 286.914306640625 498.8064880371094 285.729248046875 C 498.1947937011719 269.6385498046875 496.5624084472656 259.6480407714844 492.5592041015625 252.6351318359375 C 444.22735595703125 247.9868621826172 397.2848815917969 242.10177612304688 350.5013732910156 235.49664306640625" stroke-width="0.0" fill="rgb(59, 48, 47)" opacity="1.0203799" stroke="rgb(0, 0, 0)" stroke-opacity="1.0" stroke-linecap="round" stroke-linejoin="round"/>
    <path d="M 515.871826171875 280.099365234375 C 500.53912353515625 287.8955993652344 485.393798828125 288.2445983886719 478.2846374511719 296.66912841796875 C 472.5419006347656 311.94989013671875 467.2772216796875 327.1924133300781 464.7082214355469 346.5776672363281 C 465.1371765136719 362.0827941894531 453.3470153808594 367.2547607421875 449.21221923828125 381.9054870605469 C 447.6478271484375 385.9991149902344 450.65350341796875 387.7126770019531 454.6703796386719 390.18280029296875 C 462.7738342285156 392.7055969238281 475.2177734375 394.4179382324219 491.4128723144531 394.49029541015625 C 492.6890563964844 377.6291809082031 505.6427001953125 371.908447265625 507.8288269042969 356.4327392578125 C 509.84735107421875 341.4649353027344 505.02191162109375 334.9447326660156 498.5151672363281 330.29425048828125 C 501.9755554199219 321.3122253417969 507.15496826171875 315.85400390625 514.8992309570312 307.5316467285156 C 516.2647094726562 298.40667724609375 516.5519409179688 291.3962707519531 515.871826171875 280.099365234375" stroke-width="0.0" fill="rgb(46, 46, 45)" opacity="0.9720618" stroke="rgb(0, 0, 0)" stroke-opacity="1.0" stroke-linecap="round" stroke-linejoin="round"/>
    <path d="M 49.48073959350586 242.70408630371094 C 41.7391357421875 237.17333984375 36.24398422241211 238.14199829101562 26.9805850982666 237.94192504882812 C 14.766255378723145 238.89422607421875 7.304566860198975 243.5295867919922 -1.782470464706421 247.81280517578125 C -4.677789688110352 255.9771270751953 -4.954068183898926 266.3839111328125 -4.434024810791016 275.61834716796875 C 17.77269744873047 277.67803955078125 31.730314254760742 278.7395324707031 41.495750427246094 277.7984924316406 C 47.908653259277344 266.0208435058594 50.82007598876953 256.39361572265625 49.48073959350586 242.70408630371094" stroke-width="0.0" fill="rgb(123, 148, 158)" opacity="0.9866949" stroke="rgb(0, 0, 0)" stroke-opacity="1.0" stroke-linecap="round" stroke-linejoin="round"/>
    <path d="M -6.028652667999268 276.4201965332031 C -5.557709693908691 285.50079345703125 -5.604355812072754 294.942626953125 0.06618260592222214 300.2693786621094 C 7.597456932067871 301.1999816894531 15.096012115478516 304.4627685546875 22.687360763549805 302.6121520996094 C 35.99843978881836 300.6206359863281 47.61635971069336 300.8984375 52.739986419677734 294.94000244140625 C 56.438533782958984 282.2542419433594 51.1253547668457 280.0548095703125 41.92811584472656 275.20550537109375 C 32.023441314697266 273.5342712402344 16.755666732788086 274.87744140625 -6.028652667999268 276.4201965332031" stroke-width="0.0" fill="rgb(104, 91, 70)" opacity="0.9407807" stroke="rgb(0, 0, 0)" stroke-opacity="1.0" stroke-linecap="round" stroke-linejoin="round"/>
    <path d="M 108.10601043701172 214.43983459472656 C 100.87198638916016 204.65281677246094 92.8207778930664 202.27978515625 78.99321746826172 200.67825317382812 C 56.389102935791016 206.47454833984375 24.280855178833008 203.55978393554688 -16.26831817626953 212.63209533691406 C 10.3267183303833 214.16558837890625 33.036415100097656 213.57034301757812 48.40621566772461 219.11868286132812 C 51.79787063598633 215.84402465820312 52.21989059448242 224.25209045410156 54.02732467651367 222.0742950439453 C 60.12204360961914 227.04391479492188 59.9776611328125 223.1880645751953 59.016876220703125 216.5614013671875 C 77.10490417480469 216.15289306640625 93.90638732910156 215.23666381835938 108.10601043701172 214.43983459472656" stroke-width="0.0" fill="rgb(118, 87, 72)" opacity="0.98781884" stroke="rgb(0, 0, 0)" stroke-opacity="1.0" stroke-linecap="round" stroke-linejoin="round"/>
    <path d="M 60.001102447509766 222.3450469970703 C 53.562782287597656 217.2189178466797 49.04146957397461 222.03579711914062 48.01386260986328 232.4055938720703 C 48.21967697143555 249.37266540527344 45.55147933959961 266.502197265625 47.48323440551758 277.5422668457031 C 52.8671875 279.7353820800781 55.06968688964844 275.8018798828125 55.62788009643555 274.1950988769531 C 55.619384765625 253.14454650878906 61.375701904296875 238.44065856933594 60.001102447509766 222.3450469970703" stroke-width="0.0" fill="rgb(93, 111, 118)" opacity="0.9902987" stroke="rgb(0, 0, 0)" stroke-opacity="1.0" stroke-linecap="round" stroke-linejoin="round"/>
    <path d="M 282.8570556640625 251.44261169433594 C 286.9013671875 255.6680908203125 283.0577087402344 258.4364929199219 281.96600341796875 270.805908203125 C 295.1330261230469 269.77581787109375 305.39898681640625 268.1350402832031 315.5303649902344 265.7915344238281 C 316.2759704589844 258.3465881347656 317.0941162109375 255.7774200439453 312.54541015625 253.4003448486328 C 307.87176513671875 249.85055541992188 294.3451843261719 253.32955932617188 282.8570556640625 251.44261169433594" stroke-width="0.0" fill="rgb(68, 62, 66)" opacity="0.99825716" stroke="rgb(0, 0, 0)" stroke-opacity="1.0" stroke-linecap="round" stroke-linejoin="round"/>
    <path d="M 205.3577423095703 144.80325317382812 C 199.05543518066406 141.7680206298828 194.14471435546875 145.5324249267578 190.6794891357422 146.90805053710938 C 186.03294372558594 155.29461669921875 186.84544372558594 164.25244140625 191.6963653564453 166.7671661376953 C 199.81057739257812 165.52735900878906 204.98959350585938 164.4835968017578 210.04295349121094 159.77857971191406 C 211.1675567626953 152.08692932128906 208.33663940429688 148.78086853027344 205.3577423095703 144.80325317382812" stroke-width="0.0" fill="rgb(33, 38, 51)" opacity="0.914086" stroke="rgb(0, 0, 0)" stroke-opacity="1.0" stroke-linecap="round" stroke-linejoin="round"/>
    <path d="M 147.1925811767578 260.9352722167969 C 135.41847229003906 261.5008850097656 126.79057312011719 264.99053955078125 116.15994262695312 266.4745788574219 C 117.18853759765625 265.5412902832031 117.25647735595703 272.1557922363281 115.61904907226562 277.1502685546875 C 124.61308288574219 278.8898620605469 133.4547576904297 277.0544738769531 143.41635131835938 274.7188720703125 C 147.28269958496094 274.1697692871094 147.63946533203125 269.0680236816406 147.1925811767578 260.9352722167969" stroke-width="0.0" fill="rgb(10, 36, 47)" opacity="1.0075136" stroke="rgb(0, 0, 0)" stroke-opacity="1.0" stroke-linecap="round" stroke-linejoin="round"/>
    <path d="M 190.20790100097656 171.99928283691406 C 180.16433715820312 175.96058654785156 175.55545043945312 183.8511962890625 170.70205688476562 192.88343811035156 C 168.31346130371094 196.3826141357422 169.9581298828125 197.31427001953125 174.10377502441406 204.69615173339844 C 177.1487579345703 203.24072265625 185.7335968017578 200.58009338378906 187.66978454589844 208.5005340576172 C 183.9847869873047 218.70529174804688 176.7001953125 229.5999755859375 175.2530059814453 247.07789611816406 C 183.61700439453125 250.06044006347656 196.0341339111328 249.63316345214844 207.3907012939453 252.121337890625 C 210.68128967285156 231.3273162841797 204.82192993164062 208.11907958984375 213.55519104003906 202.57708740234375 C 212.8241729736328 194.1954803466797 211.17041015625 188.1872100830078 208.0760040283203 184.0816192626953 C 202.71905517578125 179.7444305419922 195.05010986328125 176.96339416503906 190.20790100097656 171.99928283691406" stroke-width="0.0" fill="rgb(90, 47, 25)" opacity="0.98660105" stroke="rgb(0, 0, 0)" stroke-opacity="1.0" stroke-linecap="round" stroke-linejoin="round"/>
    <path d="M 257.5516357421875 267.2952880859375 C 258.332763671875 280.3495788574219 262.4591064453125 289.7728271484375 263.6619873046875 305.7530822753906 C 281.21466064453125 298.2939758300781 295.4757080078125 292.326416015625 317.4634094238281 296.4188537597656 C 316.892333984375 286.6460876464844 317.3560485839844 272.9060363769531 316.9833679199219 268.4716491699219 C 297.8767395019531 266.6759338378906 276.3416748046875 266.1723937988281 257.5516357421875 267.2952880859375" stroke-width="0.0" fill="rgb(79, 71, 62)" opacity="1.00548" stroke="rgb(0, 0, 0)" stroke-opacity="1.0" stroke-linecap="round" stroke-linejoin="round"/>
    <path d="M 184.15081787109375 200.8863067626953 C 178.70973205566406 201.40768432617188 173.82325744628906 206.04705810546875 167.71116638183594 201.3187713623047 C 167.60171508789062 224.59312438964844 169.17727661132812 255.67958068847656 156.3563690185547 275.2511291503906 C 157.60279846191406 274.5157165527344 157.0406494140625 288.4100341796875 156.745849609375 295.3890686035156 C 159.7704315185547 293.3351745605469 161.4152374267578 296.9373474121094 166.58065795898438 296.4268798828125 C 170.25955200195312 295.837890625 173.836669921875 293.1364440917969 175.0905303955078 285.65472412109375 C 170.24171447753906 281.692138671875 170.0650177001953 272.2711181640625 172.0301513671875 259.7447509765625 C 172.69473266601562 242.07278442382812 180.4018096923828 228.7058563232422 186.75656127929688 210.74147033691406 C 187.75360107421875 204.0301971435547 186.8623809814453 201.10140991210938 184.15081787109375 200.8863067626953" stroke-width="0.0" fill="rgb(66, 60, 48)" opacity="0.93280166" stroke="rgb(0, 0, 0)" stroke-opacity="1.0" stroke-linecap="round" stroke-linejoin="round"/>
    <path d="M 337.4388122558594 225.51951599121094 C 333.50115966796875 236.1560516357422 323.1239013671875 235.951171875 324.798583984375 249.7060089111328 C 333.25823974609375 248.36537170410156 327.4886169433594 258.98992919921875 332.1786193847656 271.50592041015625 C 333.7904968261719 271.7968444824219 340.1517333984375 273.7882080078125 346.9241638183594 271.8044128417969 C 347.77606201171875 264.63751220703125 343.3907470703125 251.94773864746094 346.9110107421875 234.6527557373047 C 340.86529541015625 234.77734375 343.16424560546875 226.5040740966797 337.4388122558594 225.51951599121094" stroke-width="0.0" fill="rgb(143, 35, 60)" opacity="1.0086395" stroke="rgb(0, 0, 0)" stroke-opacity="1.0" stroke-linecap="round" stroke-linejoin="round"/>
    <path d="M 50.16476058959961 221.7861328125 C 35.623497009277344 223.47718811035156 17.57948112487793 223.61692810058594 4.110581398010254 222.39122009277344 C 0.7314026951789856 225.50376892089844 2.7149767875671387 231.7204132080078 1.1397053003311157 237.9560546875 C 15.873866081237793 239.24050903320312 31.156225204467773 236.22067260742188 50.76272201538086 237.71351623535156 C 48.421295166015625 233.10166931152344 47.4284553527832 225.66458129882812 50.16476058959961 221.7861328125" stroke-width="0.0" fill="rgb(105, 159, 172)" opacity="0.99458057" stroke="rgb(0, 0, 0)" stroke-opacity="1.0" stroke-linecap="round" stroke-linejoin="round"/>
    <path d="M 86.1137466430664 295.2650451660156 C 72.98017883300781 297.2050476074219 66.22748565673828 301.77874755859375 62.3241081237793 295.1072998046875 C 54.82808303833008 307.44744873046875 49.68382263183594 306.5528259277344 53.7547721862793 322.4368896484375 C 62.178245544433594 320.613037109375 72.52240753173828 319.15924072265625 84.42536163330078 320.7279052734375 C 85.77449798583984 308.91717529296875 79.87274932861328 302.5389709472656 86.1137466430664 295.2650451660156" stroke-width="0.0" fill="rgb(167, 153, 126)" opacity="1.0013378" stroke="rgb(0, 0, 0)" stroke-opacity="1.0" stroke-linecap="round" stroke-linejoin="round"/>
    <path d="M 171.18597412109375 191.0840606689453 C 165.0799560546875 201.47410583496094 158.49984741210938 211.66427612304688 155.047607421875 221.99754333496094 C 154.5929718017578 236.66590881347656 154.75999450683594 245.34323120117188 165.6136474609375 251.67086791992188 C 168.75350952148438 233.8485107421875 171.14720153808594 215.0389862060547 171.18597412109375 191.0840606689453" stroke-width="0.0" fill="rgb(83, 49, 63)" opacity="0.9763198" stroke="rgb(0, 0, 0)" stroke-opacity="1.0" stroke-linecap="round" stroke-linejoin="round"/>
    <path d="M 294.4941711425781 441.06060791015625 C 344.2268981933594 444.0276794433594 389.96453857421875 446.1430969238281 447.0035400390625 444.0494079589844 C 446.8404235839844 438.2488098144531 445.1147766113281 433.5998229980469 446.75152587890625 430.1007080078125 C 415.5080871582031 431.41668701171875 407.766357421875 424.8961181640625 398.11712646484375 433.8051452636719 C 364.24822998046875 432.9567565917969 350.6326904296875 426.9307556152344 340.88140869140625 423.59527587890625 C 321.64434814453125 424.9573974609375 310.2446594238281 425.923583984375 303.6495666503906 424.3875732421875 C 300.9403991699219 433.614013671875 294.735595703125 436.50616455078125 294.4941711425781 441.06060791015625" stroke-width="0.0" fill="rgb(41, 45, 45)" opacity="0.9250824" stroke="rgb(0, 0, 0)" stroke-opacity="1.0" stroke-linecap="round" stroke-linejoin="round"/>
    <path d="M 448.73919677734375 439.14141845703125 C 446.14959716796875 450.454833984375 450.48577880859375 449.5168762207031 459.0456237792969 453.7919616699219 C 467.8131103515625 452.76495361328125 478.204345703125 452.233642578125 483.4346008300781 444.21514892578125 C 477.72772216796875 438.032958984375 465.0164489746094 438.4549560546875 448.73919677734375 439.14141845703125" stroke-width="0.0" fill="rgb(165, 144, 103)" opacity="0.9950015" stroke="rgb(0, 0, 0)" stroke-opacity="1.0" stroke-linecap="round" stroke-linejoin="round"/>
    <path d="M 351.0924377441406 233.3851318359375 C 351.4223937988281 246.57369995117188 353.0718078613281 262.2762756347656 353.9772033691406 269.78155517578125 C 391.03082275390625 274.8865051269531 421.3257751464844 281.53790283203125 454.9411315917969 286.16253662109375 C 477.388916015625 287.9339904785156 492.8791809082031 287.4471435546875 502.1222839355469 285.1200866699219 C 498.398681640625 272.2082214355469 496.2248229980469 262.5455627441406 496.0999755859375 251.89730834960938 C 486.5528259277344 248.96290588378906 486.28778076171875 237.89170837402344 476.63018798828125 235.61573791503906 C 444.4442443847656 230.9963836669922 409.37677001953125 228.76829528808594 375.75946044921875 222.74102783203125 C 364.77801513671875 222.85401916503906 358.2552185058594 226.43759155273438 351.0924377441406 233.3851318359375" stroke-width="0.0" fill="rgb(97, 98, 99)" opacity="0.8867642" stroke="rgb(0, 0, 0)" stroke-opacity="1.0" stroke-linecap="round" stroke-linejoin="round"/>
    <path d="M 396.5508728027344 286.5951843261719 C 392.7251281738281 299.26202392578125 393.0086669921875 313.1905517578125 392.08441162109375 328.41009521484375 C 392.6064453125 331.56103515625 398.1546325683594 334.1372985839844 401.5548400878906 339.45086669921875 C 417.7845458984375 343.3951416015625 437.5181579589844 346.546142578125 454.51422119140625 352.52496337890625 C 459.7989501953125 352.36334228515625 463.06268310546875 348.349365234375 466.3416748046875 346.6778869628906 C 470.0920715332031 328.558837890625 477.5633239746094 313.2612609863281 477.76416015625 289.3180236816406 C 450.8372802734375 285.5393981933594 423.934326171875 286.6717224121094 396.5508728027344 286.5951843261719" stroke-width="0.0" fill="rgb(43, 39, 47)" opacity="1.0124266" stroke="rgb(0, 0, 0)" stroke-opacity="1.0" stroke-linecap="round" stroke-linejoin="round"/>
    <path d="M 501.3575439453125 332.1222839355469 C 490.7024230957031 328.5846252441406 483.9331359863281 322.6324768066406 473.6183776855469 320.5604248046875 C 470.09033203125 356.10821533203125 457.2423095703125 370.30621337890625 446.0079040527344 389.4097595214844 C 457.7511291503906 399.753662109375 468.56890869140625 398.0561218261719 489.9224548339844 396.0754089355469 C 494.9010009765625 377.1703186035156 507.3753356933594 369.40008544921875 509.2330322265625 350.31292724609375 C 508.0086975097656 341.9285888671875 504.5714416503906 336.2533874511719 501.3575439453125 332.1222839355469" stroke-width="0.0" fill="rgb(24, 26, 27)" opacity="0.9876579" stroke="rgb(0, 0, 0)" stroke-opacity="1.0" stroke-linecap="round" stroke-linejoin="round"/>
    <path d="M 516.3667602539062 283.18536376953125 C 498.24951171875 283.72125244140625 490.96588134765625 286.40948486328125 479.2156982421875 300.44464111328125 C 476.9887390136719 304.9494323730469 473.5732727050781 313.77386474609375 470.28900146484375 327.1432800292969 C 482.40673828125 324.8230895996094 488.498779296875 329.3392333984375 495.95037841796875 331.9456787109375 C 502.5900573730469 321.8283386230469 506.64324951171875 315.0207824707031 513.7373657226562 306.6445617675781 C 516.5929565429688 299.2229919433594 516.2620239257812 290.3902587890625 516.3667602539062 283.18536376953125" stroke-width="0.0" fill="rgb(50, 42, 41)" opacity="0.99245214" stroke="rgb(0, 0, 0)" stroke-opacity="1.0" stroke-linecap="round" stroke-linejoin="round"/>
    <path d="M 46.03894805908203 240.80398559570312 C 43.88015365600586 236.9507293701172 31.227603912353516 238.3824462890625 17.842496871948242 239.2379913330078 C 12.219204902648926 241.5539093017578 2.507444381713867 244.54600524902344 -6.762512683868408 252.37948608398438 C 10.200182914733887 251.86062622070312 27.912010192871094 251.95445251464844 42.84297180175781 251.80108642578125 C 46.39752960205078 248.72789001464844 48.7640380859375 248.52291870117188 46.03894805908203 240.80398559570312" stroke-width="0.0" fill="rgb(181, 185, 185)" opacity="0.99625844" stroke="rgb(0, 0, 0)" stroke-opacity="1.0" stroke-linecap="round" stroke-linejoin="round"/>
    <path d="M 105.11796569824219 212.0017547607422 C 100.53287506103516 202.29710388183594 89.79898071289062 204.23228454589844 75.3104476928711 199.91500854492188 C 60.74083709716797 207.56947326660156 41.032623291015625 202.6084442138672 21.336380004882812 208.07354736328125 C 48.65254592895508 211.7857666015625 75.603759765625 209.16500854492188 105.11796569824219 212.0017547607422" stroke-width="0.0" fill="rgb(138, 174, 204)" opacity="0.99797666" stroke="rgb(0, 0, 0)" stroke-opacity="1.0" stroke-linecap="round" stroke-linejoin="round"/>
    <path d="M 374.9827880859375 295.7652587890625 C 371.1998291015625 300.940673828125 372.21087646484375 318.19146728515625 371.8940124511719 341.525634765625 C 376.25323486328125 343.1300964355469 383.8275451660156 346.0648193359375 394.08331298828125 349.0180969238281 C 399.418212890625 334.6769104003906 397.7246398925781 315.730712890625 396.2663879394531 291.7574157714844 C 391.8873291015625 290.3976135253906 378.88592529296875 290.3681335449219 374.9827880859375 295.7652587890625" stroke-width="0.0" fill="rgb(108, 98, 89)" opacity="0.9846276" stroke="rgb(0, 0, 0)" stroke-opacity="1.0" stroke-linecap="round" stroke-linejoin="round"/>
    <path d="M 354.4200439453125 276.6302490234375 C 351.6482849121094 286.776611328125 360.60577392578125 288.4335021972656 366.30865478515625 293.21942138671875 C 382.723876953125 288.4666442871094 402.09149169921875 288.8061828613281 416.21673583984375 281.40130615234375 C 410.172119140625 271.825439453125 389.64324951171875 277.1983642578125 376.1097106933594 270.73626708984375 C 364.0419616699219 273.0623779296875 356.6577453613281 271.28594970703125 354.4200439453125 276.6302490234375" stroke-width="0.0" fill="rgb(155, 167, 168)" opacity="1.0697559" stroke="rgb(0, 0, 0)" stroke-opacity="1.0" stroke-linecap="round" stroke-linejoin="round"/>
    <path d="M 355.6392822265625 293.26007080078125 C 351.3058776855469 296.8586120605469 350.7386779785156 310.3346252441406 353.0361328125 321.72222900390625 C 356.90460205078125 322.1830749511719 363.88665771484375 324.1043701171875 371.6474609375 324.27484130859375 C 372.13226318359375 316.2123107910156 373.02685546875 308.1047058105469 376.0702819824219 301.0610046386719 C 368.63916015625 295.65618896484375 365.3034362792969 288.75299072265625 355.6392822265625 293.26007080078125" stroke-width="0.0" fill="rgb(50, 38, 52)" opacity="0.992176" stroke="rgb(0, 0, 0)" stroke-opacity="1.0" stroke-linecap="round" stroke-linejoin="round"/>
    <path d="M 336.76641845703125 421.4468688964844 C 345.015380859375 426.8354797363281 355.9220275878906 429.4648132324219 367.4388427734375 430.8083801269531 C 385.7592468261719 430.5618896484375 398.75653076171875 436.96368408203125 407.7789611816406 428.70068359375 C 398.3458557128906 426.26226806640625 389.7940673828125 424.3570556640625 383.6142883300781 419.5921936035156 C 367.83209228515625 420.8555908203125 351.687255859375 418.92718505859375 336.76641845703125 421.4468688964844" stroke-width="0.0" fill="rgb(176, 158, 123)" opacity="0.97095096" stroke="rgb(0, 0, 0)" stroke-opacity="1.0" stroke-linecap="round" stroke-linejoin="round"/>
    <path d="M -5.548182964324951 251.61221313476562 C -5.108972072601318 258.70172119140625 -5.124044895172119 268.0621032714844 -4.740752220153809 275.0819091796875 C 10.023234367370605 276.048095703125 16.46261978149414 273.21392822265625 25.380563735961914 274.3650207519531 C 25.654407501220703 262.8736572265625 26.427709579467773 250.20559692382812 25.02322006225586 254.0321044921875 C 16.426069259643555 252.0576934814453 3.946244716644287 251.7840118408203 -5.548182964324951 251.61221313476562" stroke-width="0.0" fill="rgb(116, 126, 131)" opacity="0.98195285" stroke="rgb(0, 0, 0)" stroke-opacity="1.0" stroke-linecap="round" stroke-linejoin="round"/>
    <path d="M 188.9061737060547 205.19793701171875 C 181.59197998046875 197.77073669433594 176.18359375 202.06617736816406 173.55592346191406 203.7708282470703 C 167.32748413085938 223.73374938964844 168.36512756347656 248.6516571044922 161.0722198486328 266.76959228515625 C 162.3565216064453 268.15087890625 164.63763427734375 269.28009033203125 170.10952758789062 273.63983154296875 C 170.4362335205078 244.65512084960938 182.45977783203125 227.5650634765625 188.9061737060547 205.19793701171875" stroke-width="0.0" fill="rgb(23, 20, 22)" opacity="0.9950318" stroke="rgb(0, 0, 0)" stroke-opacity="1.0" stroke-linecap="round" stroke-linejoin="round"/>
    <path d="M 330.0911865234375 233.98532104492188 C 326.128173828125 239.27914428710938 322.656494140625 245.43446350097656 323.0190734863281 253.3846435546875 C 328.4896240234375 254.56785583496094 326.5436706542969 247.63287353515625 329.5973205566406 246.5281524658203 C 331.1028747558594 251.5355224609375 326.53985595703125 254.45347595214844 327.86175537109375 252.39007568359375 C 336.68829345703125 256.4704895019531 340.52960205078125 259.3324890136719 346.46820068359375 255.2600860595703 C 344.8429870605469 247.15638732910156 348.90008544921875 240.65371704101562 346.4129638671875 231.7360076904297 C 340.1123046875 237.21475219726562 335.27203369140625 232.53482055664062 330.0911865234375 233.98532104492188" stroke-width="0.0" fill="rgb(99, 59, 58)" opacity="0.9873549" stroke="rgb(0, 0, 0)" stroke-opacity="1.0" stroke-linecap="round" stroke-linejoin="round"/>
    <path d="M 502.3726806640625 283.1912536621094 C 498.4066467285156 271.99072265625 495.7459411621094 262.1886291503906 496.5734558105469 252.75140380859375 C 488.756103515625 251.48062133789062 489.0964050292969 254.95611572265625 482.2667236328125 262.1281433105469 C 464.0489196777344 267.44427490234375 449.97857666015625 255.79103088378906 434.0186462402344 254.6414031982422 C 419.2696533203125 257.1618347167969 407.607177734375 258.82940673828125 408.95928955078125 275.0684814453125 C 420.08837890625 282.5638122558594 437.30560302734375 284.45550537109375 456.357421875 285.5848388671875 C 476.9957275390625 286.60382080078125 492.54388427734375 289.9063415527344 502.3726806640625 283.1912536621094" stroke-width="0.0" fill="rgb(82, 74, 79)" opacity="0.9760768" stroke="rgb(0, 0, 0)" stroke-opacity="1.0" stroke-linecap="round" stroke-linejoin="round"/>
    <path d="M 395.5380859375 289.6565856933594 C 393.7735290527344 295.79901123046875 396.4830017089844 301.21307373046875 398.06317138671875 302.555908203125 C 412.4183349609375 303.2132568359375 426.3068542480469 304.9135437011719 434.66094970703125 305.77142333984375 C 439.4917297363281 297.1500549316406 434.048583984375 295.1788024902344 430.4913635253906 290.78515625 C 428.0821533203125 288.69683837890625 421.2492370605469 288.4934997558594 416.4323425292969 285.95672607421875 C 405.69915771484375 285.1150817871094 399.5799865722656 286.7176818847656 395.5380859375 289.6565856933594" stroke-width="0.0" fill="rgb(45, 41, 40)" opacity="0.97359055" stroke="rgb(0, 0, 0)" stroke-opacity="1.0" stroke-linecap="round" stroke-linejoin="round"/>
    <path d="M 352.1391906738281 233.59046936035156 C 350.7500915527344 236.89080810546875 353.54425048828125 245.91590881347656 352.0534973144531 256.59869384765625 C 358.53033447265625 258.6045227050781 358.1249694824219 259.59765625 362.8066711425781 257.5498962402344 C 366.0548400878906 258.4535827636719 365.7400817871094 263.09808349609375 366.4797058105469 269.7094421386719 C 379.7046203613281 269.8367919921875 389.3739318847656 274.0706787109375 405.36895751953125 274.1421203613281 C 412.14276123046875 266.28118896484375 417.92181396484375 258.139404296875 431.6022033691406 255.18545532226562 C 436.4464416503906 254.20681762695312 441.4013671875 256.9426574707031 442.6622619628906 256.64154052734375 C 449.677490234375 257.3577880859375 455.84576416015625 260.9737548828125 456.62237548828125 266.50927734375 C 470.3974914550781 265.3269958496094 481.4129943847656 264.3022155761719 490.29766845703125 258.2864685058594 C 487.8163757324219 249.533447265625 486.3920593261719 241.99066162109375 486.7160949707031 238.2783966064453 C 445.9551086425781 231.5975799560547 407.6861877441406 226.5081024169922 364.47479248046875 221.46530151367188 C 359.7145690917969 219.86097717285156 357.348388671875 227.66477966308594 352.1391906738281 233.59046936035156" stroke-width="0.0" fill="rgb(193, 195, 195)" opacity="1.0704566" stroke="rgb(0, 0, 0)" stroke-opacity="1.0" stroke-linecap="round" stroke-linejoin="round"/>
    <path d="M 401.8638000488281 301.5340270996094 C 407.30987548828125 302.2002868652344 406.58099365234375 301.10272216796875 406.00982666015625 302.6864929199219 C 403.18603515625 310.2579345703125 396.261474609375 312.94354248046875 397.6748962402344 322.28179931640625 C 403.6438293457031 324.8538818359375 406.4187316894531 332.91180419921875 412.9940185546875 338.142578125 C 424.4576416015625 344.8959045410156 443.11077880859375 347.94940185546875 465.260498046875 350.7283935546875 C 468.78662109375 339.89093017578125 469.7388916015625 328.85565185546875 471.51873779296875 318.6674499511719 C 449.09820556640625 308.5851135253906 424.87127685546875 303.39459228515625 401.8638000488281 301.5340270996094" stroke-width="0.0" fill="rgb(38, 64, 97)" opacity="0.9921984" stroke="rgb(0, 0, 0)" stroke-opacity="1.0" stroke-linecap="round" stroke-linejoin="round"/>
    <path d="M 415.2724304199219 280.9418640136719 C 416.56134033203125 290.0859680175781 430.98883056640625 286.6387634277344 439.9918212890625 297.53887939453125 C 437.0899658203125 301.11083984375 440.7799377441406 304.5661315917969 444.0007019042969 309.0486755371094 C 454.142822265625 310.9891052246094 461.27447509765625 315.5285949707031 473.70465087890625 316.4827575683594 C 475.7621154785156 308.4932861328125 477.2906494140625 299.7496337890625 478.2210693359375 291.8363342285156 C 455.7132568359375 285.377685546875 436.6145324707031 282.22052001953125 415.2724304199219 280.9418640136719" stroke-width="0.0" fill="rgb(47, 85, 86)" opacity="0.9824301" stroke="rgb(0, 0, 0)" stroke-opacity="1.0" stroke-linecap="round" stroke-linejoin="round"/>
    <path d="M 352.6744384765625 280.8311767578125 C 356.3750305175781 285.235595703125 361.5086669921875 289.3024597167969 368.26458740234375 292.2108459472656 C 377.5187683105469 288.94287109375 382.21185302734375 283.1615295410156 388.8690490722656 277.04058837890625 C 379.35308837890625 270.9122619628906 372.3543701171875 270.2539978027344 357.853515625 272.2059326171875 C 356.8034362792969 273.47216796875 353.82281494140625 276.0646667480469 352.6744384765625 280.8311767578125" stroke-width="0.0" fill="rgb(82, 127, 133)" opacity="0.996875" stroke="rgb(0, 0, 0)" stroke-opacity="1.0" stroke-linecap="round" stroke-linejoin="round"/>
    <path d="M 482.20953369140625 324.97760009765625 C 475.4603271484375 327.1777648925781 474.37060546875 327.4085693359375 475.1387634277344 329.8234558105469 C 469.0098571777344 347.482421875 473.46160888671875 369.2043151855469 467.00469970703125 376.78680419921875 C 461.8883361816406 386.9474792480469 471.89349365234375 389.55548095703125 469.871337890625 399.6690979003906 C 472.77227783203125 404.93182373046875 475.8153991699219 404.2978210449219 487.87066650390625 403.2332763671875 C 490.3669738769531 390.8265075683594 496.200439453125 373.5094909667969 508.09649658203125 363.99713134765625 C 508.2872009277344 346.0912170410156 507.5380554199219 341.923583984375 501.6348876953125 333.8383483886719 C 496.85650634765625 332.3791809082031 487.1800231933594 332.6159362792969 482.20953369140625 324.97760009765625" stroke-width="0.0" fill="rgb(44, 36, 39)" opacity="0.9718243" stroke="rgb(0, 0, 0)" stroke-opacity="1.0" stroke-linecap="round" stroke-linejoin="round"/>
    <path d="M 511.649658203125 275.51007080078125 C 504.8966979980469 287.46075439453125 493.38543701171875 293.65576171875 478.81439208984375 297.21136474609375 C 477.61761474609375 303.86126708984375 478.623779296875 317.9625549316406 476.7689514160156 324.23297119140625 C 482.2076721191406 325.83270263671875 485.6523742675781 329.77008056640625 490.42010498046875 329.4845886230469 C 494.34051513671875 324.5760803222656 495.294677734375 324.9788818359375 492.21234130859375 315.1358337402344 C 501.5173645019531 312.1423645019531 506.6081237792969 305.04150390625 512.4867553710938 296.0810241699219 C 516.9025268554688 289.31854248046875 516.9562377929688 283.50006103515625 511.649658203125 275.51007080078125" stroke-width="0.0" fill="rgb(45, 31, 35)" opacity="0.9866815" stroke="rgb(0, 0, 0)" stroke-opacity="1.0" stroke-linecap="round" stroke-linejoin="round"/>
    <path d="M 351.359619140625 236.7242431640625 C 353.34747314453125 245.06622314453125 352.5259094238281 253.9999542236328 353.8883056640625 258.20880126953125 C 358.79559326171875 260.069580078125 358.006591796875 252.15773010253906 365.99896240234375 257.5498046875 C 369.8820495605469 255.9899444580078 367.9360656738281 265.873291015625 371.7591247558594 264.4735107421875 C 386.7322998046875 266.3348693847656 398.32147216796875 266.9573974609375 413.4029235839844 265.8416442871094 C 419.3081359863281 261.23919677734375 425.7635803222656 255.50778198242188 435.65301513671875 252.1348876953125 C 445.65460205078125 251.34432983398438 456.02667236328125 256.4859924316406 467.9620361328125 252.13966369628906 C 429.6608581542969 245.17381286621094 391.0267333984375 240.90309143066406 351.359619140625 236.7242431640625" stroke-width="0.0" fill="rgb(137, 149, 152)" opacity="1.002168" stroke="rgb(0, 0, 0)" stroke-opacity="1.0" stroke-linecap="round" stroke-linejoin="round"/>
    <path d="M 407.9559631347656 275.0700988769531 C 424.1054992675781 283.2148742675781 448.28314208984375 285.9712829589844 472.47747802734375 289.6470031738281 C 476.5780334472656 289.1988830566406 477.8563537597656 288.2355041503906 478.1689147949219 283.708251953125 C 474.1428527832031 280.491455078125 469.8137512207031 277.32659912109375 468.36102294921875 272.7543640136719 C 474.0541687011719 270.7774963378906 474.57110595703125 263.6775817871094 482.70477294921875 259.2638854980469 C 464.1815185546875 257.6927490234375 449.3172302246094 254.03240966796875 434.3870544433594 253.57748413085938 C 422.0630187988281 259.89794921875 411.64556884765625 262.2299499511719 407.9559631347656 275.0700988769531" stroke-width="0.0" fill="rgb(65, 53, 58)" opacity="1.0737286" stroke="rgb(0, 0, 0)" stroke-opacity="1.0" stroke-linecap="round" stroke-linejoin="round"/>
    <path d="M 496.73797607421875 243.43128967285156 C 490.45098876953125 260.39105224609375 478.77532958984375 263.720947265625 467.9570007324219 271.27679443359375 C 472.29486083984375 280.4665222167969 477.1959228515625 286.21820068359375 485.2073059082031 289.35601806640625 C 491.21466064453125 287.6044616699219 498.9930725097656 288.05792236328125 503.4884948730469 283.10980224609375 C 497.7053527832031 271.17486572265625 495.4649658203125 261.3627624511719 496.73797607421875 243.43128967285156" stroke-width="0.0" fill="rgb(117, 115, 122)" opacity="1.03876" stroke="rgb(0, 0, 0)" stroke-opacity="1.0" stroke-linecap="round" stroke-linejoin="round"/>
    <path d="M 395.55096435546875 291.7121887207031 C 405.2526550292969 298.56658935546875 420.11004638671875 304.2104187011719 439.7799377441406 307.6654357910156 C 439.8985290527344 293.9590759277344 434.0361328125 297.2890930175781 432.3804626464844 288.8003845214844 C 423.92578125 292.0486755371094 419.4923400878906 287.0008239746094 416.38922119140625 285.4388732910156 C 402.8846740722656 285.35711669921875 400.38409423828125 283.1409606933594 395.55096435546875 291.7121887207031" stroke-width="0.0" fill="rgb(24, 27, 33)" opacity="0.9537039" stroke="rgb(0, 0, 0)" stroke-opacity="1.0" stroke-linecap="round" stroke-linejoin="round"/>
    <path d="M 497.4070129394531 248.0917510986328 C 479.8581237792969 242.30006408691406 495.70361328125 256.6898498535156 485.2065734863281 262.26275634765625 C 484.74407958984375 272.495849609375 482.02886962890625 279.48199462890625 484.22265625 288.94970703125 C 493.1331787109375 288.74102783203125 500.08587646484375 288.2924499511719 503.6162109375 282.7425231933594 C 497.0504150390625 271.2965393066406 495.2760009765625 261.19482421875 497.4070129394531 248.0917510986328" stroke-width="0.0" fill="rgb(90, 82, 84)" opacity="1.001958" stroke="rgb(0, 0, 0)" stroke-opacity="1.0" stroke-linecap="round" stroke-linejoin="round"/>
    <path d="M 357.1274108886719 242.76951599121094 C 356.1684265136719 248.2947998046875 357.5699157714844 252.231689453125 359.626708984375 254.9376678466797 C 385.5194091796875 251.650634765625 410.7616271972656 259.822509765625 428.44976806640625 252.8866729736328 C 403.3097229003906 248.0657501220703 380.0614929199219 245.5623779296875 357.1274108886719 242.76951599121094" stroke-width="0.0" fill="rgb(159, 158, 154)" opacity="1.0002246" stroke="rgb(0, 0, 0)" stroke-opacity="1.0" stroke-linecap="round" stroke-linejoin="round"/>
  </g>
</svg>
