<?xml version="1.0" ?>
<svg xmlns="http://www.w3.org/2000/svg" version="1.1" width="512" height="512">
  <defs/>
  <g>
    <path d="M -2.585120916366577 -2.7367680072784424 C -3.4390852451324463 170.3374481201172 -5.084533214569092 340.70379638671875 -5.668762683868408 517.1015625 C 170.38702392578125 516.9229736328125 340.5464172363281 516.9757690429688 517.8848876953125 517.187255859375 C 518.049072265625 340.74993896484375 518.0482177734375 170.3759307861328 518.0675048828125 -3.1825480461120605 C 340.6666564941406 -3.060939311981201 170.3333282470703 -2.904825210571289 -2.585120916366577 -2.7367680072784424" stroke-width="0.0" fill="rgb(156, 211, 215)" opacity="0.79982626" stroke="rgb(0, 0, 0)" stroke-opacity="1.0" stroke-linecap="round" stroke-linejoin="round"/>
    <path d="M -5.605451583862305 332.0466003417969 C -6.136518955230713 388.7768859863281 -5.449463844299316 450.1856689453125 -3.010336399078369 518.2532348632812 C 170.3339385986328 518.3012084960938 340.671875 518.3584594726562 519.19677734375 518.2332763671875 C 519.5601196289062 472.8621826171875 517.8535766601562 437.82379150390625 506.19091796875 416.3547668457031 C 507.7795715332031 414.9386901855469 503.12054443359375 414.04241943359375 509.8131408691406 417.8390197753906 C 505.9239196777344 422.2469177246094 502.6494140625 429.1555480957031 495.88720703125 433.1692810058594 C 475.5813903808594 431.61309814453125 477.6834716796875 427.24920654296875 480.05804443359375 426.1946105957031 C 481.3846130371094 426.5303649902344 483.2296447753906 431.1264343261719 475.5846862792969 433.0401611328125 C 467.9494934082031 430.3173522949219 469.0389404296875 427.0179748535156 469.8597106933594 429.1322326660156 C 473.1557922363281 431.39190673828125 471.58270263671875 435.5642395019531 457.8410949707031 430.97235107421875 C 411.912109375 446.70098876953125 369.8467102050781 444.0256652832031 323.9657897949219 439.8495788574219 C 325.0619201660156 422.99969482421875 322.4156799316406 419.1698913574219 327.043212890625 412.4146423339844 C 336.475341796875 404.2705383300781 339.6331787109375 394.3665466308594 346.8782043457031 390.1377258300781 C 349.4957580566406 374.34466552734375 348.1263427734375 360.74639892578125 348.404052734375 349.4909973144531 C 346.9107360839844 343.8258361816406 342.4459228515625 337.8857727050781 338.9866027832031 335.3554992675781 C 329.48834228515625 332.1430969238281 319.3612365722656 333.1927795410156 316.6365661621094 329.08746337890625 C 315.279541015625 322.44537353515625 323.2409973144531 323.43402099609375 322.2912292480469 326.2554626464844 C 322.33331298828125 313.0978698730469 319.35614013671875 309.67230224609375 307.987060546875 306.1612243652344 C 279.3670349121094 304.9932861328125 251.32284545898438 307.67547607421875 230.86854553222656 300.50140380859375 C 220.60842895507812 301.3311462402344 227.98573303222656 292.9159851074219 218.69537353515625 285.1994934082031 C 219.98101806640625 313.7419738769531 212.370361328125 331.39208984375 212.70228576660156 353.8104248046875 C 204.18418884277344 357.8862609863281 197.02947998046875 357.8457336425781 191.71534729003906 355.9442443847656 C 191.307373046875 339.0347900390625 196.875 323.77264404296875 192.82106018066406 314.3970642089844 C 179.6015625 319.57159423828125 169.32659912109375 326.83343505859375 158.1873016357422 333.9970703125 C 152.7469024658203 339.15997314453125 156.33221435546875 352.83367919921875 147.48765563964844 356.0760192871094 C 141.1638946533203 352.8358154296875 141.0808563232422 335.88739013671875 139.65518188476562 323.08966064453125 C 143.4631805419922 318.3593444824219 153.52737426757812 312.34722900390625 161.32200622558594 305.82965087890625 C 162.67697143554688 294.6209411621094 159.2901611328125 287.4193420410156 153.1395263671875 280.45037841796875 C 125.75146484375 282.62445068359375 94.91290283203125 280.3154296875 61.37196350097656 284.1162414550781 C 50.3358268737793 286.10247802734375 41.83290481567383 305.0272216796875 20.867372512817383 309.1130065917969 C 17.740129470825195 319.1511535644531 11.270817756652832 327.2630920410156 -5.605451583862305 332.0466003417969" stroke-width="0.0" fill="rgb(191, 174, 134)" opacity="1.0584049" stroke="rgb(0, 0, 0)" stroke-opacity="1.0" stroke-linecap="round" stroke-linejoin="round"/>
    <path d="M 254.22927856445312 264.3631591796875 C 251.16485595703125 270.69305419921875 249.12948608398438 282.22235107421875 249.92149353027344 299.33038330078125 C 271.2547302246094 304.0892028808594 304.2171630859375 297.1737365722656 321.81195068359375 306.1441345214844 C 329.5245056152344 308.06097412109375 325.66070556640625 319.2123107910156 330.54852294921875 325.7645263671875 C 333.0656433105469 332.2364501953125 343.2662353515625 332.2611999511719 351.33734130859375 336.9262390136719 C 355.775146484375 348.3513488769531 357.2333679199219 363.10137939453125 362.11212158203125 375.1349792480469 C 363.58306884765625 376.0650634765625 369.1083984375 372.8145751953125 372.8340148925781 369.08056640625 C 381.9412536621094 376.39532470703125 386.5107727050781 375.69964599609375 389.1617431640625 372.4099426269531 C 385.4706726074219 373.03704833984375 373.9127197265625 376.3575439453125 363.4991760253906 359.2330627441406 C 393.6737976074219 364.408447265625 411.5198059082031 366.16693115234375 427.9524230957031 366.08563232421875 C 413.4534606933594 366.42877197265625 398.7059631347656 364.4844055175781 378.4356689453125 361.4883728027344 C 384.3186340332031 360.59698486328125 388.0563049316406 361.02398681640625 387.8622131347656 358.0685119628906 C 383.3850402832031 360.3036193847656 374.477783203125 366.0861511230469 364.85662841796875 355.9877624511719 C 378.0655822753906 348.01605224609375 385.6770324707031 352.2764587402344 386.4614562988281 351.2498779296875 C 402.1796875 353.2052307128906 417.89031982421875 356.70953369140625 431.8681945800781 361.5166931152344 C 438.3714599609375 363.388427734375 443.3766174316406 366.6598815917969 440.14697265625 375.570556640625 C 433.1866455078125 384.01666259765625 426.1496276855469 379.9603576660156 416.9507141113281 374.15350341796875 C 434.28839111328125 380.5743713378906 453.0788879394531 389.05706787109375 478.2243957519531 390.0342102050781 C 487.8037109375 392.6766357421875 490.2746887207031 390.11865234375 491.6877136230469 385.88739013671875 C 496.3848571777344 378.3988037109375 500.1505126953125 368.2130126953125 504.1545104980469 358.2649841308594 C 506.550537109375 343.2449645996094 501.1894226074219 333.3386535644531 500.353515625 325.57470703125 C 503.52398681640625 318.4527893066406 507.0946044921875 310.3797912597656 510.1837463378906 303.0232849121094 C 510.30767822265625 292.45587158203125 510.5909423828125 280.9372253417969 510.41485595703125 262.9871826171875 C 504.36285400390625 266.1395263671875 496.885986328125 263.41265869140625 490.1273193359375 256.49359130859375 C 442.2076110839844 248.6433563232422 388.6067199707031 242.3104705810547 337.91741943359375 233.92111206054688 C 327.3534240722656 240.17945861816406 325.49371337890625 251.27122497558594 307.445068359375 249.41624450683594 C 307.14239501953125 267.2613830566406 293.23919677734375 268.4067687988281 280.9603576660156 265.7110290527344 C 272.8023986816406 266.7742614746094 264.9416198730469 266.5563049316406 254.22927856445312 264.3631591796875" stroke-width="0.0" fill="rgb(98, 105, 115)" opacity="0.87783456" stroke="rgb(0, 0, 0)" stroke-opacity="1.0" stroke-linecap="round" stroke-linejoin="round"/>
    <path d="M -1.1971650123596191 210.53640747070312 C -5.609659194946289 251.57566833496094 -6.268968105316162 288.8230895996094 -5.7642645835876465 325.306396484375 C 12.966720581054688 322.0225830078125 11.810389518737793 306.7958068847656 20.315860748291016 301.26556396484375 C 34.655635833740234 296.5644836425781 44.238895416259766 287.85858154296875 57.2664680480957 280.2234191894531 C 89.6761474609375 276.7771911621094 129.08514404296875 280.96697998046875 156.08865356445312 274.458984375 C 159.5946502685547 253.13768005371094 155.72120666503906 239.12734985351562 153.45370483398438 225.37022399902344 C 97.01937103271484 227.6573028564453 56.88672637939453 212.2312469482422 -1.1971650123596191 210.53640747070312" stroke-width="0.0" fill="rgb(126, 144, 154)" opacity="0.96221113" stroke="rgb(0, 0, 0)" stroke-opacity="1.0" stroke-linecap="round" stroke-linejoin="round"/>
    <path d="M 193.38525390625 147.41580200195312 C 188.6728515625 148.74679565429688 187.06333923339844 156.95738220214844 187.51193237304688 173.1553497314453 C 181.15249633789062 177.6739501953125 173.98252868652344 182.6025848388672 168.6279754638672 190.84881591796875 C 164.63385009765625 200.90237426757812 158.7015380859375 211.4029998779297 157.29855346679688 226.1307830810547 C 157.7921142578125 241.7848358154297 160.7964630126953 257.5023193359375 164.29859924316406 275.2267761230469 C 165.5880126953125 278.289794921875 171.2326202392578 277.781005859375 175.95144653320312 275.7565612792969 C 182.99420166015625 280.591552734375 186.97767639160156 285.9222717285156 184.02442932128906 295.877197265625 C 174.73155212402344 303.0469970703125 160.5248565673828 309.82861328125 147.97755432128906 318.99554443359375 C 143.19174194335938 321.9236145019531 140.6317138671875 324.9485778808594 141.70114135742188 330.8869323730469 C 143.34197998046875 338.4320373535156 145.0435028076172 346.03155517578125 149.1879119873047 349.9864196777344 C 154.40274047851562 344.1326904296875 152.33685302734375 335.9873962402344 160.7996368408203 329.6162414550781 C 172.30369567871094 324.3443603515625 182.142333984375 316.4457702636719 195.6405487060547 311.6767272949219 C 196.6877899169922 328.326416015625 191.83424377441406 349.6378173828125 194.937744140625 354.5381774902344 C 202.67520141601562 356.615966796875 208.5713348388672 355.1766357421875 209.8240509033203 353.0038146972656 C 210.37596130371094 342.5188293457031 213.84864807128906 333.2497253417969 214.90733337402344 318.96246337890625 C 216.50999450683594 290.2817687988281 213.6552276611328 262.48846435546875 211.9181671142578 236.66700744628906 C 216.62257385253906 228.91810607910156 226.2854461669922 224.09507751464844 228.18394470214844 209.12265014648438 C 217.99388122558594 198.87586975097656 210.44871520996094 188.71144104003906 203.29859924316406 178.60525512695312 C 203.22862243652344 166.39950561523438 211.1495819091797 161.7561798095703 208.89105224609375 153.111572265625 C 206.34640502929688 145.59390258789062 201.21194458007812 144.03955078125 193.38525390625 147.41580200195312" stroke-width="0.0" fill="rgb(82, 71, 68)" opacity="0.8639342" stroke="rgb(0, 0, 0)" stroke-opacity="1.0" stroke-linecap="round" stroke-linejoin="round"/>
    <path d="M 516.9478759765625 186.69967651367188 C 520.1005249023438 167.95079040527344 519.8323974609375 145.8671875 518.2620239257812 133.4611053466797 C 481.4664306640625 134.62969970703125 451.9027404785156 134.27940368652344 427.14520263671875 137.9618682861328 C 414.8977355957031 140.66603088378906 404.20892333984375 142.14013671875 400.2135009765625 150.32437133789062 C 401.0121765136719 156.1357421875 403.7525634765625 161.3782958984375 409.54119873046875 163.771728515625 C 433.1982727050781 168.72836303710938 463.5501403808594 167.4228057861328 500.15374755859375 166.20651245117188 C 502.87957763671875 168.6934814453125 501.18475341796875 180.89012145996094 516.9478759765625 186.69967651367188" stroke-width="0.0" fill="rgb(78, 80, 91)" opacity="0.90526205" stroke="rgb(0, 0, 0)" stroke-opacity="1.0" stroke-linecap="round" stroke-linejoin="round"/>
    <path d="M 268.36700439453125 212.02012634277344 C 277.5908508300781 216.98793029785156 288.34820556640625 216.61412048339844 302.89788818359375 221.21527099609375 C 318.6421813964844 215.9918212890625 340.1333923339844 217.03521728515625 361.95745849609375 216.34005737304688 C 395.2874755859375 206.1856689453125 430.29571533203125 211.90846252441406 451.64508056640625 194.43270874023438 C 412.48138427734375 184.66287231445312 367.976318359375 188.11546325683594 323.39678955078125 191.668212890625 C 308.58966064453125 191.4585723876953 300.260986328125 195.23031616210938 288.9300842285156 198.5361785888672 C 282.4942321777344 202.64378356933594 278.4509582519531 209.54153442382812 268.36700439453125 212.02012634277344" stroke-width="0.0" fill="rgb(81, 58, 53)" opacity="1.1262017" stroke="rgb(0, 0, 0)" stroke-opacity="1.0" stroke-linecap="round" stroke-linejoin="round"/>
    <path d="M -4.815985679626465 182.63662719726562 C -5.540709972381592 192.9003448486328 -4.98521614074707 204.5148468017578 -5.814720630645752 215.49801635742188 C 16.9533748626709 214.97628784179688 34.549922943115234 215.53895568847656 50.30896759033203 218.10804748535156 C 54.17957305908203 228.18284606933594 50.853355407714844 241.69525146484375 53.38650131225586 250.7060089111328 C 58.78181457519531 241.91311645507812 56.311363220214844 226.7678680419922 59.80267333984375 218.46141052246094 C 70.7314224243164 216.381103515625 83.67945098876953 216.75518798828125 93.87186431884766 212.75640869140625 C 81.36629486083984 201.37655639648438 76.47782135009766 189.6457061767578 58.203407287597656 187.6278533935547 C 39.666812896728516 185.1193389892578 21.099470138549805 183.94039916992188 -4.815985679626465 182.63662719726562" stroke-width="0.0" fill="rgb(127, 105, 82)" opacity="0.9797855" stroke="rgb(0, 0, 0)" stroke-opacity="1.0" stroke-linecap="round" stroke-linejoin="round"/>
    <path d="M 363.9996337890625 358.8094177246094 C 365.8907775878906 363.7367248535156 365.66387939453125 373.05413818359375 368.8668212890625 369.2490234375 C 390.1080017089844 369.67962646484375 405.2972106933594 381.2438049316406 427.31024169921875 384.80084228515625 C 433.0624084472656 380.2784118652344 442.3731689453125 378.68243408203125 441.5749816894531 373.310791015625 C 441.0584716796875 365.1894836425781 440.0759582519531 360.6977844238281 435.8802185058594 360.8031311035156 C 415.6742858886719 357.08087158203125 395.795654296875 351.2810363769531 377.1678466796875 350.90399169921875 C 369.7516784667969 351.51220703125 367.25042724609375 352.1596984863281 363.9996337890625 358.8094177246094" stroke-width="0.0" fill="rgb(148, 134, 111)" opacity="1.0184762" stroke="rgb(0, 0, 0)" stroke-opacity="1.0" stroke-linecap="round" stroke-linejoin="round"/>
    <path d="M 516.0638427734375 114.10457611083984 C 486.3645935058594 116.562744140625 462.5751037597656 119.89010620117188 440.99932861328125 126.0566635131836 C 434.2107238769531 129.1271514892578 424.0037536621094 131.8462677001953 418.1785583496094 138.30392456054688 C 451.0143737792969 133.8995361328125 482.6942138671875 133.6810302734375 517.9310302734375 135.26065063476562 C 517.0655517578125 122.74732971191406 518.26611328125 117.09103393554688 516.0638427734375 114.10457611083984" stroke-width="0.0" fill="rgb(136, 177, 217)" opacity="0.97526455" stroke="rgb(0, 0, 0)" stroke-opacity="1.0" stroke-linecap="round" stroke-linejoin="round"/>
    <path d="M 519.6600952148438 302.10174560546875 C 505.8550109863281 312.1235046386719 503.6996765136719 321.0650329589844 500.85614013671875 327.9920654296875 C 503.2078857421875 337.3889465332031 508.5124206542969 341.4328308105469 506.6705627441406 354.1318664550781 C 505.05731201171875 367.5538635253906 494.6029357910156 373.1932373046875 491.60040283203125 389.6514587402344 C 493.1907043457031 393.6591796875 497.69354248046875 396.2076416015625 520.3844604492188 397.36383056640625 C 520.9063720703125 374.52691650390625 521.0441284179688 344.8084411621094 519.6600952148438 302.10174560546875" stroke-width="0.0" fill="rgb(188, 163, 121)" opacity="0.99013865" stroke="rgb(0, 0, 0)" stroke-opacity="1.0" stroke-linecap="round" stroke-linejoin="round"/>
    <path d="M 298.3894348144531 437.0916748046875 C 323.8304138183594 440.17510986328125 344.08135986328125 443.2126770019531 360.24658203125 445.56964111328125 C 389.46630859375 445.1124267578125 412.0767517089844 444.2570495605469 435.5968933105469 441.36590576171875 C 443.1209411621094 440.75457763671875 444.6470031738281 438.5457763671875 447.8914794921875 433.2623596191406 C 468.465087890625 433.4242248535156 491.89984130859375 432.2575378417969 519.5098876953125 436.1925964355469 C 519.4891967773438 421.324462890625 519.5267944335938 408.65411376953125 519.1500854492188 397.3017883300781 C 493.7243957519531 394.7507019042969 475.65838623046875 390.75933837890625 456.2169494628906 392.3077087402344 C 449.04034423828125 388.0279846191406 442.2188415527344 384.6324157714844 433.51531982421875 382.10858154296875 C 423.54791259765625 383.3302917480469 415.9502868652344 381.90625 407.87677001953125 379.6307067871094 C 410.9027404785156 378.6508483886719 414.6424255371094 377.501953125 420.13623046875 376.7508544921875 C 395.5556335449219 379.0970764160156 383.0714111328125 369.75567626953125 370.57391357421875 363.63006591796875 C 367.32049560546875 381.5741271972656 357.78411865234375 380.8022155761719 353.2755126953125 384.5057678222656 C 335.84576416015625 401.8238220214844 321.0793762207031 420.8403015136719 298.3894348144531 437.0916748046875" stroke-width="0.0" fill="rgb(37, 39, 39)" opacity="1.0302578" stroke="rgb(0, 0, 0)" stroke-opacity="1.0" stroke-linecap="round" stroke-linejoin="round"/>
    <path d="M 351.71478271484375 235.4456024169922 C 393.0738525390625 242.34164428710938 439.6319885253906 247.14590454101562 488.2611389160156 252.7752685546875 C 489.95526123046875 244.51856994628906 481.08258056640625 243.7504119873047 475.2579345703125 235.76380920410156 C 446.17706298828125 229.2157440185547 406.1830749511719 229.91148376464844 371.0873107910156 222.1049346923828 C 363.457763671875 225.27622985839844 354.4366760253906 224.36094665527344 351.71478271484375 235.4456024169922" stroke-width="0.0" fill="rgb(207, 211, 211)" opacity="0.9914329" stroke="rgb(0, 0, 0)" stroke-opacity="1.0" stroke-linecap="round" stroke-linejoin="round"/>
    <path d="M 294.4579162597656 196.1042022705078 C 344.60894775390625 186.99636840820312 396.7823791503906 190.49620056152344 453.0111389160156 190.0396728515625 C 419.77435302734375 178.9352569580078 386.5241394042969 177.6370391845703 359.5848693847656 179.19940185546875 C 329.47039794921875 180.3708953857422 309.6371154785156 183.69967651367188 294.4579162597656 196.1042022705078" stroke-width="0.0" fill="rgb(121, 165, 211)" opacity="0.9575303" stroke="rgb(0, 0, 0)" stroke-opacity="1.0" stroke-linecap="round" stroke-linejoin="round"/>
    <path d="M -2.3444740772247314 150.00189208984375 C -6.0807318687438965 160.1376190185547 -3.7651684284210205 172.42214965820312 -1.8941113948822021 185.8096160888672 C 20.420541763305664 183.44993591308594 40.14799499511719 186.16073608398438 62.5791015625 188.42724609375 C 54.15615463256836 177.27120971679688 35.461788177490234 176.88819885253906 18.52710723876953 174.19293212890625 C 12.650110244750977 164.85577392578125 13.126575469970703 151.6709747314453 -2.3444740772247314 150.00189208984375" stroke-width="0.0" fill="rgb(195, 200, 162)" opacity="0.9992261" stroke="rgb(0, 0, 0)" stroke-opacity="1.0" stroke-linecap="round" stroke-linejoin="round"/>
    <path d="M 371.4410095214844 209.61831665039062 C 370.893310546875 223.95858764648438 378.69775390625 221.51898193359375 388.32403564453125 222.3939971923828 C 430.10260009765625 224.19290161132812 471.2648010253906 221.75953674316406 516.8053588867188 223.9330291748047 C 517.5303955078125 209.19622802734375 518.6138305664062 196.281982421875 517.1725463867188 186.9770965576172 C 506.98663330078125 186.62132263183594 503.16485595703125 182.2860870361328 500.8797607421875 175.1325225830078 C 501.94512939453125 170.28770446777344 505.7101135253906 166.20249938964844 495.93121337890625 165.12588500976562 C 480.9772033691406 162.88858032226562 467.9964294433594 172.0765838623047 451.64776611328125 169.60845947265625 C 432.9078063964844 168.47377014160156 418.637451171875 166.94288635253906 405.1831359863281 165.7105712890625 C 403.0508728027344 163.76197814941406 401.79876708984375 157.89810180664062 395.6801452636719 155.2135772705078 C 400.47540283203125 160.34036254882812 404.38116455078125 164.11834716796875 403.0906982421875 173.27536010742188 C 415.0400085449219 176.7091522216797 428.0094909667969 182.9641571044922 440.9732971191406 188.65756225585938 C 448.3173828125 189.68580627441406 452.1019287109375 192.2129669189453 453.5163269042969 204.7436065673828 C 425.39093017578125 202.64248657226562 396.355224609375 206.22755432128906 371.4410095214844 209.61831665039062" stroke-width="0.0" fill="rgb(206, 229, 238)" opacity="0.9430441" stroke="rgb(0, 0, 0)" stroke-opacity="1.0" stroke-linecap="round" stroke-linejoin="round"/>
    <path d="M 216.16314697265625 283.6199951171875 C 227.64122009277344 284.4675598144531 238.63584899902344 283.6897888183594 249.67762756347656 279.2442932128906 C 249.89990234375 266.2723388671875 250.1188507080078 255.1249542236328 262.0809326171875 253.6837158203125 C 278.1447448730469 242.802978515625 293.49578857421875 249.72898864746094 315.5890197753906 264.2210998535156 C 323.2161560058594 240.04441833496094 332.8238220214844 232.61123657226562 338.0634765625 227.7528076171875 C 348.6839904785156 234.30226135253906 356.4943542480469 225.18601989746094 370.1219787597656 218.90753173828125 C 355.6532897949219 216.15054321289062 335.2767333984375 220.0856170654297 317.6146240234375 218.3547821044922 C 308.792724609375 221.75204467773438 307.0904235839844 228.34107971191406 308.8601379394531 227.31837463378906 C 292.3629455566406 224.26199340820312 292.59039306640625 228.09141540527344 292.77685546875 220.0044403076172 C 280.830322265625 217.71182250976562 269.46539306640625 217.4588623046875 258.60784912109375 219.4053192138672 C 272.7008056640625 222.8690948486328 276.8912658691406 216.35435485839844 271.6793212890625 223.18478393554688 C 247.62583923339844 225.14833068847656 226.37474060058594 222.02760314941406 212.43943786621094 231.21836853027344 C 206.59664916992188 247.1688232421875 210.38101196289062 264.35906982421875 216.16314697265625 283.6199951171875" stroke-width="0.0" fill="rgb(129, 152, 162)" opacity="0.98109144" stroke="rgb(0, 0, 0)" stroke-opacity="1.0" stroke-linecap="round" stroke-linejoin="round"/>
    <path d="M 464.14898681640625 224.1014404296875 C 479.4559020996094 232.4802703857422 484.43731689453125 247.16966247558594 498.68817138671875 250.78024291992188 C 491.8292236328125 268.63543701171875 508.1798400878906 267.1536865234375 509.6719665527344 272.7852783203125 C 507.83868408203125 262.7117614746094 510.5484924316406 243.80641174316406 517.3780517578125 222.69126892089844 C 496.7767028808594 222.41123962402344 481.4930419921875 222.7624053955078 464.14898681640625 224.1014404296875" stroke-width="0.0" fill="rgb(128, 170, 183)" opacity="1.0178597" stroke="rgb(0, 0, 0)" stroke-opacity="1.0" stroke-linecap="round" stroke-linejoin="round"/>
    <path d="M 294.9839782714844 250.9217987060547 C 294.9944763183594 248.92738342285156 272.9524230957031 246.0292510986328 277.4177551269531 247.3640899658203 C 273.7728576660156 248.65211486816406 267.9115905761719 248.73013305664062 253.58026123046875 247.70465087890625 C 251.95960998535156 253.16502380371094 250.50233459472656 269.31744384765625 255.614990234375 278.93896484375 C 256.6772766113281 274.6885986328125 252.53213500976562 266.3882141113281 260.01873779296875 265.74658203125 C 278.946533203125 267.8477783203125 297.7417907714844 266.4258728027344 318.6829833984375 266.26251220703125 C 309.1941833496094 258.0462341308594 298.4681701660156 253.05421447753906 294.9839782714844 250.9217987060547" stroke-width="0.0" fill="rgb(116, 118, 120)" opacity="0.9999987" stroke="rgb(0, 0, 0)" stroke-opacity="1.0" stroke-linecap="round" stroke-linejoin="round"/>
    <path d="M 353.3157043457031 343.4287109375 C 348.5184020996094 343.3634033203125 344.61083984375 343.05908203125 344.5260925292969 340.9935302734375 C 346.52642822265625 349.4445495605469 348.19964599609375 355.6167907714844 348.85125732421875 351.1249694824219 C 347.0075988769531 354.9722595214844 349.2514343261719 362.26708984375 348.1741027832031 372.5034484863281 C 348.4263610839844 378.6968688964844 349.2330627441406 382.55682373046875 346.67901611328125 370.8343200683594 C 345.392822265625 378.6837463378906 351.2955017089844 381.3025817871094 357.3948059082031 375.10919189453125 C 359.6274108886719 362.5166320800781 356.5585021972656 353.6203308105469 353.3157043457031 343.4287109375" stroke-width="0.0" fill="rgb(109, 67, 70)" opacity="1.0130186" stroke="rgb(0, 0, 0)" stroke-opacity="1.0" stroke-linecap="round" stroke-linejoin="round"/>
    <path d="M 259.6825866699219 282.2375793457031 C 247.01795959472656 289.8669738769531 237.90797424316406 296.2801513671875 221.74325561523438 297.4874267578125 C 233.40048217773438 304.1007385253906 246.7136993408203 304.9621276855469 262.8831481933594 304.03131103515625 C 260.6410827636719 299.0748291015625 263.0256652832031 291.94830322265625 259.6825866699219 282.2375793457031" stroke-width="0.0" fill="rgb(40, 29, 38)" opacity="1.0317211" stroke="rgb(0, 0, 0)" stroke-opacity="1.0" stroke-linecap="round" stroke-linejoin="round"/>
    <path d="M 161.3797607421875 268.0987243652344 C 156.64268493652344 277.5773620605469 154.57858276367188 286.1050720214844 161.78530883789062 294.0440368652344 C 158.99888610839844 295.3930358886719 163.91799926757812 294.75482177734375 167.23104858398438 298.1280517578125 C 173.15196228027344 292.97174072265625 177.69650268554688 291.3644104003906 175.1224822998047 277.9645690917969 C 172.03257751464844 275.2847595214844 162.93893432617188 276.59564208984375 161.3797607421875 268.0987243652344" stroke-width="0.0" fill="rgb(75, 65, 48)" opacity="0.97392464" stroke="rgb(0, 0, 0)" stroke-opacity="1.0" stroke-linecap="round" stroke-linejoin="round"/>
    <path d="M 71.48081970214844 192.46435546875 C 54.3345832824707 184.44960021972656 27.806995391845703 185.52044677734375 -4.8007426261901855 185.2510528564453 C -5.627923965454102 230.25257873535156 -5.817625045776367 276.92340087890625 -3.082609176635742 330.557373046875 C 15.15132999420166 302.4971923828125 38.68022918701172 293.861083984375 55.42221450805664 278.85406494140625 C 56.91893768310547 259.3299865722656 58.982666015625 239.11981201171875 62.22282409667969 219.6850128173828 C 70.44036865234375 216.4199981689453 82.96681213378906 217.55479431152344 91.91867065429688 213.17149353027344 C 83.21075439453125 206.03262329101562 80.93604278564453 196.23629760742188 71.48081970214844 192.46435546875" stroke-width="0.0" fill="rgb(103, 119, 130)" opacity="0.9902588" stroke="rgb(0, 0, 0)" stroke-opacity="1.0" stroke-linecap="round" stroke-linejoin="round"/>
    <path d="M 194.05503845214844 168.8937530517578 C 182.3851318359375 176.28070068359375 176.5538787841797 181.3333282470703 170.82498168945312 187.8619842529297 C 166.2666778564453 194.900390625 163.35653686523438 205.375244140625 159.6805419921875 211.41976928710938 C 171.92218017578125 227.71446228027344 164.3784637451172 247.54345703125 161.85693359375 257.8056640625 C 181.17623901367188 256.3037414550781 194.45150756835938 248.3133544921875 208.4984893798828 251.6793975830078 C 209.34588623046875 245.60409545898438 211.18753051757812 239.13754272460938 212.5105743408203 232.38070678710938 C 215.46707153320312 227.79364013671875 222.30592346191406 224.6264190673828 224.8924102783203 220.8081817626953 C 225.420654296875 217.2160186767578 227.4718780517578 210.69732666015625 224.34219360351562 204.98068237304688 C 212.66001892089844 194.12062072753906 204.89739990234375 178.90231323242188 194.05503845214844 168.8937530517578" stroke-width="0.0" fill="rgb(80, 80, 77)" opacity="0.9375484" stroke="rgb(0, 0, 0)" stroke-opacity="1.0" stroke-linecap="round" stroke-linejoin="round"/>
    <path d="M 182.59556579589844 249.73590087890625 C 176.69970703125 252.39207458496094 173.23680114746094 253.54318237304688 173.94461059570312 255.92767333984375 C 176.62815856933594 271.9140625 185.87435913085938 279.5285949707031 186.1739959716797 294.85333251953125 C 174.5965118408203 303.83026123046875 159.16436767578125 310.8235778808594 145.8317413330078 320.8212890625 C 142.52044677734375 322.3616638183594 141.48980712890625 329.4220275878906 144.2249298095703 339.03533935546875 C 146.12197875976562 340.94110107421875 143.16619873046875 346.0144348144531 151.28953552246094 344.63043212890625 C 152.57078552246094 338.0282287597656 155.50552368164062 330.5162658691406 165.8044891357422 331.094970703125 C 174.02442932128906 324.70928955078125 182.693115234375 316.6869812011719 194.31747436523438 311.2655944824219 C 193.362060546875 327.0152282714844 192.07666015625 337.059814453125 194.6288299560547 352.5464782714844 C 193.95132446289062 356.0121154785156 199.538330078125 355.0608215332031 208.40756225585938 354.0594177246094 C 210.218505859375 343.7272033691406 213.6418914794922 329.0888366699219 216.29554748535156 308.8179016113281 C 216.19564819335938 290.84228515625 210.78184509277344 273.0505065917969 209.97006225585938 251.0684814453125 C 204.58229064941406 251.5725860595703 191.88743591308594 249.4484405517578 182.59556579589844 249.73590087890625" stroke-width="0.0" fill="rgb(74, 71, 72)" opacity="0.8888519" stroke="rgb(0, 0, 0)" stroke-opacity="1.0" stroke-linecap="round" stroke-linejoin="round"/>
    <path d="M 97.12116241455078 370.8062744140625 C 103.10041046142578 374.25592041015625 116.04350280761719 375.69610595703125 130.5587615966797 374.9358215332031 C 150.75006103515625 371.31158447265625 171.8430938720703 370.6373291015625 182.87783813476562 360.1352233886719 C 170.82142639160156 353.4632873535156 155.73484802246094 356.825927734375 130.22982788085938 355.5620422363281 C 120.06282806396484 358.74859619140625 108.5794448852539 358.7561340332031 100.21131896972656 360.7368469238281 C 96.55149841308594 365.962158203125 92.98558807373047 364.8585510253906 97.12116241455078 370.8062744140625" stroke-width="0.0" fill="rgb(53, 51, 48)" opacity="1.0074463" stroke="rgb(0, 0, 0)" stroke-opacity="1.0" stroke-linecap="round" stroke-linejoin="round"/>
    <path d="M 200.05819702148438 144.34967041015625 C 194.27133178710938 145.7028350830078 189.6346435546875 149.48301696777344 188.5999298095703 154.293212890625 C 186.03326416015625 158.62234497070312 190.0681610107422 163.00228881835938 188.38589477539062 173.0919189453125 C 194.00485229492188 172.4820098876953 196.4949493408203 174.72885131835938 202.3208770751953 177.6783447265625 C 204.40721130371094 170.2202911376953 207.73387145996094 164.1687774658203 209.61468505859375 157.9054718017578 C 207.940185546875 147.935546875 205.76809692382812 146.513427734375 200.05819702148438 144.34967041015625" stroke-width="0.0" fill="rgb(34, 37, 44)" opacity="0.98480237" stroke="rgb(0, 0, 0)" stroke-opacity="1.0" stroke-linecap="round" stroke-linejoin="round"/>
    <path d="M 313.7373962402344 250.77308654785156 C 307.6332702636719 251.55296325683594 295.9205322265625 249.46234130859375 287.8550109863281 248.69708251953125 C 274.8492736816406 248.64401245117188 265.7138366699219 251.35235595703125 257.5217590332031 256.82830810546875 C 250.59695434570312 267.7662353515625 245.16683959960938 281.66461181640625 246.74758911132812 300.3158264160156 C 267.7220764160156 305.59454345703125 290.8572082519531 301.7710876464844 313.7091064453125 301.5794982910156 C 319.4537048339844 284.5967712402344 319.4478454589844 271.87353515625 313.7373962402344 250.77308654785156" stroke-width="0.0" fill="rgb(88, 80, 79)" opacity="0.8591647" stroke="rgb(0, 0, 0)" stroke-opacity="1.0" stroke-linecap="round" stroke-linejoin="round"/>
    <path d="M 301.7127685546875 439.73974609375 C 326.96270751953125 439.03448486328125 350.705810546875 445.514404296875 368.14501953125 446.6019287109375 C 398.8324279785156 444.9294738769531 418.3109130859375 443.9413757324219 439.8554992675781 442.0748596191406 C 443.0485534667969 440.24749755859375 446.2883605957031 438.51531982421875 448.6327819824219 431.3150939941406 C 404.5823059082031 427.8092956542969 371.59100341796875 417.4903564453125 320.8674621582031 418.9991149902344 C 315.338134765625 424.91253662109375 298.8134765625 427.047119140625 301.7127685546875 439.73974609375" stroke-width="0.0" fill="rgb(85, 81, 72)" opacity="0.9858456" stroke="rgb(0, 0, 0)" stroke-opacity="1.0" stroke-linecap="round" stroke-linejoin="round"/>
    <path d="M 193.0537109375 313.5075988769531 C 178.52255249023438 316.2784729003906 169.61277770996094 324.4454040527344 157.79212951660156 331.5118408203125 C 155.10076904296875 337.0530700683594 151.53822326660156 344.4187927246094 152.1250762939453 353.9942626953125 C 161.7512969970703 359.8077697753906 176.0087432861328 357.73162841796875 191.27210998535156 354.908935546875 C 194.6659393310547 343.23980712890625 199.7996826171875 325.42486572265625 193.0537109375 313.5075988769531" stroke-width="0.0" fill="rgb(190, 169, 134)" opacity="0.9155134" stroke="rgb(0, 0, 0)" stroke-opacity="1.0" stroke-linecap="round" stroke-linejoin="round"/>
    <path d="M 253.52488708496094 215.1071319580078 C 277.538330078125 218.92201232910156 299.7962646484375 213.73678588867188 295.9536437988281 225.5424346923828 C 331.9931640625 218.04823303222656 356.9469299316406 222.38961791992188 370.5882263183594 212.91714477539062 C 343.3205261230469 203.18719482421875 312.5451965332031 202.63230895996094 281.14794921875 203.20654296875 C 267.41357421875 204.2239227294922 260.322509765625 208.4188690185547 253.52488708496094 215.1071319580078" stroke-width="0.0" fill="rgb(129, 121, 109)" opacity="1.068537" stroke="rgb(0, 0, 0)" stroke-opacity="1.0" stroke-linecap="round" stroke-linejoin="round"/>
    <path d="M 147.12413024902344 262.4286193847656 C 127.60497283935547 260.0936279296875 112.10765075683594 263.1257629394531 96.51290130615234 267.8564147949219 C 87.0221176147461 267.1105041503906 83.71186065673828 267.2074279785156 84.37053680419922 278.6002502441406 C 97.38407897949219 282.04510498046875 113.2271728515625 281.6098937988281 135.34596252441406 278.35308837890625 C 144.6876983642578 277.27117919921875 149.5342254638672 275.38519287109375 147.12413024902344 262.4286193847656" stroke-width="0.0" fill="rgb(25, 24, 32)" opacity="0.9965919" stroke="rgb(0, 0, 0)" stroke-opacity="1.0" stroke-linecap="round" stroke-linejoin="round"/>
    <path d="M 330.5928955078125 300.9230651855469 C 327.2753601074219 304.7314758300781 324.6550598144531 313.2905578613281 326.19476318359375 331.3741149902344 C 325.9503173828125 332.38836669921875 328.4351501464844 337.35247802734375 342.8498229980469 334.58392333984375 C 346.02178955078125 323.3968200683594 347.0118713378906 313.91009521484375 345.1268310546875 303.18890380859375 C 345.5102844238281 298.927978515625 336.8468933105469 299.58514404296875 330.5928955078125 300.9230651855469" stroke-width="0.0" fill="rgb(10, 10, 17)" opacity="0.999331" stroke="rgb(0, 0, 0)" stroke-opacity="1.0" stroke-linecap="round" stroke-linejoin="round"/>
    <path d="M -1.2063727378845215 173.75453186035156 C -4.0169548988342285 175.7725372314453 -2.6299266815185547 180.03656005859375 -1.8555948734283447 185.33447265625 C 20.193439483642578 184.69097900390625 40.4506950378418 185.79310607910156 61.904457092285156 188.25723266601562 C 60.39262771606445 180.50245666503906 51.219398498535156 180.97169494628906 45.420589447021484 178.24497985839844 C 31.066848754882812 175.97718811035156 15.105833053588867 175.32752990722656 -1.2063727378845215 173.75453186035156" stroke-width="0.0" fill="rgb(129, 173, 212)" opacity="0.9946593" stroke="rgb(0, 0, 0)" stroke-opacity="1.0" stroke-linecap="round" stroke-linejoin="round"/>
    <path d="M 350.69757080078125 235.60682678222656 C 357.6939392089844 268.8362121582031 345.8893737792969 296.5338134765625 346.190673828125 344.3665466308594 C 344.2840881347656 358.15411376953125 350.2593078613281 365.9405212402344 356.3493957519531 379.6208801269531 C 361.6665344238281 378.0320129394531 362.6512756347656 372.5924377441406 369.2281494140625 371.8573303222656 C 369.4607238769531 365.5921936035156 372.24200439453125 359.95867919921875 372.7632751464844 351.2110290527344 C 395.8891296386719 352.4167785644531 415.14990234375 360.1315002441406 441.3711242675781 362.4653015136719 C 440.20147705078125 373.374755859375 445.7862548828125 379.3021240234375 457.5260925292969 391.5615539550781 C 462.542724609375 393.1047058105469 475.56427001953125 394.61065673828125 490.6249694824219 395.7823791503906 C 494.78082275390625 379.72747802734375 504.5428771972656 371.6578369140625 508.21990966796875 358.0949401855469 C 509.5318298339844 342.137451171875 504.350830078125 335.4409484863281 499.7939758300781 331.0316467285156 C 502.4482727050781 320.8843078613281 506.1938781738281 314.5448303222656 515.8278198242188 308.740234375 C 518.8052368164062 296.2937927246094 517.8665161132812 287.649658203125 513.2711181640625 274.5968322753906 C 508.01287841796875 281.28302001953125 508.5797424316406 286.9481506347656 501.0057067871094 284.11407470703125 C 499.24627685546875 273.1673278808594 494.17474365234375 264.06805419921875 495.7839050292969 253.64144897460938 C 486.8281555175781 249.07498168945312 485.95892333984375 239.01898193359375 475.2364807128906 236.1127166748047 C 441.6373291015625 231.21914672851562 405.6875305175781 227.51011657714844 375.1949157714844 223.34158325195312 C 362.6505126953125 225.09898376464844 356.067626953125 224.97088623046875 350.69757080078125 235.60682678222656" stroke-width="0.0" fill="rgb(79, 63, 61)" opacity="0.9286347" stroke="rgb(0, 0, 0)" stroke-opacity="1.0" stroke-linecap="round" stroke-linejoin="round"/>
    <path d="M 293.1341552734375 222.17933654785156 C 266.5848083496094 227.27517700195312 233.0407257080078 219.717041015625 214.98240661621094 228.00784301757812 C 211.6930389404297 233.44866943359375 207.3590545654297 245.31649780273438 210.04270935058594 255.5212860107422 C 210.75131225585938 266.61785888671875 211.09378051757812 276.0194396972656 216.99583435058594 284.1672668457031 C 227.4004669189453 282.89788818359375 240.14268493652344 284.1024169921875 247.94187927246094 278.12432861328125 C 251.4373016357422 268.0600280761719 252.20986938476562 252.9922637939453 253.77822875976562 238.22616577148438 C 265.78704833984375 233.52426147460938 279.06488037109375 228.4097900390625 293.1341552734375 222.17933654785156" stroke-width="0.0" fill="rgb(124, 167, 178)" opacity="0.97339064" stroke="rgb(0, 0, 0)" stroke-opacity="1.0" stroke-linecap="round" stroke-linejoin="round"/>
    <path d="M 316.60577392578125 232.76077270507812 C 303.8232727050781 227.36801147460938 294.4736328125 224.69143676757812 280.7942810058594 227.9169464111328 C 269.6582946777344 230.3660125732422 259.7290344238281 230.29295349121094 256.2980651855469 235.5603485107422 C 253.7926025390625 237.9058380126953 252.7938995361328 243.64707946777344 252.6279754638672 251.072509765625 C 271.2212219238281 249.2591552734375 294.47607421875 251.14871215820312 316.6954345703125 251.8609161376953 C 319.27783203125 248.93505859375 318.6965637207031 241.7196502685547 316.60577392578125 232.76077270507812" stroke-width="0.0" fill="rgb(154, 160, 161)" opacity="1.0177708" stroke="rgb(0, 0, 0)" stroke-opacity="1.0" stroke-linecap="round" stroke-linejoin="round"/>
    <path d="M 337.6969909667969 228.3941650390625 C 334.7892150878906 232.37477111816406 329.53009033203125 235.1930389404297 325.9495849609375 241.77073669433594 C 331.31634521484375 252.27267456054688 330.11737060546875 268.47308349609375 334.7458190917969 281.8459167480469 C 343.41436767578125 284.9905700683594 339.7353515625 271.98199462890625 344.822509765625 278.5875244140625 C 351.5524597167969 279.3688049316406 353.4585266113281 277.5167236328125 353.3355407714844 269.9398193359375 C 353.2147521972656 257.0192565917969 353.2876892089844 244.66629028320312 350.2939758300781 236.8915252685547 C 346.8028259277344 233.51748657226562 343.8105773925781 230.67108154296875 337.6969909667969 228.3941650390625" stroke-width="0.0" fill="rgb(104, 85, 79)" opacity="0.957048" stroke="rgb(0, 0, 0)" stroke-opacity="1.0" stroke-linecap="round" stroke-linejoin="round"/>
    <path d="M 54.44684600830078 269.85748291015625 C 61.40011978149414 274.1179504394531 71.45863342285156 276.2350769042969 84.41262817382812 279.13397216796875 C 85.95935821533203 273.7175598144531 85.62666320800781 267.8305969238281 87.50819396972656 267.9010009765625 C 109.45633697509766 267.8187255859375 129.15513610839844 264.3710021972656 146.82113647460938 257.9277038574219 C 149.7694091796875 258.2261047363281 151.62489318847656 254.9595947265625 154.98086547851562 251.5354461669922 C 150.6904754638672 245.3920440673828 156.49732971191406 234.6342010498047 153.96957397460938 224.05360412597656 C 122.65000915527344 224.4261016845703 92.27873229980469 221.81277465820312 60.86076354980469 223.11752319335938 C 61.991416931152344 237.00677490234375 59.15802001953125 250.80470275878906 54.44684600830078 269.85748291015625" stroke-width="0.0" fill="rgb(111, 159, 171)" opacity="0.975451" stroke="rgb(0, 0, 0)" stroke-opacity="1.0" stroke-linecap="round" stroke-linejoin="round"/>
    <path d="M 451.5469970703125 439.0296325683594 C 446.3482971191406 437.05950927734375 448.357666015625 444.6791687011719 446.11712646484375 446.5523681640625 C 447.7326965332031 463.5121765136719 459.8415832519531 462.1741943359375 455.9158020019531 472.0047912597656 C 461.77142333984375 471.68560791015625 465.4577331542969 473.52593994140625 471.6582336425781 473.6426086425781 C 462.6376953125 474.6930847167969 473.7580871582031 482.48101806640625 462.2696533203125 486.5750732421875 C 472.9251708984375 486.4960021972656 471.7055358886719 489.6331481933594 476.6070556640625 502.185546875 C 476.39764404296875 504.13323974609375 474.4928894042969 505.1412658691406 469.2283935546875 517.107177734375 C 485.0938415527344 517.1427001953125 498.0126953125 517.1561889648438 517.4627075195312 517.1864013671875 C 517.4890747070312 487.8703918457031 517.5308837890625 464.6121520996094 515.7527465820312 443.99200439453125 C 507.60797119140625 435.5809326171875 499.8682556152344 435.4497985839844 490.7206115722656 432.28790283203125 C 473.72552490234375 434.2415771484375 459.3796691894531 432.44586181640625 451.5469970703125 439.0296325683594" stroke-width="0.0" fill="rgb(196, 175, 133)" opacity="1.0031883" stroke="rgb(0, 0, 0)" stroke-opacity="1.0" stroke-linecap="round" stroke-linejoin="round"/>
    <path d="M 448.9138488769531 190.34588623046875 C 425.1435546875 189.4833984375 385.3518371582031 189.59490966796875 349.20684814453125 191.33714294433594 C 324.37677001953125 192.966552734375 297.8337097167969 192.93951416015625 284.9903869628906 199.40957641601562 C 301.6142883300781 211.8998565673828 330.85333251953125 207.53280639648438 362.3861999511719 206.77320861816406 C 358.5994567871094 211.42547607421875 364.8305969238281 209.0098114013672 367.8263244628906 219.10018920898438 C 372.1431884765625 215.4218292236328 371.7126770019531 208.0253448486328 370.82421875 202.59210205078125 C 392.5428771972656 199.35003662109375 388.0447998046875 204.53860473632812 389.60150146484375 207.7617950439453 C 415.5627136230469 205.25254821777344 431.19488525390625 203.9593505859375 445.48834228515625 203.65603637695312 C 452.8149719238281 196.83309936523438 455.39501953125 204.8287353515625 448.9138488769531 190.34588623046875" stroke-width="0.0" fill="rgb(131, 86, 45)" opacity="0.8974584" stroke="rgb(0, 0, 0)" stroke-opacity="1.0" stroke-linecap="round" stroke-linejoin="round"/>
    <path d="M 171.77178955078125 189.6108856201172 C 164.5196990966797 200.8241424560547 159.33303833007812 211.07623291015625 154.66744995117188 223.30548095703125 C 157.01193237304688 245.8878631591797 153.67005920410156 268.0801696777344 157.5136260986328 292.319091796875 C 155.5182342529297 295.3015441894531 159.0854034423828 295.385498046875 166.09893798828125 297.06158447265625 C 173.59129333496094 292.935302734375 176.7212371826172 285.576904296875 181.00624084472656 273.9818115234375 C 178.27438354492188 268.9161071777344 172.49119567871094 261.7010498046875 176.15484619140625 246.6648406982422 C 169.4814910888672 251.4435577392578 172.44131469726562 262.02783203125 166.80386352539062 271.0547180175781 C 166.63587951660156 265.7987976074219 168.35284423828125 270.2210388183594 161.62493896484375 268.6368103027344 C 166.7420654296875 245.57215881347656 167.8704071044922 218.5826416015625 171.77178955078125 189.6108856201172" stroke-width="0.0" fill="rgb(115, 105, 106)" opacity="0.87064236" stroke="rgb(0, 0, 0)" stroke-opacity="1.0" stroke-linecap="round" stroke-linejoin="round"/>
    <path d="M 85.04544067382812 279.76177978515625 C 72.39602661132812 282.0246887207031 65.99479675292969 285.401611328125 55.153846740722656 287.7315368652344 C 62.1533203125 305.5244445800781 46.07898712158203 311.17913818359375 55.45827102661133 323.0326232910156 C 65.57357788085938 323.4766845703125 73.40367126464844 319.6547546386719 84.02543640136719 320.36712646484375 C 83.5354232788086 306.8069152832031 85.10093688964844 293.8958740234375 85.04544067382812 279.76177978515625" stroke-width="0.0" fill="rgb(177, 170, 157)" opacity="1.0036767" stroke="rgb(0, 0, 0)" stroke-opacity="1.0" stroke-linecap="round" stroke-linejoin="round"/>
    <path d="M 468.7109375 171.73965454101562 C 467.6552429199219 166.3717803955078 468.69842529296875 161.82040405273438 465.6814270019531 158.97988891601562 C 462.4901428222656 159.0171661376953 456.8431091308594 155.44944763183594 443.2795104980469 156.1204376220703 C 426.2018127441406 150.23744201660156 413.7428894042969 149.39312744140625 404.20721435546875 164.60067749023438 C 420.3836975097656 168.30072021484375 444.7030944824219 168.35848999023438 468.7109375 171.73965454101562" stroke-width="0.0" fill="rgb(115, 63, 28)" opacity="0.9649481" stroke="rgb(0, 0, 0)" stroke-opacity="1.0" stroke-linecap="round" stroke-linejoin="round"/>
    <path d="M 41.67122268676758 301.5996398925781 C 32.516685485839844 299.7945861816406 25.477195739746094 302.25994873046875 17.12660789489746 305.4165954589844 C 17.56427001953125 310.58990478515625 15.900449752807617 318.4362487792969 14.233833312988281 327.100341796875 C 26.038740158081055 328.45623779296875 32.892704010009766 323.7103271484375 46.16496276855469 324.2701721191406 C 46.411415100097656 314.3276062011719 44.331260681152344 306.8829345703125 41.67122268676758 301.5996398925781" stroke-width="0.0" fill="rgb(155, 138, 108)" opacity="0.9995536" stroke="rgb(0, 0, 0)" stroke-opacity="1.0" stroke-linecap="round" stroke-linejoin="round"/>
    <path d="M 364.21044921875 218.50216674804688 C 350.86181640625 215.10304260253906 334.4766845703125 219.3749237060547 316.3003234863281 217.67254638671875 C 313.7713623046875 218.8746337890625 309.8834228515625 220.85482788085938 307.770263671875 222.68275451660156 C 319.9727783203125 229.12106323242188 316.6189270019531 241.89755249023438 323.6792297363281 255.28378295898438 C 322.5511779785156 235.2906036376953 332.515625 235.99105834960938 337.0271301269531 225.85598754882812 C 342.8262634277344 224.77822875976562 342.238525390625 228.64260864257812 342.1839599609375 232.9304962158203 C 351.9577941894531 227.02691650390625 359.04962158203125 228.21957397460938 364.21044921875 218.50216674804688" stroke-width="0.0" fill="rgb(143, 178, 188)" opacity="0.970916" stroke="rgb(0, 0, 0)" stroke-opacity="1.0" stroke-linecap="round" stroke-linejoin="round"/>
    <path d="M 256.8063659667969 331.66845703125 C 282.711669921875 335.3409423828125 314.2611999511719 334.2222900390625 345.1357421875 335.1328125 C 334.7027893066406 334.9368591308594 325.30169677734375 331.5742492675781 323.7511901855469 324.736083984375 C 303.8153076171875 326.7611999511719 277.3612365722656 323.8326110839844 256.8063659667969 331.66845703125" stroke-width="0.0" fill="rgb(43, 42, 39)" opacity="0.97739106" stroke="rgb(0, 0, 0)" stroke-opacity="1.0" stroke-linecap="round" stroke-linejoin="round"/>
    <path d="M 46.77277374267578 274.62835693359375 C 48.08229064941406 278.9823303222656 52.42625045776367 283.3235168457031 54.15598678588867 286.483642578125 C 73.27881622314453 285.34844970703125 83.45764923095703 288.82318115234375 86.72148895263672 280.8835144042969 C 82.19817352294922 274.3576965332031 68.65550231933594 279.8890380859375 68.07959747314453 269.2055358886719 C 53.18015670776367 269.2593994140625 48.79826354980469 266.41033935546875 46.77277374267578 274.62835693359375" stroke-width="0.0" fill="rgb(108, 106, 101)" opacity="0.9998198" stroke="rgb(0, 0, 0)" stroke-opacity="1.0" stroke-linecap="round" stroke-linejoin="round"/>
    <path d="M 293.3903503417969 503.5655822753906 C 293.5484619140625 509.0506286621094 299.9797058105469 506.9111328125 303.23907470703125 519.092041015625 C 317.4065246582031 520.4336547851562 330.9708557128906 521.5278930664062 338.181396484375 516.1456909179688 C 339.62225341796875 498.2290954589844 324.89117431640625 503.21807861328125 312.099853515625 497.4384765625 C 306.49200439453125 497.5451965332031 299.9367370605469 501.6195068359375 293.3903503417969 503.5655822753906" stroke-width="0.0" fill="rgb(174, 152, 110)" opacity="0.9998163" stroke="rgb(0, 0, 0)" stroke-opacity="1.0" stroke-linecap="round" stroke-linejoin="round"/>
    <path d="M 372.2380676269531 368.03753662109375 C 369.3533630371094 379.3514709472656 381.974609375 376.0453186035156 393.518310546875 379.1787414550781 C 408.57647705078125 381.16693115234375 428.8545227050781 382.30743408203125 442.4937744140625 379.38922119140625 C 415.92718505859375 375.024169921875 395.11883544921875 370.0102233886719 372.2380676269531 368.03753662109375" stroke-width="0.0" fill="rgb(172, 149, 115)" opacity="0.9861646" stroke="rgb(0, 0, 0)" stroke-opacity="1.0" stroke-linecap="round" stroke-linejoin="round"/>
    <path d="M 457.905517578125 133.49244689941406 C 439.27020263671875 137.02142333984375 420.6490173339844 138.0439910888672 403.425537109375 140.9537353515625 C 402.1859130859375 145.5941162109375 399.346435546875 150.47738647460938 397.2416076660156 155.4425506591797 C 412.2410583496094 159.15029907226562 429.0224304199219 156.86636352539062 453.8963623046875 152.92807006835938 C 454.32415771484375 150.4748992919922 457.6495666503906 144.11221313476562 457.905517578125 133.49244689941406" stroke-width="0.0" fill="rgb(116, 84, 44)" opacity="0.96467215" stroke="rgb(0, 0, 0)" stroke-opacity="1.0" stroke-linecap="round" stroke-linejoin="round"/>
    <path d="M 457.07025146484375 137.02664184570312 C 456.25201416015625 143.32931518554688 456.275146484375 146.54014587402344 458.2493896484375 149.2775421142578 C 473.3399658203125 152.01968383789062 491.73883056640625 152.85716247558594 518.2886962890625 151.6976776123047 C 518.42138671875 144.60159301757812 518.749755859375 136.57310485839844 518.8546142578125 132.62452697753906 C 490.65045166015625 132.1187744140625 471.4730224609375 132.3791961669922 457.07025146484375 137.02664184570312" stroke-width="0.0" fill="rgb(117, 85, 44)" opacity="0.98742795" stroke="rgb(0, 0, 0)" stroke-opacity="1.0" stroke-linecap="round" stroke-linejoin="round"/>
    <path d="M 127.66289520263672 504.7962646484375 C 134.91439819335938 514.5909423828125 141.7071533203125 519.3806762695312 152.383056640625 516.7926635742188 C 160.13943481445312 505.690673828125 170.73974609375 506.3160400390625 173.90504455566406 502.1647033691406 C 168.93099975585938 493.0793151855469 158.51104736328125 497.1160888671875 147.1334991455078 495.611328125 C 139.62728881835938 498.3288269042969 129.9078369140625 500.74029541015625 127.66289520263672 504.7962646484375" stroke-width="0.0" fill="rgb(188, 166, 122)" opacity="0.99915" stroke="rgb(0, 0, 0)" stroke-opacity="1.0" stroke-linecap="round" stroke-linejoin="round"/>
    <path d="M 178.94752502441406 251.50299072265625 C 176.83285522460938 266.1890563964844 185.0564422607422 273.21435546875 187.88465881347656 288.62213134765625 C 186.7652587890625 295.6513671875 185.59266662597656 299.57373046875 187.01531982421875 302.4920654296875 C 190.31500244140625 295.469970703125 193.09547424316406 304.1145324707031 197.140869140625 309.3669128417969 C 197.01992797851562 320.9006042480469 195.41102600097656 336.8247985839844 193.78773498535156 351.986328125 C 197.04893493652344 356.1502685546875 200.9415283203125 356.1355895996094 208.16357421875 353.0261535644531 C 210.81874084472656 344.1517028808594 214.36306762695312 329.18487548828125 216.69712829589844 306.4767150878906 C 216.092041015625 289.6828918457031 211.44287109375 272.33984375 209.10861206054688 252.5742645263672 C 200.53350830078125 252.88375854492188 186.41004943847656 249.7523956298828 178.94752502441406 251.50299072265625" stroke-width="0.0" fill="rgb(29, 29, 35)" opacity="0.98424315" stroke="rgb(0, 0, 0)" stroke-opacity="1.0" stroke-linecap="round" stroke-linejoin="round"/>
    <path d="M -1.70270836353302 185.27395629882812 C -4.642075538635254 192.36830139160156 -5.193205833435059 201.0883331298828 -6.291898250579834 211.1882781982422 C 27.409879684448242 204.8280487060547 54.1460075378418 203.1127471923828 79.53184509277344 202.23696899414062 C 74.05657958984375 191.77320861816406 68.7791519165039 191.07675170898438 62.7264518737793 188.71133422851562 C 43.230064392089844 186.50442504882812 21.28839683532715 184.55447387695312 -1.70270836353302 185.27395629882812" stroke-width="0.0" fill="rgb(120, 82, 48)" opacity="1.0019791" stroke="rgb(0, 0, 0)" stroke-opacity="1.0" stroke-linecap="round" stroke-linejoin="round"/>
    <path d="M 189.52267456054688 293.495361328125 C 173.57395935058594 303.4638671875 157.19078063964844 313.1882019042969 140.5458984375 321.76031494140625 C 140.6729278564453 332.4630126953125 143.41635131835938 342.9788818359375 148.91940307617188 348.80120849609375 C 155.94142150878906 350.674072265625 150.58865356445312 335.4460754394531 157.20472717285156 332.0594482421875 C 170.84263610839844 323.4280090332031 183.8284912109375 317.1007080078125 197.4022674560547 308.2179260253906 C 196.8372039794922 304.42840576171875 188.01296997070312 303.2583923339844 189.52267456054688 293.495361328125" stroke-width="0.0" fill="rgb(27, 25, 26)" opacity="0.9995189" stroke="rgb(0, 0, 0)" stroke-opacity="1.0" stroke-linecap="round" stroke-linejoin="round"/>
    <path d="M 320.1593017578125 421.6107177734375 C 346.4731140136719 429.9994201660156 372.93927001953125 434.7887878417969 417.7573547363281 432.947265625 C 407.9440612792969 422.1971740722656 388.1804504394531 426.224609375 381.7750244140625 420.69610595703125 C 357.7272033691406 422.664794921875 331.57672119140625 415.0843200683594 320.1593017578125 421.6107177734375" stroke-width="0.0" fill="rgb(144, 131, 105)" opacity="0.957548" stroke="rgb(0, 0, 0)" stroke-opacity="1.0" stroke-linecap="round" stroke-linejoin="round"/>
    <path d="M 351.3493957519531 235.72825622558594 C 355.29168701171875 269.35546875 354.2939147949219 291.6346130371094 348.11834716796875 309.7356262207031 C 352.3023986816406 329.90545654296875 350.91766357421875 336.86572265625 363.4096984863281 347.4871520996094 C 379.9214172363281 352.0042724609375 410.37249755859375 355.5928649902344 437.4818420410156 362.05291748046875 C 446.9554138183594 364.0329895019531 455.2388610839844 360.9117736816406 465.46978759765625 356.4230651855469 C 472.50323486328125 345.9726257324219 477.3171081542969 325.90521240234375 480.4654235839844 304.5748596191406 C 482.058349609375 293.8612060546875 491.4939270019531 287.07952880859375 498.9096984863281 285.2887878417969 C 498.2127990722656 269.6981506347656 496.5382995605469 259.7655029296875 492.096923828125 252.87167358398438 C 444.0043029785156 248.287109375 397.0655517578125 242.33181762695312 351.3493957519531 235.72825622558594" stroke-width="0.0" fill="rgb(61, 49, 45)" opacity="1.0153706" stroke="rgb(0, 0, 0)" stroke-opacity="1.0" stroke-linecap="round" stroke-linejoin="round"/>
    <path d="M 515.9916381835938 280.03375244140625 C 501.2856140136719 288.9410400390625 484.6673583984375 287.4228820800781 479.352783203125 296.908447265625 C 473.55902099609375 312.946533203125 468.18231201171875 327.9812316894531 466.0818786621094 347.1167297363281 C 464.5941467285156 361.48968505859375 452.9603576660156 366.7075500488281 449.1802062988281 381.8572082519531 C 447.5123291015625 386.1658020019531 450.5896301269531 387.71771240234375 454.84893798828125 390.2924499511719 C 462.8340148925781 392.5187072753906 475.41253662109375 394.0389709472656 491.5991516113281 394.3900451660156 C 492.8948669433594 377.825439453125 506.5135192871094 372.6890869140625 507.3681945800781 356.6647033691406 C 509.5214538574219 341.9359130859375 504.573974609375 335.374267578125 498.8977966308594 330.2166748046875 C 502.1274108886719 321.5278625488281 507.39837646484375 316.0892028808594 514.626220703125 306.9563903808594 C 516.5382080078125 298.37017822265625 516.8239135742188 291.403564453125 515.9916381835938 280.03375244140625" stroke-width="0.0" fill="rgb(47, 48, 47)" opacity="0.96710825" stroke="rgb(0, 0, 0)" stroke-opacity="1.0" stroke-linecap="round" stroke-linejoin="round"/>
    <path d="M 48.53581237792969 243.10316467285156 C 42.25271987915039 236.5959014892578 37.04490661621094 237.8325958251953 26.800622940063477 237.8843994140625 C 15.121417999267578 239.0120086669922 7.668928146362305 244.02001953125 -1.948753833770752 247.985595703125 C -4.860385894775391 255.96954345703125 -5.191415309906006 266.4142150878906 -4.619176864624023 274.7605895996094 C 18.124425888061523 276.9981994628906 31.815401077270508 278.3025817871094 41.316009521484375 277.5357360839844 C 48.076576232910156 266.4194030761719 50.432064056396484 256.1304626464844 48.53581237792969 243.10316467285156" stroke-width="0.0" fill="rgb(123, 148, 158)" opacity="0.98603433" stroke="rgb(0, 0, 0)" stroke-opacity="1.0" stroke-linecap="round" stroke-linejoin="round"/>
    <path d="M -6.59054708480835 275.4029541015625 C -5.809749126434326 285.5595703125 -5.929551601409912 295.197509765625 0.059603266417980194 300.0909729003906 C 7.937901973724365 300.73773193359375 15.74094295501709 304.38641357421875 23.36743927001953 303.220703125 C 35.99557113647461 300.45916748046875 47.934871673583984 301.04913330078125 52.973976135253906 295.19921875 C 56.672523498535156 283.064208984375 50.39308166503906 281.1277160644531 41.22164535522461 275.5243225097656 C 32.09042739868164 273.9320068359375 16.289777755737305 274.6549377441406 -6.59054708480835 275.4029541015625" stroke-width="0.0" fill="rgb(103, 89, 68)" opacity="0.931729" stroke="rgb(0, 0, 0)" stroke-opacity="1.0" stroke-linecap="round" stroke-linejoin="round"/>
    <path d="M 108.06724548339844 213.97161865234375 C 100.52448272705078 204.98236083984375 92.36605072021484 202.78182983398438 77.95026397705078 200.36495971679688 C 56.14852523803711 206.29090881347656 23.446199417114258 202.8515625 -18.224319458007812 213.17507934570312 C 9.814178466796875 214.8379669189453 33.72784423828125 213.29544067382812 48.65022277832031 218.43411254882812 C 51.6972541809082 214.62062072753906 51.882022857666016 225.04884338378906 53.71079635620117 221.18276977539062 C 59.60111999511719 227.0873565673828 59.163108825683594 223.56430053710938 58.85227584838867 216.59811401367188 C 76.96668243408203 216.04052734375 93.78443145751953 214.9346160888672 108.06724548339844 213.97161865234375" stroke-width="0.0" fill="rgb(117, 85, 66)" opacity="0.98960423" stroke="rgb(0, 0, 0)" stroke-opacity="1.0" stroke-linecap="round" stroke-linejoin="round"/>
    <path d="M 60.57819747924805 223.01519775390625 C 53.416831970214844 217.1414031982422 49.783626556396484 222.12338256835938 48.07625198364258 232.74937438964844 C 47.913475036621094 249.36160278320312 45.04481506347656 267.0173645019531 47.28084182739258 277.35888671875 C 52.82205581665039 280.2742919921875 54.69873809814453 275.7973327636719 56.20292282104492 273.8495178222656 C 55.404720306396484 252.88682556152344 62.01076126098633 238.96595764160156 60.57819747924805 223.01519775390625" stroke-width="0.0" fill="rgb(91, 109, 117)" opacity="0.9894709" stroke="rgb(0, 0, 0)" stroke-opacity="1.0" stroke-linecap="round" stroke-linejoin="round"/>
    <path d="M 282.535400390625 251.5458984375 C 286.8544921875 256.4015808105469 282.8941650390625 258.4158630371094 282.3721618652344 270.0458068847656 C 294.0475769042969 268.6599426269531 304.6286926269531 267.0962829589844 315.2030334472656 266.3231506347656 C 316.0463562011719 258.05523681640625 317.06231689453125 255.13905334472656 312.8940124511719 253.0499267578125 C 308.44873046875 249.5634002685547 294.506103515625 253.5279998779297 282.535400390625 251.5458984375" stroke-width="0.0" fill="rgb(68, 62, 66)" opacity="0.9983649" stroke="rgb(0, 0, 0)" stroke-opacity="1.0" stroke-linecap="round" stroke-linejoin="round"/>
    <path d="M 205.13351440429688 144.67381286621094 C 198.76235961914062 141.25743103027344 193.37466430664062 144.74978637695312 190.99549865722656 147.03240966796875 C 185.37643432617188 154.9010467529297 186.62350463867188 163.48504638671875 192.21322631835938 167.32821655273438 C 200.3583526611328 165.87440490722656 205.77781677246094 165.22605895996094 210.1015167236328 160.2931671142578 C 211.44082641601562 151.6563262939453 208.59519958496094 148.73741149902344 205.13351440429688 144.67381286621094" stroke-width="0.0" fill="rgb(32, 37, 50)" opacity="0.90139055" stroke="rgb(0, 0, 0)" stroke-opacity="1.0" stroke-linecap="round" stroke-linejoin="round"/>
    <path d="M 147.29690551757812 260.83734130859375 C 135.24969482421875 261.28863525390625 126.67599487304688 265.0128173828125 116.32742309570312 266.47393798828125 C 117.46654510498047 265.0919189453125 117.76789855957031 272.3356018066406 115.57533264160156 277.6732177734375 C 124.50247192382812 279.2890625 133.841064453125 277.3764343261719 144.02398681640625 275.4873962402344 C 147.5662078857422 274.6800231933594 147.6800079345703 269.466796875 147.29690551757812 260.83734130859375" stroke-width="0.0" fill="rgb(10, 36, 47)" opacity="1.009266" stroke="rgb(0, 0, 0)" stroke-opacity="1.0" stroke-linecap="round" stroke-linejoin="round"/>
    <path d="M 189.47549438476562 172.1481170654297 C 180.0410919189453 175.62156677246094 175.7241973876953 183.9861297607422 171.15724182128906 193.56085205078125 C 168.38449096679688 196.8467559814453 169.42312622070312 197.8131103515625 174.14706420898438 204.6635284423828 C 177.2220916748047 202.1603546142578 186.5343780517578 199.17506408691406 187.1355743408203 207.7638702392578 C 183.9422149658203 218.65940856933594 176.2734832763672 229.2725067138672 175.2788543701172 247.1591033935547 C 183.23388671875 250.50341796875 195.8105926513672 249.92970275878906 207.32870483398438 252.33676147460938 C 211.2748260498047 230.80795288085938 204.84510803222656 206.9197235107422 214.10609436035156 203.20343017578125 C 212.57623291015625 194.5117950439453 210.55490112304688 188.66957092285156 207.7285614013672 183.95370483398438 C 202.8553924560547 179.64869689941406 194.8277130126953 177.26698303222656 189.47549438476562 172.1481170654297" stroke-width="0.0" fill="rgb(90, 47, 25)" opacity="0.98467654" stroke="rgb(0, 0, 0)" stroke-opacity="1.0" stroke-linecap="round" stroke-linejoin="round"/>
    <path d="M 257.78350830078125 267.4701232910156 C 258.406005859375 280.1861877441406 262.5309143066406 289.6310729980469 263.7301025390625 305.14874267578125 C 280.71270751953125 298.203369140625 295.40875244140625 292.58807373046875 317.153076171875 296.4851989746094 C 316.61859130859375 286.84552001953125 317.5112609863281 272.3809509277344 317.2569274902344 269.1097412109375 C 297.9187927246094 267.1632995605469 276.06475830078125 266.4358825683594 257.78350830078125 267.4701232910156" stroke-width="0.0" fill="rgb(80, 72, 63)" opacity="1.0066088" stroke="rgb(0, 0, 0)" stroke-opacity="1.0" stroke-linecap="round" stroke-linejoin="round"/>
    <path d="M 183.59767150878906 200.2180938720703 C 178.88473510742188 201.49713134765625 174.24032592773438 206.2208251953125 168.47256469726562 201.25502014160156 C 168.25820922851562 224.01991271972656 168.73312377929688 254.77781677246094 157.02012634277344 276.12603759765625 C 158.36419677734375 273.4465026855469 156.24563598632812 288.2103271484375 156.54458618164062 295.4965515136719 C 160.36903381347656 292.8470764160156 161.98670959472656 296.91143798828125 166.25247192382812 296.7877502441406 C 169.5861358642578 295.3876953125 173.72256469726562 292.70758056640625 175.42086791992188 285.2079162597656 C 170.33558654785156 282.0533447265625 169.8459930419922 271.715576171875 172.07785034179688 259.540771484375 C 172.99229431152344 242.0328826904297 180.3169708251953 228.58380126953125 186.97604370117188 210.85768127441406 C 187.39222717285156 204.21493530273438 186.41976928710938 201.07826232910156 183.59767150878906 200.2180938720703" stroke-width="0.0" fill="rgb(67, 61, 48)" opacity="0.93110174" stroke="rgb(0, 0, 0)" stroke-opacity="1.0" stroke-linecap="round" stroke-linejoin="round"/>
    <path d="M 337.6108703613281 225.0020294189453 C 334.15234375 237.02525329589844 322.8977966308594 235.58494567871094 324.54345703125 251.1941375732422 C 334.2776794433594 247.51480102539062 327.26275634765625 258.3427429199219 332.24041748046875 271.2974548339844 C 334.09716796875 271.22998046875 341.1163024902344 274.17608642578125 347.4074401855469 272.2718200683594 C 348.5980529785156 264.19512939453125 343.7171630859375 251.85769653320312 346.476318359375 234.49038696289062 C 340.11102294921875 235.5645294189453 343.97589111328125 225.61474609375 337.6108703613281 225.0020294189453" stroke-width="0.0" fill="rgb(145, 34, 59)" opacity="1.0105584" stroke="rgb(0, 0, 0)" stroke-opacity="1.0" stroke-linecap="round" stroke-linejoin="round"/>
    <path d="M 51.09502410888672 221.2266082763672 C 35.70889663696289 223.43666076660156 17.453989028930664 223.4459686279297 4.019794464111328 222.44639587402344 C 0.07478125393390656 225.2407684326172 2.6740431785583496 231.68792724609375 1.706099510192871 237.58255004882812 C 16.030609130859375 239.69512939453125 31.349857330322266 236.1953887939453 50.28144454956055 237.38673400878906 C 47.51777648925781 233.86053466796875 47.11559295654297 226.40676879882812 51.09502410888672 221.2266082763672" stroke-width="0.0" fill="rgb(106, 160, 173)" opacity="0.9957178" stroke="rgb(0, 0, 0)" stroke-opacity="1.0" stroke-linecap="round" stroke-linejoin="round"/>
    <path d="M 86.48188781738281 295.9841613769531 C 72.83136749267578 297.20440673828125 65.24580383300781 302.0515441894531 62.0943489074707 295.61260986328125 C 55.23031997680664 308.65069580078125 49.43315887451172 306.1763610839844 53.59687805175781 322.7012939453125 C 62.24932861328125 320.8353271484375 72.77162170410156 319.487060546875 83.97186279296875 320.69635009765625 C 85.73387908935547 309.02264404296875 79.61480712890625 303.1148681640625 86.48188781738281 295.9841613769531" stroke-width="0.0" fill="rgb(168, 153, 127)" opacity="1.0008377" stroke="rgb(0, 0, 0)" stroke-opacity="1.0" stroke-linecap="round" stroke-linejoin="round"/>
    <path d="M 171.6862335205078 190.61219787597656 C 164.68017578125 201.06631469726562 158.711669921875 211.9019775390625 154.9283447265625 222.3956756591797 C 154.52098083496094 236.4518585205078 154.9361114501953 245.37057495117188 165.92140197753906 250.9338836669922 C 168.0369415283203 233.4194793701172 171.33811950683594 214.83226013183594 171.6862335205078 190.61219787597656" stroke-width="0.0" fill="rgb(83, 48, 62)" opacity="0.9719361" stroke="rgb(0, 0, 0)" stroke-opacity="1.0" stroke-linecap="round" stroke-linejoin="round"/>
    <path d="M 294.6146545410156 441.4541931152344 C 344.2026062011719 444.7706298828125 388.5294494628906 446.41485595703125 446.8939514160156 443.8291015625 C 447.1868896484375 438.083984375 445.0417175292969 433.5393371582031 446.1503601074219 430.4940185546875 C 415.0177307128906 432.1291809082031 409.4596252441406 423.9595031738281 400.4224853515625 433.3907165527344 C 363.62359619140625 432.5901184082031 350.49078369140625 427.1871643066406 342.37139892578125 423.9385986328125 C 321.59674072265625 425.407470703125 310.3907775878906 426.4242248535156 303.8055419921875 424.4992980957031 C 301.0335388183594 433.7772216796875 294.8891906738281 436.6300354003906 294.6146545410156 441.4541931152344" stroke-width="0.0" fill="rgb(41, 44, 44)" opacity="0.91507477" stroke="rgb(0, 0, 0)" stroke-opacity="1.0" stroke-linecap="round" stroke-linejoin="round"/>
    <path d="M 447.9812927246094 438.87353515625 C 446.2127685546875 450.783203125 450.4681396484375 449.3907775878906 458.7478942871094 453.6426086425781 C 466.6985168457031 451.8424987792969 477.7335510253906 451.42767333984375 483.5572814941406 443.31878662109375 C 479.0780334472656 438.0304260253906 465.47857666015625 439.1343994140625 447.9812927246094 438.87353515625" stroke-width="0.0" fill="rgb(165, 144, 103)" opacity="0.99484336" stroke="rgb(0, 0, 0)" stroke-opacity="1.0" stroke-linecap="round" stroke-linejoin="round"/>
    <path d="M 351.0257263183594 233.33377075195312 C 351.9207763671875 245.6891632080078 353.83709716796875 261.8810119628906 353.58428955078125 269.66162109375 C 391.167724609375 274.7712707519531 420.88726806640625 281.99505615234375 455.3431091308594 285.77294921875 C 477.522705078125 288.2463684082031 492.32452392578125 287.1720275878906 501.3091125488281 283.73211669921875 C 498.1923828125 272.3785400390625 495.8648986816406 262.8521728515625 495.7652282714844 251.36837768554688 C 486.2579040527344 249.31097412109375 486.7087707519531 237.9018096923828 476.2744445800781 235.9065399169922 C 444.6034240722656 230.89332580566406 409.3463134765625 228.90016174316406 376.11553955078125 222.58470153808594 C 364.5626220703125 222.97430419921875 358.0640869140625 226.29550170898438 351.0257263183594 233.33377075195312" stroke-width="0.0" fill="rgb(92, 93, 94)" opacity="0.87622356" stroke="rgb(0, 0, 0)" stroke-opacity="1.0" stroke-linecap="round" stroke-linejoin="round"/>
    <path d="M 397.09442138671875 285.99591064453125 C 393.5625915527344 299.4492492675781 393.8658447265625 313.7789611816406 392.8836975097656 328.1236267089844 C 392.8760986328125 330.97552490234375 398.13677978515625 333.9944763183594 401.3002624511719 339.6785888671875 C 417.4897155761719 343.7020568847656 437.8381652832031 346.4398498535156 454.8831481933594 352.1550598144531 C 459.97918701171875 351.9845886230469 463.0970764160156 348.2685546875 466.2076416015625 346.59417724609375 C 469.56964111328125 327.9964904785156 478.00665283203125 313.2704772949219 477.6919860839844 289.94049072265625 C 451.48724365234375 284.42169189453125 424.0701904296875 286.0052795410156 397.09442138671875 285.99591064453125" stroke-width="0.0" fill="rgb(43, 38, 44)" opacity="1.012716" stroke="rgb(0, 0, 0)" stroke-opacity="1.0" stroke-linecap="round" stroke-linejoin="round"/>
    <path d="M 501.4004821777344 332.108642578125 C 489.9415588378906 329.0476379394531 482.8936767578125 322.972900390625 473.4698486328125 320.4956970214844 C 469.9915466308594 356.03125 456.43951416015625 369.197021484375 446.2764892578125 388.61639404296875 C 455.94964599609375 399.9971618652344 466.9212646484375 397.37872314453125 490.6856384277344 395.54168701171875 C 494.18829345703125 376.1953125 507.6788635253906 369.4425964355469 509.40667724609375 350.60504150390625 C 507.9308166503906 341.9753112792969 504.6004638671875 336.13128662109375 501.4004821777344 332.108642578125" stroke-width="0.0" fill="rgb(25, 27, 27)" opacity="0.9842679" stroke="rgb(0, 0, 0)" stroke-opacity="1.0" stroke-linecap="round" stroke-linejoin="round"/>
    <path d="M 516.4100952148438 282.5465393066406 C 498.26849365234375 283.20233154296875 492.01605224609375 286.6275329589844 479.0577697753906 300.4190673828125 C 477.27374267578125 304.9411926269531 473.35845947265625 313.86944580078125 469.1730651855469 327.4020690917969 C 482.2209777832031 324.65765380859375 487.8202819824219 329.8836975097656 496.0688171386719 331.5439758300781 C 502.97021484375 322.18255615234375 506.907958984375 315.2517395019531 514.1514282226562 306.8731689453125 C 516.8255615234375 299.2147521972656 516.4862060546875 290.3912658691406 516.4100952148438 282.5465393066406" stroke-width="0.0" fill="rgb(50, 41, 41)" opacity="0.9906755" stroke="rgb(0, 0, 0)" stroke-opacity="1.0" stroke-linecap="round" stroke-linejoin="round"/>
    <path d="M 45.685428619384766 241.37252807617188 C 43.951271057128906 237.14517211914062 30.978307723999023 238.43606567382812 17.753074645996094 238.9662322998047 C 12.63854694366455 241.8686065673828 2.6180317401885986 244.7977752685547 -7.32110071182251 253.29196166992188 C 9.629867553710938 251.7480010986328 28.170635223388672 252.3038787841797 43.0963020324707 251.74002075195312 C 46.979148864746094 249.04776000976562 49.197784423828125 248.66078186035156 45.685428619384766 241.37252807617188" stroke-width="0.0" fill="rgb(181, 184, 185)" opacity="0.9952214" stroke="rgb(0, 0, 0)" stroke-opacity="1.0" stroke-linecap="round" stroke-linejoin="round"/>
    <path d="M 104.91852569580078 211.7993621826172 C 101.13951873779297 201.6012420654297 89.96141052246094 203.93138122558594 73.97647857666016 200.1241455078125 C 59.98556900024414 207.25779724121094 40.575775146484375 201.93377685546875 22.024429321289062 207.91357421875 C 48.358863830566406 212.10057067871094 75.46638488769531 208.9539794921875 104.91852569580078 211.7993621826172" stroke-width="0.0" fill="rgb(139, 174, 204)" opacity="0.99843717" stroke="rgb(0, 0, 0)" stroke-opacity="1.0" stroke-linecap="round" stroke-linejoin="round"/>
    <path d="M 374.9786376953125 295.2250671386719 C 371.4795227050781 301.07305908203125 372.494140625 318.09588623046875 371.54534912109375 341.70098876953125 C 375.9039611816406 343.4761962890625 383.4385986328125 346.4707946777344 393.52435302734375 348.6412658691406 C 399.2682189941406 334.7640686035156 396.9044494628906 316.04266357421875 396.2996826171875 291.2008056640625 C 393.0494079589844 291.0417785644531 377.55548095703125 290.8558044433594 374.9786376953125 295.2250671386719" stroke-width="0.0" fill="rgb(108, 98, 89)" opacity="0.98434895" stroke="rgb(0, 0, 0)" stroke-opacity="1.0" stroke-linecap="round" stroke-linejoin="round"/>
    <path d="M 354.7943115234375 276.29913330078125 C 351.68145751953125 286.8472595214844 360.5835266113281 288.60223388671875 366.39373779296875 293.8590393066406 C 382.55987548828125 288.34716796875 402.1692810058594 288.98736572265625 417.0155029296875 281.6834716796875 C 410.9263000488281 271.4258117675781 389.67779541015625 277.01239013671875 375.8891296386719 270.71490478515625 C 363.1209716796875 272.59893798828125 355.85504150390625 270.3099670410156 354.7943115234375 276.29913330078125" stroke-width="0.0" fill="rgb(159, 168, 168)" opacity="1.072155" stroke="rgb(0, 0, 0)" stroke-opacity="1.0" stroke-linecap="round" stroke-linejoin="round"/>
    <path d="M 354.0665283203125 293.43048095703125 C 351.76904296875 295.6645812988281 351.83306884765625 310.6079406738281 353.33984375 321.4051818847656 C 356.8062438964844 321.823974609375 364.1107177734375 323.7790222167969 372.4716491699219 324.2871398925781 C 372.5208435058594 316.3457336425781 373.00482177734375 308.0895690917969 376.254638671875 300.5230712890625 C 368.7311096191406 296.4895324707031 364.2112731933594 290.1302490234375 354.0665283203125 293.43048095703125" stroke-width="0.0" fill="rgb(50, 37, 51)" opacity="0.9922641" stroke="rgb(0, 0, 0)" stroke-opacity="1.0" stroke-linecap="round" stroke-linejoin="round"/>
    <path d="M 335.48724365234375 421.34161376953125 C 344.2965087890625 427.3650207519531 355.8805847167969 429.4609069824219 367.5000305175781 431.1778564453125 C 386.552978515625 429.9256591796875 399.5499267578125 437.431396484375 407.8719787597656 428.3567199707031 C 398.60626220703125 426.03204345703125 390.2839660644531 423.94708251953125 383.26336669921875 419.69024658203125 C 367.557861328125 421.3362121582031 351.3731994628906 418.79779052734375 335.48724365234375 421.34161376953125" stroke-width="0.0" fill="rgb(177, 159, 125)" opacity="0.97353643" stroke="rgb(0, 0, 0)" stroke-opacity="1.0" stroke-linecap="round" stroke-linejoin="round"/>
    <path d="M -6.031848907470703 250.99411010742188 C -5.364439964294434 258.6895751953125 -5.381255626678467 268.0928955078125 -5.01115608215332 274.6388244628906 C 10.102840423583984 275.9967346191406 16.306364059448242 273.0645751953125 24.63694190979004 274.3187561035156 C 25.531469345092773 262.76678466796875 26.76034927368164 249.8241424560547 25.208282470703125 253.8955841064453 C 16.183067321777344 252.9796142578125 2.9075334072113037 251.75372314453125 -6.031848907470703 250.99411010742188" stroke-width="0.0" fill="rgb(115, 125, 130)" opacity="0.98202634" stroke="rgb(0, 0, 0)" stroke-opacity="1.0" stroke-linecap="round" stroke-linejoin="round"/>
    <path d="M 188.91395568847656 206.2402801513672 C 182.8109588623047 197.2980499267578 176.4654541015625 202.41868591308594 173.75767517089844 203.76190185546875 C 166.84803771972656 223.63107299804688 168.7311553955078 249.27593994140625 161.52548217773438 266.8663330078125 C 162.16720581054688 268.3876953125 164.38430786132812 269.5475158691406 170.50515747070312 273.6907958984375 C 170.53570556640625 244.52598571777344 183.23831176757812 228.41957092285156 188.91395568847656 206.2402801513672" stroke-width="0.0" fill="rgb(22, 19, 21)" opacity="0.9951147" stroke="rgb(0, 0, 0)" stroke-opacity="1.0" stroke-linecap="round" stroke-linejoin="round"/>
    <path d="M 329.94500732421875 233.9187774658203 C 325.7274169921875 238.48947143554688 322.78607177734375 245.57911682128906 323.41064453125 254.00634765625 C 328.73394775390625 255.53318786621094 326.51531982421875 247.6114501953125 330.08056640625 246.0559844970703 C 331.0685119628906 251.2501220703125 326.381591796875 254.58901977539062 327.3178405761719 252.5276641845703 C 336.3105163574219 256.5840148925781 340.33758544921875 258.8358459472656 346.76348876953125 255.1532745361328 C 344.66180419921875 246.6519317626953 349.3821716308594 240.15289306640625 346.3199768066406 231.46908569335938 C 338.81689453125 237.57058715820312 335.2615966796875 232.45750427246094 329.94500732421875 233.9187774658203" stroke-width="0.0" fill="rgb(99, 59, 58)" opacity="0.98513883" stroke="rgb(0, 0, 0)" stroke-opacity="1.0" stroke-linecap="round" stroke-linejoin="round"/>
    <path d="M 502.8644714355469 283.1632995605469 C 498.17901611328125 272.1172180175781 495.2762145996094 262.4627380371094 496.3599853515625 252.22940063476562 C 488.78387451171875 250.8302764892578 489.9719543457031 255.02713012695312 481.2767639160156 261.48223876953125 C 463.8097839355469 268.4655456542969 450.5195617675781 255.41839599609375 435.0780334472656 254.9671630859375 C 419.85369873046875 258.1668701171875 408.0286865234375 259.10272216796875 409.6341552734375 274.973388671875 C 420.14617919921875 282.2001647949219 437.58282470703125 282.9790954589844 456.316162109375 285.7038269042969 C 477.84124755859375 285.90582275390625 493.7515563964844 289.8889465332031 502.8644714355469 283.1632995605469" stroke-width="0.0" fill="rgb(82, 75, 79)" opacity="0.9751875" stroke="rgb(0, 0, 0)" stroke-opacity="1.0" stroke-linecap="round" stroke-linejoin="round"/>
    <path d="M 396.0875549316406 289.8076477050781 C 393.1045837402344 296.4755554199219 395.8648681640625 301.9323425292969 397.781494140625 302.7626953125 C 412.2970275878906 303.4717712402344 426.1867980957031 305.2254943847656 434.5461730957031 305.6109619140625 C 440.0776672363281 297.1895751953125 434.0853271484375 295.0832214355469 430.2326965332031 290.840087890625 C 428.38055419921875 288.2951354980469 421.6141662597656 288.01690673828125 416.59326171875 285.9539489746094 C 405.2466735839844 284.78350830078125 399.4430847167969 286.2496032714844 396.0875549316406 289.8076477050781" stroke-width="0.0" fill="rgb(47, 43, 42)" opacity="0.9708168" stroke="rgb(0, 0, 0)" stroke-opacity="1.0" stroke-linecap="round" stroke-linejoin="round"/>
    <path d="M 352.1993408203125 233.91787719726562 C 350.34674072265625 237.02529907226562 353.39581298828125 246.22283935546875 352.6239929199219 256.7408752441406 C 358.6043395996094 258.8056640625 357.9615783691406 259.8691711425781 362.5044860839844 258.0148010253906 C 366.1192321777344 258.40509033203125 365.689208984375 262.953857421875 366.5680236816406 269.8539733886719 C 379.5609436035156 269.8152770996094 388.9558410644531 274.3349914550781 405.0866394042969 273.9942626953125 C 411.9632263183594 266.1149597167969 417.64630126953125 258.2462158203125 431.85076904296875 255.11813354492188 C 436.2386474609375 254.3240966796875 441.5152587890625 257.05767822265625 442.787353515625 256.1941223144531 C 449.6064453125 257.2199401855469 456.2896728515625 260.9292297363281 456.750244140625 266.7671813964844 C 470.3401184082031 264.6525573730469 481.49462890625 264.3119201660156 490.653564453125 258.0489196777344 C 488.11279296875 249.13821411132812 486.432861328125 241.8237762451172 486.9556579589844 237.7723388671875 C 446.4342346191406 231.13380432128906 407.7480163574219 226.45042419433594 364.0478210449219 221.92755126953125 C 359.4565124511719 220.30223083496094 356.89593505859375 227.43399047851562 352.1993408203125 233.91787719726562" stroke-width="0.0" fill="rgb(191, 193, 192)" opacity="1.0542967" stroke="rgb(0, 0, 0)" stroke-opacity="1.0" stroke-linecap="round" stroke-linejoin="round"/>
    <path d="M 402.01934814453125 301.1566162109375 C 407.3983154296875 302.9765930175781 406.18621826171875 301.6012878417969 405.9278869628906 302.6749267578125 C 403.37042236328125 310.4696044921875 395.92633056640625 312.5333251953125 398.5810241699219 323.00750732421875 C 403.71954345703125 324.8935852050781 405.82427978515625 333.6863098144531 413.132568359375 337.9709167480469 C 424.58294677734375 344.6069030761719 443.4021301269531 347.6034240722656 465.44854736328125 350.9454040527344 C 469.1769104003906 340.2947998046875 470.1001892089844 329.1977233886719 472.5561828613281 318.0900573730469 C 448.68121337890625 309.0439453125 424.5851745605469 303.5085144042969 402.01934814453125 301.1566162109375" stroke-width="0.0" fill="rgb(38, 65, 97)" opacity="0.9920764" stroke="rgb(0, 0, 0)" stroke-opacity="1.0" stroke-linecap="round" stroke-linejoin="round"/>
    <path d="M 414.953857421875 281.310791015625 C 415.47637939453125 290.825927734375 431.16314697265625 285.967529296875 440.0010681152344 297.05621337890625 C 435.7896423339844 300.89593505859375 440.996826171875 303.9101257324219 443.97869873046875 309.4693298339844 C 454.1492004394531 311.0502624511719 461.0920104980469 316.00628662109375 472.81787109375 317.02947998046875 C 475.014404296875 307.9794921875 476.75164794921875 299.3450012207031 477.7108459472656 291.8204650878906 C 455.2367248535156 286.1143493652344 436.0395812988281 282.9787902832031 414.953857421875 281.310791015625" stroke-width="0.0" fill="rgb(46, 85, 86)" opacity="0.98057055" stroke="rgb(0, 0, 0)" stroke-opacity="1.0" stroke-linecap="round" stroke-linejoin="round"/>
    <path d="M 352.0188293457031 280.3401184082031 C 356.0117492675781 285.5243835449219 361.1335754394531 289.7149658203125 367.9217529296875 292.77752685546875 C 377.9352111816406 289.5011901855469 382.3294372558594 283.4422607421875 389.12744140625 276.994384765625 C 379.2557373046875 270.55029296875 372.8786315917969 269.8428955078125 358.6767578125 272.490234375 C 356.7099914550781 273.4995422363281 352.9544372558594 275.4910583496094 352.0188293457031 280.3401184082031" stroke-width="0.0" fill="rgb(82, 127, 133)" opacity="0.9954225" stroke="rgb(0, 0, 0)" stroke-opacity="1.0" stroke-linecap="round" stroke-linejoin="round"/>
    <path d="M 482.57476806640625 324.70025634765625 C 475.8870849609375 327.62738037109375 474.7510986328125 327.89105224609375 475.5069885253906 330.0251159667969 C 468.97882080078125 348.2257080078125 474.083251953125 370.21697998046875 467.2451171875 375.42779541015625 C 462.5329284667969 386.7516784667969 471.91314697265625 389.1187438964844 469.0426025390625 399.3456726074219 C 472.9792785644531 405.30908203125 475.8681335449219 405.0754089355469 487.6949157714844 402.602294921875 C 489.828125 390.2120666503906 495.60198974609375 373.66168212890625 507.98919677734375 365.2102966308594 C 508.2273864746094 345.37188720703125 508.00677490234375 341.81072998046875 501.86920166015625 333.3663635253906 C 496.97100830078125 332.6760559082031 486.8669128417969 333.22119140625 482.57476806640625 324.70025634765625" stroke-width="0.0" fill="rgb(45, 37, 40)" opacity="0.96939886" stroke="rgb(0, 0, 0)" stroke-opacity="1.0" stroke-linecap="round" stroke-linejoin="round"/>
    <path d="M 511.33660888671875 275.5484619140625 C 505.2926025390625 287.57525634765625 493.2205810546875 293.4225769042969 478.6483154296875 297.7429504394531 C 476.7754211425781 303.6026916503906 478.54156494140625 318.0566711425781 476.42633056640625 324.07843017578125 C 482.2848815917969 325.6708068847656 486.5240478515625 329.1629943847656 490.55462646484375 329.249755859375 C 494.5201416015625 324.8179626464844 495.2667541503906 325.76690673828125 492.7851867675781 315.397216796875 C 501.67327880859375 312.34454345703125 506.9246520996094 305.2715759277344 513.150634765625 296.5386657714844 C 517.1682739257812 289.3085021972656 517.15087890625 283.6385498046875 511.33660888671875 275.5484619140625" stroke-width="0.0" fill="rgb(46, 31, 35)" opacity="0.98605764" stroke="rgb(0, 0, 0)" stroke-opacity="1.0" stroke-linecap="round" stroke-linejoin="round"/>
    <path d="M 351.0766906738281 236.7598876953125 C 353.418701171875 245.28501892089844 352.4154052734375 254.53338623046875 353.8011474609375 257.758056640625 C 359.8051452636719 260.73345947265625 358.7001037597656 252.60479736328125 366.2834777832031 257.3481750488281 C 369.76531982421875 255.99154663085938 368.435546875 265.7524108886719 372.4090270996094 264.1427001953125 C 386.9199523925781 265.97503662109375 398.46185302734375 266.7798156738281 412.55517578125 265.6629943847656 C 418.69354248046875 260.8205261230469 426.06524658203125 256.1589660644531 436.23712158203125 252.2567138671875 C 445.74224853515625 250.91506958007812 455.8011169433594 257.0350341796875 468.4847412109375 252.2080078125 C 429.6154479980469 245.23544311523438 390.86529541015625 241.10675048828125 351.0766906738281 236.7598876953125" stroke-width="0.0" fill="rgb(137, 149, 152)" opacity="1.0017638" stroke="rgb(0, 0, 0)" stroke-opacity="1.0" stroke-linecap="round" stroke-linejoin="round"/>
    <path d="M 407.1240539550781 275.8162841796875 C 423.73333740234375 283.0953369140625 449.06658935546875 285.052978515625 472.6151428222656 289.3612060546875 C 476.3077697753906 288.4444885253906 478.7049560546875 287.9892578125 478.3851318359375 284.4064636230469 C 473.9315490722656 280.81707763671875 469.3761291503906 277.5696105957031 467.6848449707031 272.71319580078125 C 473.38861083984375 270.2489929199219 473.8768005371094 263.27532958984375 482.8634338378906 259.74603271484375 C 463.9809875488281 257.9915466308594 449.1533508300781 254.21412658691406 433.61553955078125 253.216796875 C 421.88507080078125 259.7255859375 411.2297058105469 261.9846496582031 407.1240539550781 275.8162841796875" stroke-width="0.0" fill="rgb(66, 54, 58)" opacity="1.0865744" stroke="rgb(0, 0, 0)" stroke-opacity="1.0" stroke-linecap="round" stroke-linejoin="round"/>
    <path d="M 496.4610290527344 243.63735961914062 C 490.64154052734375 260.73626708984375 478.5158996582031 263.0247497558594 468.32110595703125 271.53057861328125 C 471.7829895019531 280.75323486328125 477.426513671875 285.8341979980469 485.9403381347656 288.977783203125 C 491.3422546386719 287.50225830078125 500.02032470703125 288.7144470214844 503.17718505859375 283.9935607910156 C 497.59136962890625 271.17669677734375 495.65411376953125 261.68853759765625 496.4610290527344 243.63735961914062" stroke-width="0.0" fill="rgb(118, 117, 125)" opacity="1.0425385" stroke="rgb(0, 0, 0)" stroke-opacity="1.0" stroke-linecap="round" stroke-linejoin="round"/>
    <path d="M 396.1884460449219 291.08880615234375 C 405.7333068847656 298.0906982421875 420.5811462402344 303.7011413574219 440.8208923339844 307.26116943359375 C 439.5522766113281 292.81268310546875 434.0741271972656 296.8351745605469 432.9371032714844 288.9874267578125 C 425.0575866699219 292.0908508300781 419.41339111328125 286.7767639160156 415.12506103515625 285.6003112792969 C 402.5550537109375 285.06298828125 400.2087097167969 282.38165283203125 396.1884460449219 291.08880615234375" stroke-width="0.0" fill="rgb(23, 26, 33)" opacity="0.94917494" stroke="rgb(0, 0, 0)" stroke-opacity="1.0" stroke-linecap="round" stroke-linejoin="round"/>
    <path d="M 497.7291259765625 249.23031616210938 C 479.67138671875 241.90316772460938 496.95770263671875 257.2339172363281 485.0624084472656 262.3310852050781 C 485.2498779296875 272.9319763183594 482.5694274902344 279.9982604980469 484.6360168457031 288.9626159667969 C 492.6987609863281 288.2127990722656 500.1582946777344 287.95147705078125 502.9930725097656 282.4471130371094 C 497.43115234375 270.61383056640625 495.55047607421875 261.126220703125 497.7291259765625 249.23031616210938" stroke-width="0.0" fill="rgb(89, 81, 83)" opacity="1.0044667" stroke="rgb(0, 0, 0)" stroke-opacity="1.0" stroke-linecap="round" stroke-linejoin="round"/>
    <path d="M 357.2795715332031 242.45545959472656 C 355.96600341796875 248.33843994140625 357.415771484375 252.31405639648438 359.26690673828125 254.43844604492188 C 386.173828125 251.13438415527344 411.8718566894531 260.9306945800781 427.40899658203125 253.44920349121094 C 403.17950439453125 248.28509521484375 380.00946044921875 245.42872619628906 357.2795715332031 242.45545959472656" stroke-width="0.0" fill="rgb(159, 158, 154)" opacity="1.0001642" stroke="rgb(0, 0, 0)" stroke-opacity="1.0" stroke-linecap="round" stroke-linejoin="round"/>
  </g>
</svg>
