<?xml version="1.0" ?>
<svg xmlns="http://www.w3.org/2000/svg" version="1.1" width="512" height="512">
  <defs/>
  <g>
    <path d="M -2.692462682723999 -2.856051445007324 C -3.6218044757843018 170.3375701904297 -5.735267162322998 340.70513916015625 -6.6540141105651855 518.4239501953125 C 170.3903350830078 518.2149658203125 340.5389709472656 518.2789306640625 518.9969482421875 518.5277709960938 C 519.1737670898438 340.7530517578125 519.1712036132812 170.37750244140625 519.1953735351562 -3.3377907276153564 C 340.6666564941406 -3.2054367065429688 170.3333282470703 -3.0367367267608643 -2.692462682723999 -2.856051445007324" stroke-width="0.0" fill="rgb(144, 198, 238)" opacity="0.7591687" stroke="rgb(0, 0, 0)" stroke-opacity="1.0" stroke-linecap="round" stroke-linejoin="round"/>
    <path d="M -6.8056721687316895 332.4470520019531 C -7.143450736999512 388.699462890625 -6.148278713226318 450.1662292480469 -3.1949572563171387 519.381103515625 C 170.3339385986328 519.4282836914062 340.6719970703125 519.489990234375 520.623291015625 519.3446655273438 C 520.8701782226562 473.09967041015625 518.0803833007812 439.1217346191406 504.6838073730469 419.648193359375 C 508.4623107910156 419.43243408203125 501.6666564941406 418.816162109375 508.269287109375 425.4442138671875 C 511.2118225097656 428.4635925292969 511.26959228515625 438.0309753417969 502.86328125 433.5190124511719 C 475.0116882324219 434.0285949707031 480.84967041015625 429.6429138183594 481.935791015625 431.2471618652344 C 479.0669860839844 428.23858642578125 483.633544921875 433.65631103515625 476.9549865722656 432.48773193359375 C 467.63629150390625 432.3882141113281 470.17034912109375 428.4515380859375 470.3104248046875 431.1804504394531 C 475.0690002441406 431.2964782714844 472.7799987792969 435.8540344238281 455.3275451660156 431.0978698730469 C 412.8367919921875 450.1171875 367.9418029785156 446.8348083496094 316.98779296875 438.9871826171875 C 314.1383972167969 424.27752685546875 315.4137878417969 421.15521240234375 327.1128845214844 414.02386474609375 C 337.6038513183594 405.2071838378906 339.3401794433594 394.9342956542969 345.9661865234375 391.7575988769531 C 351.252685546875 375.0669860839844 347.09832763671875 359.9751281738281 347.71661376953125 351.3507385253906 C 346.2767639160156 343.347412109375 343.8086242675781 337.70916748046875 338.1397705078125 334.99371337890625 C 328.9397277832031 332.2248229980469 320.0321044921875 333.63775634765625 316.4892883300781 328.491943359375 C 316.93316650390625 321.88800048828125 324.24609375 322.7784423828125 323.1310119628906 327.6415710449219 C 320.3743591308594 313.8533935546875 319.1085205078125 307.02215576171875 305.95458984375 307.0447082519531 C 279.36846923828125 304.60748291015625 252.01309204101562 308.4352111816406 229.55136108398438 298.9189147949219 C 215.76348876953125 298.23101806640625 232.93191528320312 284.63616943359375 218.34494018554688 287.7022705078125 C 220.5640106201172 319.9377136230469 211.03704833984375 333.19024658203125 212.9341278076172 353.39068603515625 C 206.15048217773438 358.3190002441406 196.25228881835938 356.7959289550781 192.2855987548828 355.8912353515625 C 190.3502960205078 339.1622619628906 198.31565856933594 322.8106384277344 192.00514221191406 314.2890930175781 C 180.5312957763672 320.0892333984375 168.30014038085938 326.31903076171875 159.076171875 333.6828918457031 C 151.82054138183594 340.6915283203125 155.94113159179688 353.3874816894531 148.2508544921875 355.59881591796875 C 142.28306579589844 355.5865783691406 140.1860809326172 335.3718566894531 139.96173095703125 322.7802429199219 C 142.6311492919922 319.6347961425781 153.24749755859375 312.0899963378906 161.33193969726562 305.2908020019531 C 161.00669860839844 295.7053527832031 158.82298278808594 286.16778564453125 154.8064727783203 280.4107666015625 C 123.92134857177734 282.6346740722656 93.47845458984375 280.522705078125 59.89537811279297 284.0306091308594 C 52.18714141845703 285.9261169433594 41.91271209716797 304.8099365234375 20.604598999023438 309.61529541015625 C 18.320743560791016 319.0633544921875 10.693766593933105 326.9845275878906 -6.8056721687316895 332.4470520019531" stroke-width="0.0" fill="rgb(191, 172, 136)" opacity="1.0479802" stroke="rgb(0, 0, 0)" stroke-opacity="1.0" stroke-linecap="round" stroke-linejoin="round"/>
    <path d="M 255.9246368408203 264.6568908691406 C 251.44326782226562 270.7991638183594 247.56948852539062 282.63433837890625 251.81100463867188 297.95166015625 C 269.96630859375 305.4276428222656 307.1267395019531 296.2511901855469 322.1214599609375 306.60107421875 C 330.3125 308.4361572265625 325.68939208984375 320.0104064941406 330.26092529296875 325.8846435546875 C 334.2918395996094 332.0189514160156 342.716552734375 332.2308044433594 350.3570556640625 336.344970703125 C 356.1681213378906 349.0243225097656 359.2530822753906 362.3118896484375 361.08233642578125 374.01422119140625 C 367.4437255859375 379.1907043457031 366.3035583496094 373.11663818359375 366.3117980957031 367.4220886230469 C 380.74090576171875 376.4048767089844 384.8602294921875 373.8646545410156 387.3805236816406 372.5019226074219 C 385.8573913574219 373.49481201171875 370.1540832519531 378.3686828613281 364.833740234375 359.0564880371094 C 393.71026611328125 364.10089111328125 411.58233642578125 366.4092712402344 427.68585205078125 366.75006103515625 C 413.24700927734375 366.1127014160156 398.202880859375 365.2361755371094 377.6684875488281 361.31524658203125 C 383.63836669921875 358.57513427734375 385.87432861328125 359.63128662109375 386.2249450683594 360.6792907714844 C 384.81927490234375 359.255126953125 374.0372314453125 363.22979736328125 365.526611328125 357.176025390625 C 375.69635009765625 347.1876220703125 384.9712829589844 353.7370910644531 385.7409973144531 352.2736511230469 C 401.1714172363281 354.0365905761719 416.8816833496094 358.0545654296875 432.3176574707031 361.3267517089844 C 439.5333557128906 361.5597839355469 443.1485290527344 365.2379150390625 439.6339111328125 375.52197265625 C 435.1170349121094 384.1341247558594 429.81964111328125 376.57257080078125 418.4333190917969 374.0521240234375 C 435.67230224609375 378.9951171875 453.1773376464844 389.93792724609375 479.1990966796875 390.27215576171875 C 488.1100769042969 390.72021484375 487.7314758300781 389.4586181640625 492.1487121582031 387.1925354003906 C 494.788330078125 377.3028259277344 500.4625549316406 368.3660888671875 503.6081848144531 360.093994140625 C 507.4882507324219 341.47802734375 500.06011962890625 333.9022216796875 500.8250732421875 325.36767578125 C 502.2986145019531 318.1572265625 508.0886535644531 311.0506591796875 510.3885803222656 302.2375793457031 C 509.9386901855469 292.7184753417969 510.5493469238281 280.2289123535156 509.595947265625 264.0688781738281 C 505.6312255859375 270.2808837890625 498.7481384277344 262.3638000488281 487.9432678222656 256.535888671875 C 442.04498291015625 249.011962890625 388.5359802246094 242.46078491210938 340.36785888671875 234.09031677246094 C 326.9490051269531 238.12014770507812 322.974853515625 250.57911682128906 314.90399169921875 257.67779541015625 C 316.1612548828125 269.0164794921875 298.4847717285156 266.7548522949219 283.1080627441406 264.5071105957031 C 274.8385314941406 266.9250183105469 265.8968505859375 265.1612548828125 255.9246368408203 264.6568908691406" stroke-width="0.0" fill="rgb(95, 96, 105)" opacity="0.9201531" stroke="rgb(0, 0, 0)" stroke-opacity="1.0" stroke-linecap="round" stroke-linejoin="round"/>
    <path d="M -2.269003391265869 216.68177795410156 C -6.361088275909424 251.615478515625 -7.332215309143066 288.9714660644531 -5.556769847869873 324.17755126953125 C 12.713945388793945 324.8668518066406 10.108049392700195 307.8701171875 22.08920669555664 299.9270324707031 C 36.58066177368164 296.9081726074219 43.98193359375 287.38787841796875 55.59006881713867 281.2556457519531 C 88.97900390625 274.80413818359375 129.516357421875 283.09033203125 156.16702270507812 273.8439025878906 C 160.5084686279297 259.1195983886719 155.21926879882812 239.3814239501953 154.56166076660156 225.07286071777344 C 97.17402648925781 228.14938354492188 60.511409759521484 210.2887420654297 -2.269003391265869 216.68177795410156" stroke-width="0.0" fill="rgb(121, 138, 147)" opacity="0.986269" stroke="rgb(0, 0, 0)" stroke-opacity="1.0" stroke-linecap="round" stroke-linejoin="round"/>
    <path d="M 193.98077392578125 147.36070251464844 C 188.6775360107422 149.7563934326172 186.55740356445312 156.83522033691406 188.06228637695312 172.6049041748047 C 181.27342224121094 177.94569396972656 174.00279235839844 182.04989624023438 168.28753662109375 191.79847717285156 C 164.81558227539062 201.28700256347656 158.15328979492188 212.50009155273438 157.18930053710938 224.84657287597656 C 157.8321990966797 242.0052032470703 161.18991088867188 257.3505859375 163.52500915527344 273.4857482910156 C 167.12928771972656 275.9802551269531 171.2857666015625 277.21636962890625 176.28196716308594 275.94989013671875 C 182.53790283203125 278.96759033203125 187.6458282470703 289.28253173828125 182.75839233398438 296.6142272949219 C 174.35107421875 302.2370910644531 160.94122314453125 310.05242919921875 147.3898468017578 318.9013671875 C 143.34388732910156 322.9393310546875 140.83346557617188 324.4789123535156 142.0232391357422 330.6625671386719 C 142.31637573242188 338.1026611328125 145.64833068847656 347.1230163574219 148.5973663330078 349.73370361328125 C 155.23707580566406 344.3724365234375 150.49237060546875 337.52825927734375 161.05059814453125 329.76263427734375 C 172.6949920654297 324.163330078125 183.05821228027344 315.28094482421875 195.18572998046875 312.2691345214844 C 197.58111572265625 327.4659423828125 190.95050048828125 351.2272644042969 195.25704956054688 355.2471618652344 C 200.5276641845703 356.99066162109375 209.5146484375 353.8700866699219 209.57716369628906 352.7701416015625 C 210.3553466796875 343.83685302734375 214.08892822265625 333.0428161621094 215.3256378173828 314.7193908691406 C 218.9067840576172 289.667236328125 208.455322265625 265.8509216308594 210.86654663085938 237.98757934570312 C 215.45309448242188 225.38327026367188 229.6126251220703 227.67652893066406 225.56207275390625 205.3913116455078 C 216.98516845703125 199.4495391845703 211.05010986328125 188.26902770996094 202.4912109375 178.5562286376953 C 203.71290588378906 167.77801513671875 211.55868530273438 162.5779571533203 207.95518493652344 153.03289794921875 C 208.14796447753906 146.4331512451172 197.69903564453125 143.3985137939453 193.98077392578125 147.36070251464844" stroke-width="0.0" fill="rgb(96, 79, 73)" opacity="0.81403273" stroke="rgb(0, 0, 0)" stroke-opacity="1.0" stroke-linecap="round" stroke-linejoin="round"/>
    <path d="M 517.8217163085938 186.49301147460938 C 521.4832763671875 168.08718872070312 521.185791015625 145.72174072265625 520.0328979492188 133.35760498046875 C 481.04351806640625 133.55987548828125 452.6547546386719 133.87405395507812 426.1194152832031 138.1383514404297 C 414.716796875 140.2554168701172 404.6795654296875 142.50584411621094 399.3236083984375 151.79058837890625 C 401.1633605957031 155.46173095703125 403.812255859375 163.46885681152344 408.96173095703125 163.56805419921875 C 434.4039306640625 169.87490844726562 462.1269226074219 167.6900634765625 497.1855163574219 164.8746337890625 C 505.03863525390625 168.10130310058594 500.466796875 182.25723266601562 517.8217163085938 186.49301147460938" stroke-width="0.0" fill="rgb(82, 71, 79)" opacity="0.95399654" stroke="rgb(0, 0, 0)" stroke-opacity="1.0" stroke-linecap="round" stroke-linejoin="round"/>
    <path d="M 268.15338134765625 212.06480407714844 C 276.55511474609375 216.2237548828125 287.02142333984375 216.55970764160156 302.24725341796875 220.79165649414062 C 321.39251708984375 216.7867431640625 338.9413757324219 217.1405792236328 366.7672119140625 215.56527709960938 C 395.1790466308594 199.24954223632812 437.50732421875 211.98025512695312 450.5721130371094 195.36529541015625 C 419.5691223144531 181.67510986328125 369.4727478027344 191.9967041015625 322.2780456542969 190.90135192871094 C 308.4135437011719 191.99073791503906 300.682373046875 195.00828552246094 288.9873046875 198.48983764648438 C 282.5964660644531 202.3187255859375 279.0843811035156 209.33802795410156 268.15338134765625 212.06480407714844" stroke-width="0.0" fill="rgb(56, 57, 70)" opacity="1.123226" stroke="rgb(0, 0, 0)" stroke-opacity="1.0" stroke-linecap="round" stroke-linejoin="round"/>
    <path d="M -5.961315155029297 184.3180694580078 C -6.37515115737915 192.7537841796875 -5.544663429260254 204.46200561523438 -6.383651256561279 216.8217010498047 C 16.68444061279297 215.1836395263672 34.94511413574219 215.2481231689453 50.590084075927734 217.77835083007812 C 53.695152282714844 229.38136291503906 49.22938919067383 243.8751983642578 53.64764404296875 250.39285278320312 C 58.53837966918945 244.32901000976562 56.20576095581055 226.97244262695312 60.09947204589844 218.76107788085938 C 71.07823944091797 215.7795867919922 85.99235534667969 218.16165161132812 94.1314468383789 212.31614685058594 C 79.6522445678711 202.0625457763672 78.7307357788086 189.8824920654297 57.004878997802734 188.31640625 C 38.661956787109375 185.5755615234375 20.573917388916016 184.4676971435547 -5.961315155029297 184.3180694580078" stroke-width="0.0" fill="rgb(131, 108, 82)" opacity="0.96962386" stroke="rgb(0, 0, 0)" stroke-opacity="1.0" stroke-linecap="round" stroke-linejoin="round"/>
    <path d="M 364.6272888183594 360.9947814941406 C 366.99676513671875 363.9976806640625 365.5499572753906 375.5049743652344 368.5812683105469 362.971923828125 C 390.34808349609375 368.1475830078125 404.43377685546875 382.42498779296875 426.5581359863281 383.07806396484375 C 433.7117614746094 382.1334228515625 440.0713806152344 378.7054748535156 441.027587890625 370.394775390625 C 443.5123596191406 365.6299743652344 439.283447265625 361.0486145019531 436.2305603027344 360.7372741699219 C 415.0547180175781 357.8636169433594 395.2122497558594 351.28094482421875 377.8476867675781 350.23370361328125 C 368.81561279296875 352.01953125 366.8025817871094 351.5599670410156 364.6272888183594 360.9947814941406" stroke-width="0.0" fill="rgb(154, 141, 117)" opacity="1.0173888" stroke="rgb(0, 0, 0)" stroke-opacity="1.0" stroke-linecap="round" stroke-linejoin="round"/>
    <path d="M 517.0222778320312 113.8798828125 C 486.3603820800781 116.97725677490234 462.7995910644531 119.8051986694336 440.88165283203125 126.19908905029297 C 434.50445556640625 129.177734375 422.69696044921875 132.18008422851562 418.2153625488281 138.6215057373047 C 450.98175048828125 133.45921325683594 483.0299072265625 132.51609802246094 519.0453491210938 133.88766479492188 C 517.8270263671875 122.64596557617188 519.1149291992188 116.96479034423828 517.0222778320312 113.8798828125" stroke-width="0.0" fill="rgb(137, 178, 217)" opacity="0.9718592" stroke="rgb(0, 0, 0)" stroke-opacity="1.0" stroke-linecap="round" stroke-linejoin="round"/>
    <path d="M 520.1664428710938 299.73443603515625 C 506.6104736328125 312.0777587890625 502.78057861328125 321.2496337890625 501.03948974609375 327.0755310058594 C 503.01031494140625 337.88018798828125 508.54779052734375 340.1568298339844 506.8855285644531 352.70635986328125 C 503.8196716308594 368.2978515625 494.8539123535156 374.5542907714844 491.4396057128906 389.6336669921875 C 493.4444885253906 393.8787536621094 497.63958740234375 396.3614501953125 522.57958984375 397.0706787109375 C 522.955078125 375.13238525390625 522.885986328125 345.3154296875 520.1664428710938 299.73443603515625" stroke-width="0.0" fill="rgb(183, 159, 121)" opacity="0.9923008" stroke="rgb(0, 0, 0)" stroke-opacity="1.0" stroke-linecap="round" stroke-linejoin="round"/>
    <path d="M 297.7859191894531 436.705810546875 C 322.4296875 441.6985778808594 343.71368408203125 443.4357604980469 360.0839538574219 445.1302795410156 C 389.89373779296875 446.107421875 410.6295471191406 443.65521240234375 436.913818359375 441.346435546875 C 444.61663818359375 440.7242126464844 442.1844482421875 438.3553771972656 447.6051940917969 433.4345703125 C 468.5211486816406 433.1931457519531 493.05450439453125 431.8830871582031 520.8868408203125 436.4079895019531 C 520.759033203125 421.3241882324219 520.7876586914062 408.6536865234375 520.4376831054688 397.6936340332031 C 494.7685546875 394.5520324707031 476.09442138671875 390.8169860839844 455.7892150878906 391.92156982421875 C 448.67718505859375 388.3349304199219 442.6441650390625 383.71142578125 433.99859619140625 382.0986022949219 C 422.6836853027344 382.2254943847656 415.2931213378906 381.92352294921875 407.41375732421875 378.50103759765625 C 410.7393493652344 380.448974609375 414.45977783203125 377.4239196777344 420.7666015625 376.2113342285156 C 394.6796569824219 379.3403625488281 384.9505615234375 368.0424499511719 365.2557678222656 352.0089111328125 C 370.1765441894531 383.24798583984375 359.13812255859375 379.64569091796875 353.24407958984375 384.18402099609375 C 336.2417907714844 402.5529479980469 321.5260925292969 420.8352966308594 297.7859191894531 436.705810546875" stroke-width="0.0" fill="rgb(38, 40, 41)" opacity="1.0248275" stroke="rgb(0, 0, 0)" stroke-opacity="1.0" stroke-linecap="round" stroke-linejoin="round"/>
    <path d="M 352.1964111328125 235.14306640625 C 392.2745666503906 242.73837280273438 439.8038635253906 246.8922882080078 487.6823425292969 253.26065063476562 C 491.24072265625 246.05770874023438 482.1516418457031 243.02423095703125 475.47467041015625 235.44403076171875 C 447.3173828125 230.4390411376953 408.36248779296875 229.1401824951172 368.0400085449219 222.45516967773438 C 364.1314392089844 225.48167419433594 352.7584228515625 225.4558563232422 352.1964111328125 235.14306640625" stroke-width="0.0" fill="rgb(197, 200, 201)" opacity="0.99173677" stroke="rgb(0, 0, 0)" stroke-opacity="1.0" stroke-linecap="round" stroke-linejoin="round"/>
    <path d="M 293.0204772949219 196.05796813964844 C 347.24737548828125 187.98916625976562 397.9324951171875 191.24615478515625 453.5537109375 189.54100036621094 C 421.83935546875 177.8588409423828 386.81658935546875 178.5498809814453 358.5095520019531 179.0440673828125 C 328.455322265625 181.57994079589844 307.1122131347656 182.10931396484375 293.0204772949219 196.05796813964844" stroke-width="0.0" fill="rgb(124, 169, 213)" opacity="1.0043916" stroke="rgb(0, 0, 0)" stroke-opacity="1.0" stroke-linecap="round" stroke-linejoin="round"/>
    <path d="M -2.793158531188965 150.95901489257812 C -6.776562690734863 160.0448760986328 -4.053714752197266 172.39805603027344 -4.52449893951416 185.4966583251953 C 19.503501892089844 184.6660919189453 40.90674591064453 185.74159240722656 61.49817657470703 188.980224609375 C 59.12273025512695 177.0286865234375 34.70621871948242 178.09461975097656 19.351028442382812 173.9084014892578 C 10.613041877746582 165.5704803466797 15.050350189208984 151.5597381591797 -2.793158531188965 150.95901489257812" stroke-width="0.0" fill="rgb(208, 198, 156)" opacity="1.0027106" stroke="rgb(0, 0, 0)" stroke-opacity="1.0" stroke-linecap="round" stroke-linejoin="round"/>
    <path d="M 374.9767761230469 212.63389587402344 C 364.0045166015625 221.2694549560547 375.4931945800781 220.01466369628906 390.2925720214844 222.01992797851562 C 430.05596923828125 224.48696899414062 469.7511901855469 220.5928192138672 517.5493774414062 224.39093017578125 C 518.3087158203125 209.15902709960938 519.5538330078125 196.1896209716797 518.2416381835938 187.59881591796875 C 508.09759521484375 186.7728271484375 502.31182861328125 181.6388702392578 501.31134033203125 176.0755157470703 C 501.93597412109375 171.2059326171875 503.4482727050781 162.66517639160156 493.19000244140625 165.77163696289062 C 476.698486328125 161.2060089111328 468.11285400390625 172.0774383544922 454.4499206542969 170.05496215820312 C 432.8878479003906 168.53094482421875 418.15185546875 167.1197509765625 405.3337707519531 165.06324768066406 C 401.5079345703125 164.18980407714844 402.1036682128906 155.90594482421875 396.4536437988281 155.91188049316406 C 399.2439880371094 161.00845336914062 403.49786376953125 166.2428741455078 403.0590515136719 171.7844696044922 C 413.6882019042969 179.47084045410156 432.1927490234375 179.09230041503906 442.5975036621094 189.70181274414062 C 449.4861145019531 191.1638641357422 454.2572937011719 190.32716369628906 450.68975830078125 202.40603637695312 C 426.9281005859375 205.90829467773438 396.5426330566406 207.8628387451172 374.9767761230469 212.63389587402344" stroke-width="0.0" fill="rgb(211, 232, 237)" opacity="0.8726291" stroke="rgb(0, 0, 0)" stroke-opacity="1.0" stroke-linecap="round" stroke-linejoin="round"/>
    <path d="M 215.90782165527344 283.8762512207031 C 227.65574645996094 284.01348876953125 239.833251953125 284.1863098144531 249.20387268066406 279.56024169921875 C 251.42825317382812 265.19696044921875 249.90188598632812 250.2443084716797 260.29290771484375 253.62388610839844 C 275.3897399902344 246.0364532470703 290.29632568359375 254.41854858398438 317.1859436035156 270.3098449707031 C 322.2708435058594 238.3780975341797 331.9096984863281 232.78016662597656 339.641357421875 227.25201416015625 C 347.9542236328125 235.20904541015625 356.70947265625 225.36886596679688 369.38775634765625 219.02012634277344 C 356.52667236328125 215.25852966308594 336.3792724609375 220.31748962402344 318.1619567871094 218.89361572265625 C 308.6856689453125 220.637939453125 307.6241149902344 229.64352416992188 307.37255859375 227.41639709472656 C 292.2098388671875 223.0674591064453 294.7247314453125 230.83155822753906 292.40093994140625 219.2267608642578 C 281.3384704589844 218.4878387451172 268.1206970214844 217.0397491455078 258.1627502441406 219.43917846679688 C 271.7131042480469 222.72853088378906 274.0877685546875 216.13375854492188 271.6187438964844 223.66368103027344 C 244.7228546142578 224.71815490722656 226.3801727294922 222.1107940673828 212.5951690673828 231.39022827148438 C 207.59262084960938 244.48736572265625 210.4440460205078 264.971923828125 215.90782165527344 283.8762512207031" stroke-width="0.0" fill="rgb(127, 147, 157)" opacity="0.96861774" stroke="rgb(0, 0, 0)" stroke-opacity="1.0" stroke-linecap="round" stroke-linejoin="round"/>
    <path d="M 464.59588623046875 224.59454345703125 C 479.2402038574219 233.8382110595703 486.7029724121094 247.4047088623047 498.1195068359375 251.7369384765625 C 492.203125 269.8776550292969 509.7295837402344 264.84808349609375 510.725341796875 270.658935546875 C 507.4761047363281 262.60650634765625 510.1652526855469 243.84327697753906 518.8374633789062 223.24261474609375 C 497.06060791015625 222.5440673828125 481.1640319824219 222.81959533691406 464.59588623046875 224.59454345703125" stroke-width="0.0" fill="rgb(128, 171, 184)" opacity="1.0238268" stroke="rgb(0, 0, 0)" stroke-opacity="1.0" stroke-linecap="round" stroke-linejoin="round"/>
    <path d="M 290.58856201171875 255.83010864257812 C 295.49871826171875 252.68272399902344 276.5053405761719 245.99691772460938 286.1676940917969 247.68496704101562 C 279.7493591308594 246.8946075439453 269.5002746582031 248.61196899414062 252.92422485351562 247.78395080566406 C 253.4226531982422 254.18524169921875 248.35084533691406 272.2847900390625 255.8894500732422 276.7568054199219 C 256.50030517578125 274.0796813964844 251.94534301757812 265.50921630859375 260.2353210449219 265.3911437988281 C 279.9133605957031 266.65228271484375 298.17626953125 265.1983337402344 313.4283447265625 267.98095703125 C 304.3237609863281 262.4219055175781 294.80780029296875 255.0952606201172 290.58856201171875 255.83010864257812" stroke-width="0.0" fill="rgb(115, 118, 121)" opacity="0.9883688" stroke="rgb(0, 0, 0)" stroke-opacity="1.0" stroke-linecap="round" stroke-linejoin="round"/>
    <path d="M 353.67266845703125 343.664306640625 C 350.1190490722656 343.9740905761719 345.4522399902344 341.39605712890625 344.3742370605469 341.95416259765625 C 347.386962890625 349.364501953125 349.223876953125 357.57293701171875 347.1331481933594 350.5149841308594 C 346.4428405761719 352.6125793457031 348.9162902832031 362.0281982421875 348.36297607421875 373.84832763671875 C 346.81146240234375 379.29541015625 348.5108947753906 383.0545349121094 347.32958984375 372.5335998535156 C 346.13629150390625 378.4189147949219 350.64056396484375 380.4462585449219 356.87701416015625 376.14404296875 C 360.2236022949219 361.3019104003906 357.30810546875 353.6058044433594 353.67266845703125 343.664306640625" stroke-width="0.0" fill="rgb(106, 62, 66)" opacity="1.0295129" stroke="rgb(0, 0, 0)" stroke-opacity="1.0" stroke-linecap="round" stroke-linejoin="round"/>
    <path d="M 258.99365234375 283.6131591796875 C 244.9867706298828 288.6499938964844 239.03575134277344 297.33099365234375 221.10971069335938 297.5555419921875 C 232.35516357421875 302.75146484375 248.74188232421875 304.4380187988281 263.10076904296875 304.6037902832031 C 260.1288757324219 296.5010986328125 262.3228759765625 289.3731689453125 258.99365234375 283.6131591796875" stroke-width="0.0" fill="rgb(39, 27, 37)" opacity="1.0177124" stroke="rgb(0, 0, 0)" stroke-opacity="1.0" stroke-linecap="round" stroke-linejoin="round"/>
    <path d="M 161.32537841796875 265.61993408203125 C 156.91050720214844 277.0538635253906 155.54745483398438 286.0743408203125 160.38230895996094 295.0350341796875 C 156.77296447753906 297.1590576171875 164.11447143554688 294.2521667480469 167.41348266601562 298.81591796875 C 172.73915100097656 290.6214904785156 179.93124389648438 291.5742492675781 174.0311737060547 276.2615661621094 C 172.83714294433594 274.6148376464844 163.32460021972656 279.0586853027344 161.32537841796875 265.61993408203125" stroke-width="0.0" fill="rgb(76, 64, 46)" opacity="0.97920126" stroke="rgb(0, 0, 0)" stroke-opacity="1.0" stroke-linecap="round" stroke-linejoin="round"/>
    <path d="M 70.95556640625 192.82757568359375 C 55.94874572753906 184.1604766845703 27.297330856323242 186.31109619140625 -6.237074375152588 183.5867462158203 C -6.499512195587158 230.23617553710938 -6.709412574768066 276.94775390625 -2.2161319255828857 332.3926696777344 C 13.586575508117676 297.73870849609375 39.9916877746582 296.5514831542969 51.38148880004883 280.78741455078125 C 60.06559371948242 260.40411376953125 57.47350311279297 238.44630432128906 62.649147033691406 219.70803833007812 C 70.79706573486328 215.6561737060547 84.85578155517578 219.29310607910156 91.40705871582031 211.16827392578125 C 81.98565673828125 205.9520721435547 81.69064331054688 196.5087127685547 70.95556640625 192.82757568359375" stroke-width="0.0" fill="rgb(108, 123, 128)" opacity="1.0293866" stroke="rgb(0, 0, 0)" stroke-opacity="1.0" stroke-linecap="round" stroke-linejoin="round"/>
    <path d="M 192.04043579101562 170.88124084472656 C 182.1216278076172 176.07623291015625 176.60606384277344 181.3169403076172 170.64366149902344 188.04103088378906 C 166.1284637451172 194.3370819091797 163.37957763671875 205.3540802001953 161.94239807128906 209.20826721191406 C 173.02500915527344 222.6289520263672 163.7185821533203 246.28036499023438 163.99710083007812 257.1325988769531 C 180.06875610351562 257.1089172363281 190.00531005859375 246.39434814453125 208.9459991455078 253.4578857421875 C 209.0764923095703 245.70693969726562 212.29415893554688 239.85330200195312 213.2857666015625 232.01974487304688 C 214.6783905029297 227.2706298828125 223.7449951171875 225.16148376464844 224.42958068847656 219.89698791503906 C 224.89089965820312 218.61964416503906 228.00709533691406 211.73353576660156 224.5330047607422 204.73374938964844 C 212.15538024902344 195.19544982910156 206.778564453125 177.56874084472656 192.04043579101562 170.88124084472656" stroke-width="0.0" fill="rgb(75, 74, 78)" opacity="0.9289648" stroke="rgb(0, 0, 0)" stroke-opacity="1.0" stroke-linecap="round" stroke-linejoin="round"/>
    <path d="M 181.42825317382812 249.47312927246094 C 176.92091369628906 253.15997314453125 174.2882537841797 253.69532775878906 176.12176513671875 254.68572998046875 C 175.7327880859375 272.56719970703125 186.42523193359375 279.57916259765625 185.75949096679688 295.4404296875 C 174.37371826171875 303.1530456542969 159.34669494628906 310.76458740234375 145.8154754638672 320.8911437988281 C 142.18299865722656 322.4886474609375 141.0554656982422 329.82830810546875 144.27757263183594 338.6130676269531 C 146.24192810058594 338.9721984863281 142.95938110351562 345.64349365234375 150.76339721679688 345.2392272949219 C 152.3958282470703 338.75592041015625 156.4790496826172 331.4926452636719 164.851806640625 327.8354187011719 C 173.14942932128906 324.2577819824219 181.85919189453125 316.25738525390625 194.70204162597656 312.7593688964844 C 198.547607421875 326.6191101074219 192.6898956298828 334.9430236816406 194.1422882080078 352.09112548828125 C 195.82980346679688 356.2439270019531 199.4861602783203 355.4324951171875 209.1518096923828 353.60040283203125 C 209.5832977294922 342.9649963378906 215.2490234375 330.22686767578125 216.1544647216797 306.66546630859375 C 216.8048095703125 289.8939208984375 210.64651489257812 272.63311767578125 209.62730407714844 250.42591857910156 C 205.48779296875 251.4443817138672 192.02853393554688 250.2678985595703 181.42825317382812 249.47312927246094" stroke-width="0.0" fill="rgb(95, 90, 86)" opacity="0.8594913" stroke="rgb(0, 0, 0)" stroke-opacity="1.0" stroke-linecap="round" stroke-linejoin="round"/>
    <path d="M 97.52619934082031 370.3882141113281 C 101.82503509521484 374.78704833984375 115.33000183105469 375.425048828125 129.9436798095703 375.2737121582031 C 150.4949493408203 371.1619873046875 172.53965759277344 370.1740417480469 183.4120330810547 359.0218811035156 C 172.50021362304688 355.7427673339844 156.7112579345703 355.0774841308594 132.6561737060547 355.3011474609375 C 119.72286987304688 358.90887451171875 107.15486145019531 358.00860595703125 100.0112533569336 361.3648376464844 C 96.38531494140625 364.8506774902344 93.6821060180664 364.4481201171875 97.52619934082031 370.3882141113281" stroke-width="0.0" fill="rgb(55, 52, 48)" opacity="1.0030059" stroke="rgb(0, 0, 0)" stroke-opacity="1.0" stroke-linecap="round" stroke-linejoin="round"/>
    <path d="M 198.6915740966797 144.67657470703125 C 194.98121643066406 146.0529327392578 187.95477294921875 149.15045166015625 189.11585998535156 155.42144775390625 C 184.64932250976562 158.84677124023438 190.66595458984375 161.0585479736328 188.61187744140625 172.4147491455078 C 193.1128387451172 172.75282287597656 196.90789794921875 174.03717041015625 202.00120544433594 177.0972137451172 C 204.26034545898438 170.2241668701172 207.49441528320312 163.9906768798828 209.26609802246094 157.88880920410156 C 206.91375732421875 147.4002227783203 206.5671844482422 146.0795440673828 198.6915740966797 144.67657470703125" stroke-width="0.0" fill="rgb(32, 34, 40)" opacity="0.98975056" stroke="rgb(0, 0, 0)" stroke-opacity="1.0" stroke-linecap="round" stroke-linejoin="round"/>
    <path d="M 314.7803955078125 251.658203125 C 307.5201721191406 254.89910888671875 293.537109375 250.56045532226562 286.96209716796875 249.78396606445312 C 274.5298767089844 249.352783203125 264.8333435058594 250.297607421875 256.36920166015625 256.6741943359375 C 250.98626708984375 266.9485778808594 244.94970703125 283.1168518066406 246.9784393310547 300.2538146972656 C 265.87799072265625 306.74456787109375 290.3977966308594 300.7882385253906 313.8695983886719 301.9375305175781 C 319.9832458496094 284.7170715332031 318.9549255371094 272.8541564941406 314.7803955078125 251.658203125" stroke-width="0.0" fill="rgb(85, 74, 71)" opacity="0.77012885" stroke="rgb(0, 0, 0)" stroke-opacity="1.0" stroke-linecap="round" stroke-linejoin="round"/>
    <path d="M 302.8896179199219 439.42095947265625 C 328.29473876953125 439.4574279785156 351.3074951171875 446.01873779296875 364.1122131347656 446.4192810058594 C 398.92266845703125 445.1731262207031 418.045166015625 443.55810546875 440.6357421875 442.6177673339844 C 442.94085693359375 439.7474670410156 447.4495544433594 439.12017822265625 447.99127197265625 431.2190246582031 C 402.30718994140625 429.08294677734375 379.54815673828125 416.51495361328125 319.3958740234375 419.5457458496094 C 316.3966369628906 427.4706726074219 295.9827880859375 425.5007019042969 302.8896179199219 439.42095947265625" stroke-width="0.0" fill="rgb(89, 84, 75)" opacity="0.9964978" stroke="rgb(0, 0, 0)" stroke-opacity="1.0" stroke-linecap="round" stroke-linejoin="round"/>
    <path d="M 190.95492553710938 313.54547119140625 C 180.47007751464844 317.9412536621094 171.51812744140625 326.37158203125 156.59495544433594 331.4174499511719 C 154.4844970703125 335.1573791503906 153.2532501220703 346.6163635253906 151.33950805664062 352.9635314941406 C 159.57225036621094 359.1676940917969 178.16651916503906 358.4742126464844 190.67373657226562 353.63153076171875 C 194.53941345214844 344.26116943359375 199.60633850097656 322.3397216796875 190.95492553710938 313.54547119140625" stroke-width="0.0" fill="rgb(191, 169, 132)" opacity="0.841781" stroke="rgb(0, 0, 0)" stroke-opacity="1.0" stroke-linecap="round" stroke-linejoin="round"/>
    <path d="M 252.94406127929688 215.15074157714844 C 277.052978515625 218.792236328125 296.34527587890625 213.2073211669922 296.8448486328125 225.15960693359375 C 334.6961669921875 215.2731170654297 361.5168762207031 221.89901733398438 372.3836364746094 212.8224334716797 C 346.7440185546875 202.97999572753906 311.3712463378906 210.17578125 283.6368713378906 202.90077209472656 C 266.4797058105469 203.98883056640625 261.1023864746094 208.4569091796875 252.94406127929688 215.15074157714844" stroke-width="0.0" fill="rgb(125, 120, 112)" opacity="1.1356058" stroke="rgb(0, 0, 0)" stroke-opacity="1.0" stroke-linecap="round" stroke-linejoin="round"/>
    <path d="M 146.48117065429688 262.0708312988281 C 129.44700622558594 261.4828796386719 115.50923156738281 268.1235656738281 99.53729248046875 266.9673767089844 C 87.2061996459961 267.99462890625 83.36445617675781 267.4668884277344 85.30342864990234 278.5530700683594 C 96.0703353881836 283.177001953125 112.51760864257812 281.603759765625 136.07815551757812 278.2101135253906 C 145.0653076171875 278.0213317871094 150.73110961914062 275.0134582519531 146.48117065429688 262.0708312988281" stroke-width="0.0" fill="rgb(22, 24, 32)" opacity="0.97829896" stroke="rgb(0, 0, 0)" stroke-opacity="1.0" stroke-linecap="round" stroke-linejoin="round"/>
    <path d="M 331.9820556640625 300.6180114746094 C 326.5419921875 303.95489501953125 324.4205017089844 313.0666809082031 326.64532470703125 330.4073486328125 C 329.09368896484375 328.51031494140625 329.2946472167969 333.34320068359375 343.7744140625 333.8047180175781 C 345.4287414550781 322.5223388671875 348.01483154296875 313.3851318359375 344.7479553222656 303.73382568359375 C 345.7315368652344 299.484130859375 335.58062744140625 298.1886901855469 331.9820556640625 300.6180114746094" stroke-width="0.0" fill="rgb(10, 10, 16)" opacity="0.9982873" stroke="rgb(0, 0, 0)" stroke-opacity="1.0" stroke-linecap="round" stroke-linejoin="round"/>
    <path d="M -1.4252084493637085 173.46697998046875 C -4.420902252197266 175.69375610351562 -2.801262140274048 180.0105743408203 -2.9046993255615234 184.6715087890625 C 19.77269172668457 184.3412628173828 40.1058235168457 185.98731994628906 61.755428314208984 188.494384765625 C 60.376834869384766 180.95358276367188 51.36840057373047 181.05613708496094 45.830413818359375 178.0866241455078 C 31.212085723876953 175.417724609375 15.374493598937988 175.1487579345703 -1.4252084493637085 173.46697998046875" stroke-width="0.0" fill="rgb(129, 172, 211)" opacity="0.99028486" stroke="rgb(0, 0, 0)" stroke-opacity="1.0" stroke-linecap="round" stroke-linejoin="round"/>
    <path d="M 350.7943115234375 239.33692932128906 C 358.3155822753906 268.1398010253906 345.9115905761719 288.6274719238281 346.28826904296875 346.1009826660156 C 342.7391052246094 359.16558837890625 351.15496826171875 364.5534973144531 355.20697021484375 379.1774597167969 C 363.41778564453125 378.9133605957031 362.6755676269531 372.82330322265625 369.5899658203125 371.6123962402344 C 369.2029113769531 363.6925964355469 372.81768798828125 361.1313171386719 372.89508056640625 350.8240966796875 C 395.87054443359375 352.65625 415.22479248046875 360.1861877441406 441.1137390136719 362.1526184082031 C 442.55841064453125 376.64739990234375 444.5958251953125 378.9771423339844 457.4035949707031 391.5263977050781 C 462.3049011230469 392.3575439453125 476.3377380371094 396.1911926269531 490.8939514160156 394.5241394042969 C 494.5732116699219 378.4491882324219 504.5526428222656 372.2227783203125 508.05194091796875 357.0913391113281 C 510.1430358886719 343.1225280761719 503.90234375 335.1810607910156 499.5378112792969 331.625732421875 C 502.2563171386719 321.3963317871094 506.99029541015625 314.19915771484375 516.312255859375 308.0049743652344 C 520.1094970703125 296.09967041015625 519.1089477539062 287.6000671386719 514.709228515625 274.3168029785156 C 507.26947021484375 280.7878112792969 509.7944030761719 286.041259765625 500.1770324707031 285.01416015625 C 500.84869384765625 274.37811279296875 494.356201171875 264.7803649902344 495.5396423339844 253.6652069091797 C 486.6398620605469 250.9447021484375 489.0462341308594 239.10670471191406 474.60272216796875 236.1884307861328 C 442.6883850097656 230.84324645996094 406.025146484375 228.42210388183594 380.33447265625 223.46083068847656 C 364.4593811035156 223.4242706298828 351.1777038574219 225.8445281982422 350.7943115234375 239.33692932128906" stroke-width="0.0" fill="rgb(78, 66, 65)" opacity="0.90216863" stroke="rgb(0, 0, 0)" stroke-opacity="1.0" stroke-linecap="round" stroke-linejoin="round"/>
    <path d="M 296.58563232421875 222.50820922851562 C 265.2502746582031 226.9493408203125 233.48388671875 218.72755432128906 213.64491271972656 230.1563262939453 C 210.67234802246094 229.21957397460938 210.8414764404297 244.83018493652344 209.38124084472656 257.9659423828125 C 211.5350799560547 265.6668701171875 212.8522186279297 274.9577331542969 215.68637084960938 284.40777587890625 C 226.45370483398438 282.1102294921875 241.76124572753906 284.368896484375 247.9540252685547 278.4388427734375 C 251.40863037109375 267.5289001464844 251.73289489746094 252.54751586914062 254.7456817626953 236.868896484375 C 262.310791015625 229.53158569335938 279.0859680175781 228.64895629882812 296.58563232421875 222.50820922851562" stroke-width="0.0" fill="rgb(125, 167, 178)" opacity="0.9797945" stroke="rgb(0, 0, 0)" stroke-opacity="1.0" stroke-linecap="round" stroke-linejoin="round"/>
    <path d="M 316.5872802734375 232.32989501953125 C 301.8606262207031 227.5924072265625 299.19134521484375 224.84133911132812 279.0906677246094 227.83432006835938 C 268.99755859375 230.010986328125 260.0904846191406 232.1514129638672 256.2115478515625 235.13238525390625 C 254.19847106933594 238.1939697265625 251.600341796875 243.5006866455078 253.33871459960938 251.21629333496094 C 266.9956359863281 248.32662963867188 293.68902587890625 251.60655212402344 316.5740051269531 252.01344299316406 C 319.22637939453125 248.64944458007812 318.3272705078125 242.7005615234375 316.5872802734375 232.32989501953125" stroke-width="0.0" fill="rgb(154, 159, 160)" opacity="0.9982538" stroke="rgb(0, 0, 0)" stroke-opacity="1.0" stroke-linecap="round" stroke-linejoin="round"/>
    <path d="M 337.4491271972656 228.02549743652344 C 335.24627685546875 233.14134216308594 328.14300537109375 235.48377990722656 326.468994140625 242.37384033203125 C 330.8116760253906 251.6754913330078 329.6437072753906 266.5133361816406 335.0519104003906 281.9124450683594 C 341.0403137207031 284.94281005859375 339.6515808105469 271.68994140625 347.00592041015625 280.1379699707031 C 349.6865234375 277.9173278808594 354.8209228515625 274.94915771484375 353.0804748535156 270.8091735839844 C 353.4783020019531 257.08404541015625 353.47650146484375 245.74391174316406 349.4378662109375 236.4994659423828 C 348.04400634765625 233.91488647460938 342.5426025390625 232.31005859375 337.4491271972656 228.02549743652344" stroke-width="0.0" fill="rgb(103, 84, 75)" opacity="0.94844526" stroke="rgb(0, 0, 0)" stroke-opacity="1.0" stroke-linecap="round" stroke-linejoin="round"/>
    <path d="M 55.683624267578125 265.7898254394531 C 63.615234375 271.46905517578125 71.47590637207031 276.7199401855469 83.62777709960938 279.260498046875 C 85.24800109863281 273.2479553222656 86.27607727050781 266.7683410644531 87.62242126464844 267.009033203125 C 109.15776824951172 269.23876953125 128.08363342285156 263.00323486328125 147.7051544189453 258.32501220703125 C 148.86187744140625 257.838134765625 151.7930145263672 255.01620483398438 155.99041748046875 252.0767364501953 C 150.450927734375 244.96653747558594 156.21986389160156 235.99114990234375 153.27413940429688 223.56387329101562 C 122.54598999023438 225.5640106201172 93.00566864013672 220.71665954589844 59.84325408935547 223.5513458251953 C 63.22915267944336 238.8961639404297 58.74381637573242 249.64999389648438 55.683624267578125 265.7898254394531" stroke-width="0.0" fill="rgb(112, 160, 172)" opacity="0.996102" stroke="rgb(0, 0, 0)" stroke-opacity="1.0" stroke-linecap="round" stroke-linejoin="round"/>
    <path d="M 453.7825012207031 438.99444580078125 C 446.3070068359375 437.1929626464844 447.7648010253906 443.9992980957031 446.5881042480469 447.33612060546875 C 448.7857666015625 469.3374938964844 463.2219543457031 461.2984313964844 454.17095947265625 471.56719970703125 C 461.446044921875 473.2696228027344 465.5443115234375 472.1131896972656 472.201904296875 473.5008239746094 C 456.9475402832031 476.1142883300781 477.373779296875 480.7866516113281 462.6242980957031 485.2635498046875 C 472.1177062988281 486.9015808105469 471.72955322265625 488.5245361328125 476.43359375 499.611083984375 C 476.3488464355469 505.67919921875 474.1446533203125 505.20428466796875 468.33270263671875 517.8534545898438 C 485.0973205566406 517.9827270507812 498.01312255859375 517.9984741210938 518.3889770507812 518.0353393554688 C 518.3961791992188 487.878173828125 518.430908203125 464.62298583984375 515.5245971679688 445.04351806640625 C 508.5936279296875 434.8180847167969 500.7185363769531 435.7352294921875 490.27557373046875 432.2547912597656 C 470.0430908203125 435.3764343261719 458.1779479980469 431.2122802734375 453.7825012207031 438.99444580078125" stroke-width="0.0" fill="rgb(196, 175, 132)" opacity="1.0064541" stroke="rgb(0, 0, 0)" stroke-opacity="1.0" stroke-linecap="round" stroke-linejoin="round"/>
    <path d="M 450.1479797363281 191.94349670410156 C 426.723388671875 188.45782470703125 386.00177001953125 190.07586669921875 349.5247497558594 191.09957885742188 C 324.4527282714844 193.5726318359375 294.0449523925781 192.9273223876953 285.35614013671875 201.20655822753906 C 292.8019104003906 213.84974670410156 328.12139892578125 205.54965209960938 362.74871826171875 208.7823486328125 C 357.37152099609375 211.09107971191406 366.3184814453125 205.396240234375 368.5167541503906 220.6575927734375 C 370.5924377441406 217.94598388671875 372.6015319824219 207.54298400878906 370.26385498046875 202.6636505126953 C 391.93450927734375 198.80722045898438 385.0088195800781 202.6608428955078 391.0096435546875 207.30023193359375 C 415.8527526855469 205.90708923339844 430.9462585449219 203.8144989013672 444.122314453125 203.49331665039062 C 449.9415588378906 199.0623779296875 454.77923583984375 203.22665405273438 450.1479797363281 191.94349670410156" stroke-width="0.0" fill="rgb(136, 89, 38)" opacity="0.90867245" stroke="rgb(0, 0, 0)" stroke-opacity="1.0" stroke-linecap="round" stroke-linejoin="round"/>
    <path d="M 173.06527709960938 189.97503662109375 C 164.51461791992188 200.1047821044922 159.13502502441406 210.564453125 154.18519592285156 225.2102508544922 C 159.6544952392578 250.04354858398438 153.2528533935547 267.0740661621094 157.19668579101562 290.3909606933594 C 155.46153259277344 295.752685546875 159.07919311523438 294.6985778808594 165.42608642578125 297.0069274902344 C 174.5347900390625 293.5257263183594 175.66268920898438 285.327392578125 181.0092315673828 274.11767578125 C 178.26715087890625 270.0946350097656 175.61451721191406 261.3270568847656 175.83657836914062 247.9013214111328 C 169.48822021484375 249.02513122558594 173.11766052246094 260.688232421875 166.77720642089844 270.947998046875 C 166.63137817382812 264.8013000488281 170.26206970214844 271.156494140625 161.44607543945312 268.4356994628906 C 168.015625 247.48182678222656 166.65025329589844 218.4567413330078 173.06527709960938 189.97503662109375" stroke-width="0.0" fill="rgb(115, 108, 107)" opacity="0.79257643" stroke="rgb(0, 0, 0)" stroke-opacity="1.0" stroke-linecap="round" stroke-linejoin="round"/>
    <path d="M 83.83515167236328 285.2200927734375 C 76.96942138671875 288.2478942871094 66.64154052734375 286.1780700683594 54.52653121948242 284.78656005859375 C 63.89487838745117 308.5721130371094 44.541473388671875 307.46148681640625 56.49707794189453 323.4059143066406 C 64.93106079101562 323.1103210449219 74.26100158691406 320.0033264160156 84.37060546875 320.4523620605469 C 83.02053833007812 306.8529052734375 86.449462890625 293.5075378417969 83.83515167236328 285.2200927734375" stroke-width="0.0" fill="rgb(183, 175, 161)" opacity="1.0038613" stroke="rgb(0, 0, 0)" stroke-opacity="1.0" stroke-linecap="round" stroke-linejoin="round"/>
    <path d="M 468.205078125 171.73191833496094 C 468.3267517089844 166.40548706054688 469.35009765625 163.33546447753906 464.283447265625 158.46145629882812 C 463.2208251953125 158.96963500976562 455.60162353515625 155.67039489746094 443.18487548828125 155.64535522460938 C 422.72503662109375 157.20855712890625 409.58575439453125 150.16171264648438 404.2377624511719 163.9629364013672 C 418.371826171875 168.18124389648438 444.1687927246094 168.2910614013672 468.205078125 171.73191833496094" stroke-width="0.0" fill="rgb(114, 60, 22)" opacity="0.9707307" stroke="rgb(0, 0, 0)" stroke-opacity="1.0" stroke-linecap="round" stroke-linejoin="round"/>
    <path d="M 41.071353912353516 301.00750732421875 C 32.12115478515625 300.6676330566406 23.333585739135742 301.060302734375 16.976896286010742 306.36529541015625 C 17.55988121032715 310.6197814941406 15.281482696533203 318.136962890625 14.73348617553711 326.9490661621094 C 28.06279182434082 328.8012390136719 33.68913650512695 323.3856201171875 46.3196907043457 324.6285400390625 C 46.56493377685547 314.6076354980469 44.458126068115234 305.961669921875 41.071353912353516 301.00750732421875" stroke-width="0.0" fill="rgb(156, 138, 108)" opacity="0.99678284" stroke="rgb(0, 0, 0)" stroke-opacity="1.0" stroke-linecap="round" stroke-linejoin="round"/>
    <path d="M 364.0826110839844 218.3434295654297 C 351.2071228027344 214.4851837158203 336.0797424316406 219.72801208496094 318.51837158203125 217.65325927734375 C 314.4891662597656 218.6674346923828 309.43133544921875 220.01336669921875 306.9815368652344 223.4813690185547 C 322.38262939453125 230.67909240722656 314.8858947753906 242.78355407714844 323.3857421875 252.5989227294922 C 324.462158203125 232.5944061279297 333.3006591796875 237.4516143798828 335.8292541503906 226.5115203857422 C 343.2168273925781 223.50070190429688 339.62127685546875 228.60983276367188 344.7248229980469 233.32847595214844 C 350.8035888671875 223.81781005859375 356.06964111328125 232.81625366210938 364.0826110839844 218.3434295654297" stroke-width="0.0" fill="rgb(144, 181, 192)" opacity="0.9494022" stroke="rgb(0, 0, 0)" stroke-opacity="1.0" stroke-linecap="round" stroke-linejoin="round"/>
    <path d="M 257.21136474609375 333.03985595703125 C 277.6828308105469 335.47735595703125 313.3612365722656 333.669921875 348.71246337890625 335.59234619140625 C 334.9027099609375 330.9178771972656 325.8636474609375 332.3236083984375 324.3327331542969 324.46905517578125 C 304.88812255859375 328.05352783203125 277.0851135253906 322.728515625 257.21136474609375 333.03985595703125" stroke-width="0.0" fill="rgb(42, 40, 37)" opacity="0.95929855" stroke="rgb(0, 0, 0)" stroke-opacity="1.0" stroke-linecap="round" stroke-linejoin="round"/>
    <path d="M 46.6460075378418 273.7873840332031 C 48.4588623046875 277.98095703125 51.665306091308594 283.9222717285156 54.53064727783203 286.406982421875 C 77.11918640136719 284.42401123046875 83.78337860107422 290.195556640625 86.32901000976562 280.1634826660156 C 80.58516693115234 272.4244079589844 63.17152404785156 280.8166809082031 69.73784637451172 269.8190612792969 C 53.1917839050293 268.8693542480469 49.668731689453125 266.7560729980469 46.6460075378418 273.7873840332031" stroke-width="0.0" fill="rgb(105, 105, 100)" opacity="1.0173353" stroke="rgb(0, 0, 0)" stroke-opacity="1.0" stroke-linecap="round" stroke-linejoin="round"/>
    <path d="M 293.63702392578125 503.9510498046875 C 293.7228698730469 509.9249572753906 300.54437255859375 505.77374267578125 302.97235107421875 519.9688110351562 C 317.7585754394531 521.9000244140625 331.5623474121094 523.2678833007812 337.35577392578125 518.239501953125 C 339.77410888671875 498.01898193359375 325.302490234375 502.4978942871094 312.6476135253906 497.7251281738281 C 307.3638610839844 496.9690856933594 299.0432434082031 501.42791748046875 293.63702392578125 503.9510498046875" stroke-width="0.0" fill="rgb(174, 152, 110)" opacity="0.9998435" stroke="rgb(0, 0, 0)" stroke-opacity="1.0" stroke-linecap="round" stroke-linejoin="round"/>
    <path d="M 373.5909729003906 367.88275146484375 C 366.09228515625 377.9790344238281 380.0895080566406 375.001953125 392.9532165527344 379.34332275390625 C 407.66986083984375 381.3240051269531 431.1112060546875 383.1513366699219 441.33941650390625 379.041015625 C 417.060791015625 373.82830810546875 394.1909484863281 370.84564208984375 373.5909729003906 367.88275146484375" stroke-width="0.0" fill="rgb(176, 152, 119)" opacity="0.9928852" stroke="rgb(0, 0, 0)" stroke-opacity="1.0" stroke-linecap="round" stroke-linejoin="round"/>
    <path d="M 457.39007568359375 133.54547119140625 C 439.48388671875 137.2579345703125 420.2690734863281 137.8555450439453 404.19818115234375 140.87896728515625 C 401.0836181640625 144.45993041992188 399.0561218261719 150.5399627685547 397.8107604980469 155.0991668701172 C 414.3372497558594 157.7726287841797 428.4693603515625 156.69725036621094 454.1014099121094 153.1807403564453 C 454.73577880859375 152.10203552246094 458.1761779785156 144.1094207763672 457.39007568359375 133.54547119140625" stroke-width="0.0" fill="rgb(117, 86, 45)" opacity="0.95628947" stroke="rgb(0, 0, 0)" stroke-opacity="1.0" stroke-linecap="round" stroke-linejoin="round"/>
    <path d="M 457.4716491699219 137.0132293701172 C 458.9261169433594 142.78721618652344 455.719482421875 146.61270141601562 457.7685241699219 148.66053771972656 C 472.55841064453125 151.75848388671875 492.67218017578125 152.67593383789062 519.2589111328125 151.5371856689453 C 519.2572631835938 144.61367797851562 519.6456298828125 136.4515838623047 521.0205078125 132.9965057373047 C 490.5254211425781 133.1400604248047 471.4434509277344 131.8720703125 457.4716491699219 137.0132293701172" stroke-width="0.0" fill="rgb(117, 86, 46)" opacity="0.9873085" stroke="rgb(0, 0, 0)" stroke-opacity="1.0" stroke-linecap="round" stroke-linejoin="round"/>
    <path d="M 127.37651062011719 505.312255859375 C 134.8759765625 514.3839721679688 142.5853729248047 519.5372924804688 152.6190185546875 518.4714965820312 C 160.90309143066406 505.7090759277344 171.15347290039062 504.65765380859375 173.5946502685547 503.0653076171875 C 170.30947875976562 492.53009033203125 158.65737915039062 497.25006103515625 147.69557189941406 495.76434326171875 C 139.76976013183594 498.0997314453125 129.53964233398438 501.3915710449219 127.37651062011719 505.312255859375" stroke-width="0.0" fill="rgb(188, 165, 122)" opacity="0.9991813" stroke="rgb(0, 0, 0)" stroke-opacity="1.0" stroke-linecap="round" stroke-linejoin="round"/>
    <path d="M 178.54681396484375 251.78736877441406 C 175.52003479003906 264.6612854003906 185.60984802246094 272.29583740234375 188.4258270263672 290.4426574707031 C 186.0240936279297 295.1480712890625 184.6522979736328 298.5292663574219 187.1438446044922 299.5115661621094 C 188.2386932373047 295.6796875 193.15652465820312 303.9566650390625 196.96717834472656 309.1350402832031 C 197.25990295410156 320.35015869140625 194.99560546875 336.52215576171875 193.86741638183594 353.3614807128906 C 197.4929962158203 355.276611328125 203.49835205078125 356.46826171875 209.4746856689453 352.0597839355469 C 209.65687561035156 342.7967529296875 215.19113159179688 329.6585388183594 216.0130157470703 304.8700256347656 C 216.36180114746094 289.5159912109375 211.32327270507812 272.109619140625 208.42442321777344 253.46910095214844 C 200.90528869628906 252.14549255371094 181.16232299804688 249.3508758544922 178.54681396484375 251.78736877441406" stroke-width="0.0" fill="rgb(28, 28, 34)" opacity="0.9855338" stroke="rgb(0, 0, 0)" stroke-opacity="1.0" stroke-linecap="round" stroke-linejoin="round"/>
    <path d="M -2.416138172149658 184.98988342285156 C -5.180380344390869 192.35726928710938 -5.809776782989502 201.12191772460938 -8.650883674621582 209.18655395507812 C 27.756851196289062 205.66543579101562 56.31712341308594 206.168701171875 73.79684448242188 201.71926879882812 C 77.78185272216797 190.99923706054688 69.57323455810547 192.96786499023438 63.09543991088867 188.7498321533203 C 43.39049530029297 186.82119750976562 20.084136962890625 184.3980255126953 -2.416138172149658 184.98988342285156" stroke-width="0.0" fill="rgb(121, 82, 48)" opacity="1.0005077" stroke="rgb(0, 0, 0)" stroke-opacity="1.0" stroke-linecap="round" stroke-linejoin="round"/>
    <path d="M 188.19236755371094 294.4071350097656 C 173.5767822265625 303.5 157.28976440429688 313.1802978515625 140.7108154296875 322.0082702636719 C 140.36265563964844 330.11114501953125 144.63633728027344 345.07525634765625 147.37869262695312 347.16021728515625 C 156.70559692382812 352.6338195800781 149.92495727539062 338.3765869140625 157.23513793945312 332.0787353515625 C 171.1555633544922 324.0602722167969 183.38368225097656 316.6639709472656 197.1256866455078 309.0452575683594 C 196.85800170898438 303.3539123535156 186.58050537109375 300.48736572265625 188.19236755371094 294.4071350097656" stroke-width="0.0" fill="rgb(28, 25, 26)" opacity="1.0111296" stroke="rgb(0, 0, 0)" stroke-opacity="1.0" stroke-linecap="round" stroke-linejoin="round"/>
    <path d="M 317.7341613769531 423.1748962402344 C 347.12017822265625 428.3980407714844 374.3586730957031 432.7752380371094 414.1855163574219 432.34124755859375 C 406.91705322265625 424.205078125 388.7546691894531 424.4007263183594 378.4131164550781 420.407958984375 C 355.7000427246094 422.3661804199219 324.3276062011719 413.9106750488281 317.7341613769531 423.1748962402344" stroke-width="0.0" fill="rgb(133, 122, 100)" opacity="0.92804635" stroke="rgb(0, 0, 0)" stroke-opacity="1.0" stroke-linecap="round" stroke-linejoin="round"/>
    <path d="M 350.73529052734375 235.2862091064453 C 355.1832580566406 271.78033447265625 354.9682922363281 291.19451904296875 348.4624938964844 310.1507568359375 C 352.0971984863281 331.0201110839844 349.4114685058594 335.7071228027344 366.1788330078125 349.04241943359375 C 381.7438049316406 349.1002197265625 408.44989013671875 357.29559326171875 437.1879577636719 361.5580749511719 C 452.1270446777344 362.07757568359375 458.5971984863281 362.8861083984375 463.6610107421875 352.70330810546875 C 470.9324035644531 345.04510498046875 473.5780029296875 323.7664794921875 480.75372314453125 305.96435546875 C 482.1307373046875 293.93011474609375 489.9404296875 285.8424072265625 499.7794189453125 285.74908447265625 C 498.5354919433594 269.8302917480469 496.9786071777344 259.4487609863281 492.3023986816406 253.02786254882812 C 444.4369201660156 248.26478576660156 397.3834533691406 241.83267211914062 350.73529052734375 235.2862091064453" stroke-width="0.0" fill="rgb(58, 57, 54)" opacity="0.99014735" stroke="rgb(0, 0, 0)" stroke-opacity="1.0" stroke-linecap="round" stroke-linejoin="round"/>
    <path d="M 514.531494140625 278.3730163574219 C 503.0657958984375 291.98785400390625 483.7896728515625 284.1299133300781 481.32708740234375 296.6232604980469 C 477.2682189941406 315.9237976074219 472.1844177246094 330.9718933105469 468.00018310546875 346.87060546875 C 462.71527099609375 359.54541015625 454.86083984375 367.15155029296875 449.02392578125 382.00689697265625 C 448.2088317871094 386.9064025878906 451.03912353515625 387.2684631347656 454.4041748046875 390.771728515625 C 463.861083984375 392.2666015625 474.3462829589844 394.5045471191406 491.18743896484375 394.17364501953125 C 493.9254150390625 378.0247497558594 505.58831787109375 371.0582580566406 508.21734619140625 354.7286071777344 C 510.9274597167969 343.12322998046875 504.4975891113281 335.6920471191406 498.9409484863281 330.1385192871094 C 501.7033386230469 321.14398193359375 507.72686767578125 316.3424072265625 514.7914428710938 306.25054931640625 C 517.391357421875 298.2875671386719 517.6665649414062 291.4195556640625 514.531494140625 278.3730163574219" stroke-width="0.0" fill="rgb(50, 52, 51)" opacity="0.94690216" stroke="rgb(0, 0, 0)" stroke-opacity="1.0" stroke-linecap="round" stroke-linejoin="round"/>
    <path d="M 47.11534118652344 242.822998046875 C 46.787166595458984 237.6373748779297 36.93056106567383 237.99600219726562 26.567115783691406 237.93087768554688 C 14.301281929016113 239.18601989746094 6.944106101989746 243.4595489501953 -2.0780789852142334 248.93887329101562 C -5.320650577545166 255.95285034179688 -5.8864593505859375 266.4823913574219 -5.951226711273193 275.6947021484375 C 18.63910675048828 275.2989196777344 32.553314208984375 275.5681457519531 41.194679260253906 275.0708923339844 C 48.68980026245117 268.9781494140625 47.22854232788086 255.4468231201172 47.11534118652344 242.822998046875" stroke-width="0.0" fill="rgb(128, 152, 161)" opacity="0.99143624" stroke="rgb(0, 0, 0)" stroke-opacity="1.0" stroke-linecap="round" stroke-linejoin="round"/>
    <path d="M -8.885358810424805 274.3867492675781 C -6.575542449951172 285.6931457519531 -6.89019775390625 295.73193359375 -0.350216805934906 299.43499755859375 C 6.099600791931152 301.70184326171875 17.181682586669922 303.2320556640625 22.93848991394043 302.89239501953125 C 35.50175094604492 301.0389099121094 47.64588928222656 300.77142333984375 52.72596740722656 294.96142578125 C 57.320648193359375 282.96337890625 51.089351654052734 280.6922912597656 43.2165641784668 275.7669677734375 C 32.32563781738281 274.9540710449219 15.003984451293945 275.66070556640625 -8.885358810424805 274.3867492675781" stroke-width="0.0" fill="rgb(102, 86, 64)" opacity="0.8690336" stroke="rgb(0, 0, 0)" stroke-opacity="1.0" stroke-linecap="round" stroke-linejoin="round"/>
    <path d="M 107.74637603759766 214.08604431152344 C 99.84915924072266 204.2897186279297 92.96574401855469 202.22311401367188 76.19881439208984 200.40113830566406 C 56.082489013671875 207.43655395507812 21.530912399291992 203.78857421875 -26.717273712158203 212.65731811523438 C 7.040737152099609 214.62379455566406 32.32492446899414 213.50218200683594 50.10136795043945 218.54568481445312 C 51.73810958862305 214.53585815429688 49.65323257446289 228.48658752441406 53.23912048339844 220.5279083251953 C 61.397216796875 225.7486114501953 57.703819274902344 224.94775390625 59.667327880859375 216.1532440185547 C 76.5077896118164 216.0843048095703 94.73067474365234 215.0364227294922 107.74637603759766 214.08604431152344" stroke-width="0.0" fill="rgb(122, 88, 46)" opacity="0.95574325" stroke="rgb(0, 0, 0)" stroke-opacity="1.0" stroke-linecap="round" stroke-linejoin="round"/>
    <path d="M 59.44766616821289 221.9727325439453 C 52.87013244628906 217.13778686523438 51.246707916259766 222.20909118652344 47.385257720947266 231.54066467285156 C 49.103553771972656 249.6521759033203 44.392093658447266 267.7781066894531 47.4063606262207 276.2702941894531 C 51.4589958190918 280.9772644042969 54.66619110107422 275.3855895996094 56.60136032104492 273.97454833984375 C 54.12826156616211 253.3821258544922 63.3162956237793 243.5189208984375 59.44766616821289 221.9727325439453" stroke-width="0.0" fill="rgb(88, 106, 113)" opacity="0.9809483" stroke="rgb(0, 0, 0)" stroke-opacity="1.0" stroke-linecap="round" stroke-linejoin="round"/>
    <path d="M 283.40460205078125 251.65158081054688 C 286.5542907714844 259.9291687011719 281.64923095703125 258.3604431152344 283.3559265136719 266.68792724609375 C 289.1573181152344 266.81640625 303.36834716796875 267.34814453125 314.9783020019531 266.7360534667969 C 317.4608459472656 259.451171875 316.6642761230469 255.41729736328125 313.9234313964844 253.9937286376953 C 309.9298400878906 250.00674438476562 294.7815856933594 253.01414489746094 283.40460205078125 251.65158081054688" stroke-width="0.0" fill="rgb(68, 62, 66)" opacity="0.9909195" stroke="rgb(0, 0, 0)" stroke-opacity="1.0" stroke-linecap="round" stroke-linejoin="round"/>
    <path d="M 204.04884338378906 144.76092529296875 C 199.33978271484375 142.55035400390625 192.04867553710938 144.5152130126953 191.52305603027344 146.6277313232422 C 184.9896697998047 155.8692169189453 186.35906982421875 161.79856872558594 192.00657653808594 167.16604614257812 C 200.38821411132812 165.9005889892578 206.05023193359375 165.56805419921875 210.1061553955078 159.66558837890625 C 211.3258819580078 150.34933471679688 208.627685546875 148.8682098388672 204.04884338378906 144.76092529296875" stroke-width="0.0" fill="rgb(29, 33, 46)" opacity="0.8292365" stroke="rgb(0, 0, 0)" stroke-opacity="1.0" stroke-linecap="round" stroke-linejoin="round"/>
    <path d="M 146.745849609375 260.91644287109375 C 135.0745086669922 261.4085693359375 125.79930877685547 265.359375 116.41676330566406 266.09210205078125 C 116.47382354736328 264.5796203613281 117.81497955322266 273.2847595214844 115.6173095703125 277.0734558105469 C 122.29727172851562 279.14129638671875 134.30564880371094 277.15087890625 143.46498107910156 275.7909851074219 C 148.3324737548828 273.1210021972656 148.07383728027344 270.6504821777344 146.745849609375 260.91644287109375" stroke-width="0.0" fill="rgb(9, 35, 47)" opacity="1.0169047" stroke="rgb(0, 0, 0)" stroke-opacity="1.0" stroke-linecap="round" stroke-linejoin="round"/>
    <path d="M 190.1923370361328 172.52285766601562 C 180.61138916015625 175.3872528076172 174.16844177246094 183.6914520263672 171.1285400390625 193.90570068359375 C 172.31668090820312 197.4674530029297 170.68870544433594 197.70765686035156 174.0014190673828 205.08531188964844 C 178.7885284423828 201.76950073242188 187.3657989501953 196.4307861328125 186.537841796875 208.1379852294922 C 186.0110626220703 220.09860229492188 175.62228393554688 228.9958038330078 174.99046325683594 247.71556091308594 C 182.0919952392578 251.1637420654297 196.7548828125 247.9461212158203 207.46182250976562 253.51528930664062 C 210.45611572265625 227.3646697998047 205.48663330078125 200.93540954589844 214.9485321044922 204.82582092285156 C 212.59910583496094 194.7962188720703 210.7777557373047 187.98944091796875 208.0350341796875 183.95401000976562 C 203.2972869873047 179.7542266845703 195.66537475585938 177.222900390625 190.1923370361328 172.52285766601562" stroke-width="0.0" fill="rgb(90, 47, 25)" opacity="0.97952706" stroke="rgb(0, 0, 0)" stroke-opacity="1.0" stroke-linecap="round" stroke-linejoin="round"/>
    <path d="M 257.6634521484375 267.463134765625 C 258.5347595214844 278.9467468261719 261.87017822265625 289.16387939453125 263.5528564453125 303.14154052734375 C 280.59149169921875 299.0208435058594 295.1989440917969 292.8780822753906 316.67828369140625 295.7486267089844 C 317.6651916503906 287.2516784667969 317.5155029296875 270.73345947265625 316.3646240234375 268.2649841308594 C 298.8254699707031 268.3517150878906 273.30633544921875 265.50030517578125 257.6634521484375 267.463134765625" stroke-width="0.0" fill="rgb(81, 72, 63)" opacity="1.0138634" stroke="rgb(0, 0, 0)" stroke-opacity="1.0" stroke-linecap="round" stroke-linejoin="round"/>
    <path d="M 184.2107696533203 200.4648895263672 C 178.78472900390625 201.03402709960938 171.86932373046875 205.9445037841797 171.2216796875 202.4714813232422 C 171.1241912841797 222.87538146972656 167.12863159179688 251.30238342285156 157.13938903808594 277.9119873046875 C 157.98190307617188 269.2785339355469 155.56280517578125 287.4288024902344 157.18382263183594 295.08380126953125 C 159.6513671875 293.6767272949219 163.91937255859375 296.7154846191406 165.43960571289062 296.95941162109375 C 168.85867309570312 296.3528137207031 175.02671813964844 292.0666198730469 175.59573364257812 284.32275390625 C 170.4698944091797 284.9105224609375 169.67300415039062 270.3618469238281 172.0524139404297 260.2585754394531 C 173.056396484375 240.97119140625 180.30734252929688 228.6381378173828 186.96438598632812 212.14097595214844 C 186.95343017578125 203.42259216308594 186.7329559326172 200.17762756347656 184.2107696533203 200.4648895263672" stroke-width="0.0" fill="rgb(64, 58, 42)" opacity="0.94122475" stroke="rgb(0, 0, 0)" stroke-opacity="1.0" stroke-linecap="round" stroke-linejoin="round"/>
    <path d="M 336.13372802734375 226.35250854492188 C 335.1827392578125 237.8876495361328 323.39251708984375 231.24258422851562 324.596435546875 253.22654724121094 C 333.79327392578125 243.3350067138672 326.20977783203125 255.51544189453125 332.9798889160156 272.94921875 C 334.6260681152344 270.01715087890625 343.8227844238281 275.9446716308594 346.1228332519531 270.92425537109375 C 349.19189453125 265.4231262207031 343.1492614746094 255.81796264648438 346.9175109863281 233.4462890625 C 337.2264099121094 237.290771484375 346.1533203125 224.23992919921875 336.13372802734375 226.35250854492188" stroke-width="0.0" fill="rgb(145, 34, 56)" opacity="1.0178248" stroke="rgb(0, 0, 0)" stroke-opacity="1.0" stroke-linecap="round" stroke-linejoin="round"/>
    <path d="M 51.82669448852539 220.1201629638672 C 38.298240661621094 225.54196166992188 18.119651794433594 221.7910614013672 3.4940078258514404 223.05899047851562 C 0.6333832740783691 224.8907928466797 2.9845826625823975 232.0320587158203 1.4464434385299683 237.76809692382812 C 16.534194946289062 239.96275329589844 30.985105514526367 235.81781005859375 48.06943130493164 237.22645568847656 C 46.339839935302734 237.31105041503906 47.966712951660156 227.7013397216797 51.82669448852539 220.1201629638672" stroke-width="0.0" fill="rgb(106, 161, 174)" opacity="0.9969798" stroke="rgb(0, 0, 0)" stroke-opacity="1.0" stroke-linecap="round" stroke-linejoin="round"/>
    <path d="M 85.90897369384766 295.335205078125 C 74.56403350830078 296.92626953125 70.30815887451172 300.58673095703125 60.8409309387207 296.46453857421875 C 55.777984619140625 311.3647766113281 49.81753921508789 299.05963134765625 53.59672546386719 322.2164001464844 C 60.11561584472656 320.1319274902344 73.86168670654297 320.48077392578125 83.46337890625 320.30645751953125 C 85.7022933959961 309.7867126464844 80.54246520996094 307.14703369140625 85.90897369384766 295.335205078125" stroke-width="0.0" fill="rgb(168, 154, 128)" opacity="0.9989937" stroke="rgb(0, 0, 0)" stroke-opacity="1.0" stroke-linecap="round" stroke-linejoin="round"/>
    <path d="M 171.1907958984375 190.45166015625 C 164.905029296875 201.35385131835938 158.31973266601562 212.00062561035156 155.0584259033203 223.15171813964844 C 153.9432830810547 234.6643524169922 155.46360778808594 248.4369659423828 166.33206176757812 251.1776580810547 C 167.92120361328125 233.3458251953125 174.4925079345703 214.5655517578125 171.1907958984375 190.45166015625" stroke-width="0.0" fill="rgb(83, 46, 61)" opacity="0.9537577" stroke="rgb(0, 0, 0)" stroke-opacity="1.0" stroke-linecap="round" stroke-linejoin="round"/>
    <path d="M 294.9754638671875 439.679443359375 C 350.69158935546875 444.8733215332031 379.09259033203125 446.6485900878906 447.9276123046875 443.7106018066406 C 445.9217529296875 439.26544189453125 446.73260498046875 432.8744201660156 445.04022216796875 429.1763610839844 C 418.40093994140625 434.6150207519531 412.23822021484375 421.7373352050781 398.75433349609375 433.169189453125 C 362.49993896484375 431.0653991699219 348.9210510253906 428.27838134765625 343.427978515625 423.8665771484375 C 319.8573913574219 424.3279113769531 312.88360595703125 427.24029541015625 304.0850524902344 424.35430908203125 C 300.328369140625 433.661376953125 295.46600341796875 437.08013916015625 294.9754638671875 439.679443359375" stroke-width="0.0" fill="rgb(39, 43, 43)" opacity="0.85988367" stroke="rgb(0, 0, 0)" stroke-opacity="1.0" stroke-linecap="round" stroke-linejoin="round"/>
    <path d="M 448.6537780761719 438.3112487792969 C 445.64892578125 452.49755859375 448.6356201171875 449.2539367675781 460.541259765625 453.52777099609375 C 466.2845764160156 451.51165771484375 479.1834716796875 451.2248840332031 484.055419921875 445.0759582519531 C 480.45703125 437.2386779785156 467.19378662109375 439.1441955566406 448.6537780761719 438.3112487792969" stroke-width="0.0" fill="rgb(164, 142, 102)" opacity="0.9959288" stroke="rgb(0, 0, 0)" stroke-opacity="1.0" stroke-linecap="round" stroke-linejoin="round"/>
    <path d="M 350.87933349609375 234.25343322753906 C 351.369384765625 243.56494140625 354.0560302734375 261.5201110839844 352.8502502441406 270.5601501464844 C 393.4064025878906 273.0149841308594 420.1100158691406 282.7029113769531 455.41119384765625 285.73004150390625 C 480.90032958984375 287.7347106933594 493.8327941894531 288.2608947753906 501.8197021484375 283.58233642578125 C 498.4002990722656 272.3056945800781 496.2875061035156 263.5008239746094 495.8094787597656 251.15078735351562 C 485.9957275390625 250.75547790527344 490.4822692871094 239.54331970214844 474.4434509277344 235.63812255859375 C 446.08740234375 230.74740600585938 410.4585266113281 228.94635009765625 376.9906311035156 222.62704467773438 C 363.62652587890625 222.7178955078125 357.2347412109375 225.55368041992188 350.87933349609375 234.25343322753906" stroke-width="0.0" fill="rgb(67, 69, 70)" opacity="0.84975094" stroke="rgb(0, 0, 0)" stroke-opacity="1.0" stroke-linecap="round" stroke-linejoin="round"/>
    <path d="M 396.9442138671875 286.6449890136719 C 395.22119140625 299.6146240234375 397.1260681152344 316.351806640625 396.3638610839844 327.80023193359375 C 395.241943359375 328.89495849609375 397.1026916503906 334.81292724609375 401.76226806640625 339.4441833496094 C 417.35211181640625 343.7228698730469 439.6704406738281 346.2683410644531 454.6558532714844 352.9486083984375 C 462.3098449707031 352.60211181640625 462.7663879394531 348.3274230957031 467.4927978515625 345.9596862792969 C 468.263427734375 325.16961669921875 479.3236389160156 310.0990295410156 477.6439208984375 291.04583740234375 C 458.5079040527344 282.0087890625 428.4604187011719 288.05657958984375 396.9442138671875 286.6449890136719" stroke-width="0.0" fill="rgb(44, 39, 39)" opacity="1.0114046" stroke="rgb(0, 0, 0)" stroke-opacity="1.0" stroke-linecap="round" stroke-linejoin="round"/>
    <path d="M 499.9857177734375 331.8952941894531 C 488.01947021484375 328.4887390136719 477.0185852050781 326.1662902832031 472.5652160644531 322.7807922363281 C 470.14581298828125 358.4294738769531 456.58831787109375 369.3654479980469 447.56317138671875 384.9786376953125 C 446.2641906738281 400.9535827636719 463.161865234375 396.8025207519531 490.28118896484375 396.5089111328125 C 493.81781005859375 376.0887145996094 508.18475341796875 371.96392822265625 508.663330078125 348.2359924316406 C 507.6089172363281 342.53485107421875 504.7125244140625 335.67974853515625 499.9857177734375 331.8952941894531" stroke-width="0.0" fill="rgb(27, 26, 26)" opacity="0.9747237" stroke="rgb(0, 0, 0)" stroke-opacity="1.0" stroke-linecap="round" stroke-linejoin="round"/>
    <path d="M 518.176513671875 281.80572509765625 C 499.4678039550781 285.6265563964844 491.88946533203125 286.9961242675781 478.968994140625 299.9211120605469 C 477.2209777832031 305.0478820800781 475.44586181640625 317.00799560546875 471.7586669921875 329.4505920410156 C 484.200927734375 321.31201171875 486.4679260253906 329.7560119628906 496.5345764160156 331.6074523925781 C 502.89923095703125 322.1444396972656 505.9461975097656 314.36859130859375 515.0809326171875 307.37799072265625 C 517.48974609375 299.1966857910156 517.1239624023438 290.3934326171875 518.176513671875 281.80572509765625" stroke-width="0.0" fill="rgb(48, 39, 38)" opacity="0.9832724" stroke="rgb(0, 0, 0)" stroke-opacity="1.0" stroke-linecap="round" stroke-linejoin="round"/>
    <path d="M 46.74972915649414 242.10086059570312 C 43.484317779541016 236.84791564941406 30.39789581298828 238.1221160888672 18.124757766723633 239.2557373046875 C 12.673050880432129 241.51637268066406 1.7985492944717407 244.45872497558594 -9.947212219238281 254.3608856201172 C 7.87272834777832 250.32009887695312 29.640140533447266 253.91529846191406 42.893699645996094 251.12782287597656 C 46.03330993652344 251.86341857910156 48.32136917114258 246.59410095214844 46.74972915649414 242.10086059570312" stroke-width="0.0" fill="rgb(181, 185, 185)" opacity="0.99477637" stroke="rgb(0, 0, 0)" stroke-opacity="1.0" stroke-linecap="round" stroke-linejoin="round"/>
    <path d="M 104.85704803466797 211.86141967773438 C 100.7198715209961 204.2611846923828 88.96048736572266 201.17169189453125 72.64918518066406 200.48561096191406 C 57.04447937011719 209.15525817871094 38.55726623535156 200.5804901123047 24.03187370300293 208.5519256591797 C 46.4197883605957 211.73199462890625 73.88938903808594 208.9485626220703 104.85704803466797 211.86141967773438" stroke-width="0.0" fill="rgb(137, 173, 204)" opacity="0.9913304" stroke="rgb(0, 0, 0)" stroke-opacity="1.0" stroke-linecap="round" stroke-linejoin="round"/>
    <path d="M 374.8398132324219 295.768798828125 C 371.88690185546875 301.42333984375 372.9892578125 318.1089172363281 371.131103515625 339.9800720214844 C 374.59625244140625 343.6024169921875 383.9027404785156 345.7378845214844 392.5748596191406 348.8353271484375 C 400.7515869140625 335.1685485839844 395.4775390625 318.0716552734375 397.8170471191406 293.5373229980469 C 395.6310119628906 288.9907531738281 377.65838623046875 290.6553955078125 374.8398132324219 295.768798828125" stroke-width="0.0" fill="rgb(108, 98, 89)" opacity="0.97404164" stroke="rgb(0, 0, 0)" stroke-opacity="1.0" stroke-linecap="round" stroke-linejoin="round"/>
    <path d="M 354.0865173339844 276.1486511230469 C 351.045166015625 284.9040832519531 360.1128845214844 289.4386291503906 368.7073974609375 294.54840087890625 C 377.2508850097656 287.32928466796875 400.4076232910156 291.385986328125 416.12469482421875 281.3113708496094 C 412.0353698730469 272.0589599609375 389.90069580078125 276.1781311035156 373.9675598144531 271.2239685058594 C 361.8882751464844 273.2186584472656 359.603759765625 269.4774169921875 354.0865173339844 276.1486511230469" stroke-width="0.0" fill="rgb(167, 163, 164)" opacity="1.0421762" stroke="rgb(0, 0, 0)" stroke-opacity="1.0" stroke-linecap="round" stroke-linejoin="round"/>
    <path d="M 354.6465759277344 291.92364501953125 C 354.31317138671875 293.34527587890625 349.4254150390625 311.9805603027344 353.5821838378906 320.5164489746094 C 355.8740539550781 322.1755676269531 364.5810852050781 324.7104797363281 372.0155334472656 323.5000305175781 C 372.19659423828125 316.6016845703125 374.0231018066406 308.0787048339844 373.99188232421875 297.6333312988281 C 368.6712646484375 297.87628173828125 360.8476257324219 291.04791259765625 354.6465759277344 291.92364501953125" stroke-width="0.0" fill="rgb(49, 36, 50)" opacity="0.99419624" stroke="rgb(0, 0, 0)" stroke-opacity="1.0" stroke-linecap="round" stroke-linejoin="round"/>
    <path d="M 337.3859558105469 421.38507080078125 C 343.81829833984375 427.783935546875 356.1408386230469 429.1722412109375 369.90087890625 431.1734313964844 C 387.2694091796875 430.84490966796875 398.9308776855469 437.8042297363281 407.6885986328125 427.64874267578125 C 397.7016906738281 427.59893798828125 392.3801574707031 422.7576599121094 381.7765808105469 419.43743896484375 C 365.1525573730469 421.77154541015625 350.931884765625 418.37109375 337.3859558105469 421.38507080078125" stroke-width="0.0" fill="rgb(181, 162, 127)" opacity="0.98545" stroke="rgb(0, 0, 0)" stroke-opacity="1.0" stroke-linecap="round" stroke-linejoin="round"/>
    <path d="M -8.089427947998047 250.24755859375 C -6.13679313659668 258.662841796875 -6.161185264587402 268.1620788574219 -5.401875019073486 274.5184020996094 C 10.679229736328125 277.1923522949219 15.041239738464355 272.6286315917969 24.497365951538086 274.5240173339844 C 25.780681610107422 263.7242126464844 26.61802864074707 252.51243591308594 24.750322341918945 253.02679443359375 C 16.4471492767334 253.913330078125 0.47710150480270386 251.2692413330078 -8.089427947998047 250.24755859375" stroke-width="0.0" fill="rgb(115, 126, 131)" opacity="0.976241" stroke="rgb(0, 0, 0)" stroke-opacity="1.0" stroke-linecap="round" stroke-linejoin="round"/>
    <path d="M 187.5920867919922 209.29150390625 C 188.95884704589844 193.56411743164062 179.65187072753906 204.15716552734375 174.51072692871094 202.2724609375 C 166.0900115966797 225.2778778076172 168.7834930419922 252.41937255859375 160.82064819335938 266.8173828125 C 162.3591766357422 267.5854797363281 164.05587768554688 270.2833557128906 170.2809600830078 273.0262451171875 C 170.93373107910156 240.75389099121094 183.6924285888672 227.630126953125 187.5920867919922 209.29150390625" stroke-width="0.0" fill="rgb(23, 20, 22)" opacity="0.9913205" stroke="rgb(0, 0, 0)" stroke-opacity="1.0" stroke-linecap="round" stroke-linejoin="round"/>
    <path d="M 330.5984191894531 234.45799255371094 C 325.6531982421875 235.0617218017578 324.0881652832031 247.94004821777344 322.2778625488281 252.44215393066406 C 328.3343505859375 257.4843444824219 326.791259765625 247.42526245117188 329.7862243652344 246.43197631835938 C 329.54534912109375 251.54830932617188 327.8472595214844 255.400634765625 328.4178161621094 253.40245056152344 C 336.5680236816406 256.6438293457031 340.9534912109375 258.4189453125 346.5711975097656 255.27545166015625 C 344.1825866699219 244.5293426513672 350.89691162109375 236.88502502441406 344.7040710449219 231.90960693359375 C 334.3095703125 239.4459686279297 338.8843688964844 230.55584716796875 330.5984191894531 234.45799255371094" stroke-width="0.0" fill="rgb(97, 59, 58)" opacity="0.97205824" stroke="rgb(0, 0, 0)" stroke-opacity="1.0" stroke-linecap="round" stroke-linejoin="round"/>
    <path d="M 502.3223876953125 282.93621826171875 C 498.61376953125 271.933837890625 495.1489562988281 262.1922302246094 496.69537353515625 253.8671875 C 486.810302734375 247.69503784179688 493.9827880859375 256.14166259765625 481.30902099609375 261.5725402832031 C 460.8780822753906 271.3259582519531 451.25201416015625 254.7444305419922 435.5247802734375 252.57131958007812 C 421.8609924316406 260.77044677734375 407.6872253417969 262.33905029296875 409.5506286621094 274.9439392089844 C 420.8122863769531 283.66033935546875 437.31439208984375 282.32122802734375 458.7980041503906 286.6736755371094 C 480.81378173828125 285.7493591308594 497.604736328125 290.2143249511719 502.3223876953125 282.93621826171875" stroke-width="0.0" fill="rgb(82, 75, 80)" opacity="0.9730731" stroke="rgb(0, 0, 0)" stroke-opacity="1.0" stroke-linecap="round" stroke-linejoin="round"/>
    <path d="M 395.70843505859375 289.94195556640625 C 392.8272399902344 297.41217041015625 395.9100341796875 302.42913818359375 399.7686462402344 302.71746826171875 C 412.6087341308594 301.6287536621094 425.827880859375 305.4898986816406 434.891357421875 305.34466552734375 C 438.9952087402344 297.71661376953125 433.4557189941406 292.7997741699219 430.6359558105469 290.2732849121094 C 427.9404602050781 289.08026123046875 420.9400329589844 288.9200134277344 416.47198486328125 286.0248718261719 C 404.3111572265625 285.1858215332031 400.9997863769531 286.0809631347656 395.70843505859375 289.94195556640625" stroke-width="0.0" fill="rgb(59, 52, 48)" opacity="0.9613388" stroke="rgb(0, 0, 0)" stroke-opacity="1.0" stroke-linecap="round" stroke-linejoin="round"/>
    <path d="M 352.3929748535156 233.35446166992188 C 350.6388244628906 237.6593780517578 353.5010070800781 247.69918823242188 353.0169982910156 257.53680419921875 C 358.8771667480469 259.1192321777344 356.8420104980469 260.38458251953125 361.6591796875 258.1327209472656 C 366.7529602050781 256.87481689453125 365.0667724609375 262.14202880859375 366.99493408203125 269.9327697753906 C 378.1903991699219 269.5279235839844 387.8772277832031 273.95343017578125 405.3489990234375 274.2917175292969 C 412.1144714355469 266.0669860839844 417.2368469238281 259.1287536621094 432.17767333984375 254.86764526367188 C 435.2767333984375 254.97024536132812 442.1360168457031 257.45550537109375 444.2236328125 256.0257568359375 C 449.2192077636719 256.5660705566406 457.0404052734375 261.6829833984375 456.9769592285156 266.954345703125 C 471.0000915527344 264.92108154296875 480.07183837890625 265.4406433105469 490.2704772949219 257.48974609375 C 488.1006164550781 249.29490661621094 487.0763244628906 240.59500122070312 486.35858154296875 237.81790161132812 C 446.4066162109375 231.34494018554688 407.636962890625 226.4274139404297 363.4380187988281 221.70986938476562 C 359.7900695800781 221.01622009277344 357.0409240722656 227.8300018310547 352.3929748535156 233.35446166992188" stroke-width="0.0" fill="rgb(191, 194, 194)" opacity="1.0446445" stroke="rgb(0, 0, 0)" stroke-opacity="1.0" stroke-linecap="round" stroke-linejoin="round"/>
    <path d="M 401.6844787597656 301.9766540527344 C 408.5867004394531 301.9900207519531 405.68182373046875 302.22607421875 406.072265625 302.7310485839844 C 404.2264404296875 311.9975891113281 393.39898681640625 311.5823974609375 399.2923278808594 324.1369323730469 C 405.25506591796875 324.9795227050781 406.2586975097656 334.6467590332031 413.4131774902344 338.6730041503906 C 422.33221435546875 345.3385925292969 443.4640808105469 346.9754333496094 464.5963439941406 350.9892578125 C 470.26947021484375 341.75311279296875 469.4793701171875 328.5388488769531 472.353271484375 318.01873779296875 C 448.2568359375 308.9841613769531 425.0220947265625 303.0710754394531 401.6844787597656 301.9766540527344" stroke-width="0.0" fill="rgb(38, 65, 98)" opacity="0.99241304" stroke="rgb(0, 0, 0)" stroke-opacity="1.0" stroke-linecap="round" stroke-linejoin="round"/>
    <path d="M 416.53753662109375 280.791748046875 C 412.373046875 291.7160949707031 429.4983825683594 284.2216796875 440.54974365234375 298.015869140625 C 432.7124328613281 301.1960144042969 441.8346862792969 301.0929870605469 443.63250732421875 309.11279296875 C 453.98968505859375 311.1854248046875 460.49822998046875 315.93597412109375 473.35565185546875 316.7748107910156 C 475.50799560546875 308.241943359375 478.7534484863281 300.1249084472656 476.4095764160156 291.1073303222656 C 455.47711181640625 286.0650329589844 435.129150390625 284.0911560058594 416.53753662109375 280.791748046875" stroke-width="0.0" fill="rgb(47, 86, 87)" opacity="0.96789134" stroke="rgb(0, 0, 0)" stroke-opacity="1.0" stroke-linecap="round" stroke-linejoin="round"/>
    <path d="M 352.8260498046875 279.6275634765625 C 354.634033203125 285.8974609375 362.0368957519531 288.5035400390625 367.08001708984375 292.58551025390625 C 377.8648376464844 290.0765686035156 382.0029296875 283.2865905761719 389.16558837890625 276.9329833984375 C 376.56402587890625 270.13250732421875 375.8121032714844 270.2114562988281 358.01141357421875 272.2581481933594 C 357.4584655761719 273.28338623046875 352.53802490234375 276.4653625488281 352.8260498046875 279.6275634765625" stroke-width="0.0" fill="rgb(81, 126, 133)" opacity="0.9916856" stroke="rgb(0, 0, 0)" stroke-opacity="1.0" stroke-linecap="round" stroke-linejoin="round"/>
    <path d="M 481.7044982910156 326.3243103027344 C 475.7066650390625 328.2635498046875 471.5185546875 326.3514404296875 475.4053039550781 329.5648193359375 C 468.017822265625 354.964599609375 473.0638122558594 376.38592529296875 468.8734436035156 372.5924072265625 C 460.0539855957031 388.490966796875 472.5751037597656 387.9125671386719 469.51617431640625 399.35504150390625 C 471.6708984375 404.1594543457031 479.1344299316406 407.05426025390625 488.02044677734375 401.54925537109375 C 492.13031005859375 389.19189453125 493.0150451660156 375.7142333984375 505.70001220703125 367.72406005859375 C 510.427490234375 344.32733154296875 509.30145263671875 344.9669189453125 501.3890075683594 333.5461120605469 C 498.9702453613281 333.3116760253906 487.2729797363281 331.9533996582031 481.7044982910156 326.3243103027344" stroke-width="0.0" fill="rgb(45, 37, 39)" opacity="0.95578164" stroke="rgb(0, 0, 0)" stroke-opacity="1.0" stroke-linecap="round" stroke-linejoin="round"/>
    <path d="M 510.60186767578125 275.1261291503906 C 507.45501708984375 287.7601013183594 492.27880859375 291.847412109375 478.90032958984375 298.3060607910156 C 476.3448791503906 303.06658935546875 480.1300048828125 317.2583923339844 476.3229064941406 323.07806396484375 C 480.26092529296875 327.25384521484375 488.13720703125 328.4705505371094 490.4693603515625 329.67803955078125 C 494.9794921875 323.15985107421875 494.6823425292969 326.45654296875 492.773681640625 314.9893798828125 C 501.41485595703125 312.2813720703125 506.6846923828125 304.9038391113281 513.0155029296875 295.928955078125 C 518.046142578125 289.1304626464844 519.11279296875 281.9372253417969 510.60186767578125 275.1261291503906" stroke-width="0.0" fill="rgb(46, 31, 35)" opacity="0.98419374" stroke="rgb(0, 0, 0)" stroke-opacity="1.0" stroke-linecap="round" stroke-linejoin="round"/>
    <path d="M 351.4653625488281 236.44488525390625 C 352.9122619628906 246.92550659179688 352.3262023925781 255.5149383544922 354.1475524902344 257.4742126464844 C 359.3235778808594 260.7920837402344 356.8382263183594 253.54039001464844 366.85137939453125 256.9674072265625 C 368.1621398925781 255.52685546875 369.08050537109375 265.1966247558594 373.2313537597656 264.38079833984375 C 386.1112976074219 266.3616638183594 398.4138488769531 266.1667785644531 411.2115783691406 266.03936767578125 C 417.5419616699219 259.9815979003906 426.46942138671875 256.9869689941406 435.3968200683594 252.09449768066406 C 445.2599792480469 250.61231994628906 450.1029968261719 257.6473693847656 469.41571044921875 251.9487762451172 C 429.2774658203125 245.36941528320312 390.7537536621094 241.30239868164062 351.4653625488281 236.44488525390625" stroke-width="0.0" fill="rgb(137, 149, 152)" opacity="1.0039763" stroke="rgb(0, 0, 0)" stroke-opacity="1.0" stroke-linecap="round" stroke-linejoin="round"/>
    <path d="M 407.876220703125 274.7610778808594 C 421.36407470703125 284.36041259765625 449.4392395019531 284.2580261230469 471.7255554199219 290.5819396972656 C 476.3355407714844 287.2094421386719 478.7544250488281 289.7884521484375 477.69061279296875 284.86737060546875 C 475.1294250488281 280.338134765625 468.6752014160156 277.5887451171875 467.79266357421875 271.46087646484375 C 473.60546875 270.5129699707031 473.63702392578125 263.62017822265625 483.12750244140625 259.7267150878906 C 463.6246032714844 258.0477600097656 449.2281188964844 253.33856201171875 432.87017822265625 253.6271514892578 C 422.25390625 259.8181457519531 411.3201904296875 262.6094055175781 407.876220703125 274.7610778808594" stroke-width="0.0" fill="rgb(68, 56, 61)" opacity="1.1564684" stroke="rgb(0, 0, 0)" stroke-opacity="1.0" stroke-linecap="round" stroke-linejoin="round"/>
    <path d="M 495.27130126953125 242.69752502441406 C 489.8774108886719 265.0793151855469 477.8704528808594 260.0722961425781 468.5772705078125 272.4189147949219 C 471.9436950683594 279.8496398925781 478.0080261230469 286.6649169921875 487.1570129394531 290.4183349609375 C 491.0858154296875 285.7344970703125 502.3580322265625 289.452880859375 502.38482666015625 282.17010498046875 C 497.5462341308594 269.4826965332031 496.5303955078125 263.8570251464844 495.27130126953125 242.69752502441406" stroke-width="0.0" fill="rgb(116, 118, 128)" opacity="1.0484383" stroke="rgb(0, 0, 0)" stroke-opacity="1.0" stroke-linecap="round" stroke-linejoin="round"/>
    <path d="M 394.172119140625 290.405517578125 C 405.4734191894531 298.1468200683594 420.5427551269531 303.86590576171875 440.958984375 307.7054748535156 C 436.7382507324219 290.18927001953125 433.46002197265625 296.5226745605469 432.83880615234375 287.79559326171875 C 427.9898986816406 294.2998352050781 419.2878723144531 286.78729248046875 413.9328308105469 285.1275329589844 C 404.74737548828125 286.7695617675781 404.6575622558594 281.1874084472656 394.172119140625 290.405517578125" stroke-width="0.0" fill="rgb(20, 24, 31)" opacity="0.91845566" stroke="rgb(0, 0, 0)" stroke-opacity="1.0" stroke-linecap="round" stroke-linejoin="round"/>
    <path d="M 498.7348937988281 250.10667419433594 C 480.0388488769531 237.78636169433594 495.5388488769531 259.6981506347656 484.8970947265625 262.623779296875 C 485.4718933105469 271.62774658203125 481.595947265625 279.6237487792969 484.73492431640625 289.615478515625 C 492.8314208984375 287.5364685058594 503.86029052734375 288.3472595214844 502.2146911621094 281.7780456542969 C 498.1455383300781 267.6236877441406 493.89141845703125 261.3885192871094 498.7348937988281 250.10667419433594" stroke-width="0.0" fill="rgb(87, 78, 81)" opacity="1.0175077" stroke="rgb(0, 0, 0)" stroke-opacity="1.0" stroke-linecap="round" stroke-linejoin="round"/>
    <path d="M 357.4992370605469 243.64877319335938 C 355.5280456542969 249.7451934814453 356.6246337890625 252.2831268310547 361.5542907714844 254.56143188476562 C 390.6677551269531 251.64414978027344 419.6532287597656 261.5118408203125 425.8376770019531 252.128662109375 C 403.4100036621094 248.91232299804688 379.67108154296875 244.64527893066406 357.4992370605469 243.64877319335938" stroke-width="0.0" fill="rgb(159, 157, 154)" opacity="0.99995583" stroke="rgb(0, 0, 0)" stroke-opacity="1.0" stroke-linecap="round" stroke-linejoin="round"/>
  </g>
</svg>
