<?xml version="1.0" ?>
<svg xmlns="http://www.w3.org/2000/svg" version="1.1" width="512" height="512">
  <defs/>
  <g>
    <path d="M -3.2479546070098877 -3.7593331336975098 C -2.2669851779937744 170.3333282470703 -0.9423810839653015 340.6666564941406 -0.6004235744476318 518.309326171875 C 169.31053161621094 519.0896606445312 338.9166259765625 520.2922973632812 518.6148071289062 520.3971557617188 C 518.97705078125 341.81573486328125 519.11767578125 170.98013305664062 519.216796875 -3.242062568664551 C 340.6666564941406 -3.7373008728027344 170.3333282470703 -3.817199230194092 -3.2479546070098877 -3.7593331336975098" stroke-width="0.0" fill="rgb(188, 209, 194)" opacity="0.8553067" stroke="rgb(0, 0, 0)" stroke-opacity="1.0" stroke-linecap="round" stroke-linejoin="round"/>
    <path d="M -6.876213550567627 229.85121154785156 C 0.004493053536862135 324.3333435058594 -0.08071132749319077 417.6666564941406 -1.6685113906860352 520.69775390625 C 170.75721740722656 521.0626220703125 341.2582092285156 521.1213989257812 519.9338989257812 520.582763671875 C 520.9176635742188 429.8887939453125 519.9928588867188 347.765869140625 518.295654296875 263.73480224609375 C 437.1783752441406 254.37551879882812 336.6231689453125 257.5010681152344 242.4730224609375 255.2130126953125 C 201.96881103515625 245.56124877929688 161.33070373535156 234.2742919921875 105.398681640625 229.97262573242188 C 77.61994171142578 229.33590698242188 35.2918815612793 230.31326293945312 -6.876213550567627 229.85121154785156" stroke-width="0.0" fill="rgb(122, 140, 159)" opacity="0.9915305" stroke="rgb(0, 0, 0)" stroke-opacity="1.0" stroke-linecap="round" stroke-linejoin="round"/>
    <path d="M 186.69029235839844 239.0786590576172 C 183.60397338867188 244.8668975830078 188.9381561279297 241.51853942871094 187.57615661621094 243.07179260253906 C 202.15380859375 244.47747802734375 215.73922729492188 249.93067932128906 233.02188110351562 253.196044921875 C 220.94602966308594 244.9563751220703 199.55450439453125 244.441162109375 186.69029235839844 239.0786590576172" stroke-width="0.0" fill="rgb(148, 176, 181)" opacity="0.99173576" stroke="rgb(0, 0, 0)" stroke-opacity="1.0" stroke-linecap="round" stroke-linejoin="round"/>
    <path d="M -5.200960636138916 214.1419219970703 C -3.159827709197998 217.47882080078125 -4.736092567443848 223.57546997070312 1.2308474779129028 228.66592407226562 C 24.215194702148438 220.09939575195312 32.845157623291016 236.6524658203125 54.28846740722656 224.02835083007812 C 38.45268630981445 217.47018432617188 17.54099464416504 211.86373901367188 -5.200960636138916 214.1419219970703" stroke-width="0.0" fill="rgb(173, 192, 192)" opacity="0.9969856" stroke="rgb(0, 0, 0)" stroke-opacity="1.0" stroke-linecap="round" stroke-linejoin="round"/>
    <path d="M 207.1845245361328 342.38946533203125 C 205.29644775390625 349.0164794921875 207.29470825195312 353.93145751953125 198.115966796875 360.6190185546875 C 193.04270935058594 377.0279846191406 194.70123291015625 393.89691162109375 191.28211975097656 405.7783203125 C 165.464111328125 436.6079406738281 146.4840545654297 476.6097412109375 117.85591125488281 516.8438720703125 C 183.78529357910156 521.5009155273438 249.2451171875 521.1605224609375 314.8400573730469 518.3104858398438 C 298.89141845703125 483.48388671875 284.0180969238281 459.1004638671875 270.0916442871094 432.8756103515625 C 264.7169494628906 426.8479919433594 258.5898742675781 419.85162353515625 253.11343383789062 415.43255615234375 C 256.9624938964844 391.7520446777344 257.3039245605469 372.5706481933594 251.111083984375 359.9657287597656 C 247.5013885498047 350.7283935546875 235.9687042236328 350.5733642578125 232.61558532714844 345.88616943359375 C 227.7599639892578 347.9750671386719 224.7755584716797 349.1244812011719 222.2154998779297 353.52642822265625 C 214.62367248535156 347.00347900390625 219.8472442626953 334.8293762207031 207.1845245361328 342.38946533203125" stroke-width="0.0" fill="rgb(161, 168, 173)" opacity="1.0127249" stroke="rgb(0, 0, 0)" stroke-opacity="1.0" stroke-linecap="round" stroke-linejoin="round"/>
    <path d="M 237.89752197265625 330.65130615234375 C 234.92300415039062 331.0854797363281 229.78382873535156 331.75714111328125 229.800537109375 335.8045349121094 C 227.72250366210938 336.4511413574219 228.9237823486328 340.7522888183594 230.5835723876953 346.0700988769531 C 237.93666076660156 347.4231262207031 237.76702880859375 341.7970275878906 242.33724975585938 340.0618896484375 C 242.0280303955078 333.1457214355469 242.33865356445312 334.1847839355469 237.89752197265625 330.65130615234375" stroke-width="0.0" fill="rgb(92, 83, 95)" opacity="0.9934181" stroke="rgb(0, 0, 0)" stroke-opacity="1.0" stroke-linecap="round" stroke-linejoin="round"/>
    <path d="M 218.07171630859375 309.6507568359375 C 249.56048583984375 311.37359619140625 263.4079895019531 317.9863586425781 277.27099609375 316.2673034667969 C 282.4549560546875 331.9607238769531 266.315185546875 321.8843688964844 272.1332092285156 329.07354736328125 C 261.79205322265625 330.76025390625 249.5501251220703 327.715087890625 248.64788818359375 331.5668029785156 C 246.350830078125 326.1585388183594 250.91261291503906 317.5220031738281 244.28817749023438 323.7646484375 C 252.8402099609375 325.61737060546875 249.6903076171875 322.5732727050781 244.64828491210938 327.77642822265625 C 247.29481506347656 340.4880676269531 255.1717987060547 349.5530700683594 258.1455078125 359.350830078125 C 261.89288330078125 377.9173278808594 261.8477783203125 398.9974060058594 263.6195373535156 419.08843994140625 C 278.9738464355469 448.9417419433594 296.8714904785156 479.27777099609375 316.210205078125 517.1995849609375 C 375.8882141113281 521.3631591796875 444.349609375 519.436767578125 519.0245361328125 519.2963256835938 C 519.131103515625 444.3846740722656 519.1727905273438 377.7050476074219 519.6854858398438 311.2904968261719 C 422.21136474609375 308.54046630859375 324.924072265625 310.8959045410156 218.07171630859375 309.6507568359375" stroke-width="0.0" fill="rgb(123, 143, 162)" opacity="0.9839376" stroke="rgb(0, 0, 0)" stroke-opacity="1.0" stroke-linecap="round" stroke-linejoin="round"/>
    <path d="M -6.468603610992432 307.298583984375 C -6.607578754425049 375.2920837402344 -6.343258857727051 443.2215270996094 -6.209278583526611 518.8974609375 C 39.61029052734375 519.0433349609375 79.26707458496094 519.05419921875 118.83596801757812 513.7896728515625 C 143.80751037597656 476.9312744140625 164.72767639160156 439.0973205566406 190.1973876953125 402.125732421875 C 191.54380798339844 391.97247314453125 189.5359649658203 377.00726318359375 196.725341796875 359.6528625488281 C 200.5282745361328 353.0163269042969 202.45848083496094 342.8310852050781 208.6536407470703 334.09259033203125 C 212.6800994873047 335.95172119140625 215.67242431640625 329.8692932128906 222.94168090820312 331.58367919921875 C 224.8454132080078 319.5202941894531 220.11044311523438 316.0158386230469 223.64730834960938 308.05487060546875 C 149.82435607910156 308.40966796875 75.58009338378906 305.95562744140625 -6.468603610992432 307.298583984375" stroke-width="0.0" fill="rgb(123, 141, 158)" opacity="0.97546726" stroke="rgb(0, 0, 0)" stroke-opacity="1.0" stroke-linecap="round" stroke-linejoin="round"/>
    <path d="M -9.071313858032227 226.59286499023438 C -8.398451805114746 256.9898681640625 -8.659440994262695 281.2474060058594 -7.517439365386963 301.65081787109375 C 84.33396911621094 302.76068115234375 168.70303344726562 305.6483154296875 233.4551544189453 303.3493957519531 C 237.0128631591797 291.40155029296875 232.77345275878906 290.31817626953125 228.00799560546875 285.78948974609375 C 219.5735321044922 279.4696044921875 210.420654296875 275.60955810546875 201.41419982910156 270.75689697265625 C 193.93386840820312 263.9827575683594 203.94895935058594 267.8511962890625 200.07630920410156 261.4029846191406 C 193.0538787841797 256.6752624511719 196.7013702392578 264.1553955078125 194.57460021972656 265.03363037109375 C 188.92063903808594 253.62686157226562 197.1294403076172 255.98951721191406 192.01416015625 250.62330627441406 C 198.97933959960938 246.54566955566406 193.27633666992188 256.4374694824219 197.4344940185547 258.49652099609375 C 203.26983642578125 251.07040405273438 201.3597869873047 252.80311584472656 196.65919494628906 250.58323669433594 C 200.730224609375 246.46238708496094 212.62257385253906 251.82618713378906 206.65301513671875 248.94996643066406 C 171.49432373046875 229.72079467773438 132.25794982910156 237.3080596923828 100.79723358154297 225.23561096191406 C 56.8089485168457 221.59814453125 50.78480911254883 237.475341796875 -9.071313858032227 226.59286499023438" stroke-width="0.0" fill="rgb(96, 119, 148)" opacity="0.94892544" stroke="rgb(0, 0, 0)" stroke-opacity="1.0" stroke-linecap="round" stroke-linejoin="round"/>
    <path d="M 273.54913330078125 271.6318054199219 C 269.6091003417969 280.5658264160156 272.63238525390625 295.7088623046875 271.2557678222656 305.43145751953125 C 345.9449462890625 307.2366638183594 429.3768005371094 308.51202392578125 521.27734375 308.0956115722656 C 521.0572509765625 296.5557556152344 521.0806274414062 278.2287902832031 515.2337646484375 266.71966552734375 C 493.4337463378906 272.31732177734375 495.311767578125 257.13922119140625 465.6407165527344 255.24151611328125 C 415.0279846191406 259.1814270019531 369.4761657714844 252.02703857421875 354.66241455078125 256.4107666015625 C 326.784912109375 259.5008850097656 322.0205993652344 251.54017639160156 310.5109558105469 251.20997619628906 C 294.8697204589844 255.93154907226562 280.0915832519531 261.4934997558594 273.54913330078125 271.6318054199219" stroke-width="0.0" fill="rgb(111, 135, 160)" opacity="0.97980356" stroke="rgb(0, 0, 0)" stroke-opacity="1.0" stroke-linecap="round" stroke-linejoin="round"/>
    <path d="M 248.1629638671875 258.477294921875 C 253.93043518066406 264.3695373535156 265.3555908203125 266.18670654296875 273.68939208984375 271.5132751464844 C 278.52142333984375 264.1059265136719 285.5736083984375 259.5307922363281 292.52423095703125 258.843017578125 C 271.19146728515625 248.87611389160156 267.0567626953125 256.6258239746094 248.1629638671875 258.477294921875" stroke-width="0.0" fill="rgb(144, 173, 183)" opacity="1.002329" stroke="rgb(0, 0, 0)" stroke-opacity="1.0" stroke-linecap="round" stroke-linejoin="round"/>
    <path d="M 256.23675537109375 388.62225341796875 C 254.19070434570312 404.8706970214844 256.7466125488281 413.31658935546875 257.2025451660156 423.7649841308594 C 267.51776123046875 423.1219482421875 267.67132568359375 423.29498291015625 268.78399658203125 420.2852478027344 C 262.56353759765625 398.7093811035156 269.6898193359375 387.91680908203125 256.23675537109375 388.62225341796875" stroke-width="0.0" fill="rgb(113, 130, 145)" opacity="0.975406" stroke="rgb(0, 0, 0)" stroke-opacity="1.0" stroke-linecap="round" stroke-linejoin="round"/>
    <path d="M 117.00659942626953 519.0355834960938 C 192.1856689453125 522.4093017578125 255.16949462890625 522.5765380859375 315.7705078125 518.460693359375 C 294.9014892578125 479.12493896484375 280.1905822753906 448.1623229980469 261.7702941894531 422.47149658203125 C 257.88641357421875 418.40155029296875 253.12062072753906 422.2763366699219 254.52462768554688 421.6146240234375 C 252.87286376953125 427.8800964355469 252.7817840576172 438.2294616699219 251.0194549560547 443.5367736816406 C 248.66659545898438 448.8246154785156 243.1765899658203 450.6339416503906 237.06671142578125 451.0736999511719 C 226.93856811523438 449.4295349121094 228.0848846435547 441.5519104003906 223.89031982421875 434.7126159667969 C 215.36138916015625 437.24896240234375 215.3301239013672 446.6695251464844 208.2264404296875 442.8255615234375 C 200.2897186279297 435.8063659667969 202.17498779296875 430.96209716796875 193.12777709960938 432.9485778808594 C 194.8354949951172 427.7796325683594 192.8341522216797 415.9405517578125 189.53604125976562 407.9255065917969 C 164.63980102539062 440.0972900390625 145.07521057128906 476.9825744628906 117.00659942626953 519.0355834960938" stroke-width="0.0" fill="rgb(170, 177, 177)" opacity="1.0167838" stroke="rgb(0, 0, 0)" stroke-opacity="1.0" stroke-linecap="round" stroke-linejoin="round"/>
    <path d="M 232.846435546875 331.79876708984375 C 227.07615661621094 334.4438171386719 230.1260986328125 347.7550964355469 223.07249450683594 348.29986572265625 C 217.00830078125 349.7147216796875 220.55133056640625 339.7196044921875 212.4381103515625 338.65863037109375 C 212.1385955810547 339.7137756347656 206.7695770263672 338.8538818359375 206.02035522460938 347.3433837890625 C 205.47740173339844 355.9479064941406 199.3142852783203 355.8435974121094 196.65652465820312 364.8272705078125 C 192.93441772460938 378.9333801269531 193.42349243164062 396.71820068359375 191.536865234375 406.6478271484375 C 193.2023468017578 420.3996276855469 196.2346649169922 423.87921142578125 204.9877471923828 431.2256164550781 C 212.87484741210938 432.7009582519531 222.28073120117188 428.5853271484375 227.88137817382812 425.9439392089844 C 229.65988159179688 428.0426025390625 231.45852661132812 438.9671936035156 232.11111450195312 446.2558898925781 C 234.45323181152344 447.56787109375 247.64404296875 452.1844787597656 250.682373046875 442.34454345703125 C 252.08872985839844 433.05450439453125 254.5994873046875 408.8836975097656 257.6936950683594 393.1856689453125 C 256.32684326171875 375.7353515625 255.2137908935547 367.4657287597656 253.16250610351562 360.2604675292969 C 249.1824951171875 354.91400146484375 245.34848022460938 350.5952453613281 239.21128845214844 350.8056945800781 C 235.09646606445312 340.6532897949219 242.26670837402344 341.6275939941406 243.11322021484375 340.8370056152344 C 239.19480895996094 333.9322509765625 231.71144104003906 335.0870056152344 232.846435546875 331.79876708984375" stroke-width="0.0" fill="rgb(143, 151, 162)" opacity="0.87285733" stroke="rgb(0, 0, 0)" stroke-opacity="1.0" stroke-linecap="round" stroke-linejoin="round"/>
    <path d="M -3.456061840057373 256.7765808105469 C -2.5160229206085205 268.3333435058594 -0.691059410572052 284.6710205078125 -8.260528564453125 302.2181091308594 C 77.09146881103516 302.5620422363281 152.68658447265625 305.91619873046875 222.83694458007812 302.4233703613281 C 223.75567626953125 292.8619384765625 222.30291748046875 282.257080078125 219.1383056640625 283.4144592285156 C 193.70193481445312 266.8946533203125 162.36172485351562 253.81463623046875 123.35287475585938 249.4239501953125 C 79.54619598388672 245.3406219482422 40.972633361816406 250.30747985839844 -3.456061840057373 256.7765808105469" stroke-width="0.0" fill="rgb(82, 104, 135)" opacity="0.99659926" stroke="rgb(0, 0, 0)" stroke-opacity="1.0" stroke-linecap="round" stroke-linejoin="round"/>
    <path d="M 490.5947265625 498.2452087402344 C 459.98211669921875 513.9683227539062 406.9735412597656 500.0243835449219 378.1665344238281 508.2803039550781 C 406.7011413574219 528.5604248046875 457.6714782714844 521.3953857421875 519.86669921875 519.0156860351562 C 525.826416015625 495.22271728515625 521.3397216796875 498.6520690917969 490.5947265625 498.2452087402344" stroke-width="0.0" fill="rgb(55, 59, 78)" opacity="1.0388753" stroke="rgb(0, 0, 0)" stroke-opacity="1.0" stroke-linecap="round" stroke-linejoin="round"/>
    <path d="M 202.57070922851562 427.08038330078125 C 201.13528442382812 435.0180358886719 199.69483947753906 435.27227783203125 208.97723388671875 443.77606201171875 C 209.23641967773438 442.99774169921875 207.9984130859375 434.7080383300781 211.2069091796875 428.9325866699219 C 211.1205596923828 431.9457702636719 213.60011291503906 445.1684265136719 212.8310089111328 444.3627014160156 C 220.53199768066406 441.8371887207031 216.47171020507812 430.8959045410156 221.59701538085938 427.4101257324219 C 215.0546112060547 431.78515625 204.38751220703125 431.45501708984375 202.57070922851562 427.08038330078125" stroke-width="0.0" fill="rgb(113, 100, 109)" opacity="0.9786874" stroke="rgb(0, 0, 0)" stroke-opacity="1.0" stroke-linecap="round" stroke-linejoin="round"/>
    <path d="M 342.7277526855469 263.03759765625 C 352.3492431640625 268.2642822265625 353.5602111816406 281.6941223144531 358.7728271484375 290.2406005859375 C 368.0834655761719 288.269775390625 370.89984130859375 287.77801513671875 369.8535461425781 280.6709289550781 C 371.74053955078125 285.67047119140625 370.435546875 285.1603088378906 372.10791015625 288.74200439453125 C 383.8736877441406 288.1708068847656 398.4256286621094 290.32159423828125 404.3871154785156 292.08953857421875 C 406.2521667480469 299.2459716796875 414.168701171875 301.0184326171875 426.59912109375 309.438720703125 C 445.8794250488281 306.44189453125 480.8777160644531 309.39495849609375 518.0186157226562 307.19976806640625 C 519.1853637695312 291.2139587402344 520.9375 275.476318359375 518.8463745117188 266.2046203613281 C 496.208251953125 272.47210693359375 495.0426940917969 262.9781188964844 481.1914367675781 256.8538513183594 C 430.8063659667969 252.18666076660156 400.47760009765625 258.6912536621094 385.4731140136719 254.12913513183594 C 359.7815246582031 254.67030334472656 349.5577697753906 256.4990234375 342.7277526855469 263.03759765625" stroke-width="0.0" fill="rgb(100, 126, 155)" opacity="0.96041846" stroke="rgb(0, 0, 0)" stroke-opacity="1.0" stroke-linecap="round" stroke-linejoin="round"/>
    <path d="M -4.6817731857299805 229.90798950195312 C -5.730885982513428 235.63519287109375 -5.89030122756958 245.71725463867188 -7.077768802642822 258.34417724609375 C 35.396114349365234 251.48219299316406 71.3615493774414 248.27928161621094 103.198974609375 248.1505584716797 C 129.5316162109375 250.36756896972656 154.39381408691406 256.0951843261719 176.61590576171875 263.6662902832031 C 194.26177978515625 268.5660095214844 209.13536071777344 278.9931335449219 233.46096801757812 286.2610168457031 C 242.02565002441406 273.587646484375 266.5 281.35333251953125 269.82489013671875 271.22271728515625 C 256.7225036621094 261.2026672363281 240.01365661621094 255.49642944335938 225.29042053222656 249.56857299804688 C 203.39466857910156 243.32296752929688 179.7616424560547 239.3883514404297 161.01480102539062 233.01168823242188 C 119.01154327392578 232.14637756347656 114.71516418457031 230.2666778564453 103.87354278564453 224.0039520263672 C 72.625 221.92266845703125 50.62096405029297 228.82217407226562 34.71012496948242 231.7677764892578 C 24.755451202392578 227.42715454101562 16.99795913696289 226.35850524902344 -4.6817731857299805 229.90798950195312" stroke-width="0.0" fill="rgb(114, 143, 167)" opacity="0.7948973" stroke="rgb(0, 0, 0)" stroke-opacity="1.0" stroke-linecap="round" stroke-linejoin="round"/>
    <path d="M 361.5896911621094 289.065673828125 C 359.05322265625 288.9455261230469 354.009765625 281.2344970703125 351.4336853027344 271.2396545410156 C 347.2508850097656 262.88739013671875 328.146240234375 255.677734375 310.75384521484375 248.5096893310547 C 293.1660461425781 255.4851837158203 285.5558776855469 269.38873291015625 262.2425842285156 278.0307312011719 C 250.40199279785156 277.8749084472656 238.35125732421875 277.75091552734375 231.16976928710938 287.51885986328125 C 245.17538452148438 290.552001953125 259.0086975097656 300.96270751953125 262.4449157714844 299.25537109375 C 297.4266662597656 301.66119384765625 325.5164794921875 295.95001220703125 347.9037780761719 295.7835388183594 C 359.5437927246094 292.5914306640625 366.49139404296875 290.8354797363281 361.5896911621094 289.065673828125" stroke-width="0.0" fill="rgb(105, 133, 159)" opacity="0.99413186" stroke="rgb(0, 0, 0)" stroke-opacity="1.0" stroke-linecap="round" stroke-linejoin="round"/>
    <path d="M -2.0942647457122803 495.8114929199219 C -2.4958274364471436 501.2626953125 -4.535943984985352 506.9428405761719 -4.815670490264893 521.572509765625 C 43.524330139160156 521.3310546875 82.68412780761719 520.9869995117188 126.56758880615234 511.9098205566406 C 86.8176040649414 508.42529296875 82.41512298583984 490.71453857421875 51.117984771728516 491.0616149902344 C 38.28609085083008 490.225830078125 14.707955360412598 492.7310485839844 -2.0942647457122803 495.8114929199219" stroke-width="0.0" fill="rgb(72, 80, 101)" opacity="0.99970776" stroke="rgb(0, 0, 0)" stroke-opacity="1.0" stroke-linecap="round" stroke-linejoin="round"/>
    <path d="M 439.9867248535156 308.8379821777344 C 417.3360595703125 308.60443115234375 411.9549255371094 298.6073913574219 399.005126953125 288.8369445800781 C 371.25152587890625 294.85052490234375 339.8665466308594 298.0054016113281 309.7176818847656 297.78741455078125 C 307.04473876953125 298.0791015625 303.8654479980469 302.49420166015625 307.5189514160156 307.48370361328125 C 346.7516174316406 306.1805114746094 391.14129638671875 308.4823303222656 439.9867248535156 308.8379821777344" stroke-width="0.0" fill="rgb(84, 101, 131)" opacity="0.9982885" stroke="rgb(0, 0, 0)" stroke-opacity="1.0" stroke-linecap="round" stroke-linejoin="round"/>
    <path d="M 257.21038818359375 398.92694091796875 C 256.54443359375 403.18255615234375 257.521484375 416.5436706542969 256.8757629394531 420.8889465332031 C 259.5494079589844 422.15325927734375 263.433349609375 423.93902587890625 268.3182373046875 422.5878601074219 C 268.5855407714844 410.23773193359375 265.309326171875 403.48162841796875 257.21038818359375 398.92694091796875" stroke-width="0.0" fill="rgb(113, 135, 153)" opacity="1.014412" stroke="rgb(0, 0, 0)" stroke-opacity="1.0" stroke-linecap="round" stroke-linejoin="round"/>
    <path d="M 230.6309356689453 335.46002197265625 C 233.61721801757812 332.2415466308594 238.8006591796875 335.6757507324219 242.85264587402344 340.5614318847656 C 244.83096313476562 338.3819580078125 244.3059539794922 331.93927001953125 243.15008544921875 330.35064697265625 C 237.86659240722656 326.81549072265625 226.5065155029297 326.86566162109375 230.6309356689453 335.46002197265625" stroke-width="0.0" fill="rgb(103, 105, 118)" opacity="0.96612936" stroke="rgb(0, 0, 0)" stroke-opacity="1.0" stroke-linecap="round" stroke-linejoin="round"/>
    <path d="M 16.461816787719727 406.1739807128906 C 6.985498428344727 403.5393371582031 5.155727863311768 410.74444580078125 -5.238587379455566 408.7961730957031 C -5.620983600616455 413.3977966308594 -9.390542984008789 422.44219970703125 -1.1044527292251587 417.6734313964844 C 8.877792358398438 415.94451904296875 16.254688262939453 415.2308044433594 16.461816787719727 406.1739807128906" stroke-width="0.0" fill="rgb(76, 92, 113)" opacity="1.0009332" stroke="rgb(0, 0, 0)" stroke-opacity="1.0" stroke-linecap="round" stroke-linejoin="round"/>
    <path d="M 258.3694763183594 388.3502502441406 C 256.5073547363281 393.01080322265625 258.739013671875 399.3824462890625 255.46542358398438 399.3153991699219 C 260.2085266113281 397.868408203125 260.7790832519531 406.49407958984375 267.9861145019531 400.49676513671875 C 263.2793884277344 393.5619201660156 263.8228759765625 384.94287109375 258.3694763183594 388.3502502441406" stroke-width="0.0" fill="rgb(69, 77, 90)" opacity="0.98521876" stroke="rgb(0, 0, 0)" stroke-opacity="1.0" stroke-linecap="round" stroke-linejoin="round"/>
    <path d="M -10.91480827331543 329.393310546875 C -6.675971984863281 333.0578308105469 -6.576944828033447 331.7580261230469 3.319535732269287 332.228759765625 C 10.278623580932617 329.13031005859375 20.896053314208984 333.05078125 18.16095733642578 330.14923095703125 C 20.5198974609375 324.9350891113281 7.424073696136475 329.8196105957031 -10.91480827331543 329.393310546875" stroke-width="0.0" fill="rgb(108, 125, 141)" opacity="0.9987434" stroke="rgb(0, 0, 0)" stroke-opacity="1.0" stroke-linecap="round" stroke-linejoin="round"/>
    <path d="M 206.6366424560547 342.5926818847656 C 205.4132080078125 356.3116149902344 205.92166137695312 353.0955505371094 197.7842559814453 361.3268127441406 C 193.4068603515625 378.2784118652344 193.2233428955078 396.46746826171875 192.86378479003906 410.5969543457031 C 195.4580535888672 415.59765625 196.61248779296875 422.730712890625 200.9386749267578 425.3693542480469 C 208.46109008789062 427.5733947753906 211.84068298339844 427.11181640625 218.5341796875 426.9499206542969 C 226.89602661132812 426.58843994140625 226.37745666503906 416.22442626953125 230.3046417236328 426.8923034667969 C 226.0939483642578 399.6748352050781 229.62420654296875 379.27752685546875 225.47564697265625 358.0149230957031 C 212.0028533935547 352.79669189453125 224.536865234375 332.88018798828125 206.6366424560547 342.5926818847656" stroke-width="0.0" fill="rgb(100, 102, 112)" opacity="0.9559946" stroke="rgb(0, 0, 0)" stroke-opacity="1.0" stroke-linecap="round" stroke-linejoin="round"/>
    <path d="M 139.974853515625 484.52490234375 C 132.6915283203125 492.2035827636719 126.22571563720703 502.823486328125 119.69131469726562 517.9451904296875 C 134.6462860107422 520.7393798828125 131.5773162841797 510.643310546875 138.18275451660156 507.6923828125 C 140.5648193359375 500.27154541015625 145.00794982910156 494.31121826171875 139.974853515625 484.52490234375" stroke-width="0.0" fill="rgb(174, 181, 183)" opacity="0.9813005" stroke="rgb(0, 0, 0)" stroke-opacity="1.0" stroke-linecap="round" stroke-linejoin="round"/>
    <path d="M 235.0045928955078 331.26837158203125 C 225.1950225830078 335.3709411621094 237.5845947265625 345.881591796875 225.1938018798828 354.5484313964844 C 231.11135864257812 374.88385009765625 224.9507293701172 398.0099182128906 229.11514282226562 421.8113098144531 C 235.34205627441406 429.3222351074219 231.77891540527344 440.2365417480469 236.3024139404297 447.4841003417969 C 237.265869140625 451.7521667480469 250.71096801757812 453.6441345214844 252.08795166015625 440.8636779785156 C 251.3922576904297 430.8922424316406 252.9093017578125 415.2064514160156 261.3135681152344 396.5493469238281 C 256.9633483886719 383.9281005859375 257.1895446777344 371.05670166015625 253.9936981201172 357.9159240722656 C 244.82034301757812 351.3625183105469 247.3647918701172 332.1788330078125 235.0045928955078 331.26837158203125" stroke-width="0.0" fill="rgb(110, 111, 123)" opacity="0.9152142" stroke="rgb(0, 0, 0)" stroke-opacity="1.0" stroke-linecap="round" stroke-linejoin="round"/>
    <path d="M 254.86634826660156 423.9377746582031 C 255.9182891845703 431.0291442871094 253.5899658203125 439.8909912109375 250.7651824951172 451.3197937011719 C 250.12193298339844 450.4140625 240.50961303710938 454.04705810546875 238.98666381835938 454.1251220703125 C 243.8768310546875 471.0061950683594 246.71060180664062 493.4839172363281 248.92147827148438 518.8652954101562 C 270.20989990234375 519.1998291015625 292.3917236328125 521.564208984375 313.3869934082031 514.9244995117188 C 297.44219970703125 481.6339416503906 281.1584777832031 455.2354736328125 266.61212158203125 427.822265625 C 262.9953918457031 422.49822998046875 263.1049499511719 422.0701904296875 254.86634826660156 423.9377746582031" stroke-width="0.0" fill="rgb(172, 178, 180)" opacity="0.99923885" stroke="rgb(0, 0, 0)" stroke-opacity="1.0" stroke-linecap="round" stroke-linejoin="round"/>
    <path d="M 230.1634063720703 426.9109191894531 C 233.13087463378906 426.3410339355469 224.87644958496094 426.96392822265625 221.1685028076172 427.8167724609375 C 216.58384704589844 435.73760986328125 221.7742462158203 446.8333435058594 214.32017517089844 446.3482360839844 C 215.73690795898438 443.5767517089844 205.48597717285156 446.71099853515625 201.17385864257812 443.5738525390625 C 193.66571044921875 467.1962890625 190.30709838867188 487.159912109375 185.7484588623047 519.79736328125 C 202.8803253173828 521.625 231.13987731933594 521.5328979492188 248.3205108642578 520.1259765625 C 248.3993682861328 489.8716125488281 241.22647094726562 475.74908447265625 240.78555297851562 451.10009765625 C 229.9437255859375 454.6443786621094 237.3463592529297 443.7502746582031 230.1634063720703 426.9109191894531" stroke-width="0.0" fill="rgb(137, 143, 154)" opacity="1.0399507" stroke="rgb(0, 0, 0)" stroke-opacity="1.0" stroke-linecap="round" stroke-linejoin="round"/>
    <path d="M 196.4640350341797 420.2098693847656 C 187.0173797607422 419.52886962890625 187.34829711914062 419.25250244140625 183.5714874267578 425.69927978515625 C 184.55421447753906 434.5250244140625 183.29080200195312 449.0931701660156 182.96371459960938 458.8864440917969 C 188.21998596191406 460.7313537597656 196.69200134277344 457.3492431640625 194.45245361328125 459.1398010253906 C 197.3396453857422 441.2617492675781 199.493408203125 437.82208251953125 196.4640350341797 420.2098693847656" stroke-width="0.0" fill="rgb(112, 112, 119)" opacity="0.8722009" stroke="rgb(0, 0, 0)" stroke-opacity="1.0" stroke-linecap="round" stroke-linejoin="round"/>
    <path d="M -6.391392230987549 230.3423614501953 C -4.710646152496338 238.39791870117188 -5.830127716064453 248.27896118164062 -3.5315370559692383 256.8959655761719 C 24.320350646972656 254.5668487548828 41.90166473388672 248.7195587158203 63.44833755493164 248.72279357910156 C 69.70338439941406 233.20960998535156 47.93919372558594 239.61830139160156 24.573965072631836 227.8594970703125 C 18.229263305664062 228.76226806640625 5.604015827178955 226.74012756347656 -6.391392230987549 230.3423614501953" stroke-width="0.0" fill="rgb(88, 112, 145)" opacity="0.99877566" stroke="rgb(0, 0, 0)" stroke-opacity="1.0" stroke-linecap="round" stroke-linejoin="round"/>
    <path d="M 135.451416015625 489.1160888671875 C 155.470458984375 486.01214599609375 172.19000244140625 487.6054382324219 192.09344482421875 486.6522216796875 C 190.9411163330078 489.5442810058594 193.41268920898438 484.6355895996094 191.41729736328125 475.016845703125 C 177.70440673828125 474.605224609375 157.97674560546875 475.3315124511719 145.2744140625 474.7443542480469 C 143.02285766601562 477.0744323730469 140.75177001953125 483.6440734863281 135.451416015625 489.1160888671875" stroke-width="0.0" fill="rgb(192, 203, 196)" opacity="0.9916933" stroke="rgb(0, 0, 0)" stroke-opacity="1.0" stroke-linecap="round" stroke-linejoin="round"/>
    <path d="M 487.9288635253906 497.22900390625 C 486.931884765625 499.8691101074219 485.7688903808594 506.256103515625 481.2424011230469 519.076416015625 C 484.4003601074219 520.3440551757812 491.3323059082031 519.4904174804688 499.0409240722656 518.1248168945312 C 503.4740905761719 507.8985290527344 502.8602294921875 498.83172607421875 500.3536376953125 496.5062255859375 C 497.0909118652344 498.2093505859375 490.70709228515625 493.6681213378906 487.9288635253906 497.22900390625" stroke-width="0.0" fill="rgb(107, 111, 135)" opacity="0.9663893" stroke="rgb(0, 0, 0)" stroke-opacity="1.0" stroke-linecap="round" stroke-linejoin="round"/>
    <path d="M 200.58880615234375 426.86676025390625 C 203.6024932861328 435.8484191894531 199.2593231201172 449.4758605957031 207.8635711669922 446.3807067871094 C 211.49148559570312 447.75421142578125 206.7275848388672 436.6321716308594 210.46925354003906 428.05401611328125 C 204.96319580078125 427.7567443847656 202.13160705566406 426.82818603515625 200.58880615234375 426.86676025390625" stroke-width="0.0" fill="rgb(111, 94, 102)" opacity="0.9695021" stroke="rgb(0, 0, 0)" stroke-opacity="1.0" stroke-linecap="round" stroke-linejoin="round"/>
    <path d="M 218.5729522705078 434.60870361328125 C 219.7877655029297 420.8739318847656 215.34365844726562 427.7256774902344 210.60379028320312 428.1167297363281 C 213.47947692871094 431.62579345703125 210.36317443847656 449.1365661621094 212.61277770996094 447.965576171875 C 219.11856079101562 445.1956481933594 215.75051879882812 440.271728515625 218.5729522705078 434.60870361328125" stroke-width="0.0" fill="rgb(121, 105, 113)" opacity="0.94396627" stroke="rgb(0, 0, 0)" stroke-opacity="1.0" stroke-linecap="round" stroke-linejoin="round"/>
    <path d="M 265.8957824707031 276.2475891113281 C 273.2437744140625 285.5959777832031 288.3951721191406 280.2308044433594 297.56280517578125 286.6000061035156 C 296.9028015136719 287.5638732910156 299.8465270996094 286.90838623046875 297.5296630859375 295.57598876953125 C 326.1430969238281 301.6131286621094 340.0039367675781 292.25018310546875 365.6877136230469 286.4981689453125 C 363.1227111816406 277.9729919433594 360.51861572265625 275.4205322265625 355.40234375 270.7959289550781 C 341.6206359863281 263.73553466796875 330.5705261230469 254.3779754638672 308.7485046386719 248.9499053955078 C 296.8674011230469 254.22080993652344 285.62286376953125 268.512939453125 265.8957824707031 276.2475891113281" stroke-width="0.0" fill="rgb(103, 130, 158)" opacity="0.99486834" stroke="rgb(0, 0, 0)" stroke-opacity="1.0" stroke-linecap="round" stroke-linejoin="round"/>
    <path d="M 485.4007568359375 503.15081787109375 C 452.3971862792969 501.3494567871094 422.9006042480469 504.7566223144531 394.642822265625 503.6838684082031 C 384.45458984375 506.2051086425781 377.994873046875 504.18609619140625 375.4996337890625 518.3590698242188 C 411.7770080566406 519.0658569335938 447.3819885253906 519.09033203125 483.0608215332031 519.370849609375 C 482.1990966796875 512.6227416992188 486.228759765625 511.10845947265625 485.4007568359375 503.15081787109375" stroke-width="0.0" fill="rgb(69, 71, 86)" opacity="0.8139258" stroke="rgb(0, 0, 0)" stroke-opacity="1.0" stroke-linecap="round" stroke-linejoin="round"/>
    <path d="M 20.31882667541504 302.15716552734375 C 43.361045837402344 305.03289794921875 75.74421691894531 303.52496337890625 106.23546600341797 304.21124267578125 C 106.14630126953125 291.7054748535156 90.19670867919922 298.6260070800781 82.43343353271484 292.9079284667969 C 59.40714645385742 296.17413330078125 25.8151912689209 291.3753662109375 20.31882667541504 302.15716552734375" stroke-width="0.0" fill="rgb(66, 82, 111)" opacity="1.0024173" stroke="rgb(0, 0, 0)" stroke-opacity="1.0" stroke-linecap="round" stroke-linejoin="round"/>
    <path d="M 344.1841125488281 287.2277526855469 C 343.3215637207031 289.53564453125 345.30877685546875 293.80377197265625 342.5910339355469 291.861083984375 C 351.93743896484375 289.268310546875 356.5953674316406 293.25506591796875 358.0697021484375 287.7118835449219 C 352.20458984375 288.939697265625 347.7810974121094 285.37457275390625 344.1841125488281 287.2277526855469" stroke-width="0.0" fill="rgb(122, 147, 170)" opacity="0.9997637" stroke="rgb(0, 0, 0)" stroke-opacity="1.0" stroke-linecap="round" stroke-linejoin="round"/>
    <path d="M 455.60028076171875 304.9193115234375 C 456.6640319824219 307.01568603515625 455.5015869140625 309.3189697265625 455.6754150390625 309.430908203125 C 465.77197265625 307.8214416503906 464.2330627441406 312.6535949707031 463.9364929199219 304.7934875488281 C 467.2044372558594 305.0447692871094 459.6039733886719 304.73065185546875 455.60028076171875 304.9193115234375" stroke-width="0.0" fill="rgb(109, 132, 160)" opacity="0.9998028" stroke="rgb(0, 0, 0)" stroke-opacity="1.0" stroke-linecap="round" stroke-linejoin="round"/>
    <path d="M 412.0541687011719 305.0085144042969 C 412.0703125 308.69439697265625 411.9242858886719 307.29718017578125 410.2785949707031 308.2142333984375 C 414.1368713378906 307.6393737792969 418.93475341796875 308.9324035644531 419.3992919921875 307.0063781738281 C 418.11834716796875 303.9419250488281 417.07110595703125 302.07763671875 412.0541687011719 305.0085144042969" stroke-width="0.0" fill="rgb(95, 112, 141)" opacity="1.0000895" stroke="rgb(0, 0, 0)" stroke-opacity="1.0" stroke-linecap="round" stroke-linejoin="round"/>
    <path d="M 208.942626953125 339.9465637207031 C 205.24441528320312 341.3990783691406 206.3656463623047 346.2929382324219 205.4051513671875 352.197265625 C 205.59280395507812 353.6809387207031 211.67974853515625 354.48565673828125 215.55763244628906 354.1979064941406 C 216.6888427734375 355.1947326660156 219.1688232421875 349.81268310546875 217.9263153076172 342.4485778808594 C 216.60720825195312 338.00982666015625 212.69883728027344 338.1783752441406 208.942626953125 339.9465637207031" stroke-width="0.0" fill="rgb(57, 55, 63)" opacity="1.0089046" stroke="rgb(0, 0, 0)" stroke-opacity="1.0" stroke-linecap="round" stroke-linejoin="round"/>
    <path d="M 256.6238098144531 378.7069091796875 C 244.2937774658203 377.7685546875 236.1325225830078 383.545166015625 234.3813934326172 381.7437438964844 C 232.47598266601562 400.279052734375 236.7262420654297 415.9931335449219 234.63702392578125 438.508056640625 C 237.09713745117188 444.5286865234375 237.54742431640625 449.3403625488281 243.94869995117188 450.1202392578125 C 253.05349731445312 450.6663513183594 247.32901000976562 448.1706848144531 253.2692413330078 441.43890380859375 C 252.79898071289062 419.70660400390625 256.14276123046875 400.5802001953125 256.6238098144531 378.7069091796875" stroke-width="0.0" fill="rgb(83, 96, 111)" opacity="0.99223685" stroke="rgb(0, 0, 0)" stroke-opacity="1.0" stroke-linecap="round" stroke-linejoin="round"/>
    <path d="M 243.68423461914062 339.77850341796875 C 236.1171112060547 343.20037841796875 228.98641967773438 347.27020263671875 227.68313598632812 356.5021667480469 C 229.55503845214844 375.1361999511719 226.37774658203125 377.6657409667969 231.67401123046875 381.0406799316406 C 235.64712524414062 384.2633361816406 245.5274200439453 376.904052734375 256.6363525390625 380.8641052246094 C 255.4247589111328 370.2356872558594 257.5832824707031 359.40447998046875 253.8165283203125 351.4921569824219 C 253.26556396484375 348.15594482421875 247.40341186523438 344.630859375 243.68423461914062 339.77850341796875" stroke-width="0.0" fill="rgb(140, 145, 154)" opacity="0.96493423" stroke="rgb(0, 0, 0)" stroke-opacity="1.0" stroke-linecap="round" stroke-linejoin="round"/>
    <path d="M 196.45962524414062 409.1731872558594 C 198.16880798339844 417.31402587890625 196.44500732421875 423.1822204589844 201.46580505371094 427.142578125 C 209.3028564453125 426.4506530761719 224.20785522460938 428.6590270996094 227.978515625 426.06243896484375 C 228.0706329345703 417.59417724609375 228.87734985351562 405.7365417480469 227.20034790039062 396.99005126953125 C 223.01852416992188 402.2809143066406 216.0845947265625 399.1217346191406 207.2926483154297 400.0618896484375 C 201.30511474609375 400.70538330078125 203.24871826171875 405.8292541503906 196.45962524414062 409.1731872558594" stroke-width="0.0" fill="rgb(54, 57, 79)" opacity="0.9947362" stroke="rgb(0, 0, 0)" stroke-opacity="1.0" stroke-linecap="round" stroke-linejoin="round"/>
    <path d="M 196.112548828125 419.98223876953125 C 188.3623504638672 419.52618408203125 183.95758056640625 420.80499267578125 183.700927734375 428.6406555175781 C 183.7089385986328 432.4535827636719 185.64749145507812 432.2148132324219 183.07733154296875 449.8774719238281 C 189.5579071044922 447.02557373046875 193.71282958984375 446.169921875 195.4991912841797 449.5971374511719 C 199.7542724609375 436.1936950683594 197.07290649414062 429.5586242675781 196.112548828125 419.98223876953125" stroke-width="0.0" fill="rgb(70, 69, 76)" opacity="1.0037557" stroke="rgb(0, 0, 0)" stroke-opacity="1.0" stroke-linecap="round" stroke-linejoin="round"/>
    <path d="M 183.99549865722656 446.6264343261719 C 183.591064453125 445.0639953613281 181.20758056640625 459.9598388671875 184.4339141845703 460.7524719238281 C 191.4315948486328 463.0817565917969 185.2685089111328 451.1748962402344 190.08787536621094 450.2081604003906 C 194.27651977539062 448.9034118652344 189.6897430419922 454.3529968261719 193.96823120117188 461.1554870605469 C 197.0905303955078 457.4249572753906 195.1424102783203 448.7716979980469 198.37957763671875 444.7456970214844 C 192.1169891357422 448.63909912109375 184.8706512451172 449.1294860839844 183.99549865722656 446.6264343261719" stroke-width="0.0" fill="rgb(78, 76, 82)" opacity="1.0007553" stroke="rgb(0, 0, 0)" stroke-opacity="1.0" stroke-linecap="round" stroke-linejoin="round"/>
    <path d="M 212.5958251953125 352.6836242675781 C 201.3380126953125 355.625 198.48663330078125 357.694091796875 195.9073028564453 368.8356018066406 C 195.17391967773438 381.5907287597656 188.7483673095703 390.94708251953125 197.43316650390625 400.47540283203125 C 201.5349884033203 397.6790771484375 213.53964233398438 399.47552490234375 229.1756591796875 398.9457092285156 C 222.2069549560547 379.3624572753906 234.14205932617188 377.1200866699219 227.61268615722656 361.0711669921875 C 226.3704071044922 353.3953552246094 217.01560974121094 354.12310791015625 212.5958251953125 352.6836242675781" stroke-width="0.0" fill="rgb(89, 77, 84)" opacity="0.9681477" stroke="rgb(0, 0, 0)" stroke-opacity="1.0" stroke-linecap="round" stroke-linejoin="round"/>
    <path d="M 239.07960510253906 453.3782043457031 C 229.27244567871094 451.31182861328125 230.82754516601562 452.5216369628906 227.1259307861328 446.9921569824219 C 216.11900329589844 448.765380859375 221.6496124267578 457.3443298339844 210.6499786376953 450.84698486328125 C 201.33474731445312 453.30889892578125 198.71766662597656 454.7881774902344 197.6638641357422 465.55926513671875 C 204.71885681152344 467.0670471191406 226.17254638671875 465.1907043457031 235.68553161621094 466.48046875 C 238.7056121826172 462.3610534667969 240.1160430908203 460.81512451171875 239.07960510253906 453.3782043457031" stroke-width="0.0" fill="rgb(116, 121, 135)" opacity="1.0004504" stroke="rgb(0, 0, 0)" stroke-opacity="1.0" stroke-linecap="round" stroke-linejoin="round"/>
    <path d="M 56.119327545166016 293.71270751953125 C 50.27307891845703 297.9013366699219 51.860260009765625 299.90411376953125 59.219261169433594 301.4012451171875 C 59.209991455078125 299.9866027832031 73.6020736694336 301.32855224609375 68.17628479003906 294.4906005859375 C 68.47464752197266 293.3545227050781 58.906070709228516 294.7173156738281 56.119327545166016 293.71270751953125" stroke-width="0.0" fill="rgb(93, 106, 133)" opacity="1.0005416" stroke="rgb(0, 0, 0)" stroke-opacity="1.0" stroke-linecap="round" stroke-linejoin="round"/>
    <path d="M 183.2767791748047 446.2756652832031 C 185.8360595703125 444.63482666015625 188.9381561279297 448.1040954589844 189.5282440185547 449.3265686035156 C 186.7282257080078 450.40277099609375 188.8607177734375 457.0760498046875 187.8161163330078 462.1736145019531 C 178.63096618652344 457.7147216796875 183.01210021972656 456.9223937988281 183.2767791748047 446.2756652832031" stroke-width="0.0" fill="rgb(81, 79, 85)" opacity="0.9838217" stroke="rgb(0, 0, 0)" stroke-opacity="1.0" stroke-linecap="round" stroke-linejoin="round"/>
  </g>
</svg>
