<?xml version="1.0" ?>
<svg xmlns="http://www.w3.org/2000/svg" version="1.1" width="512" height="512">
  <defs/>
  <g>
    <path d="M -5.100041389465332 -5.427236557006836 C -5.116955757141113 169.5056610107422 -5.316190242767334 339.7546691894531 -5.519045352935791 518.12890625 C 170.3323974609375 518.183349609375 340.6658935546875 518.243896484375 517.293701171875 518.2462158203125 C 517.5841064453125 341.0997009277344 517.6754150390625 170.4901123046875 517.5416259765625 -5.435676574707031 C 340.78607177734375 -5.448994159698486 170.4116973876953 -5.4901323318481445 -5.100041389465332 -5.427236557006836" stroke-width="0.0" fill="rgb(160, 158, 139)" opacity="0.99806374" stroke="rgb(0, 0, 0)" stroke-opacity="1.0" stroke-linecap="round" stroke-linejoin="round"/>
    <path d="M 159.24317932128906 406.91534423828125 C 156.46438598632812 441.3429870605469 165.8556671142578 471.1391296386719 168.18307495117188 507.0345764160156 C 278.72686767578125 510.90936279296875 391.5115966796875 516.8548583984375 517.2537231445312 520.6340942382812 C 517.60205078125 436.3969421386719 517.664306640625 361.2298278808594 518.317138671875 280.38531494140625 C 460.5443420410156 283.1535339355469 408.7512512207031 283.1458740234375 348.4364929199219 283.6958312988281 C 376.0513610839844 315.24761962890625 395.3025207519531 346.1336669921875 421.9820251464844 369.6336669921875 C 415.91766357421875 373.2027282714844 411.48748779296875 363.9646301269531 401.1986083984375 366.5863952636719 C 401.4518127441406 378.33795166015625 391.5502624511719 378.0596923828125 388.0010070800781 378.1664733886719 C 363.8034973144531 344.980224609375 336.9765625 314.3954162597656 310.18487548828125 283.06915283203125 C 282.126953125 284.04193115234375 255.26849365234375 284.9526672363281 230.42642211914062 281.6678466796875 C 210.38572692871094 326.16278076171875 181.7812042236328 361.71923828125 159.24317932128906 406.91534423828125" stroke-width="0.0" fill="rgb(195, 173, 133)" opacity="0.99931365" stroke="rgb(0, 0, 0)" stroke-opacity="1.0" stroke-linecap="round" stroke-linejoin="round"/>
    <path d="M 227.810791015625 284.98602294921875 C 166.57174682617188 283.9695129394531 107.209228515625 286.4346618652344 45.95888137817383 286.59613037109375 C 46.879329681396484 292.23663330078125 44.94927978515625 298.4375915527344 46.06269073486328 304.3385009765625 C 29.609554290771484 306.545166015625 14.554085731506348 306.07464599609375 -5.071671962738037 306.8782653808594 C -5.022305011749268 374.5852355957031 -5.002573490142822 442.12982177734375 -4.534607410430908 511.07275390625 C 58.02737045288086 511.0859069824219 115.8260726928711 510.7511291503906 168.3332061767578 508.0508117675781 C 169.91107177734375 498.3699951171875 165.3751983642578 494.80419921875 164.11680603027344 487.58935546875 C 161.50442504882812 487.8448791503906 157.5562744140625 486.0780334472656 155.7581787109375 487.7856140136719 C 156.04298400878906 482.1151428222656 156.39187622070312 477.3731994628906 154.90769958496094 474.29351806640625 C 157.5118408203125 475.9651184082031 159.67636108398438 473.19537353515625 163.33302307128906 474.87628173828125 C 159.0857391357422 444.6708984375 158.68780517578125 421.4949035644531 159.95274353027344 401.5885314941406 C 180.9314422607422 361.8694763183594 205.61021423339844 326.44683837890625 227.810791015625 284.98602294921875" stroke-width="0.0" fill="rgb(194, 174, 136)" opacity="0.99978715" stroke="rgb(0, 0, 0)" stroke-opacity="1.0" stroke-linecap="round" stroke-linejoin="round"/>
    <path d="M 255.06613159179688 181.1147918701172 C 249.84140014648438 196.86614990234375 247.28843688964844 214.3466339111328 245.82156372070312 232.93394470214844 C 260.49066162109375 241.1526336669922 277.6993713378906 236.45742797851562 282.44622802734375 248.06077575683594 C 317.8277587890625 287.9278564453125 350.7278137207031 331.11480712890625 386.96588134765625 368.9809875488281 C 381.3653259277344 359.9068908691406 398.5951843261719 365.0924072265625 407.1964416503906 359.400390625 C 374.4615173339844 317.21697998046875 342.23089599609375 277.0635986328125 311.9363708496094 236.29901123046875 C 315.3100280761719 217.5819549560547 321.8559875488281 202.8661346435547 324.5966796875 182.6338653564453 C 305.673828125 179.63697814941406 277.41839599609375 181.11842346191406 255.06613159179688 181.1147918701172" stroke-width="0.0" fill="rgb(118, 66, 39)" opacity="1.0885241" stroke="rgb(0, 0, 0)" stroke-opacity="1.0" stroke-linecap="round" stroke-linejoin="round"/>
    <path d="M -5.279697895050049 205.2310791015625 C -5.141115665435791 237.4379119873047 -4.631030559539795 271.07000732421875 -5.185907363891602 306.1903381347656 C 14.103565216064453 304.81341552734375 29.58946990966797 305.6674499511719 44.811981201171875 303.25048828125 C 45.425010681152344 275.2063903808594 43.710689544677734 242.5392608642578 44.14982986450195 207.4974822998047 C 31.72489356994629 204.49803161621094 15.948163986206055 204.8380126953125 -5.279697895050049 205.2310791015625" stroke-width="0.0" fill="rgb(23, 35, 44)" opacity="1.0624118" stroke="rgb(0, 0, 0)" stroke-opacity="1.0" stroke-linecap="round" stroke-linejoin="round"/>
    <path d="M 398.0228576660156 362.4268493652344 C 390.01007080078125 358.0332336425781 388.4644470214844 359.9125671386719 382.3644104003906 363.7658386230469 C 379.4049987792969 366.5267333984375 381.3501281738281 373.3078308105469 384.49359130859375 378.1813659667969 C 389.2245788574219 379.6739501953125 391.646484375 376.581787109375 396.27008056640625 375.57696533203125 C 397.68145751953125 370.72308349609375 398.3731689453125 367.13446044921875 398.0228576660156 362.4268493652344" stroke-width="0.0" fill="rgb(145, 109, 74)" opacity="0.9886372" stroke="rgb(0, 0, 0)" stroke-opacity="1.0" stroke-linecap="round" stroke-linejoin="round"/>
    <path d="M 239.95770263671875 239.7478790283203 C 237.5229949951172 252.25331115722656 231.6128692626953 265.4078063964844 228.00454711914062 282.51666259765625 C 242.46530151367188 285.55523681640625 256.0073547363281 284.1167907714844 266.66400146484375 284.3569641113281 C 269.46514892578125 272.7102355957031 271.8238220214844 258.1961669921875 273.5157165527344 241.4279022216797 C 267.8394775390625 239.06057739257812 252.50189208984375 237.67120361328125 239.95770263671875 239.7478790283203" stroke-width="0.0" fill="rgb(121, 115, 106)" opacity="1.0180159" stroke="rgb(0, 0, 0)" stroke-opacity="1.0" stroke-linecap="round" stroke-linejoin="round"/>
    <path d="M 243.1609649658203 205.11404418945312 C 235.75953674316406 193.74075317382812 234.63006591796875 199.98316955566406 231.5970001220703 208.1746368408203 C 225.2744598388672 239.76097106933594 218.88357543945312 272.70233154296875 213.5388641357422 305.770751953125 C 226.37123107910156 287.4848327636719 235.0045928955078 268.7177429199219 240.46856689453125 249.42218017578125 C 240.55520629882812 230.48289489746094 245.6075439453125 213.26560974121094 243.1609649658203 205.11404418945312" stroke-width="0.0" fill="rgb(131, 141, 130)" opacity="0.9873838" stroke="rgb(0, 0, 0)" stroke-opacity="1.0" stroke-linecap="round" stroke-linejoin="round"/>
    <path d="M 275.3583679199219 238.38250732421875 C 273.0072021484375 253.44046020507812 271.094482421875 266.58782958984375 267.14801025390625 281.0552978515625 C 281.2049560546875 282.1104431152344 293.9012451171875 281.6235046386719 308.9013366699219 281.8194580078125 C 296.0804748535156 268.3595886230469 287.9477844238281 252.52828979492188 275.3583679199219 238.38250732421875" stroke-width="0.0" fill="rgb(138, 138, 123)" opacity="0.9958883" stroke="rgb(0, 0, 0)" stroke-opacity="1.0" stroke-linecap="round" stroke-linejoin="round"/>
    <path d="M 486.5056457519531 276.3419189453125 C 483.8752746582031 271.5047607421875 478.2680969238281 269.0565185546875 475.96673583984375 263.5660705566406 C 472.23236083984375 263.96258544921875 468.2724304199219 263.7335510253906 467.1846618652344 264.4185485839844 C 453.6319580078125 266.9503479003906 450.5480041503906 277.5851745605469 435.02301025390625 283.2656555175781 C 453.7461242675781 285.4826965332031 468.1467590332031 284.8678283691406 484.1925048828125 284.36883544921875 C 487.5228271484375 284.11053466796875 487.3424072265625 286.6008605957031 486.5056457519531 276.3419189453125" stroke-width="0.0" fill="rgb(132, 105, 69)" opacity="0.9988591" stroke="rgb(0, 0, 0)" stroke-opacity="1.0" stroke-linecap="round" stroke-linejoin="round"/>
    <path d="M -14.97968864440918 198.33294677734375 C 1.099185585975647 208.9932861328125 23.64052963256836 201.17431640625 40.49446105957031 207.01400756835938 C 45.38154602050781 209.9422607421875 56.42998123168945 207.57937622070312 60.095523834228516 201.9702911376953 C 41.29476547241211 199.0891876220703 22.332393646240234 194.9468536376953 -14.97968864440918 198.33294677734375" stroke-width="0.0" fill="rgb(160, 148, 120)" opacity="0.9661383" stroke="rgb(0, 0, 0)" stroke-opacity="1.0" stroke-linecap="round" stroke-linejoin="round"/>
    <path d="M 350.7547607421875 280.9453125 C 348.41314697265625 283.01123046875 348.90386962890625 287.5999755859375 351.7991638183594 282.8672180175781 C 382.9454040527344 288.4429626464844 415.9844970703125 291.4773254394531 444.78143310546875 282.7088623046875 C 412.90423583984375 279.2966003417969 382.06951904296875 278.9732971191406 350.7547607421875 280.9453125" stroke-width="0.0" fill="rgb(157, 137, 104)" opacity="0.99293756" stroke="rgb(0, 0, 0)" stroke-opacity="1.0" stroke-linecap="round" stroke-linejoin="round"/>
    <path d="M 325.6103515625 -6.710167407989502 C 320.33905029296875 8.709260940551758 321.21502685546875 16.725067138671875 320.7525329589844 23.829269409179688 C 325.9183044433594 33.34999465942383 328.4952392578125 44.563419342041016 334.2878112792969 53.14746856689453 C 348.6854553222656 52.568973541259766 353.847412109375 62.54539489746094 367.61260986328125 65.46041107177734 C 387.1683654785156 68.41932678222656 386.93035888671875 69.04122161865234 400.6220703125 65.58423614501953 C 412.2341613769531 67.82711791992188 420.76812744140625 71.71521759033203 427.5732727050781 76.17117309570312 C 441.4818420410156 77.85234832763672 443.61224365234375 88.26329040527344 452.7531433105469 96.43929290771484 C 463.4892578125 100.15074157714844 478.8531494140625 99.8544921875 486.4585266113281 105.28404235839844 C 499.8329162597656 112.185302734375 496.00299072265625 130.30587768554688 518.5396728515625 132.38470458984375 C 519.6864624023438 91.2171859741211 519.308837890625 39.95578384399414 517.8309936523438 -8.218618392944336 C 439.9772033691406 -8.614726066589355 375.4508361816406 -8.453927040100098 325.6103515625 -6.710167407989502" stroke-width="0.0" fill="rgb(148, 154, 143)" opacity="0.99857306" stroke="rgb(0, 0, 0)" stroke-opacity="1.0" stroke-linecap="round" stroke-linejoin="round"/>
    <path d="M 205.28672790527344 12.15070915222168 C 206.53607177734375 19.96505355834961 211.9407196044922 23.46487808227539 215.248779296875 28.83304786682129 C 228.24484252929688 30.9819278717041 233.57125854492188 38.48989486694336 240.5390625 30.720182418823242 C 242.69590759277344 18.395490646362305 227.73876953125 23.152589797973633 227.0828094482422 12.928635597229004 C 216.46795654296875 10.561087608337402 207.83714294433594 8.396860122680664 205.28672790527344 12.15070915222168" stroke-width="0.0" fill="rgb(177, 174, 150)" opacity="1.0006458" stroke="rgb(0, 0, 0)" stroke-opacity="1.0" stroke-linecap="round" stroke-linejoin="round"/>
    <path d="M 224.40126037597656 -4.537026405334473 C 220.65975952148438 14.713827133178711 230.24484252929688 6.952674865722656 244.24501037597656 17.12044334411621 C 243.9536590576172 15.557466506958008 245.09475708007812 10.600364685058594 244.52838134765625 5.940609455108643 C 250.54612731933594 4.404759883880615 247.89695739746094 12.373397827148438 251.89605712890625 11.440361976623535 C 259.404052734375 5.662232875823975 264.08062744140625 0.4347054362297058 269.90673828125 5.339365482330322 C 255.5348358154297 1.3659416437149048 241.5855255126953 -4.096996307373047 224.40126037597656 -4.537026405334473" stroke-width="0.0" fill="rgb(157, 164, 151)" opacity="1.0004113" stroke="rgb(0, 0, 0)" stroke-opacity="1.0" stroke-linecap="round" stroke-linejoin="round"/>
    <path d="M 185.5801544189453 233.5509033203125 C 191.33724975585938 230.1722869873047 191.70680236816406 233.06100463867188 191.38531494140625 233.49485778808594 C 192.0192413330078 252.63209533691406 194.38316345214844 274.8331298828125 188.92852783203125 290.5013122558594 C 186.204833984375 274.35382080078125 190.6270294189453 248.69375610351562 185.5801544189453 233.5509033203125" stroke-width="0.0" fill="rgb(149, 154, 137)" opacity="1.0003337" stroke="rgb(0, 0, 0)" stroke-opacity="1.0" stroke-linecap="round" stroke-linejoin="round"/>
    <path d="M 414.0429382324219 121.06453704833984 C 415.142578125 128.61756896972656 414.1145324707031 143.12461853027344 416.0447692871094 145.78871154785156 C 425.2662658691406 145.40972900390625 424.0560607910156 139.20358276367188 425.5053405761719 129.68954467773438 C 422.3240051269531 125.52434539794922 421.275634765625 121.77849578857422 414.0429382324219 121.06453704833984" stroke-width="0.0" fill="rgb(154, 157, 140)" opacity="1.0000743" stroke="rgb(0, 0, 0)" stroke-opacity="1.0" stroke-linecap="round" stroke-linejoin="round"/>
    <path d="M 487.91949462890625 283.77447509765625 C 489.30828857421875 288.21197509765625 498.01739501953125 286.5585021972656 507.39691162109375 286.0318298339844 C 517.8886108398438 285.7953796386719 518.5594482421875 278.69781494140625 517.863037109375 280.9743957519531 C 502.203125 278.7463684082031 491.44610595703125 277.1050720214844 487.91949462890625 283.77447509765625" stroke-width="0.0" fill="rgb(136, 135, 118)" opacity="0.99215263" stroke="rgb(0, 0, 0)" stroke-opacity="1.0" stroke-linecap="round" stroke-linejoin="round"/>
    <path d="M 272.95928955078125 237.80372619628906 C 311.6235656738281 277.6554260253906 343.26580810546875 324.40155029296875 383.5925598144531 366.4477844238281 C 389.7976379394531 355.1302185058594 401.0794982910156 362.9109191894531 406.2838134765625 358.2544860839844 C 374.2204284667969 315.4690856933594 340.7217102050781 276.5993347167969 310.1243591308594 234.70999145507812 C 288.00128173828125 231.49517822265625 281.8758544921875 231.55050659179688 272.95928955078125 237.80372619628906" stroke-width="0.0" fill="rgb(151, 80, 19)" opacity="1.0058056" stroke="rgb(0, 0, 0)" stroke-opacity="1.0" stroke-linecap="round" stroke-linejoin="round"/>
    <path d="M 254.12255859375 180.49093627929688 C 249.52618408203125 195.4886474609375 247.83493041992188 212.52456665039062 247.35781860351562 233.0922088623047 C 264.9423522949219 231.55282592773438 292.9879150390625 231.29266357421875 311.918701171875 233.21202087402344 C 315.85955810546875 217.33328247070312 321.273681640625 202.546875 323.2593688964844 182.5971221923828 C 305.1632995605469 178.98074340820312 277.004638671875 181.56263732910156 254.12255859375 180.49093627929688" stroke-width="0.0" fill="rgb(119, 89, 76)" opacity="0.9208125" stroke="rgb(0, 0, 0)" stroke-opacity="1.0" stroke-linecap="round" stroke-linejoin="round"/>
    <path d="M 273.42816162109375 241.3025665283203 C 256.6417541503906 242.62762451171875 238.5034942626953 242.76080322265625 244.27723693847656 245.06761169433594 C 226.82589721679688 299.8221130371094 194.3715057373047 340.7547607421875 167.94485473632812 390.8836975097656 C 203.86143493652344 393.0159912109375 228.75384521484375 402.7984924316406 262.927734375 404.2304382324219 C 267.19915771484375 349.48248291015625 265.05206298828125 291.7016296386719 273.42816162109375 241.3025665283203" stroke-width="0.0" fill="rgb(154, 156, 133)" opacity="0.8458507" stroke="rgb(0, 0, 0)" stroke-opacity="1.0" stroke-linecap="round" stroke-linejoin="round"/>
    <path d="M 2.374255657196045 221.4586181640625 C 6.24910831451416 252.7464599609375 -2.951754570007324 273.8677062988281 -9.207627296447754 305.8695373535156 C 8.40265941619873 306.4830627441406 15.39599895477295 304.6962890625 26.16179656982422 304.6424255371094 C 25.711238861083984 276.2691345214844 27.677326202392578 250.6460418701172 25.560400009155273 225.0486297607422 C 21.840688705444336 217.2405548095703 12.756608009338379 221.27439880371094 2.374255657196045 221.4586181640625" stroke-width="0.0" fill="rgb(23, 35, 44)" opacity="1.0069875" stroke="rgb(0, 0, 0)" stroke-opacity="1.0" stroke-linecap="round" stroke-linejoin="round"/>
    <path d="M 267.8662414550781 283.49737548828125 C 266.7711486816406 294.47015380859375 266.7711181640625 299.3301086425781 271.2279968261719 307.2483215332031 C 290.45220947265625 306.3061828613281 310.7183532714844 308.4723205566406 326.6363220214844 308.758056640625 C 319.62493896484375 291.3438415527344 313.6887512207031 286.7182312011719 305.6393127441406 282.7803649902344 C 293.7043151855469 283.0828552246094 280.6452941894531 284.3141784667969 267.8662414550781 283.49737548828125" stroke-width="0.0" fill="rgb(184, 156, 122)" opacity="0.998184" stroke="rgb(0, 0, 0)" stroke-opacity="1.0" stroke-linecap="round" stroke-linejoin="round"/>
    <path d="M 327.7756042480469 303.243896484375 C 325.17816162109375 310.3944396972656 326.1081848144531 310.7581787109375 331.03948974609375 307.1731262207031 C 307.8497314453125 311.90203857421875 283.9806213378906 309.6427001953125 264.23004150390625 307.5231018066406 C 297.8742370605469 304.6100769042969 318.5567932128906 303.375244140625 327.7756042480469 303.243896484375" stroke-width="0.0" fill="rgb(153, 97, 67)" opacity="0.9946544" stroke="rgb(0, 0, 0)" stroke-opacity="1.0" stroke-linecap="round" stroke-linejoin="round"/>
    <path d="M 87.3631591796875 306.36358642578125 C 85.51737213134766 307.1741638183594 85.8494873046875 312.6292419433594 86.17738342285156 322.34344482421875 C 94.30220794677734 322.3113098144531 98.43478393554688 322.203369140625 101.56565856933594 321.1412048339844 C 103.84402465820312 320.42889404296875 103.30460357666016 314.200927734375 103.49614715576172 309.5262451171875 C 99.67991638183594 305.7565002441406 96.45691680908203 304.7189025878906 87.3631591796875 306.36358642578125" stroke-width="0.0" fill="rgb(168, 144, 117)" opacity="1.0004363" stroke="rgb(0, 0, 0)" stroke-opacity="1.0" stroke-linecap="round" stroke-linejoin="round"/>
    <path d="M 397.526611328125 362.31903076171875 C 397.08642578125 361.8919677734375 391.32427978515625 361.41546630859375 386.5454406738281 361.9855041503906 C 386.4983215332031 365.34857177734375 384.1332092285156 371.1952819824219 382.6841735839844 375.0045166015625 C 388.2978515625 376.9967346191406 392.8950500488281 375.5345458984375 399.1289367675781 372.2981262207031 C 400.0690002441406 369.7738952636719 398.64984130859375 367.4263610839844 397.526611328125 362.31903076171875" stroke-width="0.0" fill="rgb(182, 153, 113)" opacity="1.0012406" stroke="rgb(0, 0, 0)" stroke-opacity="1.0" stroke-linecap="round" stroke-linejoin="round"/>
    <path d="M 444.3190612792969 277.16510009765625 C 437.60809326171875 278.7397155761719 440.7581787109375 279.8984069824219 442.37469482421875 281.9903869628906 C 441.88604736328125 285.7830505371094 451.54998779296875 286.9902648925781 464.837158203125 282.3049621582031 C 459.8035583496094 277.0474853515625 453.6870422363281 279.2413635253906 444.3190612792969 277.16510009765625" stroke-width="0.0" fill="rgb(68, 43, 29)" opacity="0.9927934" stroke="rgb(0, 0, 0)" stroke-opacity="1.0" stroke-linecap="round" stroke-linejoin="round"/>
    <path d="M 84.22147369384766 288.0365295410156 C 82.66680908203125 290.31842041015625 85.01982879638672 293.89068603515625 83.99327087402344 296.23968505859375 C 86.57242584228516 295.5177307128906 89.81538391113281 297.10015869140625 93.13091278076172 296.4140319824219 C 93.06837463378906 287.0477600097656 92.50312042236328 285.1812744140625 84.22147369384766 288.0365295410156" stroke-width="0.0" fill="rgb(169, 64, 36)" opacity="1.0074342" stroke="rgb(0, 0, 0)" stroke-opacity="1.0" stroke-linecap="round" stroke-linejoin="round"/>
    <path d="M 206.6947479248047 418.2608947753906 C 202.35060119628906 426.5243835449219 207.7217254638672 426.4225769042969 213.4768829345703 430.6743469238281 C 224.064208984375 429.8046875 235.72921752929688 431.2140197753906 237.7627410888672 423.8984375 C 231.0266876220703 417.9996643066406 219.81251525878906 417.26959228515625 206.6947479248047 418.2608947753906" stroke-width="0.0" fill="rgb(198, 165, 80)" opacity="0.9931778" stroke="rgb(0, 0, 0)" stroke-opacity="1.0" stroke-linecap="round" stroke-linejoin="round"/>
    <path d="M 373.1124267578125 372.5547180175781 C 359.3113098144531 371.9194641113281 348.2872009277344 372.925048828125 340.49200439453125 380.451416015625 C 345.96014404296875 382.716552734375 358.7442932128906 383.26104736328125 365.0099182128906 383.4248046875 C 369.6022644042969 379.805908203125 379.201171875 380.1566467285156 373.1124267578125 372.5547180175781" stroke-width="0.0" fill="rgb(132, 103, 69)" opacity="0.9985801" stroke="rgb(0, 0, 0)" stroke-opacity="1.0" stroke-linecap="round" stroke-linejoin="round"/>
    <path d="M 118.07831573486328 288.9560546875 C 110.24714660644531 288.7579650878906 106.93265533447266 288.3226623535156 106.37169647216797 295.34039306640625 C 106.00173950195312 297.6992492675781 112.73025512695312 295.72430419921875 120.7047119140625 297.4135437011719 C 120.42829132080078 296.88690185546875 120.93001556396484 288.155517578125 118.07831573486328 288.9560546875" stroke-width="0.0" fill="rgb(191, 112, 71)" opacity="1.003125" stroke="rgb(0, 0, 0)" stroke-opacity="1.0" stroke-linecap="round" stroke-linejoin="round"/>
    <path d="M 451.014404296875 356.0603942871094 C 451.4656982421875 358.8691101074219 450.8028564453125 361.21527099609375 455.94232177734375 358.0589904785156 C 443.75384521484375 360.5496826171875 429.6729431152344 363.8885803222656 429.37884521484375 358.4217529296875 C 433.73480224609375 357.57110595703125 445.6375427246094 358.3157043457031 451.014404296875 356.0603942871094" stroke-width="0.0" fill="rgb(161, 108, 72)" opacity="1.0006725" stroke="rgb(0, 0, 0)" stroke-opacity="1.0" stroke-linecap="round" stroke-linejoin="round"/>
    <path d="M 3.611490249633789 204.187744140625 C 1.998218297958374 206.71543884277344 2.6635005474090576 213.06402587890625 3.315157651901245 219.05511474609375 C 8.116684913635254 220.24490356445312 19.858867645263672 217.21475219726562 26.149646759033203 220.57313537597656 C 25.89717674255371 247.35887145996094 28.479093551635742 274.6561279296875 26.679351806640625 304.8873291015625 C 33.38623046875 305.2569885253906 39.37071228027344 305.9646911621094 46.21691131591797 303.54522705078125 C 46.43251419067383 270.01739501953125 45.28841781616211 237.8640594482422 44.373619079589844 205.90423583984375 C 31.504024505615234 206.9695587158203 16.14128303527832 205.36546325683594 3.611490249633789 204.187744140625" stroke-width="0.0" fill="rgb(29, 71, 89)" opacity="0.97055876" stroke="rgb(0, 0, 0)" stroke-opacity="1.0" stroke-linecap="round" stroke-linejoin="round"/>
    <path d="M 323.69512939453125 2.9639170169830322 C 324.419189453125 12.924181938171387 322.8310241699219 20.13393211364746 328.5154724121094 18.616308212280273 C 335.2202453613281 24.939523696899414 339.31622314453125 30.019298553466797 353.0168151855469 27.63629913330078 C 355.34686279296875 15.478264808654785 354.9590759277344 5.795652866363525 350.7116394042969 0.24079173803329468 C 341.3393859863281 0.2418801635503769 332.5137939453125 3.5487074851989746 323.69512939453125 2.9639170169830322" stroke-width="0.0" fill="rgb(171, 171, 150)" opacity="1.0003031" stroke="rgb(0, 0, 0)" stroke-opacity="1.0" stroke-linecap="round" stroke-linejoin="round"/>
    <path d="M 450.9526062011719 266.85369873046875 C 455.63629150390625 273.3033752441406 457.18511962890625 281.47967529296875 459.8453063964844 285.7602233886719 C 471.3356628417969 286.1011962890625 480.23590087890625 287.77740478515625 485.5460205078125 285.1767272949219 C 489.7030944824219 272.1932373046875 478.9869079589844 274.6147766113281 476.7406921386719 261.9229431152344 C 461.9194641113281 257.9915771484375 466.4131774902344 272.1596984863281 450.9526062011719 266.85369873046875" stroke-width="0.0" fill="rgb(148, 112, 64)" opacity="1.0013419" stroke="rgb(0, 0, 0)" stroke-opacity="1.0" stroke-linecap="round" stroke-linejoin="round"/>
    <path d="M 350.7080078125 279.3065490722656 C 349.8039245605469 283.9856872558594 351.3899230957031 288.39788818359375 354.5944519042969 286.90606689453125 C 377.2105407714844 289.0804138183594 399.9854736328125 288.148193359375 422.7984619140625 285.9835205078125 C 418.8200378417969 282.1846618652344 418.5626525878906 280.27166748046875 418.0010681152344 279.0753173828125 C 395.44683837890625 278.187255859375 373.8299255371094 280.611572265625 350.7080078125 279.3065490722656" stroke-width="0.0" fill="rgb(161, 138, 101)" opacity="0.98648906" stroke="rgb(0, 0, 0)" stroke-opacity="1.0" stroke-linecap="round" stroke-linejoin="round"/>
    <path d="M 75.99789428710938 305.6574401855469 C 73.80106353759766 308.96636962890625 71.48465728759766 316.8612365722656 74.08631896972656 321.78973388671875 C 77.66886138916016 322.5763244628906 83.96192169189453 321.4769287109375 86.61734008789062 322.1882019042969 C 84.76679992675781 312.45880126953125 86.55235290527344 307.6468505859375 89.83116912841797 305.10882568359375 C 86.58246612548828 306.4637451171875 79.7587661743164 305.9961853027344 75.99789428710938 305.6574401855469" stroke-width="0.0" fill="rgb(198, 179, 143)" opacity="1.000587" stroke="rgb(0, 0, 0)" stroke-opacity="1.0" stroke-linecap="round" stroke-linejoin="round"/>
    <path d="M 129.20654296875 284.70684814453125 C 130.2285614013672 285.6649169921875 130.20835876464844 288.1861877441406 129.31057739257812 291.06317138671875 C 138.75067138671875 290.65191650390625 147.40077209472656 290.744384765625 155.7892608642578 291.07733154296875 C 157.0201416015625 283.9046325683594 157.11318969726562 282.9808349609375 154.63058471679688 282.6201171875 C 144.1123809814453 281.13323974609375 135.95042419433594 281.1125793457031 129.20654296875 284.70684814453125" stroke-width="0.0" fill="rgb(155, 127, 83)" opacity="0.993497" stroke="rgb(0, 0, 0)" stroke-opacity="1.0" stroke-linecap="round" stroke-linejoin="round"/>
    <path d="M 503.7281799316406 287.950927734375 C 506.3533630371094 286.5751037597656 505.8516540527344 290.5723571777344 505.8488464355469 291.6318359375 C 509.1737976074219 292.8143005371094 511.9047546386719 303.65924072265625 508.5667724609375 308.0450744628906 C 501.9212951660156 306.3079833984375 503.27581787109375 294.9644470214844 503.7281799316406 287.950927734375" stroke-width="0.0" fill="rgb(183, 171, 138)" opacity="0.9999924" stroke="rgb(0, 0, 0)" stroke-opacity="1.0" stroke-linecap="round" stroke-linejoin="round"/>
    <path d="M 335.6651916503906 387.24114990234375 C 339.5520324707031 390.1083068847656 333.6726989746094 394.2002258300781 337.5687255859375 392.5429382324219 C 332.6734619140625 393.9153747558594 325.9439697265625 399.6678771972656 317.913330078125 403.64678955078125 C 319.91387939453125 393.67547607421875 329.8523254394531 393.5438537597656 335.6651916503906 387.24114990234375" stroke-width="0.0" fill="rgb(168, 145, 104)" opacity="0.9993783" stroke="rgb(0, 0, 0)" stroke-opacity="1.0" stroke-linecap="round" stroke-linejoin="round"/>
    <path d="M 52.681522369384766 281.1152038574219 C 49.60023498535156 284.65948486328125 49.4842529296875 289.57073974609375 48.224143981933594 288.184326171875 C 50.83281707763672 295.195556640625 54.34170913696289 293.74859619140625 58.608760833740234 291.1045837402344 C 57.38772201538086 286.3702697753906 54.802127838134766 284.2481689453125 52.681522369384766 281.1152038574219" stroke-width="0.0" fill="rgb(189, 173, 139)" opacity="0.99936634" stroke="rgb(0, 0, 0)" stroke-opacity="1.0" stroke-linecap="round" stroke-linejoin="round"/>
    <path d="M 253.43026733398438 433.32940673828125 C 250.7542724609375 431.8235168457031 252.9422149658203 436.6658020019531 251.04844665527344 441.1636962890625 C 255.13156127929688 435.6929626464844 259.096923828125 438.8515930175781 264.35064697265625 441.7646484375 C 264.3917541503906 431.9204406738281 261.6933898925781 432.9496154785156 253.43026733398438 433.32940673828125" stroke-width="0.0" fill="rgb(150, 121, 83)" opacity="0.99894017" stroke="rgb(0, 0, 0)" stroke-opacity="1.0" stroke-linecap="round" stroke-linejoin="round"/>
    <path d="M 287.5555419921875 274.9580078125 C 282.3968200683594 277.7027893066406 285.58282470703125 281.8295593261719 286.5408020019531 280.928466796875 C 285.5062561035156 280.58544921875 289.55267333984375 283.8236999511719 294.9101257324219 281.0463562011719 C 294.5528564453125 274.0832214355469 292.954345703125 272.9764099121094 287.5555419921875 274.9580078125" stroke-width="0.0" fill="rgb(170, 156, 130)" opacity="1.0009372" stroke="rgb(0, 0, 0)" stroke-opacity="1.0" stroke-linecap="round" stroke-linejoin="round"/>
    <path d="M 135.3004150390625 418.6974792480469 C 138.35482788085938 419.5507507324219 136.30853271484375 424.5653991699219 137.84312438964844 421.6376953125 C 136.2216339111328 424.25225830078125 132.7724609375 426.555419921875 127.74041748046875 424.22064208984375 C 128.82131958007812 419.8986511230469 132.8095245361328 419.8761901855469 135.3004150390625 418.6974792480469" stroke-width="0.0" fill="rgb(190, 168, 129)" opacity="0.9999087" stroke="rgb(0, 0, 0)" stroke-opacity="1.0" stroke-linecap="round" stroke-linejoin="round"/>
    <path d="M 75.40496826171875 283.745849609375 C 76.29386901855469 285.1001281738281 74.69036102294922 287.6786193847656 77.76683807373047 285.2225646972656 C 73.49659729003906 285.7359313964844 77.09162902832031 294.85211181640625 73.63652801513672 293.5652160644531 C 72.87889099121094 285.0283203125 68.79928588867188 285.53387451171875 75.40496826171875 283.745849609375" stroke-width="0.0" fill="rgb(169, 133, 97)" opacity="1.0008608" stroke="rgb(0, 0, 0)" stroke-opacity="1.0" stroke-linecap="round" stroke-linejoin="round"/>
    <path d="M 280.1057434082031 456.16748046875 C 274.75433349609375 454.5034484863281 275.8151550292969 460.1690979003906 276.3970031738281 459.55328369140625 C 275.0343322753906 459.81890869140625 275.4425964355469 460.1910095214844 280.5186767578125 460.288818359375 C 279.50885009765625 454.8809814453125 280.5594787597656 454.97650146484375 280.1057434082031 456.16748046875" stroke-width="0.0" fill="rgb(166, 138, 92)" opacity="0.9998561" stroke="rgb(0, 0, 0)" stroke-opacity="1.0" stroke-linecap="round" stroke-linejoin="round"/>
    <path d="M 97.49954223632812 285.87493896484375 C 95.1434097290039 286.58392333984375 95.47941589355469 288.8757019042969 96.28964233398438 285.5140686035156 C 95.79774475097656 289.9299011230469 94.9874038696289 294.5377197265625 97.83039093017578 291.96258544921875 C 101.31721496582031 289.2510986328125 98.71378326416016 286.5348815917969 97.49954223632812 285.87493896484375" stroke-width="0.0" fill="rgb(149, 121, 76)" opacity="0.99911773" stroke="rgb(0, 0, 0)" stroke-opacity="1.0" stroke-linecap="round" stroke-linejoin="round"/>
    <path d="M 254.38609313964844 181.27484130859375 C 249.90768432617188 194.78111267089844 248.77317810058594 212.4297637939453 245.1552734375 228.4808807373047 C 256.3476867675781 231.303955078125 267.6992492675781 229.4675750732422 282.1934814453125 228.90084838867188 C 284.5796203613281 215.18540954589844 288.30291748046875 198.4697265625 292.4024353027344 180.53793334960938 C 281.62841796875 183.64141845703125 269.66357421875 180.07568359375 254.38609313964844 181.27484130859375" stroke-width="0.0" fill="rgb(148, 128, 114)" opacity="1.001216" stroke="rgb(0, 0, 0)" stroke-opacity="1.0" stroke-linecap="round" stroke-linejoin="round"/>
    <path d="M 291.5666809082031 180.0135498046875 C 289.770751953125 196.94174194335938 284.4718322753906 211.81039428710938 279.6068420410156 228.7617950439453 C 286.4024658203125 231.48963928222656 300.2928161621094 227.04966735839844 311.213623046875 234.0651397705078 C 314.4468078613281 217.4290771484375 320.2641296386719 203.25747680664062 324.3059387207031 185.6529541015625 C 317.1821594238281 180.74713134765625 305.3908386230469 179.73748779296875 291.5666809082031 180.0135498046875" stroke-width="0.0" fill="rgb(150, 129, 114)" opacity="1.0188857" stroke="rgb(0, 0, 0)" stroke-opacity="1.0" stroke-linecap="round" stroke-linejoin="round"/>
    <path d="M 3.234614610671997 220.83248901367188 C 2.2933497428894043 230.02330017089844 1.888970971107483 243.16622924804688 4.234689712524414 250.93869018554688 C 7.3240838050842285 253.7194366455078 15.706642150878906 254.3270263671875 25.097551345825195 255.62734985351562 C 27.41895866394043 244.07717895507812 25.1724796295166 232.90945434570312 23.917949676513672 220.19192504882812 C 20.879106521606445 220.9700469970703 9.200091361999512 221.14572143554688 3.234614610671997 220.83248901367188" stroke-width="0.0" fill="rgb(21, 19, 22)" opacity="0.9917702" stroke="rgb(0, 0, 0)" stroke-opacity="1.0" stroke-linecap="round" stroke-linejoin="round"/>
    <path d="M 210.0018768310547 325.9682922363281 C 207.6804962158203 333.0070495605469 206.28199768066406 340.1999206542969 205.258544921875 347.32574462890625 C 217.19720458984375 348.4072265625 227.32669067382812 350.2420349121094 239.56382751464844 351.1624755859375 C 242.06170654296875 345.7501525878906 242.7809295654297 337.72222900390625 243.65966796875 330.47247314453125 C 233.27322387695312 327.6360778808594 220.4237518310547 327.31524658203125 210.0018768310547 325.9682922363281" stroke-width="0.0" fill="rgb(194, 177, 142)" opacity="1.0007308" stroke="rgb(0, 0, 0)" stroke-opacity="1.0" stroke-linecap="round" stroke-linejoin="round"/>
    <path d="M 205.67079162597656 349.5310974121094 C 203.49722290039062 355.7816162109375 202.70187377929688 362.2752685546875 201.25204467773438 369.9434814453125 C 212.85910034179688 371.0166015625 222.54322814941406 374.8587646484375 235.6983184814453 375.7470397949219 C 237.56427001953125 368.31402587890625 238.80303955078125 361.5718688964844 239.558349609375 354.5593566894531 C 227.37440490722656 352.273193359375 216.68968200683594 350.0421447753906 205.67079162597656 349.5310974121094" stroke-width="0.0" fill="rgb(194, 177, 140)" opacity="1.0004464" stroke="rgb(0, 0, 0)" stroke-opacity="1.0" stroke-linecap="round" stroke-linejoin="round"/>
    <path d="M 200.35389709472656 371.17352294921875 C 200.1261749267578 378.0807800292969 197.2601318359375 384.8988952636719 197.48680114746094 392.1688537597656 C 209.407470703125 393.267578125 219.9855194091797 396.3451843261719 230.16224670410156 396.91644287109375 C 234.9062957763672 390.6277770996094 234.68687438964844 383.6910705566406 233.38818359375 376.2680358886719 C 221.9092559814453 375.46759033203125 210.66102600097656 374.2569274902344 200.35389709472656 371.17352294921875" stroke-width="0.0" fill="rgb(194, 177, 139)" opacity="1.0005057" stroke="rgb(0, 0, 0)" stroke-opacity="1.0" stroke-linecap="round" stroke-linejoin="round"/>
    <path d="M 242.9669189453125 354.70709228515625 C 241.33734130859375 360.55718994140625 239.38470458984375 368.9874572753906 239.42974853515625 376.3574523925781 C 243.68174743652344 376.8296203613281 250.642822265625 377.799072265625 261.6710510253906 379.3177185058594 C 260.7174987792969 373.3294677734375 260.65985107421875 366.46124267578125 262.91998291015625 359.63848876953125 C 258.0203857421875 354.8392333984375 249.7144012451172 356.6321716308594 242.9669189453125 354.70709228515625" stroke-width="0.0" fill="rgb(192, 176, 139)" opacity="1.0007162" stroke="rgb(0, 0, 0)" stroke-opacity="1.0" stroke-linecap="round" stroke-linejoin="round"/>
    <path d="M 182.13172912597656 368.5388488769531 C 178.3588104248047 372.984130859375 175.74118041992188 379.2890319824219 171.52682495117188 385.63177490234375 C 176.88970947265625 389.17999267578125 184.01783752441406 389.58807373046875 193.46107482910156 390.8628845214844 C 196.04458618164062 386.7967529296875 196.51919555664062 379.2544250488281 198.77285766601562 372.35992431640625 C 194.0152587890625 369.6058654785156 187.68478393554688 369.0167236328125 182.13172912597656 368.5388488769531" stroke-width="0.0" fill="rgb(191, 176, 140)" opacity="1.0015594" stroke="rgb(0, 0, 0)" stroke-opacity="1.0" stroke-linecap="round" stroke-linejoin="round"/>
    <path d="M 237.82020568847656 378.25408935546875 C 237.72329711914062 384.4917297363281 234.8134765625 394.64398193359375 237.1664581298828 396.5845947265625 C 247.89425659179688 399.4202575683594 254.3490753173828 398.25311279296875 257.5899963378906 394.14215087890625 C 262.2773132324219 395.2300109863281 259.6863708496094 387.64959716796875 259.924560546875 382.1215515136719 C 252.63278198242188 381.4939270019531 245.748046875 379.0581970214844 237.82020568847656 378.25408935546875" stroke-width="0.0" fill="rgb(190, 172, 135)" opacity="1.0001512" stroke="rgb(0, 0, 0)" stroke-opacity="1.0" stroke-linecap="round" stroke-linejoin="round"/>
    <path d="M 247.37823486328125 330.7618713378906 C 245.7585906982422 336.23590087890625 244.21527099609375 343.83624267578125 243.52149963378906 352.54296875 C 248.21401977539062 353.1241149902344 253.35012817382812 355.4483642578125 262.36383056640625 353.4859924316406 C 262.55517578125 348.54827880859375 261.32666015625 339.9366455078125 263.2822265625 332.5131530761719 C 258.21630859375 331.9771423339844 251.73892211914062 331.2975158691406 247.37823486328125 330.7618713378906" stroke-width="0.0" fill="rgb(189, 175, 139)" opacity="1.000252" stroke="rgb(0, 0, 0)" stroke-opacity="1.0" stroke-linecap="round" stroke-linejoin="round"/>
    <path d="M 4.5406317710876465 254.35870361328125 C 3.5602359771728516 262.8482971191406 4.374363899230957 289.213623046875 3.4324374198913574 304.7684020996094 C 8.147897720336914 305.819091796875 15.269244194030762 304.72509765625 27.130836486816406 304.2703552246094 C 25.458515167236328 286.6607666015625 26.169057846069336 269.0369873046875 26.046165466308594 254.9492645263672 C 18.159276962280273 253.63302612304688 12.366848945617676 250.4937286376953 4.5406317710876465 254.35870361328125" stroke-width="0.0" fill="rgb(32, 31, 30)" opacity="0.98259133" stroke="rgb(0, 0, 0)" stroke-opacity="1.0" stroke-linecap="round" stroke-linejoin="round"/>
    <path d="M 319.78973388671875 298.2926330566406 C 314.5133361816406 289.9237976074219 310.1140441894531 286.0235290527344 310.1800842285156 282.3106384277344 C 296.2747802734375 289.49176025390625 282.3382263183594 288.0888977050781 269.88970947265625 286.10589599609375 C 269.3190612792969 292.06292724609375 265.81219482421875 293.7548828125 269.4491271972656 303.5663146972656 C 262.8362121582031 304.8099060058594 270.4169616699219 304.1953430175781 281.62615966796875 303.91510009765625 C 296.4466857910156 301.9770812988281 310.2840576171875 301.1871032714844 319.78973388671875 298.2926330566406" stroke-width="0.0" fill="rgb(195, 175, 138)" opacity="1.0000429" stroke="rgb(0, 0, 0)" stroke-opacity="1.0" stroke-linecap="round" stroke-linejoin="round"/>
    <path d="M 231.77699279785156 283.58343505859375 C 228.92971801757812 288.11920166015625 229.5956573486328 288.2799072265625 230.24671936035156 287.6777648925781 C 241.0096435546875 287.9483642578125 250.46072387695312 292.8294372558594 246.90213012695312 286.4280090332031 C 250.26498413085938 280.95599365234375 239.3834686279297 283.2695617675781 231.77699279785156 283.58343505859375" stroke-width="0.0" fill="rgb(131, 104, 74)" opacity="1.0013607" stroke="rgb(0, 0, 0)" stroke-opacity="1.0" stroke-linecap="round" stroke-linejoin="round"/>
    <path d="M 312.6148986816406 283.25457763671875 C 302.0744323730469 279.45599365234375 284.6172790527344 281.0807189941406 268.1827697753906 281.0248107910156 C 269.3347473144531 286.8451232910156 270.5210266113281 288.0730285644531 270.0262451171875 286.23382568359375 C 285.5933837890625 287.96124267578125 300.7850646972656 289.8426208496094 312.6148986816406 283.25457763671875" stroke-width="0.0" fill="rgb(160, 128, 80)" opacity="1.0046751" stroke="rgb(0, 0, 0)" stroke-opacity="1.0" stroke-linecap="round" stroke-linejoin="round"/>
    <path d="M 355.3666687011719 303.7489318847656 C 358.0126037597656 307.4276123046875 355.744384765625 310.0556335449219 354.8596496582031 307.5149841308594 C 328.3027038574219 309.46844482421875 295.04071044921875 314.4528503417969 261.0466003417969 307.0765075683594 C 288.3713684082031 305.3325500488281 324.2601013183594 309.8450927734375 355.3666687011719 303.7489318847656" stroke-width="0.0" fill="rgb(158, 89, 53)" opacity="0.98339033" stroke="rgb(0, 0, 0)" stroke-opacity="1.0" stroke-linecap="round" stroke-linejoin="round"/>
    <path d="M 203.74749755859375 420.8236999511719 C 203.7383270263672 425.5302429199219 205.7530059814453 428.1348571777344 208.7126922607422 429.6242980957031 C 214.3596954345703 430.6921691894531 221.21505737304688 430.1357116699219 227.57826232910156 429.210205078125 C 222.21058654785156 425.3981628417969 222.80406188964844 421.0419006347656 225.15509033203125 419.7657775878906 C 213.5503692626953 418.6907958984375 207.05801391601562 415.6932678222656 203.74749755859375 420.8236999511719" stroke-width="0.0" fill="rgb(199, 164, 75)" opacity="0.99557793" stroke="rgb(0, 0, 0)" stroke-opacity="1.0" stroke-linecap="round" stroke-linejoin="round"/>
    <path d="M 222.8672332763672 418.8293151855469 C 219.23959350585938 423.0590515136719 225.48623657226562 423.57012939453125 224.8246612548828 428.770751953125 C 227.3092041015625 428.4726867675781 234.38671875 431.3790588378906 237.33145141601562 425.8374328613281 C 234.60794067382812 421.75299072265625 229.36962890625 419.49591064453125 222.8672332763672 418.8293151855469" stroke-width="0.0" fill="rgb(198, 163, 71)" opacity="0.99843377" stroke="rgb(0, 0, 0)" stroke-opacity="1.0" stroke-linecap="round" stroke-linejoin="round"/>
    <path d="M 463.9714050292969 264.70953369140625 C 463.0354309082031 269.8896789550781 467.76171875 267.9748840332031 478.8743896484375 268.5415954589844 C 479.6968078613281 266.0332946777344 478.93524169921875 262.296875 477.94384765625 260.1710510253906 C 470.7536315917969 262.3266296386719 463.6783447265625 259.05035400390625 463.9714050292969 264.70953369140625" stroke-width="0.0" fill="rgb(147, 131, 105)" opacity="1.0001398" stroke="rgb(0, 0, 0)" stroke-opacity="1.0" stroke-linecap="round" stroke-linejoin="round"/>
    <path d="M 97.06310272216797 305.2284851074219 C 89.62644958496094 306.4045104980469 89.58817291259766 312.8983154296875 90.50473022460938 322.4470520019531 C 92.05269622802734 322.3262939453125 95.53842163085938 321.39984130859375 97.48304748535156 320.4352111816406 C 96.27129364013672 316.318603515625 97.5057373046875 308.7433776855469 97.06310272216797 305.2284851074219" stroke-width="0.0" fill="rgb(169, 146, 116)" opacity="1.0003074" stroke="rgb(0, 0, 0)" stroke-opacity="1.0" stroke-linecap="round" stroke-linejoin="round"/>
    <path d="M 242.68789672851562 259.44317626953125 C 243.9219512939453 260.680908203125 245.48968505859375 264.0848388671875 244.9454345703125 264.3512878417969 C 242.99716186523438 270.55877685546875 245.49420166015625 280.43084716796875 242.32186889648438 282.13922119140625 C 238.90457153320312 276.0647888183594 241.29978942871094 265.34747314453125 242.68789672851562 259.44317626953125" stroke-width="0.0" fill="rgb(148, 152, 138)" opacity="1.000201" stroke="rgb(0, 0, 0)" stroke-opacity="1.0" stroke-linecap="round" stroke-linejoin="round"/>
    <path d="M 395.5726318359375 282.6114501953125 C 395.5918273925781 283.503173828125 392.85528564453125 283.8762512207031 393.6272888183594 285.2422790527344 C 391.7372131347656 288.56072998046875 398.93206787109375 288.8070068359375 397.6697998046875 287.72869873046875 C 396.7497863769531 285.8386535644531 398.1325378417969 281.78033447265625 395.5726318359375 282.6114501953125" stroke-width="0.0" fill="rgb(184, 161, 122)" opacity="0.99984133" stroke="rgb(0, 0, 0)" stroke-opacity="1.0" stroke-linecap="round" stroke-linejoin="round"/>
    <path d="M 98.97237396240234 286.74072265625 C 91.95922088623047 286.76031494140625 93.11178588867188 290.11517333984375 96.20902252197266 286.5367126464844 C 94.73674774169922 287.30340576171875 95.7866439819336 290.83343505859375 98.4614028930664 293.6354675292969 C 98.3760757446289 289.9910888671875 97.02615356445312 284.70037841796875 98.97237396240234 286.74072265625" stroke-width="0.0" fill="rgb(138, 111, 66)" opacity="0.9994763" stroke="rgb(0, 0, 0)" stroke-opacity="1.0" stroke-linecap="round" stroke-linejoin="round"/>
    <path d="M 9.204110145568848 253.49462890625 C 16.897106170654297 251.7445526123047 17.993011474609375 255.7144317626953 15.67579460144043 257.641357421875 C 16.694082260131836 269.2367248535156 20.53385353088379 283.31451416015625 19.09798240661621 301.5573425292969 C 10.908353805541992 288.184326171875 11.75294303894043 269.1785583496094 9.204110145568848 253.49462890625" stroke-width="0.0" fill="rgb(93, 87, 75)" opacity="1.0121163" stroke="rgb(0, 0, 0)" stroke-opacity="1.0" stroke-linecap="round" stroke-linejoin="round"/>
    <path d="M 5.444904327392578 261.9400939941406 C 1.8968875408172607 279.0389404296875 6.714200973510742 290.8626708984375 7.941232204437256 304.52490234375 C 16.48695945739746 300.73687744140625 17.914871215820312 302.64849853515625 18.844331741333008 300.49700927734375 C 13.43366527557373 284.4915466308594 9.915377616882324 273.5393371582031 5.444904327392578 261.9400939941406" stroke-width="0.0" fill="rgb(60, 57, 52)" opacity="1.0011326" stroke="rgb(0, 0, 0)" stroke-opacity="1.0" stroke-linecap="round" stroke-linejoin="round"/>
    <path d="M 4.392796516418457 218.1941680908203 C 3.437474250793457 221.31382751464844 3.7890899181365967 226.63287353515625 4.020886421203613 230.22012329101562 C 10.877496719360352 229.63963317871094 20.25335121154785 230.08868408203125 25.705419540405273 229.26905822753906 C 26.2548828125 223.03411865234375 27.178075790405273 221.51223754882812 23.77304458618164 218.33953857421875 C 18.254005432128906 218.78399658203125 8.478231430053711 219.5380401611328 4.392796516418457 218.1941680908203" stroke-width="0.0" fill="rgb(4, 6, 7)" opacity="0.99502796" stroke="rgb(0, 0, 0)" stroke-opacity="1.0" stroke-linecap="round" stroke-linejoin="round"/>
  </g>
</svg>
