<?xml version="1.0" ?>
<svg xmlns="http://www.w3.org/2000/svg" version="1.1" width="512" height="512">
  <defs/>
  <g>
    <path d="M -5.9956464767456055 -6.239633560180664 C -6.011681079864502 169.4666748046875 -6.209352970123291 339.7110595703125 -6.407182693481445 519.0753784179688 C 170.3323974609375 519.1329956054688 340.6658935546875 519.19873046875 518.187255859375 519.2011108398438 C 518.4846801757812 341.1186828613281 518.5819091796875 170.49664306640625 518.4354248046875 -6.310210704803467 C 340.7909851074219 -6.31221866607666 170.4149169921875 -6.333986282348633 -5.9956464767456055 -6.239633560180664" stroke-width="0.0" fill="rgb(155, 159, 143)" opacity="1.0061233" stroke="rgb(0, 0, 0)" stroke-opacity="1.0" stroke-linecap="round" stroke-linejoin="round"/>
    <path d="M 159.1793212890625 407.4643249511719 C 154.44615173339844 442.7308044433594 166.98318481445312 469.52880859375 168.63201904296875 509.06640625 C 279.5373840332031 509.4909362792969 394.0042419433594 514.58251953125 518.1849975585938 521.1443481445312 C 518.4830932617188 436.4141845703125 518.539306640625 361.239501953125 519.4210205078125 281.1189270019531 C 461.0652770996094 284.48724365234375 409.13330078125 284.75177001953125 349.6271057128906 283.9283142089844 C 376.01611328125 315.37841796875 394.49249267578125 346.6662292480469 423.8065185546875 368.1378479003906 C 414.7291259765625 376.6239318847656 410.8726501464844 362.18499755859375 402.1259460449219 365.177978515625 C 398.0196228027344 378.93304443359375 390.7531433105469 381.2332763671875 387.5079040527344 379.7755432128906 C 364.58837890625 344.32452392578125 336.4456787109375 314.9638671875 310.3213195800781 282.651611328125 C 281.82012939453125 284.09295654296875 255.03973388671875 286.8001708984375 230.72137451171875 281.9967346191406 C 210.23446655273438 325.82769775390625 181.53823852539062 361.3162841796875 159.1793212890625 407.4643249511719" stroke-width="0.0" fill="rgb(195, 173, 134)" opacity="0.99776614" stroke="rgb(0, 0, 0)" stroke-opacity="1.0" stroke-linecap="round" stroke-linejoin="round"/>
    <path d="M 227.61199951171875 284.8561096191406 C 167.17063903808594 283.64013671875 107.4039535522461 287.5052185058594 46.863277435302734 285.7936096191406 C 46.04548645019531 291.52838134765625 46.32191467285156 299.50799560546875 44.964996337890625 304.58929443359375 C 29.983915328979492 306.3543395996094 14.510525703430176 305.38165283203125 -5.910506248474121 308.07794189453125 C -5.885589122772217 374.5958557128906 -5.861020565032959 442.1502380371094 -5.398063659667969 511.4376525878906 C 57.24053955078125 510.1328430175781 116.96096801757812 510.38433837890625 167.48045349121094 509.0559997558594 C 171.01622009277344 496.8934020996094 164.57040405273438 495.5491027832031 163.99215698242188 487.780517578125 C 161.18345642089844 488.4775390625 157.10232543945312 485.2398681640625 155.7512664794922 486.5653381347656 C 155.90243530273438 481.7794189453125 157.28538513183594 476.4299011230469 154.70347595214844 475.47113037109375 C 156.82379150390625 476.44342041015625 160.2775115966797 471.9718322753906 162.19790649414062 474.5140075683594 C 159.65457153320312 444.7330627441406 158.59844970703125 420.4107666015625 159.8992919921875 401.74560546875 C 180.9062042236328 361.786376953125 206.5391845703125 327.22918701171875 227.61199951171875 284.8561096191406" stroke-width="0.0" fill="rgb(194, 175, 136)" opacity="0.99997383" stroke="rgb(0, 0, 0)" stroke-opacity="1.0" stroke-linecap="round" stroke-linejoin="round"/>
    <path d="M 254.25863647460938 181.53427124023438 C 249.5829315185547 195.72535705566406 248.23788452148438 215.10813903808594 245.34715270996094 234.06405639648438 C 258.490966796875 240.3872833251953 275.3809814453125 233.9850616455078 281.4325866699219 248.7126007080078 C 318.6490783691406 287.0328063964844 350.070068359375 331.8842468261719 386.60565185546875 369.2986145019531 C 377.9019470214844 358.2364196777344 398.0431213378906 365.61224365234375 406.9925537109375 359.14990234375 C 374.7142028808594 316.9932556152344 342.3581848144531 276.9128112792969 312.2236328125 236.49049377441406 C 315.3313903808594 217.2567596435547 322.9095458984375 203.40977478027344 324.1962890625 183.7100067138672 C 307.6087341308594 179.0670623779297 277.2881774902344 180.46182250976562 254.25863647460938 181.53427124023438" stroke-width="0.0" fill="rgb(109, 54, 37)" opacity="1.1144058" stroke="rgb(0, 0, 0)" stroke-opacity="1.0" stroke-linecap="round" stroke-linejoin="round"/>
    <path d="M -6.242991924285889 205.11740112304688 C -5.712093353271484 237.41270446777344 -5.069553375244141 271.0728759765625 -6.078497886657715 306.13232421875 C 13.81485652923584 304.319091796875 29.856069564819336 306.1966247558594 44.836181640625 303.21856689453125 C 46.008758544921875 275.860595703125 43.2640380859375 243.11073303222656 44.60708999633789 205.72305297851562 C 33.260963439941406 202.80511474609375 16.97826385498047 205.20071411132812 -6.242991924285889 205.11740112304688" stroke-width="0.0" fill="rgb(27, 35, 44)" opacity="1.0563539" stroke="rgb(0, 0, 0)" stroke-opacity="1.0" stroke-linecap="round" stroke-linejoin="round"/>
    <path d="M 397.60748291015625 361.9165344238281 C 389.01446533203125 357.66583251953125 388.96636962890625 359.56024169921875 382.0649719238281 364.0382995605469 C 379.7545471191406 365.22406005859375 381.0224304199219 375.1016540527344 382.9316711425781 377.5848388671875 C 390.72406005859375 380.6568603515625 391.7686462402344 377.10321044921875 395.529541015625 375.3847351074219 C 398.40911865234375 370.685546875 398.94024658203125 367.73663330078125 397.60748291015625 361.9165344238281" stroke-width="0.0" fill="rgb(140, 103, 68)" opacity="0.9870498" stroke="rgb(0, 0, 0)" stroke-opacity="1.0" stroke-linecap="round" stroke-linejoin="round"/>
    <path d="M 240.9445343017578 239.15391540527344 C 241.40045166015625 255.04176330566406 234.7454376220703 267.8003845214844 229.31549072265625 281.9934387207031 C 241.1235809326172 286.4702453613281 255.79527282714844 284.23651123046875 266.7239685058594 284.0828857421875 C 268.751220703125 272.79901123046875 271.9330749511719 258.03936767578125 273.70977783203125 241.77359008789062 C 270.0820007324219 237.7534942626953 252.80931091308594 238.44200134277344 240.9445343017578 239.15391540527344" stroke-width="0.0" fill="rgb(113, 107, 102)" opacity="1.0320917" stroke="rgb(0, 0, 0)" stroke-opacity="1.0" stroke-linecap="round" stroke-linejoin="round"/>
    <path d="M 243.4973907470703 205.23883056640625 C 237.21234130859375 195.16090393066406 231.3759765625 201.16490173339844 231.9553985595703 207.1509246826172 C 225.1106719970703 239.52687072753906 218.38600158691406 272.6598205566406 213.7191925048828 305.82086181640625 C 226.99375915527344 288.1959228515625 235.35191345214844 269.2543640136719 241.0567626953125 249.64199829101562 C 240.49005126953125 230.65167236328125 244.85255432128906 211.8109893798828 243.4973907470703 205.23883056640625" stroke-width="0.0" fill="rgb(130, 141, 130)" opacity="0.9836441" stroke="rgb(0, 0, 0)" stroke-opacity="1.0" stroke-linecap="round" stroke-linejoin="round"/>
    <path d="M 275.5641174316406 239.03363037109375 C 272.7688293457031 253.5565643310547 271.62164306640625 267.1709899902344 266.7984924316406 280.9888000488281 C 279.4339904785156 281.9510192871094 293.67181396484375 282.4825439453125 310.7796630859375 282.16802978515625 C 296.1189880371094 268.063232421875 286.4412841796875 253.59954833984375 275.5641174316406 239.03363037109375" stroke-width="0.0" fill="rgb(138, 138, 123)" opacity="0.99382806" stroke="rgb(0, 0, 0)" stroke-opacity="1.0" stroke-linecap="round" stroke-linejoin="round"/>
    <path d="M 486.9664306640625 276.97296142578125 C 483.2973937988281 272.56036376953125 479.1878662109375 268.7987060546875 476.2444152832031 264.00274658203125 C 472.8268737792969 264.146240234375 467.554443359375 263.50555419921875 467.9803771972656 263.4003601074219 C 452.52099609375 268.38519287109375 452.1406555175781 279.022216796875 434.08990478515625 281.9565124511719 C 452.9414978027344 285.63812255859375 467.8730773925781 284.7669677734375 483.9288330078125 284.7852783203125 C 487.35546875 282.8614807128906 488.10198974609375 286.12933349609375 486.9664306640625 276.97296142578125" stroke-width="0.0" fill="rgb(134, 109, 74)" opacity="0.9889643" stroke="rgb(0, 0, 0)" stroke-opacity="1.0" stroke-linecap="round" stroke-linejoin="round"/>
    <path d="M -19.279504776000977 197.2665557861328 C -2.655111074447632 208.7539825439453 20.861371994018555 201.08363342285156 41.90242385864258 207.1357879638672 C 45.07059860229492 209.6562957763672 58.14185333251953 208.80618286132812 58.4399299621582 200.94052124023438 C 40.378623962402344 200.16175842285156 19.78215789794922 194.97048950195312 -19.279504776000977 197.2665557861328" stroke-width="0.0" fill="rgb(160, 148, 120)" opacity="0.95766544" stroke="rgb(0, 0, 0)" stroke-opacity="1.0" stroke-linecap="round" stroke-linejoin="round"/>
    <path d="M 350.6404113769531 281.440673828125 C 349.7486267089844 281.6202087402344 350.706787109375 287.2296447753906 350.0728759765625 285.9210510253906 C 381.6789245605469 286.6033020019531 418.5778503417969 290.6424255371094 446.75177001953125 282.3786926269531 C 413.14141845703125 278.8357849121094 382.392822265625 279.0363464355469 350.6404113769531 281.440673828125" stroke-width="0.0" fill="rgb(157, 138, 106)" opacity="0.9889606" stroke="rgb(0, 0, 0)" stroke-opacity="1.0" stroke-linecap="round" stroke-linejoin="round"/>
    <path d="M 327.2462463378906 -8.13322639465332 C 319.4212646484375 7.823220252990723 321.3705749511719 16.32676887512207 320.9425354003906 24.099292755126953 C 326.17718505859375 32.820831298828125 327.2654113769531 45.60515213012695 336.5544128417969 53.57362747192383 C 349.2872314453125 52.70891189575195 352.8788146972656 62.407630920410156 368.7666320800781 65.80887603759766 C 388.18365478515625 68.78365325927734 386.7110595703125 68.96675872802734 401.28265380859375 65.80332946777344 C 411.50042724609375 67.77352142333984 420.8345642089844 72.19690704345703 426.98175048828125 75.82369995117188 C 442.12261962890625 78.21369934082031 442.85687255859375 89.31034851074219 452.0634765625 96.05197143554688 C 463.00537109375 100.1755142211914 479.2947998046875 100.01783752441406 486.5040283203125 105.01332092285156 C 500.69390869140625 113.05115509033203 495.98431396484375 130.92466735839844 519.8843994140625 132.83872985839844 C 520.9806518554688 91.60513305664062 520.5287475585938 39.71382522583008 519.0806274414062 -9.369990348815918 C 439.2523193359375 -10.070343017578125 374.5304260253906 -10.135764122009277 327.2462463378906 -8.13322639465332" stroke-width="0.0" fill="rgb(148, 155, 144)" opacity="0.9984053" stroke="rgb(0, 0, 0)" stroke-opacity="1.0" stroke-linecap="round" stroke-linejoin="round"/>
    <path d="M 205.22926330566406 12.73099136352539 C 206.1804962158203 20.186574935913086 212.02711486816406 23.3735408782959 216.6059112548828 29.500751495361328 C 228.64688110351562 31.30182647705078 234.45411682128906 38.94230270385742 239.81939697265625 30.638904571533203 C 244.2742462158203 18.105039596557617 229.5476837158203 25.60840606689453 227.31640625 13.313223838806152 C 216.57041931152344 10.266973495483398 207.0633087158203 8.37999439239502 205.22926330566406 12.73099136352539" stroke-width="0.0" fill="rgb(177, 174, 150)" opacity="1.0006148" stroke="rgb(0, 0, 0)" stroke-opacity="1.0" stroke-linecap="round" stroke-linejoin="round"/>
    <path d="M 226.5305938720703 -2.693647623062134 C 219.4900360107422 17.659500122070312 229.9151153564453 4.141726970672607 243.3310546875 17.496816635131836 C 243.53103637695312 15.134391784667969 244.39602661132812 10.069145202636719 243.95169067382812 6.43353796005249 C 252.21397399902344 4.515158653259277 248.3650360107422 11.906359672546387 251.90599060058594 11.405482292175293 C 258.26605224609375 5.105287075042725 265.649658203125 0.4607314467430115 271.0120544433594 6.287614822387695 C 254.5017852783203 3.0474207401275635 240.21656799316406 -2.990523099899292 226.5305938720703 -2.693647623062134" stroke-width="0.0" fill="rgb(157, 164, 150)" opacity="1.0004162" stroke="rgb(0, 0, 0)" stroke-opacity="1.0" stroke-linecap="round" stroke-linejoin="round"/>
    <path d="M 186.10073852539062 234.08242797851562 C 190.5216064453125 228.86770629882812 189.6018829345703 233.8201141357422 191.74806213378906 233.6065216064453 C 191.54757690429688 252.48062133789062 193.6945037841797 276.60760498046875 189.56027221679688 285.9491271972656 C 184.6998291015625 273.5610656738281 190.96356201171875 245.10484313964844 186.10073852539062 234.08242797851562" stroke-width="0.0" fill="rgb(149, 153, 136)" opacity="1.0002027" stroke="rgb(0, 0, 0)" stroke-opacity="1.0" stroke-linecap="round" stroke-linejoin="round"/>
    <path d="M 414.6274108886719 121.22864532470703 C 415.0120849609375 126.97409057617188 413.8656311035156 144.35340881347656 416.5625305175781 144.4538116455078 C 426.4383850097656 145.77613830566406 424.1536560058594 140.6655731201172 425.2305603027344 128.3912811279297 C 421.66888427734375 125.45932006835938 421.45965576171875 120.75757598876953 414.6274108886719 121.22864532470703" stroke-width="0.0" fill="rgb(154, 157, 140)" opacity="1.000084" stroke="rgb(0, 0, 0)" stroke-opacity="1.0" stroke-linecap="round" stroke-linejoin="round"/>
    <path d="M 486.7964782714844 283.47003173828125 C 487.44354248046875 289.04412841796875 497.9001770019531 285.852294921875 509.66314697265625 286.8843078613281 C 519.334228515625 288.40716552734375 519.558837890625 278.8782653808594 519.3329467773438 280.7745361328125 C 503.40435791015625 278.9277648925781 488.480712890625 277.6693420410156 486.7964782714844 283.47003173828125" stroke-width="0.0" fill="rgb(135, 134, 117)" opacity="0.9925435" stroke="rgb(0, 0, 0)" stroke-opacity="1.0" stroke-linecap="round" stroke-linejoin="round"/>
    <path d="M 272.8427734375 237.9005126953125 C 311.9225769042969 277.21173095703125 342.7817687988281 324.855224609375 383.6203918457031 366.77203369140625 C 388.3616638183594 353.55413818359375 399.61651611328125 365.8798522949219 406.0342712402344 358.05938720703125 C 374.81097412109375 314.88629150390625 340.913818359375 276.406005859375 310.3642272949219 234.50186157226562 C 286.3599853515625 231.87928771972656 282.5894775390625 231.5034942626953 272.8427734375 237.9005126953125" stroke-width="0.0" fill="rgb(151, 81, 19)" opacity="1.0062604" stroke="rgb(0, 0, 0)" stroke-opacity="1.0" stroke-linecap="round" stroke-linejoin="round"/>
    <path d="M 254.3487548828125 180.56100463867188 C 249.37344360351562 194.59645080566406 248.48980712890625 213.02439880371094 247.20616149902344 232.2935333251953 C 263.70184326171875 232.9474334716797 295.0395202636719 230.97012329101562 312.4181823730469 233.23326110839844 C 315.5691833496094 216.9982452392578 321.7099609375 202.3192138671875 323.2896728515625 183.97926330566406 C 307.5306091308594 178.12417602539062 277.9437561035156 181.82174682617188 254.3487548828125 180.56100463867188" stroke-width="0.0" fill="rgb(109, 74, 62)" opacity="0.89231664" stroke="rgb(0, 0, 0)" stroke-opacity="1.0" stroke-linecap="round" stroke-linejoin="round"/>
    <path d="M 273.76055908203125 242.17762756347656 C 256.49609375 241.41847229003906 237.9312286376953 243.75881958007812 243.41477966308594 244.68768310546875 C 228.94044494628906 301.29608154296875 192.4386749267578 338.6357116699219 168.97308349609375 392.32257080078125 C 205.4678192138672 391.88555908203125 228.65313720703125 403.6468200683594 263.0260009765625 403.99053955078125 C 268.5214538574219 350.3045959472656 263.0368347167969 290.37310791015625 273.76055908203125 242.17762756347656" stroke-width="0.0" fill="rgb(155, 154, 135)" opacity="0.7748213" stroke="rgb(0, 0, 0)" stroke-opacity="1.0" stroke-linecap="round" stroke-linejoin="round"/>
    <path d="M 2.100928544998169 221.28018188476562 C 6.339783191680908 255.74124145507812 -2.280975580215454 274.4781188964844 -10.737823486328125 306.2563781738281 C 8.492166519165039 307.132568359375 15.379817962646484 305.0786437988281 26.41179656982422 304.420166015625 C 25.081836700439453 274.5887756347656 27.783748626708984 248.50604248046875 25.026565551757812 224.8698272705078 C 25.26087188720703 217.7587127685547 14.343010902404785 221.67324829101562 2.100928544998169 221.28018188476562" stroke-width="0.0" fill="rgb(22, 35, 45)" opacity="1.0102341" stroke="rgb(0, 0, 0)" stroke-opacity="1.0" stroke-linecap="round" stroke-linejoin="round"/>
    <path d="M 267.8563537597656 284.4147033691406 C 269.9165954589844 292.8280944824219 267.7753601074219 300.2684326171875 268.1163330078125 307.500244140625 C 291.0249328613281 303.1266784667969 311.9698181152344 306.5976867675781 326.7082824707031 309.3089294433594 C 319.2469177246094 291.51519775390625 313.7962951660156 286.1712341308594 305.5410461425781 283.0076599121094 C 293.175537109375 282.8595275878906 280.20355224609375 284.10906982421875 267.8563537597656 284.4147033691406" stroke-width="0.0" fill="rgb(180, 148, 115)" opacity="1.0018839" stroke="rgb(0, 0, 0)" stroke-opacity="1.0" stroke-linecap="round" stroke-linejoin="round"/>
    <path d="M 330.38153076171875 300.8302001953125 C 327.71343994140625 310.8743896484375 327.87677001953125 311.694580078125 332.78533935546875 306.34588623046875 C 307.84649658203125 312.0702819824219 282.2413635253906 310.3997802734375 258.62640380859375 307.6546936035156 C 298.154296875 304.21051025390625 319.7574768066406 303.4374084472656 330.38153076171875 300.8302001953125" stroke-width="0.0" fill="rgb(155, 101, 71)" opacity="0.9849373" stroke="rgb(0, 0, 0)" stroke-opacity="1.0" stroke-linecap="round" stroke-linejoin="round"/>
    <path d="M 87.48982238769531 306.65826416015625 C 86.33891296386719 307.4502868652344 86.99943542480469 312.5174560546875 87.69969177246094 321.992431640625 C 94.73983764648438 322.34881591796875 98.65258026123047 322.6387023925781 101.32168579101562 321.0257568359375 C 103.89297485351562 320.58514404296875 103.2911148071289 313.970947265625 103.21593475341797 309.7965087890625 C 99.76811218261719 305.6842346191406 96.9133071899414 304.99176025390625 87.48982238769531 306.65826416015625" stroke-width="0.0" fill="rgb(171, 147, 119)" opacity="0.9970354" stroke="rgb(0, 0, 0)" stroke-opacity="1.0" stroke-linecap="round" stroke-linejoin="round"/>
    <path d="M 397.44091796875 363.2095642089844 C 397.2707214355469 361.7647705078125 390.5534362792969 360.33984375 386.6069030761719 363.139892578125 C 386.38385009765625 364.8641052246094 384.0788879394531 371.25115966796875 383.1269226074219 375.0063781738281 C 386.30755615234375 377.5814514160156 392.30474853515625 375.1022644042969 399.4462585449219 373.29229736328125 C 399.5066223144531 370.0946960449219 398.6329650878906 367.5861511230469 397.44091796875 363.2095642089844" stroke-width="0.0" fill="rgb(182, 153, 112)" opacity="1.0005395" stroke="rgb(0, 0, 0)" stroke-opacity="1.0" stroke-linecap="round" stroke-linejoin="round"/>
    <path d="M 445.20013427734375 278.09759521484375 C 439.333251953125 281.07769775390625 440.50738525390625 281.0008239746094 441.8813171386719 281.7986755371094 C 443.9231872558594 285.5096740722656 452.0665283203125 287.5230407714844 462.7115783691406 282.0135803222656 C 459.9600524902344 276.0834045410156 454.364013671875 277.04620361328125 445.20013427734375 278.09759521484375" stroke-width="0.0" fill="rgb(67, 42, 28)" opacity="0.9907841" stroke="rgb(0, 0, 0)" stroke-opacity="1.0" stroke-linecap="round" stroke-linejoin="round"/>
    <path d="M 84.28462219238281 287.9458312988281 C 83.43963623046875 289.9216003417969 84.6344985961914 294.4742736816406 83.81402587890625 296.71710205078125 C 86.19116973876953 295.3810729980469 89.99600219726562 296.2889404296875 93.12301635742188 295.6419982910156 C 92.72247314453125 287.189453125 92.3049545288086 284.96624755859375 84.28462219238281 287.9458312988281" stroke-width="0.0" fill="rgb(169, 63, 36)" opacity="1.009594" stroke="rgb(0, 0, 0)" stroke-opacity="1.0" stroke-linecap="round" stroke-linejoin="round"/>
    <path d="M 207.4730224609375 417.4858703613281 C 201.71873474121094 426.5877685546875 207.3746337890625 427.62432861328125 215.8923797607422 430.4664611816406 C 223.9466552734375 429.2613220214844 238.21377563476562 430.899169921875 237.27587890625 423.6726989746094 C 231.75758361816406 418.65264892578125 218.52127075195312 418.1642150878906 207.4730224609375 417.4858703613281" stroke-width="0.0" fill="rgb(198, 165, 82)" opacity="0.99040335" stroke="rgb(0, 0, 0)" stroke-opacity="1.0" stroke-linecap="round" stroke-linejoin="round"/>
    <path d="M 371.339111328125 370.8261413574219 C 359.2412109375 373.2682189941406 347.87152099609375 372.93719482421875 340.9242858886719 380.5196838378906 C 345.7772521972656 382.62158203125 360.3935546875 383.80078125 365.9520568847656 383.4503479003906 C 370.8387145996094 378.74560546875 382.3968505859375 379.24224853515625 371.339111328125 370.8261413574219" stroke-width="0.0" fill="rgb(132, 102, 68)" opacity="0.99928576" stroke="rgb(0, 0, 0)" stroke-opacity="1.0" stroke-linecap="round" stroke-linejoin="round"/>
    <path d="M 118.04287719726562 288.3613586425781 C 109.39999389648438 288.9036865234375 107.52686309814453 287.54351806640625 106.34222412109375 294.9733581542969 C 105.80917358398438 297.8956298828125 113.28585815429688 296.6327819824219 120.26581573486328 296.9686584472656 C 119.24776458740234 299.23504638671875 121.6211929321289 287.67144775390625 118.04287719726562 288.3613586425781" stroke-width="0.0" fill="rgb(191, 112, 71)" opacity="1.0038426" stroke="rgb(0, 0, 0)" stroke-opacity="1.0" stroke-linecap="round" stroke-linejoin="round"/>
    <path d="M 450.7060241699219 356.52984619140625 C 452.2693176269531 356.9279479980469 451.7817077636719 358.933837890625 455.8728332519531 358.9071350097656 C 443.5866394042969 360.0927734375 426.52008056640625 363.6255187988281 429.8952941894531 357.5838623046875 C 432.7822265625 357.5943298339844 445.5651550292969 358.5162658691406 450.7060241699219 356.52984619140625" stroke-width="0.0" fill="rgb(161, 107, 72)" opacity="1.0014063" stroke="rgb(0, 0, 0)" stroke-opacity="1.0" stroke-linecap="round" stroke-linejoin="round"/>
    <path d="M 3.8428380489349365 204.12930297851562 C 2.482227325439453 205.974365234375 2.1334095001220703 213.90086364746094 3.650911808013916 218.44972229003906 C 8.019716262817383 220.860595703125 20.857759475708008 217.56150817871094 26.446773529052734 220.31509399414062 C 25.383268356323242 247.3170166015625 27.831825256347656 274.5407409667969 26.93134307861328 305.0472412109375 C 32.841461181640625 305.33807373046875 39.513710021972656 306.0049743652344 46.551700592041016 304.006591796875 C 46.1057243347168 270.21429443359375 45.43893051147461 237.5802001953125 44.17637252807617 205.42575073242188 C 31.349149703979492 207.03709411621094 16.137828826904297 205.4571075439453 3.8428380489349365 204.12930297851562" stroke-width="0.0" fill="rgb(31, 73, 90)" opacity="0.9527271" stroke="rgb(0, 0, 0)" stroke-opacity="1.0" stroke-linecap="round" stroke-linejoin="round"/>
    <path d="M 324.08380126953125 3.4706671237945557 C 324.2049255371094 11.728754043579102 323.0134582519531 18.93759536743164 328.51800537109375 19.70930290222168 C 336.611572265625 24.412551879882812 338.7895202636719 30.944326400756836 353.6477355957031 27.18027114868164 C 354.52880859375 15.581575393676758 354.6813659667969 4.5480217933654785 350.633056640625 0.8669379353523254 C 341.1777648925781 -0.4321209490299225 332.9339294433594 3.4616994857788086 324.08380126953125 3.4706671237945557" stroke-width="0.0" fill="rgb(171, 171, 150)" opacity="1.0004345" stroke="rgb(0, 0, 0)" stroke-opacity="1.0" stroke-linecap="round" stroke-linejoin="round"/>
    <path d="M 452.2748718261719 266.7857360839844 C 454.2131652832031 274.23114013671875 457.81085205078125 282.2215881347656 459.9390563964844 285.934814453125 C 471.6317443847656 285.6657409667969 481.63372802734375 287.9087829589844 485.4081726074219 285.69317626953125 C 489.9539489746094 268.979736328125 478.71832275390625 276.06365966796875 478.7041015625 262.56134033203125 C 459.7047119140625 256.58612060546875 469.2014465332031 272.9620666503906 452.2748718261719 266.7857360839844" stroke-width="0.0" fill="rgb(149, 113, 65)" opacity="1.0027297" stroke="rgb(0, 0, 0)" stroke-opacity="1.0" stroke-linecap="round" stroke-linejoin="round"/>
    <path d="M 351.5537414550781 278.7724304199219 C 349.3758850097656 283.19354248046875 351.46728515625 288.676513671875 354.3910217285156 287.1355285644531 C 375.65899658203125 289.2811279296875 399.9828796386719 287.8330078125 422.5238342285156 286.6249694824219 C 418.3770446777344 282.5403137207031 419.3690185546875 279.8459777832031 418.3391418457031 279.0834045410156 C 394.7450256347656 277.9126892089844 373.9385986328125 280.49169921875 351.5537414550781 278.7724304199219" stroke-width="0.0" fill="rgb(160, 138, 101)" opacity="0.9803688" stroke="rgb(0, 0, 0)" stroke-opacity="1.0" stroke-linecap="round" stroke-linejoin="round"/>
    <path d="M 76.04496765136719 306.3375549316406 C 73.50858306884766 307.5359191894531 71.59176635742188 318.1716613769531 74.19852447509766 322.06207275390625 C 76.49982452392578 322.36883544921875 83.50184631347656 321.17669677734375 88.6065902709961 322.6383056640625 C 86.83389282226562 312.5142517089844 87.5726318359375 308.0582580566406 90.13496398925781 306.0664367675781 C 86.9512939453125 305.9178466796875 79.54353332519531 305.5184631347656 76.04496765136719 306.3375549316406" stroke-width="0.0" fill="rgb(198, 179, 143)" opacity="1.0008241" stroke="rgb(0, 0, 0)" stroke-opacity="1.0" stroke-linecap="round" stroke-linejoin="round"/>
    <path d="M 129.4435272216797 284.4093017578125 C 130.3280029296875 285.3808288574219 129.8694305419922 288.14892578125 129.67843627929688 290.99908447265625 C 138.77102661132812 291.0666809082031 147.46719360351562 291.1416320800781 155.59075927734375 290.8486022949219 C 156.7014617919922 284.09637451171875 156.49951171875 283.333740234375 155.25369262695312 282.78057861328125 C 144.2858123779297 281.13690185546875 135.46299743652344 281.05108642578125 129.4435272216797 284.4093017578125" stroke-width="0.0" fill="rgb(154, 127, 83)" opacity="0.99129134" stroke="rgb(0, 0, 0)" stroke-opacity="1.0" stroke-linecap="round" stroke-linejoin="round"/>
    <path d="M 503.7795104980469 288.2122497558594 C 506.9390869140625 286.5832214355469 506.1060791015625 290.1500549316406 506.0895690917969 291.0395202636719 C 508.7595520019531 291.3226013183594 511.5094909667969 306.81591796875 508.95648193359375 306.9744567871094 C 502.2733154296875 309.3063049316406 502.7772521972656 293.47637939453125 503.7795104980469 288.2122497558594" stroke-width="0.0" fill="rgb(183, 171, 138)" opacity="1.0000224" stroke="rgb(0, 0, 0)" stroke-opacity="1.0" stroke-linecap="round" stroke-linejoin="round"/>
    <path d="M 334.8673095703125 387.42156982421875 C 340.4786071777344 389.93896484375 333.6558837890625 392.8004455566406 338.2088623046875 392.8577575683594 C 333.264404296875 394.338623046875 325.0732421875 398.9737854003906 319.0453796386719 403.91925048828125 C 319.0464172363281 393.04583740234375 329.562255859375 393.9596252441406 334.8673095703125 387.42156982421875" stroke-width="0.0" fill="rgb(168, 145, 104)" opacity="0.9992906" stroke="rgb(0, 0, 0)" stroke-opacity="1.0" stroke-linecap="round" stroke-linejoin="round"/>
    <path d="M 53.03759765625 281.6969909667969 C 48.82172393798828 283.9902038574219 50.076786041259766 290.0483093261719 48.596500396728516 287.69366455078125 C 50.28388977050781 295.7603759765625 52.88566589355469 292.6492919921875 58.081878662109375 291.9078369140625 C 58.6082878112793 285.6996765136719 55.00264358520508 284.34112548828125 53.03759765625 281.6969909667969" stroke-width="0.0" fill="rgb(189, 173, 139)" opacity="0.9990505" stroke="rgb(0, 0, 0)" stroke-opacity="1.0" stroke-linecap="round" stroke-linejoin="round"/>
    <path d="M 252.48504638671875 432.9543762207031 C 250.45709228515625 430.26043701171875 253.26953125 438.0376892089844 250.5243377685547 441.7210693359375 C 253.55026245117188 435.8092956542969 258.762939453125 439.4915771484375 264.20721435546875 440.4920654296875 C 264.0166015625 431.30108642578125 262.150390625 433.30029296875 252.48504638671875 432.9543762207031" stroke-width="0.0" fill="rgb(150, 121, 83)" opacity="0.9989741" stroke="rgb(0, 0, 0)" stroke-opacity="1.0" stroke-linecap="round" stroke-linejoin="round"/>
    <path d="M 287.15728759765625 274.8471984863281 C 282.98272705078125 278.0220947265625 286.02105712890625 281.7939758300781 287.2729797363281 281.427734375 C 284.35858154296875 281.4878845214844 290.2923889160156 284.6596984863281 294.78656005859375 280.6909484863281 C 295.4037170410156 274.5988464355469 291.9691467285156 272.66705322265625 287.15728759765625 274.8471984863281" stroke-width="0.0" fill="rgb(170, 156, 131)" opacity="1.0013325" stroke="rgb(0, 0, 0)" stroke-opacity="1.0" stroke-linecap="round" stroke-linejoin="round"/>
    <path d="M 134.32444763183594 418.9857177734375 C 139.1735382080078 419.3448181152344 136.5686492919922 424.25384521484375 138.60629272460938 422.06024169921875 C 136.664794921875 423.78857421875 131.6859893798828 426.08148193359375 127.65552520751953 424.65167236328125 C 128.2103271484375 419.673583984375 132.82757568359375 419.2486572265625 134.32444763183594 418.9857177734375" stroke-width="0.0" fill="rgb(190, 168, 129)" opacity="0.99988914" stroke="rgb(0, 0, 0)" stroke-opacity="1.0" stroke-linecap="round" stroke-linejoin="round"/>
    <path d="M 74.17782592773438 283.9922180175781 C 76.36429595947266 285.09564208984375 74.9229507446289 286.30352783203125 78.57858276367188 285.41949462890625 C 72.72562408447266 286.5619201660156 77.16932678222656 295.9234619140625 72.71975708007812 293.2121276855469 C 73.46897888183594 284.15350341796875 68.98719024658203 286.71142578125 74.17782592773438 283.9922180175781" stroke-width="0.0" fill="rgb(169, 133, 97)" opacity="1.0011475" stroke="rgb(0, 0, 0)" stroke-opacity="1.0" stroke-linecap="round" stroke-linejoin="round"/>
    <path d="M 280.4869384765625 456.2388610839844 C 274.5122985839844 454.2540283203125 275.6847229003906 461.0203857421875 276.1868591308594 461.15673828125 C 275.3627014160156 460.1479187011719 275.3523864746094 460.0218505859375 280.0765686035156 460.4167175292969 C 279.77935791015625 454.69927978515625 281.2858581542969 455.00042724609375 280.4869384765625 456.2388610839844" stroke-width="0.0" fill="rgb(166, 138, 92)" opacity="0.9997847" stroke="rgb(0, 0, 0)" stroke-opacity="1.0" stroke-linecap="round" stroke-linejoin="round"/>
    <path d="M 97.8380355834961 285.10272216796875 C 94.98356628417969 287.0726623535156 95.86656951904297 288.7542724609375 94.80760955810547 285.3823547363281 C 95.59236145019531 289.5247802734375 96.66966247558594 293.8387756347656 98.1498031616211 291.4109802246094 C 100.4979248046875 289.6713562011719 97.92061614990234 286.1366271972656 97.8380355834961 285.10272216796875" stroke-width="0.0" fill="rgb(149, 121, 76)" opacity="0.9981961" stroke="rgb(0, 0, 0)" stroke-opacity="1.0" stroke-linecap="round" stroke-linejoin="round"/>
    <path d="M 254.1407470703125 181.47621154785156 C 249.79542541503906 194.1549530029297 249.51504516601562 212.76988220214844 244.7957763671875 229.15782165527344 C 255.4148406982422 231.40625 267.5384521484375 229.0052032470703 279.7926025390625 228.6914825439453 C 283.22357177734375 214.38046264648438 289.15924072265625 199.00323486328125 292.91302490234375 180.1993865966797 C 281.4981689453125 184.97750854492188 270.38494873046875 178.69264221191406 254.1407470703125 181.47621154785156" stroke-width="0.0" fill="rgb(148, 129, 115)" opacity="1.0018896" stroke="rgb(0, 0, 0)" stroke-opacity="1.0" stroke-linecap="round" stroke-linejoin="round"/>
    <path d="M 293.2893981933594 179.8162078857422 C 289.93231201171875 196.93797302246094 283.9336242675781 211.33958435058594 279.4253234863281 228.37391662597656 C 286.4963684082031 232.49627685546875 299.2744445800781 227.04714965820312 311.1676330566406 233.9829559326172 C 314.6572570800781 217.51292419433594 320.4007873535156 203.23519897460938 324.333251953125 185.93057250976562 C 318.16778564453125 180.98995971679688 304.5342102050781 179.59156799316406 293.2893981933594 179.8162078857422" stroke-width="0.0" fill="rgb(149, 127, 112)" opacity="1.0264915" stroke="rgb(0, 0, 0)" stroke-opacity="1.0" stroke-linecap="round" stroke-linejoin="round"/>
    <path d="M 2.7183401584625244 220.822021484375 C 3.0571043491363525 229.44198608398438 2.143636465072632 245.02613830566406 4.353047847747803 252.0145263671875 C 8.032346725463867 252.53221130371094 18.068283081054688 252.11521911621094 25.17624855041504 252.91787719726562 C 28.118408203125 244.96591186523438 25.106496810913086 233.10418701171875 24.31589126586914 221.2349090576172 C 22.398908615112305 221.16603088378906 8.54144287109375 220.25027465820312 2.7183401584625244 220.822021484375" stroke-width="0.0" fill="rgb(20, 18, 21)" opacity="0.9923549" stroke="rgb(0, 0, 0)" stroke-opacity="1.0" stroke-linecap="round" stroke-linejoin="round"/>
    <path d="M 210.1602020263672 325.9355163574219 C 207.3932342529297 332.3625793457031 206.4613494873047 340.819580078125 205.86131286621094 347.2441101074219 C 216.78240966796875 348.79766845703125 227.42584228515625 349.9656982421875 240.02310180664062 351.0887756347656 C 242.16030883789062 346.4056701660156 242.10858154296875 336.71466064453125 243.366455078125 330.42694091796875 C 233.692626953125 327.88909912109375 219.994873046875 327.8516540527344 210.1602020263672 325.9355163574219" stroke-width="0.0" fill="rgb(193, 177, 141)" opacity="1.0003221" stroke="rgb(0, 0, 0)" stroke-opacity="1.0" stroke-linecap="round" stroke-linejoin="round"/>
    <path d="M 205.67703247070312 349.4692077636719 C 203.33837890625 355.7122802734375 202.5570068359375 362.1603088378906 201.1728057861328 369.97442626953125 C 213.18505859375 370.5314025878906 222.74070739746094 374.8558654785156 236.14224243164062 375.22686767578125 C 237.46237182617188 368.3409729003906 238.5674591064453 361.396728515625 239.4340057373047 354.12445068359375 C 227.34915161132812 352.4524841308594 216.6235809326172 350.1246643066406 205.67703247070312 349.4692077636719" stroke-width="0.0" fill="rgb(194, 177, 140)" opacity="1.0001858" stroke="rgb(0, 0, 0)" stroke-opacity="1.0" stroke-linecap="round" stroke-linejoin="round"/>
    <path d="M 201.324462890625 371.9903259277344 C 199.83348083496094 376.87310791015625 196.66888427734375 384.1773681640625 198.80282592773438 392.2972717285156 C 209.2498321533203 393.525634765625 220.62474060058594 396.4808349609375 229.602294921875 397.1595458984375 C 235.14596557617188 393.01519775390625 234.41384887695312 382.3296813964844 233.39743041992188 377.0469970703125 C 222.51402282714844 375.4586486816406 210.8430633544922 373.7058410644531 201.324462890625 371.9903259277344" stroke-width="0.0" fill="rgb(194, 176, 139)" opacity="1.0002885" stroke="rgb(0, 0, 0)" stroke-opacity="1.0" stroke-linecap="round" stroke-linejoin="round"/>
    <path d="M 243.5624542236328 354.89794921875 C 240.94712829589844 359.652587890625 239.7465362548828 369.78643798828125 239.26634216308594 375.51129150390625 C 243.5824737548828 377.1185607910156 250.3495635986328 378.3835754394531 260.9802551269531 379.49822998046875 C 260.990234375 373.74468994140625 261.1554870605469 367.48773193359375 262.25506591796875 359.88250732421875 C 258.7749328613281 354.2599182128906 249.69210815429688 357.3949890136719 243.5624542236328 354.89794921875" stroke-width="0.0" fill="rgb(192, 176, 139)" opacity="1.0004492" stroke="rgb(0, 0, 0)" stroke-opacity="1.0" stroke-linecap="round" stroke-linejoin="round"/>
    <path d="M 183.28018188476562 368.6752624511719 C 177.61717224121094 372.2935485839844 175.5041046142578 379.2147216796875 172.2012939453125 385.8717041015625 C 176.13674926757812 389.4353332519531 184.33985900878906 388.3721618652344 192.56239318847656 391.1650390625 C 196.76686096191406 387.83355712890625 195.94000244140625 378.6901550292969 198.46890258789062 372.6938171386719 C 194.61512756347656 369.59600830078125 187.3704833984375 369.1846618652344 183.28018188476562 368.6752624511719" stroke-width="0.0" fill="rgb(191, 176, 140)" opacity="1.0019143" stroke="rgb(0, 0, 0)" stroke-opacity="1.0" stroke-linecap="round" stroke-linejoin="round"/>
    <path d="M 238.3605499267578 378.9862060546875 C 237.4890594482422 383.81109619140625 234.1236114501953 394.3638916015625 237.77490234375 397.2164001464844 C 246.53375244140625 399.4238586425781 255.9706573486328 398.1028137207031 258.7814025878906 393.6008605957031 C 261.7420654296875 395.53424072265625 258.4091796875 387.6687927246094 261.1691589355469 382.70916748046875 C 253.04739379882812 381.38824462890625 245.8393096923828 378.2997131347656 238.3605499267578 378.9862060546875" stroke-width="0.0" fill="rgb(190, 172, 135)" opacity="1.0002058" stroke="rgb(0, 0, 0)" stroke-opacity="1.0" stroke-linecap="round" stroke-linejoin="round"/>
    <path d="M 247.79238891601562 330.8902282714844 C 245.44691467285156 335.47467041015625 243.8302764892578 343.7660827636719 243.93707275390625 352.5591125488281 C 247.83770751953125 353.15057373046875 254.18211364746094 355.4107360839844 262.2311706542969 353.5030517578125 C 262.3128356933594 349.30096435546875 261.4405517578125 340.16082763671875 263.1839294433594 332.88580322265625 C 258.9394836425781 331.25372314453125 251.3757781982422 331.37359619140625 247.79238891601562 330.8902282714844" stroke-width="0.0" fill="rgb(189, 175, 139)" opacity="1.0001267" stroke="rgb(0, 0, 0)" stroke-opacity="1.0" stroke-linecap="round" stroke-linejoin="round"/>
    <path d="M 4.856686115264893 253.72059631347656 C 2.9576284885406494 261.25604248046875 4.4452691078186035 289.5176086425781 3.506707191467285 305.19024658203125 C 8.384763717651367 306.459716796875 15.045140266418457 304.15411376953125 26.910940170288086 303.8880310058594 C 25.372600555419922 287.128662109375 26.613536834716797 268.8397216796875 25.92287254333496 254.36160278320312 C 18.239145278930664 253.37728881835938 12.782901763916016 248.69383239746094 4.856686115264893 253.72059631347656" stroke-width="0.0" fill="rgb(32, 32, 31)" opacity="0.9809304" stroke="rgb(0, 0, 0)" stroke-opacity="1.0" stroke-linecap="round" stroke-linejoin="round"/>
    <path d="M 319.46429443359375 298.0374755859375 C 315.2916259765625 289.2359313964844 309.4508056640625 286.7477111816406 310.72076416015625 282.6724548339844 C 296.65264892578125 290.1824035644531 282.3813171386719 287.9972229003906 269.62274169921875 285.76300048828125 C 269.1195373535156 291.5513610839844 266.6493225097656 292.62249755859375 269.0491027832031 304.2431335449219 C 261.7676086425781 304.08984375 269.5603942871094 303.7537841796875 282.15484619140625 304.3242492675781 C 296.4635925292969 302.14202880859375 310.7386779785156 301.65765380859375 319.46429443359375 298.0374755859375" stroke-width="0.0" fill="rgb(194, 174, 136)" opacity="0.9992422" stroke="rgb(0, 0, 0)" stroke-opacity="1.0" stroke-linecap="round" stroke-linejoin="round"/>
    <path d="M 231.3286590576172 283.7294616699219 C 228.0244140625 287.1491394042969 229.99378967285156 286.7245178222656 229.50399780273438 288.06201171875 C 240.09458923339844 287.9449768066406 251.2737579345703 291.81475830078125 247.0400848388672 284.733154296875 C 250.58448791503906 282.1805114746094 238.1884307861328 282.82110595703125 231.3286590576172 283.7294616699219" stroke-width="0.0" fill="rgb(131, 104, 74)" opacity="1.0017555" stroke="rgb(0, 0, 0)" stroke-opacity="1.0" stroke-linecap="round" stroke-linejoin="round"/>
    <path d="M 310.52520751953125 283.2152404785156 C 304.588134765625 279.1353454589844 285.1945495605469 282.1138610839844 269.6691589355469 280.4872131347656 C 268.0372619628906 287.76568603515625 269.99560546875 288.1141662597656 269.61480712890625 288.00177001953125 C 285.0639953613281 289.12030029296875 301.2375793457031 290.3832092285156 310.52520751953125 283.2152404785156" stroke-width="0.0" fill="rgb(160, 128, 80)" opacity="1.0045056" stroke="rgb(0, 0, 0)" stroke-opacity="1.0" stroke-linecap="round" stroke-linejoin="round"/>
    <path d="M 354.51629638671875 304.3155212402344 C 359.70892333984375 307.2998962402344 356.44879150390625 308.9925231933594 352.73199462890625 307.9342956542969 C 325.90777587890625 308.5943908691406 290.8350524902344 316.2688293457031 261.7500915527344 306.5483703613281 C 284.64093017578125 305.33758544921875 321.6460266113281 309.36199951171875 354.51629638671875 304.3155212402344" stroke-width="0.0" fill="rgb(156, 86, 52)" opacity="0.97438383" stroke="rgb(0, 0, 0)" stroke-opacity="1.0" stroke-linecap="round" stroke-linejoin="round"/>
    <path d="M 203.87567138671875 420.3665466308594 C 203.7133026123047 425.6951599121094 205.78611755371094 427.925048828125 208.99578857421875 429.2059020996094 C 213.08578491210938 431.3857421875 221.13145446777344 430.3070373535156 226.76580810546875 428.2281799316406 C 222.40859985351562 425.0285949707031 222.30630493164062 419.9200744628906 224.7557830810547 419.6581726074219 C 214.9561309814453 418.27459716796875 208.16200256347656 416.3039245605469 203.87567138671875 420.3665466308594" stroke-width="0.0" fill="rgb(199, 164, 75)" opacity="0.99409074" stroke="rgb(0, 0, 0)" stroke-opacity="1.0" stroke-linecap="round" stroke-linejoin="round"/>
    <path d="M 224.7034149169922 418.5212707519531 C 219.42466735839844 422.7794189453125 225.61622619628906 423.6884765625 223.2060546875 429.4666442871094 C 229.04795837402344 427.7987365722656 236.31723022460938 432.0075988769531 237.26771545410156 426.1853332519531 C 234.69979858398438 422.10015869140625 228.69097900390625 419.4112548828125 224.7034149169922 418.5212707519531" stroke-width="0.0" fill="rgb(198, 163, 71)" opacity="0.9976946" stroke="rgb(0, 0, 0)" stroke-opacity="1.0" stroke-linecap="round" stroke-linejoin="round"/>
    <path d="M 464.0118713378906 265.1512756347656 C 462.5504455566406 269.8984069824219 467.11639404296875 266.69183349609375 478.6550598144531 269.3377990722656 C 479.3038330078125 266.0896911621094 479.2826232910156 261.4100646972656 478.0469665527344 260.9737548828125 C 471.63177490234375 261.4619140625 462.39715576171875 259.40264892578125 464.0118713378906 265.1512756347656" stroke-width="0.0" fill="rgb(148, 131, 106)" opacity="1.0002184" stroke="rgb(0, 0, 0)" stroke-opacity="1.0" stroke-linecap="round" stroke-linejoin="round"/>
    <path d="M 96.80403137207031 306.3885498046875 C 89.63190460205078 304.56475830078125 90.056640625 312.690185546875 89.68926239013672 321.7030334472656 C 92.63789367675781 322.13970947265625 96.3404769897461 322.1231689453125 97.22721862792969 320.54937744140625 C 96.91252136230469 316.95916748046875 97.69539642333984 308.4813232421875 96.80403137207031 306.3885498046875" stroke-width="0.0" fill="rgb(169, 146, 116)" opacity="1.0007691" stroke="rgb(0, 0, 0)" stroke-opacity="1.0" stroke-linecap="round" stroke-linejoin="round"/>
    <path d="M 242.4383087158203 259.9461669921875 C 243.74290466308594 261.1912841796875 246.47158813476562 263.7330322265625 244.8815155029297 264.63287353515625 C 241.98451232910156 270.7210388183594 247.14195251464844 281.9499206542969 241.58062744140625 281.48175048828125 C 239.68592834472656 278.45587158203125 240.8336181640625 263.49310302734375 242.4383087158203 259.9461669921875" stroke-width="0.0" fill="rgb(148, 153, 138)" opacity="1.0002242" stroke="rgb(0, 0, 0)" stroke-opacity="1.0" stroke-linecap="round" stroke-linejoin="round"/>
    <path d="M 394.9714660644531 282.8523254394531 C 395.3779602050781 283.5144958496094 392.6435852050781 283.9113464355469 394.2530517578125 286.0201721191406 C 390.6556396484375 288.99322509765625 399.93389892578125 287.9519958496094 397.25262451171875 288.3449401855469 C 397.0501708984375 286.6361389160156 398.8125915527344 281.76715087890625 394.9714660644531 282.8523254394531" stroke-width="0.0" fill="rgb(184, 161, 122)" opacity="0.99983543" stroke="rgb(0, 0, 0)" stroke-opacity="1.0" stroke-linecap="round" stroke-linejoin="round"/>
    <path d="M 99.97057342529297 286.6087951660156 C 91.81536102294922 286.97979736328125 92.517822265625 289.8835754394531 97.07223510742188 284.9472961425781 C 95.42982482910156 287.9568176269531 94.95353698730469 291.8701171875 97.8833236694336 291.9785461425781 C 98.0723648071289 290.5314025878906 98.33354187011719 284.9080810546875 99.97057342529297 286.6087951660156" stroke-width="0.0" fill="rgb(138, 111, 66)" opacity="0.9990191" stroke="rgb(0, 0, 0)" stroke-opacity="1.0" stroke-linecap="round" stroke-linejoin="round"/>
    <path d="M 8.539854049682617 254.9146270751953 C 16.740985870361328 249.65496826171875 16.714632034301758 255.10079956054688 15.649422645568848 256.9864807128906 C 16.171106338500977 269.8185119628906 20.454696655273438 284.02984619140625 19.16233253479004 303.00689697265625 C 10.721373558044434 289.3634033203125 11.940567016601562 269.177978515625 8.539854049682617 254.9146270751953" stroke-width="0.0" fill="rgb(95, 89, 77)" opacity="1.0172132" stroke="rgb(0, 0, 0)" stroke-opacity="1.0" stroke-linecap="round" stroke-linejoin="round"/>
    <path d="M 5.774651527404785 260.68524169921875 C 2.4309284687042236 278.3460388183594 6.840377330780029 291.04833984375 6.719143390655518 304.71533203125 C 16.32036590576172 299.8171691894531 17.58281135559082 305.15216064453125 18.176515579223633 301.50848388671875 C 13.429617881774902 284.54168701171875 9.900538444519043 273.405517578125 5.774651527404785 260.68524169921875" stroke-width="0.0" fill="rgb(60, 57, 52)" opacity="1.0028647" stroke="rgb(0, 0, 0)" stroke-opacity="1.0" stroke-linecap="round" stroke-linejoin="round"/>
    <path d="M 4.173253059387207 218.6879119873047 C 3.884200096130371 221.05264282226562 4.377639293670654 226.9619598388672 3.5341289043426514 230.2791748046875 C 11.039481163024902 229.491455078125 21.59033203125 230.49472045898438 25.502735137939453 229.88243103027344 C 26.6463680267334 222.15359497070312 27.933055877685547 221.34375 23.12733268737793 218.92503356933594 C 19.18870735168457 218.73757934570312 7.729091167449951 219.1223907470703 4.173253059387207 218.6879119873047" stroke-width="0.0" fill="rgb(4, 6, 7)" opacity="0.9936802" stroke="rgb(0, 0, 0)" stroke-opacity="1.0" stroke-linecap="round" stroke-linejoin="round"/>
  </g>
</svg>
