<?xml version="1.0" ?>
<svg xmlns="http://www.w3.org/2000/svg" version="1.1" width="512" height="512">
  <defs/>
  <g>
    <path d="M -5.728404998779297 -6.086293697357178 C -5.981415271759033 168.4274444580078 -6.6114654541015625 339.5620422363281 -6.539450168609619 518.1201782226562 C 171.76083374023438 518.1922607421875 342.2690124511719 518.5809326171875 518.5321044921875 519.951416015625 C 518.5526123046875 338.5531921386719 519.292236328125 168.28775024414062 519.8430786132812 -6.312469005584717 C 340.09967041015625 -6.256831169128418 169.69015502929688 -6.141294479370117 -5.728404998779297 -6.086293697357178" stroke-width="0.0" fill="rgb(139, 126, 113)" opacity="0.90185916" stroke="rgb(0, 0, 0)" stroke-opacity="1.0" stroke-linecap="round" stroke-linejoin="round"/>
    <path d="M 410.538818359375 104.62213897705078 C 400.7850646972656 97.9917984008789 389.1352844238281 92.3790512084961 375.6985168457031 88.89469909667969 C 362.53070068359375 85.53480529785156 348.8004455566406 85.3442611694336 334.7832336425781 86.31653594970703 C 315.287841796875 89.39813232421875 299.7355651855469 94.5315933227539 286.37945556640625 102.26873779296875 C 273.1983947753906 110.28939819335938 261.787353515625 119.55889129638672 252.81578063964844 133.03077697753906 C 245.68161010742188 144.93295288085938 241.25277709960938 162.89341735839844 237.09300231933594 179.5779571533203 C 234.00265502929688 207.79241943359375 242.53622436523438 228.17872619628906 244.20875549316406 252.66465759277344 C 237.8079376220703 265.106201171875 234.35623168945312 275.4624328613281 235.71849060058594 288.9144592285156 C 237.27232360839844 301.55572509765625 242.02349853515625 308.8177795410156 250.32235717773438 314.97113037109375 C 258.31378173828125 324.7840576171875 278.4881591796875 323.1887512207031 285.6072082519531 331.8562316894531 C 294.8832702636719 346.5994873046875 295.5718078613281 362.8443603515625 293.5250244140625 382.50115966796875 C 285.09405517578125 395.3827819824219 273.7528991699219 413.7209167480469 261.1125793457031 424.76318359375 C 220.88812255859375 446.5063781738281 191.39556884765625 477.1748046875 148.2984161376953 492.35089111328125 C 144.64373779296875 502.5117492675781 128.5814971923828 499.42999267578125 126.6966781616211 521.5603637695312 C 260.2708435058594 521.9799194335938 386.5618896484375 522.0631103515625 503.8487243652344 520.43017578125 C 511.6128845214844 491.9458312988281 512.9378662109375 475.9714050292969 507.5771789550781 463.68414306640625 C 497.4816589355469 451.9410400390625 481.2313537597656 449.936279296875 472.6881408691406 440.74847412109375 C 452.46197509765625 418.4952697753906 429.7366638183594 398.2241516113281 415.9244384765625 375.9524230957031 C 411.1969909667969 357.8600769042969 417.389404296875 344.2284851074219 422.4794921875 329.4460144042969 C 438.311279296875 301.53839111328125 452.4565124511719 275.1247253417969 473.94451904296875 256.7891540527344 C 479.6468505859375 242.86585998535156 484.03192138671875 237.82032775878906 477.4359130859375 209.79843139648438 C 452.9649963378906 196.04762268066406 453.8275146484375 162.00404357910156 435.28326416015625 133.28466796875 C 429.5830993652344 119.49927520751953 420.3155822753906 112.24494171142578 410.538818359375 104.62213897705078" stroke-width="0.0" fill="rgb(57, 36, 27)" opacity="1.0875081" stroke="rgb(0, 0, 0)" stroke-opacity="1.0" stroke-linecap="round" stroke-linejoin="round"/>
    <path d="M -5.71052360534668 352.7196960449219 C -6.411667823791504 402.6598815917969 -6.752403736114502 455.2590026855469 -7.234778881072998 519.4496459960938 C 31.459184646606445 520.033203125 67.94339752197266 518.9627685546875 105.85621643066406 513.903076171875 C 125.37652587890625 504.0263977050781 139.88204956054688 492.3471984863281 154.88746643066406 479.2049865722656 C 163.17039489746094 462.9747009277344 158.67041015625 433.1197814941406 160.54742431640625 398.52935791015625 C 161.05931091308594 383.08197021484375 161.15414428710938 365.6091613769531 157.46621704101562 360.66387939453125 C 149.63308715820312 352.8435363769531 141.0896453857422 351.8029479980469 126.7694320678711 351.4040832519531 C 87.56768035888672 350.32196044921875 40.95227813720703 351.0916748046875 -5.71052360534668 352.7196960449219" stroke-width="0.0" fill="rgb(60, 44, 30)" opacity="1.0307438" stroke="rgb(0, 0, 0)" stroke-opacity="1.0" stroke-linecap="round" stroke-linejoin="round"/>
    <path d="M 434.69012451171875 0.22348164021968842 C 426.7403259277344 7.635811805725098 433.46826171875 9.511530876159668 433.7010803222656 24.697053909301758 C 438.1580505371094 27.561552047729492 438.65533447265625 37.1617431640625 442.2812194824219 41.47797393798828 C 451.0674133300781 50.337276458740234 460.87042236328125 57.64796829223633 469.5435791015625 68.3639144897461 C 474.1588134765625 79.04971313476562 477.4305114746094 95.28976440429688 477.222412109375 118.717041015625 C 479.4122009277344 129.38906860351562 474.4277038574219 146.42153930664062 470.52642822265625 165.7446746826172 C 467.1993103027344 175.5826873779297 473.1636047363281 187.11151123046875 478.44891357421875 198.61712646484375 C 472.5222473144531 198.65457153320312 471.5304260253906 193.3209686279297 469.2680358886719 191.96841430664062 C 470.7386169433594 200.90109252929688 478.02471923828125 203.59861755371094 479.9635009765625 214.1402130126953 C 484.78125 223.47805786132812 485.1248474121094 226.35903930664062 483.2469787597656 239.5716094970703 C 480.64056396484375 254.44210815429688 472.0350646972656 262.919677734375 471.2673034667969 277.5791931152344 C 467.1901550292969 329.2352294921875 472.13201904296875 379.916015625 466.5520324707031 425.1788330078125 C 475.4776306152344 436.45526123046875 492.01776123046875 446.1208190917969 520.2589721679688 458.39862060546875 C 520.2300415039062 306.24090576171875 518.9385375976562 153.4631805419922 518.4446411132812 -4.390066623687744 C 485.35845947265625 -3.0484910011291504 459.65826416015625 -4.11173677444458 434.69012451171875 0.22348164021968842" stroke-width="0.0" fill="rgb(149, 134, 119)" opacity="0.89010984" stroke="rgb(0, 0, 0)" stroke-opacity="1.0" stroke-linecap="round" stroke-linejoin="round"/>
    <path d="M 4.621816158294678 -8.38081169128418 C 0.00929475948214531 12.196976661682129 3.468634605407715 24.51482391357422 5.6614603996276855 35.67737579345703 C 6.957963466644287 44.97853088378906 13.278696060180664 49.54893493652344 25.853038787841797 55.830772399902344 C 35.25724792480469 63.588138580322266 55.38226318359375 64.75122833251953 75.88695526123047 62.28739929199219 C 90.46304321289062 57.3773307800293 97.2257308959961 49.219993591308594 102.31817626953125 38.12314987182617 C 104.75894165039062 30.75576400756836 107.20726013183594 21.447416305541992 105.31207275390625 9.747509002685547 C 104.16970825195312 5.071542263031006 101.1568374633789 2.0354349613189697 96.77189636230469 -3.1881110668182373 C 66.5206527709961 -3.468346357345581 34.68669509887695 -1.5936161279678345 4.621816158294678 -8.38081169128418" stroke-width="0.0" fill="rgb(187, 177, 165)" opacity="0.94943327" stroke="rgb(0, 0, 0)" stroke-opacity="1.0" stroke-linecap="round" stroke-linejoin="round"/>
    <path d="M 22.390380859375 129.70115661621094 C 18.20672607421875 132.8713836669922 17.655704498291016 140.34133911132812 22.22970199584961 151.087646484375 C 26.970867156982422 154.96337890625 30.295976638793945 160.64903259277344 39.0611686706543 156.70211791992188 C 46.275115966796875 153.78765869140625 48.2515869140625 146.0895233154297 44.22563934326172 133.2008819580078 C 37.94205093383789 129.91842651367188 33.02888488769531 126.54068756103516 22.390380859375 129.70115661621094" stroke-width="0.0" fill="rgb(243, 245, 243)" opacity="0.9881326" stroke="rgb(0, 0, 0)" stroke-opacity="1.0" stroke-linecap="round" stroke-linejoin="round"/>
    <path d="M 167.61935424804688 -5.330326557159424 C 170.57757568359375 8.910751342773438 177.12109375 12.061760902404785 186.4774627685547 16.437843322753906 C 194.6131591796875 13.931929588317871 199.32583618164062 10.83837604522705 202.87033081054688 -6.946050643920898 C 195.34185791015625 -7.939797878265381 184.5480499267578 -7.460991382598877 167.61935424804688 -5.330326557159424" stroke-width="0.0" fill="rgb(164, 161, 157)" opacity="0.8788682" stroke="rgb(0, 0, 0)" stroke-opacity="1.0" stroke-linecap="round" stroke-linejoin="round"/>
    <path d="M -3.1549954414367676 90.18941497802734 C -6.224959373474121 100.87565612792969 -5.815691947937012 113.02392578125 -5.219184875488281 123.78053283691406 C 5.422567844390869 122.26994323730469 9.752900123596191 122.63642883300781 12.988709449768066 120.6158447265625 C 15.891166687011719 116.89191436767578 17.01532554626465 111.56275939941406 14.238846778869629 102.59449768066406 C 9.4841890335083 100.80770874023438 4.950070858001709 96.15394592285156 -3.1549954414367676 90.18941497802734" stroke-width="0.0" fill="rgb(246, 248, 247)" opacity="1.0077932" stroke="rgb(0, 0, 0)" stroke-opacity="1.0" stroke-linecap="round" stroke-linejoin="round"/>
    <path d="M 468.24755859375 268.67047119140625 C 446.0121154785156 280.9227600097656 441.0250244140625 308.99090576171875 424.868896484375 327.2196350097656 C 421.501953125 336.3536071777344 417.1403503417969 344.7601623535156 415.7942810058594 356.218017578125 C 415.6788024902344 359.8414001464844 414.6436767578125 367.06158447265625 417.7646484375 376.11944580078125 C 429.8052673339844 385.3873596191406 440.6233825683594 399.28851318359375 454.3361511230469 412.20220947265625 C 461.416015625 414.3893737792969 462.630126953125 404.3486022949219 468.338623046875 401.80682373046875 C 469.4663391113281 355.42431640625 471.17803955078125 309.5699768066406 468.24755859375 268.67047119140625" stroke-width="0.0" fill="rgb(177, 166, 153)" opacity="1.0169506" stroke="rgb(0, 0, 0)" stroke-opacity="1.0" stroke-linecap="round" stroke-linejoin="round"/>
    <path d="M 62.13449478149414 305.3272705078125 C 70.16016387939453 311.54205322265625 74.20925903320312 319.0092468261719 90.67790985107422 317.4369812011719 C 106.55258178710938 294.6599426269531 132.91163635253906 291.3374328613281 150.5827178955078 276.87158203125 C 144.50955200195312 268.9223937988281 126.10076904296875 277.5890197753906 110.09466552734375 276.64117431640625 C 99.99215698242188 273.0965881347656 100.10945129394531 257.4164733886719 85.01293182373047 258.57647705078125 C 82.26668548583984 272.851806640625 71.34346008300781 268.91217041015625 67.76557159423828 279.8035888671875 C 66.11273193359375 291.8132019042969 60.32131576538086 294.3476257324219 62.13449478149414 305.3272705078125" stroke-width="0.0" fill="rgb(86, 75, 66)" opacity="0.9986051" stroke="rgb(0, 0, 0)" stroke-opacity="1.0" stroke-linecap="round" stroke-linejoin="round"/>
    <path d="M -6.621424674987793 310.61572265625 C -6.042604446411133 323.0402526855469 -6.136751651763916 337.5609436035156 -6.154397487640381 349.287841796875 C 24.81737518310547 350.26300048828125 44.931453704833984 346.3705139160156 66.17108917236328 345.4010925292969 C 69.599365234375 336.0933532714844 67.7645263671875 321.2023010253906 68.03722381591797 312.0633239746094 C 50.66537094116211 309.2652587890625 19.840055465698242 311.7149963378906 -6.621424674987793 310.61572265625" stroke-width="0.0" fill="rgb(75, 62, 51)" opacity="1.0153098" stroke="rgb(0, 0, 0)" stroke-opacity="1.0" stroke-linecap="round" stroke-linejoin="round"/>
    <path d="M 392.5427551269531 92.9599380493164 C 415.07489013671875 103.99809265136719 433.2129821777344 117.6007308959961 443.2488098144531 141.5689239501953 C 451.2493591308594 127.49422454833984 453.8068542480469 116.31822967529297 450.4429016113281 106.26571655273438 C 450.170166015625 97.28450012207031 444.1628112792969 92.98704528808594 437.7054138183594 87.70954132080078 C 432.20428466796875 83.27202606201172 424.5482482910156 80.43340301513672 418.2201843261719 80.57251739501953 C 410.2275390625 82.62776947021484 400.70074462890625 86.8365478515625 392.5427551269531 92.9599380493164" stroke-width="0.0" fill="rgb(161, 148, 134)" opacity="0.9979913" stroke="rgb(0, 0, 0)" stroke-opacity="1.0" stroke-linecap="round" stroke-linejoin="round"/>
    <path d="M 269.5002136230469 -8.578653335571289 C 261.68341064453125 20.245380401611328 272.90521240234375 29.57177734375 278.3260192871094 46.1145133972168 C 276.12701416015625 58.94060134887695 277.2383117675781 74.7585678100586 276.7104797363281 87.8625717163086 C 278.4012451171875 93.95283508300781 286.9189758300781 91.35391998291016 287.5894470214844 98.57103729248047 C 303.6075439453125 92.00700378417969 319.93414306640625 85.61661529541016 338.65386962890625 84.69087982177734 C 354.77728271484375 82.97127532958984 374.65716552734375 85.8634033203125 387.69805908203125 90.30572509765625 C 402.01409912109375 90.00314331054688 397.9076232910156 80.40064239501953 406.3862609863281 79.41036224365234 C 407.9291687011719 73.05620574951172 409.8538513183594 65.95126342773438 408.07476806640625 58.79120635986328 C 400.70452880859375 48.743831634521484 393.19415283203125 42.70193099975586 386.22808837890625 37.7888298034668 C 376.764892578125 27.568086624145508 373.4803466796875 13.257583618164062 362.2051696777344 -9.323953628540039 C 328.58538818359375 -8.852645874023438 295.20623779296875 -9.459372520446777 269.5002136230469 -8.578653335571289" stroke-width="0.0" fill="rgb(93, 76, 64)" opacity="0.99758756" stroke="rgb(0, 0, 0)" stroke-opacity="1.0" stroke-linecap="round" stroke-linejoin="round"/>
    <path d="M 234.7075958251953 371.8443908691406 C 221.16427612304688 373.9045104980469 222.25799560546875 385.3191833496094 204.7647247314453 376.7713317871094 C 202.73870849609375 392.07110595703125 191.22288513183594 394.66485595703125 181.68492126464844 404.2977600097656 C 175.19619750976562 416.8719177246094 173.181396484375 429.5714416503906 174.08920288085938 441.5209655761719 C 181.0001220703125 452.25506591796875 185.5357666015625 456.1470642089844 184.62582397460938 459.2126159667969 C 179.27972412109375 466.999267578125 175.4547576904297 476.1073303222656 164.11151123046875 476.4176940917969 C 200.12405395507812 459.1977233886719 229.33348083496094 436.59820556640625 258.586669921875 414.23638916015625 C 257.5777282714844 414.72393798828125 261.9825439453125 408.77801513671875 266.316162109375 402.599853515625 C 257.2950744628906 398.9799499511719 246.26756286621094 396.01678466796875 242.24179077148438 394.3045349121094 C 238.41757202148438 385.8656005859375 236.7261505126953 379.47845458984375 234.7075958251953 371.8443908691406" stroke-width="0.0" fill="rgb(160, 146, 132)" opacity="0.94862366" stroke="rgb(0, 0, 0)" stroke-opacity="1.0" stroke-linecap="round" stroke-linejoin="round"/>
    <path d="M 64.03986358642578 260.71856689453125 C 57.09675216674805 253.07444763183594 51.04730987548828 253.97607421875 37.283782958984375 253.83152770996094 C 24.470956802368164 258.3448181152344 10.141639709472656 260.1905212402344 -2.041971445083618 264.5488586425781 C -0.008729485794901848 278.6666564941406 -0.5082535147666931 293.3333435058594 -5.59444522857666 308.81378173828125 C 23.71767807006836 310.10675048828125 44.54090118408203 308.1739196777344 64.69913482666016 307.94683837890625 C 65.36739349365234 286.1882629394531 56.48484802246094 280.9810791015625 64.03986358642578 260.71856689453125" stroke-width="0.0" fill="rgb(159, 151, 143)" opacity="1.0789549" stroke="rgb(0, 0, 0)" stroke-opacity="1.0" stroke-linecap="round" stroke-linejoin="round"/>
    <path d="M 73.28082275390625 317.9310302734375 C 72.7222900390625 325.566650390625 70.90515899658203 339.3759460449219 73.63668823242188 346.20794677734375 C 96.34119415283203 347.41009521484375 117.38378143310547 348.37408447265625 133.51806640625 344.9062805175781 C 119.1429443359375 332.43829345703125 108.23661804199219 321.8763122558594 96.76457214355469 308.283203125 C 93.00064086914062 310.7586975097656 94.09175109863281 319.4964904785156 85.19908905029297 320.1716613769531 C 81.31349182128906 318.38323974609375 78.67334747314453 313.76519775390625 73.28082275390625 317.9310302734375" stroke-width="0.0" fill="rgb(175, 169, 163)" opacity="1.0481732" stroke="rgb(0, 0, 0)" stroke-opacity="1.0" stroke-linecap="round" stroke-linejoin="round"/>
    <path d="M -4.50915002822876 170.55166625976562 C -5.229450702667236 184.2497100830078 -7.254242420196533 197.74964904785156 -9.036564826965332 211.2535400390625 C 6.860846996307373 201.98403930664062 10.83930492401123 198.22650146484375 9.228425979614258 192.34959411621094 C 10.822911262512207 189.84548950195312 9.311352729797363 181.79104614257812 10.473881721496582 178.40704345703125 C 8.093835830688477 173.2436065673828 4.038262367248535 173.96583557128906 -4.50915002822876 170.55166625976562" stroke-width="0.0" fill="rgb(180, 170, 155)" opacity="1.0027615" stroke="rgb(0, 0, 0)" stroke-opacity="1.0" stroke-linecap="round" stroke-linejoin="round"/>
    <path d="M 228.50425720214844 326.40087890625 C 222.89051818847656 331.49542236328125 223.50924682617188 347.6460266113281 223.54852294921875 368.7994079589844 C 226.7424774169922 350.6743469238281 234.63299560546875 344.35174560546875 232.8717041015625 339.61419677734375 C 233.72247314453125 333.08209228515625 233.5012969970703 328.2532043457031 228.50425720214844 326.40087890625" stroke-width="0.0" fill="rgb(75, 64, 54)" opacity="1.0071852" stroke="rgb(0, 0, 0)" stroke-opacity="1.0" stroke-linecap="round" stroke-linejoin="round"/>
    <path d="M 189.4471893310547 197.3219757080078 C 184.3006591796875 200.93112182617188 180.22268676757812 206.06031799316406 178.41175842285156 211.5673828125 C 172.3748779296875 214.5498504638672 164.9003448486328 208.67469787597656 165.12892150878906 210.97210693359375 C 169.89820861816406 229.02528381347656 154.19517517089844 229.44332885742188 154.53285217285156 248.1519012451172 C 155.01268005371094 278.3552551269531 157.3043670654297 306.6718444824219 154.75033569335938 330.9783020019531 C 156.45565795898438 346.8069763183594 167.12625122070312 345.07391357421875 168.96157836914062 359.64111328125 C 165.61219787597656 371.6172790527344 177.898193359375 381.7324523925781 177.78732299804688 403.73468017578125 C 188.1659698486328 394.7391662597656 192.09689331054688 384.30572509765625 189.4601593017578 369.7252502441406 C 189.7398223876953 368.46942138671875 194.28575134277344 372.14459228515625 197.3687286376953 374.75128173828125 C 200.2411346435547 349.2984619140625 198.5205535888672 320.0402526855469 199.38296508789062 295.195556640625 C 193.2056884765625 278.93505859375 198.58494567871094 259.6669616699219 189.43203735351562 264.4632873535156 C 192.30929565429688 250.92955017089844 193.5549774169922 237.3625946044922 198.42605590820312 228.47451782226562 C 191.34983825683594 214.56773376464844 199.18783569335938 201.49998474121094 189.4471893310547 197.3219757080078" stroke-width="0.0" fill="rgb(146, 138, 130)" opacity="1.0074753" stroke="rgb(0, 0, 0)" stroke-opacity="1.0" stroke-linecap="round" stroke-linejoin="round"/>
    <path d="M 245.71470642089844 321.7384948730469 C 240.11373901367188 321.2629699707031 235.9100341796875 323.4320983886719 230.71934509277344 325.7790832519531 C 238.80418395996094 340.5486755371094 229.0255889892578 347.0441589355469 228.14573669433594 356.3955993652344 C 233.4954833984375 381.213623046875 242.9281005859375 398.13525390625 265.39862060546875 404.02276611328125 C 270.1054992675781 401.1548156738281 281.38653564453125 391.0766296386719 293.71435546875 382.0860595703125 C 294.5903015136719 373.8643493652344 296.21722412109375 364.5617370605469 295.2061767578125 355.2377014160156 C 291.2902526855469 345.8033447265625 290.5704040527344 334.2713928222656 284.02728271484375 328.04473876953125 C 271.26409912109375 324.8905334472656 251.53782653808594 326.7427673339844 245.71470642089844 321.7384948730469" stroke-width="0.0" fill="rgb(194, 187, 179)" opacity="0.9939104" stroke="rgb(0, 0, 0)" stroke-opacity="1.0" stroke-linecap="round" stroke-linejoin="round"/>
    <path d="M 63.50185775756836 222.7913818359375 C 51.019283294677734 221.25909423828125 58.961219787597656 236.22564697265625 35.83924865722656 226.886474609375 C 29.095943450927734 218.22946166992188 28.10576057434082 204.28070068359375 17.257055282592773 196.7973175048828 C 12.061175346374512 195.16378784179688 4.190658092498779 200.5754852294922 -6.276447296142578 202.0615234375 C -9.03128433227539 211.3441162109375 -10.087860107421875 233.33871459960938 -9.620752334594727 267.4814758300781 C 20.06223487854004 264.5739440917969 24.204078674316406 251.19187927246094 43.267372131347656 251.8695068359375 C 43.399723052978516 232.3287353515625 69.05352783203125 242.8807373046875 63.50185775756836 222.7913818359375" stroke-width="0.0" fill="rgb(134, 127, 122)" opacity="0.9900208" stroke="rgb(0, 0, 0)" stroke-opacity="1.0" stroke-linecap="round" stroke-linejoin="round"/>
    <path d="M 173.85867309570312 380.68621826171875 C 171.29229736328125 388.02911376953125 163.27342224121094 382.84283447265625 161.75698852539062 386.26251220703125 C 163.7296142578125 418.37255859375 162.0690460205078 451.6670227050781 161.85279846191406 477.2545471191406 C 174.65585327148438 473.068359375 184.18052673339844 468.4078369140625 186.8170623779297 463.0030212402344 C 185.0087127685547 451.24102783203125 178.630126953125 448.7650146484375 174.38380432128906 442.43975830078125 C 176.48060607910156 421.12445068359375 179.04965209960938 399.7024230957031 173.85867309570312 380.68621826171875" stroke-width="0.0" fill="rgb(151, 132, 119)" opacity="1.0316182" stroke="rgb(0, 0, 0)" stroke-opacity="1.0" stroke-linecap="round" stroke-linejoin="round"/>
    <path d="M 113.5324935913086 301.15283203125 C 112.53389739990234 307.4660339355469 118.15597534179688 315.8575134277344 111.93278503417969 319.568359375 C 112.81785583496094 326.2092590332031 121.76078033447266 331.7481689453125 129.09405517578125 338.49163818359375 C 131.7416534423828 341.0486755371094 139.9411163330078 341.2114562988281 150.5983428955078 340.7841491699219 C 152.63095092773438 323.0362854003906 148.55001831054688 315.0306396484375 143.54241943359375 307.9451904296875 C 138.3314666748047 304.7490539550781 127.75273895263672 306.05029296875 122.52317810058594 309.1579284667969 C 121.2335433959961 301.0617980957031 119.54515075683594 297.0700988769531 113.5324935913086 301.15283203125" stroke-width="0.0" fill="rgb(149, 141, 132)" opacity="0.9923302" stroke="rgb(0, 0, 0)" stroke-opacity="1.0" stroke-linecap="round" stroke-linejoin="round"/>
    <path d="M 61.592193603515625 81.98844909667969 C 55.651119232177734 85.60589599609375 51.747161865234375 91.42736053466797 48.69691467285156 92.29255676269531 C 51.90605926513672 105.73719787597656 46.288917541503906 116.27505493164062 54.456321716308594 121.713623046875 C 61.01171875 126.59429931640625 59.05305480957031 119.78926086425781 63.578407287597656 115.1672134399414 C 62.13694381713867 103.71614074707031 64.58916473388672 90.2725601196289 61.592193603515625 81.98844909667969" stroke-width="0.0" fill="rgb(110, 97, 91)" opacity="1.00115" stroke="rgb(0, 0, 0)" stroke-opacity="1.0" stroke-linecap="round" stroke-linejoin="round"/>
    <path d="M 136.0226593017578 53.789093017578125 C 123.6246566772461 56.10566329956055 128.0853729248047 62.975982666015625 127.03770446777344 76.84107208251953 C 129.98941040039062 79.16580963134766 130.41473388671875 83.43034362792969 138.18075561523438 81.7683334350586 C 140.62765502929688 80.11207580566406 144.2017822265625 77.61822509765625 142.9644317626953 74.07229614257812 C 140.54779052734375 65.37194061279297 136.32778930664062 58.836402893066406 136.0226593017578 53.789093017578125" stroke-width="0.0" fill="rgb(108, 90, 77)" opacity="1.002194" stroke="rgb(0, 0, 0)" stroke-opacity="1.0" stroke-linecap="round" stroke-linejoin="round"/>
    <path d="M 35.247501373291016 74.36341094970703 C 32.78212356567383 76.748779296875 29.529565811157227 77.52105712890625 31.286693572998047 83.95539093017578 C 37.82371520996094 87.8777084350586 39.32832717895508 98.89778900146484 49.63896942138672 100.76686096191406 C 50.58981704711914 97.07005310058594 49.142337799072266 82.26057434082031 48.807159423828125 80.8661880493164 C 43.668949127197266 76.25687408447266 42.99953079223633 73.20978546142578 35.247501373291016 74.36341094970703" stroke-width="0.0" fill="rgb(111, 99, 92)" opacity="1.0009335" stroke="rgb(0, 0, 0)" stroke-opacity="1.0" stroke-linecap="round" stroke-linejoin="round"/>
    <path d="M 199.01492309570312 378.681396484375 C 198.0868682861328 379.8875732421875 196.53848266601562 384.23736572265625 198.1122283935547 391.6973571777344 C 201.68479919433594 386.9452209472656 208.75132751464844 377.00079345703125 203.72158813476562 378.9506530761719 C 208.6258544921875 378.4787292480469 220.82650756835938 381.5562744140625 217.2289276123047 378.96856689453125 C 212.7045440673828 370.107666015625 201.7805633544922 371.589599609375 199.01492309570312 378.681396484375" stroke-width="0.0" fill="rgb(115, 99, 84)" opacity="0.9980163" stroke="rgb(0, 0, 0)" stroke-opacity="1.0" stroke-linecap="round" stroke-linejoin="round"/>
    <path d="M 123.64134979248047 227.27862548828125 C 116.5837173461914 229.82095336914062 116.52886962890625 242.048828125 111.91877746582031 248.83592224121094 C 111.1438217163086 261.29638671875 107.90792083740234 268.81005859375 116.759765625 267.1714172363281 C 115.80633544921875 253.50755310058594 123.86222839355469 243.95582580566406 123.64134979248047 227.27862548828125" stroke-width="0.0" fill="rgb(135, 130, 124)" opacity="1.0051335" stroke="rgb(0, 0, 0)" stroke-opacity="1.0" stroke-linecap="round" stroke-linejoin="round"/>
    <path d="M 129.81301879882812 344.47076416015625 C 132.4253387451172 348.838134765625 145.98513793945312 348.12750244140625 159.42559814453125 348.3887939453125 C 159.8526611328125 342.7843322753906 155.60377502441406 339.0911560058594 153.9764404296875 338.5972900390625 C 134.91787719726562 341.3814392089844 132.45816040039062 335.7908935546875 129.81301879882812 344.47076416015625" stroke-width="0.0" fill="rgb(125, 112, 102)" opacity="1.0050578" stroke="rgb(0, 0, 0)" stroke-opacity="1.0" stroke-linecap="round" stroke-linejoin="round"/>
    <path d="M 423.3888244628906 191.198486328125 C 377.67022705078125 197.05859375 342.39288330078125 207.40330505371094 308.7952575683594 219.3631134033203 C 292.2126159667969 224.4371795654297 278.5943908691406 231.5133819580078 266.6986083984375 242.8005828857422 C 261.1360168457031 247.41432189941406 265.06427001953125 262.1930236816406 259.3749694824219 256.76068115234375 C 256.5486145019531 267.8272399902344 256.2451477050781 278.9489440917969 259.0824890136719 290.33795166015625 C 264.0757141113281 301.6256408691406 267.6974182128906 313.8471374511719 274.04266357421875 322.549072265625 C 278.0168151855469 326.0998840332031 283.44110107421875 328.26055908203125 286.3248596191406 332.716064453125 C 290.1353759765625 344.9544372558594 298.2138671875 353.0677795410156 294.6534118652344 379.6809997558594 C 288.9870910644531 394.28070068359375 275.8254699707031 410.79229736328125 279.0207824707031 441.7667236328125 C 282.78668212890625 467.76080322265625 280.1761474609375 493.7181701660156 280.16162109375 521.28466796875 C 330.7686462402344 521.2096557617188 375.4169006347656 521.1840209960938 416.4364929199219 520.7525024414062 C 415.2743225097656 449.6010437011719 423.350341796875 396.4372863769531 413.6541442871094 365.5103759765625 C 414.89227294921875 347.2012634277344 418.8497619628906 336.74114990234375 423.35589599609375 327.465576171875 C 432.5441589355469 309.04638671875 444.4373779296875 293.0746765136719 456.7986755371094 272.00634765625 C 437.41973876953125 251.53591918945312 437.47918701171875 216.56312561035156 423.3888244628906 191.198486328125" stroke-width="0.0" fill="rgb(97, 51, 41)" opacity="0.8594942" stroke="rgb(0, 0, 0)" stroke-opacity="1.0" stroke-linecap="round" stroke-linejoin="round"/>
    <path d="M 409.987548828125 104.04134368896484 C 399.7625427246094 96.67522430419922 387.0975646972656 91.46621704101562 373.3665466308594 88.22563171386719 C 360.36614990234375 85.90949249267578 347.0034484863281 84.03060150146484 332.6850891113281 86.26216125488281 C 315.20843505859375 88.47386169433594 299.87701416015625 94.9549789428711 286.21929931640625 102.62229919433594 C 275.42474365234375 108.68999481201172 265.69781494140625 116.20448303222656 257.8299560546875 126.2391586303711 C 247.14280700683594 138.65721130371094 241.6241455078125 158.75962829589844 237.63059997558594 180.09310913085938 C 234.3057098388672 207.861328125 241.37916564941406 226.70474243164062 244.1676788330078 251.81756591796875 C 239.1416015625 265.4115905761719 233.9879150390625 273.189697265625 236.3032989501953 290.25042724609375 C 236.79150390625 301.67095947265625 242.32501220703125 305.5627746582031 247.70704650878906 312.75933837890625 C 252.739990234375 316.2698059082031 260.1304931640625 323.391357421875 267.61566162109375 321.0057373046875 C 265.06744384765625 304.08428955078125 256.2588195800781 294.0301818847656 253.253662109375 275.1797180175781 C 252.55514526367188 265.6806335449219 252.40304565429688 260.9565734863281 253.57908630371094 256.4273986816406 C 256.654296875 254.3473663330078 257.2771911621094 246.51193237304688 262.02587890625 244.42616271972656 C 273.1114501953125 234.97987365722656 287.25897216796875 228.4653778076172 301.4520568847656 222.8131866455078 C 325.02886962890625 214.81802368164062 349.2572021484375 207.40489196777344 373.5713806152344 201.15562438964844 C 392.04681396484375 199.03697204589844 408.1948547363281 190.63035583496094 429.6475830078125 193.55763244628906 C 439.896728515625 215.14291381835938 440.6646423339844 245.0500946044922 458.77423095703125 270.96563720703125 C 466.66265869140625 267.4349060058594 469.2510986328125 260.2746887207031 473.04071044921875 258.0010986328125 C 477.6199645996094 246.09048461914062 484.7637634277344 238.81494140625 479.3624267578125 218.90577697753906 C 475.2296142578125 203.58316040039062 464.936279296875 197.688232421875 457.811767578125 189.51058959960938 C 451.22357177734375 164.8529052734375 442.6745910644531 143.50901794433594 431.3580322265625 124.86742401123047 C 425.6492919921875 116.40534210205078 418.73553466796875 109.20236206054688 409.987548828125 104.04134368896484" stroke-width="0.0" fill="rgb(86, 71, 53)" opacity="0.8427992" stroke="rgb(0, 0, 0)" stroke-opacity="1.0" stroke-linecap="round" stroke-linejoin="round"/>
    <path d="M 283.3523864746094 402.5216979980469 C 272.4482116699219 404.9962158203125 267.8315734863281 423.2130432128906 255.9182891845703 421.9123229980469 C 213.07781982421875 454.12158203125 168.00775146484375 481.5563659667969 106.67860412597656 516.0072631835938 C 171.5037078857422 521.2591552734375 228.88621520996094 519.5333251953125 280.346923828125 520.3138427734375 C 280.31884765625 500.0845642089844 281.78631591796875 479.81500244140625 279.8503723144531 464.5647888183594 C 281.1506652832031 443.8935852050781 282.60919189453125 423.10675048828125 283.3523864746094 402.5216979980469" stroke-width="0.0" fill="rgb(101, 93, 77)" opacity="0.7466234" stroke="rgb(0, 0, 0)" stroke-opacity="1.0" stroke-linecap="round" stroke-linejoin="round"/>
    <path d="M 420.1676025390625 384.3207702636719 C 418.4470520019531 424.4132995605469 416.1538391113281 467.3446044921875 416.22113037109375 520.4872436523438 C 411.0498962402344 521.9431762695312 397.7969665527344 519.1047973632812 380.66766357421875 521.4057006835938 C 426.37677001953125 520.2604370117188 468.68536376953125 519.37158203125 518.2278442382812 518.8095703125 C 518.7393798828125 493.9578857421875 518.6207275390625 477.55047607421875 511.1775817871094 462.3398132324219 C 500.300537109375 454.6089172363281 488.2080078125 448.78350830078125 477.17462158203125 442.4116516113281 C 455.67523193359375 425.5582275390625 439.7999267578125 403.4314270019531 420.1676025390625 384.3207702636719" stroke-width="0.0" fill="rgb(75, 62, 46)" opacity="0.9291138" stroke="rgb(0, 0, 0)" stroke-opacity="1.0" stroke-linecap="round" stroke-linejoin="round"/>
    <path d="M 27.488174438476562 130.18304443359375 C 20.664026260375977 130.3084259033203 19.500635147094727 143.5785675048828 26.33123016357422 149.9511260986328 C 30.163738250732422 152.79022216796875 32.27696228027344 153.28826904296875 39.951541900634766 151.45188903808594 C 44.35067367553711 146.9459228515625 46.1133918762207 140.2183380126953 41.45345687866211 133.99026489257812 C 38.824440002441406 131.0089569091797 31.49364471435547 129.4439697265625 27.488174438476562 130.18304443359375" stroke-width="0.0" fill="rgb(251, 251, 250)" opacity="1.0001408" stroke="rgb(0, 0, 0)" stroke-opacity="1.0" stroke-linecap="round" stroke-linejoin="round"/>
    <path d="M 7.651752948760986 -5.762968063354492 C 4.005034446716309 11.797980308532715 5.665114402770996 12.763420104980469 15.062256813049316 16.436676025390625 C 20.763164520263672 16.6081600189209 27.412355422973633 13.562182426452637 28.822599411010742 10.973097801208496 C 29.779939651489258 6.922219276428223 32.0098876953125 4.313924312591553 30.4941349029541 -5.457719326019287 C 22.196332931518555 -4.981680393218994 12.921870231628418 -5.389726161956787 7.651752948760986 -5.762968063354492" stroke-width="0.0" fill="rgb(244, 244, 243)" opacity="1.0035756" stroke="rgb(0, 0, 0)" stroke-opacity="1.0" stroke-linecap="round" stroke-linejoin="round"/>
    <path d="M 437.8558654785156 -0.926718533039093 C 433.3955078125 2.87945556640625 433.0788269042969 10.401226997375488 432.5848693847656 16.95309066772461 C 434.0566711425781 25.163908004760742 436.6290283203125 32.98063659667969 441.91180419921875 39.64443588256836 C 458.2538146972656 48.63434600830078 472.3347473144531 62.015830993652344 486.118408203125 78.41828918457031 C 496.9779968261719 79.4290771484375 504.47149658203125 79.54947662353516 518.0890502929688 76.634521484375 C 517.9284057617188 51.408660888671875 517.9822387695312 25.76694107055664 517.9898681640625 -0.6580744385719299 C 486.32794189453125 -0.9725800156593323 461.6488952636719 -1.2546460628509521 437.8558654785156 -0.926718533039093" stroke-width="0.0" fill="rgb(180, 174, 165)" opacity="0.99335873" stroke="rgb(0, 0, 0)" stroke-opacity="1.0" stroke-linecap="round" stroke-linejoin="round"/>
    <path d="M 516.8348999023438 457.9077453613281 C 520.18359375 444.1768798828125 519.509765625 429.3139343261719 519.4213256835938 411.25018310546875 C 490.0163879394531 416.4706726074219 475.1473388671875 411.2340393066406 457.52996826171875 417.8441162109375 C 462.35968017578125 424.77093505859375 468.443115234375 432.2803955078125 477.0702819824219 438.74090576171875 C 488.8110046386719 442.7112731933594 498.81005859375 449.52392578125 516.8348999023438 457.9077453613281" stroke-width="0.0" fill="rgb(163, 149, 135)" opacity="0.946015" stroke="rgb(0, 0, 0)" stroke-opacity="1.0" stroke-linecap="round" stroke-linejoin="round"/>
    <path d="M 34.833030700683594 447.086181640625 C 21.155235290527344 457.88519287109375 28.27313232421875 481.6206359863281 22.10104751586914 491.1315612792969 C 20.417512893676758 501.3122253417969 16.94601821899414 505.4994812011719 6.154482364654541 517.5081176757812 C 39.665645599365234 518.9913940429688 65.9464111328125 520.0469360351562 90.14654541015625 519.399658203125 C 86.81730651855469 498.70196533203125 85.51579284667969 486.9435119628906 77.39804077148438 478.2679138183594 C 66.7796859741211 465.8442077636719 43.096248626708984 466.5005798339844 34.833030700683594 447.086181640625" stroke-width="0.0" fill="rgb(146, 129, 107)" opacity="1.0142794" stroke="rgb(0, 0, 0)" stroke-opacity="1.0" stroke-linecap="round" stroke-linejoin="round"/>
    <path d="M 478.5149841308594 257.7430114746094 C 472.0858459472656 250.44412231445312 470.57952880859375 259.9055480957031 466.1768493652344 269.5638427734375 C 468.2874450683594 314.91839599609375 469.5352783203125 368.6297607421875 467.30230712890625 414.28814697265625 C 480.11773681640625 362.1726989746094 479.9775390625 309.8351135253906 478.5149841308594 257.7430114746094" stroke-width="0.0" fill="rgb(82, 68, 57)" opacity="0.95128417" stroke="rgb(0, 0, 0)" stroke-opacity="1.0" stroke-linecap="round" stroke-linejoin="round"/>
    <path d="M 173.88612365722656 -5.05617094039917 C 177.01344299316406 8.310423851013184 182.27996826171875 13.218299865722656 188.1463623046875 17.886516571044922 C 194.69163513183594 14.35300350189209 195.52857971191406 7.24155330657959 199.4198455810547 -4.928504943847656 C 187.77786254882812 -6.112498760223389 180.06192016601562 -6.91508150100708 173.88612365722656 -5.05617094039917" stroke-width="0.0" fill="rgb(238, 239, 238)" opacity="1.0060829" stroke="rgb(0, 0, 0)" stroke-opacity="1.0" stroke-linecap="round" stroke-linejoin="round"/>
    <path d="M -8.250584602355957 418.7921447753906 C 25.988618850708008 419.1219177246094 60.740013122558594 419.4582824707031 81.99746704101562 418.4184265136719 C 98.51544952392578 410.86553955078125 107.79188537597656 403.19439697265625 120.42342376708984 400.46697998046875 C 119.26893615722656 384.9751281738281 126.49073028564453 369.2939453125 127.51746368408203 367.382568359375 C 129.3589324951172 362.3664855957031 140.93946838378906 360.896484375 156.2718505859375 362.0407409667969 C 156.3357696533203 370.5099792480469 163.48916625976562 361.9976501464844 162.48736572265625 349.1015319824219 C 104.44094848632812 352.4107971191406 56.73228073120117 344.1630554199219 -4.171360015869141 350.0763854980469 C -8.127370834350586 366.98785400390625 -7.865586280822754 390.3693542480469 -8.250584602355957 418.7921447753906" stroke-width="0.0" fill="rgb(73, 57, 40)" opacity="0.95928264" stroke="rgb(0, 0, 0)" stroke-opacity="1.0" stroke-linecap="round" stroke-linejoin="round"/>
    <path d="M 158.1407470703125 359.94769287109375 C 143.88319396972656 364.36822509765625 131.78993225097656 359.5364074707031 123.65009307861328 361.77789306640625 C 118.65989685058594 410.4735107421875 114.14774322509766 452.7295227050781 119.06481170654297 506.3981628417969 C 136.70352172851562 496.6722717285156 148.43966674804688 486.4071350097656 160.56503295898438 479.7286682128906 C 163.80828857421875 432.30169677734375 161.9193115234375 396.79449462890625 158.1407470703125 359.94769287109375" stroke-width="0.0" fill="rgb(44, 36, 33)" opacity="0.9053773" stroke="rgb(0, 0, 0)" stroke-opacity="1.0" stroke-linecap="round" stroke-linejoin="round"/>
    <path d="M 198.52957153320312 393.98333740234375 C 188.92926025390625 397.019775390625 181.52210998535156 401.0648498535156 177.12779235839844 413.616943359375 C 180.2325439453125 424.3101501464844 178.136962890625 432.7188720703125 176.70069885253906 445.97235107421875 C 179.90431213378906 450.6623229980469 189.46929931640625 450.1250305175781 189.30322265625 461.72802734375 C 197.8844451904297 457.5075988769531 206.735595703125 455.3299560546875 208.61802673339844 445.8346252441406 C 210.012939453125 429.14581298828125 206.27056884765625 422.2815856933594 209.53121948242188 412.702880859375 C 208.33363342285156 400.2174987792969 204.29539489746094 397.9995422363281 198.52957153320312 393.98333740234375" stroke-width="0.0" fill="rgb(113, 96, 80)" opacity="0.9983155" stroke="rgb(0, 0, 0)" stroke-opacity="1.0" stroke-linecap="round" stroke-linejoin="round"/>
    <path d="M 237.78628540039062 377.0063171386719 C 228.26780700683594 370.3152160644531 226.478759765625 373.3263244628906 222.4110870361328 383.5885925292969 C 226.58505249023438 399.7413330078125 220.5458526611328 401.45916748046875 214.92543029785156 419.9834289550781 C 216.8720245361328 426.1569519042969 216.6666717529297 436.3866882324219 222.21881103515625 442.8964538574219 C 232.83848571777344 431.22247314453125 246.71881103515625 424.3986511230469 257.79888916015625 413.74359130859375 C 255.08067321777344 393.4083251953125 238.45050048828125 403.7652282714844 237.78628540039062 377.0063171386719" stroke-width="0.0" fill="rgb(105, 90, 79)" opacity="0.9966832" stroke="rgb(0, 0, 0)" stroke-opacity="1.0" stroke-linecap="round" stroke-linejoin="round"/>
    <path d="M 32.23299789428711 319.2989196777344 C 32.3935432434082 324.8668212890625 33.47252655029297 333.4690856933594 31.685014724731445 344.48681640625 C 47.56332015991211 346.0545654296875 64.97102355957031 346.5521545410156 66.31907653808594 344.3288879394531 C 68.49542999267578 337.7132568359375 65.8204116821289 315.9852294921875 67.0966796875 313.3765869140625 C 47.68897247314453 312.63995361328125 39.78614044189453 310.9471740722656 32.23299789428711 319.2989196777344" stroke-width="0.0" fill="rgb(88, 77, 65)" opacity="1.0026082" stroke="rgb(0, 0, 0)" stroke-opacity="1.0" stroke-linecap="round" stroke-linejoin="round"/>
    <path d="M 78.32337951660156 337.6464538574219 C 76.3725357055664 346.0296630859375 76.50654602050781 344.17437744140625 84.552490234375 347.3726501464844 C 101.0368423461914 346.0970153808594 119.41403198242188 347.1525573730469 130.31459045410156 345.2347412109375 C 130.30931091308594 336.49700927734375 119.22049713134766 334.7983093261719 116.57317352294922 329.49884033203125 C 109.29476165771484 325.6797790527344 105.14253234863281 326.0462951660156 92.96273803710938 324.64813232421875 C 88.44448852539062 326.8845520019531 81.75006866455078 332.2810974121094 78.32337951660156 337.6464538574219" stroke-width="0.0" fill="rgb(136, 127, 119)" opacity="0.92107046" stroke="rgb(0, 0, 0)" stroke-opacity="1.0" stroke-linecap="round" stroke-linejoin="round"/>
    <path d="M 518.0902099609375 86.53641510009766 C 508.70098876953125 95.82379913330078 504.8366394042969 101.17117309570312 502.4287414550781 102.71794891357422 C 501.8671875 108.15277862548828 501.83526611328125 111.86624145507812 509.37420654296875 115.6000747680664 C 519.5299072265625 114.39427947998047 521.1624145507812 108.61177825927734 518.0902099609375 86.53641510009766" stroke-width="0.0" fill="rgb(121, 104, 91)" opacity="0.99972063" stroke="rgb(0, 0, 0)" stroke-opacity="1.0" stroke-linecap="round" stroke-linejoin="round"/>
    <path d="M 518.62353515625 242.45254516601562 C 501.8094787597656 245.2861328125 485.74102783203125 242.93966674804688 481.9924621582031 243.9308624267578 C 475.0233154296875 284.99920654296875 472.7096252441406 334.9737548828125 475.0009765625 390.0503845214844 C 486.8019104003906 387.2691345214844 501.9509582519531 388.870361328125 518.0122680664062 381.997802734375 C 518.3140869140625 336.43243408203125 518.3479614257812 290.2500305175781 518.62353515625 242.45254516601562" stroke-width="0.0" fill="rgb(163, 153, 142)" opacity="0.90073013" stroke="rgb(0, 0, 0)" stroke-opacity="1.0" stroke-linecap="round" stroke-linejoin="round"/>
    <path d="M 190.2137451171875 197.44764709472656 C 176.77191162109375 205.97508239746094 182.4724578857422 221.12673950195312 172.80113220214844 222.6995849609375 C 180.6151885986328 278.3373107910156 173.65243530273438 344.1734924316406 177.6986846923828 410.5041809082031 C 188.1212158203125 378.0472106933594 183.2343292236328 318.3760070800781 185.80201721191406 271.4271240234375 C 188.50436401367188 259.8888854980469 193.25277709960938 242.69544982910156 198.50567626953125 226.21356201171875 C 187.94915771484375 222.73910522460938 200.59814453125 208.49215698242188 190.2137451171875 197.44764709472656" stroke-width="0.0" fill="rgb(140, 130, 122)" opacity="0.9935419" stroke="rgb(0, 0, 0)" stroke-opacity="1.0" stroke-linecap="round" stroke-linejoin="round"/>
    <path d="M 456.4593505859375 170.5830535888672 C 453.9237976074219 184.7813720703125 464.08953857421875 188.02317810058594 470.4584655761719 198.10231018066406 C 480.6705627441406 192.16273498535156 496.9912109375 193.6399688720703 500.3090515136719 185.8058319091797 C 498.90081787109375 187.0242156982422 503.630126953125 186.6493377685547 518.458984375 186.37872314453125 C 518.79150390625 174.69088745117188 520.5608520507812 161.17469787597656 520.51806640625 155.25253295898438 C 495.0184020996094 157.65135192871094 489.1127014160156 155.55508422851562 482.2828063964844 149.45401000976562 C 472.4171142578125 157.84381103515625 459.45648193359375 160.20945739746094 456.4593505859375 170.5830535888672" stroke-width="0.0" fill="rgb(168, 156, 143)" opacity="0.9937847" stroke="rgb(0, 0, 0)" stroke-opacity="1.0" stroke-linecap="round" stroke-linejoin="round"/>
    <path d="M 501.42266845703125 186.0638885498047 C 488.82366943359375 187.9041748046875 484.783447265625 199.1892852783203 478.2198486328125 206.19918823242188 C 481.730224609375 219.0615997314453 487.2921142578125 228.14601135253906 487.6486511230469 239.94949340820312 C 494.1348571777344 239.650634765625 497.5162353515625 243.1097869873047 502.5032043457031 242.01083374023438 C 506.29339599609375 241.50341796875 509.2713928222656 241.0535430908203 517.543701171875 237.91514587402344 C 517.8745727539062 222.98182678222656 517.924560546875 207.42820739746094 519.0172729492188 187.57398986816406 C 510.6320495605469 185.2487335205078 506.4618835449219 185.64915466308594 501.42266845703125 186.0638885498047" stroke-width="0.0" fill="rgb(150, 131, 110)" opacity="0.97677916" stroke="rgb(0, 0, 0)" stroke-opacity="1.0" stroke-linecap="round" stroke-linejoin="round"/>
    <path d="M 15.598214149475098 199.80227661132812 C 6.129213809967041 196.14797973632812 4.597121238708496 202.50413513183594 -6.701636791229248 212.3214874267578 C -9.779712677001953 233.122802734375 -9.877941131591797 253.65335083007812 -9.826093673706055 263.09405517578125 C 8.414530754089355 261.9336242675781 16.21578598022461 265.995849609375 20.533981323242188 258.5796813964844 C 24.058809280395508 248.2229461669922 23.45629119873047 232.77078247070312 29.225561141967773 222.51321411132812 C 21.653034210205078 214.0418243408203 26.663171768188477 201.48727416992188 15.598214149475098 199.80227661132812" stroke-width="0.0" fill="rgb(109, 101, 100)" opacity="0.99849975" stroke="rgb(0, 0, 0)" stroke-opacity="1.0" stroke-linecap="round" stroke-linejoin="round"/>
    <path d="M -6.447654724121094 307.53045654296875 C -5.990444660186768 319.8592224121094 -6.271074295043945 335.1600341796875 -6.128604888916016 350.0611267089844 C 12.002683639526367 345.23968505859375 16.098169326782227 340.3741760253906 29.1825008392334 339.3473815917969 C 33.278831481933594 324.1626892089844 30.63484764099121 317.6847839355469 25.501028060913086 308.82147216796875 C 25.203798294067383 307.0437927246094 7.549724102020264 309.05902099609375 -6.447654724121094 307.53045654296875" stroke-width="0.0" fill="rgb(89, 74, 63)" opacity="0.945187" stroke="rgb(0, 0, 0)" stroke-opacity="1.0" stroke-linecap="round" stroke-linejoin="round"/>
    <path d="M -7.112207889556885 264.4376525878906 C -4.836338996887207 277.9287414550781 -4.200324058532715 292.481689453125 0.03174686059355736 307.4607238769531 C 11.961668014526367 303.70587158203125 14.513069152832031 310.8370666503906 24.547334671020508 304.98291015625 C 23.931072235107422 292.1913757324219 19.4112548828125 279.4641418457031 20.07926368713379 263.6394958496094 C 7.281466484069824 263.7733459472656 -0.030893415212631226 264.5546875 -7.112207889556885 264.4376525878906" stroke-width="0.0" fill="rgb(89, 74, 53)" opacity="1.0049866" stroke="rgb(0, 0, 0)" stroke-opacity="1.0" stroke-linecap="round" stroke-linejoin="round"/>
    <path d="M 491.351806640625 108.22083282470703 C 491.0265808105469 131.23272705078125 490.9300537109375 126.94615936279297 483.6520690917969 140.82373046875 C 484.24114990234375 151.8238525390625 490.55572509765625 154.10928344726562 503.009033203125 154.4193572998047 C 507.8747253417969 145.6265869140625 508.7096862792969 131.51519775390625 513.2603149414062 117.65061950683594 C 499.66632080078125 115.04930114746094 501.8059387207031 100.72002410888672 491.351806640625 108.22083282470703" stroke-width="0.0" fill="rgb(187, 183, 179)" opacity="0.999123" stroke="rgb(0, 0, 0)" stroke-opacity="1.0" stroke-linecap="round" stroke-linejoin="round"/>
    <path d="M 126.40835571289062 309.88079833984375 C 125.35657501220703 309.9073486328125 124.06752014160156 326.9490661621094 124.38592529296875 333.0057067871094 C 130.79954528808594 340.572265625 137.39222717285156 340.1279602050781 149.892822265625 338.8441467285156 C 150.38705444335938 323.9281921386719 150.47256469726562 318.0625 144.7681884765625 308.5975036621094 C 143.1815948486328 305.755615234375 132.33892822265625 303.25750732421875 126.40835571289062 309.88079833984375" stroke-width="0.0" fill="rgb(161, 152, 140)" opacity="0.9982992" stroke="rgb(0, 0, 0)" stroke-opacity="1.0" stroke-linecap="round" stroke-linejoin="round"/>
    <path d="M 106.03622436523438 20.01995086669922 C 74.17403411865234 18.72408676147461 89.647216796875 46.091758728027344 69.21336364746094 42.11428451538086 C 68.4082260131836 48.98876190185547 70.7384262084961 57.655582427978516 74.30535888671875 59.34071731567383 C 78.92172241210938 56.33591842651367 90.36515808105469 57.56869125366211 92.7170181274414 54.85108947753906 C 91.01150512695312 32.35633850097656 101.98310089111328 33.18904113769531 106.03622436523438 20.01995086669922" stroke-width="0.0" fill="rgb(232, 231, 227)" opacity="1.0002319" stroke="rgb(0, 0, 0)" stroke-opacity="1.0" stroke-linecap="round" stroke-linejoin="round"/>
    <path d="M 148.29393005371094 265.9954528808594 C 146.0868682861328 264.9785461425781 126.62644958496094 267.9197998046875 111.2750244140625 268.38214111328125 C 118.98291015625 275.3648681640625 122.94141387939453 281.010498046875 119.6660385131836 293.66192626953125 C 128.082275390625 288.6025085449219 136.8795166015625 286.375732421875 146.08168029785156 283.1864929199219 C 152.063232421875 277.8093566894531 155.22134399414062 277.1169738769531 148.29393005371094 265.9954528808594" stroke-width="0.0" fill="rgb(108, 99, 93)" opacity="0.82240546" stroke="rgb(0, 0, 0)" stroke-opacity="1.0" stroke-linecap="round" stroke-linejoin="round"/>
    <path d="M 179.27943420410156 442.63690185546875 C 173.04049682617188 447.6218566894531 167.06753540039062 451.9286804199219 162.63385009765625 456.2513427734375 C 161.8797607421875 465.396484375 160.5420379638672 473.67315673828125 163.2052764892578 477.6385803222656 C 171.77479553222656 475.0906066894531 179.35757446289062 469.7342834472656 185.28977966308594 467.221435546875 C 186.99119567871094 461.0165710449219 188.17051696777344 457.44281005859375 186.20579528808594 451.1035461425781 C 182.32777404785156 449.4478759765625 175.94467163085938 446.3982238769531 179.27943420410156 442.63690185546875" stroke-width="0.0" fill="rgb(136, 107, 89)" opacity="0.9814646" stroke="rgb(0, 0, 0)" stroke-opacity="1.0" stroke-linecap="round" stroke-linejoin="round"/>
    <path d="M 206.4941864013672 372.64617919921875 C 203.2919464111328 373.5063171386719 198.0472412109375 377.8193359375 197.9266815185547 380.5252380371094 C 197.39894104003906 393.30169677734375 197.5107421875 396.7134704589844 194.2767333984375 394.9111633300781 C 201.2817840576172 394.5643615722656 202.02316284179688 397.40057373046875 205.54225158691406 398.3085021972656 C 212.12863159179688 396.4959411621094 214.55816650390625 390.79302978515625 218.5315704345703 383.7381286621094 C 216.3456268310547 377.1610107421875 214.2050323486328 372.8283996582031 206.4941864013672 372.64617919921875" stroke-width="0.0" fill="rgb(114, 96, 82)" opacity="1.0378504" stroke="rgb(0, 0, 0)" stroke-opacity="1.0" stroke-linecap="round" stroke-linejoin="round"/>
    <path d="M 123.10787963867188 519.3065795898438 C 124.27571868896484 500.3170471191406 118.58514404296875 500.64569091796875 112.76395416259766 499.3150634765625 C 109.02911376953125 505.5351867675781 98.69664001464844 507.1586608886719 91.37158966064453 517.23046875 C 116.74208068847656 522.232421875 125.36893463134766 521.0975341796875 123.10787963867188 519.3065795898438" stroke-width="0.0" fill="rgb(116, 93, 72)" opacity="1.0123261" stroke="rgb(0, 0, 0)" stroke-opacity="1.0" stroke-linecap="round" stroke-linejoin="round"/>
    <path d="M -0.5187395215034485 495.4117736816406 C -6.326706409454346 499.8472595214844 -3.4850871562957764 505.05328369140625 0.3772589862346649 517.1531982421875 C 6.297177314758301 519.0150756835938 7.633312702178955 518.8175048828125 9.872191429138184 507.82403564453125 C 11.723064422607422 502.135498046875 5.425811767578125 499.38800048828125 -0.5187395215034485 495.4117736816406" stroke-width="0.0" fill="rgb(114, 94, 67)" opacity="1.001505" stroke="rgb(0, 0, 0)" stroke-opacity="1.0" stroke-linecap="round" stroke-linejoin="round"/>
    <path d="M 513.041748046875 383.365966796875 C 504.7808837890625 383.56976318359375 501.71209716796875 390.1507873535156 497.12030029296875 394.5817565917969 C 501.25738525390625 398.5411682128906 506.1142883300781 395.93914794921875 516.1154174804688 394.39208984375 C 517.3119506835938 389.3227233886719 518.1122436523438 385.1223449707031 513.041748046875 383.365966796875" stroke-width="0.0" fill="rgb(178, 156, 133)" opacity="0.99989283" stroke="rgb(0, 0, 0)" stroke-opacity="1.0" stroke-linecap="round" stroke-linejoin="round"/>
    <path d="M 30.018062591552734 262.1517639160156 C 35.91023254394531 264.7488098144531 34.80901336669922 266.8367004394531 34.615745544433594 264.0789489746094 C 33.536964416503906 269.1749572753906 31.022245407104492 273.6358337402344 25.483654022216797 269.6479797363281 C 26.932863235473633 265.9902038574219 30.211273193359375 261.640380859375 30.018062591552734 262.1517639160156" stroke-width="0.0" fill="rgb(91, 80, 68)" opacity="1.0024977" stroke="rgb(0, 0, 0)" stroke-opacity="1.0" stroke-linecap="round" stroke-linejoin="round"/>
    <path d="M 425.5240783691406 193.4180450439453 C 433.83721923828125 205.51271057128906 435.53985595703125 225.50917053222656 440.6963195800781 244.70162963867188 C 446.784423828125 251.62481689453125 451.24359130859375 262.8980712890625 457.7662353515625 272.4866027832031 C 467.7748107910156 265.4281311035156 474.14923095703125 257.1318664550781 478.81072998046875 246.36680603027344 C 481.0813903808594 236.99156188964844 482.2951354980469 229.26229858398438 479.3533935546875 217.37733459472656 C 473.2284851074219 205.09487915039062 467.89666748046875 197.96832275390625 457.46197509765625 192.13958740234375 C 449.6631774902344 192.1671905517578 433.3026428222656 190.4447021484375 425.5240783691406 193.4180450439453" stroke-width="0.0" fill="rgb(13, 10, 9)" opacity="0.9893517" stroke="rgb(0, 0, 0)" stroke-opacity="1.0" stroke-linecap="round" stroke-linejoin="round"/>
    <path d="M 273.26409912109375 237.06333923339844 C 261.7752380371094 241.69297790527344 253.240966796875 248.58932495117188 244.9800262451172 255.84295654296875 C 239.42770385742188 261.28546142578125 236.7140350341797 269.400146484375 234.8490447998047 282.5135192871094 C 234.64137268066406 290.27716064453125 236.40777587890625 299.01715087890625 240.73330688476562 305.8995666503906 C 246.69100952148438 314.7431335449219 254.23866271972656 322.4638366699219 265.58636474609375 323.0888366699219 C 269.8831481933594 324.20367431640625 272.8702697753906 324.7880554199219 274.5029296875 321.60198974609375 C 268.30328369140625 305.6041564941406 258.9498291015625 298.1070251464844 260.9745178222656 274.1013488769531 C 265.9659423828125 267.4808349609375 267.54241943359375 249.95660400390625 273.26409912109375 237.06333923339844" stroke-width="0.0" fill="rgb(20, 15, 13)" opacity="0.9677443" stroke="rgb(0, 0, 0)" stroke-opacity="1.0" stroke-linecap="round" stroke-linejoin="round"/>
    <path d="M 390.2042236328125 236.5477752685547 C 387.4002685546875 239.29737854003906 389.21533203125 243.0902557373047 393.0304870605469 245.41778564453125 C 395.2444152832031 245.0251007080078 399.6015930175781 243.86720275878906 399.89837646484375 240.66065979003906 C 398.9744567871094 235.01123046875 396.6212158203125 234.45298767089844 390.2042236328125 236.5477752685547" stroke-width="0.0" fill="rgb(18, 9, 4)" opacity="1.0009326" stroke="rgb(0, 0, 0)" stroke-opacity="1.0" stroke-linecap="round" stroke-linejoin="round"/>
    <path d="M 281.4492492675781 473.8101501464844 C 278.92724609375 487.6158142089844 283.1385803222656 497.8995666503906 281.7149658203125 518.2664794921875 C 326.8067932128906 518.3397827148438 372.34161376953125 518.48291015625 419.84185791015625 518.5006103515625 C 417.7883605957031 503.3764343261719 421.9339294433594 498.5081787109375 418.5021667480469 494.2488098144531 C 411.45770263671875 497.1642761230469 412.8188171386719 494.7267761230469 408.3365173339844 494.7485046386719 C 407.1423645019531 485.83154296875 408.7376708984375 476.0845642089844 408.3402404785156 473.9087829589844 C 385.89239501953125 473.37054443359375 366.6599426269531 476.5044250488281 346.2369689941406 479.3304443359375 C 329.989013671875 466.37835693359375 308.9260559082031 482.3900451660156 294.93780517578125 469.5122985839844 C 285.06805419921875 468.07147216796875 288.1448669433594 474.44256591796875 281.4492492675781 473.8101501464844" stroke-width="0.0" fill="rgb(158, 89, 69)" opacity="1.0004646" stroke="rgb(0, 0, 0)" stroke-opacity="1.0" stroke-linecap="round" stroke-linejoin="round"/>
    <path d="M 513.770751953125 458.3145446777344 C 518.3701171875 437.35247802734375 519.84423828125 420.2715759277344 519.0061645507812 406.8954772949219 C 500.7882080078125 410.3174743652344 483.67486572265625 408.4182434082031 472.18548583984375 408.8385925292969 C 468.1038818359375 410.7026062011719 465.84161376953125 413.765869140625 461.2359924316406 416.9231872558594 C 475.13250732421875 431.66229248046875 497.0808410644531 439.7413024902344 513.770751953125 458.3145446777344" stroke-width="0.0" fill="rgb(105, 88, 74)" opacity="1.0265445" stroke="rgb(0, 0, 0)" stroke-opacity="1.0" stroke-linecap="round" stroke-linejoin="round"/>
    <path d="M 310.7254943847656 235.06015014648438 C 308.26458740234375 237.78564453125 305.3080139160156 237.46429443359375 307.2452087402344 242.71986389160156 C 309.86517333984375 245.80494689941406 309.8327941894531 247.21099853515625 314.836181640625 245.83505249023438 C 318.7137451171875 243.9662322998047 319.7087707519531 242.9481201171875 319.1388244628906 237.68617248535156 C 317.6585998535156 234.13540649414062 315.4642028808594 234.80908203125 310.7254943847656 235.06015014648438" stroke-width="0.0" fill="rgb(17, 8, 5)" opacity="1.0013549" stroke="rgb(0, 0, 0)" stroke-opacity="1.0" stroke-linecap="round" stroke-linejoin="round"/>
    <path d="M -1.6166266202926636 349.61761474609375 C -4.966163635253906 351.53314208984375 -4.948697566986084 356.2749328613281 -6.628416538238525 359.7685241699219 C 55.0955924987793 362.301025390625 112.5058822631836 360.4848327636719 162.2918243408203 360.99468994140625 C 166.07986450195312 355.17596435546875 164.88253784179688 351.2038879394531 158.41294860839844 349.5528564453125 C 105.04472351074219 350.5028381347656 50.75309371948242 345.1152038574219 -1.6166266202926636 349.61761474609375" stroke-width="0.0" fill="rgb(76, 62, 51)" opacity="0.91621697" stroke="rgb(0, 0, 0)" stroke-opacity="1.0" stroke-linecap="round" stroke-linejoin="round"/>
    <path d="M 24.587913513183594 449.949462890625 C 17.3062686920166 464.815673828125 16.607519149780273 478.763671875 24.076417922973633 502.66107177734375 C 20.69631004333496 498.6773681640625 26.348268508911133 497.763671875 30.13779640197754 498.9142761230469 C 31.22171974182129 502.61810302734375 24.56680679321289 504.2148132324219 31.59876823425293 517.088134765625 C 39.45125198364258 518.5762329101562 49.55173110961914 519.9356079101562 55.20804977416992 519.2130126953125 C 58.2361946105957 490.2245788574219 51.513702392578125 479.0269775390625 46.413230895996094 467.68829345703125 C 47.130802154541016 459.55108642578125 40.05086898803711 453.1827392578125 38.735111236572266 449.15972900390625 C 35.72938537597656 446.2993469238281 22.273853302001953 449.75787353515625 24.587913513183594 449.949462890625" stroke-width="0.0" fill="rgb(144, 115, 93)" opacity="0.8513963" stroke="rgb(0, 0, 0)" stroke-opacity="1.0" stroke-linecap="round" stroke-linejoin="round"/>
    <path d="M 49.57772445678711 465.3599853515625 C 50.41074752807617 481.88018798828125 55.59741973876953 495.5910339355469 59.13276290893555 516.9321899414062 C 68.08997344970703 517.1250610351562 78.14312744140625 517.7422485351562 89.90430450439453 516.213134765625 C 85.67840576171875 499.3988037109375 84.1482162475586 487.97723388671875 78.7018051147461 480.7223815917969 C 70.89935302734375 473.3191223144531 62.10619354248047 468.2928161621094 49.57772445678711 465.3599853515625" stroke-width="0.0" fill="rgb(146, 128, 108)" opacity="0.99867266" stroke="rgb(0, 0, 0)" stroke-opacity="1.0" stroke-linecap="round" stroke-linejoin="round"/>
    <path d="M 104.5628662109375 326.951171875 C 97.8599853515625 330.86248779296875 96.9754638671875 322.8321228027344 88.8703842163086 327.2347106933594 C 82.77738952636719 331.80755615234375 77.98375701904297 336.3235168457031 77.77606201171875 343.8140869140625 C 81.28546142578125 348.1866760253906 88.97614288330078 347.532470703125 97.38294219970703 346.6867370605469 C 102.03852081298828 342.279541015625 102.24948120117188 332.4031066894531 104.5628662109375 326.951171875" stroke-width="0.0" fill="rgb(85, 76, 69)" opacity="1.0060719" stroke="rgb(0, 0, 0)" stroke-opacity="1.0" stroke-linecap="round" stroke-linejoin="round"/>
    <path d="M 351.22021484375 282.74383544921875 C 345.3163757324219 283.51507568359375 342.2095031738281 287.4183044433594 345.0992126464844 294.36810302734375 C 348.1823425292969 297.1668701171875 348.17120361328125 306.1083068847656 355.0311584472656 305.0871276855469 C 363.0320129394531 303.6764831542969 364.06097412109375 297.4434814453125 362.1893005371094 289.1729431152344 C 359.9581298828125 284.3534851074219 358.2811279296875 281.9588623046875 351.22021484375 282.74383544921875" stroke-width="0.0" fill="rgb(180, 120, 98)" opacity="1.0030721" stroke="rgb(0, 0, 0)" stroke-opacity="1.0" stroke-linecap="round" stroke-linejoin="round"/>
    <path d="M 107.2920150756836 331.9405212402344 C 105.17018127441406 333.8203430175781 105.33924865722656 340.03045654296875 106.17936706542969 345.209716796875 C 113.72836303710938 346.2131042480469 127.07500457763672 347.2307434082031 129.6675262451172 344.2040100097656 C 129.42161560058594 336.3697204589844 119.4909896850586 334.401611328125 114.5130615234375 327.48162841796875 C 114.06392669677734 327.35870361328125 108.10785675048828 331.0635681152344 107.2920150756836 331.9405212402344" stroke-width="0.0" fill="rgb(104, 93, 85)" opacity="0.96972114" stroke="rgb(0, 0, 0)" stroke-opacity="1.0" stroke-linecap="round" stroke-linejoin="round"/>
    <path d="M 22.14136505126953 366.7879943847656 C 14.416545867919922 361.1217346191406 6.228925704956055 364.1586608886719 -8.894044876098633 371.26898193359375 C -8.876216888427734 389.289794921875 -9.027201652526855 407.10626220703125 -7.274064540863037 417.3243103027344 C 10.825215339660645 416.52203369140625 18.13395118713379 417.5993347167969 21.40109634399414 415.3092956542969 C 22.599140167236328 396.75360107421875 22.056659698486328 376.2792663574219 22.14136505126953 366.7879943847656" stroke-width="0.0" fill="rgb(70, 56, 44)" opacity="1.0003527" stroke="rgb(0, 0, 0)" stroke-opacity="1.0" stroke-linecap="round" stroke-linejoin="round"/>
    <path d="M 475.43402099609375 24.051301956176758 C 474.43341064453125 15.733407020568848 470.0149230957031 12.02377986907959 462.30340576171875 8.76000690460205 C 450.80499267578125 12.119422912597656 438.116943359375 6.544309139251709 433.1770935058594 13.63598346710205 C 430.4793701171875 19.675397872924805 431.1687316894531 27.221071243286133 436.4661865234375 32.914791107177734 C 445.3250427246094 34.37238693237305 456.7175598144531 36.02482223510742 466.91748046875 40.19395065307617 C 474.6296691894531 36.12424850463867 477.7022705078125 32.200218200683594 475.43402099609375 24.051301956176758" stroke-width="0.0" fill="rgb(195, 190, 182)" opacity="0.9682637" stroke="rgb(0, 0, 0)" stroke-opacity="1.0" stroke-linecap="round" stroke-linejoin="round"/>
    <path d="M 126.92301940917969 362.95489501953125 C 121.70466613769531 370.23388671875 122.87530517578125 374.8830871582031 123.04668426513672 390.6004943847656 C 133.80848693847656 390.3687438964844 149.73777770996094 389.89691162109375 161.24322509765625 390.80499267578125 C 163.0275421142578 381.1855773925781 160.48655700683594 369.3658142089844 159.9438018798828 362.12237548828125 C 147.82264709472656 361.9649963378906 133.66641235351562 361.4425964355469 126.92301940917969 362.95489501953125" stroke-width="0.0" fill="rgb(37, 29, 27)" opacity="0.9732698" stroke="rgb(0, 0, 0)" stroke-opacity="1.0" stroke-linecap="round" stroke-linejoin="round"/>
    <path d="M 201.4370574951172 422.22601318359375 C 189.64901733398438 423.9025573730469 177.99119567871094 423.5756530761719 179.65126037597656 433.8397521972656 C 169.23284912109375 455.7835388183594 195.0321502685547 440.0940856933594 184.71575927734375 464.7809143066406 C 194.92774963378906 460.4544677734375 202.4857177734375 455.7022399902344 207.3343048095703 449.98541259765625 C 210.28494262695312 432.81292724609375 206.86561584472656 428.3208923339844 201.4370574951172 422.22601318359375" stroke-width="0.0" fill="rgb(104, 84, 68)" opacity="0.99684274" stroke="rgb(0, 0, 0)" stroke-opacity="1.0" stroke-linecap="round" stroke-linejoin="round"/>
    <path d="M 195.60130310058594 393.2155456542969 C 188.2466583251953 395.4036865234375 182.14501953125 403.86383056640625 175.7469940185547 413.1604309082031 C 175.8336181640625 418.43121337890625 179.43685913085938 421.18829345703125 183.55177307128906 424.88232421875 C 190.77658081054688 424.61175537109375 197.86868286132812 421.5899353027344 205.8372344970703 423.3130798339844 C 207.9917449951172 419.5188903808594 207.21339416503906 413.41204833984375 208.50643920898438 408.0873718261719 C 206.34922790527344 400.28173828125 206.05029296875 395.01507568359375 195.60130310058594 393.2155456542969" stroke-width="0.0" fill="rgb(134, 119, 105)" opacity="0.99600655" stroke="rgb(0, 0, 0)" stroke-opacity="1.0" stroke-linecap="round" stroke-linejoin="round"/>
    <path d="M 225.36912536621094 375.11492919921875 C 222.84689331054688 375.8909912109375 220.03512573242188 377.8290710449219 220.85235595703125 384.49969482421875 C 225.2900390625 390.48828125 224.44439697265625 399.8056335449219 231.5553436279297 403.74713134765625 C 235.158447265625 399.5747985839844 239.96128845214844 397.9146423339844 241.40286254882812 394.64581298828125 C 238.7205810546875 384.8174133300781 239.84994506835938 379.1351623535156 236.2298126220703 375.9634094238281 C 234.69692993164062 373.5361022949219 228.5358123779297 373.1203918457031 225.36912536621094 375.11492919921875" stroke-width="0.0" fill="rgb(100, 72, 62)" opacity="0.9954124" stroke="rgb(0, 0, 0)" stroke-opacity="1.0" stroke-linecap="round" stroke-linejoin="round"/>
    <path d="M 146.0428466796875 426.8135681152344 C 143.4556121826172 430.39923095703125 142.03709411621094 436.12713623046875 144.75732421875 437.6195068359375 C 149.63905334472656 439.5731201171875 156.2133331298828 436.2073669433594 160.5443878173828 439.1931457519531 C 164.33209228515625 434.3096923828125 161.5106201171875 429.96881103515625 157.7150115966797 426.3208923339844 C 154.36952209472656 425.6517028808594 147.01730346679688 425.77032470703125 146.0428466796875 426.8135681152344" stroke-width="0.0" fill="rgb(64, 52, 49)" opacity="0.99799144" stroke="rgb(0, 0, 0)" stroke-opacity="1.0" stroke-linecap="round" stroke-linejoin="round"/>
    <path d="M 126.0924301147461 425.7926025390625 C 122.81448364257812 431.01568603515625 122.91960144042969 432.5558776855469 126.90453338623047 437.30743408203125 C 130.7019805908203 436.78155517578125 142.09454345703125 437.8181457519531 141.52560424804688 436.4860534667969 C 144.21017456054688 432.5986328125 139.6930694580078 426.86199951171875 138.57398986816406 426.0945129394531 C 132.20140075683594 421.8090515136719 129.9366912841797 425.3698425292969 126.0924301147461 425.7926025390625" stroke-width="0.0" fill="rgb(44, 37, 33)" opacity="1.0000689" stroke="rgb(0, 0, 0)" stroke-opacity="1.0" stroke-linecap="round" stroke-linejoin="round"/>
    <path d="M 117.81280517578125 361.2384338378906 C 125.635009765625 358.2278747558594 119.72114562988281 368.787841796875 122.8591537475586 369.89105224609375 C 120.89808654785156 377.9669189453125 124.42916107177734 396.14703369140625 118.3293685913086 399.1690673828125 C 115.26246643066406 385.2285461425781 118.31207275390625 367.01275634765625 117.81280517578125 361.2384338378906" stroke-width="0.0" fill="rgb(76, 68, 64)" opacity="0.99810845" stroke="rgb(0, 0, 0)" stroke-opacity="1.0" stroke-linecap="round" stroke-linejoin="round"/>
    <path d="M 116.67726135253906 437.46728515625 C 120.8999252319336 434.87884521484375 121.95816040039062 437.78326416015625 120.83365631103516 440.8685302734375 C 121.69019317626953 441.1785583496094 123.39483642578125 452.26153564453125 122.26538848876953 452.0474548339844 C 113.02510833740234 453.8216247558594 116.00872802734375 447.9805908203125 116.67726135253906 437.46728515625" stroke-width="0.0" fill="rgb(71, 62, 57)" opacity="0.99801713" stroke="rgb(0, 0, 0)" stroke-opacity="1.0" stroke-linecap="round" stroke-linejoin="round"/>
    <path d="M 284.9450378417969 452.5218505859375 C 280.9339599609375 471.3633117675781 279.63165283203125 490.18499755859375 282.7819519042969 516.4724731445312 C 293.25567626953125 520.3095703125 309.1458435058594 522.3030395507812 319.53021240234375 518.086181640625 C 306.6214904785156 490.34857177734375 295.0956726074219 473.92083740234375 284.9450378417969 452.5218505859375" stroke-width="0.0" fill="rgb(121, 66, 52)" opacity="0.8952917" stroke="rgb(0, 0, 0)" stroke-opacity="1.0" stroke-linecap="round" stroke-linejoin="round"/>
    <path d="M 22.09248161315918 448.888916015625 C 23.024085998535156 458.05194091796875 14.630183219909668 466.2490539550781 19.733118057250977 473.13787841796875 C 25.556377410888672 479.40972900390625 32.65447998046875 474.3804626464844 43.02750015258789 470.71905517578125 C 46.20132064819336 465.6023254394531 45.20512008666992 459.52587890625 43.1756591796875 453.1919860839844 C 39.281837463378906 446.65545654296875 33.55731201171875 446.7438049316406 22.09248161315918 448.888916015625" stroke-width="0.0" fill="rgb(117, 93, 74)" opacity="0.9665596" stroke="rgb(0, 0, 0)" stroke-opacity="1.0" stroke-linecap="round" stroke-linejoin="round"/>
    <path d="M 282.7577209472656 427.86883544921875 C 278.156982421875 446.4903564453125 289.68145751953125 455.76763916015625 291.94378662109375 468.4382019042969 C 303.4898376464844 480.3155517578125 306.8378601074219 502.21173095703125 322.1553039550781 518.0220336914062 C 310.7330627441406 482.2187805175781 289.9972839355469 464.114990234375 282.7577209472656 427.86883544921875" stroke-width="0.0" fill="rgb(99, 61, 48)" opacity="0.9165191" stroke="rgb(0, 0, 0)" stroke-opacity="1.0" stroke-linecap="round" stroke-linejoin="round"/>
    <path d="M 50.97663497924805 486.13677978515625 C 45.80897903442383 493.3690185546875 39.18124771118164 501.7467346191406 38.366329193115234 512.0639038085938 C 42.725162506103516 520.4058837890625 49.30001449584961 518.8040771484375 54.29271697998047 510.2906494140625 C 53.84620666503906 499.7521667480469 56.417015075683594 490.7639465332031 50.97663497924805 486.13677978515625" stroke-width="0.0" fill="rgb(157, 104, 80)" opacity="0.99895686" stroke="rgb(0, 0, 0)" stroke-opacity="1.0" stroke-linecap="round" stroke-linejoin="round"/>
    <path d="M 93.93273162841797 327.49151611328125 C 87.425048828125 328.39239501953125 82.47373962402344 333.14410400390625 83.32479095458984 335.87921142578125 C 85.89762115478516 341.2518310546875 85.78508758544922 344.76434326171875 94.8253402709961 346.08843994140625 C 99.59588623046875 342.9474182128906 103.43555450439453 340.3798522949219 101.9449691772461 333.18292236328125 C 100.17472839355469 329.4452819824219 95.92552947998047 327.6741027832031 93.93273162841797 327.49151611328125" stroke-width="0.0" fill="rgb(106, 99, 91)" opacity="0.9995195" stroke="rgb(0, 0, 0)" stroke-opacity="1.0" stroke-linecap="round" stroke-linejoin="round"/>
    <path d="M 105.7641372680664 333.9565734863281 C 110.42282104492188 338.22210693359375 114.94830322265625 339.8245849609375 117.95471954345703 346.3762512207031 C 125.57476043701172 345.9700012207031 129.915771484375 347.65673828125 130.44020080566406 343.6476135253906 C 127.29369354248047 336.13336181640625 119.80419158935547 332.5425109863281 114.87519073486328 326.1496276855469 C 111.86280822753906 328.9363708496094 110.38735961914062 331.8102111816406 105.7641372680664 333.9565734863281" stroke-width="0.0" fill="rgb(72, 62, 56)" opacity="0.9837924" stroke="rgb(0, 0, 0)" stroke-opacity="1.0" stroke-linecap="round" stroke-linejoin="round"/>
    <path d="M 236.4451904296875 376.1863098144531 C 235.30967712402344 374.4788818359375 230.54832458496094 370.24847412109375 224.10952758789062 375.77288818359375 C 220.50596618652344 378.1053771972656 218.95367431640625 382.4349060058594 223.79725646972656 390.5603332519531 C 228.89918518066406 389.669677734375 231.7362060546875 385.5002746582031 239.5946807861328 384.36102294921875 C 239.9511260986328 379.0109558105469 236.3877410888672 374.5692443847656 236.4451904296875 376.1863098144531" stroke-width="0.0" fill="rgb(115, 99, 84)" opacity="0.98660433" stroke="rgb(0, 0, 0)" stroke-opacity="1.0" stroke-linecap="round" stroke-linejoin="round"/>
  </g>
</svg>
