<?xml version="1.0" ?>
<svg xmlns="http://www.w3.org/2000/svg" version="1.1" width="512" height="512">
  <defs/>
  <g>
    <path d="M -4.072662353515625 -4.084153652191162 C -4.069359302520752 170.3333282470703 -4.069583415985107 340.6666564941406 -4.509341716766357 517.6868286132812 C 168.6910400390625 516.8208618164062 338.8321533203125 516.5193481445312 516.6723022460938 516.6111450195312 C 516.6767578125 340.6859130859375 516.681396484375 170.3531036376953 516.6873168945312 -4.064764976501465 C 340.6666564941406 -4.083085536956787 170.3333282470703 -4.088024139404297 -4.072662353515625 -4.084153652191162" stroke-width="0.0" fill="rgb(230, 232, 240)" opacity="0.8581564" stroke="rgb(0, 0, 0)" stroke-opacity="1.0" stroke-linecap="round" stroke-linejoin="round"/>
    <path d="M 253.81475830078125 29.918922424316406 C 232.5859832763672 36.74181365966797 216.21804809570312 48.89346694946289 203.71792602539062 65.7188491821289 C 192.4881134033203 80.60045623779297 185.83255004882812 100.41728973388672 182.17201232910156 122.97557067871094 C 176.4324951171875 144.68917846679688 177.88827514648438 160.68858337402344 183.2608184814453 177.89907836914062 C 186.56011962890625 203.276611328125 208.21510314941406 210.69639587402344 216.6354522705078 234.1213836669922 C 208.54052734375 231.443359375 199.1842498779297 231.64183044433594 187.66897583007812 234.38397216796875 C 176.765625 240.2194366455078 170.01055908203125 251.88856506347656 160.65878295898438 257.762939453125 C 140.68850708007812 265.1429443359375 117.11119079589844 265.0704345703125 102.85015869140625 272.0907897949219 C 90.84754943847656 284.2155456542969 78.49784851074219 294.3491516113281 69.31758880615234 307.1978759765625 C 64.145263671875 317.6488952636719 60.651763916015625 327.4951477050781 62.81227111816406 340.03204345703125 C 66.09638214111328 351.5035705566406 71.17115783691406 358.75128173828125 78.4895248413086 364.3153991699219 C 83.71186065673828 371.2081298828125 91.77680969238281 375.4308166503906 101.9793472290039 379.2081604003906 C 123.13729095458984 388.2881774902344 152.52169799804688 390.0995178222656 187.5867156982422 389.0444030761719 C 197.199951171875 413.2439270019531 198.6546630859375 444.3382263183594 197.67601013183594 474.3119201660156 C 218.6519317626953 476.8721008300781 235.70785522460938 478.361083984375 255.7909393310547 481.59515380859375 C 281.73626708984375 480.9935302734375 308.1495666503906 477.55194091796875 332.8055725097656 475.1772766113281 C 336.9455871582031 471.3689880371094 342.2580871582031 469.75042724609375 346.0841064453125 464.5622863769531 C 341.70184326171875 463.2796325683594 341.76141357421875 462.5567626953125 343.0130615234375 458.0535888671875 C 343.88507080078125 458.2276306152344 345.49530029296875 463.2614440917969 353.18170166015625 459.18603515625 C 353.2525329589844 449.4497985839844 344.5619201660156 448.30560302734375 346.2732238769531 448.9969787597656 C 348.5134582519531 439.7646789550781 349.9602355957031 429.7168884277344 350.7350769042969 426.06817626953125 C 349.86895751953125 431.29449462890625 346.1522216796875 442.3623962402344 349.26324462890625 455.3135681152344 C 361.4825744628906 473.1827697753906 366.0610656738281 491.6880187988281 369.069580078125 516.9097900390625 C 382.44769287109375 517.9078369140625 401.57208251953125 518.0855102539062 416.8525390625 516.8598022460938 C 412.3593444824219 498.37774658203125 405.65655517578125 490.89404296875 403.9594421386719 475.0726623535156 C 409.1441650390625 460.6128234863281 415.8787841796875 443.59405517578125 418.6982727050781 418.5137634277344 C 416.5664978027344 391.5643005371094 414.94970703125 361.42437744140625 411.1304016113281 339.15283203125 C 398.6754455566406 321.3794250488281 389.7735595703125 303.2475891113281 377.16656494140625 289.7217102050781 C 364.15618896484375 284.390869140625 349.64849853515625 284.52337646484375 335.23089599609375 284.7677001953125 C 327.9265441894531 286.70318603515625 324.906005859375 282.43572998046875 324.96942138671875 282.97296142578125 C 341.85528564453125 258.2974853515625 357.2769775390625 232.20912170410156 384.24749755859375 217.73338317871094 C 392.89410400390625 209.0171356201172 397.2287902832031 195.99778747558594 403.97454833984375 184.83607482910156 C 408.1074523925781 178.3809051513672 408.6788635253906 168.77178955078125 410.46923828125 153.795166015625 C 411.82958984375 131.65005493164062 408.5412292480469 109.89258575439453 403.6093444824219 89.60808563232422 C 398.242919921875 73.70834350585938 389.4335632324219 61.231163024902344 377.02056884765625 52.60551834106445 C 366.5039978027344 42.5707893371582 353.1647644042969 36.081974029541016 338.8985290527344 30.191423416137695 C 327.90093994140625 26.528867721557617 315.3564147949219 24.79851531982422 297.0915222167969 24.455097198486328 C 282.9665222167969 23.091827392578125 266.5838928222656 25.726991653442383 253.81475830078125 29.918922424316406" stroke-width="0.0" fill="rgb(136, 139, 159)" opacity="0.91640544" stroke="rgb(0, 0, 0)" stroke-opacity="1.0" stroke-linecap="round" stroke-linejoin="round"/>
    <path d="M 372.0450744628906 517.679443359375 C 366.8493347167969 489.7491760253906 359.90771484375 475.9837341308594 354.621337890625 462.3084411621094 C 342.62542724609375 471.2171630859375 335.591064453125 474.3455505371094 326.8304443359375 476.4927978515625 C 308.391357421875 479.3673400878906 289.90789794921875 482.8356018066406 270.2096252441406 482.1864929199219 C 249.51141357421875 482.9709167480469 230.5190887451172 480.84564208984375 211.1328582763672 477.57269287109375 C 206.08238220214844 473.5893249511719 201.25062561035156 467.5171203613281 193.33566284179688 465.7799072265625 C 181.95947265625 479.37225341796875 173.9384002685547 493.28582763671875 170.43655395507812 518.796142578125 C 237.4359588623047 518.50244140625 303.9867248535156 518.3812866210938 372.0450744628906 517.679443359375" stroke-width="0.0" fill="rgb(176, 181, 208)" opacity="0.9971648" stroke="rgb(0, 0, 0)" stroke-opacity="1.0" stroke-linecap="round" stroke-linejoin="round"/>
    <path d="M 359.1448669433594 420.0454406738281 C 357.8372497558594 430.9042663574219 345.4797058105469 436.8028869628906 341.66180419921875 444.05084228515625 C 343.37750244140625 450.7565612792969 348.9054260253906 452.4156799316406 352.76507568359375 460.6117858886719 C 354.7601013183594 448.1434326171875 353.6878967285156 428.86370849609375 359.1448669433594 420.0454406738281" stroke-width="0.0" fill="rgb(230, 231, 235)" opacity="1.0120376" stroke="rgb(0, 0, 0)" stroke-opacity="1.0" stroke-linecap="round" stroke-linejoin="round"/>
    <path d="M 321.1121520996094 274.67755126953125 C 319.4777526855469 279.76263427734375 322.20452880859375 282.76568603515625 325.1058349609375 285.0607604980469 C 328.8799133300781 287.800537109375 333.5553283691406 289.5908203125 342.05426025390625 287.2585144042969 C 341.6622009277344 279.3806457519531 340.1351318359375 274.2388000488281 338.9107360839844 269.97979736328125 C 329.54412841796875 269.6636047363281 323.34832763671875 269.8833923339844 321.1121520996094 274.67755126953125" stroke-width="0.0" fill="rgb(241, 242, 244)" opacity="1.0247856" stroke="rgb(0, 0, 0)" stroke-opacity="1.0" stroke-linecap="round" stroke-linejoin="round"/>
    <path d="M 2.3432469367980957 330.1957702636719 C 1.1478824615478516 389.6668701171875 2.5084352493286133 452.21240234375 1.8568921089172363 517.7891235351562 C 54.2244987487793 517.4570922851562 107.1793441772461 516.5733642578125 164.12147521972656 516.6876831054688 C 172.7566680908203 491.150634765625 184.2415008544922 471.48883056640625 196.95286560058594 454.5643005371094 C 194.96304321289062 430.4543151855469 193.6261749267578 408.3515625 185.7307586669922 392.39166259765625 C 159.09805297851562 392.57427978515625 140.7472686767578 391.6191101074219 121.74444580078125 387.27410888671875 C 108.96356201171875 385.730224609375 98.14930725097656 381.4979553222656 88.29654693603516 375.8448181152344 C 79.76022338867188 369.9415283203125 70.59764099121094 365.5715637207031 66.05864715576172 357.1850280761719 C 59.8563346862793 350.2008361816406 58.71235656738281 339.79486083984375 57.02452087402344 320.6722106933594 C 55.53067398071289 339.3704528808594 55.858802795410156 343.58221435546875 48.786685943603516 349.1302490234375 C 47.44482421875 346.0692138671875 46.95441818237305 343.13397216796875 48.81298065185547 340.48736572265625 C 33.08506774902344 341.7881774902344 22.448444366455078 339.1687316894531 8.721004486083984 338.43798828125 C 5.119913101196289 346.6805114746094 11.003677368164062 353.34521484375 5.6679768562316895 355.09747314453125 C 5.166642665863037 347.88690185546875 5.213440895080566 336.7930603027344 2.3432469367980957 330.1957702636719" stroke-width="0.0" fill="rgb(251, 252, 252)" opacity="0.99879485" stroke="rgb(0, 0, 0)" stroke-opacity="1.0" stroke-linecap="round" stroke-linejoin="round"/>
    <path d="M 176.23355102539062 492.3540954589844 C 169.40353393554688 497.6183776855469 167.59706115722656 504.5767822265625 164.5412139892578 514.4927368164062 C 164.69020080566406 517.277099609375 168.40707397460938 517.448974609375 173.63717651367188 516.88916015625 C 174.80552673339844 505.9602355957031 176.40086364746094 500.93975830078125 176.23355102539062 492.3540954589844" stroke-width="0.0" fill="rgb(79, 83, 97)" opacity="0.9634047" stroke="rgb(0, 0, 0)" stroke-opacity="1.0" stroke-linecap="round" stroke-linejoin="round"/>
    <path d="M 409.5277099609375 165.5342559814453 C 410.9483337402344 166.94369506835938 411.7066955566406 168.31509399414062 411.9318542480469 172.23081970214844 C 410.7500305175781 177.28317260742188 408.57025146484375 183.42710876464844 403.47625732421875 188.561767578125 C 405.41845703125 179.92127990722656 409.4490966796875 173.9689483642578 409.5277099609375 165.5342559814453" stroke-width="0.0" fill="rgb(74, 82, 86)" opacity="0.98995167" stroke="rgb(0, 0, 0)" stroke-opacity="1.0" stroke-linecap="round" stroke-linejoin="round"/>
    <path d="M 69.90043640136719 306.71807861328125 C 62.8922004699707 316.2395935058594 60.67076110839844 326.18951416015625 61.835357666015625 340.12664794921875 C 65.07144165039062 354.0382080078125 72.39595031738281 363.6168518066406 83.97280883789062 369.51318359375 C 90.59174346923828 376.1136779785156 99.68717193603516 379.81695556640625 109.64077758789062 382.65948486328125 C 132.89405822753906 388.4333801269531 161.85968017578125 389.1559143066406 187.28611755371094 390.0720520019531 C 195.12547302246094 409.0586853027344 195.7767791748047 431.58184814453125 197.05677795410156 459.7480773925781 C 189.70970153808594 473.8847961425781 174.4822235107422 487.16046142578125 168.71054077148438 517.3394775390625 C 249.61585998535156 518.5272827148438 335.96160888671875 518.2655029296875 419.5902404785156 517.1034545898438 C 414.66827392578125 499.0478515625 407.3924560546875 492.6905517578125 404.48162841796875 477.8089294433594 C 410.0154724121094 461.5460510253906 416.9456481933594 442.41595458984375 419.1895751953125 413.7216491699219 C 419.189697265625 394.3031311035156 414.1898498535156 376.99822998046875 414.1765441894531 348.9617614746094 C 406.7373352050781 326.8242492675781 390.63018798828125 308.1968994140625 375.0260314941406 287.231689453125 C 340.9299621582031 281.08233642578125 293.9997253417969 285.5015563964844 263.0466003417969 278.68292236328125 C 254.5695037841797 274.61981201171875 251.18923950195312 270.0438537597656 250.80812072753906 262.7261047363281 C 242.23817443847656 255.85964965820312 230.8308868408203 260.2038269042969 226.1085662841797 253.47084045410156 C 219.7990264892578 248.0623016357422 220.5765380859375 235.85528564453125 212.5120849609375 232.44113159179688 C 208.6513671875 229.51788330078125 203.06077575683594 229.4438018798828 195.09127807617188 230.52061462402344 C 181.40731811523438 233.98204040527344 171.60357666015625 246.05699157714844 162.36245727539062 257.7525634765625 C 140.5006103515625 263.4902648925781 116.65635681152344 265.0986022949219 102.4486312866211 272.55950927734375 C 90.35446166992188 284.0184326171875 77.8370590209961 293.1878356933594 69.90043640136719 306.71807861328125" stroke-width="0.0" fill="rgb(133, 137, 157)" opacity="0.86725783" stroke="rgb(0, 0, 0)" stroke-opacity="1.0" stroke-linecap="round" stroke-linejoin="round"/>
    <path d="M 273.5665283203125 25.67818832397461 C 258.1717529296875 27.292104721069336 245.8344268798828 32.34181594848633 234.2878875732422 38.02748107910156 C 220.5938262939453 45.27244567871094 210.31361389160156 55.87604904174805 200.8395538330078 68.36748504638672 C 193.05874633789062 80.98726654052734 189.09088134765625 98.77057647705078 182.7525177001953 113.89165496826172 C 181.14146423339844 129.4134979248047 176.09808349609375 143.17062377929688 178.90509033203125 158.57069396972656 C 182.1924285888672 174.2807159423828 186.6123504638672 187.7145538330078 193.216552734375 200.45826721191406 C 200.889892578125 208.71900939941406 209.66253662109375 216.61932373046875 218.32469177246094 225.04942321777344 C 220.28732299804688 233.80250549316406 222.52655029296875 242.04598999023438 228.46444702148438 246.97560119628906 C 231.25897216796875 251.1650390625 235.62701416015625 250.81092834472656 244.740966796875 251.81886291503906 C 253.1978302001953 258.381591796875 259.4724426269531 268.7439270019531 269.4256591796875 274.88153076171875 C 280.76275634765625 277.34149169921875 292.8577575683594 278.4765625 306.73876953125 278.0213623046875 C 318.4988098144531 275.2579650878906 326.6368103027344 267.5191955566406 337.26690673828125 263.4727478027344 C 352.083251953125 233.03501892089844 384.46429443359375 226.28553771972656 397.0665588378906 198.25363159179688 C 403.84552001953125 187.3965606689453 409.70587158203125 176.78895568847656 409.5634460449219 159.17259216308594 C 411.59783935546875 137.59703063964844 408.6387939453125 121.39006042480469 405.84783935546875 102.06752014160156 C 404.6969299316406 87.54338073730469 398.4987487792969 76.76165008544922 390.8025817871094 67.17107391357422 C 382.1162109375 55.01415252685547 370.5664978027344 45.674381256103516 356.6342468261719 38.7810173034668 C 346.286376953125 32.93440246582031 335.0558776855469 28.458263397216797 321.2698059082031 26.453439712524414 C 304.2598571777344 23.980863571166992 289.62554931640625 23.10492706298828 273.5665283203125 25.67818832397461" stroke-width="0.0" fill="rgb(137, 140, 158)" opacity="0.8733947" stroke="rgb(0, 0, 0)" stroke-opacity="1.0" stroke-linecap="round" stroke-linejoin="round"/>
    <path d="M 193.2427978515625 137.27171325683594 C 204.48414611816406 175.5226287841797 217.48040771484375 205.01654052734375 222.45986938476562 242.68540954589844 C 227.9925994873047 249.54515075683594 235.54600524902344 250.26776123046875 242.36412048339844 251.38768005371094 C 250.97628784179688 260.7472839355469 258.8497314453125 269.5515441894531 265.6986083984375 275.6974792480469 C 280.5888366699219 278.5281677246094 291.0171203613281 282.2709655761719 305.4120788574219 279.1289978027344 C 318.3686828613281 274.9469909667969 325.4652404785156 266.7862854003906 339.35455322265625 259.6263427734375 C 348.078857421875 220.96827697753906 374.066162109375 195.8248291015625 392.8777770996094 154.5920867919922 C 377.9711608886719 158.4849395751953 369.04815673828125 166.1915283203125 352.536376953125 165.38504028320312 C 336.92626953125 167.07408142089844 318.7404479980469 165.64614868164062 302.6565856933594 162.7548065185547 C 279.47125244140625 165.3511505126953 261.48040771484375 162.0474853515625 245.4492645263672 157.5630340576172 C 226.13485717773438 154.23655700683594 211.50880432128906 147.41128540039062 193.2427978515625 137.27171325683594" stroke-width="0.0" fill="rgb(65, 64, 74)" opacity="0.9866424" stroke="rgb(0, 0, 0)" stroke-opacity="1.0" stroke-linecap="round" stroke-linejoin="round"/>
    <path d="M 202.30857849121094 100.61903381347656 C 205.86053466796875 113.83332061767578 195.97406005859375 123.77912139892578 200.6017303466797 139.8394317626953 C 209.1260986328125 149.32452392578125 227.5758819580078 155.06097412109375 248.9208984375 158.9304656982422 C 280.60198974609375 166.22021484375 314.5976867675781 168.362548828125 348.0365295410156 166.76234436035156 C 365.1056213378906 162.3319091796875 375.7967224121094 161.52354431152344 382.4842834472656 157.2092742919922 C 386.6383056640625 154.02256774902344 391.2676086425781 151.4861602783203 390.71881103515625 148.5444793701172 C 379.3969421386719 137.03065490722656 383.47479248046875 123.08697509765625 391.1834411621094 104.32853698730469 C 375.146728515625 92.95223999023438 358.6700439453125 82.81603240966797 340.3009338378906 73.24053192138672 C 313.0083312988281 70.11870574951172 283.45166015625 69.80867767333984 256.3153076171875 72.03250122070312 C 235.7777099609375 75.09925842285156 223.1702880859375 78.59773254394531 212.8744354248047 85.0150375366211 C 203.2555389404297 86.73710632324219 198.0591583251953 92.1109390258789 202.30857849121094 100.61903381347656" stroke-width="0.0" fill="rgb(149, 152, 174)" opacity="1.1071831" stroke="rgb(0, 0, 0)" stroke-opacity="1.0" stroke-linecap="round" stroke-linejoin="round"/>
    <path d="M 71.098876953125 304.3907775878906 C 65.13304901123047 313.9173583984375 60.78348922729492 324.4888916015625 62.852699279785156 340.9539794921875 C 65.93878936767578 353.8577575683594 72.8294677734375 362.9053039550781 83.18818664550781 369.04150390625 C 94.34954071044922 377.33966064453125 108.0791244506836 382.9823303222656 124.20980834960938 385.3230285644531 C 144.79238891601562 389.2627258300781 166.06492614746094 389.15643310546875 188.19021606445312 387.7070007324219 C 187.35325622558594 368.0126037597656 185.24053955078125 350.5474853515625 186.24993896484375 335.52069091796875 C 191.7687225341797 317.9717712402344 197.04776000976562 302.25738525390625 198.70863342285156 277.8138122558594 C 172.7982635498047 274.3619689941406 146.0775146484375 273.0596923828125 122.33441925048828 274.1001892089844 C 110.783935546875 278.1845703125 100.94328308105469 277.7868347167969 95.71864318847656 281.08184814453125 C 86.95318603515625 288.3330993652344 78.52183532714844 294.4294738769531 71.098876953125 304.3907775878906" stroke-width="0.0" fill="rgb(184, 190, 214)" opacity="0.99964094" stroke="rgb(0, 0, 0)" stroke-opacity="1.0" stroke-linecap="round" stroke-linejoin="round"/>
    <path d="M 382.0625915527344 343.7298583984375 C 371.15142822265625 346.5643615722656 363.41204833984375 352.5462951660156 358.51983642578125 361.235595703125 C 360.6556396484375 399.5248107910156 354.58380126953125 428.37451171875 355.0039978027344 454.8066711425781 C 360.5792236328125 478.007568359375 367.0627746582031 493.4517517089844 369.2606201171875 516.7560424804688 C 383.3329772949219 517.6249389648438 402.9201965332031 517.8470458984375 418.6684265136719 516.3749389648438 C 414.450927734375 499.1875305175781 407.0366516113281 492.8768310546875 404.0060119628906 478.2034912109375 C 406.8517150878906 464.1293640136719 414.7363586425781 450.9643859863281 416.5347595214844 431.7415771484375 C 419.0107421875 409.3132629394531 418.2652893066406 398.30792236328125 411.8416748046875 381.28851318359375 C 415.4367980957031 378.1260070800781 407.6451110839844 382.0511779785156 407.3926696777344 381.14141845703125 C 407.36676025390625 367.8631591796875 404.3570251464844 358.9512634277344 400.8118591308594 351.85833740234375 C 394.6751403808594 346.3280029296875 391.2475891113281 342.29949951171875 382.0625915527344 343.7298583984375" stroke-width="0.0" fill="rgb(97, 97, 108)" opacity="0.8630064" stroke="rgb(0, 0, 0)" stroke-opacity="1.0" stroke-linecap="round" stroke-linejoin="round"/>
    <path d="M 228.333251953125 293.54217529296875 C 218.51527404785156 296.6613464355469 210.82968139648438 300.8583068847656 209.6342010498047 308.1877746582031 C 204.00538635253906 318.2475891113281 199.94326782226562 326.122314453125 200.27186584472656 337.21038818359375 C 197.96560668945312 354.95257568359375 198.05184936523438 371.4768981933594 203.34979248046875 385.5090026855469 C 204.28472900390625 393.2900695800781 208.64710998535156 395.01580810546875 220.28565979003906 393.99761962890625 C 227.14308166503906 394.8838806152344 231.84942626953125 393.0965270996094 234.47840881347656 387.9132385253906 C 240.2244415283203 375.37225341796875 246.79693603515625 367.5678405761719 245.15737915039062 358.1843566894531 C 243.876953125 339.30401611328125 244.7202911376953 325.8553466796875 242.8966522216797 313.085693359375 C 240.70919799804688 304.1605529785156 235.95652770996094 297.7060241699219 228.333251953125 293.54217529296875" stroke-width="0.0" fill="rgb(182, 186, 211)" opacity="0.9922821" stroke="rgb(0, 0, 0)" stroke-opacity="1.0" stroke-linecap="round" stroke-linejoin="round"/>
    <path d="M 338.8374328613281 413.4190368652344 C 337.4385986328125 409.9517517089844 327.40948486328125 411.6717224121094 321.577392578125 408.93365478515625 C 307.7377014160156 406.33905029296875 296.862060546875 410.5948181152344 287.5000915527344 412.6427917480469 C 281.9984130859375 416.72186279296875 275.9413146972656 420.46099853515625 272.12353515625 426.77728271484375 C 267.4249267578125 432.8987731933594 270.43927001953125 439.1936340332031 274.8216247558594 445.3084411621094 C 284.27532958984375 450.33453369140625 302.38299560546875 448.31439208984375 326.4388427734375 444.2232971191406 C 334.57000732421875 443.3547668457031 340.5898132324219 442.0104064941406 340.9244384765625 435.75469970703125 C 340.3680114746094 425.4038391113281 344.1136474609375 420.532470703125 338.8374328613281 413.4190368652344" stroke-width="0.0" fill="rgb(128, 131, 157)" opacity="0.9846971" stroke="rgb(0, 0, 0)" stroke-opacity="1.0" stroke-linecap="round" stroke-linejoin="round"/>
    <path d="M 207.6918182373047 285.82373046875 C 202.90211486816406 286.7469787597656 199.16488647460938 291.3487243652344 195.6444854736328 297.81158447265625 C 193.47024536132812 304.2884826660156 191.95567321777344 313.25738525390625 187.85595703125 327.2384338378906 C 186.3935546875 344.2223205566406 187.41058349609375 363.4490051269531 188.9469451904297 376.5209045410156 C 196.97996520996094 380.37890625 199.39744567871094 380.9417419433594 200.0296173095703 376.2247619628906 C 200.0055389404297 358.6959533691406 197.9978790283203 339.3119201660156 204.01222229003906 323.3998718261719 C 205.43858337402344 310.3575439453125 212.6124725341797 302.1031188964844 218.36827087402344 294.062744140625 C 216.10873413085938 287.0909423828125 213.22027587890625 286.8376770019531 207.6918182373047 285.82373046875" stroke-width="0.0" fill="rgb(31, 32, 37)" opacity="0.9496751" stroke="rgb(0, 0, 0)" stroke-opacity="1.0" stroke-linecap="round" stroke-linejoin="round"/>
    <path d="M 191.40695190429688 97.23265838623047 C 211.0871124267578 89.47883605957031 222.4737091064453 76.69485473632812 241.9036407470703 75.13953399658203 C 261.7436828613281 69.71713256835938 279.4129333496094 70.48365783691406 297.5409240722656 71.24077606201172 C 317.5767822265625 73.3949203491211 337.073974609375 75.43053436279297 354.20166015625 84.06356811523438 C 373.3184814453125 90.0089111328125 385.41802978515625 105.85224151611328 399.620361328125 118.9383316040039 C 409.5563049316406 106.10087585449219 406.7335510253906 105.0970458984375 398.1026611328125 104.06541442871094 C 397.7660827636719 100.10313415527344 401.9576110839844 102.88587951660156 407.4072265625 99.45836639404297 C 400.6671447753906 98.20820617675781 397.8505554199219 100.88813018798828 400.1758117675781 96.74348449707031 C 400.6631164550781 95.1994400024414 401.1613464355469 95.15594482421875 404.68267822265625 97.86555480957031 C 404.36358642578125 90.799560546875 404.0647277832031 86.15892028808594 401.60107421875 85.55477142333984 C 396.2951354980469 71.18460845947266 386.5116271972656 59.93593215942383 375.0790710449219 50.423702239990234 C 367.7125244140625 43.76670837402344 358.9256896972656 38.799781799316406 350.3901062011719 34.05685806274414 C 338.15643310546875 29.040088653564453 326.03912353515625 24.533735275268555 311.62103271484375 23.21609878540039 C 298.7125244140625 22.549325942993164 284.9939880371094 22.69659996032715 272.6412353515625 24.255205154418945 C 257.66424560546875 26.434024810791016 245.00064086914062 31.880081176757812 233.099853515625 37.91754150390625 C 222.387451171875 46.042415618896484 211.5368194580078 53.919837951660156 203.01849365234375 64.14730834960938 C 197.11741638183594 71.26132202148438 192.8629608154297 81.2245101928711 191.40695190429688 97.23265838623047" stroke-width="0.0" fill="rgb(157, 162, 184)" opacity="1.098221" stroke="rgb(0, 0, 0)" stroke-opacity="1.0" stroke-linecap="round" stroke-linejoin="round"/>
    <path d="M 372.8580322265625 518.3192138671875 C 366.25177001953125 488.9897766113281 359.2736511230469 476.5837097167969 351.8294372558594 469.6158447265625 C 338.75946044921875 470.51470947265625 328.6679382324219 470.74383544921875 321.73785400390625 475.24493408203125 C 299.9261474609375 478.1476745605469 275.7847595214844 479.7587890625 254.28147888183594 481.29888916015625 C 253.3997344970703 492.900390625 254.89463806152344 501.589599609375 256.3949890136719 519.68310546875 C 299.10394287109375 519.4331665039062 337.5302429199219 518.833740234375 372.8580322265625 518.3192138671875" stroke-width="0.0" fill="rgb(156, 162, 194)" opacity="0.9206429" stroke="rgb(0, 0, 0)" stroke-opacity="1.0" stroke-linecap="round" stroke-linejoin="round"/>
    <path d="M 167.90866088867188 517.9884033203125 C 190.68771362304688 518.7523193359375 219.0026397705078 519.0253295898438 253.32786560058594 519.2094116210938 C 254.7999725341797 502.70709228515625 254.6727752685547 493.31060791015625 251.41546630859375 482.0771484375 C 231.56253051757812 481.7611999511719 208.4384307861328 478.4414978027344 190.56314086914062 467.2755432128906 C 182.91073608398438 480.6820373535156 175.35899353027344 493.2313232421875 167.90866088867188 517.9884033203125" stroke-width="0.0" fill="rgb(172, 177, 201)" opacity="0.9967242" stroke="rgb(0, 0, 0)" stroke-opacity="1.0" stroke-linecap="round" stroke-linejoin="round"/>
    <path d="M 192.92453002929688 466.3621520996094 C 194.8817138671875 472.38262939453125 200.4179229736328 475.9647216796875 209.42051696777344 476.7221984863281 C 221.10354614257812 480.45672607421875 234.1527862548828 483.0810241699219 248.91453552246094 482.9166259765625 C 271.7779541015625 482.00140380859375 291.4869079589844 479.6575927734375 313.007080078125 478.8804931640625 C 325.4840393066406 477.8384704589844 336.5100402832031 474.0210266113281 346.3996276855469 468.7021179199219 C 345.8103332519531 457.8592834472656 343.08929443359375 455.1719970703125 327.6189880371094 452.4610595703125 C 318.1646728515625 459.4292907714844 306.60980224609375 472.86822509765625 277.0400390625 471.9825134277344 C 267.08892822265625 471.50701904296875 255.36630249023438 467.575439453125 242.62100219726562 467.3602294921875 C 230.67312622070312 463.051513671875 224.18740844726562 452.1327819824219 209.1750946044922 453.7919616699219 C 198.93418884277344 453.34722900390625 195.45619201660156 458.1402587890625 192.92453002929688 466.3621520996094" stroke-width="0.0" fill="rgb(20, 20, 25)" opacity="1.0055345" stroke="rgb(0, 0, 0)" stroke-opacity="1.0" stroke-linecap="round" stroke-linejoin="round"/>
    <path d="M 257.75970458984375 288.9660339355469 C 242.87017822265625 285.8792724609375 239.2532196044922 289.1764221191406 235.2581329345703 300.5545349121094 C 235.8280487060547 309.6654968261719 244.06944274902344 314.5276794433594 243.71583557128906 325.4224548339844 C 245.89744567871094 338.5081481933594 245.6534423828125 351.67108154296875 243.22781372070312 360.66796875 C 242.5216064453125 377.7228088378906 236.710693359375 389.52099609375 225.38446044921875 397.99658203125 C 226.60647583007812 407.3746337890625 228.6208953857422 411.1676025390625 235.8800506591797 412.21246337890625 C 245.6051483154297 414.76519775390625 247.56736755371094 410.5978088378906 251.4156036376953 404.17431640625 C 258.2796325683594 400.27532958984375 259.4390869140625 388.9571838378906 258.7588806152344 372.4451599121094 C 262.929931640625 352.11968994140625 262.235595703125 327.9781188964844 261.77337646484375 303.33709716796875 C 259.3335266113281 297.2383117675781 258.5337829589844 291.0072326660156 257.75970458984375 288.9660339355469" stroke-width="0.0" fill="rgb(31, 30, 37)" opacity="1.0669081" stroke="rgb(0, 0, 0)" stroke-opacity="1.0" stroke-linecap="round" stroke-linejoin="round"/>
    <path d="M 194.30758666992188 394.01324462890625 C 194.30062866210938 418.7314453125 195.49691772460938 437.16015625 199.4512176513672 449.58953857421875 C 217.1586456298828 455.3902587890625 224.81634521484375 452.3129577636719 240.2415771484375 446.7489929199219 C 238.75714111328125 433.68109130859375 237.28268432617188 421.672607421875 230.98988342285156 415.1619567871094 C 220.0848388671875 407.3262023925781 212.1441192626953 398.7495422363281 194.30758666992188 394.01324462890625" stroke-width="0.0" fill="rgb(95, 101, 118)" opacity="0.97025955" stroke="rgb(0, 0, 0)" stroke-opacity="1.0" stroke-linecap="round" stroke-linejoin="round"/>
    <path d="M 262.75347900390625 292.50762939453125 C 258.7411804199219 306.1982421875 260.1200866699219 319.6434020996094 264.2473449707031 329.63848876953125 C 273.5848388671875 332.0075988769531 279.918212890625 330.0052795410156 287.4938659667969 326.6509704589844 C 288.65142822265625 318.3417053222656 291.43115234375 309.8377380371094 302.6468505859375 296.6789855957031 C 287.73095703125 294.32012939453125 275.8108215332031 293.6617736816406 262.75347900390625 292.50762939453125" stroke-width="0.0" fill="rgb(168, 175, 201)" opacity="1.0095301" stroke="rgb(0, 0, 0)" stroke-opacity="1.0" stroke-linecap="round" stroke-linejoin="round"/>
    <path d="M 274.4323425292969 289.03839111328125 C 283.5088195800781 297.22442626953125 297.061279296875 299.1380920410156 307.3121032714844 308.43316650390625 C 325.9342346191406 313.68438720703125 339.2242431640625 313.5913391113281 345.3941345214844 309.8936767578125 C 347.7552490234375 298.1653747558594 343.7659912109375 294.29974365234375 338.91888427734375 292.3314208984375 C 318.9380798339844 290.42279052734375 298.2550964355469 287.45361328125 274.4323425292969 289.03839111328125" stroke-width="0.0" fill="rgb(31, 30, 33)" opacity="1.0091065" stroke="rgb(0, 0, 0)" stroke-opacity="1.0" stroke-linecap="round" stroke-linejoin="round"/>
    <path d="M 282.1212158203125 335.4042053222656 C 270.30126953125 333.53460693359375 265.5977478027344 335.0542907714844 262.7270202636719 340.99755859375 C 261.3923034667969 355.2637023925781 259.8478698730469 366.71453857421875 262.5364074707031 372.5127868652344 C 271.0225830078125 375.6573181152344 276.25958251953125 375.2120666503906 279.60693359375 371.86334228515625 C 285.39324951171875 371.4271240234375 287.9630432128906 367.1710205078125 289.34429931640625 359.2455749511719 C 291.2589111328125 351.929443359375 290.7537536621094 347.4736633300781 289.7131042480469 340.87750244140625 C 286.6308898925781 336.6088562011719 285.3632507324219 333.1107482910156 282.1212158203125 335.4042053222656" stroke-width="0.0" fill="rgb(151, 157, 181)" opacity="0.9432657" stroke="rgb(0, 0, 0)" stroke-opacity="1.0" stroke-linecap="round" stroke-linejoin="round"/>
    <path d="M 350.54742431640625 288.1986999511719 C 356.8610534667969 295.3187255859375 364.32818603515625 300.245849609375 368.9842529296875 308.6524963378906 C 362.4454650878906 315.784912109375 358.8815002441406 320.9483642578125 360.1210021972656 338.3474426269531 C 374.73504638671875 334.22039794921875 378.7118225097656 325.4970397949219 383.6891174316406 317.7799072265625 C 387.0235595703125 314.09710693359375 387.6322937011719 307.9200439453125 385.3045349121094 297.38983154296875 C 383.0384521484375 293.26177978515625 378.6724853515625 289.57977294921875 374.3899841308594 287.74969482421875 C 369.18841552734375 285.4870300292969 360.0490417480469 285.17486572265625 350.54742431640625 288.1986999511719" stroke-width="0.0" fill="rgb(47, 47, 57)" opacity="0.95304954" stroke="rgb(0, 0, 0)" stroke-opacity="1.0" stroke-linecap="round" stroke-linejoin="round"/>
    <path d="M 158.68685913085938 273.859375 C 172.42919921875 274.105224609375 189.2138214111328 276.88568115234375 208.75343322753906 281.7589416503906 C 202.72206115722656 268.96539306640625 193.7400665283203 263.0159606933594 184.35801696777344 260.63116455078125 C 181.3317108154297 259.0123596191406 171.689208984375 259.570068359375 167.5055389404297 260.3741760253906 C 163.2789764404297 261.8486328125 159.25540161132812 266.009521484375 158.68685913085938 273.859375" stroke-width="0.0" fill="rgb(29, 28, 33)" opacity="0.97286916" stroke="rgb(0, 0, 0)" stroke-opacity="1.0" stroke-linecap="round" stroke-linejoin="round"/>
    <path d="M 243.2426300048828 253.5371551513672 C 236.79148864746094 251.89134216308594 236.81764221191406 259.0415344238281 230.46356201171875 260.0341491699219 C 229.4168243408203 268.5094909667969 227.31854248046875 275.857177734375 230.87506103515625 282.07342529296875 C 238.37644958496094 281.1711120605469 245.3842010498047 280.56414794921875 251.43328857421875 278.29595947265625 C 253.15756225585938 264.4271545410156 251.16741943359375 258.00482177734375 243.2426300048828 253.5371551513672" stroke-width="0.0" fill="rgb(173, 178, 203)" opacity="0.987265" stroke="rgb(0, 0, 0)" stroke-opacity="1.0" stroke-linecap="round" stroke-linejoin="round"/>
    <path d="M 262.4197692871094 457.7448425292969 C 262.1440734863281 462.931640625 261.47003173828125 467.2162170410156 262.4537658691406 469.891357421875 C 273.00128173828125 470.7523498535156 281.070068359375 471.3140563964844 288.2549743652344 470.0469970703125 C 286.75274658203125 463.59136962890625 285.74755859375 461.2309875488281 283.78076171875 456.4983215332031 C 277.5032653808594 456.9530944824219 266.146728515625 456.8086853027344 262.4197692871094 457.7448425292969" stroke-width="0.0" fill="rgb(145, 152, 183)" opacity="0.9848012" stroke="rgb(0, 0, 0)" stroke-opacity="1.0" stroke-linecap="round" stroke-linejoin="round"/>
    <path d="M 92.3121566772461 283.1961669921875 C 106.12867736816406 278.8497009277344 121.0582046508789 275.346435546875 136.32412719726562 272.70635986328125 C 128.4869384765625 266.78924560546875 119.6512680053711 266.385986328125 108.91951751708984 268.08807373046875 C 101.21248626708984 270.79742431640625 95.3218765258789 275.1518249511719 92.3121566772461 283.1961669921875" stroke-width="0.0" fill="rgb(19, 17, 18)" opacity="0.98795146" stroke="rgb(0, 0, 0)" stroke-opacity="1.0" stroke-linecap="round" stroke-linejoin="round"/>
    <path d="M 238.4178924560547 455.3080749511719 C 235.97598266601562 461.0906982421875 238.96568298339844 462.7033996582031 243.17230224609375 466.24847412109375 C 245.6671142578125 468.091552734375 251.82293701171875 468.4772033691406 261.1472473144531 468.3228759765625 C 261.8977355957031 462.1194763183594 261.1838684082031 458.6219787597656 258.9058532714844 455.74566650390625 C 251.3223876953125 456.2738952636719 239.33531188964844 454.26910400390625 238.4178924560547 455.3080749511719" stroke-width="0.0" fill="rgb(138, 144, 174)" opacity="0.9610913" stroke="rgb(0, 0, 0)" stroke-opacity="1.0" stroke-linecap="round" stroke-linejoin="round"/>
    <path d="M 378.8448181152344 212.33157348632812 C 372.55157470703125 213.25123596191406 368.3782043457031 214.12652587890625 366.12042236328125 216.826904296875 C 362.1827697753906 221.32485961914062 360.005615234375 227.74871826171875 357.5611572265625 235.04632568359375 C 362.8944091796875 228.5203399658203 373.7865905761719 230.6273193359375 375.6564636230469 226.24041748046875 C 380.06494140625 222.7354278564453 380.02496337890625 218.13836669921875 378.8448181152344 212.33157348632812" stroke-width="0.0" fill="rgb(47, 46, 53)" opacity="0.9737971" stroke="rgb(0, 0, 0)" stroke-opacity="1.0" stroke-linecap="round" stroke-linejoin="round"/>
    <path d="M 196.55636596679688 193.87152099609375 C 197.76280212402344 192.5574951171875 198.82313537597656 194.98501586914062 200.69009399414062 196.0181121826172 C 204.67486572265625 199.4279022216797 208.34156799316406 204.18011474609375 208.87408447265625 212.8350830078125 C 199.33480834960938 210.81455993652344 197.30416870117188 203.00241088867188 196.55636596679688 193.87152099609375" stroke-width="0.0" fill="rgb(27, 26, 40)" opacity="0.99468696" stroke="rgb(0, 0, 0)" stroke-opacity="1.0" stroke-linecap="round" stroke-linejoin="round"/>
    <path d="M 296.6326904296875 305.238525390625 C 298.09185791015625 319.9401550292969 293.307861328125 325.3265686035156 286.84979248046875 331.791015625 C 290.2051086425781 337.37969970703125 290.7054138183594 341.8139953613281 293.4524841308594 347.4349060058594 C 297.9131164550781 364.525146484375 285.426025390625 370.07867431640625 289.63238525390625 385.1863708496094 C 289.9221496582031 398.0406799316406 276.2265625 394.33709716796875 281.6669616699219 406.413330078125 C 304.8708801269531 400.9892883300781 327.4823913574219 399.85614013671875 355.4197692871094 401.4230651855469 C 356.3258361816406 365.9837951660156 355.8138732910156 336.2872314453125 354.90679931640625 313.65838623046875 C 333.64837646484375 308.7241516113281 314.8875427246094 310.41845703125 296.6326904296875 305.238525390625" stroke-width="0.0" fill="rgb(190, 195, 221)" opacity="0.95961136" stroke="rgb(0, 0, 0)" stroke-opacity="1.0" stroke-linecap="round" stroke-linejoin="round"/>
    <path d="M 170.5515594482422 236.0886993408203 C 167.92123413085938 240.95611572265625 170.63494873046875 246.2821807861328 170.73379516601562 252.93992614746094 C 195.09812927246094 253.98773193359375 208.73629760742188 265.2259216308594 224.77114868164062 282.7001037597656 C 224.98353576660156 258.1092834472656 220.25674438476562 243.8288116455078 215.29502868652344 232.64218139648438 C 205.06053161621094 229.4971160888672 197.23312377929688 225.25601196289062 187.97616577148438 226.2700653076172 C 178.08511352539062 226.89320373535156 175.07943725585938 231.81910705566406 170.5515594482422 236.0886993408203" stroke-width="0.0" fill="rgb(100, 102, 120)" opacity="1.0131254" stroke="rgb(0, 0, 0)" stroke-opacity="1.0" stroke-linecap="round" stroke-linejoin="round"/>
    <path d="M 257.66583251953125 379.829833984375 C 257.591064453125 388.02545166015625 254.8011932373047 397.1693420410156 252.73568725585938 407.97705078125 C 257.35748291015625 408.458984375 265.9519958496094 408.4661560058594 271.82354736328125 407.62982177734375 C 276.6494445800781 405.58575439453125 278.6517333984375 400.8396301269531 280.3275451660156 395.7153625488281 C 281.3150329589844 389.2052917480469 281.68267822265625 383.6357421875 278.7713623046875 378.68597412109375 C 273.0961608886719 378.9984130859375 264.8759765625 378.70623779296875 257.66583251953125 379.829833984375" stroke-width="0.0" fill="rgb(147, 151, 175)" opacity="0.943159" stroke="rgb(0, 0, 0)" stroke-opacity="1.0" stroke-linecap="round" stroke-linejoin="round"/>
    <path d="M 314.77911376953125 455.5710144042969 C 307.214599609375 455.25262451171875 303.0574035644531 456.863525390625 297.1732177734375 456.68756103515625 C 297.1067199707031 460.5568542480469 296.84698486328125 464.3918762207031 297.34136962890625 469.4952087402344 C 303.387451171875 469.2192077636719 307.6537780761719 467.3580017089844 313.3933410644531 464.9783630371094 C 314.57635498046875 465.82440185546875 313.62420654296875 463.6976318359375 314.77911376953125 455.5710144042969" stroke-width="0.0" fill="rgb(127, 135, 167)" opacity="0.9832223" stroke="rgb(0, 0, 0)" stroke-opacity="1.0" stroke-linecap="round" stroke-linejoin="round"/>
    <path d="M 285.6680908203125 458.0299072265625 C 285.86358642578125 461.5225830078125 286.76239013671875 466.5435485839844 284.6979064941406 472.20574951171875 C 290.6693115234375 471.68963623046875 293.384765625 470.7306823730469 296.6216735839844 469.9012451171875 C 296.3439025878906 466.1567687988281 296.3692932128906 462.1180725097656 296.0697937011719 456.343017578125 C 292.2266540527344 457.7024230957031 288.4431457519531 456.1326599121094 285.6680908203125 458.0299072265625" stroke-width="0.0" fill="rgb(115, 120, 149)" opacity="1.0125984" stroke="rgb(0, 0, 0)" stroke-opacity="1.0" stroke-linecap="round" stroke-linejoin="round"/>
    <path d="M 176.58917236328125 491.9251708984375 C 170.77957153320312 497.4610290527344 168.03538513183594 504.26287841796875 165.3397216796875 512.775634765625 C 165.82969665527344 516.958984375 168.75405883789062 517.302001953125 177.5228729248047 517.7371826171875 C 170.77833557128906 507.0148010253906 174.77273559570312 500.0819091796875 176.58917236328125 491.9251708984375" stroke-width="0.0" fill="rgb(67, 70, 84)" opacity="1.0009065" stroke="rgb(0, 0, 0)" stroke-opacity="1.0" stroke-linecap="round" stroke-linejoin="round"/>
    <path d="M 290.0346984863281 353.66986083984375 C 290.783447265625 350.9757385253906 291.1791687011719 351.1394958496094 292.98675537109375 349.36163330078125 C 294.5110778808594 356.46124267578125 299.0892639160156 359.6861877441406 286.884765625 359.6444091796875 C 288.5460510253906 361.2639465332031 289.49078369140625 358.1310119628906 290.0346984863281 353.66986083984375" stroke-width="0.0" fill="rgb(34, 34, 40)" opacity="0.9815517" stroke="rgb(0, 0, 0)" stroke-opacity="1.0" stroke-linecap="round" stroke-linejoin="round"/>
    <path d="M 384.4504089355469 108.28901672363281 C 386.2237854003906 126.22393798828125 382.6515197753906 134.97021484375 372.7167663574219 142.81033325195312 C 383.9248046875 146.11309814453125 393.26446533203125 150.3411407470703 407.0307312011719 152.18882751464844 C 413.32611083984375 144.74037170410156 412.650146484375 140.0795135498047 408.85015869140625 124.17442321777344 C 400.4525451660156 120.03675079345703 391.42236328125 116.59453582763672 384.4504089355469 108.28901672363281" stroke-width="0.0" fill="rgb(173, 178, 201)" opacity="0.999245" stroke="rgb(0, 0, 0)" stroke-opacity="1.0" stroke-linecap="round" stroke-linejoin="round"/>
    <path d="M 206.81886291503906 97.23468780517578 C 195.5841827392578 97.06180572509766 188.24365234375 99.56578063964844 185.0673828125 107.17030334472656 C 179.39862060546875 111.1388931274414 177.09344482421875 116.39310455322266 179.45166015625 126.95842742919922 C 187.0247802734375 130.77041625976562 197.91543579101562 129.21078491210938 212.091064453125 125.58356475830078 C 206.63552856445312 118.2655029296875 204.3140869140625 108.52252197265625 206.81886291503906 97.23468780517578" stroke-width="0.0" fill="rgb(179, 184, 208)" opacity="0.996018" stroke="rgb(0, 0, 0)" stroke-opacity="1.0" stroke-linecap="round" stroke-linejoin="round"/>
    <path d="M 350.841796875 288.14324951171875 C 352.17059326171875 307.8769836425781 349.9832763671875 322.8358154296875 359.4317626953125 331.0216064453125 C 366.47479248046875 325.7111511230469 370.3272399902344 319.9573059082031 369.67218017578125 309.480224609375 C 366.0849609375 301.0794982910156 359.2763366699219 294.1582946777344 350.841796875 288.14324951171875" stroke-width="0.0" fill="rgb(144, 148, 173)" opacity="0.97389287" stroke="rgb(0, 0, 0)" stroke-opacity="1.0" stroke-linecap="round" stroke-linejoin="round"/>
    <path d="M 253.3567657470703 265.36297607421875 C 260.0945129394531 266.5660400390625 260.4263610839844 270.9791564941406 259.0600891113281 278.6514587402344 C 257.0623474121094 280.9927673339844 254.10629272460938 279.5841369628906 253.75726318359375 274.9862365722656 C 252.54258728027344 278.8813171386719 250.17153930664062 285.970703125 258.471435546875 285.5837097167969 C 260.44989013671875 290.0646667480469 259.94183349609375 296.35760498046875 274.1755676269531 293.3464050292969 C 270.8707275390625 277.75244140625 262.7564697265625 270.0984191894531 253.3567657470703 265.36297607421875" stroke-width="0.0" fill="rgb(83, 85, 105)" opacity="0.9849668" stroke="rgb(0, 0, 0)" stroke-opacity="1.0" stroke-linecap="round" stroke-linejoin="round"/>
    <path d="M 186.18524169921875 392.12420654296875 C 188.37744140625 395.5436096191406 190.47889709472656 398.0953063964844 191.0596923828125 400.8309020996094 C 202.6407012939453 399.52679443359375 208.220703125 402.1776428222656 218.06748962402344 404.6051025390625 C 211.2635955810547 396.8459167480469 206.2224578857422 394.145751953125 205.78329467773438 389.34893798828125 C 197.8645782470703 389.5184020996094 189.94424438476562 389.537353515625 186.18524169921875 392.12420654296875" stroke-width="0.0" fill="rgb(128, 129, 147)" opacity="0.97958636" stroke="rgb(0, 0, 0)" stroke-opacity="1.0" stroke-linecap="round" stroke-linejoin="round"/>
    <path d="M 218.37413024902344 270.1507568359375 C 218.20176696777344 282.1968688964844 222.45716857910156 285.55621337890625 222.45635986328125 286.77740478515625 C 224.2539520263672 289.2644348144531 227.03305053710938 291.851806640625 232.32090759277344 290.0397033691406 C 229.51321411132812 281.8011474609375 226.95326232910156 277.169921875 218.37413024902344 270.1507568359375" stroke-width="0.0" fill="rgb(84, 87, 105)" opacity="1.0011257" stroke="rgb(0, 0, 0)" stroke-opacity="1.0" stroke-linecap="round" stroke-linejoin="round"/>
    <path d="M 310.86688232421875 283.3805847167969 C 312.4927673339844 285.40606689453125 316.6246643066406 286.7174377441406 324.4178771972656 286.6537170410156 C 323.3385925292969 281.03631591796875 320.65350341796875 278.8019714355469 319.54901123046875 277.3638916015625 C 312.8130187988281 276.4283752441406 312.07415771484375 277.0205383300781 310.86688232421875 283.3805847167969" stroke-width="0.0" fill="rgb(120, 125, 136)" opacity="0.99083394" stroke="rgb(0, 0, 0)" stroke-opacity="1.0" stroke-linecap="round" stroke-linejoin="round"/>
    <path d="M 277.93841552734375 336.15576171875 C 277.6624450683594 335.2239990234375 281.27178955078125 335.7156677246094 286.12823486328125 336.20745849609375 C 289.6505432128906 333.69012451171875 288.8802185058594 331.3745422363281 288.60528564453125 330.23828125 C 280.1483154296875 330.1683654785156 276.5203857421875 328.52984619140625 277.93841552734375 336.15576171875" stroke-width="0.0" fill="rgb(118, 126, 147)" opacity="1.002118" stroke="rgb(0, 0, 0)" stroke-opacity="1.0" stroke-linecap="round" stroke-linejoin="round"/>
    <path d="M 403.3694152832031 113.49832153320312 C 410.4444580078125 115.93696594238281 410.66888427734375 117.3896255493164 408.7278137207031 117.5698013305664 C 409.7325744628906 117.0213623046875 411.4045715332031 119.59928131103516 411.1943664550781 131.49282836914062 C 403.31866455078125 126.15339660644531 403.5541687011719 121.70587158203125 403.3694152832031 113.49832153320312" stroke-width="0.0" fill="rgb(171, 187, 218)" opacity="0.99208003" stroke="rgb(0, 0, 0)" stroke-opacity="1.0" stroke-linecap="round" stroke-linejoin="round"/>
    <path d="M 216.9988250732422 103.18123626708984 C 216.3233184814453 113.71879577636719 221.55621337890625 117.56642150878906 230.1367645263672 120.12226867675781 C 246.86439514160156 128.2246551513672 266.39959716796875 132.68313598632812 288.2127990722656 134.1952362060547 C 307.2605285644531 137.3894805908203 327.20709228515625 137.41342163085938 346.6125183105469 134.1331329345703 C 359.2765808105469 133.68203735351562 369.68646240234375 130.3273162841797 373.7265319824219 123.07699584960938 C 376.1022033691406 115.69544219970703 374.3731994628906 112.45488739013672 370.7705383300781 110.37435150146484 C 365.6152038574219 105.27993774414062 358.7667541503906 102.01688385009766 352.1966552734375 98.95327758789062 C 336.72235107421875 94.1099624633789 321.54351806640625 88.87055206298828 304.9013366699219 87.37759399414062 C 282.8461608886719 84.79803466796875 262.72760009765625 85.61322784423828 246.06710815429688 88.3008804321289 C 232.53768920898438 89.60742950439453 221.75396728515625 93.62408447265625 216.9988250732422 103.18123626708984" stroke-width="0.0" fill="rgb(16, 15, 21)" opacity="1.1116428" stroke="rgb(0, 0, 0)" stroke-opacity="1.0" stroke-linecap="round" stroke-linejoin="round"/>
    <path d="M 355.6818542480469 454.23553466796875 C 358.4822998046875 474.7855224609375 367.27142333984375 490.0411682128906 371.8206481933594 516.3735961914062 C 384.1339416503906 517.1544799804688 404.1327209472656 517.74951171875 420.7139892578125 514.7984619140625 C 407.76129150390625 494.8551330566406 403.701904296875 474.8291015625 394.94122314453125 460.3905334472656 C 381.091796875 458.5038146972656 368.5673522949219 456.5128479003906 355.6818542480469 454.23553466796875" stroke-width="0.0" fill="rgb(103, 104, 119)" opacity="1.0381333" stroke="rgb(0, 0, 0)" stroke-opacity="1.0" stroke-linecap="round" stroke-linejoin="round"/>
    <path d="M 396.51727294921875 349.568359375 C 391.4948425292969 346.4124450683594 388.5587158203125 343.7315979003906 381.6275329589844 345.01934814453125 C 372.2350769042969 347.2615661621094 365.8927307128906 351.56884765625 361.4637145996094 359.6935729980469 C 356.6267395019531 368.6683654785156 358.656005859375 384.01312255859375 359.4366760253906 398.2638854980469 C 367.82220458984375 401.2047424316406 376.1932373046875 400.41302490234375 387.1944580078125 398.4552307128906 C 392.80267333984375 397.612548828125 396.07965087890625 392.27569580078125 399.9169616699219 387.6246337890625 C 403.85162353515625 382.31256103515625 406.0259704589844 376.2464294433594 404.8294372558594 366.9823303222656 C 403.0001525878906 359.03424072265625 400.8972473144531 352.8843688964844 396.51727294921875 349.568359375" stroke-width="0.0" fill="rgb(23, 22, 23)" opacity="1.0066007" stroke="rgb(0, 0, 0)" stroke-opacity="1.0" stroke-linecap="round" stroke-linejoin="round"/>
    <path d="M 359.05023193359375 414.15557861328125 C 355.43994140625 426.04974365234375 354.052734375 439.1671142578125 357.07366943359375 452.4461364746094 C 368.6064453125 458.2375183105469 381.0496826171875 461.75042724609375 396.197509765625 458.0523681640625 C 403.9753723144531 445.6134033203125 408.7188415527344 435.3478698730469 409.97686767578125 419.3764343261719 C 393.8146057128906 415.8135986328125 376.11676025390625 414.8576354980469 359.05023193359375 414.15557861328125" stroke-width="0.0" fill="rgb(31, 31, 35)" opacity="1.006438" stroke="rgb(0, 0, 0)" stroke-opacity="1.0" stroke-linecap="round" stroke-linejoin="round"/>
    <path d="M 396.5106201171875 85.24332427978516 C 391.4252624511719 90.6924819946289 392.65008544921875 99.41950988769531 395.2923889160156 109.65795135498047 C 392.89044189453125 116.23502349853516 394.2058410644531 116.70771026611328 404.24090576171875 115.76435852050781 C 407.1086730957031 110.0345687866211 407.2098693847656 102.10062408447266 405.511962890625 93.88607788085938 C 404.44439697265625 88.43046569824219 402.09661865234375 85.88265991210938 396.5106201171875 85.24332427978516" stroke-width="0.0" fill="rgb(209, 214, 225)" opacity="1.0120271" stroke="rgb(0, 0, 0)" stroke-opacity="1.0" stroke-linecap="round" stroke-linejoin="round"/>
    <path d="M 205.91055297851562 65.1364974975586 C 201.78741455078125 67.44925689697266 198.7787628173828 71.4580078125 195.8779296875 75.56675720214844 C 195.44192504882812 82.07421875 192.08509826660156 89.49864959716797 195.08836364746094 95.64466857910156 C 203.9714813232422 95.0186996459961 204.89620971679688 87.82942962646484 207.07923889160156 81.14691162109375 C 211.23753356933594 76.31290435791016 209.88050842285156 70.55152893066406 205.91055297851562 65.1364974975586" stroke-width="0.0" fill="rgb(218, 223, 238)" opacity="1.0034834" stroke="rgb(0, 0, 0)" stroke-opacity="1.0" stroke-linecap="round" stroke-linejoin="round"/>
    <path d="M 198.7128448486328 123.85197448730469 C 196.2218780517578 139.95785522460938 204.64459228515625 142.30032348632812 213.74192810058594 147.93865966796875 C 235.2865753173828 156.2896728515625 265.73187255859375 156.6663055419922 290.7899475097656 163.64730834960938 C 314.58319091796875 166.52645874023438 338.79425048828125 167.1878204345703 364.76788330078125 164.85113525390625 C 376.05029296875 163.94113159179688 383.80712890625 158.976318359375 389.3700256347656 149.8104248046875 C 387.8293762207031 144.5015411376953 380.6297302246094 146.09107971191406 373.6535949707031 142.04769897460938 C 350.25335693359375 146.93722534179688 324.41668701171875 149.97491455078125 298.7783508300781 145.90078735351562 C 259.6700134277344 144.17446899414062 231.7742462158203 134.1427459716797 198.7128448486328 123.85197448730469" stroke-width="0.0" fill="rgb(160, 165, 198)" opacity="1.0002295" stroke="rgb(0, 0, 0)" stroke-opacity="1.0" stroke-linecap="round" stroke-linejoin="round"/>
    <path d="M 168.9399871826172 238.00514221191406 C 167.10116577148438 242.01148986816406 167.05201721191406 248.981689453125 169.2992401123047 252.13356018066406 C 175.38040161132812 249.5753631591797 181.6058349609375 248.99752807617188 189.7373046875 247.28567504882812 C 197.90234375 251.34756469726562 207.52471923828125 259.0666198730469 221.83627319335938 262.5863342285156 C 220.8160400390625 247.5552978515625 218.59994506835938 235.5070343017578 214.44334411621094 231.72923278808594 C 201.93206787109375 228.7374725341797 195.6510009765625 224.53518676757812 186.41403198242188 226.280029296875 C 176.62884521484375 226.91259765625 173.43475341796875 232.97964477539062 168.9399871826172 238.00514221191406" stroke-width="0.0" fill="rgb(161, 166, 191)" opacity="1.0178319" stroke="rgb(0, 0, 0)" stroke-opacity="1.0" stroke-linecap="round" stroke-linejoin="round"/>
    <path d="M 327.9888916015625 477.6246032714844 C 329.7857666015625 485.58984375 333.26947021484375 493.9566345214844 333.1997375488281 502.572265625 C 341.2922668457031 502.73248291015625 348.1880187988281 500.2939453125 356.5566711425781 501.623046875 C 360.80517578125 503.9555358886719 360.1072082519531 514.63818359375 370.2666320800781 509.3583984375 C 367.1170654296875 491.2965087890625 359.9495849609375 478.4465637207031 351.37738037109375 466.8502197265625 C 340.22503662109375 467.1172790527344 336.79443359375 474.22418212890625 327.9888916015625 477.6246032714844" stroke-width="0.0" fill="rgb(186, 191, 216)" opacity="0.9833896" stroke="rgb(0, 0, 0)" stroke-opacity="1.0" stroke-linecap="round" stroke-linejoin="round"/>
    <path d="M 262.0252990722656 261.6769714355469 C 261.1166076660156 270.33514404296875 266.00537109375 272.708984375 269.5137023925781 278.61474609375 C 278.8799133300781 281.406982421875 291.27459716796875 282.6670837402344 307.39990234375 282.3182373046875 C 311.827392578125 279.9310607910156 316.0946960449219 276.7441711425781 323.40301513671875 267.5893859863281 C 302.5309753417969 268.10498046875 283.35601806640625 263.9346618652344 262.0252990722656 261.6769714355469" stroke-width="0.0" fill="rgb(14, 13, 14)" opacity="1.0117872" stroke="rgb(0, 0, 0)" stroke-opacity="1.0" stroke-linecap="round" stroke-linejoin="round"/>
    <path d="M 423.32611083984375 399.2589111328125 C 420.89520263671875 393.9590148925781 416.6725158691406 392.1541442871094 411.7303771972656 391.2080993652344 C 401.8917541503906 394.27423095703125 396.822265625 400.8357238769531 386.61322021484375 402.236328125 C 394.8012390136719 406.5431213378906 402.8918762207031 407.1634521484375 412.7062072753906 406.3709716796875 C 417.8892517089844 404.6598205566406 421.3072204589844 403.9078674316406 423.32611083984375 399.2589111328125" stroke-width="0.0" fill="rgb(39, 38, 41)" opacity="0.96180326" stroke="rgb(0, 0, 0)" stroke-opacity="1.0" stroke-linecap="round" stroke-linejoin="round"/>
    <path d="M 240.25013732910156 387.46795654296875 C 241.81423950195312 394.11639404296875 246.03369140625 395.7301940917969 252.94638061523438 395.9267883300781 C 256.4519348144531 390.2828369140625 255.38600158691406 387.1708068847656 255.15463256835938 386.43756103515625 C 247.0246124267578 386.39794921875 241.45907592773438 384.98822021484375 240.25013732910156 387.46795654296875" stroke-width="0.0" fill="rgb(123, 130, 144)" opacity="1.0036157" stroke="rgb(0, 0, 0)" stroke-opacity="1.0" stroke-linecap="round" stroke-linejoin="round"/>
    <path d="M 287.11920166015625 298.17919921875 C 286.74835205078125 303.04180908203125 288.847900390625 305.3787841796875 287.7149353027344 310.0819396972656 C 287.1919860839844 312.3233642578125 292.7843933105469 311.86468505859375 296.0350341796875 313.0558776855469 C 295.83203125 309.2109375 297.8788146972656 305.7262268066406 296.2904052734375 301.6003723144531 C 293.4662170410156 299.96484375 291.0067443847656 298.64532470703125 287.11920166015625 298.17919921875" stroke-width="0.0" fill="rgb(119, 124, 143)" opacity="0.9701568" stroke="rgb(0, 0, 0)" stroke-opacity="1.0" stroke-linecap="round" stroke-linejoin="round"/>
    <path d="M 168.1231689453125 252.91050720214844 C 187.56932067871094 254.72732543945312 202.08572387695312 261.91546630859375 217.2050018310547 274.05621337890625 C 217.75430297851562 265.543212890625 217.77838134765625 267.31317138671875 226.04469299316406 268.1101379394531 C 216.20521545410156 257.97552490234375 204.7288818359375 252.4099884033203 189.7176513671875 248.037353515625 C 183.30677795410156 243.5204315185547 178.58535766601562 244.99533081054688 168.1231689453125 252.91050720214844" stroke-width="0.0" fill="rgb(48, 48, 56)" opacity="0.98900187" stroke="rgb(0, 0, 0)" stroke-opacity="1.0" stroke-linecap="round" stroke-linejoin="round"/>
    <path d="M 385.5129699707031 310.9542236328125 C 381.08831787109375 305.1615905761719 377.84747314453125 304.3337097167969 369.455078125 308.2933349609375 C 374.26287841796875 323.9280700683594 364.71246337890625 326.3941345214844 355.6729431152344 339.35211181640625 C 369.87774658203125 340.29412841796875 372.87200927734375 334.2030334472656 376.7368469238281 328.77056884765625 C 380.9942321777344 323.97650146484375 384.7613220214844 319.0464172363281 385.5129699707031 310.9542236328125" stroke-width="0.0" fill="rgb(29, 27, 31)" opacity="0.963294" stroke="rgb(0, 0, 0)" stroke-opacity="1.0" stroke-linecap="round" stroke-linejoin="round"/>
    <path d="M 380.9716491699219 212.64175415039062 C 373.203369140625 212.63107299804688 368.02947998046875 214.8611602783203 364.8756408691406 217.3671875 C 364.5549621582031 221.32986450195312 367.439697265625 224.41604614257812 365.0572814941406 228.29832458496094 C 370.2267150878906 230.88832092285156 373.72113037109375 234.17681884765625 376.6005859375 228.30828857421875 C 380.2857971191406 226.48443603515625 382.62542724609375 222.4239959716797 380.9716491699219 212.64175415039062" stroke-width="0.0" fill="rgb(44, 44, 54)" opacity="0.9474976" stroke="rgb(0, 0, 0)" stroke-opacity="1.0" stroke-linecap="round" stroke-linejoin="round"/>
    <path d="M 239.21995544433594 234.3495330810547 C 231.95538330078125 237.67388916015625 232.93624877929688 243.6642303466797 235.22158813476562 254.40744018554688 C 239.26966857910156 250.76609802246094 242.22312927246094 247.39772033691406 250.93214416503906 252.14852905273438 C 248.21453857421875 242.66172790527344 246.26315307617188 235.2919158935547 239.21995544433594 234.3495330810547" stroke-width="0.0" fill="rgb(39, 39, 46)" opacity="0.9980527" stroke="rgb(0, 0, 0)" stroke-opacity="1.0" stroke-linecap="round" stroke-linejoin="round"/>
    <path d="M 245.9562225341797 314.30706787109375 C 246.152099609375 316.33868408203125 246.08372497558594 321.2784729003906 246.3792266845703 320.4655456542969 C 254.76853942871094 322.9479064941406 261.0767822265625 323.0096740722656 260.5941162109375 320.4693603515625 C 259.68743896484375 314.4971008300781 260.6484680175781 310.9069519042969 260.4391174316406 313.2281494140625 C 251.57894897460938 311.4233703613281 248.30816650390625 311.1124572753906 245.9562225341797 314.30706787109375" stroke-width="0.0" fill="rgb(100, 107, 127)" opacity="1.0050403" stroke="rgb(0, 0, 0)" stroke-opacity="1.0" stroke-linecap="round" stroke-linejoin="round"/>
    <path d="M 218.40028381347656 70.0542984008789 C 216.53158569335938 68.47470092773438 213.4743194580078 75.66233825683594 219.0268096923828 80.8836441040039 C 234.6677703857422 75.6348876953125 251.64178466796875 71.03631591796875 270.1495666503906 70.13605499267578 C 288.7752685546875 68.1947250366211 303.8818054199219 69.7894515991211 320.6007385253906 73.3401870727539 C 336.4457702636719 76.84565734863281 351.5576171875 82.0500717163086 364.4271545410156 89.00736236572266 C 379.2747802734375 94.89012908935547 386.38427734375 106.3067398071289 396.0690612792969 119.45455932617188 C 397.7660827636719 106.37602233886719 391.84490966796875 102.35441589355469 391.5621337890625 93.81645202636719 C 385.9826965332031 84.02890014648438 380.66827392578125 75.64652252197266 372.4100341796875 70.5009536743164 C 359.875732421875 59.03166961669922 345.0379638671875 50.158748626708984 326.60394287109375 46.11381912231445 C 304.3277893066406 42.098480224609375 286.02288818359375 40.83533477783203 263.0163879394531 45.37323760986328 C 243.28036499023438 50.45664596557617 227.57308959960938 58.378761291503906 218.40028381347656 70.0542984008789" stroke-width="0.0" fill="rgb(92, 95, 112)" opacity="1.0038419" stroke="rgb(0, 0, 0)" stroke-opacity="1.0" stroke-linecap="round" stroke-linejoin="round"/>
    <path d="M 366.9894714355469 516.410888671875 C 360.9552001953125 507.5615234375 358.2807312011719 504.288330078125 356.2182922363281 502.0155334472656 C 347.40411376953125 501.7314758300781 340.535400390625 502.98883056640625 333.17425537109375 503.0455322265625 C 331.412841796875 493.5577697753906 330.0799255371094 484.484619140625 327.8937072753906 476.7119445800781 C 303.9133605957031 481.3226623535156 279.0865173339844 482.4733581542969 253.83058166503906 483.54986572265625 C 254.50352478027344 494.0092468261719 257.1754455566406 502.2164001464844 255.0837860107422 516.15478515625 C 292.56182861328125 516.6607666015625 329.7457275390625 517.574462890625 366.9894714355469 516.410888671875" stroke-width="0.0" fill="rgb(185, 191, 226)" opacity="0.9866539" stroke="rgb(0, 0, 0)" stroke-opacity="1.0" stroke-linecap="round" stroke-linejoin="round"/>
    <path d="M 347.8631896972656 468.2370300292969 C 344.6191711425781 458.0412292480469 340.1676330566406 455.9971008300781 334.9831237792969 454.4168701171875 C 329.0390319824219 453.34259033203125 323.7904968261719 455.4197082519531 317.9836120605469 456.5605773925781 C 317.3172607421875 462.6436462402344 314.7902526855469 469.3351135253906 315.7963562011719 477.1495056152344 C 329.4747619628906 475.3154296875 340.39898681640625 472.4902038574219 347.8631896972656 468.2370300292969" stroke-width="0.0" fill="rgb(22, 20, 23)" opacity="0.9567524" stroke="rgb(0, 0, 0)" stroke-opacity="1.0" stroke-linecap="round" stroke-linejoin="round"/>
    <path d="M 349.1475830078125 289.6274108886719 C 357.3970642089844 293.2684020996094 363.58404541015625 298.76190185546875 370.2808837890625 309.0881652832031 C 368.35205078125 315.13897705078125 376.054931640625 308.8682556152344 385.5736389160156 308.19195556640625 C 387.376953125 296.7900390625 385.10675048828125 292.02032470703125 379.01934814453125 290.15618896484375 C 370.5614318847656 282.49591064453125 362.9588928222656 282.28643798828125 349.1475830078125 289.6274108886719" stroke-width="0.0" fill="rgb(53, 54, 66)" opacity="0.94289064" stroke="rgb(0, 0, 0)" stroke-opacity="1.0" stroke-linecap="round" stroke-linejoin="round"/>
    <path d="M 298.1399841308594 456.7110595703125 C 298.0622863769531 464.1202392578125 297.8620910644531 471.9067077636719 297.8509521484375 480.1191711425781 C 303.115478515625 480.355712890625 306.5514221191406 478.2514953613281 312.10968017578125 478.61077880859375 C 313.7541809082031 471.8056945800781 313.7172546386719 463.9728698730469 313.4179382324219 457.0232849121094 C 307.2574157714844 457.3626708984375 302.2644348144531 456.7791748046875 298.1399841308594 456.7110595703125" stroke-width="0.0" fill="rgb(85, 89, 109)" opacity="0.88495594" stroke="rgb(0, 0, 0)" stroke-opacity="1.0" stroke-linecap="round" stroke-linejoin="round"/>
    <path d="M 176.4593963623047 490.9310302734375 C 169.92031860351562 495.4970397949219 168.802978515625 505.4638671875 162.82383728027344 513.1259765625 C 166.6558380126953 516.7838745117188 172.11886596679688 516.4404296875 178.5625762939453 515.763427734375 C 176.2202911376953 503.49346923828125 179.3029022216797 495.9923400878906 176.4593963623047 490.9310302734375" stroke-width="0.0" fill="rgb(87, 91, 106)" opacity="0.96520287" stroke="rgb(0, 0, 0)" stroke-opacity="1.0" stroke-linecap="round" stroke-linejoin="round"/>
    <path d="M 223.16571044921875 455.651123046875 C 222.0797119140625 465.9106140136719 220.5676727294922 474.4300537109375 229.63377380371094 477.3980712890625 C 232.8706817626953 472.2084655761719 232.43751525878906 463.181640625 230.78578186035156 455.1742858886719 C 228.43519592285156 455.8695983886719 224.97096252441406 456.8504333496094 223.16571044921875 455.651123046875" stroke-width="0.0" fill="rgb(44, 45, 57)" opacity="0.9732843" stroke="rgb(0, 0, 0)" stroke-opacity="1.0" stroke-linecap="round" stroke-linejoin="round"/>
    <path d="M 193.0880889892578 407.3032531738281 C 194.38417053222656 413.403076171875 196.6370086669922 412.6001892089844 197.40936279296875 410.9810485839844 C 206.5112762451172 413.52587890625 217.62469482421875 418.1515808105469 231.5043182373047 415.3514404296875 C 222.51902770996094 408.8095703125 206.505126953125 410.13397216796875 193.0880889892578 407.3032531738281" stroke-width="0.0" fill="rgb(28, 28, 35)" opacity="0.9817576" stroke="rgb(0, 0, 0)" stroke-opacity="1.0" stroke-linecap="round" stroke-linejoin="round"/>
    <path d="M 319.6098937988281 271.0760803222656 C 320.14599609375 271.5989685058594 328.1898498535156 269.8240966796875 339.3310852050781 269.5320129394531 C 335.9654541015625 264.9599914550781 330.856689453125 263.4195251464844 329.6724548339844 259.5885314941406 C 326.3066101074219 262.5858459472656 321.04656982421875 262.0999450683594 319.6098937988281 271.0760803222656" stroke-width="0.0" fill="rgb(66, 67, 75)" opacity="0.997486" stroke="rgb(0, 0, 0)" stroke-opacity="1.0" stroke-linecap="round" stroke-linejoin="round"/>
    <path d="M 245.1569366455078 306.4549255371094 C 242.1060333251953 307.2640380859375 248.36923217773438 304.102783203125 259.30908203125 303.2950439453125 C 258.1505126953125 299.3544006347656 258.7723083496094 292.9053039550781 257.7526550292969 295.7255859375 C 247.12132263183594 296.86065673828125 242.3849639892578 294.23980712890625 245.1569366455078 306.4549255371094" stroke-width="0.0" fill="rgb(131, 135, 159)" opacity="1.0131142" stroke="rgb(0, 0, 0)" stroke-opacity="1.0" stroke-linecap="round" stroke-linejoin="round"/>
    <path d="M 250.2863006591797 357.083984375 C 246.81478881835938 361.68353271484375 249.0597381591797 367.1175842285156 249.9845733642578 364.67535400390625 C 252.5344696044922 365.8724365234375 257.08551025390625 369.7406005859375 259.4044189453125 363.7646179199219 C 259.9285888671875 358.3465881347656 255.8427734375 358.621337890625 250.2863006591797 357.083984375" stroke-width="0.0" fill="rgb(125, 136, 155)" opacity="1.0025904" stroke="rgb(0, 0, 0)" stroke-opacity="1.0" stroke-linecap="round" stroke-linejoin="round"/>
    <path d="M 374.3667907714844 489.9271240234375 C 377.7437438964844 500.802490234375 380.8934326171875 505.9466552734375 385.54205322265625 515.174560546875 C 398.7350158691406 517.0269775390625 411.78631591796875 517.9306640625 420.6029968261719 514.4072875976562 C 414.92413330078125 497.6068420410156 406.2847900390625 488.4454345703125 399.5627746582031 479.745361328125 C 389.5482482910156 484.0345458984375 379.24383544921875 485.5897521972656 374.3667907714844 489.9271240234375" stroke-width="0.0" fill="rgb(61, 60, 71)" opacity="0.9779282" stroke="rgb(0, 0, 0)" stroke-opacity="1.0" stroke-linecap="round" stroke-linejoin="round"/>
    <path d="M 232.00360107421875 120.764404296875 C 247.7177734375 128.7715301513672 267.4999694824219 134.04232788085938 292.2800598144531 135.84986877441406 C 318.7672119140625 140.0331268310547 337.81817626953125 137.02256774902344 357.2282409667969 131.40621948242188 C 352.6829528808594 117.2432861328125 343.0972595214844 110.65084838867188 331.6089172363281 105.3018569946289 C 320.3841857910156 99.66226196289062 307.546142578125 96.19908905029297 291.81634521484375 96.2032470703125 C 277.33160400390625 94.03144836425781 264.79754638671875 96.38509368896484 254.91746520996094 100.51366424560547 C 244.11463928222656 104.4899673461914 235.0663299560547 108.20822143554688 232.00360107421875 120.764404296875" stroke-width="0.0" fill="rgb(55, 55, 53)" opacity="0.963776" stroke="rgb(0, 0, 0)" stroke-opacity="1.0" stroke-linecap="round" stroke-linejoin="round"/>
    <path d="M 357.463134765625 466.40667724609375 C 360.3898620605469 477.7785339355469 368.4083251953125 484.01116943359375 376.5350646972656 493.2156677246094 C 382.8650817871094 487.4762878417969 391.1778564453125 484.200439453125 397.1129150390625 474.9352111816406 C 386.185302734375 471.0553283691406 371.1802673339844 469.97998046875 357.463134765625 466.40667724609375" stroke-width="0.0" fill="rgb(74, 76, 90)" opacity="0.98461264" stroke="rgb(0, 0, 0)" stroke-opacity="1.0" stroke-linecap="round" stroke-linejoin="round"/>
    <path d="M 369.41387939453125 369.18914794921875 C 373.5503234863281 367.07940673828125 372.8083801269531 370.11041259765625 373.8456726074219 374.4139709472656 C 370.3780822753906 375.27105712890625 365.0175476074219 378.41162109375 357.3642272949219 380.9902648925781 C 357.7410888671875 372.3583679199219 365.1748046875 371.62030029296875 369.41387939453125 369.18914794921875" stroke-width="0.0" fill="rgb(73, 75, 89)" opacity="1.0010881" stroke="rgb(0, 0, 0)" stroke-opacity="1.0" stroke-linecap="round" stroke-linejoin="round"/>
    <path d="M 290.7284851074219 303.4952392578125 C 285.00018310546875 303.2488098144531 289.74090576171875 307.0658874511719 287.3133544921875 312.345947265625 C 290.5171813964844 313.25677490234375 292.5414123535156 315.5459899902344 297.20257568359375 313.990234375 C 297.26434326171875 305.2953186035156 295.4248962402344 303.1399841308594 290.7284851074219 303.4952392578125" stroke-width="0.0" fill="rgb(52, 54, 65)" opacity="0.98915654" stroke="rgb(0, 0, 0)" stroke-opacity="1.0" stroke-linecap="round" stroke-linejoin="round"/>
    <path d="M 248.77090454101562 151.23501586914062 C 246.36158752441406 157.6023406982422 249.27796936035156 157.6117706298828 251.96145629882812 158.39962768554688 C 261.05535888671875 161.1841583251953 276.7225036621094 161.6823272705078 302.1081848144531 158.49452209472656 C 282.3885192871094 155.04713439941406 262.9276428222656 156.81785583496094 248.77090454101562 151.23501586914062" stroke-width="0.0" fill="rgb(69, 72, 91)" opacity="0.98632884" stroke="rgb(0, 0, 0)" stroke-opacity="1.0" stroke-linecap="round" stroke-linejoin="round"/>
    <path d="M 364.8888854980469 489.5968322753906 C 366.8516540527344 497.0939636230469 368.6577453613281 502.7487487792969 366.79949951171875 516.2190551757812 C 371.3686828613281 517.4992065429688 375.6025085449219 517.195556640625 376.8192443847656 511.5360412597656 C 376.41107177734375 500.3257141113281 373.2034912109375 493.9311218261719 364.8888854980469 489.5968322753906" stroke-width="0.0" fill="rgb(27, 25, 33)" opacity="0.9875695" stroke="rgb(0, 0, 0)" stroke-opacity="1.0" stroke-linecap="round" stroke-linejoin="round"/>
    <path d="M 380.32037353515625 379.87969970703125 C 383.98590087890625 381.6051940917969 380.45135498046875 387.83966064453125 383.0050964355469 384.81103515625 C 377.47052001953125 388.69940185546875 369.4619140625 393.6465759277344 356.23431396484375 393.95941162109375 C 363.17156982421875 386.9493408203125 373.51776123046875 384.9672546386719 380.32037353515625 379.87969970703125" stroke-width="0.0" fill="rgb(49, 51, 63)" opacity="0.9958184" stroke="rgb(0, 0, 0)" stroke-opacity="1.0" stroke-linecap="round" stroke-linejoin="round"/>
    <path d="M 216.75088500976562 236.1332244873047 C 225.35971069335938 234.1788330078125 221.72537231445312 236.2555389404297 221.04769897460938 235.7787322998047 C 222.27679443359375 247.39346313476562 222.90237426757812 252.8621368408203 215.73187255859375 251.06329345703125 C 214.43528747558594 243.5270233154297 214.51214599609375 238.756103515625 216.75088500976562 236.1332244873047" stroke-width="0.0" fill="rgb(55, 56, 68)" opacity="1.0009964" stroke="rgb(0, 0, 0)" stroke-opacity="1.0" stroke-linecap="round" stroke-linejoin="round"/>
    <path d="M 306.1001892089844 114.73397827148438 C 307.2616882324219 121.0658187866211 312.5001525878906 123.90918731689453 321.1108703613281 125.86698150634766 C 330.9715576171875 127.35960388183594 337.0203857421875 127.18425750732422 340.1414794921875 119.3269271850586 C 338.7410888671875 109.9791259765625 332.3177490234375 107.63801574707031 324.7986755371094 106.54049682617188 C 313.5550842285156 104.7671890258789 308.36328125 106.83335876464844 306.1001892089844 114.73397827148438" stroke-width="0.0" fill="rgb(79, 79, 118)" opacity="0.99956656" stroke="rgb(0, 0, 0)" stroke-opacity="1.0" stroke-linecap="round" stroke-linejoin="round"/>
    <path d="M 248.9375762939453 112.584228515625 C 250.83021545410156 114.97978973388672 254.23558044433594 118.68414306640625 261.3072204589844 119.89826202392578 C 272.96820068359375 121.5618896484375 279.2168273925781 120.24504089355469 282.2225646972656 110.79769897460938 C 279.6314697265625 103.30352783203125 274.0958251953125 100.47740936279297 266.0146789550781 101.05980682373047 C 256.68511962890625 99.21520233154297 253.49159240722656 102.23611450195312 248.9375762939453 112.584228515625" stroke-width="0.0" fill="rgb(89, 90, 131)" opacity="1.00021" stroke="rgb(0, 0, 0)" stroke-opacity="1.0" stroke-linecap="round" stroke-linejoin="round"/>
  </g>
</svg>
