<?xml version="1.0" ?>
<svg xmlns="http://www.w3.org/2000/svg" version="1.1" width="512" height="512">
  <defs/>
  <g>
    <path d="M -4.798795223236084 -4.814859390258789 C -4.7941813468933105 170.3333282470703 -4.794495105743408 340.6666564941406 -5.344201564788818 520.2256469726562 C 168.4492645263672 518.9578857421875 338.5495910644531 518.36083984375 518.43603515625 518.38525390625 C 518.44091796875 340.6879577636719 518.4461059570312 170.35520935058594 518.4521484375 -4.7886552810668945 C 340.6666564941406 -4.813365459442139 170.3333282470703 -4.820276737213135 -4.798795223236084 -4.814859390258789" stroke-width="0.0" fill="rgb(258, 260, 262)" opacity="0.76534903" stroke="rgb(0, 0, 0)" stroke-opacity="1.0" stroke-linecap="round" stroke-linejoin="round"/>
    <path d="M 253.97296142578125 29.80345344543457 C 232.44247436523438 36.90009307861328 216.2225341796875 48.722251892089844 203.20130920410156 65.70320129394531 C 192.7450408935547 79.94237518310547 186.49205017089844 101.48607635498047 181.3096160888672 121.95585632324219 C 177.54441833496094 145.3177490234375 176.93418884277344 163.94964599609375 184.68807983398438 178.25076293945312 C 186.48023986816406 207.22410583496094 211.4858856201172 208.37120056152344 215.89964294433594 233.95281982421875 C 208.8153076171875 231.88821411132812 198.9311981201172 231.01573181152344 189.69525146484375 234.0828094482422 C 175.80995178222656 240.02508544921875 169.51309204101562 251.30889892578125 160.79200744628906 257.9035949707031 C 140.89512634277344 265.2066955566406 117.09236145019531 264.98626708984375 102.26737976074219 273.0194091796875 C 90.39824676513672 283.61566162109375 78.556396484375 294.82183837890625 68.93201446533203 306.9901428222656 C 64.72640228271484 318.25799560546875 61.21528244018555 328.57635498046875 62.60895538330078 340.9051818847656 C 65.69286346435547 351.8922119140625 71.32614135742188 358.80499267578125 77.60506439208984 365.4764709472656 C 84.9647445678711 370.11138916015625 91.94037628173828 375.419677734375 101.3895034790039 379.25604248046875 C 124.1929931640625 387.36627197265625 153.57403564453125 389.5899353027344 188.65469360351562 389.5774841308594 C 195.77383422851562 412.04473876953125 198.59339904785156 447.900634765625 197.88055419921875 473.0575256347656 C 218.25132751464844 477.3589172363281 236.00161743164062 478.02655029296875 256.7601013183594 481.1116943359375 C 280.7705993652344 480.80694580078125 307.452392578125 476.7778015136719 330.3955383300781 475.20343017578125 C 336.32281494140625 471.1634826660156 342.26873779296875 469.10638427734375 346.7644348144531 464.96124267578125 C 341.41546630859375 462.63055419921875 341.45013427734375 461.710205078125 343.31353759765625 459.1921081542969 C 344.8671875 457.4224853515625 349.6291809082031 466.8562927246094 351.09234619140625 457.4266662597656 C 357.6710205078125 444.67724609375 347.5687561035156 445.2620849609375 346.561767578125 449.5990905761719 C 350.25054931640625 441.1436462402344 349.6177978515625 430.2747497558594 350.6167907714844 428.59832763671875 C 349.5412292480469 431.6251525878906 344.0428161621094 441.50811767578125 349.8788146972656 453.2427062988281 C 359.92633056640625 474.9283752441406 367.11431884765625 492.2760314941406 371.3389892578125 519.0037231445312 C 382.0711975097656 520.4756469726562 401.9776611328125 520.7357788085938 416.23834228515625 519.0562133789062 C 414.31707763671875 495.85650634765625 404.00946044921875 492.76605224609375 405.05035400390625 473.8807678222656 C 408.9775390625 460.3163146972656 415.89794921875 444.7264709472656 418.6211853027344 412.9201354980469 C 416.7449645996094 392.2322692871094 414.602294921875 358.1706237792969 411.41900634765625 340.7411193847656 C 397.71441650390625 322.2138671875 388.9008483886719 303.5106201171875 378.8191833496094 291.41021728515625 C 364.1831970214844 283.11212158203125 349.4432373046875 283.7315673828125 335.592529296875 285.4189758300781 C 328.3269958496094 288.4781494140625 324.42364501953125 283.32269287109375 321.5019226074219 280.3933410644531 C 343.8019714355469 259.5990905761719 357.1268005371094 232.42214965820312 382.2939453125 219.0983428955078 C 391.2970886230469 207.0552520751953 399.15887451171875 197.46954345703125 404.24822998046875 183.59747314453125 C 407.6549377441406 177.84254455566406 408.68096923828125 167.9770050048828 410.2247009277344 153.79006958007812 C 410.9654846191406 133.1617889404297 408.0476379394531 109.3508529663086 403.8434143066406 90.56108093261719 C 397.9783935546875 74.23178100585938 388.95281982421875 61.720733642578125 377.20458984375 52.03226852416992 C 366.7314758300781 42.232666015625 353.3252258300781 36.084754943847656 338.7713623046875 30.374156951904297 C 327.1927185058594 26.832704544067383 315.77899169921875 24.96736717224121 297.5755615234375 24.02037239074707 C 284.04638671875 23.32555389404297 264.40008544921875 25.389938354492188 253.97296142578125 29.80345344543457" stroke-width="0.0" fill="rgb(117, 120, 145)" opacity="0.99683505" stroke="rgb(0, 0, 0)" stroke-opacity="1.0" stroke-linecap="round" stroke-linejoin="round"/>
    <path d="M 371.5839538574219 520.6713256835938 C 366.2127990722656 490.6487121582031 356.7998046875 478.2993469238281 356.0613708496094 461.5158386230469 C 341.2470703125 470.4556884765625 336.4716491699219 475.83331298828125 327.28533935546875 476.4833984375 C 308.6265869140625 479.6098937988281 290.17193603515625 482.94122314453125 270.8097229003906 481.4758605957031 C 249.21917724609375 482.5231018066406 230.1160430908203 481.54266357421875 208.35968017578125 476.8737487792969 C 204.34326171875 475.5458984375 203.23788452148438 466.18927001953125 192.64988708496094 466.5748291015625 C 181.73997497558594 479.5052795410156 172.92373657226562 492.7533264160156 173.2666015625 521.29345703125 C 237.67774963378906 521.034423828125 304.2706298828125 521.1504516601562 371.5839538574219 520.6713256835938" stroke-width="0.0" fill="rgb(174, 179, 206)" opacity="1.0029324" stroke="rgb(0, 0, 0)" stroke-opacity="1.0" stroke-linecap="round" stroke-linejoin="round"/>
    <path d="M 357.3936767578125 421.9449768066406 C 356.51678466796875 427.51568603515625 343.8040771484375 432.8651123046875 343.1337585449219 447.6852111816406 C 339.7186279296875 453.1587829589844 349.1208801269531 452.4254150390625 351.55706787109375 457.873779296875 C 355.8924560546875 448.06719970703125 353.96844482421875 428.93109130859375 357.3936767578125 421.9449768066406" stroke-width="0.0" fill="rgb(242, 243, 245)" opacity="1.0520836" stroke="rgb(0, 0, 0)" stroke-opacity="1.0" stroke-linecap="round" stroke-linejoin="round"/>
    <path d="M 320.0642395019531 275.204345703125 C 318.84869384765625 278.660400390625 323.20050048828125 282.02667236328125 325.2232666015625 285.0196228027344 C 329.894775390625 286.6704406738281 336.302978515625 291.48773193359375 342.4314880371094 286.8261413574219 C 342.2290954589844 279.51727294921875 339.4761962890625 274.2511291503906 339.4910888671875 269.8199462890625 C 329.6034851074219 269.629150390625 323.55743408203125 269.7744140625 320.0642395019531 275.204345703125" stroke-width="0.0" fill="rgb(242, 244, 245)" opacity="1.0535927" stroke="rgb(0, 0, 0)" stroke-opacity="1.0" stroke-linecap="round" stroke-linejoin="round"/>
    <path d="M 2.4369332790374756 329.94378662109375 C 0.8234039545059204 388.37249755859375 2.787039041519165 452.7451477050781 1.3638088703155518 520.393310546875 C 54.01961135864258 519.8505859375 106.82479095458984 518.5910034179688 160.70101928710938 517.7461547851562 C 173.6440887451172 492.97308349609375 184.9442138671875 471.175537109375 197.88404846191406 452.4960021972656 C 191.93443298339844 431.2115478515625 195.84701538085938 402.71173095703125 184.43955993652344 391.68780517578125 C 156.83250427246094 392.7481689453125 144.49957275390625 391.42413330078125 122.09899139404297 387.3185119628906 C 108.26143646240234 385.7138977050781 98.84532928466797 381.15374755859375 88.57218170166016 375.50274658203125 C 79.99657440185547 369.589111328125 70.29190063476562 366.0611877441406 65.95454406738281 357.0584411621094 C 60.372711181640625 349.09429931640625 58.760101318359375 339.5269775390625 56.764217376708984 320.66845703125 C 55.701900482177734 339.70648193359375 56.191471099853516 340.7066650390625 49.00191116333008 349.757568359375 C 47.09074020385742 346.0583190917969 47.8080940246582 345.7357177734375 47.75380325317383 340.08074951171875 C 34.19606399536133 341.6275634765625 23.4468994140625 338.52569580078125 8.732678413391113 338.7386779785156 C 5.044859886169434 343.62109375 11.085904121398926 354.3530578613281 5.3129496574401855 355.3284606933594 C 4.905760765075684 350.3118896484375 5.460656642913818 334.2550354003906 2.4369332790374756 329.94378662109375" stroke-width="0.0" fill="rgb(250, 252, 252)" opacity="0.9966726" stroke="rgb(0, 0, 0)" stroke-opacity="1.0" stroke-linecap="round" stroke-linejoin="round"/>
    <path d="M 176.57626342773438 491.8197937011719 C 169.93617248535156 498.47003173828125 167.63218688964844 505.7523193359375 163.27288818359375 515.0484008789062 C 164.13414001464844 518.726806640625 168.10462951660156 518.9090576171875 173.03860473632812 518.1513671875 C 174.74339294433594 506.135009765625 176.81671142578125 501.64202880859375 176.57626342773438 491.8197937011719" stroke-width="0.0" fill="rgb(82, 86, 100)" opacity="0.94398326" stroke="rgb(0, 0, 0)" stroke-opacity="1.0" stroke-linecap="round" stroke-linejoin="round"/>
    <path d="M 409.68743896484375 165.7466278076172 C 410.8260192871094 166.6672821044922 411.7820129394531 168.27838134765625 412.32110595703125 173.41905212402344 C 410.61907958984375 177.26266479492188 408.7327880859375 183.7731170654297 403.9364929199219 188.85214233398438 C 404.22613525390625 178.62889099121094 408.9638366699219 172.4903106689453 409.68743896484375 165.7466278076172" stroke-width="0.0" fill="rgb(72, 80, 84)" opacity="1.0062366" stroke="rgb(0, 0, 0)" stroke-opacity="1.0" stroke-linecap="round" stroke-linejoin="round"/>
    <path d="M 69.28305053710938 306.218017578125 C 63.19598388671875 316.4029235839844 61.205570220947266 327.12335205078125 62.14548110961914 339.8016662597656 C 63.8593864440918 354.3334655761719 73.13263702392578 362.5442199707031 83.47325897216797 370.17108154296875 C 91.17524719238281 375.4256286621094 99.96442413330078 379.4949645996094 109.12203979492188 382.1725769042969 C 133.9095001220703 389.210693359375 161.88609313964844 388.8333435058594 188.2710723876953 390.0316467285156 C 193.99017333984375 407.1327209472656 195.16485595703125 433.31463623046875 198.244873046875 456.818359375 C 189.71571350097656 473.61578369140625 174.16709899902344 487.4483337402344 166.67294311523438 519.9498291015625 C 249.2065887451172 521.1104125976562 336.2800598144531 520.8057861328125 417.907958984375 519.7572021484375 C 417.68084716796875 495.7779235839844 405.68975830078125 494.2893981933594 404.7989807128906 478.1537170410156 C 408.797119140625 459.8886413574219 418.37213134765625 443.8455810546875 420.2752380371094 410.60296630859375 C 417.8046875 396.46014404296875 415.389404296875 379.3183898925781 414.5027770996094 351.3053894042969 C 407.1307678222656 327.0777893066406 390.5625305175781 308.07904052734375 375.3021240234375 287.5662841796875 C 342.8265075683594 282.4552917480469 290.075927734375 284.3860168457031 265.22772216796875 278.4599609375 C 255.07907104492188 274.2004699707031 252.69012451171875 270.27734375 250.05929565429688 264.1062927246094 C 240.1836700439453 254.28536987304688 234.369873046875 261.0303649902344 226.3740234375 253.55300903320312 C 219.4278564453125 248.95870971679688 220.4545135498047 236.9517822265625 212.41888427734375 231.6689910888672 C 207.6459197998047 230.69119262695312 201.242431640625 228.79452514648438 194.67266845703125 231.26478576660156 C 181.21214294433594 233.33636474609375 172.57077026367188 246.78756713867188 162.1410369873047 257.4825439453125 C 142.6186065673828 263.7188415527344 116.16992950439453 264.14691162109375 102.16254425048828 273.081787109375 C 90.18502807617188 283.8687438964844 77.78018188476562 293.1219482421875 69.28305053710938 306.218017578125" stroke-width="0.0" fill="rgb(127, 130, 151)" opacity="0.73714495" stroke="rgb(0, 0, 0)" stroke-opacity="1.0" stroke-linecap="round" stroke-linejoin="round"/>
    <path d="M 273.0178527832031 25.364212036132812 C 258.3988342285156 27.543228149414062 245.17294311523438 31.8292293548584 234.55703735351562 38.10747146606445 C 220.69046020507812 45.742733001708984 210.458251953125 55.91318130493164 200.94619750976562 68.67371368408203 C 193.11862182617188 80.65621185302734 188.833740234375 98.50743865966797 183.0370330810547 114.1854248046875 C 180.8991241455078 128.63294982910156 176.3656005859375 143.8402557373047 179.22071838378906 158.8886260986328 C 181.71182250976562 175.67857360839844 185.84429931640625 187.90478515625 193.6815185546875 201.12759399414062 C 200.80929565429688 208.73165893554688 210.2295684814453 215.97286987304688 217.84727478027344 225.95822143554688 C 220.07049560546875 234.01495361328125 221.86143493652344 242.16397094726562 228.3357696533203 246.8902587890625 C 232.2081298828125 252.13279724121094 234.89796447753906 250.32302856445312 244.69166564941406 252.408203125 C 253.72911071777344 257.76654052734375 259.0650939941406 269.0220031738281 269.84423828125 275.8801574707031 C 277.79046630859375 277.8365173339844 294.4585876464844 278.576171875 305.7227478027344 277.4136657714844 C 318.3115539550781 275.83599853515625 325.09344482421875 267.4246520996094 337.53497314453125 264.0413513183594 C 353.81414794921875 229.59188842773438 384.660888671875 225.63644409179688 396.609375 198.7239227294922 C 403.9185485839844 188.2627410888672 408.6090393066406 176.00875854492188 409.5716552734375 158.8029022216797 C 412.4590148925781 137.35250854492188 408.09295654296875 122.59400177001953 406.83624267578125 101.91288757324219 C 404.4857482910156 88.01851654052734 398.2252197265625 76.8795166015625 390.8595275878906 67.06658172607422 C 382.3907775878906 54.789852142333984 370.5691833496094 45.688899993896484 357.0027160644531 38.38520050048828 C 346.3647155761719 32.8116569519043 335.44537353515625 28.220781326293945 321.5571594238281 26.276891708374023 C 303.25860595703125 23.992326736450195 292.38873291015625 23.184171676635742 273.0178527832031 25.364212036132812" stroke-width="0.0" fill="rgb(164, 167, 191)" opacity="0.8117322" stroke="rgb(0, 0, 0)" stroke-opacity="1.0" stroke-linecap="round" stroke-linejoin="round"/>
    <path d="M 193.61294555664062 137.9884796142578 C 204.29917907714844 175.75436401367188 217.13314819335938 202.81642150878906 221.26812744140625 239.13418579101562 C 227.88450622558594 250.65721130371094 234.57408142089844 250.51332092285156 242.57923889160156 251.1605224609375 C 252.75616455078125 259.2640686035156 257.346435546875 271.2406921386719 263.38177490234375 275.4933776855469 C 278.62060546875 278.8741149902344 292.08612060546875 281.2214050292969 306.1764221191406 279.0171203613281 C 317.3436279296875 274.69085693359375 327.3310241699219 268.1708984375 341.3854675292969 257.8381042480469 C 347.7130126953125 215.9461212158203 375.774169921875 196.4453125 392.77008056640625 153.8750762939453 C 381.1070556640625 159.76632690429688 371.13006591796875 165.1108856201172 351.21893310546875 165.7212677001953 C 336.5247497558594 167.63433837890625 317.8211364746094 165.9337158203125 302.3313903808594 165.3750762939453 C 281.326416015625 165.26783752441406 264.02484130859375 159.61041259765625 246.30831909179688 157.71072387695312 C 224.92579650878906 153.5704803466797 211.64767456054688 147.39256286621094 193.61294555664062 137.9884796142578" stroke-width="0.0" fill="rgb(64, 63, 73)" opacity="0.9893791" stroke="rgb(0, 0, 0)" stroke-opacity="1.0" stroke-linecap="round" stroke-linejoin="round"/>
    <path d="M 205.15281677246094 100.96316528320312 C 212.54737854003906 118.5096206665039 188.06201171875 127.34770965576172 199.5695343017578 136.14886474609375 C 210.10768127441406 149.01504516601562 228.42758178710938 153.34507751464844 250.77618408203125 156.69117736816406 C 282.10772705078125 164.14639282226562 316.44293212890625 166.6687469482422 346.7868957519531 165.7001495361328 C 365.1773986816406 164.18064880371094 374.9855651855469 161.71507263183594 383.08642578125 157.28089904785156 C 386.5948181152344 154.9803466796875 390.75018310546875 150.55445861816406 390.8836669921875 148.1781005859375 C 372.3226318359375 141.3609619140625 382.30047607421875 125.87345886230469 392.2828369140625 109.95631408691406 C 374.4621276855469 93.41691589355469 357.97576904296875 83.6801528930664 336.240478515625 78.32200622558594 C 312.5455017089844 71.69707489013672 283.8212585449219 71.69813537597656 255.12698364257812 71.85882568359375 C 236.74081420898438 74.70524597167969 222.81289672851562 79.3667984008789 211.7837371826172 84.81808471679688 C 203.1514434814453 91.8359146118164 194.10646057128906 93.90769958496094 205.15281677246094 100.96316528320312" stroke-width="0.0" fill="rgb(171, 176, 204)" opacity="1.1425084" stroke="rgb(0, 0, 0)" stroke-opacity="1.0" stroke-linecap="round" stroke-linejoin="round"/>
    <path d="M 70.85631561279297 304.0401611328125 C 64.838134765625 315.03094482421875 60.97525405883789 323.4783020019531 63.16360855102539 341.7494201660156 C 66.54720306396484 353.0248718261719 73.4813461303711 362.5603942871094 82.69920349121094 369.68408203125 C 94.0223617553711 377.45379638671875 108.11405181884766 383.05914306640625 123.84585571289062 385.4506530761719 C 144.50914001464844 389.0821838378906 166.28392028808594 388.6022644042969 189.37722778320312 387.5555725097656 C 187.8371124267578 368.8130187988281 184.53089904785156 351.56134033203125 186.91802978515625 334.45513916015625 C 188.9798126220703 316.6742248535156 195.76185607910156 300.3453369140625 197.81887817382812 281.5024108886719 C 172.4986572265625 272.6905517578125 147.0976104736328 271.27313232421875 124.67770385742188 275.0198974609375 C 110.70913696289062 277.8955078125 101.63619995117188 279.1880187988281 94.58672332763672 281.248291015625 C 86.4830322265625 287.1808166503906 79.12489318847656 295.0068664550781 70.85631561279297 304.0401611328125" stroke-width="0.0" fill="rgb(185, 190, 214)" opacity="1.002085" stroke="rgb(0, 0, 0)" stroke-opacity="1.0" stroke-linecap="round" stroke-linejoin="round"/>
    <path d="M 381.24835205078125 343.40484619140625 C 371.8166198730469 348.3764343261719 360.194091796875 351.12310791015625 358.8896789550781 364.7576599121094 C 360.4199523925781 401.8304748535156 354.2337951660156 429.4599304199219 354.62933349609375 453.69329833984375 C 358.7815246582031 479.6839599609375 368.885986328125 492.1285095214844 370.8342590332031 518.6363525390625 C 383.01361083984375 520.0834350585938 403.30389404296875 520.3522338867188 417.8785400390625 518.2411499023438 C 416.21527099609375 497.06268310546875 406.0774230957031 493.6257629394531 404.8259582519531 478.8628234863281 C 406.4846496582031 464.4316711425781 415.1781921386719 452.7806091308594 416.4562072753906 431.1460266113281 C 419.14013671875 405.14862060546875 417.6851806640625 403.1245422363281 411.89764404296875 376.7781677246094 C 415.4613952636719 376.2318420410156 407.5901794433594 381.9124450683594 407.34625244140625 381.3381042480469 C 407.60809326171875 367.1056213378906 404.4594421386719 359.1300048828125 400.9261474609375 351.4738464355469 C 393.8815002441406 346.2498474121094 392.9010314941406 343.4085998535156 381.24835205078125 343.40484619140625" stroke-width="0.0" fill="rgb(127, 128, 141)" opacity="0.7530996" stroke="rgb(0, 0, 0)" stroke-opacity="1.0" stroke-linecap="round" stroke-linejoin="round"/>
    <path d="M 228.1420440673828 293.198974609375 C 218.05282592773438 294.9473876953125 212.96994018554688 302.1331787109375 209.7810821533203 308.891845703125 C 203.02122497558594 317.49658203125 200.98434448242188 326.5596618652344 199.76901245117188 337.072998046875 C 198.81494140625 353.7669982910156 199.7191162109375 370.2283020019531 202.98776245117188 386.1327209472656 C 205.75753784179688 392.2391662597656 209.65061950683594 395.6048278808594 223.6142120361328 394.3426818847656 C 228.8625946044922 395.3251647949219 229.8545684814453 393.55120849609375 235.16082763671875 387.23944091796875 C 239.41578674316406 374.59222412109375 243.4340362548828 365.61376953125 243.50650024414062 358.50830078125 C 243.87213134765625 338.9730529785156 244.6986083984375 325.4637756347656 241.3008270263672 314.4713439941406 C 237.05535888671875 306.174560546875 235.6124725341797 297.5855712890625 228.1420440673828 293.198974609375" stroke-width="0.0" fill="rgb(183, 188, 213)" opacity="0.99370354" stroke="rgb(0, 0, 0)" stroke-opacity="1.0" stroke-linecap="round" stroke-linejoin="round"/>
    <path d="M 338.9430236816406 413.4657897949219 C 337.672119140625 410.9884033203125 328.6109619140625 411.8599853515625 323.4694519042969 409.1701965332031 C 305.63873291015625 405.3346862792969 297.54339599609375 411.43505859375 286.92462158203125 413.1336669921875 C 281.56884765625 416.40545654296875 275.6507873535156 420.3277587890625 272.28485107421875 426.3534851074219 C 269.625732421875 432.98822021484375 271.0933532714844 442.6745300292969 275.2251281738281 445.4132080078125 C 280.2272033691406 450.9101257324219 302.1912841796875 447.9222412109375 327.1867980957031 445.5217590332031 C 333.3817138671875 443.5730895996094 338.5127258300781 440.0103759765625 341.0724792480469 434.3244323730469 C 340.7335205078125 423.26019287109375 344.9564514160156 419.3615417480469 338.9430236816406 413.4657897949219" stroke-width="0.0" fill="rgb(131, 134, 158)" opacity="0.97213733" stroke="rgb(0, 0, 0)" stroke-opacity="1.0" stroke-linecap="round" stroke-linejoin="round"/>
    <path d="M 207.79177856445312 285.1942443847656 C 202.4161834716797 285.9737548828125 199.23651123046875 291.2727966308594 195.16375732421875 298.7263488769531 C 192.85406494140625 304.2481994628906 190.34817504882812 312.08221435546875 187.38662719726562 326.5078430175781 C 186.8070526123047 345.26470947265625 185.92372131347656 365.8332824707031 189.61741638183594 374.0357971191406 C 191.97633361816406 383.55145263671875 196.50372314453125 380.5646057128906 200.885986328125 375.7353515625 C 200.39276123046875 359.239013671875 197.72705078125 338.7114562988281 203.62356567382812 322.96307373046875 C 205.9413604736328 310.75604248046875 213.08155822753906 302.4749755859375 218.57276916503906 293.35235595703125 C 217.1765594482422 287.4759521484375 213.3480224609375 287.4482727050781 207.79177856445312 285.1942443847656" stroke-width="0.0" fill="rgb(18, 18, 21)" opacity="0.9933039" stroke="rgb(0, 0, 0)" stroke-opacity="1.0" stroke-linecap="round" stroke-linejoin="round"/>
    <path d="M 191.36253356933594 96.07994079589844 C 211.32252502441406 91.64391326904297 219.322998046875 76.10636901855469 241.6231231689453 75.4638900756836 C 262.0881042480469 69.79253387451172 279.5213928222656 71.15398406982422 297.0907897949219 71.61180877685547 C 316.65960693359375 73.97283935546875 337.8542785644531 75.29670715332031 354.39276123046875 84.09684753417969 C 374.4126892089844 90.99809265136719 385.54205322265625 106.0021743774414 400.7331848144531 118.06004333496094 C 409.3216552734375 109.6314697265625 405.104736328125 102.57035827636719 398.6460876464844 104.54505920410156 C 399.0443115234375 98.63568878173828 404.962158203125 104.41217803955078 405.86346435546875 99.10697937011719 C 402.39630126953125 98.6114730834961 397.6190185546875 102.23410034179688 399.766357421875 96.74313354492188 C 402.1703796386719 95.21880340576172 400.11505126953125 96.06997680664062 405.5579833984375 97.46524047851562 C 404.1882629394531 91.2784652709961 403.9670104980469 83.10731506347656 400.88238525390625 85.96202087402344 C 396.905517578125 71.2839126586914 386.0720520019531 60.23505783081055 375.50390625 49.95066452026367 C 367.9089660644531 43.74814987182617 359.1478271484375 38.50408935546875 350.4377136230469 34.26316452026367 C 338.2592468261719 29.064529418945312 326.21533203125 24.660165786743164 310.9058837890625 22.99183464050293 C 298.8177185058594 22.313095092773438 284.814697265625 22.25105857849121 272.7660827636719 24.263364791870117 C 257.8236389160156 26.98858070373535 245.259033203125 32.17713165283203 233.59149169921875 38.18658447265625 C 222.13632202148438 45.708187103271484 211.401611328125 53.50155258178711 203.3271942138672 64.64825439453125 C 197.63717651367188 71.44720458984375 193.08990478515625 81.54400634765625 191.36253356933594 96.07994079589844" stroke-width="0.0" fill="rgb(150, 156, 181)" opacity="1.0681655" stroke="rgb(0, 0, 0)" stroke-opacity="1.0" stroke-linecap="round" stroke-linejoin="round"/>
    <path d="M 372.4044494628906 522.4982299804688 C 366.45635986328125 488.4252014160156 359.8689270019531 475.5589904785156 350.6961669921875 467.23468017578125 C 339.76763916015625 469.7275085449219 331.17962646484375 475.7962341308594 322.31494140625 475.46197509765625 C 300.059814453125 478.1992492675781 276.91778564453125 481.7218017578125 253.73890686035156 483.60205078125 C 253.24984741210938 491.9127502441406 255.61480712890625 501.3346862792969 255.18360900878906 522.630126953125 C 300.4140625 522.7788696289062 339.1542053222656 522.5885620117188 372.4044494628906 522.4982299804688" stroke-width="0.0" fill="rgb(129, 135, 165)" opacity="0.86580145" stroke="rgb(0, 0, 0)" stroke-opacity="1.0" stroke-linecap="round" stroke-linejoin="round"/>
    <path d="M 166.42868041992188 521.0575561523438 C 189.1575164794922 522.1031494140625 217.71327209472656 522.021728515625 253.41976928710938 521.9254760742188 C 254.15872192382812 503.3208923339844 255.07435607910156 491.87847900390625 251.0706024169922 482.4334716796875 C 230.19607543945312 481.99273681640625 204.3921661376953 481.6029052734375 190.96261596679688 466.8511047363281 C 183.03466796875 480.8193359375 174.61668395996094 492.9342956542969 166.42868041992188 521.0575561523438" stroke-width="0.0" fill="rgb(178, 183, 207)" opacity="0.99752975" stroke="rgb(0, 0, 0)" stroke-opacity="1.0" stroke-linecap="round" stroke-linejoin="round"/>
    <path d="M 192.40357971191406 465.2972717285156 C 194.73876953125 472.3522033691406 200.90650939941406 476.23199462890625 209.01849365234375 477.4858703613281 C 220.90182495117188 480.365478515625 233.7967987060547 482.8659362792969 249.56922912597656 482.5189514160156 C 273.02490234375 484.00872802734375 293.3323669433594 481.1287536621094 314.0957946777344 479.7402038574219 C 324.96624755859375 477.8837890625 335.377197265625 472.898193359375 346.9847717285156 468.18853759765625 C 345.1838684082031 458.8799743652344 342.023681640625 451.0199279785156 323.2410888671875 454.8292541503906 C 320.11993408203125 461.9949951171875 312.3081970214844 468.840576171875 274.1455383300781 472.15167236328125 C 267.8584289550781 471.00677490234375 253.8156280517578 469.28900146484375 242.88973999023438 467.33935546875 C 228.40049743652344 464.4396057128906 224.969482421875 451.38275146484375 209.6290283203125 454.03753662109375 C 200.6779327392578 449.4667663574219 196.28970336914062 458.938720703125 192.40357971191406 465.2972717285156" stroke-width="0.0" fill="rgb(21, 20, 25)" opacity="1.0020405" stroke="rgb(0, 0, 0)" stroke-opacity="1.0" stroke-linecap="round" stroke-linejoin="round"/>
    <path d="M 256.9103088378906 289.06689453125 C 244.6276092529297 285.4073181152344 238.32925415039062 289.6203918457031 235.25381469726562 300.02880859375 C 236.3993682861328 308.8194580078125 243.84896850585938 315.4632263183594 243.80908203125 324.387939453125 C 246.83851623535156 335.2814636230469 243.42825317382812 351.60052490234375 243.8418426513672 359.9755859375 C 240.4887237548828 378.41259765625 237.5237274169922 390.0059814453125 226.85113525390625 396.0523986816406 C 224.58860778808594 406.9001770019531 229.04156494140625 410.2875061035156 236.05918884277344 411.7846984863281 C 243.1659393310547 413.6626892089844 250.0818328857422 409.9848937988281 253.0986328125 402.67156982421875 C 255.8999481201172 396.67242431640625 256.8216857910156 387.1763000488281 259.56201171875 371.9515075683594 C 263.8943176269531 352.22479248046875 261.3497619628906 327.3117370605469 261.36175537109375 304.566650390625 C 260.3412780761719 296.937744140625 259.06524658203125 290.4692687988281 256.9103088378906 289.06689453125" stroke-width="0.0" fill="rgb(35, 35, 41)" opacity="1.045738" stroke="rgb(0, 0, 0)" stroke-opacity="1.0" stroke-linecap="round" stroke-linejoin="round"/>
    <path d="M 193.37750244140625 395.75323486328125 C 195.0510711669922 417.3744201660156 194.52049255371094 440.0619201660156 200.14572143554688 449.3291320800781 C 217.94412231445312 455.3818359375 222.03411865234375 450.41204833984375 240.62948608398438 448.20562744140625 C 237.1146697998047 434.69091796875 236.9011688232422 420.53265380859375 231.0137939453125 414.57733154296875 C 218.33929443359375 408.480224609375 214.14991760253906 397.2666320800781 193.37750244140625 395.75323486328125" stroke-width="0.0" fill="rgb(90, 95, 112)" opacity="0.98512655" stroke="rgb(0, 0, 0)" stroke-opacity="1.0" stroke-linecap="round" stroke-linejoin="round"/>
    <path d="M 260.6224060058594 291.54693603515625 C 261.0411682128906 300.19073486328125 262.4071960449219 321.22064208984375 262.7049865722656 327.7707824707031 C 273.7660827636719 331.8630676269531 280.37200927734375 330.07830810546875 288.4521179199219 325.2191467285156 C 290.0989685058594 317.92730712890625 288.9461669921875 308.8026428222656 301.5758056640625 299.6780090332031 C 286.2348327636719 295.7960510253906 274.8321838378906 293.9876403808594 260.6224060058594 291.54693603515625" stroke-width="0.0" fill="rgb(170, 177, 203)" opacity="1.002121" stroke="rgb(0, 0, 0)" stroke-opacity="1.0" stroke-linecap="round" stroke-linejoin="round"/>
    <path d="M 274.4247741699219 288.9154968261719 C 282.59564208984375 297.1729736328125 296.2656555175781 299.0118408203125 306.2225341796875 308.41741943359375 C 330.1969299316406 312.51837158203125 343.0107116699219 314.7314758300781 343.55596923828125 311.424072265625 C 350.6831970214844 299.97161865234375 343.32891845703125 294.14691162109375 339.6795654296875 292.06036376953125 C 317.80267333984375 291.9789733886719 295.8285217285156 285.409423828125 274.4247741699219 288.9154968261719" stroke-width="0.0" fill="rgb(33, 32, 34)" opacity="1.0064399" stroke="rgb(0, 0, 0)" stroke-opacity="1.0" stroke-linecap="round" stroke-linejoin="round"/>
    <path d="M 284.0668640136719 335.69891357421875 C 268.02191162109375 333.47283935546875 264.4093933105469 334.2783508300781 261.3016052246094 341.34698486328125 C 263.1888122558594 356.4248046875 258.6647033691406 367.5156555175781 262.400390625 371.5850830078125 C 268.8914489746094 375.81475830078125 278.32843017578125 374.220947265625 279.8124084472656 372.07684326171875 C 284.3207702636719 370.3428955078125 288.7314758300781 367.0113830566406 289.61993408203125 358.77691650390625 C 290.48126220703125 353.8092956542969 289.7304992675781 346.7139587402344 289.12640380859375 339.7684326171875 C 285.0000915527344 337.4927673339844 283.8348693847656 334.3583068847656 284.0668640136719 335.69891357421875" stroke-width="0.0" fill="rgb(161, 167, 191)" opacity="0.9038365" stroke="rgb(0, 0, 0)" stroke-opacity="1.0" stroke-linecap="round" stroke-linejoin="round"/>
    <path d="M 350.9685974121094 287.30364990234375 C 357.6416931152344 293.703857421875 365.9031982421875 298.79833984375 369.6182556152344 311.7165222167969 C 367.5658874511719 322.21502685546875 358.01025390625 324.5660095214844 360.0595703125 338.10662841796875 C 374.1081237792969 334.46868896484375 378.3847961425781 324.7981872558594 383.7801208496094 318.0077209472656 C 386.19970703125 313.59881591796875 387.42889404296875 306.99749755859375 385.3824768066406 297.6800537109375 C 382.6306457519531 293.9448547363281 379.353515625 288.59039306640625 374.1576232910156 287.8684387207031 C 372.4867248535156 285.2097473144531 357.21893310546875 284.90673828125 350.9685974121094 287.30364990234375" stroke-width="0.0" fill="rgb(54, 54, 65)" opacity="0.9186781" stroke="rgb(0, 0, 0)" stroke-opacity="1.0" stroke-linecap="round" stroke-linejoin="round"/>
    <path d="M 159.08026123046875 273.2583923339844 C 171.47157287597656 274.8113708496094 187.5556640625 277.98828125 208.83457946777344 281.4429626464844 C 203.96951293945312 268.93768310546875 192.85435485839844 263.4404602050781 184.16845703125 260.9178466796875 C 182.2769012451172 259.8512268066406 170.99595642089844 260.3220520019531 168.39283752441406 259.95098876953125 C 164.6206817626953 261.3047790527344 157.76779174804688 267.0795593261719 159.08026123046875 273.2583923339844" stroke-width="0.0" fill="rgb(21, 20, 24)" opacity="1.0067577" stroke="rgb(0, 0, 0)" stroke-opacity="1.0" stroke-linecap="round" stroke-linejoin="round"/>
    <path d="M 244.3751678466797 252.0313720703125 C 235.49595642089844 252.0835418701172 236.81903076171875 260.18865966796875 230.63006591796875 259.47015380859375 C 229.77706909179688 269.2078857421875 226.87646484375 276.7050476074219 231.31837463378906 282.53338623046875 C 238.4558563232422 281.0342102050781 246.03790283203125 280.55157470703125 252.4449920654297 279.1831359863281 C 253.7060546875 262.9796142578125 252.1461639404297 257.5538024902344 244.3751678466797 252.0313720703125" stroke-width="0.0" fill="rgb(178, 183, 208)" opacity="0.99185514" stroke="rgb(0, 0, 0)" stroke-opacity="1.0" stroke-linecap="round" stroke-linejoin="round"/>
    <path d="M 262.2200927734375 457.34466552734375 C 262.1979064941406 462.2724609375 260.8320617675781 467.406005859375 262.75384521484375 470.7154541015625 C 270.8236389160156 470.7046203613281 282.9815368652344 471.7695617675781 285.9676513671875 470.9972839355469 C 285.5840148925781 463.9134216308594 287.1295471191406 460.3152160644531 283.6016540527344 456.55743408203125 C 278.08770751953125 457.12261962890625 262.8250427246094 456.6592102050781 262.2200927734375 457.34466552734375" stroke-width="0.0" fill="rgb(145, 152, 183)" opacity="0.9769136" stroke="rgb(0, 0, 0)" stroke-opacity="1.0" stroke-linecap="round" stroke-linejoin="round"/>
    <path d="M 91.62409973144531 283.6741027832031 C 105.02381134033203 277.8238525390625 121.20809173583984 275.72613525390625 138.2500762939453 273.8192138671875 C 129.40499877929688 266.5245361328125 120.11911010742188 267.0568542480469 110.14191436767578 267.98602294921875 C 100.4976806640625 270.24810791015625 95.51708221435547 275.3677978515625 91.62409973144531 283.6741027832031" stroke-width="0.0" fill="rgb(15, 13, 14)" opacity="1.0045922" stroke="rgb(0, 0, 0)" stroke-opacity="1.0" stroke-linecap="round" stroke-linejoin="round"/>
    <path d="M 239.58067321777344 455.5962829589844 C 234.95884704589844 457.5997619628906 239.54827880859375 461.56390380859375 241.27685546875 466.6238708496094 C 245.65914916992188 468.2982177734375 252.0040740966797 470.26080322265625 261.0151062011719 468.4543151855469 C 261.1221618652344 460.7078857421875 261.7475891113281 457.4550476074219 258.2564392089844 456.0712585449219 C 250.9709014892578 456.9664306640625 236.0967254638672 452.97784423828125 239.58067321777344 455.5962829589844" stroke-width="0.0" fill="rgb(140, 146, 176)" opacity="0.94558877" stroke="rgb(0, 0, 0)" stroke-opacity="1.0" stroke-linecap="round" stroke-linejoin="round"/>
    <path d="M 379.22454833984375 212.44842529296875 C 372.79193115234375 213.4012451171875 368.1624755859375 214.37588500976562 366.0005187988281 216.8159942626953 C 363.6341247558594 222.68453979492188 358.78997802734375 227.58529663085938 357.0519104003906 237.59523010253906 C 363.15130615234375 225.55154418945312 374.29779052734375 232.4743194580078 374.9998474121094 227.04595947265625 C 380.500732421875 224.63014221191406 379.10321044921875 218.71820068359375 379.22454833984375 212.44842529296875" stroke-width="0.0" fill="rgb(50, 48, 55)" opacity="0.96442103" stroke="rgb(0, 0, 0)" stroke-opacity="1.0" stroke-linecap="round" stroke-linejoin="round"/>
    <path d="M 195.5622100830078 194.18917846679688 C 198.53143310546875 192.9208984375 199.55099487304688 195.77621459960938 201.64505004882812 194.87342834472656 C 204.8651580810547 197.81578063964844 208.0573272705078 203.73931884765625 210.11767578125 213.65725708007812 C 199.53091430664062 211.26177978515625 197.31692504882812 202.24798583984375 195.5622100830078 194.18917846679688" stroke-width="0.0" fill="rgb(25, 24, 37)" opacity="1.0070876" stroke="rgb(0, 0, 0)" stroke-opacity="1.0" stroke-linecap="round" stroke-linejoin="round"/>
    <path d="M 296.7540283203125 305.5526123046875 C 295.7298583984375 323.2872009277344 294.4071960449219 324.3229064941406 288.3515625 329.7710876464844 C 287.97552490234375 340.79296875 291.66363525390625 342.8593444824219 293.169677734375 342.7663879394531 C 298.4299621582031 373.06109619140625 282.686279296875 371.9477233886719 290.2121276855469 381.8331298828125 C 289.6540832519531 400.5326843261719 273.6761779785156 395.2930603027344 282.9608154296875 405.97723388671875 C 308.52532958984375 401.451171875 324.494140625 399.50970458984375 357.2838134765625 401.5849914550781 C 358.31536865234375 367.7060852050781 355.8151550292969 336.9591979980469 353.5919189453125 312.1658630371094 C 337.6775207519531 306.8066101074219 316.585205078125 310.7350158691406 296.7540283203125 305.5526123046875" stroke-width="0.0" fill="rgb(191, 197, 222)" opacity="0.91953117" stroke="rgb(0, 0, 0)" stroke-opacity="1.0" stroke-linecap="round" stroke-linejoin="round"/>
    <path d="M 171.24732971191406 236.58970642089844 C 166.45030212402344 243.1090545654297 170.24342346191406 245.98577880859375 170.2973175048828 254.31155395507812 C 195.52493286132812 254.06016540527344 209.0489044189453 265.1072692871094 225.9044952392578 285.0835266113281 C 225.5874481201172 259.9365234375 219.06759643554688 244.608642578125 215.0725555419922 232.9110565185547 C 205.6136474609375 229.8653564453125 196.06504821777344 225.07623291015625 189.21653747558594 225.3673553466797 C 178.44239807128906 227.44825744628906 174.7734832763672 232.00347900390625 171.24732971191406 236.58970642089844" stroke-width="0.0" fill="rgb(86, 88, 105)" opacity="1.0402913" stroke="rgb(0, 0, 0)" stroke-opacity="1.0" stroke-linecap="round" stroke-linejoin="round"/>
    <path d="M 257.9911804199219 379.8599548339844 C 258.0957946777344 388.376953125 254.73916625976562 397.578125 252.1385040283203 408.32208251953125 C 256.8940734863281 407.18255615234375 267.16497802734375 408.8291015625 271.273681640625 407.879150390625 C 277.28814697265625 405.8690185546875 279.01898193359375 401.23724365234375 280.96099853515625 395.10980224609375 C 281.5328369140625 389.6183776855469 281.763427734375 383.397705078125 278.6152648925781 378.6322937011719 C 274.36614990234375 379.0886535644531 264.00885009765625 378.13299560546875 257.9911804199219 379.8599548339844" stroke-width="0.0" fill="rgb(153, 157, 180)" opacity="0.8764764" stroke="rgb(0, 0, 0)" stroke-opacity="1.0" stroke-linecap="round" stroke-linejoin="round"/>
    <path d="M 314.23504638671875 456.2178039550781 C 305.52447509765625 454.6383056640625 302.54901123046875 457.3362731933594 296.6925048828125 456.9934997558594 C 297.08544921875 460.2447204589844 297.1295166015625 464.8446960449219 297.15631103515625 469.1083068847656 C 302.59637451171875 468.136962890625 308.4418640136719 467.8413391113281 314.0960998535156 464.48504638671875 C 315.372314453125 466.6195373535156 313.4645690917969 464.5127258300781 314.23504638671875 456.2178039550781" stroke-width="0.0" fill="rgb(120, 128, 160)" opacity="0.973801" stroke="rgb(0, 0, 0)" stroke-opacity="1.0" stroke-linecap="round" stroke-linejoin="round"/>
    <path d="M 285.6066589355469 458.6650085449219 C 284.08612060546875 461.7662658691406 286.9282531738281 467.7143249511719 285.6712951660156 470.5325927734375 C 290.2251892089844 470.9266052246094 293.80078125 470.5091552734375 297.1521911621094 469.62969970703125 C 295.15826416015625 467.7682189941406 296.4920654296875 462.1856384277344 295.8632507324219 456.60150146484375 C 291.965576171875 457.7223815917969 287.1914367675781 455.3561096191406 285.6066589355469 458.6650085449219" stroke-width="0.0" fill="rgb(110, 115, 144)" opacity="1.021385" stroke="rgb(0, 0, 0)" stroke-opacity="1.0" stroke-linecap="round" stroke-linejoin="round"/>
    <path d="M 177.2274169921875 491.6458435058594 C 170.4208526611328 495.7176818847656 168.33436584472656 504.820068359375 164.8095703125 513.1566162109375 C 165.29583740234375 518.487060546875 168.2884979248047 519.001953125 174.6309356689453 520.1062622070312 C 165.1038818359375 508.8612976074219 175.38287353515625 502.02081298828125 177.2274169921875 491.6458435058594" stroke-width="0.0" fill="rgb(67, 70, 84)" opacity="1.0031154" stroke="rgb(0, 0, 0)" stroke-opacity="1.0" stroke-linecap="round" stroke-linejoin="round"/>
    <path d="M 288.9656066894531 353.77728271484375 C 288.0155944824219 349.52056884765625 293.75738525390625 351.1766662597656 295.0150146484375 351.1636962890625 C 293.8893127441406 356.4777526855469 297.78045654296875 362.8363037109375 287.03997802734375 357.22210693359375 C 289.18389892578125 359.1877746582031 289.10430908203125 356.29437255859375 288.9656066894531 353.77728271484375" stroke-width="0.0" fill="rgb(33, 33, 40)" opacity="0.98455155" stroke="rgb(0, 0, 0)" stroke-opacity="1.0" stroke-linecap="round" stroke-linejoin="round"/>
    <path d="M 384.5352478027344 106.73262786865234 C 385.78387451171875 125.52274322509766 381.6094055175781 133.8106689453125 372.670166015625 143.25997924804688 C 385.4949035644531 144.66929626464844 394.628662109375 149.3917694091797 405.8987121582031 152.23118591308594 C 415.0795593261719 145.97340393066406 414.22760009765625 139.4132843017578 407.78076171875 123.1249771118164 C 400.0281677246094 119.16069793701172 390.74151611328125 118.09347534179688 384.5352478027344 106.73262786865234" stroke-width="0.0" fill="rgb(171, 175, 199)" opacity="0.99031043" stroke="rgb(0, 0, 0)" stroke-opacity="1.0" stroke-linecap="round" stroke-linejoin="round"/>
    <path d="M 207.11422729492188 96.03630828857422 C 195.46847534179688 96.58748626708984 188.2718505859375 99.62077331542969 184.12168884277344 106.7237548828125 C 180.17384338378906 111.65968322753906 176.85215759277344 117.76549530029297 179.50140380859375 126.42145538330078 C 182.62060546875 131.9474639892578 195.2974090576172 127.90335845947266 213.5297393798828 126.98361206054688 C 206.6376495361328 119.47991180419922 204.71726989746094 108.72200012207031 207.11422729492188 96.03630828857422" stroke-width="0.0" fill="rgb(174, 179, 203)" opacity="0.97049844" stroke="rgb(0, 0, 0)" stroke-opacity="1.0" stroke-linecap="round" stroke-linejoin="round"/>
    <path d="M 349.36553955078125 289.0695495605469 C 356.07623291015625 310.877197265625 349.4117431640625 325.1354064941406 359.6962890625 331.165283203125 C 366.2427673339844 324.51422119140625 369.86236572265625 319.9172058105469 369.3800048828125 308.1305847167969 C 366.0054016113281 301.3482666015625 358.2493896484375 294.8642578125 349.36553955078125 289.0695495605469" stroke-width="0.0" fill="rgb(148, 152, 177)" opacity="0.9332292" stroke="rgb(0, 0, 0)" stroke-opacity="1.0" stroke-linecap="round" stroke-linejoin="round"/>
    <path d="M 251.9807891845703 269.3984680175781 C 259.8597412109375 270.0360412597656 260.6530456542969 273.5933532714844 261.2490234375 278.9020080566406 C 255.81065368652344 279.5030212402344 253.47378540039062 278.9619445800781 253.45217895507812 272.9869689941406 C 253.8341827392578 278.8401184082031 249.48423767089844 287.20147705078125 259.8825378417969 286.50054931640625 C 261.00323486328125 290.9963073730469 254.64651489257812 295.31982421875 273.7556457519531 293.7617492675781 C 270.5382995605469 276.59930419921875 263.27337646484375 269.69647216796875 251.9807891845703 269.3984680175781" stroke-width="0.0" fill="rgb(82, 83, 103)" opacity="0.9833954" stroke="rgb(0, 0, 0)" stroke-opacity="1.0" stroke-linecap="round" stroke-linejoin="round"/>
    <path d="M 186.66456604003906 392.4227294921875 C 187.74415588378906 396.03155517578125 191.06646728515625 398.59619140625 190.9861602783203 400.67242431640625 C 204.59288024902344 401.6441345214844 209.1462860107422 402.1719665527344 215.88134765625 404.5738525390625 C 212.59060668945312 395.77587890625 205.56886291503906 394.84344482421875 205.46998596191406 389.06121826171875 C 198.26292419433594 389.387939453125 188.31845092773438 389.11004638671875 186.66456604003906 392.4227294921875" stroke-width="0.0" fill="rgb(132, 133, 150)" opacity="0.9625432" stroke="rgb(0, 0, 0)" stroke-opacity="1.0" stroke-linecap="round" stroke-linejoin="round"/>
    <path d="M 219.10377502441406 271.6717834472656 C 220.9140625 281.2897033691406 221.03854370117188 290.45263671875 223.05174255371094 286.8790588378906 C 224.9853973388672 290.391845703125 225.72958374023438 295.1338195800781 231.83941650390625 288.2230529785156 C 229.35472106933594 282.2700500488281 225.357666015625 278.00836181640625 219.10377502441406 271.6717834472656" stroke-width="0.0" fill="rgb(75, 78, 94)" opacity="1.0126321" stroke="rgb(0, 0, 0)" stroke-opacity="1.0" stroke-linecap="round" stroke-linejoin="round"/>
    <path d="M 310.4031066894531 283.2909851074219 C 313.2012023925781 285.05908203125 317.26861572265625 286.7728271484375 325.0489501953125 286.2358093261719 C 323.6819763183594 280.6200866699219 320.64404296875 278.6972961425781 318.16131591796875 277.1383972167969 C 312.997314453125 276.1585998535156 312.0042724609375 276.88104248046875 310.4031066894531 283.2909851074219" stroke-width="0.0" fill="rgb(120, 125, 136)" opacity="0.98267806" stroke="rgb(0, 0, 0)" stroke-opacity="1.0" stroke-linecap="round" stroke-linejoin="round"/>
    <path d="M 279.2721862792969 337.2690124511719 C 276.94635009765625 335.0511779785156 282.17919921875 335.5813293457031 286.2443542480469 337.4532165527344 C 289.1986389160156 330.69781494140625 289.0564880371094 327.9068298339844 290.38214111328125 330.4783630371094 C 281.1515197753906 328.6280212402344 276.2953796386719 330.14971923828125 279.2721862792969 337.2690124511719" stroke-width="0.0" fill="rgb(117, 125, 146)" opacity="1.0049994" stroke="rgb(0, 0, 0)" stroke-opacity="1.0" stroke-linecap="round" stroke-linejoin="round"/>
    <path d="M 404.2178649902344 113.3152847290039 C 411.3297119140625 117.33377075195312 411.957763671875 120.00890350341797 409.9263000488281 117.65000915527344 C 408.5409851074219 115.59310150146484 412.3905944824219 119.40308380126953 410.07708740234375 131.04495239257812 C 404.5287780761719 123.14391326904297 403.23736572265625 121.6422119140625 404.2178649902344 113.3152847290039" stroke-width="0.0" fill="rgb(177, 192, 221)" opacity="0.97777355" stroke="rgb(0, 0, 0)" stroke-opacity="1.0" stroke-linecap="round" stroke-linejoin="round"/>
    <path d="M 217.24485778808594 104.07817077636719 C 214.6613006591797 112.55475616455078 222.4390411376953 115.958984375 229.84722900390625 120.395751953125 C 247.3107147216797 127.61992645263672 267.3147277832031 131.70555114746094 287.7123107910156 134.40135192871094 C 305.9422912597656 136.36819458007812 330.2992858886719 137.20448303222656 347.7373962402344 134.45848083496094 C 358.9742736816406 132.42556762695312 370.17742919921875 130.50787353515625 373.30364990234375 123.05565643310547 C 377.3058776855469 117.2822494506836 373.6197814941406 113.99346160888672 371.6398010253906 110.26700592041016 C 365.89044189453125 104.98233795166016 358.9490661621094 101.76810455322266 352.1667785644531 99.0299301147461 C 337.1272888183594 93.80826568603516 321.2754211425781 89.25128173828125 305.1846618652344 87.62152862548828 C 284.0310974121094 84.23684692382812 261.5440673828125 85.60645294189453 245.74822998046875 88.21240997314453 C 233.67210388183594 91.83207702636719 218.7045440673828 93.625 217.24485778808594 104.07817077636719" stroke-width="0.0" fill="rgb(26, 26, 29)" opacity="1.0559024" stroke="rgb(0, 0, 0)" stroke-opacity="1.0" stroke-linecap="round" stroke-linejoin="round"/>
    <path d="M 355.8584289550781 453.435791015625 C 356.8050842285156 475.5958557128906 368.068603515625 488.99957275390625 370.5509338378906 519.2515258789062 C 383.97149658203125 519.3324584960938 404.859375 520.1893920898438 421.88812255859375 517.2718505859375 C 406.3929138183594 494.3841247558594 404.654541015625 472.87518310546875 394.14752197265625 459.95782470703125 C 379.490234375 459.46295166015625 367.0267333984375 457.682373046875 355.8584289550781 453.435791015625" stroke-width="0.0" fill="rgb(113, 114, 133)" opacity="1.0503223" stroke="rgb(0, 0, 0)" stroke-opacity="1.0" stroke-linecap="round" stroke-linejoin="round"/>
    <path d="M 396.3376770019531 349.1376647949219 C 391.3921203613281 346.0985412597656 390.5072937011719 344.09051513671875 381.4259033203125 345.25762939453125 C 372.9066162109375 347.7795104980469 364.96307373046875 351.5992736816406 361.04949951171875 359.832763671875 C 356.6202087402344 368.0364685058594 359.9371337890625 384.558837890625 358.7435607910156 398.1773986816406 C 367.4104309082031 400.8763122558594 377.1363830566406 401.1000671386719 387.4061584472656 398.27410888671875 C 392.6424865722656 397.199462890625 395.431640625 391.7890625 399.7339172363281 387.748779296875 C 404.00848388671875 382.32080078125 406.6221618652344 376.86279296875 405.0313720703125 367.055419921875 C 403.68499755859375 358.6502380371094 400.4309997558594 353.95355224609375 396.3376770019531 349.1376647949219" stroke-width="0.0" fill="rgb(22, 21, 22)" opacity="1.0101287" stroke="rgb(0, 0, 0)" stroke-opacity="1.0" stroke-linecap="round" stroke-linejoin="round"/>
    <path d="M 357.806884765625 413.3171081542969 C 356.5824890136719 425.26007080078125 355.16943359375 440.7096252441406 356.5575866699219 453.8445739746094 C 367.81683349609375 456.6326599121094 383.8392333984375 459.7240905761719 396.6697692871094 458.202880859375 C 404.6739196777344 447.7368469238281 409.1880187988281 434.9911193847656 409.1393737792969 418.8476867675781 C 395.4446716308594 415.13623046875 375.4075012207031 415.772705078125 357.806884765625 413.3171081542969" stroke-width="0.0" fill="rgb(31, 32, 36)" opacity="1.0027187" stroke="rgb(0, 0, 0)" stroke-opacity="1.0" stroke-linecap="round" stroke-linejoin="round"/>
    <path d="M 396.09228515625 85.68655395507812 C 391.87200927734375 91.54692840576172 392.5078125 100.73028564453125 395.0243225097656 112.17191314697266 C 395.6833190917969 119.30874633789062 394.376708984375 117.87429809570312 404.7003173828125 115.10832977294922 C 406.296630859375 110.43359375 406.4933166503906 101.4227523803711 406.09527587890625 94.44367980957031 C 403.6065979003906 88.52497100830078 402.2402648925781 84.9782943725586 396.09228515625 85.68655395507812" stroke-width="0.0" fill="rgb(207, 211, 223)" opacity="1.0079588" stroke="rgb(0, 0, 0)" stroke-opacity="1.0" stroke-linecap="round" stroke-linejoin="round"/>
    <path d="M 206.87681579589844 66.10702514648438 C 200.976318359375 66.8589096069336 198.59854125976562 71.14539337158203 195.75831604003906 76.74868774414062 C 195.6884765625 82.94397735595703 191.3194580078125 91.43804931640625 195.77944946289062 94.94526672363281 C 203.38839721679688 95.01849365234375 203.7206268310547 86.91443634033203 207.04656982421875 82.44408416748047 C 210.34442138671875 76.40423583984375 210.27301025390625 68.37987518310547 206.87681579589844 66.10702514648438" stroke-width="0.0" fill="rgb(218, 223, 238)" opacity="1.003073" stroke="rgb(0, 0, 0)" stroke-opacity="1.0" stroke-linecap="round" stroke-linejoin="round"/>
    <path d="M 200.46656799316406 125.07842254638672 C 196.0480499267578 137.8132781982422 205.1342315673828 143.9344940185547 214.59927368164062 148.18263244628906 C 234.15496826171875 157.1602783203125 265.7004089355469 154.40037536621094 287.773193359375 163.696533203125 C 315.6122131347656 165.18495178222656 341.06549072265625 168.44937133789062 363.94940185546875 164.751708984375 C 375.1827087402344 162.33590698242188 384.6893005371094 159.0677032470703 388.58868408203125 149.7647705078125 C 388.6546936035156 144.63121032714844 381.6671447753906 144.8650360107422 373.90313720703125 142.29238891601562 C 351.8987121582031 147.45616149902344 321.8815002441406 149.86012268066406 298.0600891113281 145.97976684570312 C 256.41064453125 144.57037353515625 233.68251037597656 132.87930297851562 200.46656799316406 125.07842254638672" stroke-width="0.0" fill="rgb(160, 166, 199)" opacity="0.9885865" stroke="rgb(0, 0, 0)" stroke-opacity="1.0" stroke-linecap="round" stroke-linejoin="round"/>
    <path d="M 169.24093627929688 238.5736083984375 C 167.68118286132812 244.2871551513672 166.01492309570312 250.4325408935547 171.0951690673828 253.3041534423828 C 175.62646484375 246.22567749023438 180.34999084472656 242.8970489501953 188.5218505859375 245.76458740234375 C 201.32391357421875 247.08534240722656 208.85731506347656 258.01715087890625 223.4178009033203 263.8218994140625 C 220.73976135253906 248.17376708984375 218.1100616455078 236.26051330566406 213.67979431152344 231.67820739746094 C 202.50424194335938 228.53236389160156 194.8841552734375 225.08120727539062 186.376220703125 225.4551239013672 C 177.15650939941406 227.32032775878906 172.64610290527344 232.9188690185547 169.24093627929688 238.5736083984375" stroke-width="0.0" fill="rgb(157, 162, 186)" opacity="0.96740514" stroke="rgb(0, 0, 0)" stroke-opacity="1.0" stroke-linecap="round" stroke-linejoin="round"/>
    <path d="M 328.39544677734375 476.5642395019531 C 330.3168029785156 483.91949462890625 331.60443115234375 495.6828918457031 333.40313720703125 501.72265625 C 342.054931640625 503.6610107421875 349.3309326171875 499.4657287597656 355.191650390625 501.3658142089844 C 363.4792175292969 504.1156005859375 365.798583984375 519.0225830078125 368.5341796875 510.421142578125 C 367.72906494140625 491.1568908691406 359.2111511230469 479.23870849609375 351.1690979003906 466.1207580566406 C 342.1009521484375 467.0775451660156 339.06109619140625 475.3790283203125 328.39544677734375 476.5642395019531" stroke-width="0.0" fill="rgb(186, 191, 216)" opacity="0.97383463" stroke="rgb(0, 0, 0)" stroke-opacity="1.0" stroke-linecap="round" stroke-linejoin="round"/>
    <path d="M 262.1339111328125 262.56707763671875 C 260.330810546875 270.39166259765625 266.791748046875 271.9695739746094 268.3280944824219 278.3435363769531 C 279.6471862792969 281.1542663574219 290.62115478515625 283.45751953125 307.5330810546875 281.94305419921875 C 311.86566162109375 281.0045471191406 315.42352294921875 276.1121826171875 322.7705383300781 267.96270751953125 C 302.81402587890625 269.2438659667969 283.824462890625 263.19732666015625 262.1339111328125 262.56707763671875" stroke-width="0.0" fill="rgb(15, 14, 15)" opacity="1.0305746" stroke="rgb(0, 0, 0)" stroke-opacity="1.0" stroke-linecap="round" stroke-linejoin="round"/>
    <path d="M 423.6153259277344 400.50982666015625 C 420.359375 394.3643493652344 416.52313232421875 392.201171875 412.007080078125 391.8729248046875 C 401.2301330566406 392.19073486328125 399.5401611328125 402.3205871582031 385.14892578125 401.79217529296875 C 394.5783996582031 406.8623046875 402.5098571777344 406.1648864746094 413.5340881347656 406.02679443359375 C 417.59613037109375 404.9852600097656 420.5565185546875 403.8101806640625 423.6153259277344 400.50982666015625" stroke-width="0.0" fill="rgb(33, 32, 35)" opacity="0.9384311" stroke="rgb(0, 0, 0)" stroke-opacity="1.0" stroke-linecap="round" stroke-linejoin="round"/>
    <path d="M 239.51243591308594 388.8232116699219 C 239.988037109375 393.2276611328125 246.8592987060547 395.4454040527344 251.84658813476562 396.6248474121094 C 258.5234375 392.5784606933594 253.769287109375 386.2398681640625 253.8178253173828 385.7860107421875 C 246.74386596679688 385.9231872558594 240.26377868652344 384.62371826171875 239.51243591308594 388.8232116699219" stroke-width="0.0" fill="rgb(122, 129, 143)" opacity="0.9999345" stroke="rgb(0, 0, 0)" stroke-opacity="1.0" stroke-linecap="round" stroke-linejoin="round"/>
    <path d="M 287.20166015625 297.518798828125 C 285.4996032714844 304.2606506347656 288.73858642578125 304.8921813964844 287.68450927734375 309.0909118652344 C 287.7008972167969 313.4757995605469 294.3481140136719 312.24444580078125 296.346923828125 311.80242919921875 C 294.453857421875 307.7648620605469 299.33929443359375 305.32684326171875 295.8219299316406 301.61456298828125 C 294.9927673339844 299.2412414550781 290.9824523925781 299.14422607421875 287.20166015625 297.518798828125" stroke-width="0.0" fill="rgb(132, 137, 157)" opacity="0.93412805" stroke="rgb(0, 0, 0)" stroke-opacity="1.0" stroke-linecap="round" stroke-linejoin="round"/>
    <path d="M 169.38876342773438 253.4073028564453 C 188.61434936523438 254.98110961914062 201.72679138183594 261.4412841796875 218.14476013183594 275.1801452636719 C 216.93292236328125 265.87738037109375 215.30062866210938 268.4381408691406 224.85421752929688 267.9993896484375 C 216.1924591064453 257.94305419921875 205.05584716796875 251.81915283203125 192.23162841796875 245.5966033935547 C 182.6257781982422 243.80670166015625 177.98785400390625 243.79571533203125 169.38876342773438 253.4073028564453" stroke-width="0.0" fill="rgb(45, 45, 53)" opacity="1.0005774" stroke="rgb(0, 0, 0)" stroke-opacity="1.0" stroke-linecap="round" stroke-linejoin="round"/>
    <path d="M 385.4225158691406 310.3332824707031 C 383.1056823730469 305.7010192871094 378.99749755859375 306.9039001464844 369.77294921875 307.998291015625 C 376.03582763671875 326.3421936035156 361.7725524902344 324.0068664550781 357.6700744628906 337.5487365722656 C 367.5935363769531 342.64434814453125 370.92877197265625 333.02105712890625 376.9774169921875 328.961181640625 C 380.0545654296875 322.77374267578125 385.0351867675781 319.2918701171875 385.4225158691406 310.3332824707031" stroke-width="0.0" fill="rgb(21, 19, 23)" opacity="0.9617531" stroke="rgb(0, 0, 0)" stroke-opacity="1.0" stroke-linecap="round" stroke-linejoin="round"/>
    <path d="M 380.9522705078125 212.69598388671875 C 374.423095703125 212.95289611816406 366.99114990234375 215.3689727783203 364.9385070800781 216.9898681640625 C 364.1629638671875 221.1438751220703 367.02154541015625 224.12890625 365.8171691894531 229.04930114746094 C 368.7413330078125 230.5496063232422 374.0165710449219 233.4763946533203 376.4727783203125 227.87794494628906 C 379.2847595214844 225.3979949951172 383.10540771484375 221.5343475341797 380.9522705078125 212.69598388671875" stroke-width="0.0" fill="rgb(41, 42, 52)" opacity="0.8917504" stroke="rgb(0, 0, 0)" stroke-opacity="1.0" stroke-linecap="round" stroke-linejoin="round"/>
    <path d="M 240.0084991455078 233.97584533691406 C 232.81625366210938 235.2808380126953 231.91668701171875 248.13595581054688 235.71145629882812 254.2014617919922 C 240.5537109375 251.48460388183594 242.79750061035156 246.49356079101562 252.7354736328125 253.6745147705078 C 247.56455993652344 243.3520965576172 245.1708984375 234.4781036376953 240.0084991455078 233.97584533691406" stroke-width="0.0" fill="rgb(37, 37, 44)" opacity="1.0057448" stroke="rgb(0, 0, 0)" stroke-opacity="1.0" stroke-linecap="round" stroke-linejoin="round"/>
    <path d="M 246.34567260742188 314.6255187988281 C 245.3162384033203 314.6510009765625 245.54920959472656 322.27105712890625 246.29934692382812 319.9582214355469 C 253.69662475585938 324.0311584472656 260.4585876464844 322.9605712890625 261.3226623535156 318.8759765625 C 259.96563720703125 312.86669921875 259.1607666015625 310.77264404296875 260.06243896484375 313.0755920410156 C 251.5732421875 310.8523864746094 247.9221649169922 310.7187805175781 246.34567260742188 314.6255187988281" stroke-width="0.0" fill="rgb(99, 105, 125)" opacity="0.99768716" stroke="rgb(0, 0, 0)" stroke-opacity="1.0" stroke-linecap="round" stroke-linejoin="round"/>
    <path d="M 217.5471649169922 69.67005157470703 C 216.2967987060547 68.99170684814453 211.48025512695312 80.67774200439453 221.09580993652344 81.05809783935547 C 234.41673278808594 75.40467834472656 251.2137908935547 71.507080078125 270.1123962402344 69.6980209350586 C 288.6156921386719 67.72224426269531 303.272216796875 69.75056457519531 320.55242919921875 73.2511215209961 C 335.8529357910156 77.23318481445312 352.18988037109375 81.95843505859375 363.7639465332031 88.89073944091797 C 380.9202575683594 95.73271179199219 386.0348815917969 106.01629638671875 394.4749450683594 117.5946044921875 C 398.5380859375 106.30410766601562 390.6834411621094 103.52703857421875 391.8632507324219 93.99754333496094 C 386.0371398925781 83.89198303222656 380.731689453125 75.23423767089844 372.987060546875 69.77882385253906 C 359.821044921875 59.35026168823242 344.2964172363281 50.66633605957031 326.6408996582031 46.29366683959961 C 303.8508605957031 41.48130416870117 288.8822326660156 40.93196487426758 262.5248107910156 45.4433479309082 C 243.50621032714844 51.0589714050293 226.8606719970703 58.13215637207031 217.5471649169922 69.67005157470703" stroke-width="0.0" fill="rgb(92, 95, 112)" opacity="1.0008912" stroke="rgb(0, 0, 0)" stroke-opacity="1.0" stroke-linecap="round" stroke-linejoin="round"/>
    <path d="M 368.5421142578125 518.5040893554688 C 360.68133544921875 507.603515625 359.7320861816406 502.9122009277344 354.8575439453125 501.8878479003906 C 346.3788146972656 500.716064453125 341.3542785644531 504.3298645019531 333.1626892089844 502.3752136230469 C 330.55059814453125 494.178955078125 329.8578796386719 484.69024658203125 326.78240966796875 476.4445495605469 C 305.1408996582031 482.53607177734375 279.0613098144531 482.1070251464844 253.80926513671875 484.330322265625 C 253.92752075195312 494.4359436035156 257.87353515625 502.134765625 254.6291961669922 517.8295288085938 C 292.68115234375 518.45947265625 330.1507568359375 519.7320556640625 368.5421142578125 518.5040893554688" stroke-width="0.0" fill="rgb(185, 191, 227)" opacity="0.9849914" stroke="rgb(0, 0, 0)" stroke-opacity="1.0" stroke-linecap="round" stroke-linejoin="round"/>
    <path d="M 347.5908203125 467.0565185546875 C 345.0284118652344 458.4728088378906 339.5540771484375 455.847412109375 335.4381408691406 453.9902038574219 C 330.3851013183594 453.8832092285156 322.9650573730469 454.8426818847656 318.3393859863281 456.6175537109375 C 316.7509460449219 461.59674072265625 315.052978515625 467.6387023925781 316.45465087890625 477.41778564453125 C 330.1267395019531 476.389404296875 341.2277526855469 473.6438293457031 347.5908203125 467.0565185546875" stroke-width="0.0" fill="rgb(14, 12, 15)" opacity="0.9291037" stroke="rgb(0, 0, 0)" stroke-opacity="1.0" stroke-linecap="round" stroke-linejoin="round"/>
    <path d="M 348.0645751953125 289.938232421875 C 358.9531555175781 292.38128662109375 362.0303649902344 299.0958557128906 372.8136901855469 311.3325500488281 C 366.6170654296875 313.3592834472656 371.2567138671875 303.2740173339844 385.2485656738281 310.0675048828125 C 388.5963134765625 296.5940246582031 384.56884765625 294.7934875488281 379.6737060546875 289.8451232910156 C 371.03973388671875 283.68023681640625 359.7054443359375 282.54376220703125 348.0645751953125 289.938232421875" stroke-width="0.0" fill="rgb(47, 48, 61)" opacity="0.8772663" stroke="rgb(0, 0, 0)" stroke-opacity="1.0" stroke-linecap="round" stroke-linejoin="round"/>
    <path d="M 297.6498718261719 456.3542175292969 C 298.0321960449219 463.8345642089844 298.1271667480469 471.870361328125 297.94244384765625 479.9678955078125 C 303.3173828125 480.4198303222656 306.406494140625 478.73065185546875 312.30908203125 479.2722473144531 C 313.7417907714844 472.01123046875 312.9217834472656 463.0678405761719 312.96258544921875 456.7399597167969 C 307.3371887207031 457.12786865234375 302.0756530761719 457.3018798828125 297.6498718261719 456.3542175292969" stroke-width="0.0" fill="rgb(86, 90, 110)" opacity="0.7655628" stroke="rgb(0, 0, 0)" stroke-opacity="1.0" stroke-linecap="round" stroke-linejoin="round"/>
    <path d="M 177.18222045898438 491.2851257324219 C 169.9290771484375 493.3314514160156 169.5473175048828 506.1675720214844 161.74533081054688 514.1436767578125 C 166.3195037841797 518.2682495117188 171.94473266601562 517.8082275390625 180.5143280029297 515.092529296875 C 173.7186737060547 502.1357116699219 180.4652557373047 495.9736328125 177.18222045898438 491.2851257324219" stroke-width="0.0" fill="rgb(86, 90, 105)" opacity="0.9500801" stroke="rgb(0, 0, 0)" stroke-opacity="1.0" stroke-linecap="round" stroke-linejoin="round"/>
    <path d="M 221.5014190673828 456.2344970703125 C 224.36947631835938 465.4744567871094 221.01712036132812 476.8979187011719 229.66595458984375 477.56915283203125 C 231.6981964111328 471.9119873046875 232.32545471191406 460.7291564941406 230.63128662109375 455.79010009765625 C 228.83767700195312 455.1275634765625 223.1452178955078 456.658935546875 221.5014190673828 456.2344970703125" stroke-width="0.0" fill="rgb(43, 44, 56)" opacity="0.9467259" stroke="rgb(0, 0, 0)" stroke-opacity="1.0" stroke-linecap="round" stroke-linejoin="round"/>
    <path d="M 193.04383850097656 407.3775329589844 C 194.72451782226562 413.6300964355469 199.61972045898438 413.0140380859375 194.8111114501953 412.5676574707031 C 206.05667114257812 412.35693359375 221.29661560058594 418.5780944824219 230.69619750976562 415.4945068359375 C 228.2503662109375 407.6075439453125 207.52618408203125 411.4349670410156 193.04383850097656 407.3775329589844" stroke-width="0.0" fill="rgb(27, 28, 35)" opacity="0.98371285" stroke="rgb(0, 0, 0)" stroke-opacity="1.0" stroke-linecap="round" stroke-linejoin="round"/>
    <path d="M 320.6023254394531 270.4478759765625 C 316.6787414550781 271.0647888183594 327.6571350097656 270.68609619140625 338.8572998046875 269.5572814941406 C 337.058349609375 264.6788024902344 330.85546875 263.4994201660156 328.9349670410156 258.7983703613281 C 326.58074951171875 263.98065185546875 319.3617248535156 262.0002746582031 320.6023254394531 270.4478759765625" stroke-width="0.0" fill="rgb(64, 66, 74)" opacity="1.0085644" stroke="rgb(0, 0, 0)" stroke-opacity="1.0" stroke-linecap="round" stroke-linejoin="round"/>
    <path d="M 244.61798095703125 305.2480163574219 C 240.23135375976562 307.4801025390625 247.8709716796875 303.8234558105469 259.1280822753906 303.4144592285156 C 258.0841979980469 299.4006042480469 258.3346252441406 292.6742248535156 260.6379089355469 295.76873779296875 C 248.7958221435547 295.86114501953125 242.550537109375 294.7250061035156 244.61798095703125 305.2480163574219" stroke-width="0.0" fill="rgb(128, 132, 156)" opacity="1.0015726" stroke="rgb(0, 0, 0)" stroke-opacity="1.0" stroke-linecap="round" stroke-linejoin="round"/>
    <path d="M 251.52919006347656 357.5763854980469 C 245.35577392578125 361.60089111328125 249.75265502929688 368.7210998535156 248.02149963378906 365.99609375 C 249.65814208984375 365.7926940917969 259.3714904785156 369.27972412109375 259.1283264160156 364.8632507324219 C 260.0211181640625 357.5452575683594 256.3277587890625 359.7217712402344 251.52919006347656 357.5763854980469" stroke-width="0.0" fill="rgb(124, 136, 154)" opacity="0.9988458" stroke="rgb(0, 0, 0)" stroke-opacity="1.0" stroke-linecap="round" stroke-linejoin="round"/>
    <path d="M 374.5666198730469 491.6894226074219 C 377.97747802734375 500.5192565917969 381.4497375488281 505.5040588378906 385.998291015625 515.6034545898438 C 399.3145751953125 518.8804321289062 412.8252868652344 520.1549682617188 420.8665466308594 514.9097290039062 C 415.81280517578125 497.4147644042969 406.5054016113281 488.1930847167969 398.5408020019531 478.7165222167969 C 390.4568786621094 485.891357421875 380.1709899902344 488.3426818847656 374.5666198730469 491.6894226074219" stroke-width="0.0" fill="rgb(56, 55, 65)" opacity="0.9598786" stroke="rgb(0, 0, 0)" stroke-opacity="1.0" stroke-linecap="round" stroke-linejoin="round"/>
    <path d="M 232.06809997558594 120.85753631591797 C 248.6580352783203 127.76014709472656 268.61968994140625 132.86398315429688 292.4658508300781 135.45989990234375 C 316.7118225097656 139.06289672851562 337.1889953613281 135.78639221191406 357.1981201171875 132.81021118164062 C 354.8714294433594 116.93694305419922 341.6191101074219 112.65956115722656 331.7670593261719 105.1238021850586 C 319.69500732421875 100.07833099365234 307.31195068359375 95.77471923828125 293.4049987792969 95.51642608642578 C 279.77276611328125 92.90983581542969 264.8091125488281 96.28731536865234 254.96080017089844 100.06085968017578 C 244.71176147460938 105.70745086669922 233.6172332763672 107.7236328125 232.06809997558594 120.85753631591797" stroke-width="0.0" fill="rgb(52, 52, 59)" opacity="0.9897394" stroke="rgb(0, 0, 0)" stroke-opacity="1.0" stroke-linecap="round" stroke-linejoin="round"/>
    <path d="M 357.186767578125 466.09417724609375 C 359.30517578125 478.45050048828125 369.1177062988281 483.0079650878906 376.4878845214844 494.7836608886719 C 381.7945861816406 485.63543701171875 393.39971923828125 486.01910400390625 397.5355529785156 475.68212890625 C 387.2123107910156 470.8507995605469 371.2360534667969 470.376953125 357.186767578125 466.09417724609375" stroke-width="0.0" fill="rgb(74, 76, 89)" opacity="0.9646929" stroke="rgb(0, 0, 0)" stroke-opacity="1.0" stroke-linecap="round" stroke-linejoin="round"/>
    <path d="M 368.5583190917969 368.5885925292969 C 374.4764404296875 368.5380859375 373.538330078125 370.3981018066406 372.6749572753906 374.1585998535156 C 371.371826171875 375.3206787109375 364.8554382324219 378.3299255371094 358.64617919921875 381.37591552734375 C 354.80902099609375 372.4446716308594 365.6376953125 373.95050048828125 368.5583190917969 368.5885925292969" stroke-width="0.0" fill="rgb(72, 75, 88)" opacity="1.0018841" stroke="rgb(0, 0, 0)" stroke-opacity="1.0" stroke-linecap="round" stroke-linejoin="round"/>
    <path d="M 289.4563903808594 304.13934326171875 C 285.7581481933594 301.4735107421875 289.1405029296875 305.73968505859375 287.5968933105469 312.571044921875 C 289.4703369140625 313.7774963378906 292.4155578613281 314.6405944824219 296.97747802734375 313.9297790527344 C 296.9291076660156 305.2471618652344 295.1153869628906 303.2799072265625 289.4563903808594 304.13934326171875" stroke-width="0.0" fill="rgb(53, 55, 66)" opacity="0.9848522" stroke="rgb(0, 0, 0)" stroke-opacity="1.0" stroke-linecap="round" stroke-linejoin="round"/>
    <path d="M 248.65509033203125 151.79991149902344 C 246.36978149414062 157.27542114257812 250.28541564941406 157.0192413330078 252.13519287109375 158.27085876464844 C 259.09295654296875 160.13623046875 278.7335205078125 161.2474822998047 297.5333557128906 159.2665557861328 C 284.1518249511719 154.0326690673828 264.081787109375 156.77044677734375 248.65509033203125 151.79991149902344" stroke-width="0.0" fill="rgb(68, 72, 90)" opacity="0.9794255" stroke="rgb(0, 0, 0)" stroke-opacity="1.0" stroke-linecap="round" stroke-linejoin="round"/>
    <path d="M 365.1611022949219 489.2431945800781 C 366.8686828613281 497.373046875 369.4232177734375 502.6369323730469 367.2541198730469 518.8204956054688 C 371.5110168457031 519.45361328125 376.0050354003906 518.9202880859375 376.9595947265625 512.6602172851562 C 376.35882568359375 500.3721618652344 372.9764709472656 495.17218017578125 365.1611022949219 489.2431945800781" stroke-width="0.0" fill="rgb(25, 23, 31)" opacity="0.9841595" stroke="rgb(0, 0, 0)" stroke-opacity="1.0" stroke-linecap="round" stroke-linejoin="round"/>
    <path d="M 379.04327392578125 380.3318786621094 C 386.7764892578125 381.71722412109375 379.67095947265625 387.4915466308594 383.05029296875 385.7453308105469 C 378.0783386230469 387.67578125 367.0969543457031 394.12542724609375 356.7044372558594 394.434814453125 C 361.1100158691406 386.7281188964844 373.72332763671875 385.5251159667969 379.04327392578125 380.3318786621094" stroke-width="0.0" fill="rgb(49, 52, 64)" opacity="0.99195266" stroke="rgb(0, 0, 0)" stroke-opacity="1.0" stroke-linecap="round" stroke-linejoin="round"/>
    <path d="M 215.5476837158203 236.16392517089844 C 225.6739959716797 236.9845733642578 219.25808715820312 235.8275604248047 219.97647094726562 231.84373474121094 C 223.8404541015625 246.4105224609375 223.88426208496094 253.2303466796875 214.97854614257812 251.34271240234375 C 214.0093994140625 245.98223876953125 215.50770568847656 240.45814514160156 215.5476837158203 236.16392517089844" stroke-width="0.0" fill="rgb(54, 55, 67)" opacity="0.99909925" stroke="rgb(0, 0, 0)" stroke-opacity="1.0" stroke-linecap="round" stroke-linejoin="round"/>
    <path d="M 305.7354736328125 113.98037719726562 C 307.691650390625 121.01957702636719 312.765625 123.46064758300781 320.8756103515625 126.13973999023438 C 329.60888671875 126.4761734008789 338.622314453125 126.9687728881836 339.7582092285156 119.48509979248047 C 339.50250244140625 109.71981811523438 331.6922607421875 109.71370697021484 323.2148132324219 106.27005004882812 C 315.1828308105469 105.24916076660156 307.6310729980469 107.72140502929688 305.7354736328125 113.98037719726562" stroke-width="0.0" fill="rgb(79, 79, 118)" opacity="0.99949914" stroke="rgb(0, 0, 0)" stroke-opacity="1.0" stroke-linecap="round" stroke-linejoin="round"/>
    <path d="M 249.5286865234375 110.77611541748047 C 251.013427734375 114.62466430664062 254.30117797851562 117.81189727783203 262.2837219238281 119.73014068603516 C 271.3212585449219 120.78175354003906 280.8972473144531 119.35497283935547 282.17864990234375 110.7693099975586 C 280.74432373046875 102.66543579101562 273.8954162597656 101.30671691894531 267.1445007324219 100.59122467041016 C 257.5845947265625 99.04895782470703 253.5420684814453 102.307373046875 249.5286865234375 110.77611541748047" stroke-width="0.0" fill="rgb(89, 90, 132)" opacity="1.000209" stroke="rgb(0, 0, 0)" stroke-opacity="1.0" stroke-linecap="round" stroke-linejoin="round"/>
  </g>
</svg>
