<?xml version="1.0" ?>
<svg xmlns="http://www.w3.org/2000/svg" version="1.1" width="512" height="512">
  <defs/>
  <g>
    <path d="M -4.154454231262207 -4.16771936416626 C -4.152482986450195 170.3333282470703 -4.153034210205078 340.6666564941406 -3.9124627113342285 516.7713623046875 C 170.69473266601562 516.6111450195312 340.4095458984375 516.5717163085938 516.8397216796875 516.761474609375 C 516.844482421875 340.6862487792969 516.8494262695312 170.35357666015625 516.8553466796875 -4.14816427230835 C 340.6666564941406 -4.166618347167969 170.3333282470703 -4.1715264320373535 -4.154454231262207 -4.16771936416626" stroke-width="0.0" fill="rgb(232, 234, 242)" opacity="0.85001355" stroke="rgb(0, 0, 0)" stroke-opacity="1.0" stroke-linecap="round" stroke-linejoin="round"/>
    <path d="M 261.1542053222656 26.958921432495117 C 238.2088623046875 31.993080139160156 222.08460998535156 44.49367141723633 207.981201171875 59.41545867919922 C 193.53114318847656 75.50858306884766 186.40904235839844 99.60784912109375 180.9566192626953 126.59770965576172 C 174.68629455566406 145.32643127441406 178.08233642578125 161.268798828125 183.12734985351562 176.49468994140625 C 184.24810791015625 204.68959045410156 208.7914276123047 207.46810913085938 214.853271484375 228.2091827392578 C 208.1588134765625 231.6385498046875 198.15646362304688 229.565185546875 189.3318634033203 231.76788330078125 C 175.548583984375 235.8193817138672 171.1339569091797 249.575927734375 161.64376831054688 256.095703125 C 141.46229553222656 263.6151428222656 117.03704833984375 264.4530334472656 103.05430603027344 272.9953308105469 C 89.74858093261719 283.5999755859375 77.17495727539062 293.6877136230469 68.49598693847656 306.99090576171875 C 64.54611206054688 316.73529052734375 60.73314666748047 325.720458984375 61.99847412109375 338.64892578125 C 63.335784912109375 346.8446044921875 67.06407165527344 351.78271484375 71.31719970703125 356.61834716796875 C 77.06820678710938 366.570068359375 86.57138061523438 373.2511291503906 98.69071197509766 378.3895568847656 C 122.50111389160156 386.97113037109375 152.7076416015625 389.98126220703125 188.17910766601562 390.12432861328125 C 195.0532989501953 410.5155029296875 197.52557373046875 437.663330078125 198.78659057617188 462.42437744140625 C 199.0314483642578 452.5860900878906 203.15255737304688 451.7278137207031 209.96414184570312 453.8096008300781 C 219.27096557617188 453.3703308105469 223.7786865234375 456.1756896972656 226.84503173828125 459.9591064453125 C 220.91720581054688 463.3982849121094 222.40090942382812 462.3829040527344 226.33865356445312 459.9849548339844 C 240.3339385986328 469.03936767578125 258.9372253417969 471.2013244628906 280.8450012207031 470.2569885253906 C 301.5113220214844 472.6729736328125 319.6206359863281 465.49639892578125 336.1292419433594 452.88641357421875 C 346.1470642089844 459.9017333984375 346.1450500488281 463.1922912597656 345.54400634765625 462.534423828125 C 344.1654357910156 464.92864990234375 346.0711975097656 466.31976318359375 345.7723693847656 462.1919250488281 C 351.2980651855469 464.31884765625 353.62615966796875 467.9519958496094 356.1138610839844 472.6748046875 C 363.44647216796875 483.2095642089844 367.4125671386719 498.3223571777344 369.37530517578125 517.8126831054688 C 389.48480224609375 517.7006225585938 404.62725830078125 518.2485961914062 418.5213928222656 517.5933837890625 C 414.23193359375 497.81207275390625 407.8866271972656 489.8394470214844 404.65966796875 477.7110595703125 C 410.0066223144531 459.6806640625 416.50006103515625 441.3786315917969 420.4818420410156 413.9982604980469 C 418.5218811035156 389.8355407714844 415.1888427734375 362.4568786621094 410.5668029785156 339.25164794921875 C 400.0852355957031 320.2791748046875 390.4060974121094 302.314453125 375.7843017578125 289.85540771484375 C 360.8542785644531 282.8197326660156 334.1734924316406 288.5525817871094 324.97021484375 285.224365234375 C 343.41424560546875 260.1463317871094 355.1851806640625 228.5073699951172 385.80743408203125 217.50241088867188 C 390.85833740234375 204.62376403808594 397.7519836425781 198.3594512939453 401.43408203125 188.66696166992188 C 406.50091552734375 180.9019012451172 408.4004211425781 170.08717346191406 410.29656982421875 153.85972595214844 C 411.644287109375 131.7586212158203 407.41888427734375 111.158203125 402.6528015136719 91.16085815429688 C 399.1917419433594 78.82791900634766 393.0754699707031 69.432861328125 385.4284362792969 61.524654388427734 C 376.3168029785156 49.9818115234375 364.9014587402344 40.64521789550781 351.0816650390625 34.09627914428711 C 338.6264953613281 27.115253448486328 322.3511047363281 24.494409561157227 303.578369140625 22.28349494934082 C 288.70904541015625 20.797061920166016 273.96746826171875 24.2578067779541 261.1542053222656 26.958921432495117" stroke-width="0.0" fill="rgb(140, 143, 159)" opacity="0.91019404" stroke="rgb(0, 0, 0)" stroke-opacity="1.0" stroke-linecap="round" stroke-linejoin="round"/>
    <path d="M 166.5926055908203 517.494873046875 C 231.66424560546875 518.8351440429688 299.0528564453125 518.953125 373.5965576171875 519.1934204101562 C 367.0425109863281 492.8923645019531 359.97021484375 479.0384521484375 352.46478271484375 467.9445495605469 C 334.38848876953125 473.628662109375 319.4803161621094 479.62884521484375 300.9287109375 478.642822265625 C 281.7550354003906 478.4033203125 261.9583740234375 479.5835876464844 244.56137084960938 481.3354187011719 C 223.86038208007812 480.216796875 205.50436401367188 476.8443603515625 190.92257690429688 467.3597412109375 C 183.1938934326172 479.7532653808594 174.7482452392578 493.2933349609375 166.5926055908203 517.494873046875" stroke-width="0.0" fill="rgb(178, 182, 208)" opacity="0.99603486" stroke="rgb(0, 0, 0)" stroke-opacity="1.0" stroke-linecap="round" stroke-linejoin="round"/>
    <path d="M 193.46673583984375 467.311279296875 C 193.30821228027344 471.7994079589844 198.6558074951172 474.4322814941406 206.29872131347656 476.7610778808594 C 221.80332946777344 481.0451965332031 239.4533233642578 482.352294921875 260.5634765625 482.351806640625 C 282.54046630859375 482.5010986328125 303.9333190917969 480.7322998046875 322.4155578613281 476.5735168457031 C 332.5858459472656 475.5450744628906 340.547607421875 472.8536376953125 347.4342346191406 467.6817626953125 C 346.6968994140625 458.7762451171875 343.649658203125 454.995361328125 332.9375 452.8182373046875 C 319.63934326171875 452.8243103027344 316.2503356933594 468.4406433105469 300.9565124511719 468.7404479980469 C 282.11517333984375 470.4593505859375 265.51080322265625 471.22320556640625 248.39337158203125 468.07830810546875 C 229.43881225585938 466.9710693359375 224.39938354492188 449.27227783203125 206.49114990234375 451.4954528808594 C 198.3094024658203 453.9465637207031 194.8963623046875 459.2359313964844 193.46673583984375 467.311279296875" stroke-width="0.0" fill="rgb(8, 7, 11)" opacity="1.0929815" stroke="rgb(0, 0, 0)" stroke-opacity="1.0" stroke-linecap="round" stroke-linejoin="round"/>
    <path d="M 317.6221618652344 275.80181884765625 C 316.35455322265625 279.62567138671875 319.0474853515625 282.0087585449219 324.5443115234375 284.8135681152344 C 330.247802734375 287.699462890625 336.2889099121094 289.6763916015625 342.5258483886719 285.9477233886719 C 340.5823669433594 279.18829345703125 339.6711730957031 273.20538330078125 338.6271667480469 269.2211608886719 C 328.5497131347656 267.2347412109375 322.8582763671875 271.4340515136719 317.6221618652344 275.80181884765625" stroke-width="0.0" fill="rgb(235, 237, 239)" opacity="1.0368346" stroke="rgb(0, 0, 0)" stroke-opacity="1.0" stroke-linecap="round" stroke-linejoin="round"/>
    <path d="M 2.328444242477417 320.9974670410156 C 0.693027138710022 383.187744140625 1.0640757083892822 446.5980529785156 1.3049801588058472 517.6810302734375 C 49.33995056152344 518.8464965820312 103.78230285644531 518.93017578125 160.4326171875 518.240966796875 C 173.99063110351562 491.40777587890625 186.09193420410156 472.0061340332031 197.638916015625 453.2589416503906 C 193.9283447265625 432.9014587402344 192.34364318847656 411.2760314941406 185.61679077148438 391.3443908691406 C 151.0832977294922 393.7256774902344 119.98202514648438 390.8101501464844 99.8593521118164 381.65679931640625 C 83.90773010253906 372.43121337890625 70.0921401977539 367.0744934082031 64.76885986328125 354.4107360839844 C 59.205055236816406 345.1199645996094 58.75149917602539 334.6410827636719 60.043113708496094 319.6402282714844 C 55.260536193847656 320.8571472167969 55.66828918457031 327.8876037597656 54.377342224121094 331.62548828125 C 37.09632873535156 330.3876953125 15.257057189941406 329.94720458984375 5.240868091583252 332.5971984863281 C 1.927478313446045 327.6985168457031 5.402641773223877 322.793701171875 2.328444242477417 320.9974670410156" stroke-width="0.0" fill="rgb(251, 253, 253)" opacity="1.0012823" stroke="rgb(0, 0, 0)" stroke-opacity="1.0" stroke-linecap="round" stroke-linejoin="round"/>
    <path d="M 409.14093017578125 167.04119873046875 C 412.2965087890625 167.96434020996094 410.92279052734375 170.72265625 412.2101135253906 164.545166015625 C 412.65960693359375 176.16006469726562 408.2486572265625 183.22584533691406 403.6931457519531 190.6345672607422 C 404.3896484375 181.25694274902344 408.181396484375 173.95928955078125 409.14093017578125 167.04119873046875" stroke-width="0.0" fill="rgb(72, 80, 84)" opacity="0.99502546" stroke="rgb(0, 0, 0)" stroke-opacity="1.0" stroke-linecap="round" stroke-linejoin="round"/>
    <path d="M 409.43524169921875 121.53840637207031 C 410.5377197265625 115.08834838867188 410.16448974609375 114.39124298095703 406.25958251953125 117.12152862548828 C 409.3606872558594 119.51348114013672 412.5779113769531 121.7756118774414 411.0722961425781 126.39765167236328 C 407.2520446777344 122.48055267333984 406.6242370605469 119.19279479980469 409.43524169921875 121.53840637207031" stroke-width="0.0" fill="rgb(172, 188, 220)" opacity="0.99683785" stroke="rgb(0, 0, 0)" stroke-opacity="1.0" stroke-linecap="round" stroke-linejoin="round"/>
    <path d="M 68.8714828491211 306.4820861816406 C 63.1932258605957 316.3987121582031 60.43721389770508 326.2854309082031 62.385257720947266 341.989013671875 C 64.91890716552734 353.1650085449219 71.39176940917969 362.0729064941406 81.42741394042969 367.37493896484375 C 90.68583679199219 375.25592041015625 102.18781280517578 380.3202819824219 115.70376586914062 383.46087646484375 C 136.93878173828125 389.4084167480469 164.2903594970703 390.0997314453125 188.0990753173828 391.5773010253906 C 194.8418731689453 411.5985412597656 195.55010986328125 434.1891174316406 198.58670043945312 455.56500244140625 C 192.61717224121094 474.7338562011719 176.1619415283203 487.67706298828125 167.03012084960938 517.1288452148438 C 249.51861572265625 518.6635131835938 336.6341552734375 518.5249633789062 418.80706787109375 517.4862060546875 C 414.40966796875 498.65374755859375 407.7112121582031 491.01812744140625 404.52783203125 476.14599609375 C 409.8974304199219 460.1235046386719 416.5511169433594 441.79193115234375 420.09368896484375 415.45111083984375 C 421.90142822265625 395.8116760253906 412.6697998046875 381.6781311035156 415.4804992675781 358.12750244140625 C 413.01885986328125 347.33648681640625 408.6346130371094 340.41064453125 405.667724609375 332.16717529296875 C 397.8768005371094 316.7065734863281 388.68841552734375 302.48492431640625 373.6601257324219 287.7149963378906 C 344.3410949707031 282.8490295410156 295.7415771484375 288.2975158691406 264.5836181640625 279.86602783203125 C 252.1476593017578 277.4114685058594 253.3195343017578 267.5740661621094 247.7283172607422 259.61834716796875 C 237.8374786376953 257.0579833984375 228.96820068359375 261.74395751953125 226.30775451660156 256.0945129394531 C 219.7823944091797 247.8029327392578 218.25082397460938 236.48635864257812 212.3915557861328 231.88311767578125 C 206.5270538330078 229.65089416503906 201.2770233154297 228.09593200683594 191.65919494628906 230.14926147460938 C 179.3629913330078 232.9734344482422 171.7071990966797 246.37705993652344 163.70040893554688 256.0120849609375 C 139.93003845214844 261.6197814941406 118.84915161132812 266.21405029296875 102.52748107910156 273.20574951171875 C 89.65101623535156 283.73052978515625 76.8956069946289 293.0350646972656 68.8714828491211 306.4820861816406" stroke-width="0.0" fill="rgb(107, 110, 131)" opacity="0.84384143" stroke="rgb(0, 0, 0)" stroke-opacity="1.0" stroke-linecap="round" stroke-linejoin="round"/>
    <path d="M 288.7001647949219 21.685422897338867 C 270.83514404296875 23.443708419799805 257.44573974609375 26.313583374023438 245.8794403076172 31.502662658691406 C 230.2499542236328 38.01889419555664 217.79327392578125 48.15579605102539 207.3409881591797 60.83091354370117 C 195.48904418945312 74.31529235839844 190.2340850830078 94.74852752685547 183.11550903320312 114.30252075195312 C 180.34776306152344 126.7148208618164 177.28515625 140.08099365234375 178.34030151367188 155.65185546875 C 178.69021606445312 170.74302673339844 184.33901977539062 181.74085998535156 189.2610321044922 196.49461364746094 C 203.4937744140625 210.06019592285156 217.35562133789062 224.1177978515625 225.48524475097656 247.12326049804688 C 229.87864685058594 252.47119140625 236.93258666992188 254.2469482421875 247.85560607910156 255.769775390625 C 256.14691162109375 261.777099609375 260.6239929199219 271.8305358886719 268.966064453125 276.4938049316406 C 277.5050964355469 279.5744934082031 287.2921142578125 279.84332275390625 297.69586181640625 279.7373962402344 C 312.1375427246094 276.2434997558594 324.0428771972656 269.6330261230469 336.7123718261719 264.096435546875 C 343.01220703125 252.11578369140625 352.7196044921875 243.8170166015625 361.2987365722656 230.68202209472656 C 370.5003356933594 226.6031494140625 381.3126220703125 222.4623260498047 387.0104675292969 212.25515747070312 C 395.7551574707031 202.3518829345703 401.98065185546875 190.29852294921875 406.511962890625 176.18206787109375 C 408.7013854980469 163.46633911132812 411.49810791015625 150.2820587158203 409.409912109375 136.68557739257812 C 407.0313720703125 116.3992919921875 405.8547668457031 96.44834899902344 399.31634521484375 82.55159759521484 C 393.070556640625 68.60472869873047 384.7652587890625 57.678863525390625 373.5605163574219 49.49549102783203 C 363.64849853515625 39.95750427246094 350.86956787109375 33.4287109375 336.7520446777344 28.237890243530273 C 323.1650085449219 23.76215171813965 304.865478515625 21.12659454345703 288.7001647949219 21.685422897338867" stroke-width="0.0" fill="rgb(139, 141, 160)" opacity="0.87740815" stroke="rgb(0, 0, 0)" stroke-opacity="1.0" stroke-linecap="round" stroke-linejoin="round"/>
    <path d="M 177.0808563232422 491.3620300292969 C 170.24240112304688 496.4967956542969 168.1688690185547 503.8905944824219 164.92755126953125 512.3104248046875 C 165.33982849121094 517.8916625976562 168.46054077148438 517.7286987304688 175.05418395996094 517.6924438476562 C 171.06643676757812 504.8854675292969 175.59368896484375 499.62396240234375 177.0808563232422 491.3620300292969" stroke-width="0.0" fill="rgb(72, 75, 90)" opacity="0.9598743" stroke="rgb(0, 0, 0)" stroke-opacity="1.0" stroke-linecap="round" stroke-linejoin="round"/>
    <path d="M 303.5754089355469 284.2060852050781 C 308.8661193847656 286.6540222167969 314.3126220703125 285.5774230957031 324.8304443359375 284.5289306640625 C 323.49334716796875 280.8591003417969 320.2769470214844 279.34393310546875 319.1404113769531 276.8512268066406 C 314.75421142578125 275.8177185058594 315.15802001953125 278.3960876464844 303.5754089355469 284.2060852050781" stroke-width="0.0" fill="rgb(115, 120, 131)" opacity="0.97428334" stroke="rgb(0, 0, 0)" stroke-opacity="1.0" stroke-linecap="round" stroke-linejoin="round"/>
    <path d="M 194.577392578125 137.42063903808594 C 205.17938232421875 174.69688415527344 216.208984375 206.12942504882812 224.40518188476562 249.9329833984375 C 250.17984008789062 249.84201049804688 254.66090393066406 273.8382873535156 273.6550598144531 279.8315734863281 C 287.1636962890625 281.7379150390625 294.367919921875 282.1028137207031 302.976318359375 278.8459167480469 C 314.6011047363281 275.3829345703125 323.7475891113281 268.25262451171875 339.59063720703125 262.00286865234375 C 348.86114501953125 222.0701904296875 372.20465087890625 194.5476837158203 392.2956848144531 154.68255615234375 C 372.306396484375 155.60069274902344 364.53021240234375 166.3532257080078 347.426025390625 165.11846923828125 C 330.8125305175781 167.51559448242188 312.8779296875 167.43646240234375 300.1738586425781 162.94850158691406 C 274.32159423828125 163.95533752441406 251.3839874267578 161.67276000976562 234.2340850830078 152.90084838867188 C 215.89590454101562 153.1726837158203 209.20132446289062 142.56211853027344 194.577392578125 137.42063903808594" stroke-width="0.0" fill="rgb(65, 65, 74)" opacity="0.9854998" stroke="rgb(0, 0, 0)" stroke-opacity="1.0" stroke-linecap="round" stroke-linejoin="round"/>
    <path d="M 191.78314208984375 106.93608856201172 C 190.73123168945312 114.091552734375 189.64854431152344 120.8919906616211 193.93736267089844 125.38725280761719 C 197.9403839111328 131.7888641357422 201.07398986816406 139.65377807617188 208.4377899169922 143.26792907714844 C 223.75537109375 154.1744384765625 246.01539611816406 157.63034057617188 270.09722900390625 161.2364044189453 C 296.0501403808594 167.97410583496094 325.2838439941406 169.18345642089844 357.7012634277344 165.60462951660156 C 377.5460510253906 164.1099395751953 388.1702880859375 156.95738220214844 394.55474853515625 144.7090606689453 C 396.9664306640625 133.2371063232422 398.7869567871094 122.08155822753906 393.2357482910156 115.57718658447266 C 388.8797912597656 107.1639175415039 385.1916809082031 100.81375122070312 379.2916259765625 95.56997680664062 C 361.4922790527344 83.23738098144531 339.5424499511719 74.84535217285156 313.8319091796875 69.09893035888672 C 278.8611755371094 67.85456848144531 250.71649169921875 69.69728088378906 224.7185821533203 75.04981231689453 C 212.03262329101562 86.39505767822266 199.09487915039062 96.29634857177734 191.78314208984375 106.93608856201172" stroke-width="0.0" fill="rgb(153, 156, 178)" opacity="1.1410058" stroke="rgb(0, 0, 0)" stroke-opacity="1.0" stroke-linecap="round" stroke-linejoin="round"/>
    <path d="M 73.34928894042969 299.691162109375 C 66.38810729980469 309.9420166015625 60.83531188964844 321.3123474121094 61.86216735839844 337.23785400390625 C 63.87770080566406 351.1927795410156 69.65814208984375 361.0534362792969 79.9511489868164 367.22100830078125 C 89.62012481689453 376.8687744140625 104.1971435546875 381.64263916015625 120.96625518798828 384.6041259765625 C 141.09072875976562 389.32904052734375 162.0282745361328 391.77752685546875 190.0208282470703 389.9127502441406 C 190.17999267578125 366.3020935058594 186.19973754882812 347.2257385253906 187.6869354248047 328.1782531738281 C 187.30259704589844 309.1783142089844 199.65087890625 300.03558349609375 203.51809692382812 276.3099365234375 C 180.0247039794922 274.4490051269531 153.33038330078125 273.9827575683594 126.77940368652344 273.52508544921875 C 114.46361541748047 274.0045471191406 105.01295471191406 276.7969970703125 94.84809875488281 279.77105712890625 C 87.59053039550781 286.3565368652344 79.55360412597656 292.1585693359375 73.34928894042969 299.691162109375" stroke-width="0.0" fill="rgb(185, 190, 213)" opacity="0.99691343" stroke="rgb(0, 0, 0)" stroke-opacity="1.0" stroke-linecap="round" stroke-linejoin="round"/>
    <path d="M 189.95004272460938 98.3519287109375 C 208.87049865722656 88.60706329345703 221.0115509033203 78.42440795898438 237.21205139160156 75.33906555175781 C 258.27252197265625 68.9726791381836 278.2054443359375 68.41490173339844 298.63507080078125 70.12467956542969 C 316.75341796875 72.86572265625 336.2253112792969 74.06991577148438 352.3880310058594 83.7167739868164 C 373.9844970703125 87.51338195800781 382.707275390625 108.15426635742188 404.35394287109375 117.90830993652344 C 407.4064025878906 99.7202377319336 401.8477478027344 90.07222747802734 398.4733581542969 79.5630874633789 C 392.0683898925781 67.22468566894531 383.362548828125 56.8741340637207 372.64678955078125 48.4527702331543 C 363.92022705078125 39.826866149902344 352.53173828125 33.966758728027344 340.4581298828125 28.812854766845703 C 330.6364440917969 25.21959686279297 319.0358581542969 23.42575454711914 305.1988220214844 21.64063835144043 C 293.697265625 20.930187225341797 281.32733154296875 23.05445671081543 269.30303955078125 24.03276252746582 C 254.9628448486328 27.214988708496094 242.7415008544922 31.654102325439453 232.0760040283203 38.1411018371582 C 223.01243591308594 44.671749114990234 214.7107696533203 52.13764572143555 206.92088317871094 59.97814178466797 C 200.45506286621094 69.52814483642578 192.76817321777344 78.6279525756836 189.95004272460938 98.3519287109375" stroke-width="0.0" fill="rgb(159, 164, 186)" opacity="1.1098258" stroke="rgb(0, 0, 0)" stroke-opacity="1.0" stroke-linecap="round" stroke-linejoin="round"/>
    <path d="M 383.1947021484375 342.1767578125 C 370.6672058105469 344.93603515625 363.5634460449219 350.418212890625 359.6722106933594 358.4530029296875 C 358.4403076171875 393.8784484863281 355.6026306152344 428.55535888671875 354.0938415527344 462.0878601074219 C 360.3834228515625 480.5681457519531 366.87030029296875 495.19183349609375 373.3289489746094 517.529052734375 C 390.51593017578125 517.6273803710938 406.1885070800781 518.1986083984375 419.5227966308594 517.6561889648438 C 416.1656494140625 494.35015869140625 405.26123046875 487.3221435546875 405.409423828125 474.2021789550781 C 410.610595703125 457.8995361328125 415.8670654296875 443.69598388671875 418.8815612792969 428.2410888671875 C 419.92828369140625 415.376953125 421.414794921875 406.72967529296875 417.5410461425781 392.5700378417969 C 415.6588439941406 377.3128967285156 405.4443359375 366.6363830566406 400.9031066894531 351.8971862792969 C 393.9713439941406 345.9325256347656 388.7015686035156 342.5697326660156 383.1947021484375 342.1767578125" stroke-width="0.0" fill="rgb(103, 104, 114)" opacity="0.859486" stroke="rgb(0, 0, 0)" stroke-opacity="1.0" stroke-linecap="round" stroke-linejoin="round"/>
    <path d="M 228.1898651123047 294.3672180175781 C 219.99057006835938 292.3367614746094 217.27369689941406 296.4015197753906 213.46688842773438 302.00555419921875 C 205.51663208007812 308.9400329589844 201.86636352539062 320.0078125 199.54129028320312 332.36090087890625 C 197.69155883789062 352.4822998046875 195.91958618164062 369.1290588378906 198.70599365234375 379.0352783203125 C 205.25367736816406 388.0566101074219 206.42623901367188 395.36749267578125 214.8073272705078 394.6510314941406 C 228.175537109375 395.0912780761719 235.79473876953125 395.46624755859375 235.1220703125 391.5845947265625 C 240.07415771484375 378.81793212890625 246.69692993164062 372.5478515625 246.85025024414062 361.862060546875 C 245.9371337890625 344.2281799316406 246.98184204101562 331.4900817871094 244.11819458007812 318.69659423828125 C 242.55934143066406 308.97735595703125 237.3334197998047 300.3183288574219 228.1898651123047 294.3672180175781" stroke-width="0.0" fill="rgb(180, 184, 209)" opacity="0.99188685" stroke="rgb(0, 0, 0)" stroke-opacity="1.0" stroke-linecap="round" stroke-linejoin="round"/>
    <path d="M 341.48809814453125 417.1983337402344 C 339.65802001953125 411.876708984375 336.917236328125 408.74755859375 330.2126159667969 406.78997802734375 C 313.2867736816406 406.64093017578125 296.1548156738281 408.80987548828125 282.6724853515625 412.7471923828125 C 276.2841491699219 415.6189270019531 270.9071044921875 418.59234619140625 267.86962890625 424.1632995605469 C 265.8617248535156 429.474365234375 264.59429931640625 436.6853332519531 268.0274658203125 444.7038879394531 C 270.4075927734375 446.7798156738281 275.084228515625 449.2068786621094 283.32049560546875 449.02117919921875 C 299.9139404296875 449.033447265625 316.73089599609375 447.9930114746094 329.62066650390625 444.6784973144531 C 335.1993713378906 443.779052734375 338.68157958984375 441.709228515625 339.5751953125 437.22247314453125 C 341.4976501464844 431.7961730957031 342.9280090332031 424.9639892578125 341.48809814453125 417.1983337402344" stroke-width="0.0" fill="rgb(79, 82, 103)" opacity="1.1107434" stroke="rgb(0, 0, 0)" stroke-opacity="1.0" stroke-linecap="round" stroke-linejoin="round"/>
    <path d="M 193.02984619140625 397.76171875 C 194.89071655273438 414.637939453125 195.7752685546875 429.56646728515625 198.3284454345703 443.32818603515625 C 210.15377807617188 445.60052490234375 222.0567169189453 448.845458984375 237.89353942871094 448.1349182128906 C 239.4988555908203 431.6667175292969 239.0984344482422 422.1962585449219 231.4530792236328 414.9488220214844 C 222.97927856445312 412.1333312988281 222.5640411376953 405.98681640625 217.61138916015625 403.67755126953125 C 207.50477600097656 399.9965515136719 202.097412109375 398.7625427246094 193.02984619140625 397.76171875" stroke-width="0.0" fill="rgb(87, 93, 109)" opacity="0.97068906" stroke="rgb(0, 0, 0)" stroke-opacity="1.0" stroke-linecap="round" stroke-linejoin="round"/>
    <path d="M 207.65806579589844 286.274658203125 C 201.419921875 288.2747497558594 196.42330932617188 292.984375 194.31756591796875 300.04583740234375 C 189.9295654296875 309.69683837890625 186.6424102783203 319.4200134277344 187.4778594970703 334.567138671875 C 184.47915649414062 346.9428405761719 185.61550903320312 356.8558654785156 188.49404907226562 373.32025146484375 C 185.16017150878906 377.5983581542969 188.00885009765625 381.73187255859375 199.99237060546875 384.006591796875 C 201.25515747070312 368.62060546875 199.96791076660156 346.52789306640625 200.49905395507812 324.74066162109375 C 205.7860565185547 313.5543518066406 210.99057006835938 302.60040283203125 219.12583923339844 293.4150390625 C 216.5541229248047 289.50042724609375 213.5355224609375 287.318115234375 207.65806579589844 286.274658203125" stroke-width="0.0" fill="rgb(40, 40, 45)" opacity="0.9158276" stroke="rgb(0, 0, 0)" stroke-opacity="1.0" stroke-linecap="round" stroke-linejoin="round"/>
    <path d="M 234.16246032714844 258.1805114746094 C 229.93692016601562 262.3166809082031 226.68603515625 267.6687316894531 229.27737426757812 277.275390625 C 231.28794860839844 285.87188720703125 235.49359130859375 287.3654479980469 247.3028106689453 285.4256591796875 C 253.40599060058594 281.7301940917969 254.26405334472656 276.57061767578125 251.0343017578125 258.5333251953125 C 252.65933227539062 255.72216796875 245.4025421142578 255.40573120117188 234.16246032714844 258.1805114746094" stroke-width="0.0" fill="rgb(164, 169, 193)" opacity="0.97690916" stroke="rgb(0, 0, 0)" stroke-opacity="1.0" stroke-linecap="round" stroke-linejoin="round"/>
    <path d="M 253.86192321777344 287.4234619140625 C 243.29747009277344 287.07073974609375 239.05050659179688 289.53875732421875 235.7264404296875 299.2587890625 C 243.65499877929688 316.6809387207031 248.18849182128906 333.347900390625 243.49871826171875 360.1900329589844 C 243.88455200195312 380.9305419921875 235.9144287109375 390.8570251464844 224.7992706298828 398.8257141113281 C 226.49258422851562 408.7234802246094 229.04937744140625 412.049072265625 238.70004272460938 411.6499328613281 C 246.96131896972656 412.78350830078125 248.50918579101562 408.9482116699219 252.12196350097656 401.8800048828125 C 256.47235107421875 392.49371337890625 258.3612365722656 380.6537780761719 260.0687561035156 364.9630432128906 C 264.69781494140625 348.91827392578125 264.8994445800781 330.01104736328125 264.9847106933594 305.5346374511719 C 263.5912170410156 297.551513671875 259.1478271484375 291.5858459472656 253.86192321777344 287.4234619140625" stroke-width="0.0" fill="rgb(28, 28, 35)" opacity="1.0652466" stroke="rgb(0, 0, 0)" stroke-opacity="1.0" stroke-linecap="round" stroke-linejoin="round"/>
    <path d="M 214.574462890625 453.53143310546875 C 224.82839965820312 465.5873718261719 241.900634765625 469.1589660644531 260.0355529785156 470.5649108886719 C 277.5848388671875 472.7903747558594 292.48541259765625 472.17730712890625 304.9436950683594 468.5214538574219 C 312.6089172363281 467.1789855957031 318.8706359863281 465.75701904296875 319.5313415527344 454.0437927246094 C 284.5705871582031 457.981201171875 254.13478088378906 456.4876403808594 214.574462890625 453.53143310546875" stroke-width="0.0" fill="rgb(93, 99, 125)" opacity="1.0098058" stroke="rgb(0, 0, 0)" stroke-opacity="1.0" stroke-linecap="round" stroke-linejoin="round"/>
    <path d="M 262.50689697265625 334.8617248535156 C 262.32958984375 338.658203125 261.4273376464844 353.32244873046875 261.2684326171875 372.6591796875 C 263.2694396972656 372.88671875 267.62359619140625 374.2557678222656 280.5329284667969 373.739990234375 C 283.37835693359375 373.427734375 285.7313537597656 370.6892395019531 286.9631652832031 367.645751953125 C 290.35137939453125 361.41021728515625 291.5552673339844 355.1708984375 288.3896789550781 338.0213317871094 C 287.1533203125 333.963134765625 277.96051025390625 333.47119140625 262.50689697265625 334.8617248535156" stroke-width="0.0" fill="rgb(157, 162, 186)" opacity="0.97262955" stroke="rgb(0, 0, 0)" stroke-opacity="1.0" stroke-linecap="round" stroke-linejoin="round"/>
    <path d="M 259.33258056640625 287.8160705566406 C 260.560546875 305.6889343261719 262.4114074707031 316.53778076171875 263.00244140625 329.5729675292969 C 274.5782775878906 329.6459655761719 282.4080810546875 330.0752868652344 288.6600646972656 326.3660888671875 C 291.0206298828125 319.3605651855469 292.3252868652344 310.9577941894531 291.8985595703125 298.9011535644531 C 281.6605529785156 296.6065368652344 272.669921875 294.1280822753906 259.33258056640625 287.8160705566406" stroke-width="0.0" fill="rgb(166, 173, 199)" opacity="0.9933946" stroke="rgb(0, 0, 0)" stroke-opacity="1.0" stroke-linecap="round" stroke-linejoin="round"/>
    <path d="M 280.4079895019531 289.58392333984375 C 286.78900146484375 299.08642578125 294.1258544921875 305.4410095214844 302.584228515625 310.0963439941406 C 323.3269348144531 311.1046142578125 337.26263427734375 312.8763732910156 346.4555358886719 308.9757995605469 C 348.1979675292969 298.5965270996094 345.5721130371094 293.9942626953125 339.1004333496094 291.6259765625 C 319.287353515625 291.5792236328125 299.799072265625 290.6470031738281 280.4079895019531 289.58392333984375" stroke-width="0.0" fill="rgb(32, 31, 34)" opacity="0.9975856" stroke="rgb(0, 0, 0)" stroke-opacity="1.0" stroke-linecap="round" stroke-linejoin="round"/>
    <path d="M 353.87493896484375 287.1930236816406 C 358.44464111328125 296.78167724609375 365.63275146484375 302.89300537109375 370.9699401855469 311.0805358886719 C 368.2948303222656 318.1706848144531 363.4064025878906 326.3351135253906 361.4251708984375 336.0180969238281 C 373.1852111816406 334.4632873535156 378.18780517578125 329.20758056640625 381.7317810058594 321.88494873046875 C 384.5554504394531 317.0927429199219 387.1716613769531 311.1239013671875 386.047119140625 304.0588073730469 C 383.86517333984375 295.6033020019531 380.734375 292.37420654296875 377.0701599121094 289.5774841308594 C 369.91693115234375 287.6499328613281 363.6907653808594 283.1622314453125 353.87493896484375 287.1930236816406" stroke-width="0.0" fill="rgb(38, 38, 46)" opacity="0.9811269" stroke="rgb(0, 0, 0)" stroke-opacity="1.0" stroke-linecap="round" stroke-linejoin="round"/>
    <path d="M 158.4525146484375 272.65985107421875 C 173.05992126464844 275.6057434082031 188.78402709960938 279.79412841796875 210.364013671875 281.1589660644531 C 200.98446655273438 270.2607421875 191.3332061767578 263.3486022949219 179.895263671875 259.6084899902344 C 166.36288452148438 258.34185791015625 161.1460723876953 261.8201599121094 158.4525146484375 272.65985107421875" stroke-width="0.0" fill="rgb(27, 26, 30)" opacity="0.979466" stroke="rgb(0, 0, 0)" stroke-opacity="1.0" stroke-linecap="round" stroke-linejoin="round"/>
    <path d="M 355.7607421875 407.6727294921875 C 345.1962585449219 418.6756591796875 348.5660705566406 440.2759094238281 337.7973937988281 449.94732666015625 C 341.30010986328125 453.7332458496094 343.70697021484375 456.91546630859375 348.8902282714844 462.452880859375 C 353.6247253417969 447.1068420410156 357.26556396484375 431.93365478515625 355.7607421875 407.6727294921875" stroke-width="0.0" fill="rgb(235, 235, 239)" opacity="0.9934968" stroke="rgb(0, 0, 0)" stroke-opacity="1.0" stroke-linecap="round" stroke-linejoin="round"/>
    <path d="M 94.58421325683594 279.25555419921875 C 108.71182250976562 276.6594543457031 124.04557800292969 276.2478942871094 138.9867401123047 274.1271667480469 C 129.25233459472656 266.7211608886719 119.141845703125 267.2227478027344 109.99601745605469 268.2586975097656 C 102.27896118164062 270.2301940917969 97.4781723022461 275.2501220703125 94.58421325683594 279.25555419921875" stroke-width="0.0" fill="rgb(25, 23, 24)" opacity="0.94618565" stroke="rgb(0, 0, 0)" stroke-opacity="1.0" stroke-linecap="round" stroke-linejoin="round"/>
    <path d="M 381.33135986328125 216.66134643554688 C 377.7528381347656 212.85975646972656 374.4465026855469 211.91046142578125 367.9399719238281 214.59820556640625 C 363.6017150878906 218.24526977539062 361.0326232910156 224.704345703125 358.1915283203125 232.8833770751953 C 363.8578186035156 227.2278594970703 374.4830627441406 231.02915954589844 376.928955078125 224.94757080078125 C 380.4698181152344 223.63583374023438 382.46002197265625 222.2161102294922 381.33135986328125 216.66134643554688" stroke-width="0.0" fill="rgb(43, 43, 51)" opacity="0.97444296" stroke="rgb(0, 0, 0)" stroke-opacity="1.0" stroke-linecap="round" stroke-linejoin="round"/>
    <path d="M 195.10238647460938 194.1271514892578 C 199.29100036621094 192.18711853027344 204.5576171875 196.7044219970703 201.4759063720703 196.12660217285156 C 204.907470703125 198.5952606201172 209.3057403564453 202.68505859375 209.68165588378906 212.59033203125 C 198.736083984375 210.80636596679688 196.77188110351562 203.07411193847656 195.10238647460938 194.1271514892578" stroke-width="0.0" fill="rgb(30, 30, 46)" opacity="0.9862875" stroke="rgb(0, 0, 0)" stroke-opacity="1.0" stroke-linecap="round" stroke-linejoin="round"/>
    <path d="M 168.1942596435547 515.9273071289062 C 193.3427734375 518.0540771484375 220.50318908691406 518.4108276367188 253.17318725585938 518.9512329101562 C 253.54811096191406 502.3459777832031 253.11550903320312 492.1090087890625 251.54087829589844 483.90667724609375 C 238.28236389160156 482.4221496582031 223.1001434326172 481.917236328125 211.43511962890625 478.21319580078125 C 202.36981201171875 476.15509033203125 196.5450439453125 473.4961853027344 191.09083557128906 466.5804138183594 C 183.59913635253906 481.5147399902344 175.45181274414062 494.7118835449219 168.1942596435547 515.9273071289062" stroke-width="0.0" fill="rgb(176, 181, 205)" opacity="0.9349857" stroke="rgb(0, 0, 0)" stroke-opacity="1.0" stroke-linecap="round" stroke-linejoin="round"/>
    <path d="M 178.8125762939453 229.90696716308594 C 172.5638427734375 234.2016143798828 170.09747314453125 240.70440673828125 170.53211975097656 252.88748168945312 C 180.9058837890625 254.53451538085938 192.61756896972656 256.3108825683594 201.32066345214844 263.1092529296875 C 210.13743591308594 267.2306213378906 216.2150115966797 274.521728515625 224.1984100341797 285.86505126953125 C 226.8518524169922 275.9975891113281 228.27261352539062 269.37322998046875 228.26609802246094 260.3347473144531 C 225.90057373046875 251.55291748046875 221.75596618652344 244.85658264160156 218.5738983154297 237.5255584716797 C 214.0045166015625 231.5679168701172 206.43479919433594 229.2298126220703 200.6095428466797 227.71424865722656 C 190.24339294433594 224.6250762939453 183.26751708984375 226.56468200683594 178.8125762939453 229.90696716308594" stroke-width="0.0" fill="rgb(79, 81, 98)" opacity="1.06192" stroke="rgb(0, 0, 0)" stroke-opacity="1.0" stroke-linecap="round" stroke-linejoin="round"/>
    <path d="M 327.9648742675781 479.7976989746094 C 330.0577087402344 485.9969787597656 332.4456787109375 494.6831970214844 333.723388671875 503.96490478515625 C 343.67205810546875 501.331787109375 350.82586669921875 501.9955749511719 355.5325012207031 503.4693298339844 C 360.4549560546875 503.5600280761719 367.7872619628906 503.76263427734375 370.8549499511719 505.3355712890625 C 365.7351379394531 493.5045166015625 359.5399475097656 478.41766357421875 350.7770080566406 467.0411071777344 C 337.5368957519531 465.7691345214844 333.1046142578125 470.1985778808594 327.9648742675781 479.7976989746094" stroke-width="0.0" fill="rgb(188, 193, 218)" opacity="1.0084776" stroke="rgb(0, 0, 0)" stroke-opacity="1.0" stroke-linecap="round" stroke-linejoin="round"/>
    <path d="M 282.0557861328125 380.3505859375 C 275.1753234863281 376.43341064453125 267.9022521972656 376.3883361816406 258.69525146484375 379.07415771484375 C 257.4755554199219 389.94940185546875 255.7056884765625 399.0112609863281 253.69606018066406 409.3651123046875 C 266.2350158691406 410.36199951171875 273.53582763671875 408.7513732910156 277.2377014160156 403.6921691894531 C 281.4968566894531 397.0580139160156 283.19769287109375 390.51287841796875 282.0557861328125 380.3505859375" stroke-width="0.0" fill="rgb(134, 137, 159)" opacity="0.9665617" stroke="rgb(0, 0, 0)" stroke-opacity="1.0" stroke-linecap="round" stroke-linejoin="round"/>
    <path d="M 288.0052795410156 299.7015380859375 C 289.342041015625 304.3686218261719 289.9225769042969 310.2738037109375 290.80633544921875 312.5498962402344 C 298.5133361816406 311.09039306640625 298.3706970214844 307.722900390625 295.8390197753906 303.71978759765625 C 294.2809753417969 300.0856628417969 292.33538818359375 298.4195556640625 288.0052795410156 299.7015380859375" stroke-width="0.0" fill="rgb(121, 126, 144)" opacity="0.9997156" stroke="rgb(0, 0, 0)" stroke-opacity="1.0" stroke-linecap="round" stroke-linejoin="round"/>
    <path d="M 296.8312072753906 309.1468505859375 C 296.9593505859375 308.9930725097656 297.8817138671875 314.131591796875 298.9693298339844 320.20721435546875 C 297.1763000488281 325.3511962890625 290.8249816894531 325.94091796875 282.9914245605469 333.61627197265625 C 283.6254577636719 340.8495788574219 289.8400573730469 341.49615478515625 294.6534729003906 342.7362976074219 C 296.79736328125 351.3135070800781 295.98260498046875 360.4561767578125 292.7522888183594 365.34033203125 C 288.1680603027344 381.2528381347656 292.6474914550781 395.9320373535156 271.2471618652344 407.8553161621094 C 304.2870788574219 402.0115051269531 325.3946533203125 398.5928649902344 356.4391174316406 403.10711669921875 C 357.0247497558594 368.9670104980469 356.109130859375 340.1907653808594 353.0085144042969 316.05078125 C 335.1565856933594 308.705078125 317.3570251464844 308.023193359375 296.8312072753906 309.1468505859375" stroke-width="0.0" fill="rgb(189, 194, 220)" opacity="0.9589699" stroke="rgb(0, 0, 0)" stroke-opacity="1.0" stroke-linecap="round" stroke-linejoin="round"/>
    <path d="M 367.28680419921875 516.4711303710938 C 362.9378356933594 506.5877990722656 360.4356384277344 503.2586364746094 356.1108703613281 503.16876220703125 C 350.3456115722656 501.9477233886719 343.1864318847656 502.4551696777344 335.5433654785156 501.8960266113281 C 329.9779357910156 496.31317138671875 330.1783752441406 485.3111267089844 328.0386047363281 477.2782287597656 C 304.393310546875 481.9160461425781 279.2683410644531 483.53167724609375 251.6082763671875 482.5780029296875 C 254.87161254882812 492.60260009765625 255.06309509277344 502.04705810546875 254.55332946777344 516.4654541015625 C 291.2442932128906 516.5159301757812 327.6768798828125 516.5619506835938 367.28680419921875 516.4711303710938" stroke-width="0.0" fill="rgb(179, 185, 220)" opacity="1.0396461" stroke="rgb(0, 0, 0)" stroke-opacity="1.0" stroke-linecap="round" stroke-linejoin="round"/>
    <path d="M 349.1171569824219 289.26275634765625 C 354.6606140136719 303.52099609375 352.77069091796875 320.9414367675781 358.3642272949219 330.7531433105469 C 368.67974853515625 327.9691162109375 370.282958984375 322.2109680175781 368.803955078125 311.5526428222656 C 366.1601257324219 300.14617919921875 361.03363037109375 291.6540832519531 349.1171569824219 289.26275634765625" stroke-width="0.0" fill="rgb(150, 154, 179)" opacity="1.0146569" stroke="rgb(0, 0, 0)" stroke-opacity="1.0" stroke-linecap="round" stroke-linejoin="round"/>
    <path d="M 187.57785034179688 392.1882629394531 C 189.0487060546875 395.63818359375 191.06454467773438 397.3915710449219 191.7673797607422 401.3759765625 C 198.6930694580078 401.4824523925781 205.06504821777344 401.980224609375 215.1976318359375 401.8617248535156 C 209.19302368164062 397.31298828125 206.04013061523438 391.7366027832031 204.1256866455078 388.92791748046875 C 196.7522430419922 388.2865295410156 191.83721923828125 389.4268493652344 187.57785034179688 392.1882629394531" stroke-width="0.0" fill="rgb(133, 134, 152)" opacity="0.9896998" stroke="rgb(0, 0, 0)" stroke-opacity="1.0" stroke-linecap="round" stroke-linejoin="round"/>
    <path d="M 289.5910339355469 355.1518859863281 C 288.85888671875 348.11480712890625 290.20989990234375 349.896240234375 293.5582580566406 351.29278564453125 C 294.90081787109375 352.1496887207031 296.9320068359375 356.3951416015625 293.50189208984375 359.68939208984375 C 287.786865234375 360.2977600097656 289.2869873046875 356.66705322265625 289.5910339355469 355.1518859863281" stroke-width="0.0" fill="rgb(33, 33, 39)" opacity="1.0023956" stroke="rgb(0, 0, 0)" stroke-opacity="1.0" stroke-linecap="round" stroke-linejoin="round"/>
    <path d="M 347.6689147949219 468.2004089355469 C 345.111572265625 457.7444763183594 340.1939697265625 456.0165710449219 334.6888122558594 454.2080993652344 C 329.3639221191406 452.8646240234375 323.547607421875 454.8760986328125 317.4851989746094 457.22857666015625 C 316.7691955566406 459.20947265625 315.093505859375 468.3886413574219 315.9117431640625 476.95458984375 C 329.6351623535156 475.3226318359375 340.45916748046875 472.3690490722656 347.6689147949219 468.2004089355469" stroke-width="0.0" fill="rgb(20, 18, 21)" opacity="0.95848805" stroke="rgb(0, 0, 0)" stroke-opacity="1.0" stroke-linecap="round" stroke-linejoin="round"/>
    <path d="M 257.2234191894531 261.75970458984375 C 259.01019287109375 273.26708984375 262.8938293457031 280.466064453125 259.4870300292969 292.9953918457031 C 265.5490417480469 292.2611083984375 270.4665222167969 294.2522277832031 273.4813537597656 292.9345703125 C 270.0700378417969 280.0706481933594 266.8363342285156 268.49749755859375 257.2234191894531 261.75970458984375" stroke-width="0.0" fill="rgb(80, 81, 101)" opacity="0.9886975" stroke="rgb(0, 0, 0)" stroke-opacity="1.0" stroke-linecap="round" stroke-linejoin="round"/>
    <path d="M 222.11557006835938 456.72076416015625 C 222.81283569335938 464.0697021484375 221.5850830078125 473.38226318359375 227.38327026367188 477.9825439453125 C 232.01368713378906 471.1025390625 231.61276245117188 462.4075012207031 230.6082305908203 461.0254821777344 C 228.9084930419922 454.125732421875 225.97824096679688 455.5210876464844 222.11557006835938 456.72076416015625" stroke-width="0.0" fill="rgb(38, 38, 50)" opacity="1.0196211" stroke="rgb(0, 0, 0)" stroke-opacity="1.0" stroke-linecap="round" stroke-linejoin="round"/>
    <path d="M 222.40843200683594 280.30694580078125 C 219.72010803222656 285.8296813964844 221.3817138671875 287.1563415527344 222.55706787109375 288.591552734375 C 226.28111267089844 291.49847412109375 227.78262329101562 293.2236022949219 233.02279663085938 288.1147766113281 C 231.4107666015625 282.8027038574219 224.89122009277344 281.7611999511719 222.40843200683594 280.30694580078125" stroke-width="0.0" fill="rgb(92, 95, 113)" opacity="0.9974546" stroke="rgb(0, 0, 0)" stroke-opacity="1.0" stroke-linecap="round" stroke-linejoin="round"/>
    <path d="M 278.2660827636719 334.3343200683594 C 276.5652770996094 338.6260986328125 277.0055847167969 341.5506286621094 280.0593566894531 341.7366027832031 C 287.8780822753906 334.29620361328125 286.1086730957031 331.5149230957031 287.7314758300781 329.97991943359375 C 281.2823791503906 329.9313049316406 277.3746032714844 328.72491455078125 278.2660827636719 334.3343200683594" stroke-width="0.0" fill="rgb(120, 128, 149)" opacity="0.99860305" stroke="rgb(0, 0, 0)" stroke-opacity="1.0" stroke-linecap="round" stroke-linejoin="round"/>
    <path d="M 216.74398803710938 102.73313903808594 C 215.2666015625 112.51657104492188 222.44406127929688 115.8973388671875 230.47628784179688 120.12830352783203 C 246.98228454589844 128.09471130371094 266.45941162109375 132.54295349121094 289.33319091796875 133.76319885253906 C 314.4778137207031 137.84896850585938 332.3288879394531 138.0520782470703 351.65118408203125 134.28683471679688 C 364.0672912597656 134.36004638671875 371.3318176269531 130.59832763671875 375.4230651855469 119.5130615234375 C 372.6946716308594 108.1839370727539 364.3141784667969 104.28311157226562 353.7014465332031 100.12950134277344 C 337.686767578125 94.62491607666016 320.7795104980469 89.93470001220703 303.2742919921875 87.78556823730469 C 280.7685852050781 84.67076110839844 260.97271728515625 85.46173858642578 245.0006561279297 88.34017944335938 C 233.11769104003906 89.79729461669922 222.93357849121094 93.16700744628906 216.74398803710938 102.73313903808594" stroke-width="0.0" fill="rgb(16, 16, 21)" opacity="1.1093161" stroke="rgb(0, 0, 0)" stroke-opacity="1.0" stroke-linecap="round" stroke-linejoin="round"/>
    <path d="M 354.14544677734375 453.33465576171875 C 357.2456970214844 475.9062805175781 366.28192138671875 491.8992919921875 372.77740478515625 514.1439819335938 C 389.6606750488281 517.7398681640625 405.6159973144531 518.4048461914062 419.58953857421875 515.1371459960938 C 411.0518798828125 492.1753845214844 404.81646728515625 473.5696105957031 393.2121887207031 460.0028381347656 C 379.0093078613281 460.2050476074219 366.92425537109375 456.9700012207031 354.14544677734375 453.33465576171875" stroke-width="0.0" fill="rgb(101, 102, 118)" opacity="1.0017942" stroke="rgb(0, 0, 0)" stroke-opacity="1.0" stroke-linecap="round" stroke-linejoin="round"/>
    <path d="M 386.8689880371094 344.3658142089844 C 376.4685363769531 342.7844543457031 369.45465087890625 347.4422912597656 362.7903747558594 353.9404296875 C 358.81982421875 364.2707824707031 358.378662109375 379.222900390625 358.46978759765625 396.325927734375 C 365.2103271484375 398.9573059082031 372.5607604980469 400.66644287109375 381.9172668457031 397.26153564453125 C 391.0758972167969 395.59832763671875 397.670166015625 391.7650451660156 401.75677490234375 385.55889892578125 C 405.4440612792969 379.7856140136719 406.45391845703125 373.36151123046875 403.4436340332031 362.0254211425781 C 401.46923828125 352.8554992675781 397.0466613769531 347.9966735839844 386.8689880371094 344.3658142089844" stroke-width="0.0" fill="rgb(22, 22, 23)" opacity="1.0073026" stroke="rgb(0, 0, 0)" stroke-opacity="1.0" stroke-linecap="round" stroke-linejoin="round"/>
    <path d="M 358.38720703125 415.7838134765625 C 355.76324462890625 428.2466125488281 354.30694580078125 440.2242736816406 358.14495849609375 452.9429931640625 C 364.6792297363281 455.398681640625 372.2970275878906 457.71319580078125 385.9614562988281 458.8451843261719 C 394.3760070800781 460.0292663574219 399.0074768066406 458.53472900390625 401.46826171875 453.0348205566406 C 405.9110412597656 443.6904602050781 409.60357666015625 434.3819274902344 409.6719665527344 419.7419738769531 C 393.13787841796875 415.3345031738281 376.24322509765625 414.4315490722656 358.38720703125 415.7838134765625" stroke-width="0.0" fill="rgb(30, 31, 35)" opacity="1.0069977" stroke="rgb(0, 0, 0)" stroke-opacity="1.0" stroke-linecap="round" stroke-linejoin="round"/>
    <path d="M 337.98779296875 415.7478332519531 C 318.79681396484375 412.1326904296875 300.7649841308594 413.107666015625 284.8829040527344 419.7002258300781 C 275.59027099609375 422.4454040527344 269.2281188964844 426.4452819824219 275.8398742675781 442.8811950683594 C 285.6091613769531 445.2715759277344 304.8165588378906 444.14056396484375 331.6565246582031 438.6479187011719 C 339.7349853515625 436.3109436035156 343.5894775390625 431.9625244140625 337.98779296875 415.7478332519531" stroke-width="0.0" fill="rgb(163, 168, 200)" opacity="0.98585874" stroke="rgb(0, 0, 0)" stroke-opacity="1.0" stroke-linecap="round" stroke-linejoin="round"/>
    <path d="M 262.2868347167969 456.44189453125 C 262.47955322265625 462.22320556640625 261.6627502441406 468.585205078125 262.7393798828125 469.98663330078125 C 272.3643798828125 469.59185791015625 281.8548583984375 470.34881591796875 285.50299072265625 469.72998046875 C 285.28717041015625 463.9404296875 285.9195556640625 459.49859619140625 284.6875305175781 457.3699645996094 C 277.3879089355469 456.4099426269531 266.6711120605469 457.0390319824219 262.2868347167969 456.44189453125" stroke-width="0.0" fill="rgb(147, 155, 186)" opacity="1.0003676" stroke="rgb(0, 0, 0)" stroke-opacity="1.0" stroke-linecap="round" stroke-linejoin="round"/>
    <path d="M 263.7491760253906 262.408203125 C 262.216064453125 270.585693359375 265.186279296875 274.3878173828125 268.2198486328125 279.38287353515625 C 278.36474609375 281.34161376953125 292.080078125 282.97039794921875 309.33447265625 281.0641784667969 C 312.6142578125 279.5201416015625 315.19110107421875 275.1363220214844 319.1377258300781 269.0873718261719 C 302.8376159667969 266.0819396972656 283.58251953125 263.59912109375 263.7491760253906 262.408203125" stroke-width="0.0" fill="rgb(14, 13, 14)" opacity="1.0106419" stroke="rgb(0, 0, 0)" stroke-opacity="1.0" stroke-linecap="round" stroke-linejoin="round"/>
    <path d="M 397.2543029785156 83.0796127319336 C 392.36328125 89.35531616210938 392.5449523925781 98.05545806884766 392.0398254394531 114.73583984375 C 393.2406921386719 116.25787353515625 397.5858459472656 118.7224349975586 405.2847900390625 120.73558044433594 C 406.62689208984375 113.34893798828125 406.650390625 101.77025604248047 405.6844177246094 94.38972473144531 C 403.597412109375 89.66464233398438 403.27935791015625 84.86490631103516 397.2543029785156 83.0796127319336" stroke-width="0.0" fill="rgb(179, 185, 199)" opacity="0.95060974" stroke="rgb(0, 0, 0)" stroke-opacity="1.0" stroke-linecap="round" stroke-linejoin="round"/>
    <path d="M 229.94894409179688 459.4430847167969 C 235.9046630859375 466.1089782714844 245.69517517089844 468.7915344238281 260.46502685546875 469.29901123046875 C 262.43267822265625 465.717041015625 259.19720458984375 461.994384765625 260.1592712402344 455.33917236328125 C 246.85748291015625 456.0574951171875 237.18829345703125 453.34210205078125 229.94894409179688 459.4430847167969" stroke-width="0.0" fill="rgb(118, 125, 152)" opacity="0.96526694" stroke="rgb(0, 0, 0)" stroke-opacity="1.0" stroke-linecap="round" stroke-linejoin="round"/>
    <path d="M 298.1344909667969 469.351318359375 C 308.86932373046875 468.68377685546875 314.3289794921875 464.8908996582031 316.68975830078125 457.4952392578125 C 313.8233947753906 454.07037353515625 303.9713134765625 456.4978332519531 295.6124267578125 456.5538024902344 C 299.98736572265625 458.06146240234375 297.0632019042969 467.98614501953125 298.1344909667969 469.351318359375" stroke-width="0.0" fill="rgb(133, 141, 172)" opacity="0.9909276" stroke="rgb(0, 0, 0)" stroke-opacity="1.0" stroke-linecap="round" stroke-linejoin="round"/>
    <path d="M 285.2681579589844 297.0639953613281 C 283.2275085449219 301.7066955566406 280.2493591308594 303.96209716796875 274.3671569824219 309.50469970703125 C 282.80780029296875 307.4849853515625 281.4681091308594 307.828125 282.31903076171875 316.1042785644531 C 284.7537536621094 315.2297058105469 284.0235595703125 308.55096435546875 284.5061950683594 308.10858154296875 C 287.711181640625 310.1572570800781 290.753662109375 310.4588623046875 291.5963439941406 311.6366882324219 C 289.2939147949219 307.0579833984375 287.4509582519531 302.28497314453125 285.2681579589844 297.0639953613281" stroke-width="0.0" fill="rgb(188, 198, 223)" opacity="1.0072118" stroke="rgb(0, 0, 0)" stroke-opacity="1.0" stroke-linecap="round" stroke-linejoin="round"/>
    <path d="M 171.3580780029297 234.7830047607422 C 170.73390197753906 239.5670928955078 168.47900390625 244.44337463378906 170.81817626953125 250.97608947753906 C 175.5818328857422 246.239013671875 182.6689453125 245.60369873046875 187.989501953125 246.54515075683594 C 197.30450439453125 252.5628204345703 206.64915466308594 258.9493408203125 220.58782958984375 265.9131774902344 C 218.76539611816406 249.1111602783203 218.8988494873047 237.2449493408203 214.15493774414062 232.98463439941406 C 203.35614013671875 228.91714477539062 195.3050537109375 224.6865234375 184.2888946533203 225.35427856445312 C 178.1377716064453 225.81692504882812 175.66156005859375 230.8329620361328 171.3580780029297 234.7830047607422" stroke-width="0.0" fill="rgb(161, 167, 192)" opacity="0.9508723" stroke="rgb(0, 0, 0)" stroke-opacity="1.0" stroke-linecap="round" stroke-linejoin="round"/>
    <path d="M 385.8959045410156 115.4955062866211 C 385.5789489746094 128.9452667236328 379.9634094238281 134.80393981933594 372.17547607421875 142.2699737548828 C 383.6927490234375 145.25904846191406 393.5021667480469 149.92770385742188 407.9845886230469 151.41424560546875 C 413.39453125 140.5798797607422 411.1610412597656 133.1185302734375 407.6371765136719 125.73931121826172 C 402.3095397949219 121.73194122314453 394.4110107421875 118.22416687011719 385.8959045410156 115.4955062866211" stroke-width="0.0" fill="rgb(170, 174, 198)" opacity="1.0097481" stroke="rgb(0, 0, 0)" stroke-opacity="1.0" stroke-linecap="round" stroke-linejoin="round"/>
    <path d="M 169.99009704589844 252.32142639160156 C 185.13880920410156 255.3214569091797 202.7980194091797 260.7078857421875 216.3585205078125 273.09844970703125 C 218.77320861816406 273.1600036621094 214.28121948242188 269.77130126953125 220.90745544433594 265.9434814453125 C 214.17335510253906 256.847900390625 204.3677978515625 251.2034912109375 194.16502380371094 247.50328063964844 C 183.7478485107422 244.79306030273438 176.22174072265625 241.00424194335938 169.99009704589844 252.32142639160156" stroke-width="0.0" fill="rgb(47, 47, 55)" opacity="1.010383" stroke="rgb(0, 0, 0)" stroke-opacity="1.0" stroke-linecap="round" stroke-linejoin="round"/>
    <path d="M 256.7581481933594 387.84619140625 C 257.0807189941406 390.86602783203125 256.0584716796875 399.445556640625 252.17361450195312 407.1570739746094 C 262.3846435546875 410.0396728515625 268.6263427734375 408.27947998046875 274.2846984863281 403.82843017578125 C 280.1793212890625 399.9385070800781 281.61248779296875 393.9821472167969 279.498779296875 383.3951721191406 C 276.00750732421875 384.84564208984375 279.1396179199219 391.03594970703125 276.89288330078125 394.69097900390625 C 274.9062805175781 392.1179504394531 276.5512390136719 387.4929504394531 276.28533935546875 385.0780944824219 C 267.3751220703125 381.6997375488281 261.0240173339844 383.6339111328125 256.7581481933594 387.84619140625" stroke-width="0.0" fill="rgb(160, 163, 188)" opacity="0.98521125" stroke="rgb(0, 0, 0)" stroke-opacity="1.0" stroke-linecap="round" stroke-linejoin="round"/>
    <path d="M 424.6737976074219 400.79217529296875 C 421.06207275390625 393.4566955566406 415.63922119140625 391.8077697753906 409.1963195800781 390.9335021972656 C 401.436279296875 395.04534912109375 395.95263671875 400.6242980957031 385.0409851074219 402.3208923339844 C 394.2436218261719 405.4502868652344 402.0653991699219 406.7454528808594 411.81365966796875 406.94189453125 C 416.9752197265625 405.580078125 421.1769714355469 403.719482421875 424.6737976074219 400.79217529296875" stroke-width="0.0" fill="rgb(42, 42, 46)" opacity="0.96638083" stroke="rgb(0, 0, 0)" stroke-opacity="1.0" stroke-linecap="round" stroke-linejoin="round"/>
    <path d="M 206.54580688476562 67.22430419921875 C 202.6953582763672 70.7972412109375 198.01087951660156 73.20327758789062 196.79238891601562 76.46219635009766 C 194.27716064453125 86.42967224121094 192.9539337158203 92.34201049804688 196.8645782470703 96.48725128173828 C 203.27639770507812 91.48428344726562 207.00582885742188 84.38565826416016 211.2062530517578 77.17377471923828 C 212.09739685058594 72.40388488769531 208.90696716308594 70.65747833251953 206.54580688476562 67.22430419921875" stroke-width="0.0" fill="rgb(221, 226, 240)" opacity="0.999959" stroke="rgb(0, 0, 0)" stroke-opacity="1.0" stroke-linecap="round" stroke-linejoin="round"/>
    <path d="M 238.1859588623047 232.2734375 C 232.05348205566406 235.39401245117188 232.7091064453125 243.0939483642578 234.4293212890625 256.42755126953125 C 241.4492950439453 251.15476989746094 241.33807373046875 247.58042907714844 252.60142517089844 252.62527465820312 C 246.7095184326172 243.88034057617188 245.3363037109375 234.72869873046875 238.1859588623047 232.2734375" stroke-width="0.0" fill="rgb(39, 39, 46)" opacity="1.0014449" stroke="rgb(0, 0, 0)" stroke-opacity="1.0" stroke-linecap="round" stroke-linejoin="round"/>
    <path d="M 286.1808776855469 456.1076354980469 C 286.78045654296875 460.8625793457031 286.902587890625 465.9521484375 286.88372802734375 470.8979797363281 C 289.2903137207031 470.9532165527344 293.23736572265625 471.47711181640625 296.623291015625 471.2223815917969 C 296.5193176269531 465.67401123046875 296.6961669921875 461.1228942871094 297.3575439453125 456.73260498046875 C 293.0003356933594 457.4852294921875 289.5276794433594 456.6962585449219 286.1808776855469 456.1076354980469" stroke-width="0.0" fill="rgb(117, 123, 152)" opacity="0.99910533" stroke="rgb(0, 0, 0)" stroke-opacity="1.0" stroke-linecap="round" stroke-linejoin="round"/>
    <path d="M 240.38072204589844 386.8141784667969 C 240.58444213867188 393.4156188964844 244.9278106689453 394.618896484375 250.68629455566406 395.2348937988281 C 257.48553466796875 393.4931945800781 257.2145690917969 389.97906494140625 255.82772827148438 387.81512451171875 C 250.80067443847656 385.611083984375 244.01583862304688 384.8352966308594 240.38072204589844 386.8141784667969" stroke-width="0.0" fill="rgb(126, 133, 148)" opacity="1.000578" stroke="rgb(0, 0, 0)" stroke-opacity="1.0" stroke-linecap="round" stroke-linejoin="round"/>
    <path d="M 192.9586639404297 353.1985168457031 C 199.54180908203125 354.685302734375 200.56216430664062 355.36114501953125 196.79331970214844 355.79632568359375 C 196.84603881835938 361.9414978027344 199.2244415283203 368.20440673828125 200.67515563964844 377.5756530761719 C 189.9526824951172 375.5818786621094 193.33950805664062 364.7439880371094 192.9586639404297 353.1985168457031" stroke-width="0.0" fill="rgb(15, 14, 17)" opacity="1.0002854" stroke="rgb(0, 0, 0)" stroke-opacity="1.0" stroke-linecap="round" stroke-linejoin="round"/>
    <path d="M 289.84832763671875 305.0393371582031 C 288.6796569824219 309.3599853515625 287.1495056152344 312.0924072265625 286.79205322265625 313.5328674316406 C 291.5634460449219 313.6208801269531 296.6745300292969 315.54779052734375 297.32379150390625 312.6566162109375 C 298.24072265625 305.08599853515625 295.91949462890625 303.9855041503906 289.84832763671875 305.0393371582031" stroke-width="0.0" fill="rgb(50, 52, 62)" opacity="0.98846704" stroke="rgb(0, 0, 0)" stroke-opacity="1.0" stroke-linecap="round" stroke-linejoin="round"/>
    <path d="M 218.44677734375 69.96147918701172 C 216.1392364501953 67.99291229248047 213.484375 75.76303100585938 218.4414825439453 80.91651153564453 C 234.68458557128906 75.70464324951172 251.79379272460938 71.17586517333984 269.974365234375 69.89722442626953 C 288.58148193359375 68.35990905761719 303.4664306640625 70.0749740600586 320.40472412109375 73.52491760253906 C 336.24951171875 77.0292739868164 351.76666259765625 81.92597961425781 364.039794921875 88.97611999511719 C 378.76983642578125 95.52286529541016 386.5755310058594 106.30715942382812 396.6706237792969 120.6849365234375 C 396.2567138671875 107.33204650878906 391.63232421875 102.28588104248047 391.1311340332031 94.04679107666016 C 386.0873107910156 83.9294204711914 381.0453186035156 75.09248352050781 372.48260498046875 70.40229034423828 C 359.4750061035156 59.47323226928711 344.6930847167969 50.47434997558594 326.576171875 45.94357681274414 C 304.2679138183594 42.27067565917969 286.0516357421875 40.85354995727539 262.8427734375 45.15332794189453 C 243.77090454101562 50.92280578613281 227.88803100585938 58.778621673583984 218.44677734375 69.96147918701172" stroke-width="0.0" fill="rgb(92, 95, 113)" opacity="1.0043125" stroke="rgb(0, 0, 0)" stroke-opacity="1.0" stroke-linecap="round" stroke-linejoin="round"/>
    <path d="M 207.99639892578125 95.9115982055664 C 195.1405487060547 97.83321380615234 187.2362060546875 101.08717346191406 181.9784393310547 108.23906707763672 C 176.8003692626953 117.17947387695312 177.6046600341797 121.56536102294922 182.93284606933594 129.1593780517578 C 192.7224884033203 128.3479766845703 202.587646484375 127.76433563232422 214.92442321777344 127.38716125488281 C 206.8125457763672 117.51945495605469 203.79739379882812 110.0282211303711 207.99639892578125 95.9115982055664" stroke-width="0.0" fill="rgb(176, 181, 205)" opacity="0.9806174" stroke="rgb(0, 0, 0)" stroke-opacity="1.0" stroke-linecap="round" stroke-linejoin="round"/>
    <path d="M 350.10028076171875 288.845458984375 C 357.5541076660156 293.3017272949219 364.4976806640625 297.9796447753906 368.3245544433594 308.36492919921875 C 372.5021057128906 309.1507873535156 378.9496765136719 310.1203308105469 385.27825927734375 308.61181640625 C 387.7065734863281 297.07794189453125 385.125244140625 292.4856262207031 378.4684753417969 289.4292907714844 C 371.0247497558594 281.28692626953125 362.78863525390625 284.1022644042969 350.10028076171875 288.845458984375" stroke-width="0.0" fill="rgb(56, 57, 69)" opacity="0.93178034" stroke="rgb(0, 0, 0)" stroke-opacity="1.0" stroke-linecap="round" stroke-linejoin="round"/>
    <path d="M 385.0163269042969 308.91888427734375 C 380.50628662109375 306.6395263671875 374.9926452636719 305.8870544433594 369.0355224609375 306.1312255859375 C 371.6230163574219 322.21661376953125 355.7043151855469 325.4181823730469 360.0453186035156 340.1333312988281 C 369.158447265625 338.5496826171875 373.4877624511719 333.21307373046875 377.3907470703125 327.7818908691406 C 381.01580810546875 322.50030517578125 385.2890930175781 318.2684020996094 385.0163269042969 308.91888427734375" stroke-width="0.0" fill="rgb(25, 23, 27)" opacity="0.98584276" stroke="rgb(0, 0, 0)" stroke-opacity="1.0" stroke-linecap="round" stroke-linejoin="round"/>
    <path d="M 360.4884948730469 302.1127624511719 C 352.5882263183594 304.95623779296875 352.82611083984375 309.7544860839844 352.7118225097656 316.302978515625 C 354.37347412109375 322.1098327636719 357.14276123046875 327.5594482421875 361.2696228027344 329.78289794921875 C 370.322265625 325.1181335449219 373.2024841308594 321.1767883300781 369.2247314453125 309.8734436035156 C 367.5124206542969 305.17083740234375 364.77655029296875 302.4537658691406 360.4884948730469 302.1127624511719" stroke-width="0.0" fill="rgb(132, 135, 159)" opacity="0.94203305" stroke="rgb(0, 0, 0)" stroke-opacity="1.0" stroke-linecap="round" stroke-linejoin="round"/>
    <path d="M 381.9090881347656 213.95205688476562 C 377.2723388671875 210.974853515625 369.7351379394531 214.87669372558594 366.0455627441406 215.69032287597656 C 366.4393005371094 221.92185974121094 365.6752624511719 227.38690185546875 367.9244079589844 229.6616668701172 C 371.9732666015625 232.02305603027344 375.72393798828125 229.89695739746094 378.44366455078125 227.65245056152344 C 379.4025573730469 224.73838806152344 381.2736511230469 220.3379669189453 381.9090881347656 213.95205688476562" stroke-width="0.0" fill="rgb(43, 44, 54)" opacity="0.9475006" stroke="rgb(0, 0, 0)" stroke-opacity="1.0" stroke-linecap="round" stroke-linejoin="round"/>
    <path d="M 247.81607055664062 151.3292236328125 C 246.81387329101562 157.31216430664062 249.253173828125 157.59669494628906 251.5275421142578 158.39089965820312 C 262.159912109375 161.441162109375 278.0961608886719 161.7876434326172 301.7429504394531 158.3145751953125 C 283.5736999511719 154.4749298095703 262.8594970703125 157.0889129638672 247.81607055664062 151.3292236328125" stroke-width="0.0" fill="rgb(70, 73, 92)" opacity="0.9948724" stroke="rgb(0, 0, 0)" stroke-opacity="1.0" stroke-linecap="round" stroke-linejoin="round"/>
    <path d="M 193.90916442871094 407.03814697265625 C 193.01734924316406 410.6363830566406 196.20700073242188 411.1269836425781 197.35098266601562 412.6166687011719 C 207.25173950195312 413.042724609375 218.2646484375 417.56195068359375 231.04965209960938 415.5505676269531 C 223.1998748779297 408.8593444824219 206.33009338378906 410.7906799316406 193.90916442871094 407.03814697265625" stroke-width="0.0" fill="rgb(26, 27, 34)" opacity="0.9860189" stroke="rgb(0, 0, 0)" stroke-opacity="1.0" stroke-linecap="round" stroke-linejoin="round"/>
    <path d="M 244.94749450683594 318.537109375 C 245.9905242919922 321.62451171875 250.75123596191406 323.091064453125 258.9557800292969 321.2515869140625 C 260.8428649902344 316.4201354980469 261.2366638183594 311.86572265625 260.4053649902344 312.4789123535156 C 250.93992614746094 311.7815856933594 245.98678588867188 309.9188537597656 244.94749450683594 318.537109375" stroke-width="0.0" fill="rgb(107, 115, 135)" opacity="1.0090823" stroke="rgb(0, 0, 0)" stroke-opacity="1.0" stroke-linecap="round" stroke-linejoin="round"/>
    <path d="M 320.3492126464844 271.2159423828125 C 320.826904296875 270.91693115234375 329.0911560058594 269.98779296875 339.1063537597656 269.72576904296875 C 336.806884765625 264.48773193359375 330.97137451171875 263.7715759277344 329.34912109375 259.43609619140625 C 326.60992431640625 262.0130920410156 321.5069274902344 261.8559875488281 320.3492126464844 271.2159423828125" stroke-width="0.0" fill="rgb(66, 67, 75)" opacity="0.9933801" stroke="rgb(0, 0, 0)" stroke-opacity="1.0" stroke-linecap="round" stroke-linejoin="round"/>
    <path d="M 244.97325134277344 304.5299987792969 C 243.116943359375 307.1694030761719 248.5160369873047 303.91796875 259.4499816894531 303.3944396972656 C 258.0221252441406 299.8843078613281 257.9109802246094 295.4654846191406 257.80322265625 296.2042236328125 C 246.52577209472656 297.052734375 242.96658325195312 293.3056945800781 244.97325134277344 304.5299987792969" stroke-width="0.0" fill="rgb(130, 134, 158)" opacity="1.0082997" stroke="rgb(0, 0, 0)" stroke-opacity="1.0" stroke-linecap="round" stroke-linejoin="round"/>
    <path d="M 216.07131958007812 237.1090545654297 C 221.74008178710938 234.58721923828125 221.89024353027344 234.7703094482422 221.2670440673828 236.71339416503906 C 223.68087768554688 245.26516723632812 222.91094970703125 250.110107421875 217.9730224609375 251.9886474609375 C 215.99285888671875 239.77310180664062 215.86952209472656 235.8246307373047 216.07131958007812 237.1090545654297" stroke-width="0.0" fill="rgb(54, 55, 66)" opacity="1.0011973" stroke="rgb(0, 0, 0)" stroke-opacity="1.0" stroke-linecap="round" stroke-linejoin="round"/>
    <path d="M 249.56997680664062 358.947509765625 C 247.30479431152344 361.8921203613281 248.69305419921875 365.4738464355469 249.2060089111328 365.4180603027344 C 252.00555419921875 366.1330261230469 255.3275604248047 369.05462646484375 258.7884521484375 364.7879943847656 C 260.13299560546875 357.3883361816406 256.2139587402344 358.7030944824219 249.56997680664062 358.947509765625" stroke-width="0.0" fill="rgb(124, 135, 154)" opacity="0.99747056" stroke="rgb(0, 0, 0)" stroke-opacity="1.0" stroke-linecap="round" stroke-linejoin="round"/>
    <path d="M 376.242919921875 491.5942687988281 C 378.447998046875 499.6655578613281 380.6386413574219 505.8160705566406 385.9156799316406 515.3385620117188 C 397.239013671875 517.1244506835938 410.2236633300781 518.1964111328125 421.8186340332031 516.213134765625 C 416.6142883300781 495.7087707519531 407.5113525390625 486.4825439453125 398.37762451171875 476.4901123046875 C 391.7666015625 483.54620361328125 381.5456237792969 487.7474670410156 376.242919921875 491.5942687988281" stroke-width="0.0" fill="rgb(67, 66, 77)" opacity="0.97544974" stroke="rgb(0, 0, 0)" stroke-opacity="1.0" stroke-linecap="round" stroke-linejoin="round"/>
    <path d="M 231.53692626953125 120.04108428955078 C 248.50149536132812 127.94052124023438 269.0892639160156 133.59173583984375 292.9283447265625 135.9418182373047 C 317.8238220214844 137.50282287597656 338.9172668457031 137.32040405273438 356.2877197265625 132.31895446777344 C 356.52606201171875 120.43912506103516 349.017822265625 117.01327514648438 342.0871887207031 111.97356414794922 C 331.1060791015625 104.24579620361328 316.7882385253906 99.5235366821289 301.9019775390625 96.98413848876953 C 285.3968811035156 94.09367370605469 271.528564453125 94.88780212402344 261.7189636230469 98.38996124267578 C 247.67803955078125 101.69227600097656 236.59327697753906 106.1861572265625 231.53692626953125 120.04108428955078" stroke-width="0.0" fill="rgb(56, 56, 53)" opacity="0.9751082" stroke="rgb(0, 0, 0)" stroke-opacity="1.0" stroke-linecap="round" stroke-linejoin="round"/>
    <path d="M 361.84552001953125 469.18408203125 C 361.5127868652344 479.4507141113281 370.0189208984375 483.23583984375 374.74786376953125 492.2746887207031 C 381.2649841308594 489.8685302734375 384.055908203125 484.9045104980469 390.4787902832031 483.6864318847656 C 391.1071472167969 483.27154541015625 391.95391845703125 477.74908447265625 390.819091796875 474.7563171386719 C 380.2127685546875 473.4071960449219 371.53228759765625 469.3905029296875 361.84552001953125 469.18408203125" stroke-width="0.0" fill="rgb(88, 91, 107)" opacity="0.9894719" stroke="rgb(0, 0, 0)" stroke-opacity="1.0" stroke-linecap="round" stroke-linejoin="round"/>
    <path d="M 371.68609619140625 368.8572692871094 C 374.28594970703125 369.95513916015625 372.5875549316406 375.3670349121094 371.6407470703125 375.39202880859375 C 369.3536376953125 374.9778747558594 364.6548767089844 379.1885681152344 358.0561218261719 380.3240661621094 C 358.2893981933594 371.9450988769531 365.9701843261719 372.3045959472656 371.68609619140625 368.8572692871094" stroke-width="0.0" fill="rgb(74, 76, 90)" opacity="1.0021166" stroke="rgb(0, 0, 0)" stroke-opacity="1.0" stroke-linecap="round" stroke-linejoin="round"/>
    <path d="M 397.5800476074219 86.70135498046875 C 394.41070556640625 89.68614196777344 392.27410888671875 93.53549194335938 391.9872741699219 97.71683502197266 C 395.14794921875 103.5857925415039 395.8802795410156 112.06261444091797 401.325927734375 117.4399642944336 C 404.1894226074219 109.28746795654297 405.4018249511719 101.2785873413086 406.6126403808594 94.56793212890625 C 403.92474365234375 89.4888687133789 401.3499755859375 87.67256927490234 397.5800476074219 86.70135498046875" stroke-width="0.0" fill="rgb(215, 220, 230)" opacity="0.9930888" stroke="rgb(0, 0, 0)" stroke-opacity="1.0" stroke-linecap="round" stroke-linejoin="round"/>
    <path d="M 259.3685607910156 471.8725280761719 C 259.9266052246094 463.6290283203125 260.1057434082031 458.72711181640625 256.4452819824219 454.8832702636719 C 250.6272735595703 456.9283447265625 243.09913635253906 455.7122802734375 238.6571502685547 455.2666931152344 C 238.56459045410156 460.663330078125 241.27993774414062 462.6756286621094 243.69015502929688 467.4321594238281 C 247.31361389160156 468.1030578613281 252.17076110839844 470.21771240234375 259.3685607910156 471.8725280761719" stroke-width="0.0" fill="rgb(152, 158, 189)" opacity="0.9873132" stroke="rgb(0, 0, 0)" stroke-opacity="1.0" stroke-linecap="round" stroke-linejoin="round"/>
    <path d="M 366.15008544921875 490.2206726074219 C 366.7525634765625 497.5650329589844 368.90057373046875 503.122802734375 366.8609313964844 515.0903930664062 C 372.03961181640625 517.0155029296875 375.2513122558594 516.8641967773438 376.91363525390625 511.1331481933594 C 376.8862609863281 499.7088317871094 373.3935241699219 493.6148681640625 366.15008544921875 490.2206726074219" stroke-width="0.0" fill="rgb(27, 25, 33)" opacity="0.9876214" stroke="rgb(0, 0, 0)" stroke-opacity="1.0" stroke-linecap="round" stroke-linejoin="round"/>
    <path d="M 379.94390869140625 379.9586486816406 C 387.2932434082031 382.1799621582031 378.66741943359375 389.3878173828125 381.57598876953125 386.3836669921875 C 377.5885925292969 388.8594970703125 369.3999938964844 393.06427001953125 355.9073486328125 394.1295471191406 C 362.5048522949219 386.6103820800781 373.9460754394531 385.3943176269531 379.94390869140625 379.9586486816406" stroke-width="0.0" fill="rgb(49, 51, 63)" opacity="0.99862546" stroke="rgb(0, 0, 0)" stroke-opacity="1.0" stroke-linecap="round" stroke-linejoin="round"/>
    <path d="M 306.0838623046875 115.0628890991211 C 307.1746826171875 121.1158447265625 312.7340393066406 123.6285171508789 322.0308532714844 126.26375579833984 C 330.8453674316406 127.52882385253906 337.2745056152344 127.08003234863281 340.19549560546875 120.04663848876953 C 338.6805114746094 109.88018798828125 332.318603515625 107.73930358886719 325.4056091308594 106.5046615600586 C 314.3359069824219 105.33088684082031 308.5743103027344 107.18292999267578 306.0838623046875 115.0628890991211" stroke-width="0.0" fill="rgb(79, 79, 118)" opacity="0.9992238" stroke="rgb(0, 0, 0)" stroke-opacity="1.0" stroke-linecap="round" stroke-linejoin="round"/>
    <path d="M 248.92918395996094 112.38965606689453 C 250.73252868652344 115.04229736328125 254.09912109375 118.77468872070312 261.5946044921875 120.19377136230469 C 272.9056396484375 121.66732788085938 279.24700927734375 120.19760131835938 282.26971435546875 111.0977554321289 C 279.6622009277344 103.0354995727539 274.3916320800781 100.0999755859375 267.0787658691406 100.79347229003906 C 257.0322265625 98.87995147705078 253.4692840576172 102.10769653320312 248.92918395996094 112.38965606689453" stroke-width="0.0" fill="rgb(89, 90, 131)" opacity="1.0000492" stroke="rgb(0, 0, 0)" stroke-opacity="1.0" stroke-linecap="round" stroke-linejoin="round"/>
  </g>
</svg>
