<?xml version="1.0" ?>
<svg xmlns="http://www.w3.org/2000/svg" version="1.1" width="512" height="512">
  <defs/>
  <g>
    <path d="M -4.638395309448242 -4.655696392059326 C -4.631217956542969 170.3333282470703 -4.584964752197266 340.6666564941406 -4.39467716217041 519.3141479492188 C 169.84193420410156 518.2495727539062 340.1110534667969 517.775146484375 518.016357421875 517.8884887695312 C 518.0272216796875 340.6708679199219 518.03955078125 170.3376922607422 518.0550537109375 -4.632673740386963 C 340.6666564941406 -4.651494026184082 170.3333282470703 -4.659127712249756 -4.638395309448242 -4.655696392059326" stroke-width="0.0" fill="rgb(251, 253, 258)" opacity="0.79132324" stroke="rgb(0, 0, 0)" stroke-opacity="1.0" stroke-linecap="round" stroke-linejoin="round"/>
    <path d="M 261.2011413574219 27.031063079833984 C 249.53363037109375 30.91588020324707 238.02731323242188 34.75859451293945 229.83941650390625 41.54585647583008 C 218.63133239746094 47.53443908691406 211.38026428222656 56.61322784423828 202.48880004882812 65.44125366210938 C 192.69888305664062 81.06041717529297 184.801513671875 103.20520782470703 178.77407836914062 124.24484252929688 C 175.9551239013672 145.86660766601562 176.22064208984375 162.08953857421875 181.89442443847656 174.25650024414062 C 185.58523559570312 202.952392578125 207.6070098876953 206.65367126464844 213.1464080810547 229.32444763183594 C 198.80445861816406 231.3495635986328 192.28057861328125 226.54782104492188 182.44908142089844 232.8453826904297 C 171.72157287597656 236.68064880371094 169.8131103515625 250.13302612304688 160.52688598632812 256.251220703125 C 138.95867919921875 261.3171691894531 117.19995880126953 262.1376037597656 101.84847259521484 271.88995361328125 C 89.72742462158203 283.3680725097656 77.9020004272461 294.38037109375 68.28875732421875 306.7364501953125 C 63.75954818725586 317.8580322265625 60.3809928894043 323.910400390625 62.09435272216797 339.4961853027344 C 63.73881149291992 346.6676940917969 67.25701141357422 352.0804443359375 70.05162811279297 357.4071044921875 C 78.17149353027344 366.4823303222656 88.13350677490234 374.22418212890625 101.02850341796875 380.0365905761719 C 123.26306915283203 388.85894775390625 151.8168487548828 390.6826477050781 187.83470153808594 390.4491882324219 C 193.9963836669922 410.9299011230469 198.46592712402344 437.7041931152344 196.7229461669922 464.3922424316406 C 193.6202392578125 467.5980224609375 202.80807495117188 470.8624572753906 204.15672302246094 474.7378845214844 C 231.2300567626953 477.34942626953125 257.50360107421875 481.4577331542969 284.3441467285156 478.9166564941406 C 304.8837585449219 479.0040588378906 322.5020446777344 477.236083984375 332.0530700683594 474.0028076171875 C 340.5065612792969 470.16827392578125 348.1854248046875 467.06536865234375 352.5843505859375 461.27239990234375 C 357.150146484375 478.9724426269531 369.1755065917969 490.63714599609375 372.0789489746094 517.351806640625 C 384.16119384765625 519.599853515625 403.50347900390625 519.8868408203125 417.8208312988281 517.9319458007812 C 415.705322265625 496.94805908203125 405.5852966308594 493.4425964355469 404.4332275390625 478.69561767578125 C 409.3595275878906 462.46337890625 415.8779296875 444.5030822753906 419.4173583984375 416.148681640625 C 418.0920715332031 392.819091796875 414.2895812988281 361.70098876953125 411.7168273925781 339.14215087890625 C 399.530029296875 321.0432434082031 391.4384460449219 303.65338134765625 378.3796081542969 291.6759033203125 C 365.0439453125 284.2330627441406 348.8113708496094 285.0474853515625 332.2428894042969 287.38311767578125 C 327.94219970703125 288.9059753417969 324.1910400390625 285.2630615234375 321.0206298828125 274.83258056640625 C 336.1399230957031 268.24822998046875 346.98345947265625 255.5222625732422 357.0998229980469 237.38568115234375 C 363.4265441894531 228.05984497070312 377.97479248046875 227.51507568359375 384.07269287109375 217.5995635986328 C 393.4841003417969 207.21994018554688 399.7781677246094 193.67626953125 406.6672058105469 179.20062255859375 C 409.0233459472656 166.83177185058594 411.161865234375 151.07301330566406 409.67791748046875 132.8831329345703 C 407.1960754394531 116.63890075683594 407.3122253417969 100.38716125488281 402.4713134765625 89.2429428100586 C 398.4454650878906 78.16145324707031 392.4084167480469 69.31088256835938 386.0325622558594 60.78941345214844 C 375.9008483886719 49.01704025268555 363.41455078125 39.5356559753418 347.8999328613281 32.994895935058594 C 335.0559997558594 26.942659378051758 318.9775695800781 23.74741554260254 301.5069580078125 23.56583595275879 C 287.36737060546875 23.06635284423828 272.77166748046875 24.356082916259766 261.2011413574219 27.031063079833984" stroke-width="0.0" fill="rgb(135, 138, 160)" opacity="0.9295869" stroke="rgb(0, 0, 0)" stroke-opacity="1.0" stroke-linecap="round" stroke-linejoin="round"/>
    <path d="M 165.56854248046875 519.6984252929688 C 230.26556396484375 521.183837890625 297.6153259277344 521.3030395507812 372.2337341308594 521.4280395507812 C 366.68499755859375 492.1025390625 360.1195983886719 477.71240234375 350.0376281738281 466.2951965332031 C 334.168701171875 478.6642150878906 310.5947265625 480.02703857421875 286.2699890136719 482.49267578125 C 262.7938537597656 484.7225036621094 238.71075439453125 481.0009460449219 213.9268341064453 478.13897705078125 C 207.93017578125 471.076416015625 195.98802185058594 474.3109130859375 190.3072052001953 467.6123962402344 C 182.06373596191406 478.83404541015625 173.7146453857422 492.1363830566406 165.56854248046875 519.6984252929688" stroke-width="0.0" fill="rgb(195, 200, 223)" opacity="0.9673635" stroke="rgb(0, 0, 0)" stroke-opacity="1.0" stroke-linecap="round" stroke-linejoin="round"/>
    <path d="M 322.3583679199219 273.17333984375 C 319.118408203125 273.6634826660156 322.81622314453125 279.2057800292969 324.669189453125 284.8725280761719 C 328.062255859375 288.37115478515625 333.4248962402344 288.9437561035156 341.2499084472656 286.35516357421875 C 341.1068115234375 279.4821472167969 340.9850769042969 273.8775329589844 338.42291259765625 269.4670104980469 C 331.26611328125 270.7156677246094 326.7087097167969 270.6863708496094 322.3583679199219 273.17333984375" stroke-width="0.0" fill="rgb(242, 244, 245)" opacity="1.0338717" stroke="rgb(0, 0, 0)" stroke-opacity="1.0" stroke-linecap="round" stroke-linejoin="round"/>
    <path d="M 2.355449914932251 335.1341552734375 C -0.03429415076971054 393.1436462402344 1.7857723236083984 453.6714172363281 0.270721435546875 517.6215209960938 C 54.140419006347656 517.0404663085938 106.98641967773438 517.058837890625 160.62860107421875 516.7808227539062 C 174.051025390625 492.103759765625 186.105224609375 472.9378356933594 196.25843811035156 453.6767883300781 C 193.6163330078125 430.7748718261719 193.70672607421875 408.2943115234375 186.54910278320312 391.9593505859375 C 155.41184997558594 392.5771789550781 127.84784698486328 389.3870849609375 104.7220230102539 384.2530517578125 C 92.06156921386719 378.3212890625 81.59078979492188 370.1646728515625 70.53638458251953 363.6485900878906 C 63.25697708129883 356.7803039550781 61.51605987548828 346.52093505859375 59.18175506591797 335.60382080078125 C 52.2170295715332 338.9618225097656 49.91773223876953 340.813720703125 50.16520309448242 347.74114990234375 C 45.96917724609375 347.541748046875 48.0985107421875 338.57366943359375 49.643733978271484 340.3075256347656 C 37.876041412353516 341.6419677734375 29.393856048583984 336.9150695800781 25.475902557373047 340.1831970214844 C 22.533048629760742 342.0085754394531 24.358675003051758 336.64581298828125 25.12694549560547 337.3865966796875 C 21.921110153198242 339.9994201660156 12.048444747924805 334.4124755859375 7.761198997497559 340.67303466796875 C 7.22874116897583 347.81439208984375 10.281723022460938 355.3883056640625 4.735103130340576 355.1282043457031 C 4.25199031829834 348.68548583984375 6.171753883361816 340.15411376953125 2.355449914932251 335.1341552734375" stroke-width="0.0" fill="rgb(251, 253, 253)" opacity="0.9997129" stroke="rgb(0, 0, 0)" stroke-opacity="1.0" stroke-linecap="round" stroke-linejoin="round"/>
    <path d="M 409.36798095703125 166.053466796875 C 410.7450866699219 167.2708282470703 414.0328369140625 168.7336883544922 411.0684509277344 167.631103515625 C 412.54718017578125 176.48202514648438 408.02972412109375 183.17938232421875 403.6598205566406 189.41461181640625 C 404.5472106933594 180.63841247558594 409.2040710449219 173.20892333984375 409.36798095703125 166.053466796875" stroke-width="0.0" fill="rgb(68, 76, 80)" opacity="1.0145148" stroke="rgb(0, 0, 0)" stroke-opacity="1.0" stroke-linecap="round" stroke-linejoin="round"/>
    <path d="M 68.25389099121094 307.0674743652344 C 62.08964157104492 318.5212707519531 59.721046447753906 328.1785583496094 62.50019454956055 342.31353759765625 C 66.18543243408203 356.4749755859375 76.59317779541016 365.68963623046875 88.4163818359375 374.21575927734375 C 98.28014373779297 379.802978515625 109.8230972290039 384.55322265625 123.22802734375 385.9797668457031 C 143.4464874267578 391.89404296875 166.11468505859375 388.3777160644531 186.82135009765625 391.44537353515625 C 194.41502380371094 407.53656005859375 194.11903381347656 434.23980712890625 198.90682983398438 452.2943420410156 C 195.7779541015625 457.1727600097656 195.45176696777344 464.4911804199219 195.5679931640625 470.1721496582031 C 182.5150604248047 478.204833984375 175.83404541015625 493.8615417480469 169.8690643310547 519.250732421875 C 249.43838500976562 519.5945434570312 336.5289306640625 519.5275268554688 417.9609375 519.197265625 C 416.8021240234375 496.7131652832031 406.280029296875 493.80596923828125 403.7095947265625 478.2860107421875 C 407.67291259765625 461.65863037109375 415.9679260253906 445.4144287109375 418.9370422363281 419.3189697265625 C 420.4295654296875 397.1888732910156 414.20562744140625 377.4991455078125 413.8509521484375 347.7174987792969 C 406.291748046875 327.5671081542969 392.4815673828125 308.74188232421875 376.22491455078125 289.4880676269531 C 351.1312561035156 282.0195007324219 301.0305480957031 288.8151550292969 266.4710693359375 279.50347900390625 C 248.80612182617188 275.56414794921875 253.8136444091797 258.4953918457031 235.2222442626953 258.6370849609375 C 221.54898071289062 249.26324462890625 220.18553161621094 236.7406463623047 212.92259216308594 231.2021942138672 C 200.59877014160156 227.3624267578125 187.1604461669922 228.50991821289062 180.7080535888672 232.4661102294922 C 170.8449249267578 238.65057373046875 167.84454345703125 250.56129455566406 161.09231567382812 255.9644012451172 C 139.09507751464844 260.4896545410156 118.53656005859375 261.732666015625 101.6505355834961 271.54852294921875 C 90.7674789428711 283.4245910644531 76.79300689697266 292.875732421875 68.25389099121094 307.0674743652344" stroke-width="0.0" fill="rgb(127, 132, 156)" opacity="0.85217226" stroke="rgb(0, 0, 0)" stroke-opacity="1.0" stroke-linecap="round" stroke-linejoin="round"/>
    <path d="M 293.8264465332031 22.970970153808594 C 269.6184997558594 23.78050422668457 258.0215148925781 27.68144416809082 244.44891357421875 33.593257904052734 C 227.68118286132812 40.45064163208008 214.93484497070312 51.04404830932617 204.48414611816406 64.89307403564453 C 193.56619262695312 74.99185180664062 189.3098602294922 93.752685546875 183.2943878173828 110.3192367553711 C 179.53378295898438 125.2237777709961 174.95628356933594 138.33612060546875 176.62205505371094 153.5641326904297 C 179.16531372070312 170.62167358398438 183.59178161621094 182.99533081054688 190.12744140625 197.74168395996094 C 202.44113159179688 210.76190185546875 218.50709533691406 221.79800415039062 225.81703186035156 246.4351806640625 C 238.59140014648438 253.5612335205078 253.78182983398438 263.6314697265625 265.4508056640625 275.1390075683594 C 276.9959411621094 278.4658508300781 287.1179504394531 280.9357604980469 301.38531494140625 278.79998779296875 C 315.80499267578125 278.683837890625 325.0005187988281 270.60906982421875 336.7834777832031 263.5533752441406 C 347.3910827636719 253.5639190673828 353.5999450683594 239.1790008544922 364.0501708984375 230.2318572998047 C 373.205322265625 226.68829345703125 380.5133056640625 222.51280212402344 385.37750244140625 217.12765502929688 C 393.25335693359375 205.4920654296875 400.36199951171875 194.00314331054688 405.742919921875 179.68930053710938 C 409.6863098144531 166.94142150878906 410.71649169921875 150.73287963867188 409.8211364746094 132.7484893798828 C 407.0908203125 115.17961120605469 406.7489318847656 97.83304595947266 401.48760986328125 85.78143310546875 C 395.80999755859375 70.95691680908203 385.76495361328125 60.216796875 375.33917236328125 49.86341094970703 C 365.1367492675781 40.8237190246582 352.4508056640625 33.85931396484375 337.5354309082031 29.084678649902344 C 324.228515625 24.3250675201416 307.5788879394531 22.7977294921875 293.8264465332031 22.970970153808594" stroke-width="0.0" fill="rgb(156, 159, 179)" opacity="0.8109519" stroke="rgb(0, 0, 0)" stroke-opacity="1.0" stroke-linecap="round" stroke-linejoin="round"/>
    <path d="M 175.7526397705078 492.7520446777344 C 169.7263641357422 497.08966064453125 168.10830688476562 506.3625183105469 163.99334716796875 513.0571899414062 C 164.56959533691406 519.1298828125 169.9085235595703 518.8975830078125 175.33212280273438 519.6095581054688 C 174.97755432128906 506.235107421875 178.4136505126953 498.1058044433594 175.7526397705078 492.7520446777344" stroke-width="0.0" fill="rgb(82, 87, 103)" opacity="0.9387413" stroke="rgb(0, 0, 0)" stroke-opacity="1.0" stroke-linecap="round" stroke-linejoin="round"/>
    <path d="M 308.92840576171875 287.0733642578125 C 308.51519775390625 286.8226013183594 313.0177307128906 285.645263671875 324.76116943359375 285.125732421875 C 324.0551452636719 280.6598205566406 319.9763488769531 279.7582092285156 318.9031982421875 276.73968505859375 C 312.5521545410156 276.8111877441406 312.56732177734375 277.0072326660156 308.92840576171875 287.0733642578125" stroke-width="0.0" fill="rgb(116, 120, 132)" opacity="0.99458057" stroke="rgb(0, 0, 0)" stroke-opacity="1.0" stroke-linecap="round" stroke-linejoin="round"/>
    <path d="M 194.90357971191406 139.9148712158203 C 204.69354248046875 175.3142547607422 216.5576629638672 206.57449340820312 222.74972534179688 241.51107788085938 C 235.66464233398438 255.8783416748047 253.91012573242188 256.8094787597656 260.33746337890625 273.2899169921875 C 270.75396728515625 273.6745910644531 274.9503479003906 279.5968322753906 282.69921875 277.8922119140625 C 295.96673583984375 280.64556884765625 305.42926025390625 279.6098327636719 313.0559387207031 275.6729736328125 C 321.8943176269531 270.6626281738281 330.6972961425781 266.3010559082031 340.5048522949219 256.49444580078125 C 349.7355041503906 217.34307861328125 375.02294921875 193.0572509765625 392.0608825683594 153.31134033203125 C 374.6103210449219 154.22564697265625 368.7549743652344 166.97862243652344 354.1082763671875 164.47926330566406 C 332.72509765625 167.57479858398438 316.0543212890625 168.1641387939453 301.0987243652344 161.92269897460938 C 279.8200378417969 160.76771545410156 258.6272277832031 161.7594757080078 241.3261260986328 155.0756072998047 C 229.13632202148438 148.1289520263672 214.8099365234375 142.1945037841797 194.90357971191406 139.9148712158203" stroke-width="0.0" fill="rgb(64, 63, 73)" opacity="0.99443954" stroke="rgb(0, 0, 0)" stroke-opacity="1.0" stroke-linecap="round" stroke-linejoin="round"/>
    <path d="M 196.550537109375 100.47322082519531 C 197.02008056640625 114.68743896484375 187.11172485351562 123.07962799072266 199.88766479492188 134.5960693359375 C 208.70932006835938 148.51708984375 226.7164306640625 152.62255859375 247.39437866210938 156.86366271972656 C 274.6918640136719 163.2540283203125 305.8607482910156 166.38450622558594 335.86456298828125 166.16795349121094 C 354.5981750488281 165.09376525878906 365.99920654296875 163.9676971435547 373.8082275390625 159.83053588867188 C 382.3050537109375 157.0846405029297 388.06036376953125 153.0227508544922 392.4956359863281 145.9456024169922 C 394.82147216796875 136.2466278076172 395.5305480957031 122.65047454833984 390.65826416015625 108.09032440185547 C 383.0788879394531 100.42401123046875 374.1729431152344 93.07918548583984 365.126220703125 86.05436706542969 C 351.70880126953125 81.83505249023438 336.2817077636719 79.54471588134766 317.5351257324219 69.63668060302734 C 302.4594421386719 65.23324584960938 277.6202087402344 65.36689758300781 255.507568359375 69.33661651611328 C 235.6812744140625 76.74430847167969 224.1855926513672 79.90536499023438 214.28338623046875 84.40225982666016 C 207.11276245117188 88.71795654296875 202.41705322265625 94.80609130859375 196.550537109375 100.47322082519531" stroke-width="0.0" fill="rgb(169, 173, 197)" opacity="1.1955324" stroke="rgb(0, 0, 0)" stroke-opacity="1.0" stroke-linecap="round" stroke-linejoin="round"/>
    <path d="M 71.59034729003906 302.7408752441406 C 65.73767852783203 312.42681884765625 59.33285140991211 322.73284912109375 61.86246109008789 337.6313781738281 C 64.63446044921875 352.1455383300781 71.9698257446289 361.57525634765625 81.47489166259766 369.8195495605469 C 94.1337661743164 379.1268310546875 110.9427719116211 384.904296875 129.9168243408203 387.8719787597656 C 153.70571899414062 390.6532287597656 176.46099853515625 391.6356506347656 190.42672729492188 388.19366455078125 C 187.30349731445312 365.69720458984375 183.7928924560547 350.6936340332031 187.10060119628906 326.82086181640625 C 186.9242706298828 310.2164611816406 197.15740966796875 299.06671142578125 201.7815704345703 277.1453552246094 C 176.7333526611328 273.021240234375 148.71316528320312 272.8872985839844 123.85840606689453 273.1407470703125 C 109.36969757080078 277.00726318359375 96.97762298583984 276.2257995605469 93.42080688476562 279.5836181640625 C 84.76569366455078 288.7088317871094 77.08131408691406 295.2220458984375 71.59034729003906 302.7408752441406" stroke-width="0.0" fill="rgb(185, 190, 215)" opacity="0.9965906" stroke="rgb(0, 0, 0)" stroke-opacity="1.0" stroke-linecap="round" stroke-linejoin="round"/>
    <path d="M 198.84617614746094 94.86445617675781 C 219.1123809814453 80.17524719238281 237.42884826660156 74.93632507324219 259.0260314941406 72.59290313720703 C 274.1780090332031 69.09098052978516 289.11138916015625 69.8618392944336 296.9706726074219 70.70752716064453 C 322.3167419433594 72.34928894042969 341.4237976074219 78.02864074707031 358.81085205078125 85.50373840332031 C 371.30938720703125 92.89532470703125 383.543212890625 100.21446228027344 390.5462646484375 110.581298828125 C 399.6795349121094 110.97461700439453 395.8187255859375 107.3251724243164 397.0988464355469 102.31013488769531 C 400.2953796386719 108.7568130493164 398.26776123046875 106.7198257446289 398.7711181640625 107.90227508544922 C 399.328369140625 101.49103546142578 398.3551940917969 94.32491302490234 402.0227355957031 90.74408721923828 C 399.7171325683594 85.5908203125 398.6261291503906 77.74879455566406 395.3331604003906 73.30561828613281 C 390.1951599121094 65.03379821777344 382.8208923339844 57.36430740356445 375.1344299316406 50.32396697998047 C 360.6330871582031 37.05863571166992 341.2686462402344 28.124359130859375 318.8135986328125 24.920162200927734 C 305.3043518066406 22.592273712158203 291.443359375 22.816373825073242 273.4395446777344 24.386734008789062 C 260.3323669433594 26.674131393432617 247.36410522460938 31.025461196899414 236.8359832763672 37.342552185058594 C 225.5532989501953 44.295711517333984 216.2650146484375 51.654544830322266 207.73143005371094 62.0124397277832 C 204.7829132080078 71.7750015258789 200.22207641601562 78.1156997680664 198.84617614746094 94.86445617675781" stroke-width="0.0" fill="rgb(157, 163, 188)" opacity="1.1230028" stroke="rgb(0, 0, 0)" stroke-opacity="1.0" stroke-linecap="round" stroke-linejoin="round"/>
    <path d="M 222.53012084960938 293.743408203125 C 212.60707092285156 299.7999572753906 207.2781982421875 310.8787536621094 203.4812469482422 324.7328796386719 C 199.944091796875 335.0753173828125 199.93165588378906 349.1918029785156 199.9213104248047 363.6541748046875 C 201.92254638671875 373.0421447753906 201.70909118652344 383.21270751953125 205.78591918945312 388.8760070800781 C 210.5269317626953 394.054443359375 217.0533905029297 394.5929260253906 228.7066650390625 394.88348388671875 C 237.14877319335938 389.8881530761719 240.09384155273438 381.0154113769531 241.63720703125 365.7184753417969 C 244.24481201171875 358.13885498046875 244.179443359375 343.55694580078125 244.1798858642578 329.4496765136719 C 241.3833465576172 318.095703125 239.8528289794922 307.4454650878906 234.52801513671875 300.3833923339844 C 232.40492248535156 295.9961242675781 228.6275177001953 292.67510986328125 222.53012084960938 293.743408203125" stroke-width="0.0" fill="rgb(182, 187, 212)" opacity="0.99888474" stroke="rgb(0, 0, 0)" stroke-opacity="1.0" stroke-linecap="round" stroke-linejoin="round"/>
    <path d="M 339.8624572753906 413.3761901855469 C 338.4977722167969 410.9864807128906 335.1622009277344 408.57281494140625 331.7513122558594 407.2743225097656 C 313.2705078125 405.3154296875 299.6251220703125 408.321044921875 285.6774597167969 412.95611572265625 C 278.3156433105469 415.142333984375 272.6136169433594 419.6143493652344 268.1578063964844 424.7904052734375 C 266.57196044921875 428.6465148925781 264.708740234375 437.59002685546875 268.57354736328125 443.4611511230469 C 269.0237731933594 446.95111083984375 271.73077392578125 448.0718994140625 280.8870544433594 449.4549560546875 C 297.7212219238281 448.9635925292969 316.8355712890625 447.9741516113281 331.0360412597656 445.01629638671875 C 335.8374938964844 441.8934020996094 339.5007019042969 439.18194580078125 340.2919006347656 435.7518615722656 C 341.5550537109375 427.7810363769531 342.9118957519531 422.276611328125 339.8624572753906 413.3761901855469" stroke-width="0.0" fill="rgb(61, 63, 85)" opacity="1.185213" stroke="rgb(0, 0, 0)" stroke-opacity="1.0" stroke-linecap="round" stroke-linejoin="round"/>
    <path d="M 353.7654113769531 455.9571533203125 C 355.6542663574219 477.2515869140625 368.61981201171875 490.5755615234375 371.5052795410156 517.9093017578125 C 389.8516540527344 519.0792236328125 406.23193359375 519.920654296875 420.3213806152344 517.94580078125 C 416.638916015625 497.7074279785156 407.9790954589844 492.0784912109375 404.2555236816406 482.4411926269531 C 403.6325988769531 471.1763000488281 408.8122863769531 464.4324951171875 410.2751159667969 456.5223693847656 C 401.7506103515625 453.7710266113281 400.58001708984375 460.2989501953125 393.953125 459.4206237792969 C 376.90374755859375 461.37579345703125 366.140380859375 455.8757019042969 353.7654113769531 455.9571533203125" stroke-width="0.0" fill="rgb(118, 120, 139)" opacity="0.8805652" stroke="rgb(0, 0, 0)" stroke-opacity="1.0" stroke-linecap="round" stroke-linejoin="round"/>
    <path d="M 193.6309051513672 466.33453369140625 C 193.5633544921875 471.264404296875 198.56625366210938 471.19207763671875 201.87164306640625 476.2394104003906 C 215.293212890625 479.0097961425781 232.3785858154297 481.57989501953125 253.2538299560547 482.70880126953125 C 271.519775390625 483.83636474609375 290.10455322265625 481.032958984375 311.5910339355469 481.3567810058594 C 324.0011901855469 479.5540466308594 336.3662414550781 474.6335754394531 347.166015625 470.3521728515625 C 345.25762939453125 457.12310791015625 343.0577087402344 453.50213623046875 331.1834716796875 454.4990539550781 C 317.30987548828125 462.8681335449219 305.415771484375 473.61102294921875 275.0859069824219 469.78924560546875 C 266.1383361816406 467.5093688964844 250.19261169433594 471.32763671875 239.07908630371094 466.4573059082031 C 218.701171875 465.58343505859375 215.8927764892578 452.6022033691406 199.902587890625 454.6783447265625 C 199.30450439453125 457.5420837402344 194.4696502685547 460.43817138671875 193.6309051513672 466.33453369140625" stroke-width="0.0" fill="rgb(17, 16, 21)" opacity="1.0245209" stroke="rgb(0, 0, 0)" stroke-opacity="1.0" stroke-linecap="round" stroke-linejoin="round"/>
    <path d="M 361.04937744140625 352.82427978515625 C 358.9759521484375 362.8410339355469 356.76678466796875 379.6332092285156 357.6532287597656 398.4786376953125 C 368.7347106933594 403.482421875 386.2388000488281 399.9906311035156 398.9988708496094 400.1748352050781 C 393.7499084472656 404.7906188964844 393.95654296875 399.8439025878906 392.927001953125 393.6708068847656 C 396.8601379394531 390.0165100097656 404.5628662109375 384.6151123046875 404.0288391113281 377.2861633300781 C 405.9469909667969 364.3923034667969 402.70721435546875 357.6195983886719 399.4176330566406 350.8070068359375 C 395.4275207519531 348.53326416015625 390.3677062988281 345.8838806152344 386.82366943359375 343.5318603515625 C 377.83709716796875 343.5676574707031 371.2350158691406 348.1849060058594 361.04937744140625 352.82427978515625" stroke-width="0.0" fill="rgb(25, 24, 27)" opacity="1.00987" stroke="rgb(0, 0, 0)" stroke-opacity="1.0" stroke-linecap="round" stroke-linejoin="round"/>
    <path d="M 357.19012451171875 414.1723937988281 C 355.1593017578125 427.67864990234375 356.5030212402344 440.3280029296875 355.3743591308594 456.6997985839844 C 366.82977294921875 454.7177734375 377.50421142578125 460.67694091796875 392.03131103515625 459.1054382324219 C 397.9991760253906 457.90069580078125 400.8673095703125 454.34259033203125 402.42529296875 450.3808288574219 C 405.75341796875 442.39849853515625 410.14581298828125 433.21484375 409.0102844238281 419.8685302734375 C 392.6927490234375 415.1963806152344 374.158203125 414.98712158203125 357.19012451171875 414.1723937988281" stroke-width="0.0" fill="rgb(33, 33, 37)" opacity="0.99631613" stroke="rgb(0, 0, 0)" stroke-opacity="1.0" stroke-linecap="round" stroke-linejoin="round"/>
    <path d="M 205.5274200439453 287.4764099121094 C 201.3577117919922 290.0355529785156 197.6708526611328 294.1580810546875 194.57098388671875 299.9080810546875 C 188.5206756591797 302.651611328125 188.6827850341797 311.9521789550781 187.82008361816406 333.2726135253906 C 186.60345458984375 344.7060241699219 186.01480102539062 366.3233947753906 191.15841674804688 376.8365783691406 C 191.55845642089844 379.7736511230469 193.77854919433594 381.2516174316406 200.8163604736328 378.49700927734375 C 196.80979919433594 355.709228515625 200.115234375 336.5068359375 204.04676818847656 318.2434997558594 C 207.04776000976562 310.1231689453125 211.4456787109375 302.3206481933594 217.6336669921875 295.63427734375 C 214.36563110351562 289.7192077636719 213.36257934570312 289.5375671386719 205.5274200439453 287.4764099121094" stroke-width="0.0" fill="rgb(20, 20, 24)" opacity="0.9733727" stroke="rgb(0, 0, 0)" stroke-opacity="1.0" stroke-linecap="round" stroke-linejoin="round"/>
    <path d="M 231.01165771484375 263.6275939941406 C 227.9137725830078 272.082763671875 231.1684112548828 276.2261047363281 236.15310668945312 277.7916564941406 C 244.41000366210938 278.1965026855469 250.46255493164062 278.5386962890625 252.35128784179688 272.61785888671875 C 250.5543670654297 265.0570373535156 249.26974487304688 260.85333251953125 242.02395629882812 259.672607421875 C 235.81358337402344 259.42327880859375 233.57406616210938 259.4754333496094 231.01165771484375 263.6275939941406" stroke-width="0.0" fill="rgb(190, 195, 220)" opacity="0.998731" stroke="rgb(0, 0, 0)" stroke-opacity="1.0" stroke-linecap="round" stroke-linejoin="round"/>
    <path d="M 258.5119934082031 291.97412109375 C 244.8434600830078 284.7530517578125 240.1676483154297 287.140869140625 236.22047424316406 300.98175048828125 C 243.12960815429688 317.40301513671875 249.1818084716797 334.6906433105469 241.68511962890625 362.1268615722656 C 241.714599609375 378.55767822265625 234.73770141601562 390.4167175292969 225.99937438964844 399.14141845703125 C 226.9827880859375 410.4580993652344 232.00001525878906 410.8265686035156 240.1302947998047 411.921875 C 246.3167266845703 414.9755859375 247.95787048339844 413.53753662109375 250.9618682861328 409.8080749511719 C 256.27996826171875 396.1957702636719 258.55303955078125 381.821533203125 260.7447509765625 363.9049072265625 C 262.9162292480469 335.0025634765625 262.8868713378906 308.93792724609375 258.5119934082031 291.97412109375" stroke-width="0.0" fill="rgb(33, 33, 38)" opacity="1.0109067" stroke="rgb(0, 0, 0)" stroke-opacity="1.0" stroke-linecap="round" stroke-linejoin="round"/>
    <path d="M 190.91990661621094 400.2687072753906 C 194.43052673339844 413.39990234375 195.0086669921875 428.18096923828125 197.59510803222656 441.00274658203125 C 199.17874145507812 447.8103332519531 203.83990478515625 442.9549560546875 208.46153259277344 447.1326904296875 C 202.76321411132812 451.0155944824219 198.17764282226562 438.6395568847656 199.82827758789062 449.38946533203125 C 213.87303161621094 453.8655700683594 219.83604431152344 445.787353515625 238.64210510253906 448.6759033203125 C 237.45281982421875 432.607666015625 236.97227478027344 421.7739562988281 228.55752563476562 411.9637145996094 C 220.7826385498047 410.2886047363281 220.27877807617188 410.89276123046875 223.05914306640625 406.4506530761719 C 212.25604248046875 399.8611145019531 203.37710571289062 401.9888610839844 190.91990661621094 400.2687072753906" stroke-width="0.0" fill="rgb(89, 95, 110)" opacity="0.9836102" stroke="rgb(0, 0, 0)" stroke-opacity="1.0" stroke-linecap="round" stroke-linejoin="round"/>
    <path d="M 273.7299499511719 288.0178527832031 C 279.4632263183594 297.0821228027344 294.25567626953125 297.8739929199219 303.81658935546875 305.5872802734375 C 319.9000244140625 307.96832275390625 330.8435974121094 312.15191650390625 347.5687255859375 307.8457946777344 C 348.41473388671875 298.81500244140625 342.6168212890625 294.2315673828125 336.4967346191406 290.3380126953125 C 314.2392272949219 290.5121154785156 294.1151428222656 284.30792236328125 273.7299499511719 288.0178527832031" stroke-width="0.0" fill="rgb(38, 37, 40)" opacity="1.0044913" stroke="rgb(0, 0, 0)" stroke-opacity="1.0" stroke-linecap="round" stroke-linejoin="round"/>
    <path d="M 260.70086669921875 290.8189392089844 C 260.49871826171875 306.8035583496094 261.9195556640625 320.0178527832031 264.26837158203125 330.0434875488281 C 271.95574951171875 332.435546875 282.6822204589844 331.2335205078125 286.5624694824219 328.6163635253906 C 291.16314697265625 323.40350341796875 292.9729309082031 313.97882080078125 293.67730712890625 301.8348083496094 C 285.2377624511719 296.35345458984375 274.98345947265625 293.70892333984375 260.70086669921875 290.8189392089844" stroke-width="0.0" fill="rgb(167, 175, 200)" opacity="1.021082" stroke="rgb(0, 0, 0)" stroke-opacity="1.0" stroke-linecap="round" stroke-linejoin="round"/>
    <path d="M 262.809814453125 335.9231872558594 C 262.0310974121094 346.285400390625 262.30517578125 358.58551025390625 260.7742919921875 371.423828125 C 265.6686096191406 372.67388916015625 275.3027038574219 374.0484619140625 282.3053283691406 372.52667236328125 C 287.55206298828125 367.42230224609375 290.4153747558594 358.2961730957031 290.09014892578125 343.883544921875 C 288.0198059082031 339.4956970214844 283.0995788574219 336.1168518066406 284.53369140625 335.0019226074219 C 278.0071716308594 335.1020202636719 268.96002197265625 331.611572265625 262.809814453125 335.9231872558594" stroke-width="0.0" fill="rgb(163, 169, 193)" opacity="0.9837499" stroke="rgb(0, 0, 0)" stroke-opacity="1.0" stroke-linecap="round" stroke-linejoin="round"/>
    <path d="M 346.66375732421875 290.3922424316406 C 357.8223876953125 294.26806640625 365.1852722167969 298.46002197265625 368.5538330078125 305.3393249511719 C 372.2541809082031 320.2652893066406 368.7018737792969 325.69427490234375 359.6211242675781 329.0244140625 C 361.06951904296875 338.75128173828125 356.91375732421875 338.343017578125 364.4781799316406 337.81219482421875 C 372.9784851074219 334.6456298828125 377.40081787109375 327.4748840332031 382.701904296875 320.9198913574219 C 386.2520446777344 315.1100769042969 386.5380554199219 309.8260192871094 385.8577575683594 301.0693359375 C 383.903076171875 295.7840881347656 380.88653564453125 291.388916015625 377.40948486328125 289.5968933105469 C 366.39068603515625 285.0389404296875 359.9345397949219 283.9610290527344 346.66375732421875 290.3922424316406" stroke-width="0.0" fill="rgb(42, 42, 51)" opacity="0.97404814" stroke="rgb(0, 0, 0)" stroke-opacity="1.0" stroke-linecap="round" stroke-linejoin="round"/>
    <path d="M 158.3112335205078 273.1336669921875 C 170.0073699951172 273.75201416015625 186.77845764160156 275.8676452636719 208.08963012695312 281.73333740234375 C 204.21844482421875 268.39068603515625 193.3300323486328 264.18414306640625 185.31365966796875 261.0542907714844 C 181.5404510498047 260.0199279785156 177.02626037597656 258.3847961425781 167.67784118652344 259.4296875 C 164.52511596679688 262.0218811035156 159.15762329101562 265.8269348144531 158.3112335205078 273.1336669921875" stroke-width="0.0" fill="rgb(37, 37, 41)" opacity="0.9297602" stroke="rgb(0, 0, 0)" stroke-opacity="1.0" stroke-linecap="round" stroke-linejoin="round"/>
    <path d="M 355.5443420410156 408.2388000488281 C 346.48980712890625 418.0892028808594 348.04278564453125 438.61749267578125 338.5509338378906 451.0531311035156 C 343.2557678222656 453.31494140625 345.1908874511719 457.8251647949219 349.47265625 461.8982238769531 C 352.50360107421875 447.1260070800781 357.3644104003906 429.34912109375 355.5443420410156 408.2388000488281" stroke-width="0.0" fill="rgb(240, 240, 242)" opacity="0.99928516" stroke="rgb(0, 0, 0)" stroke-opacity="1.0" stroke-linecap="round" stroke-linejoin="round"/>
    <path d="M 135.80487060546875 272.4288024902344 C 129.00222778320312 268.11505126953125 117.21918487548828 266.1432800292969 106.41253662109375 268.1192626953125 C 99.6143798828125 270.45416259765625 95.38190460205078 275.232421875 90.24996185302734 284.0164794921875 C 103.8608627319336 276.5613098144531 120.29450225830078 275.0641784667969 135.80487060546875 272.4288024902344" stroke-width="0.0" fill="rgb(19, 17, 18)" opacity="0.98114866" stroke="rgb(0, 0, 0)" stroke-opacity="1.0" stroke-linecap="round" stroke-linejoin="round"/>
    <path d="M 379.55548095703125 214.59486389160156 C 377.0447692871094 212.3518829345703 371.47991943359375 211.97604370117188 367.313232421875 214.7863006591797 C 364.1898193359375 218.7184600830078 360.835205078125 225.21058654785156 357.54681396484375 235.7811279296875 C 363.8246765136719 226.43373107910156 370.0045471191406 232.2965545654297 374.6545104980469 228.96429443359375 C 379.2029113769531 226.0359344482422 378.1944885253906 220.67324829101562 379.55548095703125 214.59486389160156" stroke-width="0.0" fill="rgb(49, 49, 57)" opacity="0.9570968" stroke="rgb(0, 0, 0)" stroke-opacity="1.0" stroke-linecap="round" stroke-linejoin="round"/>
    <path d="M 200.5701141357422 192.7755889892578 C 192.91896057128906 192.46670532226562 196.0322723388672 200.85360717773438 196.7740020751953 200.61642456054688 C 199.94400024414062 202.87612915039062 200.5202178955078 209.9816131591797 208.41812133789062 212.2308807373047 C 207.63418579101562 199.9612579345703 204.16163635253906 194.60472106933594 200.5701141357422 192.7755889892578" stroke-width="0.0" fill="rgb(28, 27, 41)" opacity="1.0036972" stroke="rgb(0, 0, 0)" stroke-opacity="1.0" stroke-linecap="round" stroke-linejoin="round"/>
    <path d="M 371.4801940917969 520.9335327148438 C 367.3741760253906 490.038818359375 357.4154968261719 479.28546142578125 350.1904602050781 465.0845642089844 C 338.8056945800781 473.8995361328125 328.5730895996094 478.033935546875 314.2039794921875 478.80804443359375 C 296.0354919433594 482.3594665527344 274.4011535644531 483.2524719238281 253.57810974121094 483.3113708496094 C 251.92991638183594 494.69793701171875 252.00914001464844 502.7215576171875 255.09429931640625 521.0928955078125 C 299.1497497558594 521.3666381835938 338.3051452636719 521.2664184570312 371.4801940917969 520.9335327148438" stroke-width="0.0" fill="rgb(134, 140, 171)" opacity="0.8535079" stroke="rgb(0, 0, 0)" stroke-opacity="1.0" stroke-linecap="round" stroke-linejoin="round"/>
    <path d="M 167.61659240722656 517.6365966796875 C 192.00238037109375 519.8568725585938 221.8096160888672 518.4923706054688 254.3088836669922 518.0722045898438 C 254.9518585205078 502.4649963378906 254.2723388671875 492.24322509765625 252.96759033203125 483.8619689941406 C 240.68182373046875 482.16455078125 224.08175659179688 480.9784851074219 211.24847412109375 478.692626953125 C 202.06573486328125 476.2063903808594 196.1958465576172 472.90386962890625 192.3652801513672 465.404296875 C 183.1600799560547 479.9339904785156 174.88946533203125 494.39178466796875 167.61659240722656 517.6365966796875" stroke-width="0.0" fill="rgb(173, 178, 202)" opacity="0.88454586" stroke="rgb(0, 0, 0)" stroke-opacity="1.0" stroke-linecap="round" stroke-linejoin="round"/>
    <path d="M 258.4385986328125 378.2122802734375 C 258.114013671875 388.8199462890625 255.43984985351562 397.6911926269531 252.17041015625 409.5954895019531 C 260.4901123046875 409.01739501953125 269.1673889160156 409.294677734375 273.7088928222656 407.5645751953125 C 277.78057861328125 399.5291442871094 285.16748046875 394.4407958984375 281.8445129394531 382.8179931640625 C 279.4516906738281 377.9714050292969 268.8293762207031 376.3841247558594 258.4385986328125 378.2122802734375" stroke-width="0.0" fill="rgb(144, 147, 169)" opacity="0.98194486" stroke="rgb(0, 0, 0)" stroke-opacity="1.0" stroke-linecap="round" stroke-linejoin="round"/>
    <path d="M 422.94140625 400.55328369140625 C 421.5895080566406 393.4222717285156 414.45550537109375 392.21185302734375 405.6046447753906 390.3150939941406 C 403.5693054199219 398.4651794433594 391.6888732910156 399.65191650390625 383.5751647949219 402.5895690917969 C 403.3714904785156 407.1753845214844 414.168212890625 408.0240783691406 422.94140625 400.55328369140625" stroke-width="0.0" fill="rgb(39, 39, 42)" opacity="0.9690387" stroke="rgb(0, 0, 0)" stroke-opacity="1.0" stroke-linecap="round" stroke-linejoin="round"/>
    <path d="M 401.0199279785156 89.37846374511719 C 400.4471740722656 94.01941680908203 397.0115966796875 99.18556213378906 396.4037170410156 106.61592864990234 C 392.6772155761719 112.40550994873047 396.4131164550781 116.57282257080078 405.35028076171875 120.9873275756836 C 403.831298828125 110.88775634765625 406.4800109863281 103.44631958007812 406.22259521484375 98.997314453125 C 405.18548583984375 89.40174102783203 401.7059326171875 87.44004821777344 401.0199279785156 89.37846374511719" stroke-width="0.0" fill="rgb(181, 187, 200)" opacity="0.94187015" stroke="rgb(0, 0, 0)" stroke-opacity="1.0" stroke-linecap="round" stroke-linejoin="round"/>
    <path d="M 261.7706604003906 456.4119567871094 C 263.89312744140625 459.9638366699219 262.6974792480469 468.2021789550781 263.0636901855469 469.1729736328125 C 272.2202453613281 471.4175720214844 278.7881774902344 471.4894104003906 290.8111267089844 470.41107177734375 C 287.80462646484375 464.4718017578125 286.731689453125 461.15399169921875 287.2591857910156 457.46356201171875 C 279.864990234375 456.1903991699219 269.71490478515625 457.82672119140625 261.7706604003906 456.4119567871094" stroke-width="0.0" fill="rgb(152, 160, 192)" opacity="0.99380386" stroke="rgb(0, 0, 0)" stroke-opacity="1.0" stroke-linecap="round" stroke-linejoin="round"/>
    <path d="M 209.47503662109375 68.06745910644531 C 201.55203247070312 68.15985870361328 198.36004638671875 73.811279296875 197.20445251464844 76.06356811523438 C 193.890380859375 87.83168029785156 191.44677734375 91.9752426147461 197.40065002441406 96.87245178222656 C 204.2489013671875 89.417236328125 210.7794647216797 82.73519134521484 209.47503662109375 68.06745910644531" stroke-width="0.0" fill="rgb(220, 225, 239)" opacity="0.9999726" stroke="rgb(0, 0, 0)" stroke-opacity="1.0" stroke-linecap="round" stroke-linejoin="round"/>
    <path d="M 237.44451904296875 456.46685791015625 C 238.25405883789062 459.65252685546875 240.35635375976562 462.0230712890625 240.73753356933594 466.197265625 C 243.49232482910156 467.37078857421875 253.38548278808594 468.27142333984375 259.94952392578125 470.5818176269531 C 259.646484375 463.4529113769531 261.04815673828125 457.24444580078125 258.77337646484375 455.8797607421875 C 249.40963745117188 457.0189514160156 241.9164276123047 454.2847900390625 237.44451904296875 456.46685791015625" stroke-width="0.0" fill="rgb(148, 154, 185)" opacity="0.9797019" stroke="rgb(0, 0, 0)" stroke-opacity="1.0" stroke-linecap="round" stroke-linejoin="round"/>
    <path d="M 294.9593200683594 458.08416748046875 C 297.2191162109375 460.7479248046875 296.71875 464.8312072753906 295.2381286621094 470.4130554199219 C 303.6268005371094 469.0858459472656 308.8988037109375 466.8937072753906 313.98431396484375 463.3022766113281 C 314.46112060546875 462.0084533691406 313.5032958984375 457.45965576171875 314.7593688964844 456.10699462890625 C 306.21868896484375 456.0127258300781 299.9088439941406 454.8286437988281 294.9593200683594 458.08416748046875" stroke-width="0.0" fill="rgb(129, 137, 170)" opacity="0.9837139" stroke="rgb(0, 0, 0)" stroke-opacity="1.0" stroke-linecap="round" stroke-linejoin="round"/>
    <path d="M 286.554931640625 457.05279541015625 C 286.97613525390625 464.4839172363281 285.46722412109375 466.3200378417969 286.2825927734375 464.3596496582031 C 288.1861572265625 471.54443359375 291.7192687988281 471.1612243652344 298.24993896484375 469.58489990234375 C 296.14556884765625 465.5652770996094 296.8271179199219 462.2059631347656 297.1491394042969 456.82708740234375 C 291.3238830566406 457.7456359863281 286.7584228515625 455.9369201660156 286.554931640625 457.05279541015625" stroke-width="0.0" fill="rgb(112, 118, 147)" opacity="0.9989249" stroke="rgb(0, 0, 0)" stroke-opacity="1.0" stroke-linecap="round" stroke-linejoin="round"/>
    <path d="M 298.5306396484375 304.99981689453125 C 297.7727355957031 307.5360412597656 296.66766357421875 314.4476623535156 299.2770690917969 318.6204528808594 C 297.857666015625 325.44891357421875 291.1303405761719 325.6053771972656 290.40081787109375 328.0155944824219 C 290.60107421875 338.7793273925781 289.8920593261719 342.158203125 296.578125 344.590087890625 C 295.6801452636719 365.5 292.03302001953125 381.4501037597656 295.5673522949219 405.1510009765625 C 313.4611511230469 399.9565734863281 335.2080993652344 400.2076721191406 356.092529296875 400.19482421875 C 358.2399597167969 366.6065673828125 356.5982971191406 337.563720703125 354.8435974121094 311.17559814453125 C 336.197265625 306.6025390625 315.09820556640625 311.54034423828125 298.5306396484375 304.99981689453125" stroke-width="0.0" fill="rgb(196, 202, 229)" opacity="0.8888616" stroke="rgb(0, 0, 0)" stroke-opacity="1.0" stroke-linecap="round" stroke-linejoin="round"/>
    <path d="M 172.51132202148438 233.6397247314453 C 168.41221618652344 239.94232177734375 168.88592529296875 247.32472229003906 171.0911407470703 253.726318359375 C 195.34451293945312 254.7333526611328 203.9488983154297 268.3062744140625 226.6471405029297 277.062744140625 C 221.12335205078125 258.7934265136719 213.74276733398438 247.3633575439453 214.8643798828125 233.99090576171875 C 203.12672424316406 228.48361206054688 196.3836669921875 224.4530029296875 184.64305114746094 226.3092041015625 C 178.46859741210938 226.4219970703125 175.0921173095703 230.77639770507812 172.51132202148438 233.6397247314453" stroke-width="0.0" fill="rgb(90, 92, 109)" opacity="1.0211674" stroke="rgb(0, 0, 0)" stroke-opacity="1.0" stroke-linecap="round" stroke-linejoin="round"/>
    <path d="M 390.6163635253906 123.02715301513672 C 394.57293701171875 140.6516571044922 394.7647399902344 146.56919860839844 392.9964904785156 129.90830993652344 C 394.8385314941406 133.7742156982422 388.79656982421875 152.5016326904297 403.7631530761719 150.58729553222656 C 413.9336242675781 148.25784301757812 414.9566955566406 141.984130859375 407.80596923828125 123.82418823242188 C 407.25531005859375 119.73236846923828 396.0985412597656 115.00961303710938 390.6163635253906 123.02715301513672" stroke-width="0.0" fill="rgb(177, 182, 204)" opacity="1.0115198" stroke="rgb(0, 0, 0)" stroke-opacity="1.0" stroke-linecap="round" stroke-linejoin="round"/>
    <path d="M 344.7533874511719 289.89801025390625 C 351.7044372558594 303.66534423828125 354.38812255859375 318.36700439453125 358.70220947265625 330.812744140625 C 362.62359619140625 330.5837707519531 366.6304931640625 325.2820739746094 370.4716796875 324.11553955078125 C 369.2910461425781 315.2304382324219 370.7635498046875 312.3544616699219 370.57720947265625 305.92608642578125 C 361.5020446777344 300.5227355957031 358.61376953125 287.7244567871094 344.7533874511719 289.89801025390625" stroke-width="0.0" fill="rgb(158, 163, 189)" opacity="1.0637338" stroke="rgb(0, 0, 0)" stroke-opacity="1.0" stroke-linecap="round" stroke-linejoin="round"/>
    <path d="M 186.5023193359375 391.7546081542969 C 188.4384307861328 395.7013244628906 190.19000244140625 398.23834228515625 191.60902404785156 400.6145324707031 C 199.0882568359375 402.4653015136719 206.20387268066406 400.8746337890625 216.236572265625 403.16058349609375 C 210.5187225341797 399.24725341796875 206.59092712402344 392.4355163574219 204.09898376464844 388.4299621582031 C 198.51873779296875 388.6796875 190.05963134765625 389.8199157714844 186.5023193359375 391.7546081542969" stroke-width="0.0" fill="rgb(135, 136, 154)" opacity="0.9924435" stroke="rgb(0, 0, 0)" stroke-opacity="1.0" stroke-linecap="round" stroke-linejoin="round"/>
    <path d="M 288.4750061035156 350.36016845703125 C 292.1443786621094 350.6462097167969 295.8204345703125 353.0273742675781 296.75634765625 350.7570495605469 C 293.4893798828125 350.9870910644531 296.31591796875 361.0528259277344 293.9460144042969 359.3696594238281 C 288.0590515136719 358.1991882324219 288.9405517578125 360.3492431640625 288.4750061035156 350.36016845703125" stroke-width="0.0" fill="rgb(37, 37, 44)" opacity="0.9682409" stroke="rgb(0, 0, 0)" stroke-opacity="1.0" stroke-linecap="round" stroke-linejoin="round"/>
    <path d="M 200.23458862304688 97.34237670898438 C 195.16932678222656 96.62252807617188 187.6814422607422 101.06571197509766 182.397705078125 108.13217163085938 C 176.85992431640625 116.94465637207031 177.20106506347656 124.26676177978516 181.9707489013672 128.873046875 C 195.03294372558594 130.88233947753906 195.5146942138672 127.2090835571289 195.16094970703125 113.6526870727539 C 192.01031494140625 131.7265625 191.3643341064453 120.67606353759766 200.23458862304688 97.34237670898438" stroke-width="0.0" fill="rgb(183, 188, 214)" opacity="0.9970175" stroke="rgb(0, 0, 0)" stroke-opacity="1.0" stroke-linecap="round" stroke-linejoin="round"/>
    <path d="M 258.9083557128906 265.1228332519531 C 261.1955871582031 270.69091796875 261.78643798828125 282.0768737792969 259.3357238769531 294.16357421875 C 264.2494201660156 292.71514892578125 269.7763977050781 294.1267395019531 273.3607482910156 293.7331237792969 C 270.65350341796875 279.6634216308594 265.3989562988281 270.2192077636719 258.9083557128906 265.1228332519531" stroke-width="0.0" fill="rgb(79, 80, 100)" opacity="0.99426806" stroke="rgb(0, 0, 0)" stroke-opacity="1.0" stroke-linecap="round" stroke-linejoin="round"/>
    <path d="M 216.2890167236328 235.9143829345703 C 222.0499725341797 234.3818359375 219.19895935058594 237.88796997070312 222.50489807128906 240.1147003173828 C 222.206787109375 248.46249389648438 222.83547973632812 251.45016479492188 215.8057098388672 250.34181213378906 C 214.22987365722656 245.14480590820312 215.57606506347656 240.48428344726562 216.2890167236328 235.9143829345703" stroke-width="0.0" fill="rgb(53, 54, 65)" opacity="1.0153497" stroke="rgb(0, 0, 0)" stroke-opacity="1.0" stroke-linecap="round" stroke-linejoin="round"/>
    <path d="M 222.13157653808594 280.7122497558594 C 217.37046813964844 282.77484130859375 221.3563232421875 284.2471008300781 221.42710876464844 287.3443298339844 C 225.17112731933594 291.0175476074219 227.38658142089844 294.4819030761719 233.96237182617188 288.8230895996094 C 230.4044647216797 283.4861755371094 224.68798828125 280.46917724609375 222.13157653808594 280.7122497558594" stroke-width="0.0" fill="rgb(93, 96, 115)" opacity="0.994985" stroke="rgb(0, 0, 0)" stroke-opacity="1.0" stroke-linecap="round" stroke-linejoin="round"/>
    <path d="M 278.38531494140625 332.7701416015625 C 277.0288391113281 337.3183288574219 278.92529296875 337.72412109375 285.755126953125 336.86553955078125 C 288.83673095703125 340.18115234375 286.358154296875 333.4190673828125 287.5771179199219 329.9416198730469 C 280.43414306640625 330.8266296386719 275.7666320800781 327.57073974609375 278.38531494140625 332.7701416015625" stroke-width="0.0" fill="rgb(118, 125, 146)" opacity="1.0045819" stroke="rgb(0, 0, 0)" stroke-opacity="1.0" stroke-linecap="round" stroke-linejoin="round"/>
    <path d="M 405.07720947265625 114.97856903076172 C 404.966064453125 113.32728576660156 409.05767822265625 116.69163513183594 410.4721984863281 116.33460998535156 C 409.3995666503906 117.80890655517578 412.5262756347656 124.8790512084961 411.0439453125 126.3035659790039 C 404.7367858886719 123.75695037841797 403.3352355957031 121.16535186767578 405.07720947265625 114.97856903076172" stroke-width="0.0" fill="rgb(170, 186, 217)" opacity="0.99548465" stroke="rgb(0, 0, 0)" stroke-opacity="1.0" stroke-linecap="round" stroke-linejoin="round"/>
    <path d="M 215.49685668945312 106.17041015625 C 217.33334350585938 115.4373550415039 226.68295288085938 118.41500091552734 235.46484375 122.50469207763672 C 251.69288635253906 128.0591278076172 270.63134765625 131.5481719970703 288.074951171875 134.62408447265625 C 309.066650390625 135.94895935058594 331.88714599609375 137.5089874267578 347.1921691894531 134.59097290039062 C 359.5442199707031 132.1462860107422 371.8672180175781 130.373291015625 376.7962951660156 119.58441162109375 C 373.6726989746094 108.42406463623047 363.0873718261719 106.05795288085938 353.0316467285156 100.01612091064453 C 336.75482177734375 93.75277709960938 318.93792724609375 88.57586669921875 299.0199279785156 86.46231842041016 C 277.3380126953125 83.8998794555664 255.93321228027344 86.75904083251953 237.49264526367188 90.0629653930664 C 227.21823120117188 95.10416412353516 214.8443145751953 95.60601043701172 215.49685668945312 106.17041015625" stroke-width="0.0" fill="rgb(24, 24, 26)" opacity="1.0713719" stroke="rgb(0, 0, 0)" stroke-opacity="1.0" stroke-linecap="round" stroke-linejoin="round"/>
    <path d="M 340.4432067871094 421.1410217285156 C 338.9971008300781 415.5332336425781 334.5008850097656 414.8980712890625 331.2946472167969 412.7207946777344 C 316.9794921875 412.5168151855469 302.53326416015625 414.6486511230469 289.8659362792969 417.722900390625 C 280.1475830078125 420.3870544433594 273.1602783203125 425.27191162109375 272.3060302734375 432.5638732910156 C 271.0094299316406 439.95050048828125 274.67401123046875 441.8204345703125 277.7098388671875 444.38031005859375 C 298.7954406738281 445.3274230957031 315.9236755371094 442.8643493652344 334.01318359375 439.3209533691406 C 338.7443542480469 435.7681579589844 340.6243896484375 430.2353210449219 340.4432067871094 421.1410217285156" stroke-width="0.0" fill="rgb(164, 170, 201)" opacity="1.0071857" stroke="rgb(0, 0, 0)" stroke-opacity="1.0" stroke-linecap="round" stroke-linejoin="round"/>
    <path d="M 207.07164001464844 89.47421264648438 C 216.91224670410156 81.3974609375 231.2376251220703 77.32665252685547 245.1038818359375 73.84532928466797 C 266.6900939941406 69.4212417602539 279.9476013183594 68.60140228271484 304.05731201171875 70.80437469482422 C 320.3550109863281 72.56678771972656 338.3917541503906 76.45884704589844 353.8538818359375 83.73136138916016 C 369.977783203125 90.76522064208984 383.4427795410156 98.59661865234375 394.0013427734375 114.65985870361328 C 394.65765380859375 99.45120239257812 391.2497863769531 93.17141723632812 387.2920837402344 87.49313354492188 C 380.03533935546875 78.47572326660156 372.118896484375 69.6580581665039 362.45501708984375 62.61405563354492 C 347.8888244628906 51.87797927856445 329.8687744140625 44.98976516723633 304.8570861816406 43.08058166503906 C 279.9683532714844 40.771575927734375 260.6247863769531 44.5586051940918 242.41824340820312 52.650386810302734 C 232.74371337890625 57.230552673339844 224.66909790039062 63.27716827392578 217.54730224609375 69.53587341308594 C 211.76419067382812 74.24913787841797 208.73550415039062 80.48787689208984 207.07164001464844 89.47421264648438" stroke-width="0.0" fill="rgb(92, 95, 113)" opacity="1.004465" stroke="rgb(0, 0, 0)" stroke-opacity="1.0" stroke-linecap="round" stroke-linejoin="round"/>
    <path d="M 328.3618469238281 479.4456787109375 C 330.8623962402344 485.3460693359375 332.35968017578125 494.41693115234375 333.4025573730469 502.56732177734375 C 340.6612854003906 501.7486877441406 350.7620544433594 501.711181640625 354.861083984375 500.1752624511719 C 357.624755859375 501.4770202636719 362.1495361328125 506.9757995605469 370.1573181152344 508.1345520019531 C 364.7167053222656 491.04058837890625 358.3041687011719 476.8067932128906 351.1056213378906 467.4650573730469 C 338.13958740234375 468.3377990722656 331.82977294921875 469.7499084472656 328.3618469238281 479.4456787109375" stroke-width="0.0" fill="rgb(187, 192, 217)" opacity="0.9746633" stroke="rgb(0, 0, 0)" stroke-opacity="1.0" stroke-linecap="round" stroke-linejoin="round"/>
    <path d="M 374.6575927734375 493.66400146484375 C 376.5409240722656 499.9188537597656 379.9510498046875 505.5103759765625 385.911865234375 516.984619140625 C 396.8434143066406 518.1593017578125 410.450927734375 519.49609375 421.8790588378906 516.3045654296875 C 415.0241394042969 497.576171875 406.7164001464844 487.86273193359375 397.7790222167969 477.96563720703125 C 391.2326965332031 485.3429870605469 381.0136413574219 487.2999267578125 374.6575927734375 493.66400146484375" stroke-width="0.0" fill="rgb(59, 58, 69)" opacity="0.9931281" stroke="rgb(0, 0, 0)" stroke-opacity="1.0" stroke-linecap="round" stroke-linejoin="round"/>
    <path d="M 262.2381591796875 262.2839660644531 C 262.1371154785156 268.4752502441406 267.2998352050781 273.9146423339844 268.53936767578125 278.6085510253906 C 280.9941101074219 282.9314880371094 293.5428771972656 283.2405090332031 309.848876953125 280.8056945800781 C 312.8045349121094 277.5295104980469 317.7339782714844 273.9791564941406 326.6587219238281 266.26123046875 C 301.2685852050781 267.8747253417969 283.471923828125 264.05316162109375 262.2381591796875 262.2839660644531" stroke-width="0.0" fill="rgb(15, 14, 15)" opacity="1.0345765" stroke="rgb(0, 0, 0)" stroke-opacity="1.0" stroke-linecap="round" stroke-linejoin="round"/>
    <path d="M 239.73345947265625 390.7729797363281 C 241.02017211914062 393.06011962890625 245.3282012939453 395.8526611328125 253.98020935058594 395.4763488769531 C 256.9414367675781 388.51220703125 254.2566680908203 386.412841796875 254.5341796875 386.01214599609375 C 246.0865020751953 385.1213684082031 239.7596435546875 384.7450866699219 239.73345947265625 390.7729797363281" stroke-width="0.0" fill="rgb(121, 128, 141)" opacity="0.99955297" stroke="rgb(0, 0, 0)" stroke-opacity="1.0" stroke-linecap="round" stroke-linejoin="round"/>
    <path d="M 286.07940673828125 297.9192810058594 C 287.74835205078125 305.0114440917969 288.5772705078125 314.6068115234375 292.177490234375 312.8023986816406 C 297.26910400390625 314.5588073730469 296.0957946777344 309.0405578613281 298.5184631347656 304.90191650390625 C 295.121337890625 299.3797912597656 293.03399658203125 297.4572448730469 286.07940673828125 297.9192810058594" stroke-width="0.0" fill="rgb(124, 129, 148)" opacity="0.9349413" stroke="rgb(0, 0, 0)" stroke-opacity="1.0" stroke-linecap="round" stroke-linejoin="round"/>
    <path d="M 170.94979858398438 235.7354278564453 C 169.4357147216797 239.2361297607422 167.130126953125 244.06326293945312 170.759765625 252.13946533203125 C 176.8335418701172 245.94430541992188 182.41139221191406 243.4123077392578 185.67396545410156 246.2581329345703 C 197.3126220703125 250.0998992919922 207.56881713867188 256.3855285644531 222.28097534179688 263.3351745605469 C 213.4805450439453 249.71571350097656 216.1142120361328 241.6272735595703 214.00778198242188 233.28123474121094 C 204.4014434814453 228.9274139404297 197.20228576660156 225.2894287109375 188.44725036621094 224.96592712402344 C 178.7042236328125 225.53826904296875 175.7595977783203 230.33070373535156 170.94979858398438 235.7354278564453" stroke-width="0.0" fill="rgb(155, 160, 185)" opacity="0.9504705" stroke="rgb(0, 0, 0)" stroke-opacity="1.0" stroke-linecap="round" stroke-linejoin="round"/>
    <path d="M 170.170166015625 253.3553924560547 C 186.2756805419922 254.4953155517578 201.0552520751953 262.0643615722656 217.90525817871094 273.6668701171875 C 214.13035583496094 265.2623596191406 216.71112060546875 268.8658447265625 226.4113311767578 268.3125915527344 C 215.9443817138672 257.7507019042969 202.35006713867188 253.32247924804688 190.6349639892578 245.88507080078125 C 182.89268493652344 243.56515502929688 176.82870483398438 244.81008911132812 170.170166015625 253.3553924560547" stroke-width="0.0" fill="rgb(45, 45, 53)" opacity="1.0073546" stroke="rgb(0, 0, 0)" stroke-opacity="1.0" stroke-linecap="round" stroke-linejoin="round"/>
    <path d="M 380.4263610839844 213.3411865234375 C 372.2109680175781 212.2858123779297 366.7956848144531 214.12347412109375 363.4597473144531 221.64739990234375 C 363.9849548339844 221.05137634277344 367.2088928222656 224.60690307617188 365.7123107910156 228.33486938476562 C 374.15130615234375 234.26187133789062 375.09600830078125 229.3112030029297 378.1421203613281 227.10321044921875 C 381.0683898925781 222.91619873046875 382.58575439453125 216.46261596679688 380.4263610839844 213.3411865234375" stroke-width="0.0" fill="rgb(42, 42, 52)" opacity="0.9370206" stroke="rgb(0, 0, 0)" stroke-opacity="1.0" stroke-linecap="round" stroke-linejoin="round"/>
    <path d="M 239.908447265625 233.77359008789062 C 232.17437744140625 235.9046630859375 233.515869140625 244.92172241210938 234.703857421875 255.19178771972656 C 241.36114501953125 249.1263885498047 244.76455688476562 249.5907440185547 252.10757446289062 252.88870239257812 C 248.23345947265625 242.6629180908203 245.00843811035156 235.65341186523438 239.908447265625 233.77359008789062" stroke-width="0.0" fill="rgb(40, 39, 46)" opacity="0.99846804" stroke="rgb(0, 0, 0)" stroke-opacity="1.0" stroke-linecap="round" stroke-linejoin="round"/>
    <path d="M 266.5615539550781 382.79522705078125 C 264.3097229003906 387.0272521972656 263.9202880859375 393.37750244140625 261.4088439941406 397.59375 C 260.5354919433594 391.9757995605469 259.5053405761719 390.92755126953125 257.0220642089844 391.7655944824219 C 257.8033447265625 396.0689392089844 255.33714294433594 402.5037841796875 255.87049865722656 408.132080078125 C 260.89971923828125 407.7786865234375 264.5128479003906 406.26708984375 267.5273742675781 407.6358337402344 C 267.5247802734375 397.4249267578125 269.5445556640625 387.83343505859375 266.5615539550781 382.79522705078125" stroke-width="0.0" fill="rgb(159, 162, 189)" opacity="1.0005189" stroke="rgb(0, 0, 0)" stroke-opacity="1.0" stroke-linecap="round" stroke-linejoin="round"/>
    <path d="M 371.5113525390625 368.2886962890625 C 375.0774230957031 368.0175476074219 371.377685546875 372.41705322265625 373.93280029296875 374.1810302734375 C 370.65704345703125 374.5937194824219 365.0421447753906 379.49151611328125 358.4400329589844 380.853271484375 C 354.7773742675781 371.19403076171875 365.4216613769531 372.88189697265625 371.5113525390625 368.2886962890625" stroke-width="0.0" fill="rgb(70, 72, 86)" opacity="1.0024946" stroke="rgb(0, 0, 0)" stroke-opacity="1.0" stroke-linecap="round" stroke-linejoin="round"/>
    <path d="M 366.9948425292969 518.5692138671875 C 361.57568359375 506.40960693359375 359.0677795410156 503.6220397949219 356.1559753417969 502.1651916503906 C 347.9115295410156 500.47283935546875 340.74700927734375 503.6349182128906 333.4006652832031 502.9765319824219 C 330.35113525390625 495.7982177734375 329.7601013183594 483.7676696777344 326.9453125 476.62799072265625 C 305.042236328125 482.57489013671875 279.2826232910156 482.2627258300781 253.88070678710938 483.80303955078125 C 254.35650634765625 494.2066955566406 257.6910095214844 501.9238586425781 254.6982879638672 517.3533935546875 C 292.70635986328125 518.0892944335938 330.6987609863281 519.3737182617188 366.9948425292969 518.5692138671875" stroke-width="0.0" fill="rgb(184, 190, 226)" opacity="0.98189145" stroke="rgb(0, 0, 0)" stroke-opacity="1.0" stroke-linecap="round" stroke-linejoin="round"/>
    <path d="M 348.619384765625 467.88531494140625 C 345.065673828125 458.3746643066406 339.5196228027344 456.3993835449219 335.67779541015625 453.7608947753906 C 329.6778869628906 453.2521057128906 323.6119079589844 454.7045593261719 317.9870910644531 456.7078857421875 C 316.7242736816406 462.1188049316406 314.0870666503906 469.1172180175781 316.41558837890625 478.78375244140625 C 330.0029602050781 476.1968688964844 340.0912170410156 472.5706481933594 348.619384765625 467.88531494140625" stroke-width="0.0" fill="rgb(21, 19, 23)" opacity="0.91143155" stroke="rgb(0, 0, 0)" stroke-opacity="1.0" stroke-linecap="round" stroke-linejoin="round"/>
    <path d="M 349.0423278808594 289.1333923339844 C 357.65692138671875 293.5652770996094 364.7157897949219 298.3583679199219 368.550537109375 308.68994140625 C 370.4134216308594 310.1674499511719 377.4132995605469 308.8963623046875 386.2622985839844 307.65521240234375 C 387.434326171875 297.70343017578125 383.4272766113281 294.65521240234375 380.139892578125 289.9192810058594 C 370.453369140625 284.266845703125 361.2359313964844 283.7306823730469 349.0423278808594 289.1333923339844" stroke-width="0.0" fill="rgb(52, 53, 67)" opacity="0.8907736" stroke="rgb(0, 0, 0)" stroke-opacity="1.0" stroke-linecap="round" stroke-linejoin="round"/>
    <path d="M 358.09063720703125 467.0683898925781 C 360.4646301269531 478.5138244628906 368.3629455566406 484.4324035644531 376.1106872558594 493.5663146972656 C 381.0277404785156 489.534423828125 385.67547607421875 485.505859375 389.8275146484375 485.0100402832031 C 391.5165710449219 479.3092041015625 392.96551513671875 476.65594482421875 386.8916931152344 473.6851806640625 C 378.4025573730469 471.38079833984375 368.1983947753906 469.6876525878906 358.09063720703125 467.0683898925781" stroke-width="0.0" fill="rgb(85, 88, 104)" opacity="0.994864" stroke="rgb(0, 0, 0)" stroke-opacity="1.0" stroke-linecap="round" stroke-linejoin="round"/>
    <path d="M 386.0160827636719 304.84808349609375 C 382.6186828613281 307.2609558105469 376.5068664550781 308.60394287109375 370.23236083984375 308.262939453125 C 371.0422058105469 324.1131286621094 354.7878112792969 327.5928039550781 360.10296630859375 340.80426025390625 C 368.756103515625 339.0311279296875 372.3233642578125 332.1216735839844 377.85986328125 328.2018737792969 C 380.6487121582031 321.4107666015625 385.9049072265625 318.6191101074219 386.0160827636719 304.84808349609375" stroke-width="0.0" fill="rgb(22, 20, 23)" opacity="0.9715795" stroke="rgb(0, 0, 0)" stroke-opacity="1.0" stroke-linecap="round" stroke-linejoin="round"/>
    <path d="M 360.9407653808594 303.1811218261719 C 351.99139404296875 304.22076416015625 352.2672424316406 307.9813232421875 352.6664123535156 315.4912109375 C 355.01806640625 321.3299865722656 357.60247802734375 328.21844482421875 361.6459045410156 331.3130187988281 C 369.22998046875 323.2200927734375 373.7020263671875 318.1090393066406 369.63446044921875 309.1794128417969 C 368.5101013183594 303.9250183105469 365.3214416503906 302.254638671875 360.9407653808594 303.1811218261719" stroke-width="0.0" fill="rgb(129, 132, 156)" opacity="0.89904016" stroke="rgb(0, 0, 0)" stroke-opacity="1.0" stroke-linecap="round" stroke-linejoin="round"/>
    <path d="M 297.67486572265625 456.6715393066406 C 298.38629150390625 465.39105224609375 297.9810791015625 472.67138671875 298.3405456542969 479.62554931640625 C 303.43060302734375 480.80328369140625 306.0400390625 477.5343322753906 312.2503356933594 478.9739990234375 C 313.88848876953125 474.4003601074219 312.7814025878906 462.9727783203125 313.3997497558594 456.7613830566406 C 307.7428894042969 457.17401123046875 301.2113342285156 456.9355773925781 297.67486572265625 456.6715393066406" stroke-width="0.0" fill="rgb(86, 90, 110)" opacity="0.80925554" stroke="rgb(0, 0, 0)" stroke-opacity="1.0" stroke-linecap="round" stroke-linejoin="round"/>
    <path d="M 397.6748962402344 86.3834457397461 C 394.3976135253906 89.4759750366211 392.1037292480469 92.87450408935547 391.7684326171875 96.30169677734375 C 394.8819885253906 102.69768524169922 395.77325439453125 111.10699462890625 400.9945373535156 118.62283325195312 C 403.83990478515625 109.9041976928711 404.6856994628906 101.34312438964844 406.5921630859375 94.71353912353516 C 404.7677917480469 89.96428680419922 401.3517761230469 87.64849853515625 397.6748962402344 86.3834457397461" stroke-width="0.0" fill="rgb(210, 215, 225)" opacity="0.9503226" stroke="rgb(0, 0, 0)" stroke-opacity="1.0" stroke-linecap="round" stroke-linejoin="round"/>
    <path d="M 299.08990478515625 457.7239074707031 C 291.9458312988281 455.0687561035156 290.072509765625 458.5180358886719 285.7045593261719 457.6286926269531 C 286.7642822265625 466.248291015625 284.7893981933594 475.2570495605469 287.2546691894531 480.73785400390625 C 295.20037841796875 480.6788330078125 296.0277099609375 484.1749267578125 297.3723449707031 478.72216796875 C 297.64276123046875 471.90167236328125 297.8351135253906 464.125244140625 299.08990478515625 457.7239074707031" stroke-width="0.0" fill="rgb(83, 87, 108)" opacity="0.9016528" stroke="rgb(0, 0, 0)" stroke-opacity="1.0" stroke-linecap="round" stroke-linejoin="round"/>
    <path d="M 248.77101135253906 151.6249237060547 C 246.0400390625 157.5076446533203 249.91380310058594 156.00869750976562 251.99008178710938 157.81532287597656 C 259.46435546875 161.0473175048828 277.3454284667969 161.974853515625 298.6408996582031 158.95249938964844 C 283.9868469238281 153.9307861328125 262.8734130859375 156.7584228515625 248.77101135253906 151.6249237060547" stroke-width="0.0" fill="rgb(71, 74, 93)" opacity="0.99424744" stroke="rgb(0, 0, 0)" stroke-opacity="1.0" stroke-linecap="round" stroke-linejoin="round"/>
    <path d="M 220.9228973388672 454.00677490234375 C 223.99807739257812 465.42926025390625 221.1781005859375 474.5733337402344 230.16993713378906 478.640380859375 C 231.70245361328125 472.952392578125 232.8040008544922 460.4485778808594 230.1671600341797 455.359375 C 224.29136657714844 457.16693115234375 219.34716796875 454.9138488769531 220.9228973388672 454.00677490234375" stroke-width="0.0" fill="rgb(42, 42, 54)" opacity="0.95003116" stroke="rgb(0, 0, 0)" stroke-opacity="1.0" stroke-linecap="round" stroke-linejoin="round"/>
    <path d="M 193.54312133789062 407.02386474609375 C 194.681640625 412.000244140625 198.72203063964844 411.9011535644531 196.8896026611328 412.2369079589844 C 207.54820251464844 413.5184631347656 221.50430297851562 419.17535400390625 231.41207885742188 415.5943603515625 C 226.11053466796875 407.6358642578125 206.54037475585938 411.4097595214844 193.54312133789062 407.02386474609375" stroke-width="0.0" fill="rgb(27, 28, 35)" opacity="0.98351187" stroke="rgb(0, 0, 0)" stroke-opacity="1.0" stroke-linecap="round" stroke-linejoin="round"/>
    <path d="M 364.7480163574219 488.9999084472656 C 366.5032043457031 494.2134094238281 369.6723327636719 502.56951904296875 366.2190856933594 519.0411987304688 C 374.30108642578125 518.5121459960938 376.4849853515625 518.4979248046875 377.2006530761719 512.3950805664062 C 376.2388610839844 500.4823913574219 372.9781494140625 493.76055908203125 364.7480163574219 488.9999084472656" stroke-width="0.0" fill="rgb(26, 24, 32)" opacity="0.98127884" stroke="rgb(0, 0, 0)" stroke-opacity="1.0" stroke-linecap="round" stroke-linejoin="round"/>
    <path d="M 378.5824890136719 380.4687194824219 C 389.4224853515625 381.4815368652344 378.15728759765625 388.2554931640625 380.9017639160156 386.2309875488281 C 377.7083435058594 388.7147216796875 369.26361083984375 393.48907470703125 357.12884521484375 394.27593994140625 C 361.5335693359375 386.3490905761719 373.86639404296875 385.4561767578125 378.5824890136719 380.4687194824219" stroke-width="0.0" fill="rgb(49, 52, 63)" opacity="0.9991373" stroke="rgb(0, 0, 0)" stroke-opacity="1.0" stroke-linecap="round" stroke-linejoin="round"/>
    <path d="M 245.8633270263672 316.9715270996094 C 245.1107940673828 320.5111999511719 249.61656188964844 323.57293701171875 258.7393493652344 321.0262145996094 C 261.70733642578125 318.9835205078125 259.9525146484375 312.7954406738281 260.877685546875 312.9395446777344 C 250.85821533203125 310.9744567871094 246.4116973876953 310.3879089355469 245.8633270263672 316.9715270996094" stroke-width="0.0" fill="rgb(105, 112, 133)" opacity="1.0024203" stroke="rgb(0, 0, 0)" stroke-opacity="1.0" stroke-linecap="round" stroke-linejoin="round"/>
    <path d="M 320.63787841796875 268.77008056640625 C 321.40936279296875 270.3565673828125 329.4893798828125 270.0503234863281 339.087158203125 269.76055908203125 C 337.9796447753906 264.7101135253906 331.0440673828125 264.14447021484375 329.52130126953125 258.73870849609375 C 327.4236145019531 263.0834045410156 320.3669738769531 262.3269348144531 320.63787841796875 268.77008056640625" stroke-width="0.0" fill="rgb(66, 67, 75)" opacity="0.9973504" stroke="rgb(0, 0, 0)" stroke-opacity="1.0" stroke-linecap="round" stroke-linejoin="round"/>
    <path d="M 244.7028350830078 304.4024353027344 C 242.80877685546875 306.9800720214844 247.82635498046875 304.06500244140625 260.0322265625 303.79083251953125 C 257.6920166015625 299.8943786621094 257.82757568359375 292.1158447265625 259.2707824707031 295.73992919921875 C 247.93344116210938 296.3987731933594 241.96189880371094 294.00634765625 244.7028350830078 304.4024353027344" stroke-width="0.0" fill="rgb(129, 133, 157)" opacity="1.0095851" stroke="rgb(0, 0, 0)" stroke-opacity="1.0" stroke-linecap="round" stroke-linejoin="round"/>
    <path d="M 250.16195678710938 357.771240234375 C 247.498779296875 362.53033447265625 247.7344970703125 366.4520568847656 247.689453125 364.8815002441406 C 250.29214477539062 366.01361083984375 256.6387939453125 368.45611572265625 258.6018371582031 366.1716613769531 C 261.04571533203125 357.5320739746094 257.2091064453125 359.0528564453125 250.16195678710938 357.771240234375" stroke-width="0.0" fill="rgb(124, 136, 154)" opacity="1.0006288" stroke="rgb(0, 0, 0)" stroke-opacity="1.0" stroke-linecap="round" stroke-linejoin="round"/>
    <path d="M 230.03518676757812 119.91788482666016 C 249.86404418945312 129.0399932861328 272.9647216796875 134.28273010253906 300.66650390625 137.00511169433594 C 321.1221923828125 138.6209716796875 340.6388244628906 136.0972900390625 358.6749572753906 132.6523895263672 C 355.46026611328125 119.99794006347656 348.07861328125 115.36517333984375 339.9488525390625 109.98739624023438 C 328.46484375 103.57162475585938 314.3719177246094 98.34906768798828 301.00030517578125 94.63680267333984 C 282.2094421386719 94.57221984863281 268.56744384765625 94.69281768798828 256.7750244140625 99.39934539794922 C 245.6953887939453 103.61094665527344 235.34507751464844 108.3639907836914 230.03518676757812 119.91788482666016" stroke-width="0.0" fill="rgb(54, 54, 58)" opacity="0.98230356" stroke="rgb(0, 0, 0)" stroke-opacity="1.0" stroke-linecap="round" stroke-linejoin="round"/>
    <path d="M 287.733642578125 307.44561767578125 C 285.9993896484375 302.4270324707031 289.6971435546875 304.2215270996094 294.5044250488281 304.6160888671875 C 295.35321044921875 303.492919921875 297.63031005859375 306.02288818359375 296.722412109375 314.25946044921875 C 287.7144470214844 313.35491943359375 286.8534851074219 313.2398376464844 287.733642578125 307.44561767578125" stroke-width="0.0" fill="rgb(53, 56, 66)" opacity="0.989024" stroke="rgb(0, 0, 0)" stroke-opacity="1.0" stroke-linecap="round" stroke-linejoin="round"/>
    <path d="M 304.9248352050781 114.1648178100586 C 307.7068176269531 120.90910339355469 313.10711669921875 123.1123046875 320.9169921875 126.35071563720703 C 329.55657958984375 126.00184631347656 337.94952392578125 126.95598602294922 340.5052490234375 120.64263153076172 C 338.9403076171875 110.3673324584961 331.7342834472656 109.08415222167969 324.505615234375 105.79060363769531 C 315.4220886230469 105.33519744873047 308.6785583496094 107.98200225830078 304.9248352050781 114.1648178100586" stroke-width="0.0" fill="rgb(79, 79, 118)" opacity="0.9987105" stroke="rgb(0, 0, 0)" stroke-opacity="1.0" stroke-linecap="round" stroke-linejoin="round"/>
    <path d="M 249.31712341308594 110.88713073730469 C 251.38763427734375 115.00972747802734 253.95587158203125 118.94457244873047 261.67291259765625 120.29998016357422 C 271.82122802734375 120.50111389160156 279.3828430175781 119.19658660888672 282.927490234375 111.32250213623047 C 281.25531005859375 102.42727661132812 274.05078125 101.85584259033203 264.1978454589844 100.17855072021484 C 257.5514831542969 100.56622314453125 253.2895050048828 102.74734497070312 249.31712341308594 110.88713073730469" stroke-width="0.0" fill="rgb(88, 90, 131)" opacity="0.9996256" stroke="rgb(0, 0, 0)" stroke-opacity="1.0" stroke-linecap="round" stroke-linejoin="round"/>
  </g>
</svg>
