<?xml version="1.0" ?>
<svg xmlns="http://www.w3.org/2000/svg" version="1.1" width="512" height="512">
  <defs/>
  <g>
    <path d="M -2.9893014430999756 -2.9968197345733643 C -2.9881834983825684 170.3333282470703 -2.9884960651397705 340.6666564941406 -2.832467555999756 514.7300415039062 C 170.60423278808594 514.57421875 340.4731750488281 514.5352172851562 514.7932739257812 514.7206420898438 C 514.79736328125 340.6815185546875 514.8017578125 170.3487091064453 514.8068237304688 -2.9853129386901855 C 340.6666564941406 -2.9961965084075928 170.3333282470703 -2.998974561691284 -2.9893014430999756 -2.9968197345733643" stroke-width="0.0" fill="rgb(210, 212, 220)" opacity="0.93076885" stroke="rgb(0, 0, 0)" stroke-opacity="1.0" stroke-linecap="round" stroke-linejoin="round"/>
    <path d="M 261.0726318359375 27.449565887451172 C 238.4766845703125 32.123207092285156 221.9335174560547 44.029903411865234 207.5422821044922 58.599266052246094 C 195.51683044433594 77.90081787109375 187.03173828125 100.50884246826172 181.0188751220703 126.42352294921875 C 176.03025817871094 145.46670532226562 177.95022583007812 160.80458068847656 181.7807159423828 177.60879516601562 C 186.68324279785156 201.12191772460938 206.58607482910156 209.66529846191406 217.32882690429688 229.29583740234375 C 206.9684600830078 229.73728942871094 198.369873046875 228.85958862304688 189.24998474121094 232.3395233154297 C 175.74647521972656 236.1976776123047 168.87954711914062 247.5639190673828 162.319091796875 256.90753173828125 C 139.4639129638672 261.1979064941406 118.76174926757812 265.07720947265625 103.046142578125 273.6125793457031 C 89.6481704711914 283.3880310058594 77.87130737304688 294.2044372558594 68.93283081054688 307.6300964355469 C 64.46845245361328 317.046142578125 60.89060974121094 326.2149963378906 62.075843811035156 337.3365783691406 C 63.770267486572266 346.63494873046875 66.69930267333984 352.1363830566406 70.25527954101562 357.30780029296875 C 77.81866455078125 365.3267822265625 87.62881469726562 371.4858093261719 97.5581283569336 378.92413330078125 C 122.98662567138672 386.4679870605469 152.34947204589844 390.939697265625 190.30467224121094 394.0460205078125 C 194.7909698486328 409.781982421875 195.92584228515625 436.7821044921875 196.4716796875 463.2572326660156 C 202.01785278320312 454.7972717285156 204.62677001953125 453.5557556152344 210.61073303222656 452.8354187011719 C 216.62405395507812 455.3706970214844 220.68898010253906 459.3175048828125 224.13577270507812 463.2572021484375 C 221.21092224121094 464.33673095703125 222.4541473388672 462.546630859375 224.3240509033203 462.0837707519531 C 240.97018432617188 468.20343017578125 259.224365234375 471.6247863769531 279.854248046875 475.09136962890625 C 300.7571105957031 471.808349609375 320.6229248046875 465.83465576171875 339.8628234863281 455.3043518066406 C 342.8496398925781 461.236572265625 342.7901306152344 464.14697265625 342.4075622558594 464.9126281738281 C 343.9093322753906 466.44818115234375 347.3231201171875 466.71435546875 347.4468994140625 463.2821044921875 C 351.37213134765625 464.26416015625 354.4482727050781 467.66888427734375 356.6143798828125 472.4459533691406 C 363.4602355957031 483.3229675292969 367.1650390625 497.76763916015625 368.02410888671875 515.424072265625 C 388.4012145996094 514.8453369140625 403.15631103515625 515.0827026367188 418.0750732421875 514.3252563476562 C 412.9587707519531 499.0131530761719 407.73992919921875 489.8450622558594 403.7119445800781 478.418212890625 C 409.5600280761719 459.4048767089844 415.2913513183594 440.189208984375 420.30816650390625 416.6532287597656 C 418.32000732421875 389.82421875 414.79351806640625 363.41729736328125 410.1878967285156 338.5785217285156 C 399.1650390625 321.159423828125 388.4189453125 304.2884521484375 375.82135009765625 289.1822204589844 C 357.56414794921875 283.9212341308594 333.3716125488281 286.7849426269531 323.51055908203125 285.18603515625 C 342.67962646484375 259.77215576171875 357.6582336425781 229.91725158691406 386.6380615234375 214.40530395507812 C 392.09210205078125 205.99325561523438 396.9295654296875 197.9158477783203 401.11309814453125 188.51254272460938 C 406.7808837890625 181.37940979003906 408.52056884765625 170.66148376464844 410.1490173339844 155.1447296142578 C 410.41204833984375 132.15914916992188 407.3804626464844 110.97105407714844 402.64715576171875 91.11119079589844 C 398.0961608886719 79.6264877319336 392.565185546875 69.86872100830078 385.6942443847656 61.241031646728516 C 376.04541015625 50.236331939697266 364.49053955078125 41.223148345947266 350.831298828125 34.35093307495117 C 337.74493408203125 27.73353385925293 322.26678466796875 24.173715591430664 303.3135681152344 22.364553451538086 C 287.8846130371094 20.173603057861328 275.34716796875 24.224958419799805 261.0726318359375 27.449565887451172" stroke-width="0.0" fill="rgb(125, 128, 143)" opacity="0.97217226" stroke="rgb(0, 0, 0)" stroke-opacity="1.0" stroke-linecap="round" stroke-linejoin="round"/>
    <path d="M 168.34597778320312 514.5674438476562 C 232.8993377685547 515.3875732421875 300.1205139160156 515.77099609375 373.06597900390625 516.2451171875 C 366.5080871582031 493.4917907714844 359.66375732421875 479.4642333984375 352.6354675292969 467.712646484375 C 333.15478515625 471.2984619140625 317.44903564453125 475.4755554199219 300.2919006347656 477.6065979003906 C 281.3016662597656 478.2169494628906 261.23052978515625 478.7805480957031 244.246337890625 479.5915222167969 C 225.48489379882812 477.1722106933594 207.8820343017578 473.24212646484375 192.19656372070312 467.4271240234375 C 182.8848876953125 479.603759765625 174.86083984375 493.1953125 168.34597778320312 514.5674438476562" stroke-width="0.0" fill="rgb(175, 180, 207)" opacity="0.9988055" stroke="rgb(0, 0, 0)" stroke-opacity="1.0" stroke-linecap="round" stroke-linejoin="round"/>
    <path d="M 193.5536346435547 466.83331298828125 C 194.2662811279297 471.4355773925781 198.654541015625 475.5478210449219 206.6497802734375 475.65985107421875 C 223.10154724121094 479.8168640136719 239.64285278320312 482.4776306152344 258.90106201171875 484.2864990234375 C 283.11077880859375 483.29156494140625 304.4826354980469 481.4823303222656 324.10821533203125 478.2035217285156 C 332.8568115234375 475.3342590332031 340.8639831542969 472.7696838378906 348.65716552734375 468.3626403808594 C 345.8818664550781 460.017333984375 341.8291015625 457.1219482421875 335.1033020019531 452.72222900390625 C 323.8569030761719 456.7130126953125 315.8775939941406 467.2576599121094 300.3560485839844 468.16900634765625 C 281.7421569824219 469.9447937011719 264.8396911621094 472.0669250488281 248.28456115722656 469.46282958984375 C 231.35101318359375 465.1427001953125 220.3943328857422 453.54241943359375 203.86351013183594 450.83441162109375 C 197.2161102294922 454.4280090332031 195.31503295898438 458.7583923339844 193.5536346435547 466.83331298828125" stroke-width="0.0" fill="rgb(21, 21, 25)" opacity="1.0278769" stroke="rgb(0, 0, 0)" stroke-opacity="1.0" stroke-linecap="round" stroke-linejoin="round"/>
    <path d="M 319.1773376464844 275.4367980957031 C 315.5669860839844 280.53546142578125 317.7843017578125 283.8298034667969 324.7239990234375 284.3987731933594 C 329.18524169921875 287.2784118652344 334.5433654785156 287.9209899902344 341.9096374511719 286.1762390136719 C 340.880859375 279.1465148925781 339.69256591796875 273.4766540527344 338.26812744140625 269.56427001953125 C 327.53778076171875 268.7624206542969 320.9172058105469 270.1605224609375 319.1773376464844 275.4367980957031" stroke-width="0.0" fill="rgb(229, 230, 233)" opacity="1.0174391" stroke="rgb(0, 0, 0)" stroke-opacity="1.0" stroke-linecap="round" stroke-linejoin="round"/>
    <path d="M 3.034635305404663 322.9493408203125 C 0.49483391642570496 383.5877990722656 0.5203191637992859 446.005859375 1.6569148302078247 514.488037109375 C 51.07709884643555 515.391845703125 105.32149505615234 515.7559814453125 161.3844451904297 515.7207641601562 C 173.76573181152344 490.9750061035156 186.23638916015625 472.1795349121094 196.5605010986328 454.248779296875 C 194.020263671875 432.9077453613281 191.8232421875 411.625 187.84996032714844 393.7381286621094 C 151.69967651367188 393.7425842285156 120.85633087158203 389.78399658203125 98.24748992919922 382.4165954589844 C 84.91525268554688 371.0933837890625 72.16634368896484 364.832763671875 63.90263748168945 354.3542175292969 C 59.98496627807617 344.5206298828125 58.64619064331055 333.4056091308594 58.92974853515625 316.7086486816406 C 55.25567626953125 321.3025817871094 55.099334716796875 327.16741943359375 54.86975860595703 333.5386657714844 C 35.11324691772461 329.8350524902344 18.835227966308594 329.6197509765625 5.569703102111816 332.6248779296875 C 2.4623219966888428 329.31866455078125 6.430049896240234 324.2546691894531 3.034635305404663 322.9493408203125" stroke-width="0.0" fill="rgb(251, 253, 253)" opacity="1.0033559" stroke="rgb(0, 0, 0)" stroke-opacity="1.0" stroke-linecap="round" stroke-linejoin="round"/>
    <path d="M 408.8874816894531 165.18011474609375 C 411.98309326171875 168.02389526367188 411.71527099609375 170.43548583984375 410.9241027832031 165.7127227783203 C 412.03759765625 176.97933959960938 408.853759765625 183.86196899414062 403.33544921875 189.71194458007812 C 403.2976989746094 180.29551696777344 406.080322265625 172.7590789794922 408.8874816894531 165.18011474609375" stroke-width="0.0" fill="rgb(70, 78, 82)" opacity="1.001264" stroke="rgb(0, 0, 0)" stroke-opacity="1.0" stroke-linecap="round" stroke-linejoin="round"/>
    <path d="M 405.2445983886719 118.76901245117188 C 409.0695495605469 113.90093231201172 409.6527099609375 113.86880493164062 409.0858459472656 116.01800537109375 C 411.1915283203125 118.67756652832031 413.38018798828125 121.93408966064453 410.2447204589844 127.67086029052734 C 405.23577880859375 124.29888916015625 404.0563049316406 120.6220703125 405.2445983886719 118.76901245117188" stroke-width="0.0" fill="rgb(169, 185, 217)" opacity="0.9993174" stroke="rgb(0, 0, 0)" stroke-opacity="1.0" stroke-linecap="round" stroke-linejoin="round"/>
    <path d="M 68.7278060913086 306.79583740234375 C 63.53526306152344 315.98822021484375 61.52104568481445 326.6763916015625 62.019290924072266 342.24456787109375 C 65.79179382324219 352.5651550292969 72.08258056640625 361.4119873046875 81.08470153808594 367.8346252441406 C 91.0110092163086 374.8167419433594 102.63627624511719 379.73516845703125 115.9671401977539 383.1461486816406 C 138.9088592529297 388.2515563964844 163.63169860839844 391.9756164550781 189.8037872314453 390.95587158203125 C 193.4976806640625 412.7046813964844 194.6895294189453 434.8507995605469 199.61563110351562 457.2235412597656 C 191.44375610351562 473.8009948730469 177.08140563964844 488.8514709472656 165.95521545410156 513.9854736328125 C 250.34217834472656 515.6968994140625 335.7457275390625 515.520263671875 417.972900390625 514.2857666015625 C 413.7090148925781 499.09368896484375 408.28741455078125 490.2136535644531 403.2826232910156 477.4385986328125 C 409.7828674316406 460.16912841796875 415.7683410644531 440.9471435546875 419.9573059082031 418.1972961425781 C 420.18817138671875 396.37457275390625 414.3221130371094 379.0865478515625 413.81890869140625 356.7989807128906 C 414.0375061035156 346.2355041503906 409.8585510253906 339.2427978515625 405.569580078125 332.35614013671875 C 397.1738586425781 317.4434509277344 387.6029357910156 303.6752014160156 376.8648681640625 288.4365539550781 C 341.6675720214844 284.00482177734375 298.19061279296875 285.6949157714844 262.2209167480469 280.89654541015625 C 255.10491943359375 274.59014892578125 252.14300537109375 267.18890380859375 246.88916015625 259.6221923828125 C 239.02377319335938 257.5332946777344 228.7707061767578 260.416015625 225.3212890625 256.7373352050781 C 220.8164825439453 246.99444580078125 217.088623046875 237.82601928710938 211.79701232910156 231.2839813232422 C 206.54029846191406 230.516357421875 200.65257263183594 230.11680603027344 192.66184997558594 229.06201171875 C 180.24261474609375 234.3385772705078 170.61190795898438 245.67837524414062 163.2438201904297 257.9644775390625 C 138.8217010498047 260.7633056640625 118.46405792236328 265.4023132324219 102.36731719970703 273.314453125 C 89.84571838378906 283.85247802734375 78.07244873046875 294.07373046875 68.7278060913086 306.79583740234375" stroke-width="0.0" fill="rgb(115, 119, 138)" opacity="0.93158025" stroke="rgb(0, 0, 0)" stroke-opacity="1.0" stroke-linecap="round" stroke-linejoin="round"/>
    <path d="M 289.29620361328125 22.081445693969727 C 270.6616516113281 22.896711349487305 257.9394836425781 26.51282501220703 246.22018432617188 31.711254119873047 C 230.81422424316406 38.526981353759766 218.4593963623047 48.698978424072266 207.44863891601562 60.79789352416992 C 196.01356506347656 75.081787109375 189.39794921875 94.19400024414062 184.42617797851562 115.47550964355469 C 179.76646423339844 127.1161117553711 176.5110626220703 139.42506408691406 178.5830535888672 154.38182067871094 C 180.4619598388672 169.84764099121094 182.97164916992188 183.3861083984375 187.87806701660156 194.8579864501953 C 204.78228759765625 207.81466674804688 216.9520721435547 224.568115234375 224.76695251464844 248.18240356445312 C 227.7081756591797 254.31057739257812 236.36831665039062 255.8011474609375 248.99246215820312 255.3054656982422 C 256.7911682128906 261.43438720703125 261.82476806640625 270.7945556640625 269.0137023925781 277.26617431640625 C 278.2074279785156 278.7928466796875 287.30084228515625 279.1482238769531 298.0298767089844 279.3920593261719 C 311.8475341796875 275.61212158203125 324.50872802734375 270.0063171386719 336.0177917480469 263.6716003417969 C 343.49462890625 252.58230590820312 352.2149963378906 243.2523651123047 359.9583740234375 231.9402618408203 C 370.1474304199219 226.92176818847656 380.0384826660156 221.07302856445312 387.49456787109375 212.74514770507812 C 394.8999938964844 201.5083770751953 401.21563720703125 189.5392608642578 406.6236877441406 176.33389282226562 C 408.937255859375 164.0128936767578 410.3501281738281 151.43704223632812 409.0431213378906 136.96722412109375 C 406.9593811035156 116.63529968261719 404.4444580078125 98.0089111328125 399.55517578125 81.77059936523438 C 392.58929443359375 69.08499908447266 384.20941162109375 58.22137451171875 373.74847412109375 49.29901123046875 C 363.2552185058594 40.349998474121094 350.70074462890625 33.67012405395508 336.21905517578125 28.69993019104004 C 321.3193359375 24.068038940429688 305.7413330078125 20.263614654541016 289.29620361328125 22.081445693969727" stroke-width="0.0" fill="rgb(119, 121, 139)" opacity="0.9401557" stroke="rgb(0, 0, 0)" stroke-opacity="1.0" stroke-linecap="round" stroke-linejoin="round"/>
    <path d="M 177.3665008544922 491.15374755859375 C 170.35043334960938 496.7943115234375 168.03201293945312 503.682861328125 165.90530395507812 512.1804809570312 C 166.48333740234375 515.5028076171875 169.4098663330078 515.4155883789062 176.9969940185547 515.434814453125 C 176.0131378173828 505.93511962890625 178.4648895263672 500.4046936035156 177.3665008544922 491.15374755859375" stroke-width="0.0" fill="rgb(70, 73, 87)" opacity="0.9876544" stroke="rgb(0, 0, 0)" stroke-opacity="1.0" stroke-linecap="round" stroke-linejoin="round"/>
    <path d="M 307.59503173828125 285.27752685546875 C 310.5578308105469 286.7272644042969 315.677978515625 287.3435363769531 324.5068054199219 287.01568603515625 C 323.7669677734375 280.51629638671875 321.06005859375 278.66510009765625 318.408935546875 277.4992370605469 C 314.1059875488281 275.91412353515625 313.40936279296875 277.5350036621094 307.59503173828125 285.27752685546875" stroke-width="0.0" fill="rgb(118, 123, 134)" opacity="0.9891141" stroke="rgb(0, 0, 0)" stroke-opacity="1.0" stroke-linecap="round" stroke-linejoin="round"/>
    <path d="M 192.8701934814453 135.30905151367188 C 206.17578125 173.4510955810547 216.1198272705078 206.5517578125 223.0608673095703 246.893798828125 C 245.59608459472656 252.01577758789062 257.4375915527344 271.3228454589844 275.9007873535156 281.248046875 C 287.7014465332031 280.4448547363281 295.1462097167969 280.67657470703125 303.0033264160156 279.5281066894531 C 313.5612487792969 274.2441101074219 322.9610595703125 267.2166442871094 339.01129150390625 263.3480529785156 C 349.80718994140625 224.24534606933594 370.39031982421875 192.25909423828125 392.1510009765625 156.8975372314453 C 374.18170166015625 158.76316833496094 363.202880859375 165.057861328125 347.354248046875 165.57229614257812 C 331.09271240234375 166.65931701660156 313.97607421875 166.44923400878906 299.0688171386719 163.85543823242188 C 274.7021484375 162.8481903076172 251.96224975585938 160.5535430908203 233.3233642578125 153.68728637695312 C 217.302001953125 152.54483032226562 211.43011474609375 140.7595977783203 192.8701934814453 135.30905151367188" stroke-width="0.0" fill="rgb(64, 63, 75)" opacity="0.990636" stroke="rgb(0, 0, 0)" stroke-opacity="1.0" stroke-linecap="round" stroke-linejoin="round"/>
    <path d="M 191.14956665039062 107.61315155029297 C 192.17604064941406 115.4278564453125 190.8997039794922 121.55156707763672 193.20118713378906 126.00634765625 C 197.6109161376953 132.09693908691406 202.58389282226562 137.94052124023438 207.76199340820312 144.6395263671875 C 224.1510009765625 153.62156677246094 245.47189331054688 158.3825225830078 268.7070007324219 162.5930633544922 C 296.3396301269531 167.03733825683594 325.4871826171875 168.13780212402344 360.10418701171875 167.43592834472656 C 375.5450744628906 162.46182250976562 387.8525695800781 155.52745056152344 396.8226013183594 147.49659729003906 C 396.0544128417969 133.0753936767578 396.1551513671875 123.96284484863281 392.6188049316406 115.79983520507812 C 391.52728271484375 106.23322296142578 386.9830322265625 100.05970001220703 381.85565185546875 93.61205291748047 C 361.3192443847656 83.61068725585938 339.2884216308594 74.99130249023438 315.7048645019531 67.05863189697266 C 279.4024658203125 68.15564727783203 250.80752563476562 70.13819122314453 222.23614501953125 73.23070526123047 C 209.9328155517578 84.52762603759766 198.3927459716797 95.58441162109375 191.14956665039062 107.61315155029297" stroke-width="0.0" fill="rgb(131, 134, 156)" opacity="1.064234" stroke="rgb(0, 0, 0)" stroke-opacity="1.0" stroke-linecap="round" stroke-linejoin="round"/>
    <path d="M 73.70721435546875 300.5447692871094 C 65.73439025878906 308.7235412597656 62.073646545410156 320.70147705078125 61.42976379394531 337.9948425292969 C 65.32295989990234 349.7138366699219 71.30876159667969 359.47705078125 79.85356140136719 367.1448974609375 C 91.47928619384766 374.988037109375 105.42813873291016 380.24383544921875 120.59795379638672 385.03533935546875 C 141.18389892578125 388.84564208984375 162.54147338867188 390.88433837890625 191.06674194335938 391.240966796875 C 190.6245574951172 365.81549072265625 189.17311096191406 346.5552062988281 188.84446716308594 330.0085144042969 C 192.72792053222656 313.23583984375 201.2086639404297 301.3296203613281 206.05081176757812 277.45245361328125 C 179.87266540527344 274.928955078125 154.31210327148438 273.72015380859375 128.5988311767578 272.2892761230469 C 113.99917602539062 273.1849670410156 103.87100982666016 275.53070068359375 94.91120147705078 279.8304138183594 C 87.27037048339844 285.9556579589844 80.07612609863281 292.46490478515625 73.70721435546875 300.5447692871094" stroke-width="0.0" fill="rgb(186, 191, 214)" opacity="1.0016848" stroke="rgb(0, 0, 0)" stroke-opacity="1.0" stroke-linecap="round" stroke-linejoin="round"/>
    <path d="M 190.6405792236328 97.61180877685547 C 210.08648681640625 89.54383087158203 223.11752319335938 80.3757553100586 237.52537536621094 73.34998321533203 C 257.12939453125 69.30332946777344 278.6612243652344 69.43114471435547 299.7403564453125 69.94763946533203 C 317.79583740234375 71.04443359375 334.1440124511719 75.96190643310547 352.6543273925781 82.62372589111328 C 373.403564453125 87.49051666259766 382.9761047363281 107.4795150756836 404.5673828125 119.5798568725586 C 406.2684020996094 99.59661102294922 402.46929931640625 89.68079376220703 398.1418762207031 79.88380432128906 C 391.28289794921875 67.7340316772461 383.1993713378906 56.901344299316406 372.90655517578125 48.215911865234375 C 363.42645263671875 40.21722412109375 352.3452453613281 34.04256820678711 339.830322265625 29.363489151000977 C 330.5476379394531 25.075084686279297 319.59735107421875 22.600467681884766 304.8541259765625 21.8647403717041 C 292.8619079589844 20.667675018310547 280.71343994140625 22.24069595336914 269.40008544921875 24.470386505126953 C 254.7427520751953 26.695960998535156 242.46241760253906 31.40083122253418 232.2823944091797 38.17342758178711 C 223.10633850097656 44.751583099365234 214.76698303222656 52.128334045410156 207.7188720703125 60.845733642578125 C 199.92391967773438 69.106201171875 192.9555206298828 78.3690185546875 190.6405792236328 97.61180877685547" stroke-width="0.0" fill="rgb(144, 148, 168)" opacity="1.0581356" stroke="rgb(0, 0, 0)" stroke-opacity="1.0" stroke-linecap="round" stroke-linejoin="round"/>
    <path d="M 384.30828857421875 343.2861328125 C 370.4325256347656 346.3741455078125 362.26556396484375 349.4566345214844 360.4187927246094 356.1754455566406 C 358.65838623046875 393.8812561035156 355.6175842285156 428.3563232421875 353.5548400878906 462.8577880859375 C 361.23004150390625 479.68511962890625 366.8653564453125 495.19305419921875 372.8049621582031 515.1287841796875 C 389.2862548828125 514.8054809570312 404.61920166015625 515.0625610351562 420.4405212402344 513.9955444335938 C 414.6575927734375 496.0754089355469 405.3136291503906 487.64532470703125 405.1473388671875 474.2853698730469 C 411.1894836425781 458.6929626464844 415.3027648925781 443.5723876953125 418.24395751953125 427.1898498535156 C 420.6454162597656 415.760498046875 421.45721435546875 406.030029296875 417.9356689453125 394.41192626953125 C 413.5284423828125 378.99371337890625 405.15557861328125 366.585693359375 399.41046142578125 351.5282287597656 C 395.3363952636719 345.144775390625 389.2998046875 342.29144287109375 384.30828857421875 343.2861328125" stroke-width="0.0" fill="rgb(81, 82, 93)" opacity="0.9343595" stroke="rgb(0, 0, 0)" stroke-opacity="1.0" stroke-linecap="round" stroke-linejoin="round"/>
    <path d="M 230.35272216796875 293.5606689453125 C 221.3894805908203 294.9260559082031 217.0019073486328 297.518798828125 212.5822296142578 301.04718017578125 C 206.55215454101562 309.81988525390625 201.9941864013672 320.2366027832031 197.36135864257812 330.8641052246094 C 196.62197875976562 351.5098571777344 196.36410522460938 368.40374755859375 197.62501525878906 383.0902404785156 C 204.29779052734375 388.41851806640625 208.32476806640625 392.8988952636719 215.87498474121094 395.41839599609375 C 226.8962860107422 395.7950134277344 233.3995361328125 393.927734375 235.49156188964844 390.31280517578125 C 238.1818084716797 377.0148010253906 244.09869384765625 370.25323486328125 247.41781616210938 360.3610534667969 C 245.52352905273438 344.62646484375 244.50392150878906 333.1396789550781 242.4493408203125 319.91650390625 C 242.98638916015625 308.7840576171875 237.68380737304688 299.5746765136719 230.35272216796875 293.5606689453125" stroke-width="0.0" fill="rgb(185, 189, 215)" opacity="1.0135825" stroke="rgb(0, 0, 0)" stroke-opacity="1.0" stroke-linecap="round" stroke-linejoin="round"/>
    <path d="M 341.0760803222656 417.2230224609375 C 338.99224853515625 412.27911376953125 336.175048828125 408.6661071777344 332.1744384765625 407.3069763183594 C 312.533203125 406.9217224121094 296.0490417480469 408.3544921875 283.04962158203125 413.2593078613281 C 275.796142578125 415.07476806640625 270.4945373535156 418.2076110839844 268.4139404296875 424.83953857421875 C 265.1316223144531 429.518310546875 264.7375183105469 434.07110595703125 268.81744384765625 442.9957275390625 C 269.53387451171875 447.5380554199219 274.4576721191406 449.5870666503906 282.3453369140625 448.5667419433594 C 300.2708435058594 448.7923583984375 316.33984375 447.7594299316406 330.0869445800781 445.00567626953125 C 333.8872375488281 442.6380615234375 336.84173583984375 440.254638671875 339.3575439453125 436.5262756347656 C 341.92425537109375 431.8416748046875 342.5754699707031 425.9827880859375 341.0760803222656 417.2230224609375" stroke-width="0.0" fill="rgb(100, 103, 125)" opacity="1.0462534" stroke="rgb(0, 0, 0)" stroke-opacity="1.0" stroke-linecap="round" stroke-linejoin="round"/>
    <path d="M 192.12265014648438 398.0598449707031 C 194.1282958984375 415.2674255371094 196.25961303710938 428.58514404296875 199.4066619873047 443.5093994140625 C 209.41650390625 445.99237060546875 222.02090454101562 447.8384094238281 238.61019897460938 448.130859375 C 238.55140686035156 432.61700439453125 237.4795684814453 422.1717529296875 233.80496215820312 415.47113037109375 C 222.77304077148438 414.4085998535156 220.32737731933594 408.0821533203125 215.562744140625 402.6394348144531 C 210.17076110839844 399.2308044433594 202.7251434326172 398.5837097167969 192.12265014648438 398.0598449707031" stroke-width="0.0" fill="rgb(89, 95, 110)" opacity="0.9723571" stroke="rgb(0, 0, 0)" stroke-opacity="1.0" stroke-linecap="round" stroke-linejoin="round"/>
    <path d="M 208.59608459472656 286.76995849609375 C 201.8189239501953 289.6864929199219 195.74093627929688 293.1346435546875 192.6140594482422 298.9606018066406 C 189.8770294189453 309.7848815917969 187.1571807861328 319.7020263671875 185.83982849121094 332.3302917480469 C 184.08428955078125 346.0289611816406 184.29763793945312 357.40484619140625 186.91720581054688 372.37554931640625 C 185.4131317138672 378.3292541503906 188.05484008789062 383.18939208984375 201.2522430419922 387.1683044433594 C 202.3505401611328 367.6932678222656 202.62413024902344 346.2320251464844 203.2877655029297 324.89190673828125 C 205.93711853027344 312.94573974609375 210.59100341796875 302.27642822265625 219.51205444335938 293.5096130371094 C 216.47763061523438 289.6676330566406 213.18939208984375 287.5328063964844 208.59608459472656 286.76995849609375" stroke-width="0.0" fill="rgb(31, 31, 34)" opacity="0.9741186" stroke="rgb(0, 0, 0)" stroke-opacity="1.0" stroke-linecap="round" stroke-linejoin="round"/>
    <path d="M 234.0059814453125 258.1226806640625 C 230.70457458496094 263.05657958984375 228.67063903808594 268.5118713378906 229.68682861328125 278.8371276855469 C 230.47052001953125 285.14312744140625 235.69932556152344 287.6767272949219 249.9026641845703 288.3992919921875 C 253.71188354492188 282.49420166015625 254.98794555664062 275.806884765625 254.44163513183594 258.98138427734375 C 250.4292449951172 256.72454833984375 244.533935546875 255.88916015625 234.0059814453125 258.1226806640625" stroke-width="0.0" fill="rgb(169, 174, 198)" opacity="1.001596" stroke="rgb(0, 0, 0)" stroke-opacity="1.0" stroke-linecap="round" stroke-linejoin="round"/>
    <path d="M 254.27200317382812 287.785888671875 C 244.6742706298828 288.3773193359375 239.77438354492188 290.8313293457031 235.45925903320312 297.06231689453125 C 242.47808837890625 316.11187744140625 245.89407348632812 335.5581970214844 244.36001586914062 360.3674011230469 C 243.0218505859375 379.3580322265625 235.22723388671875 391.4459228515625 223.72848510742188 401.1452331542969 C 228.14231872558594 406.892578125 231.092041015625 410.0750427246094 239.61752319335938 411.9783020019531 C 246.39344787597656 412.0289611816406 250.4979248046875 408.64776611328125 251.9035186767578 402.153564453125 C 255.19285583496094 390.90130615234375 257.7234802246094 379.95330810546875 261.4076232910156 367.9407043457031 C 265.0201416015625 351.5811462402344 265.5301818847656 331.8283996582031 265.7869567871094 305.8769836425781 C 262.8797912597656 297.96844482421875 259.0378112792969 292.2057800292969 254.27200317382812 287.785888671875" stroke-width="0.0" fill="rgb(42, 43, 51)" opacity="1.0094231" stroke="rgb(0, 0, 0)" stroke-opacity="1.0" stroke-linecap="round" stroke-linejoin="round"/>
    <path d="M 215.59347534179688 452.2629089355469 C 226.26254272460938 465.2904968261719 241.48936462402344 470.1213073730469 258.5667419433594 471.08294677734375 C 277.2386474609375 470.75372314453125 291.0673828125 470.2673645019531 305.5484313964844 468.7186584472656 C 312.5887451171875 467.3584289550781 318.3633728027344 464.5954284667969 321.5812683105469 453.7195739746094 C 285.1827087402344 458.404541015625 251.69789123535156 457.57244873046875 215.59347534179688 452.2629089355469" stroke-width="0.0" fill="rgb(107, 113, 140)" opacity="1.005726" stroke="rgb(0, 0, 0)" stroke-opacity="1.0" stroke-linecap="round" stroke-linejoin="round"/>
    <path d="M 262.1203918457031 333.67755126953125 C 261.1136474609375 340.6497802734375 261.0937194824219 353.2997131347656 262.9428405761719 372.8553771972656 C 262.2264404296875 374.5143127441406 267.6424865722656 375.306396484375 277.5273132324219 373.1984558105469 C 281.6792297363281 371.8383483886719 284.0644836425781 369.62432861328125 286.87774658203125 367.13787841796875 C 290.1195983886719 361.09283447265625 291.7895202636719 354.2304992675781 291.1126708984375 338.93048095703125 C 285.9870910644531 336.2474060058594 277.9039001464844 334.8972473144531 262.1203918457031 333.67755126953125" stroke-width="0.0" fill="rgb(159, 165, 189)" opacity="0.9975718" stroke="rgb(0, 0, 0)" stroke-opacity="1.0" stroke-linecap="round" stroke-linejoin="round"/>
    <path d="M 259.810791015625 288.3906555175781 C 260.55859375 305.9745788574219 262.1912841796875 316.49676513671875 263.62127685546875 330.092041015625 C 273.8429870605469 329.8934326171875 281.05908203125 328.9971618652344 288.46856689453125 326.15753173828125 C 290.83966064453125 318.5444030761719 292.6266174316406 310.88360595703125 293.7121887207031 296.2921447753906 C 284.1794128417969 293.7294006347656 275.18359375 291.4287414550781 259.810791015625 288.3906555175781" stroke-width="0.0" fill="rgb(169, 177, 203)" opacity="1.0077386" stroke="rgb(0, 0, 0)" stroke-opacity="1.0" stroke-linecap="round" stroke-linejoin="round"/>
    <path d="M 277.7037658691406 289.872802734375 C 285.7294921875 299.4675598144531 294.1825256347656 304.9632568359375 302.953857421875 310.5054016113281 C 322.2704162597656 310.1187744140625 336.4089050292969 310.970458984375 347.48297119140625 309.8485107421875 C 346.0770568847656 299.1930847167969 344.320556640625 294.0979309082031 340.36248779296875 291.9450378417969 C 319.8028564453125 291.00531005859375 300.6772766113281 289.9070739746094 277.7037658691406 289.872802734375" stroke-width="0.0" fill="rgb(31, 30, 32)" opacity="1.003626" stroke="rgb(0, 0, 0)" stroke-opacity="1.0" stroke-linecap="round" stroke-linejoin="round"/>
    <path d="M 351.9913024902344 287.5599060058594 C 357.838623046875 297.8180847167969 364.013427734375 304.8191223144531 368.79266357421875 312.4346923828125 C 366.5743408203125 316.9421081542969 366.0347900390625 326.68145751953125 364.4360656738281 337.0736083984375 C 372.2682800292969 333.20782470703125 377.8253479003906 328.5808410644531 381.9013366699219 322.1095886230469 C 384.1699523925781 315.7552795410156 386.0630187988281 309.8283996582031 385.7945556640625 302.74139404296875 C 384.0559387207031 295.5585632324219 380.8916931152344 292.4387512207031 376.44659423828125 290.12481689453125 C 371.5520324707031 286.59820556640625 366.0882263183594 284.330810546875 351.9913024902344 287.5599060058594" stroke-width="0.0" fill="rgb(37, 37, 44)" opacity="0.9891972" stroke="rgb(0, 0, 0)" stroke-opacity="1.0" stroke-linecap="round" stroke-linejoin="round"/>
    <path d="M 156.3291015625 272.1193542480469 C 172.36654663085938 276.30615234375 188.53482055664062 280.1197814941406 210.90850830078125 282.451416015625 C 201.3979034423828 270.1552429199219 191.32359313964844 264.0503845214844 179.87425231933594 259.1686706542969 C 167.27548217773438 259.3472595214844 160.7007598876953 262.49969482421875 156.3291015625 272.1193542480469" stroke-width="0.0" fill="rgb(24, 23, 27)" opacity="1.0000389" stroke="rgb(0, 0, 0)" stroke-opacity="1.0" stroke-linecap="round" stroke-linejoin="round"/>
    <path d="M 356.3359680175781 404.874267578125 C 345.2122802734375 419.1885681152344 347.1689453125 439.1756896972656 338.99737548828125 451.1861572265625 C 340.3283996582031 454.1851501464844 344.4317626953125 456.0395202636719 350.85858154296875 462.7896728515625 C 353.7524719238281 447.1705017089844 356.23260498046875 430.89666748046875 356.3359680175781 404.874267578125" stroke-width="0.0" fill="rgb(239, 239, 242)" opacity="1.0098401" stroke="rgb(0, 0, 0)" stroke-opacity="1.0" stroke-linecap="round" stroke-linejoin="round"/>
    <path d="M 94.0407943725586 280.05487060546875 C 109.44579315185547 279.8134460449219 124.20545196533203 277.6120910644531 138.66824340820312 273.5228576660156 C 128.8135528564453 267.0602111816406 120.37980651855469 267.4086608886719 110.73746490478516 269.0069274902344 C 102.042724609375 270.11407470703125 96.98541259765625 274.81475830078125 94.0407943725586 280.05487060546875" stroke-width="0.0" fill="rgb(18, 15, 16)" opacity="0.99351114" stroke="rgb(0, 0, 0)" stroke-opacity="1.0" stroke-linecap="round" stroke-linejoin="round"/>
    <path d="M 380.87396240234375 215.42831420898438 C 377.4983825683594 213.1282501220703 373.8026428222656 212.601318359375 368.1202087402344 214.5714111328125 C 363.45263671875 218.383544921875 360.5973815917969 224.51348876953125 358.3917236328125 232.7825164794922 C 365.0270690917969 229.4844207763672 373.4060974121094 229.97911071777344 377.4947509765625 225.5187530517578 C 379.5081481933594 222.93890380859375 380.8736877441406 220.90110778808594 380.87396240234375 215.42831420898438" stroke-width="0.0" fill="rgb(40, 40, 48)" opacity="0.98945844" stroke="rgb(0, 0, 0)" stroke-opacity="1.0" stroke-linecap="round" stroke-linejoin="round"/>
    <path d="M 193.9485321044922 196.48214721679688 C 199.18423461914062 192.703369140625 201.11024475097656 193.910888671875 202.9758758544922 192.86825561523438 C 206.36387634277344 197.32518005371094 209.96743774414062 202.24864196777344 209.57164001464844 212.23690795898438 C 199.4493865966797 210.1514434814453 196.06552124023438 203.9153289794922 193.9485321044922 196.48214721679688" stroke-width="0.0" fill="rgb(28, 27, 43)" opacity="0.9960132" stroke="rgb(0, 0, 0)" stroke-opacity="1.0" stroke-linecap="round" stroke-linejoin="round"/>
    <path d="M 168.85740661621094 514.1360473632812 C 194.39695739746094 515.302490234375 221.62139892578125 515.6481323242188 252.2413330078125 516.0308837890625 C 252.8028106689453 500.582763671875 253.26210021972656 491.23486328125 252.39923095703125 484.6227722167969 C 237.96243286132812 482.59320068359375 223.86097717285156 481.1356506347656 211.35076904296875 478.43572998046875 C 202.90785217285156 476.6033935546875 197.4014892578125 472.51617431640625 191.77684020996094 466.64691162109375 C 183.22312927246094 481.2077331542969 175.12420654296875 494.1885070800781 168.85740661621094 514.1360473632812" stroke-width="0.0" fill="rgb(174, 178, 203)" opacity="0.9754788" stroke="rgb(0, 0, 0)" stroke-opacity="1.0" stroke-linecap="round" stroke-linejoin="round"/>
    <path d="M 179.35043334960938 230.6940155029297 C 173.4236602783203 235.61376953125 170.60629272460938 241.71412658691406 169.82443237304688 252.36932373046875 C 180.8475341796875 254.50067138671875 192.25941467285156 256.8349609375 201.04458618164062 263.4364013671875 C 210.43569946289062 266.5010681152344 215.0142822265625 274.8714294433594 224.2336883544922 285.5976257324219 C 227.17080688476562 275.8968811035156 228.29666137695312 269.0454406738281 228.55274963378906 259.48919677734375 C 225.8440704345703 251.61048889160156 221.3288116455078 245.3343048095703 217.8946075439453 237.578369140625 C 214.49618530273438 231.117431640625 206.8344268798828 228.8381805419922 198.55784606933594 228.17950439453125 C 189.10585021972656 224.3948974609375 183.31527709960938 225.7462158203125 179.35043334960938 230.6940155029297" stroke-width="0.0" fill="rgb(93, 95, 113)" opacity="1.0313805" stroke="rgb(0, 0, 0)" stroke-opacity="1.0" stroke-linecap="round" stroke-linejoin="round"/>
    <path d="M 326.9377136230469 479.1506042480469 C 329.7325744628906 486.2745666503906 332.4309387207031 494.67181396484375 333.9292297363281 503.91326904296875 C 343.484375 503.21942138671875 350.14892578125 503.5445861816406 355.53582763671875 504.0953674316406 C 360.77752685546875 503.4784851074219 366.69134521484375 505.6612548828125 372.8698425292969 507.00164794921875 C 366.109375 493.203125 358.5874328613281 479.6988220214844 350.1380920410156 465.8797912597656 C 338.2875061035156 465.7917785644531 332.6101989746094 470.1969909667969 326.9377136230469 479.1506042480469" stroke-width="0.0" fill="rgb(186, 191, 216)" opacity="1.0008341" stroke="rgb(0, 0, 0)" stroke-opacity="1.0" stroke-linecap="round" stroke-linejoin="round"/>
    <path d="M 282.0401306152344 379.6986389160156 C 274.45416259765625 377.0081787109375 268.097900390625 376.9186096191406 259.20513916015625 378.4559326171875 C 257.7347412109375 389.7417907714844 255.27589416503906 398.2209167480469 252.56585693359375 410.21490478515625 C 265.5394287109375 409.82159423828125 273.1927795410156 408.16339111328125 279.9235534667969 405.24005126953125 C 281.758056640625 397.865478515625 282.2601623535156 390.4660949707031 282.0401306152344 379.6986389160156" stroke-width="0.0" fill="rgb(144, 148, 171)" opacity="0.9888013" stroke="rgb(0, 0, 0)" stroke-opacity="1.0" stroke-linecap="round" stroke-linejoin="round"/>
    <path d="M 286.0341796875 298.93109130859375 C 287.1492919921875 305.1073303222656 288.10675048828125 310.427734375 289.354736328125 313.3952331542969 C 298.402587890625 310.3502502441406 299.3372497558594 307.8035888671875 298.3448791503906 301.6417236328125 C 294.68707275390625 299.13043212890625 292.0589294433594 298.1718444824219 286.0341796875 298.93109130859375" stroke-width="0.0" fill="rgb(114, 119, 137)" opacity="0.990337" stroke="rgb(0, 0, 0)" stroke-opacity="1.0" stroke-linecap="round" stroke-linejoin="round"/>
    <path d="M 298.3860168457031 305.0460205078125 C 298.3716735839844 310.1717224121094 297.8865051269531 315.1122741699219 298.4541320800781 321.3173828125 C 296.66619873046875 324.94085693359375 291.4879455566406 326.9534606933594 282.953857421875 332.0386962890625 C 285.3446350097656 339.4601135253906 289.95001220703125 342.1865234375 295.39495849609375 343.68310546875 C 295.7938232421875 352.65252685546875 296.1686096191406 359.76416015625 294.1651916503906 363.1864013671875 C 289.532958984375 379.26202392578125 288.1398620605469 393.6795654296875 274.8484191894531 407.6629333496094 C 303.9373779296875 402.8322448730469 327.13543701171875 400.5159606933594 359.5024719238281 401.0300598144531 C 359.1943054199219 367.72283935546875 358.2471923828125 338.14166259765625 356.30987548828125 312.6945495605469 C 336.0041198730469 307.0494079589844 318.7217712402344 304.51202392578125 298.3860168457031 305.0460205078125" stroke-width="0.0" fill="rgb(184, 189, 214)" opacity="0.9782303" stroke="rgb(0, 0, 0)" stroke-opacity="1.0" stroke-linecap="round" stroke-linejoin="round"/>
    <path d="M 367.1195373535156 514.4166259765625 C 362.6146240234375 507.2900390625 359.55670166015625 505.1922912597656 356.5589294433594 501.32037353515625 C 349.8081970214844 500.3431091308594 342.69146728515625 501.6573791503906 334.3174743652344 503.25018310546875 C 330.03692626953125 496.0375671386719 330.8162841796875 485.1166687011719 328.85028076171875 476.99249267578125 C 303.9166259765625 481.5348815917969 279.3097839355469 483.72100830078125 250.5698699951172 482.2597351074219 C 255.4491424560547 492.40386962890625 255.30618286132812 501.50067138671875 254.30755615234375 514.4686279296875 C 291.265869140625 514.561279296875 327.6744384765625 514.5987548828125 367.1195373535156 514.4166259765625" stroke-width="0.0" fill="rgb(179, 184, 220)" opacity="1.010655" stroke="rgb(0, 0, 0)" stroke-opacity="1.0" stroke-linecap="round" stroke-linejoin="round"/>
    <path d="M 350.31634521484375 287.42352294921875 C 351.45196533203125 304.65899658203125 354.24163818359375 318.765869140625 359.906005859375 333.10308837890625 C 368.628173828125 328.4355773925781 371.526611328125 322.04461669921875 372.8629455566406 308.5251770019531 C 367.3849792480469 299.5718994140625 360.4607238769531 292.5851745605469 350.31634521484375 287.42352294921875" stroke-width="0.0" fill="rgb(142, 146, 171)" opacity="1.0023593" stroke="rgb(0, 0, 0)" stroke-opacity="1.0" stroke-linecap="round" stroke-linejoin="round"/>
    <path d="M 187.6292724609375 392.13323974609375 C 188.53207397460938 395.8733215332031 190.55776977539062 397.7579040527344 192.61399841308594 400.6065368652344 C 198.1305694580078 401.7666015625 205.00099182128906 401.8757019042969 215.1101531982422 401.5955810546875 C 209.42611694335938 397.1310119628906 205.777587890625 392.4507141113281 203.66749572753906 388.615478515625 C 196.89129638671875 388.7897033691406 191.79486083984375 389.70556640625 187.6292724609375 392.13323974609375" stroke-width="0.0" fill="rgb(132, 133, 151)" opacity="0.9948934" stroke="rgb(0, 0, 0)" stroke-opacity="1.0" stroke-linecap="round" stroke-linejoin="round"/>
    <path d="M 287.78228759765625 353.9609375 C 291.9736633300781 350.7640686035156 293.1908874511719 351.42919921875 295.3089904785156 351.5636291503906 C 296.013427734375 352.54327392578125 296.8966064453125 355.1917419433594 293.3615417480469 360.2706298828125 C 288.4429016113281 359.0752258300781 287.7314453125 356.11639404296875 287.78228759765625 353.9609375" stroke-width="0.0" fill="rgb(33, 33, 39)" opacity="1.0009127" stroke="rgb(0, 0, 0)" stroke-opacity="1.0" stroke-linecap="round" stroke-linejoin="round"/>
    <path d="M 349.2448425292969 469.2496337890625 C 344.1788635253906 458.6115417480469 340.0296936035156 456.10137939453125 335.3093566894531 454.478271484375 C 329.0069885253906 453.71826171875 324.2909851074219 455.4103698730469 316.0530700683594 456.55419921875 C 314.8316650390625 459.4917907714844 315.19921875 466.94525146484375 317.514404296875 480.38970947265625 C 330.66888427734375 477.3628234863281 341.12091064453125 473.6102600097656 349.2448425292969 469.2496337890625" stroke-width="0.0" fill="rgb(14, 12, 14)" opacity="0.99903196" stroke="rgb(0, 0, 0)" stroke-opacity="1.0" stroke-linecap="round" stroke-linejoin="round"/>
    <path d="M 259.6768493652344 258.97393798828125 C 259.24725341796875 272.0917053222656 261.2064208984375 281.0775146484375 260.0539245605469 294.115478515625 C 264.89453125 294.72113037109375 270.3437194824219 296.35906982421875 273.6777038574219 293.1961975097656 C 270.0594177246094 279.7967834472656 266.5479431152344 268.4718322753906 259.6768493652344 258.97393798828125" stroke-width="0.0" fill="rgb(80, 82, 101)" opacity="0.9969781" stroke="rgb(0, 0, 0)" stroke-opacity="1.0" stroke-linecap="round" stroke-linejoin="round"/>
    <path d="M 220.0808868408203 458.504150390625 C 221.9588165283203 465.0427551269531 223.1960906982422 472.5038146972656 228.3156280517578 479.3162536621094 C 233.8686065673828 472.5950927734375 233.9733428955078 465.4412841796875 233.5581512451172 458.46142578125 C 227.43301391601562 455.11871337890625 225.02171325683594 455.089111328125 220.0808868408203 458.504150390625" stroke-width="0.0" fill="rgb(42, 42, 55)" opacity="1.0067259" stroke="rgb(0, 0, 0)" stroke-opacity="1.0" stroke-linecap="round" stroke-linejoin="round"/>
    <path d="M 221.25408935546875 277.4901428222656 C 219.24978637695312 284.34649658203125 222.0172882080078 285.2041320800781 222.9896697998047 288.005859375 C 223.3503875732422 291.96234130859375 227.55789184570312 293.3163146972656 232.97140502929688 289.9322204589844 C 229.6192626953125 283.4508056640625 227.02325439453125 280.1065979003906 221.25408935546875 277.4901428222656" stroke-width="0.0" fill="rgb(92, 95, 114)" opacity="0.99638397" stroke="rgb(0, 0, 0)" stroke-opacity="1.0" stroke-linecap="round" stroke-linejoin="round"/>
    <path d="M 277.8201599121094 334.1484680175781 C 276.9810791015625 337.0408935546875 278.5860595703125 339.3982849121094 283.0467224121094 340.7174072265625 C 288.4444885253906 334.8254699707031 287.4994812011719 331.65081787109375 287.0387268066406 330.2251892089844 C 282.0708923339844 328.8614501953125 279.5772399902344 328.88427734375 277.8201599121094 334.1484680175781" stroke-width="0.0" fill="rgb(119, 127, 148)" opacity="1.0004033" stroke="rgb(0, 0, 0)" stroke-opacity="1.0" stroke-linecap="round" stroke-linejoin="round"/>
    <path d="M 215.97520446777344 102.8163833618164 C 216.3783416748047 112.39802551269531 221.8551483154297 117.41018676757812 230.11363220214844 120.18917083740234 C 248.62413024902344 126.5101547241211 267.8882141113281 131.11952209472656 289.07952880859375 134.5856475830078 C 311.1083068847656 137.53367614746094 329.4324951171875 136.9207000732422 352.2714538574219 135.62478637695312 C 363.1522216796875 133.71047973632812 370.84625244140625 129.4288787841797 378.11138916015625 120.3057632446289 C 372.1356201171875 108.32669067382812 364.4837646484375 102.93241119384766 352.7405090332031 101.00595092773438 C 337.7319030761719 94.1745834350586 321.4574890136719 89.45138549804688 302.5332336425781 87.89735412597656 C 281.7034606933594 84.17256927490234 264.0328369140625 85.68363952636719 246.08731079101562 89.02777862548828 C 233.76402282714844 90.59408569335938 224.15701293945312 94.25952911376953 215.97520446777344 102.8163833618164" stroke-width="0.0" fill="rgb(27, 27, 35)" opacity="1.0635471" stroke="rgb(0, 0, 0)" stroke-opacity="1.0" stroke-linecap="round" stroke-linejoin="round"/>
    <path d="M 353.2693786621094 453.31494140625 C 358.41485595703125 475.0241394042969 365.918212890625 492.2646179199219 373.07928466796875 512.679443359375 C 388.7662353515625 514.961669921875 404.2614440917969 515.1868896484375 418.2364501953125 513.4279174804688 C 410.81805419921875 492.45263671875 403.8938903808594 474.82354736328125 394.60540771484375 461.1882019042969 C 379.8050537109375 459.4848327636719 368.1311340332031 455.7677307128906 353.2693786621094 453.31494140625" stroke-width="0.0" fill="rgb(90, 91, 105)" opacity="1.0074877" stroke="rgb(0, 0, 0)" stroke-opacity="1.0" stroke-linecap="round" stroke-linejoin="round"/>
    <path d="M 388.4566650390625 343.49786376953125 C 377.7785339355469 344.0204772949219 370.29669189453125 347.98260498046875 362.3589172363281 353.2047424316406 C 359.6878967285156 365.50469970703125 358.74713134765625 379.86895751953125 358.9922180175781 395.8111572265625 C 366.10955810546875 399.0740051269531 372.4014587402344 400.4444885253906 381.8922424316406 397.53955078125 C 389.8954772949219 394.51531982421875 396.11334228515625 390.46392822265625 402.2666931152344 385.4760437011719 C 405.5845031738281 379.3503112792969 406.5038146972656 372.64898681640625 403.5416564941406 362.00537109375 C 399.9406433105469 354.3554382324219 395.57745361328125 349.2579345703125 388.4566650390625 343.49786376953125" stroke-width="0.0" fill="rgb(25, 24, 27)" opacity="0.998674" stroke="rgb(0, 0, 0)" stroke-opacity="1.0" stroke-linecap="round" stroke-linejoin="round"/>
    <path d="M 357.619140625 415.2807922363281 C 355.6981506347656 426.3093566894531 355.8447265625 437.9499206542969 357.8914794921875 452.7758483886719 C 365.05218505859375 454.82574462890625 373.27880859375 456.4446105957031 386.2542419433594 458.54541015625 C 393.20074462890625 460.8248291015625 398.7196044921875 458.7464904785156 402.264404296875 453.8023681640625 C 405.8200378417969 443.3330993652344 408.7704772949219 433.60223388671875 410.0142822265625 419.6607666015625 C 391.09619140625 416.3360595703125 375.5232849121094 414.7552185058594 357.619140625 415.2807922363281" stroke-width="0.0" fill="rgb(34, 34, 39)" opacity="0.9959628" stroke="rgb(0, 0, 0)" stroke-opacity="1.0" stroke-linecap="round" stroke-linejoin="round"/>
    <path d="M 340.46295166015625 413.3951416015625 C 317.7066650390625 412.6778869628906 300.961669921875 413.80902099609375 285.1514892578125 419.8319396972656 C 276.1960144042969 422.3656311035156 272.0311279296875 427.0106201171875 272.99322509765625 444.1639099121094 C 288.2091064453125 444.96044921875 307.5046081542969 444.66314697265625 334.612060546875 441.90777587890625 C 339.4778747558594 437.1742858886719 342.3074951171875 430.7050476074219 340.46295166015625 413.3951416015625" stroke-width="0.0" fill="rgb(167, 173, 205)" opacity="1.0031724" stroke="rgb(0, 0, 0)" stroke-opacity="1.0" stroke-linecap="round" stroke-linejoin="round"/>
    <path d="M 262.6031494140625 457.27410888671875 C 261.5466613769531 461.2513427734375 261.1255187988281 466.313720703125 263.0824279785156 469.28387451171875 C 272.3007507324219 470.37744140625 279.3501281738281 470.3604431152344 285.08197021484375 468.6714782714844 C 284.8341979980469 463.6226806640625 284.59051513671875 459.8500061035156 283.9864807128906 456.3705139160156 C 276.66802978515625 456.6842041015625 267.8848571777344 457.0493469238281 262.6031494140625 457.27410888671875" stroke-width="0.0" fill="rgb(147, 154, 186)" opacity="1.0002083" stroke="rgb(0, 0, 0)" stroke-opacity="1.0" stroke-linecap="round" stroke-linejoin="round"/>
    <path d="M 262.6634216308594 263.91070556640625 C 262.63800048828125 269.4144287109375 265.8186950683594 272.2694396972656 268.82598876953125 279.35302734375 C 278.1367492675781 282.10882568359375 291.516357421875 283.2048034667969 307.31298828125 280.9338073730469 C 312.18719482421875 277.752197265625 316.45941162109375 276.2003173828125 321.8183288574219 268.3705749511719 C 302.6962890625 266.1838684082031 283.29022216796875 264.5428771972656 262.6634216308594 263.91070556640625" stroke-width="0.0" fill="rgb(14, 13, 14)" opacity="1.0035994" stroke="rgb(0, 0, 0)" stroke-opacity="1.0" stroke-linecap="round" stroke-linejoin="round"/>
    <path d="M 398.1934509277344 83.74246215820312 C 393.4878845214844 91.41598510742188 391.3568115234375 98.5636215209961 390.56890869140625 112.43113708496094 C 393.7128601074219 116.02360534667969 397.63623046875 118.94483184814453 405.500732421875 121.66832733154297 C 407.3704528808594 113.23008728027344 405.6523132324219 104.36357116699219 404.7336120605469 94.3921127319336 C 404.2911682128906 88.8952865600586 403.3777160644531 84.39459991455078 398.1934509277344 83.74246215820312" stroke-width="0.0" fill="rgb(189, 194, 207)" opacity="0.9773028" stroke="rgb(0, 0, 0)" stroke-opacity="1.0" stroke-linecap="round" stroke-linejoin="round"/>
    <path d="M 226.38348388671875 459.83245849609375 C 235.10643005371094 466.5607604980469 244.99942016601562 469.7676086425781 259.97979736328125 471.9230651855469 C 261.46600341796875 463.5221862792969 260.5874938964844 459.7988586425781 259.7276611328125 457.4962158203125 C 245.08030700683594 455.4535217285156 235.28721618652344 452.28533935546875 226.38348388671875 459.83245849609375" stroke-width="0.0" fill="rgb(129, 136, 164)" opacity="0.9891389" stroke="rgb(0, 0, 0)" stroke-opacity="1.0" stroke-linecap="round" stroke-linejoin="round"/>
    <path d="M 301.4178771972656 471.33624267578125 C 308.62799072265625 468.6438903808594 314.6554870605469 464.8410339355469 319.6880187988281 459.0257263183594 C 312.3486328125 452.8761901855469 304.6834411621094 456.5189208984375 296.24212646484375 456.26776123046875 C 297.6695251464844 459.52130126953125 296.458740234375 465.3697814941406 301.4178771972656 471.33624267578125" stroke-width="0.0" fill="rgb(134, 142, 174)" opacity="1.0009358" stroke="rgb(0, 0, 0)" stroke-opacity="1.0" stroke-linecap="round" stroke-linejoin="round"/>
    <path d="M 284.7623291015625 298.1510314941406 C 282.5173034667969 301.0130310058594 280.18341064453125 303.9891357421875 275.8287048339844 308.012939453125 C 281.793701171875 307.47821044921875 281.9851379394531 309.1676025390625 282.1585693359375 318.166259765625 C 285.9090881347656 316.6007995605469 283.2320861816406 311.0639953613281 283.4412536621094 308.4510803222656 C 287.9369201660156 308.6151123046875 290.0242614746094 309.38897705078125 291.8353271484375 311.1077880859375 C 289.84521484375 306.52484130859375 287.616943359375 302.4193115234375 284.7623291015625 298.1510314941406" stroke-width="0.0" fill="rgb(184, 194, 219)" opacity="1.0042276" stroke="rgb(0, 0, 0)" stroke-opacity="1.0" stroke-linecap="round" stroke-linejoin="round"/>
    <path d="M 171.80548095703125 235.61851501464844 C 169.7310028076172 237.62954711914062 169.6694793701172 242.53834533691406 171.02780151367188 251.57362365722656 C 177.22251892089844 248.95831298828125 183.6542205810547 247.83688354492188 186.53941345214844 247.80210876464844 C 196.4722900390625 253.3195037841797 206.1897735595703 259.34246826171875 220.21591186523438 265.8230895996094 C 219.17047119140625 248.9370574951172 218.50506591796875 238.01242065429688 213.945556640625 233.10479736328125 C 202.6551971435547 229.2032012939453 194.71640014648438 225.13050842285156 185.55616760253906 224.8769073486328 C 178.02789306640625 226.66250610351562 174.8677520751953 230.09140014648438 171.80548095703125 235.61851501464844" stroke-width="0.0" fill="rgb(162, 167, 192)" opacity="0.98314285" stroke="rgb(0, 0, 0)" stroke-opacity="1.0" stroke-linecap="round" stroke-linejoin="round"/>
    <path d="M 387.0788269042969 114.77435302734375 C 384.1417541503906 127.38298034667969 379.3865051269531 134.6616668701172 372.6241455078125 143.34617614746094 C 382.5077819824219 146.34591674804688 393.6415710449219 149.5298614501953 408.6469421386719 151.1086883544922 C 412.7021179199219 137.6902313232422 412.3155212402344 132.77078247070312 407.4785461425781 126.98670959472656 C 401.2743225097656 122.25096893310547 394.29412841796875 117.91751861572266 387.0788269042969 114.77435302734375" stroke-width="0.0" fill="rgb(173, 177, 201)" opacity="1.012863" stroke="rgb(0, 0, 0)" stroke-opacity="1.0" stroke-linecap="round" stroke-linejoin="round"/>
    <path d="M 166.8547821044922 251.31312561035156 C 185.4264373779297 255.428466796875 202.81594848632812 261.03515625 215.65548706054688 272.2185974121094 C 217.4044647216797 272.67205810546875 215.7892608642578 269.1521301269531 222.29833984375 264.3467102050781 C 213.2185821533203 257.684814453125 203.3906707763672 252.3089599609375 192.6547088623047 248.43896484375 C 183.32691955566406 243.84483337402344 176.1669464111328 241.61697387695312 166.8547821044922 251.31312561035156" stroke-width="0.0" fill="rgb(47, 47, 55)" opacity="1.0000775" stroke="rgb(0, 0, 0)" stroke-opacity="1.0" stroke-linecap="round" stroke-linejoin="round"/>
    <path d="M 256.4085693359375 386.094482421875 C 257.6149597167969 391.22601318359375 256.1424865722656 399.42950439453125 251.5836181640625 407.6832275390625 C 261.4819030761719 408.2904357910156 267.9740905761719 407.1010437011719 275.0992736816406 404.20068359375 C 279.3719177246094 399.1434631347656 281.1285400390625 392.8157958984375 279.91888427734375 383.2044677734375 C 276.0740661621094 385.6434326171875 278.5486755371094 391.02716064453125 276.9630126953125 395.4986267089844 C 274.8179016113281 391.2147216796875 275.6737365722656 387.2889404296875 276.8730163574219 383.5945739746094 C 268.2558898925781 382.89532470703125 261.3180847167969 384.5314636230469 256.4085693359375 386.094482421875" stroke-width="0.0" fill="rgb(157, 160, 185)" opacity="0.99192274" stroke="rgb(0, 0, 0)" stroke-opacity="1.0" stroke-linecap="round" stroke-linejoin="round"/>
    <path d="M 424.5579528808594 400.96246337890625 C 420.1981506347656 394.097412109375 415.5334777832031 391.8163146972656 411.028076171875 390.9203796386719 C 402.22808837890625 395.896484375 395.2557678222656 400.0959167480469 384.92071533203125 402.9869689941406 C 394.3948669433594 405.2589416503906 401.87310791015625 406.5477600097656 411.54339599609375 406.653076171875 C 416.04534912109375 404.5494689941406 420.7589111328125 403.0478820800781 424.5579528808594 400.96246337890625" stroke-width="0.0" fill="rgb(42, 42, 45)" opacity="0.9868643" stroke="rgb(0, 0, 0)" stroke-opacity="1.0" stroke-linecap="round" stroke-linejoin="round"/>
    <path d="M 207.71218872070312 67.86671447753906 C 201.8818817138672 69.89237213134766 197.73666381835938 72.5252685546875 196.8939971923828 76.45343780517578 C 194.57080078125 85.4912109375 193.30035400390625 91.18427276611328 196.20216369628906 97.9790267944336 C 203.12466430664062 91.44408416748047 206.7748565673828 84.55486297607422 210.22572326660156 77.02605438232422 C 210.5694122314453 72.52262878417969 208.90286254882812 70.31881713867188 207.71218872070312 67.86671447753906" stroke-width="0.0" fill="rgb(223, 227, 241)" opacity="1.0056903" stroke="rgb(0, 0, 0)" stroke-opacity="1.0" stroke-linecap="round" stroke-linejoin="round"/>
    <path d="M 238.31430053710938 231.68946838378906 C 233.98634338378906 236.96897888183594 233.38018798828125 243.8934326171875 233.54869079589844 257.3468933105469 C 240.1603240966797 251.1481475830078 242.56619262695312 248.32933044433594 249.9736785888672 251.62603759765625 C 246.8562774658203 243.55799865722656 245.3021240234375 235.9473876953125 238.31430053710938 231.68946838378906" stroke-width="0.0" fill="rgb(40, 40, 47)" opacity="0.999121" stroke="rgb(0, 0, 0)" stroke-opacity="1.0" stroke-linecap="round" stroke-linejoin="round"/>
    <path d="M 286.6613464355469 456.5771484375 C 286.63311767578125 461.5725402832031 286.50555419921875 466.0949401855469 286.50323486328125 472.045654296875 C 290.4724426269531 471.3512878417969 293.3232727050781 470.93206787109375 296.3193359375 470.7892761230469 C 296.1927185058594 465.6634521484375 296.20587158203125 461.3270263671875 296.1260681152344 457.22515869140625 C 292.9214782714844 456.5323486328125 289.9158935546875 456.3233337402344 286.6613464355469 456.5771484375" stroke-width="0.0" fill="rgb(119, 124, 154)" opacity="1.0000093" stroke="rgb(0, 0, 0)" stroke-opacity="1.0" stroke-linecap="round" stroke-linejoin="round"/>
    <path d="M 238.57630920410156 388.007568359375 C 240.5068817138672 393.62689208984375 244.53933715820312 395.9346618652344 251.2058868408203 397.075927734375 C 257.0276184082031 392.33245849609375 256.7046203613281 390.1060791015625 255.0858154296875 387.6705017089844 C 250.6719970703125 385.2216796875 246.63441467285156 385.01397705078125 238.57630920410156 388.007568359375" stroke-width="0.0" fill="rgb(128, 134, 149)" opacity="1.0042183" stroke="rgb(0, 0, 0)" stroke-opacity="1.0" stroke-linecap="round" stroke-linejoin="round"/>
    <path d="M 193.3047332763672 354.3656311035156 C 196.78936767578125 353.7298583984375 197.95159912109375 353.9627380371094 197.18194580078125 353.8953857421875 C 197.88357543945312 362.13677978515625 199.65957641601562 368.837890625 199.31285095214844 379.00689697265625 C 191.84283447265625 373.51177978515625 192.76199340820312 364.1517028808594 193.3047332763672 354.3656311035156" stroke-width="0.0" fill="rgb(15, 13, 16)" opacity="1.0002608" stroke="rgb(0, 0, 0)" stroke-opacity="1.0" stroke-linecap="round" stroke-linejoin="round"/>
    <path d="M 288.8900146484375 302.7851867675781 C 287.6395263671875 308.5096130371094 287.8103332519531 311.2103271484375 288.46246337890625 313.3116760253906 C 292.2080993652344 313.98931884765625 295.4612121582031 315.6261901855469 298.6531982421875 312.0343017578125 C 297.1743469238281 306.02154541015625 294.66375732421875 303.49652099609375 288.8900146484375 302.7851867675781" stroke-width="0.0" fill="rgb(48, 50, 59)" opacity="0.9959075" stroke="rgb(0, 0, 0)" stroke-opacity="1.0" stroke-linecap="round" stroke-linejoin="round"/>
    <path d="M 217.93861389160156 69.7116928100586 C 217.8358154296875 72.39229583740234 213.48660278320312 78.83033752441406 217.77001953125 82.28426361083984 C 234.52015686035156 75.29686737060547 251.4759521484375 70.48959350585938 270.2975769042969 69.92594909667969 C 288.8118896484375 68.58943176269531 304.192138671875 69.8259048461914 320.2807312011719 73.74488067626953 C 337.0656433105469 76.24478912353516 352.0909118652344 81.48640441894531 364.1786193847656 89.40185546875 C 378.6164855957031 95.19829559326172 386.8671569824219 106.07540893554688 396.28302001953125 120.67430877685547 C 395.7069396972656 107.83128356933594 391.7196350097656 101.9594497680664 391.5216064453125 92.56602478027344 C 386.549560546875 83.712158203125 380.1021423339844 76.55852508544922 372.49163818359375 70.34613037109375 C 359.81158447265625 59.357521057128906 344.2164611816406 51.511688232421875 325.2945556640625 46.601905822753906 C 305.45672607421875 41.52843475341797 287.1523742675781 40.841861724853516 263.54144287109375 45.78508377075195 C 243.88604736328125 51.084693908691406 228.254638671875 59.130455017089844 217.93861389160156 69.7116928100586" stroke-width="0.0" fill="rgb(94, 97, 115)" opacity="0.9985742" stroke="rgb(0, 0, 0)" stroke-opacity="1.0" stroke-linecap="round" stroke-linejoin="round"/>
    <path d="M 207.09320068359375 97.02433013916016 C 195.44117736816406 97.66846466064453 187.772216796875 101.41500854492188 182.59059143066406 108.34150695800781 C 177.23843383789062 116.27296447753906 177.3054656982422 123.31353759765625 180.00396728515625 128.68495178222656 C 192.6049041748047 128.04574584960938 202.62159729003906 127.49470520019531 213.3712921142578 127.22042083740234 C 207.5760955810547 117.62805938720703 205.35739135742188 108.93463897705078 207.09320068359375 97.02433013916016" stroke-width="0.0" fill="rgb(176, 181, 205)" opacity="0.9970759" stroke="rgb(0, 0, 0)" stroke-opacity="1.0" stroke-linecap="round" stroke-linejoin="round"/>
    <path d="M 347.8665466308594 286.5272216796875 C 356.87347412109375 294.2514343261719 364.4052734375 298.6250305175781 369.307373046875 306.8164367675781 C 372.863525390625 309.097900390625 378.2097473144531 309.4100341796875 388.1478271484375 306.97686767578125 C 387.14111328125 298.0237731933594 384.2803039550781 292.5535583496094 379.1601867675781 289.1002197265625 C 369.75518798828125 284.63653564453125 361.5587463378906 284.9439697265625 347.8665466308594 286.5272216796875" stroke-width="0.0" fill="rgb(52, 53, 65)" opacity="0.9761686" stroke="rgb(0, 0, 0)" stroke-opacity="1.0" stroke-linecap="round" stroke-linejoin="round"/>
    <path d="M 385.5464782714844 310.3137512207031 C 379.2213439941406 307.5795593261719 374.4986572265625 306.47900390625 370.7452392578125 306.512939453125 C 368.0991516113281 318.4908142089844 358.1278381347656 324.66412353515625 358.508544921875 341.68328857421875 C 368.5877685546875 338.09521484375 373.05389404296875 333.0401306152344 377.09332275390625 327.322021484375 C 380.9234619140625 322.1943054199219 384.2783203125 317.30633544921875 385.5464782714844 310.3137512207031" stroke-width="0.0" fill="rgb(27, 25, 29)" opacity="0.981974" stroke="rgb(0, 0, 0)" stroke-opacity="1.0" stroke-linecap="round" stroke-linejoin="round"/>
    <path d="M 360.3571472167969 303.67578125 C 352.0658264160156 304.49468994140625 352.0631103515625 308.26849365234375 354.0403137207031 314.40960693359375 C 354.5635986328125 323.0799865722656 355.8841247558594 328.21435546875 362.1533508300781 331.16888427734375 C 369.5056457519531 324.96063232421875 371.90887451171875 319.89178466796875 371.00518798828125 308.50634765625 C 368.6063232421875 304.0814514160156 365.4691162109375 301.92510986328125 360.3571472167969 303.67578125" stroke-width="0.0" fill="rgb(136, 139, 163)" opacity="0.98287463" stroke="rgb(0, 0, 0)" stroke-opacity="1.0" stroke-linecap="round" stroke-linejoin="round"/>
    <path d="M 381.6709289550781 213.79527282714844 C 374.4918518066406 211.21456909179688 370.5610656738281 214.02264404296875 366.49591064453125 217.01283264160156 C 365.6900939941406 221.90020751953125 365.66448974609375 226.3643798828125 368.2479248046875 229.2650909423828 C 373.4389343261719 231.85462951660156 375.46759033203125 230.7416229248047 377.382080078125 227.0243377685547 C 379.7402038574219 223.9434051513672 381.67559814453125 220.4129638671875 381.6709289550781 213.79527282714844" stroke-width="0.0" fill="rgb(42, 43, 53)" opacity="0.9816707" stroke="rgb(0, 0, 0)" stroke-opacity="1.0" stroke-linecap="round" stroke-linejoin="round"/>
    <path d="M 247.569580078125 153.1880340576172 C 247.8613739013672 156.0336456298828 249.69285583496094 156.68341064453125 251.7588653564453 158.24615478515625 C 264.192138671875 160.46530151367188 277.7299499511719 161.04283142089844 299.05511474609375 158.27743530273438 C 281.7237854003906 154.27572631835938 263.0068054199219 155.70132446289062 247.569580078125 153.1880340576172" stroke-width="0.0" fill="rgb(69, 72, 91)" opacity="0.99822265" stroke="rgb(0, 0, 0)" stroke-opacity="1.0" stroke-linecap="round" stroke-linejoin="round"/>
    <path d="M 193.9326171875 409.40313720703125 C 192.3836669921875 411.12701416015625 194.22630310058594 410.9118957519531 198.24649047851562 410.80126953125 C 207.33413696289062 413.9258728027344 217.0353240966797 417.57489013671875 234.0504150390625 415.369873046875 C 222.7270965576172 407.8040466308594 207.91490173339844 409.7837829589844 193.9326171875 409.40313720703125" stroke-width="0.0" fill="rgb(25, 25, 31)" opacity="0.9946532" stroke="rgb(0, 0, 0)" stroke-opacity="1.0" stroke-linecap="round" stroke-linejoin="round"/>
    <path d="M 245.1582794189453 318.97637939453125 C 246.08363342285156 321.8625183105469 250.41055297851562 322.8384094238281 259.1789245605469 322.0602722167969 C 259.9992370605469 315.2362060546875 260.5409851074219 312.72137451171875 259.1678161621094 313.1846923828125 C 250.45245361328125 311.10125732421875 247.48458862304688 309.63934326171875 245.1582794189453 318.97637939453125" stroke-width="0.0" fill="rgb(108, 115, 136)" opacity="1.011591" stroke="rgb(0, 0, 0)" stroke-opacity="1.0" stroke-linecap="round" stroke-linejoin="round"/>
    <path d="M 318.1801452636719 269.5882568359375 C 321.6294860839844 270.7493896484375 327.9671325683594 270.5195007324219 339.2052001953125 270.4675598144531 C 336.1192932128906 264.45660400390625 331.2499694824219 263.3514099121094 329.782470703125 259.9179382324219 C 326.5565185546875 261.9429931640625 322.79205322265625 262.57769775390625 318.1801452636719 269.5882568359375" stroke-width="0.0" fill="rgb(66, 67, 75)" opacity="0.9978561" stroke="rgb(0, 0, 0)" stroke-opacity="1.0" stroke-linecap="round" stroke-linejoin="round"/>
    <path d="M 243.84605407714844 303.88018798828125 C 244.1866455078125 305.7078552246094 249.2215576171875 304.3748779296875 258.5397033691406 303.7144470214844 C 258.4716796875 299.8253173828125 258.1781311035156 297.6826171875 255.2240753173828 296.6927795410156 C 249.17620849609375 295.6134033203125 245.68719482421875 294.48809814453125 243.84605407714844 303.88018798828125" stroke-width="0.0" fill="rgb(129, 133, 158)" opacity="1.0077392" stroke="rgb(0, 0, 0)" stroke-opacity="1.0" stroke-linecap="round" stroke-linejoin="round"/>
    <path d="M 215.5041046142578 236.37973022460938 C 222.0511474609375 236.07164001464844 222.44149780273438 236.34564208984375 220.03265380859375 237.6267852783203 C 224.3095703125 246.33909606933594 223.6375274658203 250.57518005371094 217.16639709472656 253.28936767578125 C 214.12648010253906 242.52723693847656 214.45436096191406 237.51626586914062 215.5041046142578 236.37973022460938" stroke-width="0.0" fill="rgb(55, 56, 67)" opacity="1.0041275" stroke="rgb(0, 0, 0)" stroke-opacity="1.0" stroke-linecap="round" stroke-linejoin="round"/>
    <path d="M 251.3114013671875 357.6015930175781 C 247.483642578125 362.12652587890625 247.45864868164062 363.803955078125 247.38113403320312 366.96142578125 C 251.64671325683594 367.8103332519531 254.74859619140625 368.9514465332031 261.20440673828125 363.9285888671875 C 259.4020690917969 358.3730773925781 255.71665954589844 357.5709228515625 251.3114013671875 357.6015930175781" stroke-width="0.0" fill="rgb(127, 138, 157)" opacity="1.0097305" stroke="rgb(0, 0, 0)" stroke-opacity="1.0" stroke-linecap="round" stroke-linejoin="round"/>
    <path d="M 375.5133056640625 491.30560302734375 C 378.96942138671875 499.325927734375 381.19586181640625 505.4521484375 384.841796875 514.50244140625 C 396.77093505859375 514.9696655273438 409.2458801269531 515.5327758789062 421.0397033691406 514.3240356445312 C 415.0960693359375 496.5945739746094 407.824462890625 485.77752685546875 399.9805908203125 479.3908386230469 C 391.5166931152344 483.7363586425781 380.5116882324219 485.75360107421875 375.5133056640625 491.30560302734375" stroke-width="0.0" fill="rgb(64, 64, 74)" opacity="0.9976876" stroke="rgb(0, 0, 0)" stroke-opacity="1.0" stroke-linecap="round" stroke-linejoin="round"/>
    <path d="M 229.3013916015625 120.73233795166016 C 249.19354248046875 127.2401123046875 270.1261901855469 132.51217651367188 292.7975158691406 135.8744354248047 C 317.28411865234375 136.28517150878906 337.86175537109375 135.85821533203125 357.41015625 133.7621612548828 C 355.603759765625 120.04801177978516 349.85711669921875 115.85841369628906 341.25299072265625 112.71257019042969 C 330.4325256347656 104.38712310791016 317.10333251953125 98.99286651611328 301.8958435058594 96.9488754272461 C 286.17034912109375 94.76995849609375 273.4591369628906 95.73116302490234 262.38812255859375 99.3492202758789 C 247.5498046875 101.5113296508789 237.05149841308594 106.7074203491211 229.3013916015625 120.73233795166016" stroke-width="0.0" fill="rgb(52, 52, 61)" opacity="0.9699096" stroke="rgb(0, 0, 0)" stroke-opacity="1.0" stroke-linecap="round" stroke-linejoin="round"/>
    <path d="M 359.60601806640625 469.0662841796875 C 362.8791809082031 478.8688659667969 369.4665222167969 483.7939147949219 375.7012634277344 491.4123840332031 C 382.86431884765625 491.74566650390625 386.9974060058594 487.6039733886719 390.597412109375 483.6696472167969 C 390.50421142578125 479.719482421875 392.080322265625 476.36212158203125 391.0932312011719 474.8602600097656 C 381.3537292480469 472.2250671386719 372.1946716308594 469.93994140625 359.60601806640625 469.0662841796875" stroke-width="0.0" fill="rgb(91, 93, 109)" opacity="0.9977283" stroke="rgb(0, 0, 0)" stroke-opacity="1.0" stroke-linecap="round" stroke-linejoin="round"/>
    <path d="M 371.7685852050781 368.5814208984375 C 374.9422302246094 370.32037353515625 374.184814453125 374.0868225097656 370.871826171875 373.428466796875 C 368.9072570800781 375.3006896972656 364.5587158203125 379.18817138671875 356.9669189453125 381.6484680175781 C 360.0292663574219 373.0617370605469 365.64666748046875 371.3502502441406 371.7685852050781 368.5814208984375" stroke-width="0.0" fill="rgb(74, 76, 90)" opacity="1.0010966" stroke="rgb(0, 0, 0)" stroke-opacity="1.0" stroke-linecap="round" stroke-linejoin="round"/>
    <path d="M 398.5544738769531 86.93551635742188 C 393.9417419433594 89.97044372558594 391.3400573730469 92.76750946044922 392.5787048339844 96.55485534667969 C 395.4711608886719 103.80624389648438 396.1053771972656 112.01602172851562 400.5930480957031 118.95025634765625 C 404.2496643066406 109.23030853271484 405.40496826171875 101.53572845458984 405.920166015625 93.8631591796875 C 403.3476867675781 89.7200927734375 401.0061950683594 87.56183624267578 398.5544738769531 86.93551635742188" stroke-width="0.0" fill="rgb(217, 221, 232)" opacity="0.99812835" stroke="rgb(0, 0, 0)" stroke-opacity="1.0" stroke-linecap="round" stroke-linejoin="round"/>
    <path d="M 258.8639831542969 471.4313659667969 C 258.7398376464844 463.428955078125 259.01690673828125 458.3099670410156 258.2375793457031 455.1746520996094 C 250.54150390625 456.00189208984375 244.1225128173828 455.6697692871094 238.86500549316406 456.0517578125 C 239.06198120117188 460.51885986328125 240.66751098632812 463.45269775390625 243.5833740234375 466.14886474609375 C 247.59286499023438 468.06695556640625 252.01841735839844 470.0671691894531 258.8639831542969 471.4313659667969" stroke-width="0.0" fill="rgb(154, 160, 191)" opacity="0.99442214" stroke="rgb(0, 0, 0)" stroke-opacity="1.0" stroke-linecap="round" stroke-linejoin="round"/>
    <path d="M 366.5104064941406 489.97314453125 C 366.8474426269531 496.9830322265625 368.3946533203125 503.35626220703125 367.8168640136719 513.3654174804688 C 371.6430969238281 514.7470703125 375.2076110839844 514.9566650390625 377.9013977050781 511.20819091796875 C 375.5218811035156 501.30548095703125 371.8451843261719 495.0030517578125 366.5104064941406 489.97314453125" stroke-width="0.0" fill="rgb(27, 24, 32)" opacity="0.99305314" stroke="rgb(0, 0, 0)" stroke-opacity="1.0" stroke-linecap="round" stroke-linejoin="round"/>
    <path d="M 381.2240295410156 381.28033447265625 C 385.67578125 381.970458984375 380.33819580078125 387.5570068359375 381.8888854980469 384.91571044921875 C 376.61199951171875 388.7388000488281 369.2047424316406 393.0867919921875 355.92578125 394.51605224609375 C 363.49517822265625 386.9505310058594 373.0666198730469 384.68389892578125 381.2240295410156 381.28033447265625" stroke-width="0.0" fill="rgb(48, 51, 63)" opacity="1.0008698" stroke="rgb(0, 0, 0)" stroke-opacity="1.0" stroke-linecap="round" stroke-linejoin="round"/>
    <path d="M 305.4849853515625 113.69548797607422 C 307.4766540527344 120.2603530883789 312.81060791015625 123.09950256347656 321.15142822265625 126.00373077392578 C 329.92779541015625 126.63455200195312 336.44036865234375 125.88186645507812 342.20770263671875 121.38235473632812 C 337.9425354003906 111.02388763427734 331.93499755859375 107.68287658691406 325.2980041503906 106.75357818603516 C 314.8260192871094 106.40436553955078 309.5296325683594 108.09606170654297 305.4849853515625 113.69548797607422" stroke-width="0.0" fill="rgb(80, 80, 120)" opacity="1.0021502" stroke="rgb(0, 0, 0)" stroke-opacity="1.0" stroke-linecap="round" stroke-linejoin="round"/>
    <path d="M 249.58517456054688 112.12939453125 C 250.96200561523438 114.36264038085938 254.6674041748047 117.76443481445312 260.9152526855469 120.76889038085938 C 272.05438232421875 121.17893981933594 278.7057189941406 119.33060455322266 285.0555114746094 110.95145416259766 C 280.28887939453125 103.04190826416016 274.2098693847656 100.0336685180664 266.2849426269531 101.06724548339844 C 256.1932373046875 100.21981048583984 252.68789672851562 102.07476043701172 249.58517456054688 112.12939453125" stroke-width="0.0" fill="rgb(90, 92, 134)" opacity="1.0053859" stroke="rgb(0, 0, 0)" stroke-opacity="1.0" stroke-linecap="round" stroke-linejoin="round"/>
  </g>
</svg>
