<?xml version="1.0" ?>
<svg xmlns="http://www.w3.org/2000/svg" version="1.1" width="512" height="512">
  <defs/>
  <g>
    <path d="M -6.586241722106934 -6.60435676574707 C -6.838466644287109 168.75375366210938 -7.095009803771973 339.3199462890625 -7.220514297485352 518.6439208984375 C 168.75466918945312 518.8989868164062 339.4692077636719 519.2466430664062 519.3516845703125 519.5899047851562 C 519.0973510742188 340.45257568359375 519.1622924804688 170.25656127929688 519.1502075195312 -7.148637294769287 C 339.3285827636719 -7.041748523712158 168.87677001953125 -6.784642696380615 -6.586241722106934 -6.60435676574707" stroke-width="0.0" fill="rgb(153, 141, 129)" opacity="1.0" stroke="rgb(0, 0, 0)" stroke-opacity="1.0" stroke-linecap="round" stroke-linejoin="round"/>
    <path d="M 404.77239990234375 100.29842376708984 C 390.58551025390625 93.06718444824219 378.2129821777344 88.9457778930664 359.577880859375 85.86587524414062 C 340.8982238769531 85.72742462158203 337.2514343261719 84.63362884521484 321.29071044921875 89.08871459960938 C 304.3535461425781 92.62761688232422 289.3465576171875 100.32312774658203 277.64129638671875 108.33448028564453 C 267.48907470703125 115.95439910888672 259.67034912109375 123.19416046142578 251.71182250976562 135.256591796875 C 246.4633026123047 148.30615234375 236.02352905273438 166.90858459472656 236.7532501220703 198.28915405273438 C 237.7112579345703 235.1269073486328 246.5965576171875 238.35308837890625 236.5832061767578 275.02813720703125 C 235.0749053955078 302.22576904296875 243.09800720214844 307.2801208496094 248.7393035888672 313.9892272949219 C 258.6377258300781 322.4792785644531 268.828857421875 321.92242431640625 281.85577392578125 326.4010925292969 C 285.0384826660156 328.4485168457031 283.95538330078125 334.9941711425781 288.4416809082031 335.0793762207031 C 293.15325927734375 347.6599426269531 299.685546875 359.1981506347656 295.3793029785156 378.08514404296875 C 287.0526123046875 395.50494384765625 272.2825927734375 413.68475341796875 260.781494140625 427.69403076171875 C 223.88876342773438 444.3643798828125 195.558837890625 466.5138244628906 165.59161376953125 485.41790771484375 C 159.29493713378906 490.53082275390625 153.02500915527344 497.460205078125 148.73410034179688 500.9848937988281 C 146.30206298828125 509.2029724121094 142.9727783203125 502.6772766113281 152.35670471191406 521.5560913085938 C 270.1690979003906 521.733154296875 388.40106201171875 521.3914184570312 505.705810546875 520.169677734375 C 497.7201232910156 482.51519775390625 518.7958984375 479.4783630371094 501.49530029296875 459.40167236328125 C 482.21087646484375 452.2691650390625 473.8819885253906 443.57012939453125 455.3285827636719 423.2801513671875 C 439.68658447265625 406.0752258300781 421.52044677734375 390.5499572753906 415.5889587402344 370.82611083984375 C 412.8662109375 357.19512939453125 417.0435791015625 340.4100036621094 423.5207214355469 326.85980224609375 C 440.5113220214844 302.8682861328125 448.6948547363281 279.009033203125 468.3926086425781 262.3001403808594 C 479.0033264160156 243.80247497558594 484.8717041015625 232.3013153076172 472.76806640625 205.2701416015625 C 453.4170837402344 189.3260955810547 453.19696044921875 156.451171875 433.11669921875 128.72683715820312 C 426.5362854003906 116.03292846679688 413.7624206542969 106.27447509765625 404.77239990234375 100.29842376708984" stroke-width="0.0" fill="rgb(28, 16, 11)" opacity="1.0" stroke="rgb(0, 0, 0)" stroke-opacity="1.0" stroke-linecap="round" stroke-linejoin="round"/>
    <path d="M 153.94798278808594 359.4679870605469 C 151.01010131835938 357.37384033203125 139.86285400390625 357.48583984375 137.88246154785156 356.5874328613281 C 88.00736236572266 353.107421875 40.70891571044922 355.25750732421875 -6.862722396850586 360.24969482421875 C -0.42922431230545044 411.0 -0.31661659479141235 461.0 -0.9888852834701538 518.8734741210938 C 35.9473876953125 518.9775390625 72.54833221435547 518.9632568359375 99.24214172363281 512.5484619140625 C 115.9188232421875 511.5372009277344 125.03921508789062 510.2489318847656 131.35513305664062 503.6423645019531 C 141.6933135986328 494.03900146484375 149.21868896484375 481.91094970703125 156.43212890625 468.1361999511719 C 157.35995483398438 424.271484375 159.85650634765625 379.1424255371094 153.94798278808594 359.4679870605469" stroke-width="0.0" fill="rgb(50, 37, 25)" opacity="1.0" stroke="rgb(0, 0, 0)" stroke-opacity="1.0" stroke-linecap="round" stroke-linejoin="round"/>
    <path d="M 433.16845703125 -4.836174964904785 C 433.792724609375 11.433568954467773 436.2935791015625 21.2175235748291 441.6077880859375 31.284448623657227 C 458.89398193359375 47.1495361328125 476.15277099609375 62.43259048461914 484.6952819824219 82.49005889892578 C 495.6956787109375 82.1912841796875 498.6688232421875 99.99610900878906 506.9033203125 91.37844848632812 C 507.96978759765625 99.54524230957031 509.5384216308594 98.75669860839844 520.846923828125 104.46904754638672 C 518.905517578125 69.06187438964844 518.6762084960938 34.476661682128906 518.75 -3.447042226791382 C 484.9032897949219 -5.56618595123291 458.6231384277344 -6.204249382019043 433.16845703125 -4.836174964904785" stroke-width="0.0" fill="rgb(169, 161, 151)" opacity="1.0" stroke="rgb(0, 0, 0)" stroke-opacity="1.0" stroke-linecap="round" stroke-linejoin="round"/>
    <path d="M -5.114838600158691 91.85330963134766 C -6.668383598327637 103.75945281982422 -4.832007884979248 117.20170593261719 -3.6332662105560303 131.7803192138672 C 12.232593536376953 130.8870391845703 0.6429328322410583 127.49562072753906 11.608541488647461 134.365478515625 C 15.043633460998535 140.98995971679688 17.91632080078125 150.27334594726562 26.727243423461914 154.4273681640625 C 27.619352340698242 156.75689697265625 40.48884963989258 158.85560607910156 42.471195220947266 154.0362548828125 C 44.96671676635742 154.69403076171875 47.64746856689453 143.11553955078125 44.78129959106445 135.6937713623047 C 40.25600051879883 128.37295532226562 31.871625900268555 126.76798248291016 19.925493240356445 126.66458892822266 C 19.860898971557617 123.50299072265625 19.5430908203125 110.74308776855469 16.781408309936523 105.27738189697266 C 12.241954803466797 99.4986572265625 7.5108489990234375 95.8216552734375 -5.114838600158691 91.85330963134766" stroke-width="0.0" fill="rgb(241, 241, 237)" opacity="1.0" stroke="rgb(0, 0, 0)" stroke-opacity="1.0" stroke-linecap="round" stroke-linejoin="round"/>
    <path d="M 5.166398048400879 -5.639998435974121 C 5.12087869644165 9.205315589904785 2.619933843612671 10.618577003479004 9.302886009216309 14.663973808288574 C 16.972562789916992 17.692310333251953 26.979202270507812 15.475082397460938 29.0322265625 11.367280006408691 C 30.730966567993164 8.554130554199219 31.271135330200195 1.104244351387024 31.87508773803711 -7.30518102645874 C 21.502033233642578 -5.97753381729126 11.867888450622559 -5.914224147796631 5.166398048400879 -5.639998435974121" stroke-width="0.0" fill="rgb(241, 241, 237)" opacity="1.0" stroke="rgb(0, 0, 0)" stroke-opacity="1.0" stroke-linecap="round" stroke-linejoin="round"/>
    <path d="M 467.1676940917969 268.0261535644531 C 448.6450500488281 280.3415222167969 441.57403564453125 306.49371337890625 426.0062255859375 325.54071044921875 C 420.0822448730469 334.25140380859375 418.4879455566406 341.87060546875 415.7545166015625 355.37432861328125 C 416.14398193359375 360.20196533203125 414.88165283203125 371.2698059082031 417.7733459472656 375.1503601074219 C 428.3096618652344 386.1456298828125 441.0073547363281 398.9451904296875 454.0177917480469 411.9932556152344 C 468.9158630371094 409.3290100097656 462.586181640625 393.6712646484375 470.154296875 405.38348388671875 C 468.6162414550781 366.1475830078125 468.6900329589844 312.1339416503906 467.1676940917969 268.0261535644531" stroke-width="0.0" fill="rgb(200, 193, 185)" opacity="1.0" stroke="rgb(0, 0, 0)" stroke-opacity="1.0" stroke-linecap="round" stroke-linejoin="round"/>
    <path d="M 172.74658203125 -7.499846458435059 C 174.5449981689453 4.474930286407471 179.41836547851562 13.300385475158691 186.41363525390625 14.26868724822998 C 195.4220428466797 14.953327178955078 194.2276153564453 8.253683090209961 202.15501403808594 -4.158755302429199 C 193.22677612304688 -6.517133712768555 185.79660034179688 -6.896359443664551 172.74658203125 -7.499846458435059" stroke-width="0.0" fill="rgb(241, 241, 237)" opacity="1.0" stroke="rgb(0, 0, 0)" stroke-opacity="1.0" stroke-linecap="round" stroke-linejoin="round"/>
    <path d="M 161.67742919921875 478.86737060546875 C 187.55836486816406 467.29638671875 208.0267791748047 450.3115539550781 231.2906036376953 437.2709655761719 C 240.77572631835938 427.89154052734375 253.03598022460938 421.42041015625 261.23974609375 409.24884033203125 C 248.70790100097656 399.9006042480469 237.6822052001953 387.4749450683594 235.394287109375 381.68408203125 C 201.31903076171875 375.03253173828125 176.16128540039062 384.96612548828125 163.0745086669922 372.05670166015625 C 160.14768981933594 400.74688720703125 163.16200256347656 442.7917785644531 161.67742919921875 478.86737060546875" stroke-width="0.0" fill="rgb(135, 117, 102)" opacity="1.0" stroke="rgb(0, 0, 0)" stroke-opacity="1.0" stroke-linecap="round" stroke-linejoin="round"/>
    <path d="M -7.515356540679932 311.96435546875 C -7.214559078216553 325.8515930175781 -6.806672096252441 337.0212097167969 -4.378162384033203 346.4054870605469 C 23.577442169189453 344.3089294433594 51.8365592956543 347.50457763671875 65.48880004882812 345.5047912597656 C 70.36998748779297 335.9863586425781 66.95547485351562 318.5931091308594 68.52645874023438 311.1437683105469 C 37.85141372680664 310.9765625 12.436230659484863 307.761962890625 -7.515356540679932 311.96435546875" stroke-width="0.0" fill="rgb(57, 44, 32)" opacity="1.0" stroke="rgb(0, 0, 0)" stroke-opacity="1.0" stroke-linecap="round" stroke-linejoin="round"/>
    <path d="M 73.86068725585938 312.8915100097656 C 76.11962890625 317.4124450683594 85.52344512939453 322.2112731933594 92.77938842773438 315.28411865234375 C 111.14164733886719 291.3733215332031 130.6853485107422 289.7680358886719 149.3931427001953 279.11639404296875 C 152.4229736328125 265.7736511230469 135.07595825195312 278.2817077636719 108.71232604980469 276.2919616699219 C 101.83030700683594 272.41796875 98.29116821289062 258.51220703125 86.69558715820312 257.37493896484375 C 77.64228820800781 273.5592346191406 75.70095825195312 289.65533447265625 73.86068725585938 312.8915100097656" stroke-width="0.0" fill="rgb(69, 51, 31)" opacity="1.0" stroke="rgb(0, 0, 0)" stroke-opacity="1.0" stroke-linecap="round" stroke-linejoin="round"/>
    <path d="M -5.31339168548584 350.6132507324219 C -6.644134521484375 348.7564697265625 -5.112309455871582 355.9544982910156 -8.879976272583008 359.55682373046875 C 58.518287658691406 357.9587707519531 125.76741790771484 349.5621643066406 158.81033325195312 362.934326171875 C 161.83370971679688 362.0183410644531 166.46322631835938 351.72705078125 158.56903076171875 351.01312255859375 C 112.49835205078125 351.90277099609375 58.71759033203125 348.17205810546875 -5.31339168548584 350.6132507324219" stroke-width="0.0" fill="rgb(50, 37, 25)" opacity="1.0" stroke="rgb(0, 0, 0)" stroke-opacity="1.0" stroke-linecap="round" stroke-linejoin="round"/>
    <path d="M 394.2203369140625 93.38616180419922 C 414.30914306640625 104.08029174804688 431.12628173828125 117.32421112060547 441.69189453125 139.7049102783203 C 451.41241455078125 129.10643005371094 452.88519287109375 116.76567077636719 452.0421447753906 107.27916717529297 C 450.45123291015625 97.85082244873047 446.5151672363281 92.91687774658203 441.3249816894531 88.89129638671875 C 434.1063537597656 84.22160339355469 426.8158874511719 80.54788208007812 417.50347900390625 79.84136199951172 C 410.3420715332031 81.80961608886719 402.0926208496094 88.2644271850586 394.2203369140625 93.38616180419922" stroke-width="0.0" fill="rgb(185, 177, 167)" opacity="1.0" stroke="rgb(0, 0, 0)" stroke-opacity="1.0" stroke-linecap="round" stroke-linejoin="round"/>
    <path d="M 457.36785888671875 416.09515380859375 C 471.0244445800781 430.83087158203125 497.99407958984375 438.2867126464844 511.5341491699219 459.6250915527344 C 518.556884765625 439.46868896484375 518.7103881835938 422.1755676269531 518.4092407226562 406.0445251464844 C 499.365966796875 405.0454406738281 483.5893859863281 407.98388671875 468.0296936035156 406.64361572265625 C 466.9064636230469 415.7007141113281 458.7958984375 410.29766845703125 457.36785888671875 416.09515380859375" stroke-width="0.0" fill="rgb(143, 128, 115)" opacity="1.0" stroke="rgb(0, 0, 0)" stroke-opacity="1.0" stroke-linecap="round" stroke-linejoin="round"/>
    <path d="M 478.3847351074219 253.7611846923828 C 471.8122253417969 255.01492309570312 469.90960693359375 263.7943115234375 465.7281188964844 268.5672302246094 C 470.0869445800781 318.1033935546875 467.5315856933594 373.2301940917969 470.5450134277344 408.1036376953125 C 477.70709228515625 361.3618469238281 476.4464111328125 307.4788513183594 478.3847351074219 253.7611846923828" stroke-width="0.0" fill="rgb(63, 51, 44)" opacity="1.0" stroke="rgb(0, 0, 0)" stroke-opacity="1.0" stroke-linecap="round" stroke-linejoin="round"/>
    <path d="M 76.13198852539062 339.2104797363281 C 73.69306182861328 348.175537109375 81.04682922363281 344.8439636230469 93.38497924804688 348.03759765625 C 103.50462341308594 345.9148254394531 122.12079620361328 348.590576171875 128.4232635498047 343.62298583984375 C 129.2425079345703 337.9072570800781 120.39997100830078 336.05206298828125 117.28140258789062 329.8095397949219 C 105.0557861328125 325.5041809082031 102.1453628540039 325.1372375488281 90.41889953613281 325.7209167480469 C 87.0668716430664 327.0325622558594 76.21440124511719 338.32366943359375 76.13198852539062 339.2104797363281" stroke-width="0.0" fill="rgb(153, 141, 129)" opacity="1.0" stroke="rgb(0, 0, 0)" stroke-opacity="1.0" stroke-linecap="round" stroke-linejoin="round"/>
    <path d="M 232.18948364257812 329.57061767578125 C 227.37071228027344 323.1550598144531 224.5524139404297 328.4341735839844 224.11370849609375 330.7658386230469 C 222.9234161376953 338.11260986328125 221.02284240722656 357.5635986328125 225.5506591796875 363.347900390625 C 230.17665100097656 349.9809875488281 236.24130249023438 343.5429992675781 232.18948364257812 329.57061767578125" stroke-width="0.0" fill="rgb(74, 61, 53)" opacity="1.0" stroke="rgb(0, 0, 0)" stroke-opacity="1.0" stroke-linecap="round" stroke-linejoin="round"/>
    <path d="M 269.46331787109375 -8.118097305297852 C 265.9963684082031 4.982436180114746 266.20440673828125 11.339643478393555 264.8138122558594 16.04241943359375 C 270.12249755859375 20.076152801513672 271.9357604980469 34.551937103271484 277.3260498046875 42.68704605102539 C 278.8653564453125 69.33024597167969 271.7392883300781 99.02278137207031 280.849609375 101.84361267089844 C 298.66595458984375 95.24988555908203 313.0439758300781 86.83065795898438 336.7488708496094 84.41622161865234 C 354.72283935546875 82.76101684570312 371.7712097167969 85.6100082397461 389.9945983886719 90.81452941894531 C 396.8943786621094 82.14855194091797 408.1520690917969 76.833740234375 413.2988586425781 65.72624206542969 C 404.70635986328125 53.84382629394531 401.65435791015625 46.96400451660156 393.3656921386719 46.3847541809082 C 376.6056213378906 30.341245651245117 377.2295227050781 10.566317558288574 362.5286560058594 -4.703915119171143 C 331.23455810546875 -8.310578346252441 298.1812438964844 -8.380439758300781 269.46331787109375 -8.118097305297852" stroke-width="0.0" fill="rgb(82, 65, 50)" opacity="1.0" stroke="rgb(0, 0, 0)" stroke-opacity="1.0" stroke-linecap="round" stroke-linejoin="round"/>
    <path d="M 242.32498168945312 314.5175476074219 C 243.47833251953125 324.118408203125 228.6082763671875 321.1868591308594 231.90855407714844 329.0262451171875 C 237.2998809814453 339.4651184082031 226.68150329589844 348.39215087890625 232.1403350830078 372.4877624511719 C 236.53684997558594 374.26495361328125 239.28103637695312 379.70782470703125 241.84495544433594 390.498779296875 C 250.1500701904297 400.25018310546875 256.2249450683594 394.4223937988281 261.7955627441406 408.6493225097656 C 272.7820129394531 397.3130187988281 282.0401916503906 388.58123779296875 292.4406433105469 381.7506103515625 C 297.6285705566406 371.66619873046875 294.2701721191406 358.7528076171875 293.9774169921875 353.4866027832031 C 290.73004150390625 344.341064453125 289.3125915527344 335.04681396484375 283.6642150878906 329.1973876953125 C 277.28985595703125 324.4281005859375 260.85723876953125 328.0076599121094 249.30392456054688 322.6569519042969 C 246.48045349121094 320.3139343261719 244.25584411621094 322.1490783691406 242.32498168945312 314.5175476074219" stroke-width="0.0" fill="rgb(200, 193, 185)" opacity="1.0" stroke="rgb(0, 0, 0)" stroke-opacity="1.0" stroke-linecap="round" stroke-linejoin="round"/>
    <path d="M 53.1307373046875 254.8516845703125 C 29.889511108398438 249.55130004882812 22.945512771606445 262.13055419921875 -3.8083808422088623 266.2475891113281 C -6.028425216674805 278.58447265625 -6.4576191902160645 294.5641784667969 -6.883611679077148 308.39471435546875 C 20.89242172241211 306.8166809082031 47.79426956176758 309.87408447265625 58.54246139526367 306.1875305175781 C 65.44478607177734 305.1031799316406 54.95394515991211 304.3294982910156 54.099082946777344 303.6134033203125 C 54.84560012817383 285.42474365234375 52.6209831237793 269.0302734375 53.1307373046875 254.8516845703125" stroke-width="0.0" fill="rgb(143, 128, 115)" opacity="1.0" stroke="rgb(0, 0, 0)" stroke-opacity="1.0" stroke-linecap="round" stroke-linejoin="round"/>
    <path d="M 59.319190979003906 257.7890625 C 62.36574172973633 264.14093017578125 60.676883697509766 269.2351989746094 59.734764099121094 276.770263671875 C 59.638465881347656 282.516845703125 64.76895141601562 293.343505859375 74.45648956298828 300.28790283203125 C 71.77726745605469 305.0174255371094 82.19202423095703 283.3703308105469 78.98954010009766 285.89556884765625 C 77.51615905761719 289.406005859375 79.95282745361328 279.515869140625 77.3135986328125 295.9403076171875 C 72.2532958984375 284.9912109375 84.5313720703125 274.9109802246094 84.5069808959961 258.3377685546875 C 75.72130584716797 254.51222229003906 67.70814514160156 248.62689208984375 59.319190979003906 257.7890625" stroke-width="0.0" fill="rgb(200, 193, 185)" opacity="1.0" stroke="rgb(0, 0, 0)" stroke-opacity="1.0" stroke-linecap="round" stroke-linejoin="round"/>
    <path d="M 104.61548614501953 24.087535858154297 C 105.32355499267578 16.35896110534668 90.14476776123047 21.174631118774414 89.52470397949219 20.88806915283203 C 76.8298110961914 32.8653564453125 84.32015991210938 38.577938079833984 71.46587371826172 41.726741790771484 C 67.33430480957031 48.85600280761719 71.03794860839844 53.31926727294922 72.21296691894531 55.08829879760742 C 73.2295150756836 56.78288650512695 85.5469970703125 60.33831787109375 92.31832122802734 53.7519645690918 C 94.07215881347656 32.09162521362305 97.72563934326172 36.63603591918945 104.61548614501953 24.087535858154297" stroke-width="0.0" fill="rgb(241, 241, 237)" opacity="1.0" stroke="rgb(0, 0, 0)" stroke-opacity="1.0" stroke-linecap="round" stroke-linejoin="round"/>
    <path d="M -8.147018432617188 173.36326599121094 C -7.289085865020752 180.92337036132812 -9.861440658569336 197.9222869873047 -5.570756912231445 205.68673706054688 C 12.197282791137695 206.6080780029297 7.32687520980835 196.98158264160156 11.315162658691406 181.18338012695312 C 8.968064308166504 173.05242919921875 8.76842212677002 171.55029296875 -8.147018432617188 173.36326599121094" stroke-width="0.0" fill="rgb(185, 177, 167)" opacity="1.0" stroke="rgb(0, 0, 0)" stroke-opacity="1.0" stroke-linecap="round" stroke-linejoin="round"/>
    <path d="M 519.9534912109375 95.32585906982422 C 506.54876708984375 97.78299713134766 502.2898254394531 101.42379760742188 499.36572265625 110.76898193359375 C 503.7210998535156 108.046142578125 503.40576171875 114.17962646484375 518.6494750976562 120.82203674316406 C 521.4697875976562 116.16814422607422 521.568359375 109.12003326416016 519.9534912109375 95.32585906982422" stroke-width="0.0" fill="rgb(108, 91, 77)" opacity="1.0" stroke="rgb(0, 0, 0)" stroke-opacity="1.0" stroke-linecap="round" stroke-linejoin="round"/>
    <path d="M 189.5952911376953 196.8113555908203 C 185.31956481933594 199.29043579101562 178.93576049804688 208.24012756347656 177.36912536621094 212.8801727294922 C 171.57577514648438 213.4199981689453 157.37139892578125 206.51388549804688 164.89157104492188 209.4429473876953 C 170.3311767578125 233.20953369140625 155.29495239257812 222.8851318359375 154.23681640625 250.09104919433594 C 155.96310424804688 277.16168212890625 156.9936065673828 307.9324035644531 154.95755004882812 331.83209228515625 C 157.48829650878906 349.5809326171875 168.87789916992188 342.8184814453125 168.96006774902344 364.73358154296875 C 164.01907348632812 374.97528076171875 180.56027221679688 372.8726806640625 176.1762237548828 403.2137756347656 C 188.11495971679688 398.4154968261719 192.0388641357422 383.8268737792969 190.30670166015625 370.4200744628906 C 189.4353485107422 367.9040222167969 196.11227416992188 373.74456787109375 197.1256103515625 375.67059326171875 C 200.78074645996094 351.44720458984375 198.16307067871094 321.5863342285156 199.42091369628906 296.1180725097656 C 192.59632873535156 271.86016845703125 197.21719360351562 255.33314514160156 189.5985870361328 266.0254821777344 C 191.47723388671875 250.5714874267578 194.6935272216797 237.7510986328125 198.7271728515625 227.2289581298828 C 191.0323944091797 218.6845703125 199.97059631347656 205.40232849121094 189.5952911376953 196.8113555908203" stroke-width="0.0" fill="rgb(153, 141, 129)" opacity="1.0" stroke="rgb(0, 0, 0)" stroke-opacity="1.0" stroke-linecap="round" stroke-linejoin="round"/>
    <path d="M 521.4520263671875 243.27418518066406 C 497.8834533691406 246.40908813476562 485.0869445800781 238.7619171142578 481.82733154296875 247.55702209472656 C 472.38623046875 288.8864440917969 478.3157653808594 335.1520080566406 474.6645812988281 390.32818603515625 C 483.87945556640625 386.44049072265625 501.0708312988281 390.5051574707031 518.2810668945312 381.2109375 C 519.0401611328125 336.5747985839844 519.0905151367188 290.31085205078125 521.4520263671875 243.27418518066406" stroke-width="0.0" fill="rgb(169, 161, 151)" opacity="1.0" stroke="rgb(0, 0, 0)" stroke-opacity="1.0" stroke-linecap="round" stroke-linejoin="round"/>
    <path d="M 64.90771484375 222.83436584472656 C 48.84383010864258 221.7765655517578 60.72257614135742 234.6535186767578 36.443607330322266 227.3653564453125 C 29.54590606689453 218.5211639404297 28.291744232177734 207.0734405517578 18.43220329284668 196.97666931152344 C 6.243071556091309 195.75892639160156 9.225129127502441 199.27464294433594 2.232621192932129 204.84486389160156 C -11.173282623291016 207.9994354248047 -11.496082305908203 232.93052673339844 -10.339317321777344 265.685546875 C 24.267568588256836 266.8542785644531 21.318359375 250.77371215820312 42.07693862915039 251.86328125 C 45.5772590637207 233.4776153564453 66.06695556640625 242.4908905029297 64.90771484375 222.83436584472656" stroke-width="0.0" fill="rgb(143, 128, 115)" opacity="1.0" stroke="rgb(0, 0, 0)" stroke-opacity="1.0" stroke-linecap="round" stroke-linejoin="round"/>
    <path d="M 455.95977783203125 169.68704223632812 C 454.6351318359375 185.6350860595703 463.9997863769531 188.13169860839844 470.5756530761719 198.834228515625 C 479.3861389160156 191.59461975097656 493.3395690917969 195.1610565185547 497.3544006347656 185.27835083007812 C 504.38494873046875 183.1519012451172 506.6688232421875 186.31637573242188 517.3925170898438 194.29408264160156 C 519.2697143554688 175.81861877441406 520.9308471679688 162.5349884033203 523.4773559570312 155.53030395507812 C 494.5155334472656 158.0025634765625 490.8382873535156 155.49864196777344 481.073974609375 150.6620330810547 C 472.65863037109375 156.9878692626953 460.2991027832031 160.78225708007812 455.95977783203125 169.68704223632812" stroke-width="0.0" fill="rgb(169, 161, 151)" opacity="1.0" stroke="rgb(0, 0, 0)" stroke-opacity="1.0" stroke-linecap="round" stroke-linejoin="round"/>
    <path d="M 502.6033630371094 183.50491333007812 C 487.33160400390625 189.57424926757812 485.73284912109375 199.39039611816406 478.4791564941406 205.05577087402344 C 481.2036437988281 219.26809692382812 487.56121826171875 228.2706298828125 487.9513854980469 239.8300018310547 C 492.9734191894531 240.26678466796875 497.07122802734375 243.17568969726562 504.87445068359375 241.76068115234375 C 506.7265625 240.7855682373047 509.9561767578125 241.86915588378906 517.4774780273438 236.50531005859375 C 518.5783081054688 222.94374084472656 518.6179809570312 207.54859924316406 515.9129638671875 195.38717651367188 C 509.4063720703125 189.15464782714844 506.93743896484375 184.66976928710938 502.6033630371094 183.50491333007812" stroke-width="0.0" fill="rgb(143, 128, 115)" opacity="1.0" stroke="rgb(0, 0, 0)" stroke-opacity="1.0" stroke-linecap="round" stroke-linejoin="round"/>
    <path d="M 113.38648223876953 300.8257141113281 C 112.81202697753906 305.75164794921875 116.7372055053711 315.8851318359375 112.55329132080078 321.1163330078125 C 113.70743560791016 324.49517822265625 120.20037078857422 331.101806640625 125.05452728271484 336.24456787109375 C 134.38685607910156 342.0789794921875 141.0659637451172 339.4507751464844 150.55484008789062 339.2969055175781 C 152.9602508544922 324.6818542480469 148.3231201171875 314.0794982910156 144.3972625732422 307.8630676269531 C 138.8197784423828 304.3113098144531 126.11498260498047 305.1978759765625 122.56975555419922 309.7911376953125 C 120.14762115478516 301.1339111328125 121.8940658569336 298.16192626953125 113.38648223876953 300.8257141113281" stroke-width="0.0" fill="rgb(169, 161, 151)" opacity="1.0" stroke="rgb(0, 0, 0)" stroke-opacity="1.0" stroke-linecap="round" stroke-linejoin="round"/>
    <path d="M 490.4603271484375 111.41449737548828 C 491.9207763671875 131.7939453125 493.4805908203125 118.07122039794922 483.851806640625 141.40484619140625 C 484.5149230957031 150.89511108398438 491.804931640625 154.608642578125 503.4972229003906 154.48423767089844 C 508.1546936035156 146.1549072265625 508.5635986328125 131.2356414794922 513.6471557617188 117.64308166503906 C 498.42755126953125 114.84878540039062 498.792724609375 96.35317993164062 490.4603271484375 111.41449737548828" stroke-width="0.0" fill="rgb(185, 177, 167)" opacity="1.0" stroke="rgb(0, 0, 0)" stroke-opacity="1.0" stroke-linecap="round" stroke-linejoin="round"/>
    <path d="M 61.533084869384766 82.6635513305664 C 54.40066146850586 84.83056640625 52.8997688293457 92.26499938964844 45.76199722290039 92.08573913574219 C 55.337921142578125 111.24006652832031 44.59100341796875 110.84041595458984 52.46894836425781 120.3183822631836 C 58.629356384277344 126.16162872314453 61.18073654174805 121.08238983154297 63.5808219909668 112.90665435791016 C 61.074195861816406 96.573974609375 67.19342041015625 88.46046447753906 61.533084869384766 82.6635513305664" stroke-width="0.0" fill="rgb(119, 110, 103)" opacity="1.0" stroke="rgb(0, 0, 0)" stroke-opacity="1.0" stroke-linecap="round" stroke-linejoin="round"/>
    <path d="M 136.50579833984375 53.38874053955078 C 121.2527847290039 56.26907730102539 129.3362274169922 67.0159912109375 126.60712432861328 76.67562866210938 C 130.2881622314453 78.328125 130.2318878173828 83.36176300048828 139.0795135498047 82.03958892822266 C 139.6668701171875 79.1768569946289 144.6887969970703 77.30020141601562 142.60415649414062 73.41383361816406 C 141.4586639404297 65.33203125 136.0019989013672 60.435176849365234 136.50579833984375 53.38874053955078" stroke-width="0.0" fill="rgb(122, 105, 91)" opacity="1.0" stroke="rgb(0, 0, 0)" stroke-opacity="1.0" stroke-linecap="round" stroke-linejoin="round"/>
    <path d="M 34.84685516357422 74.24787139892578 C 32.16014862060547 78.53242492675781 29.444400787353516 75.81287384033203 31.409915924072266 84.35404968261719 C 37.868988037109375 89.14767456054688 41.6651611328125 99.72151947021484 48.46782684326172 100.28379821777344 C 50.615482330322266 95.26628112792969 49.19025802612305 80.99750518798828 47.81618881225586 79.81770324707031 C 43.64398193359375 76.20433807373047 42.302120208740234 72.64620971679688 34.84685516357422 74.24787139892578" stroke-width="0.0" fill="rgb(119, 110, 103)" opacity="1.0" stroke="rgb(0, 0, 0)" stroke-opacity="1.0" stroke-linecap="round" stroke-linejoin="round"/>
    <path d="M 122.73262023925781 227.0959014892578 C 117.97648620605469 230.5724334716797 115.48603820800781 241.13563537597656 111.7725830078125 249.8603057861328 C 110.23700714111328 264.2908630371094 108.8855209350586 270.5365295410156 116.60722351074219 266.5775146484375 C 116.01930236816406 252.8752899169922 124.88725280761719 244.67735290527344 122.73262023925781 227.0959014892578" stroke-width="0.0" fill="rgb(143, 128, 115)" opacity="1.0" stroke="rgb(0, 0, 0)" stroke-opacity="1.0" stroke-linecap="round" stroke-linejoin="round"/>
    <path d="M 130.27981567382812 344.0485534667969 C 129.26405334472656 348.94781494140625 145.07008361816406 347.7789001464844 158.07740783691406 348.34906005859375 C 161.45425415039062 341.5409240722656 158.4059600830078 345.0074768066406 154.65850830078125 338.6434631347656 C 134.17422485351562 341.9095458984375 132.04461669921875 334.7111511230469 130.27981567382812 344.0485534667969" stroke-width="0.0" fill="rgb(153, 141, 129)" opacity="1.0" stroke="rgb(0, 0, 0)" stroke-opacity="1.0" stroke-linecap="round" stroke-linejoin="round"/>
    <path d="M 517.2791137695312 384.310302734375 C 504.2317810058594 383.0658264160156 502.784423828125 389.4007873535156 497.13922119140625 394.026611328125 C 500.09185791015625 398.5057678222656 506.7587890625 396.00164794921875 517.3546752929688 394.03179931640625 C 518.7213134765625 389.3966369628906 519.7520751953125 383.9733581542969 517.2791137695312 384.310302734375" stroke-width="0.0" fill="rgb(153, 141, 129)" opacity="1.0" stroke="rgb(0, 0, 0)" stroke-opacity="1.0" stroke-linecap="round" stroke-linejoin="round"/>
    <path d="M 434.1005554199219 192.22093200683594 C 382.302978515625 196.58731079101562 344.6129455566406 207.27145385742188 309.9489440917969 219.7345733642578 C 293.53179931640625 226.08187866210938 278.7745666503906 232.95790100097656 265.1707763671875 242.29412841796875 C 256.9486389160156 248.59353637695312 247.88084411621094 256.2657775878906 242.9285888671875 271.7489318847656 C 241.21664428710938 283.0272521972656 248.987060546875 293.732177734375 249.77032470703125 310.66571044921875 C 256.1653137207031 316.6473083496094 270.92852783203125 321.5737609863281 282.5957946777344 327.2997741699219 C 290.2084045410156 337.4769287109375 296.0707092285156 349.30572509765625 297.08807373046875 369.8728332519531 C 294.250732421875 390.560302734375 276.14886474609375 402.0914611816406 281.0736389160156 427.8154602050781 C 278.6221618652344 453.96978759765625 280.0041198730469 484.5885314941406 282.86785888671875 522.0869750976562 C 331.2397766113281 522.573486328125 376.1967468261719 522.7230834960938 417.4290771484375 522.3387451171875 C 415.0435791015625 469.73284912109375 419.3929748535156 431.9465637207031 424.4900817871094 393.904541015625 C 418.6942443847656 378.8408203125 411.3313903808594 371.29632568359375 416.5919189453125 345.33135986328125 C 421.64166259765625 324.3674011230469 441.0103759765625 302.32977294921875 455.9343566894531 272.6646423339844 C 446.1706237792969 245.07452392578125 434.57806396484375 222.80850219726562 434.1005554199219 192.22093200683594" stroke-width="0.0" fill="rgb(63, 30, 22)" opacity="1.0" stroke="rgb(0, 0, 0)" stroke-opacity="1.0" stroke-linecap="round" stroke-linejoin="round"/>
    <path d="M 413.1632080078125 105.82816314697266 C 401.67083740234375 97.76878356933594 388.4557189941406 91.57208251953125 373.18597412109375 88.24176788330078 C 360.41302490234375 85.30411529541016 340.8341369628906 84.7101058959961 327.37725830078125 87.30891418457031 C 312.0123596191406 90.2490005493164 298.5130615234375 95.64384460449219 286.55267333984375 102.33233642578125 C 274.26409912109375 109.8963851928711 263.4200439453125 118.40519714355469 254.35617065429688 130.1046905517578 C 247.15762329101562 144.6949920654297 237.95103454589844 163.99586486816406 236.55734252929688 193.5090789794922 C 237.2997283935547 229.65188598632812 246.95069885253906 247.55519104003906 235.48155212402344 277.59161376953125 C 237.17904663085938 301.513916015625 244.1403045654297 314.60882568359375 256.237060546875 310.9191589355469 C 257.533935546875 309.2492980957031 256.7535400390625 313.39617919921875 252.73175048828125 317.97314453125 C 249.97079467773438 307.6607666015625 247.8291015625 293.9245910644531 242.87770080566406 276.2950439453125 C 243.88742065429688 266.2861633300781 247.94424438476562 260.0300598144531 253.57579040527344 251.7477264404297 C 265.2149658203125 239.0584259033203 281.6025085449219 231.78721618652344 298.72613525390625 223.89627075195312 C 322.34454345703125 214.24330139160156 348.7763977050781 207.20472717285156 374.8029479980469 201.22784423828125 C 393.23077392578125 198.8264923095703 409.42340087890625 192.12228393554688 434.75482177734375 194.54183959960938 C 438.8557434082031 220.3019561767578 443.8645324707031 248.5648956298828 457.7229919433594 273.256591796875 C 462.40673828125 268.92059326171875 466.794189453125 265.4957580566406 470.7858581542969 259.4865417480469 C 474.34332275390625 254.2682342529297 476.0865478515625 248.49688720703125 479.06768798828125 242.7025909423828 C 479.6508483886719 228.37100219726562 482.81439208984375 223.9310302734375 471.55511474609375 203.00711059570312 C 455.1012268066406 191.2383575439453 453.2281799316406 160.63246154785156 437.0563659667969 134.38311767578125 C 430.4141845703125 122.4639892578125 422.36029052734375 113.0243148803711 413.1632080078125 105.82816314697266" stroke-width="0.0" fill="rgb(50, 37, 25)" opacity="1.0" stroke="rgb(0, 0, 0)" stroke-opacity="1.0" stroke-linecap="round" stroke-linejoin="round"/>
    <path d="M 423.9825744628906 389.90838623046875 C 418.4985656738281 427.5104675292969 416.7165832519531 468.8428649902344 416.02545166015625 518.4256591796875 C 444.01934814453125 520.8941650390625 475.8459777832031 521.3519897460938 520.3289794921875 521.4625854492188 C 520.9505004882812 492.31781005859375 521.7071533203125 474.0328369140625 511.6928405761719 466.8091125488281 C 500.7794189453125 450.95281982421875 483.7984924316406 449.4635314941406 474.175048828125 441.0854187011719 C 456.0171203613281 424.98614501953125 441.20635986328125 406.2212829589844 423.9825744628906 389.90838623046875" stroke-width="0.0" fill="rgb(50, 37, 25)" opacity="1.0" stroke="rgb(0, 0, 0)" stroke-opacity="1.0" stroke-linecap="round" stroke-linejoin="round"/>
    <path d="M 26.228784561157227 129.99148559570312 C 21.466026306152344 131.5894012451172 18.203750610351562 139.71249389648438 23.655502319335938 148.58119201660156 C 24.615707397460938 151.7052459716797 29.442970275878906 156.32215881347656 35.41816711425781 155.12191772460938 C 40.63085174560547 152.9330291748047 45.55683517456055 145.0229034423828 43.23637771606445 137.23509216308594 C 40.76801300048828 130.3935546875 34.51005554199219 128.5458221435547 26.228784561157227 129.99148559570312" stroke-width="0.0" fill="rgb(241, 241, 237)" opacity="1.0" stroke="rgb(0, 0, 0)" stroke-opacity="1.0" stroke-linecap="round" stroke-linejoin="round"/>
    <path d="M -4.872313499450684 91.603271484375 C -6.658265113830566 106.65278625488281 -6.2961297035217285 115.8458023071289 -5.497069835662842 126.94221496582031 C 5.2507829666137695 121.08407592773438 10.083696365356445 122.81967163085938 11.910801887512207 121.23332214355469 C 15.818005561828613 119.78609466552734 19.193077087402344 111.88430786132812 15.616779327392578 104.75660705566406 C 15.431325912475586 101.143310546875 6.033150672912598 99.3915023803711 -4.872313499450684 91.603271484375" stroke-width="0.0" fill="rgb(241, 241, 237)" opacity="1.0" stroke="rgb(0, 0, 0)" stroke-opacity="1.0" stroke-linecap="round" stroke-linejoin="round"/>
    <path d="M 288.2550964355469 392.7607116699219 C 247.93731689453125 431.1343688964844 204.81689453125 457.12689208984375 159.96697998046875 482.0726318359375 C 147.71775817871094 490.58526611328125 135.49693298339844 496.6575927734375 126.67517852783203 520.2277221679688 C 179.33848571777344 519.4992065429688 230.6349334716797 519.568115234375 283.04443359375 520.8438110351562 C 279.6768493652344 484.6271667480469 278.76220703125 454.5899658203125 281.53424072265625 422.0111999511719 C 279.14764404296875 414.5564270019531 287.1941833496094 408.95855712890625 288.2550964355469 392.7607116699219" stroke-width="0.0" fill="rgb(57, 44, 32)" opacity="1.0" stroke="rgb(0, 0, 0)" stroke-opacity="1.0" stroke-linecap="round" stroke-linejoin="round"/>
    <path d="M 15.87610912322998 523.4892578125 C 39.95378112792969 524.3801879882812 70.90676879882812 524.3811645507812 92.20528411865234 523.0629272460938 C 90.4809799194336 492.2409362792969 82.65314483642578 484.5669250488281 74.44567108154297 476.078857421875 C 64.4944839477539 468.5495300292969 52.853187561035156 461.29913330078125 43.195430755615234 458.35223388671875 C 48.14210510253906 471.5262451171875 42.576622009277344 469.943359375 33.115699768066406 475.1085510253906 C 18.38113021850586 473.4117431640625 25.82130241394043 486.3139343261719 16.505203247070312 500.9188537597656 C 12.893509864807129 505.9671630859375 5.729602336883545 499.56585693359375 15.87610912322998 523.4892578125" stroke-width="0.0" fill="rgb(167, 150, 134)" opacity="1.0" stroke="rgb(0, 0, 0)" stroke-opacity="1.0" stroke-linecap="round" stroke-linejoin="round"/>
    <path d="M -7.365566253662109 359.20947265625 C -0.5574024319648743 379.0 -0.12223874777555466 398.0 -3.855341911315918 418.3875427246094 C 21.736553192138672 419.8428649902344 52.8477897644043 419.1155700683594 82.39837646484375 417.9715576171875 C 96.64449310302734 411.9954833984375 107.1480484008789 402.7982482910156 118.5156478881836 398.7652893066406 C 117.92780303955078 381.1709289550781 124.2968521118164 368.2330017089844 118.2590103149414 362.5684814453125 C 78.8389663696289 358.4210510253906 39.67316818237305 358.6300048828125 -7.365566253662109 359.20947265625" stroke-width="0.0" fill="rgb(69, 51, 31)" opacity="1.0" stroke="rgb(0, 0, 0)" stroke-opacity="1.0" stroke-linecap="round" stroke-linejoin="round"/>
    <path d="M 160.70062255859375 359.5115661621094 C 140.6243896484375 361.55743408203125 122.95514678955078 359.63519287109375 122.49249267578125 360.8035583496094 C 115.35694122314453 398.2433166503906 119.0453872680664 443.1601867675781 116.3541259765625 475.771484375 C 119.42637634277344 494.1852111816406 114.96771240234375 501.0916442871094 132.2499542236328 498.31219482421875 C 138.10887145996094 492.8238220214844 152.2876739501953 486.32330322265625 159.8297882080078 476.3376770019531 C 162.0805206298828 440.665771484375 160.89976501464844 396.150146484375 160.70062255859375 359.5115661621094" stroke-width="0.0" fill="rgb(28, 16, 11)" opacity="1.0" stroke="rgb(0, 0, 0)" stroke-opacity="1.0" stroke-linecap="round" stroke-linejoin="round"/>
    <path d="M 121.8172378540039 292.8616027832031 C 101.29214477539062 300.8195495605469 111.83792877197266 270.8310546875 95.60031127929688 280.67138671875 C 98.43714141845703 290.9264221191406 85.00254821777344 295.0930480957031 88.2953109741211 300.9571838378906 C 98.34507751464844 303.63397216796875 89.4583511352539 304.61444091796875 88.18595123291016 304.6116638183594 C 87.57911682128906 304.95782470703125 91.70064544677734 304.6888732910156 85.9011459350586 304.2511291503906 C 100.26250457763672 305.7870788574219 110.47236633300781 296.50054931640625 121.8172378540039 292.8616027832031" stroke-width="0.0" fill="rgb(63, 51, 44)" opacity="1.0" stroke="rgb(0, 0, 0)" stroke-opacity="1.0" stroke-linecap="round" stroke-linejoin="round"/>
    <path d="M 237.80418395996094 378.4151916503906 C 230.81800842285156 367.9929504394531 222.565185546875 375.8770751953125 219.02330017089844 383.99957275390625 C 217.74069213867188 375.96124267578125 212.88710021972656 371.4145812988281 199.57301330566406 382.29937744140625 C 197.03439331054688 394.6764221191406 184.2023468017578 396.3160095214844 177.93701171875 409.8983154296875 C 176.80384826660156 421.6808166503906 179.94725036621094 435.6055603027344 176.06246948242188 444.5445251464844 C 180.0370635986328 446.6961669921875 186.48988342285156 448.9223327636719 189.45877075195312 462.8669128417969 C 198.49143981933594 457.654541015625 206.947509765625 452.8430480957031 211.6676788330078 447.7052307128906 C 216.59933471679688 444.0384216308594 214.62353515625 442.2062072753906 213.9488067626953 434.6199951171875 C 217.60902404785156 434.3391418457031 215.76345825195312 441.4779968261719 222.1092987060547 442.3348083496094 C 233.5109100341797 435.9551696777344 240.8665313720703 425.6490783691406 251.65191650390625 420.56689453125 C 256.777587890625 415.5780334472656 254.7789306640625 410.1304931640625 255.41891479492188 403.5271301269531 C 240.82080078125 392.3172607421875 240.25827026367188 394.12652587890625 237.80418395996094 378.4151916503906" stroke-width="0.0" fill="rgb(153, 141, 129)" opacity="1.0" stroke="rgb(0, 0, 0)" stroke-opacity="1.0" stroke-linecap="round" stroke-linejoin="round"/>
    <path d="M 161.59237670898438 396.0890808105469 C 163.5086669921875 423.936767578125 163.45606994628906 449.6087646484375 160.83558654785156 478.5864562988281 C 171.54660034179688 476.4844970703125 181.84410095214844 468.3775634765625 190.5158233642578 462.849609375 C 188.31655883789062 451.2606201171875 182.51271057128906 448.93072509765625 177.9395294189453 444.98114013671875 C 180.40084838867188 425.8929748535156 177.9561767578125 412.7352294921875 178.2260284423828 395.7975158691406 C 173.84768676757812 395.67864990234375 165.8701629638672 391.2265930175781 161.59237670898438 396.0890808105469" stroke-width="0.0" fill="rgb(186, 166, 147)" opacity="1.0" stroke="rgb(0, 0, 0)" stroke-opacity="1.0" stroke-linecap="round" stroke-linejoin="round"/>
    <path d="M 515.3880615234375 383.494384765625 C 491.9725646972656 388.1487731933594 503.0617370605469 398.32391357421875 480.63201904296875 394.12054443359375 C 468.8423767089844 404.3041076660156 460.5906066894531 407.1723937988281 461.4014587402344 416.2422790527344 C 465.3155212402344 422.05633544921875 470.3248291015625 426.5371398925781 475.7944030761719 427.9611511230469 C 480.22662353515625 422.4066162109375 499.12835693359375 423.4806213378906 517.9414672851562 414.74102783203125 C 519.014404296875 407.74725341796875 518.431884765625 395.6200256347656 515.3880615234375 383.494384765625" stroke-width="0.0" fill="rgb(143, 128, 115)" opacity="1.0" stroke="rgb(0, 0, 0)" stroke-opacity="1.0" stroke-linecap="round" stroke-linejoin="round"/>
    <path d="M 85.120361328125 255.3918914794922 C 78.6093521118164 267.9452819824219 104.13853454589844 273.1671142578125 112.19970703125 297.9609680175781 C 124.438232421875 290.1779479980469 139.99960327148438 284.2347106933594 147.16452026367188 282.5337829589844 C 155.45787048339844 276.4062194824219 151.1067352294922 268.01068115234375 148.0220489501953 266.50439453125 C 140.01414489746094 266.01239013671875 123.71113586425781 268.94891357421875 115.78954315185547 270.1011962890625 C 95.74147033691406 263.6997375488281 90.37499237060547 255.89224243164062 85.120361328125 255.3918914794922" stroke-width="0.0" fill="rgb(63, 51, 44)" opacity="1.0" stroke="rgb(0, 0, 0)" stroke-opacity="1.0" stroke-linecap="round" stroke-linejoin="round"/>
    <path d="M 32.664363861083984 316.51898193359375 C 30.635425567626953 321.4419250488281 33.56869125366211 331.9233703613281 31.648357391357422 344.709228515625 C 42.2677001953125 345.4529113769531 62.45280838012695 345.64849853515625 66.51837158203125 344.2957458496094 C 67.27791595458984 329.3851623535156 69.09093475341797 313.74224853515625 62.59025192260742 312.8143005371094 C 50.88353729248047 313.770751953125 37.60359573364258 313.179443359375 32.664363861083984 316.51898193359375" stroke-width="0.0" fill="rgb(57, 44, 32)" opacity="1.0" stroke="rgb(0, 0, 0)" stroke-opacity="1.0" stroke-linecap="round" stroke-linejoin="round"/>
    <path d="M 38.398826599121094 449.29937744140625 C 34.66861343383789 446.1041259765625 24.76985740661621 450.1603088378906 23.937524795532227 449.5638427734375 C 20.585020065307617 459.93035888671875 17.16565704345703 465.8078308105469 19.558574676513672 477.2376403808594 C 30.13785171508789 475.7587585449219 40.30105972290039 474.11260986328125 45.024513244628906 469.07037353515625 C 47.42055892944336 464.4107971191406 41.76631546020508 453.250244140625 38.398826599121094 449.29937744140625" stroke-width="0.0" fill="rgb(28, 16, 11)" opacity="1.0" stroke="rgb(0, 0, 0)" stroke-opacity="1.0" stroke-linecap="round" stroke-linejoin="round"/>
    <path d="M 107.67341613769531 326.5607604980469 C 95.88825225830078 328.9627380371094 97.7039794921875 321.9945068359375 85.55330657958984 328.47857666015625 C 82.0763931274414 333.2451171875 75.53511810302734 338.1594543457031 76.4603042602539 342.97515869140625 C 80.95280456542969 348.194091796875 88.65000915527344 347.3985900878906 98.71743774414062 346.78289794921875 C 105.05948638916016 342.6080627441406 106.51429748535156 332.0802917480469 107.67341613769531 326.5607604980469" stroke-width="0.0" fill="rgb(153, 141, 129)" opacity="1.0" stroke="rgb(0, 0, 0)" stroke-opacity="1.0" stroke-linecap="round" stroke-linejoin="round"/>
    <path d="M 87.5817642211914 501.0751953125 C 90.79988098144531 512.4086303710938 89.98102569580078 516.9672241210938 86.9316177368164 520.84912109375 C 102.5096435546875 518.9476928710938 114.69232940673828 520.4234619140625 124.93959045410156 515.7620239257812 C 122.32169342041016 500.2721862792969 112.96353149414062 498.8902893066406 102.9456787109375 493.2040100097656 C 98.75328063964844 495.5965576171875 90.16777801513672 497.4579772949219 87.5817642211914 501.0751953125" stroke-width="0.0" fill="rgb(74, 58, 43)" opacity="1.0" stroke="rgb(0, 0, 0)" stroke-opacity="1.0" stroke-linecap="round" stroke-linejoin="round"/>
    <path d="M 108.7906494140625 298.18280029296875 C 89.43879699707031 309.9491882324219 93.76632690429688 295.5378723144531 74.04337310791016 300.72265625 C 77.4206314086914 302.77978515625 74.91703796386719 314.3480529785156 76.38034057617188 311.3779296875 C 76.73652648925781 314.9630126953125 81.50045013427734 317.15447998046875 86.96875762939453 320.711669921875 C 94.8891372680664 313.8829040527344 102.88008117675781 307.6159973144531 108.7906494140625 298.18280029296875" stroke-width="0.0" fill="rgb(63, 51, 44)" opacity="1.0" stroke="rgb(0, 0, 0)" stroke-opacity="1.0" stroke-linecap="round" stroke-linejoin="round"/>
    <path d="M 106.98428344726562 331.72174072265625 C 103.1866455078125 337.150390625 105.05240631103516 347.6203918457031 106.47631072998047 346.1215515136719 C 118.50163269042969 344.9632263183594 130.12271118164062 348.9377746582031 130.12149047851562 342.0622863769531 C 127.89595794677734 338.47003173828125 120.06014251708984 333.05084228515625 115.33148956298828 327.9601745605469 C 110.62826538085938 329.4552307128906 108.26366424560547 333.48370361328125 106.98428344726562 331.72174072265625" stroke-width="0.0" fill="rgb(119, 110, 103)" opacity="1.0" stroke="rgb(0, 0, 0)" stroke-opacity="1.0" stroke-linecap="round" stroke-linejoin="round"/>
    <path d="M -3.4533870220184326 350.6707763671875 C -2.7873501777648926 354.2538757324219 -3.1298036575317383 357.5557556152344 -1.2723087072372437 359.59698486328125 C 8.081618309020996 358.3135986328125 18.561155319213867 359.3283996582031 29.734516143798828 358.5889892578125 C 27.986263275146484 354.2658386230469 26.678686141967773 351.38726806640625 22.958942413330078 351.1614990234375 C 15.381888389587402 350.3520812988281 6.839056968688965 351.50225830078125 -3.4533870220184326 350.6707763671875" stroke-width="0.0" fill="rgb(39, 28, 19)" opacity="1.0" stroke="rgb(0, 0, 0)" stroke-opacity="1.0" stroke-linecap="round" stroke-linejoin="round"/>
    <path d="M 190.43203735351562 196.83493041992188 C 172.57373046875 210.60610961914062 184.18161010742188 226.4037628173828 171.97763061523438 221.3197784423828 C 182.23333740234375 271.2286682128906 172.58778381347656 337.7950134277344 178.6327362060547 410.1789855957031 C 185.62733459472656 387.1912841796875 186.45106506347656 311.6965026855469 185.3450927734375 269.1080627441406 C 190.29908752441406 261.3297119140625 192.09832763671875 240.1629180908203 198.452392578125 226.02206420898438 C 187.50990295410156 218.660888671875 201.02626037597656 210.3404998779297 190.43203735351562 196.83493041992188" stroke-width="0.0" fill="rgb(119, 110, 103)" opacity="1.0" stroke="rgb(0, 0, 0)" stroke-opacity="1.0" stroke-linecap="round" stroke-linejoin="round"/>
    <path d="M 16.072038650512695 199.7561798095703 C 6.966547012329102 195.7556915283203 4.770349025726318 202.9769287109375 -7.318154811859131 212.69500732421875 C -10.452927589416504 231.3230438232422 -10.766561508178711 251.76931762695312 -10.96997356414795 262.791015625 C 12.732132911682129 262.6148376464844 16.85099983215332 264.7118835449219 20.539461135864258 259.0479736328125 C 23.167491912841797 248.39401245117188 23.56344223022461 232.73269653320312 29.539085388183594 223.13677978515625 C 21.809541702270508 213.47825622558594 27.4360408782959 203.9892578125 16.072038650512695 199.7561798095703" stroke-width="0.0" fill="rgb(119, 110, 103)" opacity="1.0" stroke="rgb(0, 0, 0)" stroke-opacity="1.0" stroke-linecap="round" stroke-linejoin="round"/>
    <path d="M 476.05047607421875 24.90367889404297 C 473.9080505371094 15.900028228759766 470.5666809082031 11.560043334960938 461.94671630859375 8.584754943847656 C 450.3826904296875 12.964888572692871 440.1783752441406 5.175764560699463 432.4449768066406 14.079106330871582 C 431.2254333496094 20.154659271240234 430.6721496582031 30.05742073059082 437.5263671875 33.14295959472656 C 444.8303527832031 35.69144821166992 455.3817138671875 35.08267593383789 465.4019775390625 39.720619201660156 C 474.3304138183594 38.00190734863281 477.50592041015625 30.77220916748047 476.05047607421875 24.90367889404297" stroke-width="0.0" fill="rgb(200, 193, 185)" opacity="1.0" stroke="rgb(0, 0, 0)" stroke-opacity="1.0" stroke-linecap="round" stroke-linejoin="round"/>
    <path d="M -8.316760063171387 307.6588134765625 C -6.589818954467773 320.00384521484375 -6.835207462310791 334.9990234375 -5.873101711273193 349.81988525390625 C 13.271801948547363 344.5395812988281 10.060296058654785 341.40350341796875 29.261478424072266 339.6796569824219 C 33.739498138427734 326.0248107910156 30.755475997924805 317.2427062988281 26.36391258239746 310.1351318359375 C 25.454330444335938 306.1067199707031 7.434449672698975 308.5843811035156 -8.316760063171387 307.6588134765625" stroke-width="0.0" fill="rgb(103, 86, 73)" opacity="1.0" stroke="rgb(0, 0, 0)" stroke-opacity="1.0" stroke-linecap="round" stroke-linejoin="round"/>
    <path d="M -7.704177379608154 264.0616760253906 C -4.30155086517334 277.97906494140625 -5.063790798187256 292.7804870605469 0.4432198405265808 307.33563232421875 C 13.908997535705566 303.3568420410156 13.696784973144531 311.00048828125 23.56928825378418 304.9681701660156 C 24.51959228515625 290.70074462890625 18.958023071289062 277.91717529296875 19.982112884521484 263.99456787109375 C 16.110944747924805 263.91583251953125 3.4960341453552246 263.6629943847656 -7.704177379608154 264.0616760253906" stroke-width="0.0" fill="rgb(69, 51, 31)" opacity="1.0" stroke="rgb(0, 0, 0)" stroke-opacity="1.0" stroke-linecap="round" stroke-linejoin="round"/>
    <path d="M 125.94622039794922 310.6340637207031 C 123.56572723388672 310.6000061035156 127.2279052734375 324.57904052734375 122.9583511352539 329.2514343261719 C 127.78076934814453 342.1397705078125 135.0697021484375 338.6777038574219 150.91651916503906 338.6756591796875 C 149.24440002441406 324.0514221191406 151.8041229248047 319.6226501464844 145.60946655273438 310.16412353515625 C 143.933349609375 305.5467834472656 130.4369659423828 302.64556884765625 125.94622039794922 310.6340637207031" stroke-width="0.0" fill="rgb(169, 161, 151)" opacity="1.0" stroke="rgb(0, 0, 0)" stroke-opacity="1.0" stroke-linecap="round" stroke-linejoin="round"/>
    <path d="M -2.681962251663208 493.6907653808594 C -10.104305267333984 495.60137939453125 -4.816651821136475 503.8841247558594 -2.3544352054595947 516.9368896484375 C 1.8891719579696655 518.2822875976562 4.727463722229004 519.39404296875 10.641265869140625 517.3693237304688 C 14.027146339416504 500.1320495605469 6.602533340454102 501.0372009277344 -2.681962251663208 493.6907653808594" stroke-width="0.0" fill="rgb(134, 110, 89)" opacity="1.0" stroke="rgb(0, 0, 0)" stroke-opacity="1.0" stroke-linecap="round" stroke-linejoin="round"/>
    <path d="M 29.408893585205078 262.5767517089844 C 36.63460922241211 263.70819091796875 34.571014404296875 268.8971252441406 31.823108673095703 269.6106262207031 C 34.28156280517578 270.3418273925781 28.019622802734375 272.8609924316406 25.296356201171875 269.161376953125 C 26.85697364807129 265.79071044921875 30.372404098510742 262.1307067871094 29.408893585205078 262.5767517089844" stroke-width="0.0" fill="rgb(95, 81, 71)" opacity="1.0" stroke="rgb(0, 0, 0)" stroke-opacity="1.0" stroke-linecap="round" stroke-linejoin="round"/>
    <path d="M 430.3839111328125 194.17782592773438 C 433.1374206542969 209.14817810058594 437.5423889160156 224.64675903320312 442.0612487792969 242.09463500976562 C 449.6175231933594 250.97702026367188 451.3415832519531 260.144287109375 455.9637451171875 274.0839538574219 C 466.0555114746094 267.6249694824219 472.80810546875 257.6462707519531 476.6224365234375 249.44073486328125 C 480.4330139160156 239.88265991210938 481.96820068359375 227.51123046875 477.5658264160156 214.5801544189453 C 473.2615966796875 206.05551147460938 468.62799072265625 197.64454650878906 459.7119445800781 192.82376098632812 C 456.65704345703125 192.5830841064453 439.9231872558594 191.77194213867188 430.3839111328125 194.17782592773438" stroke-width="0.0" fill="rgb(9, 6, 4)" opacity="1.0" stroke="rgb(0, 0, 0)" stroke-opacity="1.0" stroke-linecap="round" stroke-linejoin="round"/>
    <path d="M 415.323974609375 478.259033203125 C 413.54803466796875 473.5006103515625 408.1715087890625 472.71661376953125 398.46514892578125 471.2681884765625 C 358.0467529296875 477.091064453125 332.77294921875 473.5276794433594 284.32818603515625 472.664306640625 C 279.30810546875 477.7413330078125 283.0054016113281 499.1213684082031 283.03729248046875 520.7294921875 C 327.0198059082031 519.8858642578125 371.0374755859375 519.5665283203125 416.50091552734375 520.1858520507812 C 415.406005859375 500.11968994140625 416.2903137207031 488.184814453125 415.323974609375 478.259033203125" stroke-width="0.0" fill="rgb(178, 113, 90)" opacity="1.0" stroke="rgb(0, 0, 0)" stroke-opacity="1.0" stroke-linecap="round" stroke-linejoin="round"/>
    <path d="M 310.51116943359375 234.9959716796875 C 305.5137939453125 237.0423126220703 305.7215881347656 243.97811889648438 310.05596923828125 244.87255859375 C 313.2291259765625 246.52084350585938 317.6443176269531 245.5616912841797 319.462158203125 241.80474853515625 C 320.77423095703125 235.5035858154297 316.2900085449219 234.15350341796875 310.51116943359375 234.9959716796875" stroke-width="0.0" fill="rgb(9, 6, 4)" opacity="1.0" stroke="rgb(0, 0, 0)" stroke-opacity="1.0" stroke-linecap="round" stroke-linejoin="round"/>
    <path d="M 397.68756103515625 235.2488555908203 C 391.8601379394531 233.31100463867188 387.32464599609375 238.60145568847656 389.09722900390625 241.78700256347656 C 391.5585632324219 243.0391845703125 390.4898681640625 245.43316650390625 395.06939697265625 245.28201293945312 C 400.3632507324219 243.55633544921875 399.61505126953125 243.39393615722656 401.3453674316406 238.53298950195312 C 397.0284118652344 235.6992645263672 397.3116760253906 233.0625762939453 397.68756103515625 235.2488555908203" stroke-width="0.0" fill="rgb(9, 6, 4)" opacity="1.0" stroke="rgb(0, 0, 0)" stroke-opacity="1.0" stroke-linecap="round" stroke-linejoin="round"/>
    <path d="M 218.44688415527344 378.7580261230469 C 199.89276123046875 366.94366455078125 198.77096557617188 396.4732360839844 176.2400665283203 409.2148742675781 C 179.3164825439453 427.20343017578125 178.92063903808594 425.4061584472656 177.10589599609375 442.77252197265625 C 179.75390625 450.3575439453125 187.81497192382812 448.7772216796875 188.434814453125 463.32958984375 C 196.2548065185547 458.4437561035156 204.05593872070312 455.23138427734375 209.27572631835938 449.14910888671875 C 213.33218383789062 412.75604248046875 203.7090606689453 416.1568298339844 218.44688415527344 378.7580261230469" stroke-width="0.0" fill="rgb(135, 117, 102)" opacity="1.0" stroke="rgb(0, 0, 0)" stroke-opacity="1.0" stroke-linecap="round" stroke-linejoin="round"/>
    <path d="M 237.68951416015625 378.03729248046875 C 229.80714416503906 368.7925109863281 224.0933837890625 375.4844665527344 221.12594604492188 381.90167236328125 C 225.17977905273438 392.9169921875 217.4691162109375 408.2398376464844 213.9180450439453 421.50408935546875 C 217.2443389892578 427.0590515136719 214.9176025390625 439.418212890625 223.63511657714844 442.162841796875 C 232.88153076171875 433.3916015625 246.01278686523438 424.4446716308594 253.0100555419922 418.4771728515625 C 260.7733459472656 392.57769775390625 239.91067504882812 407.57440185546875 237.68951416015625 378.03729248046875" stroke-width="0.0" fill="rgb(143, 128, 115)" opacity="1.0" stroke="rgb(0, 0, 0)" stroke-opacity="1.0" stroke-linecap="round" stroke-linejoin="round"/>
    <path d="M 278.2864990234375 233.31553649902344 C 268.1546630859375 238.4047393798828 258.2706604003906 243.42051696777344 251.58131408691406 252.02493286132812 C 249.81643676757812 257.0535888671875 244.878662109375 265.92987060546875 243.05982971191406 274.7759704589844 C 238.58370971679688 290.5505676269531 248.27125549316406 304.4269714355469 252.55552673339844 322.7486572265625 C 256.30572509765625 324.27752685546875 268.3902587890625 326.2972412109375 276.1636962890625 324.4859619140625 C 267.41595458984375 305.2193908691406 253.2017364501953 287.80975341796875 257.9080810546875 266.09375 C 263.21435546875 255.39447021484375 277.7709655761719 255.0863037109375 278.2864990234375 233.31553649902344" stroke-width="0.0" fill="rgb(9, 6, 4)" opacity="1.0" stroke="rgb(0, 0, 0)" stroke-opacity="1.0" stroke-linecap="round" stroke-linejoin="round"/>
    <path d="M 124.03710174560547 362.11297607421875 C 119.803466796875 371.110595703125 123.02295684814453 382.42840576171875 121.1673812866211 390.3387451171875 C 139.57772827148438 388.9494934082031 158.8219451904297 392.631103515625 161.31056213378906 385.8478088378906 C 157.33428955078125 364.2061767578125 148.88624572753906 384.6835021972656 161.67373657226562 362.4458923339844 C 152.00384521484375 360.9623107910156 132.54197692871094 362.5104064941406 124.03710174560547 362.11297607421875" stroke-width="0.0" fill="rgb(28, 16, 11)" opacity="1.0" stroke="rgb(0, 0, 0)" stroke-opacity="1.0" stroke-linecap="round" stroke-linejoin="round"/>
    <path d="M 282.6463928222656 428.2272033691406 C 281.5688171386719 440.50714111328125 279.9407653808594 447.6126708984375 288.18560791015625 459.33966064453125 C 288.6891784667969 470.1412353515625 314.2651062011719 484.94775390625 327.9527893066406 488.74462890625 C 303.3236083984375 483.4482727050781 291.266357421875 462.7496337890625 282.6463928222656 428.2272033691406" stroke-width="0.0" fill="rgb(28, 16, 11)" opacity="1.0" stroke="rgb(0, 0, 0)" stroke-opacity="1.0" stroke-linecap="round" stroke-linejoin="round"/>
    <path d="M 345.72265625 284.5722961425781 C 339.204833984375 292.7915954589844 347.5081481933594 295.119384765625 348.51300048828125 302.3376159667969 C 348.44952392578125 304.9625244140625 358.5039367675781 306.9717102050781 359.189208984375 303.06109619140625 C 360.84783935546875 303.16448974609375 364.5096130371094 298.2228088378906 361.5789489746094 287.92822265625 C 359.5542907714844 282.26251220703125 350.8351135253906 281.270751953125 345.72265625 284.5722961425781" stroke-width="0.0" fill="rgb(195, 138, 114)" opacity="1.0" stroke="rgb(0, 0, 0)" stroke-opacity="1.0" stroke-linecap="round" stroke-linejoin="round"/>
    <path d="M 117.05033111572266 362.7008361816406 C 123.73823547363281 361.1594543457031 120.103271484375 362.2025146484375 122.21795654296875 361.642578125 C 121.21405029296875 378.4646911621094 124.0006332397461 395.11322021484375 118.95441436767578 400.6405944824219 C 115.09808349609375 390.2884216308594 117.43138122558594 370.1911315917969 117.05033111572266 362.7008361816406" stroke-width="0.0" fill="rgb(63, 51, 44)" opacity="1.0" stroke="rgb(0, 0, 0)" stroke-opacity="1.0" stroke-linecap="round" stroke-linejoin="round"/>
    <path d="M 21.71924591064453 450.4863586425781 C 22.655988693237305 458.1861572265625 15.452508926391602 462.377197265625 18.993999481201172 474.809814453125 C 26.115049362182617 483.0134582519531 24.537378311157227 489.3187561035156 33.102046966552734 490.86297607421875 C 37.47890090942383 496.697265625 39.06039810180664 504.36602783203125 36.142601013183594 519.7786254882812 C 44.08573913574219 518.3350830078125 49.9980354309082 518.770751953125 54.44340133666992 515.6484985351562 C 54.85348892211914 489.1382141113281 48.70042037963867 471.2906799316406 42.848751068115234 452.3155517578125 C 37.57719039916992 446.322265625 35.7319450378418 446.1072082519531 21.71924591064453 450.4863586425781" stroke-width="0.0" fill="rgb(186, 166, 147)" opacity="1.0" stroke="rgb(0, 0, 0)" stroke-opacity="1.0" stroke-linecap="round" stroke-linejoin="round"/>
    <path d="M 21.810049057006836 367.8794250488281 C 15.777337074279785 359.3155517578125 6.066365718841553 364.9037780761719 -8.739601135253906 371.8651428222656 C -9.305500984191895 387.94537353515625 -9.621522903442383 405.5696716308594 -8.017627716064453 417.9371032714844 C 10.35859203338623 416.9127502441406 18.442110061645508 418.24578857421875 21.655179977416992 415.1290283203125 C 22.7625675201416 397.970458984375 21.76294708251953 375.9375915527344 21.810049057006836 367.8794250488281" stroke-width="0.0" fill="rgb(50, 37, 25)" opacity="1.0" stroke="rgb(0, 0, 0)" stroke-opacity="1.0" stroke-linecap="round" stroke-linejoin="round"/>
    <path d="M 148.97933959960938 266.79638671875 C 150.9665069580078 264.9770812988281 126.99568939208984 267.1295471191406 112.21207427978516 268.37811279296875 C 118.71173858642578 276.74530029296875 122.21202850341797 277.3935241699219 119.46590423583984 293.6565856933594 C 128.09744262695312 289.5360107421875 137.06187438964844 286.00299072265625 145.36431884765625 284.2265625 C 151.07530212402344 279.0212097167969 155.05419921875 276.1331481933594 148.97933959960938 266.79638671875" stroke-width="0.0" fill="rgb(63, 51, 44)" opacity="1.0" stroke="rgb(0, 0, 0)" stroke-opacity="1.0" stroke-linecap="round" stroke-linejoin="round"/>
    <path d="M 178.7987518310547 442.18695068359375 C 173.4698486328125 447.7373046875 167.04562377929688 452.3834533691406 163.12628173828125 454.5826110839844 C 162.23318481445312 461.4961853027344 160.00912475585938 475.7503356933594 163.79385375976562 477.7121887207031 C 171.21929931640625 473.51654052734375 181.17864990234375 470.37677001953125 186.03443908691406 465.9451599121094 C 186.04583740234375 461.2138671875 188.12237548828125 456.7543029785156 186.32728576660156 451.98651123046875 C 182.5799560546875 448.3650817871094 174.46234130859375 444.57415771484375 178.7987518310547 442.18695068359375" stroke-width="0.0" fill="rgb(134, 110, 89)" opacity="1.0" stroke="rgb(0, 0, 0)" stroke-opacity="1.0" stroke-linecap="round" stroke-linejoin="round"/>
    <path d="M 93.86714172363281 327.60906982421875 C 87.66326904296875 327.75433349609375 80.66779327392578 334.59912109375 84.4978256225586 338.33544921875 C 87.0623779296875 341.85186767578125 84.66799926757812 343.4170227050781 94.29629516601562 346.1112060546875 C 98.70903778076172 343.3436584472656 103.51460266113281 340.3105773925781 101.69451904296875 332.364501953125 C 101.3767318725586 331.36492919921875 96.17598724365234 327.75732421875 93.86714172363281 327.60906982421875" stroke-width="0.0" fill="rgb(119, 110, 103)" opacity="1.0" stroke="rgb(0, 0, 0)" stroke-opacity="1.0" stroke-linecap="round" stroke-linejoin="round"/>
    <path d="M 106.0808334350586 333.6478576660156 C 109.97103118896484 338.3015441894531 113.15613555908203 338.44769287109375 117.74217224121094 345.9309997558594 C 123.77972412109375 346.007568359375 130.9762420654297 347.2674560546875 130.3298797607422 343.1383056640625 C 127.66414642333984 337.7902526855469 120.33047485351562 332.5008850097656 115.12599182128906 326.20465087890625 C 111.8041000366211 327.285400390625 111.2996826171875 332.0324401855469 106.0808334350586 333.6478576660156" stroke-width="0.0" fill="rgb(63, 51, 44)" opacity="1.0" stroke="rgb(0, 0, 0)" stroke-opacity="1.0" stroke-linecap="round" stroke-linejoin="round"/>
    <path d="M 146.1040802001953 426.85565185546875 C 143.478515625 430.34600830078125 141.92111206054688 436.5641784667969 145.48757934570312 437.64453125 C 149.56787109375 439.4011535644531 157.3011474609375 436.43634033203125 160.51548767089844 439.3092041015625 C 164.0796356201172 435.19775390625 161.57061767578125 427.59185791015625 157.24725341796875 426.6650085449219 C 154.1570587158203 425.1443176269531 146.61634826660156 425.6805419921875 146.1040802001953 426.85565185546875" stroke-width="0.0" fill="rgb(28, 16, 11)" opacity="1.0" stroke="rgb(0, 0, 0)" stroke-opacity="1.0" stroke-linecap="round" stroke-linejoin="round"/>
    <path d="M 118.6567611694336 518.4439086914062 C 128.30348205566406 503.5729064941406 119.09001922607422 500.5589904785156 112.67047119140625 499.30755615234375 C 108.10884094238281 506.07659912109375 98.17935180664062 507.6758117675781 91.14987182617188 518.4212036132812 C 117.18458557128906 523.8111572265625 126.52633666992188 523.4600219726562 118.6567611694336 518.4439086914062" stroke-width="0.0" fill="rgb(135, 117, 102)" opacity="1.0" stroke="rgb(0, 0, 0)" stroke-opacity="1.0" stroke-linecap="round" stroke-linejoin="round"/>
    <path d="M 126.00540161132812 425.9277648925781 C 122.13043975830078 432.5611877441406 123.53340148925781 432.3727111816406 126.61576843261719 437.52447509765625 C 131.2301788330078 436.4388122558594 141.39251708984375 438.1604919433594 141.75 436.4427185058594 C 144.06085205078125 433.75762939453125 139.50674438476562 425.1007080078125 138.45297241210938 426.03350830078125 C 131.81747436523438 422.1975402832031 131.73863220214844 424.3370056152344 126.00540161132812 425.9277648925781" stroke-width="0.0" fill="rgb(9, 6, 4)" opacity="1.0" stroke="rgb(0, 0, 0)" stroke-opacity="1.0" stroke-linecap="round" stroke-linejoin="round"/>
    <path d="M 115.97917938232422 439.9564514160156 C 117.55329895019531 432.18206787109375 121.21883392333984 441.026611328125 120.57833862304688 433.6387939453125 C 120.24932861328125 436.70556640625 123.47811889648438 451.0760803222656 121.5057373046875 452.13824462890625 C 113.5638198852539 452.66357421875 116.10784149169922 451.2640380859375 115.97917938232422 439.9564514160156" stroke-width="0.0" fill="rgb(50, 37, 25)" opacity="1.0" stroke="rgb(0, 0, 0)" stroke-opacity="1.0" stroke-linecap="round" stroke-linejoin="round"/>
    <path d="M 206.65345764160156 423.1536865234375 C 190.70217895507812 423.556884765625 185.56588745117188 421.1148681640625 182.4955291748047 423.4823913574219 C 177.94705200195312 425.4985046386719 177.87010192871094 442.0017395019531 176.55368041992188 441.71417236328125 C 182.91600036621094 454.75128173828125 188.1987762451172 444.03936767578125 188.81094360351562 463.78424072265625 C 195.96258544921875 456.7853088378906 204.61285400390625 457.0269775390625 208.27259826660156 448.3832092285156 C 210.05902099609375 440.1689758300781 209.46507263183594 422.1916809082031 206.65345764160156 423.1536865234375" stroke-width="0.0" fill="rgb(82, 65, 50)" opacity="1.0" stroke="rgb(0, 0, 0)" stroke-opacity="1.0" stroke-linecap="round" stroke-linejoin="round"/>
    <path d="M 177.19216918945312 411.6370544433594 C 175.7889862060547 416.4796142578125 179.03758239746094 418.3385925292969 180.6476287841797 421.3378601074219 C 184.5035400390625 422.3623046875 195.7940673828125 421.5986328125 204.09365844726562 422.3561706542969 C 209.30799865722656 422.4285583496094 209.62574768066406 414.6942443847656 209.18411254882812 406.3215026855469 C 206.42359924316406 398.5132141113281 202.12442016601562 393.7816467285156 193.67845153808594 394.0013732910156 C 184.5895538330078 398.8604431152344 182.21896362304688 403.936279296875 177.19216918945312 411.6370544433594" stroke-width="0.0" fill="rgb(135, 117, 102)" opacity="1.0" stroke="rgb(0, 0, 0)" stroke-opacity="1.0" stroke-linecap="round" stroke-linejoin="round"/>
    <path d="M 284.8881530761719 453.1050720214844 C 280.6172180175781 471.1075439453125 279.1715087890625 492.7359619140625 283.2139892578125 517.447998046875 C 292.66461181640625 521.5064086914062 311.2550354003906 524.1184692382812 323.45697021484375 520.594970703125 C 303.90179443359375 493.634765625 296.53948974609375 472.79296875 284.8881530761719 453.1050720214844" stroke-width="0.0" fill="rgb(131, 69, 53)" opacity="1.0" stroke="rgb(0, 0, 0)" stroke-opacity="1.0" stroke-linecap="round" stroke-linejoin="round"/>
    <path d="M 225.8798065185547 374.41326904296875 C 222.6548614501953 375.7132873535156 220.38107299804688 378.0169372558594 220.98065185546875 384.7178039550781 C 225.19813537597656 391.95037841796875 224.54527282714844 399.4473571777344 231.798583984375 404.2220458984375 C 234.8418426513672 399.21466064453125 240.5025177001953 398.003173828125 241.3634490966797 393.5225830078125 C 238.7589569091797 384.929931640625 240.10479736328125 379.8623962402344 236.07200622558594 375.7779235839844 C 234.93072509765625 373.12481689453125 228.04055786132812 373.2106628417969 225.8798065185547 374.41326904296875" stroke-width="0.0" fill="rgb(108, 70, 58)" opacity="1.0" stroke="rgb(0, 0, 0)" stroke-opacity="1.0" stroke-linecap="round" stroke-linejoin="round"/>
    <path d="M 283.24383544921875 431.3934326171875 C 276.6946105957031 443.37652587890625 289.9505920410156 455.02117919921875 292.0368347167969 469.7586364746094 C 302.2279357910156 481.8128967285156 307.04547119140625 501.4176025390625 322.19403076171875 517.07080078125 C 310.14398193359375 483.096923828125 291.59283447265625 464.0393371582031 283.24383544921875 431.3934326171875" stroke-width="0.0" fill="rgb(105, 49, 36)" opacity="1.0" stroke="rgb(0, 0, 0)" stroke-opacity="1.0" stroke-linecap="round" stroke-linejoin="round"/>
    <path d="M 207.23593139648438 372.7716064453125 C 202.34690856933594 372.608642578125 196.89627075195312 379.3382263183594 198.14080810546875 382.89556884765625 C 195.748291015625 387.62677001953125 199.904296875 388.06622314453125 196.2417755126953 394.02880859375 C 199.53953552246094 394.5818176269531 200.70819091796875 396.4905090332031 205.57119750976562 398.790771484375 C 212.16505432128906 396.7984619140625 213.73609924316406 390.6219787597656 218.40806579589844 383.9140319824219 C 217.11154174804688 377.1065368652344 214.49224853515625 373.7767639160156 207.23593139648438 372.7716064453125" stroke-width="0.0" fill="rgb(98, 79, 62)" opacity="1.0" stroke="rgb(0, 0, 0)" stroke-opacity="1.0" stroke-linecap="round" stroke-linejoin="round"/>
    <path d="M 49.89033508300781 486.4371643066406 C 46.15910339355469 493.7554626464844 37.47433090209961 504.76702880859375 38.82852554321289 510.6518249511719 C 41.99410629272461 522.330810546875 48.88221740722656 519.7001953125 54.60694885253906 508.9618835449219 C 53.23637771606445 499.91619873046875 56.05442810058594 488.26934814453125 49.89033508300781 486.4371643066406" stroke-width="0.0" fill="rgb(167, 100, 78)" opacity="1.0" stroke="rgb(0, 0, 0)" stroke-opacity="1.0" stroke-linecap="round" stroke-linejoin="round"/>
    <path d="M 198.97703552246094 378.5660400390625 C 198.3011474609375 377.1717834472656 196.28565979003906 385.6255187988281 197.754150390625 388.25885009765625 C 208.69656372070312 387.410400390625 206.93519592285156 388.3797302246094 214.9260711669922 390.90081787109375 C 220.19296264648438 382.7112121582031 218.15542602539062 380.4371337890625 215.1802520751953 375.22711181640625 C 210.3831024169922 372.3042297363281 202.28675842285156 370.8895568847656 198.97703552246094 378.5660400390625" stroke-width="0.0" fill="rgb(74, 58, 43)" opacity="1.0" stroke="rgb(0, 0, 0)" stroke-opacity="1.0" stroke-linecap="round" stroke-linejoin="round"/>
    <path d="M 236.81724548339844 375.6500549316406 C 233.229736328125 374.3540344238281 232.18289184570312 371.6605224609375 226.81504821777344 374.0565185546875 C 219.28585815429688 376.7627258300781 219.30117797851562 381.9731750488281 223.52127075195312 390.4560241699219 C 228.9794921875 390.0548095703125 232.4241485595703 385.9169006347656 238.99874877929688 384.2294921875 C 240.1203155517578 379.0050354003906 237.3514404296875 376.5957946777344 236.81724548339844 375.6500549316406" stroke-width="0.0" fill="rgb(143, 128, 115)" opacity="1.0" stroke="rgb(0, 0, 0)" stroke-opacity="1.0" stroke-linecap="round" stroke-linejoin="round"/>
  </g>
</svg>
