<?xml version="1.0" ?>
<svg xmlns="http://www.w3.org/2000/svg" version="1.1" width="512" height="512">
  <defs/>
  <g>
    <path d="M -2.413491725921631 -1.4787532091140747 C -2.0686209201812744 170.3333282470703 -1.0898444652557373 340.6666564941406 -0.49440890550613403 517.170166015625 C 169.8494873046875 517.6180419921875 339.8345031738281 518.3692626953125 518.0811767578125 519.4943237304688 C 517.9368286132812 342.0851135253906 518.1615600585938 171.34678649902344 518.3796997070312 -0.3130301535129547 C 340.6666564941406 -0.688208818435669 170.3333282470703 -0.9448094367980957 -2.413491725921631 -1.4787532091140747" stroke-width="0.0" fill="rgb(110, 120, 216)" opacity="0.77107644" stroke="rgb(0, 0, 0)" stroke-opacity="1.0" stroke-linecap="round" stroke-linejoin="round"/>
    <path d="M 518.0840454101562 171.71661376953125 C 491.62847900390625 164.01112365722656 471.8132019042969 163.26708984375 446.7101745605469 163.5133056640625 C 421.7550048828125 155.01678466796875 407.4538879394531 140.0647735595703 382.390869140625 134.41207885742188 C 369.1380310058594 132.85110473632812 357.13916015625 128.3971710205078 340.32257080078125 131.81385803222656 C 324.9517517089844 131.46156311035156 313.46978759765625 140.0324249267578 300.1982116699219 146.59071350097656 C 273.7565002441406 163.9847869873047 253.73849487304688 188.27919006347656 226.99130249023438 207.30001831054688 C 200.85385131835938 218.97845458984375 196.99815368652344 201.54541015625 189.3179473876953 191.3687286376953 C 164.71058654785156 187.03326416015625 145.59759521484375 188.49749755859375 119.99613952636719 190.51193237304688 C 78.35842895507812 196.51141357421875 42.1845817565918 210.50897216796875 7.797483921051025 224.19349670410156 C 5.630067825317383 225.0546875 3.1321206092834473 231.35470581054688 -5.2750325202941895 238.84458923339844 C -6.137268543243408 325.0059814453125 -5.9711737632751465 418.10797119140625 -5.329432487487793 517.2344970703125 C 170.0671844482422 517.2745361328125 340.26226806640625 517.5703125 519.4888305664062 518.2059936523438 C 519.0628051757812 398.6950988769531 518.2190551757812 285.1565856933594 518.0840454101562 171.71661376953125" stroke-width="0.0" fill="rgb(195, 185, 172)" opacity="0.78051794" stroke="rgb(0, 0, 0)" stroke-opacity="1.0" stroke-linecap="round" stroke-linejoin="round"/>
    <path d="M 268.8226318359375 161.54031372070312 C 255.05447387695312 183.4058380126953 239.36077880859375 179.9077606201172 217.2369384765625 188.3312225341797 C 212.9053497314453 188.0840606689453 205.5951690673828 184.69676208496094 197.433349609375 189.7965087890625 C 191.60494995117188 194.80303955078125 186.6522979736328 210.3145751953125 180.20333862304688 225.3098602294922 C 200.32583618164062 217.5592498779297 218.3694305419922 210.4093780517578 235.05416870117188 204.74462890625 C 245.06668090820312 187.94500732421875 268.4104919433594 185.2866973876953 268.8226318359375 161.54031372070312" stroke-width="0.0" fill="rgb(150, 155, 184)" opacity="0.99252963" stroke="rgb(0, 0, 0)" stroke-opacity="1.0" stroke-linecap="round" stroke-linejoin="round"/>
    <path d="M -4.83962869644165 244.37890625 C -6.3797607421875 335.1195983886719 -6.05672550201416 423.16845703125 -5.491161823272705 517.3886108398438 C 169.91065979003906 517.4142456054688 340.00067138671875 517.8031005859375 519.5659790039062 518.6414794921875 C 518.8798828125 460.1101989746094 518.02294921875 408.1278076171875 518.6229248046875 356.05767822265625 C 441.5216064453125 357.851806640625 366.624755859375 354.07452392578125 289.5713195800781 352.8707580566406 C 257.3185119628906 350.38775634765625 215.07838439941406 347.8876037597656 174.68885803222656 339.95855712890625 C 134.05018615722656 332.504638671875 104.88021850585938 314.4073181152344 71.19966888427734 298.4968566894531 C 42.26939392089844 286.2767639160156 24.422605514526367 265.3800964355469 -4.83962869644165 244.37890625" stroke-width="0.0" fill="rgb(105, 91, 97)" opacity="1.1184521" stroke="rgb(0, 0, 0)" stroke-opacity="1.0" stroke-linecap="round" stroke-linejoin="round"/>
    <path d="M 516.5531005859375 220.42953491210938 C 484.50537109375 240.13194274902344 468.06304931640625 268.25836181640625 441.2890930175781 287.5257568359375 C 418.4681396484375 301.9417724609375 390.6214294433594 313.0646057128906 367.27899169921875 330.4085388183594 C 365.8580627441406 339.8612976074219 354.8138732910156 329.38775634765625 359.7317810058594 348.42486572265625 C 366.2306823730469 349.8634948730469 373.4532470703125 356.1025695800781 381.1325988769531 355.7064208984375 C 426.1816711425781 354.8931884765625 467.8580627441406 357.4690246582031 518.8263549804688 358.05426025390625 C 519.0242309570312 309.374755859375 520.637939453125 263.4399719238281 516.5531005859375 220.42953491210938" stroke-width="0.0" fill="rgb(75, 68, 82)" opacity="1.0055054" stroke="rgb(0, 0, 0)" stroke-opacity="1.0" stroke-linecap="round" stroke-linejoin="round"/>
    <path d="M 261.64752197265625 180.10098266601562 C 250.29388427734375 187.04283142089844 242.0692138671875 195.30252075195312 230.3177032470703 203.29161071777344 C 242.45216369628906 213.5688934326172 248.28477478027344 205.6175537109375 256.4769287109375 201.43333435058594 C 261.99237060546875 195.67320251464844 268.4652404785156 189.48165893554688 261.64752197265625 180.10098266601562" stroke-width="0.0" fill="rgb(235, 235, 237)" opacity="1.0184624" stroke="rgb(0, 0, 0)" stroke-opacity="1.0" stroke-linecap="round" stroke-linejoin="round"/>
    <path d="M 193.30543518066406 196.93182373046875 C 190.62115478515625 186.43121337890625 180.60862731933594 188.05633544921875 154.6604766845703 184.9716796875 C 137.39480590820312 194.28839111328125 101.6768569946289 185.67506408691406 71.9214096069336 192.96461486816406 C 47.612396240234375 203.72401428222656 26.629337310791016 216.0721893310547 -1.7570815086364746 224.87313842773438 C -8.546092987060547 222.18081665039062 -7.328824043273926 231.84152221679688 -1.6696213483810425 243.20889282226562 C 17.292034149169922 254.9098358154297 30.449621200561523 271.62225341796875 48.834075927734375 283.017578125 C 65.51436614990234 270.5599670410156 82.55272674560547 264.6606140136719 97.72042846679688 255.73849487304688 C 102.56005859375 244.56922912597656 114.78409576416016 241.99562072753906 114.50147247314453 227.40635681152344 C 121.4666748046875 234.31680297851562 123.85464477539062 232.55465698242188 140.35804748535156 232.60494995117188 C 155.41464233398438 231.7325439453125 171.09144592285156 229.98831176757812 180.78050231933594 224.45411682128906 C 180.7200164794922 208.7900390625 191.66360473632812 205.8660888671875 193.30543518066406 196.93182373046875" stroke-width="0.0" fill="rgb(201, 197, 201)" opacity="0.9407671" stroke="rgb(0, 0, 0)" stroke-opacity="1.0" stroke-linecap="round" stroke-linejoin="round"/>
    <path d="M 263.73260498046875 179.8690948486328 C 265.73187255859375 185.97496032714844 271.2695617675781 189.97755432128906 286.75347900390625 192.55599975585938 C 303.1228332519531 186.74685668945312 310.9266052246094 189.23646545410156 335.60150146484375 191.5104217529297 C 351.3653259277344 188.58407592773438 358.92193603515625 180.4501190185547 371.60101318359375 180.229736328125 C 388.1900634765625 181.6197967529297 399.6468505859375 190.69676208496094 417.3281555175781 189.17958068847656 C 429.692138671875 190.26934814453125 429.63433837890625 184.3025665283203 434.753173828125 180.15768432617188 C 436.0848388671875 176.96591186523438 437.0381164550781 170.1568145751953 436.0722961425781 162.18043518066406 C 425.49041748046875 153.7239227294922 412.573974609375 144.55503845214844 402.3065185546875 136.47410583496094 C 383.12432861328125 131.11001586914062 365.4481506347656 126.23236846923828 349.5714416503906 126.76395416259766 C 322.4442138671875 130.10792541503906 311.6359558105469 142.2745361328125 292.0964660644531 143.66807556152344 C 283.7084045410156 159.6483612060547 266.4048156738281 162.58421325683594 263.73260498046875 179.8690948486328" stroke-width="0.0" fill="rgb(190, 191, 207)" opacity="1.0423367" stroke="rgb(0, 0, 0)" stroke-opacity="1.0" stroke-linecap="round" stroke-linejoin="round"/>
    <path d="M 431.53619384765625 192.44876098632812 C 460.9964904785156 185.8563690185547 478.1548156738281 195.32301330566406 514.2064208984375 195.70904541015625 C 519.9564208984375 188.67279052734375 520.1199951171875 178.22500610351562 519.9740600585938 163.72592163085938 C 491.89532470703125 166.53152465820312 479.2547607421875 154.37281799316406 457.6607971191406 155.03402709960938 C 448.88177490234375 156.88743591308594 443.45416259765625 164.11734008789062 437.60638427734375 168.12380981445312 C 437.2418212890625 176.65841674804688 433.4453430175781 181.71893310546875 431.53619384765625 192.44876098632812" stroke-width="0.0" fill="rgb(148, 149, 171)" opacity="0.9879083" stroke="rgb(0, 0, 0)" stroke-opacity="1.0" stroke-linecap="round" stroke-linejoin="round"/>
    <path d="M 150.0500946044922 265.592041015625 C 135.9192657470703 278.2811584472656 141.27696228027344 302.199951171875 123.97589111328125 310.4494323730469 C 119.08765411376953 322.0694580078125 127.94906616210938 324.4620056152344 134.8061981201172 327.9848327636719 C 147.99014282226562 330.7628479003906 163.0026397705078 328.523193359375 160.82627868652344 327.63250732421875 C 156.57723999023438 319.64788818359375 158.70986938476562 299.1309509277344 160.56666564941406 273.73431396484375 C 155.40118408203125 274.40264892578125 155.70993041992188 265.31256103515625 150.0500946044922 265.592041015625" stroke-width="0.0" fill="rgb(112, 104, 121)" opacity="0.9785452" stroke="rgb(0, 0, 0)" stroke-opacity="1.0" stroke-linecap="round" stroke-linejoin="round"/>
    <path d="M 268.3795471191406 167.2244110107422 C 258.3161926269531 169.852783203125 254.91294860839844 180.14151000976562 242.83084106445312 183.36370849609375 C 233.4595489501953 184.06654357910156 231.49339294433594 178.89114379882812 225.9425811767578 184.5698699951172 C 216.2214813232422 193.46974182128906 206.97006225585938 197.76211547851562 204.78614807128906 214.93109130859375 C 219.11172485351562 213.10964965820312 224.2008514404297 204.82225036621094 234.43785095214844 203.04434204101562 C 247.6395721435547 192.01370239257812 261.079833984375 183.9332733154297 268.3795471191406 167.2244110107422" stroke-width="0.0" fill="rgb(136, 139, 171)" opacity="0.95006406" stroke="rgb(0, 0, 0)" stroke-opacity="1.0" stroke-linecap="round" stroke-linejoin="round"/>
    <path d="M 509.8428649902344 219.79307556152344 C 502.0248107910156 224.63072204589844 493.9330139160156 221.91761779785156 486.7676696777344 224.92745971679688 C 482.41790771484375 230.39109802246094 481.5512390136719 235.712158203125 486.0657043457031 243.5825958251953 C 494.9347229003906 237.49172973632812 501.7839660644531 229.07437133789062 509.8428649902344 219.79307556152344" stroke-width="0.0" fill="rgb(99, 93, 114)" opacity="0.9758068" stroke="rgb(0, 0, 0)" stroke-opacity="1.0" stroke-linecap="round" stroke-linejoin="round"/>
    <path d="M 483.2740478515625 220.9238739013672 C 440.43499755859375 216.0258026123047 410.5734558105469 228.71649169921875 362.4937438964844 224.9221649169922 C 340.5291442871094 242.69598388671875 317.0654296875 254.9826202392578 293.8625183105469 274.2687683105469 C 274.3691101074219 300.7193908691406 240.79080200195312 313.7983703613281 222.60462951660156 339.2379150390625 C 224.8345947265625 351.99822998046875 240.29324340820312 346.0182189941406 255.92742919921875 351.6553649902344 C 278.2525329589844 355.1878356933594 299.5872802734375 358.901123046875 327.4563903808594 357.8190612792969 C 331.4810485839844 345.4057922363281 343.4554443359375 338.3304748535156 353.1888732910156 327.7604064941406 C 374.3249816894531 318.0103454589844 398.2230224609375 310.8232727050781 418.51422119140625 299.3868408203125 C 432.599853515625 292.8008117675781 444.43988037109375 283.6095886230469 455.4185485839844 273.5226135253906 C 464.3988037109375 264.4004211425781 474.3367919921875 256.4317932128906 483.788818359375 243.01185607910156 C 480.2005310058594 232.51806640625 481.3941650390625 235.6979522705078 483.2740478515625 220.9238739013672" stroke-width="0.0" fill="rgb(145, 132, 125)" opacity="0.9242338" stroke="rgb(0, 0, 0)" stroke-opacity="1.0" stroke-linecap="round" stroke-linejoin="round"/>
    <path d="M 223.7615203857422 188.62620544433594 C 206.44802856445312 183.530029296875 202.44686889648438 184.00852966308594 193.20375061035156 191.98385620117188 C 191.68878173828125 201.81161499023438 183.54754638671875 209.73915100097656 182.4752960205078 225.2972869873047 C 193.20672607421875 225.1899871826172 199.6993408203125 216.14974975585938 207.53268432617188 215.04522705078125 C 204.7532196044922 198.52984619140625 211.7716522216797 194.21124267578125 223.7615203857422 188.62620544433594" stroke-width="0.0" fill="rgb(191, 194, 207)" opacity="1.0697452" stroke="rgb(0, 0, 0)" stroke-opacity="1.0" stroke-linecap="round" stroke-linejoin="round"/>
    <path d="M 301.74200439453125 264.5548095703125 C 294.0907287597656 253.51235961914062 290.3646545410156 255.36154174804688 267.79669189453125 255.38536071777344 C 265.28948974609375 264.5282287597656 257.2151794433594 260.4112854003906 234.8835906982422 265.3397216796875 C 224.87481689453125 262.54974365234375 215.64630126953125 263.06146240234375 197.01307678222656 268.30535888671875 C 204.41297912597656 275.78082275390625 189.75440979003906 270.73907470703125 193.57762145996094 285.861328125 C 206.25341796875 289.84185791015625 229.16549682617188 285.8231506347656 262.866455078125 285.3201904296875 C 272.93646240234375 281.6009521484375 278.5053405761719 276.07550048828125 288.07135009765625 277.13934326171875 C 294.1435852050781 270.8613586425781 299.98333740234375 267.5610656738281 301.74200439453125 264.5548095703125" stroke-width="0.0" fill="rgb(170, 162, 165)" opacity="1.0000011" stroke="rgb(0, 0, 0)" stroke-opacity="1.0" stroke-linecap="round" stroke-linejoin="round"/>
    <path d="M 95.57659149169922 259.49749755859375 C 71.67953491210938 266.1112060546875 59.485321044921875 276.9544982910156 44.29253387451172 285.2306213378906 C 46.52373504638672 281.6786804199219 54.14912796020508 289.7314758300781 68.42410278320312 291.2303466796875 C 73.31925201416016 276.1111755371094 82.00678253173828 269.57049560546875 95.57659149169922 259.49749755859375" stroke-width="0.0" fill="rgb(184, 171, 160)" opacity="0.9759892" stroke="rgb(0, 0, 0)" stroke-opacity="1.0" stroke-linecap="round" stroke-linejoin="round"/>
    <path d="M -6.1771721839904785 354.4442138671875 C -2.5735785961151123 407.0 -0.22345958650112152 459.0 -0.5285097360610962 517.04736328125 C 170.11990356445312 517.2263793945312 340.8197937011719 517.4384765625 518.0277099609375 517.688720703125 C 519.0928344726562 483.8155212402344 519.6218872070312 457.38714599609375 519.2333374023438 436.1501770019531 C 498.71820068359375 435.500732421875 485.7427673339844 434.570556640625 469.06512451171875 431.1229248046875 C 441.56494140625 424.0234375 419.3009948730469 410.23309326171875 386.0126037597656 405.1332702636719 C 334.9096984863281 401.9546203613281 281.32574462890625 399.8625793457031 231.9051971435547 393.38031005859375 C 194.9788055419922 387.48077392578125 153.1984100341797 385.9529113769531 116.23095703125 373.558349609375 C 101.77813720703125 369.3609619140625 80.48323822021484 368.15704345703125 59.31139373779297 367.6623840332031 C 40.04496765136719 363.252685546875 19.81613540649414 359.3526611328125 -6.1771721839904785 354.4442138671875" stroke-width="0.0" fill="rgb(186, 162, 118)" opacity="1.0244138" stroke="rgb(0, 0, 0)" stroke-opacity="1.0" stroke-linecap="round" stroke-linejoin="round"/>
    <path d="M -6.134606838226318 243.46533203125 C -7.439935684204102 289.1167907714844 -7.746156692504883 329.33489990234375 -7.443939208984375 354.3183288574219 C -4.215918064117432 355.85174560546875 9.740032196044922 353.7786865234375 18.582605361938477 363.1605529785156 C 34.92205810546875 363.7086181640625 51.22892379760742 364.0317077636719 62.821956634521484 370.8738098144531 C 83.36129760742188 374.9749755859375 115.35175323486328 370.17529296875 127.76242065429688 377.8870544433594 C 164.6423797607422 387.1947326660156 207.9937286376953 388.2373352050781 243.3346405029297 396.433837890625 C 276.14105224609375 398.61297607421875 302.7495422363281 398.57403564453125 322.9922790527344 398.1441955566406 C 321.7962646484375 382.6098327636719 323.7889709472656 368.01007080078125 318.9598693847656 363.9084167480469 C 253.57070922851562 356.11053466796875 193.5839385986328 348.04461669921875 135.88243103027344 330.4444274902344 C 108.55990600585938 312.53314208984375 73.81379699707031 299.8621826171875 44.4146614074707 283.2322082519531 C 29.20215606689453 271.5162658691406 17.769439697265625 255.01199340820312 -6.134606838226318 243.46533203125" stroke-width="0.0" fill="rgb(102, 91, 80)" opacity="0.99850523" stroke="rgb(0, 0, 0)" stroke-opacity="1.0" stroke-linecap="round" stroke-linejoin="round"/>
    <path d="M 324.50604248046875 365.83294677734375 C 324.4125061035156 373.3648986816406 322.7679443359375 382.0335693359375 321.74884033203125 385.034912109375 C 325.78460693359375 393.14007568359375 328.16461181640625 395.425048828125 339.8622741699219 398.990234375 C 357.7950439453125 400.3163757324219 382.96502685546875 398.669677734375 410.350830078125 403.3169860839844 C 424.3495178222656 414.0103454589844 442.62847900390625 424.0671081542969 468.82269287109375 428.9533996582031 C 479.35992431640625 432.59796142578125 496.1880798339844 434.1724853515625 519.478515625 432.6836242675781 C 519.6223754882812 410.4159851074219 519.7713012695312 383.02490234375 519.7868041992188 361.34039306640625 C 499.4996643066406 367.5368347167969 498.3292541503906 360.1598815917969 489.3260803222656 354.8721618652344 C 473.3153076171875 359.35198974609375 457.0917053222656 362.718994140625 438.9673156738281 363.9140625 C 427.6404724121094 364.0849609375 428.74664306640625 349.457275390625 421.50341796875 349.54656982421875 C 412.90948486328125 352.8155517578125 410.607666015625 359.5804443359375 404.0529479980469 361.4819030761719 C 389.3484802246094 361.6092529296875 377.7499084472656 362.31805419921875 363.251953125 363.38470458984375 C 352.03424072265625 363.61614990234375 350.5560607910156 349.5931396484375 339.3534240722656 352.89178466796875 C 332.1195373535156 353.0416259765625 332.41705322265625 362.38323974609375 324.50604248046875 365.83294677734375" stroke-width="0.0" fill="rgb(87, 78, 56)" opacity="1.0131574" stroke="rgb(0, 0, 0)" stroke-opacity="1.0" stroke-linecap="round" stroke-linejoin="round"/>
    <path d="M 416.6590881347656 154.29554748535156 C 404.8695373535156 160.342529296875 398.49530029296875 172.37501525878906 387.234619140625 179.8399200439453 C 396.4671325683594 187.84689331054688 406.90069580078125 191.7241668701172 419.7119140625 188.74713134765625 C 428.6925964355469 187.26712036132812 429.522216796875 187.18280029296875 429.0964050292969 179.00318908691406 C 425.1435546875 170.11627197265625 420.54791259765625 163.68203735351562 416.6590881347656 154.29554748535156" stroke-width="0.0" fill="rgb(95, 98, 143)" opacity="1.0101067" stroke="rgb(0, 0, 0)" stroke-opacity="1.0" stroke-linecap="round" stroke-linejoin="round"/>
    <path d="M 457.6377868652344 155.9291229248047 C 448.7983093261719 155.48654174804688 444.829833984375 164.67433166503906 436.2951354980469 169.1760711669922 C 439.2220764160156 179.30111694335938 432.7674865722656 181.44442749023438 432.3426818847656 190.16905212402344 C 448.26123046875 193.11245727539062 459.2767639160156 190.88951110839844 468.51336669921875 186.1200408935547 C 464.3650817871094 175.22738647460938 461.6141357421875 165.96121215820312 461.3914489746094 160.46421813964844 C 461.5487365722656 169.4713134765625 459.44366455078125 165.21414184570312 457.6377868652344 155.9291229248047" stroke-width="0.0" fill="rgb(89, 91, 134)" opacity="1.0032183" stroke="rgb(0, 0, 0)" stroke-opacity="1.0" stroke-linecap="round" stroke-linejoin="round"/>
    <path d="M 275.30877685546875 163.6155242919922 C 271.9241943359375 165.54132080078125 271.4451599121094 175.98648071289062 265.7884826660156 178.57656860351562 C 271.8802490234375 184.55030822753906 274.3856201171875 191.82249450683594 283.18438720703125 191.6294708251953 C 287.2551574707031 193.27255249023438 288.0960388183594 187.34347534179688 286.37744140625 176.94151306152344 C 285.0946960449219 171.39828491210938 280.7107238769531 167.74520874023438 275.30877685546875 163.6155242919922" stroke-width="0.0" fill="rgb(113, 117, 156)" opacity="1.0005039" stroke="rgb(0, 0, 0)" stroke-opacity="1.0" stroke-linecap="round" stroke-linejoin="round"/>
    <path d="M 325.9931335449219 164.75997924804688 C 319.528564453125 175.097900390625 314.7198486328125 179.216552734375 321.3245849609375 191.2317657470703 C 323.1539306640625 191.12644958496094 331.9501647949219 191.88975524902344 337.7030334472656 190.20408630371094 C 339.5821228027344 187.1621551513672 337.9413757324219 181.23475646972656 336.61761474609375 176.8700408935547 C 329.4368896484375 174.0341339111328 329.28643798828125 168.03623962402344 325.9931335449219 164.75997924804688" stroke-width="0.0" fill="rgb(119, 123, 158)" opacity="0.9497064" stroke="rgb(0, 0, 0)" stroke-opacity="1.0" stroke-linecap="round" stroke-linejoin="round"/>
    <path d="M 133.1947021484375 190.72933959960938 C 117.73236083984375 189.53671264648438 94.55037689208984 189.94862365722656 79.04793548583984 188.17709350585938 C 63.53801727294922 194.75588989257812 51.38711929321289 199.53128051757812 44.761871337890625 209.3029022216797 C 24.568933486938477 205.42108154296875 23.966201782226562 222.96751403808594 -5.041029930114746 218.01783752441406 C -4.744071960449219 226.14427185058594 -2.85575270652771 234.35092163085938 -0.6522764563560486 242.50299072265625 C 14.980996131896973 252.27374267578125 25.40369415283203 266.9365539550781 41.98752975463867 278.29010009765625 C 49.919639587402344 279.1225280761719 51.82087707519531 273.4275817871094 57.00595474243164 274.1495666503906 C 70.63927459716797 267.25738525390625 81.06188201904297 259.9563903808594 91.29933166503906 252.67459106445312 C 103.38591003417969 231.2791748046875 115.7785415649414 209.8292236328125 133.1947021484375 190.72933959960938" stroke-width="0.0" fill="rgb(225, 226, 229)" opacity="0.975935" stroke="rgb(0, 0, 0)" stroke-opacity="1.0" stroke-linecap="round" stroke-linejoin="round"/>
    <path d="M 191.43695068359375 192.99000549316406 C 184.65817260742188 185.1654815673828 166.99557495117188 187.4827117919922 154.7332000732422 182.50003051757812 C 147.53671264648438 184.7710723876953 141.0667266845703 190.7198028564453 131.26809692382812 192.72837829589844 C 118.82038879394531 207.39825439453125 106.24623107910156 222.56690979003906 97.25738525390625 245.23316955566406 C 107.92528533935547 244.25796508789062 112.61369323730469 241.6793670654297 114.15924072265625 234.82550048828125 C 139.84986877441406 235.00772094726562 160.07196044921875 231.43621826171875 180.6490020751953 227.0965118408203 C 187.519775390625 217.5395965576172 192.12802124023438 209.34022521972656 191.43695068359375 192.99000549316406" stroke-width="0.0" fill="rgb(214, 214, 222)" opacity="1.0153205" stroke="rgb(0, 0, 0)" stroke-opacity="1.0" stroke-linecap="round" stroke-linejoin="round"/>
    <path d="M 457.2823791503906 159.38595581054688 C 455.5921936035156 170.04998779296875 465.846923828125 174.71621704101562 470.8816223144531 182.7848663330078 C 478.574951171875 187.61341857910156 490.6524963378906 190.15367126464844 496.9996032714844 195.47109985351562 C 501.59881591796875 195.42701721191406 504.5592041015625 189.6566162109375 518.1912841796875 191.13687133789062 C 517.1698608398438 179.4624481201172 517.2095947265625 170.99691772460938 518.0875854492188 159.49217224121094 C 487.75494384765625 163.0118865966797 472.9305725097656 152.99374389648438 457.2823791503906 159.38595581054688" stroke-width="0.0" fill="rgb(192, 191, 200)" opacity="0.98592794" stroke="rgb(0, 0, 0)" stroke-opacity="1.0" stroke-linecap="round" stroke-linejoin="round"/>
    <path d="M 243.36325073242188 185.2054901123047 C 235.35523986816406 179.12425231933594 227.72520446777344 180.06117248535156 224.1036376953125 182.64785766601562 C 219.52879333496094 188.85357666015625 220.67967224121094 196.21701049804688 210.66622924804688 196.24815368652344 C 209.2056121826172 202.01889038085938 206.2462921142578 208.2012939453125 207.9434356689453 213.63943481445312 C 217.05014038085938 211.77149963378906 220.5667266845703 205.71932983398438 229.2219696044922 203.47650146484375 C 235.7933349609375 201.90855407714844 239.08642578125 192.55325317382812 243.36325073242188 185.2054901123047" stroke-width="0.0" fill="rgb(146, 150, 179)" opacity="1.0047913" stroke="rgb(0, 0, 0)" stroke-opacity="1.0" stroke-linecap="round" stroke-linejoin="round"/>
    <path d="M 270.0260925292969 166.65382385253906 C 257.7820739746094 168.62313842773438 253.72967529296875 181.71092224121094 239.62078857421875 186.70669555664062 C 237.01895141601562 190.52969360351562 231.79092407226562 196.17083740234375 232.0242462158203 205.50987243652344 C 241.85838317871094 206.1407012939453 237.3419647216797 191.1206817626953 250.37451171875 193.78076171875 C 256.8323669433594 181.91067504882812 265.8395080566406 176.0710906982422 270.0260925292969 166.65382385253906" stroke-width="0.0" fill="rgb(94, 98, 138)" opacity="0.9505544" stroke="rgb(0, 0, 0)" stroke-opacity="1.0" stroke-linecap="round" stroke-linejoin="round"/>
    <path d="M 152.81903076171875 265.90618896484375 C 143.99375915527344 264.101806640625 146.11131286621094 276.59796142578125 140.2731170654297 278.8483581542969 C 136.0222625732422 290.5754699707031 136.13856506347656 297.66229248046875 139.69264221191406 305.1225280761719 C 145.0424041748047 300.8328857421875 148.07186889648438 293.95501708984375 147.54757690429688 286.276123046875 C 150.6124725341797 282.7439880371094 157.62025451660156 282.1942443847656 163.43658447265625 275.158447265625 C 152.3504180908203 275.3939208984375 157.5798797607422 271.8628234863281 152.81903076171875 265.90618896484375" stroke-width="0.0" fill="rgb(66, 66, 97)" opacity="0.9899714" stroke="rgb(0, 0, 0)" stroke-opacity="1.0" stroke-linecap="round" stroke-linejoin="round"/>
    <path d="M 321.92120361328125 286.1117248535156 C 315.6084289550781 293.9870300292969 312.52850341796875 301.2749328613281 309.0520935058594 306.7482604980469 C 312.98504638671875 311.9683837890625 319.59326171875 317.137939453125 332.60040283203125 318.4542236328125 C 324.3922119140625 308.1341857910156 325.3184814453125 296.51910400390625 321.92120361328125 286.1117248535156" stroke-width="0.0" fill="rgb(55, 54, 79)" opacity="0.9995084" stroke="rgb(0, 0, 0)" stroke-opacity="1.0" stroke-linecap="round" stroke-linejoin="round"/>
    <path d="M 191.96987915039062 198.761962890625 C 189.96102905273438 210.125732421875 185.6063232421875 215.7318115234375 183.8394317626953 224.45729064941406 C 187.74456787109375 229.1360626220703 191.0108184814453 222.19952392578125 198.1142578125 220.1860809326172 C 190.794677734375 214.35157775878906 196.9228515625 202.04896545410156 191.96987915039062 198.761962890625" stroke-width="0.0" fill="rgb(112, 115, 158)" opacity="0.9559339" stroke="rgb(0, 0, 0)" stroke-opacity="1.0" stroke-linecap="round" stroke-linejoin="round"/>
    <path d="M 366.0157165527344 285.8590087890625 C 360.6579284667969 286.5145263671875 359.4270935058594 287.2980651855469 357.3191833496094 294.66973876953125 C 360.5164489746094 294.80023193359375 357.1719970703125 300.8665466308594 360.55413818359375 303.0870361328125 C 364.9258117675781 302.9221496582031 369.0092468261719 300.2655944824219 370.44671630859375 298.31939697265625 C 372.1097717285156 289.13916015625 369.95135498046875 288.3972473144531 366.0157165527344 285.8590087890625" stroke-width="0.0" fill="rgb(83, 78, 103)" opacity="0.99999326" stroke="rgb(0, 0, 0)" stroke-opacity="1.0" stroke-linecap="round" stroke-linejoin="round"/>
    <path d="M 301.1534118652344 266.0126953125 C 282.99639892578125 284.3972473144531 265.87371826171875 305.158935546875 238.5662384033203 320.580810546875 C 235.7601776123047 327.6195068359375 226.54261779785156 333.9588317871094 222.55776977539062 339.29058837890625 C 222.01229858398438 346.5690612792969 227.50514221191406 347.182861328125 233.75921630859375 347.2039794921875 C 235.28797912597656 343.29107666015625 240.65086364746094 342.78424072265625 241.11648559570312 338.2409973144531 C 249.7455291748047 338.41082763671875 248.56272888183594 337.9224548339844 249.4932403564453 342.6806640625 C 260.8432312011719 339.0574951171875 269.4666748046875 338.9234924316406 273.38385009765625 330.501953125 C 285.3247985839844 322.0234069824219 293.7178649902344 312.5706787109375 304.0768737792969 298.59075927734375 C 303.86572265625 292.3009033203125 301.4735107421875 287.7353210449219 299.25189208984375 282.88385009765625 C 307.1752624511719 279.154541015625 313.38446044921875 275.7349548339844 301.1534118652344 266.0126953125" stroke-width="0.0" fill="rgb(76, 71, 92)" opacity="0.9920847" stroke="rgb(0, 0, 0)" stroke-opacity="1.0" stroke-linecap="round" stroke-linejoin="round"/>
    <path d="M 329.1566467285156 324.6348876953125 C 332.59503173828125 316.4164123535156 322.9557189941406 320.7866516113281 319.2131652832031 318.0096130371094 C 311.85302734375 323.1268005371094 305.8979187011719 330.11407470703125 295.72808837890625 335.0701599121094 C 304.45892333984375 338.9169616699219 310.479736328125 333.8038635253906 316.94354248046875 335.43072509765625 C 319.9845886230469 328.3791198730469 329.4368896484375 329.36456298828125 329.1566467285156 324.6348876953125" stroke-width="0.0" fill="rgb(128, 123, 120)" opacity="1.0009177" stroke="rgb(0, 0, 0)" stroke-opacity="1.0" stroke-linecap="round" stroke-linejoin="round"/>
    <path d="M 479.23919677734375 340.7996520996094 C 472.2034912109375 344.710693359375 471.74188232421875 354.5963134765625 468.4474182128906 360.61260986328125 C 476.7051696777344 357.4670104980469 477.1041564941406 359.0875244140625 475.7115783691406 358.9228210449219 C 474.5660095214844 359.1937255859375 471.7578125 359.0887756347656 477.9653015136719 358.6191101074219 C 484.7490539550781 361.16693115234375 481.1572570800781 350.5617370605469 479.23919677734375 340.7996520996094" stroke-width="0.0" fill="rgb(112, 95, 80)" opacity="1.0003914" stroke="rgb(0, 0, 0)" stroke-opacity="1.0" stroke-linecap="round" stroke-linejoin="round"/>
    <path d="M 437.9586181640625 321.1745910644531 C 430.9756774902344 325.6844177246094 431.9812927246094 336.9876708984375 431.86114501953125 345.49456787109375 C 424.51953125 343.49755859375 431.055908203125 347.6776428222656 434.8451843261719 353.17889404296875 C 439.6318359375 348.75042724609375 440.8425598144531 342.9132080078125 443.6302185058594 334.8309020996094 C 442.5079040527344 330.9830322265625 441.62957763671875 323.98297119140625 437.9586181640625 321.1745910644531" stroke-width="0.0" fill="rgb(87, 78, 71)" opacity="1.0000074" stroke="rgb(0, 0, 0)" stroke-opacity="1.0" stroke-linecap="round" stroke-linejoin="round"/>
    <path d="M 496.4215087890625 222.3482208251953 C 491.429443359375 219.89688110351562 483.4637756347656 221.4184112548828 482.7285461425781 224.47914123535156 C 483.8990783691406 230.20692443847656 478.71661376953125 235.31988525390625 484.77105712890625 240.46612548828125 C 491.41015625 243.12841796875 490.7374267578125 235.87831115722656 496.14373779296875 233.04273986816406 C 498.89453125 230.23512268066406 495.6930236816406 224.93795776367188 496.4215087890625 222.3482208251953" stroke-width="0.0" fill="rgb(87, 83, 107)" opacity="0.96186155" stroke="rgb(0, 0, 0)" stroke-opacity="1.0" stroke-linecap="round" stroke-linejoin="round"/>
    <path d="M -5.335989475250244 428.58404541015625 C -6.274683475494385 452.6246032714844 -5.695066452026367 482.0490417480469 -3.7431342601776123 518.3670654296875 C 170.3155975341797 518.4351806640625 340.6522216796875 518.5081787109375 517.8345947265625 518.5349731445312 C 517.843017578125 487.0811767578125 517.839111328125 463.00140380859375 517.9561157226562 435.9331970214844 C 340.4952087402344 436.80438232421875 172.09881591796875 428.49609375 0.4769541323184967 421.6244812011719 C 0.9665773510932922 419.45556640625 5.851905345916748 428.6612854003906 -5.335989475250244 428.58404541015625" stroke-width="0.0" fill="rgb(187, 159, 105)" opacity="0.9615369" stroke="rgb(0, 0, 0)" stroke-opacity="1.0" stroke-linecap="round" stroke-linejoin="round"/>
    <path d="M -4.168582439422607 244.634765625 C -6.256474494934082 279.52032470703125 -5.545492649078369 315.4524841308594 -5.555699825286865 352.91162109375 C 6.7037272453308105 352.12347412109375 14.228157997131348 356.9631652832031 20.328737258911133 358.75665283203125 C 53.58720016479492 356.4964599609375 86.32720947265625 354.9595031738281 124.04843139648438 355.95245361328125 C 133.45042419433594 354.1589050292969 142.73004150390625 345.6500244140625 141.2875518798828 340.99310302734375 C 139.4742889404297 349.83453369140625 139.60562133789062 345.26788330078125 139.68040466308594 345.91192626953125 C 143.56466674804688 347.9710693359375 140.2086639404297 348.08843994140625 135.7763671875 346.5614929199219 C 139.9099884033203 334.3605041503906 140.22958374023438 335.5992126464844 143.50653076171875 339.8646545410156 C 116.372802734375 314.2881774902344 76.15614318847656 303.9849853515625 45.623085021972656 283.2063903808594 C 28.871376037597656 272.6707458496094 18.30641746520996 255.41302490234375 -4.168582439422607 244.634765625" stroke-width="0.0" fill="rgb(130, 111, 61)" opacity="0.98865086" stroke="rgb(0, 0, 0)" stroke-opacity="1.0" stroke-linecap="round" stroke-linejoin="round"/>
    <path d="M 520.0942993164062 363.4446105957031 C 494.46807861328125 368.4870910644531 496.8227233886719 353.4407043457031 486.2232666015625 354.759765625 C 469.9398498535156 361.3995056152344 451.1998596191406 361.5910339355469 433.765380859375 367.3214111328125 C 433.6255798339844 377.0957946777344 428.3238525390625 381.0140380859375 430.0013427734375 382.00469970703125 C 433.59857177734375 392.440673828125 425.6136169433594 396.7384033203125 416.6281433105469 396.7342224121094 C 416.0384521484375 409.24871826171875 423.3707275390625 408.8249816894531 425.28472900390625 414.1826477050781 C 437.3658142089844 421.6789245605469 453.74456787109375 424.39202880859375 467.16845703125 430.6483154296875 C 482.4112854003906 432.10650634765625 495.6925964355469 434.2493896484375 517.4302978515625 432.7720031738281 C 519.6814575195312 411.2265930175781 520.0064697265625 386.0614013671875 520.0942993164062 363.4446105957031" stroke-width="0.0" fill="rgb(97, 89, 67)" opacity="0.99237764" stroke="rgb(0, 0, 0)" stroke-opacity="1.0" stroke-linecap="round" stroke-linejoin="round"/>
    <path d="M 280.5765380859375 416.29803466796875 C 280.3411560058594 415.4060363769531 268.6485900878906 416.7303161621094 271.5205993652344 418.0851745605469 C 269.5040283203125 432.0157775878906 273.2815856933594 437.6379699707031 275.32672119140625 446.3516845703125 C 279.1450500488281 438.4094543457031 283.9905700683594 431.685302734375 280.5765380859375 416.29803466796875" stroke-width="0.0" fill="rgb(132, 115, 107)" opacity="1.0043933" stroke="rgb(0, 0, 0)" stroke-opacity="1.0" stroke-linecap="round" stroke-linejoin="round"/>
    <path d="M 359.79156494140625 419.12139892578125 C 355.9739990234375 430.0382080078125 361.7030944824219 440.18621826171875 368.15643310546875 455.94329833984375 C 367.9352722167969 447.5727844238281 369.5862731933594 439.3287353515625 370.314453125 426.8205871582031 C 364.7474060058594 422.71844482421875 368.993896484375 413.3873291015625 359.79156494140625 419.12139892578125" stroke-width="0.0" fill="rgb(81, 67, 64)" opacity="1.0084918" stroke="rgb(0, 0, 0)" stroke-opacity="1.0" stroke-linecap="round" stroke-linejoin="round"/>
    <path d="M 324.2719421386719 416.3609313964844 C 320.364990234375 429.4869689941406 327.15228271484375 440.2174072265625 324.95947265625 441.87872314453125 C 324.9022216796875 438.5860290527344 322.3362731933594 437.2089538574219 328.3563232421875 433.6727294921875 C 331.1134948730469 438.3333740234375 325.4405212402344 440.0476989746094 326.67291259765625 441.4934997558594 C 326.1416931152344 442.78076171875 328.8330993652344 438.4100341796875 332.7742614746094 429.5274658203125 C 329.9229431152344 421.0733642578125 327.7578430175781 416.9753112792969 324.2719421386719 416.3609313964844" stroke-width="0.0" fill="rgb(104, 99, 105)" opacity="0.96173817" stroke="rgb(0, 0, 0)" stroke-opacity="1.0" stroke-linecap="round" stroke-linejoin="round"/>
    <path d="M 161.45494079589844 411.843017578125 C 151.88778686523438 411.35589599609375 153.1691131591797 415.19561767578125 155.66566467285156 425.92901611328125 C 154.7307586669922 426.7587890625 162.7138214111328 426.2934265136719 166.92803955078125 430.1212463378906 C 167.57467651367188 426.5246887207031 170.51234436035156 421.72930908203125 168.8720703125 412.9610595703125 C 161.30648803710938 418.4022216796875 163.60946655273438 410.7102966308594 161.45494079589844 411.843017578125" stroke-width="0.0" fill="rgb(86, 74, 70)" opacity="1.0045567" stroke="rgb(0, 0, 0)" stroke-opacity="1.0" stroke-linecap="round" stroke-linejoin="round"/>
    <path d="M -5.426403522491455 351.9219055175781 C -5.661677360534668 369.8026428222656 -5.473878383636475 390.15997314453125 -4.197580814361572 411.2699890136719 C 78.65264892578125 405.9215393066406 157.56411743164062 411.2949523925781 241.8372344970703 406.0414733886719 C 266.59881591796875 407.1875 280.6338195800781 392.4851989746094 318.5955505371094 400.1781921386719 C 310.764404296875 399.3447570800781 305.7032165527344 400.958251953125 305.83856201171875 387.6834411621094 C 305.59747314453125 377.25469970703125 310.629150390625 371.67230224609375 311.28179931640625 365.0533142089844 C 299.0241394042969 361.4712829589844 287.4923095703125 358.3468017578125 272.0903015136719 361.0006408691406 C 278.2929992675781 366.77484130859375 277.8367004394531 374.9992370605469 265.46649169921875 377.34228515625 C 257.3721618652344 370.3001708984375 268.1875305175781 357.37957763671875 264.59613037109375 358.13690185546875 C 244.16661071777344 353.2436218261719 224.96250915527344 350.2905578613281 206.198974609375 351.92559814453125 C 177.65940856933594 337.6206359863281 139.89109802246094 329.18292236328125 137.3050994873047 331.36224365234375 C 135.96702575683594 342.3551025390625 137.0355987548828 354.235595703125 131.54676818847656 352.3064270019531 C 108.28160095214844 352.55181884765625 98.38507843017578 356.2115173339844 90.66119384765625 356.7126770019531 C 74.60043334960938 356.13189697265625 58.98820877075195 356.9364929199219 47.1705207824707 357.71435546875 C 42.67012023925781 361.5235595703125 37.273773193359375 364.6903381347656 29.465805053710938 363.420166015625 C 15.14449405670166 363.8633117675781 13.024802207946777 350.9022521972656 -5.426403522491455 351.9219055175781" stroke-width="0.0" fill="rgb(160, 138, 97)" opacity="0.76094025" stroke="rgb(0, 0, 0)" stroke-opacity="1.0" stroke-linecap="round" stroke-linejoin="round"/>
    <path d="M 134.45668029785156 192.1427001953125 C 122.19668579101562 187.01878356933594 99.4867935180664 191.79608154296875 80.68888092041016 187.21730041503906 C 63.68365478515625 194.7657470703125 51.28858947753906 199.43179321289062 44.28086853027344 209.29103088378906 C 24.66704559326172 205.30831909179688 25.09250831604004 221.90147399902344 -6.900961399078369 219.21572875976562 C -5.1639323234558105 221.9750213623047 -3.440866231918335 227.20513916015625 1.504265546798706 235.2301483154297 C 3.994661569595337 227.93190002441406 15.040953636169434 229.3859100341797 30.045997619628906 226.50479125976562 C 44.43663787841797 233.78125 70.39373016357422 228.29104614257812 102.84261322021484 232.55372619628906 C 110.11185455322266 217.3538360595703 122.34447479248047 206.01475524902344 134.45668029785156 192.1427001953125" stroke-width="0.0" fill="rgb(205, 206, 217)" opacity="1.0029455" stroke="rgb(0, 0, 0)" stroke-opacity="1.0" stroke-linecap="round" stroke-linejoin="round"/>
    <path d="M 343.440673828125 341.1999816894531 C 328.9053955078125 348.061767578125 330.2905578613281 370.21026611328125 331.36273193359375 388.3572998046875 C 327.24346923828125 389.1181945800781 334.64886474609375 392.08111572265625 340.9385986328125 397.1460266113281 C 352.8410339355469 394.9260559082031 366.305419921875 396.1020812988281 377.6573791503906 397.8983459472656 C 381.8356628417969 388.53973388671875 379.1348571777344 376.1748962402344 374.7832336425781 365.48480224609375 C 370.5346374511719 362.4565734863281 366.54571533203125 364.28619384765625 363.65618896484375 368.50103759765625 C 350.7522888183594 362.58758544921875 352.0678405761719 343.7886962890625 343.440673828125 341.1999816894531" stroke-width="0.0" fill="rgb(76, 67, 45)" opacity="0.99637437" stroke="rgb(0, 0, 0)" stroke-opacity="1.0" stroke-linecap="round" stroke-linejoin="round"/>
    <path d="M 416.7615661621094 332.8096618652344 C 416.1430969238281 354.7508239746094 407.59942626953125 356.8844909667969 406.8950500488281 371.9395446777344 C 409.1507568359375 377.4745788574219 408.6473693847656 384.4464416503906 409.6858825683594 387.8216552734375 C 414.8265380859375 390.5495300292969 419.3485412597656 394.24700927734375 428.17413330078125 394.14215087890625 C 433.0745544433594 388.1631164550781 432.3863525390625 376.7616882324219 432.38922119140625 360.87896728515625 C 424.9759216308594 351.43316650390625 428.3045959472656 335.795654296875 416.7615661621094 332.8096618652344" stroke-width="0.0" fill="rgb(91, 79, 53)" opacity="0.9901469" stroke="rgb(0, 0, 0)" stroke-opacity="1.0" stroke-linecap="round" stroke-linejoin="round"/>
    <path d="M 169.21820068359375 427.28692626953125 C 196.9775848388672 431.9999694824219 235.68775939941406 428.8475036621094 271.03564453125 434.0665283203125 C 267.8492126464844 423.5794372558594 271.5755920410156 418.64544677734375 268.1635437011719 419.4265441894531 C 227.31057739257812 419.3165588378906 196.08248901367188 415.62078857421875 169.21820068359375 427.28692626953125" stroke-width="0.0" fill="rgb(108, 89, 65)" opacity="0.96840066" stroke="rgb(0, 0, 0)" stroke-opacity="1.0" stroke-linecap="round" stroke-linejoin="round"/>
    <path d="M 309.9503173828125 365.7764587402344 C 307.6994323730469 366.3846740722656 310.3951721191406 377.71337890625 302.69793701171875 384.6175231933594 C 306.33782958984375 384.78515625 303.9544982910156 393.6401672363281 307.94873046875 397.9876403808594 C 316.49090576171875 397.87261962890625 319.6749572753906 398.9518737792969 320.6108093261719 394.82672119140625 C 322.3742370605469 387.6119689941406 322.23150634765625 377.3883361816406 325.000244140625 370.0821838378906 C 321.9335021972656 368.548828125 319.4823913574219 362.0869140625 309.9503173828125 365.7764587402344" stroke-width="0.0" fill="rgb(102, 86, 52)" opacity="1.0047103" stroke="rgb(0, 0, 0)" stroke-opacity="1.0" stroke-linecap="round" stroke-linejoin="round"/>
    <path d="M 423.39862060546875 423.97576904296875 C 421.7753601074219 418.432861328125 415.633544921875 420.0715637207031 416.6078796386719 416.3600769042969 C 413.01806640625 423.9899597167969 402.82049560546875 426.12005615234375 398.096923828125 434.4493408203125 C 406.75347900390625 436.9695739746094 413.41168212890625 435.8678894042969 428.1524353027344 436.2447814941406 C 426.6007385253906 435.9889221191406 426.1509704589844 431.66082763671875 423.39862060546875 423.97576904296875" stroke-width="0.0" fill="rgb(73, 63, 44)" opacity="0.98974" stroke="rgb(0, 0, 0)" stroke-opacity="1.0" stroke-linecap="round" stroke-linejoin="round"/>
    <path d="M 222.77206420898438 187.2451629638672 C 218.87982177734375 193.0622100830078 212.30435180664062 193.57188415527344 209.25872802734375 197.1368408203125 C 208.22840881347656 202.67408752441406 206.1377410888672 207.06553649902344 207.10350036621094 214.2752685546875 C 214.10794067382812 213.1574249267578 218.12258911132812 210.52392578125 225.28317260742188 204.7985076904297 C 223.98745727539062 201.88739013671875 222.61390686035156 195.6099090576172 222.77206420898438 187.2451629638672" stroke-width="0.0" fill="rgb(81, 86, 135)" opacity="0.9983854" stroke="rgb(0, 0, 0)" stroke-opacity="1.0" stroke-linecap="round" stroke-linejoin="round"/>
    <path d="M 268.2644348144531 354.6163635253906 C 263.9548034667969 359.553466796875 262.2806091308594 367.12969970703125 262.2087097167969 373.4982604980469 C 264.80511474609375 377.1011657714844 264.8776550292969 378.0382995605469 271.1386413574219 376.6512145996094 C 273.7062683105469 374.56719970703125 276.0545654296875 370.56793212890625 276.5074157714844 367.0782165527344 C 272.40966796875 361.6794738769531 272.1136169433594 356.336669921875 268.2644348144531 354.6163635253906" stroke-width="0.0" fill="rgb(116, 97, 43)" opacity="0.9936824" stroke="rgb(0, 0, 0)" stroke-opacity="1.0" stroke-linecap="round" stroke-linejoin="round"/>
    <path d="M 247.77610778808594 188.31161499023438 C 237.7901153564453 177.00711059570312 235.53994750976562 178.1719970703125 236.75048828125 187.53819274902344 C 228.44630432128906 194.2550048828125 217.7852783203125 202.2569122314453 233.28286743164062 206.03518676757812 C 239.08389282226562 202.25723266601562 242.93087768554688 194.0610809326172 247.77610778808594 188.31161499023438" stroke-width="0.0" fill="rgb(83, 90, 133)" opacity="0.9831469" stroke="rgb(0, 0, 0)" stroke-opacity="1.0" stroke-linecap="round" stroke-linejoin="round"/>
    <path d="M 423.4161682128906 418.57659912109375 C 425.7821960449219 426.2934265136719 426.99713134765625 433.3266296386719 422.4725646972656 438.2423400878906 C 443.211181640625 437.8692932128906 460.70989990234375 443.74786376953125 472.1766662597656 438.9205322265625 C 470.18231201171875 432.2362365722656 463.61639404296875 430.7935791015625 458.71820068359375 428.0552978515625 C 447.5443115234375 424.71636962890625 437.7897644042969 420.3354797363281 423.4161682128906 418.57659912109375" stroke-width="0.0" fill="rgb(144, 122, 80)" opacity="0.9865375" stroke="rgb(0, 0, 0)" stroke-opacity="1.0" stroke-linecap="round" stroke-linejoin="round"/>
    <path d="M 371.15087890625 422.2052001953125 C 369.5076599121094 427.78363037109375 372.82183837890625 431.5207824707031 370.9007568359375 435.59698486328125 C 385.1184997558594 434.7391052246094 397.6037292480469 441.1678466796875 403.0981750488281 430.2720642089844 C 403.7356262207031 428.16162109375 398.36248779296875 425.630126953125 393.940673828125 422.35870361328125 C 387.25885009765625 422.634033203125 374.05426025390625 419.4506530761719 371.15087890625 422.2052001953125" stroke-width="0.0" fill="rgb(96, 81, 67)" opacity="0.9986142" stroke="rgb(0, 0, 0)" stroke-opacity="1.0" stroke-linecap="round" stroke-linejoin="round"/>
    <path d="M 287.8620910644531 421.8419494628906 C 288.9083557128906 426.7072448730469 285.7936706542969 429.3256530761719 287.6020202636719 432.8389587402344 C 298.01397705078125 434.3989562988281 309.6264343261719 434.41864013671875 320.94097900390625 434.33673095703125 C 321.8439025878906 427.7757263183594 322.9121398925781 424.38531494140625 318.7800598144531 422.1275329589844 C 306.8760681152344 422.3507080078125 292.8636474609375 420.0417175292969 287.8620910644531 421.8419494628906" stroke-width="0.0" fill="rgb(123, 100, 67)" opacity="1.0007935" stroke="rgb(0, 0, 0)" stroke-opacity="1.0" stroke-linecap="round" stroke-linejoin="round"/>
    <path d="M 239.2512664794922 180.76295471191406 C 239.92457580566406 179.48117065429688 223.03146362304688 179.14788818359375 224.4285430908203 180.849853515625 C 220.94590759277344 189.4777069091797 218.28236389160156 190.8372344970703 222.60670471191406 206.33538818359375 C 230.18621826171875 203.15731811523438 232.83193969726562 190.27322387695312 239.2512664794922 180.76295471191406" stroke-width="0.0" fill="rgb(174, 178, 196)" opacity="0.91853815" stroke="rgb(0, 0, 0)" stroke-opacity="1.0" stroke-linecap="round" stroke-linejoin="round"/>
    <path d="M 335.61273193359375 435.6583251953125 C 338.5351257324219 434.4522705078125 352.52606201171875 435.26953125 360.71148681640625 434.4908752441406 C 359.79241943359375 425.6573486328125 358.72491455078125 423.3641052246094 359.1435241699219 420.8065490722656 C 342.1971740722656 422.5475769042969 342.3594055175781 421.1705017089844 335.61273193359375 435.6583251953125" stroke-width="0.0" fill="rgb(96, 79, 59)" opacity="0.9882404" stroke="rgb(0, 0, 0)" stroke-opacity="1.0" stroke-linecap="round" stroke-linejoin="round"/>
    <path d="M 325.08099365234375 360.8758850097656 C 320.2370300292969 362.53594970703125 326.60577392578125 376.3709411621094 318.2438659667969 385.8275451660156 C 321.558349609375 389.6002502441406 320.0925598144531 392.9854431152344 325.10455322265625 393.7805480957031 C 329.6390686035156 393.78314208984375 330.28741455078125 389.99267578125 332.2738342285156 386.7078552246094 C 329.0107116699219 375.49871826171875 333.8312072753906 362.59869384765625 325.08099365234375 360.8758850097656" stroke-width="0.0" fill="rgb(71, 64, 48)" opacity="1.0005829" stroke="rgb(0, 0, 0)" stroke-opacity="1.0" stroke-linecap="round" stroke-linejoin="round"/>
    <path d="M 126.30989837646484 203.89700317382812 C 109.38936614990234 213.7185516357422 106.425048828125 231.26022338867188 97.43791961669922 245.71170043945312 C 100.77485656738281 245.39060974121094 106.72210693359375 243.88853454589844 110.90826416015625 241.47850036621094 C 113.74189758300781 227.6576690673828 118.18128204345703 215.6154327392578 126.30989837646484 203.89700317382812" stroke-width="0.0" fill="rgb(130, 134, 170)" opacity="0.9783258" stroke="rgb(0, 0, 0)" stroke-opacity="1.0" stroke-linecap="round" stroke-linejoin="round"/>
    <path d="M 333.11114501953125 173.85919189453125 C 327.8249816894531 178.0111541748047 322.0908203125 184.6077423095703 317.521240234375 190.4861297607422 C 324.3911437988281 196.6866912841797 329.8652648925781 190.3192901611328 340.2082214355469 192.2786102294922 C 334.1959533691406 183.9241485595703 340.6645202636719 175.21958923339844 333.11114501953125 173.85919189453125" stroke-width="0.0" fill="rgb(98, 102, 145)" opacity="0.9708959" stroke="rgb(0, 0, 0)" stroke-opacity="1.0" stroke-linecap="round" stroke-linejoin="round"/>
    <path d="M 391.4041442871094 375.16900634765625 C 387.5171203613281 376.6158447265625 383.49810791015625 383.5499267578125 384.07342529296875 388.96527099609375 C 386.03729248046875 394.10662841796875 388.25469970703125 396.506103515625 396.447509765625 392.9300537109375 C 398.4380798339844 381.6231384277344 396.6102600097656 380.5199279785156 391.4041442871094 375.16900634765625" stroke-width="0.0" fill="rgb(62, 58, 43)" opacity="1.0006181" stroke="rgb(0, 0, 0)" stroke-opacity="1.0" stroke-linecap="round" stroke-linejoin="round"/>
    <path d="M 143.28536987304688 408.26171875 C 135.9668426513672 415.0398254394531 139.69383239746094 428.3729248046875 138.2682342529297 431.38348388671875 C 139.11764526367188 427.715087890625 136.57632446289062 427.49957275390625 146.83665466308594 426.92755126953125 C 149.48802185058594 427.486328125 147.62596130371094 425.95355224609375 145.79237365722656 431.06573486328125 C 147.75498962402344 425.49835205078125 147.82577514648438 413.2861633300781 143.28536987304688 408.26171875" stroke-width="0.0" fill="rgb(133, 90, 104)" opacity="0.9982064" stroke="rgb(0, 0, 0)" stroke-opacity="1.0" stroke-linecap="round" stroke-linejoin="round"/>
    <path d="M 52.8848876953125 322.82574462890625 C 47.39842224121094 325.27197265625 45.84040451049805 334.92779541015625 43.479976654052734 344.35906982421875 C 47.72612762451172 348.9252624511719 52.12771987915039 353.24383544921875 57.96013259887695 355.5059509277344 C 62.09026336669922 350.0301513671875 60.72615051269531 339.9460754394531 61.40725326538086 327.3935546875 C 57.704925537109375 323.5894775390625 58.59794616699219 321.04205322265625 52.8848876953125 322.82574462890625" stroke-width="0.0" fill="rgb(77, 68, 56)" opacity="0.9991376" stroke="rgb(0, 0, 0)" stroke-opacity="1.0" stroke-linecap="round" stroke-linejoin="round"/>
    <path d="M -3.666280508041382 241.06857299804688 C -7.2084784507751465 277.3380432128906 -6.146117210388184 313.2083435058594 -3.7886741161346436 347.8583984375 C 15.088967323303223 351.3824768066406 15.412470817565918 360.6612548828125 33.80466079711914 356.4837341308594 C 41.17597579956055 356.0175476074219 43.12095260620117 351.0436706542969 45.1881217956543 343.936279296875 C 46.51784133911133 321.993896484375 47.77241134643555 303.869873046875 44.9134635925293 304.8620300292969 C 45.258052825927734 302.65325927734375 42.75883483886719 295.0860290527344 48.8073616027832 292.96453857421875 C 36.13101577758789 274.5574951171875 17.260921478271484 260.2300720214844 -3.666280508041382 241.06857299804688" stroke-width="0.0" fill="rgb(122, 106, 61)" opacity="0.98394305" stroke="rgb(0, 0, 0)" stroke-opacity="1.0" stroke-linecap="round" stroke-linejoin="round"/>
    <path d="M 518.9771118164062 433.6117858886719 C 518.417724609375 423.29962158203125 517.8436889648438 410.2220153808594 518.03564453125 395.50640869140625 C 483.01654052734375 401.5173645019531 449.045166015625 400.2044372558594 426.2866516113281 403.8612060546875 C 419.5457763671875 408.1690368652344 421.9825439453125 411.5904235839844 426.3977966308594 416.7708435058594 C 440.23779296875 421.1057434082031 456.7618408203125 424.0524597167969 469.2173156738281 432.4890441894531 C 482.76763916015625 432.8841247558594 497.0550231933594 434.6062927246094 518.9771118164062 433.6117858886719" stroke-width="0.0" fill="rgb(106, 95, 68)" opacity="0.9935417" stroke="rgb(0, 0, 0)" stroke-opacity="1.0" stroke-linecap="round" stroke-linejoin="round"/>
    <path d="M 343.641357421875 341.3543701171875 C 335.421630859375 343.6035461425781 334.0673522949219 351.77679443359375 332.4859313964844 357.65374755859375 C 330.4474182128906 369.5080871582031 330.1076354980469 378.2621154785156 333.3710021972656 387.0792236328125 C 334.7469482421875 390.5109558105469 336.8527526855469 393.3168640136719 341.966552734375 395.366943359375 C 346.9862976074219 396.0192565917969 357.2076721191406 394.8954772949219 359.7290344238281 395.23333740234375 C 363.1949462890625 386.6759948730469 362.95965576171875 382.1031188964844 359.68499755859375 367.6246643066406 C 350.90716552734375 360.0021667480469 351.2545471191406 345.5285339355469 343.641357421875 341.3543701171875" stroke-width="0.0" fill="rgb(76, 66, 50)" opacity="0.9994253" stroke="rgb(0, 0, 0)" stroke-opacity="1.0" stroke-linecap="round" stroke-linejoin="round"/>
    <path d="M 422.3103942871094 399.2659912109375 C 443.23553466796875 398.8000183105469 458.7733154296875 400.2698974609375 474.3798522949219 394.0005798339844 C 461.6128845214844 400.2466125488281 464.095947265625 396.90472412109375 464.9054870605469 388.6220703125 C 463.2239074707031 384.84869384765625 462.73162841796875 378.33441162109375 466.62646484375 372.6848449707031 C 459.8102111816406 368.5580139160156 450.0143737792969 366.8931884765625 437.7636413574219 369.2459716796875 C 436.0048522949219 375.9072265625 437.6508483886719 385.8825988769531 433.17926025390625 393.9836120605469 C 438.7622375488281 394.0055847167969 428.1148376464844 395.43035888671875 422.3103942871094 399.2659912109375" stroke-width="0.0" fill="rgb(87, 82, 57)" opacity="1.0003654" stroke="rgb(0, 0, 0)" stroke-opacity="1.0" stroke-linecap="round" stroke-linejoin="round"/>
    <path d="M 418.7075500488281 330.174072265625 C 413.65753173828125 336.41973876953125 416.2081604003906 348.4306945800781 413.5178527832031 354.6346740722656 C 416.24774169921875 367.4901123046875 418.0382080078125 378.4416198730469 418.900634765625 389.4995422363281 C 422.4869079589844 393.4649353027344 423.4018859863281 396.4395751953125 430.00164794921875 391.5973815917969 C 431.9560546875 391.1729431152344 433.1800842285156 378.1826171875 430.865234375 362.0895080566406 C 427.6496276855469 350.2857971191406 426.21807861328125 337.3338623046875 418.7075500488281 330.174072265625" stroke-width="0.0" fill="rgb(113, 94, 50)" opacity="0.99688125" stroke="rgb(0, 0, 0)" stroke-opacity="1.0" stroke-linecap="round" stroke-linejoin="round"/>
    <path d="M 483.1920471191406 349.2023620605469 C 478.2033386230469 353.55023193359375 476.3551940917969 355.617431640625 478.6103820800781 367.3739013671875 C 480.38720703125 376.85198974609375 482.18377685546875 383.30316162109375 483.7674865722656 387.4417724609375 C 484.3778381347656 389.0429382324219 491.39324951171875 392.44891357421875 494.7800598144531 390.6735534667969 C 497.3951416015625 386.4126892089844 499.6693115234375 379.7456970214844 500.4414367675781 369.911376953125 C 495.9276123046875 364.3925476074219 496.4923400878906 357.0133972167969 494.70501708984375 351.7318420410156 C 489.7792053222656 351.1756286621094 484.9263610839844 344.6204528808594 483.1920471191406 349.2023620605469" stroke-width="0.0" fill="rgb(110, 96, 75)" opacity="0.99845797" stroke="rgb(0, 0, 0)" stroke-opacity="1.0" stroke-linecap="round" stroke-linejoin="round"/>
    <path d="M 135.96640014648438 340.5621643066406 C 134.7808837890625 349.7665100097656 126.53499603271484 351.8096008300781 126.29255676269531 358.3179016113281 C 126.55766296386719 374.0923767089844 120.38455963134766 368.6893310546875 131.8972930908203 374.5445556640625 C 138.1284942626953 371.1170654296875 146.96975708007812 368.9197692871094 148.2964630126953 362.2078552246094 C 151.31503295898438 351.1624450683594 141.7453155517578 350.816162109375 135.96640014648438 340.5621643066406" stroke-width="0.0" fill="rgb(112, 97, 54)" opacity="0.99648356" stroke="rgb(0, 0, 0)" stroke-opacity="1.0" stroke-linecap="round" stroke-linejoin="round"/>
    <path d="M 249.05711364746094 385.4755554199219 C 249.76116943359375 382.9038391113281 245.56996154785156 382.6668701171875 244.53443908691406 380.84722900390625 C 231.805908203125 382.9176330566406 223.73880004882812 384.895751953125 217.88145446777344 391.52008056640625 C 226.41429138183594 394.3309020996094 236.53408813476562 395.5020751953125 245.80157470703125 397.4075622558594 C 249.38839721679688 395.71697998046875 250.85916137695312 390.6254577636719 249.05711364746094 385.4755554199219" stroke-width="0.0" fill="rgb(87, 78, 49)" opacity="1.001176" stroke="rgb(0, 0, 0)" stroke-opacity="1.0" stroke-linecap="round" stroke-linejoin="round"/>
    <path d="M 182.69366455078125 344.6915283203125 C 178.47567749023438 347.4798278808594 175.48464965820312 351.3302917480469 170.98843383789062 351.6960754394531 C 168.1605682373047 359.2015686035156 165.9625244140625 367.9847412109375 174.7804718017578 367.0615234375 C 182.23129272460938 366.9761047363281 185.93162536621094 367.02740478515625 188.45664978027344 362.3804931640625 C 192.79696655273438 351.5068664550781 187.45758056640625 350.77069091796875 182.69366455078125 344.6915283203125" stroke-width="0.0" fill="rgb(118, 98, 64)" opacity="1.0068594" stroke="rgb(0, 0, 0)" stroke-opacity="1.0" stroke-linecap="round" stroke-linejoin="round"/>
    <path d="M 370.506103515625 363.9395446777344 C 362.756591796875 367.06951904296875 366.157958984375 376.7300720214844 368.5604248046875 395.25286865234375 C 368.9624328613281 394.7726135253906 369.6345520019531 399.1408386230469 374.33001708984375 397.61541748046875 C 379.5791320800781 395.87030029296875 379.3483581542969 390.92169189453125 378.85162353515625 381.95123291015625 C 376.3046569824219 373.9639587402344 375.4389953613281 363.1899719238281 370.506103515625 363.9395446777344" stroke-width="0.0" fill="rgb(111, 92, 32)" opacity="0.9996117" stroke="rgb(0, 0, 0)" stroke-opacity="1.0" stroke-linecap="round" stroke-linejoin="round"/>
    <path d="M 318.3908386230469 365.3796081542969 C 313.392578125 362.6405944824219 309.4310302734375 367.12457275390625 308.8627624511719 369.35498046875 C 307.3038024902344 378.8996887207031 305.6802673339844 386.0354919433594 309.5822448730469 393.0608825683594 C 319.1102600097656 390.1047058105469 320.2091979980469 382.35540771484375 324.31951904296875 376.0741271972656 C 325.5067138671875 369.15350341796875 323.41326904296875 368.89605712890625 318.3908386230469 365.3796081542969" stroke-width="0.0" fill="rgb(132, 112, 71)" opacity="1.0084842" stroke="rgb(0, 0, 0)" stroke-opacity="1.0" stroke-linecap="round" stroke-linejoin="round"/>
    <path d="M 109.72639465332031 330.138916015625 C 103.90483856201172 328.66864013671875 107.67446899414062 342.0762634277344 101.34534454345703 346.6880798339844 C 105.17584991455078 353.0003356933594 112.99340057373047 348.9273986816406 113.95762634277344 350.0453186035156 C 113.58521270751953 336.9703674316406 115.9278335571289 328.8935852050781 109.72639465332031 330.138916015625" stroke-width="0.0" fill="rgb(78, 71, 55)" opacity="0.9962844" stroke="rgb(0, 0, 0)" stroke-opacity="1.0" stroke-linecap="round" stroke-linejoin="round"/>
    <path d="M -2.1557066440582275 383.5732421875 C -0.09891870617866516 388.3333435058594 -1.6280509233474731 392.6666564941406 -3.6738436222076416 400.1046447753906 C 8.689102172851562 398.7442321777344 14.04695987701416 398.7928161621094 19.024242401123047 397.8115539550781 C 14.899052619934082 393.6593933105469 16.52703285217285 389.9516906738281 15.093996047973633 388.556396484375 C 12.005034446716309 386.17181396484375 2.630671262741089 385.86279296875 -2.1557066440582275 383.5732421875" stroke-width="0.0" fill="rgb(174, 157, 126)" opacity="0.99683106" stroke="rgb(0, 0, 0)" stroke-opacity="1.0" stroke-linecap="round" stroke-linejoin="round"/>
    <path d="M 318.9281311035156 397.5451354980469 C 324.49371337890625 384.1654968261719 317.0694274902344 392.82904052734375 310.88262939453125 388.5457763671875 C 294.5307922363281 386.11785888671875 275.3941955566406 386.8161926269531 260.8641662597656 385.67559814453125 C 263.29180908203125 394.98077392578125 268.7890319824219 393.9530029296875 269.26251220703125 405.6966552734375 C 288.73895263671875 405.0498046875 300.0714416503906 395.5916442871094 318.9281311035156 397.5451354980469" stroke-width="0.0" fill="rgb(113, 95, 71)" opacity="0.94809896" stroke="rgb(0, 0, 0)" stroke-opacity="1.0" stroke-linecap="round" stroke-linejoin="round"/>
    <path d="M 275.2091064453125 358.7489013671875 C 274.7348327636719 366.83209228515625 277.2908630371094 373.4734802246094 274.1728210449219 379.7420654296875 C 285.583740234375 380.7772521972656 295.14495849609375 383.7138977050781 304.96331787109375 382.18328857421875 C 307.464111328125 375.7513427734375 309.0590515136719 370.1733703613281 311.68463134765625 363.9861145019531 C 297.8109436035156 359.72210693359375 288.8028869628906 357.6401062011719 275.2091064453125 358.7489013671875" stroke-width="0.0" fill="rgb(159, 137, 96)" opacity="0.9996038" stroke="rgb(0, 0, 0)" stroke-opacity="1.0" stroke-linecap="round" stroke-linejoin="round"/>
    <path d="M -5.1249284744262695 398.7571105957031 C -4.991199970245361 401.63861083984375 -4.954654693603516 406.9231262207031 -2.3483798503875732 410.4671630859375 C 20.117589950561523 409.2781066894531 37.544189453125 411.57305908203125 48.29817199707031 408.11199951171875 C 50.32991027832031 400.4306640625 42.322227478027344 401.40350341796875 34.519866943359375 398.6941223144531 C 24.399097442626953 398.595947265625 11.150443077087402 397.8763427734375 -5.1249284744262695 398.7571105957031" stroke-width="0.0" fill="rgb(196, 165, 110)" opacity="1.0098214" stroke="rgb(0, 0, 0)" stroke-opacity="1.0" stroke-linecap="round" stroke-linejoin="round"/>
    <path d="M 82.99657440185547 317.87091064453125 C 78.83526611328125 323.7509765625 80.41378021240234 341.1568298339844 80.87223815917969 352.41387939453125 C 84.00547790527344 354.9356689453125 86.97640228271484 359.17144775390625 95.63634490966797 354.1507568359375 C 96.6270751953125 352.7696838378906 97.82723999023438 349.6487731933594 98.54281616210938 340.3997802734375 C 87.13225555419922 337.7551574707031 95.92818450927734 319.28814697265625 82.99657440185547 317.87091064453125" stroke-width="0.0" fill="rgb(133, 109, 55)" opacity="1.0000528" stroke="rgb(0, 0, 0)" stroke-opacity="1.0" stroke-linecap="round" stroke-linejoin="round"/>
    <path d="M 162.07730102539062 497.73199462890625 C 159.7542724609375 489.3350830078125 148.406005859375 492.1096496582031 144.8708038330078 490.2593078613281 C 130.66346740722656 494.51641845703125 119.63150024414062 493.3076171875 120.1471176147461 504.549560546875 C 135.1415252685547 505.39935302734375 146.29510498046875 498.0628967285156 162.07730102539062 497.73199462890625" stroke-width="0.0" fill="rgb(146, 125, 78)" opacity="0.995661" stroke="rgb(0, 0, 0)" stroke-opacity="1.0" stroke-linecap="round" stroke-linejoin="round"/>
    <path d="M 261.3790588378906 420.7917785644531 C 259.5758972167969 416.04742431640625 256.95635986328125 416.0652160644531 245.97109985351562 418.33203125 C 239.85166931152344 418.6812438964844 239.43006896972656 423.1532287597656 236.41590881347656 431.2218933105469 C 239.77748107910156 432.0491027832031 253.7415771484375 432.5660400390625 259.9375915527344 432.1178894042969 C 262.1294250488281 430.19342041015625 263.8138427734375 425.068359375 261.3790588378906 420.7917785644531" stroke-width="0.0" fill="rgb(88, 72, 53)" opacity="0.9587974" stroke="rgb(0, 0, 0)" stroke-opacity="1.0" stroke-linecap="round" stroke-linejoin="round"/>
    <path d="M 452.87359619140625 490.8180847167969 C 450.6887512207031 490.2540588378906 451.9017639160156 496.6918029785156 449.3618469238281 500.93316650390625 C 454.9348449707031 505.7262268066406 458.9140930175781 503.7318115234375 469.5531921386719 501.02484130859375 C 469.0048828125 497.9903564453125 466.7566833496094 492.0668029785156 465.0289001464844 488.9888000488281 C 460.8918151855469 483.8744812011719 454.8866882324219 486.267333984375 452.87359619140625 490.8180847167969" stroke-width="0.0" fill="rgb(149, 127, 93)" opacity="0.99952805" stroke="rgb(0, 0, 0)" stroke-opacity="1.0" stroke-linecap="round" stroke-linejoin="round"/>
    <path d="M 409.5362548828125 356.0542297363281 C 412.57452392578125 351.72308349609375 414.2170715332031 365.19378662109375 412.0890197753906 358.8770751953125 C 417.0643615722656 375.2991638183594 419.84149169921875 388.1053161621094 410.3431091308594 390.6720275878906 C 406.2545471191406 382.2801208496094 405.03387451171875 363.8471984863281 409.5362548828125 356.0542297363281" stroke-width="0.0" fill="rgb(103, 86, 50)" opacity="0.9988046" stroke="rgb(0, 0, 0)" stroke-opacity="1.0" stroke-linecap="round" stroke-linejoin="round"/>
    <path d="M 90.97945404052734 405.25030517578125 C 99.43222045898438 408.7127380371094 111.52015686035156 410.0570983886719 126.68445587158203 409.3856201171875 C 125.8707504272461 401.1181640625 119.52055358886719 401.9109191894531 105.20083618164062 399.20977783203125 C 106.64820098876953 398.4232177734375 99.13338470458984 402.76953125 90.97945404052734 405.25030517578125" stroke-width="0.0" fill="rgb(135, 115, 79)" opacity="0.99813855" stroke="rgb(0, 0, 0)" stroke-opacity="1.0" stroke-linecap="round" stroke-linejoin="round"/>
    <path d="M 130.69993591308594 396.2179260253906 C 128.72488403320312 399.732421875 134.85421752929688 398.6398620605469 129.49591064453125 405.30657958984375 C 130.0128936767578 409.0320739746094 134.74069213867188 411.3083190917969 141.9577178955078 406.62548828125 C 145.2925567626953 405.37530517578125 141.8413848876953 398.26727294921875 148.671142578125 395.0464172363281 C 142.1972198486328 393.3621826171875 132.66810607910156 389.96112060546875 130.69993591308594 396.2179260253906" stroke-width="0.0" fill="rgb(151, 124, 75)" opacity="1.000432" stroke="rgb(0, 0, 0)" stroke-opacity="1.0" stroke-linecap="round" stroke-linejoin="round"/>
    <path d="M 230.6514129638672 401.3941345214844 C 226.75352478027344 405.59832763671875 228.64352416992188 407.5573425292969 232.19552612304688 408.2901306152344 C 240.71295166015625 408.6329040527344 250.39744567871094 406.3038330078125 261.61798095703125 404.81976318359375 C 253.17105102539062 397.7082214355469 239.8069305419922 399.7731628417969 230.6514129638672 401.3941345214844" stroke-width="0.0" fill="rgb(146, 123, 81)" opacity="1.0002601" stroke="rgb(0, 0, 0)" stroke-opacity="1.0" stroke-linecap="round" stroke-linejoin="round"/>
    <path d="M 114.91571807861328 348.7653503417969 C 111.83151245117188 354.69403076171875 105.20597076416016 358.10992431640625 101.41879272460938 362.8602294921875 C 103.90572357177734 366.9130554199219 110.95953369140625 366.3213195800781 119.12715148925781 364.2117919921875 C 120.63750457763672 362.56939697265625 122.8144760131836 355.34661865234375 114.91571807861328 348.7653503417969" stroke-width="0.0" fill="rgb(122, 107, 72)" opacity="0.99844795" stroke="rgb(0, 0, 0)" stroke-opacity="1.0" stroke-linecap="round" stroke-linejoin="round"/>
    <path d="M 326.9572448730469 432.74420166015625 C 321.1823425292969 439.0018615722656 320.90081787109375 447.0466003417969 320.006103515625 457.0783386230469 C 325.8689270019531 459.610595703125 323.26239013671875 448.85675048828125 326.7729187011719 442.3835144042969 C 331.22918701171875 445.2303466796875 329.8422546386719 454.91400146484375 334.8296813964844 458.6959228515625 C 336.8079833984375 447.0997009277344 330.28302001953125 443.7116394042969 332.21307373046875 435.2877197265625 C 327.6568298339844 435.16632080078125 325.5948181152344 433.25714111328125 326.9572448730469 432.74420166015625" stroke-width="0.0" fill="rgb(83, 69, 58)" opacity="0.9836872" stroke="rgb(0, 0, 0)" stroke-opacity="1.0" stroke-linecap="round" stroke-linejoin="round"/>
    <path d="M 169.95516967773438 408.05987548828125 C 173.65753173828125 410.76812744140625 183.1072998046875 410.8429870605469 193.73419189453125 409.7509460449219 C 196.8346710205078 401.94061279296875 184.9656524658203 403.2144470214844 176.72743225097656 400.9781799316406 C 169.92092895507812 399.6369934082031 171.72122192382812 401.0964050292969 169.95516967773438 408.05987548828125" stroke-width="0.0" fill="rgb(130, 110, 73)" opacity="0.99946505" stroke="rgb(0, 0, 0)" stroke-opacity="1.0" stroke-linecap="round" stroke-linejoin="round"/>
    <path d="M 450.34521484375 406.7698974609375 C 452.05426025390625 409.9835510253906 454.63885498046875 414.78564453125 453.102294921875 423.1210632324219 C 457.48358154296875 426.4945983886719 464.4599914550781 428.6442565917969 470.32794189453125 433.32879638671875 C 476.4019775390625 433.1583251953125 486.5770263671875 432.26116943359375 491.97210693359375 434.6434020996094 C 501.23358154296875 433.5361328125 503.2076110839844 430.96844482421875 506.05120849609375 423.4747619628906 C 507.0306701660156 411.67974853515625 506.3870544433594 407.5117492675781 506.5885314941406 405.4733581542969 C 480.231201171875 403.17840576171875 460.2896728515625 400.28875732421875 450.34521484375 406.7698974609375" stroke-width="0.0" fill="rgb(76, 71, 53)" opacity="1.005803" stroke="rgb(0, 0, 0)" stroke-opacity="1.0" stroke-linecap="round" stroke-linejoin="round"/>
    <path d="M 349.2925720214844 347.677734375 C 344.7916259765625 361.2673034667969 341.6783447265625 369.3366394042969 343.8037414550781 386.6370849609375 C 351.9486999511719 386.1485290527344 351.52947998046875 399.24871826171875 360.8600158691406 397.41802978515625 C 362.43267822265625 395.90557861328125 362.4512023925781 383.4210205078125 361.3150329589844 371.0789489746094 C 356.74298095703125 363.8387145996094 352.3162841796875 357.5948181152344 349.2925720214844 347.677734375" stroke-width="0.0" fill="rgb(93, 79, 39)" opacity="0.99947417" stroke="rgb(0, 0, 0)" stroke-opacity="1.0" stroke-linecap="round" stroke-linejoin="round"/>
    <path d="M 486.2381591796875 340.8463134765625 C 477.40594482421875 350.749755859375 485.95269775390625 370.0160827636719 481.45001220703125 383.010986328125 C 484.23785400390625 387.9145202636719 485.1864929199219 392.2662048339844 494.7208557128906 388.5816650390625 C 495.7347717285156 391.9106140136719 496.95062255859375 382.7078552246094 497.0577697753906 373.75140380859375 C 495.2844543457031 359.2399597167969 492.5196533203125 351.0952453613281 486.2381591796875 340.8463134765625" stroke-width="0.0" fill="rgb(114, 96, 56)" opacity="0.99753976" stroke="rgb(0, 0, 0)" stroke-opacity="1.0" stroke-linecap="round" stroke-linejoin="round"/>
    <path d="M 261.39129638671875 388.6078186035156 C 262.8047180175781 399.4451904296875 283.8037414550781 390.6295166015625 292.5251770019531 399.189208984375 C 303.310302734375 398.5799255371094 317.4244079589844 400.307861328125 322.9418029785156 394.7852783203125 C 316.39569091796875 389.61663818359375 306.1467590332031 393.24554443359375 305.85418701171875 386.43536376953125 C 279.49395751953125 388.8641662597656 263.06292724609375 382.7242126464844 261.39129638671875 388.6078186035156" stroke-width="0.0" fill="rgb(84, 73, 48)" opacity="0.9990775" stroke="rgb(0, 0, 0)" stroke-opacity="1.0" stroke-linecap="round" stroke-linejoin="round"/>
    <path d="M 345.2699279785156 340.6159362792969 C 334.580078125 343.1872253417969 334.0474548339844 351.158935546875 333.44317626953125 370.7662658691406 C 335.0393981933594 370.1648864746094 332.0605163574219 380.1512145996094 339.0289001464844 382.4188232421875 C 346.9386901855469 377.04107666015625 340.5863952636719 360.10595703125 350.5108337402344 352.1856384277344 C 351.2813720703125 347.2120361328125 347.07421875 344.42236328125 345.2699279785156 340.6159362792969" stroke-width="0.0" fill="rgb(112, 92, 43)" opacity="1.002955" stroke="rgb(0, 0, 0)" stroke-opacity="1.0" stroke-linecap="round" stroke-linejoin="round"/>
    <path d="M 454.7189636230469 424.5895690917969 C 452.50592041015625 412.1533508300781 452.57611083984375 406.0389709472656 451.486083984375 404.5186767578125 C 441.3572998046875 405.6838684082031 429.0850524902344 406.3723449707031 427.7633361816406 407.1221008300781 C 424.7449951171875 410.6111755371094 423.5028991699219 418.1993713378906 426.77313232421875 418.59136962890625 C 435.60845947265625 418.6077880859375 442.36932373046875 422.8161926269531 454.7189636230469 424.5895690917969" stroke-width="0.0" fill="rgb(80, 73, 47)" opacity="1.0112982" stroke="rgb(0, 0, 0)" stroke-opacity="1.0" stroke-linecap="round" stroke-linejoin="round"/>
    <path d="M 180.5560302734375 337.3649597167969 C 179.6551971435547 347.6220397949219 173.61016845703125 354.10736083984375 175.2764434814453 365.7638244628906 C 183.3675994873047 371.6954040527344 185.95693969726562 361.5150146484375 189.45755004882812 355.92193603515625 C 188.79844665527344 349.4148254394531 188.18104553222656 340.0649108886719 180.5560302734375 337.3649597167969" stroke-width="0.0" fill="rgb(139, 113, 65)" opacity="0.98289806" stroke="rgb(0, 0, 0)" stroke-opacity="1.0" stroke-linecap="round" stroke-linejoin="round"/>
    <path d="M 312.0539245605469 364.8904724121094 C 308.3663024902344 372.58526611328125 305.1517028808594 379.5968322753906 306.79266357421875 392.8447265625 C 314.0109558105469 392.00994873046875 317.50738525390625 388.8395690917969 319.5443115234375 385.7109069824219 C 318.9505310058594 376.894775390625 319.6033935546875 366.7399597167969 312.0539245605469 364.8904724121094" stroke-width="0.0" fill="rgb(108, 92, 48)" opacity="0.9899085" stroke="rgb(0, 0, 0)" stroke-opacity="1.0" stroke-linecap="round" stroke-linejoin="round"/>
    <path d="M 520.38525390625 392.2729187011719 C 506.3088073730469 395.8614807128906 506.142822265625 401.09503173828125 500.0042724609375 400.7718505859375 C 502.54083251953125 406.4891662597656 502.3563537597656 418.4919128417969 514.5479125976562 423.48980712890625 C 520.6627807617188 419.3987121582031 521.0859375 410.8113098144531 520.38525390625 392.2729187011719" stroke-width="0.0" fill="rgb(93, 86, 62)" opacity="1.0000379" stroke="rgb(0, 0, 0)" stroke-opacity="1.0" stroke-linecap="round" stroke-linejoin="round"/>
    <path d="M 262.4534606933594 386.6162414550781 C 259.31842041015625 393.41143798828125 265.46380615234375 392.5914001464844 271.86798095703125 395.364013671875 C 286.8443298339844 393.2921447753906 296.4197692871094 400.54095458984375 300.9737548828125 397.84466552734375 C 303.8937072753906 391.350341796875 303.4399108886719 387.26251220703125 301.7975158691406 386.69708251953125 C 286.95751953125 388.36907958984375 271.9908752441406 384.6780090332031 262.4534606933594 386.6162414550781" stroke-width="0.0" fill="rgb(85, 77, 48)" opacity="0.9974838" stroke="rgb(0, 0, 0)" stroke-opacity="1.0" stroke-linecap="round" stroke-linejoin="round"/>
  </g>
</svg>
