<?xml version="1.0" ?>
<svg xmlns="http://www.w3.org/2000/svg" version="1.1" width="512" height="512">
  <defs/>
  <g>
    <path d="M -2.474595308303833 -1.5091354846954346 C -2.1170129776000977 170.3333282470703 -1.1104704141616821 340.6666564941406 -0.5088603496551514 518.0474853515625 C 169.8304443359375 518.5581665039062 339.80181884765625 519.4230346679688 518.9447631835938 520.6641845703125 C 518.7158813476562 342.1280822753906 518.9319458007812 171.37506103515625 519.1578369140625 -0.3145758807659149 C 340.6666564941406 -0.7002056837081909 170.3333282470703 -0.9621623754501343 -2.474595308303833 -1.5091354846954346" stroke-width="0.0" fill="rgb(104, 113, 222)" opacity="0.737187" stroke="rgb(0, 0, 0)" stroke-opacity="1.0" stroke-linecap="round" stroke-linejoin="round"/>
    <path d="M 518.9613037109375 171.73899841308594 C 490.9696960449219 163.79193115234375 472.5921325683594 163.7866973876953 446.32049560546875 163.21307373046875 C 421.24627685546875 155.5959930419922 409.712158203125 139.6498565673828 381.4258728027344 134.15084838867188 C 370.3626403808594 132.38836669921875 356.97979736328125 129.28660583496094 340.4405822753906 131.7440185546875 C 326.2620544433594 132.5614776611328 312.53021240234375 139.4309844970703 300.6207580566406 146.29364013671875 C 272.8569030761719 163.68675231933594 254.75820922851562 189.75772094726562 227.08712768554688 206.35000610351562 C 193.6907501220703 224.7215118408203 194.15756225585938 206.85073852539062 191.57920837402344 192.21234130859375 C 163.29075622558594 186.3376007080078 146.93182373046875 188.4932098388672 120.75877380371094 190.35479736328125 C 77.74170684814453 196.96856689453125 42.367488861083984 210.53456115722656 8.23691177368164 223.88839721679688 C 5.467580795288086 225.43695068359375 2.9169228076934814 231.93833923339844 -5.485479831695557 241.065673828125 C -6.860637664794922 324.9665222167969 -6.629712104797363 418.09368896484375 -5.782607555389404 518.123779296875 C 170.05670166015625 518.1654052734375 340.2463073730469 518.5038452148438 520.5437622070312 519.214111328125 C 520.0429077148438 398.73602294921875 519.0359497070312 285.20233154296875 518.9613037109375 171.73899841308594" stroke-width="0.0" fill="rgb(189, 175, 158)" opacity="0.82913935" stroke="rgb(0, 0, 0)" stroke-opacity="1.0" stroke-linecap="round" stroke-linejoin="round"/>
    <path d="M 268.10089111328125 162.95982360839844 C 250.89794921875 187.95265197753906 236.05418395996094 176.6107940673828 219.5415496826172 188.50689697265625 C 212.4091339111328 188.6927032470703 206.2969207763672 183.87820434570312 196.98468017578125 190.18594360351562 C 192.12721252441406 194.14955139160156 185.3376922607422 210.12852478027344 181.1464385986328 225.90185546875 C 201.531005859375 219.3199920654297 217.8290252685547 209.41685485839844 236.2377471923828 203.34580993652344 C 245.86785888671875 188.9356231689453 269.4202575683594 182.41978454589844 268.10089111328125 162.95982360839844" stroke-width="0.0" fill="rgb(158, 162, 191)" opacity="0.9878811" stroke="rgb(0, 0, 0)" stroke-opacity="1.0" stroke-linecap="round" stroke-linejoin="round"/>
    <path d="M -5.50462532043457 244.3594207763672 C -7.142284870147705 335.0573425292969 -6.742966651916504 423.14599609375 -5.984296798706055 518.3048095703125 C 169.89381408691406 518.32763671875 339.973876953125 518.7754516601562 520.5953369140625 519.712158203125 C 519.808349609375 460.1540832519531 518.8164672851562 408.18634033203125 519.4953002929688 357.1226806640625 C 441.7845458984375 358.3442077636719 366.8805847167969 352.9715270996094 285.7145080566406 353.7575988769531 C 257.24395751953125 351.8623046875 215.86964416503906 346.7284240722656 174.91842651367188 340.1111145019531 C 132.73838806152344 332.113037109375 105.65800476074219 314.08587646484375 71.79437255859375 298.989501953125 C 41.6539192199707 285.2191162109375 24.087421417236328 265.53375244140625 -5.50462532043457 244.3594207763672" stroke-width="0.0" fill="rgb(111, 101, 89)" opacity="1.0746309" stroke="rgb(0, 0, 0)" stroke-opacity="1.0" stroke-linecap="round" stroke-linejoin="round"/>
    <path d="M 517.07666015625 220.82887268066406 C 484.70733642578125 238.91127014160156 468.6815490722656 267.8158874511719 440.4393615722656 287.92852783203125 C 418.7324523925781 301.81683349609375 390.7711486816406 313.30999755859375 366.68511962890625 330.8757629394531 C 366.0341491699219 341.8953552246094 355.5268859863281 326.931640625 359.506591796875 348.7182312011719 C 367.74273681640625 349.45245361328125 373.0055847167969 356.6154479980469 379.0247802734375 355.3805847167969 C 425.98663330078125 354.98773193359375 467.2999267578125 359.2175598144531 519.9463500976562 357.4015808105469 C 519.8803100585938 309.2596740722656 521.728759765625 263.1636657714844 517.07666015625 220.82887268066406" stroke-width="0.0" fill="rgb(75, 68, 82)" opacity="1.005287" stroke="rgb(0, 0, 0)" stroke-opacity="1.0" stroke-linecap="round" stroke-linejoin="round"/>
    <path d="M 261.62451171875 180.58900451660156 C 250.7356414794922 187.68795776367188 244.5536651611328 198.2711944580078 234.43533325195312 203.69874572753906 C 243.1316375732422 214.6917266845703 247.75814819335938 205.90333557128906 256.4891357421875 201.21701049804688 C 262.5592346191406 196.30508422851562 269.8338623046875 188.51377868652344 261.62451171875 180.58900451660156" stroke-width="0.0" fill="rgb(235, 235, 237)" opacity="1.018623" stroke="rgb(0, 0, 0)" stroke-opacity="1.0" stroke-linecap="round" stroke-linejoin="round"/>
    <path d="M 194.29124450683594 197.4912567138672 C 191.58770751953125 188.02879333496094 179.84727478027344 185.91859436035156 151.7902069091797 185.85252380371094 C 135.20718383789062 194.38363647460938 105.02487182617188 184.42189025878906 68.00397491455078 194.1815643310547 C 48.439361572265625 204.2068634033203 26.50273323059082 215.75148010253906 -2.1515326499938965 225.08248901367188 C -9.419943809509277 221.71128845214844 -8.025627136230469 231.6887664794922 -1.2876174449920654 242.63162231445312 C 17.778945922851562 254.18238830566406 29.342403411865234 272.5111389160156 49.93736267089844 283.21978759765625 C 64.27667999267578 268.84808349609375 83.94601440429688 266.2550048828125 99.24482727050781 254.0467071533203 C 103.18203735351562 243.0256805419922 113.99646759033203 241.87884521484375 113.65520477294922 227.44764709472656 C 126.55415344238281 234.84291076660156 121.413818359375 232.56239318847656 141.22610473632812 232.4635009765625 C 154.95294189453125 231.6632843017578 172.03012084960938 229.8771209716797 180.96295166015625 223.40370178222656 C 179.94862365722656 209.80984497070312 192.3709259033203 207.13784790039062 194.29124450683594 197.4912567138672" stroke-width="0.0" fill="rgb(203, 199, 199)" opacity="0.935804" stroke="rgb(0, 0, 0)" stroke-opacity="1.0" stroke-linecap="round" stroke-linejoin="round"/>
    <path d="M 262.4908447265625 180.103759765625 C 266.6099853515625 185.3613739013672 271.52667236328125 189.7410125732422 284.9700927734375 192.5647430419922 C 306.37677001953125 186.47303771972656 311.3387756347656 189.888671875 333.1453552246094 191.55294799804688 C 352.7354431152344 189.06063842773438 359.1363525390625 179.66854858398438 371.4252624511719 180.7535858154297 C 389.0269470214844 180.1789093017578 396.5532531738281 191.19088745117188 417.462158203125 188.7933349609375 C 430.1819152832031 190.4318389892578 429.58721923828125 184.0625762939453 435.2823791503906 180.7010040283203 C 434.8620910644531 176.9263153076172 438.53619384765625 168.59085083007812 435.967529296875 161.97911071777344 C 426.34527587890625 153.28773498535156 412.07611083984375 145.1436309814453 403.1762390136719 137.23580932617188 C 384.44500732421875 130.2284393310547 365.5339660644531 126.74671936035156 349.49310302734375 126.65943145751953 C 321.84283447265625 130.99868774414062 311.76605224609375 142.10086059570312 291.90643310546875 144.04693603515625 C 282.5425109863281 158.64254760742188 268.01953125 162.68072509765625 262.4908447265625 180.103759765625" stroke-width="0.0" fill="rgb(195, 195, 206)" opacity="1.0317693" stroke="rgb(0, 0, 0)" stroke-opacity="1.0" stroke-linecap="round" stroke-linejoin="round"/>
    <path d="M 431.5413513183594 192.5176239013672 C 466.8212585449219 184.04550170898438 478.53460693359375 197.021728515625 512.5706176757812 195.41615295410156 C 520.8261108398438 188.84262084960938 520.8802490234375 178.36766052246094 519.8338623046875 163.58642578125 C 494.037841796875 166.8382110595703 481.2298889160156 154.75411987304688 457.4443664550781 155.15660095214844 C 448.7121887207031 156.627197265625 443.56304931640625 164.26828002929688 435.114990234375 170.12216186523438 C 437.7273864746094 178.1063690185547 432.8328857421875 181.8026580810547 431.5413513183594 192.5176239013672" stroke-width="0.0" fill="rgb(148, 148, 168)" opacity="0.9877255" stroke="rgb(0, 0, 0)" stroke-opacity="1.0" stroke-linecap="round" stroke-linejoin="round"/>
    <path d="M 150.29745483398438 265.9300537109375 C 133.08078002929688 280.97955322265625 142.81288146972656 301.3458251953125 127.7554931640625 304.9161682128906 C 116.5859375 321.24151611328125 127.57193756103516 325.3155517578125 134.88031005859375 327.23443603515625 C 152.41436767578125 331.1098327636719 163.20553588867188 329.9638977050781 161.5863037109375 322.0967102050781 C 154.2619171142578 319.4137268066406 158.28143310546875 301.41009521484375 160.25588989257812 275.4591369628906 C 158.0264892578125 274.94439697265625 155.77713012695312 265.49273681640625 150.29745483398438 265.9300537109375" stroke-width="0.0" fill="rgb(113, 106, 123)" opacity="0.9709375" stroke="rgb(0, 0, 0)" stroke-opacity="1.0" stroke-linecap="round" stroke-linejoin="round"/>
    <path d="M 268.357177734375 166.92626953125 C 259.2109069824219 169.4893035888672 256.191650390625 180.70223999023438 241.15016174316406 183.3195037841797 C 235.5426025390625 185.80271911621094 235.30274963378906 177.85736083984375 225.4942626953125 183.90367126464844 C 215.96209716796875 194.80125427246094 205.30503845214844 195.88829040527344 206.6988983154297 213.94537353515625 C 218.84141540527344 213.44403076171875 223.12411499023438 204.57748413085938 233.30430603027344 204.72267150878906 C 248.09889221191406 192.65609741210938 261.08538818359375 184.54307556152344 268.357177734375 166.92626953125" stroke-width="0.0" fill="rgb(143, 146, 176)" opacity="0.93782145" stroke="rgb(0, 0, 0)" stroke-opacity="1.0" stroke-linecap="round" stroke-linejoin="round"/>
    <path d="M 510.11590576171875 218.27757263183594 C 500.8197326660156 225.9211883544922 495.0327453613281 221.0881805419922 487.583251953125 224.61093139648438 C 482.31793212890625 231.0283203125 481.2366027832031 235.86790466308594 485.7867431640625 243.27352905273438 C 494.6058654785156 237.71034240722656 502.5584716796875 229.3505096435547 510.11590576171875 218.27757263183594" stroke-width="0.0" fill="rgb(103, 96, 116)" opacity="0.96604216" stroke="rgb(0, 0, 0)" stroke-opacity="1.0" stroke-linecap="round" stroke-linejoin="round"/>
    <path d="M 483.55499267578125 221.52410888671875 C 447.12744140625 215.25369262695312 419.30694580078125 228.0414581298828 362.85345458984375 225.2635040283203 C 340.8141784667969 242.7892608642578 317.1743469238281 253.55111694335938 291.4756774902344 276.416259765625 C 273.0499572753906 302.25469970703125 239.41554260253906 314.7567138671875 223.32278442382812 338.08349609375 C 222.6621551513672 351.96527099609375 239.70008850097656 346.8218078613281 254.86013793945312 352.4898376464844 C 278.7528076171875 352.9179382324219 299.82989501953125 360.0348815917969 326.5232849121094 357.53936767578125 C 332.2817077636719 346.4306945800781 343.7137145996094 339.0030822753906 351.80242919921875 328.49749755859375 C 374.4410400390625 318.28662109375 397.45343017578125 310.6275939941406 418.51202392578125 299.23834228515625 C 432.72625732421875 293.0097961425781 444.2455139160156 283.4292297363281 455.60662841796875 273.69189453125 C 463.91241455078125 263.9658203125 474.4449462890625 256.6560974121094 483.2868347167969 242.8083953857422 C 479.82086181640625 228.5887908935547 481.2962341308594 236.32070922851562 483.55499267578125 221.52410888671875" stroke-width="0.0" fill="rgb(143, 128, 122)" opacity="0.8784376" stroke="rgb(0, 0, 0)" stroke-opacity="1.0" stroke-linecap="round" stroke-linejoin="round"/>
    <path d="M 222.7822265625 188.73426818847656 C 205.53770446777344 183.04632568359375 203.61500549316406 183.74510192871094 192.55332946777344 193.77664184570312 C 192.28672790527344 203.4885711669922 182.6355438232422 210.7790069580078 182.0636444091797 224.49990844726562 C 193.4310302734375 228.31500244140625 197.75262451171875 214.43353271484375 207.39962768554688 216.55258178710938 C 204.60250854492188 197.82846069335938 211.72296142578125 194.31480407714844 222.7822265625 188.73426818847656" stroke-width="0.0" fill="rgb(187, 189, 203)" opacity="1.0660611" stroke="rgb(0, 0, 0)" stroke-opacity="1.0" stroke-linecap="round" stroke-linejoin="round"/>
    <path d="M 301.8941955566406 263.4930419921875 C 291.4383850097656 253.63941955566406 290.7435607910156 255.43777465820312 268.1283264160156 255.4001007080078 C 263.2843017578125 264.0801696777344 258.8179931640625 260.196044921875 238.19346618652344 265.4013366699219 C 221.2982940673828 262.6293640136719 218.3375701904297 263.6377868652344 196.29861450195312 267.816650390625 C 203.69686889648438 276.0837097167969 191.06494140625 270.29705810546875 193.26089477539062 285.5845642089844 C 206.5911102294922 291.09161376953125 226.26031494140625 284.9489440917969 261.46826171875 285.6362609863281 C 273.08551025390625 281.99261474609375 278.3915710449219 276.27899169921875 287.32562255859375 277.3003845214844 C 295.59979248046875 272.0495300292969 299.2068176269531 266.0386657714844 301.8941955566406 263.4930419921875" stroke-width="0.0" fill="rgb(170, 162, 166)" opacity="0.99943274" stroke="rgb(0, 0, 0)" stroke-opacity="1.0" stroke-linecap="round" stroke-linejoin="round"/>
    <path d="M 93.97103881835938 260.1477966308594 C 71.84725189208984 265.4239807128906 59.34035110473633 276.9953918457031 45.81726837158203 283.187255859375 C 45.16520690917969 280.7989196777344 52.22392654418945 289.6576843261719 67.90107727050781 290.8380126953125 C 74.22760772705078 275.948974609375 81.92709350585938 269.81988525390625 93.97103881835938 260.1477966308594" stroke-width="0.0" fill="rgb(185, 172, 161)" opacity="0.9735246" stroke="rgb(0, 0, 0)" stroke-opacity="1.0" stroke-linecap="round" stroke-linejoin="round"/>
    <path d="M -4.891510009765625 352.393798828125 C -2.641228199005127 407.0 -0.2270127683877945 459.0 -0.5500277280807495 517.9203491210938 C 170.111328125 518.1168212890625 340.825439453125 518.3600463867188 518.8735961914062 518.6611938476562 C 520.0755004882812 483.73876953125 520.6785278320312 457.23297119140625 520.4490966796875 436.03204345703125 C 498.37921142578125 435.3091125488281 486.3110656738281 434.7735595703125 468.0240478515625 430.68951416015625 C 442.44036865234375 423.80670166015625 421.2008056640625 410.803466796875 383.0161437988281 404.9179382324219 C 335.2514343261719 401.95782470703125 281.7977294921875 399.2677001953125 230.3598175048828 394.2580871582031 C 194.96038818359375 387.25457763671875 152.66456604003906 386.7439880371094 117.72981262207031 372.96453857421875 C 99.52946472167969 372.2786560058594 78.57842254638672 371.79425048828125 60.328617095947266 367.98431396484375 C 39.419734954833984 364.34490966796875 19.363780975341797 359.7928771972656 -4.891510009765625 352.393798828125" stroke-width="0.0" fill="rgb(185, 159, 121)" opacity="1.0149628" stroke="rgb(0, 0, 0)" stroke-opacity="1.0" stroke-linecap="round" stroke-linejoin="round"/>
    <path d="M -6.557860851287842 243.39378356933594 C -8.199873924255371 289.177490234375 -8.632031440734863 329.4167785644531 -8.654884338378906 355.46258544921875 C -5.311225414276123 358.05206298828125 12.837401390075684 353.3329162597656 17.711753845214844 362.145751953125 C 34.29585647583008 365.4123229980469 51.41393280029297 364.3760986328125 62.125911712646484 370.1996154785156 C 85.18592071533203 375.8366394042969 119.2873764038086 369.1761169433594 127.22488403320312 377.99517822265625 C 165.2242431640625 386.8264465332031 206.71871948242188 389.0899963378906 239.39846801757812 395.5449523925781 C 276.75823974609375 397.892578125 303.4369201660156 399.26983642578125 323.37066650390625 397.86492919921875 C 322.0299987792969 382.09210205078125 324.5032958984375 367.5531311035156 317.06439208984375 363.7320861816406 C 252.5155487060547 355.84014892578125 195.05186462402344 348.58673095703125 129.81884765625 328.3589782714844 C 108.49896240234375 310.7135314941406 73.03289794921875 300.5849914550781 44.96503448486328 283.01483154296875 C 28.788908004760742 271.97552490234375 17.814922332763672 254.13426208496094 -6.557860851287842 243.39378356933594" stroke-width="0.0" fill="rgb(99, 90, 73)" opacity="0.9946259" stroke="rgb(0, 0, 0)" stroke-opacity="1.0" stroke-linecap="round" stroke-linejoin="round"/>
    <path d="M 325.94525146484375 364.5337829589844 C 323.29608154296875 372.70684814453125 322.6804504394531 382.4687805175781 321.9119567871094 385.4259338378906 C 326.66302490234375 393.0916748046875 328.14447021484375 394.9659118652344 337.2952575683594 398.23114013671875 C 357.9060974121094 401.4130554199219 384.8472900390625 398.2037048339844 413.8589172363281 403.5735168457031 C 421.62738037109375 417.5963134765625 442.470458984375 421.1042175292969 468.2464904785156 430.2295227050781 C 476.9210510253906 432.5732116699219 497.60137939453125 433.7820129394531 520.8555908203125 432.9978942871094 C 520.6810913085938 410.46160888671875 520.8482055664062 382.91021728515625 519.8817138671875 359.1658020019531 C 497.67218017578125 370.0567932128906 500.9150695800781 360.0956726074219 489.05426025390625 354.6453857421875 C 473.6227111816406 360.3096008300781 457.7005920410156 362.2005615234375 438.6750183105469 363.96832275390625 C 427.5346374511719 364.2449645996094 429.0754699707031 348.7899169921875 420.46246337890625 349.6239013671875 C 413.4477844238281 352.66046142578125 411.55438232421875 359.94989013671875 402.8607482910156 362.0566711425781 C 389.0047912597656 361.7780456542969 377.5079345703125 361.8616943359375 365.7444763183594 363.2630920410156 C 349.7087707519531 363.23931884765625 349.20989990234375 348.24407958984375 340.3021545410156 353.1004638671875 C 331.953125 352.57501220703125 333.5298767089844 360.9739685058594 325.94525146484375 364.5337829589844" stroke-width="0.0" fill="rgb(86, 78, 56)" opacity="1.0128762" stroke="rgb(0, 0, 0)" stroke-opacity="1.0" stroke-linecap="round" stroke-linejoin="round"/>
    <path d="M 417.55224609375 155.13970947265625 C 403.6856384277344 158.33486938476562 400.64752197265625 173.45965576171875 386.9222717285156 179.38339233398438 C 393.5828857421875 188.43092346191406 408.35614013671875 191.318115234375 420.57427978515625 189.4015350341797 C 427.98699951171875 186.8811492919922 429.3356018066406 187.07992553710938 429.1407165527344 179.81834411621094 C 425.19427490234375 169.9175262451172 420.64422607421875 163.74542236328125 417.55224609375 155.13970947265625" stroke-width="0.0" fill="rgb(97, 100, 144)" opacity="1.0051374" stroke="rgb(0, 0, 0)" stroke-opacity="1.0" stroke-linecap="round" stroke-linejoin="round"/>
    <path d="M 458.9593811035156 155.6566162109375 C 450.560546875 154.37417602539062 444.5340881347656 163.9092254638672 436.6617736816406 168.8470001220703 C 438.79052734375 180.89370727539062 432.0231628417969 182.73643493652344 432.4075927734375 190.15846252441406 C 447.7118835449219 193.12254333496094 460.80596923828125 191.47171020507812 468.49652099609375 185.42922973632812 C 464.1061706542969 174.51771545410156 458.98162841796875 166.26690673828125 460.0703430175781 162.4746856689453 C 460.4638366699219 172.30844116210938 453.7567138671875 168.6114501953125 458.9593811035156 155.6566162109375" stroke-width="0.0" fill="rgb(89, 91, 135)" opacity="1.0029101" stroke="rgb(0, 0, 0)" stroke-opacity="1.0" stroke-linecap="round" stroke-linejoin="round"/>
    <path d="M 276.94580078125 164.0886688232422 C 271.2026062011719 164.12623596191406 272.27960205078125 175.27389526367188 265.89031982421875 178.6909942626953 C 271.4535827636719 184.7414093017578 275.8298645019531 191.82289123535156 282.34771728515625 191.55169677734375 C 287.238525390625 192.85064697265625 288.12030029296875 187.2339630126953 286.24957275390625 176.3626251220703 C 285.6989440917969 171.00686645507812 280.4375 168.3072509765625 276.94580078125 164.0886688232422" stroke-width="0.0" fill="rgb(113, 117, 156)" opacity="0.9999985" stroke="rgb(0, 0, 0)" stroke-opacity="1.0" stroke-linecap="round" stroke-linejoin="round"/>
    <path d="M 326.1703796386719 165.26156616210938 C 318.5526428222656 175.43292236328125 315.4625549316406 177.44834899902344 321.31500244140625 191.78451538085938 C 323.2179260253906 190.25885009765625 333.0096130371094 192.60816955566406 337.95599365234375 189.98191833496094 C 339.6864013671875 187.65838623046875 337.7142333984375 181.3948211669922 336.3282775878906 175.8079833984375 C 327.4891052246094 172.4436798095703 330.00982666015625 168.25022888183594 326.1703796386719 165.26156616210938" stroke-width="0.0" fill="rgb(121, 124, 159)" opacity="0.9438787" stroke="rgb(0, 0, 0)" stroke-opacity="1.0" stroke-linecap="round" stroke-linejoin="round"/>
    <path d="M 135.13711547851562 191.88746643066406 C 118.95338439941406 188.42730712890625 95.24178314208984 190.30917358398438 79.08686065673828 188.38063049316406 C 63.185523986816406 194.63385009765625 52.072452545166016 199.336181640625 44.90199279785156 209.53201293945312 C 24.199230194091797 205.35572814941406 25.500629425048828 222.14651489257812 -7.250100135803223 218.08139038085938 C -5.0324883460998535 226.1096649169922 -2.975104570388794 234.34458923339844 -0.6699281334877014 242.47592163085938 C 14.894925117492676 252.34005737304688 25.248369216918945 266.56072998046875 42.406490325927734 278.4704284667969 C 51.55603790283203 279.0805358886719 52.59351348876953 272.3948669433594 56.850555419921875 274.2619323730469 C 71.37075805664062 267.7108459472656 80.15788269042969 258.892822265625 91.94071197509766 252.09620666503906 C 104.73212432861328 232.16949462890625 114.05831909179688 208.7235107421875 135.13711547851562 191.88746643066406" stroke-width="0.0" fill="rgb(227, 226, 227)" opacity="0.974036" stroke="rgb(0, 0, 0)" stroke-opacity="1.0" stroke-linecap="round" stroke-linejoin="round"/>
    <path d="M 191.3243865966797 193.87005615234375 C 185.1363983154297 184.5733642578125 166.7530517578125 187.1620635986328 155.76873779296875 182.54808044433594 C 147.24197387695312 184.2389678955078 139.94805908203125 189.86752319335938 132.37399291992188 192.9962921142578 C 118.38666534423828 207.13121032714844 106.39923858642578 222.07431030273438 97.10448455810547 245.45004272460938 C 108.44126892089844 243.32281494140625 112.81643676757812 242.35105895996094 112.97222137451172 234.73580932617188 C 140.74241638183594 235.58897399902344 159.3427276611328 231.2277374267578 180.5537567138672 226.5236358642578 C 185.99319458007812 216.1290283203125 193.19540405273438 207.2576904296875 191.3243865966797 193.87005615234375" stroke-width="0.0" fill="rgb(216, 216, 222)" opacity="1.012109" stroke="rgb(0, 0, 0)" stroke-opacity="1.0" stroke-linecap="round" stroke-linejoin="round"/>
    <path d="M 456.5687255859375 160.11660766601562 C 454.6888427734375 168.2121124267578 465.5821533203125 174.0405731201172 470.5078430175781 182.54913330078125 C 478.7289733886719 187.71743774414062 491.8722229003906 190.2432861328125 495.4697570800781 195.28387451171875 C 502.21435546875 196.10366821289062 504.02093505859375 188.9231414794922 518.6898193359375 191.29385375976562 C 517.7578125 179.4387969970703 517.796142578125 171.00502014160156 520.1255493164062 159.62606811523438 C 485.5504455566406 163.56707763671875 472.1726989746094 151.86935424804688 456.5687255859375 160.11660766601562" stroke-width="0.0" fill="rgb(192, 191, 200)" opacity="0.994426" stroke="rgb(0, 0, 0)" stroke-opacity="1.0" stroke-linecap="round" stroke-linejoin="round"/>
    <path d="M 244.1700439453125 184.68980407714844 C 235.4005889892578 179.53570556640625 226.7860870361328 180.3755340576172 224.33062744140625 182.62356567382812 C 219.69131469726562 188.73104858398438 220.51007080078125 195.76194763183594 210.06588745117188 196.9541473388672 C 209.00582885742188 201.4408721923828 206.5824737548828 208.54161071777344 207.64259338378906 213.23680114746094 C 217.49420166015625 212.30810546875 220.98800659179688 205.4917449951172 229.69525146484375 203.29098510742188 C 234.50140380859375 205.31326293945312 234.81910705566406 189.35885620117188 244.1700439453125 184.68980407714844" stroke-width="0.0" fill="rgb(149, 153, 181)" opacity="1.0062042" stroke="rgb(0, 0, 0)" stroke-opacity="1.0" stroke-linecap="round" stroke-linejoin="round"/>
    <path d="M 271.666259765625 166.4838409423828 C 259.6902160644531 165.7025909423828 255.15245056152344 181.89527893066406 238.71571350097656 186.8953399658203 C 238.9883575439453 192.521240234375 230.1101837158203 197.18670654296875 228.0786590576172 205.29054260253906 C 241.95199584960938 207.47605895996094 236.9410858154297 192.46575927734375 248.9757537841797 194.0089111328125 C 258.0196228027344 182.5814971923828 265.53924560546875 174.44830322265625 271.666259765625 166.4838409423828" stroke-width="0.0" fill="rgb(89, 94, 134)" opacity="0.9425783" stroke="rgb(0, 0, 0)" stroke-opacity="1.0" stroke-linecap="round" stroke-linejoin="round"/>
    <path d="M 154.20518493652344 266.7359924316406 C 144.1413116455078 263.2119445800781 147.47659301757812 275.18865966796875 140.69107055664062 277.9671936035156 C 135.58404541015625 289.1976013183594 136.36143493652344 299.1739501953125 139.7877197265625 304.4588317871094 C 145.04737854003906 301.56231689453125 148.2484588623047 293.0918273925781 146.6177978515625 287.6064147949219 C 149.94505310058594 281.41448974609375 159.27304077148438 282.4414367675781 162.57217407226562 275.19561767578125 C 149.2799530029297 273.29962158203125 158.35861206054688 270.7964172363281 154.20518493652344 266.7359924316406" stroke-width="0.0" fill="rgb(64, 65, 96)" opacity="0.9894006" stroke="rgb(0, 0, 0)" stroke-opacity="1.0" stroke-linecap="round" stroke-linejoin="round"/>
    <path d="M 322.1239013671875 287.8929443359375 C 315.054931640625 292.5730285644531 312.3335876464844 301.524169921875 309.4938659667969 306.29925537109375 C 312.6156921386719 311.4202575683594 320.1274108886719 318.165771484375 333.0792541503906 318.468505859375 C 322.9440002441406 306.63531494140625 326.52685546875 296.34893798828125 322.1239013671875 287.8929443359375" stroke-width="0.0" fill="rgb(55, 53, 79)" opacity="1.0021654" stroke="rgb(0, 0, 0)" stroke-opacity="1.0" stroke-linecap="round" stroke-linejoin="round"/>
    <path d="M 190.35302734375 196.9842987060547 C 189.51609802246094 210.4591827392578 184.08322143554688 214.7675018310547 180.79196166992188 221.41464233398438 C 187.80377197265625 231.0062255859375 191.3849334716797 222.70423889160156 197.12841796875 219.19268798828125 C 190.56224060058594 214.7655487060547 198.05056762695312 201.38368225097656 190.35302734375 196.9842987060547" stroke-width="0.0" fill="rgb(105, 109, 153)" opacity="0.9803182" stroke="rgb(0, 0, 0)" stroke-opacity="1.0" stroke-linecap="round" stroke-linejoin="round"/>
    <path d="M 366.6287841796875 285.63958740234375 C 360.8107604980469 285.9551086425781 359.9164733886719 287.37384033203125 357.3788146972656 294.52532958984375 C 361.0617980957031 294.26422119140625 356.44329833984375 301.24884033203125 360.9649353027344 303.3357849121094 C 364.38446044921875 303.19970703125 369.6394958496094 300.217041015625 370.6944274902344 298.2890930175781 C 373.3340759277344 289.0083923339844 369.4966735839844 290.658447265625 366.6287841796875 285.63958740234375" stroke-width="0.0" fill="rgb(83, 78, 102)" opacity="1.0006831" stroke="rgb(0, 0, 0)" stroke-opacity="1.0" stroke-linecap="round" stroke-linejoin="round"/>
    <path d="M 300.5142822265625 266.2567138671875 C 283.69317626953125 284.8006591796875 265.3733825683594 304.0052185058594 237.20033264160156 321.8245544433594 C 236.46742248535156 329.58856201171875 225.19464111328125 332.8021240234375 224.15673828125 338.9415588378906 C 219.63418579101562 345.63446044921875 228.18516540527344 347.17437744140625 234.09727478027344 347.4280700683594 C 234.64744567871094 343.08447265625 240.34432983398438 342.89971923828125 240.9203643798828 338.3943176269531 C 251.46217346191406 338.1477355957031 247.35655212402344 336.1802062988281 250.02410888671875 342.5136413574219 C 260.9417419433594 338.7375793457031 268.0135498046875 339.7732238769531 273.6073303222656 330.3491516113281 C 285.61785888671875 321.296142578125 293.1415710449219 312.5018310546875 304.1850891113281 298.8587341308594 C 304.75372314453125 291.89007568359375 301.0995178222656 288.2176513671875 299.3970642089844 282.4504089355469 C 306.3542785644531 281.6216735839844 313.6969299316406 272.4144287109375 300.5142822265625 266.2567138671875" stroke-width="0.0" fill="rgb(76, 71, 92)" opacity="0.98795485" stroke="rgb(0, 0, 0)" stroke-opacity="1.0" stroke-linecap="round" stroke-linejoin="round"/>
    <path d="M 329.5144958496094 325.4605712890625 C 334.3106384277344 318.2077941894531 321.3771667480469 319.7519836425781 319.65509033203125 317.5265808105469 C 311.419189453125 322.6675720214844 307.1377868652344 330.2794494628906 297.1352844238281 333.73309326171875 C 300.6167907714844 342.6193542480469 306.7703552246094 332.1661376953125 317.07708740234375 335.5953369140625 C 320.0727844238281 328.19049072265625 329.2882385253906 329.7398986816406 329.5144958496094 325.4605712890625" stroke-width="0.0" fill="rgb(128, 123, 120)" opacity="1.0006487" stroke="rgb(0, 0, 0)" stroke-opacity="1.0" stroke-linecap="round" stroke-linejoin="round"/>
    <path d="M 479.7987976074219 341.5647277832031 C 472.3163757324219 343.66448974609375 471.93353271484375 354.81097412109375 468.5101623535156 360.41143798828125 C 477.56451416015625 358.0721130371094 477.49005126953125 358.6387939453125 476.14862060546875 358.4669189453125 C 476.1015930175781 359.25048828125 472.55352783203125 360.6995849609375 479.7100524902344 357.516357421875 C 483.9687194824219 359.7061462402344 480.8749084472656 350.6308288574219 479.7987976074219 341.5647277832031" stroke-width="0.0" fill="rgb(112, 96, 81)" opacity="1.0008539" stroke="rgb(0, 0, 0)" stroke-opacity="1.0" stroke-linecap="round" stroke-linejoin="round"/>
    <path d="M 437.212890625 321.5661926269531 C 431.4762268066406 324.9505615234375 431.81207275390625 338.14306640625 432.1251220703125 344.4753112792969 C 425.14495849609375 344.434326171875 431.0113220214844 348.4892578125 434.4302673339844 352.279296875 C 439.6551818847656 348.27667236328125 440.3902587890625 342.947265625 443.4132385253906 334.1485290527344 C 441.7406311035156 331.2769470214844 442.5326843261719 322.6521911621094 437.212890625 321.5661926269531" stroke-width="0.0" fill="rgb(86, 78, 70)" opacity="0.9999708" stroke="rgb(0, 0, 0)" stroke-opacity="1.0" stroke-linecap="round" stroke-linejoin="round"/>
    <path d="M 496.1500549316406 222.38124084472656 C 491.6410827636719 220.02569580078125 483.4040832519531 221.61288452148438 482.7254638671875 224.8204345703125 C 483.41351318359375 229.5194549560547 478.5261535644531 238.143798828125 484.6868896484375 240.69522094726562 C 491.1304016113281 243.4342498779297 491.06842041015625 236.1748046875 495.9749450683594 232.9612274169922 C 499.5954284667969 229.02671813964844 495.32977294921875 224.42874145507812 496.1500549316406 222.38124084472656" stroke-width="0.0" fill="rgb(85, 82, 105)" opacity="0.9422959" stroke="rgb(0, 0, 0)" stroke-opacity="1.0" stroke-linecap="round" stroke-linejoin="round"/>
    <path d="M -6.202376365661621 428.4350280761719 C -6.951477527618408 452.537109375 -6.19683313369751 482.0228271484375 -3.9169023036956787 519.1466064453125 C 170.315185546875 519.2161865234375 340.6518859863281 519.293212890625 518.549072265625 519.3233642578125 C 518.547119140625 487.09149169921875 518.5398559570312 463.0188293457031 518.4791259765625 436.2795715332031 C 340.723388671875 437.8070068359375 172.82089233398438 428.0341796875 1.0920593738555908 421.011962890625 C 1.291904330253601 418.6883544921875 5.776570796966553 428.35498046875 -6.202376365661621 428.4350280761719" stroke-width="0.0" fill="rgb(187, 158, 105)" opacity="0.9590939" stroke="rgb(0, 0, 0)" stroke-opacity="1.0" stroke-linecap="round" stroke-linejoin="round"/>
    <path d="M -4.47404670715332 244.4568328857422 C -6.9416728019714355 279.445068359375 -6.056387424468994 315.4285583496094 -5.624783039093018 351.42138671875 C 6.468889236450195 351.3702392578125 13.628673553466797 357.2508544921875 22.01471519470215 358.6386413574219 C 53.25506591796875 356.65728759765625 86.7945556640625 355.4967041015625 128.72242736816406 354.8349304199219 C 138.8955535888672 359.6156921386719 146.3623046875 349.7608947753906 141.9568634033203 342.3829040527344 C 140.92074584960938 350.6054382324219 140.36708068847656 345.6110534667969 140.48663330078125 345.5043640136719 C 143.283935546875 347.694580078125 141.4403839111328 346.11907958984375 142.51707458496094 350.7789306640625 C 144.3756561279297 338.1660461425781 139.60154724121094 336.9688415527344 146.34091186523438 339.2994689941406 C 113.66870880126953 315.874267578125 76.78160858154297 302.80377197265625 45.60902404785156 283.54400634765625 C 28.99469566345215 272.6147155761719 18.138776779174805 255.240966796875 -4.47404670715332 244.4568328857422" stroke-width="0.0" fill="rgb(130, 110, 62)" opacity="0.9839003" stroke="rgb(0, 0, 0)" stroke-opacity="1.0" stroke-linecap="round" stroke-linejoin="round"/>
    <path d="M 520.66357421875 362.92138671875 C 491.2008972167969 369.3216552734375 499.2339782714844 353.4301452636719 485.51068115234375 354.5489196777344 C 470.30035400390625 361.7058410644531 451.9052429199219 360.7011413574219 434.1158752441406 367.4675598144531 C 432.6009826660156 376.91912841796875 429.4440002441406 382.57818603515625 432.6839904785156 380.9812316894531 C 434.7801208496094 391.4236755371094 425.66693115234375 396.17138671875 416.8385925292969 397.07513427734375 C 415.0806579589844 408.2657165527344 422.7572326660156 407.8360595703125 424.26470947265625 413.282958984375 C 437.2044372558594 421.6439208984375 453.1881103515625 424.15167236328125 467.466796875 430.655029296875 C 482.5717468261719 431.9466552734375 495.6720275878906 434.25152587890625 518.212890625 432.595703125 C 520.5508422851562 411.2799072265625 520.8745727539062 386.01995849609375 520.66357421875 362.92138671875" stroke-width="0.0" fill="rgb(97, 89, 70)" opacity="0.99230176" stroke="rgb(0, 0, 0)" stroke-opacity="1.0" stroke-linecap="round" stroke-linejoin="round"/>
    <path d="M 279.7580261230469 415.72772216796875 C 281.7916259765625 415.3955383300781 270.2843017578125 418.200439453125 271.4735412597656 417.8521423339844 C 268.9816589355469 433.2237548828125 273.5221252441406 436.8636474609375 275.04412841796875 448.11968994140625 C 278.2191467285156 435.20660400390625 285.626220703125 430.5238952636719 279.7580261230469 415.72772216796875" stroke-width="0.0" fill="rgb(130, 112, 104)" opacity="1.0046542" stroke="rgb(0, 0, 0)" stroke-opacity="1.0" stroke-linecap="round" stroke-linejoin="round"/>
    <path d="M 359.80621337890625 418.92083740234375 C 357.3573303222656 428.07171630859375 363.436279296875 439.80047607421875 366.994384765625 456.4904479980469 C 367.8499450683594 448.01873779296875 369.400390625 439.73590087890625 369.9906005859375 426.23040771484375 C 365.42828369140625 422.2744445800781 368.570068359375 413.9175109863281 359.80621337890625 418.92083740234375" stroke-width="0.0" fill="rgb(81, 66, 63)" opacity="1.0095423" stroke="rgb(0, 0, 0)" stroke-opacity="1.0" stroke-linecap="round" stroke-linejoin="round"/>
    <path d="M 324.97125244140625 416.41424560546875 C 319.9416809082031 433.4615173339844 326.5437927246094 438.8526611328125 323.9719543457031 440.68280029296875 C 325.2235107421875 435.866943359375 321.8541564941406 433.5778503417969 327.70281982421875 433.5437316894531 C 332.8183288574219 437.7815246582031 325.6888732910156 440.6953125 326.3517150878906 443.0088806152344 C 325.7982177734375 442.7900085449219 329.67193603515625 439.3550109863281 332.5057373046875 430.2978515625 C 330.9599914550781 420.77716064453125 326.4639587402344 416.40423583984375 324.97125244140625 416.41424560546875" stroke-width="0.0" fill="rgb(105, 102, 110)" opacity="0.95547426" stroke="rgb(0, 0, 0)" stroke-opacity="1.0" stroke-linecap="round" stroke-linejoin="round"/>
    <path d="M 161.430908203125 412.19775390625 C 152.151611328125 410.3492126464844 152.67681884765625 415.8703918457031 155.99786376953125 425.42901611328125 C 154.89035034179688 426.77398681640625 163.0072784423828 426.6083679199219 166.98171997070312 429.68206787109375 C 167.4827117919922 426.729736328125 170.8573760986328 422.05963134765625 168.53866577148438 412.8729553222656 C 159.6409912109375 418.40875244140625 164.7287139892578 412.274658203125 161.430908203125 412.19775390625" stroke-width="0.0" fill="rgb(86, 73, 70)" opacity="1.0062889" stroke="rgb(0, 0, 0)" stroke-opacity="1.0" stroke-linecap="round" stroke-linejoin="round"/>
    <path d="M -5.333122253417969 352.740478515625 C -6.151786804199219 369.7892150878906 -5.970738410949707 390.17242431640625 -4.462085723876953 411.0819091796875 C 78.54545593261719 405.6572570800781 153.91941833496094 411.9305725097656 245.45387268066406 405.8355712890625 C 265.7781677246094 410.1727294921875 275.1600341796875 391.5708923339844 317.4349060058594 400.44012451171875 C 308.69378662109375 399.0220031738281 306.3273620605469 401.7722473144531 305.2437438964844 386.985107421875 C 306.1197814941406 378.072265625 310.1622619628906 371.4613037109375 309.790283203125 364.07525634765625 C 297.9695739746094 362.4654846191406 286.18829345703125 357.4530334472656 272.56610107421875 361.1825256347656 C 277.89056396484375 365.5209045410156 277.1778259277344 375.9750671386719 266.6521301269531 377.8937072753906 C 257.3033752441406 371.26116943359375 268.3634033203125 357.38922119140625 264.908935546875 358.6346740722656 C 244.79013061523438 352.7438659667969 225.8542022705078 350.4831848144531 207.40029907226562 352.8379211425781 C 180.572021484375 336.2483825683594 136.2235107421875 330.82037353515625 140.59820556640625 331.5635070800781 C 141.5411834716797 345.6086120605469 144.08445739746094 357.005126953125 135.2138214111328 353.89801025390625 C 109.12333679199219 350.4548645019531 98.99413299560547 356.0836181640625 88.99906158447266 357.23468017578125 C 74.5455093383789 356.3196105957031 58.22804260253906 358.31268310546875 50.61962890625 356.15643310546875 C 42.14484405517578 361.0106506347656 36.58717346191406 364.8572082519531 30.243627548217773 363.65789794921875 C 13.83714771270752 363.3838195800781 13.085932731628418 349.9237060546875 -5.333122253417969 352.740478515625" stroke-width="0.0" fill="rgb(162, 141, 96)" opacity="0.6628525" stroke="rgb(0, 0, 0)" stroke-opacity="1.0" stroke-linecap="round" stroke-linejoin="round"/>
    <path d="M 133.53857421875 193.9480438232422 C 127.4421615600586 183.8643341064453 103.96385192871094 194.00889587402344 82.98014831542969 187.09176635742188 C 63.04938507080078 194.1524658203125 51.4361686706543 199.21742248535156 44.326969146728516 209.4073944091797 C 24.73993682861328 205.52757263183594 27.393047332763672 220.5349578857422 -10.45112419128418 219.63653564453125 C -5.724948406219482 222.0591583251953 -4.863598823547363 227.97654724121094 1.1635212898254395 234.7498321533203 C 4.361398220062256 228.3509979248047 14.260498046875 228.72418212890625 30.248836517333984 226.65574645996094 C 48.3261604309082 235.74758911132812 69.3093490600586 226.8953399658203 102.12930297851562 232.67864990234375 C 111.25584411621094 218.1516571044922 121.80694580078125 204.8963165283203 133.53857421875 193.9480438232422" stroke-width="0.0" fill="rgb(205, 206, 217)" opacity="1.0027863" stroke="rgb(0, 0, 0)" stroke-opacity="1.0" stroke-linecap="round" stroke-linejoin="round"/>
    <path d="M 342.742431640625 341.30328369140625 C 330.26068115234375 349.01531982421875 327.8542785644531 373.1440734863281 331.17327880859375 386.8758239746094 C 327.9775390625 388.3950500488281 334.5638122558594 392.19183349609375 340.9703369140625 397.25927734375 C 352.8698425292969 394.4789123535156 365.7148742675781 396.4383239746094 377.2021484375 397.7277526855469 C 382.1531066894531 392.8542175292969 378.6878967285156 375.990234375 375.3819274902344 366.2525329589844 C 372.3256530761719 361.82305908203125 365.9957580566406 364.0844421386719 363.6896667480469 369.1647644042969 C 350.5246887207031 361.5664367675781 351.8962707519531 343.4713439941406 342.742431640625 341.30328369140625" stroke-width="0.0" fill="rgb(76, 67, 44)" opacity="0.99587643" stroke="rgb(0, 0, 0)" stroke-opacity="1.0" stroke-linecap="round" stroke-linejoin="round"/>
    <path d="M 416.5470886230469 334.5909729003906 C 415.619384765625 358.9814453125 406.8782958984375 355.1810607910156 406.9986572265625 371.3302917480469 C 409.05999755859375 378.3000793457031 408.58416748046875 385.3736572265625 409.76910400390625 387.6825866699219 C 414.63861083984375 390.7402038574219 419.3343811035156 395.0123596191406 428.3061218261719 394.00372314453125 C 435.7366027832031 390.1023864746094 431.55963134765625 378.5709533691406 432.13616943359375 358.6360778808594 C 424.7574462890625 350.32666015625 428.40142822265625 334.49468994140625 416.5470886230469 334.5909729003906" stroke-width="0.0" fill="rgb(87, 76, 53)" opacity="0.9889053" stroke="rgb(0, 0, 0)" stroke-opacity="1.0" stroke-linecap="round" stroke-linejoin="round"/>
    <path d="M 169.07765197753906 426.33599853515625 C 194.61212158203125 432.828369140625 235.76185607910156 429.04486083984375 270.0660095214844 432.8499755859375 C 270.0962219238281 425.00885009765625 270.9021911621094 420.74359130859375 267.0211181640625 419.3775939941406 C 226.1534423828125 419.7823791503906 194.71580505371094 416.3506164550781 169.07765197753906 426.33599853515625" stroke-width="0.0" fill="rgb(102, 83, 60)" opacity="0.987565" stroke="rgb(0, 0, 0)" stroke-opacity="1.0" stroke-linecap="round" stroke-linejoin="round"/>
    <path d="M 310.7392883300781 365.0005798339844 C 307.0125732421875 366.54925537109375 310.1857604980469 378.2620849609375 302.2601013183594 384.62103271484375 C 307.0583801269531 385.4740295410156 304.46868896484375 394.6600341796875 308.19781494140625 398.08587646484375 C 316.6841735839844 398.26495361328125 318.04150390625 399.3706359863281 321.0681457519531 395.03155517578125 C 320.87005615234375 387.49627685546875 320.4327392578125 376.234375 326.22222900390625 369.0804748535156 C 321.17169189453125 369.9162292480469 317.1434326171875 361.4466247558594 310.7392883300781 365.0005798339844" stroke-width="0.0" fill="rgb(100, 85, 52)" opacity="1.0069456" stroke="rgb(0, 0, 0)" stroke-opacity="1.0" stroke-linecap="round" stroke-linejoin="round"/>
    <path d="M 423.4908752441406 424.30145263671875 C 421.54437255859375 418.9822998046875 414.85614013671875 419.1970520019531 416.8377685546875 416.0962829589844 C 413.4964294433594 424.7547302246094 401.67181396484375 425.33831787109375 398.0108642578125 435.3829345703125 C 406.1073303222656 438.08428955078125 414.3013916015625 435.0171203613281 428.01312255859375 434.14117431640625 C 426.0951232910156 436.9731140136719 426.4797058105469 431.5871276855469 423.4908752441406 424.30145263671875" stroke-width="0.0" fill="rgb(72, 62, 43)" opacity="0.99351484" stroke="rgb(0, 0, 0)" stroke-opacity="1.0" stroke-linecap="round" stroke-linejoin="round"/>
    <path d="M 221.27194213867188 188.693603515625 C 219.64329528808594 194.2043914794922 211.59515380859375 191.61769104003906 209.66883850097656 196.80335998535156 C 207.94915771484375 202.50978088378906 206.0691680908203 206.57473754882812 207.2766571044922 214.80615234375 C 213.40170288085938 212.19903564453125 219.01348876953125 210.83689880371094 224.71551513671875 205.28187561035156 C 219.97410583496094 204.19537353515625 219.08917236328125 197.2172393798828 221.27194213867188 188.693603515625" stroke-width="0.0" fill="rgb(80, 85, 133)" opacity="1.0015626" stroke="rgb(0, 0, 0)" stroke-opacity="1.0" stroke-linecap="round" stroke-linejoin="round"/>
    <path d="M 267.26702880859375 354.50115966796875 C 264.9615783691406 360.2424621582031 261.2864990234375 367.5926208496094 262.6967468261719 371.9294128417969 C 265.4107360839844 377.9386901855469 264.1509094238281 378.6882019042969 271.0076904296875 376.5323486328125 C 274.0256652832031 374.7648010253906 276.0026550292969 370.8927001953125 276.1976013183594 365.5150451660156 C 271.94781494140625 361.67181396484375 272.58026123046875 355.38128662109375 267.26702880859375 354.50115966796875" stroke-width="0.0" fill="rgb(117, 98, 43)" opacity="0.9930781" stroke="rgb(0, 0, 0)" stroke-opacity="1.0" stroke-linecap="round" stroke-linejoin="round"/>
    <path d="M 248.1414031982422 189.68634033203125 C 238.90599060058594 176.43374633789062 236.08082580566406 179.37228393554688 234.7469940185547 186.63003540039062 C 231.94766235351562 198.4634552001953 216.73541259765625 205.04685974121094 235.4575653076172 205.0917205810547 C 238.0986328125 202.32138061523438 242.23594665527344 193.7039794921875 248.1414031982422 189.68634033203125" stroke-width="0.0" fill="rgb(87, 93, 135)" opacity="0.9634952" stroke="rgb(0, 0, 0)" stroke-opacity="1.0" stroke-linecap="round" stroke-linejoin="round"/>
    <path d="M 424.96612548828125 418.8595275878906 C 424.86322021484375 427.35455322265625 427.0086975097656 431.8682556152344 422.23626708984375 437.5829772949219 C 444.3809814453125 437.6069641113281 463.0391845703125 444.75823974609375 473.1406555175781 437.9018859863281 C 471.4278259277344 432.8287658691406 463.54254150390625 430.94012451171875 459.598876953125 427.94415283203125 C 447.6824951171875 424.6259765625 438.23358154296875 419.8768005371094 424.96612548828125 418.8595275878906" stroke-width="0.0" fill="rgb(143, 122, 80)" opacity="0.9893662" stroke="rgb(0, 0, 0)" stroke-opacity="1.0" stroke-linecap="round" stroke-linejoin="round"/>
    <path d="M 371.1622619628906 422.6113586425781 C 369.6719665527344 427.9788818359375 373.8334045410156 431.2989196777344 369.7913513183594 436.5307312011719 C 386.4803161621094 432.7380676269531 401.5105285644531 441.1490173339844 402.82952880859375 430.84600830078125 C 404.194580078125 428.8871154785156 398.5403747558594 425.4987487792969 394.2255554199219 422.6311340332031 C 386.3081970214844 422.81817626953125 373.516845703125 419.1455993652344 371.1622619628906 422.6113586425781" stroke-width="0.0" fill="rgb(96, 81, 67)" opacity="0.99641097" stroke="rgb(0, 0, 0)" stroke-opacity="1.0" stroke-linecap="round" stroke-linejoin="round"/>
    <path d="M 287.632080078125 422.8818054199219 C 289.29461669921875 427.7596130371094 285.0931701660156 428.8092956542969 287.4775695800781 433.16644287109375 C 297.89935302734375 433.9112548828125 309.8817138671875 434.5086669921875 321.37945556640625 434.1023864746094 C 320.6360168457031 426.2719421386719 322.9651184082031 423.21905517578125 316.50921630859375 421.81719970703125 C 305.2140197753906 423.3028564453125 292.4682312011719 418.66552734375 287.632080078125 422.8818054199219" stroke-width="0.0" fill="rgb(123, 101, 67)" opacity="0.9991178" stroke="rgb(0, 0, 0)" stroke-opacity="1.0" stroke-linecap="round" stroke-linejoin="round"/>
    <path d="M 241.56153869628906 181.7024688720703 C 241.50442504882812 179.7111053466797 221.07127380371094 179.7845916748047 225.18896484375 179.94752502441406 C 220.57412719726562 189.632568359375 218.4039764404297 189.15994262695312 222.01675415039062 205.9910888671875 C 230.26478576660156 203.3840789794922 234.07595825195312 191.1525421142578 241.56153869628906 181.7024688720703" stroke-width="0.0" fill="rgb(184, 188, 204)" opacity="0.9225225" stroke="rgb(0, 0, 0)" stroke-opacity="1.0" stroke-linecap="round" stroke-linejoin="round"/>
    <path d="M 335.95751953125 435.56097412109375 C 336.5838317871094 434.6040954589844 352.7868347167969 435.1214294433594 359.8477783203125 435.24566650390625 C 361.16253662109375 425.3572998046875 359.8100891113281 422.252685546875 359.1246643066406 420.46051025390625 C 339.56689453125 423.5784912109375 343.573974609375 419.1924743652344 335.95751953125 435.56097412109375" stroke-width="0.0" fill="rgb(95, 78, 58)" opacity="0.99154043" stroke="rgb(0, 0, 0)" stroke-opacity="1.0" stroke-linecap="round" stroke-linejoin="round"/>
    <path d="M 325.4960632324219 360.1578063964844 C 319.6289978027344 363.65185546875 326.4237976074219 376.14630126953125 318.4259948730469 384.33251953125 C 321.67156982421875 390.32440185546875 319.3545837402344 392.8964538574219 324.81072998046875 393.96356201171875 C 329.98309326171875 393.6038818359375 329.99560546875 389.8563537597656 332.0234375 385.9769287109375 C 328.3444519042969 377.02294921875 333.9057922363281 363.3964538574219 325.4960632324219 360.1578063964844" stroke-width="0.0" fill="rgb(70, 64, 48)" opacity="1.0016502" stroke="rgb(0, 0, 0)" stroke-opacity="1.0" stroke-linecap="round" stroke-linejoin="round"/>
    <path d="M 126.13385009765625 203.9791259765625 C 108.15501403808594 213.07958984375 107.59840393066406 232.23385620117188 95.25413513183594 245.1488494873047 C 99.69977569580078 246.3743133544922 107.12239837646484 244.12106323242188 112.04862213134766 240.99615478515625 C 112.69422149658203 227.92611694335938 118.6541519165039 215.68995666503906 126.13385009765625 203.9791259765625" stroke-width="0.0" fill="rgb(131, 135, 170)" opacity="0.9778411" stroke="rgb(0, 0, 0)" stroke-opacity="1.0" stroke-linecap="round" stroke-linejoin="round"/>
    <path d="M 330.81439208984375 173.936767578125 C 328.4347839355469 177.92457580566406 321.87640380859375 184.74789428710938 317.4732360839844 189.5563507080078 C 321.61468505859375 197.9182891845703 328.21881103515625 189.53787231445312 340.4103088378906 192.74595642089844 C 333.4671325683594 180.65594482421875 342.0923156738281 173.5955352783203 330.81439208984375 173.936767578125" stroke-width="0.0" fill="rgb(95, 100, 143)" opacity="0.9607153" stroke="rgb(0, 0, 0)" stroke-opacity="1.0" stroke-linecap="round" stroke-linejoin="round"/>
    <path d="M 391.2669982910156 375.61651611328125 C 387.8497314453125 377.4842834472656 382.9951171875 383.0249938964844 384.04156494140625 389.9682312011719 C 384.8963623046875 393.4568176269531 388.38568115234375 395.5531005859375 396.3848876953125 393.26556396484375 C 398.8466796875 381.63360595703125 396.26300048828125 381.3271484375 391.2669982910156 375.61651611328125" stroke-width="0.0" fill="rgb(62, 59, 43)" opacity="1.0003762" stroke="rgb(0, 0, 0)" stroke-opacity="1.0" stroke-linecap="round" stroke-linejoin="round"/>
    <path d="M 142.81582641601562 409.1257019042969 C 136.4758758544922 415.25689697265625 140.0244598388672 428.5011901855469 138.47061157226562 429.2337341308594 C 139.8533477783203 425.6996765136719 136.5652313232422 426.8482971191406 149.05300903320312 427.43377685546875 C 151.17282104492188 428.2167663574219 147.853759765625 426.2070617675781 146.41555786132812 429.9736022949219 C 147.43690490722656 425.4062194824219 148.18751525878906 412.7130126953125 142.81582641601562 409.1257019042969" stroke-width="0.0" fill="rgb(134, 90, 108)" opacity="0.9960716" stroke="rgb(0, 0, 0)" stroke-opacity="1.0" stroke-linecap="round" stroke-linejoin="round"/>
    <path d="M 53.2225456237793 322.8302917480469 C 45.63412857055664 325.15118408203125 46.83335876464844 335.8019104003906 45.182552337646484 346.673583984375 C 46.58855438232422 349.06732177734375 53.51387405395508 352.3851013183594 57.103416442871094 356.6690979003906 C 62.632781982421875 350.3172912597656 60.4307861328125 340.5203552246094 61.420867919921875 327.84002685546875 C 56.59678268432617 323.36590576171875 59.11306381225586 318.861083984375 53.2225456237793 322.8302917480469" stroke-width="0.0" fill="rgb(76, 68, 56)" opacity="1.000181" stroke="rgb(0, 0, 0)" stroke-opacity="1.0" stroke-linecap="round" stroke-linejoin="round"/>
    <path d="M -4.2975640296936035 240.60165405273438 C -8.020575523376465 277.23974609375 -6.762907028198242 313.20294189453125 -3.4674313068389893 348.347412109375 C 17.416240692138672 349.89764404296875 9.093169212341309 361.22210693359375 31.8457088470459 356.4815979003906 C 40.83806610107422 356.51910400390625 44.13902282714844 350.9910888671875 45.19256591796875 346.0118713378906 C 45.20412063598633 319.50152587890625 49.15126037597656 300.2846374511719 44.087039947509766 306.2431945800781 C 45.0997314453125 304.3059387207031 43.97935104370117 295.7649841308594 47.59150314331055 293.0193786621094 C 38.34222412109375 273.3490295410156 16.68783950805664 260.9746398925781 -4.2975640296936035 240.60165405273438" stroke-width="0.0" fill="rgb(123, 107, 62)" opacity="0.9801012" stroke="rgb(0, 0, 0)" stroke-opacity="1.0" stroke-linecap="round" stroke-linejoin="round"/>
    <path d="M 519.9074096679688 433.7567138671875 C 519.125 423.3976135253906 518.4757080078125 410.2848815917969 517.402099609375 395.07672119140625 C 484.52386474609375 401.7630615234375 450.0472717285156 399.9895935058594 426.4358215332031 404.0840759277344 C 420.2142639160156 408.3815612792969 422.2569885253906 413.0229797363281 427.4671630859375 416.7602844238281 C 440.0318603515625 421.06036376953125 456.2096252441406 424.4486083984375 469.9230651855469 432.1101989746094 C 482.4709167480469 433.50030517578125 497.8585510253906 434.8101806640625 519.9074096679688 433.7567138671875" stroke-width="0.0" fill="rgb(103, 92, 66)" opacity="0.992295" stroke="rgb(0, 0, 0)" stroke-opacity="1.0" stroke-linecap="round" stroke-linejoin="round"/>
    <path d="M 343.31719970703125 341.30096435546875 C 336.21466064453125 344.251220703125 333.5003662109375 352.1224060058594 332.571044921875 357.39837646484375 C 330.1897277832031 368.3124694824219 330.5633850097656 377.7897644042969 333.3932189941406 387.5267639160156 C 335.0746154785156 390.8019714355469 336.6629333496094 393.2786560058594 342.7211608886719 395.1494445800781 C 346.4579772949219 395.8236389160156 357.4483947753906 394.2110290527344 360.3866271972656 395.4107666015625 C 362.64361572265625 385.8376159667969 364.06768798828125 379.74298095703125 358.11065673828125 365.5118408203125 C 350.25787353515625 358.37274169921875 351.4595947265625 344.5965881347656 343.31719970703125 341.30096435546875" stroke-width="0.0" fill="rgb(76, 67, 49)" opacity="0.9994396" stroke="rgb(0, 0, 0)" stroke-opacity="1.0" stroke-linecap="round" stroke-linejoin="round"/>
    <path d="M 423.1753845214844 398.7736511230469 C 444.38592529296875 398.84881591796875 458.2561340332031 401.4403991699219 475.5312194824219 393.4130554199219 C 462.82659912109375 401.95599365234375 463.9529724121094 396.7439270019531 464.96246337890625 388.6825866699219 C 463.0199279785156 386.4210205078125 462.8909606933594 377.3503723144531 466.3466796875 372.72412109375 C 461.1157531738281 367.61749267578125 450.7481689453125 366.5675048828125 437.8118591308594 369.4405517578125 C 435.9223937988281 375.2276306152344 438.158447265625 385.42877197265625 433.2764892578125 393.8896179199219 C 443.09259033203125 395.2419738769531 428.2547607421875 394.039794921875 423.1753845214844 398.7736511230469" stroke-width="0.0" fill="rgb(87, 82, 58)" opacity="1.000356" stroke="rgb(0, 0, 0)" stroke-opacity="1.0" stroke-linecap="round" stroke-linejoin="round"/>
    <path d="M 419.0791931152344 330.9592590332031 C 413.382080078125 336.3736267089844 415.82537841796875 348.598876953125 413.6092834472656 354.8351745605469 C 415.4811706542969 368.1283874511719 418.6492919921875 378.6053161621094 419.2633361816406 390.27667236328125 C 422.79571533203125 392.8553466796875 425.6514587402344 396.7830505371094 430.2283020019531 391.9007873535156 C 432.022705078125 392.3109130859375 433.5518798828125 378.3803405761719 430.8000183105469 362.4798889160156 C 427.5227355957031 350.3150634765625 426.4346923828125 336.65557861328125 419.0791931152344 330.9592590332031" stroke-width="0.0" fill="rgb(113, 94, 51)" opacity="0.9954891" stroke="rgb(0, 0, 0)" stroke-opacity="1.0" stroke-linecap="round" stroke-linejoin="round"/>
    <path d="M 483.2038879394531 348.9211120605469 C 478.6191711425781 354.2234802246094 476.56170654296875 356.1888427734375 478.6038818359375 365.8446044921875 C 479.1716613769531 377.0400695800781 482.74298095703125 383.5998229980469 483.5972900390625 387.17645263671875 C 481.9780578613281 388.6374206542969 493.132568359375 392.5863037109375 494.9561767578125 390.4292907714844 C 497.64666748046875 388.217041015625 499.17840576171875 379.2498474121094 500.3434143066406 369.1916198730469 C 495.60498046875 364.5374450683594 497.0642395019531 356.7923278808594 494.7453918457031 352.04095458984375 C 490.9240417480469 350.90582275390625 484.4233703613281 345.3992004394531 483.2038879394531 348.9211120605469" stroke-width="0.0" fill="rgb(110, 96, 77)" opacity="0.99909645" stroke="rgb(0, 0, 0)" stroke-opacity="1.0" stroke-linecap="round" stroke-linejoin="round"/>
    <path d="M 135.94911193847656 341.43878173828125 C 134.2996063232422 349.7852783203125 126.72460174560547 351.1128234863281 126.01829528808594 360.3937072753906 C 126.52243041992188 375.1069030761719 119.26791381835938 368.5830993652344 133.9890899658203 374.8673400878906 C 137.55776977539062 369.5188903808594 149.56744384765625 370.8591003417969 147.36526489257812 362.3341979980469 C 151.99139404296875 349.2334899902344 142.33584594726562 351.1061706542969 135.94911193847656 341.43878173828125" stroke-width="0.0" fill="rgb(111, 96, 53)" opacity="0.9989512" stroke="rgb(0, 0, 0)" stroke-opacity="1.0" stroke-linecap="round" stroke-linejoin="round"/>
    <path d="M 248.92709350585938 386.0832824707031 C 249.9089813232422 382.9851989746094 245.7328338623047 382.47308349609375 244.48118591308594 380.5835266113281 C 231.26144409179688 382.5711669921875 223.88818359375 384.27716064453125 218.20016479492188 392.0372009277344 C 225.8551025390625 394.3299865722656 236.5837860107422 395.37799072265625 245.59986877441406 397.3679504394531 C 249.36483764648438 396.0805969238281 251.8482208251953 389.2715148925781 248.92709350585938 386.0832824707031" stroke-width="0.0" fill="rgb(87, 78, 49)" opacity="1.001879" stroke="rgb(0, 0, 0)" stroke-opacity="1.0" stroke-linecap="round" stroke-linejoin="round"/>
    <path d="M 181.97671508789062 344.3414611816406 C 179.2172393798828 347.5638732910156 176.39598083496094 351.03759765625 170.80859375 351.73443603515625 C 168.41592407226562 359.4237976074219 165.84922790527344 368.18865966796875 174.66612243652344 367.1811828613281 C 181.7380828857422 367.29833984375 184.98597717285156 366.3121032714844 188.34735107421875 362.3734130859375 C 192.19647216796875 349.9388427734375 187.614990234375 350.2251892089844 181.97671508789062 344.3414611816406" stroke-width="0.0" fill="rgb(115, 96, 64)" opacity="1.0089597" stroke="rgb(0, 0, 0)" stroke-opacity="1.0" stroke-linecap="round" stroke-linejoin="round"/>
    <path d="M 370.64202880859375 363.9176330566406 C 363.3625793457031 365.13427734375 366.345947265625 375.9894104003906 368.2612609863281 393.9953918457031 C 368.90234375 394.46820068359375 369.5306091308594 399.5648498535156 374.1923828125 398.17742919921875 C 379.4482727050781 394.9241943359375 379.39239501953125 391.2359924316406 379.0638732910156 382.2258605957031 C 376.8629455566406 373.744384765625 374.5450744628906 362.3816223144531 370.64202880859375 363.9176330566406" stroke-width="0.0" fill="rgb(112, 92, 32)" opacity="0.9998673" stroke="rgb(0, 0, 0)" stroke-opacity="1.0" stroke-linecap="round" stroke-linejoin="round"/>
    <path d="M 318.6937561035156 365.7048034667969 C 313.29046630859375 362.6719970703125 309.9844970703125 367.3729553222656 309.1714172363281 369.9660339355469 C 307.51605224609375 380.305419921875 304.0562744140625 386.3341369628906 310.8110656738281 390.34234619140625 C 318.8619079589844 390.7669677734375 319.6288757324219 382.2371826171875 324.1925048828125 377.4903259277344 C 325.273681640625 368.3899841308594 323.9681396484375 369.0283508300781 318.6937561035156 365.7048034667969" stroke-width="0.0" fill="rgb(137, 116, 76)" opacity="1.0120591" stroke="rgb(0, 0, 0)" stroke-opacity="1.0" stroke-linecap="round" stroke-linejoin="round"/>
    <path d="M 109.70008850097656 330.0457763671875 C 105.07291412353516 327.8495788574219 107.05262756347656 340.05743408203125 101.51014709472656 346.7630310058594 C 103.77967834472656 353.04779052734375 112.82310485839844 347.6138610839844 114.46319580078125 351.75030517578125 C 114.11885833740234 337.05487060546875 115.88216400146484 328.86492919921875 109.70008850097656 330.0457763671875" stroke-width="0.0" fill="rgb(77, 70, 54)" opacity="0.9976484" stroke="rgb(0, 0, 0)" stroke-opacity="1.0" stroke-linecap="round" stroke-linejoin="round"/>
    <path d="M -1.9018645286560059 382.9556884765625 C -0.10045415163040161 388.3333435058594 -1.6625967025756836 392.6666564941406 -4.497238636016846 398.4151611328125 C 7.944911479949951 395.9189758300781 13.603126525878906 396.7738952636719 20.66881561279297 398.67974853515625 C 12.053777694702148 397.8077697753906 18.053356170654297 392.2445068359375 14.779239654541016 388.5428161621094 C 11.98448657989502 385.99176025390625 2.0493381023406982 385.89715576171875 -1.9018645286560059 382.9556884765625" stroke-width="0.0" fill="rgb(174, 156, 124)" opacity="0.9959045" stroke="rgb(0, 0, 0)" stroke-opacity="1.0" stroke-linecap="round" stroke-linejoin="round"/>
    <path d="M 318.6172790527344 399.2557373046875 C 324.33203125 381.73321533203125 314.81219482421875 393.2113952636719 308.57843017578125 388.6146240234375 C 296.7290954589844 384.6057434082031 275.5265808105469 388.4627685546875 261.4150085449219 385.0072326660156 C 261.17474365234375 396.9378356933594 269.7279968261719 390.7956848144531 268.0597229003906 405.0718688964844 C 289.4033203125 407.47235107421875 296.5556640625 393.2867126464844 318.6172790527344 399.2557373046875" stroke-width="0.0" fill="rgb(113, 95, 70)" opacity="0.94839483" stroke="rgb(0, 0, 0)" stroke-opacity="1.0" stroke-linecap="round" stroke-linejoin="round"/>
    <path d="M 274.14703369140625 358.78509521484375 C 275.36798095703125 366.1924133300781 277.871337890625 372.79852294921875 273.968017578125 380.114013671875 C 286.651611328125 380.0219421386719 297.10137939453125 384.78887939453125 305.3050231933594 382.0744323730469 C 307.6197204589844 376.5108642578125 309.1428527832031 370.0805358886719 311.2172546386719 363.7622985839844 C 296.9068603515625 360.0185241699219 290.2182312011719 357.6111145019531 274.14703369140625 358.78509521484375" stroke-width="0.0" fill="rgb(159, 136, 96)" opacity="0.997392" stroke="rgb(0, 0, 0)" stroke-opacity="1.0" stroke-linecap="round" stroke-linejoin="round"/>
    <path d="M -5.953405857086182 397.410888671875 C -5.373244762420654 401.6379089355469 -5.363799095153809 406.9737243652344 -2.9757113456726074 410.6434326171875 C 20.74358558654785 409.3665771484375 37.95879364013672 411.6086730957031 48.98222732543945 408.24560546875 C 50.259334564208984 401.05548095703125 42.13261795043945 400.9363708496094 34.69842529296875 398.7444763183594 C 24.336084365844727 399.48516845703125 10.774707794189453 396.6213684082031 -5.953405857086182 397.410888671875" stroke-width="0.0" fill="rgb(195, 164, 109)" opacity="1.0105443" stroke="rgb(0, 0, 0)" stroke-opacity="1.0" stroke-linecap="round" stroke-linejoin="round"/>
    <path d="M 83.08828735351562 317.263916015625 C 79.75907135009766 323.20556640625 79.72396850585938 342.7995910644531 81.42028045654297 352.8289489746094 C 83.61325073242188 354.1524963378906 87.68675231933594 358.36767578125 95.87952423095703 354.3570251464844 C 95.9002685546875 351.5436706542969 98.31904602050781 349.5111389160156 98.0042724609375 340.1473083496094 C 88.30552673339844 342.222412109375 96.64924621582031 321.2323303222656 83.08828735351562 317.263916015625" stroke-width="0.0" fill="rgb(133, 109, 55)" opacity="0.99988735" stroke="rgb(0, 0, 0)" stroke-opacity="1.0" stroke-linecap="round" stroke-linejoin="round"/>
    <path d="M 160.7569580078125 498.5151672363281 C 162.7049560546875 488.672119140625 149.38372802734375 492.7998962402344 143.7820281982422 490.3309326171875 C 131.12744140625 495.2659912109375 119.35142517089844 493.579345703125 120.05386352539062 504.09466552734375 C 135.42245483398438 506.4477233886719 144.54229736328125 497.6548767089844 160.7569580078125 498.5151672363281" stroke-width="0.0" fill="rgb(145, 124, 76)" opacity="0.9980273" stroke="rgb(0, 0, 0)" stroke-opacity="1.0" stroke-linecap="round" stroke-linejoin="round"/>
    <path d="M 262.0554504394531 421.22833251953125 C 259.20587158203125 415.8873596191406 257.0494384765625 416.5780334472656 245.7194366455078 418.5215148925781 C 239.14907836914062 419.88983154296875 239.3907012939453 422.77789306640625 236.40969848632812 431.1805114746094 C 238.30210876464844 432.3497619628906 254.7923126220703 433.0629577636719 260.16571044921875 431.87750244140625 C 262.0038146972656 431.32830810546875 264.08111572265625 421.9215087890625 262.0554504394531 421.22833251953125" stroke-width="0.0" fill="rgb(87, 71, 52)" opacity="0.94048667" stroke="rgb(0, 0, 0)" stroke-opacity="1.0" stroke-linecap="round" stroke-linejoin="round"/>
    <path d="M 452.38702392578125 491.0963439941406 C 451.7261657714844 489.7924499511719 452.2225341796875 496.52239990234375 449.1477355957031 500.72735595703125 C 455.6939697265625 505.31817626953125 459.7840576171875 504.51116943359375 469.5261535644531 500.5241394042969 C 468.928955078125 498.95306396484375 467.10760498046875 491.1806945800781 464.6658935546875 488.9941711425781 C 462.08770751953125 483.1111145019531 455.2131042480469 486.2859191894531 452.38702392578125 491.0963439941406" stroke-width="0.0" fill="rgb(149, 127, 92)" opacity="0.9996765" stroke="rgb(0, 0, 0)" stroke-opacity="1.0" stroke-linecap="round" stroke-linejoin="round"/>
    <path d="M 409.9178771972656 355.9397277832031 C 411.2072448730469 349.88055419921875 415.6672058105469 368.6153869628906 412.3985900878906 360.30780029296875 C 416.79034423828125 374.99627685546875 419.67437744140625 390.3770446777344 409.1392517089844 390.6279296875 C 407.2364807128906 381.6310729980469 403.56689453125 361.24407958984375 409.9178771972656 355.9397277832031" stroke-width="0.0" fill="rgb(104, 87, 50)" opacity="0.9985721" stroke="rgb(0, 0, 0)" stroke-opacity="1.0" stroke-linecap="round" stroke-linejoin="round"/>
    <path d="M 90.98493957519531 405.4365234375 C 98.531494140625 408.61572265625 112.489990234375 410.1804504394531 126.4273910522461 409.5116882324219 C 126.21704864501953 401.56402587890625 118.7662124633789 400.3807373046875 102.96768951416016 399.6355285644531 C 105.953369140625 397.8389587402344 99.35346221923828 403.18804931640625 90.98493957519531 405.4365234375" stroke-width="0.0" fill="rgb(135, 115, 79)" opacity="0.9982157" stroke="rgb(0, 0, 0)" stroke-opacity="1.0" stroke-linecap="round" stroke-linejoin="round"/>
    <path d="M 130.74412536621094 396.52978515625 C 129.48622131347656 402.08990478515625 135.275146484375 398.3519287109375 130.0196533203125 404.21600341796875 C 128.5768280029297 409.16485595703125 134.7395477294922 411.4228515625 142.28350830078125 406.29974365234375 C 146.326416015625 403.6759338378906 140.80548095703125 398.9425048828125 148.6311492919922 396.1789245605469 C 143.32489013671875 392.6759033203125 131.3037567138672 390.0787658691406 130.74412536621094 396.52978515625" stroke-width="0.0" fill="rgb(150, 123, 75)" opacity="1.0010988" stroke="rgb(0, 0, 0)" stroke-opacity="1.0" stroke-linecap="round" stroke-linejoin="round"/>
    <path d="M 231.03103637695312 400.7201843261719 C 225.7677001953125 404.62579345703125 228.32147216796875 407.2046813964844 232.49168395996094 408.1716003417969 C 240.9207763671875 409.3835754394531 249.56809997558594 405.7504577636719 260.94189453125 405.6820983886719 C 256.9864807128906 396.8680725097656 239.77059936523438 400.0210876464844 231.03103637695312 400.7201843261719" stroke-width="0.0" fill="rgb(146, 123, 81)" opacity="1.0006853" stroke="rgb(0, 0, 0)" stroke-opacity="1.0" stroke-linecap="round" stroke-linejoin="round"/>
    <path d="M 112.80126190185547 349.2127380371094 C 113.08171081542969 356.8318176269531 103.31250762939453 356.2765197753906 101.30093383789062 363.5447998046875 C 102.66900634765625 366.6361389160156 112.30912780761719 366.84539794921875 119.45767211914062 363.892333984375 C 119.78822326660156 363.4100646972656 123.55961608886719 351.0732421875 112.80126190185547 349.2127380371094" stroke-width="0.0" fill="rgb(122, 107, 72)" opacity="0.9986193" stroke="rgb(0, 0, 0)" stroke-opacity="1.0" stroke-linecap="round" stroke-linejoin="round"/>
    <path d="M 326.8597717285156 432.72125244140625 C 320.76788330078125 439.13214111328125 321.87445068359375 446.5938720703125 319.35516357421875 456.1612243652344 C 325.2884216308594 460.8432312011719 323.2239990234375 449.6258544921875 326.607666015625 442.0366516113281 C 331.306884765625 446.044189453125 330.30450439453125 455.4918518066406 334.8383483886719 458.7054443359375 C 336.188232421875 447.3534851074219 330.8798522949219 442.28070068359375 332.3345947265625 434.77398681640625 C 327.6340026855469 435.18603515625 324.923583984375 433.06939697265625 326.8597717285156 432.72125244140625" stroke-width="0.0" fill="rgb(82, 67, 58)" opacity="0.985978" stroke="rgb(0, 0, 0)" stroke-opacity="1.0" stroke-linecap="round" stroke-linejoin="round"/>
    <path d="M 169.81639099121094 407.4690246582031 C 172.8970489501953 411.02447509765625 182.83453369140625 410.09515380859375 192.7576904296875 409.9602355957031 C 198.4846954345703 403.1851806640625 184.67709350585938 402.5644836425781 175.78463745117188 400.8055114746094 C 169.400146484375 400.1099548339844 172.89817810058594 400.36895751953125 169.81639099121094 407.4690246582031" stroke-width="0.0" fill="rgb(130, 109, 72)" opacity="0.9999178" stroke="rgb(0, 0, 0)" stroke-opacity="1.0" stroke-linecap="round" stroke-linejoin="round"/>
    <path d="M 451.6511535644531 406.9852294921875 C 452.8980712890625 408.9862976074219 453.18603515625 415.2009582519531 453.19415283203125 423.0425109863281 C 457.298583984375 426.683837890625 464.62646484375 428.5356140136719 469.3540954589844 432.8941345214844 C 476.40618896484375 433.5845947265625 487.18890380859375 432.0430603027344 490.3304443359375 434.38653564453125 C 501.2486877441406 433.8441162109375 503.1557922363281 430.8954772949219 506.49609375 422.56231689453125 C 505.1196594238281 411.3331298828125 502.8436279296875 407.8128662109375 504.8393859863281 405.800048828125 C 480.9764099121094 402.6457214355469 459.4234619140625 400.28778076171875 451.6511535644531 406.9852294921875" stroke-width="0.0" fill="rgb(76, 70, 53)" opacity="1.0081676" stroke="rgb(0, 0, 0)" stroke-opacity="1.0" stroke-linecap="round" stroke-linejoin="round"/>
    <path d="M 349.29217529296875 348.8243713378906 C 345.3332824707031 361.7539978027344 340.15618896484375 370.0559387207031 344.22479248046875 387.5328063964844 C 355.6654052734375 385.7384338378906 347.7041931152344 402.3586120605469 362.07891845703125 395.784423828125 C 362.3584289550781 400.4134826660156 362.71893310546875 383.1152038574219 361.4530944824219 370.8312072753906 C 356.57952880859375 364.2281188964844 352.2656555175781 357.3420715332031 349.29217529296875 348.8243713378906" stroke-width="0.0" fill="rgb(93, 79, 40)" opacity="0.99915355" stroke="rgb(0, 0, 0)" stroke-opacity="1.0" stroke-linecap="round" stroke-linejoin="round"/>
    <path d="M 485.86212158203125 341.0598449707031 C 477.9798583984375 350.14398193359375 485.8431701660156 368.7289733886719 481.4037780761719 382.8051452636719 C 483.9642333984375 387.9320068359375 485.5056457519531 392.7477722167969 494.34912109375 388.9211730957031 C 495.1866149902344 393.66619873046875 497.261962890625 382.6583251953125 496.9469299316406 375.7794494628906 C 495.3840026855469 357.468994140625 491.8132629394531 353.63330078125 485.86212158203125 341.0598449707031" stroke-width="0.0" fill="rgb(114, 96, 56)" opacity="0.99646246" stroke="rgb(0, 0, 0)" stroke-opacity="1.0" stroke-linecap="round" stroke-linejoin="round"/>
    <path d="M 261.58416748046875 388.0899963378906 C 262.4151611328125 398.1597900390625 284.5096130371094 391.8575439453125 293.7558898925781 399.47314453125 C 304.4753112792969 397.8671569824219 321.25128173828125 401.3862609863281 320.3695068359375 393.5068664550781 C 316.17364501953125 387.68292236328125 302.765625 397.90606689453125 306.48590087890625 386.5925598144531 C 275.6141052246094 388.3652648925781 262.6484680175781 383.38372802734375 261.58416748046875 388.0899963378906" stroke-width="0.0" fill="rgb(82, 72, 47)" opacity="1.0007176" stroke="rgb(0, 0, 0)" stroke-opacity="1.0" stroke-linecap="round" stroke-linejoin="round"/>
    <path d="M 345.3830261230469 340.58819580078125 C 333.62384033203125 344.3110046386719 335.14508056640625 350.6720886230469 332.8251037597656 369.3761291503906 C 334.93121337890625 368.4579162597656 331.37457275390625 378.71044921875 339.4823913574219 382.4661560058594 C 345.6823425292969 377.5459289550781 340.99237060546875 360.7149963378906 350.1473083496094 353.2366638183594 C 351.1605224609375 347.1263732910156 346.99176025390625 344.610107421875 345.3830261230469 340.58819580078125" stroke-width="0.0" fill="rgb(111, 91, 42)" opacity="1.0056427" stroke="rgb(0, 0, 0)" stroke-opacity="1.0" stroke-linecap="round" stroke-linejoin="round"/>
    <path d="M 453.1167907714844 424.5191345214844 C 453.1845397949219 411.1895446777344 453.7654724121094 404.9852600097656 449.24072265625 404.3899841308594 C 441.696044921875 406.24566650390625 427.96282958984375 406.1145935058594 428.4019775390625 407.00640869140625 C 423.70721435546875 410.284423828125 423.2356262207031 417.8656921386719 427.459716796875 418.6260070800781 C 436.5797424316406 418.5075988769531 442.2943115234375 423.2515563964844 453.1167907714844 424.5191345214844" stroke-width="0.0" fill="rgb(80, 73, 47)" opacity="1.0176752" stroke="rgb(0, 0, 0)" stroke-opacity="1.0" stroke-linecap="round" stroke-linejoin="round"/>
    <path d="M 179.68826293945312 338.2984313964844 C 180.24362182617188 349.78765869140625 171.74667358398438 352.6500549316406 175.49212646484375 365.4028015136719 C 181.7068634033203 372.3110046386719 186.35560607910156 361.30169677734375 189.24021911621094 356.6670227050781 C 189.5524444580078 350.5399169921875 187.42335510253906 337.83197021484375 179.68826293945312 338.2984313964844" stroke-width="0.0" fill="rgb(140, 114, 64)" opacity="0.97499996" stroke="rgb(0, 0, 0)" stroke-opacity="1.0" stroke-linecap="round" stroke-linejoin="round"/>
    <path d="M 310.7857360839844 366.0104675292969 C 308.9705505371094 374.0503845214844 305.2674560546875 379.3684997558594 307.11981201171875 390.8064880371094 C 314.39886474609375 391.89483642578125 317.843994140625 389.2113952636719 319.0912780761719 383.8157653808594 C 318.5967712402344 377.00213623046875 319.4380798339844 364.410888671875 310.7857360839844 366.0104675292969" stroke-width="0.0" fill="rgb(108, 92, 47)" opacity="0.9889978" stroke="rgb(0, 0, 0)" stroke-opacity="1.0" stroke-linecap="round" stroke-linejoin="round"/>
    <path d="M 521.1027221679688 392.46282958984375 C 506.1256408691406 395.60821533203125 506.3591613769531 401.0444030761719 500.1555480957031 400.7148742675781 C 502.55804443359375 406.7623596191406 502.2393493652344 420.7112731933594 515.4292602539062 421.49981689453125 C 521.7763671875 419.8282470703125 522.0581665039062 411.1492004394531 521.1027221679688 392.46282958984375" stroke-width="0.0" fill="rgb(93, 86, 62)" opacity="0.99974525" stroke="rgb(0, 0, 0)" stroke-opacity="1.0" stroke-linecap="round" stroke-linejoin="round"/>
    <path d="M 263.0169677734375 385.9339294433594 C 259.4913330078125 393.37237548828125 265.873779296875 392.49371337890625 274.33294677734375 395.77587890625 C 287.33294677734375 392.1662292480469 293.49700927734375 401.89691162109375 301.87548828125 397.2619934082031 C 303.93426513671875 391.14178466796875 303.8375244140625 387.357666015625 300.8180847167969 386.768310546875 C 285.3577880859375 387.7508544921875 270.5107421875 385.34600830078125 263.0169677734375 385.9339294433594" stroke-width="0.0" fill="rgb(85, 76, 48)" opacity="0.99677134" stroke="rgb(0, 0, 0)" stroke-opacity="1.0" stroke-linecap="round" stroke-linejoin="round"/>
  </g>
</svg>
