<?xml version="1.0" ?>
<svg xmlns="http://www.w3.org/2000/svg" version="1.1" width="512" height="512">
  <defs/>
  <g>
    <path d="M -2.4866316318511963 -1.5150004625320435 C -2.1264657974243164 170.3333282470703 -1.1144267320632935 340.6666564941406 -0.5116126537322998 518.3449096679688 C 169.82679748535156 518.8764038085938 339.7955627441406 519.7789916992188 519.2352294921875 521.0584716796875 C 518.9784545898438 342.1364440917969 519.1903686523438 171.38050842285156 519.4154663085938 -0.314872145652771 C 340.6666564941406 -0.7024940252304077 170.3333282470703 -0.9654838442802429 -2.4866316318511963 -1.5150004625320435" stroke-width="0.0" fill="rgb(105, 116, 215)" opacity="0.74295515" stroke="rgb(0, 0, 0)" stroke-opacity="1.0" stroke-linecap="round" stroke-linejoin="round"/>
    <path d="M 519.2379150390625 172.09945678710938 C 490.19732666015625 163.7389373779297 472.8866882324219 163.85220336914062 446.8151550292969 163.4196319580078 C 421.466064453125 155.32589721679688 410.85540771484375 140.2329559326172 380.5670471191406 133.8913116455078 C 370.32843017578125 132.61216735839844 357.0198974609375 129.0517578125 340.2296142578125 131.6131134033203 C 326.46038818359375 132.09854125976562 312.8530578613281 139.68777465820312 300.9416809082031 145.96578979492188 C 272.6939697265625 164.23068237304688 254.662353515625 190.3375701904297 227.9887237548828 206.18362426757812 C 188.8340301513672 225.68472290039062 191.11502075195312 210.59893798828125 192.8456268310547 193.17898559570312 C 162.82901000976562 185.37742614746094 148.0645751953125 188.43463134765625 121.9796371459961 190.71917724609375 C 76.75064086914062 196.79466247558594 42.63777160644531 210.34759521484375 8.929140090942383 223.59799194335938 C 4.616666793823242 225.68841552734375 2.1042823791503906 231.70140075683594 -5.2709527015686035 242.52040100097656 C -7.094882965087891 324.9588623046875 -6.831077575683594 418.09100341796875 -5.899276256561279 518.4254150390625 C 170.0546875 518.4674682617188 340.2432861328125 518.820068359375 520.8911743164062 519.5553588867188 C 520.3667602539062 398.7439270019531 519.307861328125 285.2112121582031 519.2379150390625 172.09945678710938" stroke-width="0.0" fill="rgb(188, 174, 151)" opacity="0.8611879" stroke="rgb(0, 0, 0)" stroke-opacity="1.0" stroke-linecap="round" stroke-linejoin="round"/>
    <path d="M 268.3509826660156 163.0226593017578 C 245.8136749267578 191.13131713867188 232.15899658203125 175.92564392089844 220.64151000976562 188.38999938964844 C 212.91726684570312 189.0045166015625 207.13572692871094 184.00003051757812 196.56788635253906 190.36212158203125 C 192.66162109375 193.9559783935547 185.52574157714844 210.60891723632812 181.40008544921875 224.0625457763672 C 201.46197509765625 219.5052490234375 218.32745361328125 209.80020141601562 237.1363983154297 202.8768310546875 C 245.8594207763672 189.39161682128906 269.69580078125 179.07395935058594 268.3509826660156 163.0226593017578" stroke-width="0.0" fill="rgb(162, 166, 194)" opacity="0.98636985" stroke="rgb(0, 0, 0)" stroke-opacity="1.0" stroke-linecap="round" stroke-linejoin="round"/>
    <path d="M -5.818397045135498 244.68614196777344 C -7.39235258102417 335.04510498046875 -6.9574713706970215 423.1416931152344 -6.1150994300842285 518.616943359375 C 169.89059448242188 518.638671875 339.9687194824219 519.1062622070312 520.9253540039062 520.0759887695312 C 520.1070556640625 460.16259765625 519.0748901367188 408.1977844238281 519.80224609375 357.5758972167969 C 441.7889404296875 358.48345947265625 367.06329345703125 352.2413330078125 284.31878662109375 354.49774169921875 C 257.93707275390625 351.4862976074219 215.32015991210938 346.9588623046875 175.86610412597656 340.29876708984375 C 131.64468383789062 331.5000305175781 105.83744049072266 314.34442138671875 72.4122543334961 299.4813232421875 C 41.187744140625 284.475341796875 24.630022048950195 265.0372009277344 -5.818397045135498 244.68614196777344" stroke-width="0.0" fill="rgb(114, 100, 87)" opacity="1.066601" stroke="rgb(0, 0, 0)" stroke-opacity="1.0" stroke-linecap="round" stroke-linejoin="round"/>
    <path d="M 516.9013671875 221.193115234375 C 485.0166320800781 238.2499542236328 469.4297180175781 267.84625244140625 440.0450439453125 288.32769775390625 C 419.0110778808594 301.8089599609375 390.60369873046875 313.23260498046875 366.7337951660156 330.882080078125 C 366.3515319824219 342.92584228515625 355.7408752441406 325.5191345214844 359.5607604980469 348.17388916015625 C 367.7297668457031 350.15771484375 373.0833435058594 355.93426513671875 378.9085693359375 355.2034912109375 C 426.3143310546875 354.4426574707031 466.75103759765625 360.0773620605469 520.3390502929688 357.919677734375 C 520.1567993164062 309.2367248535156 522.0855102539062 263.1054992675781 516.9013671875 221.193115234375" stroke-width="0.0" fill="rgb(75, 68, 82)" opacity="1.0042846" stroke="rgb(0, 0, 0)" stroke-opacity="1.0" stroke-linecap="round" stroke-linejoin="round"/>
    <path d="M 261.25799560546875 179.6834259033203 C 250.57191467285156 187.37167358398438 244.38380432128906 198.0740966796875 233.85964965820312 203.0879669189453 C 239.8990020751953 215.00389099121094 248.4479217529297 206.23507690429688 256.6498107910156 201.4920654296875 C 261.8737487792969 195.9265594482422 269.1604919433594 187.03634643554688 261.25799560546875 179.6834259033203" stroke-width="0.0" fill="rgb(236, 236, 238)" opacity="1.0210003" stroke="rgb(0, 0, 0)" stroke-opacity="1.0" stroke-linecap="round" stroke-linejoin="round"/>
    <path d="M 194.25247192382812 197.15103149414062 C 192.16720581054688 189.20127868652344 179.2025909423828 185.55189514160156 152.56568908691406 185.9564666748047 C 134.4276123046875 194.19241333007812 105.10086059570312 184.34129333496094 66.92524719238281 194.3377685546875 C 49.755165100097656 205.22930908203125 25.847105026245117 214.9435577392578 -2.1220643520355225 225.4951629638672 C -9.675614356994629 221.60690307617188 -8.225687026977539 231.6573944091797 -1.8209071159362793 243.1748809814453 C 18.280982971191406 253.78128051757812 29.29536247253418 272.6079406738281 49.814701080322266 283.4620666503906 C 64.4887466430664 269.00384521484375 84.81145477294922 267.24462890625 100.27720642089844 252.44610595703125 C 103.73479461669922 241.91021728515625 114.23065185546875 243.43077087402344 113.50076293945312 227.70669555664062 C 129.16661071777344 235.2062530517578 118.26325225830078 232.08203125 142.3747100830078 232.67764282226562 C 154.40658569335938 230.74090576171875 173.17190551757812 229.87850952148438 181.4196319580078 223.66842651367188 C 179.3924560546875 210.1275177001953 192.15199279785156 207.13864135742188 194.25247192382812 197.15103149414062" stroke-width="0.0" fill="rgb(205, 201, 201)" opacity="0.93569475" stroke="rgb(0, 0, 0)" stroke-opacity="1.0" stroke-linecap="round" stroke-linejoin="round"/>
    <path d="M 262.8158874511719 179.403076171875 C 266.9088134765625 185.613037109375 270.9228820800781 189.63510131835938 284.75860595703125 192.3533935546875 C 309.171142578125 186.69168090820312 312.3951110839844 189.7842559814453 331.6932373046875 191.60733032226562 C 353.8193054199219 189.46359252929688 359.5284729003906 178.9070281982422 372.72821044921875 180.9346160888672 C 388.52154541015625 179.9630584716797 394.08062744140625 190.38897705078125 418.1394958496094 188.9564666748047 C 430.402099609375 189.56149291992188 429.9849548339844 183.91241455078125 435.5253601074219 180.63308715820312 C 435.0586242675781 176.95782470703125 439.6944274902344 167.6994171142578 435.5631408691406 162.05027770996094 C 427.4941711425781 152.5186767578125 411.9148864746094 145.4930877685547 404.0741882324219 137.27157592773438 C 384.490478515625 130.35040283203125 365.3376159667969 126.83663177490234 349.787841796875 126.59527587890625 C 321.4097900390625 131.75653076171875 311.7317810058594 141.39990234375 291.7818298339844 144.04776000976562 C 282.8532409667969 159.2541046142578 268.21734619140625 161.85397338867188 262.8158874511719 179.403076171875" stroke-width="0.0" fill="rgb(193, 193, 207)" opacity="1.0216398" stroke="rgb(0, 0, 0)" stroke-opacity="1.0" stroke-linecap="round" stroke-linejoin="round"/>
    <path d="M 431.39666748046875 192.5181121826172 C 470.8636779785156 183.8349609375 479.6535949707031 198.29908752441406 510.0036926269531 195.15676879882812 C 521.0040283203125 188.7918243408203 521.0673828125 178.39414978027344 519.2230224609375 163.12478637695312 C 495.1133728027344 167.08258056640625 482.27789306640625 155.3798828125 458.30950927734375 155.0219268798828 C 448.71099853515625 157.017333984375 442.9731750488281 163.7591094970703 435.453369140625 170.35992431640625 C 438.6182556152344 178.697509765625 431.69140625 181.19805908203125 431.39666748046875 192.5181121826172" stroke-width="0.0" fill="rgb(147, 147, 167)" opacity="0.988865" stroke="rgb(0, 0, 0)" stroke-opacity="1.0" stroke-linecap="round" stroke-linejoin="round"/>
    <path d="M 151.3520965576172 265.5157470703125 C 129.8455810546875 284.63946533203125 142.66981506347656 303.86102294921875 129.84228515625 303.22613525390625 C 114.17965698242188 318.817138671875 127.83499908447266 324.38214111328125 134.1837158203125 327.6625061035156 C 155.0720977783203 330.0704345703125 164.15814208984375 330.7895202636719 161.77288818359375 319.25067138671875 C 153.42330932617188 318.94903564453125 159.76959228515625 304.9616394042969 159.90948486328125 274.8638916015625 C 157.77557373046875 275.327392578125 155.09303283691406 265.07965087890625 151.3520965576172 265.5157470703125" stroke-width="0.0" fill="rgb(112, 105, 123)" opacity="0.9735324" stroke="rgb(0, 0, 0)" stroke-opacity="1.0" stroke-linecap="round" stroke-linejoin="round"/>
    <path d="M 268.927490234375 167.49880981445312 C 258.7841491699219 168.26248168945312 256.21063232421875 180.78326416015625 241.08396911621094 183.6096649169922 C 236.681884765625 186.10487365722656 235.18714904785156 177.49563598632812 225.6385955810547 184.19590759277344 C 216.5124969482422 196.33407592773438 204.6994171142578 195.03736877441406 206.7566375732422 214.38653564453125 C 218.8937530517578 213.4678497314453 222.4714813232422 204.46934509277344 232.52902221679688 205.73463439941406 C 246.87184143066406 191.4968719482422 260.3479919433594 184.07888793945312 268.927490234375 167.49880981445312" stroke-width="0.0" fill="rgb(147, 150, 180)" opacity="0.9323318" stroke="rgb(0, 0, 0)" stroke-opacity="1.0" stroke-linecap="round" stroke-linejoin="round"/>
    <path d="M 510.57330322265625 217.99449157714844 C 499.6797180175781 226.45851135253906 496.2939453125 220.5100555419922 487.43408203125 224.9986572265625 C 482.1989440917969 230.8194122314453 481.4610900878906 235.52830505371094 485.79949951171875 243.42645263671875 C 494.3258972167969 237.94927978515625 502.5776062011719 229.03018188476562 510.57330322265625 217.99449157714844" stroke-width="0.0" fill="rgb(104, 97, 116)" opacity="0.96255034" stroke="rgb(0, 0, 0)" stroke-opacity="1.0" stroke-linecap="round" stroke-linejoin="round"/>
    <path d="M 483.189453125 221.71798706054688 C 450.710693359375 215.42726135253906 424.7510986328125 227.19412231445312 361.8601989746094 225.28439331054688 C 341.2201843261719 243.5072784423828 317.411376953125 252.59710693359375 290.66748046875 277.6632385253906 C 271.8802795410156 302.9278564453125 238.5598602294922 315.3478088378906 223.988525390625 338.1899719238281 C 220.33641052246094 350.54461669921875 239.78326416015625 347.1012878417969 255.24691772460938 352.65032958984375 C 277.97088623046875 353.238525390625 299.9127197265625 360.12890625 326.95587158203125 356.9197692871094 C 332.3460998535156 346.2341613769531 343.43353271484375 338.8733825683594 351.4913024902344 329.0764465332031 C 373.7915954589844 317.676025390625 397.5915222167969 311.21240234375 418.5389709472656 299.2820739746094 C 432.5316467285156 292.7091979980469 444.5132751464844 283.6552734375 455.432861328125 273.61328125 C 463.9903259277344 264.3026428222656 473.85711669921875 256.36907958984375 483.50372314453125 243.05609130859375 C 479.4756164550781 227.9115447998047 481.72625732421875 237.8485107421875 483.189453125 221.71798706054688" stroke-width="0.0" fill="rgb(142, 129, 122)" opacity="0.8463067" stroke="rgb(0, 0, 0)" stroke-opacity="1.0" stroke-linecap="round" stroke-linejoin="round"/>
    <path d="M 222.04359436035156 188.816162109375 C 205.09844970703125 182.83535766601562 203.29055786132812 183.426025390625 192.52005004882812 194.44796752929688 C 192.04037475585938 203.71514892578125 181.8373260498047 210.89305114746094 181.6463165283203 223.23773193359375 C 193.14613342285156 230.32669067382812 196.19947814941406 213.901123046875 207.2861328125 216.81797790527344 C 204.92884826660156 197.1558380126953 211.60316467285156 194.26255798339844 222.04359436035156 188.816162109375" stroke-width="0.0" fill="rgb(186, 188, 203)" opacity="1.0668992" stroke="rgb(0, 0, 0)" stroke-opacity="1.0" stroke-linecap="round" stroke-linejoin="round"/>
    <path d="M 301.9033203125 263.4400634765625 C 289.7070617675781 253.3376922607422 291.84661865234375 255.41036987304688 267.8097839355469 255.46812438964844 C 263.0752258300781 265.0032958984375 260.1483154296875 258.9908447265625 239.88763427734375 265.3581237792969 C 217.7661590576172 263.1377258300781 218.42808532714844 262.7557678222656 196.5773162841797 268.2408142089844 C 203.57203674316406 276.9060974121094 192.0052032470703 270.097412109375 191.83680725097656 285.4795227050781 C 208.9456329345703 290.9407043457031 225.40908813476562 285.28607177734375 261.17352294921875 285.6740417480469 C 272.7301330566406 281.9623718261719 277.816650390625 276.36846923828125 287.0776672363281 277.3817138671875 C 295.0975341796875 271.5954895019531 299.3852844238281 265.88238525390625 301.9033203125 263.4400634765625" stroke-width="0.0" fill="rgb(170, 162, 166)" opacity="0.9992633" stroke="rgb(0, 0, 0)" stroke-opacity="1.0" stroke-linecap="round" stroke-linejoin="round"/>
    <path d="M 94.09500122070312 260.07452392578125 C 72.4321517944336 265.0016784667969 60.174827575683594 278.0341796875 46.02296447753906 282.3487854003906 C 44.03827667236328 281.34344482421875 51.574241638183594 288.3722229003906 68.0393295288086 291.15936279296875 C 74.30731964111328 274.8384094238281 81.8254165649414 270.4499206542969 94.09500122070312 260.07452392578125" stroke-width="0.0" fill="rgb(185, 173, 161)" opacity="0.97279024" stroke="rgb(0, 0, 0)" stroke-opacity="1.0" stroke-linecap="round" stroke-linejoin="round"/>
    <path d="M -4.888753890991211 352.13006591796875 C -2.6546120643615723 407.0 -0.227686807513237 459.0 -0.5541486144065857 518.2196044921875 C 170.1096954345703 518.4219360351562 340.8265075683594 518.6758422851562 519.14697265625 518.9944458007812 C 520.3926391601562 483.7237548828125 521.0210571289062 457.2017822265625 520.8428955078125 436.2190246582031 C 497.9297790527344 435.36175537109375 486.4934997558594 435.0127868652344 466.9751281738281 430.88580322265625 C 442.5844421386719 424.0198059082031 422.3489990234375 411.0018615722656 382.0989990234375 404.6424865722656 C 335.0668640136719 402.5003967285156 282.19091796875 398.7413330078125 230.81874084472656 394.6037292480469 C 195.69378662109375 386.4046936035156 151.75845336914062 388.0242919921875 118.55561828613281 372.09893798828125 C 98.62187194824219 372.58447265625 77.31329345703125 373.2561950683594 61.232391357421875 367.4485778808594 C 39.4826774597168 364.0260925292969 18.644161224365234 360.7526550292969 -4.888753890991211 352.13006591796875" stroke-width="0.0" fill="rgb(185, 160, 119)" opacity="1.0133051" stroke="rgb(0, 0, 0)" stroke-opacity="1.0" stroke-linecap="round" stroke-linejoin="round"/>
    <path d="M -6.341831684112549 242.88482666015625 C -8.426265716552734 289.1893310546875 -8.901312828063965 329.4328308105469 -9.038475036621094 354.61761474609375 C -5.390621662139893 357.75982666015625 14.48208999633789 352.6011047363281 15.598610877990723 362.7367858886719 C 34.68765640258789 364.54864501953125 51.396156311035156 363.9449768066406 60.3557014465332 369.75537109375 C 87.01885986328125 376.11834716796875 122.0017318725586 369.0193176269531 127.64315795898438 377.912841796875 C 165.75625610351562 386.64593505859375 206.45947265625 389.22637939453125 239.1147918701172 395.34478759765625 C 276.3702087402344 398.3374328613281 304.0865783691406 399.4755554199219 323.7845458984375 397.76556396484375 C 320.79345703125 380.8831787109375 325.55059814453125 365.6040954589844 317.61273193359375 363.48974609375 C 251.59226989746094 355.5163879394531 195.84140014648438 349.58074951171875 126.251708984375 326.5026550292969 C 108.05357360839844 309.66973876953125 72.16677856445312 301.94091796875 45.484012603759766 282.8369445800781 C 28.290252685546875 272.5367126464844 17.46770668029785 253.90211486816406 -6.341831684112549 242.88482666015625" stroke-width="0.0" fill="rgb(107, 96, 76)" opacity="0.984349" stroke="rgb(0, 0, 0)" stroke-opacity="1.0" stroke-linecap="round" stroke-linejoin="round"/>
    <path d="M 325.873291015625 364.83856201171875 C 323.0869140625 372.1399230957031 323.22406005859375 382.81097412109375 321.68072509765625 385.8827209472656 C 327.22088623046875 393.24151611328125 327.9376220703125 394.9706115722656 336.47161865234375 397.773193359375 C 358.71429443359375 402.03375244140625 386.3321228027344 397.30023193359375 414.6757507324219 404.63311767578125 C 423.04296875 417.7210998535156 442.3644714355469 420.5830078125 467.9167785644531 430.30230712890625 C 476.87518310546875 432.0507507324219 498.12249755859375 434.0743408203125 521.2599487304688 432.993408203125 C 521.0242919921875 410.4704284667969 521.1961669921875 382.88751220703125 520.418701171875 358.93499755859375 C 497.3283996582031 370.3238830566406 501.2223815917969 359.6781311035156 488.8374328613281 354.7085876464844 C 473.3176574707031 360.491455078125 457.9759521484375 361.9224853515625 439.00164794921875 364.2192687988281 C 427.0171813964844 364.04266357421875 428.7211608886719 348.6446838378906 420.7622375488281 349.7729797363281 C 413.4835205078125 352.9078674316406 410.876953125 359.6941223144531 403.39166259765625 361.7941589355469 C 388.9956970214844 361.9014892578125 377.3984069824219 361.77392578125 365.5984802246094 363.4809265136719 C 348.7210388183594 363.353515625 348.9935302734375 348.0237731933594 342.950439453125 353.331298828125 C 331.5376281738281 351.6017150878906 334.529541015625 359.8905944824219 325.873291015625 364.83856201171875" stroke-width="0.0" fill="rgb(87, 78, 56)" opacity="1.0125333" stroke="rgb(0, 0, 0)" stroke-opacity="1.0" stroke-linecap="round" stroke-linejoin="round"/>
    <path d="M 417.404296875 155.36399841308594 C 403.8175048828125 157.74342346191406 401.54754638671875 173.32791137695312 387.3893737792969 178.83767700195312 C 391.875732421875 188.68284606933594 409.2524719238281 191.16502380371094 419.55810546875 189.26271057128906 C 427.8711853027344 186.52774047851562 429.84820556640625 187.30078125 429.13824462890625 179.98117065429688 C 425.6617126464844 169.393310546875 420.907958984375 163.62815856933594 417.404296875 155.36399841308594" stroke-width="0.0" fill="rgb(97, 100, 145)" opacity="1.0070964" stroke="rgb(0, 0, 0)" stroke-opacity="1.0" stroke-linecap="round" stroke-linejoin="round"/>
    <path d="M 459.00689697265625 156.35989379882812 C 451.086181640625 153.2635955810547 444.8056335449219 163.719482421875 436.7727966308594 169.01161193847656 C 437.84478759765625 181.22247314453125 431.6193542480469 183.1070098876953 433.16851806640625 190.54356384277344 C 446.6620178222656 192.3413848876953 461.783935546875 190.9083251953125 468.5285339355469 186.09799194335938 C 464.7653503417969 173.7737274169922 458.17706298828125 166.4937286376953 460.06219482421875 163.43035888671875 C 462.2442321777344 171.62965393066406 452.46478271484375 167.4385223388672 459.00689697265625 156.35989379882812" stroke-width="0.0" fill="rgb(89, 91, 134)" opacity="1.0044286" stroke="rgb(0, 0, 0)" stroke-opacity="1.0" stroke-linecap="round" stroke-linejoin="round"/>
    <path d="M 277.3943176269531 164.15879821777344 C 270.79998779296875 163.94532775878906 272.7760009765625 174.0863037109375 266.069091796875 178.43849182128906 C 270.76910400390625 185.1785430908203 276.54388427734375 191.8955078125 281.7156066894531 191.30934143066406 C 287.278564453125 193.2280731201172 288.8993835449219 186.91604614257812 286.1629943847656 176.48841857910156 C 285.3759765625 170.4677734375 280.40478515625 168.6438751220703 277.3943176269531 164.15879821777344" stroke-width="0.0" fill="rgb(113, 117, 156)" opacity="0.9999837" stroke="rgb(0, 0, 0)" stroke-opacity="1.0" stroke-linecap="round" stroke-linejoin="round"/>
    <path d="M 325.25933837890625 166.0518341064453 C 318.2982177734375 176.8930206298828 315.28033447265625 177.31088256835938 321.63397216796875 191.6904754638672 C 323.30316162109375 189.6007080078125 333.4142150878906 192.69349670410156 337.7637939453125 189.966796875 C 339.3910217285156 187.51376342773438 338.29949951171875 181.11172485351562 336.205810546875 175.97946166992188 C 326.76080322265625 171.997314453125 331.6131591796875 168.16473388671875 325.25933837890625 166.0518341064453" stroke-width="0.0" fill="rgb(121, 124, 159)" opacity="0.9442652" stroke="rgb(0, 0, 0)" stroke-opacity="1.0" stroke-linecap="round" stroke-linejoin="round"/>
    <path d="M 135.54298400878906 191.65672302246094 C 120.80764770507812 187.85836791992188 96.3277587890625 191.1133270263672 79.50717163085938 188.08323669433594 C 63.11739730834961 194.952392578125 52.34078598022461 199.0971221923828 44.584754943847656 209.27804565429688 C 23.727420806884766 205.8041534423828 26.562395095825195 221.9170684814453 -7.791141510009766 218.1612091064453 C -5.096632957458496 226.10299682617188 -2.999135732650757 234.3433837890625 -0.7726121544837952 242.60708618164062 C 14.607175827026367 252.63539123535156 24.93828582763672 266.42950439453125 42.73878479003906 278.677490234375 C 51.864280700683594 278.5927734375 52.68339157104492 271.9407043457031 56.52224349975586 274.80950927734375 C 71.66661834716797 267.4676818847656 80.18354034423828 258.6437072753906 91.77263641357422 252.0547332763672 C 105.32174682617188 232.58702087402344 113.68894958496094 208.7132110595703 135.54298400878906 191.65672302246094" stroke-width="0.0" fill="rgb(226, 226, 229)" opacity="0.97330284" stroke="rgb(0, 0, 0)" stroke-opacity="1.0" stroke-linecap="round" stroke-linejoin="round"/>
    <path d="M 191.1173858642578 193.633056640625 C 185.41502380371094 184.8745574951172 166.43350219726562 186.93051147460938 154.89105224609375 182.72360229492188 C 147.39117431640625 184.2487030029297 139.9832000732422 190.0093994140625 132.6583251953125 193.2812042236328 C 118.32718658447266 206.9888916015625 107.59017181396484 222.739990234375 96.51840209960938 245.6144561767578 C 108.60841369628906 242.75994873046875 112.70964813232422 242.36956787109375 113.00070190429688 234.85955810546875 C 141.43585205078125 235.458740234375 158.96923828125 231.25238037109375 181.5111083984375 226.51492309570312 C 184.15028381347656 214.92059326171875 192.0906219482422 204.831787109375 191.1173858642578 193.633056640625" stroke-width="0.0" fill="rgb(215, 216, 222)" opacity="1.0096459" stroke="rgb(0, 0, 0)" stroke-opacity="1.0" stroke-linecap="round" stroke-linejoin="round"/>
    <path d="M 457.0804748535156 159.7288360595703 C 454.3780212402344 167.0977325439453 465.3641357421875 173.16598510742188 470.03533935546875 182.49310302734375 C 478.8211364746094 187.8697052001953 492.719482421875 190.4812469482422 495.4512634277344 195.4480438232422 C 501.869873046875 196.0498046875 503.0235900878906 188.65162658691406 518.7283935546875 192.17225646972656 C 517.9260864257812 179.43426513671875 517.9636840820312 171.0065460205078 521.4633178710938 159.5433349609375 C 484.4811706542969 163.30740356445312 471.635498046875 152.22787475585938 457.0804748535156 159.7288360595703" stroke-width="0.0" fill="rgb(191, 191, 200)" opacity="1.0026444" stroke="rgb(0, 0, 0)" stroke-opacity="1.0" stroke-linecap="round" stroke-linejoin="round"/>
    <path d="M 244.60345458984375 185.0010528564453 C 235.06178283691406 179.38092041015625 227.0960235595703 180.12347412109375 224.30735778808594 182.68988037109375 C 219.69232177734375 188.6591339111328 220.54336547851562 195.8369140625 210.01869201660156 196.6824951171875 C 208.75709533691406 201.16847229003906 206.85693359375 208.22874450683594 208.3026885986328 213.5436553955078 C 217.0070343017578 212.14736938476562 221.5121612548828 205.8285369873047 229.83489990234375 203.25404357910156 C 232.4747772216797 205.0785675048828 233.052001953125 188.00668334960938 244.60345458984375 185.0010528564453" stroke-width="0.0" fill="rgb(150, 154, 181)" opacity="1.0065821" stroke="rgb(0, 0, 0)" stroke-opacity="1.0" stroke-linecap="round" stroke-linejoin="round"/>
    <path d="M 271.35076904296875 166.75930786132812 C 260.8444519042969 162.8925323486328 256.60528564453125 182.06759643554688 237.35018920898438 187.00401306152344 C 237.5798797607422 191.30810546875 228.9991912841797 196.6136474609375 229.5685272216797 204.2388916015625 C 242.9855194091797 208.04884338378906 236.7419891357422 191.05828857421875 248.8214874267578 194.31475830078125 C 258.5112609863281 182.78121948242188 265.4302673339844 173.8292236328125 271.35076904296875 166.75930786132812" stroke-width="0.0" fill="rgb(87, 92, 133)" opacity="0.9370642" stroke="rgb(0, 0, 0)" stroke-opacity="1.0" stroke-linecap="round" stroke-linejoin="round"/>
    <path d="M 154.22406005859375 266.84686279296875 C 143.98614501953125 262.58428955078125 147.87161254882812 274.4159851074219 140.60557556152344 278.2961120605469 C 135.86634826660156 288.381591796875 136.59242248535156 301.0750732421875 139.8050079345703 304.8262634277344 C 144.7550506591797 302.023193359375 148.73265075683594 292.19232177734375 146.84861755371094 287.7677307128906 C 149.60279846191406 281.0384216308594 160.49024963378906 282.44134521484375 162.7180938720703 275.5013427734375 C 148.91700744628906 272.7218933105469 158.6849365234375 269.8901672363281 154.22406005859375 266.84686279296875" stroke-width="0.0" fill="rgb(65, 65, 96)" opacity="0.9872101" stroke="rgb(0, 0, 0)" stroke-opacity="1.0" stroke-linecap="round" stroke-linejoin="round"/>
    <path d="M 321.8852844238281 288.3168029785156 C 315.3302001953125 291.5329895019531 312.3548889160156 301.9277038574219 309.52703857421875 306.2488098144531 C 312.14453125 311.11907958984375 320.8492431640625 318.3096008300781 333.3476867675781 318.4144592285156 C 321.73931884765625 304.4683837890625 327.1951599121094 295.9617004394531 321.8852844238281 288.3168029785156" stroke-width="0.0" fill="rgb(54, 53, 78)" opacity="1.0031259" stroke="rgb(0, 0, 0)" stroke-opacity="1.0" stroke-linecap="round" stroke-linejoin="round"/>
    <path d="M 191.31690979003906 197.21958923339844 C 190.10289001464844 210.49267578125 183.8612060546875 214.79891967773438 181.6329803466797 221.39137268066406 C 186.0113067626953 231.2208251953125 190.84519958496094 222.3837432861328 197.42884826660156 220.02601623535156 C 190.48223876953125 213.9085235595703 197.44357299804688 201.23692321777344 191.31690979003906 197.21958923339844" stroke-width="0.0" fill="rgb(102, 105, 151)" opacity="0.9918933" stroke="rgb(0, 0, 0)" stroke-opacity="1.0" stroke-linecap="round" stroke-linejoin="round"/>
    <path d="M 366.87109375 285.7545471191406 C 360.95306396484375 285.91314697265625 360.0748291015625 287.377197265625 357.1282043457031 294.8937072753906 C 361.1468505859375 294.6443176269531 356.559326171875 301.3611755371094 361.2241516113281 303.72283935546875 C 363.6766357421875 302.7646484375 369.8818664550781 299.877685546875 370.53375244140625 298.5905456542969 C 372.8150329589844 287.7588195800781 369.6177978515625 290.69049072265625 366.87109375 285.7545471191406" stroke-width="0.0" fill="rgb(83, 78, 102)" opacity="1.0009204" stroke="rgb(0, 0, 0)" stroke-opacity="1.0" stroke-linecap="round" stroke-linejoin="round"/>
    <path d="M 300.5992736816406 266.431884765625 C 283.4111633300781 284.6728210449219 265.9713134765625 304.1942443847656 236.7455291748047 321.751708984375 C 236.83038330078125 330.892578125 224.25192260742188 332.6107177734375 224.3554229736328 338.5494079589844 C 219.93093872070312 345.25091552734375 228.73265075683594 347.5968017578125 233.81944274902344 347.3551330566406 C 234.65997314453125 343.62982177734375 239.96319580078125 342.99493408203125 241.49935913085938 337.78594970703125 C 252.41497802734375 338.41949462890625 246.6614227294922 336.1136779785156 250.05331420898438 342.80865478515625 C 260.9832763671875 338.1923828125 267.4989929199219 340.45306396484375 274.00762939453125 330.3393859863281 C 286.381103515625 321.25384521484375 292.88507080078125 312.66156005859375 304.1329345703125 298.89892578125 C 305.4259948730469 291.1679992675781 300.0820007324219 288.9597473144531 299.49224853515625 281.4788818359375 C 306.5045166015625 283.88128662109375 313.2823181152344 270.4903259277344 300.5992736816406 266.431884765625" stroke-width="0.0" fill="rgb(75, 71, 92)" opacity="0.98684675" stroke="rgb(0, 0, 0)" stroke-opacity="1.0" stroke-linecap="round" stroke-linejoin="round"/>
    <path d="M 329.1836242675781 325.654052734375 C 334.2055358886719 317.82635498046875 321.0304870605469 319.9657897949219 319.6903381347656 317.60809326171875 C 310.8334045410156 322.219482421875 309.064208984375 331.0025634765625 297.8802490234375 332.6942443847656 C 298.6807556152344 343.85150146484375 305.20098876953125 332.5465393066406 316.5386047363281 335.6499328613281 C 320.21099853515625 328.477783203125 328.9480285644531 329.9648132324219 329.1836242675781 325.654052734375" stroke-width="0.0" fill="rgb(129, 123, 120)" opacity="1.000502" stroke="rgb(0, 0, 0)" stroke-opacity="1.0" stroke-linecap="round" stroke-linejoin="round"/>
    <path d="M 479.4057922363281 341.8917541503906 C 472.7093200683594 342.87335205078125 471.986083984375 354.8434753417969 468.1958923339844 360.19805908203125 C 477.9277038574219 358.5262145996094 477.5057678222656 359.0099182128906 475.9902648925781 358.32537841796875 C 476.49078369140625 358.6258850097656 471.82366943359375 359.6967468261719 479.8614501953125 357.67071533203125 C 483.5985107421875 360.4934387207031 481.5809631347656 350.39404296875 479.4057922363281 341.8917541503906" stroke-width="0.0" fill="rgb(112, 96, 81)" opacity="1.001211" stroke="rgb(0, 0, 0)" stroke-opacity="1.0" stroke-linecap="round" stroke-linejoin="round"/>
    <path d="M 436.85418701171875 321.5062255859375 C 431.61395263671875 324.7507629394531 431.8393249511719 338.6283264160156 431.64862060546875 343.9361572265625 C 424.7088623046875 344.9012756347656 431.27801513671875 347.95025634765625 434.5706787109375 352.5037536621094 C 440.1185607910156 347.9116516113281 440.86810302734375 343.5418701171875 443.41705322265625 334.0335693359375 C 441.4440002441406 331.08013916015625 443.1110534667969 321.9704895019531 436.85418701171875 321.5062255859375" stroke-width="0.0" fill="rgb(86, 78, 70)" opacity="0.9999448" stroke="rgb(0, 0, 0)" stroke-opacity="1.0" stroke-linecap="round" stroke-linejoin="round"/>
    <path d="M 496.1069030761719 222.34422302246094 C 491.5443115234375 219.86593627929688 483.3561706542969 221.406982421875 483.23590087890625 224.85922241210938 C 482.9453430175781 228.7286376953125 479.0320129394531 238.9323272705078 484.7771301269531 240.66720581054688 C 490.49560546875 243.32827758789062 491.1683044433594 236.33761596679688 495.938720703125 232.9451446533203 C 499.9698486328125 228.7618408203125 495.0223693847656 224.73196411132812 496.1069030761719 222.34422302246094" stroke-width="0.0" fill="rgb(84, 81, 105)" opacity="0.9305132" stroke="rgb(0, 0, 0)" stroke-opacity="1.0" stroke-linecap="round" stroke-linejoin="round"/>
    <path d="M -6.360759258270264 428.9280700683594 C -7.158033847808838 452.5196533203125 -6.3308587074279785 482.0177917480469 -3.9534788131713867 519.4057006835938 C 170.31509399414062 519.4738159179688 340.6518859863281 519.551025390625 518.7769165039062 519.5823974609375 C 518.7691040039062 487.0934143066406 518.7600708007812 463.02215576171875 518.9191284179688 436.2876892089844 C 341.3854675292969 436.9424133300781 172.66275024414062 428.322265625 0.7825866937637329 421.1783447265625 C 1.2317019701004028 418.95123291015625 5.727297782897949 428.78265380859375 -6.360759258270264 428.9280700683594" stroke-width="0.0" fill="rgb(187, 158, 105)" opacity="0.9584647" stroke="rgb(0, 0, 0)" stroke-opacity="1.0" stroke-linecap="round" stroke-linejoin="round"/>
    <path d="M -4.40485143661499 244.14645385742188 C -7.151968955993652 279.4302062988281 -6.194066524505615 315.4239501953125 -5.774412631988525 352.8163757324219 C 6.8004584312438965 351.0209045410156 13.123534202575684 357.55828857421875 23.17398452758789 358.66827392578125 C 53.0497932434082 356.167236328125 86.82828521728516 356.2019958496094 131.48251342773438 353.7535095214844 C 142.03985595703125 362.42828369140625 148.53866577148438 352.5640869140625 145.20156860351562 344.9422607421875 C 144.4127960205078 349.9112548828125 144.00169372558594 343.98583984375 144.26771545410156 346.45703125 C 145.2918701171875 347.35101318359375 143.98130798339844 344.6668701171875 145.60693359375 351.3385925292969 C 145.08326721191406 339.1542053222656 138.02955627441406 336.1620178222656 147.619384765625 339.1429138183594 C 111.87930297851562 316.535888671875 77.25804138183594 301.9356994628906 45.61396789550781 283.7072448730469 C 29.052621841430664 272.5939636230469 17.850488662719727 255.2823486328125 -4.40485143661499 244.14645385742188" stroke-width="0.0" fill="rgb(131, 111, 62)" opacity="0.98417205" stroke="rgb(0, 0, 0)" stroke-opacity="1.0" stroke-linecap="round" stroke-linejoin="round"/>
    <path d="M 521.4163208007812 363.1590881347656 C 490.56982421875 368.58270263671875 500.30419921875 353.34600830078125 484.8803405761719 354.9105529785156 C 470.2167663574219 361.5643310546875 452.9018249511719 360.6832580566406 433.94403076171875 367.4247131347656 C 432.4600830078125 376.8772888183594 430.66619873046875 382.8492431640625 431.8601379394531 380.9671936035156 C 435.15362548828125 391.5292663574219 426.0047607421875 396.5747985839844 416.5964660644531 397.2284851074219 C 415.2751159667969 407.8686828613281 422.56591796875 407.86920166015625 424.400634765625 413.0342712402344 C 436.6094665527344 421.94464111328125 452.97015380859375 423.5672302246094 467.448974609375 430.8530578613281 C 482.4212951660156 432.2148132324219 495.51812744140625 434.3674621582031 518.453125 432.55120849609375 C 520.8021850585938 411.2902526855469 521.1229858398438 386.0119934082031 521.4163208007812 363.1590881347656" stroke-width="0.0" fill="rgb(97, 89, 68)" opacity="0.99150324" stroke="rgb(0, 0, 0)" stroke-opacity="1.0" stroke-linecap="round" stroke-linejoin="round"/>
    <path d="M 279.58306884765625 415.3630676269531 C 282.31756591796875 415.6781921386719 270.5292663574219 418.24041748046875 271.6390380859375 416.9573059082031 C 269.01263427734375 433.5997314453125 274.0944519042969 436.25628662109375 274.9721374511719 448.6539001464844 C 277.7594299316406 434.4287109375 285.67236328125 431.0593566894531 279.58306884765625 415.3630676269531" stroke-width="0.0" fill="rgb(130, 112, 104)" opacity="1.0031673" stroke="rgb(0, 0, 0)" stroke-opacity="1.0" stroke-linecap="round" stroke-linejoin="round"/>
    <path d="M 359.8401184082031 419.04498291015625 C 357.4044189453125 427.53826904296875 362.34173583984375 440.6820373535156 367.1282958984375 456.4889221191406 C 368.15411376953125 448.28436279296875 369.4270935058594 439.7384948730469 370.3134765625 426.12518310546875 C 365.0897521972656 422.1275634765625 368.3998718261719 413.5273132324219 359.8401184082031 419.04498291015625" stroke-width="0.0" fill="rgb(80, 65, 63)" opacity="1.008647" stroke="rgb(0, 0, 0)" stroke-opacity="1.0" stroke-linecap="round" stroke-linejoin="round"/>
    <path d="M 324.57830810546875 416.22308349609375 C 320.135009765625 435.7578430175781 325.952392578125 438.1878967285156 324.8897705078125 440.1130676269531 C 324.5858459472656 434.1825256347656 320.06036376953125 432.6907653808594 328.9940185546875 434.4400329589844 C 334.98388671875 435.9195861816406 325.7506408691406 439.9836730957031 326.1180419921875 443.7261657714844 C 326.1694030761719 443.6285400390625 329.5600891113281 439.257568359375 332.83355712890625 430.1535949707031 C 331.45654296875 421.31011962890625 325.57391357421875 416.2156982421875 324.57830810546875 416.22308349609375" stroke-width="0.0" fill="rgb(105, 102, 112)" opacity="0.9542037" stroke="rgb(0, 0, 0)" stroke-opacity="1.0" stroke-linecap="round" stroke-linejoin="round"/>
    <path d="M 161.6106719970703 412.19818115234375 C 152.31578063964844 410.0786437988281 152.98443603515625 415.826416015625 155.68075561523438 425.1821594238281 C 154.38409423828125 426.8435363769531 162.5367889404297 427.18310546875 166.77001953125 429.5124206542969 C 167.68145751953125 427.0675964355469 170.81942749023438 422.32427978515625 168.55381774902344 412.80926513671875 C 158.23080444335938 418.9554443359375 165.7216033935547 414.544677734375 161.6106719970703 412.19818115234375" stroke-width="0.0" fill="rgb(86, 74, 70)" opacity="1.0055084" stroke="rgb(0, 0, 0)" stroke-opacity="1.0" stroke-linecap="round" stroke-linejoin="round"/>
    <path d="M -5.051636219024658 352.3182067871094 C -6.28170108795166 369.78662109375 -6.103434085845947 390.1748046875 -4.440578460693359 410.923095703125 C 78.84253692626953 405.71844482421875 151.42391967773438 411.8695373535156 246.1732635498047 405.64288330078125 C 263.75225830078125 409.0727233886719 271.7893981933594 391.3935241699219 317.1030578613281 400.8262023925781 C 307.1454772949219 398.9830322265625 306.81915283203125 402.7319030761719 305.0392761230469 386.0106201171875 C 305.6032409667969 378.01873779296875 309.80194091796875 371.2816467285156 310.5074462890625 364.44512939453125 C 298.5233459472656 362.2790222167969 285.6197509765625 357.2853698730469 272.50640869140625 361.20269775390625 C 277.8034973144531 364.63665771484375 276.5099792480469 375.9312438964844 266.4574279785156 377.863037109375 C 257.1569519042969 371.12579345703125 267.6230163574219 357.4577941894531 264.8769836425781 359.1480407714844 C 244.1523895263672 353.608642578125 225.19773864746094 350.2278137207031 205.87306213378906 352.0632629394531 C 181.74795532226562 336.2535400390625 134.8695068359375 331.5612487792969 141.038330078125 330.6114196777344 C 145.38729858398438 347.5298767089844 148.5663604736328 360.1326599121094 136.9864501953125 355.55322265625 C 111.16223907470703 348.11798095703125 99.8178939819336 356.4010009765625 87.33417510986328 357.4652404785156 C 74.55237579345703 355.38494873046875 57.894161224365234 359.5264892578125 50.73186492919922 355.51416015625 C 42.446876525878906 361.3707275390625 37.160308837890625 365.0777587890625 30.875539779663086 363.9590148925781 C 12.876265525817871 362.9964599609375 12.605151176452637 349.5337829589844 -5.051636219024658 352.3182067871094" stroke-width="0.0" fill="rgb(162, 139, 96)" opacity="0.61870754" stroke="rgb(0, 0, 0)" stroke-opacity="1.0" stroke-linecap="round" stroke-linejoin="round"/>
    <path d="M 133.5326385498047 195.3323974609375 C 131.23306274414062 183.22604370117188 108.36050415039062 193.87246704101562 82.24980926513672 187.2244415283203 C 62.85920333862305 193.87159729003906 51.856353759765625 199.53651428222656 44.206512451171875 209.33079528808594 C 23.7268123626709 205.54501342773438 29.202409744262695 220.746826171875 -10.461174011230469 219.66415405273438 C -5.93190336227417 222.15980529785156 -5.990023612976074 228.93052673339844 0.9939071536064148 234.44496154785156 C 4.174967288970947 228.3047332763672 13.820928573608398 228.94100952148438 30.49422836303711 226.79283142089844 C 52.40610122680664 235.78591918945312 68.07225036621094 226.8242950439453 101.92630767822266 232.6763458251953 C 111.5556640625 218.23985290527344 121.15451049804688 204.16354370117188 133.5326385498047 195.3323974609375" stroke-width="0.0" fill="rgb(205, 206, 216)" opacity="1.00302" stroke="rgb(0, 0, 0)" stroke-opacity="1.0" stroke-linecap="round" stroke-linejoin="round"/>
    <path d="M 342.20196533203125 341.66424560546875 C 330.66912841796875 348.3001708984375 327.384521484375 374.220458984375 332.21466064453125 387.0726623535156 C 327.23992919921875 388.7131042480469 334.10589599609375 392.4056396484375 341.2847595214844 396.8824462890625 C 353.455078125 394.9871520996094 366.0423889160156 396.3602600097656 376.4803466796875 397.349609375 C 382.5784912109375 394.7357177734375 378.8880615234375 375.5856628417969 375.5507507324219 367.0958557128906 C 372.1712341308594 361.48236083984375 366.0539245605469 363.8810729980469 363.38763427734375 369.1702575683594 C 349.8600769042969 361.3079833984375 352.6177062988281 342.61053466796875 342.20196533203125 341.66424560546875" stroke-width="0.0" fill="rgb(77, 68, 44)" opacity="0.9952095" stroke="rgb(0, 0, 0)" stroke-opacity="1.0" stroke-linecap="round" stroke-linejoin="round"/>
    <path d="M 416.7461853027344 335.045166015625 C 414.1775207519531 361.35125732421875 407.3564758300781 353.3367919921875 406.9967346191406 372.8039855957031 C 409.01055908203125 379.02008056640625 408.9754333496094 385.776611328125 409.5064392089844 387.86285400390625 C 414.8001403808594 390.3953552246094 420.0638732910156 394.85052490234375 426.98321533203125 393.9967346191406 C 436.5677490234375 389.21807861328125 431.7124328613281 378.7908935546875 431.93017578125 358.40411376953125 C 424.4951171875 349.7420349121094 427.8543701171875 333.4741516113281 416.7461853027344 335.045166015625" stroke-width="0.0" fill="rgb(86, 76, 53)" opacity="0.98835593" stroke="rgb(0, 0, 0)" stroke-opacity="1.0" stroke-linecap="round" stroke-linejoin="round"/>
    <path d="M 169.14849853515625 426.17437744140625 C 192.06187438964844 432.68206787109375 235.42990112304688 428.9670715332031 269.5555725097656 432.8491516113281 C 271.5025939941406 425.0094299316406 271.1685485839844 422.7638854980469 263.62066650390625 419.1472473144531 C 224.59307861328125 419.75299072265625 194.44284057617188 416.7642822265625 169.14849853515625 426.17437744140625" stroke-width="0.0" fill="rgb(102, 83, 61)" opacity="0.9865423" stroke="rgb(0, 0, 0)" stroke-opacity="1.0" stroke-linecap="round" stroke-linejoin="round"/>
    <path d="M 311.1022644042969 365.1689758300781 C 306.8614807128906 367.0368347167969 310.7101745605469 379.1158142089844 302.54608154296875 384.5830993652344 C 307.18365478515625 386.68499755859375 304.43927001953125 395.5697326660156 308.11785888671875 398.1746520996094 C 317.1305236816406 398.3385925292969 318.1072998046875 399.6194763183594 320.8799133300781 393.9026794433594 C 321.0309143066406 387.6474304199219 320.3975524902344 376.2346496582031 326.1240234375 368.5158386230469 C 320.986328125 370.187744140625 317.08209228515625 361.1844787597656 311.1022644042969 365.1689758300781" stroke-width="0.0" fill="rgb(99, 84, 52)" opacity="1.0081819" stroke="rgb(0, 0, 0)" stroke-opacity="1.0" stroke-linecap="round" stroke-linejoin="round"/>
    <path d="M 423.4560241699219 424.36773681640625 C 421.5276794433594 419.0707092285156 414.2247314453125 418.89361572265625 416.48883056640625 415.893798828125 C 413.60247802734375 425.4958801269531 401.71002197265625 425.9057922363281 399.5494689941406 433.55621337890625 C 407.2604675292969 438.3528137207031 415.7909240722656 436.3714904785156 427.30120849609375 433.010009765625 C 425.6166076660156 437.0868225097656 426.44287109375 431.5545349121094 423.4560241699219 424.36773681640625" stroke-width="0.0" fill="rgb(71, 61, 43)" opacity="0.9977324" stroke="rgb(0, 0, 0)" stroke-opacity="1.0" stroke-linecap="round" stroke-linejoin="round"/>
    <path d="M 221.07908630371094 188.0529022216797 C 219.1132049560547 195.24163818359375 212.0380096435547 191.926025390625 209.16751098632812 197.02944946289062 C 208.04051208496094 202.51284790039062 206.29966735839844 206.44610595703125 207.1431884765625 214.8306121826172 C 213.36766052246094 212.62887573242188 218.7285614013672 210.37245178222656 224.34869384765625 205.901611328125 C 220.1783447265625 204.51853942871094 219.23463439941406 196.9962921142578 221.07908630371094 188.0529022216797" stroke-width="0.0" fill="rgb(79, 84, 133)" opacity="1.0028933" stroke="rgb(0, 0, 0)" stroke-opacity="1.0" stroke-linecap="round" stroke-linejoin="round"/>
    <path d="M 266.5791015625 354.6806945800781 C 264.9881286621094 360.2530212402344 261.43658447265625 367.5466003417969 262.7820129394531 372.6012878417969 C 264.8807678222656 377.6602478027344 265.037353515625 378.16253662109375 270.74761962890625 376.83294677734375 C 273.4346618652344 374.0860595703125 275.93133544921875 370.66607666015625 276.25909423828125 365.0059814453125 C 271.61090087890625 361.60321044921875 272.84210205078125 354.5902404785156 266.5791015625 354.6806945800781" stroke-width="0.0" fill="rgb(117, 98, 43)" opacity="0.99301314" stroke="rgb(0, 0, 0)" stroke-opacity="1.0" stroke-linecap="round" stroke-linejoin="round"/>
    <path d="M 247.79905700683594 188.6205596923828 C 238.87542724609375 176.96963500976562 235.57595825195312 180.6416778564453 235.37245178222656 187.09609985351562 C 233.7606201171875 199.9536590576172 216.74378967285156 204.76084899902344 235.87588500976562 205.00112915039062 C 237.70401000976562 202.34642028808594 242.77001953125 194.43978881835938 247.79905700683594 188.6205596923828" stroke-width="0.0" fill="rgb(86, 93, 135)" opacity="0.95614684" stroke="rgb(0, 0, 0)" stroke-opacity="1.0" stroke-linecap="round" stroke-linejoin="round"/>
    <path d="M 424.1674499511719 418.6933288574219 C 424.778076171875 427.69976806640625 427.9459533691406 430.09796142578125 422.76995849609375 437.14617919921875 C 445.1902160644531 438.00299072265625 465.2621154785156 445.18682861328125 473.2408142089844 437.6900329589844 C 471.82904052734375 433.73193359375 463.8117370605469 430.6853942871094 460.1191711425781 428.35101318359375 C 447.641357421875 424.72381591796875 438.2032470703125 419.8544006347656 424.1674499511719 418.6933288574219" stroke-width="0.0" fill="rgb(143, 122, 80)" opacity="0.989386" stroke="rgb(0, 0, 0)" stroke-opacity="1.0" stroke-linecap="round" stroke-linejoin="round"/>
    <path d="M 371.0600891113281 422.4665832519531 C 370.195556640625 428.750732421875 373.64166259765625 431.74664306640625 369.48858642578125 436.48486328125 C 387.3221435546875 432.13226318359375 403.9377746582031 441.9282531738281 402.9681396484375 431.3812561035156 C 404.9710388183594 428.7808837890625 398.4901428222656 425.73345947265625 394.16009521484375 422.5130615234375 C 385.8947448730469 422.40899658203125 373.78680419921875 419.1507263183594 371.0600891113281 422.4665832519531" stroke-width="0.0" fill="rgb(95, 81, 67)" opacity="0.9969507" stroke="rgb(0, 0, 0)" stroke-opacity="1.0" stroke-linecap="round" stroke-linejoin="round"/>
    <path d="M 287.6051025390625 422.7781677246094 C 289.604736328125 427.75836181640625 284.8599853515625 428.0415954589844 287.75738525390625 433.1696472167969 C 297.827392578125 433.894775390625 310.020751953125 434.83001708984375 321.1871643066406 433.9794921875 C 320.5213623046875 425.0810241699219 323.8534851074219 423.5760192871094 315.35748291015625 421.5011291503906 C 303.8370666503906 423.596435546875 292.71197509765625 418.79107666015625 287.6051025390625 422.7781677246094" stroke-width="0.0" fill="rgb(123, 101, 67)" opacity="0.998876" stroke="rgb(0, 0, 0)" stroke-opacity="1.0" stroke-linecap="round" stroke-linejoin="round"/>
    <path d="M 240.83975219726562 182.0219268798828 C 242.12904357910156 178.6000213623047 221.1666259765625 180.70095825195312 224.75289916992188 180.0358428955078 C 220.7684783935547 190.0056915283203 218.55517578125 189.6295166015625 221.38047790527344 206.95361328125 C 230.20555114746094 203.76504516601562 233.83421325683594 190.9300079345703 240.83975219726562 182.0219268798828" stroke-width="0.0" fill="rgb(189, 193, 207)" opacity="0.92832696" stroke="rgb(0, 0, 0)" stroke-opacity="1.0" stroke-linecap="round" stroke-linejoin="round"/>
    <path d="M 335.48699951171875 435.2775573730469 C 335.85107421875 435.30816650390625 352.9791564941406 435.0301513671875 359.6979064941406 434.62255859375 C 361.8809814453125 426.0555419921875 359.20184326171875 422.318603515625 358.56378173828125 420.6229248046875 C 340.0888366699219 423.375 345.3787536621094 418.5395202636719 335.48699951171875 435.2775573730469" stroke-width="0.0" fill="rgb(95, 78, 58)" opacity="0.9917176" stroke="rgb(0, 0, 0)" stroke-opacity="1.0" stroke-linecap="round" stroke-linejoin="round"/>
    <path d="M 325.74700927734375 360.3703918457031 C 319.2261962890625 363.2166442871094 326.96783447265625 375.273193359375 318.6203308105469 384.52520751953125 C 320.8690490722656 390.96099853515625 318.9700012207031 392.45550537109375 325.0608215332031 394.06060791015625 C 330.11456298828125 393.3115234375 329.97857666015625 389.98748779296875 331.8153381347656 386.5910949707031 C 328.9767150878906 378.08526611328125 333.49200439453125 362.8843994140625 325.74700927734375 360.3703918457031" stroke-width="0.0" fill="rgb(70, 63, 47)" opacity="1.0024445" stroke="rgb(0, 0, 0)" stroke-opacity="1.0" stroke-linecap="round" stroke-linejoin="round"/>
    <path d="M 126.00604248046875 204.40269470214844 C 107.70751953125 213.48533630371094 107.9049301147461 233.0821533203125 95.21691131591797 244.46466064453125 C 99.12065124511719 246.1168975830078 107.301513671875 243.8590850830078 111.58268737792969 241.9130096435547 C 111.33451843261719 228.35848999023438 119.04922485351562 215.66812133789062 126.00604248046875 204.40269470214844" stroke-width="0.0" fill="rgb(131, 136, 170)" opacity="0.97684807" stroke="rgb(0, 0, 0)" stroke-opacity="1.0" stroke-linecap="round" stroke-linejoin="round"/>
    <path d="M 330.2035217285156 174.28646850585938 C 328.6822509765625 178.17120361328125 321.7814636230469 184.77931213378906 317.6896667480469 189.15182495117188 C 320.7215270996094 198.05235290527344 328.09124755859375 189.8995819091797 340.39453125 192.62765502929688 C 332.8883361816406 178.85528564453125 341.9985656738281 173.0431365966797 330.2035217285156 174.28646850585938" stroke-width="0.0" fill="rgb(95, 99, 142)" opacity="0.9544439" stroke="rgb(0, 0, 0)" stroke-opacity="1.0" stroke-linecap="round" stroke-linejoin="round"/>
    <path d="M 391.68011474609375 375.3210144042969 C 387.5492858886719 377.3116149902344 383.1571350097656 382.56414794921875 384.1380310058594 389.956298828125 C 385.94439697265625 393.5478515625 388.46282958984375 396.2186584472656 396.38006591796875 392.99176025390625 C 398.7454528808594 381.5248107910156 396.16943359375 380.9096984863281 391.68011474609375 375.3210144042969" stroke-width="0.0" fill="rgb(62, 59, 43)" opacity="1.0003487" stroke="rgb(0, 0, 0)" stroke-opacity="1.0" stroke-linecap="round" stroke-linejoin="round"/>
    <path d="M 142.60255432128906 408.79510498046875 C 136.64541625976562 415.40325927734375 140.15245056152344 428.4744567871094 138.7764434814453 429.0453796386719 C 140.0604705810547 426.31756591796875 135.88592529296875 427.8135681152344 148.6713409423828 428.12750244140625 C 151.42259216308594 428.95013427734375 146.66690063476562 425.91412353515625 147.61856079101562 428.9427185058594 C 147.32240295410156 425.9002380371094 148.1099395751953 412.2642822265625 142.60255432128906 408.79510498046875" stroke-width="0.0" fill="rgb(135, 90, 109)" opacity="0.994825" stroke="rgb(0, 0, 0)" stroke-opacity="1.0" stroke-linecap="round" stroke-linejoin="round"/>
    <path d="M 53.293270111083984 322.4838562011719 C 45.03173828125 326.5528564453125 46.66959762573242 335.73443603515625 44.99524688720703 344.7447204589844 C 45.90385055541992 349.6843566894531 53.65928649902344 352.18206787109375 57.17979431152344 356.1129150390625 C 63.15065383911133 350.899169921875 60.44710159301758 340.5728759765625 61.16748809814453 327.4697570800781 C 57.461666107177734 323.9888000488281 59.808074951171875 319.6031799316406 53.293270111083984 322.4838562011719" stroke-width="0.0" fill="rgb(76, 67, 56)" opacity="1.0007439" stroke="rgb(0, 0, 0)" stroke-opacity="1.0" stroke-linecap="round" stroke-linejoin="round"/>
    <path d="M -4.510012149810791 240.28651428222656 C -8.269813537597656 277.22027587890625 -6.9295573234558105 313.201904296875 -2.5494401454925537 349.6851806640625 C 19.304685592651367 348.9855041503906 5.4507293701171875 360.69195556640625 31.168292999267578 356.6981201171875 C 40.78846740722656 357.74444580078125 43.619590759277344 350.638427734375 45.28955078125 345.35968017578125 C 45.722198486328125 319.02557373046875 49.41836166381836 299.4061279296875 43.67291259765625 306.9926452636719 C 44.25891876220703 304.177001953125 43.582763671875 296.44976806640625 47.68684768676758 293.32476806640625 C 39.07841110229492 273.6884460449219 16.235998153686523 261.692626953125 -4.510012149810791 240.28651428222656" stroke-width="0.0" fill="rgb(123, 107, 62)" opacity="0.9786483" stroke="rgb(0, 0, 0)" stroke-opacity="1.0" stroke-linecap="round" stroke-linejoin="round"/>
    <path d="M 520.2216186523438 434.02667236328125 C 519.3301391601562 423.4170837402344 518.6588134765625 410.2972717285156 516.8865356445312 395.0713195800781 C 485.7004089355469 401.6018981933594 450.9994812011719 399.644287109375 425.9769287109375 404.0120849609375 C 420.4770812988281 408.96405029296875 422.03973388671875 413.64703369140625 427.74481201171875 417.12371826171875 C 440.0700988769531 420.92901611328125 456.06341552734375 424.3374328613281 469.6630859375 432.1410827636719 C 482.5149841308594 433.3323974609375 498.42681884765625 434.7220458984375 520.2216186523438 434.02667236328125" stroke-width="0.0" fill="rgb(101, 91, 65)" opacity="0.99216706" stroke="rgb(0, 0, 0)" stroke-opacity="1.0" stroke-linecap="round" stroke-linejoin="round"/>
    <path d="M 342.8710632324219 341.4823303222656 C 336.336669921875 344.6747131347656 333.0843200683594 352.00592041015625 332.9801330566406 357.40985107421875 C 330.2448425292969 368.00823974609375 330.3956298828125 378.36004638671875 333.5885925292969 387.1954345703125 C 335.11529541015625 390.9597473144531 336.5438232421875 393.2880859375 342.450927734375 395.0917663574219 C 346.86236572265625 396.2703552246094 357.7135925292969 394.54327392578125 360.4001159667969 395.1531982421875 C 362.248291015625 386.0985412597656 364.3034973144531 378.3573913574219 357.83221435546875 364.78131103515625 C 349.6935729980469 358.3226318359375 351.863037109375 344.1043395996094 342.8710632324219 341.4823303222656" stroke-width="0.0" fill="rgb(77, 68, 49)" opacity="0.9995197" stroke="rgb(0, 0, 0)" stroke-opacity="1.0" stroke-linecap="round" stroke-linejoin="round"/>
    <path d="M 422.7643127441406 398.8494567871094 C 444.7906799316406 398.8354797363281 457.3192138671875 401.4763488769531 477.0279541015625 392.91473388671875 C 463.8065185546875 402.2783508300781 462.8493347167969 395.5059814453125 465.23284912109375 388.50848388671875 C 463.0049743652344 387.0563659667969 462.6499328613281 376.2548828125 466.1034851074219 373.0850830078125 C 462.2972106933594 366.9889831542969 451.337890625 367.4222412109375 438.1092834472656 369.4452209472656 C 435.7779235839844 374.8060607910156 437.885498046875 384.84161376953125 433.7506408691406 393.7335510253906 C 446.39324951171875 396.1094970703125 428.2093200683594 393.3788757324219 422.7643127441406 398.8494567871094" stroke-width="0.0" fill="rgb(87, 82, 57)" opacity="1.0004151" stroke="rgb(0, 0, 0)" stroke-opacity="1.0" stroke-linecap="round" stroke-linejoin="round"/>
    <path d="M 418.8210144042969 330.9857482910156 C 413.6734619140625 335.83447265625 416.2771301269531 348.8125915527344 413.51116943359375 353.7395324707031 C 415.66033935546875 367.9635314941406 418.37744140625 379.1554260253906 419.17486572265625 389.53131103515625 C 422.3962097167969 393.17413330078125 424.6724548339844 396.5797424316406 430.09918212890625 391.91241455078125 C 432.4583740234375 393.76507568359375 433.0708312988281 379.29705810546875 430.8417663574219 362.2777404785156 C 427.8738098144531 350.13897705078125 426.0703430175781 336.74249267578125 418.8210144042969 330.9857482910156" stroke-width="0.0" fill="rgb(113, 94, 51)" opacity="0.99479455" stroke="rgb(0, 0, 0)" stroke-opacity="1.0" stroke-linecap="round" stroke-linejoin="round"/>
    <path d="M 483.4577941894531 348.7673034667969 C 478.56396484375 353.786376953125 476.8303527832031 356.6644287109375 478.44146728515625 364.5434875488281 C 479.06158447265625 376.4794616699219 482.3764343261719 384.7326965332031 483.7806396484375 386.7457275390625 C 482.5243835449219 388.6846008300781 493.5002746582031 393.8844299316406 494.4961853027344 390.2723083496094 C 497.7079162597656 389.244384765625 499.1591796875 378.9936828613281 500.6321105957031 370.0968017578125 C 495.5856018066406 364.57135009765625 496.8412170410156 357.0706787109375 494.6302490234375 351.8380126953125 C 490.93560791015625 351.18890380859375 485.583984375 345.8069763183594 483.4577941894531 348.7673034667969" stroke-width="0.0" fill="rgb(110, 96, 76)" opacity="0.99948436" stroke="rgb(0, 0, 0)" stroke-opacity="1.0" stroke-linecap="round" stroke-linejoin="round"/>
    <path d="M 136.14263916015625 340.69415283203125 C 133.74032592773438 350.5096740722656 126.57079315185547 351.0799255371094 126.10381317138672 360.3689270019531 C 126.96202087402344 373.9590759277344 118.64338684082031 368.62860107421875 133.8502655029297 374.5771179199219 C 137.08963012695312 369.47320556640625 147.7210235595703 372.21392822265625 147.88238525390625 362.2509460449219 C 151.70777893066406 350.0426330566406 142.4300537109375 351.6148376464844 136.14263916015625 340.69415283203125" stroke-width="0.0" fill="rgb(112, 96, 53)" opacity="0.99966127" stroke="rgb(0, 0, 0)" stroke-opacity="1.0" stroke-linecap="round" stroke-linejoin="round"/>
    <path d="M 248.95506286621094 386.0547790527344 C 250.41445922851562 383.0116882324219 245.9194793701172 382.3536376953125 244.7487335205078 380.8567810058594 C 231.08938598632812 382.70062255859375 224.15589904785156 383.9822692871094 218.13739013671875 391.8132019042969 C 225.8664093017578 393.8782043457031 236.4803924560547 395.500244140625 245.65054321289062 397.2878723144531 C 249.29437255859375 396.7532653808594 251.46998596191406 388.8304138183594 248.95506286621094 386.0547790527344" stroke-width="0.0" fill="rgb(87, 78, 49)" opacity="1.0024186" stroke="rgb(0, 0, 0)" stroke-opacity="1.0" stroke-linecap="round" stroke-linejoin="round"/>
    <path d="M 181.96592712402344 344.17877197265625 C 179.32992553710938 347.4717102050781 176.59034729003906 350.7563781738281 170.3247528076172 352.5605773925781 C 168.8112335205078 359.60284423828125 166.11166381835938 368.0907287597656 174.81570434570312 367.0594482421875 C 182.1900177001953 368.17059326171875 184.95762634277344 366.78369140625 188.3360595703125 362.3917541503906 C 192.34527587890625 350.0550842285156 187.45811462402344 350.58477783203125 181.96592712402344 344.17877197265625" stroke-width="0.0" fill="rgb(114, 95, 65)" opacity="1.0096941" stroke="rgb(0, 0, 0)" stroke-opacity="1.0" stroke-linecap="round" stroke-linejoin="round"/>
    <path d="M 371.0139465332031 363.7650146484375 C 363.2430725097656 364.7875061035156 366.22003173828125 375.7318115234375 368.0727844238281 393.363037109375 C 368.6634521484375 394.3058166503906 369.4158020019531 398.6733093261719 374.66278076171875 398.3017578125 C 379.2711486816406 394.3997497558594 379.4457092285156 391.1412048339844 379.13433837890625 382.2303771972656 C 376.87335205078125 373.6787414550781 374.2300720214844 361.8878173828125 371.0139465332031 363.7650146484375" stroke-width="0.0" fill="rgb(112, 92, 32)" opacity="0.9997532" stroke="rgb(0, 0, 0)" stroke-opacity="1.0" stroke-linecap="round" stroke-linejoin="round"/>
    <path d="M 319.0404968261719 365.5459899902344 C 312.8448181152344 362.43060302734375 309.7983093261719 367.0372314453125 308.5618591308594 369.75335693359375 C 308.0736389160156 381.3595275878906 303.7213439941406 387.0404052734375 311.76776123046875 389.4057922363281 C 318.8502502441406 391.7951965332031 318.8122253417969 382.2216796875 324.097412109375 378.0763854980469 C 325.896484375 367.9646301269531 324.16632080078125 369.7073974609375 319.0404968261719 365.5459899902344" stroke-width="0.0" fill="rgb(138, 117, 79)" opacity="1.0135483" stroke="rgb(0, 0, 0)" stroke-opacity="1.0" stroke-linecap="round" stroke-linejoin="round"/>
    <path d="M 109.37130737304688 329.5895080566406 C 105.3035888671875 328.23834228515625 106.94538879394531 339.17266845703125 101.92982482910156 346.6765441894531 C 103.6359634399414 353.47216796875 112.6429214477539 347.1060485839844 114.171142578125 352.3649597167969 C 115.06087493896484 337.56427001953125 115.35376739501953 329.0564270019531 109.37130737304688 329.5895080566406" stroke-width="0.0" fill="rgb(77, 70, 54)" opacity="0.99808216" stroke="rgb(0, 0, 0)" stroke-opacity="1.0" stroke-linecap="round" stroke-linejoin="round"/>
    <path d="M -1.7985390424728394 382.93017578125 C -0.1007450520992279 388.3333435058594 -1.6692836284637451 392.6666564941406 -5.107235431671143 398.5808410644531 C 7.940541744232178 396.115478515625 13.586252212524414 396.8430480957031 22.128562927246094 399.1202697753906 C 12.572027206420898 397.22119140625 19.40447998046875 393.87115478515625 14.519660949707031 388.38995361328125 C 11.835190773010254 385.87957763671875 1.5848991870880127 386.0048522949219 -1.7985390424728394 382.93017578125" stroke-width="0.0" fill="rgb(175, 157, 126)" opacity="0.99652386" stroke="rgb(0, 0, 0)" stroke-opacity="1.0" stroke-linecap="round" stroke-linejoin="round"/>
    <path d="M 318.45440673828125 398.9432067871094 C 324.2762451171875 381.21484375 313.66925048828125 394.1119689941406 309.0069580078125 388.1280517578125 C 298.0358581542969 385.6769714355469 276.223388671875 387.46051025390625 261.8562927246094 385.3060607910156 C 260.5628662109375 397.1158142089844 269.30462646484375 388.8985900878906 267.79541015625 404.1296081542969 C 289.7446594238281 409.3708801269531 294.77264404296875 393.4759826660156 318.45440673828125 398.9432067871094" stroke-width="0.0" fill="rgb(112, 93, 69)" opacity="0.95078516" stroke="rgb(0, 0, 0)" stroke-opacity="1.0" stroke-linecap="round" stroke-linejoin="round"/>
    <path d="M 274.7752990722656 359.0 C 275.00555419921875 365.805419921875 276.70721435546875 372.0864562988281 274.4747619628906 380.80810546875 C 287.9519958496094 379.24017333984375 298.33538818359375 385.5408630371094 304.9958190917969 381.84356689453125 C 307.75335693359375 376.748291015625 309.254638671875 370.0732116699219 311.07647705078125 363.9971008300781 C 296.6732482910156 359.7763977050781 291.5011291503906 357.7442626953125 274.7752990722656 359.0" stroke-width="0.0" fill="rgb(158, 136, 95)" opacity="0.99617666" stroke="rgb(0, 0, 0)" stroke-opacity="1.0" stroke-linecap="round" stroke-linejoin="round"/>
    <path d="M -6.269332408905029 397.3607177734375 C -5.466745853424072 401.63775634765625 -5.468029022216797 406.983642578125 -3.643918037414551 410.2869567871094 C 20.67294692993164 409.61273193359375 37.76720428466797 411.55462646484375 48.85676574707031 408.28875732421875 C 50.280399322509766 401.1502990722656 42.215972900390625 400.72625732421875 34.67274856567383 398.5528259277344 C 24.067041397094727 400.1353454589844 10.706988334655762 396.22698974609375 -6.269332408905029 397.3607177734375" stroke-width="0.0" fill="rgb(194, 163, 109)" opacity="1.0105231" stroke="rgb(0, 0, 0)" stroke-opacity="1.0" stroke-linecap="round" stroke-linejoin="round"/>
    <path d="M 83.0654525756836 317.10736083984375 C 79.45823669433594 321.855712890625 80.3148422241211 342.5585021972656 80.9425277709961 353.11468505859375 C 83.35248565673828 354.2433166503906 87.42581939697266 358.47613525390625 96.2491226196289 354.2613830566406 C 96.09585571289062 351.4482116699219 98.90106201171875 349.73883056640625 97.73171997070312 339.3950500488281 C 88.64598846435547 343.847900390625 96.9660415649414 321.1212463378906 83.0654525756836 317.10736083984375" stroke-width="0.0" fill="rgb(133, 109, 55)" opacity="0.9997217" stroke="rgb(0, 0, 0)" stroke-opacity="1.0" stroke-linecap="round" stroke-linejoin="round"/>
    <path d="M 158.93113708496094 499.385009765625 C 164.12322998046875 488.9606018066406 150.19142150878906 492.0898742675781 143.80255126953125 490.39288330078125 C 131.2998809814453 494.68798828125 120.2251205444336 493.3704833984375 119.9060287475586 503.8813171386719 C 135.97103881835938 506.0743408203125 142.99539184570312 497.1378479003906 158.93113708496094 499.385009765625" stroke-width="0.0" fill="rgb(144, 123, 76)" opacity="0.9985456" stroke="rgb(0, 0, 0)" stroke-opacity="1.0" stroke-linecap="round" stroke-linejoin="round"/>
    <path d="M 262.0345153808594 421.7071228027344 C 259.0389404296875 415.43292236328125 256.9719543457031 416.57733154296875 245.54745483398438 418.3546142578125 C 238.8413848876953 420.0072937011719 240.0904541015625 422.80145263671875 236.2981719970703 430.9339904785156 C 237.94105529785156 432.0352783203125 255.8834686279297 433.4710388183594 259.9194641113281 431.6573181152344 C 262.0497741699219 431.8359680175781 264.0295715332031 419.60772705078125 262.0345153808594 421.7071228027344" stroke-width="0.0" fill="rgb(87, 71, 52)" opacity="0.9289251" stroke="rgb(0, 0, 0)" stroke-opacity="1.0" stroke-linecap="round" stroke-linejoin="round"/>
    <path d="M 452.501953125 491.08282470703125 C 452.06036376953125 489.4900207519531 451.3605041503906 496.0907897949219 449.47198486328125 501.0108337402344 C 454.9970703125 505.30938720703125 460.1042175292969 504.83935546875 469.7463684082031 500.2416687011719 C 468.57781982421875 499.3796081542969 467.218017578125 490.4316711425781 464.522705078125 488.9806213378906 C 461.79736328125 483.2001953125 455.0907287597656 486.2240905761719 452.501953125 491.08282470703125" stroke-width="0.0" fill="rgb(149, 127, 92)" opacity="0.9997592" stroke="rgb(0, 0, 0)" stroke-opacity="1.0" stroke-linecap="round" stroke-linejoin="round"/>
    <path d="M 410.14154052734375 356.5103759765625 C 410.7035217285156 348.658935546875 416.2777404785156 368.2657165527344 411.7849426269531 361.3719177246094 C 417.7826232910156 374.21484375 419.8193054199219 391.0898132324219 408.6933288574219 390.2105712890625 C 407.888916015625 380.04364013671875 402.639404296875 363.5697021484375 410.14154052734375 356.5103759765625" stroke-width="0.0" fill="rgb(104, 87, 50)" opacity="0.9984701" stroke="rgb(0, 0, 0)" stroke-opacity="1.0" stroke-linecap="round" stroke-linejoin="round"/>
    <path d="M 90.7437515258789 405.1080322265625 C 97.97203826904297 408.6703186035156 113.07054138183594 410.6576843261719 126.39141082763672 409.4868469238281 C 126.86543273925781 402.02801513671875 118.31568908691406 400.093505859375 102.18325805664062 399.58905029296875 C 105.7696304321289 398.1104736328125 99.7756118774414 403.454833984375 90.7437515258789 405.1080322265625" stroke-width="0.0" fill="rgb(135, 115, 79)" opacity="0.99822646" stroke="rgb(0, 0, 0)" stroke-opacity="1.0" stroke-linecap="round" stroke-linejoin="round"/>
    <path d="M 130.82504272460938 396.4756774902344 C 130.01329040527344 402.1154479980469 134.88067626953125 397.6386413574219 130.293701171875 404.2516174316406 C 127.2234878540039 409.25250244140625 134.66468811035156 411.31134033203125 142.374755859375 406.49871826171875 C 146.72430419921875 402.3287658691406 140.73648071289062 399.8502502441406 148.45272827148438 395.8680419921875 C 144.42152404785156 392.4565734863281 130.7600860595703 390.680419921875 130.82504272460938 396.4756774902344" stroke-width="0.0" fill="rgb(150, 123, 74)" opacity="1.0014439" stroke="rgb(0, 0, 0)" stroke-opacity="1.0" stroke-linecap="round" stroke-linejoin="round"/>
    <path d="M 232.4870147705078 400.4470520019531 C 225.30691528320312 404.4082336425781 228.01397705078125 407.5788269042969 232.29656982421875 408.0573425292969 C 241.8089141845703 410.0521240234375 249.20513916015625 405.54345703125 260.5613098144531 405.68695068359375 C 258.3892822265625 397.438232421875 238.8284454345703 400.05291748046875 232.4870147705078 400.4470520019531" stroke-width="0.0" fill="rgb(146, 123, 81)" opacity="1.0009861" stroke="rgb(0, 0, 0)" stroke-opacity="1.0" stroke-linecap="round" stroke-linejoin="round"/>
    <path d="M 111.94570922851562 350.1238098144531 C 113.71623992919922 357.8228759765625 102.7130355834961 354.044677734375 101.94931030273438 364.3099670410156 C 102.87616729736328 365.7797546386719 113.53072357177734 367.8055419921875 119.41580200195312 363.51611328125 C 119.3225326538086 363.86041259765625 123.85050964355469 348.5324401855469 111.94570922851562 350.1238098144531" stroke-width="0.0" fill="rgb(122, 107, 72)" opacity="0.99876136" stroke="rgb(0, 0, 0)" stroke-opacity="1.0" stroke-linecap="round" stroke-linejoin="round"/>
    <path d="M 327.38372802734375 432.5813903808594 C 320.6877136230469 440.2968444824219 321.7008056640625 446.6475524902344 319.5848083496094 456.3752746582031 C 325.1620788574219 461.189453125 323.6914367675781 450.26727294921875 326.2705993652344 442.0102233886719 C 332.270751953125 445.67333984375 329.7371826171875 456.6639099121094 334.9881286621094 458.8562316894531 C 336.38848876953125 447.41851806640625 330.2615051269531 442.5464782714844 332.2857666015625 435.1019592285156 C 327.9998474121094 435.6443786621094 325.2273864746094 432.45953369140625 327.38372802734375 432.5813903808594" stroke-width="0.0" fill="rgb(82, 67, 57)" opacity="0.9870037" stroke="rgb(0, 0, 0)" stroke-opacity="1.0" stroke-linecap="round" stroke-linejoin="round"/>
    <path d="M 169.479736328125 406.9630126953125 C 172.47872924804688 411.8081970214844 182.31715393066406 409.68914794921875 192.58226013183594 410.0695495605469 C 199.03517150878906 403.7707214355469 184.56137084960938 402.2071838378906 175.92250061035156 400.7291259765625 C 169.54759216308594 401.2503356933594 173.73768615722656 400.3407287597656 169.479736328125 406.9630126953125" stroke-width="0.0" fill="rgb(130, 109, 72)" opacity="1.0001239" stroke="rgb(0, 0, 0)" stroke-opacity="1.0" stroke-linecap="round" stroke-linejoin="round"/>
    <path d="M 450.9520568847656 406.6580505371094 C 453.27655029296875 408.7568054199219 452.7737121582031 415.3686828613281 452.283203125 422.8365478515625 C 457.3250732421875 426.68292236328125 464.5588684082031 428.66473388671875 469.45751953125 433.1749267578125 C 476.6051025390625 433.8699035644531 487.79669189453125 431.6849670410156 489.6230163574219 434.4208068847656 C 501.41571044921875 434.01324462890625 503.6484069824219 430.9408264160156 506.48577880859375 421.3667297363281 C 504.77972412109375 411.2038269042969 500.2257995605469 407.99566650390625 503.5759582519531 405.61419677734375 C 481.8375244140625 402.4940490722656 458.8044128417969 401.073486328125 450.9520568847656 406.6580505371094" stroke-width="0.0" fill="rgb(76, 71, 53)" opacity="1.00948" stroke="rgb(0, 0, 0)" stroke-opacity="1.0" stroke-linecap="round" stroke-linejoin="round"/>
    <path d="M 349.0350341796875 349.63726806640625 C 345.54962158203125 361.46734619140625 339.53765869140625 371.302734375 344.5744934082031 387.7055969238281 C 355.62786865234375 386.1434020996094 345.2079772949219 400.4859619140625 362.8940124511719 396.3889465332031 C 361.39727783203125 401.23394775390625 363.3478088378906 382.39825439453125 361.0830993652344 370.676025390625 C 356.8648681640625 363.970947265625 352.79388427734375 356.71221923828125 349.0350341796875 349.63726806640625" stroke-width="0.0" fill="rgb(93, 80, 40)" opacity="0.99899685" stroke="rgb(0, 0, 0)" stroke-opacity="1.0" stroke-linecap="round" stroke-linejoin="round"/>
    <path d="M 486.09454345703125 340.2854309082031 C 478.1635437011719 349.16546630859375 485.9845886230469 367.59368896484375 481.1749267578125 382.5971374511719 C 483.4204406738281 387.9269714355469 485.9460144042969 392.8348388671875 494.8272399902344 388.5554504394531 C 495.02862548828125 393.3633728027344 496.986328125 382.41326904296875 497.1877136230469 376.6231689453125 C 495.2397766113281 355.7254943847656 491.3251037597656 355.52716064453125 486.09454345703125 340.2854309082031" stroke-width="0.0" fill="rgb(114, 96, 56)" opacity="0.9959394" stroke="rgb(0, 0, 0)" stroke-opacity="1.0" stroke-linecap="round" stroke-linejoin="round"/>
    <path d="M 261.8778381347656 388.8182678222656 C 262.09368896484375 397.81378173828125 285.5845031738281 392.05413818359375 293.8326721191406 399.5675048828125 C 304.2929992675781 397.96820068359375 322.7449645996094 401.18304443359375 319.73651123046875 392.98468017578125 C 318.4566955566406 387.0984191894531 304.1682434082031 398.53173828125 306.27099609375 386.87591552734375 C 274.39215087890625 388.1398010253906 264.0387268066406 382.7979736328125 261.8778381347656 388.8182678222656" stroke-width="0.0" fill="rgb(82, 72, 46)" opacity="1.0013719" stroke="rgb(0, 0, 0)" stroke-opacity="1.0" stroke-linecap="round" stroke-linejoin="round"/>
    <path d="M 345.22137451171875 340.1341857910156 C 333.2225646972656 345.8129577636719 335.3094787597656 350.8692321777344 332.759033203125 370.1289367675781 C 335.5766296386719 368.845458984375 330.98919677734375 378.3575439453125 339.29058837890625 382.4348449707031 C 345.6986389160156 377.77899169921875 342.3504333496094 361.065185546875 349.7792663574219 352.00665283203125 C 351.214111328125 346.8482971191406 346.70635986328125 344.8138122558594 345.22137451171875 340.1341857910156" stroke-width="0.0" fill="rgb(111, 91, 42)" opacity="1.0073818" stroke="rgb(0, 0, 0)" stroke-opacity="1.0" stroke-linecap="round" stroke-linejoin="round"/>
    <path d="M 453.75439453125 424.46844482421875 C 453.09576416015625 410.5888671875 454.7347412109375 404.9041442871094 448.5408020019531 404.7237548828125 C 441.4961242675781 405.8599853515625 427.964599609375 406.2166442871094 428.13958740234375 407.52764892578125 C 423.7198181152344 409.9727478027344 423.54388427734375 417.9093017578125 427.57391357421875 418.5991516113281 C 436.88714599609375 418.9924621582031 442.6051940917969 423.221923828125 453.75439453125 424.46844482421875" stroke-width="0.0" fill="rgb(80, 73, 47)" opacity="1.0214729" stroke="rgb(0, 0, 0)" stroke-opacity="1.0" stroke-linecap="round" stroke-linejoin="round"/>
    <path d="M 179.4600372314453 339.3619384765625 C 180.4650115966797 351.3670959472656 171.09242248535156 350.7827453613281 175.81809997558594 365.3556823730469 C 181.46128845214844 371.7357177734375 187.43360900878906 361.408935546875 188.94862365722656 356.02740478515625 C 189.6112060546875 351.1580810546875 186.961181640625 335.5801696777344 179.4600372314453 339.3619384765625" stroke-width="0.0" fill="rgb(141, 114, 64)" opacity="0.9704004" stroke="rgb(0, 0, 0)" stroke-opacity="1.0" stroke-linecap="round" stroke-linejoin="round"/>
    <path d="M 310.7179870605469 365.8412780761719 C 308.9076843261719 374.5707702636719 304.92987060546875 377.9871826171875 307.16796875 391.55706787109375 C 314.0688781738281 391.78436279296875 318.1532897949219 389.0321044921875 319.2565002441406 383.5445861816406 C 318.66357421875 377.38592529296875 318.8243103027344 362.5373229980469 310.7179870605469 365.8412780761719" stroke-width="0.0" fill="rgb(107, 91, 47)" opacity="0.989086" stroke="rgb(0, 0, 0)" stroke-opacity="1.0" stroke-linecap="round" stroke-linejoin="round"/>
    <path d="M 521.2030029296875 392.4471740722656 C 506.1188659667969 395.4828186035156 506.76531982421875 401.0412902832031 499.8938903808594 400.58941650390625 C 502.9382019042969 406.71783447265625 502.9801025390625 421.9793395996094 515.1339111328125 420.7054443359375 C 522.0713500976562 419.920166015625 522.3099365234375 411.2197570800781 521.2030029296875 392.4471740722656" stroke-width="0.0" fill="rgb(93, 86, 62)" opacity="0.99972874" stroke="rgb(0, 0, 0)" stroke-opacity="1.0" stroke-linecap="round" stroke-linejoin="round"/>
    <path d="M 262.72003173828125 385.6791687011719 C 259.2716064453125 393.0138854980469 265.86492919921875 392.8487548828125 273.7475891113281 395.5127258300781 C 287.1883239746094 392.3714294433594 292.76837158203125 401.54718017578125 301.8943786621094 397.28179931640625 C 303.4117431640625 390.07598876953125 304.8832702636719 387.4389953613281 300.49639892578125 386.9412841796875 C 284.5928955078125 387.5255126953125 270.05078125 385.7193298339844 262.72003173828125 385.6791687011719" stroke-width="0.0" fill="rgb(85, 77, 48)" opacity="0.99636006" stroke="rgb(0, 0, 0)" stroke-opacity="1.0" stroke-linecap="round" stroke-linejoin="round"/>
  </g>
</svg>
