<?xml version="1.0" ?>
<svg xmlns="http://www.w3.org/2000/svg" version="1.1" width="512" height="512">
  <defs/>
  <g>
    <path d="M -1.8263124227523804 -2.1175177097320557 C -1.0097947120666504 170.3333282470703 -0.20850831270217896 340.6666564941406 -0.051183100789785385 512.1018676757812 C 170.294921875 512.1323852539062 340.62353515625 512.15185546875 513.6487426757812 512.2032470703125 C 513.7092895507812 340.65057373046875 513.6539916992188 170.26113891601562 513.6145629882812 -2.125894784927368 C 340.6666564941406 -2.073245048522949 170.3333282470703 -2.0834531784057617 -1.8263124227523804 -2.1175177097320557" stroke-width="0.0" fill="rgb(174, 174, 174)" opacity="0.9601233" stroke="rgb(0, 0, 0)" stroke-opacity="1.0" stroke-linecap="round" stroke-linejoin="round"/>
    <path d="M 458.1881103515625 143.41668701171875 C 453.27679443359375 139.95811462402344 448.591064453125 137.16908264160156 439.2064208984375 132.57470703125 C 351.7317810058594 135.02105712890625 265.0480651855469 138.01588439941406 178.44996643066406 141.02069091796875 C 174.6827850341797 171.42605590820312 170.3173065185547 199.10137939453125 161.0155792236328 223.3535614013672 C 146.97647094726562 223.7492218017578 136.12918090820312 227.4243621826172 125.4044418334961 233.46890258789062 C 131.0836181640625 244.46177673339844 139.025146484375 252.19671630859375 146.79588317871094 260.15533447265625 C 149.314697265625 284.9638366699219 152.96380615234375 308.6133728027344 156.89764404296875 331.7073669433594 C 161.05043029785156 335.04852294921875 165.23512268066406 337.8313903808594 170.60902404785156 341.8490905761719 C 237.00079345703125 339.6581115722656 300.5396728515625 336.64849853515625 363.186767578125 336.32269287109375 C 395.3880310058594 338.4687194824219 425.4889221191406 342.2604064941406 456.4947509765625 345.54400634765625 C 459.7645263671875 336.248291015625 463.31451416015625 334.0807189941406 470.8695983886719 337.3374328613281 C 470.3651428222656 294.61761474609375 472.9413146972656 257.371826171875 478.28326416015625 220.3326416015625 C 474.13531494140625 209.84120178222656 468.5458984375 199.47325134277344 463.0718994140625 189.1614227294922 C 462.2221984863281 173.2592010498047 460.1402282714844 158.31094360351562 458.1881103515625 143.41668701171875" stroke-width="0.0" fill="rgb(173, 173, 173)" opacity="1.0029966" stroke="rgb(0, 0, 0)" stroke-opacity="1.0" stroke-linecap="round" stroke-linejoin="round"/>
    <path d="M -1.4766712188720703 97.9717788696289 C -2.0970935821533203 234.081787109375 -2.4839367866516113 371.6770324707031 -2.789642810821533 513.2586059570312 C 169.7921142578125 513.7349853515625 340.4398193359375 513.7634887695312 513.4306640625 513.6519165039062 C 513.1900634765625 481.728515625 512.3899536132812 453.89215087890625 511.3872985839844 429.13934326171875 C 507.2206726074219 434.6884460449219 501.1782531738281 440.0879211425781 491.5144348144531 440.6211242675781 C 418.1963806152344 444.0707702636719 347.2549743652344 450.5377197265625 273.05523681640625 449.5021667480469 C 247.3178253173828 448.97698974609375 223.24839782714844 448.45416259765625 203.1612091064453 446.1121520996094 C 157.5870819091797 440.304443359375 117.21448516845703 431.83856201171875 78.83987426757812 422.0514221191406 C 74.08333587646484 413.9798278808594 69.54219818115234 406.817138671875 70.79877471923828 394.7283020019531 C 67.53164672851562 313.2872314453125 64.03958129882812 232.4564971923828 60.37499237060547 151.8063201904297 C 52.14128494262695 137.9352264404297 42.48783493041992 125.59071350097656 32.63694381713867 112.93346405029297 C 25.001440048217773 105.92137145996094 14.580283164978027 101.55371856689453 -1.4766712188720703 97.9717788696289" stroke-width="0.0" fill="rgb(76, 76, 76)" opacity="0.99342674" stroke="rgb(0, 0, 0)" stroke-opacity="1.0" stroke-linecap="round" stroke-linejoin="round"/>
    <path d="M 514.5052490234375 95.00625610351562 C 502.7271728515625 104.1819076538086 494.9393615722656 111.70881652832031 488.08721923828125 119.92938232421875 C 489.86724853515625 188.7315673828125 488.09930419921875 254.0332489013672 483.1552734375 318.84454345703125 C 481.182861328125 346.29071044921875 482.8877868652344 372.6827697753906 487.5226745605469 401.36444091796875 C 490.7594299316406 407.053955078125 498.1885986328125 411.26171875 512.8185424804688 415.1924133300781 C 513.4671630859375 309.1653747558594 513.9813842773438 204.0580596923828 514.5052490234375 95.00625610351562" stroke-width="0.0" fill="rgb(99, 99, 99)" opacity="0.97073054" stroke="rgb(0, 0, 0)" stroke-opacity="1.0" stroke-linecap="round" stroke-linejoin="round"/>
    <path d="M 312.5663146972656 78.0650634765625 C 308.76019287109375 85.79154205322266 305.8270263671875 92.84040832519531 303.5588073730469 100.91240692138672 C 302.9882507324219 110.27972412109375 302.6880798339844 120.55400085449219 304.18743896484375 132.7406463623047 C 320.5884094238281 132.36231994628906 336.55609130859375 132.5912628173828 354.7167663574219 131.7382049560547 C 352.5836181640625 109.47795104980469 350.197021484375 92.55206298828125 347.3386535644531 75.81761932373047 C 332.2781677246094 76.65918731689453 322.5539245605469 76.64022064208984 312.5663146972656 78.0650634765625" stroke-width="0.0" fill="rgb(195, 195, 195)" opacity="1.0087194" stroke="rgb(0, 0, 0)" stroke-opacity="1.0" stroke-linecap="round" stroke-linejoin="round"/>
    <path d="M 278.75958251953125 332.4504089355469 C 233.08206176757812 335.4064636230469 193.64414978027344 338.6767578125 157.2968292236328 342.3052978515625 C 156.6361541748047 351.1222839355469 156.1131591796875 356.6495056152344 157.42626953125 364.44793701171875 C 164.8223114013672 370.6750793457031 166.80857849121094 383.0144348144531 173.66354370117188 393.4577941894531 C 176.3308868408203 400.7613525390625 176.1048583984375 412.9480895996094 177.53956604003906 424.3326416015625 C 182.4083709716797 430.5894775390625 187.03289794921875 436.9659423828125 192.3316650390625 444.9634094238281 C 199.70005798339844 444.2398376464844 202.2602081298828 438.63134765625 208.36639404296875 438.32427978515625 C 212.79115295410156 443.84735107421875 217.226806640625 448.9799499511719 225.12704467773438 452.67169189453125 C 228.9620819091797 448.5830993652344 232.29852294921875 441.635986328125 237.30389404296875 436.458251953125 C 241.0199737548828 438.40447998046875 245.40623474121094 440.22149658203125 251.6261749267578 443.21710205078125 C 255.17750549316406 439.57696533203125 258.251953125 435.04510498046875 260.1759338378906 431.5428771972656 C 263.47515869140625 435.8795166015625 268.4288635253906 438.7999572753906 280.71875 440.70855712890625 C 280.01751708984375 401.0156555175781 279.3675231933594 366.6110534667969 278.75958251953125 332.4504089355469" stroke-width="0.0" fill="rgb(142, 142, 142)" opacity="1.0156401" stroke="rgb(0, 0, 0)" stroke-opacity="1.0" stroke-linecap="round" stroke-linejoin="round"/>
    <path d="M 350.4967956542969 416.0490417480469 C 355.4076232910156 436.7682189941406 357.37799072265625 453.1768493652344 359.6128845214844 467.91961669921875 C 365.1006774902344 478.9720458984375 370.7715148925781 489.962646484375 376.4085388183594 500.552490234375 C 377.8592224121094 500.252197265625 383.8432922363281 499.59136962890625 387.366943359375 498.5224609375 C 395.7002868652344 480.0626220703125 404.0428771972656 461.4051513671875 412.4107666015625 446.19189453125 C 441.0644836425781 446.75238037109375 464.5856628417969 445.59320068359375 484.1509094238281 444.2109069824219 C 492.0390625 443.9945068359375 500.614990234375 443.5611572265625 508.1398010253906 445.66943359375 C 509.5848083496094 451.6269836425781 508.6915283203125 458.2364196777344 514.25341796875 463.3538513183594 C 514.3291015625 445.9609680175781 514.3196411132812 429.95208740234375 514.197265625 411.5287170410156 C 465.356201171875 410.64093017578125 417.33837890625 410.4681701660156 370.6767883300781 411.29241943359375 C 360.62884521484375 411.304443359375 355.58551025390625 413.1511535644531 350.4967956542969 416.0490417480469" stroke-width="0.0" fill="rgb(133, 133, 133)" opacity="0.9992436" stroke="rgb(0, 0, 0)" stroke-opacity="1.0" stroke-linecap="round" stroke-linejoin="round"/>
    <path d="M 274.61846923828125 242.3778533935547 C 276.5819396972656 312.8041076660156 276.609375 387.5 279.4949645996094 460.09698486328125 C 284.4606628417969 473.02276611328125 282.1282653808594 486.6195068359375 279.8367004394531 497.24517822265625 C 281.727783203125 498.75830078125 283.99298095703125 503.5357360839844 279.9613952636719 507.8763427734375 C 281.3838195800781 501.0515441894531 283.3720703125 494.05206298828125 285.61456298828125 487.31500244140625 C 286.44134521484375 404.50640869140625 279.77618408203125 323.0461730957031 274.61846923828125 242.3778533935547" stroke-width="0.0" fill="rgb(72, 72, 72)" opacity="1.0173863" stroke="rgb(0, 0, 0)" stroke-opacity="1.0" stroke-linecap="round" stroke-linejoin="round"/>
    <path d="M 152.4490966796875 268.521240234375 C 142.8383026123047 273.1202392578125 140.72572326660156 280.1576232910156 143.16851806640625 290.2535400390625 C 117.66549682617188 290.0011901855469 94.2327651977539 289.4091491699219 75.43910217285156 289.71337890625 C 71.4197006225586 324.2610778808594 69.26870727539062 354.19873046875 70.59778594970703 383.9255676269531 C 74.96061706542969 389.2552490234375 75.09676361083984 395.41064453125 75.5635757446289 401.2792053222656 C 87.06156921386719 405.68267822265625 95.16345977783203 412.968994140625 99.91436004638672 425.19744873046875 C 127.02025604248047 424.4228820800781 150.69932556152344 423.13482666015625 173.41229248046875 421.82305908203125 C 173.02777099609375 406.1250305175781 172.03277587890625 396.97796630859375 169.97657775878906 388.5237731933594 C 165.9620819091797 385.39178466796875 161.84225463867188 382.8721618652344 156.8509063720703 383.0832214355469 C 155.4043426513672 383.4177551269531 152.9161834716797 383.4980163574219 149.07986450195312 382.84326171875 C 149.93011474609375 380.7585754394531 151.31631469726562 378.44622802734375 152.1202392578125 377.9178771972656 C 148.07882690429688 366.8409729003906 143.77395629882812 355.2221984863281 139.63824462890625 340.64605712890625 C 141.46925354003906 318.6817626953125 146.70892333984375 296.0458068847656 152.4490966796875 268.521240234375" stroke-width="0.0" fill="rgb(224, 224, 224)" opacity="1.002524" stroke="rgb(0, 0, 0)" stroke-opacity="1.0" stroke-linecap="round" stroke-linejoin="round"/>
    <path d="M 346.9463806152344 404.234619140625 C 339.88922119140625 406.8594970703125 332.6430969238281 408.9564208984375 321.4970397949219 408.9317321777344 C 316.6869201660156 413.87890625 312.80462646484375 421.9176330566406 311.35546875 430.89410400390625 C 316.8706970214844 428.2675476074219 323.4776916503906 426.71368408203125 333.99517822265625 427.6365661621094 C 335.3874816894531 435.36322021484375 335.8203125 443.5456237792969 338.30755615234375 448.3033142089844 C 343.7358093261719 450.63555908203125 349.0677490234375 453.00091552734375 347.4487609863281 455.31768798828125 C 353.0310974121094 444.6897888183594 355.816162109375 430.80902099609375 354.4393310546875 413.4837646484375 C 351.54498291015625 410.1980285644531 348.6251220703125 404.7141418457031 346.9463806152344 404.234619140625" stroke-width="0.0" fill="rgb(114, 114, 114)" opacity="1.0089806" stroke="rgb(0, 0, 0)" stroke-opacity="1.0" stroke-linecap="round" stroke-linejoin="round"/>
    <path d="M 461.4169006347656 355.17010498046875 C 460.18133544921875 368.27716064453125 459.1037902832031 379.8404846191406 454.83233642578125 391.8776550292969 C 461.43292236328125 397.2448425292969 469.822998046875 400.0995178222656 477.4079895019531 410.39373779296875 C 481.9314880371094 401.5884704589844 483.5575256347656 391.28656005859375 491.04486083984375 384.630615234375 C 491.9156494140625 378.69482421875 491.3949890136719 369.5841369628906 491.4632873535156 359.6208801269531 C 483.23724365234375 357.7388610839844 473.758056640625 355.5834655761719 461.4169006347656 355.17010498046875" stroke-width="0.0" fill="rgb(139, 139, 139)" opacity="0.9869246" stroke="rgb(0, 0, 0)" stroke-opacity="1.0" stroke-linecap="round" stroke-linejoin="round"/>
    <path d="M 316.50164794921875 415.5824890136719 C 306.3997497558594 419.3093566894531 298.8346252441406 423.6746826171875 292.696533203125 428.9423828125 C 292.0394592285156 435.9472351074219 291.1926574707031 443.806884765625 291.7189636230469 449.8172912597656 C 300.0491027832031 448.8606262207031 306.91064453125 449.1152648925781 314.4071960449219 449.5711975097656 C 313.9015808105469 440.1419372558594 312.4391784667969 427.3157043457031 316.50164794921875 415.5824890136719" stroke-width="0.0" fill="rgb(118, 118, 118)" opacity="1.0131209" stroke="rgb(0, 0, 0)" stroke-opacity="1.0" stroke-linecap="round" stroke-linejoin="round"/>
    <path d="M 140.57701110839844 382.2218933105469 C 147.853759765625 382.230224609375 158.33045959472656 384.7815856933594 165.6612548828125 384.26983642578125 C 170.74339294433594 377.0140686035156 176.05690002441406 372.6585388183594 181.28729248046875 368.95147705078125 C 177.89349365234375 371.8865661621094 174.15452575683594 368.2193908691406 170.6141357421875 364.80609130859375 C 169.57908630371094 365.699951171875 162.3522491455078 366.6357116699219 155.0620880126953 365.5522766113281 C 151.11598205566406 361.11688232421875 148.3303680419922 359.21185302734375 144.4197540283203 357.7056884765625 C 145.49203491210938 361.0807189941406 145.7645721435547 364.6605529785156 151.3000030517578 369.4648742675781 C 147.94607543945312 375.7331237792969 144.28271484375 382.1011657714844 140.57701110839844 382.2218933105469" stroke-width="0.0" fill="rgb(164, 164, 164)" opacity="0.97970957" stroke="rgb(0, 0, 0)" stroke-opacity="1.0" stroke-linecap="round" stroke-linejoin="round"/>
    <path d="M 472.9223937988281 254.58447265625 C 475.0682678222656 274.9584655761719 481.5074157714844 294.0238952636719 483.8687744140625 314.7235412597656 C 485.7222595214844 315.03253173828125 487.61785888671875 315.7568054199219 484.3583984375 316.4946594238281 C 484.4331970214844 297.33056640625 484.698974609375 275.6694641113281 484.9172058105469 251.97369384765625 C 483.5990905761719 251.21141052246094 478.2532958984375 251.11685180664062 472.9223937988281 254.58447265625" stroke-width="0.0" fill="rgb(93, 93, 93)" opacity="1.0007513" stroke="rgb(0, 0, 0)" stroke-opacity="1.0" stroke-linecap="round" stroke-linejoin="round"/>
    <path d="M 415.615478515625 347.2428894042969 C 404.83514404296875 359.32269287109375 394.7447204589844 371.915771484375 383.0514221191406 386.0578918457031 C 399.67449951171875 386.10223388671875 413.7664794921875 385.382568359375 430.0700988769531 382.7110900878906 C 424.83831787109375 375.99945068359375 418.8020935058594 374.0267639160156 411.2232360839844 372.6669006347656 C 410.2456359863281 364.29034423828125 413.7296447753906 356.8223571777344 415.615478515625 347.2428894042969" stroke-width="0.0" fill="rgb(109, 109, 109)" opacity="0.9991143" stroke="rgb(0, 0, 0)" stroke-opacity="1.0" stroke-linecap="round" stroke-linejoin="round"/>
    <path d="M 444.18853759765625 123.11749267578125 C 444.8846130371094 134.87332153320312 446.4414367675781 141.5766143798828 448.8809814453125 147.83041381835938 C 453.9090881347656 150.6079864501953 458.7101745605469 152.7320098876953 469.2651062011719 153.9597625732422 C 470.1050109863281 144.3437957763672 469.37347412109375 140.2137908935547 466.6822204589844 136.52203369140625 C 461.02691650390625 131.49850463867188 455.8169860839844 126.31085968017578 444.18853759765625 123.11749267578125" stroke-width="0.0" fill="rgb(181, 181, 181)" opacity="1.0012002" stroke="rgb(0, 0, 0)" stroke-opacity="1.0" stroke-linecap="round" stroke-linejoin="round"/>
    <path d="M 3.107640027999878 424.14508056640625 C 3.1416213512420654 451.00042724609375 3.1405599117279053 481.0027770996094 3.083536148071289 511.6777038574219 C 169.80850219726562 512.4710083007812 340.0684509277344 512.9606323242188 512.891357421875 513.2463989257812 C 513.14404296875 486.2189636230469 513.3178100585938 461.2622375488281 513.4180297851562 436.6588439941406 C 508.0517578125 437.07025146484375 506.1348876953125 438.4593505859375 506.96197509765625 442.3053283691406 C 497.6100769042969 439.2022399902344 486.8143615722656 439.0640869140625 475.23577880859375 436.0858154296875 C 455.0447692871094 437.9366149902344 435.4366760253906 441.59637451171875 417.2633056640625 448.17620849609375 C 353.1164855957031 451.12451171875 287.0843811035156 447.80419921875 220.5599822998047 449.4132995605469 C 189.90029907226562 446.13800048828125 158.33203125 441.65948486328125 127.06016540527344 437.01470947265625 C 107.4474105834961 432.83282470703125 90.51959228515625 425.771728515625 75.25975036621094 417.8882141113281 C 66.80964660644531 423.9067077636719 59.13650131225586 426.248046875 50.670082092285156 429.41961669921875 C 32.21167755126953 427.505126953125 15.548280715942383 425.8300476074219 3.107640027999878 424.14508056640625" stroke-width="0.0" fill="rgb(83, 83, 83)" opacity="0.9965744" stroke="rgb(0, 0, 0)" stroke-opacity="1.0" stroke-linecap="round" stroke-linejoin="round"/>
    <path d="M -0.9019431471824646 96.1036376953125 C -2.8238613605499268 234.86447143554688 -3.012943744659424 373.1710510253906 -2.6837480068206787 514.2172241210938 C 26.660831451416016 514.2490234375 53.3270263671875 514.2919311523438 83.37952423095703 514.288330078125 C 78.21754455566406 494.1822204589844 79.67680358886719 479.5918273925781 84.19602966308594 464.87225341796875 C 81.01114654541016 441.84185791015625 71.2263412475586 421.28887939453125 71.81657409667969 391.4920654296875 C 68.99504852294922 310.1636047363281 65.2725601196289 229.86399841308594 61.97744369506836 148.9029541015625 C 51.096439361572266 134.26190185546875 39.78984451293945 119.90592193603516 28.24534034729004 105.5974349975586 C 20.507198333740234 101.29609680175781 11.74963665008545 98.14537811279297 -0.9019431471824646 96.1036376953125" stroke-width="0.0" fill="rgb(85, 85, 85)" opacity="0.9736723" stroke="rgb(0, 0, 0)" stroke-opacity="1.0" stroke-linecap="round" stroke-linejoin="round"/>
    <path d="M 457.57098388671875 147.12057495117188 C 453.449951171875 144.29554748535156 451.1413269042969 141.20953369140625 448.69879150390625 138.06895446777344 C 437.3719787597656 135.69166564941406 424.0733947753906 135.58998107910156 408.89447021484375 132.8033905029297 C 334.2935485839844 133.52297973632812 259.4441833496094 136.29278564453125 186.19615173339844 139.7554168701172 C 182.23973083496094 143.9423065185547 178.1730499267578 146.52664184570312 176.40948486328125 149.41065979003906 C 173.7066650390625 177.39161682128906 169.9200897216797 202.15162658691406 165.4084014892578 226.83328247070312 C 265.47357177734375 223.60891723632812 365.5892333984375 220.40127563476562 465.3311767578125 216.9484405517578 C 460.1627502441406 211.71102905273438 457.51568603515625 211.7028350830078 458.5783996582031 207.77151489257812 C 457.8757019042969 188.890869140625 457.572265625 168.3846435546875 457.57098388671875 147.12057495117188" stroke-width="0.0" fill="rgb(191, 191, 191)" opacity="1.0365994" stroke="rgb(0, 0, 0)" stroke-opacity="1.0" stroke-linecap="round" stroke-linejoin="round"/>
    <path d="M 458.2235107421875 217.889892578125 C 366.42620849609375 218.45986938476562 277.2205505371094 219.79759216308594 187.62022399902344 222.07904052734375 C 169.28610229492188 223.4224090576172 151.70901489257812 226.1734161376953 134.57412719726562 229.1472625732422 C 142.34616088867188 238.528076171875 150.44117736816406 239.79005432128906 161.22511291503906 238.21861267089844 C 261.9266662597656 235.89462280273438 361.47662353515625 233.49539184570312 460.0849304199219 230.7331085205078 C 460.9482421875 227.75906372070312 461.216552734375 225.92654418945312 458.2235107421875 217.889892578125" stroke-width="0.0" fill="rgb(75, 75, 75)" opacity="1.0047761" stroke="rgb(0, 0, 0)" stroke-opacity="1.0" stroke-linecap="round" stroke-linejoin="round"/>
    <path d="M 513.7297973632812 92.45133972167969 C 505.81439208984375 101.5838851928711 497.6532897949219 107.7707290649414 487.12823486328125 111.71488189697266 C 486.8662414550781 162.99319458007812 488.1700134277344 212.50135803222656 490.4234313964844 259.83740234375 C 496.244873046875 268.0591125488281 499.0788269042969 277.6246032714844 502.1564636230469 286.8901062011719 C 503.8493957519531 287.79296875 504.0069274902344 291.37493896484375 503.5829772949219 295.18975830078125 C 503.8929748535156 295.5910949707031 506.71099853515625 298.4321594238281 514.3173217773438 302.13031005859375 C 514.228271484375 229.9796600341797 513.9324951171875 160.99221801757812 513.7297973632812 92.45133972167969" stroke-width="0.0" fill="rgb(98, 98, 98)" opacity="0.98185897" stroke="rgb(0, 0, 0)" stroke-opacity="1.0" stroke-linecap="round" stroke-linejoin="round"/>
    <path d="M 353.5580749511719 413.05560302734375 C 355.4522705078125 424.4723205566406 358.0382385253906 430.7540283203125 360.9463195800781 440.6246032714844 C 402.5148620605469 442.2183837890625 446.540771484375 443.4217529296875 492.8025817871094 443.0082702636719 C 497.7191467285156 441.03240966796875 502.141845703125 439.56658935546875 506.18023681640625 436.7180480957031 C 505.3393859863281 438.2493591308594 506.88848876953125 440.4327087402344 514.0281372070312 441.6475830078125 C 513.5211791992188 430.9540710449219 512.8515625 422.4822998046875 513.1416625976562 412.3309631347656 C 470.2596130371094 410.55316162109375 428.4004211425781 409.12615966796875 387.1359558105469 410.2719421386719 C 373.5455322265625 409.8299865722656 363.2873229980469 410.59564208984375 353.5580749511719 413.05560302734375" stroke-width="0.0" fill="rgb(152, 152, 152)" opacity="0.97250646" stroke="rgb(0, 0, 0)" stroke-opacity="1.0" stroke-linecap="round" stroke-linejoin="round"/>
    <path d="M 312.86822509765625 77.16285705566406 C 311.90667724609375 90.18446350097656 311.45794677734375 106.1714096069336 311.56890869140625 126.08528900146484 C 322.7650146484375 126.81197357177734 334.37255859375 126.44287109375 349.9636535644531 126.19305419921875 C 350.228759765625 107.57588958740234 349.94049072265625 92.3387680053711 347.745849609375 75.98582458496094 C 338.5833740234375 74.45993041992188 328.46881103515625 74.11095428466797 312.86822509765625 77.16285705566406" stroke-width="0.0" fill="rgb(174, 174, 174)" opacity="1.0078671" stroke="rgb(0, 0, 0)" stroke-opacity="1.0" stroke-linecap="round" stroke-linejoin="round"/>
    <path d="M 271.99871826171875 241.57730102539062 C 275.86572265625 240.4921417236328 276.2326354980469 242.1566925048828 278.1497802734375 242.26902770996094 C 281.32440185546875 308.7354736328125 284.3678894042969 376.53875732421875 283.6968078613281 451.1455078125 C 276.1298522949219 382.3042297363281 273.85528564453125 312.3796081542969 271.99871826171875 241.57730102539062" stroke-width="0.0" fill="rgb(71, 71, 71)" opacity="0.9934947" stroke="rgb(0, 0, 0)" stroke-opacity="1.0" stroke-linecap="round" stroke-linejoin="round"/>
    <path d="M 480.160888671875 323.4070129394531 C 468.0924987792969 311.8268127441406 455.296875 305.6167907714844 442.4627990722656 304.58331298828125 C 385.4172668457031 303.558837890625 332.83160400390625 304.7517395019531 280.44061279296875 306.2864685058594 C 279.0987243652344 310.7687072753906 279.44586181640625 312.8575134277344 282.4034423828125 314.83184814453125 C 335.4538269042969 313.5089111328125 386.076171875 311.8111877441406 434.699951171875 309.8267822265625 C 447.2612609863281 314.53631591796875 460.2267761230469 320.3206787109375 480.160888671875 323.4070129394531" stroke-width="0.0" fill="rgb(132, 132, 132)" opacity="0.99228436" stroke="rgb(0, 0, 0)" stroke-opacity="1.0" stroke-linecap="round" stroke-linejoin="round"/>
    <path d="M 272.130859375 305.0894470214844 C 227.41688537597656 306.61114501953125 184.57550048828125 308.7855224609375 141.82608032226562 313.01708984375 C 186.38523864746094 318.4947204589844 228.56822204589844 317.6235656738281 271.58856201171875 315.30987548828125 C 273.92266845703125 313.7988586425781 274.9747314453125 311.8227844238281 272.130859375 305.0894470214844" stroke-width="0.0" fill="rgb(139, 139, 139)" opacity="1.0021416" stroke="rgb(0, 0, 0)" stroke-opacity="1.0" stroke-linecap="round" stroke-linejoin="round"/>
    <path d="M 271.38232421875 284.13751220703125 C 227.96295166015625 285.828369140625 186.57569885253906 288.3582458496094 145.334228515625 297.8768005371094 C 192.93528747558594 297.80615234375 233.691162109375 296.40093994140625 274.34539794921875 295.18048095703125 C 274.2989807128906 289.8216552734375 274.9124755859375 287.5538635253906 271.38232421875 284.13751220703125" stroke-width="0.0" fill="rgb(135, 135, 135)" opacity="0.9997427" stroke="rgb(0, 0, 0)" stroke-opacity="1.0" stroke-linecap="round" stroke-linejoin="round"/>
    <path d="M 338.6076354980469 413.67041015625 C 335.692138671875 423.63018798828125 334.0277404785156 437.3125305175781 332.4704284667969 454.3581237792969 C 336.5665588378906 457.4804382324219 342.5637512207031 460.11639404296875 354.72503662109375 462.91412353515625 C 355.6874084472656 447.75616455078125 355.1675109863281 432.02215576171875 356.04986572265625 414.6036071777344 C 352.2360534667969 413.4940185546875 347.393798828125 413.83624267578125 338.6076354980469 413.67041015625" stroke-width="0.0" fill="rgb(136, 136, 136)" opacity="0.99326813" stroke="rgb(0, 0, 0)" stroke-opacity="1.0" stroke-linecap="round" stroke-linejoin="round"/>
    <path d="M 513.1726684570312 385.9487609863281 C 503.7760925292969 388.1300964355469 494.39190673828125 389.93389892578125 484.6484680175781 391.4106140136719 C 483.1473083496094 397.6266174316406 480.5565185546875 402.38165283203125 478.2282409667969 409.3718566894531 C 489.8144226074219 409.4915466308594 500.5577087402344 411.0424499511719 512.6638793945312 414.3462219238281 C 513.5511474609375 403.81396484375 513.4480590820312 393.98052978515625 513.1726684570312 385.9487609863281" stroke-width="0.0" fill="rgb(65, 65, 65)" opacity="0.9914439" stroke="rgb(0, 0, 0)" stroke-opacity="1.0" stroke-linecap="round" stroke-linejoin="round"/>
    <path d="M 504.43719482421875 273.08697509765625 C 501.5676574707031 287.2454528808594 501.0887756347656 305.4577941894531 502.9804382324219 327.5621643066406 C 500.4303894042969 329.2373046875 502.5152282714844 330.83935546875 510.80816650390625 332.7159423828125 C 512.0698852539062 312.7422790527344 509.09161376953125 291.8330078125 507.44622802734375 275.4676208496094 C 506.4500427246094 274.971435546875 504.08843994140625 273.9756774902344 504.43719482421875 273.08697509765625" stroke-width="0.0" fill="rgb(40, 40, 40)" opacity="1.0004203" stroke="rgb(0, 0, 0)" stroke-opacity="1.0" stroke-linecap="round" stroke-linejoin="round"/>
    <path d="M 147.47515869140625 365.0606689453125 C 156.17076110839844 373.4765930175781 164.81324768066406 383.4830627441406 176.54209899902344 393.294189453125 C 181.21029663085938 386.1285705566406 181.92515563964844 377.4737243652344 182.6177520751953 363.6725158691406 C 173.16000366210938 361.6084289550781 162.06948852539062 361.4261779785156 147.47515869140625 365.0606689453125" stroke-width="0.0" fill="rgb(140, 140, 140)" opacity="0.9974481" stroke="rgb(0, 0, 0)" stroke-opacity="1.0" stroke-linecap="round" stroke-linejoin="round"/>
    <path d="M 338.9936828613281 404.3750915527344 C 333.6863098144531 407.5746154785156 332.2934265136719 409.8238220214844 330.64544677734375 411.1371154785156 C 327.5486755371094 409.7503662109375 326.3134765625 407.2730712890625 327.31109619140625 405.90570068359375 C 318.1911315917969 411.4916076660156 313.2751770019531 419.36724853515625 309.2550964355469 433.4894714355469 C 319.7091979980469 428.9633483886719 325.5946960449219 426.8773193359375 338.3150329589844 429.01788330078125 C 339.0889892578125 422.72357177734375 339.4508972167969 415.3981018066406 338.9936828613281 404.3750915527344" stroke-width="0.0" fill="rgb(79, 79, 79)" opacity="0.99876034" stroke="rgb(0, 0, 0)" stroke-opacity="1.0" stroke-linecap="round" stroke-linejoin="round"/>
    <path d="M 177.68060302734375 403.6095275878906 C 175.84495544433594 409.4013977050781 178.91229248046875 417.1695251464844 178.2366943359375 423.30841064453125 C 183.8218994140625 432.5047912597656 189.82972717285156 441.82818603515625 196.3961181640625 451.5763244628906 C 199.71653747558594 450.11956787109375 199.8279266357422 446.8297424316406 199.3606414794922 442.8290710449219 C 200.29013061523438 438.9952697753906 204.48263549804688 437.88531494140625 211.34715270996094 438.6121826171875 C 214.5204620361328 440.5137634277344 216.19473266601562 446.3265686035156 214.131591796875 456.50604248046875 C 223.66294860839844 456.9248046875 229.0631561279297 456.85015869140625 234.13272094726562 451.27630615234375 C 216.53953552246094 434.1270751953125 198.4130859375 417.9569396972656 177.68060302734375 403.6095275878906" stroke-width="0.0" fill="rgb(212, 212, 212)" opacity="1.0061415" stroke="rgb(0, 0, 0)" stroke-opacity="1.0" stroke-linecap="round" stroke-linejoin="round"/>
    <path d="M 316.1319274902344 414.9877014160156 C 307.5018005371094 418.42425537109375 300.8935241699219 422.83758544921875 294.6263732910156 427.2642517089844 C 294.0648498535156 435.14990234375 293.587158203125 443.19622802734375 293.8629150390625 451.5478515625 C 301.45416259765625 447.80657958984375 306.2708740234375 443.9458312988281 312.3658752441406 440.3401794433594 C 313.4317932128906 432.2691955566406 312.1675109863281 427.9764099121094 309.88592529296875 424.04608154296875 C 311.7052917480469 423.3987121582031 313.98846435546875 424.2459411621094 317.5458984375 425.9167785644531 C 317.8772277832031 420.8468322753906 318.5000915527344 417.8974914550781 316.1319274902344 414.9877014160156" stroke-width="0.0" fill="rgb(139, 139, 139)" opacity="0.99647826" stroke="rgb(0, 0, 0)" stroke-opacity="1.0" stroke-linecap="round" stroke-linejoin="round"/>
    <path d="M 513.6956176757812 441.7950744628906 C 495.5047912597656 439.4300842285156 477.8084411621094 437.669921875 460.1778564453125 441.0464172363281 C 418.5929870605469 447.1951599121094 375.6341857910156 450.6208801269531 330.8260498046875 453.44793701171875 C 318.38751220703125 452.4237365722656 311.3072204589844 458.5545959472656 303.7671203613281 459.4909362792969 C 298.31182861328125 457.1433410644531 290.9324951171875 458.38775634765625 290.6487731933594 457.110595703125 C 288.4244384765625 458.9641418457031 281.8834228515625 458.034912109375 279.4595947265625 455.696533203125 C 245.94949340820312 454.6579895019531 209.90765380859375 457.357177734375 175.50668334960938 452.7277526855469 C 161.36495971679688 454.9403076171875 147.5067138671875 460.6490478515625 135.0956573486328 468.3144226074219 C 132.42152404785156 481.1618957519531 131.0227508544922 495.0263977050781 129.53335571289062 513.7545776367188 C 258.50360107421875 513.7628173828125 384.9998779296875 513.6826171875 512.8585205078125 513.46484375 C 513.1051635742188 489.2630310058594 513.1719360351562 467.2634582519531 513.6956176757812 441.7950744628906" stroke-width="0.0" fill="rgb(68, 68, 68)" opacity="0.9659315" stroke="rgb(0, 0, 0)" stroke-opacity="1.0" stroke-linecap="round" stroke-linejoin="round"/>
    <path d="M 125.65973663330078 461.2762451171875 C 114.01094055175781 438.9505920410156 95.67142486572266 422.3567810058594 76.21924591064453 407.7669372558594 C 66.91301727294922 416.3983154296875 56.519779205322266 420.134033203125 45.15235900878906 420.1842346191406 C 31.061073303222656 418.59228515625 16.862905502319336 419.4701843261719 -1.4673677682876587 422.19073486328125 C -2.057494640350342 447.9982604980469 -2.441671371459961 478.630859375 -2.870067596435547 512.740234375 C 41.445953369140625 513.959716796875 84.56998443603516 514.2399291992188 129.46971130371094 514.4317016601562 C 125.31869506835938 493.4449462890625 125.5094985961914 476.13970947265625 125.65973663330078 461.2762451171875" stroke-width="0.0" fill="rgb(104, 104, 104)" opacity="1.014522" stroke="rgb(0, 0, 0)" stroke-opacity="1.0" stroke-linecap="round" stroke-linejoin="round"/>
    <path d="M 43.545448303222656 135.0894775390625 C 43.09064865112305 223.1944580078125 43.34428787231445 310.781982421875 45.18535614013672 401.0791015625 C 44.435970306396484 406.8359375 48.4186897277832 411.1794738769531 53.3582649230957 414.7306213378906 C 64.00858306884766 412.4584655761719 68.72927856445312 409.5600891113281 69.67233276367188 406.55914306640625 C 68.96879577636719 365.94732666015625 69.31475830078125 328.8865051269531 70.97388458251953 288.6020812988281 C 66.10797119140625 286.48760986328125 65.37378692626953 280.6118469238281 65.19225311279297 273.8086242675781 C 64.08431243896484 233.018310546875 63.1150016784668 191.4871063232422 62.545658111572266 149.44668579101562 C 60.33375549316406 145.39688110351562 58.046875 141.3455352783203 55.456092834472656 137.97433471679688 C 51.38410186767578 136.5813446044922 47.6343994140625 135.32798767089844 43.545448303222656 135.0894775390625" stroke-width="0.0" fill="rgb(70, 70, 70)" opacity="0.97589654" stroke="rgb(0, 0, 0)" stroke-opacity="1.0" stroke-linecap="round" stroke-linejoin="round"/>
    <path d="M 103.88389587402344 506.3981628417969 C 112.44515991210938 506.56060791015625 123.07306671142578 506.9224548339844 133.78944396972656 510.4630126953125 C 134.81517028808594 495.8291931152344 135.781005859375 479.0454406738281 132.71238708496094 462.6668395996094 C 140.0635528564453 463.2201232910156 146.02806091308594 463.6820373535156 151.4945831298828 463.93719482421875 C 153.358154296875 466.60137939453125 152.33709716796875 471.7358703613281 150.392822265625 471.19482421875 C 152.02500915527344 471.2377624511719 154.34054565429688 472.6449279785156 150.27072143554688 473.285400390625 C 155.6197052001953 465.0867004394531 161.23233032226562 457.1213684082031 173.00106811523438 451.72003173828125 C 176.2769775390625 449.2070007324219 183.76608276367188 452.91571044921875 193.03367614746094 450.73626708984375 C 188.00718688964844 440.525146484375 182.18765258789062 433.61968994140625 176.38572692871094 424.32989501953125 C 151.62057495117188 423.0390319824219 125.18585205078125 423.3282775878906 101.71263885498047 423.55474853515625 C 102.58401489257812 451.195068359375 103.25205993652344 479.4919738769531 103.88389587402344 506.3981628417969" stroke-width="0.0" fill="rgb(127, 127, 127)" opacity="0.9783244" stroke="rgb(0, 0, 0)" stroke-opacity="1.0" stroke-linecap="round" stroke-linejoin="round"/>
    <path d="M 460.7732238769531 208.9921112060547 C 454.68646240234375 198.54981994628906 448.4866027832031 196.447021484375 436.2158203125 195.28782653808594 C 345.5317687988281 195.97052001953125 255.49667358398438 198.54739379882812 167.7242431640625 202.3294219970703 C 163.09197998046875 205.56808471679688 159.87916564941406 208.16539001464844 160.69326782226562 218.96157836914062 C 263.4474792480469 215.654052734375 362.1229553222656 212.32342529296875 460.7732238769531 208.9921112060547" stroke-width="0.0" fill="rgb(143, 143, 143)" opacity="1.0017786" stroke="rgb(0, 0, 0)" stroke-opacity="1.0" stroke-linecap="round" stroke-linejoin="round"/>
    <path d="M 465.5802001953125 161.71536254882812 C 457.718017578125 157.05807495117188 449.1145935058594 153.76748657226562 438.5105895996094 154.67726135253906 C 404.9396057128906 153.72637939453125 373.60186767578125 152.66424560546875 342.0458679199219 152.88475036621094 C 283.4809265136719 153.17355346679688 227.14422607421875 156.35012817382812 173.139892578125 160.71820068359375 C 173.24085998535156 164.43435668945312 172.1744842529297 166.35195922851562 172.5425262451172 170.03756713867188 C 266.4231872558594 163.95126342773438 362.8324890136719 162.06341552734375 465.5802001953125 161.71536254882812" stroke-width="0.0" fill="rgb(142, 142, 142)" opacity="0.9802476" stroke="rgb(0, 0, 0)" stroke-opacity="1.0" stroke-linecap="round" stroke-linejoin="round"/>
    <path d="M 503.75860595703125 107.34821319580078 C 495.1986083984375 106.59003448486328 489.8486633300781 107.13539123535156 486.9661865234375 108.7374496459961 C 486.3049621582031 161.1942901611328 487.1306457519531 211.22821044921875 488.99102783203125 261.1230773925781 C 498.6764831542969 258.82061767578125 501.95941162109375 256.11431884765625 504.34747314453125 253.1009521484375 C 504.2143249511719 202.3471221923828 504.10089111328125 154.68496704101562 503.75860595703125 107.34821319580078" stroke-width="0.0" fill="rgb(100, 100, 100)" opacity="0.9995762" stroke="rgb(0, 0, 0)" stroke-opacity="1.0" stroke-linecap="round" stroke-linejoin="round"/>
    <path d="M 513.4459228515625 89.56737518310547 C 505.46441650390625 93.77179718017578 503.8359680175781 98.88117218017578 501.5743103027344 105.9053726196289 C 500.75335693359375 179.03746032714844 501.4808044433594 254.3164825439453 502.6351318359375 327.36444091796875 C 507.29827880859375 347.1949768066406 508.2686462402344 368.40484619140625 514.2342529296875 390.7774963378906 C 514.1159057617188 287.4092712402344 513.7813110351562 188.47325134277344 513.4459228515625 89.56737518310547" stroke-width="0.0" fill="rgb(89, 89, 89)" opacity="0.97350055" stroke="rgb(0, 0, 0)" stroke-opacity="1.0" stroke-linecap="round" stroke-linejoin="round"/>
    <path d="M 356.95513916015625 417.5452575683594 C 408.5980224609375 419.2585144042969 460.20068359375 421.86566162109375 511.815185546875 429.0423583984375 C 513.0558471679688 423.165283203125 513.173583984375 419.17852783203125 513.6727905273438 412.18450927734375 C 462.5521240234375 411.1944274902344 412.47064208984375 410.5670166015625 363.7096252441406 411.0899658203125 C 357.46685791015625 412.3121032714844 354.90185546875 412.9933776855469 356.95513916015625 417.5452575683594" stroke-width="0.0" fill="rgb(175, 175, 175)" opacity="0.97687274" stroke="rgb(0, 0, 0)" stroke-opacity="1.0" stroke-linecap="round" stroke-linejoin="round"/>
    <path d="M 374.3759460449219 441.5119323730469 C 406.0910949707031 442.01708984375 436.3376159667969 442.3768310546875 471.240966796875 442.2821044921875 C 455.546875 432.2523498535156 439.159423828125 430.4595947265625 417.99249267578125 429.83001708984375 C 403.3048095703125 429.00274658203125 388.70916748046875 431.7446594238281 374.3759460449219 441.5119323730469" stroke-width="0.0" fill="rgb(203, 203, 203)" opacity="1.012097" stroke="rgb(0, 0, 0)" stroke-opacity="1.0" stroke-linecap="round" stroke-linejoin="round"/>
    <path d="M 0.02528589963912964 96.31416320800781 C -1.2425798177719116 169.3134307861328 -2.369215726852417 246.2338409423828 -3.214285373687744 323.2049255371094 C 3.687342882156372 328.0061340332031 5.711619853973389 331.3723449707031 6.576226234436035 334.07757568359375 C 6.847243309020996 331.98114013671875 9.301445007324219 329.3605041503906 9.533823013305664 331.4585876464844 C 16.44959259033203 336.1430969238281 23.64802360534668 340.5536193847656 32.540889739990234 344.6996765136719 C 32.82033920288086 349.8687438964844 31.181058883666992 358.1542663574219 31.043092727661133 366.81634521484375 C 29.297914505004883 364.06097412109375 29.231775283813477 361.2688293457031 27.51483154296875 359.3194580078125 C 25.52587127685547 365.1253967285156 24.547107696533203 371.3980407714844 22.559343338012695 376.24542236328125 C 17.145544052124023 373.7981262207031 14.502521514892578 371.66717529296875 12.789144515991211 370.5782165527344 C 12.344498634338379 367.6346130371094 10.612130165100098 365.0058898925781 7.380167007446289 358.0823974609375 C 4.79489803314209 360.5495910644531 4.674801826477051 365.7688903808594 -1.032933235168457 369.8907470703125 C 2.8750722408294678 373.1930847167969 7.904659748077393 376.0492248535156 16.566909790039062 378.0023193359375 C 16.140779495239258 387.98095703125 15.41053581237793 400.3215026855469 16.35535430908203 409.9964904785156 C 22.41383934020996 411.5366516113281 27.652090072631836 411.7508850097656 36.30978775024414 412.4034118652344 C 38.76235580444336 321.21527099609375 41.54343795776367 227.64463806152344 43.82987594604492 129.42672729492188 C 38.623775482177734 116.76929473876953 32.199073791503906 106.67681884765625 23.67422103881836 98.81153106689453 C 16.213191986083984 98.38212585449219 9.982062339782715 97.31189727783203 0.02528589963912964 96.31416320800781" stroke-width="0.0" fill="rgb(78, 78, 78)" opacity="0.9937263" stroke="rgb(0, 0, 0)" stroke-opacity="1.0" stroke-linecap="round" stroke-linejoin="round"/>
    <path d="M 468.6244812011719 141.5083465576172 C 464.24420166015625 135.4180450439453 458.61279296875 129.76206970214844 452.3243713378906 126.54532623291016 C 414.8780822753906 126.59830474853516 380.4247741699219 126.67957305908203 349.48480224609375 127.44671630859375 C 295.0453796386719 132.0712890625 237.77069091796875 134.05641174316406 177.70867919921875 133.3350067138672 C 174.59693908691406 137.9052276611328 172.0201873779297 144.33448791503906 171.4980926513672 155.32083129882812 C 223.25241088867188 148.2785186767578 277.62933349609375 146.98550415039062 332.12042236328125 146.1185302734375 C 360.92901611328125 145.09750366210938 391.18701171875 145.19505310058594 420.3170166015625 146.19677734375 C 438.3931884765625 145.6622314453125 453.2559509277344 147.9818572998047 468.18841552734375 152.94357299804688 C 468.6117248535156 148.94027709960938 467.9912109375 146.59303283691406 468.6244812011719 141.5083465576172" stroke-width="0.0" fill="rgb(173, 173, 173)" opacity="1.0242679" stroke="rgb(0, 0, 0)" stroke-opacity="1.0" stroke-linecap="round" stroke-linejoin="round"/>
    <path d="M 260.73553466796875 176.64971923828125 C 231.44607543945312 177.63674926757812 206.6519012451172 179.38845825195312 181.8631134033203 181.39686584472656 C 175.83853149414062 182.333251953125 171.8584747314453 183.89280700683594 169.7891387939453 192.7750701904297 C 200.57217407226562 191.0030975341797 226.82550048828125 189.18849182128906 253.45960998535156 187.4171905517578 C 257.5221862792969 187.0203399658203 259.89154052734375 185.30213928222656 260.73553466796875 176.64971923828125" stroke-width="0.0" fill="rgb(192, 192, 192)" opacity="1.0012065" stroke="rgb(0, 0, 0)" stroke-opacity="1.0" stroke-linecap="round" stroke-linejoin="round"/>
    <path d="M 339.47979736328125 84.13528442382812 C 331.5899658203125 84.68485260009766 326.1282958984375 85.1515121459961 320.17919921875 85.9874267578125 C 318.7236633300781 92.62425231933594 318.72686767578125 100.40787506103516 319.054931640625 110.79051971435547 C 326.7693786621094 110.7256088256836 334.365478515625 110.88531494140625 342.8161926269531 110.30876159667969 C 342.1319885253906 98.78595733642578 341.35382080078125 90.12467193603516 339.47979736328125 84.13528442382812" stroke-width="0.0" fill="rgb(208, 208, 208)" opacity="1.0006475" stroke="rgb(0, 0, 0)" stroke-opacity="1.0" stroke-linecap="round" stroke-linejoin="round"/>
    <path d="M 336.29876708984375 435.2197570800781 C 335.3312072753906 443.0812683105469 333.7195129394531 448.2913818359375 331.9033508300781 452.4001159667969 C 340.8672790527344 453.8149108886719 346.48980712890625 455.8224182128906 353.61431884765625 457.8573913574219 C 355.19561767578125 453.79986572265625 356.0979309082031 446.5446472167969 356.5391845703125 434.7226257324219 C 347.8626708984375 433.9256591796875 340.8988952636719 433.9740905761719 336.29876708984375 435.2197570800781" stroke-width="0.0" fill="rgb(153, 153, 153)" opacity="1.0112847" stroke="rgb(0, 0, 0)" stroke-opacity="1.0" stroke-linecap="round" stroke-linejoin="round"/>
    <path d="M 445.42462158203125 417.9216003417969 C 421.3056640625 418.27960205078125 391.2897644042969 418.5361328125 356.74005126953125 418.3227233886719 C 354.51251220703125 421.3985900878906 353.2827453613281 431.0374450683594 353.1241149902344 444.477294921875 C 357.87347412109375 446.35394287109375 363.6346435546875 447.68511962890625 371.2270202636719 448.6374816894531 C 374.0702209472656 443.0075988769531 376.8056945800781 439.6882629394531 381.9748229980469 439.23779296875 C 404.629638671875 431.5292663574219 422.6069641113281 417.6580505371094 445.42462158203125 417.9216003417969" stroke-width="0.0" fill="rgb(167, 167, 167)" opacity="0.9783339" stroke="rgb(0, 0, 0)" stroke-opacity="1.0" stroke-linecap="round" stroke-linejoin="round"/>
    <path d="M -2.61537766456604 322.9930114746094 C -2.2062745094299316 338.3333435058594 -0.8656187057495117 355.6666564941406 -0.445823609828949 373.9569091796875 C 1.4848039150238037 374.43572998046875 2.857158899307251 375.4949951171875 6.91766357421875 376.5382995605469 C 7.8413262367248535 356.70355224609375 9.825021743774414 339.8202209472656 12.935215950012207 325.20703125 C 8.414162635803223 325.9137878417969 3.6701579093933105 324.59307861328125 -2.61537766456604 322.9930114746094" stroke-width="0.0" fill="rgb(78, 78, 78)" opacity="0.9999723" stroke="rgb(0, 0, 0)" stroke-opacity="1.0" stroke-linecap="round" stroke-linejoin="round"/>
    <path d="M 512.5424194335938 442.5114440917969 C 498.9015808105469 441.7222900390625 490.5345153808594 435.34539794921875 479.9681396484375 438.4647216796875 C 459.63323974609375 445.1637878417969 438.2121276855469 448.82073974609375 414.7081298828125 449.325927734375 C 407.8654479980469 456.54541015625 401.0984191894531 462.42803955078125 396.6715087890625 469.4610595703125 C 395.2209777832031 483.4426574707031 393.1661376953125 496.1285095214844 392.8997802734375 513.0817260742188 C 430.3945007324219 513.7689819335938 469.6625671386719 514.1082763671875 512.705322265625 514.441650390625 C 513.2116088867188 488.8647155761719 513.2266845703125 464.8976135253906 512.5424194335938 442.5114440917969" stroke-width="0.0" fill="rgb(50, 50, 50)" opacity="0.97503793" stroke="rgb(0, 0, 0)" stroke-opacity="1.0" stroke-linecap="round" stroke-linejoin="round"/>
    <path d="M 133.66636657714844 510.9595947265625 C 161.92486572265625 512.2752075195312 194.3533935546875 513.5309448242188 230.6804656982422 514.6657104492188 C 233.4854278564453 509.7047119140625 234.50259399414062 506.4322204589844 236.5279998779297 504.6290283203125 C 246.34034729003906 500.8758850097656 255.35443115234375 496.4598083496094 259.9020690917969 487.9677734375 C 261.0240783691406 483.59722900390625 261.8892822265625 478.80419921875 264.2078552246094 473.0161437988281 C 259.05828857421875 466.18646240234375 250.09962463378906 460.59417724609375 238.96243286132812 457.9199523925781 C 218.45281982421875 455.3988342285156 198.3614044189453 453.672607421875 176.89808654785156 453.1844787597656 C 161.4551544189453 457.4710693359375 147.74388122558594 463.66436767578125 135.4606170654297 471.22869873046875 C 133.5544891357422 482.3606872558594 132.40936279296875 493.6146240234375 133.66636657714844 510.9595947265625" stroke-width="0.0" fill="rgb(46, 46, 46)" opacity="0.97410214" stroke="rgb(0, 0, 0)" stroke-opacity="1.0" stroke-linecap="round" stroke-linejoin="round"/>
    <path d="M 301.64605712890625 467.731689453125 C 298.50628662109375 475.7337646484375 296.93328857421875 484.37109375 296.5955505371094 493.1063232421875 C 300.4998779296875 500.56134033203125 304.2099914550781 505.0345153808594 306.54931640625 514.0359497070312 C 322.7025451660156 513.9645385742188 338.3011779785156 513.6210327148438 353.8021240234375 512.9243774414062 C 355.593994140625 501.7633056640625 357.4457092285156 493.26385498046875 359.0283203125 480.77294921875 C 355.16510009765625 474.1236572265625 351.21826171875 468.11016845703125 345.7005310058594 463.6720275878906 C 339.9363098144531 460.4998779296875 334.13720703125 457.969482421875 328.869140625 456.7413024902344 C 316.65625 458.4669494628906 308.8028259277344 462.5147705078125 301.64605712890625 467.731689453125" stroke-width="0.0" fill="rgb(61, 61, 61)" opacity="0.99986696" stroke="rgb(0, 0, 0)" stroke-opacity="1.0" stroke-linecap="round" stroke-linejoin="round"/>
    <path d="M 231.6631622314453 512.6968994140625 C 250.12635803222656 513.3689575195312 272.0767822265625 513.8975830078125 298.4957580566406 514.405517578125 C 295.42138671875 505.32208251953125 292.1807861328125 502.3022155761719 288.1910705566406 501.1993713378906 C 279.9927673339844 501.00689697265625 273.4941101074219 499.99786376953125 265.4831848144531 495.0360107421875 C 254.78646850585938 495.8424987792969 244.33995056152344 497.2723388671875 234.66323852539062 499.6144714355469 C 233.7873077392578 503.1220397949219 234.2890167236328 508.2685852050781 231.6631622314453 512.6968994140625" stroke-width="0.0" fill="rgb(172, 172, 172)" opacity="0.9917555" stroke="rgb(0, 0, 0)" stroke-opacity="1.0" stroke-linecap="round" stroke-linejoin="round"/>
    <path d="M -1.1314493417739868 449.4971618652344 C -1.4103484153747559 471.6089172363281 -1.097632884979248 491.3160400390625 -0.6720521450042725 512.6901245117188 C 11.867387771606445 512.9446411132812 23.867887496948242 513.2791748046875 37.59100341796875 513.3750610351562 C 35.27699279785156 491.64105224609375 34.42353057861328 472.47137451171875 32.44215393066406 453.0428161621094 C 20.918603897094727 451.5666809082031 10.94002628326416 450.3423767089844 -1.1314493417739868 449.4971618652344" stroke-width="0.0" fill="rgb(46, 46, 46)" opacity="0.9750432" stroke="rgb(0, 0, 0)" stroke-opacity="1.0" stroke-linecap="round" stroke-linejoin="round"/>
    <path d="M 43.84762954711914 484.26007080078125 C 42.420597076416016 492.5262756347656 41.316444396972656 501.44873046875 40.89271926879883 511.8272399902344 C 48.1992073059082 513.9509887695312 57.2868766784668 513.9383544921875 65.65040588378906 512.1757202148438 C 62.85355758666992 501.26373291015625 59.58070373535156 493.630859375 55.2791633605957 486.47906494140625 C 52.84067916870117 483.4662780761719 49.747337341308594 482.1065979003906 43.84762954711914 484.26007080078125" stroke-width="0.0" fill="rgb(22, 22, 22)" opacity="1.00142" stroke="rgb(0, 0, 0)" stroke-opacity="1.0" stroke-linecap="round" stroke-linejoin="round"/>
    <path d="M 133.32351684570312 452.66412353515625 C 117.57857513427734 453.8531494140625 107.86669158935547 455.5858459472656 97.55072784423828 457.9205017089844 C 96.92729949951172 475.73583984375 96.57575988769531 492.029541015625 97.06378936767578 512.6893310546875 C 109.6119155883789 513.3333740234375 120.29936218261719 513.3535766601562 132.38804626464844 513.2708740234375 C 132.53492736816406 492.8235168457031 133.34963989257812 474.3983154296875 133.32351684570312 452.66412353515625" stroke-width="0.0" fill="rgb(158, 158, 158)" opacity="1.0199103" stroke="rgb(0, 0, 0)" stroke-opacity="1.0" stroke-linecap="round" stroke-linejoin="round"/>
    <path d="M -0.3975521922111511 421.6846923828125 C -1.9249742031097412 430.6876220703125 -1.7248196601867676 440.264404296875 -1.6072556972503662 451.41436767578125 C 10.685611724853516 451.4778747558594 22.078022003173828 451.1226501464844 36.12608337402344 451.5767822265625 C 43.48606491088867 450.38983154296875 49.74687576293945 447.8185119628906 55.48719787597656 439.4718322753906 C 37.0677490234375 432.5683288574219 19.35249137878418 426.9906921386719 -0.3975521922111511 421.6846923828125" stroke-width="0.0" fill="rgb(135, 135, 135)" opacity="0.99752975" stroke="rgb(0, 0, 0)" stroke-opacity="1.0" stroke-linecap="round" stroke-linejoin="round"/>
    <path d="M 252.64637756347656 448.2658996582031 C 251.144287109375 465.02532958984375 254.00711059570312 483.9746398925781 251.31349182128906 500.2256164550781 C 256.7210388183594 499.4452819824219 264.6953125 498.8840637207031 275.2207336425781 498.167724609375 C 275.1871337890625 486.0374450683594 274.7506103515625 477.00433349609375 271.9170837402344 468.8359069824219 C 266.887451171875 461.6617431640625 263.30194091796875 453.87091064453125 252.64637756347656 448.2658996582031" stroke-width="0.0" fill="rgb(41, 41, 41)" opacity="0.99971366" stroke="rgb(0, 0, 0)" stroke-opacity="1.0" stroke-linecap="round" stroke-linejoin="round"/>
    <path d="M 362.5933837890625 453.4133605957031 C 356.6995849609375 458.0765686035156 353.9060974121094 459.972900390625 353.0398254394531 463.7660217285156 C 356.39935302734375 479.989990234375 360.7088623046875 494.1317443847656 362.6222839355469 511.5548400878906 C 363.1812438964844 513.4862060546875 366.80718994140625 513.4600830078125 371.46612548828125 512.6682739257812 C 371.8714599609375 495.8620910644531 371.1575622558594 482.2987060546875 369.710205078125 467.15655517578125 C 368.8006591796875 461.212158203125 365.51947021484375 456.54437255859375 362.5933837890625 453.4133605957031" stroke-width="0.0" fill="rgb(80, 80, 80)" opacity="0.9905349" stroke="rgb(0, 0, 0)" stroke-opacity="1.0" stroke-linecap="round" stroke-linejoin="round"/>
    <path d="M 288.51910400390625 455.2561950683594 C 280.8443298339844 460.01715087890625 278.809326171875 465.6700744628906 277.5502014160156 473.7491455078125 C 277.0093078613281 485.8780212402344 277.92181396484375 498.4710998535156 278.9353942871094 510.24456787109375 C 279.2189025878906 504.5545349121094 283.42877197265625 501.029296875 291.87921142578125 499.8945617675781 C 291.04718017578125 484.84674072265625 290.23193359375 470.7667541503906 288.51910400390625 455.2561950683594" stroke-width="0.0" fill="rgb(71, 71, 71)" opacity="1.0071781" stroke="rgb(0, 0, 0)" stroke-opacity="1.0" stroke-linecap="round" stroke-linejoin="round"/>
    <path d="M 13.376575469970703 420.72967529296875 C 26.151918411254883 430.3697509765625 39.13554382324219 436.65496826171875 56.05469512939453 442.47149658203125 C 54.461669921875 447.64007568359375 50.66144943237305 452.09722900390625 44.07577133178711 455.2733459472656 C 42.49003982543945 459.71234130859375 44.37630081176758 466.6037292480469 44.15900802612305 475.2281494140625 C 52.027259826660156 473.84820556640625 57.75248336791992 476.8112487792969 61.48773956298828 482.2764892578125 C 67.14200592041016 490.4802551269531 67.76004791259766 502.12353515625 71.70599365234375 513.2651977539062 C 80.3276596069336 513.3406982421875 88.41419982910156 513.4124145507812 99.71569061279297 512.66162109375 C 98.6844482421875 476.8455505371094 97.72370147705078 444.8207702636719 96.35633087158203 414.1473693847656 C 86.85155487060547 408.123291015625 76.33941650390625 405.72894287109375 71.68215942382812 398.759765625 C 71.53788757324219 403.4643859863281 70.35758972167969 409.0316467285156 68.25745391845703 413.5899658203125 C 51.741432189941406 417.17877197265625 33.72161102294922 417.6480712890625 13.376575469970703 420.72967529296875" stroke-width="0.0" fill="rgb(92, 92, 92)" opacity="0.9811265" stroke="rgb(0, 0, 0)" stroke-opacity="1.0" stroke-linecap="round" stroke-linejoin="round"/>
    <path d="M 174.11729431152344 423.11309814453125 C 148.27493286132812 422.8765563964844 123.6695785522461 423.7261047363281 95.81802368164062 424.8802185058594 C 95.65757751464844 446.4066162109375 96.01688385009766 465.4425964355469 99.07146453857422 483.7337646484375 C 100.80895233154297 477.33148193359375 104.47792053222656 474.6385498046875 107.44722747802734 471.84228515625 C 108.60655212402344 465.63818359375 111.3212890625 459.6941223144531 117.15660858154297 455.75714111328125 C 120.03324127197266 455.0997009277344 124.8829574584961 454.74432373046875 130.83636474609375 454.9814147949219 C 134.93580627441406 456.20501708984375 138.0920867919922 460.4263000488281 143.82003784179688 467.792724609375 C 148.20945739746094 466.4583435058594 152.81553649902344 464.8331604003906 153.8839874267578 463.93731689453125 C 156.4027862548828 464.2499084472656 160.531494140625 465.6536865234375 157.57102966308594 467.3700866699219 C 161.86614990234375 461.0953063964844 167.5801544189453 455.6271667480469 174.40847778320312 450.82037353515625 C 175.02317810058594 442.4436340332031 174.76153564453125 433.4659729003906 174.11729431152344 423.11309814453125" stroke-width="0.0" fill="rgb(133, 133, 133)" opacity="0.99072415" stroke="rgb(0, 0, 0)" stroke-opacity="1.0" stroke-linecap="round" stroke-linejoin="round"/>
    <path d="M 380.7523193359375 454.075439453125 C 380.6028747558594 472.0160827636719 379.52850341796875 487.3959655761719 376.2648010253906 504.3009338378906 C 377.37884521484375 506.3197326660156 382.1591796875 507.8463134765625 390.8310546875 508.68206787109375 C 393.7904968261719 494.9353942871094 394.5511779785156 481.06982421875 398.1885986328125 469.7134094238281 C 400.576416015625 466.6354064941406 401.6844787597656 461.0677795410156 399.5048522949219 453.83551025390625 C 391.74053955078125 455.65289306640625 390.76934814453125 463.08087158203125 383.8517150878906 463.6547546386719 C 382.0846252441406 460.76324462890625 384.4319763183594 455.1510314941406 380.7523193359375 454.075439453125" stroke-width="0.0" fill="rgb(78, 78, 78)" opacity="1.0007074" stroke="rgb(0, 0, 0)" stroke-opacity="1.0" stroke-linecap="round" stroke-linejoin="round"/>
    <path d="M 503.93890380859375 184.380126953125 C 492.7527160644531 185.59352111816406 486.9044189453125 187.60934448242188 486.52374267578125 189.75621032714844 C 488.7989807128906 212.19085693359375 490.3170166015625 236.1639404296875 490.9136962890625 263.7626647949219 C 494.9429626464844 260.59271240234375 498.0592041015625 257.4228515625 501.48175048828125 253.57574462890625 C 504.003173828125 232.43316650390625 504.4929504394531 210.4987030029297 503.93890380859375 184.380126953125" stroke-width="0.0" fill="rgb(68, 68, 68)" opacity="0.9858513" stroke="rgb(0, 0, 0)" stroke-opacity="1.0" stroke-linecap="round" stroke-linejoin="round"/>
    <path d="M 485.6117248535156 106.15321350097656 C 486.7603454589844 133.3861541748047 486.8097839355469 162.25570678710938 486.5928039550781 190.98011779785156 C 494.7737731933594 189.1307373046875 498.8118591308594 187.63992309570312 503.33233642578125 184.48287963867188 C 502.470703125 175.42965698242188 499.14019775390625 171.17672729492188 497.2301940917969 168.63572692871094 C 501.1578369140625 165.66824340820312 503.70648193359375 162.97837829589844 505.3289489746094 158.42213439941406 C 500.7565002441406 154.2552490234375 496.8038330078125 153.15182495117188 496.0223388671875 150.55609130859375 C 499.290771484375 150.5227508544922 502.4004211425781 150.28904724121094 505.8876647949219 147.697509765625 C 499.75067138671875 146.1368865966797 495.44366455078125 147.66566467285156 495.5522766113281 144.86489868164062 C 495.6807861328125 137.76565551757812 495.4874267578125 130.2595977783203 495.7648620605469 122.26107788085938 C 497.7253723144531 122.00298309326172 501.4802551269531 122.28923034667969 504.5811462402344 122.2796401977539 C 504.3514099121094 115.59020233154297 504.5887145996094 111.90812683105469 504.9307556152344 106.79388427734375 C 495.4271240234375 108.9705810546875 489.9860534667969 108.25409698486328 485.6117248535156 106.15321350097656" stroke-width="0.0" fill="rgb(80, 80, 80)" opacity="0.98970085" stroke="rgb(0, 0, 0)" stroke-opacity="1.0" stroke-linecap="round" stroke-linejoin="round"/>
    <path d="M 433.515625 422.3729248046875 C 460.66131591796875 423.20989990234375 485.0498962402344 424.187255859375 511.88201904296875 424.4665222167969 C 513.2280883789062 422.2117919921875 513.1904907226562 419.74127197265625 512.6884765625 415.23455810546875 C 498.2304992675781 413.34765625 483.8845520019531 412.607177734375 472.01739501953125 412.7159118652344 C 459.2652893066406 415.8111572265625 446.1408996582031 416.7629089355469 433.515625 422.3729248046875" stroke-width="0.0" fill="rgb(206, 206, 206)" opacity="1.0012629" stroke="rgb(0, 0, 0)" stroke-opacity="1.0" stroke-linecap="round" stroke-linejoin="round"/>
    <path d="M 237.37454223632812 186.1756134033203 C 217.3522186279297 179.78607177734375 198.1288604736328 179.68173217773438 177.69496154785156 181.86134338378906 C 175.197265625 184.95309448242188 172.59759521484375 187.41748046875 174.801513671875 193.13241577148438 C 196.7948455810547 191.37115478515625 217.04611206054688 189.6833038330078 237.37454223632812 186.1756134033203" stroke-width="0.0" fill="rgb(180, 180, 180)" opacity="0.99995583" stroke="rgb(0, 0, 0)" stroke-opacity="1.0" stroke-linecap="round" stroke-linejoin="round"/>
    <path d="M 417.20611572265625 451.54351806640625 C 411.94171142578125 464.9356994628906 404.5704650878906 475.47296142578125 396.82110595703125 487.1496887207031 C 394.9239501953125 493.8038330078125 393.48382568359375 501.57171630859375 394.01068115234375 513.3491821289062 C 418.3551330566406 513.6637573242188 442.0188903808594 512.8994750976562 462.4892578125 510.6302490234375 C 463.40203857421875 501.6374206542969 464.3903503417969 492.9746398925781 464.71343994140625 486.6853332519531 C 461.4637451171875 476.5559997558594 457.8244323730469 466.197998046875 454.0174560546875 456.7184753417969 C 442.8917541503906 454.24041748046875 430.8790588378906 451.2050476074219 417.20611572265625 451.54351806640625" stroke-width="0.0" fill="rgb(32, 32, 32)" opacity="0.993542" stroke="rgb(0, 0, 0)" stroke-opacity="1.0" stroke-linecap="round" stroke-linejoin="round"/>
    <path d="M 171.22889709472656 452.7143859863281 C 169.41897583007812 466.0459289550781 164.7213897705078 475.9624328613281 155.04959106445312 482.9005126953125 C 151.3414306640625 488.49346923828125 151.6710662841797 498.0262451171875 152.12632751464844 512.647216796875 C 165.2001495361328 513.4370727539062 181.3081817626953 513.9857177734375 203.69622802734375 514.2819213867188 C 198.65335083007812 489.86083984375 191.3268585205078 474.5812072753906 184.205078125 455.25634765625 C 184.34027099609375 453.5448303222656 180.24456787109375 452.98956298828125 171.22889709472656 452.7143859863281" stroke-width="0.0" fill="rgb(23, 23, 23)" opacity="0.99487185" stroke="rgb(0, 0, 0)" stroke-opacity="1.0" stroke-linecap="round" stroke-linejoin="round"/>
    <path d="M 226.833251953125 501.1793212890625 C 230.36036682128906 506.6481018066406 230.26211547851562 508.9119873046875 230.00811767578125 513.2766723632812 C 246.17214965820312 513.3991088867188 261.9670715332031 513.752197265625 277.9137878417969 512.4994506835938 C 276.7405090332031 503.85467529296875 274.6920166015625 499.8148193359375 270.6710205078125 496.9314270019531 C 252.64064025878906 497.225830078125 239.51766967773438 499.14288330078125 226.833251953125 501.1793212890625" stroke-width="0.0" fill="rgb(196, 196, 196)" opacity="0.9984212" stroke="rgb(0, 0, 0)" stroke-opacity="1.0" stroke-linecap="round" stroke-linejoin="round"/>
    <path d="M 439.3957214355469 459.26312255859375 C 440.1815490722656 476.12298583984375 441.7104187011719 494.0098571777344 443.3448181152344 514.2787475585938 C 467.4955139160156 514.0459594726562 489.7203063964844 513.732666015625 513.2575073242188 513.2200927734375 C 513.4649047851562 493.6072082519531 513.8087158203125 475.54522705078125 512.3590087890625 459.8460998535156 C 507.08551025390625 458.1596984863281 504.6855163574219 455.7456970214844 505.19293212890625 449.0625305175781 C 497.575927734375 445.6487121582031 488.1264953613281 442.8722839355469 478.40350341796875 443.7356872558594 C 463.2132263183594 447.8258361816406 452.4273681640625 452.5415954589844 439.3957214355469 459.26312255859375" stroke-width="0.0" fill="rgb(47, 47, 47)" opacity="1.0005317" stroke="rgb(0, 0, 0)" stroke-opacity="1.0" stroke-linecap="round" stroke-linejoin="round"/>
    <path d="M 206.00196838378906 435.7165222167969 C 201.45448303222656 449.5348815917969 200.31423950195312 461.00897216796875 193.17518615722656 470.8782653808594 C 193.45660400390625 484.9430847167969 196.78184509277344 498.6678771972656 201.21986389160156 511.3171691894531 C 210.26890563964844 513.3706665039062 218.41452026367188 513.8922119140625 229.91510009765625 514.2088623046875 C 230.23167419433594 497.28277587890625 230.2442626953125 483.073974609375 230.45033264160156 466.2646789550781 C 220.456298828125 457.8924255371094 213.80136108398438 446.9324645996094 206.00196838378906 435.7165222167969" stroke-width="0.0" fill="rgb(39, 39, 39)" opacity="0.9919509" stroke="rgb(0, 0, 0)" stroke-opacity="1.0" stroke-linecap="round" stroke-linejoin="round"/>
    <path d="M 236.85595703125 438.78436279296875 C 232.4930877685547 458.1908264160156 231.70748901367188 477.1609191894531 231.61032104492188 499.6886901855469 C 245.2061004638672 499.47906494140625 258.8160095214844 499.2717590332031 274.5547180175781 498.6191101074219 C 274.5787048339844 484.3744812011719 274.2196044921875 474.4460144042969 271.6082458496094 467.78436279296875 C 264.2651672363281 463.141357421875 262.180419921875 455.5815124511719 255.15570068359375 448.41064453125 C 251.3325653076172 452.8147277832031 252.64642333984375 461.847900390625 248.11715698242188 464.8077392578125 C 239.94082641601562 457.7879943847656 242.90640258789062 445.0618591308594 236.85595703125 438.78436279296875" stroke-width="0.0" fill="rgb(41, 41, 41)" opacity="0.99665105" stroke="rgb(0, 0, 0)" stroke-opacity="1.0" stroke-linecap="round" stroke-linejoin="round"/>
    <path d="M 112.94245910644531 454.95159912109375 C 111.54149627685547 470.45458984375 112.427734375 489.5028991699219 114.37665557861328 512.57373046875 C 115.22286987304688 513.2623901367188 121.9226303100586 513.8530883789062 132.3312225341797 514.346923828125 C 133.11590576171875 493.8669128417969 133.1953887939453 475.8492431640625 133.37628173828125 455.7540588378906 C 127.41168212890625 454.5844421386719 121.91763305664062 455.00201416015625 112.94245910644531 454.95159912109375" stroke-width="0.0" fill="rgb(135, 135, 135)" opacity="0.99306965" stroke="rgb(0, 0, 0)" stroke-opacity="1.0" stroke-linecap="round" stroke-linejoin="round"/>
    <path d="M -0.8769988417625427 452.0198059082031 C -1.482133388519287 470.9957580566406 -1.4432590007781982 490.8595275878906 -1.5852887630462646 512.5817260742188 C 8.85448932647705 512.8463745117188 18.02545166015625 513.5096435546875 28.586238861083984 511.5223693847656 C 22.771385192871094 494.70965576171875 16.30689239501953 482.54583740234375 8.84475040435791 470.9384765625 C 6.227160453796387 463.58831787109375 11.727965354919434 460.65509033203125 14.916447639465332 455.31036376953125 C 9.199901580810547 453.3132629394531 5.153122425079346 451.9972229003906 -0.8769988417625427 452.0198059082031" stroke-width="0.0" fill="rgb(43, 43, 43)" opacity="0.99905366" stroke="rgb(0, 0, 0)" stroke-opacity="1.0" stroke-linecap="round" stroke-linejoin="round"/>
    <path d="M 17.122636795043945 451.129150390625 C 16.110937118530273 460.3595275878906 16.488126754760742 471.5692138671875 16.94896697998047 486.0797119140625 C 18.257814407348633 496.2434387207031 22.722976684570312 505.5126647949219 32.8757209777832 514.5496826171875 C 35.165992736816406 494.7816162109375 35.961181640625 476.47039794921875 35.86012649536133 454.0876770019531 C 31.499847412109375 452.1269226074219 26.54692840576172 451.37957763671875 17.122636795043945 451.129150390625" stroke-width="0.0" fill="rgb(23, 23, 23)" opacity="0.9980975" stroke="rgb(0, 0, 0)" stroke-opacity="1.0" stroke-linecap="round" stroke-linejoin="round"/>
    <path d="M 134.24806213378906 469.3927001953125 C 132.2914581298828 481.68951416015625 130.65086364746094 495.0480041503906 129.0028076171875 511.8642883300781 C 135.18238830566406 513.6636352539062 140.11215209960938 513.4813232421875 147.4992218017578 513.3761596679688 C 149.42774963378906 502.64361572265625 151.52328491210938 493.1147766113281 153.491455078125 479.14288330078125 C 150.63436889648438 475.2254943847656 146.06883239746094 471.921630859375 134.24806213378906 469.3927001953125" stroke-width="0.0" fill="rgb(36, 36, 36)" opacity="0.9942214" stroke="rgb(0, 0, 0)" stroke-opacity="1.0" stroke-linecap="round" stroke-linejoin="round"/>
    <path d="M 75.20179748535156 402.36871337890625 C 77.80201721191406 438.3646545410156 78.62322998046875 472.3981628417969 78.71894836425781 510.62841796875 C 81.10162353515625 512.0609130859375 86.4619140625 513.375732421875 98.50637817382812 514.5274658203125 C 99.15311431884766 483.65667724609375 99.14810180664062 454.21185302734375 98.31240844726562 419.831787109375 C 93.02233123779297 413.2699890136719 86.36380767822266 407.26593017578125 75.20179748535156 402.36871337890625" stroke-width="0.0" fill="rgb(109, 109, 109)" opacity="0.99256754" stroke="rgb(0, 0, 0)" stroke-opacity="1.0" stroke-linecap="round" stroke-linejoin="round"/>
    <path d="M 512.1993408203125 424.3644714355469 C 500.7872314453125 427.1254577636719 492.2168273925781 430.7678527832031 484.0160217285156 436.0006103515625 C 486.4346618652344 440.16656494140625 490.3188781738281 441.9804992675781 493.7039794921875 444.22467041015625 C 496.445068359375 453.0294494628906 500.8200378417969 461.7269287109375 501.2536926269531 471.8880310058594 C 502.24896240234375 469.21282958984375 506.02069091796875 467.7861633300781 514.0127563476562 469.1468505859375 C 513.8573608398438 452.486083984375 513.793212890625 437.7983703613281 512.1993408203125 424.3644714355469" stroke-width="0.0" fill="rgb(101, 101, 101)" opacity="0.978737" stroke="rgb(0, 0, 0)" stroke-opacity="1.0" stroke-linecap="round" stroke-linejoin="round"/>
    <path d="M 353.9576416015625 465.1938171386719 C 355.1114501953125 476.49639892578125 357.377685546875 485.2342529296875 360.0634765625 493.53094482421875 C 367.03302001953125 495.2050476074219 370.74652099609375 494.3263854980469 376.8379821777344 492.93182373046875 C 377.226806640625 481.3889465332031 377.0285949707031 473.1510925292969 374.4543151855469 465.8917236328125 C 367.91607666015625 465.8904724121094 362.0072326660156 465.5915832519531 353.9576416015625 465.1938171386719" stroke-width="0.0" fill="rgb(111, 111, 111)" opacity="1.0012428" stroke="rgb(0, 0, 0)" stroke-opacity="1.0" stroke-linecap="round" stroke-linejoin="round"/>
    <path d="M 429.88848876953125 447.9220886230469 C 422.2821044921875 446.7909240722656 418.59320068359375 447.3591003417969 415.5878601074219 450.1788330078125 C 413.5791015625 455.2808837890625 413.0476379394531 460.8120422363281 414.23541259765625 470.2117614746094 C 408.53619384765625 473.3466491699219 401.8695068359375 477.3007507324219 398.5285949707031 484.1795959472656 C 396.03729248046875 492.7613525390625 393.5196838378906 501.0146179199219 392.471435546875 512.817138671875 C 409.36126708984375 513.9564208984375 428.0662536621094 514.0491943359375 444.16033935546875 512.4092407226562 C 440.98797607421875 488.0616149902344 435.5860595703125 467.6120300292969 429.88848876953125 447.9220886230469" stroke-width="0.0" fill="rgb(18, 18, 18)" opacity="0.99816173" stroke="rgb(0, 0, 0)" stroke-opacity="1.0" stroke-linecap="round" stroke-linejoin="round"/>
    <path d="M 234.82977294921875 440.51568603515625 C 231.24276733398438 456.6507263183594 228.89292907714844 473.7969970703125 227.3460235595703 497.30877685546875 C 232.9915771484375 498.9266357421875 238.79449462890625 500.030029296875 250.8209228515625 500.2615966796875 C 249.17823791503906 476.5232849121094 247.09011840820312 458.4388122558594 243.02383422851562 441.35162353515625 C 240.98654174804688 439.3755187988281 238.52679443359375 439.390869140625 234.82977294921875 440.51568603515625" stroke-width="0.0" fill="rgb(40, 40, 40)" opacity="0.9973574" stroke="rgb(0, 0, 0)" stroke-opacity="1.0" stroke-linecap="round" stroke-linejoin="round"/>
    <path d="M 0.6100893020629883 479.34326171875 C -1.0123299360275269 487.65234375 -2.177934408187866 498.17401123046875 -3.0795440673828125 512.2936401367188 C 7.493038654327393 513.1828002929688 16.548625946044922 513.38818359375 27.212133407592773 511.7808837890625 C 23.0399112701416 498.93365478515625 17.58964729309082 490.971923828125 12.488274574279785 482.3424072265625 C 11.16637897491455 479.3253479003906 8.601247787475586 478.805419921875 0.6100893020629883 479.34326171875" stroke-width="0.0" fill="rgb(27, 27, 27)" opacity="1.0000128" stroke="rgb(0, 0, 0)" stroke-opacity="1.0" stroke-linecap="round" stroke-linejoin="round"/>
    <path d="M 493.1496887207031 440.8755187988281 C 470.7191162109375 444.3601379394531 457.97357177734375 455.25042724609375 434.4693908691406 458.9986877441406 C 443.5543518066406 472.9206848144531 444.3662414550781 492.0599060058594 444.48443603515625 514.22119140625 C 459.3412780761719 513.9698486328125 470.2412414550781 513.5987548828125 481.03729248046875 512.7994995117188 C 480.0804138183594 504.9352722167969 482.7759704589844 501.41998291015625 483.4739685058594 497.1629943847656 C 489.6195068359375 490.6458740234375 497.0320739746094 485.03369140625 504.1877746582031 479.34576416015625 C 500.61846923828125 464.2757568359375 497.4806823730469 453.07818603515625 493.1496887207031 440.8755187988281" stroke-width="0.0" fill="rgb(44, 44, 44)" opacity="1.0000776" stroke="rgb(0, 0, 0)" stroke-opacity="1.0" stroke-linecap="round" stroke-linejoin="round"/>
    <path d="M 199.18031311035156 458.4282531738281 C 196.0008544921875 462.6502990722656 193.4629669189453 469.9207458496094 195.0399169921875 478.41485595703125 C 198.4897003173828 490.2142639160156 201.63719177246094 499.7166748046875 204.8766632080078 509.0127868652344 C 211.04608154296875 509.0096435546875 215.64996337890625 508.1396484375 218.52511596679688 506.932373046875 C 218.32269287109375 487.99298095703125 217.9959716796875 472.52020263671875 217.46316528320312 457.47943115234375 C 209.29901123046875 457.47393798828125 203.2635955810547 458.0075378417969 199.18031311035156 458.4282531738281" stroke-width="0.0" fill="rgb(38, 38, 38)" opacity="0.9999186" stroke="rgb(0, 0, 0)" stroke-opacity="1.0" stroke-linecap="round" stroke-linejoin="round"/>
    <path d="M 511.5352783203125 466.7630615234375 C 500.7920227050781 475.77911376953125 492.6488037109375 484.5653076171875 486.2070007324219 495.380615234375 C 484.801513671875 500.29632568359375 483.7703552246094 506.1226806640625 480.9914855957031 513.276123046875 C 490.87579345703125 513.4644775390625 500.8154296875 513.4463500976562 513.5164184570312 513.4683227539062 C 513.644287109375 495.8226318359375 513.9198608398438 481.3572692871094 511.5352783203125 466.7630615234375" stroke-width="0.0" fill="rgb(42, 42, 42)" opacity="1.0006803" stroke="rgb(0, 0, 0)" stroke-opacity="1.0" stroke-linecap="round" stroke-linejoin="round"/>
    <path d="M 215.73069763183594 456.4389343261719 C 213.8842010498047 472.6445007324219 214.18885803222656 489.02618408203125 215.42930603027344 507.5718688964844 C 216.2257080078125 511.16900634765625 219.3201141357422 513.0029296875 227.3234100341797 514.0772705078125 C 230.61181640625 500.418212890625 232.69406127929688 487.8517150878906 234.13217163085938 468.71405029296875 C 229.89878845214844 463.6996765136719 225.2729034423828 458.9768371582031 215.73069763183594 456.4389343261719" stroke-width="0.0" fill="rgb(31, 31, 31)" opacity="1.0000213" stroke="rgb(0, 0, 0)" stroke-opacity="1.0" stroke-linecap="round" stroke-linejoin="round"/>
    <path d="M 251.75733947753906 447.0248107910156 C 252.02833557128906 465.87225341796875 255.2110137939453 480.2769775390625 256.0657958984375 498.42108154296875 C 261.46978759765625 498.8898010253906 268.4691162109375 499.12249755859375 277.06109619140625 498.119873046875 C 275.75177001953125 487.12664794921875 273.73992919921875 479.9818420410156 271.58740234375 472.4874572753906 C 263.7833557128906 466.8782958984375 260.31842041015625 457.02813720703125 251.75733947753906 447.0248107910156" stroke-width="0.0" fill="rgb(39, 39, 39)" opacity="0.9998349" stroke="rgb(0, 0, 0)" stroke-opacity="1.0" stroke-linecap="round" stroke-linejoin="round"/>
    <path d="M 512.1776123046875 437.1976013183594 C 503.425048828125 436.9000244140625 497.3830261230469 438.2122497558594 494.3962097167969 442.9128112792969 C 494.3097839355469 456.06494140625 495.5060729980469 466.26483154296875 497.5691223144531 475.970458984375 C 505.8129577636719 474.35638427734375 508.85888671875 471.6748046875 513.9603271484375 469.9679260253906 C 513.545166015625 456.380615234375 513.7133178710938 445.34454345703125 512.1776123046875 437.1976013183594" stroke-width="0.0" fill="rgb(75, 75, 75)" opacity="0.9999513" stroke="rgb(0, 0, 0)" stroke-opacity="1.0" stroke-linecap="round" stroke-linejoin="round"/>
    <path d="M 145.0594482421875 471.9786376953125 C 138.20152282714844 470.396484375 135.37745666503906 472.9688720703125 133.4458465576172 476.4076843261719 C 133.76686096191406 483.2607421875 131.8112030029297 491.65283203125 132.42636108398438 499.181640625 C 139.82699584960938 499.477783203125 145.1668243408203 499.6300048828125 149.84022521972656 498.24530029296875 C 151.8910675048828 493.68377685546875 153.5396728515625 489.4544677734375 154.29290771484375 481.221435546875 C 152.18345642089844 477.6268310546875 149.12290954589844 474.4134826660156 145.0594482421875 471.9786376953125" stroke-width="0.0" fill="rgb(26, 26, 26)" opacity="0.9998641" stroke="rgb(0, 0, 0)" stroke-opacity="1.0" stroke-linecap="round" stroke-linejoin="round"/>
    <path d="M 95.9495849609375 439.0621337890625 C 88.01721954345703 439.8655700683594 79.55294036865234 437.96099853515625 77.1070785522461 439.5498352050781 C 77.53191375732422 465.40521240234375 77.38951110839844 488.60479736328125 77.31982421875 514.8023681640625 C 88.21853637695312 512.8438110351562 94.89259338378906 510.8544921875 100.84786987304688 508.47802734375 C 99.84732818603516 478.8458251953125 97.95451354980469 456.077880859375 95.9495849609375 439.0621337890625" stroke-width="0.0" fill="rgb(118, 118, 118)" opacity="0.9997498" stroke="rgb(0, 0, 0)" stroke-opacity="1.0" stroke-linecap="round" stroke-linejoin="round"/>
    <path d="M 493.4366149902344 440.9888916015625 C 479.5586242675781 442.89666748046875 472.5228576660156 446.3746032714844 466.3320007324219 450.5483703613281 C 468.4756164550781 471.32525634765625 467.6126403808594 491.55487060546875 463.2525634765625 513.126708984375 C 469.4529724121094 513.0685424804688 474.6733093261719 512.8540649414062 481.1617126464844 512.8968505859375 C 482.3954772949219 506.9692077636719 482.881591796875 502.2345275878906 482.35345458984375 496.82489013671875 C 487.7878112792969 491.12078857421875 493.4090576171875 485.0792541503906 499.3113708496094 478.6990661621094 C 497.12530517578125 464.6177673339844 495.48565673828125 452.07318115234375 493.4366149902344 440.9888916015625" stroke-width="0.0" fill="rgb(38, 38, 38)" opacity="0.99797916" stroke="rgb(0, 0, 0)" stroke-opacity="1.0" stroke-linecap="round" stroke-linejoin="round"/>
    <path d="M 467.16424560546875 451.3482666015625 C 452.1266174316406 453.7017822265625 440.8057861328125 456.3231201171875 433.2762756347656 460.6485595703125 C 442.0997619628906 476.4408264160156 442.4464111328125 495.0205078125 443.37408447265625 514.226318359375 C 452.47918701171875 513.2508544921875 457.5263977050781 513.3012084960938 465.01312255859375 513.613037109375 C 467.87188720703125 497.4173583984375 470.0093688964844 481.9378967285156 467.489501953125 463.8227233886719 C 468.5519104003906 459.23883056640625 467.5509948730469 454.0408630371094 467.16424560546875 451.3482666015625" stroke-width="0.0" fill="rgb(38, 38, 38)" opacity="0.99879545" stroke="rgb(0, 0, 0)" stroke-opacity="1.0" stroke-linecap="round" stroke-linejoin="round"/>
    <path d="M 233.282470703125 456.11358642578125 C 232.31008911132812 467.573486328125 232.9060516357422 482.1082458496094 233.27993774414062 498.609375 C 239.41493225097656 499.18060302734375 246.94000244140625 498.8780822753906 255.52102661132812 498.4277038574219 C 255.89791870117188 489.1335144042969 256.04864501953125 481.0004577636719 256.7310485839844 470.7464904785156 C 247.69808959960938 467.3424987792969 243.60516357421875 462.24993896484375 244.74972534179688 453.60296630859375 C 239.9302520751953 454.484619140625 238.04429626464844 455.8326416015625 233.282470703125 456.11358642578125" stroke-width="0.0" fill="rgb(29, 29, 29)" opacity="1.0002065" stroke="rgb(0, 0, 0)" stroke-opacity="1.0" stroke-linecap="round" stroke-linejoin="round"/>
    <path d="M 0.10635235160589218 494.7177734375 C -0.07147925347089767 499.6666564941406 -0.08193153887987137 505.3333435058594 -0.06614658236503601 513.4531860351562 C 8.839799880981445 513.4629516601562 17.689910888671875 513.5125122070312 28.159011840820312 513.25634765625 C 26.858413696289062 502.77178955078125 24.756752014160156 497.31060791015625 22.139934539794922 492.34759521484375 C 13.079680442810059 493.0816955566406 6.7887444496154785 494.24481201171875 0.10635235160589218 494.7177734375" stroke-width="0.0" fill="rgb(30, 30, 30)" opacity="0.99937946" stroke="rgb(0, 0, 0)" stroke-opacity="1.0" stroke-linecap="round" stroke-linejoin="round"/>
    <path d="M 250.4922637939453 452.6426696777344 C 253.89395141601562 467.1465759277344 261.8625793457031 477.7269592285156 262.9266357421875 498.4103698730469 C 263.80120849609375 498.3619384765625 268.5491638183594 498.5936279296875 277.30633544921875 498.9324645996094 C 276.0650939941406 485.168701171875 273.7491455078125 476.35528564453125 269.930419921875 469.6228942871094 C 260.3494873046875 466.2270202636719 255.30093383789062 460.1014709472656 250.4922637939453 452.6426696777344" stroke-width="0.0" fill="rgb(39, 39, 39)" opacity="0.997909" stroke="rgb(0, 0, 0)" stroke-opacity="1.0" stroke-linecap="round" stroke-linejoin="round"/>
    <path d="M 468.3622741699219 470.16461181640625 C 456.3605651855469 468.1225280761719 450.3056640625 469.1148376464844 446.42108154296875 471.39959716796875 C 445.15692138671875 487.6791076660156 443.79119873046875 500.9588317871094 444.9342346191406 513.7244873046875 C 455.20819091796875 513.9962158203125 460.15313720703125 513.600830078125 466.0312194824219 512.6157836914062 C 467.3117980957031 499.7689514160156 468.0354309082031 486.8380126953125 468.3622741699219 470.16461181640625" stroke-width="0.0" fill="rgb(33, 33, 33)" opacity="0.9999144" stroke="rgb(0, 0, 0)" stroke-opacity="1.0" stroke-linecap="round" stroke-linejoin="round"/>
    <path d="M 233.5059356689453 436.4148254394531 C 233.13340759277344 455.1700439453125 233.77133178710938 476.3680114746094 233.6399383544922 496.60040283203125 C 234.856201171875 498.7032775878906 236.67398071289062 499.3104553222656 243.92271423339844 499.45947265625 C 244.9189453125 482.3875732421875 245.57015991210938 463.18768310546875 244.56295776367188 441.1162109375 C 242.1980438232422 437.8252258300781 240.41867065429688 436.61016845703125 233.5059356689453 436.4148254394531" stroke-width="0.0" fill="rgb(43, 43, 43)" opacity="0.9894968" stroke="rgb(0, 0, 0)" stroke-opacity="1.0" stroke-linecap="round" stroke-linejoin="round"/>
    <path d="M 484.2582702636719 455.450927734375 C 473.6287841796875 460.1844482421875 470.06341552734375 466.2622375488281 464.0678405761719 474.06732177734375 C 465.074462890625 487.9045104980469 469.01739501953125 497.888671875 472.3599548339844 512.452880859375 C 473.5196533203125 513.3090209960938 477.00909423828125 513.201416015625 481.4655456542969 513.4862670898438 C 482.6051940917969 503.94073486328125 483.9318542480469 496.60028076171875 488.0311584472656 488.1368713378906 C 488.00396728515625 476.4649658203125 486.3948059082031 465.7562255859375 484.2582702636719 455.450927734375" stroke-width="0.0" fill="rgb(60, 60, 60)" opacity="1.0001649" stroke="rgb(0, 0, 0)" stroke-opacity="1.0" stroke-linecap="round" stroke-linejoin="round"/>
    <path d="M 466.7832946777344 470.0949401855469 C 459.5614013671875 470.5522766113281 454.29852294921875 472.2247314453125 446.98931884765625 471.9923400878906 C 448.1835632324219 479.9388427734375 448.0306396484375 487.03289794921875 446.93212890625 496.000244140625 C 453.7167663574219 495.7178039550781 459.36199951171875 495.44891357421875 466.36395263671875 495.5509033203125 C 466.76141357421875 487.2184753417969 467.07183837890625 478.8127746582031 466.7832946777344 470.0949401855469" stroke-width="0.0" fill="rgb(30, 30, 30)" opacity="0.9999285" stroke="rgb(0, 0, 0)" stroke-opacity="1.0" stroke-linecap="round" stroke-linejoin="round"/>
  </g>
</svg>
