<?xml version="1.0" ?>
<svg xmlns="http://www.w3.org/2000/svg" version="1.1" width="512" height="512">
  <defs/>
  <g>
    <path d="M -3.6211087703704834 -4.557383060455322 C -1.7177371978759766 170.3333282470703 -0.3219577372074127 340.6666564941406 -0.2510663866996765 518.2992553710938 C 170.10691833496094 518.3822021484375 340.4161071777344 518.4985961914062 519.156982421875 518.7066040039062 C 519.2525634765625 340.6337890625 519.1682739257812 170.18466186523438 519.1187744140625 -4.567987442016602 C 340.6666564941406 -4.399954795837402 170.3333282470703 -4.435680866241455 -3.6211087703704834 -4.557383060455322" stroke-width="0.0" fill="rgb(209, 209, 209)" opacity="0.78960747" stroke="rgb(0, 0, 0)" stroke-opacity="1.0" stroke-linecap="round" stroke-linejoin="round"/>
    <path d="M 458.1405944824219 151.10626220703125 C 451.1734619140625 135.6258087158203 450.06805419921875 136.7165985107422 426.09674072265625 134.78810119628906 C 354.2215881347656 132.01651000976562 263.0892333984375 137.08282470703125 184.54840087890625 141.4650115966797 C 166.5623016357422 163.7173309326172 179.38510131835938 197.65391540527344 155.90704345703125 223.76840209960938 C 150.121826171875 223.1553955078125 134.77859497070312 227.0369873046875 126.7164535522461 233.2862548828125 C 129.62940979003906 245.67425537109375 140.94168090820312 249.28713989257812 147.29637145996094 262.7991027832031 C 150.2150115966797 284.2427062988281 151.91995239257812 309.83685302734375 157.32931518554688 330.4195556640625 C 159.99935913085938 334.860595703125 168.67124938964844 343.0450134277344 183.1919708251953 338.7873229980469 C 232.80247497558594 338.3240661621094 303.29998779296875 334.8946838378906 377.7074279785156 337.216064453125 C 414.5063781738281 334.3931884765625 422.1994323730469 349.2314758300781 459.615234375 342.84130859375 C 460.746337890625 333.810546875 458.35711669921875 338.463134765625 470.923828125 335.2148132324219 C 470.29156494140625 297.7195129394531 472.9444885253906 251.51431274414062 479.0576477050781 222.82217407226562 C 472.5406188964844 211.1233673095703 469.1751403808594 198.7391815185547 461.7702331542969 191.03944396972656 C 463.3692321777344 171.0904541015625 458.2999267578125 161.0460662841797 458.1405944824219 151.10626220703125" stroke-width="0.0" fill="rgb(172, 172, 172)" opacity="1.000665" stroke="rgb(0, 0, 0)" stroke-opacity="1.0" stroke-linecap="round" stroke-linejoin="round"/>
    <path d="M -9.125541687011719 102.8815689086914 C -9.56295394897461 231.49502563476562 -9.078310012817383 369.6225891113281 -8.272466659545898 518.7515869140625 C 169.11097717285156 519.3011474609375 340.18634033203125 519.3617553710938 521.0679321289062 519.1363525390625 C 521.34716796875 478.9884033203125 520.41796875 451.68695068359375 516.9358520507812 435.8915100097656 C 514.434814453125 435.59686279296875 504.105712890625 438.19427490234375 492.7755432128906 439.0216064453125 C 420.3581237792969 446.45867919921875 354.0943603515625 449.7288513183594 275.0469970703125 448.8130798339844 C 246.79449462890625 449.5066833496094 215.3658447265625 448.5478210449219 203.32846069335938 446.7671813964844 C 160.40963745117188 435.605224609375 113.32095336914062 435.28460693359375 85.23117065429688 419.8168640136719 C 72.43633270263672 411.9877624511719 71.82264709472656 411.0657043457031 70.06272888183594 394.1913146972656 C 66.16214752197266 315.0045471191406 64.05896759033203 230.23760986328125 59.71486282348633 158.97665405273438 C 56.282588958740234 136.6311798095703 40.764644622802734 129.69479370117188 34.484928131103516 115.47395324707031 C 20.57954978942871 105.6682357788086 16.910066604614258 97.62496185302734 -9.125541687011719 102.8815689086914" stroke-width="0.0" fill="rgb(61, 61, 61)" opacity="1.0797399" stroke="rgb(0, 0, 0)" stroke-opacity="1.0" stroke-linecap="round" stroke-linejoin="round"/>
    <path d="M 519.5490112304688 82.02569580078125 C 505.85528564453125 109.86925506591797 490.4795837402344 110.4561538696289 488.25982666015625 123.41035461425781 C 487.04315185546875 189.8905792236328 489.18792724609375 251.9262237548828 482.3608093261719 314.5018310546875 C 483.4130859375 349.2164611816406 482.05413818359375 377.392822265625 487.4669494628906 401.0841979980469 C 490.4132385253906 408.6130065917969 498.5755310058594 408.82891845703125 522.200439453125 415.9226379394531 C 522.758544921875 311.93878173828125 522.4790649414062 206.46624755859375 519.5490112304688 82.02569580078125" stroke-width="0.0" fill="rgb(99, 99, 99)" opacity="0.968902" stroke="rgb(0, 0, 0)" stroke-opacity="1.0" stroke-linecap="round" stroke-linejoin="round"/>
    <path d="M 315.0335388183594 77.00987243652344 C 308.7046203613281 82.41586303710938 305.3409118652344 92.49261474609375 302.51495361328125 102.7541275024414 C 303.6896667480469 109.35192108154297 301.8927917480469 128.52557373046875 304.977294921875 132.1195831298828 C 317.2205505371094 133.95761108398438 339.66851806640625 134.04722595214844 352.7529296875 131.148193359375 C 354.1654357910156 112.10309600830078 350.2163391113281 88.23087310791016 343.9649658203125 77.89480590820312 C 331.88433837890625 72.7620620727539 325.4181823730469 72.88076782226562 315.0335388183594 77.00987243652344" stroke-width="0.0" fill="rgb(204, 204, 204)" opacity="1.0416662" stroke="rgb(0, 0, 0)" stroke-opacity="1.0" stroke-linecap="round" stroke-linejoin="round"/>
    <path d="M 282.9150085449219 336.7197570800781 C 234.77947998046875 338.47625732421875 191.42550659179688 336.89483642578125 165.8363037109375 342.17889404296875 C 155.78887939453125 345.1443786621094 156.3596954345703 352.44097900390625 157.86846923828125 373.9120788574219 C 156.8836669921875 377.1124572753906 169.5419464111328 379.62762451171875 172.36138916015625 390.0988464355469 C 177.86917114257812 397.39019775390625 175.1246795654297 412.8630676269531 177.9442138671875 425.2027893066406 C 181.63250732421875 431.06719970703125 187.1688232421875 437.5779724121094 193.5455780029297 445.4490661621094 C 202.36041259765625 444.2345275878906 196.439208984375 435.81365966796875 210.9350128173828 440.0912780761719 C 214.9669647216797 444.16778564453125 210.13482666015625 449.9884948730469 230.18145751953125 448.49383544921875 C 230.3758544921875 454.0408020019531 227.73695373535156 441.2565612792969 238.61398315429688 436.8935241699219 C 239.7210693359375 438.71417236328125 245.6021728515625 440.48358154296875 249.1293182373047 442.2790222167969 C 258.7013244628906 440.9052429199219 256.1131896972656 434.83349609375 261.5694274902344 430.5362548828125 C 265.9079895019531 434.738037109375 267.33856201171875 440.6401672363281 281.1134338378906 438.4146728515625 C 277.9207763671875 398.8849182128906 277.88720703125 364.33013916015625 282.9150085449219 336.7197570800781" stroke-width="0.0" fill="rgb(143, 143, 143)" opacity="0.9711017" stroke="rgb(0, 0, 0)" stroke-opacity="1.0" stroke-linecap="round" stroke-linejoin="round"/>
    <path d="M 353.9477844238281 418.5232849121094 C 354.7564392089844 446.330078125 350.5088806152344 455.7726135253906 382.1695556640625 447.9889831542969 C 379.5060729980469 460.5226135253906 378.5949401855469 478.3060302734375 378.54840087890625 475.0099792480469 C 378.2711181640625 477.5495910644531 386.455322265625 478.1739501953125 380.70269775390625 478.9286193847656 C 377.7853088378906 460.53125 379.4737854003906 442.5009765625 388.0448303222656 449.1781311035156 C 441.3568420410156 442.9625549316406 465.1009216308594 442.81884765625 476.69219970703125 441.4106750488281 C 491.9425048828125 439.3389892578125 504.78045654296875 438.7854309082031 520.3867797851562 435.56201171875 C 520.7317504882812 447.2688293457031 513.6879272460938 458.3086853027344 521.143310546875 467.42095947265625 C 521.2737426757812 445.9201965332031 521.17041015625 429.9017333984375 520.2001342773438 414.18585205078125 C 472.3071594238281 409.623046875 413.91534423828125 411.85809326171875 372.1019287109375 410.6761169433594 C 356.5763244628906 412.3219299316406 355.10467529296875 413.5008850097656 353.9477844238281 418.5232849121094" stroke-width="0.0" fill="rgb(114, 114, 114)" opacity="0.99871534" stroke="rgb(0, 0, 0)" stroke-opacity="1.0" stroke-linecap="round" stroke-linejoin="round"/>
    <path d="M 276.4557800292969 264.333251953125 C 279.5606384277344 317.0832214355469 276.9783630371094 389.6669006347656 279.5549621582031 447.0783386230469 C 292.0332946777344 455.6558837890625 279.9155578613281 485.1693115234375 285.1553039550781 494.6280822753906 C 282.7685241699219 487.3118591308594 282.6700134277344 492.6492004394531 283.1026306152344 492.97265625 C 284.04193115234375 495.70843505859375 282.2549743652344 492.32122802734375 284.2312316894531 490.15032958984375 C 289.732666015625 404.326416015625 277.1822509765625 330.9648742675781 276.4557800292969 264.333251953125" stroke-width="0.0" fill="rgb(71, 71, 71)" opacity="1.034604" stroke="rgb(0, 0, 0)" stroke-opacity="1.0" stroke-linecap="round" stroke-linejoin="round"/>
    <path d="M 150.4228515625 272.0602722167969 C 138.5166778564453 269.2007751464844 146.48033142089844 273.25494384765625 141.51937866210938 289.9992370605469 C 116.24905395507812 290.45684814453125 91.50843811035156 290.9128112792969 73.19953155517578 289.1022644042969 C 74.13863372802734 326.4937438964844 67.14704895019531 348.7463684082031 71.5339584350586 389.01397705078125 C 75.82670593261719 385.9335021972656 72.67037200927734 400.9114685058594 78.63654327392578 403.6797790527344 C 90.06712341308594 407.97705078125 91.99942016601562 412.2927551269531 99.30477142333984 423.1673583984375 C 128.38931274414062 425.06048583984375 148.12368774414062 420.7062072753906 170.1720733642578 422.3894348144531 C 174.47760009765625 410.9740905761719 171.52301025390625 396.26312255859375 168.52723693847656 389.52545166015625 C 166.5872802734375 384.7129211425781 162.11398315429688 385.7411193847656 153.43927001953125 382.2041015625 C 153.62322998046875 387.8127746582031 149.09500122070312 383.98004150390625 159.59347534179688 380.2492980957031 C 157.55833435058594 381.4333190917969 154.08294677734375 381.25653076171875 154.7874298095703 378.3144226074219 C 149.39923095703125 368.937744140625 140.91323852539062 355.2417297363281 139.91737365722656 338.8388671875 C 139.4858856201172 315.3035583496094 148.60592651367188 296.5118103027344 150.4228515625 272.0602722167969" stroke-width="0.0" fill="rgb(224, 224, 224)" opacity="0.9837176" stroke="rgb(0, 0, 0)" stroke-opacity="1.0" stroke-linecap="round" stroke-linejoin="round"/>
    <path d="M 347.2558288574219 398.5837097167969 C 345.78411865234375 408.1086730957031 333.47955322265625 407.7803649902344 324.9803771972656 407.2072448730469 C 315.8940124511719 412.15191650390625 312.682373046875 422.84222412109375 313.6728820800781 436.4452209472656 C 314.4771423339844 428.0076599121094 325.22119140625 423.8967590332031 333.9360046386719 431.3002624511719 C 335.07891845703125 436.0421142578125 335.7167663574219 456.819580078125 333.79693603515625 448.4555358886719 C 350.9051513671875 449.21844482421875 355.45745849609375 449.0863037109375 351.3186340332031 447.8876647949219 C 363.72198486328125 454.59625244140625 351.626953125 443.475830078125 354.7134704589844 410.43505859375 C 351.3748474121094 415.5774841308594 347.91607666015625 406.73114013671875 347.2558288574219 398.5837097167969" stroke-width="0.0" fill="rgb(114, 114, 114)" opacity="0.9938238" stroke="rgb(0, 0, 0)" stroke-opacity="1.0" stroke-linecap="round" stroke-linejoin="round"/>
    <path d="M 461.42724609375 356.5765686035156 C 456.1370849609375 371.7223205566406 465.1130676269531 373.35589599609375 455.20391845703125 382.9410400390625 C 456.0570068359375 407.5805358886719 469.09716796875 391.4778747558594 472.1575927734375 407.16888427734375 C 484.740478515625 411.375 477.6662902832031 391.8319091796875 491.23712158203125 388.9360656738281 C 492.3650817871094 378.87200927734375 490.0985412597656 368.0522155761719 493.3407287597656 360.7606201171875 C 479.0424499511719 360.7093200683594 475.7351379394531 352.82269287109375 461.42724609375 356.5765686035156" stroke-width="0.0" fill="rgb(131, 131, 131)" opacity="0.8869068" stroke="rgb(0, 0, 0)" stroke-opacity="1.0" stroke-linecap="round" stroke-linejoin="round"/>
    <path d="M 319.2547912597656 415.3155822753906 C 307.5063171386719 419.1897277832031 297.4483642578125 424.0920715332031 291.7358093261719 429.17919921875 C 291.83038330078125 436.1739501953125 291.7472229003906 448.47216796875 291.9826354980469 448.70391845703125 C 295.80499267578125 448.42694091796875 307.2066955566406 449.1863098144531 313.6304626464844 449.22271728515625 C 316.188232421875 432.5205993652344 308.6252136230469 427.7567443847656 319.2547912597656 415.3155822753906" stroke-width="0.0" fill="rgb(94, 94, 94)" opacity="1.0954037" stroke="rgb(0, 0, 0)" stroke-opacity="1.0" stroke-linecap="round" stroke-linejoin="round"/>
    <path d="M 151.6104736328125 379.2044372558594 C 150.6826629638672 379.04412841796875 158.3721466064453 388.910888671875 171.02685546875 385.1395263671875 C 153.4088897705078 371.41119384765625 167.28797912597656 371.8139953613281 163.5975341796875 373.37420654296875 C 161.2505340576172 370.824462890625 161.48313903808594 378.41082763671875 164.8314666748047 379.7220764160156 C 173.34234619140625 380.8883972167969 161.97679138183594 383.72149658203125 157.0308074951172 364.4617614746094 C 148.67840576171875 362.7445983886719 147.1279296875 356.2876892089844 144.268310546875 358.7530822753906 C 150.11434936523438 360.5718078613281 144.945556640625 366.6994323730469 154.62313842773438 378.0720520019531 C 154.938232421875 379.9185791015625 151.7172088623047 383.668701171875 151.6104736328125 379.2044372558594" stroke-width="0.0" fill="rgb(170, 170, 170)" opacity="0.9668786" stroke="rgb(0, 0, 0)" stroke-opacity="1.0" stroke-linecap="round" stroke-linejoin="round"/>
    <path d="M 473.046875 268.3166809082031 C 466.82257080078125 284.21234130859375 484.8190002441406 276.3411560058594 480.3753967285156 306.7861022949219 C 483.8283386230469 316.048828125 483.0343017578125 316.51251220703125 483.78826904296875 312.9949035644531 C 485.0810852050781 300.7649841308594 485.3564147949219 276.14154052734375 486.9114685058594 252.4460906982422 C 481.1156921386719 252.52928161621094 473.4305114746094 247.05999755859375 473.046875 268.3166809082031" stroke-width="0.0" fill="rgb(90, 90, 90)" opacity="1.040666" stroke="rgb(0, 0, 0)" stroke-opacity="1.0" stroke-linecap="round" stroke-linejoin="round"/>
    <path d="M 413.75616455078125 348.5223693847656 C 405.7571716308594 358.9400939941406 395.3170166015625 371.7646484375 381.20758056640625 384.5570983886719 C 395.17828369140625 386.19659423828125 417.2732849121094 384.2173156738281 428.3187561035156 382.7959899902344 C 431.8460388183594 373.506591796875 421.4670104980469 379.15618896484375 411.0691223144531 375.0325622558594 C 408.02423095703125 351.1474304199219 425.47784423828125 357.658935546875 413.75616455078125 348.5223693847656" stroke-width="0.0" fill="rgb(107, 107, 107)" opacity="0.9994326" stroke="rgb(0, 0, 0)" stroke-opacity="1.0" stroke-linecap="round" stroke-linejoin="round"/>
    <path d="M 446.4939270019531 125.86746978759766 C 441.8154296875 128.6032257080078 448.9378662109375 137.49085998535156 451.8809814453125 147.3303680419922 C 455.37451171875 147.7633819580078 460.4898986816406 152.26210021972656 465.16644287109375 153.23117065429688 C 471.7725524902344 151.22531127929688 469.2716369628906 139.17501831054688 465.295654296875 135.07089233398438 C 458.48309326171875 132.45545959472656 451.6676025390625 120.75855255126953 446.4939270019531 125.86746978759766" stroke-width="0.0" fill="rgb(196, 196, 196)" opacity="0.9944409" stroke="rgb(0, 0, 0)" stroke-opacity="1.0" stroke-linecap="round" stroke-linejoin="round"/>
    <path d="M 32.94666290283203 451.3435363769531 C 37.93699645996094 449.6596374511719 39.424774169921875 479.5486755371094 39.11910629272461 518.3639526367188 C 168.66769409179688 521.92919921875 338.939453125 522.1599731445312 518.603515625 521.3746337890625 C 519.40283203125 486.5294189453125 518.8718872070312 461.58966064453125 518.2283935546875 443.0320739746094 C 506.9530334472656 440.36468505859375 505.8412170410156 436.6358947753906 507.53240966796875 442.3468017578125 C 498.5707092285156 437.97772216796875 484.54144287109375 440.48828125 471.79510498046875 441.2703552246094 C 455.55615234375 444.46551513671875 435.468017578125 439.9017333984375 422.61309814453125 447.3878173828125 C 353.1246337890625 450.0807189941406 285.40484619140625 449.0301513671875 212.89163208007812 448.9241027832031 C 190.15399169921875 444.3163146972656 157.10446166992188 441.50811767578125 130.047607421875 436.9029235839844 C 104.7158203125 432.4748229980469 91.99980163574219 424.93865966796875 72.94832611083984 418.7421569824219 C 83.97713470458984 447.9972229003906 83.06970977783203 454.5336608886719 69.03179931640625 467.8691711425781 C 21.587032318115234 460.822998046875 12.387322425842285 452.9644470214844 32.94666290283203 451.3435363769531" stroke-width="0.0" fill="rgb(99, 99, 99)" opacity="0.9044322" stroke="rgb(0, 0, 0)" stroke-opacity="1.0" stroke-linecap="round" stroke-linejoin="round"/>
    <path d="M -6.619655609130859 98.59649658203125 C -8.519938468933105 233.72853088378906 -8.81814193725586 372.9934997558594 -7.766517162322998 520.8380126953125 C 26.65478515625 520.9466552734375 53.32050323486328 521.1019897460938 85.00904083251953 521.8279418945312 C 77.56609344482422 496.91748046875 80.90705871582031 482.3548583984375 83.4909896850586 464.0525207519531 C 83.88776397705078 440.9670104980469 72.67413330078125 429.2810974121094 70.83879089355469 386.6622009277344 C 70.4186782836914 308.0544128417969 62.48699951171875 236.8031463623047 62.58839797973633 153.13113403320312 C 52.947166442871094 133.830322265625 38.456119537353516 120.9616928100586 28.864599227905273 107.59791564941406 C 18.081167221069336 102.1675796508789 14.340365409851074 96.21041870117188 -6.619655609130859 98.59649658203125" stroke-width="0.0" fill="rgb(106, 106, 106)" opacity="0.6450453" stroke="rgb(0, 0, 0)" stroke-opacity="1.0" stroke-linecap="round" stroke-linejoin="round"/>
    <path d="M 456.514404296875 146.6023712158203 C 453.9273376464844 143.9874267578125 450.5887145996094 138.18606567382812 450.2510070800781 138.5314178466797 C 435.9149475097656 133.5796356201172 423.0421142578125 135.79879760742188 410.5552062988281 134.1381072998047 C 334.4813537597656 132.53140258789062 260.2323913574219 137.24591064453125 195.57582092285156 140.53781127929688 C 181.12982177734375 143.6420135498047 180.01222229003906 143.09486389160156 177.15158081054688 152.98744201660156 C 171.76483154296875 174.1990203857422 172.3961181640625 200.21255493164062 163.0080108642578 226.4642791748047 C 265.8687438964844 220.7555694580078 367.36749267578125 217.9725799560547 448.391357421875 218.304931640625 C 457.33135986328125 216.7374267578125 465.1053466796875 217.81593322753906 460.23712158203125 206.82452392578125 C 455.11956787109375 199.35052490234375 458.97119140625 171.98370361328125 456.514404296875 146.6023712158203" stroke-width="0.0" fill="rgb(209, 209, 209)" opacity="1.0594424" stroke="rgb(0, 0, 0)" stroke-opacity="1.0" stroke-linecap="round" stroke-linejoin="round"/>
    <path d="M 456.08990478515625 219.30258178710938 C 367.1136474609375 217.266845703125 279.0464782714844 221.7555694580078 190.37744140625 224.52915954589844 C 167.33013916015625 226.7270965576172 144.7258758544922 223.5723419189453 140.1575469970703 230.52426147460938 C 133.6582794189453 240.7726593017578 145.9107208251953 237.18016052246094 167.15565490722656 238.56219482421875 C 261.66339111328125 234.92030334472656 361.9991760253906 233.24722290039062 452.3536071777344 230.376953125 C 463.229736328125 228.59869384765625 462.369384765625 220.9097900390625 456.08990478515625 219.30258178710938" stroke-width="0.0" fill="rgb(72, 72, 72)" opacity="0.9974378" stroke="rgb(0, 0, 0)" stroke-opacity="1.0" stroke-linecap="round" stroke-linejoin="round"/>
    <path d="M 515.6724853515625 85.61907958984375 C 500.59686279296875 104.6422348022461 508.0845642089844 103.68064880371094 487.246826171875 109.37210845947266 C 485.9562683105469 159.66612243652344 488.39697265625 213.94395446777344 490.6727294921875 259.1733093261719 C 493.89215087890625 271.68353271484375 503.1365051269531 275.8782653808594 501.8426208496094 290.2972412109375 C 503.2102355957031 288.6488342285156 504.49462890625 294.3161926269531 507.2911071777344 296.9112243652344 C 507.6505126953125 291.7439270019531 508.29949951171875 299.0162658691406 521.140625 310.34246826171875 C 520.7463989257812 229.95848083496094 519.6737060546875 160.98414611816406 515.6724853515625 85.61907958984375" stroke-width="0.0" fill="rgb(129, 129, 129)" opacity="0.89942217" stroke="rgb(0, 0, 0)" stroke-opacity="1.0" stroke-linecap="round" stroke-linejoin="round"/>
    <path d="M 356.2147521972656 416.8769836425781 C 354.32147216796875 422.6908874511719 358.4024963378906 431.8612976074219 361.2204284667969 438.0088806152344 C 400.9700622558594 446.4775695800781 441.0316467285156 443.965087890625 492.7393798828125 440.34552001953125 C 500.4283447265625 437.9851379394531 506.7830810546875 442.65643310546875 503.80328369140625 435.9416198730469 C 507.5874938964844 437.22491455078125 506.3672180175781 442.48199462890625 519.5110473632812 441.9122619628906 C 518.0344848632812 430.5059509277344 516.8125 422.27935791015625 516.7620239257812 415.2829284667969 C 472.7374267578125 409.20635986328125 428.87286376953125 409.9056701660156 386.6658935546875 409.9731750488281 C 371.6171569824219 413.4666748046875 356.60284423828125 406.89813232421875 356.2147521972656 416.8769836425781" stroke-width="0.0" fill="rgb(119, 119, 119)" opacity="0.72610074" stroke="rgb(0, 0, 0)" stroke-opacity="1.0" stroke-linecap="round" stroke-linejoin="round"/>
    <path d="M 313.5892333984375 79.0027847290039 C 313.23779296875 85.18042755126953 311.2892761230469 111.75691986083984 312.34515380859375 125.5301742553711 C 317.33575439453125 126.69474029541016 338.2606506347656 126.60408020019531 349.2108154296875 125.6612548828125 C 348.3616638183594 105.51173400878906 350.6180114746094 87.36137390136719 346.7569885253906 79.03009033203125 C 344.3916015625 73.52533721923828 322.8800964355469 72.80243682861328 313.5892333984375 79.0027847290039" stroke-width="0.0" fill="rgb(168, 168, 168)" opacity="1.0022167" stroke="rgb(0, 0, 0)" stroke-opacity="1.0" stroke-linecap="round" stroke-linejoin="round"/>
    <path d="M 272.2741394042969 241.32257080078125 C 279.12567138671875 236.4623565673828 276.07684326171875 253.8390350341797 278.1502685546875 242.2869415283203 C 278.9979553222656 312.2991027832031 286.0904235839844 391.8542785644531 284.2798156738281 477.8177490234375 C 274.56658935546875 398.902099609375 277.0438537597656 309.1036071777344 272.2741394042969 241.32257080078125" stroke-width="0.0" fill="rgb(68, 68, 68)" opacity="0.8975244" stroke="rgb(0, 0, 0)" stroke-opacity="1.0" stroke-linecap="round" stroke-linejoin="round"/>
    <path d="M 478.6578063964844 323.4043884277344 C 479.5822448730469 312.5921325683594 454.12799072265625 310.621826171875 442.4707336425781 303.29736328125 C 384.43994140625 303.94976806640625 332.9951477050781 304.1497497558594 280.9513854980469 306.4263916015625 C 281.6014709472656 307.0363464355469 279.0276184082031 314.119140625 284.24591064453125 314.2739562988281 C 334.68194580078125 313.556396484375 385.56756591796875 311.3539123535156 433.8080139160156 309.2800598144531 C 448.9728088378906 311.6871337890625 461.8752746582031 322.385009765625 478.6578063964844 323.4043884277344" stroke-width="0.0" fill="rgb(132, 132, 132)" opacity="1.0260936" stroke="rgb(0, 0, 0)" stroke-opacity="1.0" stroke-linecap="round" stroke-linejoin="round"/>
    <path d="M 273.4673156738281 306.4045104980469 C 229.58416748046875 307.9212341308594 173.2201385498047 307.8377990722656 138.43385314941406 314.86083984375 C 168.1822052001953 322.87103271484375 222.9090576171875 313.11767578125 280.69500732421875 315.70648193359375 C 274.8626403808594 314.08050537109375 274.6373596191406 319.7145080566406 273.4673156738281 306.4045104980469" stroke-width="0.0" fill="rgb(139, 139, 139)" opacity="0.95334893" stroke="rgb(0, 0, 0)" stroke-opacity="1.0" stroke-linecap="round" stroke-linejoin="round"/>
    <path d="M 279.8079528808594 284.5480651855469 C 229.01016235351562 289.1642761230469 162.39442443847656 285.2041320800781 143.86940002441406 297.56341552734375 C 182.85842895507812 299.20074462890625 231.1923065185547 293.9610900878906 274.0200500488281 294.62762451171875 C 273.4270324707031 285.62615966796875 276.4493103027344 284.449462890625 279.8079528808594 284.5480651855469" stroke-width="0.0" fill="rgb(136, 136, 136)" opacity="0.96512866" stroke="rgb(0, 0, 0)" stroke-opacity="1.0" stroke-linecap="round" stroke-linejoin="round"/>
    <path d="M 338.6553955078125 419.0674743652344 C 331.9189758300781 421.6396789550781 338.1419372558594 440.585693359375 331.80389404296875 453.1236267089844 C 337.5673828125 455.66668701171875 347.52984619140625 462.2458190917969 353.1836853027344 460.8341369628906 C 359.70709228515625 447.51690673828125 349.4688720703125 434.6884765625 356.85028076171875 416.5743713378906 C 355.20599365234375 413.37567138671875 338.8785400390625 411.1014709472656 338.6553955078125 419.0674743652344" stroke-width="0.0" fill="rgb(127, 127, 127)" opacity="1.0039924" stroke="rgb(0, 0, 0)" stroke-opacity="1.0" stroke-linecap="round" stroke-linejoin="round"/>
    <path d="M 512.8468017578125 382.8102111816406 C 506.7059326171875 390.2323913574219 494.7516174316406 387.7803039550781 484.42755126953125 392.488525390625 C 483.33880615234375 398.068115234375 479.5166320800781 403.2500915527344 478.23370361328125 410.3108215332031 C 492.72735595703125 408.6315612792969 498.24700927734375 411.339599609375 517.0140991210938 416.89501953125 C 518.4213256835938 404.4416809082031 518.0616455078125 394.3523864746094 512.8468017578125 382.8102111816406" stroke-width="0.0" fill="rgb(60, 60, 60)" opacity="0.95186627" stroke="rgb(0, 0, 0)" stroke-opacity="1.0" stroke-linecap="round" stroke-linejoin="round"/>
    <path d="M 503.87908935546875 283.1966552734375 C 498.7569274902344 282.2587585449219 504.17022705078125 300.3922119140625 501.07666015625 325.7181091308594 C 503.1629943847656 331.59564208984375 502.1512451171875 332.0619201660156 521.721923828125 328.02227783203125 C 527.0388793945312 310.02294921875 507.8823547363281 297.4611511230469 500.9264221191406 288.4618835449219 C 502.7613220214844 289.2341003417969 499.2645568847656 283.73974609375 503.87908935546875 283.1966552734375" stroke-width="0.0" fill="rgb(24, 24, 24)" opacity="1.0540954" stroke="rgb(0, 0, 0)" stroke-opacity="1.0" stroke-linecap="round" stroke-linejoin="round"/>
    <path d="M 148.99134826660156 365.7763366699219 C 158.63853454589844 371.21527099609375 163.26715087890625 385.63958740234375 176.66799926757812 391.9679260253906 C 181.8795166015625 389.1221618652344 179.6258544921875 372.51446533203125 182.2615203857422 367.5810546875 C 173.9615936279297 357.57623291015625 166.24948120117188 361.6385192871094 148.99134826660156 365.7763366699219" stroke-width="0.0" fill="rgb(138, 138, 138)" opacity="0.97278553" stroke="rgb(0, 0, 0)" stroke-opacity="1.0" stroke-linecap="round" stroke-linejoin="round"/>
    <path d="M 336.6687316894531 406.4630126953125 C 334.5407409667969 404.20452880859375 333.6459045410156 410.5572814941406 331.08685302734375 410.99237060546875 C 329.14227294921875 410.5155334472656 324.6603088378906 405.9683532714844 328.2724609375 402.7206726074219 C 319.3331298828125 412.57989501953125 314.1393737792969 420.85028076171875 307.79278564453125 435.46881103515625 C 320.77008056640625 428.0713806152344 323.30267333984375 425.178466796875 333.5594482421875 430.2140197753906 C 339.58953857421875 423.1673889160156 341.1400146484375 412.7026062011719 336.6687316894531 406.4630126953125" stroke-width="0.0" fill="rgb(76, 76, 76)" opacity="1.0042216" stroke="rgb(0, 0, 0)" stroke-opacity="1.0" stroke-linecap="round" stroke-linejoin="round"/>
    <path d="M 177.3820343017578 403.4890441894531 C 178.53663635253906 403.8476867675781 177.9634552001953 417.0558776855469 177.83673095703125 423.1658935546875 C 183.01344299316406 433.2138366699219 189.84376525878906 441.9577331542969 196.79917907714844 452.624755859375 C 199.9878692626953 455.6324768066406 199.32357788085938 446.3974304199219 197.97879028320312 442.89031982421875 C 202.1826629638672 438.77276611328125 203.0079345703125 436.8744201660156 210.64556884765625 438.4732666015625 C 217.43553161621094 444.1854553222656 213.0138397216797 444.07293701171875 215.8023223876953 453.8611755371094 C 219.61676025390625 456.72784423828125 234.3532257080078 456.1448669433594 233.50869750976562 451.9336242675781 C 215.25018310546875 434.4019470214844 199.85975646972656 419.0849304199219 177.3820343017578 403.4890441894531" stroke-width="0.0" fill="rgb(210, 210, 210)" opacity="1.0239254" stroke="rgb(0, 0, 0)" stroke-opacity="1.0" stroke-linecap="round" stroke-linejoin="round"/>
    <path d="M 315.4569091796875 415.6098327636719 C 309.4585266113281 416.939208984375 300.710205078125 422.16278076171875 294.0304260253906 426.7501220703125 C 294.0066223144531 432.5987243652344 293.6581726074219 444.269775390625 294.21063232421875 451.40423583984375 C 301.6943664550781 447.5394287109375 306.828857421875 443.83319091796875 311.6802673339844 441.09857177734375 C 315.92401123046875 428.5518493652344 307.78515625 430.14044189453125 310.2445373535156 426.336669921875 C 308.90374755859375 422.5753479003906 312.60638427734375 424.1896057128906 317.1825866699219 425.6073303222656 C 315.8608093261719 419.1988220214844 320.33258056640625 417.5551452636719 315.4569091796875 415.6098327636719" stroke-width="0.0" fill="rgb(140, 140, 140)" opacity="0.9741077" stroke="rgb(0, 0, 0)" stroke-opacity="1.0" stroke-linecap="round" stroke-linejoin="round"/>
    <path d="M 517.6212768554688 446.29498291015625 C 499.10211181640625 438.6002197265625 484.9258117675781 439.9674072265625 458.06036376953125 439.8007507324219 C 417.71563720703125 448.3674621582031 377.2868347167969 451.6142272949219 331.2629089355469 450.2167053222656 C 314.8775939941406 453.4162292480469 310.312744140625 460.6308898925781 307.7704772949219 458.2901611328125 C 299.4357604980469 459.18475341796875 286.7358703613281 454.44720458984375 286.30401611328125 458.7259216308594 C 287.96624755859375 460.061279296875 282.6473693847656 458.9468688964844 284.5750427246094 455.4411315917969 C 244.7532501220703 454.9574890136719 213.68348693847656 457.2763671875 177.84600830078125 452.0325927734375 C 160.84149169921875 457.47021484375 147.22607421875 459.7961120605469 137.17384338378906 470.26678466796875 C 131.13131713867188 483.6351318359375 119.87193298339844 485.015625 124.99227142333984 519.1130981445312 C 258.6900939941406 519.3575439453125 385.386962890625 519.2056884765625 518.8712768554688 518.953369140625 C 520.0423583984375 490.207275390625 520.3387451171875 468.7205810546875 517.6212768554688 446.29498291015625" stroke-width="0.0" fill="rgb(117, 117, 117)" opacity="0.72802484" stroke="rgb(0, 0, 0)" stroke-opacity="1.0" stroke-linecap="round" stroke-linejoin="round"/>
    <path d="M 127.33119201660156 458.0917663574219 C 119.86354064941406 439.1880187988281 97.04507446289062 424.7476806640625 72.52245330810547 407.3445129394531 C 66.86541748046875 417.88873291015625 57.819969177246094 417.71063232421875 44.45277404785156 420.2581481933594 C 34.62592315673828 420.1911926269531 12.262667655944824 419.8572998046875 -10.180707931518555 420.71392822265625 C -9.206564903259277 445.2412109375 -8.695321083068848 476.4907531738281 -8.413230895996094 520.2748413085938 C 39.25706100463867 520.50439453125 83.48858642578125 521.0372314453125 122.98548126220703 523.4139404296875 C 134.07908630371094 479.7858581542969 131.22410583496094 463.053466796875 127.33119201660156 458.0917663574219" stroke-width="0.0" fill="rgb(108, 108, 108)" opacity="0.99788237" stroke="rgb(0, 0, 0)" stroke-opacity="1.0" stroke-linecap="round" stroke-linejoin="round"/>
    <path d="M 43.626808166503906 134.4761199951172 C 40.74055099487305 228.26467895507812 46.519832611083984 308.1658630371094 43.48704147338867 396.7550964355469 C 44.362586975097656 409.9025573730469 50.1342887878418 411.12158203125 53.98457717895508 413.0883483886719 C 69.00560760498047 411.15032958984375 70.6126937866211 412.66729736328125 71.47525787353516 394.2967224121094 C 66.97161102294922 359.6749267578125 71.60710144042969 334.28985595703125 71.13228607177734 290.0901794433594 C 65.56179809570312 283.19354248046875 66.92027282714844 284.1553039550781 65.25906372070312 273.6172180175781 C 64.03998565673828 233.4077606201172 63.42728042602539 189.9845428466797 62.91912078857422 151.24652099609375 C 62.36836242675781 145.04794311523438 57.593082427978516 142.74317932128906 56.46920394897461 137.57357788085938 C 50.264404296875 136.99359130859375 47.6882438659668 134.1880340576172 43.626808166503906 134.4761199951172" stroke-width="0.0" fill="rgb(62, 62, 62)" opacity="0.78806955" stroke="rgb(0, 0, 0)" stroke-opacity="1.0" stroke-linecap="round" stroke-linejoin="round"/>
    <path d="M 130.89112854003906 480.2786865234375 C 128.50546264648438 478.32281494140625 136.71090698242188 479.74298095703125 131.74400329589844 489.64581298828125 C 131.65090942382812 498.65533447265625 131.07041931152344 476.6160888671875 135.00474548339844 461.2373352050781 C 144.96176147460938 466.5735778808594 141.73170471191406 468.82208251953125 146.40708923339844 462.6119384765625 C 152.4439239501953 464.4686584472656 151.7465057373047 464.9881591796875 145.6569366455078 458.2974853515625 C 152.11941528320312 465.7350769042969 154.06417846679688 465.6485900878906 149.0333251953125 463.6432189941406 C 145.96762084960938 459.76910400390625 158.7867889404297 461.1039733886719 176.00729370117188 450.258544921875 C 178.9299774169922 447.1474304199219 184.59092712402344 457.9829406738281 191.77427673339844 449.6645812988281 C 188.7593231201172 441.4385070800781 181.5142364501953 432.46337890625 171.53042602539062 423.6463317871094 C 153.333251953125 423.6972961425781 122.14594268798828 425.2822570800781 93.73890686035156 424.124267578125 C 125.71560668945312 444.6771240234375 132.12779235839844 460.0164794921875 130.89112854003906 480.2786865234375" stroke-width="0.0" fill="rgb(84, 84, 84)" opacity="1.0138326" stroke="rgb(0, 0, 0)" stroke-opacity="1.0" stroke-linecap="round" stroke-linejoin="round"/>
    <path d="M 457.977294921875 209.8035888671875 C 457.343017578125 197.1003875732422 449.1478271484375 198.85391235351562 438.75634765625 197.08401489257812 C 343.92852783203125 196.32852172851562 253.80799865722656 197.3759307861328 170.3159942626953 205.1514892578125 C 164.74356079101562 205.8199920654297 153.14695739746094 212.1477813720703 165.81283569335938 217.98681640625 C 263.4805603027344 215.5382843017578 360.4986572265625 211.45556640625 457.977294921875 209.8035888671875" stroke-width="0.0" fill="rgb(144, 144, 144)" opacity="1.0021856" stroke="rgb(0, 0, 0)" stroke-opacity="1.0" stroke-linecap="round" stroke-linejoin="round"/>
    <path d="M 464.9208984375 166.5950469970703 C 458.6602478027344 155.78311157226562 452.30621337890625 155.67254638671875 435.9060363769531 153.9998016357422 C 404.4501953125 153.68002319335938 366.1898193359375 151.48248291015625 347.8922119140625 152.231689453125 C 284.4136047363281 154.16366577148438 221.72776794433594 155.15599060058594 176.00669860839844 162.81561279296875 C 174.01742553710938 161.3562469482422 169.38015747070312 168.42808532714844 173.54197692871094 171.35183715820312 C 265.99676513671875 165.13038635253906 373.08154296875 158.70188903808594 464.9208984375 166.5950469970703" stroke-width="0.0" fill="rgb(136, 136, 136)" opacity="0.98947716" stroke="rgb(0, 0, 0)" stroke-opacity="1.0" stroke-linecap="round" stroke-linejoin="round"/>
    <path d="M 504.90826416015625 106.52617645263672 C 495.47564697265625 105.80448150634766 489.7541198730469 108.619384765625 487.35430908203125 107.7030029296875 C 485.07293701171875 163.5314178466797 488.67254638671875 209.58169555664062 489.5326843261719 258.3597412109375 C 498.9898681640625 260.20440673828125 503.556396484375 254.923583984375 501.9578857421875 253.59523010253906 C 503.862060546875 203.97024536132812 503.7392272949219 155.8130645751953 504.90826416015625 106.52617645263672" stroke-width="0.0" fill="rgb(188, 188, 188)" opacity="1.1524029" stroke="rgb(0, 0, 0)" stroke-opacity="1.0" stroke-linecap="round" stroke-linejoin="round"/>
    <path d="M 520.6221313476562 86.89318084716797 C 504.20440673828125 91.35916900634766 502.4101257324219 100.5649642944336 504.0470275878906 109.81778717041016 C 503.7476501464844 179.3571319580078 500.25262451171875 255.96368408203125 502.4570007324219 335.8437805175781 C 512.6279296875 353.994384765625 501.9809875488281 382.8995056152344 516.216552734375 401.692626953125 C 521.6072998046875 285.8608093261719 521.260009765625 187.01004028320312 520.6221313476562 86.89318084716797" stroke-width="0.0" fill="rgb(74, 74, 74)" opacity="0.6989622" stroke="rgb(0, 0, 0)" stroke-opacity="1.0" stroke-linecap="round" stroke-linejoin="round"/>
    <path d="M 355.49755859375 421.64898681640625 C 406.1917419433594 421.390380859375 460.92889404296875 420.25164794921875 513.8504028320312 427.90130615234375 C 520.2750244140625 429.0262451171875 519.7470703125 422.91424560546875 518.4547729492188 414.5782775878906 C 468.2604064941406 409.8288879394531 409.9034729003906 411.5590515136719 363.3829650878906 410.8329772949219 C 354.10101318359375 413.29058837890625 358.78118896484375 410.6896667480469 355.49755859375 421.64898681640625" stroke-width="0.0" fill="rgb(173, 173, 173)" opacity="0.96364594" stroke="rgb(0, 0, 0)" stroke-opacity="1.0" stroke-linecap="round" stroke-linejoin="round"/>
    <path d="M 373.9310607910156 440.6595153808594 C 404.9100341796875 441.287353515625 438.22760009765625 442.3692932128906 470.40667724609375 439.3028869628906 C 457.71710205078125 428.7839660644531 437.1248474121094 434.26873779296875 419.2087097167969 429.781005859375 C 400.16497802734375 428.8697509765625 385.3470458984375 430.40106201171875 373.9310607910156 440.6595153808594" stroke-width="0.0" fill="rgb(198, 198, 198)" opacity="0.9926026" stroke="rgb(0, 0, 0)" stroke-opacity="1.0" stroke-linecap="round" stroke-linejoin="round"/>
    <path d="M -10.828678131103516 98.41787719726562 C -11.707511901855469 162.72225952148438 -11.400538444519043 241.04055786132812 -10.24089241027832 321.5732727050781 C 4.652064800262451 327.8007507324219 8.644048690795898 330.225830078125 10.011491775512695 331.2914733886719 C 4.2023820877075195 331.3051452636719 5.693516731262207 330.66143798828125 5.735809803009033 330.97113037109375 C 17.315622329711914 332.5581970214844 23.1857967376709 340.4512634277344 32.145408630371094 344.23468017578125 C 30.979528427124023 340.3780822753906 33.54845428466797 362.8495178222656 30.3147029876709 367.35455322265625 C 29.41060447692871 361.63751220703125 31.671627044677734 361.9848327636719 28.139097213745117 359.588623046875 C 22.89678192138672 367.19525146484375 26.71763038635254 369.9866943359375 21.241409301757812 375.06182861328125 C 12.931113243103027 372.7352294921875 16.79787254333496 368.8094177246094 12.400516510009766 372.3846130371094 C 12.575414657592773 369.89776611328125 11.425012588500977 363.305419921875 5.95477819442749 356.62255859375 C 8.587461471557617 356.9332580566406 8.029112815856934 371.8162841796875 5.343874931335449 373.60528564453125 C 5.373200416564941 370.0312194824219 7.878005504608154 378.0483703613281 16.117883682250977 376.1662902832031 C 16.250364303588867 381.40631103515625 15.508941650390625 404.5400695800781 16.12026023864746 410.3529357910156 C 19.73238182067871 411.896728515625 26.993621826171875 412.1748962402344 36.81507873535156 412.351318359375 C 34.78997802734375 313.02093505859375 43.368858337402344 225.27171325683594 42.394832611083984 141.0883331298828 C 41.91570281982422 114.10855865478516 30.20829963684082 109.48104858398438 24.506074905395508 97.9214096069336 C 14.521506309509277 98.44886016845703 13.137755393981934 93.28357696533203 -10.828678131103516 98.41787719726562" stroke-width="0.0" fill="rgb(78, 78, 78)" opacity="0.93397474" stroke="rgb(0, 0, 0)" stroke-opacity="1.0" stroke-linecap="round" stroke-linejoin="round"/>
    <path d="M 466.3903503417969 140.326171875 C 464.37640380859375 136.99778747558594 457.1548156738281 129.5499267578125 451.33929443359375 127.19219970703125 C 418.0758972167969 126.71469116210938 375.9905700683594 126.35743713378906 320.0380554199219 127.46621704101562 C 289.0250244140625 139.23011779785156 249.55072021484375 125.64383697509766 182.0662841796875 135.64132690429688 C 174.66343688964844 134.1708221435547 170.63880920410156 144.06407165527344 173.3656463623047 155.6298065185547 C 223.8182373046875 148.00482177734375 279.2151794433594 147.68777465820312 337.2564392089844 145.43870544433594 C 359.3450622558594 144.8174285888672 394.7894592285156 145.00379943847656 415.400390625 145.10987854003906 C 438.03680419921875 147.4921112060547 451.9715576171875 144.89743041992188 467.3252868652344 154.15757751464844 C 469.1160888671875 149.721923828125 468.1642150878906 145.44525146484375 466.3903503417969 140.326171875" stroke-width="0.0" fill="rgb(172, 172, 172)" opacity="1.0338641" stroke="rgb(0, 0, 0)" stroke-opacity="1.0" stroke-linecap="round" stroke-linejoin="round"/>
    <path d="M 259.5669250488281 177.14805603027344 C 232.94366455078125 177.68148803710938 205.87171936035156 180.52293395996094 181.4567108154297 182.326171875 C 174.11512756347656 183.15602111816406 167.87844848632812 185.302001953125 174.20101928710938 192.1560821533203 C 200.2285614013672 190.4707489013672 226.9048309326172 188.2246856689453 252.197021484375 187.22532653808594 C 258.9424743652344 182.8391571044922 259.15533447265625 192.2491455078125 259.5669250488281 177.14805603027344" stroke-width="0.0" fill="rgb(210, 210, 210)" opacity="0.99883085" stroke="rgb(0, 0, 0)" stroke-opacity="1.0" stroke-linecap="round" stroke-linejoin="round"/>
    <path d="M 336.8551025390625 83.6432876586914 C 331.7930908203125 84.37982177734375 325.71966552734375 85.41981506347656 323.7177429199219 84.5743408203125 C 316.3424072265625 88.04906463623047 319.9584045410156 99.33699035644531 318.72442626953125 110.35755157470703 C 324.9167175292969 110.23580169677734 334.0386962890625 109.85708618164062 342.53875732421875 110.11546325683594 C 338.5814208984375 98.7168197631836 344.5213623046875 88.60116577148438 336.8551025390625 83.6432876586914" stroke-width="0.0" fill="rgb(208, 208, 208)" opacity="1.0005115" stroke="rgb(0, 0, 0)" stroke-opacity="1.0" stroke-linecap="round" stroke-linejoin="round"/>
    <path d="M 334.7006530761719 436.24169921875 C 335.5245361328125 441.8004455566406 333.2232666015625 451.9720153808594 331.8290710449219 451.69989013671875 C 334.5832824707031 450.707763671875 349.2210693359375 452.648681640625 354.4894104003906 450.6444396972656 C 353.7433776855469 457.9831237792969 357.4620056152344 446.3273620605469 352.81439208984375 434.7259521484375 C 348.552734375 435.7584228515625 337.7767028808594 433.8909912109375 334.7006530761719 436.24169921875" stroke-width="0.0" fill="rgb(144, 144, 144)" opacity="1.035919" stroke="rgb(0, 0, 0)" stroke-opacity="1.0" stroke-linecap="round" stroke-linejoin="round"/>
    <path d="M 429.37176513671875 423.9070739746094 C 432.4895324707031 421.27099609375 399.758056640625 419.9042663574219 355.0087585449219 421.33209228515625 C 357.0068054199219 419.31573486328125 350.2254638671875 432.261962890625 355.8821716308594 446.6951904296875 C 354.3145446777344 444.5863342285156 360.4738464355469 447.2917785644531 371.4475402832031 447.164794921875 C 373.44805908203125 443.002685546875 379.0226135253906 437.9046936035156 382.4347229003906 433.9960632324219 C 408.5097961425781 431.2484130859375 422.555908203125 418.79302978515625 429.37176513671875 423.9070739746094" stroke-width="0.0" fill="rgb(150, 150, 150)" opacity="0.92013335" stroke="rgb(0, 0, 0)" stroke-opacity="1.0" stroke-linecap="round" stroke-linejoin="round"/>
    <path d="M -7.460988998413086 323.4501647949219 C -4.894526481628418 338.3333435058594 -1.4824062585830688 355.6694641113281 -7.331857204437256 373.07281494140625 C -1.913434624671936 373.2192077636719 3.768819570541382 375.7950439453125 6.903203010559082 375.0185546875 C 9.916036605834961 354.4803466796875 7.025699615478516 335.1764221191406 14.847129821777344 332.41351318359375 C 9.265669822692871 330.0251770019531 3.300302505493164 326.11962890625 -7.460988998413086 323.4501647949219" stroke-width="0.0" fill="rgb(74, 74, 74)" opacity="1.0051932" stroke="rgb(0, 0, 0)" stroke-opacity="1.0" stroke-linecap="round" stroke-linejoin="round"/>
    <path d="M 518.6438598632812 441.1477355957031 C 490.544677734375 446.5162048339844 496.3465881347656 431.8942565917969 471.8127136230469 438.19049072265625 C 467.7400207519531 448.1971130371094 440.97503662109375 443.9449768066406 416.6112365722656 448.63214111328125 C 408.2295837402344 454.3420715332031 398.7646789550781 465.21160888671875 395.6974182128906 469.16961669921875 C 394.6441955566406 479.9849548339844 391.7026672363281 493.3576354980469 393.6795349121094 518.7557373046875 C 428.330078125 521.1424560546875 467.4916687011719 521.52001953125 520.3564453125 521.8087158203125 C 520.7633056640625 489.7276611328125 520.83544921875 463.66815185546875 518.6438598632812 441.1477355957031" stroke-width="0.0" fill="rgb(83, 83, 83)" opacity="0.8981553" stroke="rgb(0, 0, 0)" stroke-opacity="1.0" stroke-linecap="round" stroke-linejoin="round"/>
    <path d="M 135.02194213867188 523.889892578125 C 154.10336303710938 524.07470703125 187.8298797607422 523.8522338867188 229.14303588867188 523.3870849609375 C 231.99713134765625 508.85845947265625 231.95523071289062 503.83709716796875 238.80577087402344 501.5689697265625 C 249.57321166992188 494.26934814453125 261.5558776855469 498.3581848144531 266.1361389160156 484.7751770019531 C 268.11859130859375 475.12823486328125 267.0228576660156 472.3312072753906 260.17681884765625 465.488037109375 C 264.994873046875 457.7645263671875 252.68966674804688 464.98175048828125 239.3668975830078 458.4335632324219 C 214.3013458251953 454.6644287109375 202.06495666503906 453.43603515625 177.58993530273438 453.0963134765625 C 161.47500610351562 457.571044921875 145.1217498779297 463.0030822753906 137.22125244140625 473.06591796875 C 132.30091857910156 482.69873046875 132.195556640625 492.62115478515625 135.02194213867188 523.889892578125" stroke-width="0.0" fill="rgb(105, 105, 105)" opacity="0.81130904" stroke="rgb(0, 0, 0)" stroke-opacity="1.0" stroke-linecap="round" stroke-linejoin="round"/>
    <path d="M 302.96185302734375 469.5811462402344 C 297.8017272949219 476.47698974609375 297.58880615234375 482.8060302734375 297.8277893066406 495.1594543457031 C 298.8400573730469 502.3082275390625 306.30133056640625 502.48828125 306.25421142578125 519.6012573242188 C 323.592529296875 520.2298583984375 339.10205078125 519.78271484375 353.6481018066406 517.9921264648438 C 352.66119384765625 498.6734313964844 360.4542541503906 493.72015380859375 356.24639892578125 482.3080139160156 C 355.8553466796875 475.584228515625 351.4142150878906 468.0566711425781 344.64471435546875 463.65020751953125 C 340.3155822753906 460.2525939941406 334.0743103027344 458.2502136230469 330.1793212890625 457.0249938964844 C 316.62933349609375 457.17596435546875 308.36553955078125 463.1537170410156 302.96185302734375 469.5811462402344" stroke-width="0.0" fill="rgb(60, 60, 60)" opacity="1.0001633" stroke="rgb(0, 0, 0)" stroke-opacity="1.0" stroke-linecap="round" stroke-linejoin="round"/>
    <path d="M 230.24777221679688 521.2991943359375 C 247.87530517578125 521.7633056640625 269.92132568359375 521.6078491210938 301.2463684082031 521.45068359375 C 295.9742126464844 504.4837646484375 291.47576904296875 501.7716979980469 282.5535888671875 500.5307922363281 C 279.2825012207031 498.2885437011719 267.3741455078125 501.1833190917969 256.6847839355469 493.9410400390625 C 256.2375183105469 497.23321533203125 242.98312377929688 497.1709289550781 238.3511505126953 502.35870361328125 C 233.15687561035156 502.38140869140625 231.3104248046875 506.132080078125 230.24777221679688 521.2991943359375" stroke-width="0.0" fill="rgb(128, 128, 128)" opacity="0.8446211" stroke="rgb(0, 0, 0)" stroke-opacity="1.0" stroke-linecap="round" stroke-linejoin="round"/>
    <path d="M -5.901098251342773 450.99224853515625 C -4.2436299324035645 471.5479736328125 -2.89502215385437 491.2980041503906 -1.6119821071624756 517.01318359375 C 11.668103218078613 517.2381591796875 23.700000762939453 517.4313354492188 40.928226470947266 515.79541015625 C 28.092586517333984 489.701904296875 39.10770797729492 470.52593994140625 30.09115219116211 453.7107238769531 C 21.24243927001953 449.59613037109375 8.350933074951172 453.81182861328125 -5.901098251342773 450.99224853515625" stroke-width="0.0" fill="rgb(87, 87, 87)" opacity="0.8461654" stroke="rgb(0, 0, 0)" stroke-opacity="1.0" stroke-linecap="round" stroke-linejoin="round"/>
    <path d="M 43.604576110839844 484.2308654785156 C 42.37314224243164 492.13214111328125 40.18579864501953 501.65155029296875 41.178077697753906 518.6860961914062 C 46.44876480102539 521.3662109375 58.99570083618164 520.943359375 66.16718292236328 518.243408203125 C 63.714134216308594 500.0585021972656 59.7791633605957 494.4217834472656 54.862388610839844 486.1745910644531 C 50.146995544433594 485.34600830078125 53.21357727050781 480.4271545410156 43.604576110839844 484.2308654785156" stroke-width="0.0" fill="rgb(22, 22, 22)" opacity="1.0000852" stroke="rgb(0, 0, 0)" stroke-opacity="1.0" stroke-linecap="round" stroke-linejoin="round"/>
    <path d="M 132.0425262451172 455.9511413574219 C 117.2448501586914 450.619384765625 107.91072082519531 455.47979736328125 100.97172546386719 459.9496765136719 C 99.09966278076172 478.50347900390625 95.5311508178711 491.4004211425781 100.79777526855469 516.3392944335938 C 108.64315795898438 518.4442749023438 119.86795043945312 518.5614624023438 133.22079467773438 518.8157958984375 C 129.65725708007812 486.95379638671875 135.4521484375 470.548095703125 132.0425262451172 455.9511413574219" stroke-width="0.0" fill="rgb(175, 175, 175)" opacity="1.0409005" stroke="rgb(0, 0, 0)" stroke-opacity="1.0" stroke-linecap="round" stroke-linejoin="round"/>
    <path d="M -4.190605163574219 422.1243896484375 C -7.691834926605225 428.30810546875 -6.567376613616943 439.2099914550781 -10.325124740600586 451.9850158691406 C 10.744089126586914 450.022705078125 34.094642639160156 451.8484802246094 36.086822509765625 450.4678955078125 C 44.6711311340332 447.7186584472656 50.19495391845703 450.960205078125 53.48545455932617 439.9975891113281 C 35.325687408447266 434.1517333984375 20.10784149169922 425.67169189453125 -4.190605163574219 422.1243896484375" stroke-width="0.0" fill="rgb(136, 136, 136)" opacity="0.9850407" stroke="rgb(0, 0, 0)" stroke-opacity="1.0" stroke-linecap="round" stroke-linejoin="round"/>
    <path d="M 249.08619689941406 453.7480163574219 C 260.365966796875 471.0951843261719 274.8962707519531 477.3129577636719 261.6735534667969 491.41845703125 C 247.93894958496094 499.5010986328125 261.45343017578125 500.92181396484375 274.0729064941406 497.1437072753906 C 273.2632751464844 488.7564697265625 275.8096008300781 476.1415710449219 270.7198486328125 466.82391357421875 C 262.57843017578125 462.0746154785156 263.8658142089844 445.7823181152344 249.08619689941406 453.7480163574219" stroke-width="0.0" fill="rgb(48, 48, 48)" opacity="0.98136336" stroke="rgb(0, 0, 0)" stroke-opacity="1.0" stroke-linecap="round" stroke-linejoin="round"/>
    <path d="M 359.9122619628906 454.7369384765625 C 358.19317626953125 455.60345458984375 352.4499206542969 461.9976806640625 354.2088928222656 462.727783203125 C 354.7846374511719 484.7562255859375 364.4617004394531 493.29766845703125 361.4385070800781 516.1788940429688 C 359.05181884765625 519.9094848632812 365.6795349121094 519.5089721679688 371.8818054199219 519.7977905273438 C 370.70330810546875 498.52655029296875 370.83026123046875 476.60693359375 370.1358947753906 470.5238342285156 C 367.4297790527344 461.5946044921875 365.8419189453125 455.0989990234375 359.9122619628906 454.7369384765625" stroke-width="0.0" fill="rgb(51, 51, 51)" opacity="0.9886404" stroke="rgb(0, 0, 0)" stroke-opacity="1.0" stroke-linecap="round" stroke-linejoin="round"/>
    <path d="M 289.01141357421875 458.6827392578125 C 280.0732116699219 455.4062194824219 282.5132751464844 466.1434631347656 277.7759704589844 474.16424560546875 C 279.54681396484375 487.80303955078125 275.60980224609375 501.61248779296875 275.6177673339844 502.9238586425781 C 276.71258544921875 496.3411865234375 276.185791015625 501.87213134765625 291.09735107421875 501.4787902832031 C 290.99127197265625 485.2535705566406 289.7875061035156 470.3844909667969 289.01141357421875 458.6827392578125" stroke-width="0.0" fill="rgb(73, 73, 73)" opacity="1.0361024" stroke="rgb(0, 0, 0)" stroke-opacity="1.0" stroke-linecap="round" stroke-linejoin="round"/>
    <path d="M 14.042130470275879 421.623779296875 C 23.975366592407227 429.1318359375 41.37732696533203 434.979248046875 55.25845718383789 440.1530456542969 C 53.546142578125 447.847900390625 53.68006896972656 450.5169372558594 43.78166961669922 453.56451416015625 C 44.980045318603516 457.1749572753906 42.03914260864258 467.95562744140625 45.5588264465332 479.2112731933594 C 48.458770751953125 471.0164794921875 56.5719108581543 476.33099365234375 62.13166809082031 483.34588623046875 C 68.18777465820312 489.61328125 64.70938110351562 503.3381652832031 74.61984252929688 515.038330078125 C 80.7085189819336 517.6716918945312 88.91841125488281 517.9224243164062 96.96552276611328 515.4695434570312 C 99.01754760742188 477.2171630859375 105.16724395751953 445.8538513183594 95.86312866210938 419.9384765625 C 88.02883911132812 400.1531066894531 72.64382934570312 409.1716613769531 73.4063491821289 395.1086120605469 C 70.25222778320312 399.573974609375 70.75006866455078 413.31378173828125 68.30367279052734 411.4317932128906 C 43.58557891845703 423.62945556640625 28.80290412902832 412.8288269042969 14.042130470275879 421.623779296875" stroke-width="0.0" fill="rgb(86, 86, 86)" opacity="0.83081645" stroke="rgb(0, 0, 0)" stroke-opacity="1.0" stroke-linecap="round" stroke-linejoin="round"/>
    <path d="M 173.9835662841797 424.97613525390625 C 146.50970458984375 419.52789306640625 132.3807830810547 427.1849060058594 98.48464965820312 424.630859375 C 95.88943481445312 448.3276672363281 95.619140625 462.9400939941406 104.34190368652344 468.5067138671875 C 98.41943359375 465.4586181640625 102.51007843017578 463.493408203125 100.14241790771484 466.1028747558594 C 99.85897064208984 461.3113098144531 103.1951904296875 455.2836608886719 113.60415649414062 456.456298828125 C 116.94338989257812 452.06329345703125 121.17633819580078 453.87896728515625 139.19924926757812 454.9448547363281 C 132.039794921875 454.1359558105469 132.02359008789062 458.914306640625 145.83401489257812 468.29931640625 C 145.84088134765625 466.8726501464844 149.45838928222656 461.52276611328125 148.9076385498047 462.7475891113281 C 156.51651000976562 458.6611328125 163.71923828125 461.6732177734375 151.84925842285156 459.6954040527344 C 162.433837890625 461.8955993652344 167.13177490234375 456.6970520019531 173.7505645751953 450.0278625488281 C 174.46463012695312 442.9159851074219 174.27944946289062 428.8215026855469 173.9835662841797 424.97613525390625" stroke-width="0.0" fill="rgb(134, 134, 134)" opacity="1.0025233" stroke="rgb(0, 0, 0)" stroke-opacity="1.0" stroke-linecap="round" stroke-linejoin="round"/>
    <path d="M 379.9384765625 454.2589111328125 C 379.8214111328125 473.2032165527344 380.38787841796875 488.1241455078125 375.4571228027344 500.314697265625 C 380.15582275390625 510.08306884765625 376.4489440917969 506.7569885253906 391.3292236328125 506.9986267089844 C 394.413818359375 496.6959533691406 392.85699462890625 477.92596435546875 396.6908874511719 468.87847900390625 C 401.8305969238281 465.22589111328125 405.8282470703125 452.80718994140625 393.5416564941406 456.24114990234375 C 378.9812927246094 455.4104919433594 408.4040222167969 464.6760559082031 380.9698486328125 461.2350769042969 C 378.6000671386719 456.3735046386719 396.5373229980469 459.284423828125 379.9384765625 454.2589111328125" stroke-width="0.0" fill="rgb(78, 78, 78)" opacity="1.0061291" stroke="rgb(0, 0, 0)" stroke-opacity="1.0" stroke-linecap="round" stroke-linejoin="round"/>
    <path d="M 501.8170471191406 185.43824768066406 C 491.8558654785156 186.9453125 488.3913269042969 187.39785766601562 481.9266052246094 193.30621337890625 C 492.8576965332031 202.14268493652344 485.64031982421875 233.4806671142578 490.5722961425781 264.45703125 C 493.95806884765625 261.0221862792969 497.9262390136719 255.79151916503906 501.3882141113281 253.59022521972656 C 501.20074462890625 224.5409393310547 507.43359375 215.06764221191406 501.8170471191406 185.43824768066406" stroke-width="0.0" fill="rgb(64, 64, 64)" opacity="0.9988896" stroke="rgb(0, 0, 0)" stroke-opacity="1.0" stroke-linecap="round" stroke-linejoin="round"/>
    <path d="M 484.6069641113281 105.14495849609375 C 487.19842529296875 134.0802764892578 487.1337890625 162.561767578125 486.8452453613281 188.4315948486328 C 493.2551574707031 188.17428588867188 500.3847961425781 186.7560577392578 501.7918395996094 184.57119750976562 C 504.48529052734375 170.66165161132812 495.376708984375 176.1151885986328 497.2556457519531 167.21292114257812 C 497.41357421875 164.23023986816406 504.1518859863281 164.30783081054688 504.4656982421875 157.1584930419922 C 501.18359375 154.66329956054688 494.2518005371094 151.57522583007812 496.239990234375 149.64364624023438 C 497.5885314941406 150.74545288085938 502.5959167480469 149.5470733642578 505.04425048828125 148.4326171875 C 500.1232604980469 142.9695587158203 496.722412109375 150.08236694335938 494.82568359375 144.8585662841797 C 494.84417724609375 137.00686645507812 495.39935302734375 127.95886993408203 494.65380859375 121.82105255126953 C 491.4990234375 122.30889129638672 505.3681640625 122.04597473144531 502.98883056640625 122.18852233886719 C 505.2350158691406 120.11823272705078 503.9655456542969 106.64277648925781 503.7120666503906 107.43505096435547 C 489.9888610839844 107.40636444091797 496.3212890625 109.8413314819336 484.6069641113281 105.14495849609375" stroke-width="0.0" fill="rgb(73, 73, 73)" opacity="0.9387426" stroke="rgb(0, 0, 0)" stroke-opacity="1.0" stroke-linecap="round" stroke-linejoin="round"/>
    <path d="M 436.5373229980469 423.6303405761719 C 466.2461242675781 419.6075439453125 475.92333984375 426.8998718261719 519.8427734375 423.2310791015625 C 519.6337280273438 425.49310302734375 519.3811645507812 422.59674072265625 517.5694580078125 417.23486328125 C 491.8397216796875 410.929931640625 483.58282470703125 413.8755187988281 469.96246337890625 411.7515563964844 C 456.70404052734375 417.1733093261719 435.374755859375 417.129638671875 436.5373229980469 423.6303405761719" stroke-width="0.0" fill="rgb(204, 204, 204)" opacity="0.98164445" stroke="rgb(0, 0, 0)" stroke-opacity="1.0" stroke-linecap="round" stroke-linejoin="round"/>
    <path d="M 235.55133056640625 187.40089416503906 C 232.7257080078125 173.736572265625 207.68971252441406 180.05462646484375 177.87867736816406 182.42176818847656 C 177.3255615234375 184.587158203125 169.34205627441406 187.5931854248047 175.8658905029297 192.12619018554688 C 194.96990966796875 190.1024932861328 219.84231567382812 188.8291015625 235.55133056640625 187.40089416503906" stroke-width="0.0" fill="rgb(180, 180, 180)" opacity="0.9997286" stroke="rgb(0, 0, 0)" stroke-opacity="1.0" stroke-linecap="round" stroke-linejoin="round"/>
    <path d="M 415.4982604980469 455.1502990722656 C 410.2726135253906 467.72894287109375 404.0939025878906 474.3691101074219 396.6867980957031 486.77069091796875 C 395.34832763671875 497.0875244140625 391.46502685546875 500.8797607421875 395.30682373046875 519.9110107421875 C 423.3940124511719 522.7225952148438 448.8290710449219 524.297119140625 444.08489990234375 505.7474670410156 C 441.8760681152344 496.3420104980469 445.9743347167969 492.57159423828125 442.6363830566406 501.783447265625 C 443.2200622558594 488.6771240234375 437.8753356933594 477.0315246582031 441.56097412109375 456.37615966796875 C 451.1320495605469 457.7422790527344 424.893310546875 445.2852783203125 415.4982604980469 455.1502990722656" stroke-width="0.0" fill="rgb(55, 55, 55)" opacity="0.9594103" stroke="rgb(0, 0, 0)" stroke-opacity="1.0" stroke-linecap="round" stroke-linejoin="round"/>
    <path d="M 167.19650268554688 461.9857482910156 C 163.89849853515625 471.30352783203125 175.55148315429688 465.7281799316406 159.5970001220703 477.5406494140625 C 149.81654357910156 485.5919494628906 151.31468200683594 502.0111999511719 153.31797790527344 522.45068359375 C 160.9223175048828 522.3659057617188 177.49896240234375 522.3087768554688 204.8531951904297 520.9657592773438 C 206.63475036621094 477.9818420410156 181.03244018554688 479.1185607910156 186.64706420898438 461.1979675292969 C 187.02593994140625 452.2630310058594 171.7504425048828 449.45123291015625 167.19650268554688 461.9857482910156" stroke-width="0.0" fill="rgb(19, 19, 19)" opacity="1.0004716" stroke="rgb(0, 0, 0)" stroke-opacity="1.0" stroke-linecap="round" stroke-linejoin="round"/>
    <path d="M 228.4043731689453 503.1701965332031 C 230.209716796875 502.4425964355469 228.8906707763672 506.55438232421875 231.5133514404297 518.6052856445312 C 247.51434326171875 519.2952270507812 264.5686340332031 520.9783935546875 275.0921325683594 520.9007568359375 C 278.5584716796875 501.88885498046875 276.2981262207031 499.2488708496094 264.3399353027344 498.9159851074219 C 251.88189697265625 498.8675231933594 235.81495666503906 499.8041076660156 228.4043731689453 503.1701965332031" stroke-width="0.0" fill="rgb(196, 196, 196)" opacity="0.98697275" stroke="rgb(0, 0, 0)" stroke-opacity="1.0" stroke-linecap="round" stroke-linejoin="round"/>
    <path d="M 440.2549743652344 456.8443298339844 C 440.0700378417969 474.9956359863281 442.1261291503906 493.6624450683594 444.3744201660156 521.1655883789062 C 468.1077575683594 520.1959228515625 490.69805908203125 519.2069702148438 520.669677734375 518.5174560546875 C 520.4247436523438 493.4608459472656 521.0081176757812 474.09661865234375 519.6275024414062 463.8573913574219 C 507.3359069824219 461.01751708984375 505.76788330078125 455.4786071777344 503.4180603027344 452.5913391113281 C 494.72979736328125 446.95172119140625 493.01556396484375 442.70758056640625 477.43280029296875 444.07073974609375 C 463.2737731933594 445.5412902832031 453.7757568359375 454.1355285644531 440.2549743652344 456.8443298339844" stroke-width="0.0" fill="rgb(72, 72, 72)" opacity="0.97740245" stroke="rgb(0, 0, 0)" stroke-opacity="1.0" stroke-linecap="round" stroke-linejoin="round"/>
    <path d="M 209.4915771484375 439.9436950683594 C 193.39784240722656 434.63336181640625 207.72645568847656 452.4432067871094 193.92733764648438 468.7304382324219 C 191.2257843017578 485.5130920410156 204.9068145751953 488.9696350097656 199.8873748779297 517.8977661132812 C 207.2883758544922 519.4076538085938 217.095947265625 519.7923583984375 229.95834350585938 520.2074584960938 C 227.73985290527344 495.64306640625 234.60140991210938 477.6783447265625 225.0320281982422 459.3322448730469 C 207.13780212402344 456.0745849609375 218.13906860351562 443.0626525878906 209.4915771484375 439.9436950683594" stroke-width="0.0" fill="rgb(37, 37, 37)" opacity="0.998184" stroke="rgb(0, 0, 0)" stroke-opacity="1.0" stroke-linecap="round" stroke-linejoin="round"/>
    <path d="M 236.34921264648438 442.02301025390625 C 230.25677490234375 460.9280700683594 232.92816162109375 477.9042053222656 230.952392578125 498.4739074707031 C 244.4068603515625 499.5623474121094 257.6449279785156 499.09423828125 271.7812194824219 498.0616760253906 C 275.5755310058594 497.5101013183594 274.7323303222656 478.8656005859375 270.6258850097656 466.64251708984375 C 266.3304138183594 463.3263854980469 259.89501953125 454.9831237792969 257.9619445800781 450.4853210449219 C 247.3837890625 450.2716064453125 256.8722229003906 462.72308349609375 246.4281768798828 462.84954833984375 C 235.338623046875 449.8141174316406 246.12254333496094 439.8488464355469 236.34921264648438 442.02301025390625" stroke-width="0.0" fill="rgb(87, 87, 87)" opacity="0.8224327" stroke="rgb(0, 0, 0)" stroke-opacity="1.0" stroke-linecap="round" stroke-linejoin="round"/>
    <path d="M 114.07083892822266 455.83428955078125 C 110.93401336669922 466.4154968261719 113.64800262451172 491.65362548828125 112.01289367675781 522.4248046875 C 111.69561004638672 520.940185546875 118.67035675048828 521.13232421875 133.66639709472656 521.1292114257812 C 129.56866455078125 494.5234069824219 134.07298278808594 473.3653564453125 132.36404418945312 457.0633850097656 C 130.92056274414062 454.490234375 119.09292602539062 454.34393310546875 114.07083892822266 455.83428955078125" stroke-width="0.0" fill="rgb(129, 129, 129)" opacity="0.9226904" stroke="rgb(0, 0, 0)" stroke-opacity="1.0" stroke-linecap="round" stroke-linejoin="round"/>
    <path d="M -5.394431114196777 452.0896911621094 C -6.587221622467041 470.1052551269531 -6.471064567565918 490.27899169921875 -6.45173978805542 517.9361572265625 C 9.916199684143066 518.8551635742188 21.070016860961914 521.0496826171875 28.851673126220703 520.5720825195312 C 23.166215896606445 496.6330261230469 14.966117858886719 485.6263732910156 9.1806640625 472.5328063964844 C 8.906122207641602 449.39215087890625 8.081345558166504 465.19427490234375 15.207749366760254 455.4205627441406 C 9.874505996704102 453.12530517578125 3.4419710636138916 450.8023376464844 -5.394431114196777 452.0896911621094" stroke-width="0.0" fill="rgb(55, 55, 55)" opacity="1.0011654" stroke="rgb(0, 0, 0)" stroke-opacity="1.0" stroke-linecap="round" stroke-linejoin="round"/>
    <path d="M 16.548227310180664 453.20709228515625 C 18.190263748168945 456.4611511230469 15.253440856933594 477.4536437988281 17.67207145690918 487.388671875 C 20.53899383544922 496.5951232910156 24.877731323242188 505.9565124511719 30.645418167114258 519.2531127929688 C 36.25040054321289 496.2799377441406 34.820556640625 477.2080383300781 35.2632942199707 456.589599609375 C 33.86677551269531 451.3372802734375 25.055404663085938 450.4971923828125 16.548227310180664 453.20709228515625" stroke-width="0.0" fill="rgb(22, 22, 22)" opacity="0.95649785" stroke="rgb(0, 0, 0)" stroke-opacity="1.0" stroke-linecap="round" stroke-linejoin="round"/>
    <path d="M 135.76031494140625 473.9328308105469 C 130.291748046875 474.7648010253906 135.93719482421875 493.7316589355469 129.32345581054688 519.212890625 C 132.04905700683594 520.11767578125 137.90911865234375 518.9933471679688 145.655517578125 515.75146484375 C 149.73477172851562 503.33831787109375 151.09613037109375 493.23699951171875 152.81027221679688 482.76776123046875 C 151.42303466796875 475.4948425292969 142.0496063232422 468.2404479980469 135.76031494140625 473.9328308105469" stroke-width="0.0" fill="rgb(48, 48, 48)" opacity="0.93884957" stroke="rgb(0, 0, 0)" stroke-opacity="1.0" stroke-linecap="round" stroke-linejoin="round"/>
    <path d="M 73.9896240234375 405.9838562011719 C 80.70230102539062 428.7033996582031 76.61022186279297 469.2275085449219 79.7983627319336 517.9398803710938 C 75.3829574584961 520.888916015625 80.45997619628906 522.1239624023438 95.17342376708984 518.50537109375 C 104.52117919921875 482.143310546875 94.28858184814453 462.8299560546875 97.66033172607422 425.2845458984375 C 92.54120635986328 412.3312683105469 88.3250503540039 403.93621826171875 73.9896240234375 405.9838562011719" stroke-width="0.0" fill="rgb(107, 107, 107)" opacity="0.93241847" stroke="rgb(0, 0, 0)" stroke-opacity="1.0" stroke-linecap="round" stroke-linejoin="round"/>
    <path d="M 517.4533081054688 423.6665954589844 C 500.3072204589844 426.4355163574219 491.18511962890625 430.1184997558594 484.4767150878906 436.5067443847656 C 486.48944091796875 441.0168762207031 495.5762634277344 443.53759765625 493.87164306640625 445.8821105957031 C 499.3003845214844 452.09423828125 506.8414001464844 459.72100830078125 514.6734008789062 465.4875793457031 C 502.8334655761719 461.3962707519531 505.4473571777344 459.6742858886719 519.8543090820312 468.83746337890625 C 519.8368530273438 450.4245300292969 520.6129150390625 434.588134765625 517.4533081054688 423.6665954589844" stroke-width="0.0" fill="rgb(145, 145, 145)" opacity="0.9324661" stroke="rgb(0, 0, 0)" stroke-opacity="1.0" stroke-linecap="round" stroke-linejoin="round"/>
    <path d="M 354.3277893066406 465.9255676269531 C 354.6129455566406 472.1696472167969 357.8038330078125 486.932373046875 361.1681823730469 493.9851379394531 C 364.9561462402344 494.6814270019531 374.3851013183594 493.7454833984375 376.28887939453125 491.746826171875 C 374.9375 478.55810546875 379.2387390136719 467.245361328125 369.4317626953125 464.9106750488281 C 362.894775390625 469.1011962890625 362.89031982421875 462.0922546386719 354.3277893066406 465.9255676269531" stroke-width="0.0" fill="rgb(111, 111, 111)" opacity="1.0020529" stroke="rgb(0, 0, 0)" stroke-opacity="1.0" stroke-linecap="round" stroke-linejoin="round"/>
    <path d="M 431.58197021484375 452.1983337402344 C 426.2391662597656 444.9737243652344 417.84613037109375 447.74163818359375 415.7161560058594 449.604736328125 C 412.3813781738281 453.3069763183594 414.48858642578125 459.03045654296875 413.71923828125 467.9530029296875 C 409.2893981933594 475.6270751953125 403.1756591796875 474.00732421875 399.295654296875 482.8116760253906 C 395.67205810546875 488.907470703125 392.13653564453125 504.2649230957031 392.0169677734375 520.2351684570312 C 408.33221435546875 520.8223266601562 430.1260070800781 521.2229614257812 442.4656982421875 520.1292114257812 C 444.8923645019531 476.6644287109375 433.0685119628906 473.6722717285156 431.58197021484375 452.1983337402344" stroke-width="0.0" fill="rgb(16, 16, 16)" opacity="0.98979104" stroke="rgb(0, 0, 0)" stroke-opacity="1.0" stroke-linecap="round" stroke-linejoin="round"/>
    <path d="M 234.47396850585938 440.50860595703125 C 234.02841186523438 459.0432434082031 224.99050903320312 467.52001953125 229.59739685058594 497.7048645019531 C 228.88339233398438 499.76983642578125 239.4290008544922 498.2942810058594 249.48336791992188 499.2725830078125 C 252.55552673339844 471.1795654296875 245.975830078125 462.1164855957031 242.02630615234375 446.54022216796875 C 245.87538146972656 439.56781005859375 237.3153076171875 438.31207275390625 234.47396850585938 440.50860595703125" stroke-width="0.0" fill="rgb(63, 63, 63)" opacity="0.9519481" stroke="rgb(0, 0, 0)" stroke-opacity="1.0" stroke-linecap="round" stroke-linejoin="round"/>
    <path d="M 0.8558128476142883 483.32757568359375 C -6.29764986038208 487.9422912597656 -9.268404006958008 495.11749267578125 -8.704705238342285 518.97509765625 C 6.735959053039551 520.1627807617188 17.693391799926758 520.59228515625 24.692256927490234 518.2264404296875 C 27.179533004760742 496.22552490234375 15.358928680419922 494.56292724609375 13.389532089233398 483.9525146484375 C 7.832559585571289 477.6497802734375 6.946068286895752 476.73687744140625 0.8558128476142883 483.32757568359375" stroke-width="0.0" fill="rgb(29, 29, 29)" opacity="0.9992922" stroke="rgb(0, 0, 0)" stroke-opacity="1.0" stroke-linecap="round" stroke-linejoin="round"/>
    <path d="M 491.3152770996094 443.5570068359375 C 477.8042297363281 440.13629150390625 470.56585693359375 449.6854553222656 427.3509216308594 462.3252868652344 C 453.21435546875 481.4383239746094 435.6370849609375 477.9031677246094 446.95233154296875 515.7883911132812 C 460.57257080078125 520.280517578125 471.3251647949219 519.673095703125 482.6694030761719 515.9263305664062 C 476.5046691894531 497.9863586425781 485.040283203125 505.4014587402344 482.452392578125 497.3855285644531 C 490.05084228515625 489.47784423828125 495.6767578125 482.28033447265625 501.2746276855469 478.1639404296875 C 490.30865478515625 466.53179931640625 499.50189208984375 444.4430847167969 491.3152770996094 443.5570068359375" stroke-width="0.0" fill="rgb(51, 51, 51)" opacity="0.98138857" stroke="rgb(0, 0, 0)" stroke-opacity="1.0" stroke-linecap="round" stroke-linejoin="round"/>
    <path d="M 200.0929718017578 454.3423156738281 C 198.45152282714844 468.170654296875 192.9176483154297 462.490234375 195.2835235595703 481.4054870605469 C 198.097900390625 490.6160888671875 201.0458221435547 500.56982421875 205.12860107421875 511.04949951171875 C 208.43756103515625 505.6921691894531 216.22979736328125 510.4444885253906 216.94528198242188 504.8361511230469 C 215.17759704589844 486.44354248046875 214.17105102539062 468.480712890625 216.37017822265625 459.4828186035156 C 214.29156494140625 455.63018798828125 201.68002319335938 461.1460876464844 200.0929718017578 454.3423156738281" stroke-width="0.0" fill="rgb(38, 38, 38)" opacity="0.9973352" stroke="rgb(0, 0, 0)" stroke-opacity="1.0" stroke-linecap="round" stroke-linejoin="round"/>
    <path d="M 517.5389404296875 466.3514709472656 C 498.1593017578125 474.0502624511719 494.77685546875 486.2765808105469 485.7779846191406 495.5728454589844 C 485.90899658203125 501.55218505859375 481.2473449707031 506.29638671875 481.351318359375 519.3458862304688 C 489.7674255371094 518.67529296875 500.1697082519531 518.62060546875 518.8743896484375 518.6118774414062 C 519.5732421875 493.6332092285156 521.4808349609375 477.3089294433594 517.5389404296875 466.3514709472656" stroke-width="0.0" fill="rgb(43, 43, 43)" opacity="1.0025543" stroke="rgb(0, 0, 0)" stroke-opacity="1.0" stroke-linecap="round" stroke-linejoin="round"/>
    <path d="M 216.20870971679688 458.6343994140625 C 213.58636474609375 468.233642578125 215.25550842285156 489.88775634765625 216.7747039794922 506.7908630371094 C 217.24905395507812 520.9251708984375 214.05154418945312 523.232177734375 225.8268585205078 518.4298095703125 C 227.4580535888672 496.2486877441406 237.0916748046875 490.4490661621094 231.76608276367188 473.8050537109375 C 228.98060607910156 465.5750427246094 226.44351196289062 454.6470642089844 216.20870971679688 458.6343994140625" stroke-width="0.0" fill="rgb(32, 32, 32)" opacity="0.99545014" stroke="rgb(0, 0, 0)" stroke-opacity="1.0" stroke-linecap="round" stroke-linejoin="round"/>
    <path d="M 252.2870330810547 450.6907043457031 C 250.72024536132812 459.46435546875 256.48748779296875 470.7564392089844 254.5447540283203 498.51580810546875 C 261.8765869140625 497.4434814453125 270.9500732421875 499.4726867675781 276.972412109375 497.17364501953125 C 274.4483947753906 488.566650390625 273.9678955078125 478.20965576171875 268.8774108886719 466.8358459472656 C 252.4576416015625 462.3861389160156 266.354736328125 447.1998596191406 252.2870330810547 450.6907043457031" stroke-width="0.0" fill="rgb(42, 42, 42)" opacity="1.0037858" stroke="rgb(0, 0, 0)" stroke-opacity="1.0" stroke-linecap="round" stroke-linejoin="round"/>
    <path d="M 519.1826782226562 433.2485656738281 C 500.874755859375 440.67584228515625 497.5729064941406 434.5636291503906 494.74267578125 446.01171875 C 496.148193359375 454.1689147949219 493.6068420410156 471.9654541015625 500.272216796875 475.0442199707031 C 504.6573486328125 475.6016540527344 505.48455810546875 467.6968994140625 518.8866577148438 467.640380859375 C 518.8588256835938 454.8758544921875 520.1834106445312 442.66766357421875 519.1826782226562 433.2485656738281" stroke-width="0.0" fill="rgb(72, 72, 72)" opacity="0.9530639" stroke="rgb(0, 0, 0)" stroke-opacity="1.0" stroke-linecap="round" stroke-linejoin="round"/>
    <path d="M 145.99575805664062 472.5213623046875 C 139.8736572265625 468.7525634765625 135.7596893310547 474.3008728027344 133.044677734375 477.48590087890625 C 132.77635192871094 480.5583190917969 133.06695556640625 496.5133056640625 133.1063995361328 499.1456604003906 C 136.40921020507812 498.1095886230469 149.0327911376953 500.2944641113281 149.5147705078125 498.0671691894531 C 150.8235321044922 492.66796875 153.25341796875 494.0299072265625 153.7318878173828 483.57281494140625 C 151.23587036132812 475.5452575683594 151.01541137695312 475.4314270019531 145.99575805664062 472.5213623046875" stroke-width="0.0" fill="rgb(26, 26, 26)" opacity="1.0005388" stroke="rgb(0, 0, 0)" stroke-opacity="1.0" stroke-linecap="round" stroke-linejoin="round"/>
    <path d="M 97.14303588867188 438.32470703125 C 82.87773895263672 439.73846435546875 77.076904296875 438.1750183105469 76.82292175292969 444.1861877441406 C 77.18683624267578 465.56793212890625 79.7573013305664 488.9408874511719 76.3141098022461 524.4306640625 C 89.84142303466797 520.4805297851562 92.61615753173828 513.618896484375 98.84613037109375 506.39166259765625 C 101.20828247070312 475.6617126464844 96.14635467529297 456.787109375 97.14303588867188 438.32470703125" stroke-width="0.0" fill="rgb(118, 118, 118)" opacity="0.97326565" stroke="rgb(0, 0, 0)" stroke-opacity="1.0" stroke-linecap="round" stroke-linejoin="round"/>
    <path d="M 493.1502685546875 443.9949951171875 C 478.0613098144531 439.37384033203125 474.6730651855469 448.4693908691406 466.7552490234375 449.8074951171875 C 468.7325439453125 470.1553039550781 469.3627624511719 495.26287841796875 462.37420654296875 515.4824829101562 C 469.5818176269531 517.2047119140625 474.68017578125 516.9880981445312 478.9847412109375 516.1796264648438 C 483.5299987792969 508.29083251953125 481.72161865234375 503.11676025390625 482.13275146484375 496.8890380859375 C 487.4226989746094 490.96990966796875 493.4999694824219 485.3196105957031 499.8282470703125 477.5680236816406 C 492.7678527832031 468.0795593261719 497.8796081542969 450.4502868652344 493.1502685546875 443.9949951171875" stroke-width="0.0" fill="rgb(29, 29, 29)" opacity="0.98325735" stroke="rgb(0, 0, 0)" stroke-opacity="1.0" stroke-linecap="round" stroke-linejoin="round"/>
    <path d="M 464.1531677246094 450.7618713378906 C 448.7425231933594 461.0031433105469 430.4330139160156 448.2069091796875 435.85296630859375 471.6974182128906 C 452.63385009765625 483.52679443359375 432.3910217285156 487.6292724609375 446.1650695800781 511.4373779296875 C 452.6444396972656 517.4522094726562 457.37445068359375 517.6412353515625 463.2447814941406 517.0829467773438 C 466.0822448730469 494.205322265625 472.28851318359375 483.5269775390625 467.2290344238281 472.0986022949219 C 468.26507568359375 459.60821533203125 466.9570617675781 451.1725158691406 464.1531677246094 450.7618713378906" stroke-width="0.0" fill="rgb(40, 40, 40)" opacity="0.9976204" stroke="rgb(0, 0, 0)" stroke-opacity="1.0" stroke-linecap="round" stroke-linejoin="round"/>
    <path d="M 234.9105224609375 455.5935363769531 C 231.1367645263672 464.70599365234375 233.81161499023438 481.668701171875 232.79931640625 498.1400146484375 C 237.42030334472656 499.9967956542969 247.1483154296875 500.04443359375 255.686279296875 497.4283447265625 C 253.11819458007812 487.29486083984375 257.9718017578125 476.8526611328125 255.2469482421875 473.5653381347656 C 251.46482849121094 461.0894470214844 245.25685119628906 469.3396301269531 244.84384155273438 458.37799072265625 C 245.5403594970703 450.07611083984375 233.89849853515625 456.3308410644531 234.9105224609375 455.5935363769531" stroke-width="0.0" fill="rgb(24, 24, 24)" opacity="1.0044969" stroke="rgb(0, 0, 0)" stroke-opacity="1.0" stroke-linecap="round" stroke-linejoin="round"/>
    <path d="M -1.2257437705993652 491.72222900390625 C -0.14978422224521637 499.665283203125 -0.1254143863916397 505.3333435058594 -0.08618166297674179 518.279296875 C 9.029677391052246 518.270263671875 18.107656478881836 518.3587036132812 27.92697525024414 519.47216796875 C 26.862180709838867 502.0448913574219 24.792633056640625 495.80938720703125 19.793882369995117 493.78863525390625 C 12.58486557006836 489.6118469238281 9.787328720092773 497.8329162597656 -1.2257437705993652 491.72222900390625" stroke-width="0.0" fill="rgb(33, 33, 33)" opacity="1.003074" stroke="rgb(0, 0, 0)" stroke-opacity="1.0" stroke-linecap="round" stroke-linejoin="round"/>
    <path d="M 252.3983154296875 447.8189392089844 C 251.11888122558594 473.8287658691406 263.3804626464844 472.3797912597656 260.3895568847656 495.8850402832031 C 261.9706726074219 500.1239318847656 269.8187255859375 496.11181640625 275.48529052734375 499.9625549316406 C 277.755126953125 487.39019775390625 272.60675048828125 479.2443542480469 268.7071228027344 466.5187072753906 C 256.94183349609375 465.0455322265625 256.5675354003906 459.85186767578125 252.3983154296875 447.8189392089844" stroke-width="0.0" fill="rgb(39, 39, 39)" opacity="0.9828048" stroke="rgb(0, 0, 0)" stroke-opacity="1.0" stroke-linecap="round" stroke-linejoin="round"/>
    <path d="M 469.4314270019531 475.3619689941406 C 458.5513610839844 465.3842468261719 453.2693786621094 469.5579833984375 445.85333251953125 472.8224182128906 C 448.4807434082031 492.86077880859375 437.7159423828125 498.146240234375 449.35577392578125 514.3112182617188 C 457.7679748535156 520.54248046875 462.5469970703125 519.8109741210938 462.83514404296875 514.58544921875 C 466.8391418457031 499.5030517578125 468.1817626953125 485.6587829589844 469.4314270019531 475.3619689941406" stroke-width="0.0" fill="rgb(36, 36, 36)" opacity="0.99805325" stroke="rgb(0, 0, 0)" stroke-opacity="1.0" stroke-linecap="round" stroke-linejoin="round"/>
    <path d="M 234.83212280273438 437.47161865234375 C 230.53909301757812 466.8379821777344 236.23948669433594 474.4832763671875 232.07290649414062 497.7201843261719 C 237.59771728515625 498.39776611328125 236.35281372070312 500.61224365234375 244.3956298828125 497.623779296875 C 242.35235595703125 477.6854553222656 247.6220703125 468.3562316894531 242.59469604492188 440.05072021484375 C 240.25741577148438 436.3224182128906 241.46951293945312 436.00286865234375 234.83212280273438 437.47161865234375" stroke-width="0.0" fill="rgb(43, 43, 43)" opacity="0.8417349" stroke="rgb(0, 0, 0)" stroke-opacity="1.0" stroke-linecap="round" stroke-linejoin="round"/>
    <path d="M 482.5643005371094 458.2933044433594 C 473.5052490234375 454.12115478515625 473.70379638671875 469.5884094238281 467.635986328125 469.50653076171875 C 467.9465637207031 485.1929626464844 470.7670593261719 498.2073059082031 471.86590576171875 522.767333984375 C 472.0613098144531 517.8214721679688 476.06158447265625 517.2177124023438 480.9735107421875 520.2840576171875 C 483.7820739746094 505.0678405761719 483.0428466796875 495.18768310546875 486.3956298828125 492.77984619140625 C 489.4564514160156 471.936279296875 487.3511962890625 468.2917175292969 482.5643005371094 458.2933044433594" stroke-width="0.0" fill="rgb(60, 60, 60)" opacity="1.009349" stroke="rgb(0, 0, 0)" stroke-opacity="1.0" stroke-linecap="round" stroke-linejoin="round"/>
    <path d="M 465.8657531738281 471.2855529785156 C 458.3943176269531 467.5893859863281 458.2176208496094 473.9515075683594 447.4678955078125 471.5910949707031 C 448.49835205078125 487.1961975097656 449.232177734375 481.84100341796875 446.44476318359375 493.45611572265625 C 449.41162109375 499.3269958496094 459.70068359375 493.3565979003906 464.9278259277344 497.7086181640625 C 469.32830810546875 485.5522766113281 470.7464294433594 482.4154357910156 465.8657531738281 471.2855529785156" stroke-width="0.0" fill="rgb(31, 31, 31)" opacity="1.0005752" stroke="rgb(0, 0, 0)" stroke-opacity="1.0" stroke-linecap="round" stroke-linejoin="round"/>
  </g>
</svg>
