<?xml version="1.0" ?>
<svg xmlns="http://www.w3.org/2000/svg" version="1.1" width="512" height="512">
  <defs/>
  <g>
    <path d="M -3.8993475437164307 -1.4591177701950073 C -6.763600826263428 170.5203094482422 -7.1218953132629395 341.6714782714844 -6.646467208862305 520.5211181640625 C 172.9884490966797 520.2638549804688 342.6995849609375 519.4151611328125 519.0984497070312 519.4652099609375 C 518.96875 339.6346740722656 518.8026733398438 169.1474609375 518.7183837890625 -1.5141459703445435 C 340.6666564941406 -0.9473562836647034 170.3333282470703 -1.351442813873291 -3.8993475437164307 -1.4591177701950073" stroke-width="0.0" fill="rgb(98, 85, 57)" opacity="1.0911133" stroke="rgb(0, 0, 0)" stroke-opacity="1.0" stroke-linecap="round" stroke-linejoin="round"/>
    <path d="M -6.93032169342041 206.42237854003906 C -10.326372146606445 300.6534423828125 -9.998560905456543 403.7087707519531 -9.074609756469727 520.9576416015625 C 168.56423950195312 521.0950317382812 342.4291687011719 521.0550537109375 522.70849609375 520.6597290039062 C 523.1409912109375 406.9334716796875 523.3076782226562 308.9731140136719 521.7838745117188 225.93801879882812 C 472.83221435546875 208.5761260986328 428.3365478515625 208.04165649414062 395.7521057128906 198.88502502441406 C 356.6246032714844 192.6414794921875 324.4029235839844 190.26014709472656 263.916259765625 188.13772583007812 C 187.68106079101562 195.88748168945312 85.1917953491211 191.2162322998047 -6.93032169342041 206.42237854003906" stroke-width="0.0" fill="rgb(123, 108, 62)" opacity="0.8990889" stroke="rgb(0, 0, 0)" stroke-opacity="1.0" stroke-linecap="round" stroke-linejoin="round"/>
    <path d="M 279.8124694824219 14.460389137268066 C 272.3407287597656 27.563262939453125 273.3791809082031 44.93771743774414 271.4339904785156 70.37529754638672 C 267.5013732910156 68.63786315917969 279.3589782714844 67.6521987915039 279.35443115234375 84.05294036865234 C 264.2375183105469 103.50889587402344 275.5158996582031 124.8774642944336 264.673583984375 131.73171997070312 C 259.01904296875 141.51556396484375 261.7958984375 164.49462890625 262.323486328125 171.97911071777344 C 297.30126953125 166.3484344482422 289.5591735839844 172.43515014648438 318.2873229980469 173.68357849121094 C 318.4943542480469 176.3299102783203 325.29974365234375 180.8047332763672 334.9984436035156 184.1892852783203 C 360.4048156738281 181.76318359375 366.65179443359375 190.5791015625 390.2437744140625 188.87945556640625 C 412.73980712890625 198.699462890625 435.03704833984375 209.19039916992188 466.039306640625 212.2197723388672 C 476.9092102050781 216.47137451171875 485.4590148925781 214.01315307617188 491.9745178222656 209.0397491455078 C 493.7659912109375 209.66867065429688 496.3223571777344 198.41317749023438 498.2286682128906 201.0411376953125 C 510.76373291015625 199.60804748535156 500.3478698730469 204.23106384277344 517.2426147460938 215.3482666015625 C 518.8079833984375 157.78285217285156 519.1182861328125 106.57416534423828 516.8807373046875 59.690834045410156 C 503.3399963378906 46.23797607421875 494.6993713378906 37.48386764526367 487.3863830566406 29.357906341552734 C 464.2856750488281 28.13289451599121 474.80023193359375 13.54863166809082 443.60198974609375 13.96062183380127 C 421.2750549316406 14.419564247131348 411.29339599609375 12.648445129394531 412.3246765136719 12.52364444732666 C 393.5733947753906 17.281787872314453 390.5574951171875 20.87855339050293 393.24566650390625 26.867223739624023 C 369.77923583984375 26.512096405029297 359.800048828125 20.225400924682617 348.32269287109375 17.118282318115234 C 322.6942138671875 19.212352752685547 313.33929443359375 10.945927619934082 279.8124694824219 14.460389137268066" stroke-width="0.0" fill="rgb(84, 75, 33)" opacity="0.98222136" stroke="rgb(0, 0, 0)" stroke-opacity="1.0" stroke-linecap="round" stroke-linejoin="round"/>
    <path d="M 285.8894348144531 -6.169230937957764 C 281.7760925292969 7.667118549346924 283.8703918457031 9.913436889648438 293.86480712890625 14.272882461547852 C 309.56097412109375 2.10835599899292 308.04388427734375 19.439699172973633 342.927001953125 12.891546249389648 C 358.9256591796875 16.708934783935547 360.19769287109375 25.423843383789062 392.715087890625 23.668291091918945 C 392.56231689453125 20.41892433166504 394.947021484375 14.31567096710205 415.38494873046875 9.343464851379395 C 427.8449401855469 10.987920761108398 445.3970947265625 9.339993476867676 465.40216064453125 15.4032621383667 C 473.172607421875 22.916471481323242 469.2707214355469 23.796709060668945 488.04736328125 27.138675689697266 C 497.97686767578125 36.0318717956543 504.5247802734375 43.08351516723633 515.4575805664062 53.412349700927734 C 520.8900756835938 37.273956298828125 519.2312622070312 18.358531951904297 518.115478515625 -6.756085395812988 C 434.0917663574219 -6.957238674163818 357.1822204589844 -7.086755752563477 285.8894348144531 -6.169230937957764" stroke-width="0.0" fill="rgb(129, 113, 84)" opacity="0.99057716" stroke="rgb(0, 0, 0)" stroke-opacity="1.0" stroke-linecap="round" stroke-linejoin="round"/>
    <path d="M 104.10163879394531 57.533573150634766 C 97.53765106201172 71.26628875732422 91.05079650878906 73.4786376953125 87.48377227783203 78.3878402709961 C 88.58140563964844 85.97673797607422 97.9599609375 86.84114837646484 97.78549194335938 99.49375915527344 C 95.83440399169922 99.6879653930664 105.872802734375 103.64594268798828 115.49073791503906 101.44367218017578 C 121.69125366210938 99.51025390625 123.50050354003906 90.33223724365234 124.34943389892578 81.38919067382812 C 121.6265869140625 66.3665771484375 110.40795135498047 69.37390899658203 104.10163879394531 57.533573150634766" stroke-width="0.0" fill="rgb(112, 104, 88)" opacity="0.99764186" stroke="rgb(0, 0, 0)" stroke-opacity="1.0" stroke-linecap="round" stroke-linejoin="round"/>
    <path d="M 134.4284210205078 109.13379669189453 C 130.28631591796875 111.75434112548828 131.537109375 121.79808807373047 133.3817138671875 125.63285827636719 C 134.0854034423828 124.83233642578125 139.1689910888672 131.1858367919922 149.75192260742188 131.32237243652344 C 151.80946350097656 127.59441375732422 161.74229431152344 124.88362884521484 166.65184020996094 117.4112548828125 C 159.47080993652344 113.50902557373047 158.43467712402344 108.91485595703125 152.8523712158203 107.6575698852539 C 136.0436553955078 103.9267807006836 140.56915283203125 107.42819213867188 134.4284210205078 109.13379669189453" stroke-width="0.0" fill="rgb(32, 29, 29)" opacity="1.0022072" stroke="rgb(0, 0, 0)" stroke-opacity="1.0" stroke-linecap="round" stroke-linejoin="round"/>
    <path d="M 228.0166778564453 81.23035430908203 C 221.3583984375 76.55503845214844 216.98057556152344 73.37694549560547 211.54473876953125 77.53377532958984 C 208.07777404785156 82.61904907226562 197.9141082763672 80.5335922241211 198.86952209472656 90.6793212890625 C 198.8895263671875 96.2599105834961 203.9301300048828 96.9127426147461 208.75221252441406 102.53140258789062 C 220.01210021972656 100.79666137695312 226.24110412597656 96.24004364013672 232.02650451660156 89.27552795410156 C 230.33900451660156 84.0369644165039 227.7001190185547 82.3812255859375 228.0166778564453 81.23035430908203" stroke-width="0.0" fill="rgb(136, 129, 115)" opacity="1.0011255" stroke="rgb(0, 0, 0)" stroke-opacity="1.0" stroke-linecap="round" stroke-linejoin="round"/>
    <path d="M 247.6038055419922 48.4099235534668 C 240.48150634765625 47.17876052856445 237.38145446777344 59.451656341552734 232.95701599121094 66.24566650390625 C 238.88417053222656 72.59784698486328 247.65631103515625 70.51400756835938 251.72860717773438 66.4803237915039 C 249.73416137695312 62.416934967041016 250.79945373535156 51.26183319091797 247.6038055419922 48.4099235534668" stroke-width="0.0" fill="rgb(42, 36, 34)" opacity="1.0032153" stroke="rgb(0, 0, 0)" stroke-opacity="1.0" stroke-linecap="round" stroke-linejoin="round"/>
    <path d="M 214.04759216308594 105.29447937011719 C 193.3149871826172 104.56085205078125 194.05966186523438 106.69371795654297 180.49838256835938 110.00732421875 C 179.63125610351562 114.46785736083984 179.16299438476562 122.08296966552734 175.7931365966797 131.1964111328125 C 170.0146026611328 131.802978515625 163.0625762939453 141.9591522216797 159.0690155029297 154.4311065673828 C 157.13356018066406 164.91390991210938 165.69586181640625 167.44143676757812 165.812744140625 183.2835693359375 C 171.14585876464844 189.09324645996094 179.89268493652344 191.20230102539062 185.95791625976562 196.02496337890625 C 192.0957794189453 191.32733154296875 199.4871368408203 192.92662048339844 207.84097290039062 192.46783447265625 C 211.7773895263672 188.98663330078125 213.41433715820312 184.45941162109375 215.85000610351562 181.99281311035156 C 218.15878295898438 160.39573669433594 221.1985626220703 140.85093688964844 219.90560913085938 118.3203125 C 219.05270385742188 106.80831146240234 217.19091796875 109.7688217163086 214.04759216308594 105.29447937011719" stroke-width="0.0" fill="rgb(83, 72, 28)" opacity="1.019557" stroke="rgb(0, 0, 0)" stroke-opacity="1.0" stroke-linecap="round" stroke-linejoin="round"/>
    <path d="M 126.47750854492188 -6.196784496307373 C 122.90904235839844 20.42310905456543 111.57233428955078 25.936357498168945 109.64157104492188 32.926578521728516 C 105.87380981445312 46.0495491027832 115.86711120605469 50.25273132324219 122.53173065185547 51.418487548828125 C 134.51031494140625 48.089500427246094 145.87295532226562 52.98835372924805 154.75003051757812 46.90812683105469 C 164.05142211914062 28.188335418701172 151.50830078125 26.63621711730957 153.81402587890625 -7.978816986083984 C 145.11293029785156 -5.509420871734619 135.60696411132812 -4.390243053436279 126.47750854492188 -6.196784496307373" stroke-width="0.0" fill="rgb(83, 72, 41)" opacity="0.99847484" stroke="rgb(0, 0, 0)" stroke-opacity="1.0" stroke-linecap="round" stroke-linejoin="round"/>
    <path d="M -3.1512675285339355 27.961212158203125 C -4.99013614654541 49.812496185302734 -6.5047478675842285 70.26030731201172 -5.74601411819458 88.04075622558594 C 5.25834321975708 91.28533172607422 4.227389812469482 86.42620849609375 6.533474922180176 82.97152709960938 C 9.690114974975586 89.58740997314453 6.015940189361572 96.4698715209961 10.449596405029297 97.35242462158203 C 9.145145416259766 102.03712463378906 17.373672485351562 102.5263442993164 22.478500366210938 100.01476287841797 C 29.50310516357422 96.79686737060547 32.052486419677734 90.16780090332031 35.318763732910156 79.15754699707031 C 37.418880462646484 70.78398895263672 32.332454681396484 59.77048110961914 30.699573516845703 47.58641815185547 C 25.76186752319336 46.85068893432617 19.810365676879883 42.148441314697266 17.306354522705078 33.54204559326172 C 12.439190864562988 32.0302734375 8.768013954162598 36.229888916015625 8.2603120803833 38.527767181396484 C 3.2808213233947754 34.09519958496094 2.809314489364624 30.58066749572754 -3.1512675285339355 27.961212158203125" stroke-width="0.0" fill="rgb(65, 57, 41)" opacity="1.0114409" stroke="rgb(0, 0, 0)" stroke-opacity="1.0" stroke-linecap="round" stroke-linejoin="round"/>
    <path d="M 36.03203201293945 101.61968231201172 C 23.917987823486328 122.79690551757812 38.13054275512695 147.06790161132812 24.403461456298828 165.58128356933594 C 23.485322952270508 181.21864318847656 21.576156616210938 179.765625 24.014652252197266 178.79421997070312 C 24.484743118286133 189.6054229736328 44.23993682861328 194.24681091308594 50.479530334472656 184.67459106445312 C 50.980125427246094 167.43026733398438 42.39947509765625 144.615234375 52.9832878112793 119.77647399902344 C 55.08421325683594 105.22074127197266 48.9842414855957 100.22992706298828 49.164283752441406 95.90821075439453 C 43.61061477661133 93.41663360595703 38.01323318481445 94.1478271484375 36.03203201293945 101.61968231201172" stroke-width="0.0" fill="rgb(65, 63, 32)" opacity="1.0195818" stroke="rgb(0, 0, 0)" stroke-opacity="1.0" stroke-linecap="round" stroke-linejoin="round"/>
    <path d="M 250.72825622558594 104.00920867919922 C 234.8047332763672 101.59492492675781 228.5425567626953 101.14667510986328 226.69248962402344 121.71720886230469 C 235.95936584472656 135.66659545898438 229.0710906982422 135.43832397460938 224.0504608154297 159.22335815429688 C 223.656494140625 169.1727294921875 226.58262634277344 181.2521514892578 239.6089630126953 176.93836975097656 C 244.2828369140625 163.33859252929688 239.52838134765625 156.69410705566406 255.94720458984375 148.9368133544922 C 257.19329833984375 123.80604553222656 256.7864074707031 111.74417114257812 250.72825622558594 104.00920867919922" stroke-width="0.0" fill="rgb(59, 53, 34)" opacity="1.0159181" stroke="rgb(0, 0, 0)" stroke-opacity="1.0" stroke-linecap="round" stroke-linejoin="round"/>
    <path d="M 15.57452392578125 -6.565518856048584 C 14.599310874938965 5.4737396240234375 16.878631591796875 14.263813018798828 15.880939483642578 22.044143676757812 C 19.39722442626953 27.474597930908203 30.238666534423828 25.4265079498291 31.30363655090332 37.816402435302734 C 36.05488204956055 44.99998092651367 27.915847778320312 55.87556457519531 33.72579574584961 52.137901306152344 C 34.09123611450195 60.98738479614258 36.33456802368164 59.372371673583984 43.351497650146484 56.594051361083984 C 42.977088928222656 51.2249755859375 41.71921157836914 43.865970611572266 40.16611099243164 38.44438171386719 C 44.721866607666016 24.895158767700195 49.63975143432617 13.599308967590332 54.65340805053711 -5.727350234985352 C 41.21359634399414 -6.762789726257324 28.307283401489258 -5.729656219482422 15.57452392578125 -6.565518856048584" stroke-width="0.0" fill="rgb(56, 50, 39)" opacity="0.99585557" stroke="rgb(0, 0, 0)" stroke-opacity="1.0" stroke-linecap="round" stroke-linejoin="round"/>
    <path d="M 122.18199157714844 2.4246771335601807 C 109.64682006835938 -2.44998836517334 105.63619232177734 5.025940418243408 95.99617767333984 8.367838859558105 C 86.55159759521484 18.06537437438965 73.18357849121094 17.616601943969727 75.13456726074219 36.47323226928711 C 72.27647399902344 37.76471710205078 81.96492004394531 38.03541946411133 86.35819244384766 45.09733581542969 C 97.70452880859375 44.10620880126953 95.17461395263672 32.44647979736328 108.3725357055664 32.52618408203125 C 113.59297943115234 20.761306762695312 120.76824188232422 18.1978759765625 122.18199157714844 2.4246771335601807" stroke-width="0.0" fill="rgb(120, 108, 85)" opacity="1.0025463" stroke="rgb(0, 0, 0)" stroke-opacity="1.0" stroke-linecap="round" stroke-linejoin="round"/>
    <path d="M 228.79908752441406 24.42994499206543 C 222.98281860351562 21.361515045166016 216.58570861816406 20.94447135925293 194.70333862304688 24.2898006439209 C 189.2985382080078 32.03701400756836 183.44810485839844 37.9203987121582 174.39991760253906 44.3854866027832 C 176.68716430664062 51.57979202270508 188.82427978515625 51.604312896728516 194.4298553466797 57.05656814575195 C 207.0574493408203 52.74302673339844 209.4336700439453 46.00807571411133 214.96697998046875 39.537933349609375 C 221.86825561523438 44.89350509643555 221.8551788330078 40.88726043701172 228.75180053710938 39.162437438964844 C 231.66090393066406 38.1591682434082 232.0740966796875 29.830724716186523 228.79908752441406 24.42994499206543" stroke-width="0.0" fill="rgb(101, 88, 67)" opacity="0.9958918" stroke="rgb(0, 0, 0)" stroke-opacity="1.0" stroke-linecap="round" stroke-linejoin="round"/>
    <path d="M 163.52752685546875 -3.656857490539551 C 159.7950439453125 7.573071479797363 152.23704528808594 14.488856315612793 155.2431182861328 23.763952255249023 C 156.4207305908203 33.420345306396484 166.86962890625 33.6609001159668 171.134521484375 40.6022834777832 C 182.74183654785156 38.24264144897461 187.13330078125 31.162717819213867 188.56881713867188 27.06395149230957 C 184.28759765625 10.882678985595703 179.77392578125 8.044734001159668 175.04266357421875 -1.464077115058899 C 170.2088165283203 -5.041627883911133 163.69862365722656 -6.820858955383301 163.52752685546875 -3.656857490539551" stroke-width="0.0" fill="rgb(75, 68, 40)" opacity="0.9986632" stroke="rgb(0, 0, 0)" stroke-opacity="1.0" stroke-linecap="round" stroke-linejoin="round"/>
    <path d="M 135.5277099609375 143.16241455078125 C 130.2325439453125 151.9435577392578 126.0521469116211 162.97557067871094 125.58389282226562 179.02120971679688 C 127.83800506591797 188.7346649169922 123.25498962402344 195.55111694335938 124.31307220458984 192.21253967285156 C 132.4731903076172 194.1785888671875 141.0111541748047 194.7258758544922 144.3844757080078 191.20579528808594 C 141.99560546875 174.70648193359375 147.13079833984375 165.88180541992188 143.10842895507812 149.3125457763672 C 142.7796173095703 146.00515747070312 140.9788055419922 146.00511169433594 135.5277099609375 143.16241455078125" stroke-width="0.0" fill="rgb(69, 62, 24)" opacity="1.0043205" stroke="rgb(0, 0, 0)" stroke-opacity="1.0" stroke-linecap="round" stroke-linejoin="round"/>
    <path d="M 121.984375 130.32342529296875 C 120.27017211914062 136.343505859375 122.58374786376953 148.26654052734375 114.86691284179688 165.27737426757812 C 115.29077911376953 175.32545471191406 114.14999389648438 190.13308715820312 117.34793853759766 194.9954071044922 C 126.49586486816406 194.60604858398438 125.23966217041016 195.149658203125 126.70384216308594 192.5032958984375 C 122.58710479736328 175.45130920410156 130.70469665527344 159.4690399169922 132.7221221923828 137.5709686279297 C 132.05418395996094 134.53790283203125 129.598388671875 128.07684326171875 121.984375 130.32342529296875" stroke-width="0.0" fill="rgb(66, 61, 24)" opacity="1.0003948" stroke="rgb(0, 0, 0)" stroke-opacity="1.0" stroke-linecap="round" stroke-linejoin="round"/>
    <path d="M 82.2025375366211 72.18574523925781 C 65.58345031738281 67.98355865478516 70.43584442138672 53.7540283203125 64.12543487548828 51.74101257324219 C 49.84375 53.99589157104492 47.266475677490234 61.906803131103516 43.58778381347656 73.77355194091797 C 46.197025299072266 80.2713623046875 55.62157440185547 77.35646057128906 66.08855438232422 80.74836730957031 C 71.95964050292969 78.9417724609375 76.31717681884766 76.3125991821289 82.2025375366211 72.18574523925781" stroke-width="0.0" fill="rgb(91, 75, 41)" opacity="1.0008203" stroke="rgb(0, 0, 0)" stroke-opacity="1.0" stroke-linecap="round" stroke-linejoin="round"/>
    <path d="M 106.72830963134766 153.4827117919922 C 95.05213928222656 155.646728515625 93.89634704589844 162.87049865722656 90.78944396972656 174.08200073242188 C 91.19303131103516 178.3833465576172 92.42137908935547 192.26910400390625 95.69738006591797 191.59454345703125 C 104.71368408203125 193.01356506347656 99.72972106933594 184.5935516357422 109.47747039794922 183.27951049804688 C 111.66912078857422 171.79212951660156 106.24620056152344 162.96060180664062 106.72830963134766 153.4827117919922" stroke-width="0.0" fill="rgb(91, 76, 24)" opacity="1.0019485" stroke="rgb(0, 0, 0)" stroke-opacity="1.0" stroke-linecap="round" stroke-linejoin="round"/>
    <path d="M 76.91506958007812 36.268497467041016 C 69.1697006225586 48.99589920043945 71.24141693115234 48.77870178222656 71.96440887451172 64.89083862304688 C 74.12725067138672 67.0107192993164 78.10997009277344 73.138427734375 84.41490936279297 75.649658203125 C 86.35930633544922 63.00883865356445 85.88365936279297 60.913211822509766 90.90450286865234 53.34597396850586 C 85.44816589355469 45.090763092041016 82.41718292236328 38.39696502685547 76.91506958007812 36.268497467041016" stroke-width="0.0" fill="rgb(81, 73, 43)" opacity="0.9980326" stroke="rgb(0, 0, 0)" stroke-opacity="1.0" stroke-linecap="round" stroke-linejoin="round"/>
    <path d="M 201.580078125 -7.601620197296143 C 203.3310546875 11.154919624328613 195.0065460205078 10.9392671585083 196.78286743164062 22.679370880126953 C 205.4676513671875 26.757526397705078 207.8054962158203 20.936498641967773 218.4317626953125 21.27254867553711 C 219.9984588623047 11.738529205322266 218.14796447753906 5.448267936706543 214.85501098632812 -0.39183688163757324 C 216.8624725341797 -6.388279914855957 209.72634887695312 -6.34301233291626 201.580078125 -7.601620197296143" stroke-width="0.0" fill="rgb(106, 87, 36)" opacity="1.0003965" stroke="rgb(0, 0, 0)" stroke-opacity="1.0" stroke-linecap="round" stroke-linejoin="round"/>
    <path d="M 3.344280958175659 25.47815704345703 C -0.1255224347114563 28.188156127929688 2.610215902328491 35.321754455566406 6.267113208770752 39.776756286621094 C 9.800399780273438 38.72522735595703 12.210246086120605 32.07826614379883 17.467424392700195 33.864192962646484 C 20.53948211669922 40.42921447753906 25.16075897216797 48.7984504699707 34.363067626953125 52.420379638671875 C 39.800350189208984 43.01791763305664 32.8997917175293 36.58778381347656 26.623180389404297 30.122732162475586 C 20.484333038330078 27.407487869262695 11.579511642456055 24.503509521484375 3.344280958175659 25.47815704345703" stroke-width="0.0" fill="rgb(115, 111, 95)" opacity="0.99163663" stroke="rgb(0, 0, 0)" stroke-opacity="1.0" stroke-linecap="round" stroke-linejoin="round"/>
    <path d="M 176.72698974609375 48.098209381103516 C 175.47731018066406 49.46128845214844 172.9296112060547 63.01126480102539 172.7637176513672 67.96721649169922 C 176.83387756347656 72.459716796875 179.30140686035156 73.6251220703125 187.42247009277344 71.0517807006836 C 191.30416870117188 68.20149993896484 196.10926818847656 61.48920440673828 188.82701110839844 52.65298843383789 C 187.81768798828125 47.73442459106445 186.72911071777344 49.23395919799805 176.72698974609375 48.098209381103516" stroke-width="0.0" fill="rgb(94, 75, 46)" opacity="0.9924879" stroke="rgb(0, 0, 0)" stroke-opacity="1.0" stroke-linecap="round" stroke-linejoin="round"/>
    <path d="M 241.9700469970703 -8.349011421203613 C 236.42437744140625 1.6395080089569092 232.74099731445312 11.33413314819336 228.31292724609375 21.226673126220703 C 229.1382293701172 24.336244583129883 234.71002197265625 25.183162689208984 235.7689666748047 29.796979904174805 C 242.93783569335938 25.284000396728516 244.632568359375 28.0799560546875 246.04742431640625 19.74239158630371 C 246.7150115966797 14.406205177307129 246.0585174560547 3.474050998687744 241.9700469970703 -8.349011421203613" stroke-width="0.0" fill="rgb(90, 71, 36)" opacity="1.0006784" stroke="rgb(0, 0, 0)" stroke-opacity="1.0" stroke-linecap="round" stroke-linejoin="round"/>
    <path d="M 164.9536590576172 122.96931457519531 C 159.62936401367188 124.5654525756836 151.17323303222656 129.111083984375 145.90347290039062 135.19142150878906 C 155.20144653320312 135.9131622314453 149.29795837402344 145.731201171875 161.19139099121094 145.92837524414062 C 164.6412811279297 141.88525390625 168.41270446777344 132.6748504638672 164.9536590576172 122.96931457519531" stroke-width="0.0" fill="rgb(102, 76, 45)" opacity="1.0023382" stroke="rgb(0, 0, 0)" stroke-opacity="1.0" stroke-linecap="round" stroke-linejoin="round"/>
    <path d="M 239.84925842285156 181.50074768066406 C 231.49972534179688 177.8365020751953 228.1614532470703 177.65675354003906 211.2513885498047 183.5497283935547 C 215.37286376953125 178.89002990722656 214.457763671875 184.2842254638672 216.63577270507812 191.80062866210938 C 223.64208984375 193.26742553710938 226.7078399658203 191.47720336914062 232.98291015625 191.09898376464844 C 238.97418212890625 188.4477081298828 241.46482849121094 187.5745849609375 239.84925842285156 181.50074768066406" stroke-width="0.0" fill="rgb(40, 37, 33)" opacity="1.0045409" stroke="rgb(0, 0, 0)" stroke-opacity="1.0" stroke-linecap="round" stroke-linejoin="round"/>
    <path d="M 90.2021713256836 83.57524108886719 C 85.28461456298828 87.21986389160156 83.35957336425781 100.32711029052734 85.89195251464844 103.7304458618164 C 92.55368041992188 108.66527557373047 102.88729095458984 102.29205322265625 108.98836517333984 98.84911346435547 C 90.19934844970703 102.76036834716797 101.2961654663086 83.65841674804688 90.2021713256836 83.57524108886719" stroke-width="0.0" fill="rgb(80, 67, 36)" opacity="0.9941502" stroke="rgb(0, 0, 0)" stroke-opacity="1.0" stroke-linecap="round" stroke-linejoin="round"/>
    <path d="M 24.378564834594727 162.3771514892578 C 17.12012481689453 162.07716369628906 16.296663284301758 175.13128662109375 14.787732124328613 176.40606689453125 C 13.653553009033203 185.41639709472656 20.141292572021484 190.5440216064453 25.816808700561523 186.63844299316406 C 25.09649085998535 172.84458923339844 25.28914451599121 164.91180419921875 24.378564834594727 162.3771514892578" stroke-width="0.0" fill="rgb(70, 54, 29)" opacity="0.9978189" stroke="rgb(0, 0, 0)" stroke-opacity="1.0" stroke-linecap="round" stroke-linejoin="round"/>
    <path d="M -5.562387943267822 162.16163635253906 C -6.709045886993408 177.41949462890625 -6.257363796234131 185.71810913085938 -5.14879035949707 195.84408569335938 C 4.128003120422363 190.9953155517578 7.918352127075195 191.06883239746094 10.386632919311523 188.37989807128906 C 9.716652870178223 185.61936950683594 10.989516258239746 180.6376495361328 9.146376609802246 174.246337890625 C 7.939589500427246 172.9239959716797 4.920656681060791 166.39141845703125 -5.562387943267822 162.16163635253906" stroke-width="0.0" fill="rgb(71, 63, 28)" opacity="1.0017942" stroke="rgb(0, 0, 0)" stroke-opacity="1.0" stroke-linecap="round" stroke-linejoin="round"/>
    <path d="M 279.476318359375 83.30902099609375 C 267.858642578125 82.3563461303711 265.4991455078125 83.42105102539062 260.6262512207031 85.98798370361328 C 255.2549285888672 90.44930267333984 259.16766357421875 88.25272369384766 258.76593017578125 92.51947021484375 C 260.00640869140625 97.09886169433594 261.9044189453125 96.32666015625 270.6341857910156 95.8100814819336 C 273.9004211425781 90.88580322265625 277.94171142578125 88.69782257080078 279.476318359375 83.30902099609375" stroke-width="0.0" fill="rgb(113, 107, 76)" opacity="0.9973301" stroke="rgb(0, 0, 0)" stroke-opacity="1.0" stroke-linecap="round" stroke-linejoin="round"/>
    <path d="M 268.346923828125 43.70058059692383 C 267.1344909667969 56.1888313293457 261.4120178222656 57.36716079711914 264.4489440917969 72.75196838378906 C 265.3444519042969 72.14929962158203 266.858642578125 75.26948547363281 272.1444091796875 73.98212432861328 C 272.207275390625 56.78903579711914 273.7178955078125 48.684234619140625 268.346923828125 43.70058059692383" stroke-width="0.0" fill="rgb(89, 69, 35)" opacity="0.9993422" stroke="rgb(0, 0, 0)" stroke-opacity="1.0" stroke-linecap="round" stroke-linejoin="round"/>
    <path d="M 73.06407928466797 80.93437194824219 C 68.90973663330078 78.28595733642578 65.20698547363281 79.03857421875 57.4678955078125 80.36062622070312 C 56.37922286987305 80.6810302734375 52.94074249267578 90.07939910888672 56.21308898925781 89.440185546875 C 58.57994842529297 94.0942153930664 62.605506896972656 88.61468505859375 69.55510711669922 89.25276184082031 C 74.80155944824219 87.01163482666016 75.09347534179688 87.00663757324219 73.06407928466797 80.93437194824219" stroke-width="0.0" fill="rgb(89, 84, 72)" opacity="0.9971736" stroke="rgb(0, 0, 0)" stroke-opacity="1.0" stroke-linecap="round" stroke-linejoin="round"/>
    <path d="M 29.782997131347656 115.95952606201172 C 16.856582641601562 108.3851318359375 26.36176872253418 119.76914978027344 17.69375228881836 131.546875 C 16.483688354492188 134.06044006347656 19.731216430664062 136.24264526367188 25.219669342041016 137.39430236816406 C 26.55028533935547 123.26380157470703 33.36089324951172 132.48123168945312 29.782997131347656 115.95952606201172" stroke-width="0.0" fill="rgb(46, 40, 37)" opacity="0.9952855" stroke="rgb(0, 0, 0)" stroke-opacity="1.0" stroke-linecap="round" stroke-linejoin="round"/>
    <path d="M 251.64901733398438 90.54317474365234 C 242.91000366210938 91.60498809814453 238.3844451904297 95.33882141113281 235.7904815673828 103.28199005126953 C 240.74392700195312 103.57534790039062 245.0612335205078 102.36009216308594 254.6196746826172 106.21221160888672 C 255.88967895507812 100.7872543334961 252.7366180419922 94.6506576538086 251.64901733398438 90.54317474365234" stroke-width="0.0" fill="rgb(126, 115, 87)" opacity="1.004669" stroke="rgb(0, 0, 0)" stroke-opacity="1.0" stroke-linecap="round" stroke-linejoin="round"/>
    <path d="M 261.7839660644531 162.90386962890625 C 253.92886352539062 162.1167449951172 250.56922912597656 165.1323699951172 245.73483276367188 163.6649932861328 C 240.99586486816406 164.0972900390625 243.7040252685547 168.5415802001953 242.7283172607422 172.07000732421875 C 243.62838745117188 173.25079345703125 258.6938171386719 173.24578857421875 258.8212890625 172.86944580078125 C 261.4350280761719 171.20928955078125 261.6687316894531 166.53094482421875 261.7839660644531 162.90386962890625" stroke-width="0.0" fill="rgb(77, 73, 60)" opacity="1.0000385" stroke="rgb(0, 0, 0)" stroke-opacity="1.0" stroke-linecap="round" stroke-linejoin="round"/>
    <path d="M 1.5076673030853271 388.1711120605469 C 0.13583749532699585 427.4451599121094 0.6286022067070007 473.8855895996094 1.787522792816162 519.501220703125 C 171.6534881591797 519.6642456054688 341.32904052734375 519.7696533203125 521.5254516601562 519.6611328125 C 521.9486694335938 465.75872802734375 522.1322631835938 424.30120849609375 520.4771728515625 388.4432067871094 C 337.679443359375 383.9433898925781 172.32325744628906 387.06793212890625 1.5076673030853271 388.1711120605469" stroke-width="0.0" fill="rgb(204, 182, 123)" opacity="1.010101" stroke="rgb(0, 0, 0)" stroke-opacity="1.0" stroke-linecap="round" stroke-linejoin="round"/>
    <path d="M 156.4864044189453 336.98419189453125 C 168.11219787597656 348.8873291015625 169.05108642578125 334.4964904785156 173.67518615722656 349.85040283203125 C 185.36109924316406 358.1627502441406 188.53793334960938 346.3043212890625 193.67010498046875 337.28076171875 C 192.9918975830078 333.12237548828125 187.79270935058594 327.0784912109375 181.01150512695312 327.3060607910156 C 170.1594696044922 325.82122802734375 161.7209014892578 329.96661376953125 156.4864044189453 336.98419189453125" stroke-width="0.0" fill="rgb(125, 120, 112)" opacity="0.89740753" stroke="rgb(0, 0, 0)" stroke-opacity="1.0" stroke-linecap="round" stroke-linejoin="round"/>
    <path d="M 259.50372314453125 318.8910827636719 C 255.38987731933594 317.45928955078125 249.21017456054688 320.05413818359375 247.18972778320312 323.2853088378906 C 244.3607177734375 332.0114440917969 246.4678192138672 338.46685791015625 252.22364807128906 339.1258850097656 C 258.20928955078125 340.5318298339844 261.8193359375 336.2238464355469 255.39517211914062 331.0544738769531 C 268.4479675292969 325.68121337890625 267.832275390625 323.7395935058594 259.50372314453125 318.8910827636719" stroke-width="0.0" fill="rgb(71, 58, 47)" opacity="1.0369153" stroke="rgb(0, 0, 0)" stroke-opacity="1.0" stroke-linecap="round" stroke-linejoin="round"/>
    <path d="M 330.8650817871094 309.4111633300781 C 334.14239501953125 310.190185546875 339.0872497558594 313.600341796875 340.1938781738281 324.88116455078125 C 340.8716735839844 328.2825927734375 334.7821960449219 328.7375793457031 339.4515686035156 336.7968444824219 C 345.19097900390625 336.10687255859375 348.1339416503906 338.9995422363281 351.0364990234375 343.3616943359375 C 397.2687072753906 353.1183166503906 444.7635498046875 357.753662109375 491.17352294921875 365.35406494140625 C 503.7557067871094 369.34539794921875 509.1895446777344 370.3960876464844 512.5803833007812 384.4669189453125 C 518.5934448242188 353.0293273925781 518.6654663085938 327.45806884765625 520.03857421875 301.64031982421875 C 487.849609375 303.22869873046875 471.6620788574219 297.5548400878906 456.437255859375 303.3336486816406 C 432.8060302734375 300.21527099609375 418.6888732910156 293.38690185546875 398.42578125 292.1753845214844 C 385.4884033203125 297.6233215332031 367.3205871582031 293.9718017578125 353.453125 297.16534423828125 C 344.6667175292969 300.0874328613281 332.4839172363281 300.7828369140625 330.8650817871094 309.4111633300781" stroke-width="0.0" fill="rgb(165, 145, 82)" opacity="1.0003747" stroke="rgb(0, 0, 0)" stroke-opacity="1.0" stroke-linecap="round" stroke-linejoin="round"/>
    <path d="M 519.1976318359375 220.6069793701172 C 497.82415771484375 222.87139892578125 487.2586364746094 226.81468200683594 478.1297912597656 225.7223358154297 C 439.8238220214844 233.54013061523438 454.4561462402344 254.22706604003906 413.9668273925781 247.25485229492188 C 415.29052734375 264.8743896484375 410.5610656738281 273.43463134765625 405.7026062011719 288.06195068359375 C 420.1300354003906 292.39215087890625 436.97998046875 297.6533508300781 452.2662658691406 299.9522705078125 C 465.8106384277344 293.3110046386719 483.2765808105469 302.8310852050781 520.2625122070312 299.0404968261719 C 518.8673095703125 272.6127624511719 518.899169921875 246.23471069335938 519.1976318359375 220.6069793701172" stroke-width="0.0" fill="rgb(96, 87, 49)" opacity="1.0047109" stroke="rgb(0, 0, 0)" stroke-opacity="1.0" stroke-linecap="round" stroke-linejoin="round"/>
    <path d="M 518.184814453125 128.1702880859375 C 499.78125 129.25457763671875 501.02691650390625 148.305419921875 493.5747985839844 156.43016052246094 C 489.22705078125 173.3387908935547 491.6295166015625 191.00099182128906 488.9025573730469 198.72691345214844 C 490.5948791503906 207.26263427734375 489.5726013183594 216.39108276367188 493.5091857910156 212.60409545898438 C 493.3100280761719 217.87493896484375 503.5350646972656 212.62330627441406 518.888427734375 216.28378295898438 C 519.5097045898438 182.74374389648438 521.45751953125 151.9340362548828 518.184814453125 128.1702880859375" stroke-width="0.0" fill="rgb(89, 81, 23)" opacity="0.9990872" stroke="rgb(0, 0, 0)" stroke-opacity="1.0" stroke-linecap="round" stroke-linejoin="round"/>
    <path d="M 218.47164916992188 295.908447265625 C 210.36314392089844 292.34185791015625 201.1614532470703 290.1782531738281 183.24014282226562 293.1488342285156 C 179.57052612304688 296.6334228515625 171.6937713623047 294.83465576171875 171.42745971679688 302.6478271484375 C 175.09840393066406 306.36566162109375 169.63027954101562 311.42059326171875 170.71018981933594 311.28350830078125 C 186.68287658691406 318.2592468261719 196.6890411376953 311.58270263671875 221.5891876220703 310.2665100097656 C 221.09768676757812 313.9200744628906 215.57237243652344 301.7744140625 218.47164916992188 295.908447265625" stroke-width="0.0" fill="rgb(107, 93, 65)" opacity="1.0008994" stroke="rgb(0, 0, 0)" stroke-opacity="1.0" stroke-linecap="round" stroke-linejoin="round"/>
    <path d="M 322.77032470703125 335.4333801269531 C 314.26708984375 326.58197021484375 304.2340393066406 324.9991760253906 294.72625732421875 319.42425537109375 C 294.9146728515625 329.2261657714844 278.29229736328125 319.603515625 275.1404724121094 331.3751525878906 C 265.8272705078125 329.2859802246094 262.2453308105469 323.4756774902344 255.00782775878906 320.3414611816406 C 252.25982666015625 323.5137634277344 253.09112548828125 331.08502197265625 250.68629455566406 337.1578063964844 C 273.3390197753906 335.9246520996094 298.3294372558594 340.2459411621094 322.77032470703125 335.4333801269531" stroke-width="0.0" fill="rgb(138, 128, 114)" opacity="1.044141" stroke="rgb(0, 0, 0)" stroke-opacity="1.0" stroke-linecap="round" stroke-linejoin="round"/>
    <path d="M 286.5420837402344 309.3866271972656 C 305.6207580566406 318.8245849609375 316.35650634765625 334.44580078125 334.4939880371094 335.8708190917969 C 339.19952392578125 323.8949890136719 338.5321044921875 320.03216552734375 334.1761169433594 311.5891418457031 C 323.91961669921875 310.1966247558594 300.8274230957031 309.9654846191406 286.5420837402344 309.3866271972656" stroke-width="0.0" fill="rgb(72, 67, 67)" opacity="0.99880755" stroke="rgb(0, 0, 0)" stroke-opacity="1.0" stroke-linecap="round" stroke-linejoin="round"/>
    <path d="M 383.6307678222656 237.54360961914062 C 390.3505859375 247.91697692871094 400.9443054199219 243.55023193359375 406.27001953125 255.95640563964844 C 420.14483642578125 258.2438049316406 425.9584045410156 247.30685424804688 439.95050048828125 245.1072540283203 C 425.860595703125 240.904052734375 413.6529235839844 238.13523864746094 402.9072570800781 232.9138641357422 C 395.37298583984375 232.90818786621094 387.3455810546875 232.7015838623047 383.6307678222656 237.54360961914062" stroke-width="0.0" fill="rgb(140, 113, 60)" opacity="1.0000418" stroke="rgb(0, 0, 0)" stroke-opacity="1.0" stroke-linecap="round" stroke-linejoin="round"/>
    <path d="M 166.13648986816406 214.76449584960938 C 169.04176330566406 221.68653869628906 171.78570556640625 215.8209686279297 168.23326110839844 225.41627502441406 C 189.52210998535156 221.69869995117188 175.134765625 237.9466094970703 199.2443389892578 233.53024291992188 C 200.44239807128906 233.8460235595703 202.37527465820312 220.3053741455078 196.5865020751953 221.49734497070312 C 198.51039123535156 216.40501403808594 213.61886596679688 219.11325073242188 210.74632263183594 210.477783203125 C 186.72042846679688 207.33575439453125 183.27423095703125 213.0312957763672 166.13648986816406 214.76449584960938" stroke-width="0.0" fill="rgb(89, 73, 60)" opacity="0.9976314" stroke="rgb(0, 0, 0)" stroke-opacity="1.0" stroke-linecap="round" stroke-linejoin="round"/>
    <path d="M 424.9620666503906 175.947998046875 C 414.4112243652344 178.79769897460938 410.7081604003906 183.01364135742188 407.5416564941406 198.75706481933594 C 409.4155578613281 202.12342834472656 414.5071716308594 206.5977783203125 424.38922119140625 208.3485870361328 C 430.8242492675781 203.87741088867188 434.6157531738281 201.866455078125 430.8237609863281 201.31494140625 C 434.083984375 183.9925079345703 432.4227294921875 180.57118225097656 424.9620666503906 175.947998046875" stroke-width="0.0" fill="rgb(44, 40, 30)" opacity="1.0180478" stroke="rgb(0, 0, 0)" stroke-opacity="1.0" stroke-linecap="round" stroke-linejoin="round"/>
    <path d="M 316.20330810546875 283.9076232910156 C 316.8289489746094 300.09454345703125 333.5245361328125 290.2004089355469 333.2583312988281 303.1514892578125 C 340.1568908691406 295.3036804199219 353.64556884765625 296.62127685546875 350.6882019042969 287.1302490234375 C 345.11920166015625 284.5899658203125 329.3174133300781 283.4402160644531 316.20330810546875 283.9076232910156" stroke-width="0.0" fill="rgb(88, 82, 64)" opacity="1.0167698" stroke="rgb(0, 0, 0)" stroke-opacity="1.0" stroke-linecap="round" stroke-linejoin="round"/>
    <path d="M 284.30853271484375 265.2110900878906 C 284.18548583984375 254.06298828125 275.0868225097656 254.8936309814453 268.439453125 254.7963104248047 C 263.67236328125 254.19741821289062 265.62841796875 262.4559020996094 260.9490051269531 264.321044921875 C 249.59446716308594 263.0876770019531 237.5021209716797 263.63031005859375 247.93434143066406 270.750244140625 C 260.50457763671875 269.06280517578125 277.1844177246094 268.1354675292969 284.30853271484375 265.2110900878906" stroke-width="0.0" fill="rgb(118, 112, 83)" opacity="0.9838567" stroke="rgb(0, 0, 0)" stroke-opacity="1.0" stroke-linecap="round" stroke-linejoin="round"/>
    <path d="M 362.7247314453125 170.075927734375 C 358.6747741699219 175.43960571289062 357.0382080078125 179.8695068359375 363.7482604980469 188.65228271484375 C 366.1224670410156 190.52442932128906 366.82525634765625 192.90472412109375 376.7037353515625 190.46363830566406 C 376.3390808105469 192.0643310546875 374.1928405761719 180.65016174316406 375.1423645019531 176.00392150878906 C 370.61602783203125 173.3253631591797 368.7326965332031 168.88616943359375 362.7247314453125 170.075927734375" stroke-width="0.0" fill="rgb(42, 42, 34)" opacity="1.0020758" stroke="rgb(0, 0, 0)" stroke-opacity="1.0" stroke-linecap="round" stroke-linejoin="round"/>
    <path d="M 285.4378356933594 -11.007772445678711 C 284.2717590332031 7.727318286895752 285.80755615234375 18.150936126708984 296.3822937011719 14.34929370880127 C 308.42333984375 -0.5333238244056702 320.3284606933594 31.070377349853516 343.10125732421875 9.304813385009766 C 350.7323913574219 19.939672470092773 358.67889404296875 13.77966022491455 361.6678771972656 24.65231704711914 C 373.39166259765625 24.509506225585938 377.1658935546875 23.250797271728516 391.3297119140625 28.061996459960938 C 396.1575012207031 9.252214431762695 413.0843505859375 19.267566680908203 414.5211486816406 -9.071271896362305 C 378.2530822753906 -11.3822660446167 335.2948303222656 -11.29454231262207 285.4378356933594 -11.007772445678711" stroke-width="0.0" fill="rgb(117, 110, 95)" opacity="1.02855" stroke="rgb(0, 0, 0)" stroke-opacity="1.0" stroke-linecap="round" stroke-linejoin="round"/>
    <path d="M 247.0064697265625 100.99413299560547 C 243.29440307617188 102.57042694091797 237.23167419433594 101.87457275390625 231.9447021484375 104.25337219238281 C 229.46409606933594 108.15342712402344 227.12985229492188 112.144775390625 225.29678344726562 122.54084014892578 C 233.66915893554688 125.18891906738281 229.4691619873047 145.90924072265625 241.69482421875 158.31005859375 C 246.95884704589844 153.4648895263672 254.5445098876953 151.41647338867188 255.44082641601562 144.23109436035156 C 257.57318115234375 138.9830322265625 254.87196350097656 119.84939575195312 256.2450256347656 113.88407135009766 C 254.5087890625 106.86734771728516 253.00918579101562 102.51142120361328 247.0064697265625 100.99413299560547" stroke-width="0.0" fill="rgb(68, 56, 32)" opacity="0.9616976" stroke="rgb(0, 0, 0)" stroke-opacity="1.0" stroke-linecap="round" stroke-linejoin="round"/>
    <path d="M 47.77301025390625 95.03364562988281 C 46.95379638671875 94.956787109375 36.271141052246094 94.12991333007812 37.72388458251953 97.42964935302734 C 34.84577941894531 101.27676391601562 32.828033447265625 109.80025482177734 29.799970626831055 121.3433609008789 C 27.160873413085938 131.46194458007812 32.453643798828125 135.0636749267578 32.529457092285156 146.0132598876953 C 40.1341552734375 146.43910217285156 46.133079528808594 145.7596435546875 47.01275634765625 140.21165466308594 C 48.628387451171875 130.31060791015625 47.82480239868164 127.38863372802734 53.56085968017578 119.81370544433594 C 53.65713882446289 108.70437622070312 51.14787673950195 99.17790985107422 47.77301025390625 95.03364562988281" stroke-width="0.0" fill="rgb(81, 68, 40)" opacity="0.99387205" stroke="rgb(0, 0, 0)" stroke-opacity="1.0" stroke-linecap="round" stroke-linejoin="round"/>
    <path d="M 475.8809509277344 168.2911834716797 C 467.0625915527344 164.94065856933594 466.9064636230469 173.1647491455078 462.68145751953125 184.72439575195312 C 465.2502136230469 195.8787078857422 458.6690979003906 202.7291259765625 459.9595642089844 213.27122497558594 C 461.4822692871094 219.3548583984375 461.2523498535156 219.4687042236328 467.19366455078125 221.0200958251953 C 470.5527648925781 221.16868591308594 476.90240478515625 220.02557373046875 479.556640625 217.38357543945312 C 477.3730773925781 196.21441650390625 482.8152160644531 176.0276336669922 475.8809509277344 168.2911834716797" stroke-width="0.0" fill="rgb(102, 85, 31)" opacity="1.0236477" stroke="rgb(0, 0, 0)" stroke-opacity="1.0" stroke-linecap="round" stroke-linejoin="round"/>
    <path d="M 457.4031982421875 163.0426025390625 C 448.5439453125 157.77781677246094 446.8266906738281 168.1772003173828 444.5318298339844 175.65028381347656 C 441.5819396972656 193.85653686523438 438.20361328125 206.79660034179688 443.2846984863281 216.09339904785156 C 454.6155090332031 218.8815155029297 453.6348876953125 214.48876953125 457.27099609375 205.46340942382812 C 459.9628601074219 190.1827392578125 460.4394836425781 164.83551025390625 457.4031982421875 163.0426025390625" stroke-width="0.0" fill="rgb(96, 81, 33)" opacity="0.9843987" stroke="rgb(0, 0, 0)" stroke-opacity="1.0" stroke-linecap="round" stroke-linejoin="round"/>
    <path d="M 229.2914276123047 26.341793060302734 C 228.6656036376953 23.387258529663086 222.54173278808594 21.406696319580078 211.2386016845703 21.824115753173828 C 205.0316925048828 25.829978942871094 200.99884033203125 22.25346565246582 193.7351531982422 24.824878692626953 C 192.19778442382812 32.3533935546875 183.95169067382812 32.061500549316406 187.9797821044922 36.68052673339844 C 192.6198272705078 44.97630310058594 206.15711975097656 39.18715286254883 223.83651733398438 41.01388168334961 C 229.65220642089844 37.122379302978516 234.14651489257812 40.056365966796875 229.2914276123047 26.341793060302734" stroke-width="0.0" fill="rgb(112, 103, 84)" opacity="0.99775606" stroke="rgb(0, 0, 0)" stroke-opacity="1.0" stroke-linecap="round" stroke-linejoin="round"/>
    <path d="M 40.044254302978516 145.27003479003906 C 33.01139450073242 148.22061157226562 26.660938262939453 155.36819458007812 25.66307830810547 167.61874389648438 C 29.78483772277832 173.18710327148438 25.986774444580078 188.3876190185547 29.796506881713867 187.1113739013672 C 37.772056579589844 193.77874755859375 44.61668395996094 178.22474670410156 45.10162353515625 169.63497924804688 C 41.468807220458984 160.21319580078125 50.256568908691406 149.12649536132812 40.044254302978516 145.27003479003906" stroke-width="0.0" fill="rgb(83, 69, 29)" opacity="1.0009849" stroke="rgb(0, 0, 0)" stroke-opacity="1.0" stroke-linecap="round" stroke-linejoin="round"/>
    <path d="M 317.0015869140625 141.02259826660156 C 311.7243347167969 148.43576049804688 309.57940673828125 154.3408966064453 312.8687438964844 170.27845764160156 C 321.9551086425781 172.57676696777344 317.4188537597656 182.25184631347656 330.9258728027344 182.04061889648438 C 334.5466003417969 172.82276916503906 332.44317626953125 151.60784912109375 329.6034851074219 149.17079162597656 C 323.8380432128906 142.85618591308594 323.42181396484375 151.77264404296875 318.4164123535156 153.2818145751953 C 322.0855712890625 143.94696044921875 323.0016784667969 149.75070190429688 317.0015869140625 141.02259826660156" stroke-width="0.0" fill="rgb(94, 79, 27)" opacity="0.9994209" stroke="rgb(0, 0, 0)" stroke-opacity="1.0" stroke-linecap="round" stroke-linejoin="round"/>
    <path d="M 231.0081329345703 132.8831329345703 C 230.40736389160156 147.0972442626953 221.02639770507812 154.37074279785156 224.77249145507812 168.842041015625 C 223.0435333251953 171.22064208984375 230.1273193359375 177.08001708984375 234.08465576171875 179.6271209716797 C 243.01841735839844 175.5779266357422 241.63970947265625 167.93482971191406 240.9757843017578 157.64700317382812 C 235.133544921875 149.90597534179688 233.7373504638672 142.26271057128906 231.0081329345703 132.8831329345703" stroke-width="0.0" fill="rgb(62, 60, 33)" opacity="1.0035282" stroke="rgb(0, 0, 0)" stroke-opacity="1.0" stroke-linecap="round" stroke-linejoin="round"/>
    <path d="M 181.95716857910156 273.8103942871094 C 178.25709533691406 286.2488708496094 196.58201599121094 277.5708312988281 200.4001007080078 293.7094421386719 C 202.62205505371094 293.7745056152344 209.3179473876953 290.60980224609375 214.5086212158203 293.9794921875 C 215.2589874267578 291.7005920410156 217.87118530273438 287.61798095703125 220.588623046875 279.9762268066406 C 218.08935546875 276.301513671875 213.72698974609375 279.32696533203125 211.1714630126953 271.3435974121094 C 189.15223693847656 275.7174987792969 180.82296752929688 273.39581298828125 181.95716857910156 273.8103942871094" stroke-width="0.0" fill="rgb(101, 85, 50)" opacity="0.9898099" stroke="rgb(0, 0, 0)" stroke-opacity="1.0" stroke-linecap="round" stroke-linejoin="round"/>
    <path d="M 480.81536865234375 -4.599893093109131 C 474.4894104003906 6.024411678314209 475.9173583984375 9.316408157348633 487.7142028808594 12.371054649353027 C 497.9945068359375 10.613450050354004 498.32440185546875 15.733903884887695 518.013427734375 26.56060028076172 C 518.1050415039062 13.595681190490723 518.0391845703125 6.681789398193359 517.9695434570312 -5.287546157836914 C 500.0787353515625 -4.037909030914307 488.93170166015625 -3.616251230239868 480.81536865234375 -4.599893093109131" stroke-width="0.0" fill="rgb(102, 89, 59)" opacity="0.9994837" stroke="rgb(0, 0, 0)" stroke-opacity="1.0" stroke-linecap="round" stroke-linejoin="round"/>
    <path d="M 346.21875 145.14031982421875 C 339.7066345214844 145.0205841064453 330.5899353027344 146.6527557373047 339.3815002441406 151.73690795898438 C 335.76898193359375 163.55137634277344 332.5110168457031 175.181396484375 337.5430908203125 185.54019165039062 C 347.3888244628906 186.0583953857422 345.6904602050781 183.3465576171875 347.5340270996094 177.76734924316406 C 350.02239990234375 161.49337768554688 345.3326416015625 155.249755859375 346.21875 145.14031982421875" stroke-width="0.0" fill="rgb(70, 63, 30)" opacity="0.99956393" stroke="rgb(0, 0, 0)" stroke-opacity="1.0" stroke-linecap="round" stroke-linejoin="round"/>
    <path d="M 402.9794616699219 148.44041442871094 C 394.7904968261719 156.5756072998047 392.9782409667969 172.2327880859375 389.7452087402344 185.37371826171875 C 392.1224060058594 187.38494873046875 393.5643310546875 196.63438415527344 398.54925537109375 198.00013732910156 C 402.4414978027344 184.64389038085938 404.8138732910156 167.29136657714844 402.9794616699219 148.44041442871094" stroke-width="0.0" fill="rgb(89, 73, 33)" opacity="1.0003996" stroke="rgb(0, 0, 0)" stroke-opacity="1.0" stroke-linecap="round" stroke-linejoin="round"/>
    <path d="M 16.943878173828125 68.70121765136719 C 7.912729740142822 71.12596130371094 11.213696479797363 85.96503448486328 9.451377868652344 98.59673309326172 C 12.477357864379883 100.86715698242188 15.984128952026367 104.6023178100586 23.803234100341797 99.39017486572266 C 22.440540313720703 89.21552276611328 20.36092185974121 75.62329864501953 16.943878173828125 68.70121765136719" stroke-width="0.0" fill="rgb(84, 72, 42)" opacity="1.0021706" stroke="rgb(0, 0, 0)" stroke-opacity="1.0" stroke-linecap="round" stroke-linejoin="round"/>
    <path d="M 142.06356811523438 293.6087951660156 C 127.74494171142578 292.8769226074219 114.35484313964844 294.3813781738281 110.53678894042969 300.4931335449219 C 110.50336456298828 305.2644348144531 123.65876770019531 305.24884033203125 128.4194793701172 306.2523498535156 C 138.2895050048828 305.5669860839844 142.28392028808594 303.0696716308594 142.06356811523438 293.6087951660156" stroke-width="0.0" fill="rgb(133, 121, 83)" opacity="0.9996523" stroke="rgb(0, 0, 0)" stroke-opacity="1.0" stroke-linecap="round" stroke-linejoin="round"/>
    <path d="M 276.0331115722656 145.0268096923828 C 273.4225158691406 142.89019775390625 269.9017333984375 156.85186767578125 271.6673583984375 162.39698791503906 C 271.4664001464844 164.7370147705078 271.1227111816406 172.6355438232422 277.4500427246094 174.43751525878906 C 286.4206237792969 171.69577026367188 281.65966796875 170.43008422851562 283.7296142578125 163.0917205810547 C 283.7981872558594 150.55709838867188 282.1646423339844 142.26223754882812 276.0331115722656 145.0268096923828" stroke-width="0.0" fill="rgb(58, 57, 40)" opacity="1.0005845" stroke="rgb(0, 0, 0)" stroke-opacity="1.0" stroke-linecap="round" stroke-linejoin="round"/>
    <path d="M 212.2007598876953 103.87589263916016 C 205.65374755859375 111.96305084228516 206.61114501953125 116.79143524169922 206.96475219726562 131.9376220703125 C 208.4357452392578 129.303955078125 219.59591674804688 133.24356079101562 218.0806427001953 132.06422424316406 C 221.5602569580078 117.9872817993164 219.96400451660156 109.18368530273438 212.2007598876953 103.87589263916016" stroke-width="0.0" fill="rgb(105, 78, 35)" opacity="1.0001243" stroke="rgb(0, 0, 0)" stroke-opacity="1.0" stroke-linecap="round" stroke-linejoin="round"/>
    <path d="M 99.56466674804688 224.6952667236328 C 102.26265716552734 229.7413330078125 108.68368530273438 230.98500061035156 108.50233459472656 234.7010040283203 C 122.23182678222656 239.23728942871094 124.50289916992188 239.19357299804688 129.78712463378906 232.74900817871094 C 126.37590026855469 227.490966796875 120.5357894897461 223.6016387939453 113.02220916748047 221.77877807617188 C 113.66648864746094 221.7324676513672 106.07371520996094 224.0370330810547 99.56466674804688 224.6952667236328" stroke-width="0.0" fill="rgb(127, 91, 44)" opacity="1.0007464" stroke="rgb(0, 0, 0)" stroke-opacity="1.0" stroke-linecap="round" stroke-linejoin="round"/>
    <path d="M 336.23126220703125 120.38038635253906 C 333.7312316894531 118.4343032836914 330.0643615722656 125.2552490234375 328.819091796875 132.165283203125 C 329.53009033203125 142.7958221435547 327.0125732421875 145.39532470703125 336.246337890625 145.3838653564453 C 334.5618591308594 144.92800903320312 339.2677917480469 137.4458465576172 344.18670654296875 135.98936462402344 C 343.8064270019531 122.59207916259766 343.16241455078125 120.90605163574219 336.23126220703125 120.38038635253906" stroke-width="0.0" fill="rgb(90, 76, 26)" opacity="0.99998313" stroke="rgb(0, 0, 0)" stroke-opacity="1.0" stroke-linecap="round" stroke-linejoin="round"/>
    <path d="M 121.21736907958984 6.946774005889893 C 124.52841186523438 -2.2376205921173096 120.45010375976562 4.837047576904297 112.0881576538086 0.2824181616306305 C 104.46417236328125 4.359356880187988 92.66304779052734 8.862403869628906 85.98583221435547 17.843624114990234 C 106.3299789428711 10.737381935119629 117.43174743652344 13.161014556884766 121.21736907958984 6.946774005889893" stroke-width="0.0" fill="rgb(126, 123, 109)" opacity="0.9950681" stroke="rgb(0, 0, 0)" stroke-opacity="1.0" stroke-linecap="round" stroke-linejoin="round"/>
    <path d="M 437.2639465332031 179.65408325195312 C 429.0067138671875 181.71263122558594 434.79339599609375 195.6035919189453 428.7495422363281 206.33291625976562 C 437.7410888671875 211.44577026367188 440.95745849609375 205.86500549316406 440.865478515625 198.7676544189453 C 439.54803466796875 194.87818908691406 441.8752136230469 181.46444702148438 437.2639465332031 179.65408325195312" stroke-width="0.0" fill="rgb(79, 66, 34)" opacity="1.0157313" stroke="rgb(0, 0, 0)" stroke-opacity="1.0" stroke-linecap="round" stroke-linejoin="round"/>
    <path d="M 157.84959411621094 369.5707092285156 C 156.21380615234375 374.91748046875 156.71873474121094 376.0847473144531 159.9154510498047 378.5519104003906 C 167.65499877929688 377.55987548828125 183.98814392089844 378.158203125 184.80618286132812 374.9643859863281 C 183.34922790527344 366.398681640625 172.619873046875 369.276123046875 168.23184204101562 365.8002014160156 C 164.08526611328125 364.55474853515625 161.1772918701172 370.4468994140625 157.84959411621094 369.5707092285156" stroke-width="0.0" fill="rgb(122, 115, 77)" opacity="1.0006909" stroke="rgb(0, 0, 0)" stroke-opacity="1.0" stroke-linecap="round" stroke-linejoin="round"/>
    <path d="M 518.990478515625 23.520675659179688 C 500.4649963378906 26.142244338989258 497.13519287109375 28.004343032836914 499.14569091796875 38.32429504394531 C 504.75897216796875 40.52642059326172 502.8296203613281 49.8874397277832 519.2371215820312 48.784339904785156 C 521.0445556640625 34.695072174072266 520.7217407226562 27.131322860717773 518.990478515625 23.520675659179688" stroke-width="0.0" fill="rgb(152, 148, 131)" opacity="0.99934125" stroke="rgb(0, 0, 0)" stroke-opacity="1.0" stroke-linecap="round" stroke-linejoin="round"/>
    <path d="M 355.6338806152344 155.45494079589844 C 350.4902038574219 159.70596313476562 350.77197265625 174.34434509277344 350.854736328125 184.89447021484375 C 352.6514587402344 182.58053588867188 356.3454895019531 191.604736328125 361.5815124511719 184.27032470703125 C 358.9105529785156 178.0548553466797 361.0502014160156 163.91842651367188 355.6338806152344 155.45494079589844" stroke-width="0.0" fill="rgb(74, 71, 30)" opacity="0.9929292" stroke="rgb(0, 0, 0)" stroke-opacity="1.0" stroke-linecap="round" stroke-linejoin="round"/>
    <path d="M 143.0533905029297 269.34149169921875 C 138.55392456054688 264.2691650390625 133.74575805664062 267.26898193359375 126.4244384765625 268.37042236328125 C 123.91323852539062 268.4374694824219 122.58267211914062 274.38690185546875 120.74293518066406 277.0592346191406 C 121.1478271484375 280.6934814453125 133.50486755371094 278.1801452636719 139.8504180908203 279.40850830078125 C 142.50173950195312 277.6236572265625 143.56134033203125 276.73480224609375 143.0533905029297 269.34149169921875" stroke-width="0.0" fill="rgb(95, 86, 50)" opacity="1.0003958" stroke="rgb(0, 0, 0)" stroke-opacity="1.0" stroke-linecap="round" stroke-linejoin="round"/>
    <path d="M 324.8989562988281 195.7293243408203 C 317.7033386230469 194.76255798339844 318.4310607910156 206.31607055664062 319.20062255859375 210.7783203125 C 322.4338073730469 215.44590759277344 321.84417724609375 228.08184814453125 331.3265686035156 219.63478088378906 C 330.9808654785156 208.9407501220703 325.3692321777344 202.87632751464844 324.8989562988281 195.7293243408203" stroke-width="0.0" fill="rgb(102, 81, 37)" opacity="1.000934" stroke="rgb(0, 0, 0)" stroke-opacity="1.0" stroke-linecap="round" stroke-linejoin="round"/>
    <path d="M 247.13771057128906 382.85699462890625 C 255.7698516845703 380.1942138671875 271.86981201171875 382.9611511230469 271.8975830078125 378.20269775390625 C 271.2331237792969 372.0621337890625 259.44537353515625 372.9525451660156 254.71824645996094 372.8143615722656 C 245.1108856201172 376.1473388671875 239.020751953125 373.8669738769531 247.13771057128906 382.85699462890625" stroke-width="0.0" fill="rgb(99, 92, 51)" opacity="0.99822986" stroke="rgb(0, 0, 0)" stroke-opacity="1.0" stroke-linecap="round" stroke-linejoin="round"/>
    <path d="M 117.71359252929688 260.37933349609375 C 110.79876708984375 253.24038696289062 108.49296569824219 255.5941619873047 98.19965362548828 256.45062255859375 C 103.26187133789062 261.4038391113281 99.58024597167969 255.0596466064453 98.8479232788086 264.3694763183594 C 104.46358489990234 265.02008056640625 103.05159759521484 270.8408508300781 107.4834213256836 269.23516845703125 C 112.61302947998047 268.8211669921875 116.27523803710938 264.02972412109375 117.71359252929688 260.37933349609375" stroke-width="0.0" fill="rgb(114, 111, 83)" opacity="1.0034705" stroke="rgb(0, 0, 0)" stroke-opacity="1.0" stroke-linecap="round" stroke-linejoin="round"/>
    <path d="M 362.4944152832031 290.4693908691406 C 360.8690490722656 298.81793212890625 363.6221923828125 297.3735046386719 361.7008972167969 296.0456237792969 C 372.90625 295.7606201171875 382.3768615722656 295.0722961425781 393.0533142089844 295.0401611328125 C 381.22637939453125 289.6496887207031 376.59259033203125 290.5098876953125 362.4944152832031 290.4693908691406" stroke-width="0.0" fill="rgb(129, 119, 73)" opacity="1.0108371" stroke="rgb(0, 0, 0)" stroke-opacity="1.0" stroke-linecap="round" stroke-linejoin="round"/>
    <path d="M 130.63648986816406 284.1023254394531 C 132.23988342285156 292.3357849121094 142.0674285888672 287.55517578125 154.55068969726562 290.5715637207031 C 159.2497100830078 282.7273254394531 147.6310272216797 286.92840576171875 147.23414611816406 280.6785583496094 C 139.7369842529297 281.3768615722656 131.97869873046875 279.62164306640625 130.63648986816406 284.1023254394531" stroke-width="0.0" fill="rgb(76, 73, 44)" opacity="1.0015515" stroke="rgb(0, 0, 0)" stroke-opacity="1.0" stroke-linecap="round" stroke-linejoin="round"/>
    <path d="M 152.8614501953125 337.5756530761719 C 157.81678771972656 348.7807922363281 161.72569274902344 338.6212158203125 176.6702117919922 344.01995849609375 C 178.7269287109375 335.9697570800781 192.56011962890625 344.6722412109375 201.7929229736328 340.1509094238281 C 197.53253173828125 331.9799499511719 184.7588348388672 327.99566650390625 174.72071838378906 327.3793029785156 C 167.5640106201172 328.73675537109375 157.48289489746094 332.3097229003906 152.8614501953125 337.5756530761719" stroke-width="0.0" fill="rgb(33, 22, 20)" opacity="1.0079888" stroke="rgb(0, 0, 0)" stroke-opacity="1.0" stroke-linecap="round" stroke-linejoin="round"/>
    <path d="M 492.6947326660156 186.2760467529297 C 486.7181701660156 191.38697814941406 489.705810546875 204.5563507080078 489.85552978515625 218.06321716308594 C 492.9442138671875 219.8964080810547 504.72137451171875 218.80601501464844 519.250732421875 218.6393280029297 C 518.410888671875 210.55372619628906 519.8165893554688 202.04302978515625 521.153564453125 191.69630432128906 C 509.07861328125 194.06434631347656 501.9065856933594 185.8514404296875 492.6947326660156 186.2760467529297" stroke-width="0.0" fill="rgb(41, 36, 30)" opacity="1.0057997" stroke="rgb(0, 0, 0)" stroke-opacity="1.0" stroke-linecap="round" stroke-linejoin="round"/>
    <path d="M 107.86904907226562 511.78472900390625 C 130.10726928710938 521.134033203125 153.6810760498047 520.7094116210938 188.09938049316406 517.7763671875 C 172.9870147705078 505.112060546875 161.64382934570312 502.4800109863281 151.3155975341797 500.8067321777344 C 135.7617645263672 501.1923522949219 115.80892181396484 501.1741638183594 107.86904907226562 511.78472900390625" stroke-width="0.0" fill="rgb(141, 120, 65)" opacity="1.0017288" stroke="rgb(0, 0, 0)" stroke-opacity="1.0" stroke-linecap="round" stroke-linejoin="round"/>
    <path d="M 369.1382751464844 320.6221008300781 C 370.5334777832031 325.7641906738281 377.9830017089844 327.49365234375 383.57855224609375 331.4913635253906 C 398.74468994140625 331.1232604980469 410.1599426269531 337.0468444824219 419.1773681640625 332.6441345214844 C 420.6936950683594 326.3309631347656 409.64312744140625 322.5118103027344 403.9945983886719 321.23675537109375 C 395.97283935546875 318.98162841796875 373.4640808105469 319.6156005859375 369.1382751464844 320.6221008300781" stroke-width="0.0" fill="rgb(157, 146, 101)" opacity="0.996376" stroke="rgb(0, 0, 0)" stroke-opacity="1.0" stroke-linecap="round" stroke-linejoin="round"/>
    <path d="M 277.4532470703125 337.1631774902344 C 285.2627868652344 336.7459411621094 296.86181640625 339.8515319824219 314.0973205566406 335.3457946777344 C 316.8926086425781 324.5547790527344 303.43170166015625 327.2009582519531 294.4927978515625 318.5372314453125 C 294.5465087890625 331.777099609375 275.65802001953125 315.7174072265625 277.4532470703125 337.1631774902344" stroke-width="0.0" fill="rgb(134, 117, 97)" opacity="0.99079007" stroke="rgb(0, 0, 0)" stroke-opacity="1.0" stroke-linecap="round" stroke-linejoin="round"/>
    <path d="M 141.71542358398438 448.8612060546875 C 146.9606170654297 446.821533203125 127.7474365234375 448.83074951171875 122.36539459228516 445.670654296875 C 110.19723510742188 450.58477783203125 91.34220123291016 445.6501770019531 94.65156555175781 455.55181884765625 C 100.93318939208984 456.7506408691406 115.39868927001953 455.26617431640625 122.82220458984375 459.7130432128906 C 137.68026733398438 456.3159484863281 147.56053161621094 457.29229736328125 141.71542358398438 448.8612060546875" stroke-width="0.0" fill="rgb(129, 115, 56)" opacity="1.0017046" stroke="rgb(0, 0, 0)" stroke-opacity="1.0" stroke-linecap="round" stroke-linejoin="round"/>
    <path d="M 264.07763671875 261.4812927246094 C 263.4438171386719 267.1685791015625 263.357421875 266.18035888671875 269.2724914550781 268.3931579589844 C 276.6631774902344 266.4402770996094 282.50506591796875 269.0962829589844 284.65655517578125 262.18853759765625 C 282.2317199707031 255.19219970703125 278.82861328125 254.24327087402344 273.3367614746094 254.94825744628906 C 267.165283203125 251.82386779785156 266.03875732421875 258.88690185546875 264.07763671875 261.4812927246094" stroke-width="0.0" fill="rgb(78, 71, 60)" opacity="1.0016015" stroke="rgb(0, 0, 0)" stroke-opacity="1.0" stroke-linecap="round" stroke-linejoin="round"/>
    <path d="M 243.0270538330078 105.52796173095703 C 241.6927947998047 101.27391815185547 227.38897705078125 106.33844757080078 232.220703125 108.3205795288086 C 231.1839599609375 130.48228454589844 231.708740234375 141.40272521972656 223.51980590820312 158.44223022460938 C 223.29354858398438 167.92083740234375 227.26870727539062 177.73094177246094 235.0006866455078 179.04306030273438 C 248.16928100585938 173.2841796875 236.4920654296875 158.29953002929688 246.5336151123047 152.6344757080078 C 251.8321533203125 125.3893051147461 245.11471557617188 118.4466781616211 243.0270538330078 105.52796173095703" stroke-width="0.0" fill="rgb(69, 64, 32)" opacity="0.9968092" stroke="rgb(0, 0, 0)" stroke-opacity="1.0" stroke-linecap="round" stroke-linejoin="round"/>
    <path d="M 521.1395263671875 129.31375122070312 C 493.9836730957031 126.32308959960938 505.4496765136719 147.417236328125 491.0791320800781 159.61700439453125 C 494.6936340332031 174.64048767089844 497.1514587402344 191.559326171875 520.638671875 201.61245727539062 C 523.8781127929688 184.317626953125 524.1033935546875 161.51882934570312 521.1395263671875 129.31375122070312" stroke-width="0.0" fill="rgb(105, 92, 23)" opacity="0.96897763" stroke="rgb(0, 0, 0)" stroke-opacity="1.0" stroke-linecap="round" stroke-linejoin="round"/>
    <path d="M 343.640869140625 517.9654541015625 C 348.9240417480469 496.29620361328125 327.68133544921875 506.5244140625 288.6905517578125 503.7773132324219 C 276.04498291015625 511.9124755859375 250.03799438476562 495.78363037109375 230.29150390625 516.2239990234375 C 278.7424011230469 522.3388061523438 315.6768493652344 522.5108032226562 343.640869140625 517.9654541015625" stroke-width="0.0" fill="rgb(154, 131, 72)" opacity="0.9995891" stroke="rgb(0, 0, 0)" stroke-opacity="1.0" stroke-linecap="round" stroke-linejoin="round"/>
    <path d="M 221.16664123535156 302.6206359863281 C 214.40769958496094 293.5576171875 217.87686157226562 294.6222229003906 202.8286895751953 295.0107116699219 C 197.41873168945312 300.21539306640625 181.48243713378906 304.87713623046875 181.12974548339844 311.4744567871094 C 185.21133422851562 318.10650634765625 196.99205017089844 309.2687072753906 215.85272216796875 310.5137023925781 C 218.85281372070312 308.6770324707031 222.537353515625 306.97943115234375 221.16664123535156 302.6206359863281" stroke-width="0.0" fill="rgb(136, 129, 98)" opacity="1.0006074" stroke="rgb(0, 0, 0)" stroke-opacity="1.0" stroke-linecap="round" stroke-linejoin="round"/>
    <path d="M -4.576363563537598 500.9591064453125 C -1.635122537612915 502.774658203125 -0.44885098934173584 506.97467041015625 0.30586183071136475 518.3021850585938 C 14.662884712219238 518.7158203125 29.224870681762695 520.2266845703125 38.32879638671875 520.0681762695312 C 45.70513153076172 501.8992614746094 37.79975128173828 506.3254699707031 28.692537307739258 501.42724609375 C 14.112391471862793 499.268798828125 15.392163276672363 494.52484130859375 -4.576363563537598 500.9591064453125" stroke-width="0.0" fill="rgb(118, 98, 46)" opacity="0.9509603" stroke="rgb(0, 0, 0)" stroke-opacity="1.0" stroke-linecap="round" stroke-linejoin="round"/>
    <path d="M 203.767822265625 272.73114013671875 C 196.88070678710938 273.9141540527344 196.9145050048828 280.84521484375 196.8441925048828 283.4973449707031 C 207.4302978515625 292.80401611328125 202.81137084960938 289.3880615234375 217.40545654296875 288.8562316894531 C 215.21202087402344 285.0485534667969 222.7217559814453 283.6903991699219 219.62840270996094 279.0778503417969 C 209.24143981933594 276.7171630859375 214.8043975830078 268.6498718261719 203.767822265625 272.73114013671875" stroke-width="0.0" fill="rgb(91, 80, 46)" opacity="0.9967048" stroke="rgb(0, 0, 0)" stroke-opacity="1.0" stroke-linecap="round" stroke-linejoin="round"/>
    <path d="M 170.3909454345703 299.9886474609375 C 174.06398010253906 305.976806640625 174.2456512451172 306.9246826171875 181.83836364746094 308.87860107421875 C 187.096435546875 304.4646301269531 193.72189331054688 302.411865234375 200.6844940185547 296.2892761230469 C 196.77537536621094 292.7410583496094 185.2896270751953 293.030517578125 176.38214111328125 295.0864562988281 C 174.31382751464844 294.12127685546875 174.2826385498047 296.7216491699219 170.3909454345703 299.9886474609375" stroke-width="0.0" fill="rgb(101, 92, 79)" opacity="0.99929917" stroke="rgb(0, 0, 0)" stroke-opacity="1.0" stroke-linecap="round" stroke-linejoin="round"/>
    <path d="M 353.6735534667969 289.6526794433594 C 351.8313903808594 284.5667724609375 343.6289978027344 285.4908752441406 340.25396728515625 283.8193359375 C 332.4459533691406 285.9810485839844 332.5650634765625 296.4045104980469 332.8544921875 306.8026123046875 C 341.8321838378906 295.87860107421875 352.81292724609375 299.7033386230469 353.6735534667969 289.6526794433594" stroke-width="0.0" fill="rgb(115, 113, 90)" opacity="1.0075908" stroke="rgb(0, 0, 0)" stroke-opacity="1.0" stroke-linecap="round" stroke-linejoin="round"/>
    <path d="M 285.94158935546875 -8.032004356384277 C 284.35089111328125 5.710926532745361 282.6422424316406 10.564516067504883 286.9413146972656 13.449220657348633 C 286.5965576171875 17.60633659362793 291.5925598144531 15.69526195526123 297.5484924316406 16.3138484954834 C 298.2885437011719 10.77807331085205 301.2515869140625 5.547484397888184 298.2304382324219 -4.356863498687744 C 295.0438232421875 -4.532344818115234 289.68585205078125 -3.155954122543335 285.94158935546875 -8.032004356384277" stroke-width="0.0" fill="rgb(110, 105, 91)" opacity="0.99591917" stroke="rgb(0, 0, 0)" stroke-opacity="1.0" stroke-linecap="round" stroke-linejoin="round"/>
    <path d="M 188.80027770996094 220.42636108398438 C 183.22048950195312 225.3990020751953 181.32215881347656 230.54600524902344 184.56149291992188 235.22877502441406 C 190.10545349121094 235.85101318359375 195.8749542236328 234.54718017578125 201.984375 233.1444854736328 C 198.3720245361328 227.96701049804688 201.84991455078125 222.4959716796875 197.88760375976562 221.7764434814453 C 195.24729919433594 219.02566528320312 188.7025146484375 222.61180114746094 188.80027770996094 220.42636108398438" stroke-width="0.0" fill="rgb(84, 75, 63)" opacity="1.0001539" stroke="rgb(0, 0, 0)" stroke-opacity="1.0" stroke-linecap="round" stroke-linejoin="round"/>
    <path d="M 478.94818115234375 337.4520568847656 C 479.0187072753906 344.13177490234375 488.1784973144531 341.438232421875 493.51446533203125 345.5418395996094 C 501.2032165527344 343.9986572265625 509.8498840332031 345.64471435546875 510.0963134765625 338.7124328613281 C 507.313720703125 335.8977355957031 489.0810852050781 336.3033447265625 478.94818115234375 337.4520568847656" stroke-width="0.0" fill="rgb(158, 139, 78)" opacity="0.9994802" stroke="rgb(0, 0, 0)" stroke-opacity="1.0" stroke-linecap="round" stroke-linejoin="round"/>
    <path d="M 238.30433654785156 103.16997528076172 C 235.22227478027344 111.59978485107422 230.1204376220703 125.1800765991211 232.12203979492188 136.70465087890625 C 239.1367645263672 143.87486267089844 235.25949096679688 156.79302978515625 243.86033630371094 153.9980926513672 C 246.68130493164062 151.6697235107422 248.6238250732422 138.38246154785156 248.3072052001953 132.78269958496094 C 242.99713134765625 117.14270782470703 246.0106964111328 99.94300842285156 238.30433654785156 103.16997528076172" stroke-width="0.0" fill="rgb(91, 80, 26)" opacity="0.9985794" stroke="rgb(0, 0, 0)" stroke-opacity="1.0" stroke-linecap="round" stroke-linejoin="round"/>
    <path d="M 379.9340515136719 330.3402404785156 C 390.9571533203125 332.4441223144531 404.7314453125 332.2576904296875 420.03631591796875 333.5654296875 C 417.0474853515625 325.1143798828125 409.08538818359375 321.689208984375 400.31207275390625 322.0724792480469 C 388.8508605957031 320.250732421875 392.13873291015625 324.0212097167969 379.9340515136719 330.3402404785156" stroke-width="0.0" fill="rgb(149, 140, 111)" opacity="0.99966586" stroke="rgb(0, 0, 0)" stroke-opacity="1.0" stroke-linecap="round" stroke-linejoin="round"/>
  </g>
</svg>
