<?xml version="1.0" ?>
<svg xmlns="http://www.w3.org/2000/svg" version="1.1" width="512" height="512">
  <defs/>
  <g>
    <path d="M -2.1266448497772217 -2.3127241134643555 C -1.417594075202942 170.3333282470703 -0.47841641306877136 340.6666564941406 -0.37563154101371765 514.6820678710938 C 169.59646606445312 515.0464477539062 339.4009094238281 515.6124877929688 515.6646118164062 515.9808959960938 C 515.8935546875 341.1478576660156 515.9695434570312 170.6024627685547 516.0267333984375 -2.596440553665161 C 340.6666564941406 -2.5602879524230957 170.3333282470703 -2.4426684379577637 -2.1266448497772217 -2.3127241134643555" stroke-width="0.0" fill="rgb(172, 188, 184)" opacity="0.89303535" stroke="rgb(0, 0, 0)" stroke-opacity="1.0" stroke-linecap="round" stroke-linejoin="round"/>
    <path d="M -3.5855512619018555 327.327392578125 C -4.195680141448975 386.50311279296875 -4.023439407348633 448.94012451171875 -3.060905694961548 516.0784301757812 C 170.3324432373047 516.1011962890625 340.6717529296875 516.1318969726562 515.64892578125 516.087646484375 C 515.711669921875 484.1504821777344 515.7761840820312 456.86859130859375 516.7904663085938 433.3601989746094 C 481.9152526855469 433.9900207519531 455.2268981933594 427.9056396484375 439.63946533203125 439.625732421875 C 413.94586181640625 439.9801940917969 386.25347900390625 438.56597900390625 359.5003967285156 439.6097106933594 C 363.1800537109375 439.1815490722656 361.9803466796875 435.7748107910156 360.1208801269531 437.96234130859375 C 356.8188781738281 437.8804016113281 350.4707336425781 437.20611572265625 345.9626770019531 436.6067810058594 C 342.4157409667969 435.8686828613281 339.7840576171875 435.2402648925781 338.166015625 438.9964294433594 C 344.8336181640625 439.3049621582031 351.0077209472656 440.47039794921875 355.2393798828125 438.4525451660156 C 351.93609619140625 442.30438232421875 343.7926940917969 441.9979553222656 334.19384765625 439.8692626953125 C 335.1659240722656 437.03326416015625 339.1376953125 438.6272277832031 341.0075988769531 434.8003234863281 C 326.4817810058594 435.42498779296875 311.4703674316406 436.1830749511719 299.46142578125 434.99298095703125 C 302.3041076660156 424.402099609375 314.7074890136719 422.9398498535156 321.4698791503906 418.3327331542969 C 327.26776123046875 400.6546325683594 342.5675964355469 394.6005554199219 345.6292724609375 385.4488830566406 C 345.0453796386719 363.998779296875 344.657470703125 350.1744079589844 342.2019348144531 337.5301818847656 C 336.96832275390625 332.9474182128906 327.9150390625 333.1127014160156 323.85528564453125 329.34423828125 C 325.06585693359375 316.5277099609375 323.0970153808594 310.3805236816406 316.0711669921875 307.1535339355469 C 285.85546875 302.4730529785156 252.50181579589844 302.2897033691406 219.11688232421875 300.70880126953125 C 217.34300231933594 316.79766845703125 213.4713592529297 332.3482360839844 210.8917236328125 353.0608215332031 C 211.12567138671875 354.5566711425781 204.3463134765625 356.756103515625 198.40219116210938 357.67730712890625 C 194.7049102783203 357.0045471191406 193.25204467773438 359.1850280761719 190.3316192626953 354.2296447753906 C 192.5117645263672 341.9595031738281 194.7754364013672 329.74578857421875 194.32278442382812 312.8824462890625 C 179.9123077392578 319.25457763671875 170.28729248046875 327.0770568847656 156.15586853027344 333.0780334472656 C 154.10650634765625 337.8622131347656 152.83473205566406 344.9846496582031 154.44329833984375 354.7033996582031 C 150.0341339111328 356.027587890625 148.908447265625 356.27569580078125 146.02786254882812 357.4154052734375 C 141.59890747070312 343.74456787109375 139.75135803222656 332.41973876953125 139.94705200195312 320.5869140625 C 155.55406188964844 311.9938049316406 170.458984375 303.6643371582031 182.75205993652344 291.9429626464844 C 181.69195556640625 282.7201843261719 174.6802215576172 284.8294677734375 160.3648681640625 289.8423767089844 C 157.22235107421875 286.890380859375 156.36614990234375 282.08154296875 155.9525604248047 280.78314208984375 C 118.83707427978516 281.7271423339844 81.8268814086914 281.0702209472656 57.52427673339844 285.2044982910156 C 44.8964958190918 293.08984375 33.48067855834961 297.1717834472656 22.168506622314453 301.4519348144531 C 17.33677101135254 313.4320983886719 14.068653106689453 325.4837951660156 -3.5855512619018555 327.327392578125" stroke-width="0.0" fill="rgb(191, 170, 133)" opacity="1.0414379" stroke="rgb(0, 0, 0)" stroke-opacity="1.0" stroke-linecap="round" stroke-linejoin="round"/>
    <path d="M 255.97889709472656 275.75433349609375 C 252.01983642578125 279.0184326171875 251.3884735107422 284.62738037109375 256.1834411621094 294.9678039550781 C 268.3167724609375 300.2718811035156 290.4874572753906 299.00677490234375 320.0480041503906 298.59210205078125 C 325.1708679199219 304.0063781738281 326.75018310546875 315.78192138671875 328.2776794433594 326.6997985839844 C 336.6522521972656 330.64593505859375 343.03936767578125 331.7809753417969 344.4862365722656 339.1790771484375 C 347.1768493652344 355.9916076660156 348.0718994140625 374.11322021484375 346.20068359375 390.3443908691406 C 338.3780822753906 397.4408264160156 332.52130126953125 405.60418701171875 328.3670654296875 414.9353942871094 C 321.1755676269531 421.354248046875 313.50299072265625 425.1229248046875 306.14080810546875 429.2221374511719 C 304.5478515625 431.94744873046875 305.6494140625 433.7440185546875 309.8553771972656 436.4103698730469 C 343.1214294433594 435.53887939453125 376.78912353515625 439.7485656738281 415.6472473144531 439.84088134765625 C 446.3127136230469 431.0975341796875 481.4376220703125 424.3832702636719 512.23681640625 412.46185302734375 C 504.580078125 410.2923583984375 496.74285888671875 412.5552978515625 499.1355895996094 408.46014404296875 C 498.8377685546875 400.3216247558594 495.65313720703125 396.72857666015625 492.4729919433594 394.9742736816406 C 497.4725036621094 380.7668762207031 499.9738464355469 366.4617919921875 510.2601013183594 351.777099609375 C 508.1145935058594 341.4997863769531 505.05145263671875 331.7738037109375 501.3546142578125 323.5271911621094 C 504.935546875 315.8361511230469 510.58441162109375 309.5794372558594 510.2591247558594 302.67144775390625 C 510.4095764160156 290.1590881347656 510.01788330078125 282.27178955078125 509.0643310546875 271.5733947753906 C 504.2938537597656 268.21319580078125 495.2593078613281 266.4630126953125 487.0986633300781 259.0811767578125 C 479.1941833496094 250.48744201660156 460.3612060546875 249.08082580566406 443.09429931640625 250.0083770751953 C 427.8895263671875 256.16033935546875 419.5649719238281 259.9798889160156 409.5111389160156 265.2812194824219 C 404.8216857910156 265.5394592285156 402.1914367675781 263.2360534667969 401.4876708984375 260.4630432128906 C 404.5213317871094 260.2557373046875 404.6300964355469 262.74285888671875 400.0199279785156 266.8917541503906 C 396.5501403808594 262.6200866699219 396.4216003417969 259.99871826171875 395.9988098144531 263.0642395019531 C 390.01177978515625 262.8149719238281 381.71087646484375 262.6164855957031 370.747802734375 262.0372314453125 C 363.8983459472656 245.71788024902344 352.7251281738281 238.2914581298828 339.5218200683594 234.7122039794922 C 328.3279113769531 238.78350830078125 325.48870849609375 248.27450561523438 318.18121337890625 251.98529052734375 C 301.3144226074219 254.3924560546875 284.4259033203125 253.4972381591797 272.2557678222656 256.91632080078125 C 264.5322570800781 261.6134948730469 258.8687744140625 266.7098388671875 255.97889709472656 275.75433349609375" stroke-width="0.0" fill="rgb(86, 83, 81)" opacity="0.9340836" stroke="rgb(0, 0, 0)" stroke-opacity="1.0" stroke-linecap="round" stroke-linejoin="round"/>
    <path d="M -3.3222458362579346 184.11167907714844 C -3.926732063293457 231.2465057373047 -4.067244052886963 278.3407287597656 -3.612470865249634 326.2015380859375 C 12.222959518432617 320.5780029296875 16.163681030273438 310.6203308105469 20.8751220703125 301.149658203125 C 33.71828842163086 295.9577331542969 44.81007385253906 289.93878173828125 56.287967681884766 282.45489501953125 C 85.11004638671875 274.8369445800781 124.68767547607422 278.049072265625 154.63186645507812 273.5537109375 C 155.6795196533203 252.69664001464844 155.78936767578125 239.77444458007812 154.3300018310547 225.31982421875 C 142.7039031982422 224.85476684570312 130.4613037109375 224.84634399414062 114.82411193847656 224.8045654296875 C 106.14746856689453 218.7335968017578 94.80337524414062 215.74862670898438 80.34561920166016 216.39486694335938 C 79.03349304199219 207.5895538330078 75.49380493164062 203.55296325683594 75.67573547363281 197.09458923339844 C 68.83119201660156 193.29116821289062 63.430328369140625 189.97874450683594 58.35038757324219 188.75465393066406 C 38.1187744140625 188.28892517089844 18.718158721923828 186.68186950683594 -3.3222458362579346 184.11167907714844" stroke-width="0.0" fill="rgb(110, 118, 122)" opacity="1.0072682" stroke="rgb(0, 0, 0)" stroke-opacity="1.0" stroke-linecap="round" stroke-linejoin="round"/>
    <path d="M 200.06021118164062 146.16896057128906 C 195.13619995117188 146.26194763183594 192.133544921875 147.63743591308594 190.83767700195312 150.33203125 C 188.51002502441406 154.64096069335938 188.16180419921875 160.95333862304688 188.94229125976562 170.96044921875 C 182.4515838623047 176.28912353515625 175.14669799804688 182.02622985839844 170.93798828125 190.80792236328125 C 165.30233764648438 200.33055114746094 160.34117126464844 210.48446655273438 157.06192016601562 222.34654235839844 C 155.6409454345703 233.48622131347656 157.6175079345703 242.62155151367188 160.88954162597656 250.7894744873047 C 160.8957977294922 262.7143859863281 174.3456268310547 261.3677978515625 178.4584197998047 269.5567932128906 C 182.70762634277344 276.8197937011719 185.1639404296875 283.67120361328125 186.2139129638672 295.55255126953125 C 173.6428985595703 304.19482421875 158.0657196044922 312.31219482421875 143.30044555664062 320.9932861328125 C 141.65042114257812 324.09375 139.60179138183594 326.31439208984375 140.7852783203125 328.3142395019531 C 142.280029296875 334.8960876464844 144.2903594970703 338.9532165527344 148.73670959472656 343.3937072753906 C 157.17315673828125 327.0782165527344 177.85360717773438 319.4015808105469 195.74644470214844 309.3953552246094 C 196.13404846191406 320.60302734375 195.06768798828125 334.8368225097656 193.0885467529297 352.7644958496094 C 196.54579162597656 354.33917236328125 200.45130920410156 353.8174743652344 208.13412475585938 354.8217468261719 C 210.8087615966797 342.5049133300781 213.7928466796875 327.7854309082031 216.41990661621094 307.95294189453125 C 215.64834594726562 285.9711608886719 210.50559997558594 265.80242919921875 208.94485473632812 246.03089904785156 C 216.99191284179688 234.08953857421875 223.03378295898438 222.70535278320312 228.0778350830078 208.69168090820312 C 215.78610229492188 201.0430145263672 211.00782775878906 188.86004638671875 202.50985717773438 175.51986694335938 C 205.2058563232422 170.48756408691406 209.9907989501953 164.60501098632812 209.38815307617188 155.0625 C 207.85174560546875 147.95706176757812 204.7904815673828 146.55557250976562 200.06021118164062 146.16896057128906" stroke-width="0.0" fill="rgb(62, 51, 50)" opacity="0.94540554" stroke="rgb(0, 0, 0)" stroke-opacity="1.0" stroke-linecap="round" stroke-linejoin="round"/>
    <path d="M 514.9339599609375 189.765869140625 C 517.1527099609375 170.71641540527344 516.0725708007812 151.81240844726562 516.1805419921875 132.91439819335938 C 485.9982604980469 133.22134399414062 459.02294921875 133.44921875 435.0771789550781 137.1333770751953 C 422.0673522949219 139.2501983642578 409.9012451171875 142.79627990722656 402.6066589355469 148.17347717285156 C 398.7703552246094 155.9127655029297 404.1573791503906 157.3488006591797 407.3840026855469 168.32455444335938 C 429.9423522949219 170.29443359375 459.6794128417969 170.92617797851562 491.4079895019531 170.75704956054688 C 501.1300964355469 170.16148376464844 503.2125244140625 180.28598022460938 514.9339599609375 189.765869140625" stroke-width="0.0" fill="rgb(91, 79, 70)" opacity="0.9743396" stroke="rgb(0, 0, 0)" stroke-opacity="1.0" stroke-linecap="round" stroke-linejoin="round"/>
    <path d="M 456.4266662597656 203.27267456054688 C 446.7490234375 187.84666442871094 436.7099609375 188.95596313476562 424.7903137207031 190.95260620117188 C 379.02178955078125 188.9657745361328 334.169189453125 190.63616943359375 294.6711730957031 196.80323791503906 C 286.35443115234375 200.8041534423828 281.2616882324219 204.7146759033203 280.594970703125 210.84974670410156 C 273.71649169921875 211.55569458007812 267.5738830566406 210.4849090576172 263.7265625 214.0314178466797 C 292.1102294921875 218.93563842773438 320.2221374511719 218.875732421875 348.6534729003906 214.1457061767578 C 384.2868347167969 208.70077514648438 420.14422607421875 206.4977569580078 456.4266662597656 203.27267456054688" stroke-width="0.0" fill="rgb(106, 75, 53)" opacity="1.0590818" stroke="rgb(0, 0, 0)" stroke-opacity="1.0" stroke-linecap="round" stroke-linejoin="round"/>
    <path d="M 514.9331665039062 116.23434448242188 C 486.2423400878906 116.12945556640625 463.7860107421875 118.9048080444336 445.1159362792969 125.59066009521484 C 434.42926025390625 127.51512908935547 425.42596435546875 130.77130126953125 419.3446044921875 139.49664306640625 C 449.9761047363281 133.6099090576172 481.5933837890625 133.32559204101562 516.0216064453125 133.25888061523438 C 515.8673706054688 123.01516723632812 516.5719604492188 116.87283325195312 514.9331665039062 116.23434448242188" stroke-width="0.0" fill="rgb(139, 183, 223)" opacity="1.012669" stroke="rgb(0, 0, 0)" stroke-opacity="1.0" stroke-linecap="round" stroke-linejoin="round"/>
    <path d="M 515.1688232421875 310.3367004394531 C 505.3828125 313.58758544921875 502.2327575683594 318.11285400390625 501.71435546875 329.0962219238281 C 504.5631408691406 332.57666015625 509.1169738769531 340.50628662109375 509.71112060546875 351.4079284667969 C 504.9371643066406 363.0346984863281 499.8263244628906 372.63177490234375 493.4483642578125 383.6943359375 C 490.7045593261719 388.207763671875 493.8789367675781 391.57958984375 497.5270690917969 392.64044189453125 C 502.013671875 394.11749267578125 507.2489318847656 394.9884338378906 514.9724731445312 393.93109130859375 C 515.4591064453125 365.4418029785156 516.314208984375 337.32098388671875 515.1688232421875 310.3367004394531" stroke-width="0.0" fill="rgb(181, 158, 120)" opacity="0.9967486" stroke="rgb(0, 0, 0)" stroke-opacity="1.0" stroke-linecap="round" stroke-linejoin="round"/>
    <path d="M 373.14862060546875 212.06539916992188 C 370.6293029785156 215.76629638671875 368.7857971191406 219.24916076660156 375.9855041503906 221.19366455078125 C 415.28204345703125 225.78955078125 460.6435546875 222.52085876464844 515.0402221679688 221.1265869140625 C 516.7254028320312 213.76705932617188 517.104736328125 201.82958984375 515.2468872070312 190.45425415039062 C 504.63311767578125 182.0963897705078 500.0540466308594 175.44097900390625 496.01177978515625 165.54930114746094 C 478.0896301269531 161.5525360107422 466.6888122558594 172.0327911376953 453.3020935058594 170.74867248535156 C 436.5153503417969 163.37025451660156 418.97607421875 162.6751708984375 399.00714111328125 163.49708557128906 C 398.3704833984375 165.03440856933594 399.9948425292969 169.57467651367188 400.04913330078125 174.5784912109375 C 398.48712158203125 177.28170776367188 391.61724853515625 174.38438415527344 390.0741882324219 176.46868896484375 C 404.52618408203125 179.128173828125 418.279541015625 181.98159790039062 429.7314147949219 185.53419494628906 C 428.8418273925781 181.6565704345703 429.8652038574219 185.36973571777344 433.08258056640625 184.46060180664062 C 435.2649841308594 190.3652801513672 438.58160400390625 191.8655242919922 442.79949951171875 189.82852172851562 C 451.70013427734375 190.47801208496094 452.384033203125 194.66651916503906 451.5458068847656 202.1005401611328 C 427.0387268066406 205.07220458984375 395.694580078125 206.14720153808594 373.14862060546875 212.06539916992188" stroke-width="0.0" fill="rgb(204, 230, 240)" opacity="0.9848273" stroke="rgb(0, 0, 0)" stroke-opacity="1.0" stroke-linecap="round" stroke-linejoin="round"/>
    <path d="M 254.5653533935547 224.2210693359375 C 245.4143829345703 219.51808166503906 236.05917358398438 223.00906372070312 229.24745178222656 222.2615509033203 C 222.307861328125 223.164306640625 216.27230834960938 225.7022705078125 210.8046875 238.68637084960938 C 206.19517517089844 258.874755859375 213.03564453125 276.2311096191406 219.68162536621094 297.54949951171875 C 226.6476593017578 297.1298828125 233.1305389404297 294.5712890625 239.61849975585938 292.6574401855469 C 245.6276092529297 290.3780517578125 249.0450897216797 285.7879638671875 249.8545379638672 278.6790771484375 C 251.87274169921875 260.0865783691406 253.68858337402344 241.8794708251953 254.5653533935547 224.2210693359375" stroke-width="0.0" fill="rgb(130, 164, 170)" opacity="0.99283415" stroke="rgb(0, 0, 0)" stroke-opacity="1.0" stroke-linecap="round" stroke-linejoin="round"/>
    <path d="M 355.5639953613281 228.18072509765625 C 352.7106018066406 232.30323791503906 352.5462341308594 234.8301544189453 355.29595947265625 238.01766967773438 C 386.8631896972656 242.37149047851562 418.52349853515625 247.7875213623047 450.7533874511719 253.59732055664062 C 467.95928955078125 254.81068420410156 479.4710388183594 254.82098388671875 494.213623046875 249.57896423339844 C 492.6417236328125 238.4869842529297 482.8399353027344 240.817138671875 476.3518981933594 236.8289337158203 C 445.85943603515625 229.51339721679688 411.40966796875 226.89312744140625 374.9593200683594 223.25979614257812 C 367.8521423339844 223.3264617919922 359.97320556640625 225.82080078125 355.5639953613281 228.18072509765625" stroke-width="0.0" fill="rgb(211, 216, 217)" opacity="1.0076234" stroke="rgb(0, 0, 0)" stroke-opacity="1.0" stroke-linecap="round" stroke-linejoin="round"/>
    <path d="M 294.3568115234375 195.52728271484375 C 342.66168212890625 190.30197143554688 393.2239074707031 188.67811584472656 445.4147644042969 190.9097900390625 C 434.72528076171875 184.9666748046875 425.98883056640625 183.4663848876953 414.9000244140625 180.5758514404297 C 382.10186767578125 178.27285766601562 349.1240234375 178.0825653076172 320.48272705078125 183.01414489746094 C 310.6851806640625 186.32518005371094 299.6985168457031 186.631591796875 294.3568115234375 195.52728271484375" stroke-width="0.0" fill="rgb(124, 170, 214)" opacity="0.9764316" stroke="rgb(0, 0, 0)" stroke-opacity="1.0" stroke-linecap="round" stroke-linejoin="round"/>
    <path d="M -3.0573158264160156 150.08538818359375 C -0.7026322484016418 162.0 -0.06218882277607918 173.0 -0.39373642206192017 184.3184356689453 C 23.493621826171875 184.77772521972656 45.78858184814453 187.72776794433594 71.06787109375 189.77870178222656 C 55.22322463989258 178.54983520507812 36.69068145751953 175.8124237060547 16.016996383666992 176.2773895263672 C 14.7448091506958 167.03219604492188 13.868205070495605 160.16757202148438 11.390191078186035 154.0401153564453 C 9.580078125 151.38165283203125 5.799221515655518 150.4342041015625 -3.0573158264160156 150.08538818359375" stroke-width="0.0" fill="rgb(176, 192, 171)" opacity="0.99195015" stroke="rgb(0, 0, 0)" stroke-opacity="1.0" stroke-linecap="round" stroke-linejoin="round"/>
    <path d="M 349.9739990234375 238.5133514404297 C 355.8724365234375 248.96621704101562 365.0072937011719 254.04037475585938 374.7574768066406 264.8702392578125 C 383.1669616699219 266.549560546875 396.8118896484375 266.3739013671875 411.37017822265625 266.538330078125 C 417.43011474609375 259.25537109375 426.27581787109375 256.46636962890625 434.9914855957031 252.99671936035156 C 450.67437744140625 258.2697448730469 470.5640869140625 262.2393798828125 491.9516906738281 255.4731903076172 C 444.3663024902344 247.33152770996094 398.8876037597656 242.6931915283203 349.9739990234375 238.5133514404297" stroke-width="0.0" fill="rgb(142, 148, 151)" opacity="0.99116457" stroke="rgb(0, 0, 0)" stroke-opacity="1.0" stroke-linecap="round" stroke-linejoin="round"/>
    <path d="M 317.27337646484375 229.11158752441406 C 301.3805847167969 226.37049865722656 283.5325012207031 225.72079467773438 260.2420959472656 230.36294555664062 C 256.4567565917969 231.96646118164062 253.90806579589844 238.4251708984375 251.9355010986328 248.3990936279297 C 271.806640625 247.4743194580078 290.5940856933594 247.40252685546875 311.8045654296875 250.4438934326172 C 314.9077453613281 245.85516357421875 317.1830139160156 240.2733154296875 317.27337646484375 229.11158752441406" stroke-width="0.0" fill="rgb(153, 160, 161)" opacity="1.004418" stroke="rgb(0, 0, 0)" stroke-opacity="1.0" stroke-linecap="round" stroke-linejoin="round"/>
    <path d="M 462.67242431640625 223.4535675048828 C 476.5921936035156 233.45428466796875 487.8721923828125 241.50746154785156 498.2368469238281 251.48805236816406 C 493.5293884277344 267.49273681640625 496.455078125 275.8369445800781 508.9854431152344 285.24957275390625 C 508.9517517089844 266.9024963378906 509.7223205566406 246.22998046875 511.14306640625 223.26844787597656 C 496.9945068359375 223.88662719726562 479.8489990234375 223.6887969970703 462.67242431640625 223.4535675048828" stroke-width="0.0" fill="rgb(134, 165, 177)" opacity="1.0221233" stroke="rgb(0, 0, 0)" stroke-opacity="1.0" stroke-linecap="round" stroke-linejoin="round"/>
    <path d="M 364.2808532714844 219.53855895996094 C 346.85333251953125 219.21470642089844 331.92877197265625 221.9794921875 317.7590026855469 219.78709411621094 C 314.74798583984375 224.01638793945312 309.136474609375 223.29759216308594 307.6127624511719 224.58453369140625 C 317.5486755371094 231.24838256835938 318.4739990234375 241.01939392089844 321.47021484375 250.79977416992188 C 324.8520202636719 239.18370056152344 333.30718994140625 234.3999481201172 337.7319030761719 225.09153747558594 C 342.186279296875 228.1494140625 348.6072692871094 227.0302276611328 356.5565185546875 228.7413787841797 C 357.19964599609375 226.0343780517578 358.5684509277344 222.1358184814453 364.2808532714844 219.53855895996094" stroke-width="0.0" fill="rgb(135, 177, 191)" opacity="0.99332106" stroke="rgb(0, 0, 0)" stroke-opacity="1.0" stroke-linecap="round" stroke-linejoin="round"/>
    <path d="M 431.2427978515625 256.2583312988281 C 412.703125 264.521728515625 408.9090270996094 285.48773193359375 390.67120361328125 297.1476745605469 C 392.303466796875 311.0758056640625 398.84613037109375 320.763671875 399.4577941894531 335.5335388183594 C 404.0095520019531 342.8139343261719 407.20184326171875 350.34222412109375 416.5729675292969 352.35870361328125 C 424.6708984375 356.3648986816406 434.3433837890625 358.3160705566406 444.3169860839844 361.9308776855469 C 448.1278381347656 365.93756103515625 448.1457824707031 374.93157958984375 449.97882080078125 383.77557373046875 C 466.69195556640625 383.04840087890625 474.5890808105469 388.4048156738281 487.86456298828125 394.6042175292969 C 492.1367492675781 375.93707275390625 501.44586181640625 365.8511657714844 506.5022888183594 351.3353271484375 C 505.7372741699219 339.27459716796875 500.8381652832031 333.1726379394531 499.3344421386719 329.0623779296875 C 500.4837951660156 318.09747314453125 504.5329895019531 313.54058837890625 508.49322509765625 308.5316467285156 C 510.6383361816406 296.6733703613281 511.0287170410156 289.2702941894531 508.18060302734375 285.3797912597656 C 501.20831298828125 276.2710876464844 495.1319885253906 267.34283447265625 484.3612060546875 253.07229614257812 C 474.0918273925781 251.10293579101562 453.6727600097656 251.87660217285156 431.2427978515625 256.2583312988281" stroke-width="0.0" fill="rgb(48, 50, 55)" opacity="0.9926121" stroke="rgb(0, 0, 0)" stroke-opacity="1.0" stroke-linecap="round" stroke-linejoin="round"/>
    <path d="M 205.0184783935547 147.6970977783203 C 196.80438232421875 144.84747314453125 193.67018127441406 147.46437072753906 191.89805603027344 150.82614135742188 C 189.1553192138672 155.01373291015625 189.6737060546875 161.7261505126953 189.9903564453125 170.72515869140625 C 184.85943603515625 175.87669372558594 176.3845977783203 179.65843200683594 172.61163330078125 187.3020782470703 C 166.93850708007812 197.36279296875 161.77577209472656 207.63706970214844 158.61839294433594 219.34027099609375 C 155.2951202392578 229.05245971679688 156.55816650390625 236.11732482910156 159.51458740234375 244.51266479492188 C 160.87060546875 251.58363342285156 166.60186767578125 255.98388671875 177.57400512695312 259.61322021484375 C 177.70513916015625 258.81719970703125 179.72621154785156 255.13052368164062 182.23062133789062 253.08401489257812 C 188.0579376220703 251.5400390625 196.7680206298828 251.88626098632812 208.4022979736328 253.20420837402344 C 209.2150115966797 235.6449737548828 215.94732666015625 226.85372924804688 225.77679443359375 221.17361450195312 C 225.50477600097656 211.84683227539062 227.08599853515625 204.65362548828125 224.1603546142578 204.73980712890625 C 213.1765594482422 200.0114288330078 210.26898193359375 187.43951416015625 203.55860900878906 177.73233032226562 C 202.4368133544922 168.5583953857422 205.98040771484375 165.87557983398438 209.18531799316406 156.9217987060547 C 207.38368225097656 153.11328125 206.47201538085938 148.6594696044922 205.0184783935547 147.6970977783203" stroke-width="0.0" fill="rgb(76, 62, 55)" opacity="0.96000165" stroke="rgb(0, 0, 0)" stroke-opacity="1.0" stroke-linecap="round" stroke-linejoin="round"/>
    <path d="M 208.73773193359375 250.20889282226562 C 195.34686279296875 250.247314453125 183.6890869140625 249.1772918701172 174.81402587890625 253.0115509033203 C 175.9271697998047 269.2010498046875 186.282470703125 276.666748046875 185.76914978027344 295.5113830566406 C 174.363037109375 303.9356689453125 160.7377471923828 312.07080078125 145.84288024902344 320.26556396484375 C 141.1648712158203 323.40869140625 139.7996368408203 327.71868896484375 146.4022674560547 337.8038635253906 C 165.48634338378906 331.32086181640625 180.69046020507812 321.79669189453125 191.46885681152344 309.42169189453125 C 193.37594604492188 321.39404296875 193.60472106933594 336.6316833496094 194.50257873535156 354.9871520996094 C 195.59542846679688 356.0780029296875 199.15203857421875 356.55517578125 207.3065948486328 352.35137939453125 C 212.24920654296875 334.0794677734375 216.6808624267578 318.1091003417969 216.58143615722656 298.6281433105469 C 212.79525756835938 279.9753723144531 210.31089782714844 264.072998046875 208.73773193359375 250.20889282226562" stroke-width="0.0" fill="rgb(47, 46, 48)" opacity="0.9625141" stroke="rgb(0, 0, 0)" stroke-opacity="1.0" stroke-linecap="round" stroke-linejoin="round"/>
    <path d="M -2.589193820953369 183.6077117919922 C -3.321885108947754 194.26812744140625 -2.5843429565429688 204.72291564941406 -2.388718605041504 217.9700164794922 C 14.519233703613281 218.79844665527344 31.434606552124023 218.96678161621094 49.87211608886719 217.65036010742188 C 53.29425048828125 216.63072204589844 49.648277282714844 225.6656036376953 57.09307098388672 227.73980712890625 C 61.223121643066406 227.18475341796875 61.03804016113281 222.6982879638672 60.804466247558594 219.096435546875 C 73.5473403930664 218.64288330078125 84.49259185791016 216.3180389404297 96.32652282714844 212.87689208984375 C 82.30826568603516 206.29452514648438 75.70326232910156 193.87684631347656 65.6605224609375 186.86822509765625 C 42.486270904541016 186.38401794433594 21.87198257446289 184.8541259765625 -2.589193820953369 183.6077117919922" stroke-width="0.0" fill="rgb(130, 98, 70)" opacity="0.9986934" stroke="rgb(0, 0, 0)" stroke-opacity="1.0" stroke-linecap="round" stroke-linejoin="round"/>
    <path d="M 369.129638671875 352.3687744140625 C 369.2569580078125 365.0874328613281 369.2106628417969 373.1636657714844 370.79693603515625 380.5494079589844 C 391.27545166015625 382.75006103515625 410.8948974609375 384.7635803222656 433.16583251953125 385.17364501953125 C 439.84710693359375 380.9969177246094 442.5482482910156 379.4106140136719 443.60772705078125 372.7087707519531 C 444.25244140625 365.0810852050781 442.1577453613281 360.9393615722656 437.2525939941406 361.1031188964844 C 419.4425964355469 357.7921447753906 406.1895751953125 353.78350830078125 390.72052001953125 351.9716796875 C 379.1493835449219 352.016845703125 371.05426025390625 351.94091796875 369.129638671875 352.3687744140625" stroke-width="0.0" fill="rgb(123, 108, 89)" opacity="0.9400487" stroke="rgb(0, 0, 0)" stroke-opacity="1.0" stroke-linecap="round" stroke-linejoin="round"/>
    <path d="M 182.60308837890625 359.0390930175781 C 167.607666015625 352.11199951171875 153.96717834472656 353.4677429199219 136.88644409179688 356.8795166015625 C 124.31238555908203 358.91400146484375 110.72842407226562 358.8581848144531 101.3145523071289 362.41424560546875 C 96.64554595947266 364.496826171875 95.94998168945312 364.44989013671875 98.7071762084961 371.8595886230469 C 105.309814453125 374.69451904296875 117.01515197753906 375.39678955078125 131.31085205078125 373.5599365234375 C 151.09361267089844 370.8219909667969 168.721923828125 368.4683532714844 182.60308837890625 359.0390930175781" stroke-width="0.0" fill="rgb(61, 58, 54)" opacity="0.96092534" stroke="rgb(0, 0, 0)" stroke-opacity="1.0" stroke-linecap="round" stroke-linejoin="round"/>
    <path d="M 296.2348327636719 437.2114562988281 C 316.2369689941406 440.0365295410156 338.156005859375 439.77886962890625 357.4228210449219 445.4497375488281 C 385.921875 447.0958557128906 412.4932556152344 443.2634582519531 444.344970703125 442.2110900878906 C 447.3457946777344 441.65972900390625 448.1484069824219 435.5064697265625 449.2591552734375 432.4549560546875 C 469.5530090332031 433.11456298828125 490.48602294921875 433.3843688964844 515.3274536132812 436.2479553222656 C 515.7612915039062 422.5276794433594 515.8280639648438 409.3551940917969 513.3429565429688 398.82293701171875 C 467.04364013671875 386.1290283203125 419.5881652832031 381.1453552246094 370.3176574707031 379.0707702636719 C 340.0259094238281 389.44842529296875 329.0906677246094 420.4410095214844 296.2348327636719 437.2114562988281" stroke-width="0.0" fill="rgb(33, 33, 37)" opacity="1.0207222" stroke="rgb(0, 0, 0)" stroke-opacity="1.0" stroke-linecap="round" stroke-linejoin="round"/>
    <path d="M 318.1810607910156 251.3542022705078 C 294.53082275390625 249.76795959472656 276.3568420410156 250.94960021972656 257.6556701660156 257.7646179199219 C 248.5618133544922 264.0704040527344 254.3730926513672 285.0298156738281 243.1269989013672 301.70379638671875 C 260.5954895019531 303.5652770996094 283.6067810058594 302.80303955078125 311.3973083496094 300.5981140136719 C 316.67999267578125 298.59283447265625 319.24945068359375 294.2111511230469 320.4272766113281 286.9684753417969 C 319.632080078125 274.7174377441406 319.08807373046875 262.88299560546875 318.1810607910156 251.3542022705078" stroke-width="0.0" fill="rgb(79, 73, 76)" opacity="0.9602334" stroke="rgb(0, 0, 0)" stroke-opacity="1.0" stroke-linecap="round" stroke-linejoin="round"/>
    <path d="M 336.95306396484375 228.39202880859375 C 330.5387268066406 234.00704956054688 324.97393798828125 240.9611358642578 321.94000244140625 249.243408203125 C 320.15338134765625 276.2373352050781 325.873779296875 298.7069091796875 326.7394714355469 326.5937805175781 C 326.5179138183594 328.128662109375 328.7562561035156 330.0097351074219 332.9917297363281 330.2319030761719 C 338.8736877441406 330.5987548828125 342.4721984863281 330.0871887207031 345.0277404785156 326.28045654296875 C 345.3199462890625 308.02166748046875 347.4774475097656 292.5833435058594 353.780029296875 276.9630126953125 C 352.91571044921875 260.56280517578125 353.3852233886719 246.4624481201172 350.5000915527344 231.38427734375 C 348.0080871582031 230.5188446044922 343.08984375 229.93850708007812 336.95306396484375 228.39202880859375" stroke-width="0.0" fill="rgb(95, 86, 94)" opacity="1.0084335" stroke="rgb(0, 0, 0)" stroke-opacity="1.0" stroke-linecap="round" stroke-linejoin="round"/>
    <path d="M 8.998634338378906 260.3041687011719 C 7.845503807067871 258.5760498046875 3.080735206604004 254.00404357910156 -4.742644309997559 247.53515625 C -4.735873699188232 277.1857604980469 -5.498012065887451 303.18572998046875 -2.8812918663024902 329.1300048828125 C 6.314990043640137 327.17474365234375 10.536684036254883 325.4452819824219 15.833950996398926 322.4482727050781 C 17.625202178955078 317.54730224609375 18.460311889648438 309.8123474121094 21.6215877532959 306.13714599609375 C 33.512916564941406 300.960693359375 44.43098831176758 295.2017517089844 54.62413787841797 284.017333984375 C 48.56011199951172 276.18292236328125 38.282955169677734 275.9886169433594 27.376819610595703 276.0366516113281 C 22.296119689941406 268.67645263671875 13.263472557067871 265.3150329589844 8.998634338378906 260.3041687011719" stroke-width="0.0" fill="rgb(69, 66, 59)" opacity="1.073123" stroke="rgb(0, 0, 0)" stroke-opacity="1.0" stroke-linecap="round" stroke-linejoin="round"/>
    <path d="M 195.61460876464844 309.994140625 C 180.27076721191406 317.0592041015625 168.637451171875 325.2598571777344 152.7093505859375 333.6087646484375 C 151.37828063964844 335.21868896484375 152.1748046875 343.2790832519531 153.4501190185547 356.9134826660156 C 160.15090942382812 357.75335693359375 172.40321350097656 356.7708740234375 190.5188751220703 355.1222839355469 C 193.74072265625 343.61578369140625 195.451171875 329.53558349609375 195.61460876464844 309.994140625" stroke-width="0.0" fill="rgb(186, 164, 129)" opacity="0.95277965" stroke="rgb(0, 0, 0)" stroke-opacity="1.0" stroke-linecap="round" stroke-linejoin="round"/>
    <path d="M 252.6890869140625 216.35377502441406 C 270.2228088378906 217.91049194335938 290.58331298828125 214.71932983398438 296.9018249511719 224.7368927001953 C 322.93743896484375 213.1149139404297 354.98236083984375 220.826416015625 373.9726867675781 213.52487182617188 C 343.3408508300781 204.16481018066406 312.7943420410156 202.80520629882812 283.67376708984375 204.09716796875 C 267.7801208496094 202.7096710205078 260.5732727050781 207.81207275390625 252.6890869140625 216.35377502441406" stroke-width="0.0" fill="rgb(126, 120, 110)" opacity="1.0472697" stroke="rgb(0, 0, 0)" stroke-opacity="1.0" stroke-linecap="round" stroke-linejoin="round"/>
    <path d="M 146.6254425048828 259.1719055175781 C 123.58799743652344 257.8579406738281 104.82534790039062 259.0461730957031 87.54232788085938 261.0407409667969 C 86.16043853759766 265.7742004394531 87.28191375732422 269.4276428222656 88.27033996582031 277.4690856933594 C 93.8459243774414 281.41595458984375 102.84624481201172 283.9800720214844 117.1495590209961 281.0863342285156 C 128.89285278320312 279.0781555175781 138.11753845214844 278.33892822265625 144.7914276123047 276.6405944824219 C 148.74124145507812 271.0046691894531 150.92335510253906 270.81268310546875 146.6254425048828 259.1719055175781" stroke-width="0.0" fill="rgb(17, 31, 41)" opacity="0.9917351" stroke="rgb(0, 0, 0)" stroke-opacity="1.0" stroke-linecap="round" stroke-linejoin="round"/>
    <path d="M -0.6936078667640686 175.38621520996094 C -2.214693069458008 177.34146118164062 -1.0154072046279907 180.809326171875 -0.38547393679618835 183.84906005859375 C 22.95765495300293 184.7392120361328 46.063392639160156 185.82786560058594 70.07504272460938 189.34800720214844 C 62.875850677490234 182.5360107421875 54.597660064697266 180.2218475341797 45.553775787353516 177.9558563232422 C 31.926345825195312 175.83837890625 16.528573989868164 174.5640106201172 -0.6936078667640686 175.38621520996094" stroke-width="0.0" fill="rgb(132, 173, 208)" opacity="0.9790432" stroke="rgb(0, 0, 0)" stroke-opacity="1.0" stroke-linecap="round" stroke-linejoin="round"/>
    <path d="M -5.393547534942627 214.55413818359375 C -4.980241775512695 238.63291931152344 -4.1618971824646 256.62335205078125 -2.205562114715576 268.82476806640625 C 19.094308853149414 274.0567932128906 33.21807098388672 274.6452331542969 46.683197021484375 270.9753112792969 C 47.62327194213867 264.9344177246094 46.503971099853516 256.86175537109375 48.36955642700195 251.2949981689453 C 52.5610466003418 251.2880096435547 49.97337341308594 258.2050476074219 50.43535232543945 273.6750793457031 C 54.97325897216797 262.66949462890625 53.8921012878418 253.32896423339844 53.55317306518555 242.84429931640625 C 49.10401916503906 244.35824584960938 45.10729217529297 243.89918518066406 46.629573822021484 244.4594268798828 C 49.539546966552734 241.86537170410156 53.1655158996582 240.51181030273438 54.74058151245117 237.4958038330078 C 54.50403594970703 246.86160278320312 54.991600036621094 259.8318786621094 55.6163444519043 270.6568603515625 C 66.66669464111328 269.2026062011719 73.05284881591797 268.6554260253906 80.24374389648438 277.49371337890625 C 85.0740966796875 275.7919616699219 88.92364501953125 273.21533203125 93.03114318847656 271.5616455078125 C 116.45104217529297 268.84832763671875 137.77008056640625 264.4649353027344 153.84596252441406 256.8376770019531 C 155.25575256347656 244.18734741210938 154.3934783935547 234.20037841796875 154.7582550048828 222.5836639404297 C 113.68561553955078 229.51060485839844 95.02427673339844 214.38906860351562 65.11729431152344 213.4777374267578 C 59.012020111083984 220.55638122558594 59.70991516113281 226.4664764404297 57.92582321166992 228.9838104248047 C 57.52889633178711 229.69471740722656 54.49266052246094 230.93853759765625 50.10249710083008 228.30502319335938 C 50.837928771972656 226.9868927001953 52.86791229248047 221.2008056640625 49.288246154785156 219.04791259765625 C 32.677467346191406 216.47280883789062 17.17832374572754 215.2665557861328 -5.393547534942627 214.55413818359375" stroke-width="0.0" fill="rgb(118, 147, 162)" opacity="0.95706695" stroke="rgb(0, 0, 0)" stroke-opacity="1.0" stroke-linecap="round" stroke-linejoin="round"/>
    <path d="M 447.7596130371094 438.8768310546875 C 443.3666687011719 449.74249267578125 447.7908630371094 454.3062438964844 452.4355163574219 461.526611328125 C 455.3144226074219 464.64263916015625 462.6136779785156 464.9004821777344 473.49456787109375 463.4224853515625 C 472.0132141113281 470.1264953613281 470.74853515625 473.99273681640625 481.57025146484375 471.9902648925781 C 480.7582092285156 476.0789794921875 475.2677307128906 475.8255920410156 471.0208740234375 477.8026428222656 C 475.09796142578125 477.71588134765625 478.25640869140625 479.6061096191406 479.09930419921875 479.15264892578125 C 475.50543212890625 490.52508544921875 484.6775207519531 500.2673645019531 482.889404296875 515.7125854492188 C 490.889892578125 515.3750610351562 501.58416748046875 515.4439086914062 517.3235473632812 515.4745483398438 C 517.0797729492188 483.7795715332031 516.6337280273438 459.7366638183594 511.03070068359375 438.7384338378906 C 504.821533203125 435.81732177734375 499.0208435058594 433.12445068359375 489.4830322265625 432.8431701660156 C 473.4451599121094 432.61578369140625 458.9336853027344 432.8537292480469 447.7596130371094 438.8768310546875" stroke-width="0.0" fill="rgb(190, 169, 128)" opacity="0.99688226" stroke="rgb(0, 0, 0)" stroke-opacity="1.0" stroke-linecap="round" stroke-linejoin="round"/>
    <path d="M 514.3518676757812 132.50662231445312 C 472.2910461425781 132.83392333984375 435.85693359375 135.3370819091797 406.9833068847656 141.92750549316406 C 403.23370361328125 145.64012145996094 397.0186462402344 146.82948303222656 399.311279296875 154.912109375 C 429.8352966308594 158.15908813476562 462.8696594238281 158.70492553710938 494.4566650390625 158.9044952392578 C 494.779541015625 155.79727172851562 493.3075866699219 157.3885498046875 490.31329345703125 160.3204345703125 C 495.8955078125 162.21878051757812 498.1147155761719 162.1968231201172 502.790771484375 163.43052673339844 C 501.52825927734375 153.7660675048828 503.22918701171875 150.4415283203125 516.2206420898438 152.7277374267578 C 515.9981689453125 142.48062133789062 516.9666137695312 134.90017700195312 514.3518676757812 132.50662231445312" stroke-width="0.0" fill="rgb(93, 84, 73)" opacity="0.97782457" stroke="rgb(0, 0, 0)" stroke-opacity="1.0" stroke-linecap="round" stroke-linejoin="round"/>
    <path d="M 263.976318359375 331.9524230957031 C 283.3465576171875 334.83685302734375 305.3128967285156 334.7518005371094 329.272216796875 333.7167053222656 C 324.2215576171875 327.9226379394531 324.6017150878906 320.3593444824219 325.5641784667969 310.69134521484375 C 315.7870788574219 309.32757568359375 312.1984558105469 304.03387451171875 300.6223449707031 304.8861389160156 C 290.553955078125 304.9115295410156 279.74951171875 304.1551513671875 275.08575439453125 305.265869140625 C 272.953857421875 314.0978088378906 271.94561767578125 321.136962890625 273.2061462402344 329.93597412109375 C 271.0576477050781 331.13616943359375 264.73681640625 328.2120666503906 263.976318359375 331.9524230957031" stroke-width="0.0" fill="rgb(118, 107, 89)" opacity="0.9948032" stroke="rgb(0, 0, 0)" stroke-opacity="1.0" stroke-linecap="round" stroke-linejoin="round"/>
    <path d="M 374.56634521484375 296.02252197265625 C 369.3887023925781 305.57373046875 368.1378173828125 320.58807373046875 372.4775085449219 341.9977722167969 C 376.42822265625 345.04656982421875 382.9774169921875 346.9043884277344 392.3546142578125 347.7369689941406 C 394.35321044921875 329.498779296875 396.24981689453125 312.0069580078125 397.7826843261719 291.8751220703125 C 386.23394775390625 290.6994934082031 380.18975830078125 292.373046875 374.56634521484375 296.02252197265625" stroke-width="0.0" fill="rgb(107, 96, 87)" opacity="0.9999937" stroke="rgb(0, 0, 0)" stroke-opacity="1.0" stroke-linecap="round" stroke-linejoin="round"/>
    <path d="M 346.97955322265625 336.7492370605469 C 339.7660217285156 346.6927795410156 341.3362121582031 357.5595397949219 347.4346008300781 377.25311279296875 C 343.6650390625 376.7852783203125 350.51806640625 377.11688232421875 357.5628356933594 377.15142822265625 C 356.0906982421875 385.77874755859375 354.7267150878906 393.54644775390625 358.6007080078125 402.4292907714844 C 361.6169128417969 394.56427001953125 361.9962463378906 386.1988830566406 363.7946472167969 378.3299255371094 C 363.0294189453125 372.9871520996094 367.7956237792969 375.43634033203125 370.6358947753906 378.071044921875 C 368.07684326171875 364.9833984375 369.5965270996094 356.61224365234375 371.5211486816406 349.3878479003906 C 365.6814880371094 349.9810485839844 361.40582275390625 348.8597412109375 357.5198974609375 347.0559387207031 C 354.12152099609375 343.5407409667969 352.5118408203125 337.1576843261719 346.97955322265625 336.7492370605469" stroke-width="0.0" fill="rgb(66, 54, 59)" opacity="0.9942924" stroke="rgb(0, 0, 0)" stroke-opacity="1.0" stroke-linecap="round" stroke-linejoin="round"/>
    <path d="M 83.40592193603516 284.76116943359375 C 75.03662872314453 285.17657470703125 66.28791046142578 283.51007080078125 62.74351119995117 286.4139404296875 C 58.0156135559082 292.2746276855469 58.47431945800781 301.6253662109375 52.65200424194336 306.06549072265625 C 52.861045837402344 314.7311706542969 51.59197998046875 320.0090026855469 54.857879638671875 324.02044677734375 C 66.6302261352539 324.0601501464844 75.03809356689453 321.5246276855469 84.00371551513672 319.68829345703125 C 84.18968963623047 306.5920104980469 84.00585174560547 295.3818359375 83.40592193603516 284.76116943359375" stroke-width="0.0" fill="rgb(161, 153, 139)" opacity="1.0055567" stroke="rgb(0, 0, 0)" stroke-opacity="1.0" stroke-linecap="round" stroke-linejoin="round"/>
    <path d="M 352.51739501953125 292.9517517089844 C 351.985595703125 298.9937438964844 351.9527587890625 313.7652893066406 351.7379455566406 332.6827392578125 C 355.36090087890625 335.4854736328125 359.0179138183594 338.1755065917969 358.8408203125 343.9594421386719 C 360.75762939453125 339.5328063964844 372.0450134277344 341.6389465332031 371.0536804199219 340.19097900390625 C 373.4744567871094 324.5821533203125 374.64691162109375 313.0135192871094 372.7401123046875 297.5664367675781 C 367.38543701171875 294.150146484375 364.1123962402344 289.80108642578125 352.51739501953125 292.9517517089844" stroke-width="0.0" fill="rgb(52, 42, 49)" opacity="1.0012714" stroke="rgb(0, 0, 0)" stroke-opacity="1.0" stroke-linecap="round" stroke-linejoin="round"/>
    <path d="M 405.2707824707031 164.3764190673828 C 423.57440185546875 167.3363800048828 443.7939147949219 169.3397674560547 467.0986328125 170.19725036621094 C 468.87994384765625 167.6792755126953 467.8911437988281 163.74070739746094 468.2365417480469 161.6240692138672 C 484.322998046875 164.49105834960938 495.0855712890625 164.57452392578125 499.49432373046875 158.8231964111328 C 479.4580078125 156.91363525390625 457.8557434082031 155.92276000976562 436.9977722167969 155.18319702148438 C 425.35455322265625 156.8736572265625 414.2566223144531 156.55599975585938 405.25775146484375 156.10707092285156 C 406.5879211425781 158.23013305664062 403.6327209472656 160.4885711669922 405.2707824707031 164.3764190673828" stroke-width="0.0" fill="rgb(108, 76, 57)" opacity="0.98137146" stroke="rgb(0, 0, 0)" stroke-opacity="1.0" stroke-linecap="round" stroke-linejoin="round"/>
    <path d="M 41.23118591308594 299.1727600097656 C 31.909669876098633 299.65301513671875 26.117523193359375 302.8262023925781 18.09905433654785 304.48046875 C 17.73483657836914 310.2894287109375 16.1308650970459 318.02667236328125 13.46474838256836 326.8708190917969 C 25.693273544311523 326.092529296875 36.814064025878906 325.7143249511719 47.61671447753906 324.7763671875 C 46.26616287231445 313.6225891113281 44.39985275268555 306.54473876953125 41.23118591308594 299.1727600097656" stroke-width="0.0" fill="rgb(152, 135, 106)" opacity="0.9724968" stroke="rgb(0, 0, 0)" stroke-opacity="1.0" stroke-linecap="round" stroke-linejoin="round"/>
    <path d="M 452.7113342285156 200.68666076660156 C 452.76849365234375 188.6673126220703 449.4001770019531 190.2276611328125 438.4540100097656 190.03700256347656 C 387.06939697265625 188.34190368652344 336.8135986328125 190.89993286132812 292.03350830078125 196.63870239257812 C 288.04278564453125 197.88275146484375 285.65625 198.8497772216797 286.380126953125 206.04861450195312 C 310.23760986328125 208.25912475585938 334.5469970703125 210.224609375 358.82891845703125 211.83737182617188 C 356.9685974121094 217.84231567382812 361.54620361328125 216.35305786132812 369.5813903808594 217.34703063964844 C 371.54364013671875 212.85003662109375 370.9341125488281 205.2329864501953 370.8487548828125 202.7862091064453 C 388.1039123535156 196.61801147460938 387.36236572265625 206.74969482421875 397.13616943359375 205.7447509765625 C 421.1606750488281 205.4375762939453 439.7625732421875 204.1099090576172 452.7113342285156 200.68666076660156" stroke-width="0.0" fill="rgb(135, 95, 51)" opacity="0.9421518" stroke="rgb(0, 0, 0)" stroke-opacity="1.0" stroke-linecap="round" stroke-linejoin="round"/>
    <path d="M 350.3332214355469 237.85885620117188 C 352.0870361328125 247.22988891601562 355.7111511230469 252.48817443847656 358.49761962890625 256.76251220703125 C 406.9050598144531 250.43759155273438 448.61773681640625 259.88201904296875 493.18096923828125 255.1431427001953 C 445.8302917480469 247.64480590820312 399.29803466796875 242.56492614746094 350.3332214355469 237.85885620117188" stroke-width="0.0" fill="rgb(141, 142, 143)" opacity="0.9993239" stroke="rgb(0, 0, 0)" stroke-opacity="1.0" stroke-linecap="round" stroke-linejoin="round"/>
    <path d="M 369.7646179199219 264.51849365234375 C 382.6186218261719 265.9981994628906 395.9502258300781 266.8371276855469 411.57135009765625 266.3738708496094 C 416.2146911621094 262.3227844238281 421.29217529296875 258.79107666015625 431.05047607421875 253.6135711669922 C 407.5563049316406 253.4388427734375 388.25396728515625 254.90904235839844 371.0393981933594 254.86651611328125 C 369.92938232421875 257.7535705566406 369.0640869140625 261.41656494140625 369.7646179199219 264.51849365234375" stroke-width="0.0" fill="rgb(143, 168, 173)" opacity="0.99872804" stroke="rgb(0, 0, 0)" stroke-opacity="1.0" stroke-linecap="round" stroke-linejoin="round"/>
    <path d="M 463.194580078125 225.5946807861328 C 479.6429443359375 232.63206481933594 490.6993713378906 241.33181762695312 501.8365173339844 252.61376953125 C 505.68548583984375 253.5078582763672 506.5107727050781 248.25973510742188 510.31640625 244.18479919433594 C 510.6974792480469 237.59654235839844 511.1805725097656 230.08334350585938 511.5120849609375 223.70848083496094 C 495.5533142089844 223.6951141357422 480.6673583984375 222.74879455566406 463.194580078125 225.5946807861328" stroke-width="0.0" fill="rgb(128, 178, 192)" opacity="1.0003247" stroke="rgb(0, 0, 0)" stroke-opacity="1.0" stroke-linecap="round" stroke-linejoin="round"/>
    <path d="M 128.28277587890625 507.1611328125 C 133.77706909179688 513.3924560546875 140.6409912109375 517.0364379882812 152.63876342773438 515.383544921875 C 161.15057373046875 507.33404541015625 170.3367919921875 507.5558776855469 172.5474090576172 500.4697265625 C 166.81729125976562 495.52001953125 158.4541473388672 494.8593444824219 149.36940002441406 496.0152282714844 C 138.5511016845703 498.015869140625 129.27365112304688 498.75567626953125 128.28277587890625 507.1611328125" stroke-width="0.0" fill="rgb(188, 166, 122)" opacity="0.9991596" stroke="rgb(0, 0, 0)" stroke-opacity="1.0" stroke-linecap="round" stroke-linejoin="round"/>
    <path d="M 193.860595703125 302.27032470703125 C 191.64596557617188 298.7576904296875 189.6663360595703 295.1432800292969 185.82839965820312 295.6436462402344 C 172.95364379882812 303.2531433105469 161.51492309570312 311.2237548828125 147.93431091308594 318.3273010253906 C 141.70620727539062 320.040283203125 140.1291961669922 324.9246520996094 141.4045867919922 330.3161926269531 C 143.31521606445312 337.8429260253906 145.4469451904297 343.93585205078125 148.427978515625 340.4687194824219 C 161.62611389160156 326.9539794921875 178.71517944335938 319.6855773925781 194.3349609375 310.48577880859375 C 198.08351135253906 307.8965759277344 197.79147338867188 307.59820556640625 193.860595703125 302.27032470703125" stroke-width="0.0" fill="rgb(25, 24, 25)" opacity="0.9726575" stroke="rgb(0, 0, 0)" stroke-opacity="1.0" stroke-linecap="round" stroke-linejoin="round"/>
    <path d="M 194.92559814453125 147.3935546875 C 189.32046508789062 149.84158325195312 188.28369140625 158.28712463378906 189.75848388671875 169.87796020507812 C 191.13479614257812 174.3670654296875 196.56532287597656 175.00636291503906 201.493408203125 176.98690795898438 C 205.22128295898438 168.68576049804688 209.82913208007812 163.20291137695312 209.0848388671875 153.527587890625 C 207.45748901367188 146.34031677246094 204.5614776611328 144.49269104003906 194.92559814453125 147.3935546875" stroke-width="0.0" fill="rgb(28, 32, 41)" opacity="0.9822925" stroke="rgb(0, 0, 0)" stroke-opacity="1.0" stroke-linecap="round" stroke-linejoin="round"/>
    <path d="M 296.017822265625 438.4236145019531 C 313.9931640625 439.662841796875 339.7796630859375 439.8049621582031 363.8312683105469 444.8463439941406 C 390.98876953125 445.0762634277344 419.9654541015625 444.0108947753906 444.3492431640625 443.88232421875 C 444.941650390625 434.2037658691406 444.4183044433594 428.8162536621094 447.5429992675781 429.3912353515625 C 418.2599182128906 431.301513671875 398.83050537109375 427.6396484375 382.9438781738281 419.94012451171875 C 360.46533203125 420.4796142578125 338.5135498046875 420.74365234375 318.2359619140625 419.59112548828125 C 309.3566589355469 425.9231262207031 298.1083068847656 422.424560546875 296.017822265625 438.4236145019531" stroke-width="0.0" fill="rgb(84, 80, 71)" opacity="0.99252367" stroke="rgb(0, 0, 0)" stroke-opacity="1.0" stroke-linecap="round" stroke-linejoin="round"/>
    <path d="M 411.25555419921875 273.8578796386719 C 409.5458679199219 277.5459899902344 414.9653625488281 279.0442199707031 419.15863037109375 283.930908203125 C 446.2514953613281 289.74896240234375 476.5154724121094 289.6849060058594 502.66107177734375 287.60894775390625 C 501.353515625 272.68798828125 498.2901306152344 267.52813720703125 494.5871887207031 262.7919921875 C 479.1033630371094 259.0673828125 463.1655578613281 256.297119140625 446.25750732421875 254.31488037109375 C 437.20849609375 253.993896484375 429.97686767578125 253.44326782226562 426.21337890625 256.89459228515625 C 419.5966796875 261.3876037597656 412.56463623046875 264.62274169921875 411.25555419921875 273.8578796386719" stroke-width="0.0" fill="rgb(73, 65, 70)" opacity="0.9880901" stroke="rgb(0, 0, 0)" stroke-opacity="1.0" stroke-linecap="round" stroke-linejoin="round"/>
    <path d="M 176.20474243164062 251.552978515625 C 179.5522003173828 266.7698059082031 188.07513427734375 276.2010498046875 188.55032348632812 294.91876220703125 C 192.8741455078125 293.4454345703125 196.55384826660156 294.6705017089844 196.3600311279297 300.1101989746094 C 198.4385986328125 318.76544189453125 196.68975830078125 335.39910888671875 193.15383911132812 352.1495361328125 C 196.72332763671875 354.109619140625 199.94277954101562 354.0876770019531 206.56178283691406 353.8480529785156 C 211.4232940673828 341.0150451660156 214.73512268066406 324.4754638671875 216.6181640625 302.3354797363281 C 214.0047149658203 285.3492126464844 210.5652313232422 267.17657470703125 206.7631378173828 249.00367736816406 C 197.27212524414062 249.15623474121094 187.16151428222656 248.77235412597656 176.20474243164062 251.552978515625" stroke-width="0.0" fill="rgb(17, 18, 23)" opacity="1.0074224" stroke="rgb(0, 0, 0)" stroke-opacity="1.0" stroke-linecap="round" stroke-linejoin="round"/>
    <path d="M 338.04534912109375 227.61251831054688 C 330.5677795410156 234.1642608642578 324.5793762207031 240.365966796875 322.9872741699219 248.87002563476562 C 322.5275573730469 265.3145751953125 324.00494384765625 279.07586669921875 328.2733459472656 295.5938720703125 C 330.5181884765625 295.92633056640625 335.2601013183594 296.47381591796875 346.5990295410156 296.1700439453125 C 348.9035949707031 293.6816101074219 348.4561462402344 281.9992370605469 351.68450927734375 272.3346252441406 C 353.5379333496094 256.1217346191406 354.1063537597656 241.4510498046875 350.9775085449219 233.45822143554688 C 343.87506103515625 231.8700408935547 341.64923095703125 229.66197204589844 338.04534912109375 227.61251831054688" stroke-width="0.0" fill="rgb(109, 105, 112)" opacity="1.0279946" stroke="rgb(0, 0, 0)" stroke-opacity="1.0" stroke-linecap="round" stroke-linejoin="round"/>
    <path d="M -2.3038535118103027 185.0815887451172 C -3.3073341846466064 191.9951934814453 -3.6121416091918945 200.26490783691406 -2.1921679973602295 213.2263641357422 C 30.89556884765625 210.3433074951172 56.77783203125 207.72225952148438 79.8733139038086 204.94287109375 C 72.41814422607422 190.30491638183594 65.8702392578125 188.5822296142578 57.0777587890625 188.28927612304688 C 38.159759521484375 186.35906982421875 19.760019302368164 184.5207061767578 -2.3038535118103027 185.0815887451172" stroke-width="0.0" fill="rgb(122, 84, 50)" opacity="1.0018883" stroke="rgb(0, 0, 0)" stroke-opacity="1.0" stroke-linecap="round" stroke-linejoin="round"/>
    <path d="M 330.3468322753906 301.0574645996094 C 326.9658203125 305.77703857421875 325.7137451171875 314.1243896484375 325.8116760253906 327.5875549316406 C 329.1278991699219 328.74249267578125 333.30181884765625 330.9184875488281 344.107177734375 333.0158996582031 C 344.5392761230469 323.1366882324219 345.6346740722656 313.7415771484375 345.81915283203125 301.9949951171875 C 342.98931884765625 297.6326904296875 336.1962890625 298.1211853027344 330.3468322753906 301.0574645996094" stroke-width="0.0" fill="rgb(11, 11, 18)" opacity="0.9982104" stroke="rgb(0, 0, 0)" stroke-opacity="1.0" stroke-linecap="round" stroke-linejoin="round"/>
    <path d="M 358.04058837890625 274.3926086425781 C 350.3642883300781 296.59332275390625 349.75689697265625 318.59161376953125 349.7710266113281 346.69757080078125 C 385.4522399902344 351.6494140625 412.0494079589844 358.70233154296875 443.0013427734375 361.8174743652344 C 446.4266052246094 362.9482727050781 447.1063537597656 367.3417663574219 449.16156005859375 373.81756591796875 C 452.03460693359375 373.5975341796875 453.96539306640625 373.01702880859375 456.4756774902344 372.58441162109375 C 460.4576110839844 362.67364501953125 465.05560302734375 353.5269470214844 470.7998046875 343.84844970703125 C 476.41168212890625 329.9768981933594 479.2813415527344 312.79693603515625 479.4955749511719 291.3990173339844 C 443.5184020996094 284.6236267089844 413.2521667480469 278.23779296875 382.6775207519531 271.5195617675781 C 370.54022216796875 271.4888916015625 363.5870666503906 272.3240661621094 358.04058837890625 274.3926086425781" stroke-width="0.0" fill="rgb(85, 96, 104)" opacity="1.0040321" stroke="rgb(0, 0, 0)" stroke-opacity="1.0" stroke-linecap="round" stroke-linejoin="round"/>
    <path d="M 64.37271881103516 220.94134521484375 C 58.24053192138672 235.45233154296875 54.92586135864258 248.7954864501953 57.581729888916016 266.2889404296875 C 62.6414909362793 271.7049255371094 71.66097259521484 272.7355041503906 83.95769500732422 273.6496276855469 C 84.80741119384766 270.762939453125 84.1734848022461 265.369873046875 89.64781951904297 265.8861083984375 C 110.57028198242188 266.1903076171875 129.50643920898438 262.9100341796875 148.04188537597656 257.78924560546875 C 151.50677490234375 262.76165771484375 147.12283325195312 270.4032287597656 148.6534881591797 272.59918212890625 C 154.56924438476562 253.72720336914062 157.99017333984375 239.11044311523438 158.30567932128906 224.23025512695312 C 122.63469696044922 223.73306274414062 92.92025756835938 221.80520629882812 64.37271881103516 220.94134521484375" stroke-width="0.0" fill="rgb(113, 161, 173)" opacity="0.9997154" stroke="rgb(0, 0, 0)" stroke-opacity="1.0" stroke-linecap="round" stroke-linejoin="round"/>
    <path d="M 515.3543090820312 277.95770263671875 C 504.8817443847656 285.74273681640625 489.24420166015625 288.4479064941406 475.2371826171875 295.16851806640625 C 472.97076416015625 314.94427490234375 470.7461853027344 336.7672424316406 466.7576599121094 359.2027587890625 C 463.8951416015625 367.8386535644531 459.13287353515625 374.56500244140625 451.8955383300781 380.806396484375 C 449.72735595703125 387.62860107421875 452.515380859375 389.581787109375 457.837890625 391.4770812988281 C 466.8758544921875 394.70782470703125 475.7783203125 396.5711975097656 490.37152099609375 395.68572998046875 C 491.2111511230469 381.19354248046875 500.07647705078125 375.5824279785156 507.05731201171875 365.0914611816406 C 507.7765197753906 357.08905029296875 509.31829833984375 350.969482421875 507.63897705078125 342.4132995605469 C 505.9283752441406 336.15478515625 501.99224853515625 331.9044189453125 499.1646423339844 331.4688720703125 C 502.2403869628906 321.94866943359375 505.7037353515625 315.3464050292969 515.7504272460938 309.3590087890625 C 516.1182861328125 296.5419921875 515.2418212890625 286.96728515625 515.3543090820312 277.95770263671875" stroke-width="0.0" fill="rgb(30, 26, 27)" opacity="1.0002668" stroke="rgb(0, 0, 0)" stroke-opacity="1.0" stroke-linecap="round" stroke-linejoin="round"/>
    <path d="M 190.4740753173828 172.31590270996094 C 179.99998474121094 176.7404327392578 174.14651489257812 182.4748077392578 171.12359619140625 190.71014404296875 C 168.09523010253906 197.153564453125 168.33860778808594 200.9462890625 170.18466186523438 201.0006866455078 C 178.5647735595703 205.14027404785156 179.79371643066406 208.22640991210938 185.5806427001953 202.95420837402344 C 179.7971954345703 215.63722229003906 176.70712280273438 228.95660400390625 172.95318603515625 249.35177612304688 C 182.05567932128906 248.66563415527344 196.04269409179688 247.5741729736328 208.89935302734375 250.04739379882812 C 208.0110626220703 231.37681579589844 207.82089233398438 212.01556396484375 214.0410919189453 200.23269653320312 C 212.18455505371094 192.3340606689453 209.83236694335938 186.0670166015625 207.08267211914062 181.47080993652344 C 200.92828369140625 178.26675415039062 195.56129455566406 174.44044494628906 190.4740753173828 172.31590270996094" stroke-width="0.0" fill="rgb(83, 52, 39)" opacity="0.9823114" stroke="rgb(0, 0, 0)" stroke-opacity="1.0" stroke-linecap="round" stroke-linejoin="round"/>
    <path d="M 170.8493194580078 190.67161560058594 C 164.8610382080078 201.53343200683594 159.92527770996094 212.29319763183594 154.47987365722656 225.18190002441406 C 157.7047882080078 242.9778289794922 156.79888916015625 257.3195495605469 152.82044982910156 278.1328125 C 157.3954620361328 287.9133605957031 155.84727478027344 295.1215515136719 167.69589233398438 296.21539306640625 C 172.6162872314453 292.69573974609375 172.99984741210938 281.2049865722656 185.79014587402344 280.2979736328125 C 178.70306396484375 267.8899841308594 177.22076416015625 252.99961853027344 174.6012725830078 236.68675231933594 C 178.30335998535156 228.1103973388672 182.27020263671875 218.2249298095703 185.9599151611328 208.31561279296875 C 180.75845336914062 203.3162841796875 175.65296936035156 205.8610076904297 171.8716278076172 205.57012939453125 C 172.26675415039062 198.84024047851562 172.7074737548828 193.6886444091797 170.8493194580078 190.67161560058594" stroke-width="0.0" fill="rgb(88, 76, 77)" opacity="0.91914773" stroke="rgb(0, 0, 0)" stroke-opacity="1.0" stroke-linecap="round" stroke-linejoin="round"/>
    <path d="M 258.7816162109375 266.3417663574219 C 256.8373718261719 279.600830078125 260.232177734375 289.4873046875 263.6136779785156 300.90802001953125 C 282.9212646484375 299.0096130371094 298.5093994140625 294.6154479980469 317.32623291015625 294.9435119628906 C 319.3069152832031 281.4851989746094 318.7970275878906 274.58197021484375 315.9452819824219 270.1496276855469 C 298.05743408203125 265.82965087890625 280.5312194824219 265.41168212890625 258.7816162109375 266.3417663574219" stroke-width="0.0" fill="rgb(79, 70, 61)" opacity="1.0031722" stroke="rgb(0, 0, 0)" stroke-opacity="1.0" stroke-linecap="round" stroke-linejoin="round"/>
    <path d="M 52.202693939208984 235.45236206054688 C 39.274505615234375 234.03555297851562 24.911645889282227 234.0423583984375 19.337453842163086 237.75747680664062 C 12.43762493133545 242.1238555908203 6.509533882141113 244.24081420898438 -2.747742176055908 249.30540466308594 C -3.940929412841797 252.83045959472656 -4.272676944732666 261.1740417480469 -4.4751763343811035 276.6262512207031 C 17.105884552001953 276.64031982421875 30.458223342895508 274.6565856933594 46.2236213684082 270.3481750488281 C 50.57270050048828 264.3430480957031 51.783512115478516 253.9702911376953 52.202693939208984 235.45236206054688" stroke-width="0.0" fill="rgb(139, 153, 159)" opacity="0.9975672" stroke="rgb(0, 0, 0)" stroke-opacity="1.0" stroke-linecap="round" stroke-linejoin="round"/>
    <path d="M -6.542799472808838 272.2118225097656 C -5.872838497161865 290.33795166015625 -4.4435296058654785 299.57501220703125 0.43090808391571045 303.21038818359375 C 24.658248901367188 304.5863342285156 34.498050689697266 294.9974060058594 56.50727844238281 304.9005126953125 C 54.74100875854492 287.6302490234375 50.79490661621094 280.3156433105469 44.57804489135742 275.59503173828125 C 28.328941345214844 273.983154296875 11.517312049865723 273.2098083496094 -6.542799472808838 272.2118225097656" stroke-width="0.0" fill="rgb(102, 92, 74)" opacity="0.96988577" stroke="rgb(0, 0, 0)" stroke-opacity="1.0" stroke-linecap="round" stroke-linejoin="round"/>
    <path d="M 113.3349380493164 215.50355529785156 C 102.04981231689453 204.36489868164062 90.42205810546875 200.34820556640625 75.08091735839844 202.71604919433594 C 51.3841667175293 206.11756896972656 24.404138565063477 205.71507263183594 -8.290606498718262 211.75238037109375 C 8.096780776977539 218.46482849121094 24.7872314453125 219.6468048095703 38.543827056884766 218.69032287597656 C 66.13841247558594 214.64144897460938 90.50273895263672 215.76133728027344 113.3349380493164 215.50355529785156" stroke-width="0.0" fill="rgb(137, 113, 100)" opacity="0.9350462" stroke="rgb(0, 0, 0)" stroke-opacity="1.0" stroke-linecap="round" stroke-linejoin="round"/>
    <path d="M 1.213567852973938 207.37228393554688 C 1.2956359386444092 222.06393432617188 1.5058544874191284 230.6956024169922 1.5559319257736206 235.72650146484375 C 21.652183532714844 239.6133270263672 33.37451934814453 239.2809295654297 48.80522918701172 235.4620819091797 C 50.75794219970703 231.57644653320312 52.648902893066406 226.63916015625 49.84364318847656 214.99288940429688 C 35.569671630859375 213.10504150390625 20.639537811279297 210.83506774902344 1.213567852973938 207.37228393554688" stroke-width="0.0" fill="rgb(141, 170, 179)" opacity="0.9764387" stroke="rgb(0, 0, 0)" stroke-opacity="1.0" stroke-linecap="round" stroke-linejoin="round"/>
    <path d="M 274.61456298828125 305.6832580566406 C 274.6412353515625 314.6429748535156 270.83697509765625 321.15118408203125 275.45599365234375 332.1426086425781 C 291.4909973144531 330.2921447753906 303.9147644042969 327.8440856933594 315.5209655761719 325.7509765625 C 315.6960754394531 317.02325439453125 316.3514709472656 309.8449401855469 317.0887451171875 306.17724609375 C 299.96575927734375 305.0510559082031 285.3667907714844 303.65625 274.61456298828125 305.6832580566406" stroke-width="0.0" fill="rgb(148, 134, 109)" opacity="1.0116938" stroke="rgb(0, 0, 0)" stroke-opacity="1.0" stroke-linecap="round" stroke-linejoin="round"/>
    <path d="M 374.60211181640625 349.3641357421875 C 373.5544128417969 354.6329345703125 370.9382019042969 358.7940673828125 373.2507019042969 362.9930725097656 C 394.8825378417969 365.7140197753906 415.8180847167969 369.3330993652344 439.29833984375 371.69781494140625 C 441.5077819824219 365.78204345703125 440.8663635253906 362.9074401855469 440.4314270019531 360.96697998046875 C 416.6463317871094 358.7687683105469 396.1794128417969 353.4300842285156 374.60211181640625 349.3641357421875" stroke-width="0.0" fill="rgb(192, 170, 133)" opacity="0.9854458" stroke="rgb(0, 0, 0)" stroke-opacity="1.0" stroke-linecap="round" stroke-linejoin="round"/>
    <path d="M 347.6485290527344 334.91668701171875 C 341.0373229980469 346.65057373046875 336.3573913574219 355.9981994628906 344.6706848144531 366.22357177734375 C 342.2901611328125 370.73919677734375 337.0271301269531 370.368896484375 336.77996826171875 376.62738037109375 C 338.8266296386719 378.7680969238281 344.22314453125 378.6571960449219 354.7733154296875 377.3524475097656 C 357.0566101074219 372.3875732421875 356.90081787109375 361.7347106933594 356.4963684082031 348.4909973144531 C 352.9171447753906 343.41864013671875 352.94793701171875 335.9435729980469 347.6485290527344 334.91668701171875" stroke-width="0.0" fill="rgb(111, 81, 81)" opacity="1.0175453" stroke="rgb(0, 0, 0)" stroke-opacity="1.0" stroke-linecap="round" stroke-linejoin="round"/>
    <path d="M 52.74357604980469 310.4425048828125 C 54.17777633666992 313.7286682128906 51.22993469238281 319.2120056152344 54.97596740722656 320.9041748046875 C 65.63506317138672 320.9433288574219 75.54816436767578 320.2878723144531 83.42657470703125 318.7343444824219 C 82.68688201904297 309.1946716308594 81.4165267944336 302.9105224609375 80.77252960205078 300.3602600097656 C 72.97889709472656 298.591796875 65.18638610839844 297.6943359375 58.90929412841797 299.2747497558594 C 56.31439971923828 301.1040344238281 53.325782775878906 304.6443786621094 52.74357604980469 310.4425048828125" stroke-width="0.0" fill="rgb(175, 160, 132)" opacity="0.9991413" stroke="rgb(0, 0, 0)" stroke-opacity="1.0" stroke-linecap="round" stroke-linejoin="round"/>
    <path d="M 58.857749938964844 217.1374053955078 C 48.86453628540039 215.5375518798828 47.686119079589844 218.51773071289062 50.366943359375 225.36753845214844 C 48.22462463378906 243.388671875 45.83856201171875 258.5485534667969 47.605037689208984 268.99725341796875 C 52.42250442504883 270.7899475097656 55.72153091430664 271.1791076660156 55.5809440612793 270.1175537109375 C 55.456451416015625 249.09539794921875 61.29337692260742 237.2183837890625 58.857749938964844 217.1374053955078" stroke-width="0.0" fill="rgb(86, 103, 109)" opacity="0.96380615" stroke="rgb(0, 0, 0)" stroke-opacity="1.0" stroke-linecap="round" stroke-linejoin="round"/>
    <path d="M 516.5421752929688 133.4054412841797 C 492.504150390625 132.11610412597656 475.7337951660156 133.7818603515625 454.108642578125 136.01075744628906 C 453.3062744140625 136.2963104248047 452.6728515625 141.04026794433594 452.4482116699219 151.1962127685547 C 472.8043518066406 151.62701416015625 491.2618408203125 151.49725341796875 514.0784912109375 150.91207885742188 C 516.1631469726562 146.6619110107422 516.6405639648438 141.2891082763672 516.5421752929688 133.4054412841797" stroke-width="0.0" fill="rgb(116, 85, 46)" opacity="0.9983243" stroke="rgb(0, 0, 0)" stroke-opacity="1.0" stroke-linecap="round" stroke-linejoin="round"/>
    <path d="M 347.224365234375 334.7930603027344 C 339.54766845703125 326.7637939453125 334.9185791015625 327.9941101074219 328.6896057128906 333.39556884765625 C 325.69854736328125 326.21875 326.50286865234375 320.94903564453125 327.44305419921875 326.166259765625 C 297.0523986816406 324.629638671875 275.50372314453125 323.8025207519531 257.6761779785156 332.18994140625 C 294.75567626953125 333.9454040527344 323.17730712890625 335.36309814453125 347.224365234375 334.7930603027344" stroke-width="0.0" fill="rgb(52, 49, 44)" opacity="0.988286" stroke="rgb(0, 0, 0)" stroke-opacity="1.0" stroke-linecap="round" stroke-linejoin="round"/>
    <path d="M 469.8149108886719 171.92417907714844 C 468.7146301269531 166.79263305664062 467.5467529296875 163.73548889160156 466.4917297363281 159.61717224121094 C 461.9627685546875 157.05442810058594 455.3107604980469 157.92730712890625 453.1755065917969 153.73150634765625 C 456.1623229980469 148.3311004638672 458.78106689453125 143.24325561523438 458.20220947265625 133.56944274902344 C 440.32861328125 135.59754943847656 424.0415954589844 137.60508728027344 408.50836181640625 140.5084228515625 C 401.9987487792969 141.7385711669922 399.287353515625 147.06829833984375 398.1949768066406 157.033935546875 C 406.4318542480469 154.7470703125 408.20953369140625 155.1424560546875 403.3723449707031 163.97315979003906 C 426.11572265625 167.60365295410156 446.7979736328125 169.5117950439453 469.8149108886719 171.92417907714844" stroke-width="0.0" fill="rgb(117, 82, 51)" opacity="0.9771826" stroke="rgb(0, 0, 0)" stroke-opacity="1.0" stroke-linecap="round" stroke-linejoin="round"/>
    <path d="M 98.229736328125 382.13946533203125 C 109.72716522216797 373.58447265625 120.91354370117188 378.1784973144531 136.8159637451172 376.68963623046875 C 144.46295166015625 371.7776794433594 150.47860717773438 367.56451416015625 153.5122528076172 359.4288330078125 C 136.89724731445312 357.670654296875 118.78730010986328 361.8393859863281 105.96014404296875 355.472900390625 C 103.13081359863281 360.05731201171875 99.82880401611328 362.8468322753906 95.16340637207031 365.96929931640625 C 99.87294006347656 368.72674560546875 100.66636657714844 372.4058532714844 98.229736328125 382.13946533203125" stroke-width="0.0" fill="rgb(50, 48, 45)" opacity="0.9577956" stroke="rgb(0, 0, 0)" stroke-opacity="1.0" stroke-linecap="round" stroke-linejoin="round"/>
    <path d="M 356.79827880859375 243.16111755371094 C 355.8781433105469 250.1845245361328 356.8724365234375 252.0306854248047 359.85784912109375 252.631591796875 C 384.3979187011719 252.58526611328125 407.5467834472656 259.9142761230469 428.8572692871094 254.12806701660156 C 403.62091064453125 247.27993774414062 381.0657653808594 244.7284698486328 356.79827880859375 243.16111755371094" stroke-width="0.0" fill="rgb(159, 158, 156)" opacity="1.0015709" stroke="rgb(0, 0, 0)" stroke-opacity="1.0" stroke-linecap="round" stroke-linejoin="round"/>
    <path d="M 411.2836608886719 271.13031005859375 C 411.3266296386719 278.6949768066406 413.14801025390625 284.051025390625 416.8104553222656 285.3424072265625 C 437.2515563964844 288.0945129394531 453.91729736328125 287.2137756347656 468.6665344238281 284.65277099609375 C 470.7239990234375 274.91265869140625 476.9684143066406 270.30120849609375 476.207763671875 260.18218994140625 C 463.4107360839844 255.29855346679688 449.80865478515625 252.7617950439453 434.1833801269531 253.93252563476562 C 422.1610107421875 257.1673583984375 413.5325012207031 261.32550048828125 411.2836608886719 271.13031005859375" stroke-width="0.0" fill="rgb(68, 56, 60)" opacity="0.98465234" stroke="rgb(0, 0, 0)" stroke-opacity="1.0" stroke-linecap="round" stroke-linejoin="round"/>
    <path d="M 310.18695068359375 422.219482421875 C 341.1651306152344 429.75042724609375 371.0160217285156 432.8707580566406 411.50238037109375 434.9567565917969 C 402.97528076171875 423.50238037109375 388.9314880371094 423.2167663574219 382.289794921875 420.3004455566406 C 358.2197570800781 421.0009765625 331.605712890625 417.2441101074219 310.18695068359375 422.219482421875" stroke-width="0.0" fill="rgb(159, 144, 115)" opacity="0.9823518" stroke="rgb(0, 0, 0)" stroke-opacity="1.0" stroke-linecap="round" stroke-linejoin="round"/>
    <path d="M 351.83282470703125 290.52056884765625 C 350.38568115234375 315.494140625 351.7701416015625 332.6556396484375 356.80413818359375 345.76123046875 C 390.81597900390625 351.3418273925781 419.90399169921875 359.6790771484375 453.51446533203125 363.0469970703125 C 461.8125 357.9168701171875 463.7811584472656 352.0308532714844 466.69097900390625 346.68701171875 C 469.12579345703125 336.69049072265625 470.4158020019531 326.9234313964844 471.9913635253906 317.5069885253906 C 442.30816650390625 308.77496337890625 416.4474792480469 301.6463317871094 394.06341552734375 289.205322265625 C 380.4276428222656 295.0182189941406 370.5720520019531 295.023193359375 351.83282470703125 290.52056884765625" stroke-width="0.0" fill="rgb(79, 63, 57)" opacity="0.98413336" stroke="rgb(0, 0, 0)" stroke-opacity="1.0" stroke-linecap="round" stroke-linejoin="round"/>
    <path d="M 515.7431030273438 309.866455078125 C 505.23712158203125 316.93475341796875 500.7504577636719 322.82879638671875 499.4368896484375 328.9040832519531 C 492.9447326660156 326.0206298828125 484.2358093261719 324.3092346191406 473.0411682128906 325.9154357910156 C 467.77044677734375 341.8800354003906 468.2831115722656 362.1673278808594 462.7171630859375 380.41351318359375 C 463.2967224121094 384.63763427734375 464.30657958984375 388.365966796875 467.5697937011719 390.4380798339844 C 480.58251953125 393.45025634765625 494.3227233886719 395.3529052734375 515.3650512695312 394.49169921875 C 515.9046020507812 365.36285400390625 516.7927856445312 337.10784912109375 515.7431030273438 309.866455078125" stroke-width="0.0" fill="rgb(106, 94, 84)" opacity="0.9007336" stroke="rgb(0, 0, 0)" stroke-opacity="1.0" stroke-linecap="round" stroke-linejoin="round"/>
    <path d="M 188.03102111816406 250.30764770507812 C 195.56472778320312 259.0854187011719 199.1600799560547 273.0546875 204.2332305908203 294.6994323730469 C 196.07591247558594 305.7906494140625 197.0648193359375 330.9532470703125 192.2437286376953 353.27410888671875 C 195.54603576660156 354.5119323730469 199.20431518554688 354.7273864746094 207.3233642578125 352.74359130859375 C 212.98495483398438 339.2783508300781 217.40028381347656 320.982421875 216.94802856445312 301.9718322753906 C 213.1546630859375 280.8642578125 210.97030639648438 265.1045227050781 207.18084716796875 251.03143310546875 C 201.12583923339844 249.62071228027344 193.66290283203125 250.2283172607422 188.03102111816406 250.30764770507812" stroke-width="0.0" fill="rgb(36, 34, 39)" opacity="1.0009118" stroke="rgb(0, 0, 0)" stroke-opacity="1.0" stroke-linecap="round" stroke-linejoin="round"/>
    <path d="M 514.2763671875 272.66290283203125 C 507.92059326171875 277.2213439941406 508.40435791015625 282.62664794921875 507.3068542480469 285.447021484375 C 493.27117919921875 285.3819274902344 485.38995361328125 288.9282531738281 480.0798645019531 295.5860290527344 C 475.3555908203125 302.15106201171875 474.1654052734375 311.4654541015625 476.6372375488281 324.4649963378906 C 482.28924560546875 326.6956787109375 488.5848693847656 329.3485107421875 497.1637878417969 331.5102844238281 C 502.48095703125 322.01629638671875 506.05914306640625 315.246337890625 515.7110595703125 308.66839599609375 C 516.5892333984375 296.0166015625 515.736572265625 284.189208984375 514.2763671875 272.66290283203125" stroke-width="0.0" fill="rgb(51, 41, 41)" opacity="0.9981497" stroke="rgb(0, 0, 0)" stroke-opacity="1.0" stroke-linecap="round" stroke-linejoin="round"/>
    <path d="M 430.38916015625 282.15936279296875 C 433.10498046875 292.1106872558594 437.1133117675781 298.8201904296875 439.0985412597656 307.3310546875 C 449.0234069824219 311.5843200683594 460.2396240234375 314.7644958496094 471.247802734375 318.95843505859375 C 476.8697814941406 309.9877014160156 479.6003723144531 303.08905029296875 478.056396484375 291.5956115722656 C 463.1091003417969 286.555908203125 449.3350830078125 282.94232177734375 430.38916015625 282.15936279296875" stroke-width="0.0" fill="rgb(41, 77, 76)" opacity="0.99638283" stroke="rgb(0, 0, 0)" stroke-opacity="1.0" stroke-linecap="round" stroke-linejoin="round"/>
    <path d="M 45.82516098022461 248.0849151611328 C 28.99437141418457 249.26876831054688 13.748457908630371 249.36483764648438 -1.0654754638671875 250.15211486816406 C 0.019093401730060577 259.0 -0.7567134499549866 266.0 -3.6534383296966553 273.6838073730469 C 15.952317237854004 274.25201416015625 31.2711238861084 275.1328430175781 44.62162780761719 272.3672180175781 C 46.96869659423828 266.5191955566406 46.01153564453125 258.43701171875 45.82516098022461 248.0849151611328" stroke-width="0.0" fill="rgb(123, 139, 146)" opacity="0.9959592" stroke="rgb(0, 0, 0)" stroke-opacity="1.0" stroke-linecap="round" stroke-linejoin="round"/>
    <path d="M 339.6656494140625 227.14122009277344 C 334.1997375488281 228.2681121826172 332.52459716796875 234.62574768066406 329.2043762207031 240.3892059326172 C 327.9939270019531 254.52000427246094 330.5317687988281 269.1864013671875 334.4776611328125 285.3181457519531 C 340.6075134277344 281.6823425292969 344.58526611328125 276.513427734375 346.883056640625 268.3558349609375 C 346.7519836425781 251.72813415527344 346.2586975097656 236.74313354492188 339.6656494140625 227.14122009277344" stroke-width="0.0" fill="rgb(120, 54, 63)" opacity="0.9960928" stroke="rgb(0, 0, 0)" stroke-opacity="1.0" stroke-linecap="round" stroke-linejoin="round"/>
    <path d="M 495.439697265625 243.09902954101562 C 489.14044189453125 259.9383544921875 475.7367858886719 262.6299133300781 466.3461608886719 272.1046447753906 C 470.5119323730469 279.17864990234375 476.0476379394531 284.2882385253906 482.5785827636719 288.46038818359375 C 491.0482482910156 288.3890686035156 497.3893127441406 287.0761413574219 505.17901611328125 285.77178955078125 C 497.2726135253906 273.09814453125 495.72454833984375 263.3422546386719 495.439697265625 243.09902954101562" stroke-width="0.0" fill="rgb(112, 108, 114)" opacity="1.0378449" stroke="rgb(0, 0, 0)" stroke-opacity="1.0" stroke-linecap="round" stroke-linejoin="round"/>
    <path d="M 46.41300964355469 220.59585571289062 C 35.71928787231445 220.3221435546875 22.341999053955078 221.9730224609375 7.73694372177124 222.65109252929688 C 1.4606248140335083 221.43417358398438 2.0142855644226074 226.38552856445312 4.648263454437256 237.142822265625 C 15.11965560913086 239.4036102294922 28.85248565673828 237.918701171875 46.24604797363281 236.27761840820312 C 47.649078369140625 233.5146942138672 46.83012008666992 228.88685607910156 46.41300964355469 220.59585571289062" stroke-width="0.0" fill="rgb(111, 164, 178)" opacity="0.9978393" stroke="rgb(0, 0, 0)" stroke-opacity="1.0" stroke-linecap="round" stroke-linejoin="round"/>
    <path d="M 172.5603790283203 189.53810119628906 C 163.45675659179688 200.25738525390625 159.8468780517578 212.29225158691406 155.09486389160156 222.67208862304688 C 154.13623046875 235.63807678222656 155.2501220703125 244.80538940429688 163.4580078125 253.84815979003906 C 167.98507690429688 234.25738525390625 172.36083984375 215.8881378173828 172.5603790283203 189.53810119628906" stroke-width="0.0" fill="rgb(92, 56, 73)" opacity="0.99346715" stroke="rgb(0, 0, 0)" stroke-opacity="1.0" stroke-linecap="round" stroke-linejoin="round"/>
    <path d="M 48.688079833984375 238.69297790527344 C 38.54149627685547 237.89869689941406 27.97010612487793 238.37002563476562 18.38832664489746 237.98373413085938 C 10.596639633178711 243.1066131591797 2.72440767288208 245.1546173095703 -4.753150939941406 252.2017364501953 C 14.73241901397705 250.96304321289062 28.617996215820312 249.55763244628906 44.18141555786133 249.36231994628906 C 46.88869094848633 249.23587036132812 47.55158615112305 244.92898559570312 48.688079833984375 238.69297790527344" stroke-width="0.0" fill="rgb(186, 190, 190)" opacity="1.0003803" stroke="rgb(0, 0, 0)" stroke-opacity="1.0" stroke-linecap="round" stroke-linejoin="round"/>
    <path d="M 391.6343078613281 289.3077697753906 C 405.457763671875 298.5303955078125 420.8592834472656 303.0649719238281 438.20855712890625 306.4705505371094 C 442.913818359375 295.68023681640625 438.1861267089844 291.3938903808594 429.15789794921875 292.4589538574219 C 416.9237976074219 284.12786865234375 405.8139953613281 280.90716552734375 391.6343078613281 289.3077697753906" stroke-width="0.0" fill="rgb(23, 26, 31)" opacity="0.9927393" stroke="rgb(0, 0, 0)" stroke-opacity="1.0" stroke-linecap="round" stroke-linejoin="round"/>
    <path d="M 107.18537139892578 209.82589721679688 C 99.60124969482422 203.34930419921875 90.26068878173828 202.08358764648438 72.73058319091797 200.34738159179688 C 62.58079147338867 207.19752502441406 41.36283493041992 203.44346618652344 20.108766555786133 208.12124633789062 C 49.41183853149414 211.89041137695312 76.89978790283203 210.65599060058594 107.18537139892578 209.82589721679688" stroke-width="0.0" fill="rgb(134, 173, 208)" opacity="1.0022794" stroke="rgb(0, 0, 0)" stroke-opacity="1.0" stroke-linecap="round" stroke-linejoin="round"/>
    <path d="M 188.59593200683594 201.87335205078125 C 174.1040496826172 201.74085998535156 168.6924285888672 205.1546173095703 166.76568603515625 208.90243530273438 C 165.7697296142578 240.32264709472656 159.91592407226562 266.55914306640625 156.01751708984375 295.3028869628906 C 166.67469787597656 297.1380920410156 170.7109375 295.01715087890625 175.927001953125 290.1650085449219 C 172.39222717285156 254.41177368164062 181.28936767578125 229.9225311279297 188.59593200683594 201.87335205078125" stroke-width="0.0" fill="rgb(66, 59, 55)" opacity="0.95045185" stroke="rgb(0, 0, 0)" stroke-opacity="1.0" stroke-linecap="round" stroke-linejoin="round"/>
    <path d="M 294.1903076171875 441.2587585449219 C 343.71185302734375 443.99786376953125 392.90521240234375 447.0020751953125 446.53326416015625 446.2212829589844 C 446.61541748046875 439.30615234375 445.9123840332031 433.3058776855469 445.8003234863281 432.1544494628906 C 421.02740478515625 430.4005126953125 401.9935607910156 426.0663146972656 392.8377380371094 426.79681396484375 C 374.4651184082031 424.42047119140625 355.3084716796875 422.077392578125 336.79229736328125 420.0674743652344 C 322.8343505859375 423.7225646972656 315.34503173828125 428.4173278808594 303.26806640625 425.4941711425781 C 301.1123962402344 433.45355224609375 295.0738830566406 436.9367370605469 294.1903076171875 441.2587585449219" stroke-width="0.0" fill="rgb(53, 55, 54)" opacity="0.9335109" stroke="rgb(0, 0, 0)" stroke-opacity="1.0" stroke-linecap="round" stroke-linejoin="round"/>
    <path d="M 187.05172729492188 171.4701690673828 C 186.1160430908203 179.68190002441406 194.86846923828125 181.3997344970703 195.4129180908203 190.9958953857422 C 189.8489990234375 209.11453247070312 181.4466094970703 226.35076904296875 176.331787109375 247.59625244140625 C 184.4007110595703 249.03334045410156 195.4133758544922 249.53240966796875 209.49488830566406 251.11268615722656 C 207.60337829589844 224.34246826171875 202.88046264648438 207.7104034423828 212.4554901123047 188.9213409423828 C 204.49729919433594 181.6822509765625 196.4043426513672 177.2910614013672 187.05172729492188 171.4701690673828" stroke-width="0.0" fill="rgb(93, 49, 24)" opacity="0.9793681" stroke="rgb(0, 0, 0)" stroke-opacity="1.0" stroke-linecap="round" stroke-linejoin="round"/>
    <path d="M 457.53009033203125 134.34805297851562 C 439.3781433105469 137.10379028320312 421.0640869140625 138.56466674804688 404.3900451660156 140.78225708007812 C 401.1375732421875 144.60081481933594 398.28936767578125 148.2544708251953 398.5245056152344 155.0106964111328 C 415.1668395996094 158.3621063232422 430.76458740234375 158.92759704589844 453.5434875488281 152.29962158203125 C 455.9524230957031 150.46234130859375 457.5035400390625 143.92266845703125 457.53009033203125 134.34805297851562" stroke-width="0.0" fill="rgb(115, 88, 51)" opacity="0.9913913" stroke="rgb(0, 0, 0)" stroke-opacity="1.0" stroke-linecap="round" stroke-linejoin="round"/>
    <path d="M 469.53875732421875 171.79908752441406 C 468.2257385253906 166.06251525878906 467.07177734375 162.8343048095703 466.1490478515625 159.71533203125 C 460.0137939453125 157.3083953857422 450.3858947753906 157.970703125 439.54327392578125 154.44056701660156 C 425.437744140625 151.56729125976562 411.10955810546875 152.1675262451172 399.5748291015625 162.8153533935547 C 421.8352355957031 168.4591827392578 445.1025390625 169.48794555664062 469.53875732421875 171.79908752441406" stroke-width="0.0" fill="rgb(117, 67, 31)" opacity="0.97570026" stroke="rgb(0, 0, 0)" stroke-opacity="1.0" stroke-linecap="round" stroke-linejoin="round"/>
    <path d="M 402.4951477050781 287.71868896484375 C 401.1802062988281 303.8141784667969 395.18133544921875 315.092041015625 397.5094909667969 325.48345947265625 C 406.7278747558594 335.304443359375 414.19708251953125 342.69781494140625 428.1933898925781 343.3616943359375 C 440.6273193359375 347.1136779785156 450.743896484375 350.0987243652344 466.1129455566406 347.866455078125 C 469.5542297363281 327.8778076171875 475.084716796875 311.5703430175781 478.8586730957031 291.7507019042969 C 460.9984436035156 285.87451171875 443.1674499511719 283.02117919921875 422.4572448730469 282.3376159667969 C 417.3280029296875 285.6367492675781 409.1698303222656 287.5518493652344 402.4951477050781 287.71868896484375" stroke-width="0.0" fill="rgb(37, 61, 62)" opacity="0.936465" stroke="rgb(0, 0, 0)" stroke-opacity="1.0" stroke-linecap="round" stroke-linejoin="round"/>
    <path d="M 474.341552734375 325.7799072265625 C 471.48358154296875 346.9675598144531 470.37384033203125 367.91693115234375 463.9347839355469 382.22967529296875 C 465.7191162109375 387.4281921386719 466.7769470214844 391.56005859375 470.5909423828125 396.92181396484375 C 473.73834228515625 397.9766540527344 480.7037048339844 397.2327880859375 488.04278564453125 395.5470275878906 C 493.826416015625 379.38720703125 505.4556884765625 367.9698486328125 508.9941711425781 352.9588317871094 C 506.9371337890625 340.0260925292969 505.53509521484375 334.113037109375 499.7810363769531 331.8374328613281 C 490.4628601074219 330.73309326171875 484.3019104003906 326.27886962890625 474.341552734375 325.7799072265625" stroke-width="0.0" fill="rgb(49, 41, 41)" opacity="0.9825379" stroke="rgb(0, 0, 0)" stroke-opacity="1.0" stroke-linecap="round" stroke-linejoin="round"/>
    <path d="M 182.94009399414062 200.82476806640625 C 178.8438262939453 202.4816436767578 173.45162963867188 202.06622314453125 170.94915771484375 207.65524291992188 C 165.43402099609375 231.91053771972656 165.99757385253906 258.035400390625 157.03897094726562 279.9617919921875 C 163.69223022460938 281.5269775390625 160.06069946289062 277.3101501464844 161.31578063964844 275.7869873046875 C 163.3769073486328 272.82861328125 165.36099243164062 272.4789733886719 170.3306884765625 276.3275451660156 C 171.78651428222656 249.0633544921875 177.63021850585938 227.68707275390625 188.23953247070312 209.1552276611328 C 185.88232421875 205.02659606933594 186.8906707763672 201.599853515625 182.94009399414062 200.82476806640625" stroke-width="0.0" fill="rgb(30, 25, 26)" opacity="0.9992539" stroke="rgb(0, 0, 0)" stroke-opacity="1.0" stroke-linecap="round" stroke-linejoin="round"/>
    <path d="M 513.0970458984375 276.65997314453125 C 503.4774169921875 286.5571594238281 493.29864501953125 294.0609130859375 478.05950927734375 298.33154296875 C 477.7517395019531 305.1544494628906 478.5267028808594 315.3111267089844 478.0815734863281 326.00286865234375 C 483.0884704589844 325.9127502441406 486.4351501464844 327.3399658203125 489.7648010253906 330.36749267578125 C 493.4275207519531 324.98876953125 494.59564208984375 322.13824462890625 492.1861572265625 315.0600891113281 C 500.2689514160156 310.9735107421875 505.9622802734375 304.39288330078125 512.6611328125 296.76495361328125 C 515.2863159179688 289.8111267089844 515.3514404296875 283.0828552246094 513.0970458984375 276.65997314453125" stroke-width="0.0" fill="rgb(47, 33, 36)" opacity="0.9991589" stroke="rgb(0, 0, 0)" stroke-opacity="1.0" stroke-linecap="round" stroke-linejoin="round"/>
    <path d="M 337.76611328125 422.2740173339844 C 344.06231689453125 427.3345947265625 353.11419677734375 428.8407897949219 361.110107421875 429.4721984863281 C 376.5975341796875 431.84783935546875 391.31866455078125 433.5759582519531 405.3349609375 431.1337585449219 C 398.69769287109375 424.3351745605469 389.2129821777344 427.2945251464844 389.1496276855469 419.92095947265625 C 369.792724609375 419.8681640625 352.1533508300781 418.32196044921875 337.76611328125 422.2740173339844" stroke-width="0.0" fill="rgb(177, 159, 123)" opacity="0.96947575" stroke="rgb(0, 0, 0)" stroke-opacity="1.0" stroke-linecap="round" stroke-linejoin="round"/>
    <path d="M 499.845703125 250.12603759765625 C 491.7905578613281 246.20330810546875 490.2206726074219 244.09817504882812 489.518310546875 246.1304473876953 C 489.13519287109375 263.22650146484375 481.9157409667969 274.286865234375 483.89276123046875 291.868408203125 C 490.39239501953125 289.22430419921875 492.5899353027344 284.1292419433594 495.0722351074219 277.2950744628906 C 500.9338073730469 282.64697265625 494.3197326660156 288.9493103027344 504.6252136230469 282.63519287109375 C 494.517822265625 270.8703308105469 496.97265625 260.6904296875 499.845703125 250.12603759765625" stroke-width="0.0" fill="rgb(84, 76, 78)" opacity="0.99101996" stroke="rgb(0, 0, 0)" stroke-opacity="1.0" stroke-linecap="round" stroke-linejoin="round"/>
    <path d="M 396.81951904296875 315.0846252441406 C 395.3446960449219 318.0290832519531 397.9034118652344 321.7125244140625 398.0074462890625 326.6811218261719 C 404.5657653808594 331.06378173828125 410.1844787597656 337.16058349609375 418.0987243652344 341.4296569824219 C 428.9812927246094 345.2341613769531 441.4100646972656 348.0220642089844 456.8780517578125 349.8014831542969 C 462.08770751953125 349.0055236816406 465.8213806152344 346.93798828125 466.382080078125 342.4683532714844 C 468.98004150390625 332.8565368652344 470.94598388671875 324.49273681640625 471.0065612792969 316.8401184082031 C 447.648193359375 313.4951477050781 433.9713134765625 303.1723937988281 410.1842041015625 300.4920959472656 C 405.01385498046875 301.5050048828125 401.85699462890625 309.2271423339844 396.81951904296875 315.0846252441406" stroke-width="0.0" fill="rgb(38, 64, 96)" opacity="0.99858975" stroke="rgb(0, 0, 0)" stroke-opacity="1.0" stroke-linecap="round" stroke-linejoin="round"/>
  </g>
</svg>
