<?xml version="1.0" ?>
<svg xmlns="http://www.w3.org/2000/svg" version="1.1" width="512" height="512">
  <defs/>
  <g>
    <path d="M -2.4694268703460693 -2.7025585174560547 C -1.6117831468582153 170.3333282470703 -0.5321083068847656 340.6666564941406 -0.4829469919204712 516.7178344726562 C 169.36630249023438 517.308349609375 339.0063781738281 518.2391967773438 517.4228515625 518.4764404296875 C 517.6694946289062 341.2344970703125 517.7579956054688 170.64898681640625 517.8294067382812 -3.0692319869995117 C 340.6666564941406 -3.0190131664276123 170.3333282470703 -2.8677163124084473 -2.4694268703460693 -2.7025585174560547" stroke-width="0.0" fill="rgb(158, 209, 211)" opacity="0.81020355" stroke="rgb(0, 0, 0)" stroke-opacity="1.0" stroke-linecap="round" stroke-linejoin="round"/>
    <path d="M -5.460479259490967 328.18328857421875 C -5.962866306304932 386.0660705566406 -5.61857795715332 448.802490234375 -3.9869225025177 517.8960571289062 C 170.33229064941406 517.9254150390625 340.6725769042969 517.9659423828125 517.3734741210938 517.9066162109375 C 517.431884765625 484.2376403808594 517.4966430664062 456.96600341796875 518.5870361328125 429.10638427734375 C 476.47283935546875 438.08831787109375 449.18505859375 427.12872314453125 445.6050720214844 439.73052978515625 C 413.87969970703125 439.8153076171875 385.4752502441406 439.32781982421875 359.1969299316406 439.2915344238281 C 363.6551818847656 438.101806640625 362.25604248046875 436.4810791015625 359.1932067871094 436.58123779296875 C 357.65130615234375 436.5587463378906 350.81402587890625 436.242919921875 347.0054626464844 435.3697204589844 C 341.5773010253906 436.2135925292969 339.1981506347656 434.036376953125 337.4087829589844 439.2899169921875 C 344.4396057128906 438.7225341796875 351.4894104003906 439.7237548828125 356.8774108886719 438.3031005859375 C 353.3434753417969 441.4700622558594 343.6618957519531 440.83355712890625 333.81085205078125 440.1659240722656 C 336.265380859375 437.9772644042969 339.0379638671875 439.72930908203125 339.3429870605469 434.9378967285156 C 325.734375 436.1593017578125 308.84698486328125 437.79864501953125 301.1485290527344 435.1984558105469 C 300.92108154296875 424.7705383300781 315.0915832519531 422.7452697753906 321.36151123046875 417.762939453125 C 327.0724792480469 400.9422302246094 343.47296142578125 395.3877258300781 344.814208984375 383.5460205078125 C 345.9481201171875 364.1600036621094 344.4375915527344 350.2184753417969 341.6430358886719 338.5396423339844 C 337.128662109375 333.3175964355469 327.76788330078125 334.4541320800781 324.891357421875 327.0125427246094 C 324.08929443359375 315.0186767578125 323.6346740722656 310.84027099609375 313.2280578613281 306.21441650390625 C 288.64208984375 302.62213134765625 251.3702392578125 304.113525390625 219.35580444335938 299.9639892578125 C 218.0189208984375 317.7531433105469 213.34385681152344 332.6418762207031 211.4432830810547 353.63531494140625 C 212.20376586914062 354.0915832519531 204.35084533691406 357.32318115234375 199.73345947265625 357.63958740234375 C 195.50099182128906 354.9652404785156 195.65586853027344 360.8880615234375 191.5875244140625 355.7923583984375 C 191.89781188964844 341.6022644042969 196.12461853027344 329.51849365234375 194.62698364257812 313.1997985839844 C 179.70115661621094 318.74371337890625 169.9887237548828 326.6187438964844 156.465576171875 332.88525390625 C 154.12948608398438 337.76556396484375 152.4738311767578 345.35040283203125 153.72610473632812 356.646484375 C 151.08937072753906 356.76556396484375 148.7107696533203 355.28741455078125 146.17527770996094 356.168212890625 C 142.1357421875 342.92120361328125 137.85409545898438 331.5882263183594 140.78564453125 320.21441650390625 C 155.23104858398438 311.4849548339844 172.08984375 304.9330749511719 181.794189453125 293.2560119628906 C 183.25367736816406 283.02252197265625 175.81187438964844 285.91119384765625 159.635986328125 287.6884460449219 C 157.23289489746094 285.23193359375 153.6730194091797 282.2873840332031 154.13267517089844 280.026611328125 C 118.75672149658203 282.0660705566406 78.96263885498047 280.3915100097656 56.256591796875 285.582275390625 C 43.227561950683594 292.1529235839844 34.1471061706543 298.6338806152344 23.3603458404541 303.1675109863281 C 14.711016654968262 311.9142761230469 14.353882789611816 328.124755859375 -5.460479259490967 328.18328857421875" stroke-width="0.0" fill="rgb(194, 173, 133)" opacity="1.0242436" stroke="rgb(0, 0, 0)" stroke-opacity="1.0" stroke-linecap="round" stroke-linejoin="round"/>
    <path d="M 255.29788208007812 275.1701354980469 C 254.0908203125 282.1051025390625 248.23947143554688 290.14300537109375 256.8206787109375 293.38555908203125 C 268.9850769042969 301.62030029296875 289.7817687988281 296.658447265625 316.1053161621094 299.6696472167969 C 326.9808044433594 303.59527587890625 327.69073486328125 314.1022644042969 329.3213806152344 325.8141784667969 C 334.6534729003906 334.2626037597656 345.83160400390625 331.2817077636719 344.4833984375 337.76861572265625 C 347.3908996582031 355.91357421875 349.219970703125 374.79193115234375 346.1097106933594 390.37884521484375 C 339.2562255859375 398.4712829589844 332.2305908203125 404.8277587890625 328.5865783691406 414.6763000488281 C 321.6524658203125 422.4493408203125 313.6888122558594 425.22760009765625 306.2022399902344 428.4278869628906 C 305.48370361328125 431.7234802246094 305.84033203125 433.4137268066406 311.34747314453125 438.2232360839844 C 345.1703796386719 432.0885925292969 374.8456115722656 441.32586669921875 421.0041809082031 439.7600402832031 C 445.541259765625 429.4696960449219 484.3613586425781 426.89154052734375 512.9136352539062 412.1689147949219 C 504.8573303222656 409.86322021484375 497.6414794921875 413.6098327636719 499.7603759765625 410.5345764160156 C 498.8962707519531 401.1056213378906 495.53570556640625 395.99334716796875 492.8629455566406 390.79437255859375 C 497.4905090332031 381.2639465332031 500.8878173828125 366.8944091796875 509.607177734375 350.4161682128906 C 508.5353698730469 341.4996032714844 504.18310546875 333.033935546875 500.71734619140625 324.4327087402344 C 503.1554870605469 313.934326171875 511.33343505859375 309.8149108886719 510.2711181640625 304.8371276855469 C 511.7419128417969 289.62738037109375 509.06689453125 282.8815002441406 505.10125732421875 273.3136291503906 C 504.513427734375 268.0446472167969 495.8856201171875 265.1783752441406 486.31854248046875 258.3136291503906 C 480.0335998535156 249.03707885742188 460.9350891113281 249.13966369628906 444.3592224121094 251.94174194335938 C 426.3509521484375 253.9814453125 419.10821533203125 258.9429626464844 410.10186767578125 266.2547912597656 C 403.0205993652344 267.28125 401.31427001953125 265.09197998046875 402.2867126464844 262.67724609375 C 403.393798828125 261.56390380859375 404.52593994140625 263.5030212402344 398.68328857421875 265.1961669921875 C 394.0445861816406 264.37335205078125 395.09930419921875 261.557861328125 395.9820251464844 265.8066711425781 C 389.4124755859375 266.0101318359375 380.372314453125 268.06842041015625 369.6244812011719 265.1741027832031 C 359.40423583984375 247.6705780029297 353.2718811035156 236.0206756591797 340.2867431640625 234.6825714111328 C 327.9267578125 236.3138427734375 327.40728759765625 249.2613983154297 316.5924072265625 251.6224365234375 C 301.7861633300781 255.12864685058594 284.07745361328125 252.92002868652344 271.6451110839844 256.79730224609375 C 264.2341003417969 261.16937255859375 259.2757263183594 266.91265869140625 255.29788208007812 275.1701354980469" stroke-width="0.0" fill="rgb(85, 79, 74)" opacity="0.95823354" stroke="rgb(0, 0, 0)" stroke-opacity="1.0" stroke-linecap="round" stroke-linejoin="round"/>
    <path d="M -5.294764995574951 186.04510498046875 C -5.6129326820373535 231.17190551757812 -5.801629543304443 278.54443359375 -5.4973907470703125 326.1418151855469 C 13.403902053833008 322.537353515625 14.253564834594727 309.85040283203125 21.40290069580078 302.6825866699219 C 33.13658905029297 295.214599609375 42.73691940307617 287.5750427246094 56.05148696899414 282.9153747558594 C 84.62394714355469 273.73065185546875 125.91000366210938 280.0568542480469 153.48272705078125 272.960205078125 C 158.04440307617188 254.9037322998047 157.40052795410156 240.30519104003906 154.20941162109375 223.84368896484375 C 144.1754150390625 225.04954528808594 131.67054748535156 225.4838104248047 114.33682250976562 224.37107849121094 C 104.45072937011719 219.6300506591797 94.30272674560547 214.9468231201172 80.75992584228516 215.56126403808594 C 81.00596618652344 205.85337829589844 73.48382568359375 206.1154327392578 76.14277648925781 197.48236083984375 C 70.18488311767578 192.28358459472656 63.40969467163086 190.34751892089844 57.5341911315918 189.7740936279297 C 38.600685119628906 188.1307373046875 18.403718948364258 185.072998046875 -5.294764995574951 186.04510498046875" stroke-width="0.0" fill="rgb(113, 118, 122)" opacity="1.0022776" stroke="rgb(0, 0, 0)" stroke-opacity="1.0" stroke-linecap="round" stroke-linejoin="round"/>
    <path d="M 199.594482421875 145.86180114746094 C 195.44760131835938 146.95651245117188 192.46205139160156 147.84210205078125 191.4619140625 150.92691040039062 C 188.32835388183594 154.39772033691406 189.04251098632812 159.483642578125 188.75201416015625 170.45986938476562 C 182.84194946289062 176.91287231445312 174.7407684326172 181.80224609375 170.36117553710938 190.24757385253906 C 165.53396606445312 200.261962890625 160.30970764160156 210.63381958007812 156.87704467773438 221.5614471435547 C 157.03012084960938 232.70530700683594 156.98338317871094 246.24684143066406 161.79212951660156 253.4598388671875 C 162.39080810546875 265.90728759765625 175.3400421142578 259.2408752441406 177.91380310058594 269.6717224121094 C 182.43043518066406 277.7408447265625 187.02012634277344 282.9405517578125 185.42068481445312 296.34844970703125 C 173.57492065429688 304.1303405761719 157.81358337402344 312.1404724121094 142.96205139160156 320.76641845703125 C 141.83554077148438 324.2890319824219 140.5981903076172 325.1058349609375 140.58375549316406 328.24652099609375 C 141.5619354248047 335.16900634765625 144.41073608398438 338.65386962890625 148.27870178222656 342.8814697265625 C 155.7730255126953 328.5140686035156 178.65518188476562 320.0949401855469 195.1643524169922 308.9609069824219 C 198.1868438720703 320.7306213378906 194.4145050048828 334.0272521972656 193.50962829589844 351.50469970703125 C 197.54864501953125 356.6998291015625 200.25025939941406 355.8916015625 208.1322479248047 353.6474609375 C 211.04574584960938 342.6575012207031 214.87750244140625 328.7315368652344 216.43959045410156 305.005126953125 C 215.74310302734375 286.3980712890625 209.28289794921875 267.1342468261719 209.09107971191406 242.39891052246094 C 217.34933471679688 233.49159240722656 225.29258728027344 224.4192352294922 227.841064453125 208.8500213623047 C 215.58724975585938 199.46412658691406 210.79452514648438 189.46707153320312 204.1133575439453 178.38983154296875 C 204.001220703125 169.26748657226562 209.26954650878906 162.98370361328125 209.4682159423828 155.887451171875 C 207.87603759765625 148.1334991455078 204.19862365722656 147.0845947265625 199.594482421875 145.86180114746094" stroke-width="0.0" fill="rgb(71, 61, 61)" opacity="0.89244425" stroke="rgb(0, 0, 0)" stroke-opacity="1.0" stroke-linecap="round" stroke-linejoin="round"/>
    <path d="M 516.4969482421875 190.08558654785156 C 519.5913696289062 171.7628631591797 517.9777221679688 152.35031127929688 518.1586303710938 132.25753784179688 C 486.17486572265625 134.408447265625 459.4078369140625 133.80030822753906 436.0990905761719 137.86781311035156 C 421.5461120605469 139.39337158203125 408.1875 141.2890167236328 403.0745849609375 147.93731689453125 C 398.0478820800781 155.6640625 404.3131103515625 158.4394989013672 409.70849609375 168.9880828857422 C 429.8173828125 171.3964385986328 459.06201171875 171.70948791503906 493.35552978515625 170.34481811523438 C 502.5677795410156 168.279052734375 502.7224426269531 180.56777954101562 516.4969482421875 190.08558654785156" stroke-width="0.0" fill="rgb(79, 83, 85)" opacity="0.9477979" stroke="rgb(0, 0, 0)" stroke-opacity="1.0" stroke-linecap="round" stroke-linejoin="round"/>
    <path d="M 453.38421630859375 202.2178497314453 C 447.59295654296875 186.7953643798828 438.09765625 191.1461181640625 426.8553466796875 190.55264282226562 C 379.0865173339844 189.94509887695312 332.9633483886719 189.6300811767578 294.0697021484375 194.6217498779297 C 286.12939453125 198.87648010253906 283.55743408203125 204.95887756347656 282.3563232421875 209.5913848876953 C 273.8812255859375 212.02781677246094 267.11407470703125 211.12945556640625 262.75048828125 213.34022521972656 C 291.9049987792969 219.7791748046875 319.64239501953125 219.1168975830078 350.7025451660156 215.69248962402344 C 383.4309387207031 206.44271850585938 419.6586608886719 204.2237091064453 453.38421630859375 202.2178497314453" stroke-width="0.0" fill="rgb(86, 59, 50)" opacity="1.1210077" stroke="rgb(0, 0, 0)" stroke-opacity="1.0" stroke-linecap="round" stroke-linejoin="round"/>
    <path d="M 517.2572631835938 114.9957275390625 C 486.9906921386719 116.26579284667969 464.85308837890625 119.71410369873047 444.60333251953125 124.87056732177734 C 435.93389892578125 128.4405517578125 424.5856018066406 131.63038635253906 417.8323669433594 139.25387573242188 C 450.98736572265625 134.9201202392578 482.7414245605469 132.82095336914062 517.8622436523438 132.2494354248047 C 517.7728271484375 122.29169464111328 518.8225708007812 115.79286193847656 517.2572631835938 114.9957275390625" stroke-width="0.0" fill="rgb(138, 180, 219)" opacity="1.0090009" stroke="rgb(0, 0, 0)" stroke-opacity="1.0" stroke-linecap="round" stroke-linejoin="round"/>
    <path d="M 517.2199096679688 308.7543640136719 C 505.9310607910156 313.3954772949219 501.66302490234375 319.2262268066406 501.3418884277344 328.5269775390625 C 504.5117492675781 331.8047790527344 507.9877014160156 340.92767333984375 508.8534851074219 351.36798095703125 C 506.3381652832031 364.35760498046875 499.9583435058594 372.583251953125 493.23712158203125 383.2540588378906 C 491.3164367675781 387.98236083984375 494.0699157714844 392.2029724121094 496.7617492675781 393.1295471191406 C 500.7676696777344 394.45166015625 507.3221130371094 394.873291015625 516.90478515625 393.7099914550781 C 517.44921875 365.3259582519531 518.6632690429688 336.9142150878906 517.2199096679688 308.7543640136719" stroke-width="0.0" fill="rgb(194, 170, 128)" opacity="0.98232627" stroke="rgb(0, 0, 0)" stroke-opacity="1.0" stroke-linecap="round" stroke-linejoin="round"/>
    <path d="M 375.2571105957031 211.879150390625 C 370.5505065917969 217.17739868164062 367.0628967285156 221.63243103027344 376.5699157714844 221.3212890625 C 412.38525390625 227.2333526611328 457.5611572265625 220.3329620361328 517.3487548828125 222.26295471191406 C 519.2733154296875 214.49937438964844 519.4995727539062 202.47096252441406 516.0850830078125 190.4586181640625 C 502.89495849609375 183.6366424560547 501.4931640625 175.13790893554688 501.6302490234375 168.11679077148438 C 474.957763671875 161.03378295898438 463.8232116699219 169.69976806640625 454.8130187988281 168.4327392578125 C 434.2413330078125 167.95567321777344 416.8448181152344 166.0068817138672 398.39727783203125 163.60678100585938 C 398.71478271484375 164.4905548095703 400.09423828125 169.211669921875 400.4244079589844 174.869140625 C 398.44000244140625 176.87318420410156 390.10247802734375 173.30044555664062 388.45330810546875 177.78622436523438 C 404.9900817871094 178.5523681640625 418.95550537109375 181.33236694335938 430.82867431640625 183.42327880859375 C 428.2602844238281 182.72544860839844 428.8234558105469 187.9454345703125 433.2807922363281 186.1123809814453 C 438.02618408203125 187.46826171875 439.55438232421875 190.05662536621094 441.0184020996094 189.09539794921875 C 451.6899719238281 191.82211303710938 454.3844909667969 195.65289306640625 451.2478942871094 202.1178741455078 C 428.04498291015625 206.17047119140625 394.5483703613281 204.67733764648438 375.2571105957031 211.879150390625" stroke-width="0.0" fill="rgb(203, 227, 234)" opacity="0.9859148" stroke="rgb(0, 0, 0)" stroke-opacity="1.0" stroke-linecap="round" stroke-linejoin="round"/>
    <path d="M 254.5684356689453 223.9593048095703 C 245.34886169433594 220.60340881347656 234.67430114746094 223.158203125 230.97853088378906 220.20933532714844 C 222.57821655273438 225.1285400390625 214.07302856445312 224.95462036132812 210.74951171875 237.36196899414062 C 207.7218780517578 258.1054382324219 214.61495971679688 275.4579772949219 219.1172637939453 298.2262878417969 C 225.58689880371094 295.8395690917969 233.32386779785156 294.6476135253906 239.5699462890625 293.7227783203125 C 244.18069458007812 288.6452331542969 248.4984130859375 284.6424255371094 250.78945922851562 278.68438720703125 C 252.1870880126953 260.62518310546875 253.86900329589844 241.95635986328125 254.5684356689453 223.9593048095703" stroke-width="0.0" fill="rgb(130, 163, 169)" opacity="0.9721106" stroke="rgb(0, 0, 0)" stroke-opacity="1.0" stroke-linecap="round" stroke-linejoin="round"/>
    <path d="M 355.1415710449219 226.83131408691406 C 352.9661560058594 230.8689422607422 354.5628356933594 233.18885803222656 353.736083984375 240.68360900878906 C 388.9150390625 239.24424743652344 421.46624755859375 244.1325225830078 454.0693664550781 251.40200805664062 C 470.91888427734375 255.53359985351562 483.4664001464844 259.20062255859375 491.1026916503906 246.76959228515625 C 495.56939697265625 239.76333618164062 483.6700134277344 242.37315368652344 478.37481689453125 236.6331787109375 C 445.8794250488281 229.1535186767578 411.03729248046875 227.52133178710938 374.46197509765625 222.50033569335938 C 367.8995056152344 223.16452026367188 359.72802734375 226.1486053466797 355.1415710449219 226.83131408691406" stroke-width="0.0" fill="rgb(211, 215, 215)" opacity="1.0045736" stroke="rgb(0, 0, 0)" stroke-opacity="1.0" stroke-linecap="round" stroke-linejoin="round"/>
    <path d="M 293.6851806640625 195.1944122314453 C 342.1585693359375 189.9091796875 393.3358459472656 188.96218872070312 444.9667663574219 191.07923889160156 C 434.7216796875 183.52835083007812 426.2903747558594 182.21534729003906 414.1259765625 180.63116455078125 C 384.0954895019531 176.937255859375 350.5177001953125 178.47853088378906 319.33984375 183.21209716796875 C 310.83306884765625 185.3411865234375 300.15966796875 187.76821899414062 293.6851806640625 195.1944122314453" stroke-width="0.0" fill="rgb(120, 167, 214)" opacity="0.9753199" stroke="rgb(0, 0, 0)" stroke-opacity="1.0" stroke-linecap="round" stroke-linejoin="round"/>
    <path d="M -3.3231136798858643 150.5529022216797 C -0.7852073311805725 162.0 -0.06861051917076111 173.0 -2.7100701332092285 184.82131958007812 C 23.345651626586914 184.54275512695312 47.154605865478516 187.01641845703125 70.12077331542969 189.49501037597656 C 55.535701751708984 177.81910705566406 37.13593292236328 175.25013732910156 15.816632270812988 175.41107177734375 C 14.4493989944458 166.90536499023438 14.135714530944824 159.46961975097656 11.666419982910156 154.38462829589844 C 8.822404861450195 151.5361785888672 6.2079081535339355 149.79501342773438 -3.3231136798858643 150.5529022216797" stroke-width="0.0" fill="rgb(193, 198, 159)" opacity="0.9946362" stroke="rgb(0, 0, 0)" stroke-opacity="1.0" stroke-linecap="round" stroke-linejoin="round"/>
    <path d="M 352.1891784667969 237.36524963378906 C 355.2491149902344 249.25160217285156 363.9368591308594 255.464111328125 371.3835144042969 265.8016052246094 C 383.2967529296875 266.7921447753906 396.978515625 266.8137512207031 410.6327209472656 266.7907409667969 C 416.94708251953125 259.0133972167969 427.271728515625 257.6832580566406 438.0718078613281 251.9260711669922 C 456.03350830078125 254.33985900878906 474.9956359863281 262.2516174316406 491.0086364746094 253.89198303222656 C 444.7541809082031 247.17823791503906 398.984619140625 242.4044647216797 352.1891784667969 237.36524963378906" stroke-width="0.0" fill="rgb(140, 146, 150)" opacity="0.9802263" stroke="rgb(0, 0, 0)" stroke-opacity="1.0" stroke-linecap="round" stroke-linejoin="round"/>
    <path d="M 317.5795593261719 231.87005615234375 C 301.9773864746094 225.88677978515625 285.17169189453125 224.5611114501953 260.69464111328125 230.64039611816406 C 256.73541259765625 232.5817413330078 251.91748046875 237.68150329589844 252.53854370117188 248.25686645507812 C 271.9322204589844 248.283203125 291.1521911621094 247.07186889648438 309.5546875 250.37879943847656 C 315.5782470703125 245.85365295410156 319.083984375 241.84100341796875 317.5795593261719 231.87005615234375" stroke-width="0.0" fill="rgb(156, 162, 164)" opacity="0.99435997" stroke="rgb(0, 0, 0)" stroke-opacity="1.0" stroke-linecap="round" stroke-linejoin="round"/>
    <path d="M 463.0279846191406 224.54576110839844 C 476.55059814453125 234.148193359375 489.26483154296875 239.8987274169922 498.11065673828125 252.369873046875 C 492.75421142578125 264.66973876953125 498.3412780761719 273.0291748046875 508.7279052734375 282.1796569824219 C 508.3297424316406 266.2431945800781 509.7710266113281 247.017578125 512.051513671875 223.8266143798828 C 498.0650939941406 223.3675994873047 478.7413330078125 223.29209899902344 463.0279846191406 224.54576110839844" stroke-width="0.0" fill="rgb(137, 162, 173)" opacity="1.0518703" stroke="rgb(0, 0, 0)" stroke-opacity="1.0" stroke-linecap="round" stroke-linejoin="round"/>
    <path d="M 365.08203125 220.33529663085938 C 346.6234436035156 217.56875610351562 331.4486389160156 221.8897705078125 317.43951416015625 220.2543182373047 C 314.9731140136719 223.6912384033203 308.55780029296875 222.06362915039062 307.554931640625 225.4698486328125 C 320.5412292480469 228.6361541748047 316.9175109863281 240.41403198242188 321.6567077636719 253.07025146484375 C 325.23541259765625 238.2719268798828 332.4200134277344 233.61917114257812 337.64239501953125 225.67660522460938 C 342.10662841796875 228.33554077148438 348.9952697753906 224.9334716796875 355.5694580078125 229.55714416503906 C 357.18841552734375 225.7379150390625 357.5448303222656 221.9732666015625 365.08203125 220.33529663085938" stroke-width="0.0" fill="rgb(137, 180, 194)" opacity="0.98643214" stroke="rgb(0, 0, 0)" stroke-opacity="1.0" stroke-linecap="round" stroke-linejoin="round"/>
    <path d="M 431.5002136230469 255.8919219970703 C 411.0281982421875 263.46441650390625 411.69189453125 287.0204162597656 390.39581298828125 294.2353820800781 C 392.7720947265625 310.2583923339844 399.40380859375 320.014404296875 398.3776550292969 335.75384521484375 C 404.6789245605469 342.3757019042969 405.43817138671875 350.7176513671875 415.6438903808594 352.02825927734375 C 423.6302490234375 357.17724609375 435.246826171875 357.55352783203125 443.0736389160156 362.5415344238281 C 448.953369140625 366.4405212402344 447.61956787109375 374.97454833984375 449.392822265625 383.5237731933594 C 468.52947998046875 384.99334716796875 475.8031005859375 387.55670166015625 488.8199462890625 394.62689208984375 C 489.4436950683594 373.40081787109375 503.0132751464844 368.1044616699219 505.8258361816406 349.76300048828125 C 505.80706787109375 340.1554260253906 499.77398681640625 334.20465087890625 499.31585693359375 328.64129638671875 C 500.0461120605469 317.37908935546875 504.8068542480469 314.59912109375 508.3661193847656 309.09210205078125 C 511.2308349609375 299.353271484375 509.8473205566406 288.38385009765625 507.15234375 285.9410095214844 C 502.4454650878906 274.4762878417969 495.9416809082031 266.61151123046875 481.6383056640625 252.89114379882812 C 476.50634765625 250.61367797851562 456.4677734375 253.79685974121094 431.5002136230469 255.8919219970703" stroke-width="0.0" fill="rgb(57, 57, 59)" opacity="0.95138085" stroke="rgb(0, 0, 0)" stroke-opacity="1.0" stroke-linecap="round" stroke-linejoin="round"/>
    <path d="M 205.18568420410156 148.31661987304688 C 197.87159729003906 144.79322814941406 194.5170135498047 148.16415405273438 192.0520477294922 150.75367736816406 C 189.27162170410156 154.14892578125 191.02301025390625 161.9210205078125 189.29530334472656 170.51406860351562 C 185.29661560058594 176.19094848632812 176.19862365722656 179.3328857421875 172.17796325683594 186.9148406982422 C 167.14523315429688 197.5920867919922 161.45941162109375 207.64271545410156 158.528076171875 218.6971893310547 C 155.98280334472656 230.49295043945312 157.03256225585938 235.7202911376953 159.23802185058594 244.65101623535156 C 162.72457885742188 250.42649841308594 166.85699462890625 256.8499755859375 176.92933654785156 260.01025390625 C 175.34263610839844 257.3610534667969 177.38194274902344 253.26828002929688 180.6377716064453 250.96475219726562 C 187.57571411132812 248.9002227783203 196.59197998046875 249.7047119140625 209.15892028808594 250.85719299316406 C 207.6398162841797 234.1321563720703 215.26611328125 228.37501525878906 224.98878479003906 221.95416259765625 C 226.78536987304688 213.4960174560547 226.31832885742188 205.78701782226562 223.70901489257812 203.6674041748047 C 211.62600708007812 200.8489227294922 211.8779296875 186.80104064941406 203.4693145751953 178.72219848632812 C 201.50958251953125 165.28311157226562 205.63441467285156 166.59130859375 210.067626953125 156.3256378173828 C 208.46409606933594 152.9962615966797 206.28932189941406 149.08026123046875 205.18568420410156 148.31661987304688" stroke-width="0.0" fill="rgb(72, 69, 67)" opacity="0.9433596" stroke="rgb(0, 0, 0)" stroke-opacity="1.0" stroke-linecap="round" stroke-linejoin="round"/>
    <path d="M 208.35504150390625 249.94686889648438 C 193.3538818359375 250.32188415527344 179.7523956298828 246.8519287109375 175.82203674316406 254.03024291992188 C 173.8031768798828 270.3110656738281 187.79945373535156 275.3472595214844 185.17295837402344 295.766845703125 C 174.01490783691406 303.6395263671875 160.2596435546875 311.7529602050781 145.20108032226562 319.6959228515625 C 141.43649291992188 325.4642028808594 139.07418823242188 329.96966552734375 145.5977783203125 337.1222839355469 C 164.6660919189453 331.0216064453125 178.486328125 319.8726806640625 193.8295440673828 310.0025634765625 C 196.5836639404297 320.3269348144531 192.5982666015625 337.45965576171875 194.09837341308594 352.1143798828125 C 197.3452606201172 352.9684753417969 199.7664031982422 355.1305236816406 208.279541015625 353.381103515625 C 212.5520782470703 335.38458251953125 216.38067626953125 319.1485290527344 216.28456115722656 297.96435546875 C 213.16293334960938 279.4435119628906 209.6669158935547 264.1429138183594 208.35504150390625 249.94686889648438" stroke-width="0.0" fill="rgb(61, 59, 59)" opacity="0.93575686" stroke="rgb(0, 0, 0)" stroke-opacity="1.0" stroke-linecap="round" stroke-linejoin="round"/>
    <path d="M -3.904090404510498 183.7852325439453 C -4.50050163269043 194.12966918945312 -3.327378511428833 204.67495727539062 -2.1111388206481934 215.6375732421875 C 14.691606521606445 216.64645385742188 31.622081756591797 216.576416015625 49.141990661621094 219.15834045410156 C 54.17401123046875 217.01113891601562 49.936729431152344 227.40045166015625 58.019447326660156 227.83169555664062 C 61.22230529785156 230.0997314453125 59.125308990478516 222.7775421142578 63.444252014160156 217.50718688964844 C 72.61516571044922 216.23045349121094 85.5229721069336 216.3197479248047 98.35752868652344 214.4000701904297 C 81.52609252929688 207.5481414794922 78.59208679199219 191.85098266601562 65.71041870117188 189.79257202148438 C 42.49913787841797 187.07679748535156 22.06192398071289 184.44100952148438 -3.904090404510498 183.7852325439453" stroke-width="0.0" fill="rgb(137, 105, 72)" opacity="0.97326183" stroke="rgb(0, 0, 0)" stroke-opacity="1.0" stroke-linecap="round" stroke-linejoin="round"/>
    <path d="M 368.5450134277344 353.0771179199219 C 367.0565185546875 364.9364318847656 368.260986328125 372.522705078125 372.53363037109375 378.9573669433594 C 392.6142883300781 380.7901306152344 411.5727233886719 383.42974853515625 430.7073974609375 383.74542236328125 C 439.4723205566406 379.786865234375 443.8871154785156 379.6587829589844 443.9085693359375 373.79132080078125 C 444.6141662597656 365.55059814453125 441.9530944824219 362.7674560546875 437.3623352050781 360.752197265625 C 418.8783264160156 357.99493408203125 405.21295166015625 354.74053955078125 390.5779724121094 351.4660339355469 C 378.919189453125 351.2767333984375 370.4043273925781 352.1807556152344 368.5450134277344 353.0771179199219" stroke-width="0.0" fill="rgb(107, 94, 79)" opacity="0.9081968" stroke="rgb(0, 0, 0)" stroke-opacity="1.0" stroke-linecap="round" stroke-linejoin="round"/>
    <path d="M 180.58441162109375 358.8330383300781 C 168.3770751953125 353.1105041503906 155.09756469726562 355.9179382324219 135.5475311279297 355.7193298339844 C 124.5554428100586 358.470458984375 110.21075439453125 359.84552001953125 101.575439453125 361.64605712890625 C 97.25225830078125 367.6252746582031 94.41613006591797 366.2093505859375 99.42559814453125 372.1129455566406 C 103.7862319946289 375.6620788574219 117.08826446533203 375.81121826171875 131.93109130859375 374.669189453125 C 151.13595581054688 370.86798095703125 169.87167358398438 369.7467041015625 180.58441162109375 358.8330383300781" stroke-width="0.0" fill="rgb(63, 59, 54)" opacity="0.95782673" stroke="rgb(0, 0, 0)" stroke-opacity="1.0" stroke-linecap="round" stroke-linejoin="round"/>
    <path d="M 294.0326843261719 433.7983093261719 C 315.1265563964844 440.9451599121094 337.6429443359375 439.94598388671875 356.988525390625 444.9583740234375 C 386.0150451660156 446.84942626953125 411.3218688964844 442.0419616699219 442.4746398925781 443.2220153808594 C 445.5306091308594 440.13616943359375 448.1724853515625 435.1669616699219 449.5916442871094 432.0678405761719 C 469.9625244140625 433.02734375 491.95697021484375 432.0262145996094 516.86279296875 436.64013671875 C 517.3984985351562 422.62353515625 517.460205078125 409.4176025390625 513.7498779296875 399.6697692871094 C 467.4524841308594 385.0797119140625 420.39959716796875 380.59716796875 367.3058166503906 379.39404296875 C 339.93682861328125 390.0966491699219 332.8090515136719 422.2626953125 294.0326843261719 433.7983093261719" stroke-width="0.0" fill="rgb(34, 35, 35)" opacity="1.0005513" stroke="rgb(0, 0, 0)" stroke-opacity="1.0" stroke-linecap="round" stroke-linejoin="round"/>
    <path d="M 318.3325500488281 251.82846069335938 C 293.28509521484375 249.4008026123047 274.96405029296875 249.8639373779297 256.3768005371094 258.5955505371094 C 248.88046264648438 260.3988037109375 256.4800720214844 281.01007080078125 242.85511779785156 298.1894836425781 C 260.525634765625 305.2437438964844 283.5173645019531 303.8167419433594 313.1806335449219 301.7909851074219 C 316.3087463378906 300.06195068359375 318.0910949707031 293.8285217285156 320.648681640625 284.76934814453125 C 319.31005859375 274.89605712890625 318.4683532714844 263.1409606933594 318.3325500488281 251.82846069335938" stroke-width="0.0" fill="rgb(76, 68, 70)" opacity="0.96750444" stroke="rgb(0, 0, 0)" stroke-opacity="1.0" stroke-linecap="round" stroke-linejoin="round"/>
    <path d="M 337.3790588378906 228.42604064941406 C 330.34796142578125 234.23582458496094 324.7664794921875 240.01889038085938 322.5970764160156 250.32235717773438 C 320.1783752441406 277.5559387207031 325.7579040527344 299.5187683105469 326.4369201660156 326.10015869140625 C 327.32275390625 328.5894470214844 328.56158447265625 331.69122314453125 332.3590087890625 329.852783203125 C 339.6783752441406 329.89117431640625 344.2789306640625 331.3580627441406 345.4162902832031 325.3318176269531 C 346.04486083984375 307.20703125 346.651123046875 292.70941162109375 353.2369384765625 276.923828125 C 352.34185791015625 258.8726806640625 354.9169921875 243.7630615234375 350.636962890625 232.1894989013672 C 346.8432922363281 232.77940368652344 342.7799987792969 231.39515686035156 337.3790588378906 228.42604064941406" stroke-width="0.0" fill="rgb(98, 97, 105)" opacity="1.0187496" stroke="rgb(0, 0, 0)" stroke-opacity="1.0" stroke-linecap="round" stroke-linejoin="round"/>
    <path d="M 3.1628799438476562 265.9918212890625 C 2.967944860458374 263.80780029296875 -1.4266653060913086 258.5627136230469 -6.534801006317139 247.3405303955078 C -6.275897979736328 277.2173767089844 -7.248936176300049 303.4322204589844 -4.756739139556885 328.7994079589844 C 6.092343330383301 326.7263488769531 12.09791088104248 326.515869140625 15.832228660583496 321.83935546875 C 17.899221420288086 317.4532470703125 18.66401481628418 309.5257568359375 20.132164001464844 304.1296081542969 C 30.921037673950195 297.7877502441406 46.33475875854492 296.3329162597656 53.82876205444336 286.2691650390625 C 49.25707244873047 274.3695373535156 39.00396728515625 274.375732421875 29.64031410217285 274.7730712890625 C 21.936359405517578 270.42236328125 8.930115699768066 270.08880615234375 3.1628799438476562 265.9918212890625" stroke-width="0.0" fill="rgb(50, 48, 43)" opacity="1.1306003" stroke="rgb(0, 0, 0)" stroke-opacity="1.0" stroke-linecap="round" stroke-linejoin="round"/>
    <path d="M 195.74386596679688 310.8095397949219 C 179.7270965576172 316.2439270019531 168.51087951660156 325.1927795410156 154.02706909179688 334.68463134765625 C 151.9243621826172 336.2838134765625 150.82809448242188 346.2966003417969 152.839111328125 353.9484558105469 C 160.6974639892578 357.17730712890625 174.8384246826172 358.9775085449219 190.4503631591797 356.24993896484375 C 194.4482879638672 344.26751708984375 196.3961181640625 330.15521240234375 195.74386596679688 310.8095397949219" stroke-width="0.0" fill="rgb(188, 168, 133)" opacity="0.88984185" stroke="rgb(0, 0, 0)" stroke-opacity="1.0" stroke-linecap="round" stroke-linejoin="round"/>
    <path d="M 252.05043029785156 215.01678466796875 C 271.09637451171875 220.85723876953125 294.3397521972656 212.4440155029297 301.23492431640625 225.5253143310547 C 324.0329284667969 211.50439453125 357.4332580566406 220.90988159179688 369.9113464355469 215.03366088867188 C 341.8799743652344 205.8399200439453 311.57806396484375 205.872314453125 285.7998046875 203.18492126464844 C 268.581787109375 202.92784118652344 260.4705810546875 208.28057861328125 252.05043029785156 215.01678466796875" stroke-width="0.0" fill="rgb(124, 114, 101)" opacity="1.0706241" stroke="rgb(0, 0, 0)" stroke-opacity="1.0" stroke-linecap="round" stroke-linejoin="round"/>
    <path d="M 144.5882568359375 258.9811096191406 C 122.39480590820312 257.080322265625 104.41667175292969 258.32958984375 90.48344421386719 260.8031921386719 C 88.1829833984375 265.1035461425781 87.947265625 269.7247009277344 87.14640045166016 278.35552978515625 C 92.3130874633789 281.156982421875 100.85810852050781 283.2048034667969 118.07643127441406 281.1166076660156 C 128.93226623535156 278.471435546875 137.01388549804688 277.0960388183594 145.37060546875 276.871337890625 C 148.33856201171875 269.080810546875 152.3995819091797 267.3446350097656 144.5882568359375 258.9811096191406" stroke-width="0.0" fill="rgb(12, 26, 35)" opacity="1.0028862" stroke="rgb(0, 0, 0)" stroke-opacity="1.0" stroke-linecap="round" stroke-linejoin="round"/>
    <path d="M -2.2742819786071777 174.99700927734375 C -2.81852650642395 177.22097778320312 -1.2231714725494385 180.77700805664062 -1.12641441822052 184.84429931640625 C 22.04287338256836 185.96250915527344 45.6319580078125 186.53553771972656 71.28236389160156 190.15386962890625 C 64.12848663330078 182.07106018066406 53.832618713378906 181.19203186035156 45.62482452392578 177.55599975585938 C 31.88634490966797 176.13839721679688 15.578904151916504 174.93748474121094 -2.2742819786071777 174.99700927734375" stroke-width="0.0" fill="rgb(130, 174, 213)" opacity="0.9635672" stroke="rgb(0, 0, 0)" stroke-opacity="1.0" stroke-linecap="round" stroke-linejoin="round"/>
    <path d="M -7.253840923309326 214.77757263183594 C -7.114667892456055 239.66778564453125 -6.337613582611084 257.49969482421875 -3.7653331756591797 264.7602233886719 C 21.024009704589844 273.594970703125 35.64779281616211 276.1860656738281 45.95189666748047 270.4153137207031 C 49.2471809387207 265.81982421875 46.45476531982422 255.0662841796875 47.21548843383789 251.63229370117188 C 54.67747116088867 249.17152404785156 48.788692474365234 256.45172119140625 50.48868179321289 269.45672607421875 C 55.62472915649414 264.3822937011719 53.03021240234375 254.22784423828125 53.249725341796875 241.80300903320312 C 51.28842544555664 245.8002166748047 45.80498504638672 242.2982635498047 47.12406921386719 244.10073852539062 C 49.44356918334961 241.6669464111328 52.50653839111328 239.83570861816406 54.681251525878906 236.45997619628906 C 54.93899154663086 247.71754455566406 54.45989990234375 262.4864501953125 55.30342102050781 269.1791076660156 C 70.01051330566406 271.4482116699219 71.73307800292969 268.4283142089844 77.90776824951172 277.00335693359375 C 86.16764831542969 277.9866027832031 90.34255981445312 275.398681640625 92.79967498779297 270.6715087890625 C 116.22577667236328 268.919189453125 137.2571563720703 264.4833068847656 155.43014526367188 254.35462951660156 C 156.3955078125 248.71347045898438 152.38034057617188 235.6575927734375 154.5325927734375 223.18673706054688 C 113.0396499633789 228.1139373779297 99.81413269042969 211.83709716796875 66.33843231201172 217.40493774414062 C 54.88716506958008 215.6072998046875 59.65833282470703 223.6578826904297 59.18686294555664 228.76150512695312 C 57.24431610107422 229.16531372070312 53.268741607666016 232.02471923828125 49.23013687133789 227.28512573242188 C 50.66838836669922 228.3092498779297 53.2708625793457 221.79400634765625 48.71109390258789 218.21775817871094 C 33.77117156982422 215.12579345703125 18.137964248657227 214.0120849609375 -7.253840923309326 214.77757263183594" stroke-width="0.0" fill="rgb(103, 130, 145)" opacity="0.8780925" stroke="rgb(0, 0, 0)" stroke-opacity="1.0" stroke-linecap="round" stroke-linejoin="round"/>
    <path d="M 448.5297546386719 438.832275390625 C 442.1396484375 448.9971618652344 449.6935119628906 450.9980163574219 451.2951354980469 462.6003112792969 C 454.1367492675781 463.66522216796875 464.2764892578125 464.6285400390625 473.3836669921875 464.5672607421875 C 471.8916015625 471.2923583984375 468.90789794921875 474.2294921875 480.2147521972656 472.23736572265625 C 481.52532958984375 477.0987548828125 474.5202941894531 474.3825988769531 470.8984680175781 478.19097900390625 C 475.8492736816406 478.7605895996094 481.13800048828125 478.8731384277344 480.3209533691406 481.6818542480469 C 472.5029296875 488.9554443359375 487.1975402832031 494.9175109863281 480.3445129394531 516.6847534179688 C 491.14630126953125 517.0247192382812 501.84820556640625 517.1190185546875 519.6161499023438 517.313232421875 C 519.4419555664062 483.10382080078125 519.0570678710938 458.5955505371094 510.5823974609375 438.7421569824219 C 504.4044189453125 436.14544677734375 497.94000244140625 434.6020812988281 488.68280029296875 432.4137268066406 C 473.4109802246094 434.32366943359375 458.116943359375 433.121337890625 448.5297546386719 438.832275390625" stroke-width="0.0" fill="rgb(191, 169, 127)" opacity="0.99524057" stroke="rgb(0, 0, 0)" stroke-opacity="1.0" stroke-linecap="round" stroke-linejoin="round"/>
    <path d="M 515.9788818359375 131.04248046875 C 472.9231262207031 133.73402404785156 435.1429748535156 135.27847290039062 406.591064453125 141.21170043945312 C 403.9176025390625 141.97012329101562 398.12451171875 149.07919311523438 399.2266845703125 155.67295837402344 C 428.5986328125 158.4871063232422 463.1424865722656 158.0626220703125 494.73046875 158.6797637939453 C 494.852783203125 156.5959930419922 492.4085998535156 157.46397399902344 489.773681640625 159.2513885498047 C 494.5606994628906 163.85247802734375 496.3988342285156 163.41366577148438 502.6582946777344 162.52528381347656 C 503.25775146484375 154.2045135498047 504.01043701171875 150.24578857421875 518.6657104492188 151.83779907226562 C 517.809814453125 142.10531616210938 519.2852172851562 133.97708129882812 515.9788818359375 131.04248046875" stroke-width="0.0" fill="rgb(79, 79, 89)" opacity="0.96978265" stroke="rgb(0, 0, 0)" stroke-opacity="1.0" stroke-linecap="round" stroke-linejoin="round"/>
    <path d="M 263.3312072753906 332.8078918457031 C 283.5251770019531 333.88800048828125 306.60174560546875 334.1480712890625 330.134521484375 334.2749938964844 C 323.6569519042969 330.0869445800781 325.9720458984375 320.3556213378906 324.6416015625 309.8762512207031 C 314.490478515625 311.4748840332031 315.37298583984375 304.7140808105469 301.6078796386719 305.4174499511719 C 290.8143005371094 304.6004638671875 279.0561218261719 304.4684753417969 273.59686279296875 305.9513244628906 C 272.57147216796875 314.5408020019531 271.5819091796875 322.83697509765625 273.13739013671875 327.2952880859375 C 271.3127746582031 331.5108947753906 264.41552734375 328.3667297363281 263.3312072753906 332.8078918457031" stroke-width="0.0" fill="rgb(128, 117, 97)" opacity="0.9624632" stroke="rgb(0, 0, 0)" stroke-opacity="1.0" stroke-linecap="round" stroke-linejoin="round"/>
    <path d="M 375.5201416015625 294.85589599609375 C 369.4338684082031 307.0030822753906 367.4747619628906 320.6642150878906 372.0780944824219 343.09539794921875 C 374.78204345703125 345.216064453125 383.5536193847656 346.2838439941406 393.2611083984375 347.95416259765625 C 394.8002014160156 331.01995849609375 395.75164794921875 312.1531982421875 396.4703369140625 291.95849609375 C 388.878662109375 291.31243896484375 379.8477478027344 293.2589111328125 375.5201416015625 294.85589599609375" stroke-width="0.0" fill="rgb(107, 97, 88)" opacity="0.9999961" stroke="rgb(0, 0, 0)" stroke-opacity="1.0" stroke-linecap="round" stroke-linejoin="round"/>
    <path d="M 348.78759765625 335.6748046875 C 337.50445556640625 348.2304382324219 340.23260498046875 353.9580993652344 347.20355224609375 377.9367370605469 C 343.9236755371094 375.6834716796875 351.70623779296875 377.69512939453125 357.019287109375 377.8770751953125 C 357.5097351074219 386.19219970703125 354.2542724609375 394.94757080078125 357.2994384765625 401.7851257324219 C 362.3603820800781 395.5344543457031 362.14837646484375 386.522705078125 363.8119201660156 377.0018310546875 C 364.5513000488281 373.4013977050781 368.642333984375 375.9160461425781 371.4867248535156 376.73492431640625 C 365.9845275878906 364.9305419921875 367.3675537109375 357.0516357421875 373.41473388671875 348.9202575683594 C 366.1552734375 350.02935791015625 362.20062255859375 348.2655944824219 358.4488830566406 347.74468994140625 C 353.5352783203125 344.00421142578125 349.9764709472656 335.6767578125 348.78759765625 335.6748046875" stroke-width="0.0" fill="rgb(55, 51, 59)" opacity="1.0011175" stroke="rgb(0, 0, 0)" stroke-opacity="1.0" stroke-linecap="round" stroke-linejoin="round"/>
    <path d="M 83.64351654052734 284.4956970214844 C 74.51577758789062 286.40570068359375 63.1871223449707 283.548828125 64.25726318359375 285.512939453125 C 55.738548278808594 292.15057373046875 59.53152847290039 303.05322265625 52.54304122924805 306.50341796875 C 52.91456604003906 314.8406982421875 52.0035285949707 320.1863098144531 55.45145797729492 324.0916442871094 C 66.96916961669922 324.6199951171875 74.53684997558594 320.9987487792969 84.68760681152344 319.61297607421875 C 83.13909149169922 307.4398498535156 83.55651092529297 295.6271057128906 83.64351654052734 284.4956970214844" stroke-width="0.0" fill="rgb(159, 152, 140)" opacity="1.0065222" stroke="rgb(0, 0, 0)" stroke-opacity="1.0" stroke-linecap="round" stroke-linejoin="round"/>
    <path d="M 352.9521179199219 292.2388000488281 C 350.9486083984375 297.2727966308594 352.0899353027344 313.5963134765625 352.1190185546875 332.1388244628906 C 355.7005310058594 335.6183776855469 358.9480285644531 338.1239013671875 358.76739501953125 345.8913269042969 C 360.72564697265625 338.39593505859375 373.36846923828125 341.7344055175781 372.7707214355469 341.2527160644531 C 371.1919860839844 324.1486511230469 371.3642883300781 312.236328125 373.8140869140625 296.35662841796875 C 364.3512878417969 296.2683410644531 361.1487731933594 287.9302673339844 352.9521179199219 292.2388000488281" stroke-width="0.0" fill="rgb(52, 42, 49)" opacity="1.0013404" stroke="rgb(0, 0, 0)" stroke-opacity="1.0" stroke-linecap="round" stroke-linejoin="round"/>
    <path d="M 405.19183349609375 164.6629638671875 C 423.0317077636719 167.61944580078125 443.9548034667969 169.23072814941406 466.2532958984375 170.64111328125 C 469.1957702636719 167.67906188964844 467.89617919921875 163.30101013183594 468.4903869628906 163.277587890625 C 483.42340087890625 164.37615966796875 494.2174072265625 164.2317352294922 495.9893798828125 158.80030822753906 C 478.22039794921875 158.9092254638672 456.1459655761719 158.70291137695312 437.4588928222656 158.00657653808594 C 426.79669189453125 159.06150817871094 414.7119445800781 156.73602294921875 404.69036865234375 154.92263793945312 C 407.91094970703125 159.4839324951172 403.7349853515625 160.6408233642578 405.19183349609375 164.6629638671875" stroke-width="0.0" fill="rgb(113, 87, 71)" opacity="0.9699155" stroke="rgb(0, 0, 0)" stroke-opacity="1.0" stroke-linecap="round" stroke-linejoin="round"/>
    <path d="M 40.77711868286133 300.2734069824219 C 30.637004852294922 298.470947265625 25.092222213745117 302.5552062988281 18.197343826293945 304.80780029296875 C 18.23763084411621 309.64031982421875 14.970624923706055 316.3612365722656 13.992108345031738 327.69647216796875 C 25.51740264892578 325.80560302734375 37.01935958862305 325.8174133300781 47.31627655029297 324.7144775390625 C 45.238643646240234 314.0361328125 44.76871871948242 305.23297119140625 40.77711868286133 300.2734069824219" stroke-width="0.0" fill="rgb(157, 139, 110)" opacity="0.9468353" stroke="rgb(0, 0, 0)" stroke-opacity="1.0" stroke-linecap="round" stroke-linejoin="round"/>
    <path d="M 452.8635559082031 199.94642639160156 C 453.2772521972656 189.24205017089844 449.2496337890625 191.74899291992188 440.2169494628906 189.79299926757812 C 387.4217529296875 189.2106475830078 335.18621826171875 190.62327575683594 292.3122253417969 195.72744750976562 C 288.1127624511719 198.28611755371094 284.865966796875 199.41749572753906 287.0024108886719 203.14085388183594 C 312.5057373046875 205.2476806640625 336.6461181640625 207.72970581054688 359.94329833984375 211.5233612060547 C 354.8833923339844 220.6942596435547 359.9539489746094 213.63656616210938 370.9195251464844 214.92140197753906 C 372.0089416503906 214.63491821289062 370.7165222167969 205.3667449951172 370.60870361328125 202.17990112304688 C 394.3371887207031 196.6623077392578 389.20458984375 209.409423828125 392.8030700683594 206.74658203125 C 420.99676513671875 205.1842041015625 440.7334289550781 204.85873413085938 452.8635559082031 199.94642639160156" stroke-width="0.0" fill="rgb(135, 91, 50)" opacity="0.88066536" stroke="rgb(0, 0, 0)" stroke-opacity="1.0" stroke-linecap="round" stroke-linejoin="round"/>
    <path d="M 352.1045227050781 236.47808837890625 C 351.4945068359375 247.93373107910156 355.53961181640625 252.542724609375 360.03045654296875 256.54718017578125 C 410.48516845703125 249.59078979492188 454.3580017089844 254.7157440185547 494.8369140625 256.0755310058594 C 446.0348205566406 247.46389770507812 399.2242736816406 242.4169464111328 352.1045227050781 236.47808837890625" stroke-width="0.0" fill="rgb(134, 135, 138)" opacity="1.0168476" stroke="rgb(0, 0, 0)" stroke-opacity="1.0" stroke-linecap="round" stroke-linejoin="round"/>
    <path d="M 370.39068603515625 264.8724670410156 C 383.2608947753906 265.57220458984375 396.2641906738281 266.8670654296875 411.40411376953125 265.7197570800781 C 416.3309326171875 263.2142639160156 420.6104736328125 257.5953063964844 430.86395263671875 254.25538635253906 C 407.2519226074219 251.83482360839844 387.3968505859375 253.49197387695312 370.65234375 255.21725463867188 C 369.0997314453125 256.7989807128906 370.23345947265625 261.9385681152344 370.39068603515625 264.8724670410156" stroke-width="0.0" fill="rgb(144, 171, 176)" opacity="0.9993259" stroke="rgb(0, 0, 0)" stroke-opacity="1.0" stroke-linecap="round" stroke-linejoin="round"/>
    <path d="M 465.0246276855469 225.1254425048828 C 478.9640197753906 233.334716796875 489.9522705078125 242.17140197753906 501.8573913574219 252.06654357910156 C 506.2064208984375 253.62252807617188 506.0145263671875 247.6204833984375 511.0180358886719 245.49143981933594 C 511.1070556640625 238.76158142089844 511.2320861816406 230.02223205566406 510.5926208496094 223.4484100341797 C 495.7608642578125 224.9426727294922 479.69512939453125 222.2891082763672 465.0246276855469 225.1254425048828" stroke-width="0.0" fill="rgb(128, 177, 190)" opacity="1.0011427" stroke="rgb(0, 0, 0)" stroke-opacity="1.0" stroke-linecap="round" stroke-linejoin="round"/>
    <path d="M 127.22296905517578 505.7103576660156 C 133.17626953125 514.1448364257812 139.092041015625 519.7001342773438 152.79493713378906 517.6043701171875 C 160.36935424804688 505.1170654296875 171.3797607421875 505.3751220703125 173.92071533203125 502.2720642089844 C 169.65060424804688 494.0345458984375 161.05899047851562 496.8062744140625 146.9099578857422 495.6218566894531 C 139.58734130859375 498.1966552734375 128.60926818847656 500.5550537109375 127.22296905517578 505.7103576660156" stroke-width="0.0" fill="rgb(188, 166, 122)" opacity="0.9990238" stroke="rgb(0, 0, 0)" stroke-opacity="1.0" stroke-linecap="round" stroke-linejoin="round"/>
    <path d="M 194.48458862304688 301.8348693847656 C 193.13726806640625 298.85113525390625 188.46926879882812 296.1052551269531 185.65269470214844 295.3299865722656 C 172.947998046875 303.28082275390625 161.59239196777344 311.3663024902344 147.37319946289062 317.75311279296875 C 141.36351013183594 322.4409484863281 138.87306213378906 324.9732666015625 140.3145751953125 331.01947021484375 C 141.53260803222656 337.3202209472656 148.3855743408203 344.0874328613281 148.5079803466797 340.53497314453125 C 160.4557342529297 326.79132080078125 179.38897705078125 320.4404602050781 194.43663024902344 310.1308898925781 C 197.438232421875 307.2378234863281 197.31503295898438 309.8419189453125 194.48458862304688 301.8348693847656" stroke-width="0.0" fill="rgb(22, 20, 22)" opacity="0.95198464" stroke="rgb(0, 0, 0)" stroke-opacity="1.0" stroke-linecap="round" stroke-linejoin="round"/>
    <path d="M 195.0294952392578 146.93934631347656 C 188.7245635986328 149.2828369140625 188.44488525390625 157.878662109375 189.26953125 171.3389434814453 C 189.6858367919922 172.74505615234375 197.17010498046875 173.8692626953125 203.52865600585938 178.5980682373047 C 203.92262268066406 166.8913116455078 210.20033264160156 162.171630859375 209.73629760742188 154.85028076171875 C 206.48191833496094 147.12623596191406 202.657958984375 143.74107360839844 195.0294952392578 146.93934631347656" stroke-width="0.0" fill="rgb(25, 28, 38)" opacity="0.97839755" stroke="rgb(0, 0, 0)" stroke-opacity="1.0" stroke-linecap="round" stroke-linejoin="round"/>
    <path d="M 297.9335021972656 438.3387145996094 C 313.2461853027344 440.3050842285156 339.83648681640625 439.6877746582031 361.82623291015625 446.14825439453125 C 389.0018310546875 444.806396484375 418.8970947265625 443.36688232421875 445.9363708496094 444.46099853515625 C 447.41180419921875 433.60186767578125 443.3778991699219 424.9997253417969 445.6221008300781 429.54754638671875 C 418.2560119628906 431.1166687011719 400.3243713378906 426.86962890625 383.43927001953125 420.57861328125 C 360.6222839355469 419.6367492675781 338.9988708496094 419.51513671875 316.8800354003906 419.9161376953125 C 310.17230224609375 429.24560546875 293.67462158203125 420.7930908203125 297.9335021972656 438.3387145996094" stroke-width="0.0" fill="rgb(85, 81, 72)" opacity="0.96392447" stroke="rgb(0, 0, 0)" stroke-opacity="1.0" stroke-linecap="round" stroke-linejoin="round"/>
    <path d="M 411.52655029296875 273.7674255371094 C 408.9624938964844 277.4724426269531 416.27532958984375 279.8020324707031 423.002685546875 279.1112365722656 C 448.4914855957031 287.82183837890625 477.1244812011719 288.6009826660156 502.45941162109375 284.4739685058594 C 503.08038330078125 273.59051513671875 496.6868591308594 269.58966064453125 494.99224853515625 262.5981750488281 C 479.0989990234375 259.236328125 462.759765625 256.801025390625 446.09698486328125 254.18545532226562 C 437.09429931640625 253.0546417236328 431.0623779296875 253.377197265625 426.15887451171875 256.6811218261719 C 419.6165771484375 261.37274169921875 411.9273986816406 264.6408386230469 411.52655029296875 273.7674255371094" stroke-width="0.0" fill="rgb(67, 58, 64)" opacity="0.97165847" stroke="rgb(0, 0, 0)" stroke-opacity="1.0" stroke-linecap="round" stroke-linejoin="round"/>
    <path d="M 176.14161682128906 251.55316162109375 C 178.49725341796875 268.1878662109375 188.86109924316406 276.6636657714844 188.08155822753906 293.4248352050781 C 191.6761474609375 294.46246337890625 195.9654998779297 296.17535400390625 196.567626953125 300.36810302734375 C 198.744384765625 318.4909973144531 195.46728515625 333.7214660644531 193.717529296875 350.7769470214844 C 197.2597198486328 355.8936767578125 200.04193115234375 356.37066650390625 206.94813537597656 353.8714294433594 C 211.440185546875 340.90673828125 215.2329559326172 324.9408874511719 216.9824676513672 300.3640441894531 C 213.84556579589844 285.5993957519531 210.72866821289062 267.1153564453125 207.3821258544922 250.11289978027344 C 197.56907653808594 251.11285400390625 184.4010772705078 247.89901733398438 176.14161682128906 251.55316162109375" stroke-width="0.0" fill="rgb(15, 16, 22)" opacity="1.0032936" stroke="rgb(0, 0, 0)" stroke-opacity="1.0" stroke-linecap="round" stroke-linejoin="round"/>
    <path d="M 338.3543395996094 227.30206298828125 C 330.25640869140625 233.89486694335938 324.6756591796875 239.62664794921875 322.759765625 249.72186279296875 C 322.7409362792969 265.7471923828125 324.69610595703125 278.3186950683594 327.3052062988281 294.1793212890625 C 331.24346923828125 295.2057800292969 334.9689636230469 297.36444091796875 346.4149169921875 296.21942138671875 C 349.2944641113281 294.4809875488281 347.53326416015625 281.64697265625 353.4682922363281 275.7333984375 C 352.95184326171875 258.0075988769531 353.5788269042969 240.47314453125 351.3926086425781 231.2125244140625 C 344.3878479003906 232.11068725585938 341.57421875 230.9818878173828 338.3543395996094 227.30206298828125" stroke-width="0.0" fill="rgb(111, 117, 124)" opacity="1.0416893" stroke="rgb(0, 0, 0)" stroke-opacity="1.0" stroke-linecap="round" stroke-linejoin="round"/>
    <path d="M -3.614154815673828 184.7306365966797 C -4.489921569824219 191.93617248535156 -4.878514289855957 200.37832641601562 -4.8580851554870605 211.5672149658203 C 30.341934204101562 208.33763122558594 56.577354431152344 206.49110412597656 76.50775909423828 204.1361846923828 C 74.41889953613281 188.93423461914062 67.22296142578125 190.8305206298828 57.251651763916016 188.1339874267578 C 37.66455841064453 187.1820526123047 18.81524085998535 184.9257354736328 -3.614154815673828 184.7306365966797" stroke-width="0.0" fill="rgb(121, 82, 49)" opacity="1.0049729" stroke="rgb(0, 0, 0)" stroke-opacity="1.0" stroke-linecap="round" stroke-linejoin="round"/>
    <path d="M 330.7511291503906 300.5822448730469 C 327.18316650390625 306.09832763671875 325.40325927734375 313.9620666503906 325.9109802246094 327.8231506347656 C 328.0397644042969 329.4397277832031 332.6335754394531 330.7760925292969 345.11480712890625 332.3172912597656 C 344.15887451171875 323.0262451171875 346.55645751953125 314.0093078613281 345.98651123046875 302.1766357421875 C 343.97174072265625 298.5023498535156 334.5184326171875 298.78070068359375 330.7511291503906 300.5822448730469" stroke-width="0.0" fill="rgb(10, 10, 17)" opacity="1.0014976" stroke="rgb(0, 0, 0)" stroke-opacity="1.0" stroke-linecap="round" stroke-linejoin="round"/>
    <path d="M 357.2196960449219 274.4203186035156 C 349.9491882324219 296.4935607910156 351.6337890625 319.9425048828125 353.41802978515625 349.16094970703125 C 385.5021667480469 351.71258544921875 412.95013427734375 357.6528015136719 442.5731506347656 362.7144775390625 C 448.0575256347656 363.00244140625 447.24951171875 367.0346374511719 448.8203125 374.9967346191406 C 452.1443176269531 373.3480224609375 453.9464416503906 371.688232421875 455.7089538574219 371.8701171875 C 460.3633117675781 362.8343505859375 466.2994079589844 354.73309326171875 469.2663879394531 341.24200439453125 C 476.0254821777344 328.61083984375 479.21246337890625 312.9527587890625 477.62237548828125 289.660888671875 C 444.0244445800781 284.2513427734375 413.7286071777344 277.71044921875 381.8092956542969 272.09600830078125 C 368.4775695800781 271.580322265625 363.71112060546875 272.3439636230469 357.2196960449219 274.4203186035156" stroke-width="0.0" fill="rgb(105, 118, 126)" opacity="0.9763484" stroke="rgb(0, 0, 0)" stroke-opacity="1.0" stroke-linecap="round" stroke-linejoin="round"/>
    <path d="M 63.9692497253418 220.73988342285156 C 58.43785858154297 234.37991333007812 56.78701400756836 248.33358764648438 56.32359313964844 266.02032470703125 C 63.55770492553711 271.9691162109375 71.456787109375 273.082763671875 82.79853820800781 273.4330749511719 C 84.62921142578125 270.51947021484375 84.15039825439453 265.8147277832031 90.20389556884766 265.8747863769531 C 110.72612762451172 266.8753356933594 129.310302734375 262.8232116699219 146.91754150390625 258.59954833984375 C 152.00706481933594 263.5410461425781 148.3292236328125 271.31829833984375 151.0673828125 276.8149719238281 C 154.48336791992188 254.2968292236328 156.73507690429688 236.96832275390625 157.76779174804688 223.931640625 C 121.8468246459961 224.37466430664062 92.86583709716797 221.2205352783203 63.9692497253418 220.73988342285156" stroke-width="0.0" fill="rgb(112, 159, 171)" opacity="0.9967823" stroke="rgb(0, 0, 0)" stroke-opacity="1.0" stroke-linecap="round" stroke-linejoin="round"/>
    <path d="M 514.3265991210938 276.09136962890625 C 506.46820068359375 287.8780822753906 487.7852783203125 286.8204345703125 477.8299560546875 296.12957763671875 C 474.9722900390625 315.39031982421875 470.5115966796875 335.659423828125 466.3470764160156 358.0737609863281 C 464.0357666015625 368.6790771484375 459.0772705078125 374.1761779785156 451.8829040527344 378.82196044921875 C 450.5519104003906 389.5119934082031 451.95343017578125 389.7348327636719 457.7952575683594 391.6756591796875 C 466.359130859375 395.0641174316406 474.9699401855469 397.452392578125 491.79547119140625 394.9790954589844 C 491.7336120605469 378.8208923339844 499.75152587890625 375.5444641113281 506.7521667480469 365.87762451171875 C 507.8398742675781 357.50433349609375 509.90216064453125 349.67486572265625 507.376708984375 342.7231750488281 C 505.6104431152344 336.320556640625 501.6871032714844 332.1631774902344 498.2166748046875 331.3708801269531 C 502.41607666015625 322.4660949707031 505.99310302734375 314.939697265625 516.1677856445312 307.3923645019531 C 518.4239501953125 296.0107116699219 517.447509765625 287.07025146484375 514.3265991210938 276.09136962890625" stroke-width="0.0" fill="rgb(17, 17, 18)" opacity="1.0106668" stroke="rgb(0, 0, 0)" stroke-opacity="1.0" stroke-linecap="round" stroke-linejoin="round"/>
    <path d="M 189.5265655517578 172.47772216796875 C 180.73104858398438 176.9630126953125 174.91802978515625 183.5039825439453 170.86102294921875 190.54757690429688 C 168.4856719970703 197.81570434570312 168.8673858642578 201.20797729492188 168.86044311523438 201.83761596679688 C 179.5259246826172 205.14056396484375 179.33908081054688 209.29437255859375 186.5666961669922 201.3051300048828 C 181.69190979003906 217.3785400390625 177.12074279785156 229.4652099609375 173.50631713867188 248.55364990234375 C 181.3756103515625 248.24517822265625 195.988037109375 248.2105255126953 207.938720703125 252.4246063232422 C 210.7540740966797 228.64585876464844 205.58584594726562 206.7908935546875 214.3750762939453 202.06982421875 C 212.0084228515625 191.99185180664062 209.79489135742188 185.6355743408203 206.43544006347656 182.20135498046875 C 201.72085571289062 177.90826416015625 195.32424926757812 175.03460693359375 189.5265655517578 172.47772216796875" stroke-width="0.0" fill="rgb(84, 53, 41)" opacity="0.9747396" stroke="rgb(0, 0, 0)" stroke-opacity="1.0" stroke-linecap="round" stroke-linejoin="round"/>
    <path d="M 170.9649658203125 190.45114135742188 C 164.8832550048828 201.53424072265625 159.22535705566406 211.6343536376953 154.5110626220703 225.38966369628906 C 158.43894958496094 246.9146270751953 156.93653869628906 255.891357421875 153.156982421875 274.91900634765625 C 159.1279296875 289.6868896484375 151.89547729492188 299.2462463378906 165.7783203125 295.5876159667969 C 175.9915313720703 293.7624206542969 172.04214477539062 279.1675109863281 186.8573760986328 281.7464599609375 C 177.59207153320312 268.1395568847656 176.5896759033203 254.3753662109375 174.7874755859375 238.78536987304688 C 178.53115844726562 228.28236389160156 182.81507873535156 218.69317626953125 186.94740295410156 207.80577087402344 C 181.3875274658203 202.65948486328125 177.0110626220703 206.46603393554688 172.92599487304688 205.5608673095703 C 171.6685791015625 198.88290405273438 172.02049255371094 192.54415893554688 170.9649658203125 190.45114135742188" stroke-width="0.0" fill="rgb(105, 94, 94)" opacity="0.8454251" stroke="rgb(0, 0, 0)" stroke-opacity="1.0" stroke-linecap="round" stroke-linejoin="round"/>
    <path d="M 258.6193542480469 266.06427001953125 C 257.6599426269531 279.27508544921875 260.29412841796875 290.781982421875 262.57879638671875 300.4822692871094 C 283.8660583496094 299.8803405761719 296.592041015625 292.6825256347656 317.9960632324219 295.34857177734375 C 320.4712829589844 285.1147766113281 317.65533447265625 276.4552001953125 317.27398681640625 269.6170959472656 C 298.32366943359375 266.15203857421875 280.8020324707031 266.5440673828125 258.6193542480469 266.06427001953125" stroke-width="0.0" fill="rgb(80, 71, 62)" opacity="1.0035892" stroke="rgb(0, 0, 0)" stroke-opacity="1.0" stroke-linecap="round" stroke-linejoin="round"/>
    <path d="M 50.55101776123047 235.0924072265625 C 39.98003387451172 233.0791473388672 25.921396255493164 233.01531982421875 20.560264587402344 237.72463989257812 C 12.242985725402832 241.9752655029297 5.93580961227417 243.81166076660156 -2.93426513671875 250.10140991210938 C -5.452300071716309 252.38839721679688 -5.78264045715332 260.7349548339844 -6.268255710601807 275.53155517578125 C 15.803955078125 276.06201171875 33.212276458740234 275.0881042480469 45.94628143310547 271.1595458984375 C 49.99909973144531 263.3667297363281 50.87696075439453 253.72532653808594 50.55101776123047 235.0924072265625" stroke-width="0.0" fill="rgb(135, 149, 156)" opacity="0.992422" stroke="rgb(0, 0, 0)" stroke-opacity="1.0" stroke-linecap="round" stroke-linejoin="round"/>
    <path d="M -8.901717185974121 271.174072265625 C -8.762990951538086 292.17303466796875 -7.1743693351745605 299.58416748046875 3.2890546321868896 301.56903076171875 C 27.705291748046875 307.1121520996094 32.64726638793945 292.3061828613281 54.94276428222656 303.68603515625 C 56.39115524291992 285.9132385253906 52.2563362121582 280.4540100097656 41.864593505859375 274.6260681152344 C 27.452594757080078 274.557861328125 10.198884010314941 273.924560546875 -8.901717185974121 271.174072265625" stroke-width="0.0" fill="rgb(103, 92, 74)" opacity="0.94342893" stroke="rgb(0, 0, 0)" stroke-opacity="1.0" stroke-linecap="round" stroke-linejoin="round"/>
    <path d="M 113.2222671508789 213.5364227294922 C 103.44568634033203 203.8592071533203 90.9350357055664 201.03282165527344 71.56649017333984 202.3914337158203 C 52.382511138916016 206.36599731445312 24.70555305480957 205.558837890625 -9.291364669799805 210.337890625 C 8.628119468688965 217.9514923095703 24.80422019958496 218.52255249023438 36.426002502441406 218.37953186035156 C 65.78894805908203 215.94224548339844 92.57173156738281 216.48196411132812 113.2222671508789 213.5364227294922" stroke-width="0.0" fill="rgb(140, 104, 80)" opacity="0.874981" stroke="rgb(0, 0, 0)" stroke-opacity="1.0" stroke-linecap="round" stroke-linejoin="round"/>
    <path d="M -0.2432105541229248 207.40945434570312 C 0.8858784437179565 221.42823791503906 3.320669174194336 230.8888397216797 1.5784275531768799 237.31907653808594 C 18.859216690063477 239.56521606445312 32.8171501159668 237.85633850097656 50.72422790527344 237.38531494140625 C 48.801143646240234 230.43418884277344 51.7829704284668 226.84786987304688 47.10720443725586 218.35386657714844 C 33.22762680053711 215.08058166503906 18.818424224853516 211.71807861328125 -0.2432105541229248 207.40945434570312" stroke-width="0.0" fill="rgb(148, 155, 161)" opacity="0.9140678" stroke="rgb(0, 0, 0)" stroke-opacity="1.0" stroke-linecap="round" stroke-linejoin="round"/>
    <path d="M 274.878662109375 305.55975341796875 C 276.59649658203125 316.7913513183594 268.4551086425781 320.87384033203125 276.66986083984375 329.8052978515625 C 289.6087951660156 328.3521423339844 301.4864501953125 324.97454833984375 315.6829833984375 322.7747497558594 C 316.6703796386719 318.57720947265625 316.016357421875 308.7062072753906 315.7122802734375 306.07379150390625 C 299.97882080078125 305.76971435546875 284.6655578613281 303.63800048828125 274.878662109375 305.55975341796875" stroke-width="0.0" fill="rgb(144, 130, 106)" opacity="1.0107739" stroke="rgb(0, 0, 0)" stroke-opacity="1.0" stroke-linecap="round" stroke-linejoin="round"/>
    <path d="M 373.4123229980469 349.8302307128906 C 374.5005187988281 355.9573669433594 371.1386413574219 360.76617431640625 373.84857177734375 363.1302490234375 C 394.7179870605469 365.73870849609375 415.34832763671875 369.8774108886719 439.7769470214844 371.82208251953125 C 441.6827392578125 367.5531921386719 441.2336120605469 362.6118469238281 440.2974853515625 361.9510192871094 C 416.03912353515625 360.0533142089844 397.0667419433594 352.701171875 373.4123229980469 349.8302307128906" stroke-width="0.0" fill="rgb(196, 174, 137)" opacity="0.9950079" stroke="rgb(0, 0, 0)" stroke-opacity="1.0" stroke-linecap="round" stroke-linejoin="round"/>
    <path d="M 345.9456787109375 335.046142578125 C 342.0885009765625 346.8074035644531 336.3818054199219 355.7924499511719 344.2372131347656 366.3115234375 C 342.2259521484375 371.87786865234375 335.69512939453125 370.4715270996094 336.453857421875 375.17791748046875 C 339.4205322265625 378.3574523925781 346.3170166015625 380.2889099121094 354.16925048828125 378.0424499511719 C 358.0458068847656 373.0095520019531 356.97442626953125 362.38720703125 356.3740234375 347.712158203125 C 353.8749694824219 342.8537292480469 354.4175720214844 336.5562744140625 345.9456787109375 335.046142578125" stroke-width="0.0" fill="rgb(111, 80, 81)" opacity="1.0211053" stroke="rgb(0, 0, 0)" stroke-opacity="1.0" stroke-linecap="round" stroke-linejoin="round"/>
    <path d="M 52.106597900390625 310.2506103515625 C 54.10346984863281 313.33258056640625 50.60063552856445 319.69219970703125 54.812381744384766 321.4547119140625 C 64.79365539550781 320.2432556152344 75.88862609863281 320.1529541015625 84.5730972290039 319.5626525878906 C 83.47493743896484 309.0566101074219 80.47200775146484 303.8112487792969 80.83413696289062 300.1208190917969 C 73.14530944824219 299.0662841796875 63.817867279052734 298.3059387207031 58.87670135498047 299.3756103515625 C 57.502601623535156 301.7688293457031 53.36439514160156 304.7887878417969 52.106597900390625 310.2506103515625" stroke-width="0.0" fill="rgb(173, 158, 130)" opacity="0.99700177" stroke="rgb(0, 0, 0)" stroke-opacity="1.0" stroke-linecap="round" stroke-linejoin="round"/>
    <path d="M 58.424781799316406 217.5305633544922 C 49.41951370239258 215.83094787597656 51.79703140258789 217.96560668945312 48.88560104370117 222.54739379882812 C 48.17806625366211 242.59881591796875 47.31239318847656 260.6779479980469 48.31502151489258 269.6144714355469 C 51.735107421875 271.298828125 56.80730438232422 269.48321533203125 56.75224304199219 267.3804931640625 C 52.93538284301758 244.736572265625 64.36390686035156 238.78628540039062 58.424781799316406 217.5305633544922" stroke-width="0.0" fill="rgb(81, 98, 104)" opacity="0.9283842" stroke="rgb(0, 0, 0)" stroke-opacity="1.0" stroke-linecap="round" stroke-linejoin="round"/>
    <path d="M 518.5791015625 132.57057189941406 C 493.24359130859375 131.8057403564453 476.2869873046875 134.47100830078125 453.1360168457031 135.24436950683594 C 453.86737060546875 136.0776824951172 454.0311584472656 140.7265625 454.91424560546875 151.74075317382812 C 473.0392150878906 150.93475341796875 492.00201416015625 150.917236328125 515.6332397460938 151.1831817626953 C 518.037841796875 147.06402587890625 518.6201782226562 141.76441955566406 518.5791015625 132.57057189941406" stroke-width="0.0" fill="rgb(117, 86, 47)" opacity="0.99983937" stroke="rgb(0, 0, 0)" stroke-opacity="1.0" stroke-linecap="round" stroke-linejoin="round"/>
    <path d="M 346.7179870605469 334.6461181640625 C 341.3348083496094 329.02392578125 336.2251281738281 332.5437316894531 327.6194152832031 330.5913391113281 C 322.7652282714844 327.26263427734375 325.1509094238281 320.9691467285156 330.26470947265625 323.05194091796875 C 298.5055847167969 323.0495910644531 275.832275390625 324.1927185058594 258.9781799316406 333.1439514160156 C 293.79925537109375 334.27606201171875 324.9205322265625 335.0918273925781 346.7179870605469 334.6461181640625" stroke-width="0.0" fill="rgb(46, 44, 39)" opacity="0.9995214" stroke="rgb(0, 0, 0)" stroke-opacity="1.0" stroke-linecap="round" stroke-linejoin="round"/>
    <path d="M 469.5257568359375 172.1897430419922 C 469.3040466308594 167.00189208984375 467.2420349121094 164.80364990234375 465.6922302246094 158.95445251464844 C 461.66046142578125 157.04664611816406 454.6485900878906 158.8129119873047 454.4037170410156 153.76426696777344 C 455.3788757324219 148.03076171875 457.738037109375 142.109130859375 457.5477600097656 133.02952575683594 C 441.2784729003906 136.82237243652344 423.8819274902344 137.79232788085938 408.4746398925781 140.1357879638672 C 402.1942443847656 140.88673400878906 400.0939636230469 148.15623474121094 397.4248046875 155.4635772705078 C 406.4645080566406 156.7759552001953 407.2929382324219 154.8921356201172 404.2965393066406 164.37725830078125 C 425.68304443359375 167.85208129882812 447.2489929199219 168.99493408203125 469.5257568359375 172.1897430419922" stroke-width="0.0" fill="rgb(114, 84, 59)" opacity="0.95541024" stroke="rgb(0, 0, 0)" stroke-opacity="1.0" stroke-linecap="round" stroke-linejoin="round"/>
    <path d="M 98.04217529296875 382.5490417480469 C 111.9326171875 371.8345642089844 120.99577331542969 378.405517578125 134.5892791748047 377.1648254394531 C 145.07591247558594 372.7919006347656 150.97601318359375 368.4800109863281 152.63778686523438 359.56585693359375 C 134.19711303710938 356.1903991699219 115.60956573486328 363.53955078125 106.02378845214844 355.04058837890625 C 102.60589599609375 359.6311340332031 98.9704360961914 361.7838134765625 94.84220886230469 366.510498046875 C 99.92033386230469 370.4405212402344 99.50957489013672 370.6750793457031 98.04217529296875 382.5490417480469" stroke-width="0.0" fill="rgb(43, 41, 39)" opacity="0.95804816" stroke="rgb(0, 0, 0)" stroke-opacity="1.0" stroke-linecap="round" stroke-linejoin="round"/>
    <path d="M 356.7027587890625 242.5127410888672 C 356.303955078125 250.01821899414062 357.5199279785156 252.05653381347656 359.5176086425781 254.78311157226562 C 386.2819519042969 251.61668395996094 411.8779602050781 259.9851379394531 427.8840026855469 252.91688537597656 C 403.1849670410156 248.24111938476562 380.09649658203125 245.38429260253906 356.7027587890625 242.5127410888672" stroke-width="0.0" fill="rgb(159, 158, 154)" opacity="1.0030065" stroke="rgb(0, 0, 0)" stroke-opacity="1.0" stroke-linecap="round" stroke-linejoin="round"/>
    <path d="M 410.7908935546875 272.7349548339844 C 411.14508056640625 277.7088317871094 414.63812255859375 283.19586181640625 416.5469055175781 285.66375732421875 C 435.3885192871094 288.196533203125 452.9814453125 285.14324951171875 469.94732666015625 284.7256774902344 C 468.6488952636719 272.99090576171875 476.028076171875 268.77960205078125 476.7036437988281 259.06634521484375 C 463.3470153808594 256.00799560546875 448.2808532714844 254.04409790039062 433.77587890625 253.6605224609375 C 422.6153869628906 257.556396484375 413.7318115234375 261.71160888671875 410.7908935546875 272.7349548339844" stroke-width="0.0" fill="rgb(68, 56, 60)" opacity="0.95463043" stroke="rgb(0, 0, 0)" stroke-opacity="1.0" stroke-linecap="round" stroke-linejoin="round"/>
    <path d="M 313.1791687011719 422.091796875 C 340.3648986816406 430.51239013671875 371.2234191894531 432.7742614746094 414.821044921875 433.81182861328125 C 404.5356140136719 424.2283020019531 387.977783203125 423.44415283203125 382.0599670410156 419.77960205078125 C 360.39581298828125 421.0128479003906 328.9263610839844 417.4638366699219 313.1791687011719 422.091796875" stroke-width="0.0" fill="rgb(154, 140, 112)" opacity="0.9604595" stroke="rgb(0, 0, 0)" stroke-opacity="1.0" stroke-linecap="round" stroke-linejoin="round"/>
    <path d="M 352.622314453125 289.619140625 C 348.8067321777344 315.2652893066406 351.5113525390625 331.5341491699219 358.0618591308594 347.75238037109375 C 391.8714599609375 350.1871643066406 419.5216369628906 360.40655517578125 453.9761657714844 363.3077087402344 C 461.76416015625 358.3056335449219 463.6252746582031 351.4129943847656 467.0324401855469 347.4383544921875 C 469.5766906738281 336.75482177734375 470.7951965332031 326.5512390136719 472.43731689453125 318.105224609375 C 442.75018310546875 308.2228698730469 415.5987243652344 302.13739013671875 394.4165954589844 289.75830078125 C 377.8721008300781 295.0339050292969 370.1694641113281 296.27801513671875 352.622314453125 289.619140625" stroke-width="0.0" fill="rgb(73, 63, 61)" opacity="0.9656808" stroke="rgb(0, 0, 0)" stroke-opacity="1.0" stroke-linecap="round" stroke-linejoin="round"/>
    <path d="M 517.4404907226562 307.93341064453125 C 503.59930419921875 314.85150146484375 500.2346496582031 321.8626403808594 499.4078369140625 332.6144104003906 C 491.5526428222656 328.85260009765625 483.1348571777344 326.0799560546875 473.6347961425781 324.63525390625 C 467.4443359375 341.4571533203125 468.4988708496094 361.8811950683594 462.39642333984375 380.79400634765625 C 464.33734130859375 385.2248840332031 463.4703063964844 389.6072998046875 467.2348937988281 390.8917236328125 C 481.68975830078125 393.0741271972656 494.499267578125 397.0937805175781 516.9151000976562 394.06243896484375 C 517.7508544921875 365.22857666015625 519.0767822265625 336.63623046875 517.4404907226562 307.93341064453125" stroke-width="0.0" fill="rgb(130, 118, 105)" opacity="0.80598676" stroke="rgb(0, 0, 0)" stroke-opacity="1.0" stroke-linecap="round" stroke-linejoin="round"/>
    <path d="M 186.1951904296875 251.30807495117188 C 196.53623962402344 257.41082763671875 198.15252685546875 273.54754638671875 203.63516235351562 293.8571472167969 C 194.6432647705078 302.4720153808594 199.97732543945312 331.750244140625 191.3822479248047 350.4365234375 C 197.16152954101562 353.9826965332031 203.09872436523438 357.6604309082031 206.85203552246094 354.0713195800781 C 212.9535675048828 339.3546142578125 217.8916015625 322.28759765625 216.75778198242188 301.37408447265625 C 213.6151580810547 280.4921875 211.4293975830078 264.6900634765625 206.4697265625 252.4590606689453 C 201.23300170898438 248.77976989746094 192.91310119628906 249.52304077148438 186.1951904296875 251.30807495117188" stroke-width="0.0" fill="rgb(31, 30, 35)" opacity="1.0237476" stroke="rgb(0, 0, 0)" stroke-opacity="1.0" stroke-linecap="round" stroke-linejoin="round"/>
    <path d="M 515.6240234375 270.17010498046875 C 508.02947998046875 276.7635803222656 508.6119689941406 282.87860107421875 505.8773498535156 284.96270751953125 C 494.7131042480469 287.7913513183594 485.3994140625 289.73187255859375 479.4433288574219 294.5849609375 C 477.880615234375 303.88787841796875 474.2138671875 315.0049133300781 474.5322265625 323.7740478515625 C 483.3392028808594 325.63861083984375 488.88232421875 329.1787414550781 496.6910095214844 331.2048645019531 C 502.6185302734375 321.986328125 505.44964599609375 314.50775146484375 515.895263671875 307.2637939453125 C 518.7777709960938 295.4171142578125 518.0782470703125 283.514892578125 515.6240234375 270.17010498046875" stroke-width="0.0" fill="rgb(51, 42, 41)" opacity="1.0038838" stroke="rgb(0, 0, 0)" stroke-opacity="1.0" stroke-linecap="round" stroke-linejoin="round"/>
    <path d="M 430.13189697265625 287.0865783691406 C 432.65435791015625 292.8162536621094 439.667236328125 297.0565185546875 439.6435241699219 309.1630554199219 C 447.7133483886719 312.88385009765625 461.1540222167969 313.7595520019531 472.06927490234375 317.8002624511719 C 476.1533203125 310.58514404296875 477.7508850097656 302.0243835449219 478.381591796875 291.0221252441406 C 464.0661926269531 286.0530700683594 449.1668701171875 284.3442687988281 430.13189697265625 287.0865783691406" stroke-width="0.0" fill="rgb(41, 77, 77)" opacity="0.98764133" stroke="rgb(0, 0, 0)" stroke-opacity="1.0" stroke-linecap="round" stroke-linejoin="round"/>
    <path d="M 46.13108444213867 249.38937377929688 C 29.397554397583008 251.24978637695312 14.147573471069336 251.0258026123047 -0.5458968281745911 252.49636840820312 C 0.0210484117269516 259.0 -0.8466506004333496 266.0 -5.162619590759277 273.7946472167969 C 16.762187957763672 273.6785888671875 32.85785675048828 275.7985534667969 44.89604949951172 272.0535583496094 C 47.36216354370117 268.8394470214844 45.400943756103516 259.21966552734375 46.13108444213867 249.38937377929688" stroke-width="0.0" fill="rgb(123, 139, 147)" opacity="0.99336773" stroke="rgb(0, 0, 0)" stroke-opacity="1.0" stroke-linecap="round" stroke-linejoin="round"/>
    <path d="M 337.71051025390625 225.49354553222656 C 337.4023132324219 227.15525817871094 332.98443603515625 235.06094360351562 328.54974365234375 237.96420288085938 C 328.3058166503906 253.40237426757812 330.8681335449219 269.5682067871094 333.3285217285156 285.1142578125 C 340.7107849121094 282.3168640136719 345.18328857421875 276.36248779296875 347.7082824707031 269.151611328125 C 346.05987548828125 250.61270141601562 348.0728454589844 233.44931030273438 337.71051025390625 225.49354553222656" stroke-width="0.0" fill="rgb(121, 53, 60)" opacity="1.003768" stroke="rgb(0, 0, 0)" stroke-opacity="1.0" stroke-linecap="round" stroke-linejoin="round"/>
    <path d="M 494.4630432128906 243.5782012939453 C 489.7576599121094 261.88519287109375 474.9361877441406 260.429931640625 468.3484802246094 272.66424560546875 C 470.4236755371094 279.3283386230469 475.9400634765625 284.5079040527344 483.5347595214844 289.4823303222656 C 491.1614990234375 289.90673828125 497.0175476074219 285.89776611328125 504.18743896484375 285.0709228515625 C 497.4758605957031 271.1289367675781 496.0915222167969 264.5591735839844 494.4630432128906 243.5782012939453" stroke-width="0.0" fill="rgb(121, 119, 126)" opacity="1.0635138" stroke="rgb(0, 0, 0)" stroke-opacity="1.0" stroke-linecap="round" stroke-linejoin="round"/>
    <path d="M 46.749385833740234 220.72010803222656 C 35.75078582763672 220.62098693847656 22.069000244140625 221.5886688232422 9.033805847167969 221.10494995117188 C 2.4907844066619873 223.28460693359375 1.7270151376724243 227.56419372558594 3.5537824630737305 237.08627319335938 C 14.413280487060547 240.8250274658203 28.539838790893555 237.5591583251953 46.4532356262207 236.5851593017578 C 47.20699691772461 234.24588012695312 47.18323516845703 228.57420349121094 46.749385833740234 220.72010803222656" stroke-width="0.0" fill="rgb(109, 164, 177)" opacity="0.9983046" stroke="rgb(0, 0, 0)" stroke-opacity="1.0" stroke-linecap="round" stroke-linejoin="round"/>
    <path d="M 171.30162048339844 190.8802947998047 C 163.39540100097656 200.03921508789062 159.485107421875 212.52740478515625 155.0957489013672 221.8560791015625 C 154.98728942871094 237.54371643066406 153.8953857421875 247.32554626464844 163.9118194580078 254.2439727783203 C 168.79458618164062 234.8964385986328 173.08424377441406 216.4615478515625 171.30162048339844 190.8802947998047" stroke-width="0.0" fill="rgb(91, 55, 71)" opacity="0.987429" stroke="rgb(0, 0, 0)" stroke-opacity="1.0" stroke-linecap="round" stroke-linejoin="round"/>
    <path d="M 49.286964416503906 238.86363220214844 C 39.69382095336914 237.48953247070312 28.581436157226562 238.23915100097656 17.0715389251709 238.96693420410156 C 10.806336402893066 243.1795196533203 2.5685064792633057 245.5800323486328 -6.341734886169434 252.42242431640625 C 15.010051727294922 251.4160919189453 29.672191619873047 251.1951141357422 45.67110061645508 251.21607971191406 C 47.10324478149414 250.55130004882812 47.23576354980469 245.0391387939453 49.286964416503906 238.86363220214844" stroke-width="0.0" fill="rgb(187, 191, 191)" opacity="1.0035431" stroke="rgb(0, 0, 0)" stroke-opacity="1.0" stroke-linecap="round" stroke-linejoin="round"/>
    <path d="M 395.2977600097656 289.9901428222656 C 405.1275634765625 299.70684814453125 420.4164733886719 303.4784851074219 438.26904296875 306.5666198730469 C 440.8570861816406 297.76416015625 435.6457214355469 292.9766540527344 430.3006591796875 289.8133544921875 C 412.93560791015625 287.23553466796875 404.4173889160156 281.3298034667969 395.2977600097656 289.9901428222656" stroke-width="0.0" fill="rgb(31, 30, 35)" opacity="0.97381" stroke="rgb(0, 0, 0)" stroke-opacity="1.0" stroke-linecap="round" stroke-linejoin="round"/>
    <path d="M 108.45177459716797 210.374267578125 C 100.61966705322266 201.85252380371094 90.50005340576172 202.0636444091797 69.31348419189453 200.83554077148438 C 61.93817138671875 208.46450805664062 39.898590087890625 200.1075897216797 24.801923751831055 208.56346130371094 C 47.882774353027344 211.70758056640625 76.37187194824219 209.36338806152344 108.45177459716797 210.374267578125" stroke-width="0.0" fill="rgb(136, 174, 207)" opacity="0.9930436" stroke="rgb(0, 0, 0)" stroke-opacity="1.0" stroke-linecap="round" stroke-linejoin="round"/>
    <path d="M 188.34329223632812 201.67205810546875 C 174.427001953125 201.1479949951172 169.0291290283203 206.49725341796875 169.5034637451172 209.95286560058594 C 169.06692504882812 242.3503875732422 158.03004455566406 265.0321960449219 156.4541778564453 293.4969177246094 C 168.1245880126953 300.4797058105469 170.00564575195312 296.4803161621094 175.54246520996094 288.09625244140625 C 174.1597137451172 252.193603515625 181.75494384765625 229.9765625 188.34329223632812 201.67205810546875" stroke-width="0.0" fill="rgb(78, 68, 61)" opacity="0.9229648" stroke="rgb(0, 0, 0)" stroke-opacity="1.0" stroke-linecap="round" stroke-linejoin="round"/>
    <path d="M 294.5124206542969 441.4458312988281 C 344.08892822265625 443.80633544921875 391.25750732421875 446.9610595703125 447.0861511230469 445.4260559082031 C 447.1690979003906 440.3724670410156 444.7422180175781 434.3716735839844 445.9477844238281 429.7074890136719 C 419.7886657714844 432.6649475097656 401.10565185546875 425.442626953125 391.4187316894531 428.3173828125 C 373.17633056640625 427.24603271484375 354.06500244140625 424.80902099609375 337.9100646972656 423.216064453125 C 323.1565856933594 423.7878723144531 315.3870849609375 427.1019592285156 303.7918395996094 424.5145568847656 C 300.9700622558594 433.3504638671875 294.934814453125 436.45025634765625 294.5124206542969 441.4458312988281" stroke-width="0.0" fill="rgb(44, 47, 46)" opacity="0.8740548" stroke="rgb(0, 0, 0)" stroke-opacity="1.0" stroke-linecap="round" stroke-linejoin="round"/>
    <path d="M 188.43878173828125 171.85093688964844 C 183.8780975341797 179.46502685546875 195.69134521484375 178.8885040283203 195.6632080078125 191.9672088623047 C 189.82489013671875 209.17550659179688 179.2698974609375 224.5425262451172 176.3215789794922 246.73338317871094 C 183.8419189453125 249.217041015625 194.8305206298828 250.0423126220703 208.4144744873047 251.35693359375 C 209.5947723388672 218.33665466308594 199.8356170654297 212.980224609375 213.3980712890625 192.44192504882812 C 208.1148681640625 179.59982299804688 196.16737365722656 178.1527862548828 188.43878173828125 171.85093688964844" stroke-width="0.0" fill="rgb(94, 47, 20)" opacity="0.9607576" stroke="rgb(0, 0, 0)" stroke-opacity="1.0" stroke-linecap="round" stroke-linejoin="round"/>
    <path d="M 458.3002014160156 133.48977661132812 C 439.5081481933594 137.0928192138672 420.71826171875 138.14212036132812 403.14495849609375 140.7279510498047 C 401.98626708984375 145.45582580566406 399.723876953125 150.1307373046875 397.0802001953125 155.5819549560547 C 413.70233154296875 158.41827392578125 425.93212890625 156.0605010986328 454.3017272949219 153.62368774414062 C 455.30035400390625 150.17820739746094 457.6986083984375 143.59898376464844 458.3002014160156 133.48977661132812" stroke-width="0.0" fill="rgb(115, 85, 48)" opacity="0.9846353" stroke="rgb(0, 0, 0)" stroke-opacity="1.0" stroke-linecap="round" stroke-linejoin="round"/>
    <path d="M 469.6302490234375 172.29405212402344 C 468.83599853515625 165.4790802001953 466.75811767578125 163.1096649169922 466.5383605957031 159.64944458007812 C 459.3194885253906 159.66969299316406 451.5843505859375 154.531494140625 441.28729248046875 155.51856994628906 C 424.709228515625 156.5230712890625 411.5008544921875 153.3843536376953 404.2722473144531 163.92813110351562 C 421.3837890625 168.1566925048828 445.7841491699219 168.32957458496094 469.6302490234375 172.29405212402344" stroke-width="0.0" fill="rgb(116, 66, 29)" opacity="0.95163316" stroke="rgb(0, 0, 0)" stroke-opacity="1.0" stroke-linecap="round" stroke-linejoin="round"/>
    <path d="M 399.8524169921875 287.51708984375 C 403.4815979003906 306.0797424316406 394.7900695800781 316.1366882324219 396.7966613769531 325.3020324707031 C 407.9714050292969 334.4399108886719 414.1811218261719 343.14508056640625 428.09002685546875 344.17474365234375 C 441.7930908203125 346.76751708984375 451.0408935546875 351.4609375 467.4755554199219 347.1480712890625 C 469.8265686035156 328.1275634765625 475.3580017089844 311.77874755859375 477.5264892578125 291.35028076171875 C 462.0592346191406 286.3055114746094 441.4232177734375 283.98333740234375 422.62432861328125 281.8517761230469 C 417.8363342285156 285.8051452636719 408.91107177734375 288.7241516113281 399.8524169921875 287.51708984375" stroke-width="0.0" fill="rgb(37, 61, 60)" opacity="0.8725742" stroke="rgb(0, 0, 0)" stroke-opacity="1.0" stroke-linecap="round" stroke-linejoin="round"/>
    <path d="M 474.4574279785156 325.5542297363281 C 470.0738220214844 346.9402160644531 472.1453552246094 369.94232177734375 463.6108703613281 379.43060302734375 C 464.0711364746094 387.7319641113281 466.96588134765625 391.0608825683594 469.7123107910156 397.0751647949219 C 474.940673828125 396.6900939941406 483.9451904296875 397.06591796875 491.27508544921875 395.99810791015625 C 490.5243225097656 375.2235412597656 508.0770263671875 370.61944580078125 508.75079345703125 354.86083984375 C 509.4998474121094 340.2583923339844 504.0988464355469 335.7527160644531 498.5849609375 331.409423828125 C 489.9631652832031 330.51336669921875 482.94818115234375 326.90716552734375 474.4574279785156 325.5542297363281" stroke-width="0.0" fill="rgb(43, 35, 38)" opacity="0.98199546" stroke="rgb(0, 0, 0)" stroke-opacity="1.0" stroke-linecap="round" stroke-linejoin="round"/>
    <path d="M 182.1306915283203 201.08778381347656 C 178.449951171875 203.980224609375 170.9903564453125 200.43235778808594 170.9554443359375 208.00469970703125 C 165.02024841308594 231.3847198486328 167.0575714111328 255.7833251953125 156.90167236328125 279.550537109375 C 164.91378784179688 283.478515625 160.44854736328125 276.9974060058594 160.5937957763672 276.005615234375 C 164.95669555664062 273.00872802734375 165.27569580078125 271.9298400878906 169.96380615234375 277.6454772949219 C 170.9544677734375 248.75360107421875 178.57940673828125 229.26734924316406 187.80416870117188 209.52883911132812 C 186.53057861328125 204.93003845214844 188.67428588867188 201.95188903808594 182.1306915283203 201.08778381347656" stroke-width="0.0" fill="rgb(28, 23, 24)" opacity="1.0014343" stroke="rgb(0, 0, 0)" stroke-opacity="1.0" stroke-linecap="round" stroke-linejoin="round"/>
    <path d="M 511.6131286621094 275.572021484375 C 505.2958068847656 287.61700439453125 493.2365417480469 293.29217529296875 478.7147521972656 297.5765380859375 C 477.4523620605469 305.07562255859375 478.117919921875 316.4054870605469 477.35406494140625 325.39288330078125 C 482.45220947265625 326.2745361328125 486.8358154296875 327.2244567871094 488.18890380859375 329.8097229003906 C 495.1824035644531 326.70294189453125 495.4104309082031 325.17950439453125 491.907470703125 315.13531494140625 C 501.3226318359375 312.12396240234375 506.422119140625 305.00335693359375 512.3441772460938 296.0558166503906 C 516.5672607421875 289.7823486328125 516.4907836914062 283.2303771972656 511.6131286621094 275.572021484375" stroke-width="0.0" fill="rgb(45, 31, 35)" opacity="0.9992486" stroke="rgb(0, 0, 0)" stroke-opacity="1.0" stroke-linecap="round" stroke-linejoin="round"/>
    <path d="M 337.598388671875 423.1199951171875 C 344.078857421875 426.7613830566406 353.9783020019531 429.099609375 359.4019775390625 430.3082580566406 C 376.9187927246094 430.5580139160156 393.748291015625 434.2984313964844 404.20318603515625 431.46392822265625 C 400.79412841796875 422.8250427246094 390.23553466796875 428.1307067871094 389.0500793457031 419.4061584472656 C 368.0712585449219 421.4156494140625 348.7581787109375 417.0474853515625 337.598388671875 423.1199951171875" stroke-width="0.0" fill="rgb(181, 163, 127)" opacity="0.95499676" stroke="rgb(0, 0, 0)" stroke-opacity="1.0" stroke-linecap="round" stroke-linejoin="round"/>
    <path d="M 499.51617431640625 252.47427368164062 C 494.8352355957031 244.1602783203125 492.6337585449219 244.0262908935547 488.0335998535156 247.93946838378906 C 490.3756408691406 262.8525390625 481.75927734375 274.89776611328125 483.7562561035156 292.0541687011719 C 491.41058349609375 289.9480895996094 492.7165832519531 284.384033203125 495.2994079589844 278.2312316894531 C 503.13031005859375 286.40704345703125 492.5295104980469 296.76409912109375 503.2251892089844 280.8423156738281 C 495.4168395996094 266.2835693359375 494.4568786621094 259.0140075683594 499.51617431640625 252.47427368164062" stroke-width="0.0" fill="rgb(82, 74, 77)" opacity="0.99506503" stroke="rgb(0, 0, 0)" stroke-opacity="1.0" stroke-linecap="round" stroke-linejoin="round"/>
    <path d="M 396.98321533203125 315.3658447265625 C 395.6365051269531 317.3211364746094 398.6080017089844 321.0289306640625 397.58245849609375 327.1825866699219 C 405.56585693359375 330.1224365234375 409.77239990234375 337.5511474609375 418.2742614746094 341.6294860839844 C 428.7535705566406 344.94317626953125 442.3045959472656 347.3882141113281 455.9302673339844 349.8106384277344 C 462.34552001953125 348.25531005859375 466.7391662597656 346.41571044921875 467.3754577636719 342.8278503417969 C 469.4456481933594 334.1795349121094 471.6601257324219 324.4973449707031 469.4037780761719 315.66229248046875 C 446.1663818359375 313.5712890625 433.3636474609375 302.77667236328125 409.94964599609375 300.8089904785156 C 405.6552429199219 301.3538513183594 402.6304931640625 310.0320739746094 396.98321533203125 315.3658447265625" stroke-width="0.0" fill="rgb(38, 64, 96)" opacity="0.99831265" stroke="rgb(0, 0, 0)" stroke-opacity="1.0" stroke-linecap="round" stroke-linejoin="round"/>
  </g>
</svg>
