<?xml version="1.0" ?>
<svg xmlns="http://www.w3.org/2000/svg" version="1.1" width="512" height="512">
  <defs/>
  <g>
    <path d="M -2.5470964908599854 -2.792152166366577 C -1.6538934707641602 170.3333282470703 -0.5432915687561035 340.6666564941406 -0.5054551362991333 517.4602661132812 C 169.31695556640625 518.1329345703125 338.9195251464844 519.1959838867188 518.0624389648438 519.385498046875 C 518.3143310546875 341.2527160644531 518.406005859375 170.65866088867188 518.4812622070312 -3.181251049041748 C 340.6666564941406 -3.1266820430755615 170.3333282470703 -2.9664552211761475 -2.5470964908599854 -2.792152166366577" stroke-width="0.0" fill="rgb(146, 211, 225)" opacity="0.78106457" stroke="rgb(0, 0, 0)" stroke-opacity="1.0" stroke-linecap="round" stroke-linejoin="round"/>
    <path d="M -6.459332466125488 326.33489990234375 C -6.593317985534668 385.9654541015625 -6.158834934234619 448.773193359375 -4.234548568725586 518.5516967773438 C 170.33229064941406 518.5823974609375 340.67279052734375 518.6255493164062 517.9863891601562 518.5609130859375 C 518.0394287109375 484.2559509277344 518.1005249023438 456.9865417480469 518.8043212890625 428.3350524902344 C 475.2193603515625 439.34271240234375 446.9798278808594 425.9811706542969 446.3962707519531 439.34368896484375 C 413.9896545410156 441.4666442871094 385.0388488769531 439.7237854003906 359.2672119140625 439.6287536621094 C 365.9378662109375 437.5072937011719 364.74346923828125 437.4028015136719 359.86737060546875 437.01959228515625 C 357.68231201171875 436.6827392578125 350.671630859375 436.447998046875 347.1082763671875 435.8448486328125 C 341.71868896484375 435.9693908691406 339.84771728515625 433.862060546875 337.5875244140625 439.373046875 C 344.43292236328125 439.1407775878906 351.8137512207031 439.953857421875 356.6182861328125 437.8104248046875 C 352.9763488769531 441.90765380859375 343.59906005859375 441.6596374511719 334.2064514160156 440.0466003417969 C 336.9981689453125 438.34716796875 339.90087890625 440.2837219238281 340.0494384765625 434.18218994140625 C 326.0507507324219 435.87091064453125 309.0647888183594 437.4119567871094 300.0154724121094 434.1920166015625 C 300.0343322753906 426.5863037109375 314.9023742675781 422.2908630371094 321.38409423828125 416.5116882324219 C 327.9305114746094 401.802734375 343.25323486328125 394.84759521484375 345.4669494628906 382.7090759277344 C 346.0533447265625 365.1984558105469 343.561767578125 350.728759765625 341.7125244140625 338.08642578125 C 337.8861083984375 332.4486999511719 326.54302978515625 335.9042663574219 324.9183044433594 327.4160461425781 C 323.7395935058594 313.13580322265625 325.0072326660156 309.7292175292969 311.9127197265625 306.1535949707031 C 290.73345947265625 302.34136962890625 251.5222625732422 304.73248291015625 219.45846557617188 299.97589111328125 C 217.94192504882812 317.99163818359375 213.06027221679688 332.7439270019531 211.36077880859375 354.15032958984375 C 213.54612731933594 354.5814208984375 203.77638244628906 356.4587097167969 199.8592071533203 357.9088134765625 C 195.46176147460938 353.68524169921875 196.62220764160156 360.71539306640625 191.70437622070312 356.2914733886719 C 191.4925079345703 340.9050598144531 197.36767578125 329.2140197753906 194.09678649902344 312.80279541015625 C 179.27212524414062 318.01763916015625 170.18186950683594 326.66937255859375 156.671875 333.52362060546875 C 153.93751525878906 336.7834167480469 153.03707885742188 345.3366394042969 153.45516967773438 355.4342041015625 C 153.17437744140625 355.95306396484375 149.45278930664062 355.03497314453125 145.90469360351562 356.0923156738281 C 143.52899169921875 341.4444580078125 136.6700897216797 329.5648498535156 140.9577178955078 320.62347412109375 C 154.71499633789062 311.0290832519531 171.9063720703125 304.4648132324219 181.45111083984375 293.9499816894531 C 183.95159912109375 283.2447814941406 176.17059326171875 285.87762451171875 158.4864501953125 287.33740234375 C 157.046142578125 285.2657470703125 154.06851196289062 281.2781982421875 154.70574951171875 279.9590759277344 C 117.96282196044922 282.6012268066406 76.59095764160156 279.9237976074219 55.882625579833984 285.7184143066406 C 44.36719512939453 293.4253234863281 33.96764373779297 298.4367370605469 24.153135299682617 302.3824157714844 C 15.353757858276367 312.7648010253906 14.952067375183105 327.8316650390625 -6.459332466125488 326.33489990234375" stroke-width="0.0" fill="rgb(191, 171, 133)" opacity="1.0224878" stroke="rgb(0, 0, 0)" stroke-opacity="1.0" stroke-linecap="round" stroke-linejoin="round"/>
    <path d="M 254.44827270507812 275.39874267578125 C 253.7293243408203 281.22271728515625 249.06430053710938 292.6874694824219 257.0443115234375 293.0937194824219 C 270.5377502441406 303.12872314453125 289.450927734375 295.7321472167969 314.4593505859375 299.7916564941406 C 328.5479431152344 302.9365234375 326.44549560546875 313.2181701660156 328.2257385253906 324.1943664550781 C 335.1092834472656 334.3140563964844 346.3734436035156 330.63531494140625 344.78515625 336.9003601074219 C 347.4241027832031 355.62548828125 349.647705078125 376.0654296875 346.13067626953125 390.7764587402344 C 339.0028381347656 398.32135009765625 331.5616760253906 403.6856994628906 328.9590759277344 414.7925109863281 C 321.46728515625 422.53076171875 313.6560363769531 425.21527099609375 305.8398132324219 428.4935302734375 C 305.3836975097656 432.0931396484375 305.75341796875 433.47857666015625 312.700927734375 437.5589599609375 C 345.66302490234375 430.6831359863281 372.2614440917969 443.55206298828125 425.2080078125 439.97589111328125 C 444.92706298828125 427.669677734375 485.7240905761719 427.9700622558594 511.97930908203125 412.6533508300781 C 505.08489990234375 410.6207580566406 499.358154296875 412.5702209472656 500.06005859375 411.50836181640625 C 498.1612243652344 401.6305847167969 494.9574890136719 396.3661193847656 493.2703552246094 390.0202941894531 C 497.30474853515625 381.2947692871094 502.0264892578125 367.736328125 509.4101867675781 350.8188171386719 C 507.454345703125 342.2868347167969 503.2219543457031 333.860595703125 501.29705810546875 324.8336181640625 C 502.9211120605469 313.3924255371094 512.2025756835938 310.4248962402344 509.8070983886719 306.64215087890625 C 511.8472595214844 287.97967529296875 509.9058837890625 281.1278991699219 503.2386169433594 275.42889404296875 C 502.6667175292969 269.9107360839844 494.967041015625 265.8612976074219 485.7848205566406 258.9036865234375 C 479.7940979003906 249.97781372070312 460.72613525390625 251.13946533203125 444.7529296875 253.21023559570312 C 426.4273376464844 253.83114624023438 419.1515197753906 259.1773681640625 409.50213623046875 265.49102783203125 C 402.07537841796875 266.4880065917969 400.5869445800781 265.4261169433594 402.7508850097656 263.91943359375 C 402.6870422363281 262.0827331542969 404.2082214355469 264.0748291015625 398.47247314453125 265.59228515625 C 393.2701721191406 265.2799377441406 395.1423034667969 262.0796203613281 397.04742431640625 265.53863525390625 C 389.6168518066406 264.62615966796875 380.2391357421875 266.4730224609375 370.52618408203125 264.37371826171875 C 357.1341247558594 248.76478576660156 353.3841247558594 234.81227111816406 340.37542724609375 234.666259765625 C 328.49908447265625 234.6590118408203 328.6892395019531 249.63926696777344 316.3963623046875 251.7644805908203 C 301.73980712890625 254.24212646484375 284.45843505859375 252.88990783691406 271.4927062988281 257.4333801269531 C 263.9450988769531 260.7643127441406 260.7103576660156 267.807861328125 254.44827270507812 275.39874267578125" stroke-width="0.0" fill="rgb(83, 77, 73)" opacity="0.9657695" stroke="rgb(0, 0, 0)" stroke-opacity="1.0" stroke-linecap="round" stroke-linejoin="round"/>
    <path d="M -6.063592910766602 186.0670623779297 C -6.207618713378906 231.15631103515625 -6.413629531860352 278.58837890625 -6.132244110107422 325.6507873535156 C 14.327139854431152 323.3303527832031 14.211281776428223 310.130859375 20.29704475402832 301.48651123046875 C 33.53596878051758 295.56195068359375 42.963558197021484 287.54449462890625 56.38551330566406 283.4597473144531 C 85.28547668457031 272.849853515625 126.44424438476562 280.56451416015625 153.20645141601562 272.5890197753906 C 158.18313598632812 257.1947021484375 156.2892303466797 241.7131805419922 153.69261169433594 224.21139526367188 C 145.2476806640625 224.96954345703125 131.84771728515625 225.195068359375 114.47274780273438 224.4041748046875 C 104.4791259765625 219.41192626953125 94.5028076171875 214.9458770751953 79.74010467529297 216.2818603515625 C 84.09014892578125 204.2869110107422 73.43766021728516 208.4746551513672 76.42888641357422 198.5406494140625 C 71.09980010986328 191.7070770263672 63.57455062866211 190.29563903808594 58.277076721191406 188.56407165527344 C 37.68102264404297 189.48846435546875 17.549131393432617 184.6755828857422 -6.063592910766602 186.0670623779297" stroke-width="0.0" fill="rgb(112, 118, 121)" opacity="1.0046237" stroke="rgb(0, 0, 0)" stroke-opacity="1.0" stroke-linecap="round" stroke-linejoin="round"/>
    <path d="M 200.41729736328125 146.159912109375 C 195.4774627685547 147.4891357421875 191.8192901611328 147.5481719970703 191.1036376953125 150.4993133544922 C 188.2823944091797 154.58236694335938 189.18118286132812 159.1259765625 189.0806884765625 170.6566925048828 C 182.5229034423828 176.62521362304688 174.8032684326172 181.54612731933594 170.47451782226562 190.46292114257812 C 165.02659606933594 199.61607360839844 160.31016540527344 210.6796417236328 157.13941955566406 222.4120330810547 C 156.7832794189453 231.94024658203125 157.09512329101562 246.9612274169922 162.32823181152344 254.74046325683594 C 164.27220153808594 264.9028625488281 173.0972137451172 258.4697570800781 178.10009765625 269.9098205566406 C 181.97463989257812 278.26116943359375 187.8531494140625 283.81207275390625 185.169921875 296.5885925292969 C 173.08193969726562 303.64959716796875 158.02244567871094 312.4528503417969 143.1424102783203 321.12078857421875 C 141.86666870117188 324.1525573730469 140.7482452392578 324.30487060546875 140.46792602539062 327.8155517578125 C 141.5738067626953 335.1263732910156 144.3738250732422 338.77545166015625 148.2365264892578 343.4472351074219 C 154.23365783691406 328.5377197265625 178.77700805664062 320.4971923828125 194.75271606445312 309.8397216796875 C 198.35203552246094 321.6639404296875 193.923583984375 333.8558654785156 193.8086395263672 351.1250305175781 C 196.20265197753906 356.8671569824219 200.4488525390625 356.0875549316406 209.24244689941406 353.57977294921875 C 210.57669067382812 342.0115966796875 215.2168426513672 329.010009765625 216.14378356933594 303.2707824707031 C 215.73123168945312 286.6719970703125 208.6495361328125 267.7949523925781 209.39111328125 243.1044921875 C 215.62277221679688 231.10238647460938 225.8007049560547 224.25148010253906 227.4504852294922 208.17367553710938 C 214.46572875976562 199.41629028320312 211.6651611328125 189.2095947265625 204.25482177734375 179.10243225097656 C 203.5437774658203 169.24264526367188 209.5062713623047 163.25759887695312 209.12893676757812 156.1322021484375 C 208.32066345214844 147.66078186035156 204.56680297851562 147.3774871826172 200.41729736328125 146.159912109375" stroke-width="0.0" fill="rgb(76, 67, 67)" opacity="0.8597967" stroke="rgb(0, 0, 0)" stroke-opacity="1.0" stroke-linecap="round" stroke-linejoin="round"/>
    <path d="M 516.4639282226562 190.36871337890625 C 520.4425659179688 172.02276611328125 518.6441040039062 152.47377014160156 518.9876098632812 132.70326232910156 C 485.95013427734375 133.87001037597656 460.4320068359375 133.71592712402344 435.78729248046875 137.60723876953125 C 421.9986267089844 139.85968017578125 408.5816345214844 141.86944580078125 402.5322265625 147.78729248046875 C 398.35400390625 153.87246704101562 403.5730895996094 160.6365966796875 410.92755126953125 167.91079711914062 C 430.3819885253906 170.541015625 458.9571533203125 170.87564086914062 495.66937255859375 168.25653076171875 C 503.0557556152344 167.19717407226562 501.4331970214844 181.43667602539062 516.4639282226562 190.36871337890625" stroke-width="0.0" fill="rgb(74, 80, 88)" opacity="0.95451516" stroke="rgb(0, 0, 0)" stroke-opacity="1.0" stroke-linecap="round" stroke-linejoin="round"/>
    <path d="M 451.1842041015625 202.00379943847656 C 448.4872131347656 185.96795654296875 438.72833251953125 191.7931365966797 427.33099365234375 190.9451141357422 C 379.2530822753906 189.34715270996094 332.8558349609375 189.67068481445312 296.03399658203125 195.7567596435547 C 286.64349365234375 199.57127380371094 282.7979431152344 204.6231689453125 280.596435546875 209.4158935546875 C 274.03350830078125 211.96360778808594 267.04547119140625 210.91702270507812 261.9435729980469 214.50039672851562 C 291.4442443847656 219.885986328125 318.419677734375 217.34317016601562 352.590576171875 216.0826416015625 C 383.9083557128906 207.15469360351562 420.06964111328125 204.72036743164062 451.1842041015625 202.00379943847656" stroke-width="0.0" fill="rgb(74, 52, 51)" opacity="1.1530205" stroke="rgb(0, 0, 0)" stroke-opacity="1.0" stroke-linecap="round" stroke-linejoin="round"/>
    <path d="M 518.1219482421875 114.99617767333984 C 486.4237365722656 115.97710418701172 464.6668395996094 119.14698791503906 445.0873107910156 125.3526840209961 C 435.4694519042969 127.4117431640625 424.20220947265625 131.7473907470703 418.6645812988281 139.4707489013672 C 449.9826354980469 134.2769012451172 483.14251708984375 133.29989624023438 518.5308227539062 131.69293212890625 C 518.3955688476562 122.1197738647461 519.5631103515625 115.52323150634766 518.1219482421875 114.99617767333984" stroke-width="0.0" fill="rgb(139, 180, 219)" opacity="1.0068585" stroke="rgb(0, 0, 0)" stroke-opacity="1.0" stroke-linecap="round" stroke-linejoin="round"/>
    <path d="M 518.0729370117188 308.5566101074219 C 506.2696533203125 313.65576171875 501.38214111328125 319.50531005859375 501.4447326660156 328.0546875 C 503.57879638671875 332.16552734375 507.6357727050781 341.4005126953125 508.0713195800781 350.81793212890625 C 506.9989013671875 365.051513671875 500.25616455078125 372.660400390625 493.3602600097656 382.9751281738281 C 491.6913757324219 387.8834228515625 494.17822265625 392.23681640625 496.6135559082031 393.1928405761719 C 500.46343994140625 394.34564208984375 507.68243408203125 394.3492736816406 517.6475219726562 393.9010925292969 C 518.1461181640625 365.3016357421875 519.48583984375 336.8244934082031 518.0729370117188 308.5566101074219" stroke-width="0.0" fill="rgb(203, 178, 132)" opacity="0.97291124" stroke="rgb(0, 0, 0)" stroke-opacity="1.0" stroke-linecap="round" stroke-linejoin="round"/>
    <path d="M 374.0929260253906 211.6548309326172 C 369.3314514160156 214.51441955566406 367.15716552734375 221.1289825439453 378.11572265625 220.8314208984375 C 412.576904296875 228.77027893066406 455.6137390136719 219.1826934814453 517.719482421875 223.32418823242188 C 520.111328125 214.66880798339844 520.2786865234375 202.61767578125 517.0791625976562 189.25477600097656 C 501.53369140625 183.97988891601562 499.74530029296875 176.13104248046875 501.73126220703125 166.63023376464844 C 475.2981262207031 160.18162536621094 464.3151550292969 170.47628784179688 456.22528076171875 168.77293395996094 C 433.51312255859375 168.29559326171875 416.7357482910156 164.88572692871094 399.25494384765625 160.52061462402344 C 398.3905029296875 163.90887451171875 399.4020080566406 168.90847778320312 400.4494323730469 174.40354919433594 C 397.7146301269531 178.1122283935547 390.2979736328125 174.11093139648438 389.2945556640625 177.58016967773438 C 404.6601257324219 178.64332580566406 418.24371337890625 182.49124145507812 430.1923522949219 184.6121368408203 C 428.88671875 182.05096435546875 429.35540771484375 188.00369262695312 433.8932189941406 185.1869659423828 C 439.1965026855469 186.0830535888672 440.39324951171875 188.99917602539062 440.28350830078125 189.6227264404297 C 451.807373046875 191.8009490966797 454.80535888671875 195.64498901367188 450.2225036621094 202.0547637939453 C 428.49322509765625 207.00079345703125 394.2890625 204.38490295410156 374.0929260253906 211.6548309326172" stroke-width="0.0" fill="rgb(203, 228, 236)" opacity="1.0044488" stroke="rgb(0, 0, 0)" stroke-opacity="1.0" stroke-linecap="round" stroke-linejoin="round"/>
    <path d="M 254.69236755371094 224.36117553710938 C 245.15455627441406 219.7191925048828 233.3583221435547 223.63536071777344 230.19786071777344 220.6232147216797 C 223.39862060546875 225.7958526611328 215.06582641601562 225.88973999023438 210.16824340820312 237.80674743652344 C 207.98757934570312 258.45684814453125 213.90301513671875 276.3987731933594 217.429931640625 297.78521728515625 C 225.24951171875 295.4786376953125 233.51698303222656 294.6119689941406 239.09951782226562 292.5137023925781 C 244.99191284179688 289.1955261230469 249.6584930419922 285.7508544921875 251.27232360839844 279.49981689453125 C 252.61045837402344 260.9170227050781 254.37767028808594 242.1549072265625 254.69236755371094 224.36117553710938" stroke-width="0.0" fill="rgb(129, 162, 168)" opacity="0.9573327" stroke="rgb(0, 0, 0)" stroke-opacity="1.0" stroke-linecap="round" stroke-linejoin="round"/>
    <path d="M 355.76971435546875 227.35830688476562 C 352.9756774902344 230.933349609375 354.77960205078125 232.87191772460938 353.98193359375 240.17034912109375 C 388.1961669921875 239.81094360351562 421.010498046875 244.95069885253906 456.3777160644531 249.826416015625 C 472.7275695800781 253.83343505859375 484.1593933105469 259.88433837890625 491.2373352050781 246.73724365234375 C 496.81201171875 242.0621337890625 485.45947265625 241.42921447753906 479.1878356933594 237.09054565429688 C 445.3318176269531 229.06724548339844 411.2070007324219 227.2491912841797 374.0583801269531 222.58499145507812 C 367.6274719238281 222.75709533691406 359.6912841796875 226.33425903320312 355.76971435546875 227.35830688476562" stroke-width="0.0" fill="rgb(213, 217, 218)" opacity="1.0060796" stroke="rgb(0, 0, 0)" stroke-opacity="1.0" stroke-linecap="round" stroke-linejoin="round"/>
    <path d="M 292.97637939453125 195.2711944580078 C 342.0910339355469 189.8212432861328 393.341796875 188.96737670898438 444.2864990234375 191.16749572753906 C 434.6781311035156 182.8067626953125 426.86151123046875 181.60671997070312 413.4290771484375 181.0483856201172 C 385.2066345214844 176.68923950195312 351.2478332519531 179.1182861328125 318.2785339355469 182.88368225097656 C 311.6290588378906 185.8143310546875 300.4921875 188.92337036132812 292.97637939453125 195.2711944580078" stroke-width="0.0" fill="rgb(120, 164, 210)" opacity="0.974888" stroke="rgb(0, 0, 0)" stroke-opacity="1.0" stroke-linecap="round" stroke-linejoin="round"/>
    <path d="M -3.2758796215057373 150.4213409423828 C -0.8025480508804321 162.0 -0.06993038952350616 173.0 -4.222141265869141 184.61318969726562 C 22.269668579101562 185.0536346435547 46.926021575927734 187.60926818847656 70.57499694824219 189.23910522460938 C 56.13993835449219 177.70730590820312 36.97151565551758 176.41477966308594 15.76201343536377 175.03811645507812 C 14.77788257598877 166.58624267578125 13.939774513244629 159.53382873535156 11.41640853881836 154.7425079345703 C 7.995410919189453 152.12974548339844 5.889394283294678 149.65365600585938 -3.2758796215057373 150.4213409423828" stroke-width="0.0" fill="rgb(201, 197, 154)" opacity="0.99938464" stroke="rgb(0, 0, 0)" stroke-opacity="1.0" stroke-linecap="round" stroke-linejoin="round"/>
    <path d="M 352.23150634765625 236.9597625732422 C 354.8894348144531 248.78579711914062 364.85467529296875 254.653564453125 369.9205322265625 264.77276611328125 C 383.3653564453125 265.69708251953125 397.1168518066406 265.76220703125 412.37188720703125 266.29150390625 C 417.36322021484375 258.79681396484375 426.21697998046875 256.0869140625 436.9197692871094 253.677978515625 C 457.63885498046875 253.498291015625 477.68438720703125 263.1408386230469 488.73468017578125 254.54991149902344 C 444.4308166503906 247.50607299804688 399.5725402832031 241.5707244873047 352.23150634765625 236.9597625732422" stroke-width="0.0" fill="rgb(137, 142, 146)" opacity="0.98025686" stroke="rgb(0, 0, 0)" stroke-opacity="1.0" stroke-linecap="round" stroke-linejoin="round"/>
    <path d="M 316.5354309082031 231.8052215576172 C 301.708740234375 226.28250122070312 286.552978515625 225.7345733642578 259.6300354003906 229.49391174316406 C 257.40673828125 232.9176788330078 252.2288055419922 238.23883056640625 253.70635986328125 248.07000732421875 C 272.0281982421875 248.45025634765625 291.38018798828125 246.86427307128906 308.9718933105469 250.42735290527344 C 315.56402587890625 245.80499267578125 318.3638610839844 241.65402221679688 316.5354309082031 231.8052215576172" stroke-width="0.0" fill="rgb(158, 163, 164)" opacity="0.9926441" stroke="rgb(0, 0, 0)" stroke-opacity="1.0" stroke-linecap="round" stroke-linejoin="round"/>
    <path d="M 464.31597900390625 224.43939208984375 C 476.63360595703125 234.19908142089844 489.240478515625 239.19654846191406 497.87469482421875 253.0847930908203 C 493.2042236328125 263.446533203125 498.34088134765625 274.8057556152344 508.14459228515625 283.79241943359375 C 508.7329406738281 265.61761474609375 510.5595703125 247.63128662109375 511.2340393066406 223.76625061035156 C 499.02685546875 223.94252014160156 478.6817932128906 223.66407775878906 464.31597900390625 224.43939208984375" stroke-width="0.0" fill="rgb(139, 163, 174)" opacity="1.0683964" stroke="rgb(0, 0, 0)" stroke-opacity="1.0" stroke-linecap="round" stroke-linejoin="round"/>
    <path d="M 365.1005859375 220.5709228515625 C 346.77789306640625 217.84112548828125 331.6334228515625 222.7207489013672 317.69488525390625 219.13038635253906 C 315.5123291015625 224.1754913330078 309.2122802734375 221.8134307861328 308.20477294921875 226.5041961669922 C 319.98944091796875 228.82571411132812 315.4552917480469 240.57440185546875 322.2670593261719 251.31777954101562 C 324.9313049316406 237.79762268066406 332.917236328125 234.3638458251953 337.4971618652344 225.5469207763672 C 342.46063232421875 228.99703979492188 349.3921813964844 224.8750762939453 355.1663513183594 229.69273376464844 C 357.7493591308594 225.46607971191406 357.04937744140625 221.4981689453125 365.1005859375 220.5709228515625" stroke-width="0.0" fill="rgb(137, 179, 194)" opacity="0.98610574" stroke="rgb(0, 0, 0)" stroke-opacity="1.0" stroke-linecap="round" stroke-linejoin="round"/>
    <path d="M 433.5050964355469 254.96983337402344 C 410.0218811035156 264.10394287109375 413.2772216796875 287.7427673339844 391.0740966796875 293.1044006347656 C 392.0303649902344 310.9706115722656 398.2914733886719 320.73394775390625 398.6533203125 335.82135009765625 C 405.9183044433594 341.3040466308594 405.7265319824219 349.63519287109375 414.8720397949219 352.15118408203125 C 423.3619079589844 357.2139587402344 435.6339416503906 357.3849792480469 443.10064697265625 362.09478759765625 C 449.0851135253906 367.49700927734375 447.2275695800781 375.3811950683594 450.58306884765625 383.7861022949219 C 470.00860595703125 384.385986328125 474.3880615234375 387.8302001953125 489.6173400878906 395.39837646484375 C 487.97216796875 372.0342712402344 503.69427490234375 369.71527099609375 505.91015625 348.67230224609375 C 506.32012939453125 340.17626953125 500.2403869628906 333.77001953125 499.2355651855469 327.9457702636719 C 500.4994812011719 316.9555969238281 505.0060729980469 314.7347717285156 508.3724365234375 308.55169677734375 C 511.2037658691406 301.76153564453125 509.33856201171875 285.8935546875 507.1276550292969 285.9437255859375 C 501.4771728515625 274.7552490234375 496.2311096191406 266.3816833496094 482.70880126953125 252.2648468017578 C 477.8924865722656 250.1729736328125 458.46978759765625 255.43283081054688 433.5050964355469 254.96983337402344" stroke-width="0.0" fill="rgb(63, 63, 65)" opacity="0.91925037" stroke="rgb(0, 0, 0)" stroke-opacity="1.0" stroke-linecap="round" stroke-linejoin="round"/>
    <path d="M 206.0098114013672 148.21913146972656 C 198.24002075195312 145.33193969726562 193.6615753173828 148.18499755859375 191.95343017578125 150.4447479248047 C 188.96099853515625 153.92442321777344 191.34808349609375 162.26866149902344 189.6428680419922 170.65757751464844 C 185.1168212890625 175.70872497558594 176.43032836914062 179.17599487304688 172.25177001953125 187.1260986328125 C 166.88031005859375 197.30934143066406 161.42762756347656 207.70712280273438 158.64498901367188 218.8293914794922 C 155.30850219726562 230.83009338378906 157.18499755859375 234.7896270751953 159.35723876953125 245.4657440185547 C 161.77024841308594 250.75930786132812 167.32894897460938 256.53387451171875 176.55149841308594 260.2386779785156 C 174.14695739746094 256.7539367675781 176.0269012451172 252.0538787841797 179.9595489501953 251.18544006347656 C 187.45166015625 249.76571655273438 196.17236328125 250.68310546875 209.16160583496094 249.74429321289062 C 207.8536834716797 233.72532653808594 215.5203094482422 229.4504852294922 224.17721557617188 221.78195190429688 C 227.9693145751953 214.36212158203125 225.99618530273438 207.064697265625 223.1564178466797 203.89671325683594 C 211.41517639160156 200.28123474121094 212.2676239013672 186.7477569580078 203.1986846923828 178.66807556152344 C 201.2302703857422 164.33035278320312 206.6152801513672 168.21209716796875 209.54541015625 155.90721130371094 C 209.4271240234375 152.27081298828125 206.34564208984375 148.97305297851562 206.0098114013672 148.21913146972656" stroke-width="0.0" fill="rgb(68, 68, 68)" opacity="0.94138867" stroke="rgb(0, 0, 0)" stroke-opacity="1.0" stroke-linecap="round" stroke-linejoin="round"/>
    <path d="M 208.60411071777344 248.9056854248047 C 192.5623779296875 251.7853240966797 178.26693725585938 247.70323181152344 175.78697204589844 253.96348571777344 C 173.29595947265625 269.2840881347656 187.80496215820312 275.2959899902344 185.21609497070312 296.32623291015625 C 173.514892578125 303.1306457519531 160.27622985839844 311.8754577636719 145.178466796875 320.02197265625 C 140.81329345703125 324.7620544433594 139.15342712402344 329.2660827636719 146.85264587402344 337.82415771484375 C 164.01063537597656 331.1473388671875 176.6948699951172 318.2407531738281 194.84945678710938 310.5436706542969 C 199.0178985595703 319.9835510253906 193.2141876220703 337.8938293457031 193.57687377929688 352.805419921875 C 195.86380004882812 354.0469665527344 198.25604248046875 356.56573486328125 208.1796875 353.4288330078125 C 212.4129638671875 335.2477111816406 216.91998291015625 319.7082214355469 216.263916015625 298.58367919921875 C 212.93621826171875 279.6274719238281 209.879150390625 263.9404296875 208.60411071777344 248.9056854248047" stroke-width="0.0" fill="rgb(68, 66, 65)" opacity="0.9224737" stroke="rgb(0, 0, 0)" stroke-opacity="1.0" stroke-linecap="round" stroke-linejoin="round"/>
    <path d="M -4.479147434234619 184.0226593017578 C -4.845511436462402 194.1001739501953 -3.5158867835998535 204.66497802734375 -1.9445667266845703 214.3415069580078 C 15.02525520324707 214.69313049316406 31.839021682739258 214.68453979492188 49.40938949584961 219.61561584472656 C 54.61186218261719 216.66941833496094 49.57574462890625 228.107421875 57.97734832763672 227.3460693359375 C 61.56694412231445 231.53634643554688 57.63973617553711 222.530029296875 65.15699768066406 219.50137329101562 C 72.48780059814453 216.2461395263672 85.84628295898438 216.4076385498047 98.05801391601562 214.25125122070312 C 80.80081939697266 208.300537109375 79.71937561035156 191.78465270996094 65.29679107666016 189.86508178710938 C 43.762935638427734 185.40878295898438 22.09855842590332 184.43714904785156 -4.479147434234619 184.0226593017578" stroke-width="0.0" fill="rgb(141, 110, 73)" opacity="0.95311797" stroke="rgb(0, 0, 0)" stroke-opacity="1.0" stroke-linecap="round" stroke-linejoin="round"/>
    <path d="M 368.31756591796875 353.6108703613281 C 365.7872619628906 364.92529296875 368.1222839355469 371.3142395019531 374.07598876953125 378.8764953613281 C 393.702392578125 378.71099853515625 412.4848937988281 381.44354248046875 431.29156494140625 382.5733947753906 C 439.8321838378906 380.50634765625 443.889892578125 379.9427795410156 444.045166015625 374.10272216796875 C 444.515380859375 365.9571228027344 441.8551330566406 362.6660461425781 437.8553771972656 360.5872802734375 C 418.867919921875 357.700439453125 404.8648986816406 355.0102233886719 389.9459533691406 352.09967041015625 C 378.687744140625 351.1602478027344 370.1173400878906 352.11279296875 368.31756591796875 353.6108703613281" stroke-width="0.0" fill="rgb(107, 94, 81)" opacity="0.90304816" stroke="rgb(0, 0, 0)" stroke-opacity="1.0" stroke-linecap="round" stroke-linejoin="round"/>
    <path d="M 181.58840942382812 358.9707336425781 C 169.04579162597656 353.6920471191406 154.9160614013672 355.1706848144531 136.42169189453125 355.5206298828125 C 125.07780456542969 358.90924072265625 109.80296325683594 359.6788635253906 101.42127227783203 361.8152770996094 C 96.60513305664062 365.9886474609375 94.52638244628906 365.7794189453125 99.77961730957031 372.317626953125 C 102.52961730957031 375.4960632324219 116.65597534179688 374.761474609375 132.86245727539062 375.5686950683594 C 150.63693237304688 369.8087158203125 170.69564819335938 369.9999694824219 181.58840942382812 358.9707336425781" stroke-width="0.0" fill="rgb(62, 58, 54)" opacity="0.96365297" stroke="rgb(0, 0, 0)" stroke-opacity="1.0" stroke-linecap="round" stroke-linejoin="round"/>
    <path d="M 294.25555419921875 434.1408386230469 C 313.36614990234375 441.9119873046875 337.5282897949219 439.11175537109375 356.5703430175781 444.7840270996094 C 387.1192932128906 447.32855224609375 411.30389404296875 441.7950744628906 441.5308837890625 443.21221923828125 C 446.3616943359375 441.1919250488281 449.008544921875 435.9322509765625 449.99224853515625 431.6069030761719 C 470.1480407714844 433.65643310546875 492.8932189941406 431.4095153808594 517.1312255859375 436.866455078125 C 517.9432373046875 422.6437072753906 517.9959106445312 409.43060302734375 515.1527099609375 399.02349853515625 C 467.0805358886719 385.1745300292969 420.5322570800781 380.68798828125 368.7899475097656 378.1401062011719 C 338.70770263671875 390.48486328125 332.6614685058594 421.8846130371094 294.25555419921875 434.1408386230469" stroke-width="0.0" fill="rgb(32, 33, 35)" opacity="0.9987821" stroke="rgb(0, 0, 0)" stroke-opacity="1.0" stroke-linecap="round" stroke-linejoin="round"/>
    <path d="M 318.2621154785156 251.56101989746094 C 293.7288818359375 250.32032775878906 274.1700744628906 250.2626495361328 255.35287475585938 258.7894592285156 C 248.29820251464844 260.13763427734375 257.6026916503906 280.20428466796875 242.7561492919922 297.4299011230469 C 257.96795654296875 306.61944580078125 281.13665771484375 302.46502685546875 312.8059387207031 301.29302978515625 C 315.97930908203125 300.2209167480469 319.1199645996094 294.2345275878906 320.4643249511719 285.2646484375 C 319.23492431640625 275.0750732421875 318.38623046875 263.0632629394531 318.2621154785156 251.56101989746094" stroke-width="0.0" fill="rgb(79, 70, 70)" opacity="0.96373856" stroke="rgb(0, 0, 0)" stroke-opacity="1.0" stroke-linecap="round" stroke-linejoin="round"/>
    <path d="M 337.2887268066406 228.60108947753906 C 330.2762756347656 234.44444274902344 324.88946533203125 239.7321014404297 322.073486328125 249.9200897216797 C 320.9671325683594 278.5878601074219 325.5929260253906 300.404052734375 326.4020080566406 325.5561828613281 C 327.5217590332031 328.2913513183594 328.9787292480469 331.0137023925781 332.49249267578125 330.54449462890625 C 339.3772888183594 330.0598449707031 343.4986572265625 331.3934020996094 345.8400573730469 324.0285949707031 C 345.85003662109375 306.58953857421875 345.87103271484375 292.9378967285156 353.24261474609375 276.3100280761719 C 351.895751953125 258.0242614746094 355.1670227050781 242.17459106445312 350.94622802734375 230.4626922607422 C 346.72589111328125 232.52542114257812 343.34088134765625 231.2133026123047 337.2887268066406 228.60108947753906" stroke-width="0.0" fill="rgb(99, 102, 110)" opacity="1.0277225" stroke="rgb(0, 0, 0)" stroke-opacity="1.0" stroke-linecap="round" stroke-linejoin="round"/>
    <path d="M 2.3186423778533936 265.5260314941406 C -0.02520999312400818 266.35955810546875 -3.776540517807007 260.5541687011719 -7.215945243835449 247.43527221679688 C -6.79028844833374 277.2239074707031 -7.792566776275635 303.4862976074219 -5.2812604904174805 329.44512939453125 C 5.9643144607543945 326.5404052734375 12.350425720214844 326.4803466796875 14.859956741333008 321.0674743652344 C 17.32069969177246 317.0192565917969 18.343584060668945 309.39056396484375 17.841970443725586 301.93572998046875 C 30.532773971557617 297.522216796875 47.902950286865234 298.477294921875 53.46756362915039 284.8156433105469 C 49.57774353027344 274.84442138671875 37.85477066040039 275.5377197265625 30.259809494018555 274.9628601074219 C 22.3682918548584 270.15704345703125 9.07361888885498 269.45379638671875 2.3186423778533936 265.5260314941406" stroke-width="0.0" fill="rgb(41, 40, 39)" opacity="1.1489298" stroke="rgb(0, 0, 0)" stroke-opacity="1.0" stroke-linecap="round" stroke-linejoin="round"/>
    <path d="M 196.49517822265625 311.5923767089844 C 180.32781982421875 316.67877197265625 168.44032287597656 325.264892578125 153.0745391845703 333.4629821777344 C 152.886962890625 335.9548034667969 150.80059814453125 347.6907958984375 151.37867736816406 353.9556579589844 C 160.78305053710938 355.8232727050781 176.11181640625 359.1146240234375 190.2107696533203 355.81060791015625 C 194.8396453857422 344.7587585449219 196.98455810546875 330.5624694824219 196.49517822265625 311.5923767089844" stroke-width="0.0" fill="rgb(191, 170, 134)" opacity="0.85862565" stroke="rgb(0, 0, 0)" stroke-opacity="1.0" stroke-linecap="round" stroke-linejoin="round"/>
    <path d="M 252.2575225830078 214.76068115234375 C 269.17327880859375 220.15989685058594 292.3103942871094 213.4917449951172 300.6946716308594 225.5754852294922 C 322.8230285644531 211.71678161621094 358.378662109375 221.11119079589844 371.6116943359375 214.7617950439453 C 342.6751708984375 205.7707061767578 311.3531188964844 206.9149627685547 285.40625 203.22726440429688 C 267.9740295410156 203.00668334960938 260.58001708984375 208.1508331298828 252.2575225830078 214.76068115234375" stroke-width="0.0" fill="rgb(125, 113, 99)" opacity="1.0759667" stroke="rgb(0, 0, 0)" stroke-opacity="1.0" stroke-linecap="round" stroke-linejoin="round"/>
    <path d="M 144.87478637695312 259.12103271484375 C 122.2730941772461 258.41314697265625 105.06871032714844 259.6043701171875 93.68708801269531 262.19024658203125 C 90.62828063964844 265.5914001464844 88.28858184814453 270.23779296875 86.33998107910156 277.5479736328125 C 92.56151580810547 280.26544189453125 101.1562728881836 283.3828125 118.35774230957031 281.1888427734375 C 128.91085815429688 278.32586669921875 136.9684295654297 277.09002685546875 145.87197875976562 276.0885925292969 C 148.95518493652344 270.7619323730469 152.7093048095703 266.03607177734375 144.87478637695312 259.12103271484375" stroke-width="0.0" fill="rgb(13, 26, 36)" opacity="0.99197376" stroke="rgb(0, 0, 0)" stroke-opacity="1.0" stroke-linecap="round" stroke-linejoin="round"/>
    <path d="M -2.8072705268859863 175.1321563720703 C -2.967369794845581 177.1953582763672 -1.2683391571044922 180.7703094482422 -1.4169988632202148 184.6466827392578 C 22.024431228637695 185.3770751953125 45.74884796142578 186.40147399902344 70.4877700805664 189.79220581054688 C 63.818359375 182.12103271484375 54.2386474609375 180.27671813964844 45.9344482421875 177.99098205566406 C 31.95567512512207 175.93951416015625 15.428059577941895 174.52142333984375 -2.8072705268859863 175.1321563720703" stroke-width="0.0" fill="rgb(129, 172, 211)" opacity="0.95602834" stroke="rgb(0, 0, 0)" stroke-opacity="1.0" stroke-linecap="round" stroke-linejoin="round"/>
    <path d="M -7.908509731292725 214.61903381347656 C -7.862281799316406 239.9358673095703 -7.086480617523193 257.7160949707031 -5.281218528747559 265.9167785644531 C 20.054901123046875 273.7776184082031 35.79594421386719 275.7034606933594 45.78902816772461 270.5284118652344 C 48.33380126953125 266.409912109375 46.019290924072266 254.73670959472656 47.2921142578125 251.56442260742188 C 54.89705276489258 248.22573852539062 49.352787017822266 256.6596984863281 50.337886810302734 269.56964111328125 C 55.3015251159668 266.8531494140625 52.63953399658203 254.7564697265625 53.31264877319336 240.88815307617188 C 51.550437927246094 247.66188049316406 45.31450653076172 240.86209106445312 47.29429244995117 244.24163818359375 C 49.11359786987305 241.19219970703125 52.51164627075195 239.51358032226562 54.772483825683594 236.99290466308594 C 55.5203857421875 247.04449462890625 54.79369354248047 263.0625915527344 54.769447326660156 269.12152099609375 C 72.86563873291016 271.86590576171875 71.64736938476562 266.5179748535156 76.62629699707031 276.8519287109375 C 85.76139831542969 277.93682861328125 89.68241119384766 274.3726806640625 90.90110778808594 268.0271911621094 C 114.58840942382812 267.05401611328125 136.8716583251953 263.6713562011719 155.23944091796875 254.34664916992188 C 155.8697509765625 250.5237274169922 152.73007202148438 235.9205322265625 154.62413024902344 222.97250366210938 C 109.64888763427734 228.7535400390625 102.49983215332031 212.10183715820312 67.09674072265625 217.53176879882812 C 53.87534713745117 212.18580627441406 60.92171859741211 221.23683166503906 58.923072814941406 228.05389404296875 C 58.21473693847656 229.8882293701172 54.68474578857422 232.20802307128906 48.116214752197266 226.50765991210938 C 50.610069274902344 227.95994567871094 53.65904235839844 220.42788696289062 49.57090377807617 218.89212036132812 C 33.3961296081543 215.365234375 18.414852142333984 213.63194274902344 -7.908509731292725 214.61903381347656" stroke-width="0.0" fill="rgb(98, 124, 140)" opacity="0.83125424" stroke="rgb(0, 0, 0)" stroke-opacity="1.0" stroke-linecap="round" stroke-linejoin="round"/>
    <path d="M 448.6542663574219 438.0893249511719 C 441.5400085449219 450.851806640625 450.56048583984375 449.89727783203125 451.6488952636719 462.34576416015625 C 454.03656005859375 463.3375549316406 464.62103271484375 465.6146240234375 472.2404479980469 464.34149169921875 C 472.8219299316406 471.05010986328125 469.1335754394531 473.1045837402344 479.0967102050781 472.6150817871094 C 482.56707763671875 477.8009338378906 474.2195129394531 472.47662353515625 471.3339538574219 478.6313781738281 C 476.2507019042969 479.0267639160156 482.01129150390625 477.7875671386719 478.2028503417969 482.9275817871094 C 468.829345703125 488.24273681640625 489.3609619140625 491.7626647949219 479.97564697265625 515.8470458984375 C 491.20269775390625 517.59423828125 501.9062805175781 517.6968994140625 520.4224243164062 517.941162109375 C 520.2955932617188 482.88507080078125 520.0928955078125 457.77825927734375 510.5304870605469 438.5660095214844 C 505.01092529296875 435.4375915527344 497.80389404296875 435.0992126464844 486.8533630371094 432.9114990234375 C 472.46343994140625 434.2547302246094 457.6742248535156 432.1577453613281 448.6542663574219 438.0893249511719" stroke-width="0.0" fill="rgb(190, 169, 128)" opacity="0.99693924" stroke="rgb(0, 0, 0)" stroke-opacity="1.0" stroke-linecap="round" stroke-linejoin="round"/>
    <path d="M 516.9945068359375 131.14210510253906 C 472.9880065917969 134.13742065429688 434.335693359375 134.658447265625 407.5417175292969 141.70260620117188 C 404.4531555175781 141.94317626953125 396.9581298828125 149.83929443359375 398.6917724609375 155.64207458496094 C 428.1750793457031 158.41612243652344 463.30914306640625 157.89198303222656 494.47174072265625 158.02804565429688 C 494.6878356933594 156.688232421875 491.89068603515625 157.083251953125 490.21795654296875 157.8217010498047 C 494.56036376953125 163.7545166015625 496.8737487792969 163.9615936279297 501.99755859375 163.1377716064453 C 502.4314880371094 153.9905242919922 503.40771484375 150.61611938476562 519.5794677734375 151.7688751220703 C 518.3822021484375 142.0234832763672 520.0245971679688 133.75457763671875 516.9945068359375 131.14210510253906" stroke-width="0.0" fill="rgb(74, 75, 94)" opacity="0.96905774" stroke="rgb(0, 0, 0)" stroke-opacity="1.0" stroke-linecap="round" stroke-linejoin="round"/>
    <path d="M 263.97955322265625 332.21923828125 C 283.35076904296875 334.31695556640625 306.7259521484375 334.33831787109375 330.7205505371094 333.9138488769531 C 323.1142578125 330.2080383300781 326.155029296875 320.36737060546875 324.2051086425781 309.5334167480469 C 314.22613525390625 312.1968688964844 318.72149658203125 303.8427734375 304.47332763671875 305.8785095214844 C 291.2793884277344 303.96575927734375 278.5689392089844 304.6490478515625 272.9250183105469 306.00164794921875 C 273.1185607910156 315.263427734375 270.9557800292969 323.6495056152344 272.9372863769531 327.1087341308594 C 271.71832275390625 332.4153137207031 263.9118347167969 327.97186279296875 263.97955322265625 332.21923828125" stroke-width="0.0" fill="rgb(134, 122, 101)" opacity="0.9449877" stroke="rgb(0, 0, 0)" stroke-opacity="1.0" stroke-linecap="round" stroke-linejoin="round"/>
    <path d="M 374.84783935546875 294.7203674316406 C 370.1677551269531 307.2037353515625 368.8125 320.5520935058594 373.6024169921875 343.1656494140625 C 374.2979431152344 344.884033203125 383.8614807128906 346.2606506347656 393.1152038574219 348.9267578125 C 395.619873046875 331.84771728515625 396.3140563964844 312.4139404296875 396.3329772949219 291.956787109375 C 389.6983947753906 290.8887023925781 380.2318420410156 293.76409912109375 374.84783935546875 294.7203674316406" stroke-width="0.0" fill="rgb(108, 97, 88)" opacity="1.0000399" stroke="rgb(0, 0, 0)" stroke-opacity="1.0" stroke-linecap="round" stroke-linejoin="round"/>
    <path d="M 348.1511535644531 334.8107604980469 C 337.0535583496094 349.6666259765625 340.5122375488281 352.1360778808594 346.24932861328125 378.5302734375 C 343.8667907714844 376.10369873046875 351.5063781738281 379.0564270019531 356.73992919921875 377.8764953613281 C 357.5135192871094 386.233642578125 353.7242126464844 395.38250732421875 358.17230224609375 401.3771057128906 C 362.4596252441406 396.2863464355469 360.9364318847656 386.3987731933594 363.9200744628906 376.9456481933594 C 364.8490295410156 373.79248046875 368.0213317871094 376.9665832519531 371.9684143066406 375.68951416015625 C 364.8896484375 364.737548828125 366.4431457519531 357.41796875 375.30401611328125 349.2371520996094 C 366.0056457519531 349.7969665527344 362.36920166015625 348.1644287109375 358.3655700683594 348.26898193359375 C 354.6514587402344 342.86248779296875 347.9151611328125 336.0808410644531 348.1511535644531 334.8107604980469" stroke-width="0.0" fill="rgb(53, 52, 60)" opacity="1.0044614" stroke="rgb(0, 0, 0)" stroke-opacity="1.0" stroke-linecap="round" stroke-linejoin="round"/>
    <path d="M 83.08626556396484 284.5413818359375 C 74.39925384521484 285.8161926269531 62.073184967041016 283.9287414550781 64.02479553222656 285.5046691894531 C 55.804256439208984 292.4338073730469 60.21241760253906 302.58099365234375 52.83660888671875 305.4942626953125 C 53.45003890991211 314.58184814453125 52.275028228759766 320.5809020996094 54.68362045288086 323.9799499511719 C 67.1263656616211 324.7186584472656 74.3293228149414 320.75909423828125 84.09861755371094 319.6235046386719 C 82.9870376586914 308.0451354980469 84.55082702636719 295.67755126953125 83.08626556396484 284.5413818359375" stroke-width="0.0" fill="rgb(160, 153, 139)" opacity="1.0055594" stroke="rgb(0, 0, 0)" stroke-opacity="1.0" stroke-linecap="round" stroke-linejoin="round"/>
    <path d="M 353.2133483886719 293.1864318847656 C 350.3854675292969 295.96051025390625 352.5283508300781 313.2484130859375 351.8787536621094 331.6045227050781 C 356.08392333984375 335.67584228515625 358.8952331542969 338.07293701171875 359.0817565917969 346.6503601074219 C 359.8307800292969 337.1873474121094 372.81341552734375 342.1827697753906 373.44171142578125 342.2596740722656 C 370.8771667480469 324.9998779296875 370.9492492675781 312.2959899902344 373.30426025390625 296.59771728515625 C 363.3833312988281 296.0903625488281 360.8381042480469 285.9660949707031 353.2133483886719 293.1864318847656" stroke-width="0.0" fill="rgb(51, 42, 48)" opacity="1.0016475" stroke="rgb(0, 0, 0)" stroke-opacity="1.0" stroke-linecap="round" stroke-linejoin="round"/>
    <path d="M 405.66424560546875 164.51438903808594 C 422.8031311035156 167.53038024902344 444.2235412597656 168.8974151611328 466.5140686035156 170.4766387939453 C 469.6053161621094 168.39283752441406 467.17529296875 163.33877563476562 468.0886535644531 162.8948516845703 C 483.90252685546875 163.1490478515625 495.25323486328125 164.36734008789062 496.79827880859375 157.11573791503906 C 478.4561462402344 157.3780975341797 456.4555969238281 156.77516174316406 438.6872863769531 156.1677703857422 C 427.60333251953125 157.0523223876953 413.95782470703125 156.86581420898438 403.99273681640625 156.31777954101562 C 407.71258544921875 158.7742156982422 402.82965087890625 159.4297637939453 405.66424560546875 164.51438903808594" stroke-width="0.0" fill="rgb(118, 92, 78)" opacity="0.9670707" stroke="rgb(0, 0, 0)" stroke-opacity="1.0" stroke-linecap="round" stroke-linejoin="round"/>
    <path d="M 41.5916748046875 299.99920654296875 C 30.901578903198242 299.4010925292969 23.64204216003418 302.2599182128906 17.01530647277832 303.26226806640625 C 18.267934799194336 309.39288330078125 14.076064109802246 315.7074279785156 13.799297332763672 327.3921813964844 C 25.436683654785156 325.60516357421875 37.29395294189453 325.903564453125 47.60213851928711 324.02801513671875 C 44.81997299194336 314.4423828125 44.442691802978516 304.9565124511719 41.5916748046875 299.99920654296875" stroke-width="0.0" fill="rgb(157, 139, 110)" opacity="0.93190145" stroke="rgb(0, 0, 0)" stroke-opacity="1.0" stroke-linecap="round" stroke-linejoin="round"/>
    <path d="M 453.2917785644531 200.38217163085938 C 451.83447265625 189.3922882080078 448.15924072265625 192.10177612304688 441.029541015625 189.85276794433594 C 387.76953125 189.70021057128906 334.446533203125 190.43882751464844 293.3982849121094 195.94496154785156 C 287.5347595214844 197.74758911132812 285.26556396484375 198.74606323242188 287.85797119140625 204.79598999023438 C 312.71978759765625 205.25820922851562 337.4355163574219 206.67112731933594 359.1455383300781 213.39031982421875 C 354.95184326171875 219.94248962402344 359.16314697265625 211.05032348632812 371.27838134765625 215.21365356445312 C 371.11627197265625 215.63961791992188 370.19476318359375 205.18592834472656 372.14154052734375 201.76210021972656 C 397.0947265625 197.07298278808594 388.32275390625 210.33892822265625 390.378662109375 207.63876342773438 C 421.2305603027344 205.09878540039062 441.8717346191406 205.70208740234375 453.2917785644531 200.38217163085938" stroke-width="0.0" fill="rgb(141, 94, 46)" opacity="0.8572048" stroke="rgb(0, 0, 0)" stroke-opacity="1.0" stroke-linecap="round" stroke-linejoin="round"/>
    <path d="M 352.5024108886719 236.77593994140625 C 351.71636962890625 247.38636779785156 355.9064025878906 252.29757690429688 362.0252380371094 256.4020080566406 C 412.77911376953125 251.45120239257812 456.43511962890625 254.63204956054688 496.5301513671875 255.0915985107422 C 446.8238525390625 246.8663330078125 399.0149230957031 242.6935577392578 352.5024108886719 236.77593994140625" stroke-width="0.0" fill="rgb(133, 134, 136)" opacity="1.0277238" stroke="rgb(0, 0, 0)" stroke-opacity="1.0" stroke-linecap="round" stroke-linejoin="round"/>
    <path d="M 370.1139831542969 264.7061767578125 C 383.42535400390625 265.31683349609375 396.05731201171875 267.22088623046875 410.6109924316406 265.9264221191406 C 416.08624267578125 263.2879638671875 421.44146728515625 257.9339904785156 430.0475769042969 253.9258575439453 C 408.1243591308594 252.89039611816406 387.41278076171875 253.9972381591797 370.1684265136719 255.79612731933594 C 368.6415100097656 256.2940979003906 369.5652770996094 262.5368957519531 370.1139831542969 264.7061767578125" stroke-width="0.0" fill="rgb(144, 171, 176)" opacity="0.99961025" stroke="rgb(0, 0, 0)" stroke-opacity="1.0" stroke-linecap="round" stroke-linejoin="round"/>
    <path d="M 465.284912109375 225.1487579345703 C 478.9741516113281 233.49844360351562 490.42572021484375 241.6623077392578 501.6993408203125 252.2200469970703 C 506.9684753417969 253.94400024414062 505.28753662109375 246.8612518310547 510.810791015625 245.95150756835938 C 511.20068359375 239.0733642578125 512.304443359375 229.74212646484375 510.0181579589844 223.75205993652344 C 495.85687255859375 224.83795166015625 479.281494140625 222.11712646484375 465.284912109375 225.1487579345703" stroke-width="0.0" fill="rgb(128, 177, 191)" opacity="1.0020181" stroke="rgb(0, 0, 0)" stroke-opacity="1.0" stroke-linecap="round" stroke-linejoin="round"/>
    <path d="M 127.26854705810547 505.1377868652344 C 134.55630493164062 513.199951171875 140.30397033691406 519.9737548828125 152.05711364746094 518.1517944335938 C 160.36672973632812 504.87225341796875 172.11685180664062 504.83758544921875 173.21917724609375 503.07525634765625 C 170.86978149414062 492.1463928222656 162.5735626220703 496.5782470703125 146.32952880859375 495.9027404785156 C 140.0132598876953 498.3214416503906 128.79766845703125 501.5273742675781 127.26854705810547 505.1377868652344" stroke-width="0.0" fill="rgb(188, 165, 121)" opacity="0.9991312" stroke="rgb(0, 0, 0)" stroke-opacity="1.0" stroke-linecap="round" stroke-linejoin="round"/>
    <path d="M 194.18875122070312 302.1028747558594 C 192.77163696289062 299.4225158691406 188.47824096679688 295.58013916015625 186.2086944580078 295.56793212890625 C 172.72299194335938 302.98394775390625 161.32550048828125 311.0774230957031 147.79420471191406 317.9080810546875 C 140.79869079589844 322.76629638671875 138.6121063232422 324.4191589355469 140.873046875 329.90289306640625 C 140.15206909179688 337.08026123046875 148.53231811523438 344.0239562988281 148.13584899902344 340.4971923828125 C 160.38343811035156 327.53155517578125 178.98971557617188 320.0633850097656 194.7279510498047 309.8750915527344 C 196.90882873535156 307.3623352050781 197.5834503173828 309.1512756347656 194.18875122070312 302.1028747558594" stroke-width="0.0" fill="rgb(22, 20, 22)" opacity="0.94132954" stroke="rgb(0, 0, 0)" stroke-opacity="1.0" stroke-linecap="round" stroke-linejoin="round"/>
    <path d="M 195.15591430664062 147.0100860595703 C 188.6834716796875 149.52508544921875 188.8166961669922 157.81063842773438 188.6231689453125 172.76792907714844 C 188.72084045410156 172.85784912109375 197.92213439941406 173.7633056640625 203.60292053222656 178.3715057373047 C 203.43621826171875 166.67034912109375 210.7996826171875 162.89002990722656 209.39755249023438 154.95486450195312 C 207.46788024902344 147.05224609375 201.91201782226562 143.54934692382812 195.15591430664062 147.0100860595703" stroke-width="0.0" fill="rgb(24, 27, 37)" opacity="0.9771152" stroke="rgb(0, 0, 0)" stroke-opacity="1.0" stroke-linecap="round" stroke-linejoin="round"/>
    <path d="M 298.8840026855469 437.9596252441406 C 312.902587890625 439.9716796875 338.8768005371094 439.8176574707031 361.69415283203125 446.2099304199219 C 388.84124755859375 445.0540771484375 419.6694641113281 443.8541259765625 445.3750915527344 443.79046630859375 C 448.18084716796875 433.424560546875 442.4770202636719 424.9764404296875 444.21502685546875 429.7544250488281 C 417.2146911621094 430.8981628417969 400.2371520996094 427.322998046875 384.3836975097656 420.4337158203125 C 361.53515625 419.34625244140625 339.2811584472656 420.1324462890625 317.2166748046875 420.069091796875 C 311.1586608886719 428.2516174316406 294.4053039550781 420.99591064453125 298.8840026855469 437.9596252441406" stroke-width="0.0" fill="rgb(85, 80, 73)" opacity="0.95084864" stroke="rgb(0, 0, 0)" stroke-opacity="1.0" stroke-linecap="round" stroke-linejoin="round"/>
    <path d="M 411.52099609375 272.8812255859375 C 408.993408203125 276.71221923828125 416.8597412109375 281.1542053222656 421.8710632324219 280.7544860839844 C 449.68646240234375 288.65716552734375 479.311767578125 291.0109558105469 500.7438049316406 285.29327392578125 C 503.5403137207031 274.1034851074219 497.1011657714844 269.3849182128906 495.6455383300781 263.1268615722656 C 479.2388610839844 259.0823669433594 462.95361328125 256.4859924316406 446.1622619628906 254.16441345214844 C 436.9697265625 253.6322784423828 431.8553771972656 253.84230041503906 425.7897644042969 256.4375305175781 C 419.766357421875 261.4058837890625 412.33526611328125 265.22210693359375 411.52099609375 272.8812255859375" stroke-width="0.0" fill="rgb(63, 54, 60)" opacity="0.96491367" stroke="rgb(0, 0, 0)" stroke-opacity="1.0" stroke-linecap="round" stroke-linejoin="round"/>
    <path d="M 177.6690216064453 252.01284790039062 C 179.04251098632812 268.1621398925781 189.76016235351562 276.8349304199219 187.5630645751953 294.5190734863281 C 192.37371826171875 294.09423828125 196.59776306152344 295.63519287109375 196.27882385253906 299.8302307128906 C 199.05966186523438 319.7821044921875 195.80677795410156 333.8431396484375 193.56593322753906 351.4918518066406 C 195.73472595214844 356.1686096191406 199.82376098632812 356.1706237792969 207.455810546875 353.531494140625 C 211.14810180664062 340.406982421875 215.5527801513672 325.1114807128906 217.14654541015625 300.733154296875 C 213.50723266601562 285.91864013671875 210.71649169921875 267.10491943359375 207.2325439453125 250.23626708984375 C 197.37631225585938 251.29336547851562 183.92515563964844 247.64962768554688 177.6690216064453 252.01284790039062" stroke-width="0.0" fill="rgb(17, 18, 24)" opacity="0.99852604" stroke="rgb(0, 0, 0)" stroke-opacity="1.0" stroke-linecap="round" stroke-linejoin="round"/>
    <path d="M 338.3093566894531 227.41758728027344 C 330.40850830078125 234.33021545410156 324.5794372558594 239.19557189941406 322.46551513671875 250.10726928710938 C 322.9793395996094 266.6400146484375 324.46002197265625 278.40338134765625 327.54669189453125 294.9462585449219 C 330.9765319824219 295.0689392089844 334.9593505859375 296.8896484375 346.21331787109375 295.4568786621094 C 350.33416748046875 294.6523742675781 347.2161865234375 281.44146728515625 353.08380126953125 274.96380615234375 C 352.5902099609375 257.78924560546875 354.0134582519531 239.68446350097656 350.66204833984375 231.29112243652344 C 344.32525634765625 231.95677185058594 341.903076171875 230.86097717285156 338.3093566894531 227.41758728027344" stroke-width="0.0" fill="rgb(110, 116, 122)" opacity="1.0401025" stroke="rgb(0, 0, 0)" stroke-opacity="1.0" stroke-linecap="round" stroke-linejoin="round"/>
    <path d="M -3.9368059635162354 184.80230712890625 C -4.836078643798828 191.92385864257812 -5.251543998718262 200.4022216796875 -6.077362060546875 209.79624938964844 C 29.630531311035156 206.5185089111328 56.01605987548828 205.0728302001953 74.05176544189453 202.22959899902344 C 75.1559066772461 188.67897033691406 67.73783111572266 191.2019805908203 55.969478607177734 188.26014709472656 C 37.768253326416016 186.7281951904297 18.834304809570312 184.33706665039062 -3.9368059635162354 184.80230712890625" stroke-width="0.0" fill="rgb(119, 81, 47)" opacity="1.0073459" stroke="rgb(0, 0, 0)" stroke-opacity="1.0" stroke-linecap="round" stroke-linejoin="round"/>
    <path d="M 331.32623291015625 300.786865234375 C 327.10064697265625 306.1875 324.8123474121094 313.769287109375 326.1260070800781 327.612548828125 C 327.34771728515625 329.8975830078125 333.1767578125 329.0096130371094 344.7561340332031 332.88623046875 C 343.9580383300781 323.47283935546875 347.9382019042969 314.90899658203125 345.635009765625 302.11767578125 C 344.9012451171875 299.2421569824219 333.88641357421875 299.7758483886719 331.32623291015625 300.786865234375" stroke-width="0.0" fill="rgb(10, 10, 17)" opacity="1.0034012" stroke="rgb(0, 0, 0)" stroke-opacity="1.0" stroke-linecap="round" stroke-linejoin="round"/>
    <path d="M 358.0175476074219 275.1297912597656 C 349.3346862792969 297.6598205566406 351.3189697265625 319.8282775878906 354.35882568359375 349.15960693359375 C 387.1872253417969 349.5467834472656 412.9562072753906 357.3292236328125 442.018310546875 363.3665771484375 C 448.5076599121094 362.5390625 446.4567565917969 366.9122619628906 448.8335266113281 374.1458435058594 C 452.4086608886719 373.2598876953125 455.1499938964844 372.3367614746094 455.9171447753906 372.7236633300781 C 459.2125244140625 361.526123046875 467.3735046386719 355.00384521484375 469.4334411621094 340.130615234375 C 474.0926513671875 326.42755126953125 478.68359375 311.6936340332031 477.6439514160156 289.7647705078125 C 443.3621520996094 285.0806884765625 413.4688415527344 278.1117248535156 381.9035339355469 271.9471740722656 C 366.6136779785156 270.6220397949219 363.0193786621094 271.1823425292969 358.0175476074219 275.1297912597656" stroke-width="0.0" fill="rgb(110, 128, 133)" opacity="0.94865966" stroke="rgb(0, 0, 0)" stroke-opacity="1.0" stroke-linecap="round" stroke-linejoin="round"/>
    <path d="M 63.394439697265625 220.96121215820312 C 59.024566650390625 235.2978057861328 56.25613784790039 248.09524536132812 56.715614318847656 265.1460266113281 C 63.644203186035156 272.6358337402344 70.8406753540039 273.1759033203125 83.50797271728516 273.8600158691406 C 84.24420166015625 270.52471923828125 83.68201446533203 266.2177734375 90.39153289794922 266.2718505859375 C 110.39000701904297 266.8854064941406 129.0553741455078 262.496826171875 147.6869354248047 258.9147033691406 C 151.53370666503906 262.5545654296875 148.62025451660156 270.4456787109375 151.43722534179688 276.32684326171875 C 153.8905487060547 254.11343383789062 155.44883728027344 235.8498077392578 155.98886108398438 223.7283477783203 C 121.45417022705078 224.76324462890625 92.97830963134766 221.16232299804688 63.394439697265625 220.96121215820312" stroke-width="0.0" fill="rgb(113, 160, 172)" opacity="1.0008607" stroke="rgb(0, 0, 0)" stroke-opacity="1.0" stroke-linecap="round" stroke-linejoin="round"/>
    <path d="M 511.2718200683594 274.099853515625 C 507.0360107421875 290.6145935058594 486.6319580078125 285.220458984375 480.16455078125 295.81903076171875 C 475.2943420410156 315.0872497558594 469.8373107910156 334.7568664550781 466.994140625 357.6469421386719 C 462.7292785644531 368.3822021484375 459.1551208496094 374.39703369140625 452.7149658203125 378.9849548339844 C 451.2640380859375 390.3749084472656 451.6546630859375 389.30859375 457.0861511230469 392.4262390136719 C 466.5821533203125 394.95831298828125 475.581787109375 398.0980529785156 491.4251708984375 395.7324523925781 C 492.276123046875 377.82244873046875 500.26751708984375 376.1213073730469 505.9559020996094 366.0674133300781 C 508.4287414550781 358.2838134765625 510.2593994140625 349.0535888671875 507.2757263183594 342.9753112792969 C 505.6252746582031 336.2667236328125 501.6600646972656 331.9183044433594 498.5520935058594 330.9534606933594 C 501.9609375 322.2790222167969 506.3177185058594 315.18218994140625 517.0267333984375 307.6646728515625 C 519.20751953125 295.8896789550781 518.19580078125 287.0926208496094 511.2718200683594 274.099853515625" stroke-width="0.0" fill="rgb(12, 13, 14)" opacity="1.0169425" stroke="rgb(0, 0, 0)" stroke-opacity="1.0" stroke-linecap="round" stroke-linejoin="round"/>
    <path d="M 189.36776733398438 171.8485870361328 C 180.74343872070312 176.67959594726562 174.84085083007812 183.70962524414062 171.13055419921875 190.8956298828125 C 169.8336944580078 198.39967346191406 170.0526885986328 201.6046600341797 168.61419677734375 202.63209533691406 C 180.0400390625 204.93035888671875 178.39698791503906 208.9063720703125 186.2430419921875 201.74954223632812 C 183.21023559570312 218.73919677734375 176.80996704101562 229.26051330566406 173.53134155273438 249.79257202148438 C 181.1234588623047 249.41294860839844 197.0870819091797 248.1419219970703 207.83946228027344 252.1341094970703 C 211.19606018066406 227.87933349609375 205.16317749023438 204.99618530273438 214.3932342529297 203.14720153808594 C 211.97763061523438 191.80043029785156 210.13197326660156 185.27304077148438 206.4368438720703 182.44696044921875 C 201.5021514892578 178.22244262695312 195.2815399169922 175.0294952392578 189.36776733398438 171.8485870361328" stroke-width="0.0" fill="rgb(84, 51, 39)" opacity="0.97503895" stroke="rgb(0, 0, 0)" stroke-opacity="1.0" stroke-linecap="round" stroke-linejoin="round"/>
    <path d="M 170.5916748046875 190.22048950195312 C 165.1429901123047 201.70260620117188 159.21900939941406 211.66053771972656 154.91683959960938 225.7140655517578 C 157.52162170410156 249.7598114013672 156.72821044921875 255.95074462890625 153.1061248779297 276.941162109375 C 160.376220703125 290.4728698730469 152.28756713867188 297.5886535644531 166.82553100585938 296.022705078125 C 177.26979064941406 293.1013488769531 170.7640380859375 277.89398193359375 186.52569580078125 282.2279968261719 C 178.15011596679688 267.16326904296875 177.1855926513672 254.1984100341797 174.9538116455078 239.95013427734375 C 178.11434936523438 227.96751403808594 182.56719970703125 218.45571899414062 186.40904235839844 207.577392578125 C 180.904541015625 202.64898681640625 176.22047424316406 206.4130401611328 172.81936645507812 205.90673828125 C 172.42233276367188 198.3880615234375 171.2600555419922 192.40548706054688 170.5916748046875 190.22048950195312" stroke-width="0.0" fill="rgb(113, 103, 102)" opacity="0.8086579" stroke="rgb(0, 0, 0)" stroke-opacity="1.0" stroke-linecap="round" stroke-linejoin="round"/>
    <path d="M 259.34228515625 266.6641845703125 C 258.0639953613281 279.4814758300781 259.859375 291.33392333984375 262.263427734375 299.87835693359375 C 284.229248046875 300.7166748046875 295.4516906738281 292.3586730957031 317.0757141113281 295.5391540527344 C 321.21966552734375 285.5054931640625 317.6615905761719 276.8361511230469 317.32794189453125 270.2867431640625 C 298.29095458984375 265.5040588378906 281.1281433105469 266.7416687011719 259.34228515625 266.6641845703125" stroke-width="0.0" fill="rgb(79, 71, 62)" opacity="1.0039047" stroke="rgb(0, 0, 0)" stroke-opacity="1.0" stroke-linecap="round" stroke-linejoin="round"/>
    <path d="M 47.71584701538086 236.18756103515625 C 40.248634338378906 233.6508026123047 27.28166389465332 233.54371643066406 20.382532119750977 237.30247497558594 C 12.355823516845703 242.08676147460938 5.991757392883301 244.0254364013672 -3.293907642364502 250.12464904785156 C -5.966575622558594 252.28518676757812 -6.296138286590576 260.6325378417969 -7.086908340454102 272.9576110839844 C 14.30862045288086 273.70831298828125 34.642513275146484 274.923828125 46.0438117980957 272.4366455078125 C 49.384185791015625 263.31829833984375 48.83861541748047 253.3323974609375 47.71584701538086 236.18756103515625" stroke-width="0.0" fill="rgb(131, 146, 154)" opacity="0.98717153" stroke="rgb(0, 0, 0)" stroke-opacity="1.0" stroke-linecap="round" stroke-linejoin="round"/>
    <path d="M -9.941164016723633 272.1380615234375 C -9.660430908203125 292.0487976074219 -7.360889434814453 296.1351318359375 4.064915657043457 302.1140441894531 C 25.983245849609375 307.15576171875 29.594303131103516 291.9220886230469 54.656654357910156 303.8695983886719 C 57.249786376953125 286.2247314453125 52.26162338256836 280.75372314453125 42.301666259765625 274.1337890625 C 26.338096618652344 275.951904296875 9.022432327270508 275.3477783203125 -9.941164016723633 272.1380615234375" stroke-width="0.0" fill="rgb(106, 94, 75)" opacity="0.9362755" stroke="rgb(0, 0, 0)" stroke-opacity="1.0" stroke-linecap="round" stroke-linejoin="round"/>
    <path d="M 113.19606018066406 213.9089813232422 C 102.86334228515625 204.41702270507812 90.34342193603516 200.2213897705078 71.39299774169922 202.00164794921875 C 53.11529541015625 206.10252380371094 24.86963653564453 205.7718505859375 -9.098906517028809 209.83718872070312 C 9.879303932189941 216.09425354003906 25.616336822509766 216.15528869628906 35.782676696777344 217.6392059326172 C 65.0711669921875 215.3289337158203 94.43292999267578 217.16470336914062 113.19606018066406 213.9089813232422" stroke-width="0.0" fill="rgb(137, 100, 70)" opacity="0.8404301" stroke="rgb(0, 0, 0)" stroke-opacity="1.0" stroke-linecap="round" stroke-linejoin="round"/>
    <path d="M 0.1058536097407341 208.90289306640625 C 0.7069319486618042 221.29385375976562 3.062981367111206 231.44569396972656 0.5903345346450806 237.40811157226562 C 18.054689407348633 239.35452270507812 32.69074630737305 236.84083557128906 50.46366500854492 238.73934936523438 C 46.434913635253906 230.0201416015625 51.8216552734375 225.45156860351562 48.64916229248047 218.09561157226562 C 31.5654239654541 216.79367065429688 16.551359176635742 213.81576538085938 0.1058536097407341 208.90289306640625" stroke-width="0.0" fill="rgb(151, 154, 155)" opacity="0.88706654" stroke="rgb(0, 0, 0)" stroke-opacity="1.0" stroke-linecap="round" stroke-linejoin="round"/>
    <path d="M 274.4377746582031 305.903564453125 C 277.4109191894531 318.54229736328125 267.4121398925781 321.4309387207031 276.5233154296875 327.721435546875 C 287.9495544433594 326.2597351074219 300.3978576660156 323.9385070800781 316.14447021484375 324.36151123046875 C 316.2166748046875 319.0335693359375 316.49566650390625 308.1282653808594 314.9959411621094 306.056640625 C 300.1387939453125 305.8280029296875 284.5726318359375 303.28387451171875 274.4377746582031 305.903564453125" stroke-width="0.0" fill="rgb(145, 131, 107)" opacity="1.0135021" stroke="rgb(0, 0, 0)" stroke-opacity="1.0" stroke-linecap="round" stroke-linejoin="round"/>
    <path d="M 374.0133361816406 350.6673278808594 C 374.37591552734375 355.0502624511719 370.2987365722656 359.3231201171875 374.79888916015625 363.4566345214844 C 394.95867919921875 365.5068664550781 415.90179443359375 369.4494934082031 439.8851623535156 371.5115661621094 C 442.0599670410156 368.87152099609375 441.35693359375 361.7770690917969 441.4130859375 360.9788818359375 C 415.99603271484375 359.91534423828125 396.8121337890625 353.00372314453125 374.0133361816406 350.6673278808594" stroke-width="0.0" fill="rgb(196, 175, 138)" opacity="0.99564075" stroke="rgb(0, 0, 0)" stroke-opacity="1.0" stroke-linecap="round" stroke-linejoin="round"/>
    <path d="M 346.2717590332031 334.592041015625 C 341.85150146484375 346.6667785644531 335.9775695800781 354.3614807128906 344.29742431640625 365.4197998046875 C 341.9541931152344 371.94512939453125 336.3708801269531 371.36566162109375 335.75250244140625 376.19219970703125 C 338.6682434082031 377.9473571777344 347.3498229980469 380.5646057128906 353.8641357421875 377.8687744140625 C 358.9820861816406 374.0755920410156 357.3111877441406 362.9715881347656 357.4039611816406 346.9370422363281 C 352.4997863769531 344.271484375 352.6632385253906 338.1100158691406 346.2717590332031 334.592041015625" stroke-width="0.0" fill="rgb(110, 78, 80)" opacity="1.026384" stroke="rgb(0, 0, 0)" stroke-opacity="1.0" stroke-linecap="round" stroke-linejoin="round"/>
    <path d="M 52.18989562988281 311.039794921875 C 54.74994659423828 313.154052734375 50.77233123779297 319.3052673339844 55.49003601074219 321.0543212890625 C 64.71958923339844 320.4300231933594 76.17679595947266 320.7696228027344 83.88282012939453 318.5179443359375 C 83.22858428955078 309.1295471191406 80.49492645263672 303.6313171386719 81.42787170410156 300.56304931640625 C 73.54374694824219 298.6683044433594 63.591270446777344 297.9699401855469 58.13957977294922 299.7130432128906 C 57.65745544433594 302.06146240234375 53.015323638916016 304.5878601074219 52.18989562988281 311.039794921875" stroke-width="0.0" fill="rgb(173, 158, 130)" opacity="0.9967695" stroke="rgb(0, 0, 0)" stroke-opacity="1.0" stroke-linecap="round" stroke-linejoin="round"/>
    <path d="M 58.1541748046875 216.44964599609375 C 48.003055572509766 215.8468780517578 50.753173828125 216.37490844726562 48.79339599609375 220.20867919921875 C 49.26764678955078 242.6934814453125 47.083953857421875 261.83978271484375 46.3541259765625 268.6224060058594 C 52.527122497558594 272.05047607421875 56.07909393310547 269.7637023925781 56.20665740966797 266.8631896972656 C 52.623043060302734 244.23583984375 65.33135223388672 241.08316040039062 58.1541748046875 216.44964599609375" stroke-width="0.0" fill="rgb(79, 96, 102)" opacity="0.90837014" stroke="rgb(0, 0, 0)" stroke-opacity="1.0" stroke-linecap="round" stroke-linejoin="round"/>
    <path d="M 519.1619262695312 133.49359130859375 C 492.9736328125 131.66693115234375 476.18328857421875 134.43853759765625 453.8143615722656 135.159423828125 C 455.5071105957031 135.68771362304688 456.1732177734375 140.39427185058594 454.7676086425781 150.9669647216797 C 472.619384765625 150.84495544433594 492.0398864746094 150.87924194335938 516.0720825195312 151.12789916992188 C 518.62451171875 147.1534423828125 519.2548217773438 141.87158203125 519.1619262695312 133.49359130859375" stroke-width="0.0" fill="rgb(117, 86, 47)" opacity="1.0000874" stroke="rgb(0, 0, 0)" stroke-opacity="1.0" stroke-linecap="round" stroke-linejoin="round"/>
    <path d="M 346.83026123046875 335.40386962890625 C 343.5086364746094 327.6647644042969 336.74365234375 332.9291687011719 328.1034240722656 330.45709228515625 C 323.1399230957031 325.73651123046875 324.67547607421875 320.3057556152344 330.9449768066406 322.85504150390625 C 300.1734924316406 324.1578063964844 275.9192199707031 325.2392272949219 257.890625 333.96246337890625 C 293.49560546875 334.39166259765625 325.6491394042969 335.1404724121094 346.83026123046875 335.40386962890625" stroke-width="0.0" fill="rgb(47, 44, 39)" opacity="1.003193" stroke="rgb(0, 0, 0)" stroke-opacity="1.0" stroke-linecap="round" stroke-linejoin="round"/>
    <path d="M 469.0978698730469 172.11204528808594 C 468.7567138671875 168.01304626464844 466.9095458984375 165.4910125732422 467.00634765625 159.6234893798828 C 461.7511291503906 157.0289306640625 454.7872314453125 158.64503479003906 454.5287780761719 154.20668029785156 C 456.80535888671875 149.15921020507812 458.1297302246094 141.95947265625 458.7255554199219 133.6468048095703 C 441.0522766113281 136.7704620361328 422.9685363769531 136.93458557128906 408.88690185546875 140.15603637695312 C 401.1471862792969 140.4853515625 400.7493591308594 148.0056915283203 397.4456481933594 155.5596923828125 C 407.9946594238281 157.28260803222656 406.73406982421875 152.69952392578125 404.4692687988281 164.0343780517578 C 425.2385559082031 168.12452697753906 447.07647705078125 169.10972595214844 469.0978698730469 172.11204528808594" stroke-width="0.0" fill="rgb(113, 85, 63)" opacity="0.9429946" stroke="rgb(0, 0, 0)" stroke-opacity="1.0" stroke-linecap="round" stroke-linejoin="round"/>
    <path d="M 98.14952087402344 381.55322265625 C 114.2295150756836 372.7080993652344 122.24105834960938 378.41094970703125 134.01927185058594 377.1649475097656 C 145.02830505371094 373.415283203125 150.54173278808594 368.0285949707031 153.6573028564453 359.45733642578125 C 131.75355529785156 354.85723876953125 115.51040649414062 364.8953552246094 107.39490509033203 354.6821594238281 C 102.73796844482422 360.110107421875 99.21726989746094 362.0990295410156 95.49471282958984 365.8854064941406 C 100.71366882324219 371.59130859375 99.8807373046875 369.838134765625 98.14952087402344 381.55322265625" stroke-width="0.0" fill="rgb(42, 40, 37)" opacity="0.9579199" stroke="rgb(0, 0, 0)" stroke-opacity="1.0" stroke-linecap="round" stroke-linejoin="round"/>
    <path d="M 357.3360595703125 243.45181274414062 C 356.11688232421875 250.6184844970703 357.0563659667969 251.87876892089844 360.8671569824219 254.4898681640625 C 387.9693908691406 251.4535369873047 414.69342041015625 261.4486999511719 426.07403564453125 252.4099578857422 C 403.7347106933594 247.898193359375 379.8816223144531 245.35128784179688 357.3360595703125 243.45181274414062" stroke-width="0.0" fill="rgb(159, 157, 154)" opacity="1.0058837" stroke="rgb(0, 0, 0)" stroke-opacity="1.0" stroke-linecap="round" stroke-linejoin="round"/>
    <path d="M 410.6441345214844 273.1285400390625 C 411.3949279785156 277.07122802734375 414.8062438964844 283.50531005859375 416.0835876464844 285.12451171875 C 433.99981689453125 289.5892333984375 452.0293884277344 284.2137451171875 470.7628479003906 284.526123046875 C 467.7732238769531 271.5707092285156 477.2068176269531 269.16351318359375 476.430419921875 260.4809875488281 C 463.5693054199219 255.88868713378906 448.5572204589844 253.41624450683594 434.5469055175781 253.65379333496094 C 422.5025329589844 257.7025451660156 413.22552490234375 261.4115905761719 410.6441345214844 273.1285400390625" stroke-width="0.0" fill="rgb(68, 55, 59)" opacity="0.93194205" stroke="rgb(0, 0, 0)" stroke-opacity="1.0" stroke-linecap="round" stroke-linejoin="round"/>
    <path d="M 311.96282958984375 423.0741882324219 C 339.3710021972656 430.1266174316406 372.36883544921875 430.7221374511719 415.3005065917969 431.654541015625 C 404.2593688964844 425.43035888671875 387.8414306640625 423.5481872558594 381.4182434082031 419.5835876464844 C 360.2837219238281 421.2510070800781 326.1181945800781 417.0186462402344 311.96282958984375 423.0741882324219" stroke-width="0.0" fill="rgb(152, 138, 111)" opacity="0.95064485" stroke="rgb(0, 0, 0)" stroke-opacity="1.0" stroke-linecap="round" stroke-linejoin="round"/>
    <path d="M 353.2375183105469 289.1893310546875 C 348.1905212402344 313.9720153808594 351.60675048828125 331.6808166503906 357.827880859375 348.393798828125 C 392.66571044921875 349.20111083984375 418.6539306640625 361.2670593261719 453.1725158691406 362.3611145019531 C 460.64239501953125 357.6365661621094 462.857177734375 350.6746826171875 466.9496154785156 347.7735900878906 C 469.7636413574219 336.9576721191406 470.73895263671875 326.40631103515625 472.11077880859375 317.7574768066406 C 443.4354553222656 307.23876953125 414.7180480957031 302.63818359375 393.43682861328125 290.6308288574219 C 374.0094909667969 293.8211975097656 369.8528747558594 297.5418701171875 353.2375183105469 289.1893310546875" stroke-width="0.0" fill="rgb(68, 61, 59)" opacity="0.9691054" stroke="rgb(0, 0, 0)" stroke-opacity="1.0" stroke-linecap="round" stroke-linejoin="round"/>
    <path d="M 518.6920776367188 308.89410400390625 C 504.4664306640625 315.6102600097656 501.1294250488281 322.68701171875 499.35931396484375 331.2956237792969 C 492.0390319824219 328.87371826171875 482.9725036621094 326.5843505859375 474.0149230957031 324.4856872558594 C 466.8518981933594 340.9140319824219 468.489990234375 361.4994812011719 462.643310546875 380.9227600097656 C 464.7554626464844 385.0498962402344 463.1631164550781 388.4482116699219 468.0211181640625 391.67449951171875 C 482.9440002441406 392.3201599121094 495.197509765625 397.4300537109375 517.1740112304688 393.2214050292969 C 518.3881225585938 365.2003479003906 519.85986328125 336.5308837890625 518.6920776367188 308.89410400390625" stroke-width="0.0" fill="rgb(144, 131, 113)" opacity="0.74881166" stroke="rgb(0, 0, 0)" stroke-opacity="1.0" stroke-linecap="round" stroke-linejoin="round"/>
    <path d="M 186.56459045410156 250.40138244628906 C 197.07957458496094 255.8071746826172 197.18292236328125 273.7951965332031 203.89862060546875 293.97149658203125 C 194.02906799316406 304.132080078125 199.59693908691406 331.4573974609375 191.89454650878906 350.9827575683594 C 195.5826873779297 354.0350036621094 203.118896484375 356.9114990234375 206.59817504882812 353.5789794921875 C 212.71995544433594 338.9748840332031 218.2334747314453 322.6562805175781 217.34205627441406 300.3512268066406 C 213.09776306152344 281.0054016113281 211.02415466308594 264.6888732910156 207.00245666503906 252.36679077148438 C 200.94395446777344 250.08714294433594 192.11280822753906 250.07577514648438 186.56459045410156 250.40138244628906" stroke-width="0.0" fill="rgb(32, 31, 37)" opacity="1.0462506" stroke="rgb(0, 0, 0)" stroke-opacity="1.0" stroke-linecap="round" stroke-linejoin="round"/>
    <path d="M 515.914306640625 269.32183837890625 C 508.53594970703125 276.8547058105469 509.2521057128906 282.9452209472656 504.3653564453125 285.4154968261719 C 494.4960021972656 287.39239501953125 485.44390869140625 289.2666015625 480.33343505859375 295.38525390625 C 476.81280517578125 302.50921630859375 474.0545349121094 315.44561767578125 474.71807861328125 322.455810546875 C 481.8777770996094 326.7169494628906 487.89862060546875 330.4091796875 496.4397888183594 331.891845703125 C 502.53448486328125 321.9249267578125 505.54595947265625 314.7784118652344 516.8158569335938 307.9574279785156 C 519.5013427734375 295.279052734375 518.8624877929688 283.3583068847656 515.914306640625 269.32183837890625" stroke-width="0.0" fill="rgb(50, 41, 40)" opacity="1.0076119" stroke="rgb(0, 0, 0)" stroke-opacity="1.0" stroke-linecap="round" stroke-linejoin="round"/>
    <path d="M 430.67144775390625 286.72503662109375 C 432.8507385253906 292.64794921875 441.174072265625 295.7641296386719 439.0173645019531 308.298583984375 C 447.7275695800781 312.4560852050781 460.81280517578125 314.3597717285156 473.39849853515625 318.47772216796875 C 474.9311828613281 310.97113037109375 477.1158752441406 301.0809326171875 478.9419860839844 292.24407958984375 C 463.9096374511719 286.136474609375 449.1414794921875 284.5134582519531 430.67144775390625 286.72503662109375" stroke-width="0.0" fill="rgb(41, 80, 80)" opacity="0.9806234" stroke="rgb(0, 0, 0)" stroke-opacity="1.0" stroke-linecap="round" stroke-linejoin="round"/>
    <path d="M 46.637733459472656 249.59182739257812 C 29.62215232849121 251.53236389160156 14.013818740844727 250.48089599609375 -1.4633440971374512 250.8217010498047 C 0.021449724212288857 259.0 -0.865576982498169 266.0 -5.754167556762695 274.5116271972656 C 17.302337646484375 273.13214111328125 33.511566162109375 275.5088806152344 44.31835174560547 271.4354248046875 C 47.13573455810547 269.6750793457031 44.99953842163086 259.3822937011719 46.637733459472656 249.59182739257812" stroke-width="0.0" fill="rgb(122, 139, 146)" opacity="0.9925506" stroke="rgb(0, 0, 0)" stroke-opacity="1.0" stroke-linecap="round" stroke-linejoin="round"/>
    <path d="M 336.6921691894531 225.60633850097656 C 338.17864990234375 226.49029541015625 332.3242492675781 234.15943908691406 329.6717224121094 237.72216796875 C 327.3096008300781 254.14041137695312 330.9041748046875 269.33935546875 333.769775390625 285.1333923339844 C 341.0415954589844 283.4362487792969 344.897216796875 275.928466796875 349.23016357421875 267.76055908203125 C 345.22564697265625 249.77468872070312 348.1479187011719 233.53106689453125 336.6921691894531 225.60633850097656" stroke-width="0.0" fill="rgb(120, 51, 59)" opacity="1.0100533" stroke="rgb(0, 0, 0)" stroke-opacity="1.0" stroke-linecap="round" stroke-linejoin="round"/>
    <path d="M 495.4779052734375 243.26800537109375 C 489.9337158203125 263.9774475097656 475.2889099121094 259.6973571777344 469.1186828613281 272.87786865234375 C 470.3622131347656 279.17596435546875 475.7470397949219 284.77471923828125 483.6964416503906 289.1263122558594 C 490.40899658203125 289.1485290527344 497.8471374511719 286.4421081542969 504.16632080078125 284.64288330078125 C 496.4064636230469 269.633544921875 495.77801513671875 266.4265441894531 495.4779052734375 243.26800537109375" stroke-width="0.0" fill="rgb(121, 120, 129)" opacity="1.0637819" stroke="rgb(0, 0, 0)" stroke-opacity="1.0" stroke-linecap="round" stroke-linejoin="round"/>
    <path d="M 46.227516174316406 220.4918975830078 C 35.68397521972656 220.3951416015625 22.01116180419922 222.3415985107422 10.295891761779785 220.7898406982422 C 3.181877613067627 224.27879333496094 1.533868432044983 227.9906768798828 3.3388683795928955 235.7415771484375 C 14.209123611450195 240.96607971191406 27.78752326965332 236.28273010253906 46.809635162353516 236.62217712402344 C 47.40043640136719 234.77874755859375 47.89317321777344 228.54159545898438 46.227516174316406 220.4918975830078" stroke-width="0.0" fill="rgb(109, 164, 178)" opacity="0.9983063" stroke="rgb(0, 0, 0)" stroke-opacity="1.0" stroke-linecap="round" stroke-linejoin="round"/>
    <path d="M 170.54100036621094 190.5982208251953 C 164.06695556640625 200.38787841796875 160.12628173828125 213.2360076904297 154.6901397705078 222.13563537597656 C 155.2522430419922 237.9417724609375 153.59774780273438 248.99087524414062 164.40289306640625 253.04986572265625 C 169.2519989013672 235.4015655517578 173.0094757080078 216.57810974121094 170.54100036621094 190.5982208251953" stroke-width="0.0" fill="rgb(89, 54, 68)" opacity="0.9849565" stroke="rgb(0, 0, 0)" stroke-opacity="1.0" stroke-linecap="round" stroke-linejoin="round"/>
    <path d="M 50.49037170410156 238.50149536132812 C 40.32798385620117 236.76809692382812 28.568317413330078 237.56468200683594 17.074434280395508 239.44134521484375 C 10.602210998535156 242.78622436523438 2.3338747024536133 245.4931640625 -6.964702129364014 252.7346954345703 C 14.954490661621094 250.61691284179688 29.88738250732422 250.38516235351562 45.77206039428711 250.1998748779297 C 46.812496185302734 250.8688507080078 47.31593322753906 245.33447265625 50.49037170410156 238.50149536132812" stroke-width="0.0" fill="rgb(185, 190, 190)" opacity="1.0002422" stroke="rgb(0, 0, 0)" stroke-opacity="1.0" stroke-linecap="round" stroke-linejoin="round"/>
    <path d="M 393.7159729003906 289.7617492675781 C 404.2907409667969 300.28887939453125 420.6474304199219 302.63275146484375 439.8020324707031 306.5932312011719 C 441.34405517578125 297.822998046875 436.315673828125 292.0836181640625 431.7019958496094 290.3468322753906 C 411.71612548828125 287.6291809082031 403.0774230957031 280.3548278808594 393.7159729003906 289.7617492675781" stroke-width="0.0" fill="rgb(34, 30, 36)" opacity="0.9693732" stroke="rgb(0, 0, 0)" stroke-opacity="1.0" stroke-linecap="round" stroke-linejoin="round"/>
    <path d="M 108.0744857788086 210.4683837890625 C 99.48289489746094 202.42227172851562 89.89051818847656 201.88153076171875 69.30165100097656 200.80517578125 C 60.47649002075195 210.1396942138672 37.27081298828125 200.3881072998047 25.278810501098633 208.26504516601562 C 47.43134307861328 211.79391479492188 75.9892578125 209.11778259277344 108.0744857788086 210.4683837890625" stroke-width="0.0" fill="rgb(137, 174, 207)" opacity="0.9851084" stroke="rgb(0, 0, 0)" stroke-opacity="1.0" stroke-linecap="round" stroke-linejoin="round"/>
    <path d="M 188.4585723876953 202.2933807373047 C 174.15576171875 200.4174346923828 168.9303741455078 206.4523162841797 171.7393035888672 210.82815551757812 C 171.23550415039062 244.54995727539062 156.59820556640625 265.1132507324219 155.834716796875 293.0996398925781 C 167.1225128173828 300.9369201660156 169.01568603515625 296.28192138671875 175.91403198242188 288.16619873046875 C 173.79049682617188 250.18582153320312 181.1029815673828 229.57940673828125 188.4585723876953 202.2933807373047" stroke-width="0.0" fill="rgb(77, 67, 58)" opacity="0.9247486" stroke="rgb(0, 0, 0)" stroke-opacity="1.0" stroke-linecap="round" stroke-linejoin="round"/>
    <path d="M 294.6197509765625 440.61334228515625 C 344.3819580078125 443.599365234375 389.58056640625 446.6378173828125 447.2179870605469 445.32562255859375 C 447.96417236328125 440.2840270996094 446.0072326660156 434.11871337890625 445.2336730957031 429.6221923828125 C 421.0990905761719 433.42645263671875 403.0716552734375 423.2074890136719 391.1402893066406 431.2730407714844 C 371.33001708984375 431.1690368652344 352.127197265625 428.6560974121094 336.58599853515625 427.3414001464844 C 322.2771911621094 423.5159912109375 314.85400390625 426.8204040527344 303.7519226074219 424.52288818359375 C 300.8170166015625 433.49530029296875 295.1722412109375 436.56280517578125 294.6197509765625 440.61334228515625" stroke-width="0.0" fill="rgb(39, 43, 44)" opacity="0.83756244" stroke="rgb(0, 0, 0)" stroke-opacity="1.0" stroke-linecap="round" stroke-linejoin="round"/>
    <path d="M 189.3832244873047 171.6593475341797 C 181.5865478515625 179.64151000976562 196.0074920654297 177.86216735839844 195.65232849121094 191.84811401367188 C 189.91229248046875 209.08547973632812 179.10272216796875 224.5221405029297 176.2545166015625 248.70745849609375 C 182.59645080566406 249.22251892089844 195.6858367919922 248.38009643554688 207.90951538085938 251.2622528076172 C 211.70376586914062 214.20831298828125 198.75450134277344 217.2110595703125 212.52235412597656 196.47137451171875 C 210.22792053222656 178.42498779296875 196.1912841796875 179.98971557617188 189.3832244873047 171.6593475341797" stroke-width="0.0" fill="rgb(94, 49, 22)" opacity="0.94973433" stroke="rgb(0, 0, 0)" stroke-opacity="1.0" stroke-linecap="round" stroke-linejoin="round"/>
    <path d="M 458.21490478515625 133.72909545898438 C 439.53985595703125 137.05218505859375 420.3199462890625 137.7117156982422 404.0365905761719 141.12417602539062 C 401.1166687011719 144.681396484375 399.147216796875 149.80087280273438 397.58062744140625 155.34657287597656 C 413.4586486816406 157.00686645507812 425.39532470703125 155.43800354003906 454.4333190917969 153.38002014160156 C 455.1009216308594 150.13475036621094 457.40521240234375 143.1532440185547 458.21490478515625 133.72909545898438" stroke-width="0.0" fill="rgb(116, 86, 46)" opacity="0.9803917" stroke="rgb(0, 0, 0)" stroke-opacity="1.0" stroke-linecap="round" stroke-linejoin="round"/>
    <path d="M 469.61639404296875 172.24900817871094 C 468.9856872558594 165.5865478515625 465.7375793457031 163.77842712402344 465.5401611328125 158.06890869140625 C 458.83160400390625 160.4916229248047 449.8306579589844 154.68698120117188 440.35589599609375 154.19432067871094 C 422.4976501464844 157.8295135498047 407.82568359375 151.70152282714844 402.4802551269531 163.22805786132812 C 420.5203552246094 168.2955322265625 445.4786071777344 168.404541015625 469.61639404296875 172.24900817871094" stroke-width="0.0" fill="rgb(113, 61, 25)" opacity="0.94857335" stroke="rgb(0, 0, 0)" stroke-opacity="1.0" stroke-linecap="round" stroke-linejoin="round"/>
    <path d="M 399.7122802734375 287.7389831542969 C 404.258056640625 305.37359619140625 393.55987548828125 314.3235168457031 397.13677978515625 324.9969177246094 C 407.84375 334.5306091308594 413.7733459472656 342.71826171875 428.0936584472656 344.52044677734375 C 443.0147705078125 346.4794921875 452.14398193359375 352.2812194824219 467.20703125 347.1684875488281 C 469.4289245605469 327.34832763671875 475.8629455566406 311.7283630371094 478.32476806640625 291.5232238769531 C 463.0168151855469 285.9625244140625 441.1211853027344 283.8492431640625 423.6955261230469 282.2076110839844 C 418.8581848144531 285.8959045410156 408.2220764160156 288.8310546875 399.7122802734375 287.7389831542969" stroke-width="0.0" fill="rgb(36, 60, 64)" opacity="0.832847" stroke="rgb(0, 0, 0)" stroke-opacity="1.0" stroke-linecap="round" stroke-linejoin="round"/>
    <path d="M 474.4999084472656 325.3758850097656 C 470.1123962402344 346.3347473144531 472.019287109375 369.8944396972656 463.7584533691406 379.6253662109375 C 462.544189453125 388.39898681640625 468.22943115234375 390.083740234375 470.3830871582031 396.99951171875 C 474.9737548828125 397.0390319824219 485.37646484375 398.1109313964844 491.279052734375 395.79998779296875 C 489.6754455566406 374.45648193359375 509.7258605957031 372.9312438964844 508.181640625 356.5606994628906 C 510.8116760253906 341.187744140625 503.5267028808594 335.8842468261719 499.09320068359375 331.38751220703125 C 489.19903564453125 330.9548034667969 483.1079406738281 326.3325500488281 474.4999084472656 325.3758850097656" stroke-width="0.0" fill="rgb(44, 37, 39)" opacity="0.96890104" stroke="rgb(0, 0, 0)" stroke-opacity="1.0" stroke-linecap="round" stroke-linejoin="round"/>
    <path d="M 182.24551391601562 200.7140350341797 C 178.39454650878906 204.6099090576172 171.2660369873047 200.1608428955078 170.5404052734375 208.25413513183594 C 165.33689880371094 230.77674865722656 167.5546875 253.66026306152344 156.97914123535156 279.4629211425781 C 163.846435546875 283.8384094238281 160.30450439453125 276.1289978027344 160.0851287841797 276.09716796875 C 165.5442352294922 272.8695068359375 164.9832305908203 271.78338623046875 169.7057342529297 277.5911560058594 C 170.316162109375 248.08566284179688 179.0141143798828 230.12474060058594 188.13192749023438 210.20294189453125 C 186.90667724609375 204.96038818359375 188.49514770507812 202.39601135253906 182.24551391601562 200.7140350341797" stroke-width="0.0" fill="rgb(28, 24, 24)" opacity="0.9990773" stroke="rgb(0, 0, 0)" stroke-opacity="1.0" stroke-linecap="round" stroke-linejoin="round"/>
    <path d="M 510.9120178222656 275.4903869628906 C 506.2026672363281 287.6501770019531 492.3382568359375 291.8934326171875 478.8821716308594 298.3020324707031 C 476.806640625 304.6806640625 478.1708068847656 316.5274963378906 477.2598876953125 324.2496643066406 C 481.9829406738281 326.8941650390625 487.0406494140625 327.5121765136719 488.1423034667969 329.45135498046875 C 494.9759826660156 327.0480651855469 494.8645324707031 325.359619140625 492.81890869140625 314.88690185546875 C 501.0445861816406 311.9301452636719 506.2336120605469 304.71551513671875 512.7861328125 296.13525390625 C 516.9453735351562 289.7662353515625 516.9282836914062 283.12939453125 510.9120178222656 275.4903869628906" stroke-width="0.0" fill="rgb(46, 31, 36)" opacity="0.9987641" stroke="rgb(0, 0, 0)" stroke-opacity="1.0" stroke-linecap="round" stroke-linejoin="round"/>
    <path d="M 338.3457946777344 423.03375244140625 C 344.4905090332031 425.8927001953125 354.5572204589844 428.5903015136719 358.447998046875 430.6393737792969 C 376.87860107421875 430.5109558105469 394.51165771484375 434.50140380859375 403.03558349609375 430.78778076171875 C 401.6311950683594 422.6128845214844 390.9284362792969 428.99041748046875 388.1322326660156 419.39837646484375 C 366.9811096191406 421.8508605957031 346.88653564453125 416.5123596191406 338.3457946777344 423.03375244140625" stroke-width="0.0" fill="rgb(183, 165, 129)" opacity="0.94369763" stroke="rgb(0, 0, 0)" stroke-opacity="1.0" stroke-linecap="round" stroke-linejoin="round"/>
    <path d="M 499.951171875 253.07876586914062 C 495.0750732421875 244.41941833496094 491.8415222167969 244.62210083007812 488.3197937011719 247.4709014892578 C 491.0924072265625 260.6278076171875 481.4447937011719 274.1366271972656 484.1182556152344 292.1218566894531 C 491.628173828125 289.8727111816406 492.4924621582031 284.3262939453125 495.9685974121094 278.5473937988281 C 502.040283203125 287.2587585449219 491.6540832519531 299.1886901855469 502.78594970703125 280.36431884765625 C 495.1993408203125 266.1636657714844 494.61553955078125 258.4381408691406 499.951171875 253.07876586914062" stroke-width="0.0" fill="rgb(80, 72, 75)" opacity="1.0015247" stroke="rgb(0, 0, 0)" stroke-opacity="1.0" stroke-linecap="round" stroke-linejoin="round"/>
    <path d="M 397.19805908203125 315.1914978027344 C 395.563720703125 318.1479797363281 398.18438720703125 321.9109802246094 398.13580322265625 327.03570556640625 C 405.5944519042969 330.1265563964844 409.27801513671875 337.8951110839844 418.68121337890625 341.6139221191406 C 428.0705871582031 345.3063659667969 442.60772705078125 347.0577087402344 455.2182312011719 349.7430419921875 C 462.4969787597656 348.5781555175781 466.29107666015625 346.14532470703125 467.67822265625 342.6402587890625 C 469.1513671875 334.09619140625 472.65380859375 323.1033630371094 469.571044921875 315.6508483886719 C 445.1486511230469 313.48980712890625 432.3941650390625 302.92962646484375 410.0526123046875 300.40118408203125 C 405.97991943359375 301.167724609375 402.4696960449219 309.7921447753906 397.19805908203125 315.1914978027344" stroke-width="0.0" fill="rgb(38, 64, 96)" opacity="0.99821347" stroke="rgb(0, 0, 0)" stroke-opacity="1.0" stroke-linecap="round" stroke-linejoin="round"/>
  </g>
</svg>
