<?xml version="1.0" ?>
<svg xmlns="http://www.w3.org/2000/svg" version="1.1" width="512" height="512">
  <defs/>
  <g>
    <path d="M -2.580566167831421 -2.831002950668335 C -1.6717075109481812 170.3333282470703 -0.5479481220245361 340.6666564941406 -0.5148521661758423 517.9014282226562 C 169.2961883544922 518.6226196289062 338.882568359375 519.7637939453125 518.4414672851562 519.9249877929688 C 518.6957397460938 341.26031494140625 518.78857421875 170.66270446777344 518.8654174804688 -3.2305080890655518 C 340.6666564941406 -3.1738193035125732 170.3333282470703 -3.009478807449341 -2.580566167831421 -2.831002950668335" stroke-width="0.0" fill="rgb(141, 206, 234)" opacity="0.76771164" stroke="rgb(0, 0, 0)" stroke-opacity="1.0" stroke-linecap="round" stroke-linejoin="round"/>
    <path d="M -6.808405876159668 326.9289245605469 C -6.959775447845459 385.92181396484375 -6.458145618438721 448.7608642578125 -4.350501537322998 518.9371337890625 C 170.33229064941406 518.9678955078125 340.6728210449219 519.0120239257812 518.3414306640625 518.9442749023438 C 518.3890380859375 484.2635803222656 518.4461059570312 456.9951171875 519.5122680664062 428.1271057128906 C 476.61199951171875 439.3866271972656 448.15625 426.17401123046875 446.20416259765625 439.2110595703125 C 414.1108093261719 441.27764892578125 385.1957702636719 438.6422119140625 358.69610595703125 439.4297180175781 C 367.58941650390625 437.2835693359375 366.5945739746094 438.7989501953125 360.59112548828125 436.71588134765625 C 357.8934631347656 436.2754211425781 350.8331604003906 435.80157470703125 347.2699890136719 435.666015625 C 341.9975891113281 435.7890625 340.70233154296875 434.0606689453125 337.7677307128906 439.1122131347656 C 344.5314636230469 439.0135192871094 352.3686828613281 440.1131286621094 357.117919921875 438.0624084472656 C 352.8331604003906 441.71697998046875 343.6891174316406 441.414306640625 334.65057373046875 440.03045654296875 C 337.0387878417969 437.8070068359375 339.78662109375 439.90106201171875 340.1733093261719 434.4461975097656 C 326.49493408203125 437.18023681640625 308.87939453125 438.3086853027344 299.78436279296875 433.5627746582031 C 299.0727844238281 428.2281494140625 314.7605285644531 422.1844177246094 321.62274169921875 416.23614501953125 C 328.5416259765625 402.1166687011719 343.31280517578125 394.2724914550781 345.0364990234375 382.9715576171875 C 345.6725158691406 365.87799072265625 343.71832275390625 350.17510986328125 341.9758605957031 339.2405090332031 C 337.6484375 331.5062255859375 326.3616638183594 335.9307556152344 324.884033203125 327.2667541503906 C 323.18218994140625 312.597900390625 325.463134765625 309.52276611328125 311.14178466796875 305.8535461425781 C 292.54620361328125 302.4861145019531 252.47003173828125 304.9266357421875 219.42559814453125 300.6190490722656 C 217.74749755859375 318.162109375 213.08619689941406 333.1790771484375 211.18711853027344 354.2228088378906 C 213.71022033691406 354.8508605957031 203.412109375 356.03851318359375 200.5299530029297 358.1523132324219 C 195.0066680908203 354.2174072265625 197.11557006835938 361.2453308105469 191.81968688964844 356.5360412597656 C 191.29232788085938 340.62652587890625 197.52664184570312 328.2560729980469 193.87924194335938 313.0835876464844 C 179.34559631347656 317.8466796875 170.1083221435547 326.4752197265625 156.95123291015625 333.21380615234375 C 154.6433563232422 337.1300964355469 152.46229553222656 345.83319091796875 153.31707763671875 355.9154052734375 C 154.5663604736328 356.4759826660156 149.78477478027344 355.56524658203125 145.3971405029297 355.5222473144531 C 143.49427795410156 341.44561767578125 136.45909118652344 329.3985900878906 141.50828552246094 320.12005615234375 C 154.8336944580078 311.3010559082031 171.9083251953125 304.3362121582031 181.03677368164062 294.0968933105469 C 184.34945678710938 283.4378967285156 175.9617156982422 285.61956787109375 158.85946655273438 288.06842041015625 C 157.1747589111328 285.20458984375 154.017822265625 280.51513671875 153.78614807128906 279.1951904296875 C 116.99158477783203 282.6399841308594 75.58609008789062 280.1786193847656 54.529850006103516 286.1937255859375 C 44.599693298339844 293.8069152832031 33.71303176879883 298.130859375 24.47450065612793 302.4845886230469 C 14.3346529006958 312.33624267578125 14.775982856750488 328.58392333984375 -6.808405876159668 326.9289245605469" stroke-width="0.0" fill="rgb(193, 172, 133)" opacity="1.0226692" stroke="rgb(0, 0, 0)" stroke-opacity="1.0" stroke-linecap="round" stroke-linejoin="round"/>
    <path d="M 254.7748260498047 275.17828369140625 C 253.15745544433594 280.511962890625 249.54510498046875 294.39569091796875 257.3666076660156 292.4839172363281 C 272.58782958984375 303.640869140625 289.0982971191406 295.58001708984375 313.65826416015625 299.79461669921875 C 329.0562438964844 303.31732177734375 325.4321594238281 313.194580078125 328.339599609375 322.7518005371094 C 334.3695373535156 335.72857666015625 344.9851379394531 331.6806945800781 344.92803955078125 337.26434326171875 C 347.4219970703125 355.4006652832031 349.91015625 377.1880798339844 345.8150939941406 391.14794921875 C 339.53509521484375 398.804443359375 332.3837890625 404.04583740234375 328.611328125 414.5129089355469 C 320.8804016113281 422.0647888183594 313.5609436035156 425.0719909667969 306.023193359375 428.6803894042969 C 306.1390380859375 431.9026794433594 306.0135192871094 433.48651123046875 314.3525695800781 438.2978515625 C 346.6434631347656 430.24658203125 370.1128845214844 443.92083740234375 428.93341064453125 438.976806640625 C 444.9533386230469 426.1786193847656 487.1579895019531 429.4571228027344 510.92828369140625 412.19342041015625 C 505.286376953125 411.0111389160156 500.10357666015625 411.5579528808594 500.3679504394531 411.7532043457031 C 498.62188720703125 401.0980529785156 494.87200927734375 396.32177734375 492.60919189453125 390.86395263671875 C 496.2381896972656 380.5939636230469 502.6268005371094 368.1426086425781 508.03594970703125 351.33502197265625 C 505.9828796386719 343.5506896972656 503.0550231933594 334.2358093261719 501.61541748046875 324.6986083984375 C 502.90045166015625 312.977294921875 512.014404296875 309.9729309082031 510.20562744140625 307.2216491699219 C 511.2874755859375 286.662841796875 510.47900390625 279.822509765625 501.3825988769531 277.6874084472656 C 502.44134521484375 269.8042297363281 496.2543640136719 264.5196533203125 486.0340576171875 258.7631530761719 C 479.27703857421875 251.69473266601562 460.4773254394531 253.7606964111328 444.5887451171875 253.2307891845703 C 425.93878173828125 252.8019256591797 419.0298767089844 258.7303466796875 409.6094055175781 265.4710388183594 C 401.52850341796875 265.6896667480469 399.9555969238281 265.37060546875 402.507568359375 264.3699951171875 C 402.4671936035156 262.5047912597656 404.41802978515625 265.0381774902344 399.2588806152344 266.0446472167969 C 393.3028259277344 265.3481140136719 395.2629089355469 262.39752197265625 397.27484130859375 266.67279052734375 C 389.7075500488281 264.8211975097656 380.19537353515625 265.8115234375 371.0135498046875 264.0545349121094 C 356.3066711425781 249.2145233154297 353.44207763671875 234.2439727783203 340.58966064453125 235.04237365722656 C 329.5057678222656 234.11209106445312 329.0663146972656 249.08074951171875 315.1842041015625 251.95623779296875 C 302.0221252441406 254.22061157226562 284.5240478515625 253.04844665527344 271.1462097167969 257.3349914550781 C 263.3956604003906 260.4962158203125 260.2685241699219 267.2315368652344 254.7748260498047 275.17828369140625" stroke-width="0.0" fill="rgb(85, 78, 75)" opacity="0.9553406" stroke="rgb(0, 0, 0)" stroke-opacity="1.0" stroke-linecap="round" stroke-linejoin="round"/>
    <path d="M -6.461940765380859 186.47927856445312 C -6.549488067626953 231.14981079101562 -6.765626430511475 278.6069030761719 -6.735600471496582 324.83782958984375 C 14.60482406616211 323.2513427734375 14.587882041931152 310.6125183105469 20.805580139160156 301.6382141113281 C 34.1107177734375 296.13360595703125 42.95219802856445 287.1038818359375 55.85585403442383 283.3926696777344 C 86.61368560791016 272.7209777832031 126.92315673828125 280.8321533203125 152.63267517089844 271.8943176269531 C 158.25381469726562 258.2993469238281 155.89703369140625 241.72335815429688 154.61770629882812 224.36793518066406 C 145.8902587890625 224.8519744873047 131.7318878173828 225.1103515625 114.74504089355469 224.4707489013672 C 104.43103790283203 219.35525512695312 94.59245300292969 214.8582000732422 79.3521728515625 216.00320434570312 C 85.8612289428711 204.11624145507812 72.57878875732422 211.48426818847656 76.87226104736328 198.3187255859375 C 72.21685791015625 191.3190155029297 62.77566146850586 191.49705505371094 57.16663360595703 189.02626037597656 C 37.67228317260742 189.7151641845703 17.651630401611328 184.10304260253906 -6.461940765380859 186.47927856445312" stroke-width="0.0" fill="rgb(111, 118, 121)" opacity="1.0055054" stroke="rgb(0, 0, 0)" stroke-opacity="1.0" stroke-linecap="round" stroke-linejoin="round"/>
    <path d="M 199.80503845214844 145.97500610351562 C 195.6125946044922 147.37704467773438 192.13760375976562 147.7250518798828 190.97097778320312 150.47840881347656 C 188.37600708007812 155.0025177001953 188.8951416015625 159.2173614501953 188.90560913085938 171.05101013183594 C 182.407958984375 176.5333251953125 175.06675720214844 181.44757080078125 170.3992919921875 190.43942260742188 C 165.04063415527344 199.47727966308594 160.5086212158203 211.0037384033203 156.9088897705078 222.8411407470703 C 156.0489044189453 231.2508544921875 157.59405517578125 246.25094604492188 162.7419891357422 256.2774963378906 C 164.1592559814453 264.504150390625 170.8698272705078 257.5167236328125 178.41152954101562 269.80712890625 C 181.69996643066406 278.4557800292969 188.03982543945312 285.1390380859375 184.74685668945312 296.3684997558594 C 173.20956420898438 303.79962158203125 158.3135528564453 312.8006591796875 142.9523468017578 320.79071044921875 C 142.23733520507812 324.46160888671875 140.98898315429688 324.27099609375 140.7324676513672 327.6626892089844 C 141.329345703125 335.3037414550781 144.30763244628906 338.7021179199219 148.0341339111328 343.6065368652344 C 153.23216247558594 329.4206848144531 178.8779296875 320.9522399902344 195.0276336669922 309.0209045410156 C 198.3694610595703 322.15802001953125 193.69378662109375 334.22283935546875 193.79473876953125 351.48779296875 C 194.74525451660156 356.4337158203125 201.048828125 356.0211486816406 209.27090454101562 353.7944641113281 C 210.01095581054688 341.13519287109375 216.06272888183594 329.78375244140625 215.88931274414062 302.66107177734375 C 215.8799591064453 286.707275390625 208.9810028076172 267.3524475097656 209.2069549560547 243.95376586914062 C 213.91815185546875 228.40660095214844 227.01266479492188 224.43614196777344 227.41635131835938 207.44993591308594 C 213.36228942871094 199.0903778076172 212.78160095214844 188.7092742919922 204.07388305664062 179.04843139648438 C 203.11146545410156 169.52716064453125 209.78846740722656 163.79388427734375 208.94973754882812 155.88462829589844 C 208.97132873535156 147.30099487304688 204.7319793701172 148.2669677734375 199.80503845214844 145.97500610351562" stroke-width="0.0" fill="rgb(81, 71, 72)" opacity="0.8352646" stroke="rgb(0, 0, 0)" stroke-opacity="1.0" stroke-linecap="round" stroke-linejoin="round"/>
    <path d="M 517.22119140625 189.16050720214844 C 520.9271850585938 172.13970947265625 519.0242919921875 152.52728271484375 519.4483032226562 132.58676147460938 C 485.90118408203125 133.65896606445312 461.55047607421875 134.03358459472656 435.4698181152344 137.65518188476562 C 421.4024353027344 139.16331481933594 408.41778564453125 141.49278259277344 402.6575012207031 147.8983154296875 C 399.03521728515625 152.18556213378906 402.64013671875 162.9908905029297 410.85601806640625 166.36483764648438 C 430.98919677734375 168.88710021972656 458.7016906738281 169.29119873046875 496.8356628417969 165.56085205078125 C 502.03314208984375 167.2545623779297 500.0384521484375 181.84066772460938 517.22119140625 189.16050720214844" stroke-width="0.0" fill="rgb(71, 77, 86)" opacity="0.97038484" stroke="rgb(0, 0, 0)" stroke-opacity="1.0" stroke-linecap="round" stroke-linejoin="round"/>
    <path d="M 449.72509765625 202.2150421142578 C 449.62164306640625 185.45506286621094 438.71026611328125 191.39329528808594 426.77166748046875 190.72239685058594 C 379.6648864746094 188.82606506347656 333.1921691894531 190.59515380859375 296.2030944824219 196.2875213623047 C 285.6064147949219 198.24830627441406 282.2349853515625 203.7474365234375 281.3056335449219 211.14944458007812 C 274.2452392578125 211.8657989501953 266.98150634765625 210.28712463378906 263.380859375 213.0447998046875 C 291.86920166015625 220.83058166503906 317.9290466308594 217.70310974121094 353.0201416015625 215.62930297851562 C 383.4375305175781 206.66375732421875 420.2211608886719 205.33876037597656 449.72509765625 202.2150421142578" stroke-width="0.0" fill="rgb(64, 48, 54)" opacity="1.1735585" stroke="rgb(0, 0, 0)" stroke-opacity="1.0" stroke-linecap="round" stroke-linejoin="round"/>
    <path d="M 518.58642578125 114.58650970458984 C 486.35931396484375 116.17404174804688 464.9286193847656 119.23792266845703 445.09112548828125 125.25439453125 C 436.0027160644531 127.63019561767578 423.1529846191406 131.9365234375 418.453369140625 139.87445068359375 C 449.2362060546875 133.65585327148438 483.41802978515625 133.82179260253906 519.269775390625 132.00418090820312 C 518.730224609375 122.04405975341797 519.96337890625 115.4015884399414 518.58642578125 114.58650970458984" stroke-width="0.0" fill="rgb(139, 181, 220)" opacity="1.0055751" stroke="rgb(0, 0, 0)" stroke-opacity="1.0" stroke-linecap="round" stroke-linejoin="round"/>
    <path d="M 518.5513305664062 308.4992980957031 C 506.32965087890625 313.7295837402344 501.5467224121094 319.50921630859375 501.0350341796875 329.3097839355469 C 502.0541687011719 333.4859313964844 507.74407958984375 341.74346923828125 508.2730712890625 350.23565673828125 C 507.01666259765625 365.0269775390625 499.8263244628906 372.1128234863281 493.0735168457031 382.56671142578125 C 491.6413269042969 387.97882080078125 494.2490539550781 391.9888610839844 497.02557373046875 393.05743408203125 C 500.0791931152344 394.9706726074219 507.6951599121094 393.8763732910156 518.0701293945312 393.5786437988281 C 518.5442504882812 365.29150390625 519.9554443359375 336.78631591796875 518.5513305664062 308.4992980957031" stroke-width="0.0" fill="rgb(210, 185, 136)" opacity="0.96794003" stroke="rgb(0, 0, 0)" stroke-opacity="1.0" stroke-linecap="round" stroke-linejoin="round"/>
    <path d="M 373.42034912109375 211.8766326904297 C 369.815185546875 213.56153869628906 367.9048767089844 223.51617431640625 378.10870361328125 220.84622192382812 C 413.9827880859375 229.3535919189453 454.6627197265625 218.40557861328125 518.0556640625 223.337158203125 C 520.5642700195312 214.74249267578125 520.6959228515625 202.68116760253906 517.322265625 190.17068481445312 C 502.4161682128906 183.94308471679688 500.9847412109375 175.0765380859375 501.3299865722656 167.64279174804688 C 475.22650146484375 160.07862854003906 464.53765869140625 170.90093994140625 457.09600830078125 167.79576110839844 C 432.1099853515625 168.74827575683594 414.531982421875 166.2599639892578 399.6560363769531 160.91590881347656 C 398.18292236328125 163.84523010253906 399.3800964355469 168.58990478515625 400.3570861816406 174.53651428222656 C 396.93267822265625 178.39102172851562 389.4671936035156 173.43788146972656 388.94512939453125 178.32476806640625 C 405.0380554199219 178.20132446289062 418.4714660644531 182.2912139892578 430.65325927734375 184.09413146972656 C 429.4529724121094 181.369140625 429.8280944824219 187.45968627929688 433.3524475097656 184.8017120361328 C 438.8951721191406 186.56422424316406 440.75567626953125 188.81602478027344 440.12060546875 190.3830108642578 C 452.15460205078125 191.42788696289062 455.46795654296875 195.69351196289062 450.1617736816406 201.6014404296875 C 428.4971618652344 206.81788635253906 394.5245361328125 204.2504425048828 373.42034912109375 211.8766326904297" stroke-width="0.0" fill="rgb(202, 226, 236)" opacity="1.017026" stroke="rgb(0, 0, 0)" stroke-opacity="1.0" stroke-linecap="round" stroke-linejoin="round"/>
    <path d="M 254.7841339111328 224.88978576660156 C 245.00894165039062 219.0542449951172 232.83926391601562 223.37185668945312 230.1909637451172 221.0222930908203 C 222.6111602783203 225.26512145996094 214.20001220703125 224.6408233642578 210.09205627441406 237.8412628173828 C 207.84803771972656 259.1581726074219 213.739501953125 276.709228515625 218.54844665527344 297.14959716796875 C 225.69815063476562 296.4870910644531 234.041748046875 295.23760986328125 239.56640625 292.8044738769531 C 244.73484802246094 289.0381164550781 248.6734619140625 285.0604553222656 250.7041473388672 278.6877746582031 C 252.64918518066406 261.04168701171875 254.37301635742188 242.15646362304688 254.7841339111328 224.88978576660156" stroke-width="0.0" fill="rgb(130, 162, 166)" opacity="0.9480136" stroke="rgb(0, 0, 0)" stroke-opacity="1.0" stroke-linecap="round" stroke-linejoin="round"/>
    <path d="M 355.94903564453125 227.14369201660156 C 352.35626220703125 231.14454650878906 353.967041015625 232.91207885742188 354.1556701660156 238.23361206054688 C 387.83599853515625 239.69839477539062 420.3107604980469 245.8965301513672 456.4234313964844 250.14573669433594 C 474.5282287597656 251.7058563232422 484.3916931152344 259.9310607910156 491.6458740234375 247.50299072265625 C 497.1940002441406 244.58920288085938 485.7325134277344 241.79685974121094 478.764404296875 236.67343139648438 C 445.1048583984375 228.9071502685547 411.0102233886719 227.60360717773438 374.38031005859375 222.59938049316406 C 367.8808898925781 223.14801025390625 359.49346923828125 226.2893524169922 355.94903564453125 227.14369201660156" stroke-width="0.0" fill="rgb(212, 217, 217)" opacity="1.0060806" stroke="rgb(0, 0, 0)" stroke-opacity="1.0" stroke-linecap="round" stroke-linejoin="round"/>
    <path d="M 293.4410705566406 195.93345642089844 C 342.2301330566406 189.8811798095703 393.29296875 188.8966522216797 444.990966796875 191.17678833007812 C 435.0002746582031 182.60467529296875 426.8447570800781 182.2514190673828 412.5886535644531 181.28167724609375 C 385.6573181152344 176.08859252929688 351.37774658203125 179.00701904296875 318.4598388671875 183.02737426757812 C 311.6422119140625 185.8501739501953 299.72210693359375 188.60711669921875 293.4410705566406 195.93345642089844" stroke-width="0.0" fill="rgb(121, 164, 208)" opacity="0.96828836" stroke="rgb(0, 0, 0)" stroke-opacity="1.0" stroke-linecap="round" stroke-linejoin="round"/>
    <path d="M -3.3766331672668457 151.43450927734375 C -0.8097911477088928 162.0 -0.07047721743583679 173.0 -4.986072540283203 185.224609375 C 22.15341567993164 184.9471435546875 47.25165557861328 187.3144073486328 70.09019470214844 189.68780517578125 C 56.395076751708984 176.9335174560547 37.80658721923828 176.18565368652344 15.641698837280273 175.0238800048828 C 14.978939056396484 166.4345703125 13.500213623046875 159.94479370117188 11.4603910446167 154.3005828857422 C 7.856919288635254 152.3463134765625 5.6112518310546875 150.04916381835938 -3.3766331672668457 151.43450927734375" stroke-width="0.0" fill="rgb(205, 196, 152)" opacity="1.0010351" stroke="rgb(0, 0, 0)" stroke-opacity="1.0" stroke-linecap="round" stroke-linejoin="round"/>
    <path d="M 352.43865966796875 238.34628295898438 C 353.9185485839844 249.0367431640625 365.2821960449219 254.25624084472656 370.0884094238281 264.2615966796875 C 383.10162353515625 266.5078125 396.8540344238281 266.3140869140625 412.9080505371094 266.02154541015625 C 418.15216064453125 259.5511779785156 426.1932067871094 255.7738037109375 434.8082275390625 253.15481567382812 C 459.0558166503906 253.1077880859375 480.554931640625 264.82049560546875 490.3683166503906 254.20742797851562 C 444.81597900390625 247.14373779296875 399.56072998046875 241.6253204345703 352.43865966796875 238.34628295898438" stroke-width="0.0" fill="rgb(135, 141, 145)" opacity="0.98405725" stroke="rgb(0, 0, 0)" stroke-opacity="1.0" stroke-linecap="round" stroke-linejoin="round"/>
    <path d="M 316.7035217285156 231.49118041992188 C 300.7279357910156 225.94009399414062 287.94024658203125 225.50540161132812 260.474853515625 229.82704162597656 C 257.5619812011719 233.1724853515625 251.6790771484375 237.99142456054688 253.0749053955078 247.9285430908203 C 271.9855041503906 248.59629821777344 291.4369201660156 247.00726318359375 309.1680908203125 250.45217895507812 C 315.5738830566406 245.71507263183594 318.2250061035156 241.268310546875 316.7035217285156 231.49118041992188" stroke-width="0.0" fill="rgb(157, 162, 162)" opacity="0.99566066" stroke="rgb(0, 0, 0)" stroke-opacity="1.0" stroke-linecap="round" stroke-linejoin="round"/>
    <path d="M 463.8908386230469 224.2401580810547 C 476.0191345214844 234.8244171142578 488.8970031738281 238.9588623046875 498.0344543457031 252.26312255859375 C 492.67779541015625 261.8086853027344 498.2879638671875 275.9671630859375 508.72906494140625 285.6037292480469 C 507.7821044921875 264.3383483886719 510.4693298339844 247.26564025878906 511.6318054199219 223.57196044921875 C 500.1106872558594 224.47669982910156 478.4105529785156 223.64569091796875 463.8908386230469 224.2401580810547" stroke-width="0.0" fill="rgb(140, 164, 175)" opacity="1.0791742" stroke="rgb(0, 0, 0)" stroke-opacity="1.0" stroke-linecap="round" stroke-linejoin="round"/>
    <path d="M 365.2685852050781 220.09368896484375 C 346.72900390625 217.23333740234375 331.41888427734375 222.8688507080078 317.3721923828125 219.5528564453125 C 315.5655822753906 224.52720642089844 308.68585205078125 220.6215362548828 309.10894775390625 227.558349609375 C 321.015380859375 228.311767578125 315.7511901855469 240.0447998046875 322.45831298828125 250.31637573242188 C 325.1383056640625 237.68307495117188 333.2595520019531 234.94564819335938 337.2895812988281 225.05931091308594 C 342.9886474609375 229.1890869140625 349.8706970214844 224.8708953857422 355.3279724121094 229.3750762939453 C 358.71728515625 225.62057495117188 357.19793701171875 221.5662078857422 365.2685852050781 220.09368896484375" stroke-width="0.0" fill="rgb(137, 179, 192)" opacity="0.98720527" stroke="rgb(0, 0, 0)" stroke-opacity="1.0" stroke-linecap="round" stroke-linejoin="round"/>
    <path d="M 434.8407897949219 255.16563415527344 C 407.86224365234375 263.6610412597656 413.3898010253906 287.3086853027344 391.94342041015625 292.5314636230469 C 392.082763671875 311.25433349609375 398.0174255371094 320.8644714355469 398.77032470703125 336.9027404785156 C 405.4993896484375 341.730224609375 404.9043273925781 349.4259338378906 414.764892578125 351.8345947265625 C 423.6998596191406 356.6609191894531 435.05841064453125 358.084716796875 443.7981262207031 362.4039001464844 C 449.884521484375 367.88885498046875 446.01153564453125 376.49700927734375 450.8853759765625 384.2511291503906 C 471.1943359375 383.9703063964844 472.93975830078125 388.16351318359375 489.9178771972656 395.81787109375 C 487.36541748046875 371.75592041015625 503.74725341796875 370.9930114746094 505.9436340332031 347.8516845703125 C 505.758056640625 340.991455078125 500.2218322753906 333.8403015136719 499.3205261230469 327.6627502441406 C 500.9237060546875 316.21490478515625 504.9396057128906 314.6376037597656 508.3705139160156 307.99951171875 C 511.09344482421875 303.8924865722656 508.9313659667969 283.401611328125 507.8744812011719 285.68121337890625 C 500.1747131347656 275.543212890625 495.7816162109375 267.0392761230469 483.05047607421875 253.67938232421875 C 477.8924255371094 250.97177124023438 458.65948486328125 254.49700927734375 434.8407897949219 255.16563415527344" stroke-width="0.0" fill="rgb(68, 67, 69)" opacity="0.8904633" stroke="rgb(0, 0, 0)" stroke-opacity="1.0" stroke-linecap="round" stroke-linejoin="round"/>
    <path d="M 205.84027099609375 148.1646728515625 C 198.27532958984375 145.1873779296875 193.07296752929688 147.80184936523438 192.552978515625 150.7656707763672 C 188.61782836914062 153.82095336914062 191.60081481933594 162.7364959716797 189.57400512695312 170.49537658691406 C 185.21482849121094 175.6534881591797 176.8076171875 179.30828857421875 172.0807342529297 187.13087463378906 C 167.33099365234375 197.71926879882812 161.19235229492188 207.76698303222656 158.5335693359375 218.43173217773438 C 155.72950744628906 231.77407836914062 156.96450805664062 234.8181610107422 159.40745544433594 245.78421020507812 C 161.3628692626953 250.70176696777344 167.85153198242188 256.1419677734375 176.50611877441406 260.7821044921875 C 174.64089965820312 256.8764953613281 176.1606903076172 251.42909240722656 179.23619079589844 250.5328826904297 C 187.35643005371094 250.30856323242188 196.16079711914062 251.6328582763672 209.557861328125 248.17762756347656 C 207.83457946777344 232.58230590820312 215.1386260986328 229.6073760986328 223.5224151611328 222.29515075683594 C 228.6658477783203 214.31704711914062 226.2856903076172 206.9687957763672 223.36729431152344 203.68194580078125 C 211.4284210205078 199.56881713867188 211.98069763183594 187.2643585205078 203.30148315429688 179.0546112060547 C 201.3687744140625 162.8458709716797 206.96160888671875 168.764404296875 209.0535888671875 156.1439666748047 C 209.4427032470703 152.31507873535156 205.6466522216797 149.5674285888672 205.84027099609375 148.1646728515625" stroke-width="0.0" fill="rgb(66, 64, 65)" opacity="0.9441491" stroke="rgb(0, 0, 0)" stroke-opacity="1.0" stroke-linecap="round" stroke-linejoin="round"/>
    <path d="M 207.6580352783203 248.61204528808594 C 192.31951904296875 251.79457092285156 177.8280487060547 247.42147827148438 176.13223266601562 253.88992309570312 C 172.896240234375 268.240966796875 187.49839782714844 275.9642028808594 185.63925170898438 296.6855773925781 C 173.7559814453125 303.34405517578125 160.2796630859375 311.88592529296875 144.8101348876953 319.5039978027344 C 141.193115234375 325.3572082519531 138.7847137451172 330.43438720703125 146.2547607421875 337.44818115234375 C 163.36268615722656 330.76690673828125 176.27374267578125 317.8013000488281 194.6383514404297 310.7500305175781 C 198.0479278564453 319.4057312011719 192.7003631591797 337.719482421875 194.2174072265625 351.6739501953125 C 196.5709991455078 353.2724304199219 199.1724090576172 356.7307434082031 208.47125244140625 353.50726318359375 C 212.3339080810547 335.1571350097656 217.0786590576172 320.21405029296875 215.9242401123047 298.4224548339844 C 213.3892059326172 279.1981201171875 210.3803253173828 263.3353576660156 207.6580352783203 248.61204528808594" stroke-width="0.0" fill="rgb(74, 71, 69)" opacity="0.914146" stroke="rgb(0, 0, 0)" stroke-opacity="1.0" stroke-linecap="round" stroke-linejoin="round"/>
    <path d="M -4.889955997467041 184.3585205078125 C -5.0163984298706055 194.08779907226562 -3.601641893386841 204.6608428955078 -2.116225481033325 214.88003540039062 C 14.800585746765137 214.5294189453125 31.41248893737793 214.77828979492188 49.222904205322266 219.731201171875 C 55.14403533935547 215.1885528564453 49.409400939941406 228.15147399902344 57.22708511352539 227.00088500976562 C 61.861881256103516 231.94192504882812 56.05107498168945 221.53482055664062 64.64608764648438 219.61708068847656 C 72.16096496582031 215.9334259033203 86.1617202758789 216.78964233398438 98.80315399169922 213.190185546875 C 80.7264633178711 208.10494995117188 80.55995178222656 192.2681884765625 64.80494689941406 190.11016845703125 C 44.81306838989258 184.4114532470703 21.870634078979492 185.42724609375 -4.889955997467041 184.3585205078125" stroke-width="0.0" fill="rgb(143, 113, 75)" opacity="0.934994" stroke="rgb(0, 0, 0)" stroke-opacity="1.0" stroke-linecap="round" stroke-linejoin="round"/>
    <path d="M 369.302490234375 354.47662353515625 C 365.0932312011719 365.564208984375 367.8087463378906 371.2298583984375 375.05743408203125 379.1837158203125 C 393.12225341796875 379.7838134765625 412.10546875 381.97998046875 432.4846496582031 382.75201416015625 C 439.7101135253906 381.0394287109375 443.0936584472656 379.4727783203125 444.490966796875 373.7117919921875 C 444.43707275390625 366.4779052734375 441.66278076171875 362.433837890625 438.36383056640625 360.53497314453125 C 418.3760070800781 358.14593505859375 405.0441589355469 354.7335510253906 390.4780578613281 351.93206787109375 C 378.5653381347656 351.450439453125 370.2012023925781 352.2386779785156 369.302490234375 354.47662353515625" stroke-width="0.0" fill="rgb(111, 98, 85)" opacity="0.90510744" stroke="rgb(0, 0, 0)" stroke-opacity="1.0" stroke-linecap="round" stroke-linejoin="round"/>
    <path d="M 181.09152221679688 358.82855224609375 C 169.23611450195312 355.3201599121094 154.53895568847656 355.1261901855469 137.22232055664062 355.27740478515625 C 125.19719696044922 359.0683288574219 109.41980743408203 359.4701232910156 101.54938507080078 361.98583984375 C 96.2922592163086 365.2000427246094 94.09042358398438 366.4215087890625 99.60954284667969 372.7850646972656 C 101.90208435058594 376.3352355957031 116.09532928466797 374.58892822265625 132.29237365722656 375.2928771972656 C 150.78897094726562 369.6983337402344 171.2335968017578 370.8771667480469 181.09152221679688 358.82855224609375" stroke-width="0.0" fill="rgb(61, 57, 53)" opacity="0.9674336" stroke="rgb(0, 0, 0)" stroke-opacity="1.0" stroke-linecap="round" stroke-linejoin="round"/>
    <path d="M 295.5218505859375 434.0942077636719 C 311.9162902832031 441.84906005859375 336.7058410644531 438.21417236328125 354.6938781738281 445.058349609375 C 388.0425109863281 447.1651611328125 411.2879333496094 441.6651611328125 440.6427001953125 443.53753662109375 C 446.2900695800781 441.49481201171875 447.83978271484375 435.1075134277344 448.8216857910156 432.15777587890625 C 470.41729736328125 434.00262451171875 493.5790100097656 430.35888671875 516.9480590820312 437.1576232910156 C 518.2404174804688 422.65216064453125 518.2847900390625 409.43603515625 515.9976196289062 398.7674255371094 C 466.28082275390625 385.6116943359375 420.4614562988281 381.25274658203125 370.78692626953125 378.41497802734375 C 337.5570373535156 390.86175537109375 332.3467712402344 421.5329284667969 295.5218505859375 434.0942077636719" stroke-width="0.0" fill="rgb(34, 34, 36)" opacity="0.9892126" stroke="rgb(0, 0, 0)" stroke-opacity="1.0" stroke-linecap="round" stroke-linejoin="round"/>
    <path d="M 317.7474670410156 251.6840362548828 C 293.2162780761719 250.00558471679688 272.7655944824219 249.31951904296875 256.13458251953125 258.9743347167969 C 247.68443298339844 261.43902587890625 257.1308288574219 280.1330261230469 243.3260955810547 296.4908447265625 C 255.63063049316406 307.26702880859375 278.7735595703125 300.9026184082031 312.9804992675781 302.1593933105469 C 315.5953369140625 300.3465270996094 319.3730773925781 294.26690673828125 319.85675048828125 285.11663818359375 C 319.34503173828125 275.02142333984375 318.3323974609375 262.8799133300781 317.7474670410156 251.6840362548828" stroke-width="0.0" fill="rgb(80, 71, 72)" opacity="0.9658958" stroke="rgb(0, 0, 0)" stroke-opacity="1.0" stroke-linecap="round" stroke-linejoin="round"/>
    <path d="M 336.9674072265625 228.2648468017578 C 330.3382568359375 234.69235229492188 325.3025207519531 239.7034149169922 321.9811706542969 250.06837463378906 C 320.98260498046875 279.9270324707031 325.4697570800781 301.1147766113281 326.4732971191406 324.8914489746094 C 326.4156494140625 328.7663269042969 328.7137145996094 330.0834655761719 332.64349365234375 330.3815002441406 C 339.9570617675781 329.99957275390625 344.36419677734375 331.9533386230469 345.6511535644531 323.9255065917969 C 346.2659912109375 306.4342346191406 346.1053466796875 293.8056640625 353.61883544921875 275.940185546875 C 352.4296875 257.6401672363281 355.3643493652344 241.80577087402344 350.11773681640625 230.3783721923828 C 346.4427490234375 232.99893188476562 343.9493103027344 231.0655975341797 336.9674072265625 228.2648468017578" stroke-width="0.0" fill="rgb(100, 104, 113)" opacity="1.0363574" stroke="rgb(0, 0, 0)" stroke-opacity="1.0" stroke-linecap="round" stroke-linejoin="round"/>
    <path d="M 1.1162769794464111 266.1310119628906 C -1.7531709671020508 268.013427734375 -4.996825218200684 261.6142883300781 -7.6102375984191895 247.49388122558594 C -7.071859836578369 277.2265930175781 -8.073287963867188 303.50927734375 -5.6478376388549805 329.6335754394531 C 5.903656959533691 326.09100341796875 13.08458137512207 326.75628662109375 14.193803787231445 321.03411865234375 C 16.65180778503418 316.30902099609375 18.290437698364258 309.0592956542969 16.772443771362305 302.21759033203125 C 30.697246551513672 298.2117919921875 47.67085266113281 299.3368835449219 52.431915283203125 283.0051574707031 C 49.43193435668945 275.28338623046875 37.14303207397461 276.192626953125 29.659530639648438 275.28021240234375 C 21.68889617919922 271.2043762207031 8.487626075744629 269.9473571777344 1.1162769794464111 266.1310119628906" stroke-width="0.0" fill="rgb(37, 38, 40)" opacity="1.14564" stroke="rgb(0, 0, 0)" stroke-opacity="1.0" stroke-linecap="round" stroke-linejoin="round"/>
    <path d="M 196.04872131347656 310.6246643066406 C 180.9049530029297 316.90582275390625 169.35079956054688 326.3538513183594 153.62464904785156 334.3508605957031 C 152.06753540039062 335.063720703125 150.29364013671875 347.7294616699219 151.62062072753906 354.5930480957031 C 160.50579833984375 355.31781005859375 177.41748046875 359.5399475097656 189.93109130859375 355.55035400390625 C 194.6325225830078 344.9347839355469 196.7258758544922 330.2490539550781 196.04872131347656 310.6246643066406" stroke-width="0.0" fill="rgb(192, 169, 133)" opacity="0.8466695" stroke="rgb(0, 0, 0)" stroke-opacity="1.0" stroke-linecap="round" stroke-linejoin="round"/>
    <path d="M 251.3982391357422 215.117919921875 C 267.55291748046875 219.2439422607422 290.4761962890625 213.23782348632812 301.4139709472656 225.3706512451172 C 321.6364440917969 212.17955017089844 358.8739929199219 221.0599365234375 372.7020568847656 214.99708557128906 C 342.4330139160156 206.42503356933594 310.9782409667969 207.45936584472656 284.3602294921875 203.17138671875 C 267.763427734375 203.41038513183594 260.72900390625 208.27024841308594 251.3982391357422 215.117919921875" stroke-width="0.0" fill="rgb(123, 113, 101)" opacity="1.0833281" stroke="rgb(0, 0, 0)" stroke-opacity="1.0" stroke-linecap="round" stroke-linejoin="round"/>
    <path d="M 145.69541931152344 258.55560302734375 C 122.61804962158203 260.36279296875 106.03392028808594 261.4566650390625 95.9222183227539 263.9931945800781 C 91.2429428100586 265.348876953125 87.39421844482422 269.5454406738281 85.96224212646484 276.17034912109375 C 92.26261138916016 280.4459533691406 100.74534606933594 284.33404541015625 118.04312133789062 280.90655517578125 C 128.960693359375 278.36273193359375 137.4853515625 277.9745788574219 145.09713745117188 276.35601806640625 C 148.7044219970703 271.34100341796875 152.30123901367188 266.3616943359375 145.69541931152344 258.55560302734375" stroke-width="0.0" fill="rgb(15, 29, 39)" opacity="0.9771781" stroke="rgb(0, 0, 0)" stroke-opacity="1.0" stroke-linecap="round" stroke-linejoin="round"/>
    <path d="M -3.0747861862182617 175.08763122558594 C -3.034087657928467 177.1846160888672 -1.287466287612915 180.76754760742188 -1.7643331289291382 184.87484741210938 C 22.223630905151367 184.3742218017578 45.70161819458008 186.20005798339844 70.56914520263672 189.97909545898438 C 63.884033203125 182.34288024902344 53.92196273803711 180.48516845703125 46.128021240234375 178.1825714111328 C 32.015785217285156 175.9123992919922 15.251784324645996 174.31187438964844 -3.0747861862182617 175.08763122558594" stroke-width="0.0" fill="rgb(128, 170, 209)" opacity="0.9499846" stroke="rgb(0, 0, 0)" stroke-opacity="1.0" stroke-linecap="round" stroke-linejoin="round"/>
    <path d="M -8.282917022705078 214.8189239501953 C -8.289288520812988 240.0592041015625 -7.507369518280029 257.81317138671875 -6.072009086608887 266.35986328125 C 19.73080062866211 273.3437805175781 35.71060562133789 274.9676818847656 46.11530685424805 270.7117004394531 C 48.054603576660156 266.90240478515625 46.36353302001953 254.54869079589844 47.530948638916016 251.34768676757812 C 54.1554069519043 247.70773315429688 49.767303466796875 256.75909423828125 50.32868957519531 269.18011474609375 C 55.070369720458984 269.0894470214844 52.66519546508789 255.41244506835938 53.76566696166992 239.7689208984375 C 50.798072814941406 249.2142791748047 45.5971565246582 239.6049346923828 48.13520812988281 244.78900146484375 C 49.064544677734375 240.91864013671875 52.49559783935547 239.35914611816406 54.98255157470703 237.02734375 C 54.976776123046875 246.61093139648438 54.701175689697266 263.35736083984375 54.8405876159668 268.7635498046875 C 74.38838958740234 272.4856872558594 70.03846740722656 265.9261474609375 75.80474090576172 276.3814392089844 C 85.63197326660156 279.2475280761719 88.8477554321289 274.20758056640625 89.2957763671875 265.959716796875 C 113.06565856933594 264.8193359375 137.14999389648438 263.181396484375 155.009521484375 254.84910583496094 C 155.90325927734375 250.95755004882812 153.31211853027344 235.50511169433594 153.79559326171875 223.15603637695312 C 106.15107727050781 229.0001220703125 105.66381072998047 211.49916076660156 69.71614837646484 217.81488037109375 C 53.752254486083984 211.93385314941406 61.5023078918457 221.04119873046875 58.575538635253906 227.59310913085938 C 59.114662170410156 230.06459045410156 55.89044189453125 231.784423828125 49.37443542480469 227.02566528320312 C 50.75862503051758 229.679443359375 53.130401611328125 220.4341583251953 49.260009765625 219.46163940429688 C 33.5164909362793 215.11817932128906 18.87427520751953 213.5631103515625 -8.282917022705078 214.8189239501953" stroke-width="0.0" fill="rgb(101, 127, 143)" opacity="0.80554223" stroke="rgb(0, 0, 0)" stroke-opacity="1.0" stroke-linecap="round" stroke-linejoin="round"/>
    <path d="M 448.7957458496094 438.6385498046875 C 441.4947509765625 452.7513732910156 450.5324401855469 449.9840087890625 451.16204833984375 462.6831359863281 C 453.7620544433594 463.14678955078125 464.8784484863281 465.8805236816406 471.9825439453125 463.9936828613281 C 473.239990234375 472.5912780761719 467.6565856933594 473.9362487792969 479.63409423828125 472.1620178222656 C 483.93731689453125 479.3846435546875 473.9092712402344 471.3020935058594 470.95025634765625 478.8498840332031 C 475.9766540527344 478.5541687011719 483.8580322265625 478.285400390625 477.3831481933594 483.0868835449219 C 466.4814147949219 486.7643737792969 491.2362976074219 489.6063537597656 478.6514587402344 513.8986206054688 C 491.2266845703125 517.9150390625 501.9309997558594 518.0224609375 520.8848266601562 518.29150390625 C 520.8016357421875 482.7443542480469 520.904052734375 456.771240234375 510.9853210449219 439.1989440917969 C 504.4226379394531 435.628173828125 498.09454345703125 434.4454345703125 486.7200012207031 432.5120544433594 C 471.9510803222656 434.7176513671875 458.92828369140625 432.4504089355469 448.7957458496094 438.6385498046875" stroke-width="0.0" fill="rgb(191, 169, 128)" opacity="0.99834186" stroke="rgb(0, 0, 0)" stroke-opacity="1.0" stroke-linecap="round" stroke-linejoin="round"/>
    <path d="M 517.5072631835938 131.21145629882812 C 473.1148376464844 134.55255126953125 434.0360107421875 134.48658752441406 407.8244323730469 142.0187225341797 C 403.782958984375 140.9275360107422 396.7628479003906 149.72299194335938 400.03765869140625 156.38499450683594 C 427.5649108886719 158.06922912597656 463.4801940917969 156.65472412109375 494.7566833496094 156.8809814453125 C 495.0280456542969 156.59857177734375 491.66522216796875 156.9415740966797 490.41278076171875 157.12704467773438 C 493.86773681640625 163.54432678222656 496.9062805175781 163.34710693359375 502.5052795410156 163.1115264892578 C 502.9247741699219 154.4462127685547 503.70806884765625 150.88836669921875 520.3194580078125 151.06227111816406 C 518.6817626953125 141.98880004882812 520.4142456054688 133.65594482421875 517.5072631835938 131.21145629882812" stroke-width="0.0" fill="rgb(71, 74, 97)" opacity="0.9694206" stroke="rgb(0, 0, 0)" stroke-opacity="1.0" stroke-linecap="round" stroke-linejoin="round"/>
    <path d="M 264.68048095703125 332.6414794921875 C 283.1854248046875 333.9662170410156 307.0948181152344 334.1466979980469 331.1054382324219 334.1729431152344 C 322.5895690917969 330.26788330078125 326.054443359375 320.18682861328125 324.3717346191406 309.00286865234375 C 312.3691101074219 313.3232116699219 320.37164306640625 303.8758544921875 307.391357421875 306.04962158203125 C 292.0549621582031 303.7247619628906 278.0140686035156 305.143310546875 273.656005859375 305.56072998046875 C 273.3416442871094 315.5403137207031 270.0750732421875 322.9962463378906 273.4018249511719 326.82086181640625 C 272.14599609375 332.62384033203125 263.2864685058594 326.9830017089844 264.68048095703125 332.6414794921875" stroke-width="0.0" fill="rgb(139, 126, 104)" opacity="0.93315023" stroke="rgb(0, 0, 0)" stroke-opacity="1.0" stroke-linecap="round" stroke-linejoin="round"/>
    <path d="M 374.8869934082031 295.0327453613281 C 371.0949401855469 307.2203369140625 370.3878479003906 320.4759826660156 372.6502990722656 344.26324462890625 C 373.589599609375 344.7954406738281 383.64117431640625 346.5456848144531 393.34991455078125 348.5273132324219 C 395.7525329589844 332.2406311035156 395.8851318359375 312.1201171875 395.8602294921875 292.6438903808594 C 389.80023193359375 290.7630615234375 379.90252685546875 293.5550231933594 374.8869934082031 295.0327453613281" stroke-width="0.0" fill="rgb(108, 97, 88)" opacity="1.0001343" stroke="rgb(0, 0, 0)" stroke-opacity="1.0" stroke-linecap="round" stroke-linejoin="round"/>
    <path d="M 347.9549255371094 334.7026672363281 C 336.9806213378906 351.3049011230469 340.91552734375 351.5418395996094 345.25006103515625 378.65557861328125 C 344.1782531738281 375.3529357910156 351.8081359863281 378.71124267578125 356.4736328125 377.47003173828125 C 357.70654296875 386.2764892578125 353.62237548828125 395.9130859375 358.0799560546875 401.4815979003906 C 362.5481262207031 396.8060607910156 360.26593017578125 386.2937316894531 364.6266784667969 376.248291015625 C 365.0561828613281 372.9588623046875 367.3980712890625 377.8037414550781 372.29541015625 376.528076171875 C 364.5782470703125 364.0610046386719 365.57513427734375 356.3455810546875 374.92694091796875 349.15191650390625 C 365.36553955078125 349.86553955078125 362.117431640625 348.3859558105469 356.73944091796875 347.4536437988281 C 355.05267333984375 342.4927673339844 347.5790710449219 335.6771240234375 347.9549255371094 334.7026672363281" stroke-width="0.0" fill="rgb(54, 53, 61)" opacity="1.0069423" stroke="rgb(0, 0, 0)" stroke-opacity="1.0" stroke-linecap="round" stroke-linejoin="round"/>
    <path d="M 82.65208435058594 284.58197021484375 C 74.34330749511719 285.1647644042969 61.50462341308594 283.8882141113281 64.01563262939453 285.3351135253906 C 55.827884674072266 292.7046203613281 59.963768005371094 301.62493896484375 52.53550720214844 306.36895751953125 C 52.8264274597168 314.36602783203125 52.30344772338867 320.4256286621094 54.94718551635742 323.5972900390625 C 67.212890625 324.7398376464844 74.00511932373047 320.4483642578125 84.6518783569336 319.3750305175781 C 82.68965911865234 308.0023193359375 84.84412384033203 296.102294921875 82.65208435058594 284.58197021484375" stroke-width="0.0" fill="rgb(161, 153, 139)" opacity="1.0048091" stroke="rgb(0, 0, 0)" stroke-opacity="1.0" stroke-linecap="round" stroke-linejoin="round"/>
    <path d="M 353.1043395996094 293.6281433105469 C 350.5592956542969 295.0609436035156 352.995361328125 312.898681640625 351.3003845214844 331.7158508300781 C 357.070068359375 335.265625 358.7683410644531 337.1625671386719 358.9575500488281 348.03314208984375 C 359.8514709472656 337.21392822265625 373.75408935546875 341.7377014160156 372.656982421875 341.7088317871094 C 370.7353515625 326.1623229980469 372.1551513671875 313.04486083984375 373.4665222167969 296.4908142089844 C 362.60540771484375 295.84039306640625 360.0423583984375 285.71221923828125 353.1043395996094 293.6281433105469" stroke-width="0.0" fill="rgb(51, 42, 48)" opacity="1.0021415" stroke="rgb(0, 0, 0)" stroke-opacity="1.0" stroke-linecap="round" stroke-linejoin="round"/>
    <path d="M 405.6109313964844 164.3542022705078 C 422.678955078125 167.3558349609375 444.3397521972656 168.80880737304688 465.52679443359375 170.32179260253906 C 469.9095458984375 168.42694091796875 467.4826965332031 163.1671142578125 468.8022155761719 162.8406982421875 C 485.3157653808594 163.1875457763672 497.404296875 166.21766662597656 499.1999206542969 157.25157165527344 C 478.3303527832031 157.42735290527344 456.26751708984375 156.8278350830078 439.22314453125 156.0945281982422 C 428.17230224609375 157.362060546875 413.7784118652344 157.6273651123047 404.85211181640625 156.2392578125 C 408.3918151855469 157.63291931152344 402.3567810058594 158.38485717773438 405.6109313964844 164.3542022705078" stroke-width="0.0" fill="rgb(122, 95, 82)" opacity="0.96605796" stroke="rgb(0, 0, 0)" stroke-opacity="1.0" stroke-linecap="round" stroke-linejoin="round"/>
    <path d="M 40.372711181640625 299.76104736328125 C 31.012128829956055 299.2711486816406 23.11762237548828 302.39764404296875 16.409286499023438 303.67315673828125 C 18.437999725341797 309.8128662109375 14.135946273803711 316.0173645019531 13.392236709594727 327.19049072265625 C 25.29901123046875 325.3860778808594 37.57380294799805 325.9862365722656 47.44209289550781 324.0969543457031 C 45.49143981933594 314.0158386230469 44.78818130493164 304.7151794433594 40.372711181640625 299.76104736328125" stroke-width="0.0" fill="rgb(155, 137, 108)" opacity="0.91843694" stroke="rgb(0, 0, 0)" stroke-opacity="1.0" stroke-linecap="round" stroke-linejoin="round"/>
    <path d="M 453.21142578125 199.64459228515625 C 452.1911926269531 188.33763122558594 448.5744323730469 191.70069885253906 441.6997375488281 190.06678771972656 C 387.7239990234375 189.587646484375 334.0541076660156 190.13795471191406 294.4455261230469 196.4820098876953 C 286.9399108886719 197.37857055664062 285.1094055175781 198.1085205078125 288.2104797363281 206.16748046875 C 312.3164978027344 206.77352905273438 338.5367736816406 206.2234649658203 360.3861389160156 213.37661743164062 C 354.95745849609375 218.60452270507812 358.2548828125 208.74258422851562 371.21978759765625 215.24615478515625 C 371.5372009277344 216.0659942626953 370.3276062011719 204.4136199951172 371.4606628417969 201.56459045410156 C 398.6661682128906 197.67994689941406 388.2156982421875 210.81222534179688 389.4184875488281 207.5336151123047 C 421.27197265625 204.86900329589844 442.34539794921875 206.1143798828125 453.21142578125 199.64459228515625" stroke-width="0.0" fill="rgb(146, 101, 47)" opacity="0.8451812" stroke="rgb(0, 0, 0)" stroke-opacity="1.0" stroke-linecap="round" stroke-linejoin="round"/>
    <path d="M 352.78900146484375 235.99526977539062 C 351.4319763183594 247.23040771484375 355.66656494140625 253.30422973632812 362.00885009765625 255.9940185546875 C 414.52325439453125 252.51107788085938 457.8373107910156 253.9038848876953 496.0604553222656 255.0114288330078 C 446.70416259765625 247.08575439453125 399.1923522949219 242.46832275390625 352.78900146484375 235.99526977539062" stroke-width="0.0" fill="rgb(134, 135, 136)" opacity="1.0350581" stroke="rgb(0, 0, 0)" stroke-opacity="1.0" stroke-linecap="round" stroke-linejoin="round"/>
    <path d="M 370.002685546875 264.932861328125 C 383.5311279296875 264.9324645996094 395.78460693359375 266.7762756347656 410.9436950683594 266.1219482421875 C 415.435302734375 262.8965148925781 422.1177062988281 258.51947021484375 430.57293701171875 253.54251098632812 C 408.4744567871094 254.56663513183594 386.74029541015625 254.30712890625 370.22222900390625 255.1934356689453 C 369.9032287597656 256.2693786621094 370.1741638183594 262.80316162109375 370.002685546875 264.932861328125" stroke-width="0.0" fill="rgb(144, 170, 176)" opacity="0.99878263" stroke="rgb(0, 0, 0)" stroke-opacity="1.0" stroke-linecap="round" stroke-linejoin="round"/>
    <path d="M 464.89141845703125 224.87570190429688 C 479.1202697753906 233.4385223388672 490.62579345703125 241.35787963867188 500.89617919921875 252.22976684570312 C 507.8664855957031 253.69094848632812 505.60009765625 246.62510681152344 511.3480529785156 245.99107360839844 C 510.4019470214844 239.11549377441406 512.4393920898438 229.12850952148438 510.3948059082031 223.5967254638672 C 495.860107421875 224.98143005371094 478.8498840332031 222.59324645996094 464.89141845703125 224.87570190429688" stroke-width="0.0" fill="rgb(128, 178, 191)" opacity="1.0027851" stroke="rgb(0, 0, 0)" stroke-opacity="1.0" stroke-linecap="round" stroke-linejoin="round"/>
    <path d="M 127.34266662597656 505.6298828125 C 134.88027954101562 512.8043823242188 141.114013671875 519.8843994140625 151.04095458984375 518.293701171875 C 160.78952026367188 505.38800048828125 172.46388244628906 504.45849609375 173.2806396484375 502.75079345703125 C 170.7250518798828 493.0452880859375 161.62733459472656 496.7571716308594 146.71481323242188 495.7116394042969 C 140.05581665039062 498.2138671875 128.8275146484375 501.85723876953125 127.34266662597656 505.6298828125" stroke-width="0.0" fill="rgb(188, 165, 121)" opacity="0.99914384" stroke="rgb(0, 0, 0)" stroke-opacity="1.0" stroke-linecap="round" stroke-linejoin="round"/>
    <path d="M 194.2491455078125 301.7559814453125 C 193.23199462890625 299.30999755859375 188.24998474121094 295.906982421875 186.02401733398438 295.6134033203125 C 172.99339294433594 303.2288818359375 161.64547729492188 311.3793640136719 147.4641876220703 317.29046630859375 C 140.879638671875 322.68292236328125 139.54074096679688 324.4959716796875 140.87457275390625 329.6619873046875 C 138.54405212402344 336.576904296875 149.03500366210938 343.279052734375 148.23013305664062 340.42059326171875 C 160.17681884765625 328.01806640625 178.49111938476562 319.6114196777344 194.98020935058594 309.6976013183594 C 196.05184936523438 307.5770568847656 197.3069305419922 308.8981018066406 194.2491455078125 301.7559814453125" stroke-width="0.0" fill="rgb(21, 19, 20)" opacity="0.93627316" stroke="rgb(0, 0, 0)" stroke-opacity="1.0" stroke-linecap="round" stroke-linejoin="round"/>
    <path d="M 195.12950134277344 147.4896240234375 C 187.82652282714844 149.68971252441406 188.61312866210938 157.19219970703125 189.05056762695312 173.66244506835938 C 187.7493896484375 173.17982482910156 198.02403259277344 174.0587615966797 203.14088439941406 177.80430603027344 C 203.4532470703125 166.93157958984375 211.1975860595703 163.66075134277344 209.10243225097656 154.98965454101562 C 209.02224731445312 146.8805389404297 201.62838745117188 143.73190307617188 195.12950134277344 147.4896240234375" stroke-width="0.0" fill="rgb(24, 27, 36)" opacity="0.97294694" stroke="rgb(0, 0, 0)" stroke-opacity="1.0" stroke-linecap="round" stroke-linejoin="round"/>
    <path d="M 298.1611022949219 438.28814697265625 C 312.40057373046875 440.0323181152344 337.7243957519531 440.0262451171875 362.3779602050781 445.8656921386719 C 388.9493103027344 445.3485107421875 420.8237609863281 444.6245422363281 444.6203918457031 443.73419189453125 C 449.1480407714844 433.2056884765625 441.9555969238281 425.9839782714844 443.9482421875 429.7791442871094 C 415.9092712402344 430.7869567871094 400.6341552734375 427.7710266113281 386.7990417480469 420.5349426269531 C 362.17083740234375 419.1709899902344 339.5210876464844 420.768310546875 317.7745361328125 419.6361083984375 C 312.3086242675781 427.9952392578125 294.907470703125 421.5052490234375 298.1611022949219 438.28814697265625" stroke-width="0.0" fill="rgb(84, 80, 73)" opacity="0.93933237" stroke="rgb(0, 0, 0)" stroke-opacity="1.0" stroke-linecap="round" stroke-linejoin="round"/>
    <path d="M 411.61260986328125 272.5358581542969 C 407.9951477050781 276.2301025390625 417.2057800292969 280.9675598144531 422.5412902832031 280.2178649902344 C 451.3582763671875 287.9705810546875 480.45587158203125 291.85345458984375 499.2220153808594 284.3856201171875 C 504.88287353515625 274.8368835449219 496.8991394042969 269.9713439941406 494.9766540527344 262.7889709472656 C 479.50439453125 258.893798828125 462.84320068359375 256.56732177734375 446.1889953613281 254.0352783203125 C 436.3274841308594 253.38485717773438 431.84515380859375 252.98934936523438 426.1561279296875 256.9041442871094 C 419.6881408691406 261.4041748046875 411.7235412597656 265.0700988769531 411.61260986328125 272.5358581542969" stroke-width="0.0" fill="rgb(60, 50, 57)" opacity="0.9606145" stroke="rgb(0, 0, 0)" stroke-opacity="1.0" stroke-linecap="round" stroke-linejoin="round"/>
    <path d="M 178.1978302001953 252.19412231445312 C 177.99917602539062 269.58538818359375 190.00657653808594 277.8476257324219 188.43228149414062 293.89239501953125 C 192.26870727539062 293.27978515625 195.90093994140625 295.5945739746094 196.6094970703125 300.0683288574219 C 198.78680419921875 320.3663024902344 195.5391387939453 333.701904296875 193.53294372558594 351.43878173828125 C 195.37152099609375 355.49383544921875 200.9515838623047 356.141845703125 207.98007202148438 354.0316467285156 C 211.09295654296875 340.0714416503906 216.11416625976562 325.6155700683594 217.27200317382812 299.9802551269531 C 214.05308532714844 285.4271545410156 211.4509735107422 266.4420471191406 206.93133544921875 250.01937866210938 C 197.09445190429688 251.14190673828125 182.6475372314453 247.2752227783203 178.1978302001953 252.19412231445312" stroke-width="0.0" fill="rgb(18, 18, 24)" opacity="0.9978789" stroke="rgb(0, 0, 0)" stroke-opacity="1.0" stroke-linecap="round" stroke-linejoin="round"/>
    <path d="M 337.8333740234375 227.43096923828125 C 330.6123046875 234.74440002441406 324.82952880859375 239.03575134277344 322.2703857421875 250.5692138671875 C 323.5817565917969 267.29620361328125 324.17620849609375 278.4223327636719 328.0837097167969 294.9937438964844 C 331.06011962890625 295.0436096191406 335.1438293457031 297.1614990234375 345.33660888671875 296.5183410644531 C 350.3215637207031 294.2268981933594 347.3174133300781 282.4565734863281 353.13525390625 274.7181396484375 C 353.0149230957031 257.2918701171875 355.1029357910156 238.8974609375 350.0743713378906 231.3089141845703 C 344.4571228027344 231.61709594726562 342.27752685546875 230.3714141845703 337.8333740234375 227.43096923828125" stroke-width="0.0" fill="rgb(110, 112, 119)" opacity="1.0372958" stroke="rgb(0, 0, 0)" stroke-opacity="1.0" stroke-linecap="round" stroke-linejoin="round"/>
    <path d="M -4.088032245635986 185.04495239257812 C -5.0075297355651855 191.91873168945312 -5.437093734741211 200.41221618652344 -6.8207807540893555 208.79925537109375 C 29.487415313720703 206.16587829589844 56.50947952270508 205.86001586914062 75.25645446777344 202.9268035888672 C 75.14501190185547 189.93861389160156 67.08719635009766 191.18601989746094 55.75982666015625 187.5418243408203 C 37.44106674194336 187.1729736328125 18.584087371826172 184.3564910888672 -4.088032245635986 185.04495239257812" stroke-width="0.0" fill="rgb(120, 82, 48)" opacity="1.0069984" stroke="rgb(0, 0, 0)" stroke-opacity="1.0" stroke-linecap="round" stroke-linejoin="round"/>
    <path d="M 331.6298522949219 300.15338134765625 C 327.42718505859375 306.3694152832031 324.74542236328125 314.3030700683594 326.79583740234375 327.0292053222656 C 327.0936584472656 331.3304748535156 333.59771728515625 328.3844299316406 345.315673828125 331.70330810546875 C 342.93756103515625 323.1408386230469 347.836669921875 314.8450927734375 345.92120361328125 301.5833740234375 C 345.53826904296875 299.2359313964844 333.1348571777344 299.75518798828125 331.6298522949219 300.15338134765625" stroke-width="0.0" fill="rgb(10, 10, 17)" opacity="1.0043083" stroke="rgb(0, 0, 0)" stroke-opacity="1.0" stroke-linecap="round" stroke-linejoin="round"/>
    <path d="M 358.0169372558594 274.2251281738281 C 349.00146484375 299.4331970214844 350.46392822265625 320.8924255371094 354.2289733886719 349.48614501953125 C 387.4999084472656 349.1936950683594 412.21868896484375 357.9342346191406 441.7726135253906 363.2039489746094 C 448.952392578125 362.2767333984375 446.01239013671875 366.768310546875 449.1832580566406 374.9427185058594 C 452.8249206542969 373.3839416503906 455.4975891113281 371.4839172363281 456.1550598144531 372.7048034667969 C 458.3926696777344 360.3403015136719 468.5977478027344 355.0276794433594 469.0657043457031 339.0526123046875 C 471.4715881347656 323.94232177734375 478.672607421875 310.2059020996094 478.4347839355469 289.3855285644531 C 443.0185241699219 285.4077453613281 414.2447814941406 277.2741394042969 382.46417236328125 272.2178649902344 C 366.0692138671875 272.1450500488281 362.82916259765625 271.39825439453125 358.0169372558594 274.2251281738281" stroke-width="0.0" fill="rgb(110, 132, 135)" opacity="0.91940385" stroke="rgb(0, 0, 0)" stroke-opacity="1.0" stroke-linecap="round" stroke-linejoin="round"/>
    <path d="M 63.8347053527832 221.37289428710938 C 59.966796875 236.52130126953125 55.954994201660156 247.9764862060547 57.15162658691406 265.46160888671875 C 63.537174224853516 272.9129943847656 70.77317810058594 272.21435546875 84.22441864013672 273.4373474121094 C 84.32758331298828 270.7095642089844 83.6123275756836 266.8031311035156 90.97212982177734 266.0750732421875 C 110.7299575805664 267.4895935058594 129.52734375 263.1329650878906 148.69879150390625 258.8594665527344 C 150.2667236328125 261.9273681640625 147.51333618164062 269.8553771972656 150.5211639404297 274.9029541015625 C 155.20416259765625 254.61651611328125 156.6262969970703 236.12989807128906 155.6927490234375 223.7809600830078 C 121.14678192138672 225.3797149658203 93.30867767333984 221.11618041992188 63.8347053527832 221.37289428710938" stroke-width="0.0" fill="rgb(111, 159, 172)" opacity="1.0017463" stroke="rgb(0, 0, 0)" stroke-opacity="1.0" stroke-linecap="round" stroke-linejoin="round"/>
    <path d="M 510.8644104003906 273.6864318847656 C 508.3983154296875 292.83526611328125 487.04058837890625 284.4224853515625 479.9247131347656 295.4482421875 C 473.9434509277344 313.6119079589844 469.9704895019531 334.62042236328125 467.0498046875 356.86492919921875 C 462.56512451171875 369.0531921386719 460.2120056152344 375.017333984375 452.1012268066406 379.1605224609375 C 450.03277587890625 390.3636474609375 451.2572326660156 387.7445983886719 457.1529846191406 392.6105651855469 C 467.0212097167969 394.7259216308594 476.0558776855469 398.30755615234375 491.4836730957031 395.2230224609375 C 493.0646057128906 376.60052490234375 500.22674560546875 375.83319091796875 505.8663635253906 366.364990234375 C 508.3721008300781 359.27410888671875 509.5993347167969 347.9456481933594 507.6688232421875 342.4629211425781 C 505.68524169921875 336.43890380859375 501.2705993652344 332.149169921875 498.495361328125 331.2181396484375 C 501.8980712890625 322.34075927734375 506.3996887207031 315.0291442871094 517.1419067382812 307.4869384765625 C 519.6553344726562 295.8106689453125 518.93115234375 286.5156555175781 510.8644104003906 273.6864318847656" stroke-width="0.0" fill="rgb(9, 11, 13)" opacity="1.0188682" stroke="rgb(0, 0, 0)" stroke-opacity="1.0" stroke-linecap="round" stroke-linejoin="round"/>
    <path d="M 190.18150329589844 172.16888427734375 C 180.94776916503906 176.80316162109375 174.25479125976562 183.4356231689453 171.2167205810547 190.9199676513672 C 171.54159545898438 199.0478057861328 171.59014892578125 202.20692443847656 169.17518615722656 202.7313690185547 C 181.1678924560547 204.31405639648438 178.31549072265625 208.59429931640625 185.5698699951172 202.68373107910156 C 184.02764892578125 219.32122802734375 176.52236938476562 228.9758758544922 174.0208740234375 249.53875732421875 C 180.87106323242188 249.21884155273438 197.5483856201172 247.43324279785156 208.20407104492188 252.2730255126953 C 211.26370239257812 227.98135375976562 205.8949432373047 204.27735900878906 214.71270751953125 203.3358917236328 C 211.7656707763672 191.9281768798828 209.8346405029297 185.51467895507812 206.7039794921875 182.06300354003906 C 201.72836303710938 178.11248779296875 195.10926818847656 175.1724090576172 190.18150329589844 172.16888427734375" stroke-width="0.0" fill="rgb(84, 50, 37)" opacity="0.97544175" stroke="rgb(0, 0, 0)" stroke-opacity="1.0" stroke-linecap="round" stroke-linejoin="round"/>
    <path d="M 170.5219268798828 190.07614135742188 C 165.05149841308594 201.6140899658203 158.69528198242188 211.27566528320312 154.6404266357422 225.287841796875 C 158.07455444335938 251.68569946289062 157.12501525878906 255.39454650878906 153.43109130859375 277.7757873535156 C 160.88165283203125 291.4351501464844 151.01002502441406 295.6436767578125 166.48330688476562 296.10516357421875 C 178.68740844726562 292.2426452636719 170.9853515625 278.6860656738281 186.60276794433594 282.3213806152344 C 178.1075439453125 266.47320556640625 177.3419952392578 254.56362915039062 174.86964416503906 240.6265106201172 C 178.32920837402344 228.17269897460938 183.40565490722656 219.17437744140625 186.93853759765625 207.53587341308594 C 180.25941467285156 203.04388427734375 175.28262329101562 206.30416870117188 172.95272827148438 205.68385314941406 C 172.4586181640625 198.32496643066406 171.28831481933594 191.9948272705078 170.5219268798828 190.07614135742188" stroke-width="0.0" fill="rgb(118, 108, 106)" opacity="0.7861885" stroke="rgb(0, 0, 0)" stroke-opacity="1.0" stroke-linecap="round" stroke-linejoin="round"/>
    <path d="M 258.73846435546875 266.4307861328125 C 257.66033935546875 279.31280517578125 260.279052734375 290.8817138671875 262.7212829589844 300.1455383300781 C 283.4429016113281 301.0323791503906 293.830078125 292.1275329589844 316.9795227050781 295.57220458984375 C 321.9546813964844 286.3280944824219 317.4775390625 277.4332580566406 317.0049743652344 270.6803283691406 C 297.78741455078125 265.41632080078125 281.14581298828125 266.6778564453125 258.73846435546875 266.4307861328125" stroke-width="0.0" fill="rgb(79, 71, 62)" opacity="1.0041544" stroke="rgb(0, 0, 0)" stroke-opacity="1.0" stroke-linecap="round" stroke-linejoin="round"/>
    <path d="M 48.56829071044922 237.42691040039062 C 40.20266342163086 234.8233184814453 28.46877670288086 234.72438049316406 20.349105834960938 237.27346801757812 C 12.666257858276367 242.41461181640625 5.927919864654541 244.11453247070312 -3.966665744781494 249.64991760253906 C -6.252665042877197 252.2401123046875 -6.5816473960876465 260.5877990722656 -7.798888683319092 273.2625427246094 C 12.9930419921875 274.2009582519531 34.712989807128906 275.4369812011719 44.873207092285156 271.3514404296875 C 48.931907653808594 263.46197509765625 48.7070198059082 252.66598510742188 48.56829071044922 237.42691040039062" stroke-width="0.0" fill="rgb(128, 144, 152)" opacity="0.98371625" stroke="rgb(0, 0, 0)" stroke-opacity="1.0" stroke-linecap="round" stroke-linejoin="round"/>
    <path d="M -11.645837783813477 273.9978332519531 C -10.13611125946045 291.7951354980469 -7.133177757263184 293.6016845703125 4.054396152496338 302.4450988769531 C 25.307722091674805 307.08245849609375 28.925199508666992 292.82391357421875 55.616233825683594 303.7688293457031 C 58.053524017333984 286.8835144042969 51.95881652832031 281.1114196777344 42.51902770996094 274.78057861328125 C 24.91370391845703 274.0661315917969 6.866161823272705 275.99041748046875 -11.645837783813477 273.9978332519531" stroke-width="0.0" fill="rgb(106, 95, 76)" opacity="0.9329042" stroke="rgb(0, 0, 0)" stroke-opacity="1.0" stroke-linecap="round" stroke-linejoin="round"/>
    <path d="M 114.26860809326172 214.1951141357422 C 102.92440795898438 204.4952850341797 90.0988540649414 200.03854370117188 72.06204986572266 202.54287719726562 C 54.27116394042969 206.26951599121094 24.959808349609375 205.8468780517578 -9.013957023620605 209.67987060546875 C 10.763648986816406 214.44235229492188 25.851449966430664 214.94000244140625 35.43501281738281 218.45761108398438 C 64.84693908691406 215.35377502441406 95.32759094238281 216.711669921875 114.26860809326172 214.1951141357422" stroke-width="0.0" fill="rgb(133, 98, 62)" opacity="0.811882" stroke="rgb(0, 0, 0)" stroke-opacity="1.0" stroke-linecap="round" stroke-linejoin="round"/>
    <path d="M 0.03623025119304657 210.0411376953125 C 0.6662003397941589 221.4171905517578 3.5818991661071777 232.54571533203125 1.3637069463729858 236.80813598632812 C 18.317758560180664 240.57730102539062 33.114585876464844 237.32481384277344 50.581275939941406 237.87709045410156 C 45.242530822753906 229.8106689453125 51.09111404418945 224.5718536376953 48.59259033203125 218.58372497558594 C 31.342382431030273 217.16041564941406 15.494989395141602 214.65890502929688 0.03623025119304657 210.0411376953125" stroke-width="0.0" fill="rgb(155, 158, 157)" opacity="0.87860495" stroke="rgb(0, 0, 0)" stroke-opacity="1.0" stroke-linecap="round" stroke-linejoin="round"/>
    <path d="M 273.6456298828125 305.7239074707031 C 277.6897277832031 319.4977722167969 267.8558044433594 322.0839538574219 275.5339660644531 327.7763671875 C 286.9236145019531 324.7091369628906 300.3173828125 324.27630615234375 316.01171875 325.8320617675781 C 315.55999755859375 318.98138427734375 317.5639343261719 307.25604248046875 315.2441711425781 306.1407470703125 C 300.2574462890625 306.0283203125 284.4122314453125 303.43316650390625 273.6456298828125 305.7239074707031" stroke-width="0.0" fill="rgb(147, 133, 109)" opacity="1.0158395" stroke="rgb(0, 0, 0)" stroke-opacity="1.0" stroke-linecap="round" stroke-linejoin="round"/>
    <path d="M 373.8415222167969 349.72021484375 C 375.1387634277344 355.81005859375 369.67724609375 360.13677978515625 374.5719299316406 363.23876953125 C 395.2017517089844 365.32135009765625 416.1600036621094 369.365966796875 440.0137634277344 371.4756774902344 C 442.06695556640625 369.75439453125 440.2707824707031 361.2765808105469 440.746826171875 362.07958984375 C 416.0644836425781 360.0559387207031 396.94970703125 352.811279296875 373.8415222167969 349.72021484375" stroke-width="0.0" fill="rgb(195, 174, 136)" opacity="0.99108106" stroke="rgb(0, 0, 0)" stroke-opacity="1.0" stroke-linecap="round" stroke-linejoin="round"/>
    <path d="M 347.69781494140625 332.9399108886719 C 341.7174072265625 346.6070251464844 335.6470642089844 353.93994140625 344.63092041015625 366.3955993652344 C 342.16461181640625 371.6302795410156 336.15924072265625 370.7298278808594 336.0430603027344 376.382568359375 C 338.10345458984375 378.0521545410156 348.12884521484375 381.1241455078125 353.7451171875 378.2373962402344 C 359.0271301269531 375.0360412597656 356.1859436035156 363.5805358886719 357.02093505859375 346.4812316894531 C 350.8976745605469 345.2882385253906 351.8113708496094 338.00482177734375 347.69781494140625 332.9399108886719" stroke-width="0.0" fill="rgb(108, 77, 78)" opacity="1.0333863" stroke="rgb(0, 0, 0)" stroke-opacity="1.0" stroke-linecap="round" stroke-linejoin="round"/>
    <path d="M 52.14533615112305 310.7815856933594 C 54.51520919799805 313.17144775390625 50.14045333862305 320.1710510253906 54.627357482910156 321.0452575683594 C 64.64471435546875 320.2063903808594 76.84588623046875 321.230712890625 84.45816802978516 318.1283874511719 C 83.45610046386719 309.0332336425781 80.62657165527344 303.3266296386719 81.2258529663086 300.3511047363281 C 73.95230865478516 298.5469970703125 63.279232025146484 298.1300048828125 57.810340881347656 299.8082275390625 C 58.056007385253906 302.6736755371094 52.74583053588867 304.4735107421875 52.14533615112305 310.7815856933594" stroke-width="0.0" fill="rgb(174, 159, 131)" opacity="0.99701005" stroke="rgb(0, 0, 0)" stroke-opacity="1.0" stroke-linecap="round" stroke-linejoin="round"/>
    <path d="M 58.54450988769531 216.3972930908203 C 46.729671478271484 217.06631469726562 50.06336975097656 216.0193634033203 48.487754821777344 219.5437469482422 C 48.111595153808594 242.2909393310547 46.48284149169922 262.39044189453125 45.69670486450195 268.10760498046875 C 53.44546890258789 272.4307861328125 55.833438873291016 270.2084045410156 56.8206787109375 266.0050354003906 C 52.96563720703125 243.29832458496094 65.02796173095703 242.1084747314453 58.54450988769531 216.3972930908203" stroke-width="0.0" fill="rgb(78, 95, 102)" opacity="0.8946556" stroke="rgb(0, 0, 0)" stroke-opacity="1.0" stroke-linecap="round" stroke-linejoin="round"/>
    <path d="M 519.3844604492188 133.86795043945312 C 492.69854736328125 131.2041473388672 476.18243408203125 134.39610290527344 454.9188232421875 135.4536895751953 C 457.4759826660156 135.12905883789062 458.7017822265625 140.21913146972656 455.2785339355469 150.66432189941406 C 472.3434143066406 151.49423217773438 492.0366516113281 151.29066467285156 516.2850952148438 151.14210510253906 C 518.9292602539062 147.19166564941406 519.5907592773438 141.91766357421875 519.3844604492188 133.86795043945312" stroke-width="0.0" fill="rgb(117, 86, 46)" opacity="1.0006216" stroke="rgb(0, 0, 0)" stroke-opacity="1.0" stroke-linecap="round" stroke-linejoin="round"/>
    <path d="M 344.8721923828125 335.56414794921875 C 343.9156799316406 326.6673583984375 337.1238098144531 332.38116455078125 328.1053466796875 330.8382568359375 C 323.2139892578125 324.5401306152344 324.11248779296875 320.2025146484375 330.64208984375 322.8499755859375 C 300.5026550292969 324.9065246582031 274.2667236328125 324.6377258300781 256.2924499511719 333.5672607421875 C 293.2555236816406 334.5902404785156 326.0077819824219 335.0401611328125 344.8721923828125 335.56414794921875" stroke-width="0.0" fill="rgb(49, 46, 41)" opacity="1.0029223" stroke="rgb(0, 0, 0)" stroke-opacity="1.0" stroke-linecap="round" stroke-linejoin="round"/>
    <path d="M 469.52520751953125 172.4168701171875 C 469.5663146972656 167.7301788330078 466.84271240234375 165.55465698242188 466.9889221191406 160.21920776367188 C 462.0724792480469 156.57965087890625 455.2032470703125 158.3541717529297 454.0121154785156 153.76202392578125 C 457.0399475097656 149.7225341796875 456.70538330078125 141.1922149658203 457.7518005371094 133.0205841064453 C 440.8783874511719 136.9411163330078 422.9410400390625 137.39520263671875 409.171875 139.9989013671875 C 400.6123962402344 140.4700469970703 401.2999267578125 147.94044494628906 397.2433166503906 155.15879821777344 C 408.6291198730469 158.82090759277344 406.3894958496094 152.21009826660156 404.7364807128906 164.27017211914062 C 425.1023254394531 167.8878936767578 447.00341796875 169.017578125 469.52520751953125 172.4168701171875" stroke-width="0.0" fill="rgb(112, 85, 66)" opacity="0.93381846" stroke="rgb(0, 0, 0)" stroke-opacity="1.0" stroke-linecap="round" stroke-linejoin="round"/>
    <path d="M 98.90996551513672 380.841552734375 C 116.20613098144531 373.2239990234375 122.8415756225586 378.0843200683594 133.9461212158203 376.9822692871094 C 145.1800079345703 374.22760009765625 150.0 367.6908264160156 153.47427368164062 359.6774597167969 C 129.05215454101562 354.3999328613281 115.53012084960938 365.45086669921875 109.24826049804688 354.3922119140625 C 102.16555786132812 359.828125 99.34454345703125 362.3560791015625 95.19445037841797 365.9815979003906 C 100.91961669921875 372.9714050292969 99.7784194946289 368.80584716796875 98.90996551513672 380.841552734375" stroke-width="0.0" fill="rgb(43, 41, 38)" opacity="0.95638525" stroke="rgb(0, 0, 0)" stroke-opacity="1.0" stroke-linecap="round" stroke-linejoin="round"/>
    <path d="M 357.313232421875 242.93399047851562 C 355.5379333496094 250.99221801757812 356.4706726074219 251.68052673339844 362.4129638671875 254.801513671875 C 389.8967590332031 251.2021942138672 417.8482666015625 261.3947448730469 425.9415588378906 252.7791290283203 C 403.3691101074219 248.57699584960938 379.8053894042969 244.86590576171875 357.313232421875 242.93399047851562" stroke-width="0.0" fill="rgb(159, 157, 154)" opacity="1.0087898" stroke="rgb(0, 0, 0)" stroke-opacity="1.0" stroke-linecap="round" stroke-linejoin="round"/>
    <path d="M 410.8292541503906 273.4234313964844 C 411.6582946777344 276.6389465332031 414.7535095214844 283.8769836425781 415.619873046875 284.74755859375 C 432.5978088378906 289.5275573730469 450.89813232421875 283.4737854003906 470.5075378417969 285.11077880859375 C 467.5145263671875 270.6187438964844 477.93292236328125 269.356201171875 476.17486572265625 260.20849609375 C 464.4845275878906 255.70358276367188 448.1355285644531 253.98361206054688 434.2956848144531 253.69442749023438 C 422.3363342285156 257.6231384277344 412.8373107910156 261.2001953125 410.8292541503906 273.4234313964844" stroke-width="0.0" fill="rgb(69, 56, 60)" opacity="0.91063076" stroke="rgb(0, 0, 0)" stroke-opacity="1.0" stroke-linecap="round" stroke-linejoin="round"/>
    <path d="M 312.1954345703125 422.8789978027344 C 337.724853515625 431.6689453125 371.91424560546875 431.8331604003906 414.1844177246094 432.63348388671875 C 404.0769348144531 425.98699951171875 389.092041015625 422.14764404296875 381.7903137207031 419.35040283203125 C 359.4445495605469 422.07684326171875 323.1232604980469 416.3542175292969 312.1954345703125 422.8789978027344" stroke-width="0.0" fill="rgb(148, 134, 109)" opacity="0.93890035" stroke="rgb(0, 0, 0)" stroke-opacity="1.0" stroke-linecap="round" stroke-linejoin="round"/>
    <path d="M 352.9996032714844 288.9325256347656 C 347.7445068359375 311.6637268066406 351.82598876953125 332.11041259765625 357.4455261230469 348.39306640625 C 392.7980041503906 348.9067077636719 417.6502990722656 362.1294250488281 454.5897216796875 361.8787536621094 C 461.3838806152344 358.7814636230469 463.31597900390625 351.2662658691406 466.653564453125 347.75067138671875 C 469.7898254394531 336.9964294433594 470.96221923828125 326.47784423828125 472.469970703125 318.1958312988281 C 443.73504638671875 306.7891845703125 414.374267578125 302.8439636230469 394.2416687011719 290.54205322265625 C 372.0186767578125 293.9974365234375 372.2309265136719 298.521240234375 352.9996032714844 288.9325256347656" stroke-width="0.0" fill="rgb(70, 62, 57)" opacity="0.9597339" stroke="rgb(0, 0, 0)" stroke-opacity="1.0" stroke-linecap="round" stroke-linejoin="round"/>
    <path d="M 518.636962890625 307.8885192871094 C 504.4497375488281 315.1023864746094 501.50042724609375 322.9212646484375 499.4576721191406 331.4239501953125 C 491.59967041015625 329.985107421875 482.695068359375 327.1106262207031 473.8579406738281 324.117431640625 C 467.048095703125 340.6795349121094 468.7720031738281 361.1373596191406 462.5458068847656 380.55255126953125 C 464.51446533203125 385.34735107421875 462.0958557128906 387.6807556152344 469.30096435546875 391.8713073730469 C 484.0198974609375 391.7852478027344 495.66534423828125 398.1417541503906 517.2064208984375 393.1334533691406 C 518.7472534179688 365.1885681152344 520.2984619140625 336.4857482910156 518.636962890625 307.8885192871094" stroke-width="0.0" fill="rgb(154, 139, 115)" opacity="0.701573" stroke="rgb(0, 0, 0)" stroke-opacity="1.0" stroke-linecap="round" stroke-linejoin="round"/>
    <path d="M 185.4302978515625 250.6600799560547 C 197.3838348388672 255.33645629882812 196.89854431152344 273.5955505371094 203.88153076171875 292.87103271484375 C 194.79867553710938 306.3670959472656 199.00450134277344 330.4977722167969 191.8884735107422 351.10675048828125 C 193.58197021484375 354.7271423339844 202.57272338867188 356.2091979980469 207.1558074951172 353.598876953125 C 212.73184204101562 338.97418212890625 217.88758850097656 323.0856628417969 217.40501403808594 298.8487854003906 C 213.34939575195312 280.7171630859375 211.4278564453125 264.09619140625 207.7370147705078 252.70254516601562 C 200.76502990722656 249.99594116210938 192.38421630859375 249.51055908203125 185.4302978515625 250.6600799560547" stroke-width="0.0" fill="rgb(32, 31, 36)" opacity="1.0674404" stroke="rgb(0, 0, 0)" stroke-opacity="1.0" stroke-linecap="round" stroke-linejoin="round"/>
    <path d="M 515.6104125976562 268.4339599609375 C 508.5304870605469 276.6530456542969 510.03668212890625 283.2734375 503.3439636230469 285.6567687988281 C 494.65301513671875 288.0089111328125 485.1648864746094 288.86273193359375 480.057373046875 295.26678466796875 C 476.5082702636719 301.6056823730469 475.0287170410156 316.4284973144531 474.9022216796875 323.3325500488281 C 481.5743713378906 326.4593505859375 489.342529296875 328.8149719238281 497.4142761230469 330.81341552734375 C 502.6152038574219 321.8364562988281 504.945556640625 314.2461242675781 516.780029296875 307.79803466796875 C 519.8939819335938 295.2191467285156 519.292724609375 283.2901306152344 515.6104125976562 268.4339599609375" stroke-width="0.0" fill="rgb(50, 40, 40)" opacity="1.011055" stroke="rgb(0, 0, 0)" stroke-opacity="1.0" stroke-linecap="round" stroke-linejoin="round"/>
    <path d="M 430.2239685058594 287.2601013183594 C 432.6094055175781 292.9914245605469 443.3943176269531 294.48370361328125 439.3441467285156 308.6742248535156 C 447.4036865234375 312.56134033203125 460.8756103515625 314.3195495605469 473.1706848144531 318.009765625 C 474.782958984375 311.50006103515625 477.6828918457031 301.17376708984375 478.2149963378906 292.033935546875 C 465.04681396484375 285.08319091796875 450.03448486328125 284.3005676269531 430.2239685058594 287.2601013183594" stroke-width="0.0" fill="rgb(42, 84, 83)" opacity="0.97333884" stroke="rgb(0, 0, 0)" stroke-opacity="1.0" stroke-linecap="round" stroke-linejoin="round"/>
    <path d="M 46.15100860595703 248.98776245117188 C 29.550018310546875 251.2571563720703 13.877802848815918 250.34072875976562 -1.8974957466125488 250.74671936035156 C 0.02161591127514839 259.0 -0.8734888434410095 266.0 -6.060914993286133 274.59234619140625 C 18.139324188232422 273.02886962890625 34.67477798461914 276.4112243652344 44.62282943725586 271.7627868652344 C 48.113258361816406 270.5207824707031 45.236488342285156 259.6290283203125 46.15100860595703 248.98776245117188" stroke-width="0.0" fill="rgb(122, 139, 146)" opacity="0.99164486" stroke="rgb(0, 0, 0)" stroke-opacity="1.0" stroke-linecap="round" stroke-linejoin="round"/>
    <path d="M 337.2933654785156 225.7073974609375 C 339.367431640625 226.71646118164062 332.3777160644531 234.09556579589844 329.5457458496094 236.8966064453125 C 327.134765625 254.01980590820312 331.4972839355469 268.7662658691406 333.1768493652344 284.8983154296875 C 341.6332092285156 284.67071533203125 345.02764892578125 276.0060729980469 348.5743713378906 267.161376953125 C 344.37994384765625 249.33135986328125 349.3026123046875 232.60794067382812 337.2933654785156 225.7073974609375" stroke-width="0.0" fill="rgb(120, 52, 59)" opacity="1.0122322" stroke="rgb(0, 0, 0)" stroke-opacity="1.0" stroke-linecap="round" stroke-linejoin="round"/>
    <path d="M 495.5416564941406 243.15940856933594 C 489.437744140625 265.4915771484375 475.4875183105469 258.8382263183594 468.90020751953125 273.2359313964844 C 470.0829162597656 278.9285583496094 475.7204895019531 284.88824462890625 483.5350646972656 289.540283203125 C 489.6036071777344 288.52239990234375 498.6723327636719 286.99468994140625 503.72955322265625 284.39019775390625 C 496.8083190917969 267.80450439453125 495.4646911621094 267.11810302734375 495.5416564941406 243.15940856933594" stroke-width="0.0" fill="rgb(119, 119, 128)" opacity="1.0577232" stroke="rgb(0, 0, 0)" stroke-opacity="1.0" stroke-linecap="round" stroke-linejoin="round"/>
    <path d="M 45.851680755615234 220.58529663085938 C 35.51293182373047 219.80230712890625 21.70615005493164 222.8531494140625 9.889296531677246 220.9407196044922 C 2.7401835918426514 223.88624572753906 1.1853312253952026 227.60787963867188 3.399989366531372 235.65415954589844 C 13.688940048217773 241.92543029785156 27.154375076293945 235.63682556152344 47.13547134399414 236.7727508544922 C 47.32638168334961 235.05609130859375 48.43015670776367 228.37640380859375 45.851680755615234 220.58529663085938" stroke-width="0.0" fill="rgb(109, 164, 178)" opacity="0.99819344" stroke="rgb(0, 0, 0)" stroke-opacity="1.0" stroke-linecap="round" stroke-linejoin="round"/>
    <path d="M 170.97633361816406 191.15834045410156 C 163.7976837158203 200.0808868408203 159.55763244628906 212.83334350585938 154.58702087402344 222.65774536132812 C 155.9089813232422 237.95985412597656 153.83047485351562 251.26034545898438 164.50270080566406 252.400634765625 C 170.61558532714844 236.2362823486328 174.43055725097656 217.37879943847656 170.97633361816406 191.15834045410156" stroke-width="0.0" fill="rgb(88, 53, 67)" opacity="0.98338825" stroke="rgb(0, 0, 0)" stroke-opacity="1.0" stroke-linecap="round" stroke-linejoin="round"/>
    <path d="M 49.484073638916016 238.8396453857422 C 40.58765411376953 237.1512908935547 28.441068649291992 237.73915100097656 17.110532760620117 239.2330780029297 C 10.760160446166992 242.90945434570312 2.3694069385528564 245.67237854003906 -7.3715739250183105 252.6717987060547 C 14.91008186340332 250.568603515625 30.208131790161133 250.97642517089844 46.639007568359375 249.9976806640625 C 47.04545593261719 251.25738525390625 46.92637252807617 245.05397033691406 49.484073638916016 238.8396453857422" stroke-width="0.0" fill="rgb(186, 190, 191)" opacity="1.0011308" stroke="rgb(0, 0, 0)" stroke-opacity="1.0" stroke-linecap="round" stroke-linejoin="round"/>
    <path d="M 394.7069396972656 290.1927490234375 C 404.149658203125 300.5055236816406 420.70806884765625 302.2462463378906 440.38201904296875 307.2458801269531 C 440.88262939453125 298.2398376464844 436.07568359375 292.04034423828125 432.44183349609375 290.7556457519531 C 412.5889892578125 286.7275085449219 404.3163146972656 280.4654541015625 394.7069396972656 290.1927490234375" stroke-width="0.0" fill="rgb(36, 29, 35)" opacity="0.9684379" stroke="rgb(0, 0, 0)" stroke-opacity="1.0" stroke-linecap="round" stroke-linejoin="round"/>
    <path d="M 108.61883544921875 210.3168182373047 C 99.47616577148438 202.62277221679688 89.54788208007812 202.1042022705078 70.65489196777344 200.67774963378906 C 58.64090347290039 209.82095336914062 35.9683837890625 200.25584411621094 24.88839340209961 208.49737548828125 C 47.387062072753906 211.66464233398438 76.03302001953125 209.38255310058594 108.61883544921875 210.3168182373047" stroke-width="0.0" fill="rgb(136, 174, 208)" opacity="0.9798387" stroke="rgb(0, 0, 0)" stroke-opacity="1.0" stroke-linecap="round" stroke-linejoin="round"/>
    <path d="M 188.56719970703125 202.6476287841797 C 174.07167053222656 199.81167602539062 168.4755859375 206.31524658203125 170.87911987304688 210.54734802246094 C 172.1716766357422 246.2723846435547 155.9298553466797 265.41259765625 156.7086944580078 292.6380615234375 C 166.748779296875 300.27880859375 168.79632568359375 295.7823791503906 176.0830841064453 288.4375 C 173.46417236328125 248.3129119873047 180.39768981933594 229.18746948242188 188.56719970703125 202.6476287841797" stroke-width="0.0" fill="rgb(74, 63, 54)" opacity="0.9339739" stroke="rgb(0, 0, 0)" stroke-opacity="1.0" stroke-linecap="round" stroke-linejoin="round"/>
    <path d="M 294.8388366699219 440.787109375 C 344.4729919433594 443.85260009765625 387.81634521484375 446.14324951171875 447.1240539550781 445.5265197753906 C 447.1499938964844 440.9889831542969 446.320068359375 434.1426696777344 445.42059326171875 429.2383117675781 C 422.1305847167969 434.3988037109375 404.87420654296875 422.5520935058594 392.37884521484375 431.1826171875 C 370.590087890625 431.9183349609375 351.3767395019531 429.6506042480469 335.51922607421875 429.04754638671875 C 320.9051818847656 423.3494873046875 314.4493713378906 426.85626220703125 303.56036376953125 424.919677734375 C 300.62994384765625 433.6004638671875 295.30950927734375 436.6225891113281 294.8388366699219 440.787109375" stroke-width="0.0" fill="rgb(36, 41, 43)" opacity="0.8086245" stroke="rgb(0, 0, 0)" stroke-opacity="1.0" stroke-linecap="round" stroke-linejoin="round"/>
    <path d="M 190.072021484375 172.08151245117188 C 179.789794921875 178.9894256591797 195.94369506835938 176.74171447753906 195.73635864257812 192.42042541503906 C 190.2099609375 209.2197265625 179.1531524658203 224.6603546142578 176.93663024902344 247.6683807373047 C 182.0019989013672 248.9615936279297 195.70065307617188 248.29757690429688 207.29534912109375 251.7665557861328 C 213.80287170410156 211.37852478027344 196.82533264160156 218.79664611816406 211.823486328125 199.8354949951172 C 213.74342346191406 176.04197692871094 197.12583923339844 182.56210327148438 190.072021484375 172.08151245117188" stroke-width="0.0" fill="rgb(94, 48, 22)" opacity="0.94450295" stroke="rgb(0, 0, 0)" stroke-opacity="1.0" stroke-linecap="round" stroke-linejoin="round"/>
    <path d="M 458.1896667480469 133.28738403320312 C 439.72320556640625 137.3516845703125 420.3777160644531 137.97909545898438 404.3371276855469 140.7888641357422 C 401.33575439453125 144.88177490234375 398.8391418457031 149.70106506347656 397.25067138671875 155.82501220703125 C 413.59991455078125 156.7477569580078 426.06231689453125 156.31399536132812 453.84259033203125 153.216796875 C 455.3525695800781 150.4086151123047 457.5885925292969 143.26513671875 458.1896667480469 133.28738403320312" stroke-width="0.0" fill="rgb(116, 86, 47)" opacity="0.97758466" stroke="rgb(0, 0, 0)" stroke-opacity="1.0" stroke-linecap="round" stroke-linejoin="round"/>
    <path d="M 468.9267272949219 172.3598175048828 C 469.140380859375 165.4220733642578 466.2102355957031 163.10263061523438 465.4298095703125 158.60008239746094 C 459.7017517089844 159.9628448486328 449.0343017578125 154.8662567138672 439.4800109863281 154.38307189941406 C 421.5326843261719 158.582763671875 406.4723205566406 151.87936401367188 403.7220458984375 163.43820190429688 C 420.0774841308594 167.85911560058594 445.2440185546875 168.4132080078125 468.9267272949219 172.3598175048828" stroke-width="0.0" fill="rgb(112, 59, 23)" opacity="0.94352365" stroke="rgb(0, 0, 0)" stroke-opacity="1.0" stroke-linecap="round" stroke-linejoin="round"/>
    <path d="M 399.184326171875 288.3514709472656 C 404.12060546875 304.2286071777344 393.5142517089844 313.348876953125 398.0931091308594 325.5650634765625 C 407.6948547363281 334.7005310058594 413.5227966308594 341.8587951660156 428.3930358886719 344.90875244140625 C 443.3001403808594 346.6463317871094 452.23162841796875 352.6112060546875 468.2459716796875 346.975830078125 C 469.16949462890625 326.54498291015625 475.6199951171875 311.0802307128906 478.71417236328125 291.5359802246094 C 463.9710693359375 285.6797180175781 440.9294128417969 283.78045654296875 422.1575622558594 282.22998046875 C 419.6256408691406 285.99298095703125 407.6966552734375 288.668701171875 399.184326171875 288.3514709472656" stroke-width="0.0" fill="rgb(35, 60, 66)" opacity="0.7992278" stroke="rgb(0, 0, 0)" stroke-opacity="1.0" stroke-linecap="round" stroke-linejoin="round"/>
    <path d="M 474.3959045410156 325.7658996582031 C 470.85601806640625 345.64801025390625 471.2120361328125 369.0669860839844 464.0317687988281 378.91302490234375 C 463.2303161621094 388.20538330078125 468.1449890136719 390.4031982421875 470.14959716796875 397.0205993652344 C 474.93048095703125 396.7752380371094 485.7986145019531 398.5273132324219 491.8624572753906 395.757568359375 C 489.82183837890625 374.2830505371094 509.6976623535156 373.5529479980469 507.7277526855469 356.60845947265625 C 512.1231079101562 342.66827392578125 502.9771728515625 335.78326416015625 499.55487060546875 331.59332275390625 C 488.6000671386719 331.0555725097656 483.1236877441406 325.8912048339844 474.3959045410156 325.7658996582031" stroke-width="0.0" fill="rgb(44, 35, 37)" opacity="0.9622906" stroke="rgb(0, 0, 0)" stroke-opacity="1.0" stroke-linecap="round" stroke-linejoin="round"/>
    <path d="M 182.6456756591797 200.77871704101562 C 178.05184936523438 204.14892578125 171.7484130859375 199.37213134765625 170.4586639404297 208.56820678710938 C 165.50791931152344 230.19293212890625 167.95669555664062 251.6492919921875 157.00672912597656 279.4192199707031 C 162.8489532470703 284.29168701171875 160.63612365722656 275.26495361328125 160.19044494628906 276.0413818359375 C 165.60861206054688 272.7401428222656 164.69525146484375 271.99029541015625 170.28546142578125 277.6050720214844 C 170.51170349121094 247.5592803955078 179.04638671875 230.4047088623047 187.45645141601562 210.36410522460938 C 187.46922302246094 204.96351623535156 188.30294799804688 202.66583251953125 182.6456756591797 200.77871704101562" stroke-width="0.0" fill="rgb(28, 24, 25)" opacity="0.99675906" stroke="rgb(0, 0, 0)" stroke-opacity="1.0" stroke-linecap="round" stroke-linejoin="round"/>
    <path d="M 510.310791015625 274.6708679199219 C 507.0738830566406 288.00836181640625 492.33447265625 291.72491455078125 478.63360595703125 298.35791015625 C 477.1315002441406 304.21307373046875 479.0709533691406 316.5009460449219 476.6880187988281 323.4681396484375 C 481.34918212890625 327.7113952636719 487.1964111328125 327.5781555175781 488.55499267578125 328.82379150390625 C 495.203857421875 328.2679748535156 494.189208984375 325.9741516113281 493.03314208984375 315.32208251953125 C 501.4829406738281 312.39532470703125 506.6502380371094 305.1045227050781 513.2695922851562 296.4835510253906 C 517.1525268554688 289.73345947265625 517.5656127929688 282.6481628417969 510.310791015625 274.6708679199219" stroke-width="0.0" fill="rgb(46, 32, 36)" opacity="0.9987428" stroke="rgb(0, 0, 0)" stroke-opacity="1.0" stroke-linecap="round" stroke-linejoin="round"/>
    <path d="M 338.1706237792969 422.9254150390625 C 344.1248474121094 426.1031494140625 354.3804016113281 428.7496337890625 357.76385498046875 429.9571228027344 C 376.6844482421875 430.76824951171875 395.22137451171875 434.933837890625 403.61602783203125 431.08245849609375 C 402.2503356933594 423.05877685546875 392.6380615234375 428.9060974121094 387.6336364746094 419.6904602050781 C 366.30712890625 421.6409606933594 345.5501403808594 416.4839782714844 338.1706237792969 422.9254150390625" stroke-width="0.0" fill="rgb(184, 165, 129)" opacity="0.93554735" stroke="rgb(0, 0, 0)" stroke-opacity="1.0" stroke-linecap="round" stroke-linejoin="round"/>
    <path d="M 499.40380859375 252.4866943359375 C 495.7010192871094 244.2894287109375 491.7320556640625 244.8240966796875 487.8909606933594 248.2495880126953 C 491.3550109863281 259.1277160644531 481.87982177734375 274.41131591796875 483.80902099609375 292.5967712402344 C 492.30322265625 290.0584411621094 492.3330383300781 284.470458984375 496.0893859863281 278.243896484375 C 502.065185546875 287.51873779296875 490.677490234375 299.7031555175781 502.9995422363281 280.0525207519531 C 494.93914794921875 267.067626953125 495.15313720703125 256.8405456542969 499.40380859375 252.4866943359375" stroke-width="0.0" fill="rgb(80, 72, 74)" opacity="1.0049515" stroke="rgb(0, 0, 0)" stroke-opacity="1.0" stroke-linecap="round" stroke-linejoin="round"/>
    <path d="M 396.9635009765625 314.6523742675781 C 396.3768615722656 318.237060546875 398.58990478515625 321.8360595703125 398.08270263671875 327.3077392578125 C 405.5818176269531 330.1766662597656 409.1281433105469 337.853271484375 418.72662353515625 341.9893798828125 C 427.5429382324219 345.4432067871094 442.66094970703125 346.9776306152344 455.258544921875 349.613525390625 C 463.0787658691406 349.3359069824219 466.1447448730469 346.41778564453125 468.27508544921875 342.7137145996094 C 469.01837158203125 334.0209655761719 473.2078857421875 321.4596252441406 469.31121826171875 315.8800354003906 C 444.8908996582031 312.6464538574219 431.892578125 302.8789978027344 409.7803955078125 300.65869140625 C 406.45440673828125 301.1943664550781 402.2499694824219 309.5036926269531 396.9635009765625 314.6523742675781" stroke-width="0.0" fill="rgb(38, 64, 96)" opacity="0.99849063" stroke="rgb(0, 0, 0)" stroke-opacity="1.0" stroke-linecap="round" stroke-linejoin="round"/>
  </g>
</svg>
