<?xml version="1.0" ?>
<svg xmlns="http://www.w3.org/2000/svg" version="1.1" width="512" height="512">
  <defs/>
  <g>
    <path d="M -2.6055822372436523 -2.8601856231689453 C -1.6848325729370117 170.3333282470703 -0.5513384342193604 340.6666564941406 -0.5217075943946838 518.3789672851562 C 169.28094482421875 519.1524658203125 338.8552551269531 520.3771362304688 518.849853515625 520.5077514648438 C 519.1055908203125 341.2658386230469 519.1980590820312 170.66563415527344 519.275390625 -3.2679264545440674 C 340.6666564941406 -3.2094998359680176 170.3333282470703 -3.0419206619262695 -2.6055822372436523 -2.8601856231689453" stroke-width="0.0" fill="rgb(146, 193, 237)" opacity="0.75734663" stroke="rgb(0, 0, 0)" stroke-opacity="1.0" stroke-linecap="round" stroke-linejoin="round"/>
    <path d="M -7.365996837615967 326.4468078613281 C -7.34238338470459 385.88897705078125 -6.749073505401611 448.7518310546875 -4.443572044372559 519.346923828125 C 170.33229064941406 519.3762817382812 340.6728210449219 519.4208374023438 518.7099609375 519.3496704101562 C 518.7484741210938 484.2691345214844 518.7982788085938 457.0014343261719 520.8016967773438 428.2125549316406 C 479.6242370605469 438.7569274902344 450.3140869140625 426.186767578125 445.6367492675781 439.1893310546875 C 414.8695068359375 440.8427429199219 384.9883117675781 438.45538330078125 356.93927001953125 439.9936218261719 C 370.2295227050781 438.0002746582031 369.8827209472656 440.2353820800781 361.42572021484375 436.7135314941406 C 357.8189392089844 437.06121826171875 350.7940979003906 436.3265075683594 347.57989501953125 435.5371398925781 C 342.0992126464844 435.3604736328125 341.0716552734375 434.1968688964844 337.2339782714844 438.453857421875 C 344.2596435546875 439.82635498046875 352.3362121582031 439.9368896484375 357.7715148925781 437.85125732421875 C 352.6183166503906 441.7973327636719 343.9944763183594 441.2319641113281 334.6788635253906 440.0764465332031 C 336.6696472167969 436.48236083984375 339.7778625488281 439.9925842285156 339.59613037109375 434.0881042480469 C 325.8242492675781 436.36895751953125 307.3116149902344 439.2481384277344 299.928955078125 433.411865234375 C 297.4922790527344 430.3005065917969 314.2960205078125 421.9922180175781 321.40411376953125 416.4971008300781 C 329.22552490234375 401.9500427246094 343.3446350097656 393.0660095214844 345.2292785644531 384.134033203125 C 345.8160705566406 366.5220031738281 343.60009765625 349.92254638671875 342.600830078125 340.86517333984375 C 337.2003479003906 330.2270202636719 326.2227478027344 336.9529724121094 325.03656005859375 327.8657531738281 C 323.3758850097656 312.9899597167969 325.6620178222656 310.16302490234375 310.20947265625 305.4901428222656 C 294.91693115234375 303.02197265625 254.9602813720703 304.1476135253906 219.5189971923828 300.6669006347656 C 217.3016357421875 318.5014343261719 213.36727905273438 334.16064453125 211.1658935546875 354.52484130859375 C 212.32614135742188 354.5871887207031 202.90261840820312 356.26104736328125 200.47003173828125 357.7405090332031 C 194.20335388183594 354.2701721191406 197.58380126953125 361.37127685546875 191.63064575195312 355.9897766113281 C 191.8666229248047 341.2347717285156 197.0186004638672 325.9006652832031 194.0673065185547 313.2135925292969 C 179.63381958007812 317.58447265625 170.3532257080078 326.50054931640625 156.818115234375 333.26251220703125 C 154.69471740722656 336.63800048828125 152.40037536621094 346.10198974609375 154.04429626464844 355.3904724121094 C 155.4036407470703 355.8872375488281 148.4463348388672 356.2539367675781 145.0774688720703 354.5478820800781 C 143.50502014160156 340.98748779296875 135.74069213867188 329.6067810058594 141.84820556640625 319.34075927734375 C 155.4827117919922 312.3367004394531 171.62437438964844 303.8411560058594 181.05072021484375 294.4521789550781 C 184.95098876953125 284.2604064941406 175.45193481445312 285.226318359375 159.4933624267578 288.0657653808594 C 156.4241943359375 286.04620361328125 154.4344024658203 279.4349365234375 153.63748168945312 279.37371826171875 C 114.8680419921875 282.9833068847656 74.34813690185547 279.8101501464844 52.8144645690918 286.82501220703125 C 45.45579147338867 294.801513671875 33.09394836425781 297.4530029296875 24.431331634521484 302.31097412109375 C 14.242694854736328 312.49249267578125 15.456619262695312 328.75531005859375 -7.365996837615967 326.4468078613281" stroke-width="0.0" fill="rgb(192, 172, 133)" opacity="1.021238" stroke="rgb(0, 0, 0)" stroke-opacity="1.0" stroke-linecap="round" stroke-linejoin="round"/>
    <path d="M 255.4626007080078 274.73016357421875 C 252.36280822753906 279.5328063964844 250.35818481445312 296.02984619140625 256.34552001953125 292.71929931640625 C 275.52410888671875 303.525634765625 287.45263671875 296.2935791015625 313.5068664550781 299.6980895996094 C 329.77227783203125 304.0082702636719 325.9217224121094 313.48577880859375 328.17205810546875 322.2802429199219 C 333.43756103515625 336.35693359375 344.41339111328125 330.23150634765625 344.7227478027344 336.1379699707031 C 347.2292785644531 355.2723388671875 350.2965087890625 378.9649658203125 345.3249206542969 391.5929870605469 C 338.8960876464844 398.2277526855469 332.754638671875 403.3604431152344 328.6916809082031 414.9267272949219 C 320.6949157714844 422.1288146972656 313.4898681640625 424.7289733886719 305.4801330566406 428.9005432128906 C 305.4315490722656 433.4000244140625 305.2623291015625 434.3423767089844 317.7788391113281 437.78692626953125 C 349.5222473144531 429.5337219238281 367.8601989746094 445.1220397949219 433.0032958984375 438.35565185546875 C 445.66412353515625 424.64031982421875 488.2278137207031 431.1739196777344 509.38580322265625 411.6529541015625 C 504.8583679199219 412.12921142578125 501.0323486328125 409.6673583984375 500.251708984375 412.8039245605469 C 499.6490173339844 400.47808837890625 494.74542236328125 396.3711853027344 492.9994201660156 391.42730712890625 C 492.9523620605469 378.1580505371094 504.09893798828125 368.98028564453125 507.1690368652344 354.385009765625 C 507.3922119140625 343.2205505371094 503.23199462890625 334.2991943359375 500.7296142578125 325.3376159667969 C 503.9962463378906 313.5117492675781 511.47735595703125 309.3779602050781 510.0791931152344 306.76995849609375 C 510.54486083984375 284.59521484375 511.6458435058594 278.22784423828125 500.6797180175781 277.0468444824219 C 499.9899597167969 270.7867736816406 497.0202331542969 262.7891845703125 485.533935546875 259.0558776855469 C 477.708251953125 256.2021179199219 459.9461975097656 258.4925231933594 444.94342041015625 253.95587158203125 C 426.4273681640625 252.57669067382812 420.6221618652344 260.05841064453125 410.8186340332031 266.0937805175781 C 401.1039123535156 266.0914001464844 399.61260986328125 266.4357604980469 402.8985900878906 265.578857421875 C 402.0334777832031 262.6393127441406 404.21234130859375 265.7386779785156 399.9322814941406 266.4959716796875 C 393.55865478515625 265.3312683105469 395.33343505859375 262.8601379394531 397.7078857421875 266.0016174316406 C 389.88555908203125 266.1855773925781 380.0871887207031 266.3894348144531 372.5412902832031 263.5499267578125 C 356.0798034667969 249.1500701904297 353.3350830078125 233.6716766357422 340.1121826171875 235.1067352294922 C 329.9908752441406 233.18026733398438 329.68682861328125 248.9137725830078 314.97381591796875 252.0323944091797 C 302.3840026855469 253.8335418701172 284.5863952636719 253.5611114501953 271.3531494140625 257.0242614746094 C 263.74066162109375 261.9711608886719 259.57177734375 266.59661865234375 255.4626007080078 274.73016357421875" stroke-width="0.0" fill="rgb(84, 78, 74)" opacity="0.9592615" stroke="rgb(0, 0, 0)" stroke-opacity="1.0" stroke-linecap="round" stroke-linejoin="round"/>
    <path d="M -6.887420654296875 186.7222900390625 C -6.9002814292907715 231.14508056640625 -7.127090930938721 278.62060546875 -7.087426662445068 325.6231994628906 C 13.77633285522461 323.4928283691406 13.800789833068848 310.60693359375 21.576740264892578 301.30419921875 C 33.680110931396484 295.66180419921875 43.57444381713867 287.12213134765625 55.377685546875 283.5034484863281 C 89.45907592773438 272.4133605957031 128.4505615234375 280.6776428222656 152.40545654296875 272.28082275390625 C 158.8705291748047 260.4145812988281 155.31211853027344 242.5986328125 154.44155883789062 224.3686065673828 C 146.44625854492188 224.44699096679688 131.34329223632812 225.5634307861328 115.5645980834961 224.4259490966797 C 104.25672912597656 219.43080139160156 94.82714080810547 215.23326110839844 79.28124237060547 215.85769653320312 C 85.58448791503906 201.7960205078125 74.02897644042969 213.16720581054688 76.7889404296875 199.0940704345703 C 72.74986267089844 191.1279296875 62.87018585205078 191.3054962158203 58.18334197998047 188.8550567626953 C 37.60847091674805 189.8553009033203 17.748565673828125 183.30577087402344 -6.887420654296875 186.7222900390625" stroke-width="0.0" fill="rgb(109, 117, 121)" opacity="1.0064847" stroke="rgb(0, 0, 0)" stroke-opacity="1.0" stroke-linecap="round" stroke-linejoin="round"/>
    <path d="M 200.66355895996094 146.01580810546875 C 195.71954345703125 147.2345733642578 192.5374298095703 147.27999877929688 191.0025634765625 150.70748901367188 C 188.07757568359375 155.5634765625 188.73562622070312 159.2105255126953 189.14724731445312 170.6454315185547 C 182.228759765625 176.49362182617188 175.3292236328125 181.08804321289062 170.20033264160156 190.25840759277344 C 165.50323486328125 199.68252563476562 159.8966064453125 210.93910217285156 157.15878295898438 222.0738525390625 C 156.69454956054688 231.68447875976562 156.69688415527344 247.225830078125 163.19935607910156 256.3061828613281 C 163.1413116455078 264.6155090332031 168.934814453125 256.4700927734375 178.3353271484375 270.1478576660156 C 181.82272338867188 278.11981201171875 188.29269409179688 287.2744140625 184.620849609375 296.6812438964844 C 173.3756103515625 303.9860534667969 157.9639892578125 312.4440612792969 143.16168212890625 320.9096374511719 C 142.24021911621094 324.19500732421875 140.78158569335938 323.7265930175781 140.637939453125 327.346435546875 C 141.24085998535156 335.4246826171875 144.3290557861328 338.6118469238281 148.75466918945312 343.938720703125 C 151.35775756835938 330.0016784667969 178.1970977783203 321.1156005859375 194.85809326171875 309.4794616699219 C 198.19773864746094 324.44488525390625 193.58177185058594 335.5773010253906 193.6869354248047 351.4258117675781 C 194.00852966308594 356.1051940917969 202.0331573486328 356.54730224609375 209.3823699951172 353.22845458984375 C 209.724365234375 340.426025390625 216.1310577392578 331.3734130859375 216.06947326660156 301.3616027832031 C 215.55731201171875 287.5802917480469 209.3042449951172 266.7555236816406 208.9396209716797 244.63026428222656 C 212.30633544921875 224.82684326171875 229.76263427734375 225.75125122070312 227.02317810058594 205.82366943359375 C 211.06092834472656 198.3197784423828 213.9146270751953 188.7525177001953 204.3052215576172 179.59475708007812 C 202.89137268066406 170.22523498535156 209.359130859375 163.6830291748047 209.24313354492188 155.49652099609375 C 208.3091583251953 147.1666259765625 204.80177307128906 147.85153198242188 200.66355895996094 146.01580810546875" stroke-width="0.0" fill="rgb(86, 77, 76)" opacity="0.80258065" stroke="rgb(0, 0, 0)" stroke-opacity="1.0" stroke-linecap="round" stroke-linejoin="round"/>
    <path d="M 517.3652954101562 189.40036010742188 C 521.4171752929688 172.2302703857422 519.4097900390625 152.56744384765625 519.8139038085938 132.1387481689453 C 485.6518859863281 134.4075164794922 462.0956726074219 133.68167114257812 435.4543151855469 137.84072875976562 C 421.1763610839844 139.8124542236328 407.7989501953125 140.8605194091797 402.4867858886719 148.04173278808594 C 399.187744140625 149.3756561279297 402.76513671875 164.97068786621094 410.4754943847656 164.4621124267578 C 431.7626953125 168.57208251953125 458.9029235839844 170.02540588378906 495.8683166503906 166.37440490722656 C 503.8990173339844 166.22959899902344 499.763671875 182.2411346435547 517.3652954101562 189.40036010742188" stroke-width="0.0" fill="rgb(70, 73, 80)" opacity="0.9962574" stroke="rgb(0, 0, 0)" stroke-opacity="1.0" stroke-linecap="round" stroke-linejoin="round"/>
    <path d="M 450.2344970703125 201.64337158203125 C 451.6986083984375 185.9949951171875 438.0079040527344 191.4113311767578 425.8942565917969 190.98495483398438 C 380.2008361816406 188.21511840820312 332.96087646484375 190.83985900878906 295.99395751953125 195.80014038085938 C 286.2674560546875 197.85606384277344 283.1627502441406 204.70314025878906 280.6803283691406 209.84149169921875 C 274.6785583496094 210.79510498046875 267.5435485839844 212.00938415527344 263.7016906738281 213.8154754638672 C 292.3876953125 220.8338165283203 317.3728942871094 216.92593383789062 354.7336730957031 215.56163024902344 C 382.7248840332031 205.6438751220703 420.2071533203125 206.02706909179688 450.2344970703125 201.64337158203125" stroke-width="0.0" fill="rgb(50, 44, 61)" opacity="1.1951907" stroke="rgb(0, 0, 0)" stroke-opacity="1.0" stroke-linecap="round" stroke-linejoin="round"/>
    <path d="M 519.281005859375 114.71289825439453 C 485.93505859375 116.38630676269531 465.38916015625 119.07009887695312 445.2265625 125.20081329345703 C 436.3700256347656 127.13152313232422 422.26043701171875 132.68748474121094 418.9462890625 139.59417724609375 C 448.90185546875 133.83302307128906 483.7630310058594 133.81072998046875 519.9976196289062 131.82867431640625 C 519.0425415039062 121.98648071289062 520.3396606445312 115.30716705322266 519.281005859375 114.71289825439453" stroke-width="0.0" fill="rgb(139, 181, 220)" opacity="1.0059227" stroke="rgb(0, 0, 0)" stroke-opacity="1.0" stroke-linecap="round" stroke-linejoin="round"/>
    <path d="M 519.2174072265625 308.9489440917969 C 505.9061584472656 313.8913879394531 500.83294677734375 318.8428039550781 501.5939025878906 330.0008239746094 C 502.1092834472656 333.0208740234375 508.11749267578125 340.7063903808594 507.6078796386719 350.4300537109375 C 507.4930419921875 365.3622131347656 499.41998291015625 371.3258972167969 493.1980285644531 382.056884765625 C 491.3460388183594 388.3954162597656 493.8415222167969 392.1602478027344 497.7486572265625 393.2779235839844 C 500.1333312988281 395.10784912109375 507.7539367675781 393.6766662597656 518.5183715820312 393.7447814941406 C 518.9486694335938 365.28411865234375 520.4323120117188 336.758056640625 519.2174072265625 308.9489440917969" stroke-width="0.0" fill="rgb(221, 193, 139)" opacity="0.96786094" stroke="rgb(0, 0, 0)" stroke-opacity="1.0" stroke-linecap="round" stroke-linejoin="round"/>
    <path d="M 372.36328125 211.97592163085938 C 370.3381652832031 212.58566284179688 368.7398376464844 225.13478088378906 377.40704345703125 220.38058471679688 C 417.3857421875 229.57640075683594 454.16619873046875 218.0871124267578 518.24365234375 223.4836883544922 C 520.9898071289062 214.79795837402344 521.0836791992188 202.7288055419922 517.919189453125 190.22454833984375 C 502.26202392578125 183.9840087890625 500.7771911621094 175.21119689941406 500.1923522949219 167.56939697265625 C 476.630859375 160.52542114257812 466.2604675292969 170.72364807128906 459.5953674316406 168.81907653808594 C 431.1254577636719 169.4544219970703 411.4764404296875 168.2713165283203 399.3172302246094 162.0906524658203 C 397.5809631347656 163.02859497070312 400.32135009765625 167.63555908203125 400.2293701171875 174.50462341308594 C 395.53179931640625 178.83438110351562 388.67108154296875 173.12416076660156 389.9833068847656 178.2955322265625 C 404.8874206542969 177.7105255126953 417.6343078613281 183.1495819091797 430.2948303222656 183.44480895996094 C 430.2959289550781 181.78138732910156 430.9809265136719 186.36570739746094 432.4315490722656 184.6205596923828 C 438.5837707519531 187.22470092773438 442.0700378417969 188.20187377929688 441.0256652832031 190.12722778320312 C 451.5235290527344 190.4329071044922 454.8418884277344 196.7467498779297 449.9685974121094 201.71514892578125 C 429.0412902832031 206.64463806152344 395.1126403808594 204.20294189453125 372.36328125 211.97592163085938" stroke-width="0.0" fill="rgb(202, 227, 236)" opacity="1.0369081" stroke="rgb(0, 0, 0)" stroke-opacity="1.0" stroke-linecap="round" stroke-linejoin="round"/>
    <path d="M 254.93685913085938 224.2145233154297 C 245.16175842285156 220.08221435546875 232.62403869628906 223.81797790527344 230.0633544921875 219.9639434814453 C 223.24258422851562 227.27210998535156 214.1535186767578 224.62034606933594 210.0725555419922 238.26712036132812 C 208.48651123046875 259.5335388183594 213.4942626953125 277.2859802246094 218.40316772460938 297.6268615722656 C 225.36473083496094 296.182373046875 233.57723999023438 294.16864013671875 239.9928436279297 293.3399658203125 C 244.99798583984375 289.0635986328125 248.49810791015625 285.03594970703125 251.07484436035156 278.9109802246094 C 252.83267211914062 261.3694763183594 253.3109130859375 241.85533142089844 254.93685913085938 224.2145233154297" stroke-width="0.0" fill="rgb(129, 162, 166)" opacity="0.93799204" stroke="rgb(0, 0, 0)" stroke-opacity="1.0" stroke-linecap="round" stroke-linejoin="round"/>
    <path d="M 356.6844787597656 227.2032470703125 C 352.4232482910156 231.59713745117188 354.4134521484375 232.9804229736328 354.8551025390625 238.99240112304688 C 388.1483154296875 238.9755096435547 420.8467712402344 245.19564819335938 456.88134765625 250.00828552246094 C 476.40753173828125 250.31993103027344 484.3369445800781 260.6680603027344 490.5459289550781 247.57627868652344 C 499.11083984375 246.94406127929688 487.1318054199219 240.7122802734375 477.65185546875 236.52439880371094 C 444.2161865234375 228.92820739746094 411.021484375 227.71347045898438 375.3135070800781 222.7099151611328 C 367.94024658203125 223.26918029785156 359.0673522949219 225.92474365234375 356.6844787597656 227.2032470703125" stroke-width="0.0" fill="rgb(211, 216, 216)" opacity="1.0067261" stroke="rgb(0, 0, 0)" stroke-opacity="1.0" stroke-linecap="round" stroke-linejoin="round"/>
    <path d="M 294.3069763183594 195.6768798828125 C 342.39971923828125 189.8184051513672 393.2207336425781 188.66934204101562 444.0269775390625 191.0689239501953 C 434.6761779785156 182.88404846191406 426.8885498046875 181.95738220214844 412.0545654296875 181.05296325683594 C 385.5108337402344 176.6774444580078 350.579833984375 178.64776611328125 318.46038818359375 182.81973266601562 C 311.6754150390625 186.15689086914062 298.3963317871094 188.12510681152344 294.3069763183594 195.6768798828125" stroke-width="0.0" fill="rgb(121, 165, 209)" opacity="0.95668954" stroke="rgb(0, 0, 0)" stroke-opacity="1.0" stroke-linecap="round" stroke-linejoin="round"/>
    <path d="M -3.364021062850952 150.9198760986328 C -0.8150771260261536 162.0 -0.07087389379739761 173.0 -5.524017810821533 184.8210906982422 C 21.434932708740234 184.76527404785156 47.35565948486328 187.4163360595703 70.77428436279297 189.274169921875 C 55.824825286865234 176.7661895751953 38.081031799316406 176.7144775390625 15.21491813659668 175.0008087158203 C 14.99515438079834 166.3592071533203 13.613282203674316 159.76724243164062 11.441770553588867 154.2993927001953 C 7.100417137145996 152.45932006835938 5.161736011505127 149.3179168701172 -3.364021062850952 150.9198760986328" stroke-width="0.0" fill="rgb(206, 194, 153)" opacity="0.9967099" stroke="rgb(0, 0, 0)" stroke-opacity="1.0" stroke-linecap="round" stroke-linejoin="round"/>
    <path d="M 352.30560302734375 237.07969665527344 C 351.90234375 248.88246154785156 365.5018615722656 254.34991455078125 370.85089111328125 264.83807373046875 C 383.0827331542969 266.4372863769531 397.060302734375 266.7281188964844 411.53155517578125 266.31719970703125 C 417.7478332519531 259.580078125 426.8897705078125 256.57550048828125 433.31640625 253.56369018554688 C 460.8209533691406 253.32244873046875 483.5087585449219 266.2978210449219 488.7349853515625 253.39520263671875 C 444.6968688964844 247.50149536132812 398.8552551269531 242.19332885742188 352.30560302734375 237.07969665527344" stroke-width="0.0" fill="rgb(134, 140, 145)" opacity="0.9889114" stroke="rgb(0, 0, 0)" stroke-opacity="1.0" stroke-linecap="round" stroke-linejoin="round"/>
    <path d="M 316.7479553222656 231.00320434570312 C 298.0413818359375 226.4770965576172 289.8558654785156 225.4203338623047 260.85211181640625 229.5077667236328 C 257.1694641113281 232.15521240234375 252.4002227783203 237.84776306152344 252.86790466308594 248.1793975830078 C 271.8155212402344 248.07875061035156 291.22393798828125 247.2051544189453 309.3435974121094 250.46951293945312 C 316.00311279296875 245.55848693847656 318.203857421875 241.35520935058594 316.7479553222656 231.00320434570312" stroke-width="0.0" fill="rgb(155, 161, 162)" opacity="0.99548465" stroke="rgb(0, 0, 0)" stroke-opacity="1.0" stroke-linecap="round" stroke-linejoin="round"/>
    <path d="M 464.3691711425781 224.45762634277344 C 476.1646423339844 234.29638671875 487.74951171875 238.3074493408203 498.237060546875 252.67637634277344 C 492.400146484375 259.56494140625 498.6744689941406 276.7566223144531 508.8589172363281 286.2613525390625 C 507.8764953613281 262.160400390625 511.14068603515625 246.47669982910156 511.4269714355469 224.03770446777344 C 501.36004638671875 224.27467346191406 478.0362854003906 222.84011840820312 464.3691711425781 224.45762634277344" stroke-width="0.0" fill="rgb(140, 167, 178)" opacity="1.0891142" stroke="rgb(0, 0, 0)" stroke-opacity="1.0" stroke-linecap="round" stroke-linejoin="round"/>
    <path d="M 365.2823486328125 220.4381103515625 C 346.8026123046875 217.22564697265625 331.4727478027344 222.45379638671875 317.40631103515625 219.52130126953125 C 315.43060302734375 226.35293579101562 306.82122802734375 219.2921905517578 309.44140625 227.85543823242188 C 322.9994201660156 227.03494262695312 315.5773010253906 239.94232177734375 322.028564453125 251.48150634765625 C 326.03009033203125 237.08251953125 332.23602294921875 234.2208251953125 337.9176940917969 225.5586700439453 C 343.7325744628906 229.2200164794922 350.3941955566406 224.5289764404297 355.2291564941406 229.67022705078125 C 359.0506286621094 225.1867218017578 356.5714416503906 221.2986602783203 365.2823486328125 220.4381103515625" stroke-width="0.0" fill="rgb(137, 178, 191)" opacity="0.9877574" stroke="rgb(0, 0, 0)" stroke-opacity="1.0" stroke-linecap="round" stroke-linejoin="round"/>
    <path d="M 434.9622497558594 254.830810546875 C 406.0482482910156 264.3908996582031 415.22100830078125 286.55352783203125 393.4865417480469 291.6001281738281 C 392.77294921875 311.4710998535156 398.1024475097656 320.5451965332031 398.8407897949219 336.6183776855469 C 405.8044128417969 341.130126953125 403.6159362792969 348.68768310546875 414.2746276855469 351.8038024902344 C 423.4177551269531 356.92694091796875 435.63653564453125 357.9115295410156 443.3772277832031 362.2359313964844 C 451.4014587402344 370.3636169433594 445.21453857421875 378.67962646484375 451.4892883300781 384.1841125488281 C 473.0237731933594 384.663818359375 472.3313903808594 387.8660888671875 490.1389465332031 395.3609313964844 C 487.37725830078125 372.3310546875 503.1883239746094 372.52117919921875 506.0050964355469 347.1059875488281 C 504.9963684082031 341.59918212890625 500.5289306640625 333.4937744140625 498.934814453125 328.1472473144531 C 501.4107666015625 314.2551574707031 504.9071960449219 314.74554443359375 508.73883056640625 307.7386474609375 C 511.322998046875 306.4277038574219 508.8694763183594 279.9367370605469 507.72943115234375 287.2405090332031 C 500.9576721191406 274.4768371582031 496.1136779785156 267.67437744140625 486.19647216796875 254.53738403320312 C 477.3915710449219 252.523193359375 458.6005859375 254.31051635742188 434.9622497558594 254.830810546875" stroke-width="0.0" fill="rgb(72, 70, 72)" opacity="0.8438568" stroke="rgb(0, 0, 0)" stroke-opacity="1.0" stroke-linecap="round" stroke-linejoin="round"/>
    <path d="M 206.20518493652344 148.33583068847656 C 198.8037109375 145.30152893066406 192.89476013183594 148.04393005371094 192.88262939453125 150.03585815429688 C 187.89781188964844 153.5072021484375 191.56735229492188 163.6373748779297 189.45938110351562 170.65101623535156 C 185.60617065429688 175.76010131835938 176.93446350097656 178.93978881835938 172.04527282714844 187.4459991455078 C 166.99993896484375 197.46307373046875 161.4720916748047 208.0443115234375 158.45216369628906 218.5267791748047 C 155.70225524902344 231.9618377685547 156.9400634765625 234.5752410888672 159.4086456298828 245.67404174804688 C 161.44686889648438 250.59228515625 167.7233428955078 256.47821044921875 176.4249267578125 260.6340637207031 C 175.25042724609375 257.18890380859375 176.85169982910156 251.75083923339844 180.2918243408203 250.80023193359375 C 187.4407501220703 249.3210906982422 196.87966918945312 252.6527099609375 208.9986572265625 248.3496856689453 C 208.72984313964844 231.40357971191406 214.96481323242188 229.6074676513672 222.73764038085938 222.9918212890625 C 228.89328002929688 214.41070556640625 226.32272338867188 206.641357421875 223.07156372070312 203.52200317382812 C 211.0129852294922 198.8212890625 212.33338928222656 187.46409606933594 203.55665588378906 178.71060180664062 C 201.36024475097656 160.36111450195312 206.56051635742188 169.13882446289062 209.3647918701172 156.6621856689453 C 209.86813354492188 152.01356506347656 205.19720458984375 150.03427124023438 206.20518493652344 148.33583068847656" stroke-width="0.0" fill="rgb(65, 59, 60)" opacity="0.95067036" stroke="rgb(0, 0, 0)" stroke-opacity="1.0" stroke-linecap="round" stroke-linejoin="round"/>
    <path d="M 207.94219970703125 249.05026245117188 C 193.1454620361328 252.37744140625 178.16314697265625 246.75205993652344 176.47059631347656 254.59054565429688 C 172.04705810546875 266.1534118652344 187.79312133789062 276.47625732421875 185.4359130859375 296.3316345214844 C 173.83445739746094 303.3748779296875 160.2425537109375 311.8595275878906 144.96258544921875 319.71441650390625 C 141.1304473876953 324.16033935546875 139.42286682128906 330.22174072265625 146.43954467773438 337.60693359375 C 162.55384826660156 330.3277282714844 176.4868927001953 318.070068359375 194.64895629882812 310.68682861328125 C 197.0749053955078 319.22607421875 193.26612854003906 338.1339111328125 194.316650390625 352.4218444824219 C 195.464599609375 353.3103942871094 199.7297821044922 357.2605895996094 208.63922119140625 352.98358154296875 C 212.21701049804688 334.9928283691406 216.9419403076172 321.1397705078125 215.97119140625 297.0538330078125 C 212.85064697265625 279.60162353515625 210.0874481201172 263.3080749511719 207.94219970703125 249.05026245117188" stroke-width="0.0" fill="rgb(81, 77, 72)" opacity="0.90295297" stroke="rgb(0, 0, 0)" stroke-opacity="1.0" stroke-linecap="round" stroke-linejoin="round"/>
    <path d="M -5.333428859710693 184.69200134277344 C -5.161430358886719 194.07872009277344 -3.668694019317627 204.65782165527344 -2.172614812850952 215.9950408935547 C 14.744763374328613 214.6190948486328 31.429428100585938 214.5706024169922 49.15809631347656 219.67843627929688 C 55.06304168701172 214.97879028320312 49.89353561401367 229.03123474121094 56.44723129272461 226.28089904785156 C 61.32856369018555 232.4340057373047 53.5589714050293 219.35324096679688 62.496681213378906 219.8550567626953 C 72.69772338867188 216.53680419921875 87.078369140625 217.43942260742188 98.12317657470703 212.646728515625 C 79.41107940673828 208.93295288085938 82.46539306640625 192.2684326171875 65.98553466796875 190.34335327148438 C 44.936378479003906 184.87843322753906 21.274330139160156 186.34033203125 -5.333428859710693 184.69200134277344" stroke-width="0.0" fill="rgb(145, 117, 77)" opacity="0.90492713" stroke="rgb(0, 0, 0)" stroke-opacity="1.0" stroke-linecap="round" stroke-linejoin="round"/>
    <path d="M 369.10272216796875 354.06365966796875 C 364.5108642578125 365.5032958984375 367.32763671875 371.93731689453125 374.876953125 378.6903991699219 C 393.33349609375 379.41375732421875 412.2895202636719 381.5775146484375 433.3533935546875 383.40185546875 C 439.2347717285156 380.63983154296875 443.1996765136719 379.1856994628906 444.24908447265625 374.37847900390625 C 444.3564147949219 366.63360595703125 441.5681457519531 362.50372314453125 438.0171203613281 360.51513671875 C 418.02978515625 358.0611267089844 405.1697692871094 354.466552734375 390.8888244628906 351.9623718261719 C 377.8509826660156 351.9527893066406 369.341552734375 351.88861083984375 369.10272216796875 354.06365966796875" stroke-width="0.0" fill="rgb(117, 104, 87)" opacity="0.9088732" stroke="rgb(0, 0, 0)" stroke-opacity="1.0" stroke-linecap="round" stroke-linejoin="round"/>
    <path d="M 181.3433837890625 358.39434814453125 C 169.71693420410156 356.5301513671875 153.90635681152344 354.2818603515625 137.1832733154297 355.6355895996094 C 124.35857391357422 358.4182434082031 109.03180694580078 359.8271179199219 101.65727996826172 361.9228820800781 C 96.7852783203125 365.02264404296875 93.84636688232422 368.21954345703125 99.73694610595703 371.94317626953125 C 103.53598022460938 376.6120300292969 116.11759948730469 374.8049621582031 131.83995056152344 375.23492431640625 C 150.7838134765625 369.549072265625 170.90081787109375 370.8734130859375 181.3433837890625 358.39434814453125" stroke-width="0.0" fill="rgb(61, 57, 53)" opacity="0.96852374" stroke="rgb(0, 0, 0)" stroke-opacity="1.0" stroke-linecap="round" stroke-linejoin="round"/>
    <path d="M 296.4674072265625 432.7743225097656 C 308.1411437988281 442.3515625 333.8674621582031 437.6414489746094 353.4270324707031 444.49346923828125 C 390.0213623046875 447.1630554199219 411.7261047363281 441.7790832519531 440.22210693359375 443.1006164550781 C 447.22674560546875 442.5938720703125 447.4382629394531 435.06610107421875 449.0361633300781 431.9478759765625 C 471.2558288574219 434.6763000488281 494.0466003417969 430.38323974609375 516.8914184570312 437.606201171875 C 518.5232543945312 422.6582946777344 518.5555419921875 409.44000244140625 515.9240112304688 399.4530334472656 C 465.625244140625 384.37628173828125 421.8063659667969 381.8316955566406 370.4161376953125 378.1833801269531 C 336.10595703125 391.7623291015625 333.5459289550781 421.5619201660156 296.4674072265625 432.7743225097656" stroke-width="0.0" fill="rgb(32, 33, 34)" opacity="0.9912223" stroke="rgb(0, 0, 0)" stroke-opacity="1.0" stroke-linecap="round" stroke-linejoin="round"/>
    <path d="M 318.09979248046875 251.6048583984375 C 294.11859130859375 250.2561492919922 272.5971374511719 249.96951293945312 255.8309326171875 258.6642150878906 C 247.9906463623047 262.6609802246094 257.2996520996094 280.6349182128906 243.3581085205078 295.37225341796875 C 253.4777374267578 308.7523498535156 277.08782958984375 300.1834716796875 312.5112609863281 302.4505920410156 C 315.3142395019531 300.0625915527344 319.9731140136719 294.5315246582031 320.10577392578125 285.46551513671875 C 319.42657470703125 275.0553283691406 318.42376708984375 262.5738220214844 318.09979248046875 251.6048583984375" stroke-width="0.0" fill="rgb(79, 71, 72)" opacity="0.97859776" stroke="rgb(0, 0, 0)" stroke-opacity="1.0" stroke-linecap="round" stroke-linejoin="round"/>
    <path d="M 337.0502624511719 228.45697021484375 C 330.12689208984375 235.07989501953125 325.5262451171875 239.01138305664062 322.064453125 250.4420166015625 C 320.6110534667969 282.3851013183594 326.41888427734375 301.7575378417969 326.0654296875 323.0748291015625 C 326.8120422363281 329.53509521484375 328.1647644042969 330.0639953613281 333.55255126953125 330.62786865234375 C 340.5157775878906 329.0743408203125 344.87847900390625 332.042724609375 345.8133850097656 323.0663146972656 C 345.5276794433594 305.9911804199219 345.76202392578125 295.21527099609375 353.41607666015625 275.3248596191406 C 352.2652587890625 257.2044982910156 355.5305480957031 240.28121948242188 350.45526123046875 230.1597900390625 C 345.8768005371094 233.946533203125 344.91241455078125 230.6708221435547 337.0502624511719 228.45697021484375" stroke-width="0.0" fill="rgb(100, 104, 113)" opacity="1.0489081" stroke="rgb(0, 0, 0)" stroke-opacity="1.0" stroke-linecap="round" stroke-linejoin="round"/>
    <path d="M -0.8043296337127686 268.19268798828125 C -3.1710312366485596 269.56036376953125 -5.980323314666748 262.49114990234375 -8.01448917388916 247.54591369628906 C -7.341070652008057 277.22857666015625 -8.322794914245605 303.5262756347656 -5.646917819976807 330.5713195800781 C 5.906314849853516 325.54547119140625 14.592469215393066 326.5919189453125 13.93274211883545 320.9169921875 C 15.639320373535156 315.24810791015625 18.95469093322754 308.5585021972656 16.805173873901367 303.3858642578125 C 29.993701934814453 297.1916198730469 47.677860260009766 299.07958984375 53.44798278808594 283.99005126953125 C 48.30645751953125 275.14752197265625 36.86879348754883 275.5721740722656 29.373844146728516 274.9183349609375 C 21.85492706298828 271.30792236328125 7.424478530883789 271.5041809082031 -0.8043296337127686 268.19268798828125" stroke-width="0.0" fill="rgb(38, 41, 46)" opacity="1.1198292" stroke="rgb(0, 0, 0)" stroke-opacity="1.0" stroke-linecap="round" stroke-linejoin="round"/>
    <path d="M 195.9311065673828 310.48199462890625 C 181.21627807617188 316.886474609375 169.30084228515625 326.2798767089844 152.99249267578125 333.4399719238281 C 152.0590057373047 334.50225830078125 150.8033905029297 348.2510681152344 152.6029510498047 354.5912170410156 C 159.7452850341797 355.725830078125 178.999267578125 360.04351806640625 190.94668579101562 355.3468933105469 C 194.7069549560547 345.99993896484375 196.2359619140625 329.61114501953125 195.9311065673828 310.48199462890625" stroke-width="0.0" fill="rgb(191, 168, 132)" opacity="0.8520825" stroke="rgb(0, 0, 0)" stroke-opacity="1.0" stroke-linecap="round" stroke-linejoin="round"/>
    <path d="M 252.1362762451172 214.9053192138672 C 266.2162780761719 219.76766967773438 287.09503173828125 213.07980346679688 302.955322265625 225.195068359375 C 318.96807861328125 212.3625946044922 358.5129089355469 221.14801025390625 372.6722717285156 214.9379425048828 C 342.63470458984375 205.99746704101562 310.31402587890625 208.6255340576172 283.80584716796875 202.9695281982422 C 266.6585693359375 204.08302307128906 260.4438781738281 207.58853149414062 252.1362762451172 214.9053192138672" stroke-width="0.0" fill="rgb(122, 116, 107)" opacity="1.0960984" stroke="rgb(0, 0, 0)" stroke-opacity="1.0" stroke-linecap="round" stroke-linejoin="round"/>
    <path d="M 145.66761779785156 258.3715515136719 C 124.3525619506836 264.9039306640625 107.61056518554688 264.71240234375 95.68134307861328 265.04217529296875 C 88.8148193359375 262.2484436035156 85.14966583251953 266.85009765625 86.5589370727539 276.0939636230469 C 89.04619598388672 281.17010498046875 100.35993194580078 283.36688232421875 119.97071838378906 281.11376953125 C 129.228271484375 278.0586853027344 137.2110137939453 277.56707763671875 144.6808624267578 276.6988220214844 C 148.99620056152344 271.21185302734375 152.32530212402344 268.09844970703125 145.66761779785156 258.3715515136719" stroke-width="0.0" fill="rgb(18, 31, 42)" opacity="0.9688247" stroke="rgb(0, 0, 0)" stroke-opacity="1.0" stroke-linecap="round" stroke-linejoin="round"/>
    <path d="M -3.3693459033966064 174.99655151367188 C -3.0855913162231445 177.17674255371094 -1.301570177078247 180.76553344726562 -2.492579460144043 185.73545837402344 C 22.049110412597656 184.97642517089844 45.82524871826172 186.2928466796875 70.99287414550781 190.1577911376953 C 64.25238800048828 182.28883361816406 53.801300048828125 180.4604034423828 46.51902770996094 178.0948944091797 C 32.14742660522461 176.07565307617188 14.842157363891602 174.41175842285156 -3.3693459033966064 174.99655151367188" stroke-width="0.0" fill="rgb(127, 171, 210)" opacity="0.9444609" stroke="rgb(0, 0, 0)" stroke-opacity="1.0" stroke-linecap="round" stroke-linejoin="round"/>
    <path d="M -8.695192337036133 215.26283264160156 C -8.72311782836914 240.15658569335938 -7.924898147583008 257.88818359375 -7.025505065917969 267.1583251953125 C 19.08932876586914 273.93157958984375 34.81792449951172 275.1696472167969 46.132930755615234 270.6581115722656 C 48.114315032958984 267.3849792480469 46.783851623535156 254.39605712890625 46.8632698059082 251.12847900390625 C 53.28493881225586 248.49346923828125 50.94424057006836 258.0960388183594 49.64873504638672 267.28948974609375 C 55.53885269165039 273.30615234375 53.196739196777344 257.82470703125 52.89582443237305 237.8468017578125 C 50.74005126953125 250.99481201171875 46.32292175292969 237.39044189453125 47.702266693115234 245.20533752441406 C 49.021846771240234 240.41551208496094 52.88344192504883 240.0978240966797 54.91832733154297 236.5681610107422 C 54.71570587158203 246.29873657226562 55.23099136352539 263.76165771484375 54.59161376953125 268.864501953125 C 77.1097412109375 272.79168701171875 68.95465850830078 265.4148254394531 75.44690704345703 274.9683532714844 C 84.21571350097656 281.5935363769531 85.57122039794922 273.8693542480469 90.03164672851562 267.254150390625 C 112.44012451171875 263.48883056640625 138.855712890625 264.3114318847656 155.31907653808594 254.58250427246094 C 155.9110565185547 251.85867309570312 153.55245971679688 235.40240478515625 153.9050750732422 223.34103393554688 C 99.08150482177734 228.3677978515625 110.54857635498047 211.7815399169922 72.49211883544922 217.85260009765625 C 52.25638198852539 214.45555114746094 61.04058837890625 222.03070068359375 57.958763122558594 226.64903259277344 C 60.37416458129883 230.11244201660156 55.95363998413086 232.5149383544922 49.13640594482422 226.54037475585938 C 49.468841552734375 232.36705017089844 53.231197357177734 218.9450225830078 50.395389556884766 219.9797821044922 C 33.37998580932617 214.83407592773438 19.389907836914062 213.5996856689453 -8.695192337036133 215.26283264160156" stroke-width="0.0" fill="rgb(112, 138, 155)" opacity="0.7844714" stroke="rgb(0, 0, 0)" stroke-opacity="1.0" stroke-linecap="round" stroke-linejoin="round"/>
    <path d="M 448.1939392089844 438.56781005859375 C 441.757568359375 454.4897766113281 451.1897277832031 449.3027648925781 450.7162780761719 462.3692626953125 C 453.47015380859375 462.7388000488281 465.9969177246094 466.06365966796875 471.86962890625 464.231689453125 C 474.1278991699219 472.0810852050781 466.8294677734375 473.63714599609375 479.6437683105469 472.513427734375 C 482.689453125 479.77197265625 473.594970703125 470.8240661621094 471.2488708496094 479.4761657714844 C 473.6131286621094 476.9446105957031 484.2042236328125 481.0386657714844 479.22406005859375 482.2477111816406 C 465.10955810546875 485.65765380859375 492.11883544921875 492.1412353515625 478.0325927734375 513.662841796875 C 491.2444763183594 518.2344360351562 501.94927978515625 518.3464965820312 521.3568725585938 518.6359252929688 C 521.3222045898438 482.6607666015625 521.4580688476562 456.7406005859375 510.3880310058594 438.8959045410156 C 504.3200988769531 435.5530090332031 498.0523681640625 434.3174133300781 485.6419982910156 432.572265625 C 470.4756164550781 434.50146484375 461.5552062988281 432.3264465332031 448.1939392089844 438.56781005859375" stroke-width="0.0" fill="rgb(191, 169, 128)" opacity="1.0013807" stroke="rgb(0, 0, 0)" stroke-opacity="1.0" stroke-linecap="round" stroke-linejoin="round"/>
    <path d="M 517.856201171875 130.91796875 C 473.0716247558594 134.67018127441406 433.8840026855469 134.47036743164062 407.6592712402344 141.90249633789062 C 404.4361572265625 141.56390380859375 395.550537109375 151.20352172851562 400.037353515625 155.941650390625 C 426.78228759765625 157.95314025878906 463.6919250488281 156.2454833984375 494.7972717285156 158.56898498535156 C 495.2991027832031 158.2498016357422 491.8263854980469 158.6565399169922 492.5588684082031 157.2198944091797 C 493.8230895996094 163.82794189453125 496.42730712890625 163.33619689941406 502.5897216796875 163.3636932373047 C 502.6488342285156 154.4080352783203 503.1827697753906 151.58401489257812 521.21484375 150.645263671875 C 518.9522705078125 141.96319580078125 520.7691040039062 133.5804901123047 517.856201171875 130.91796875" stroke-width="0.0" fill="rgb(71, 75, 98)" opacity="0.9702739" stroke="rgb(0, 0, 0)" stroke-opacity="1.0" stroke-linecap="round" stroke-linejoin="round"/>
    <path d="M 264.6802978515625 332.7564392089844 C 282.80584716796875 334.32421875 307.4638671875 333.9796447753906 331.00286865234375 333.8826599121094 C 322.7218017578125 330.48406982421875 326.4759521484375 319.44287109375 324.4242858886719 309.4906311035156 C 308.720458984375 312.4530334472656 320.3934326171875 302.94036865234375 310.3809814453125 306.2234191894531 C 292.7344665527344 303.82867431640625 277.05206298828125 304.6814270019531 273.1077575683594 305.8282165527344 C 274.39593505859375 316.4678039550781 270.2153625488281 320.8056640625 273.0442810058594 326.100341796875 C 272.0520324707031 333.9461669921875 261.5154113769531 326.9811706542969 264.6802978515625 332.7564392089844" stroke-width="0.0" fill="rgb(145, 131, 108)" opacity="0.91731226" stroke="rgb(0, 0, 0)" stroke-opacity="1.0" stroke-linecap="round" stroke-linejoin="round"/>
    <path d="M 374.4831848144531 295.18963623046875 C 371.0168762207031 306.1585388183594 371.1265869140625 320.8330993652344 372.2944030761719 343.4874572753906 C 373.4242248535156 343.83221435546875 382.7498779296875 347.62554931640625 392.960693359375 347.98577880859375 C 396.01123046875 332.8171081542969 395.58489990234375 311.89630126953125 395.6619567871094 292.4356994628906 C 390.5002746582031 289.97344970703125 379.83319091796875 293.47216796875 374.4831848144531 295.18963623046875" stroke-width="0.0" fill="rgb(108, 97, 88)" opacity="1.0004828" stroke="rgb(0, 0, 0)" stroke-opacity="1.0" stroke-linecap="round" stroke-linejoin="round"/>
    <path d="M 347.93377685546875 334.7881164550781 C 336.0108642578125 353.9049377441406 341.98388671875 350.1520080566406 345.8070373535156 376.9784240722656 C 343.8718566894531 375.2394714355469 351.474609375 379.98272705078125 356.1175231933594 377.197021484375 C 358.1559753417969 385.99688720703125 353.5516052246094 396.75628662109375 357.56732177734375 401.2002868652344 C 363.5462951660156 397.71832275390625 360.06158447265625 386.08050537109375 364.61041259765625 376.10028076171875 C 366.5317077636719 373.3992614746094 366.5447082519531 377.7068786621094 371.57623291015625 375.97357177734375 C 364.4750671386719 365.2543640136719 366.4544372558594 357.14697265625 374.34307861328125 349.37249755859375 C 364.5109558105469 349.0283203125 361.5378723144531 349.0187072753906 357.3204345703125 347.6967468261719 C 355.2459716796875 342.6091613769531 347.5833435058594 335.1685485839844 347.93377685546875 334.7881164550781" stroke-width="0.0" fill="rgb(58, 55, 62)" opacity="1.0110004" stroke="rgb(0, 0, 0)" stroke-opacity="1.0" stroke-linecap="round" stroke-linejoin="round"/>
    <path d="M 82.60191345214844 284.70904541015625 C 74.35066223144531 284.92926025390625 61.27443313598633 284.65399169921875 63.983604431152344 285.3124084472656 C 56.00918197631836 293.0079345703125 60.46620178222656 299.89678955078125 52.9084358215332 306.1965637207031 C 52.9266242980957 314.01727294921875 52.54595947265625 320.41552734375 54.597686767578125 323.5617980957031 C 67.65011596679688 325.0746765136719 73.89336395263672 320.6484680175781 84.7328109741211 319.3533935546875 C 82.09809875488281 307.435302734375 85.4079360961914 297.5322265625 82.60191345214844 284.70904541015625" stroke-width="0.0" fill="rgb(162, 154, 139)" opacity="1.0042408" stroke="rgb(0, 0, 0)" stroke-opacity="1.0" stroke-linecap="round" stroke-linejoin="round"/>
    <path d="M 352.9109191894531 293.6165771484375 C 350.9776611328125 295.64678955078125 352.5357360839844 312.8094482421875 351.81158447265625 331.7389831542969 C 357.4283142089844 336.2809143066406 357.8120422363281 336.5389404296875 359.40155029296875 348.53662109375 C 358.499267578125 336.9977111816406 373.11517333984375 342.4936218261719 372.5166015625 341.1129455566406 C 370.92254638671875 326.6368103027344 372.3063049316406 313.0448913574219 373.2016296386719 296.4166564941406 C 362.26824951171875 294.8573303222656 359.4708251953125 286.130615234375 352.9109191894531 293.6165771484375" stroke-width="0.0" fill="rgb(50, 41, 47)" opacity="1.0036889" stroke="rgb(0, 0, 0)" stroke-opacity="1.0" stroke-linecap="round" stroke-linejoin="round"/>
    <path d="M 405.395751953125 164.4646453857422 C 422.2283020019531 167.4711151123047 444.3336486816406 169.0111083984375 465.1975402832031 170.4491424560547 C 470.7104797363281 169.3260955810547 466.80816650390625 163.2271728515625 467.90185546875 163.63226318359375 C 486.1989440917969 161.81333923339844 498.1988220214844 166.10679626464844 498.8475036621094 157.235107421875 C 478.13507080078125 157.3541717529297 455.8886413574219 157.54147338867188 439.11309814453125 155.89833068847656 C 428.5712585449219 156.94577026367188 413.99261474609375 157.1173858642578 404.1063232421875 156.01602172851562 C 408.60723876953125 159.05137634277344 402.8066101074219 159.11337280273438 405.395751953125 164.4646453857422" stroke-width="0.0" fill="rgb(125, 96, 86)" opacity="0.96562797" stroke="rgb(0, 0, 0)" stroke-opacity="1.0" stroke-linecap="round" stroke-linejoin="round"/>
    <path d="M 40.51151657104492 299.8330078125 C 30.9051456451416 299.3782043457031 22.36963653564453 302.228515625 15.30134391784668 304.34234619140625 C 18.810392379760742 310.56402587890625 15.020441055297852 317.0135803222656 12.920263290405273 327.40435791015625 C 25.298633575439453 325.5859069824219 37.87789535522461 325.9478454589844 47.751712799072266 324.3458557128906 C 45.511138916015625 314.3409729003906 44.60133361816406 304.171875 40.51151657104492 299.8330078125" stroke-width="0.0" fill="rgb(150, 133, 105)" opacity="0.8998368" stroke="rgb(0, 0, 0)" stroke-opacity="1.0" stroke-linecap="round" stroke-linejoin="round"/>
    <path d="M 453.4591064453125 199.43606567382812 C 451.3738708496094 188.41781616210938 447.7377014160156 192.0467529296875 442.2025451660156 189.75717163085938 C 388.3496398925781 189.50469970703125 333.784423828125 190.46893310546875 294.4136962890625 196.0743865966797 C 287.2394104003906 197.8076629638672 285.1242980957031 198.16604614257812 288.0793762207031 205.73358154296875 C 311.4931335449219 208.47982788085938 339.09765625 207.0261688232422 362.2435302734375 212.3343963623047 C 355.2604675292969 217.05853271484375 357.535888671875 207.07196044921875 370.0772399902344 215.6462860107422 C 371.9156494140625 216.29617309570312 370.6816711425781 203.556396484375 370.9197082519531 201.94480895996094 C 398.8198547363281 196.60069274902344 386.6427001953125 210.84799194335938 389.1075744628906 207.7659912109375 C 421.3484191894531 204.7764129638672 442.6645202636719 206.15386962890625 453.4591064453125 199.43606567382812" stroke-width="0.0" fill="rgb(150, 104, 50)" opacity="0.82463646" stroke="rgb(0, 0, 0)" stroke-opacity="1.0" stroke-linecap="round" stroke-linejoin="round"/>
    <path d="M 352.84832763671875 236.50514221191406 C 352.14813232421875 245.94960021972656 356.0493469238281 255.4395751953125 361.7530212402344 256.0715637207031 C 416.4640197753906 252.4384307861328 457.8752746582031 253.5962371826172 495.243896484375 255.0333709716797 C 446.51922607421875 247.39483642578125 399.390625 242.15191650390625 352.84832763671875 236.50514221191406" stroke-width="0.0" fill="rgb(134, 136, 137)" opacity="1.0456718" stroke="rgb(0, 0, 0)" stroke-opacity="1.0" stroke-linecap="round" stroke-linejoin="round"/>
    <path d="M 370.5382995605469 264.5815124511719 C 383.2663879394531 265.415283203125 394.96026611328125 266.8136291503906 412.00408935546875 266.0577392578125 C 415.0001525878906 262.67333984375 422.11041259765625 258.3636169433594 429.556396484375 253.90550231933594 C 408.4470520019531 253.7790069580078 386.34283447265625 254.37176513671875 370.6338195800781 255.43084716796875 C 369.78643798828125 256.74444580078125 368.7995910644531 263.7925720214844 370.5382995605469 264.5815124511719" stroke-width="0.0" fill="rgb(144, 170, 176)" opacity="0.9977334" stroke="rgb(0, 0, 0)" stroke-opacity="1.0" stroke-linecap="round" stroke-linejoin="round"/>
    <path d="M 464.9012451171875 224.85513305664062 C 479.0880432128906 233.5291290283203 490.7998962402344 241.1469268798828 501.166259765625 252.0718536376953 C 508.5245056152344 253.56808471679688 505.2515869140625 245.822998046875 511.6413879394531 245.64305114746094 C 509.9046630859375 239.01480102539062 512.5701904296875 228.44004821777344 510.1971435546875 223.945556640625 C 495.87353515625 224.38088989257812 478.3975524902344 222.78977966308594 464.9012451171875 224.85513305664062" stroke-width="0.0" fill="rgb(128, 177, 191)" opacity="1.003589" stroke="rgb(0, 0, 0)" stroke-opacity="1.0" stroke-linecap="round" stroke-linejoin="round"/>
    <path d="M 127.70831298828125 506.1529541015625 C 134.67169189453125 512.9098510742188 141.82968139648438 519.6882934570312 149.8680877685547 518.2235107421875 C 161.19638061523438 505.775390625 172.63560485839844 504.0487060546875 173.53147888183594 502.40997314453125 C 170.32786560058594 494.1347351074219 159.78866577148438 495.88232421875 148.11705017089844 495.6120910644531 C 140.0448760986328 498.1466369628906 127.9551010131836 501.671142578125 127.70831298828125 506.1529541015625" stroke-width="0.0" fill="rgb(188, 165, 122)" opacity="0.9990681" stroke="rgb(0, 0, 0)" stroke-opacity="1.0" stroke-linecap="round" stroke-linejoin="round"/>
    <path d="M 193.9436798095703 301.9475402832031 C 193.32205200195312 299.39117431640625 188.47459411621094 295.7665100097656 185.90652465820312 295.6477355957031 C 172.81405639648438 303.0314025878906 161.49761962890625 311.2692565917969 147.98052978515625 317.3174743652344 C 140.84036254882812 322.8193664550781 139.01046752929688 324.92022705078125 140.6375732421875 329.6450500488281 C 139.08303833007812 335.52593994140625 149.31915283203125 344.2728271484375 148.12115478515625 340.6396484375 C 159.3213653564453 328.5126953125 178.56008911132812 319.8504943847656 195.29971313476562 309.652099609375 C 195.66799926757812 308.00701904296875 197.9570770263672 308.07861328125 193.9436798095703 301.9475402832031" stroke-width="0.0" fill="rgb(20, 18, 19)" opacity="0.9266162" stroke="rgb(0, 0, 0)" stroke-opacity="1.0" stroke-linecap="round" stroke-linejoin="round"/>
    <path d="M 195.41481018066406 147.0223846435547 C 187.86692810058594 150.82388305664062 188.16375732421875 157.6368865966797 189.51455688476562 173.75706481933594 C 187.3917236328125 171.9840545654297 197.9473876953125 173.77442932128906 203.16761779785156 178.18333435058594 C 203.7338409423828 166.78839111328125 210.73388671875 163.45529174804688 208.85977172851562 154.96591186523438 C 210.1893768310547 147.39846801757812 200.01258850097656 143.5398712158203 195.41481018066406 147.0223846435547" stroke-width="0.0" fill="rgb(24, 27, 36)" opacity="0.96676373" stroke="rgb(0, 0, 0)" stroke-opacity="1.0" stroke-linecap="round" stroke-linejoin="round"/>
    <path d="M 298.8544616699219 438.69842529296875 C 312.415771484375 440.1097717285156 336.51373291015625 439.51251220703125 362.3332824707031 446.2386474609375 C 388.5345153808594 444.8287353515625 421.3497314453125 444.51806640625 442.90234375 443.9839782714844 C 451.4225158691406 433.78582763671875 441.50927734375 428.53076171875 444.2250671386719 430.4207763671875 C 414.5945739746094 429.5051574707031 400.73779296875 428.4095458984375 387.40606689453125 420.94232177734375 C 363.9961242675781 417.6487731933594 340.44921875 421.50531005859375 317.1950988769531 419.5724792480469 C 313.6410217285156 428.1861572265625 293.8864440917969 420.7707824707031 298.8544616699219 438.69842529296875" stroke-width="0.0" fill="rgb(84, 79, 73)" opacity="0.9179517" stroke="rgb(0, 0, 0)" stroke-opacity="1.0" stroke-linecap="round" stroke-linejoin="round"/>
    <path d="M 411.98175048828125 272.52490234375 C 407.111328125 275.772216796875 417.6783752441406 279.9497985839844 422.1243896484375 280.3369445800781 C 453.4140625 285.51324462890625 483.6905517578125 291.5781555175781 499.8193359375 284.7344055175781 C 505.8337097167969 277.5633850097656 497.0556640625 270.3525695800781 495.824951171875 262.88677978515625 C 479.55755615234375 259.07318115234375 462.7978515625 256.4112548828125 446.09912109375 254.1573486328125 C 435.7738037109375 253.98313903808594 432.67681884765625 252.6836700439453 425.8309020996094 256.86865234375 C 419.8403625488281 261.5718688964844 410.9422607421875 265.7272033691406 411.98175048828125 272.52490234375" stroke-width="0.0" fill="rgb(55, 45, 52)" opacity="0.9553659" stroke="rgb(0, 0, 0)" stroke-opacity="1.0" stroke-linecap="round" stroke-linejoin="round"/>
    <path d="M 177.9097137451172 252.77557373046875 C 177.9491424560547 269.9896545410156 191.13082885742188 277.6945495605469 187.30670166015625 293.7790832519531 C 191.8104248046875 293.6225280761719 196.12078857421875 295.4261474609375 196.55538940429688 299.25311279296875 C 198.48052978515625 322.02276611328125 195.5735321044922 333.79461669921875 193.62745666503906 351.3934631347656 C 194.77838134765625 355.1722412109375 201.8614501953125 356.3948669433594 207.8874969482422 353.5041809082031 C 210.57838439941406 339.2701416015625 216.40719604492188 326.22735595703125 216.9658660888672 298.6527099609375 C 213.4111785888672 285.91973876953125 211.56063842773438 266.2107849121094 206.6878662109375 250.13856506347656 C 197.0417022705078 251.3156280517578 180.65115356445312 247.61074829101562 177.9097137451172 252.77557373046875" stroke-width="0.0" fill="rgb(16, 17, 23)" opacity="1.00228" stroke="rgb(0, 0, 0)" stroke-opacity="1.0" stroke-linecap="round" stroke-linejoin="round"/>
    <path d="M 337.4842529296875 227.4916534423828 C 330.4443054199219 234.94004821777344 325.1483154296875 238.29296875 322.2832336425781 251.13348388671875 C 323.91290283203125 268.4205627441406 323.8826599121094 277.3386535644531 327.7707824707031 294.8631286621094 C 331.0424499511719 294.8734436035156 335.1078186035156 297.44952392578125 345.5269470214844 295.9444885253906 C 350.8851013183594 294.39324951171875 346.24908447265625 284.28692626953125 353.4618835449219 274.6429443359375 C 351.8946533203125 256.8855285644531 354.9822692871094 237.40406799316406 350.135009765625 230.84078979492188 C 344.1299743652344 232.95806884765625 342.8670654296875 230.26080322265625 337.4842529296875 227.4916534423828" stroke-width="0.0" fill="rgb(110, 109, 116)" opacity="1.0350854" stroke="rgb(0, 0, 0)" stroke-opacity="1.0" stroke-linecap="round" stroke-linejoin="round"/>
    <path d="M -3.9977991580963135 185.3755340576172 C -5.153036117553711 191.91500854492188 -5.595277786254883 200.41952514648438 -6.48771858215332 209.35873413085938 C 28.94798469543457 205.22764587402344 56.70954513549805 206.29933166503906 74.67069244384766 203.29763793945312 C 75.41511535644531 190.56858825683594 66.95825958251953 189.86166381835938 54.609859466552734 187.86541748046875 C 37.21342849731445 187.33583068847656 18.493303298950195 183.8572998046875 -3.9977991580963135 185.3755340576172" stroke-width="0.0" fill="rgb(121, 82, 49)" opacity="1.0065591" stroke="rgb(0, 0, 0)" stroke-opacity="1.0" stroke-linecap="round" stroke-linejoin="round"/>
    <path d="M 331.8558349609375 299.94073486328125 C 327.53070068359375 305.0911865234375 325.1946716308594 315.729248046875 326.2073059082031 326.2629699707031 C 328.7837829589844 332.74237060546875 334.76800537109375 327.66387939453125 345.203857421875 333.0459899902344 C 343.0307312011719 324.2449951171875 347.8682556152344 315.5224609375 345.8224182128906 301.3824462890625 C 345.6270446777344 299.1576843261719 332.5627136230469 299.96295166015625 331.8558349609375 299.94073486328125" stroke-width="0.0" fill="rgb(10, 10, 17)" opacity="1.003652" stroke="rgb(0, 0, 0)" stroke-opacity="1.0" stroke-linecap="round" stroke-linejoin="round"/>
    <path d="M 357.560302734375 274.6596984863281 C 349.6814880371094 302.3428955078125 350.014892578125 322.4661560058594 354.8305969238281 349.58013916015625 C 388.2100524902344 348.9056701660156 410.91107177734375 359.09405517578125 440.9725341796875 361.8533020019531 C 449.1064147949219 363.68408203125 446.2287902832031 367.8005676269531 448.91339111328125 374.274169921875 C 453.3390197753906 373.6080017089844 456.5428466796875 370.3011474609375 455.94354248046875 372.92626953125 C 458.9306945800781 360.1628723144531 468.5513916015625 354.5311584472656 469.412353515625 338.66192626953125 C 471.1475524902344 323.0624694824219 477.4635925292969 308.2408752441406 478.3603210449219 289.5866394042969 C 443.80908203125 284.1513671875 414.0506896972656 277.7275695800781 380.9344482421875 271.9629211425781 C 366.200439453125 270.8460693359375 364.50494384765625 271.465576171875 357.560302734375 274.6596984863281" stroke-width="0.0" fill="rgb(106, 131, 133)" opacity="0.86960095" stroke="rgb(0, 0, 0)" stroke-opacity="1.0" stroke-linecap="round" stroke-linejoin="round"/>
    <path d="M 62.67030334472656 221.5221405029297 C 61.1281852722168 238.101318359375 55.32583999633789 247.20306396484375 57.22405242919922 266.34857177734375 C 64.64790344238281 272.6127014160156 71.02667999267578 272.42236328125 84.46634674072266 274.2225341796875 C 83.5196304321289 270.6572265625 83.00845336914062 267.3948974609375 90.87252807617188 266.2145080566406 C 110.18115997314453 267.0735168457031 129.5273895263672 262.8862609863281 148.1876220703125 259.0684509277344 C 150.13751220703125 261.96636962890625 147.99990844726562 269.4656677246094 150.93434143066406 273.4696044921875 C 155.42445373535156 254.60986328125 156.9256591796875 235.6253662109375 153.84683227539062 223.65103149414062 C 121.13970184326172 225.61526489257812 94.34102630615234 220.42018127441406 62.67030334472656 221.5221405029297" stroke-width="0.0" fill="rgb(112, 160, 172)" opacity="1.0143578" stroke="rgb(0, 0, 0)" stroke-opacity="1.0" stroke-linecap="round" stroke-linejoin="round"/>
    <path d="M 510.87969970703125 272.2429504394531 C 508.4667053222656 293.0890197753906 488.01776123046875 283.09423828125 479.4433898925781 295.89483642578125 C 474.4543762207031 313.6117858886719 470.6480407714844 335.1496887207031 466.7677307128906 356.0837707519531 C 463.2333068847656 370.0174255371094 460.04791259765625 373.2071228027344 452.5203552246094 379.00048828125 C 450.21478271484375 391.84552001953125 450.5924987792969 386.8872375488281 457.383544921875 392.6317138671875 C 467.697998046875 394.69451904296875 476.877685546875 399.33294677734375 491.6125183105469 395.1871643066406 C 493.532958984375 374.5330505371094 500.6875305175781 376.1551513671875 505.2402038574219 366.8355407714844 C 508.765380859375 360.3710632324219 509.6705627441406 346.8699951171875 507.5810546875 342.8106384277344 C 505.7705383300781 336.5242919921875 501.2315368652344 331.99237060546875 498.2332763671875 331.1486511230469 C 502.176025390625 322.7430419921875 506.5950927734375 314.6578063964844 516.8948364257812 306.98602294921875 C 520.1093139648438 295.72027587890625 520.056640625 285.44879150390625 510.87969970703125 272.2429504394531" stroke-width="0.0" fill="rgb(6, 9, 12)" opacity="1.0180732" stroke="rgb(0, 0, 0)" stroke-opacity="1.0" stroke-linecap="round" stroke-linejoin="round"/>
    <path d="M 189.88137817382812 172.52696228027344 C 181.1089324951172 176.3001708984375 174.14154052734375 183.79046630859375 170.93234252929688 191.9157257080078 C 172.12075805664062 200.0394744873047 173.13148498535156 203.60589599609375 169.9440460205078 203.9021453857422 C 182.6197052001953 204.0869598388672 178.39149475097656 209.0102996826172 185.40423583984375 202.37057495117188 C 185.66412353515625 219.8381805419922 175.5408477783203 227.9038543701172 174.78330993652344 249.6656036376953 C 180.29794311523438 249.2591552734375 197.044677734375 247.60621643066406 208.17550659179688 252.22540283203125 C 210.3831024169922 228.3824005126953 206.5927276611328 203.8964385986328 214.6206512451172 203.67294311523438 C 211.83322143554688 191.65040588378906 210.032958984375 185.509033203125 206.53762817382812 182.19631958007812 C 201.67025756835938 178.26434326171875 194.86978149414062 175.42501831054688 189.88137817382812 172.52696228027344" stroke-width="0.0" fill="rgb(83, 51, 38)" opacity="0.9736682" stroke="rgb(0, 0, 0)" stroke-opacity="1.0" stroke-linecap="round" stroke-linejoin="round"/>
    <path d="M 170.555419921875 190.3878173828125 C 165.2458953857422 201.7711944580078 158.76043701171875 211.5728759765625 154.4046630859375 225.8609619140625 C 158.38876342773438 254.3337860107422 156.3762664794922 252.81919860839844 153.1758575439453 278.3946533203125 C 162.77896118164062 294.7655029296875 148.4595947265625 293.82781982421875 165.15045166015625 296.1066589355469 C 179.65834045410156 289.1979064941406 170.64663696289062 280.0226135253906 187.0124969482422 281.9443359375 C 177.0225830078125 265.9169616699219 178.07388305664062 255.63104248046875 175.07188415527344 239.7216033935547 C 178.16432189941406 228.01063537597656 183.72354125976562 219.48313903808594 185.9820556640625 207.08094787597656 C 179.60910034179688 203.06849670410156 174.82568359375 206.51817321777344 172.02969360351562 205.8056182861328 C 172.03387451171875 198.68394470214844 171.966064453125 191.7530059814453 170.555419921875 190.3878173828125" stroke-width="0.0" fill="rgb(121, 110, 105)" opacity="0.768269" stroke="rgb(0, 0, 0)" stroke-opacity="1.0" stroke-linecap="round" stroke-linejoin="round"/>
    <path d="M 259.01336669921875 266.439453125 C 257.7588195800781 279.5244140625 260.3460388183594 290.6748046875 262.5459289550781 300.1533508300781 C 281.2959289550781 300.8589782714844 291.6703186035156 293.2935485839844 316.8857421875 295.1877746582031 C 322.0014343261719 286.6650695800781 317.34710693359375 277.5474853515625 317.28802490234375 270.18682861328125 C 296.3917541503906 265.9095458984375 281.0310363769531 266.2529296875 259.01336669921875 266.439453125" stroke-width="0.0" fill="rgb(79, 71, 62)" opacity="1.0044305" stroke="rgb(0, 0, 0)" stroke-opacity="1.0" stroke-linecap="round" stroke-linejoin="round"/>
    <path d="M 49.66263961791992 238.53819274902344 C 40.42100143432617 237.15554809570312 29.77450180053711 238.26832580566406 20.06898307800293 237.9499969482422 C 12.360934257507324 242.06723022460938 5.6601433753967285 243.9573516845703 -3.679494857788086 250.19931030273438 C -6.532344341278076 252.20606994628906 -6.860556125640869 260.5539855957031 -8.815155029296875 273.3146057128906 C 12.191530227661133 274.2102966308594 35.84809494018555 275.7811279296875 46.321380615234375 271.1055908203125 C 49.388511657714844 265.7662048339844 47.17221450805664 251.80287170410156 49.66263961791992 238.53819274902344" stroke-width="0.0" fill="rgb(124, 142, 150)" opacity="0.9802295" stroke="rgb(0, 0, 0)" stroke-opacity="1.0" stroke-linecap="round" stroke-linejoin="round"/>
    <path d="M -13.458379745483398 274.22528076171875 C -10.79581069946289 292.1192626953125 -7.5812835693359375 292.5151062011719 3.7129013538360596 302.4699401855469 C 26.41204833984375 306.5000305175781 30.700057983398438 293.02825927734375 55.75428009033203 303.0787048339844 C 57.61863327026367 288.9152526855469 50.82164001464844 280.86962890625 44.8444938659668 275.2673645019531 C 24.714412689208984 274.36663818359375 4.870725631713867 275.32763671875 -13.458379745483398 274.22528076171875" stroke-width="0.0" fill="rgb(106, 95, 75)" opacity="0.9248187" stroke="rgb(0, 0, 0)" stroke-opacity="1.0" stroke-linecap="round" stroke-linejoin="round"/>
    <path d="M 114.47505187988281 214.4044189453125 C 103.36238861083984 204.2000274658203 90.29559326171875 200.4304656982422 70.99893188476562 202.18988037109375 C 55.001365661621094 205.78086853027344 25.363466262817383 207.03919982910156 -10.49827766418457 209.31813049316406 C 11.304564476013184 213.9438934326172 27.028480529785156 213.3194580078125 35.961788177490234 219.0447540283203 C 64.27534484863281 214.97744750976562 95.77560424804688 216.2220916748047 114.47505187988281 214.4044189453125" stroke-width="0.0" fill="rgb(130, 97, 55)" opacity="0.76476765" stroke="rgb(0, 0, 0)" stroke-opacity="1.0" stroke-linecap="round" stroke-linejoin="round"/>
    <path d="M -0.1511022299528122 209.3896026611328 C 1.029701828956604 221.23374938964844 3.651329755783081 233.8572998046875 1.1933881044387817 236.50624084472656 C 18.958101272583008 241.54989624023438 32.21828842163086 236.54998779296875 52.22300338745117 236.72732543945312 C 47.63043212890625 230.3083953857422 53.278228759765625 223.64537048339844 49.4046516418457 219.15025329589844 C 31.52793312072754 216.78697204589844 15.24971866607666 214.72462463378906 -0.1511022299528122 209.3896026611328" stroke-width="0.0" fill="rgb(161, 170, 168)" opacity="0.88408244" stroke="rgb(0, 0, 0)" stroke-opacity="1.0" stroke-linecap="round" stroke-linejoin="round"/>
    <path d="M 273.4787902832031 305.6082763671875 C 277.3992004394531 318.6570739746094 268.6166076660156 320.19183349609375 275.4137878417969 328.6612243652344 C 287.2160949707031 325.5677185058594 301.0494079589844 324.80377197265625 316.3492431640625 325.73248291015625 C 315.0011901855469 318.75860595703125 318.3617858886719 306.74066162109375 314.5262451171875 305.96112060546875 C 300.581298828125 305.9668273925781 284.5287170410156 303.5261535644531 273.4787902832031 305.6082763671875" stroke-width="0.0" fill="rgb(146, 131, 107)" opacity="1.0192357" stroke="rgb(0, 0, 0)" stroke-opacity="1.0" stroke-linecap="round" stroke-linejoin="round"/>
    <path d="M 373.5165710449219 350.3836364746094 C 375.4986572265625 355.3747863769531 369.41802978515625 359.6876525878906 374.760986328125 363.4617004394531 C 395.20526123046875 365.5561828613281 416.3104553222656 369.5804748535156 439.2287902832031 371.53814697265625 C 442.4992370605469 370.0565185546875 440.4397888183594 360.4759826660156 441.39013671875 362.39483642578125 C 417.0318908691406 359.2037353515625 396.5123596191406 353.2009582519531 373.5165710449219 350.3836364746094" stroke-width="0.0" fill="rgb(195, 173, 136)" opacity="0.9895284" stroke="rgb(0, 0, 0)" stroke-opacity="1.0" stroke-linecap="round" stroke-linejoin="round"/>
    <path d="M 347.3353576660156 333.0343017578125 C 341.4234619140625 346.10504150390625 336.0106506347656 353.54656982421875 344.2206115722656 366.2574768066406 C 342.0373840332031 371.6402587890625 336.3932800292969 371.0524597167969 336.0685119628906 376.046630859375 C 337.271484375 377.8635559082031 349.81671142578125 380.8456115722656 353.3116760253906 378.1106872558594 C 359.4854431152344 375.266845703125 355.8038330078125 364.01483154296875 357.2860412597656 345.2829895019531 C 350.256103515625 344.7857360839844 351.64715576171875 337.89892578125 347.3353576660156 333.0343017578125" stroke-width="0.0" fill="rgb(107, 76, 77)" opacity="1.0482516" stroke="rgb(0, 0, 0)" stroke-opacity="1.0" stroke-linecap="round" stroke-linejoin="round"/>
    <path d="M 52.30055236816406 310.978759765625 C 54.08713912963867 312.90362548828125 50.68804168701172 319.9270935058594 55.54545593261719 321.54449462890625 C 64.78241729736328 319.97442626953125 78.37680053710938 321.3481140136719 84.23602294921875 318.3380126953125 C 83.0843505859375 309.39312744140625 80.96685028076172 302.8346252441406 80.91368865966797 300.0213623046875 C 74.1439208984375 298.53662109375 62.68619918823242 298.060546875 57.52199935913086 299.7513122558594 C 57.724483489990234 302.74578857421875 52.68062973022461 304.0673828125 52.30055236816406 310.978759765625" stroke-width="0.0" fill="rgb(174, 159, 132)" opacity="0.99745846" stroke="rgb(0, 0, 0)" stroke-opacity="1.0" stroke-linecap="round" stroke-linejoin="round"/>
    <path d="M 58.608036041259766 216.70361328125 C 45.85343933105469 217.92794799804688 50.94327163696289 216.3574676513672 49.98562240600586 220.44500732421875 C 47.683414459228516 242.4402313232422 48.79704666137695 264.16156005859375 46.93574142456055 269.20770263671875 C 54.825096130371094 271.06488037109375 56.58893585205078 270.26715087890625 56.45309829711914 265.1511535644531 C 53.47969436645508 243.27301025390625 64.26129913330078 245.15811157226562 58.608036041259766 216.70361328125" stroke-width="0.0" fill="rgb(78, 96, 102)" opacity="0.8753123" stroke="rgb(0, 0, 0)" stroke-opacity="1.0" stroke-linecap="round" stroke-linejoin="round"/>
    <path d="M 519.9437255859375 133.43246459960938 C 492.939697265625 131.0586395263672 476.4658203125 134.86647033691406 455.70111083984375 134.98985290527344 C 457.8792724609375 133.87191772460938 458.6706237792969 139.64337158203125 455.73260498046875 150.692626953125 C 471.9856872558594 151.47393798828125 492.1084899902344 150.9031219482422 516.5765991210938 151.42262268066406 C 519.2020263671875 147.22003173828125 519.8983154296875 141.95205688476562 519.9437255859375 133.43246459960938" stroke-width="0.0" fill="rgb(117, 85, 46)" opacity="1.0010804" stroke="rgb(0, 0, 0)" stroke-opacity="1.0" stroke-linecap="round" stroke-linejoin="round"/>
    <path d="M 344.9429626464844 335.2967834472656 C 347.3855285644531 326.2387390136719 339.6144104003906 332.8182678222656 328.2602233886719 330.3597412109375 C 323.0771484375 325.21197509765625 324.36663818359375 322.46923828125 330.12762451171875 322.1554260253906 C 301.0813903808594 325.91864013671875 272.9388732910156 324.4399108886719 258.2687072753906 333.37774658203125 C 292.8825378417969 335.04754638671875 326.5289001464844 334.6519775390625 344.9429626464844 335.2967834472656" stroke-width="0.0" fill="rgb(51, 47, 42)" opacity="1.0082861" stroke="rgb(0, 0, 0)" stroke-opacity="1.0" stroke-linecap="round" stroke-linejoin="round"/>
    <path d="M 468.5862731933594 171.9901123046875 C 470.0981140136719 167.43975830078125 466.39111328125 165.7264862060547 466.82342529296875 159.85240173339844 C 462.9234924316406 156.7241973876953 456.00274658203125 159.39590454101562 454.05267333984375 153.16656494140625 C 457.8392333984375 150.94178771972656 456.9367980957031 140.97686767578125 458.5470886230469 133.18133544921875 C 439.9187316894531 136.69708251953125 422.25439453125 137.49368286132812 409.94464111328125 140.05311584472656 C 399.7807922363281 141.0962677001953 401.5856628417969 147.4011993408203 397.4242858886719 155.16444396972656 C 408.9413146972656 159.2458038330078 405.98101806640625 150.16310119628906 404.6888732910156 164.35751342773438 C 424.83612060546875 167.635009765625 446.7274169921875 169.1400146484375 468.5862731933594 171.9901123046875" stroke-width="0.0" fill="rgb(110, 85, 70)" opacity="0.9193791" stroke="rgb(0, 0, 0)" stroke-opacity="1.0" stroke-linecap="round" stroke-linejoin="round"/>
    <path d="M 99.09417724609375 380.83990478515625 C 118.36080932617188 372.6483154296875 121.59814453125 378.40606689453125 132.88206481933594 377.31787109375 C 145.13063049316406 373.8163757324219 150.7772979736328 367.9793395996094 153.18719482421875 360.0826416015625 C 123.88230895996094 353.6464538574219 114.0742416381836 365.42510986328125 110.0359115600586 355.1836853027344 C 100.90874481201172 357.55450439453125 100.40156555175781 363.3444519042969 95.39625549316406 365.2611083984375 C 101.36048889160156 375.1900634765625 98.44966888427734 366.69671630859375 99.09417724609375 380.83990478515625" stroke-width="0.0" fill="rgb(44, 42, 40)" opacity="0.9575806" stroke="rgb(0, 0, 0)" stroke-opacity="1.0" stroke-linecap="round" stroke-linejoin="round"/>
    <path d="M 356.9873046875 243.16326904296875 C 356.0666809082031 250.57669067382812 356.786865234375 253.00697326660156 362.12823486328125 254.30255126953125 C 391.4283752441406 251.82635498046875 421.3631896972656 261.9372253417969 424.8504943847656 251.7809600830078 C 402.9216003417969 249.5595245361328 379.4312438964844 244.38246154785156 356.9873046875 243.16326904296875" stroke-width="0.0" fill="rgb(159, 157, 154)" opacity="1.012896" stroke="rgb(0, 0, 0)" stroke-opacity="1.0" stroke-linecap="round" stroke-linejoin="round"/>
    <path d="M 411.1122741699219 273.84747314453125 C 411.6429138183594 276.47821044921875 414.843994140625 284.2105407714844 415.7774353027344 284.7525939941406 C 431.5450134277344 290.150146484375 450.0668640136719 283.577880859375 470.4654235839844 285.1324157714844 C 467.63275146484375 268.67791748046875 478.8307189941406 268.33001708984375 476.03564453125 260.0989685058594 C 465.5674743652344 255.50656127929688 447.70172119140625 254.0018768310547 434.46832275390625 253.63677978515625 C 422.60455322265625 258.049560546875 412.5335388183594 261.40240478515625 411.1122741699219 273.84747314453125" stroke-width="0.0" fill="rgb(69, 57, 61)" opacity="0.8726613" stroke="rgb(0, 0, 0)" stroke-opacity="1.0" stroke-linecap="round" stroke-linejoin="round"/>
    <path d="M 314.9478454589844 423.4067077636719 C 334.86456298828125 433.1265563964844 371.8072204589844 431.8747253417969 414.1172790527344 431.0537109375 C 404.154541015625 426.4945983886719 388.7483215332031 422.4879150390625 378.47064208984375 419.35205078125 C 357.3620300292969 421.64483642578125 318.3794860839844 416.66314697265625 314.9478454589844 423.4067077636719" stroke-width="0.0" fill="rgb(138, 125, 101)" opacity="0.9069991" stroke="rgb(0, 0, 0)" stroke-opacity="1.0" stroke-linecap="round" stroke-linejoin="round"/>
    <path d="M 353.3431396484375 289.7632751464844 C 347.86944580078125 308.25616455078125 351.9584045410156 333.6315612792969 357.7361145019531 348.7348937988281 C 393.16290283203125 348.70684814453125 417.3139953613281 362.5424499511719 454.9327697753906 362.05120849609375 C 460.43731689453125 358.5970764160156 463.0837707519531 351.2779541015625 466.98236083984375 347.8243103027344 C 469.796875 337.25146484375 470.6835021972656 326.25830078125 472.86187744140625 318.38397216796875 C 443.5457458496094 306.8726806640625 413.5023193359375 303.58380126953125 394.5911865234375 290.8571472167969 C 369.6837158203125 294.03277587890625 378.0478210449219 297.9970703125 353.3431396484375 289.7632751464844" stroke-width="0.0" fill="rgb(72, 59, 58)" opacity="0.9391046" stroke="rgb(0, 0, 0)" stroke-opacity="1.0" stroke-linecap="round" stroke-linejoin="round"/>
    <path d="M 518.6911010742188 306.6112976074219 C 505.2967529296875 315.1894836425781 501.2669982910156 323.5545959472656 498.7492980957031 331.36212158203125 C 491.2330322265625 330.8045654296875 483.122314453125 326.6539001464844 473.8425598144531 324.2218322753906 C 467.3827209472656 340.1412048339844 468.81500244140625 360.33892822265625 462.4274597167969 380.9774475097656 C 465.3232116699219 385.793212890625 460.8282470703125 387.6990051269531 469.9388122558594 392.1625671386719 C 484.54400634765625 391.6168518066406 495.2467346191406 399.0976867675781 516.8277587890625 392.2897644042969 C 519.1049194335938 365.179931640625 520.7313842773438 336.4521484375 518.6911010742188 306.6112976074219" stroke-width="0.0" fill="rgb(163, 146, 112)" opacity="0.6262541" stroke="rgb(0, 0, 0)" stroke-opacity="1.0" stroke-linecap="round" stroke-linejoin="round"/>
    <path d="M 185.1339874267578 250.5821533203125 C 197.36436462402344 253.6801300048828 196.70123291015625 272.7731018066406 203.7703399658203 292.16888427734375 C 194.89617919921875 309.0965576171875 198.69056701660156 328.97198486328125 192.50933837890625 350.485595703125 C 190.92880249023438 354.85003662109375 204.01136779785156 355.8869323730469 206.61807250976562 354.2597961425781 C 212.84169006347656 338.55535888671875 218.3898468017578 324.38360595703125 217.10116577148438 297.07965087890625 C 213.1475067138672 280.802978515625 211.11880493164062 263.99713134765625 207.94845581054688 252.8331756591797 C 202.63223266601562 249.25267028808594 193.42312622070312 249.51785278320312 185.1339874267578 250.5821533203125" stroke-width="0.0" fill="rgb(31, 30, 35)" opacity="1.1045123" stroke="rgb(0, 0, 0)" stroke-opacity="1.0" stroke-linecap="round" stroke-linejoin="round"/>
    <path d="M 515.9887084960938 268.32135009765625 C 508.1998596191406 276.6247253417969 510.3374328613281 283.7923583984375 502.66754150390625 285.6561584472656 C 494.8502502441406 288.2113342285156 485.3985900878906 288.8115234375 480.00091552734375 295.2614440917969 C 476.6361389160156 301.5768737792969 474.5040588378906 317.13201904296875 474.7180480957031 322.9036865234375 C 481.600830078125 326.27752685546875 489.3731689453125 329.45697021484375 496.5002136230469 331.59527587890625 C 503.3317565917969 322.36163330078125 504.94891357421875 314.284912109375 516.9982299804688 307.75323486328125 C 520.2650756835938 295.174072265625 519.7052612304688 283.23870849609375 515.9887084960938 268.32135009765625" stroke-width="0.0" fill="rgb(50, 40, 40)" opacity="1.0151708" stroke="rgb(0, 0, 0)" stroke-opacity="1.0" stroke-linecap="round" stroke-linejoin="round"/>
    <path d="M 430.7586975097656 287.1357116699219 C 432.321533203125 293.7344970703125 443.86883544921875 293.95025634765625 439.0511474609375 308.6402282714844 C 447.2850646972656 312.1484069824219 460.4950866699219 314.959228515625 473.3155212402344 317.9804382324219 C 474.5017395019531 311.7845458984375 478.2855224609375 300.7539978027344 478.4999694824219 292.1499938964844 C 465.16888427734375 285.3792419433594 449.4171142578125 284.65576171875 430.7586975097656 287.1357116699219" stroke-width="0.0" fill="rgb(43, 91, 89)" opacity="0.9596068" stroke="rgb(0, 0, 0)" stroke-opacity="1.0" stroke-linecap="round" stroke-linejoin="round"/>
    <path d="M 46.336151123046875 249.72181701660156 C 29.816852569580078 251.75912475585938 13.830552101135254 250.80160522460938 -2.1486635208129883 252.3771209716797 C 0.021736430004239082 259.0 -0.8792663216590881 266.0 -6.3477020263671875 274.60064697265625 C 18.8341121673584 272.5721435546875 35.31086730957031 276.77130126953125 44.26725769042969 271.375732421875 C 48.31541061401367 270.8971252441406 44.900299072265625 260.1241760253906 46.336151123046875 249.72181701660156" stroke-width="0.0" fill="rgb(123, 140, 147)" opacity="0.990134" stroke="rgb(0, 0, 0)" stroke-opacity="1.0" stroke-linecap="round" stroke-linejoin="round"/>
    <path d="M 336.2726745605469 225.9652557373047 C 338.48883056640625 225.35301208496094 332.9195556640625 234.7361297607422 329.53900146484375 236.3656768798828 C 326.908203125 254.1329803466797 331.7978515625 268.62677001953125 333.2056884765625 284.5332946777344 C 340.04888916015625 285.28814697265625 345.12664794921875 275.32818603515625 348.9612731933594 268.0353698730469 C 343.7518005371094 247.6857452392578 350.66259765625 234.28717041015625 336.2726745605469 225.9652557373047" stroke-width="0.0" fill="rgb(120, 53, 61)" opacity="1.0141877" stroke="rgb(0, 0, 0)" stroke-opacity="1.0" stroke-linecap="round" stroke-linejoin="round"/>
    <path d="M 495.495849609375 243.4183807373047 C 487.5946044921875 266.82025146484375 476.16021728515625 257.4342346191406 468.93548583984375 274.8018798828125 C 469.8748474121094 277.9860534667969 476.18499755859375 284.7608337402344 484.0357971191406 289.777099609375 C 488.8463134765625 288.164794921875 499.62725830078125 287.5019836425781 503.8726501464844 283.8580017089844 C 496.8858947753906 266.024169921875 495.72918701171875 269.0629577636719 495.495849609375 243.4183807373047" stroke-width="0.0" fill="rgb(116, 116, 125)" opacity="1.0441291" stroke="rgb(0, 0, 0)" stroke-opacity="1.0" stroke-linecap="round" stroke-linejoin="round"/>
    <path d="M 46.14933776855469 221.50254821777344 C 35.17799758911133 219.28607177734375 21.186979293823242 222.82861328125 10.28701400756836 220.90704345703125 C 2.7428505420684814 223.2280731201172 1.874521255493164 227.29249572753906 3.0065534114837646 235.17129516601562 C 13.012063980102539 242.81964111328125 25.999887466430664 235.13479614257812 46.65070724487305 237.37789916992188 C 46.39605712890625 235.15921020507812 49.271644592285156 227.84066772460938 46.14933776855469 221.50254821777344" stroke-width="0.0" fill="rgb(109, 164, 178)" opacity="0.99762964" stroke="rgb(0, 0, 0)" stroke-opacity="1.0" stroke-linecap="round" stroke-linejoin="round"/>
    <path d="M 170.57391357421875 190.8062286376953 C 164.16981506347656 200.16439819335938 159.30226135253906 212.75091552734375 154.32830810546875 223.5891876220703 C 155.00572204589844 236.7660675048828 155.61300659179688 252.87562561035156 164.46356201171875 252.5134735107422 C 170.84417724609375 236.77613830566406 174.2174835205078 217.3937530517578 170.57391357421875 190.8062286376953" stroke-width="0.0" fill="rgb(88, 53, 67)" opacity="0.9772393" stroke="rgb(0, 0, 0)" stroke-opacity="1.0" stroke-linecap="round" stroke-linejoin="round"/>
    <path d="M 49.85677719116211 238.79295349121094 C 41.13059616088867 236.98995971679688 28.442283630371094 237.858154296875 17.427959442138672 239.11410522460938 C 10.769906044006348 242.85147094726562 2.6183433532714844 246.1198272705078 -7.512705326080322 252.48487854003906 C 14.74980640411377 250.51138305664062 30.382993698120117 252.05189514160156 46.07023239135742 249.2492218017578 C 46.52021408081055 251.50624084472656 47.105350494384766 245.21128845214844 49.85677719116211 238.79295349121094" stroke-width="0.0" fill="rgb(187, 191, 192)" opacity="1.0040833" stroke="rgb(0, 0, 0)" stroke-opacity="1.0" stroke-linecap="round" stroke-linejoin="round"/>
    <path d="M 394.70751953125 289.7022705078125 C 404.36328125 300.7265625 420.65478515625 301.9072570800781 443.12603759765625 307.13861083984375 C 440.57025146484375 299.4785461425781 435.27874755859375 292.0564880371094 433.0998840332031 291.2100524902344 C 412.5643005371094 286.9866638183594 404.9039611816406 280.42205810546875 394.70751953125 289.7022705078125" stroke-width="0.0" fill="rgb(37, 25, 31)" opacity="0.9773235" stroke="rgb(0, 0, 0)" stroke-opacity="1.0" stroke-linecap="round" stroke-linejoin="round"/>
    <path d="M 108.08927917480469 209.99803161621094 C 99.80152893066406 202.03790283203125 89.78271484375 202.19741821289062 71.79454040527344 200.62673950195312 C 55.098106384277344 209.15133666992188 34.74711990356445 200.74276733398438 24.98850440979004 208.64918518066406 C 48.16990280151367 211.01168823242188 76.27446746826172 209.7705841064453 108.08927917480469 209.99803161621094" stroke-width="0.0" fill="rgb(136, 175, 210)" opacity="0.9717494" stroke="rgb(0, 0, 0)" stroke-opacity="1.0" stroke-linecap="round" stroke-linejoin="round"/>
    <path d="M 188.77023315429688 203.00865173339844 C 174.73092651367188 199.5095672607422 168.14215087890625 206.70916748046875 171.3917999267578 210.68356323242188 C 173.9004364013672 248.5884552001953 153.2867889404297 263.6025695800781 157.17201232910156 293.981689453125 C 167.33062744140625 299.816162109375 169.32269287109375 295.791259765625 175.89488220214844 288.1507568359375 C 174.0550079345703 244.7797393798828 179.40208435058594 229.19906616210938 188.77023315429688 203.00865173339844" stroke-width="0.0" fill="rgb(69, 58, 48)" opacity="0.94780725" stroke="rgb(0, 0, 0)" stroke-opacity="1.0" stroke-linecap="round" stroke-linejoin="round"/>
    <path d="M 294.927490234375 441.102294921875 C 345.3500061035156 444.2300720214844 385.03302001953125 445.3645324707031 447.6761169433594 446.02740478515625 C 446.5238342285156 441.6448974609375 446.9446716308594 433.8588562011719 444.89764404296875 429.03399658203125 C 424.490234375 435.5108337402344 407.80963134765625 422.22186279296875 396.7995300292969 431.7752380371094 C 370.3831787109375 430.8637390136719 351.14202880859375 429.1824035644531 334.8878479003906 429.1632080078125 C 318.6004943847656 423.42913818359375 315.08636474609375 426.87017822265625 303.66986083984375 424.23876953125 C 300.77685546875 434.1396789550781 295.06207275390625 436.32281494140625 294.927490234375 441.102294921875" stroke-width="0.0" fill="rgb(36, 41, 42)" opacity="0.7641313" stroke="rgb(0, 0, 0)" stroke-opacity="1.0" stroke-linecap="round" stroke-linejoin="round"/>
    <path d="M 191.4165496826172 172.18443298339844 C 175.29685974121094 178.30470275878906 195.6983184814453 175.11317443847656 195.60899353027344 192.19064331054688 C 190.1085205078125 208.78269958496094 178.79644775390625 224.57925415039062 176.2173309326172 247.66473388671875 C 181.1903533935547 249.7274932861328 195.62318420410156 247.9315643310547 207.1459197998047 251.7236785888672 C 214.78912353515625 211.39678955078125 195.3131561279297 217.17323303222656 211.570556640625 202.37655639648438 C 213.99261474609375 173.09683227539062 199.27227783203125 185.57351684570312 191.4165496826172 172.18443298339844" stroke-width="0.0" fill="rgb(94, 48, 21)" opacity="0.9378491" stroke="rgb(0, 0, 0)" stroke-opacity="1.0" stroke-linecap="round" stroke-linejoin="round"/>
    <path d="M 458.36962890625 133.62985229492188 C 439.544189453125 136.95504760742188 420.27471923828125 137.98727416992188 404.0165100097656 141.01727294921875 C 401.80950927734375 145.30697631835938 398.86273193359375 149.948974609375 397.7650146484375 155.30841064453125 C 414.8134460449219 156.81813049316406 426.4372863769531 157.65283203125 453.7403564453125 153.21653747558594 C 456.00592041015625 151.74871826171875 457.40191650390625 143.17967224121094 458.36962890625 133.62985229492188" stroke-width="0.0" fill="rgb(115, 86, 47)" opacity="0.97404647" stroke="rgb(0, 0, 0)" stroke-opacity="1.0" stroke-linecap="round" stroke-linejoin="round"/>
    <path d="M 469.4493103027344 172.01783752441406 C 468.6311340332031 166.73382568359375 466.41583251953125 162.6405792236328 466.439453125 159.91799926757812 C 460.3089294433594 159.7622833251953 448.6524658203125 154.3402557373047 438.5757751464844 154.9287872314453 C 419.0083923339844 159.08424377441406 402.87030029296875 151.7091827392578 404.1641845703125 164.08876037597656 C 419.0753479003906 167.29429626464844 444.6613464355469 168.68264770507812 469.4493103027344 172.01783752441406" stroke-width="0.0" fill="rgb(113, 59, 22)" opacity="0.93522966" stroke="rgb(0, 0, 0)" stroke-opacity="1.0" stroke-linecap="round" stroke-linejoin="round"/>
    <path d="M 399.4014587402344 288.4847412109375 C 404.6155700683594 302.70379638671875 393.47283935546875 312.60693359375 398.385986328125 326.2019348144531 C 408.743896484375 334.23834228515625 412.0688171386719 342.06353759765625 428.9347229003906 344.6361389160156 C 444.0943603515625 346.44329833984375 453.3533630371094 353.2498779296875 468.0519104003906 346.3058166503906 C 469.33856201171875 325.965576171875 476.36248779296875 311.4404602050781 477.8536071777344 291.4454040527344 C 465.4666748046875 285.864990234375 440.1923522949219 283.940673828125 421.8246765136719 282.08489990234375 C 421.2856750488281 286.2605895996094 406.9651794433594 288.0622863769531 399.4014587402344 288.4847412109375" stroke-width="0.0" fill="rgb(34, 59, 62)" opacity="0.7432594" stroke="rgb(0, 0, 0)" stroke-opacity="1.0" stroke-linecap="round" stroke-linejoin="round"/>
    <path d="M 474.37384033203125 325.9438171386719 C 470.95379638671875 344.5065002441406 471.3008117675781 369.4986572265625 463.9095153808594 379.2067565917969 C 462.5018005371094 387.9399108886719 468.1531982421875 390.09375 469.2425537109375 396.2642822265625 C 474.50323486328125 397.2747802734375 485.4988098144531 398.7663269042969 491.62890625 395.1856689453125 C 490.4335632324219 374.2286682128906 508.6170654296875 373.4085388183594 507.8392639160156 355.9765625 C 511.715087890625 344.2951354980469 503.3010559082031 333.5596618652344 498.8460998535156 331.630615234375 C 487.36572265625 330.5669250488281 482.3254699707031 325.6219177246094 474.37384033203125 325.9438171386719" stroke-width="0.0" fill="rgb(42, 34, 38)" opacity="0.94980097" stroke="rgb(0, 0, 0)" stroke-opacity="1.0" stroke-linecap="round" stroke-linejoin="round"/>
    <path d="M 182.99624633789062 200.79730224609375 C 177.20664978027344 204.87062072753906 171.78204345703125 198.90760803222656 170.3595428466797 209.10043334960938 C 165.21023559570312 229.16307067871094 168.7777099609375 248.2689666748047 157.11746215820312 279.2885437011719 C 162.32302856445312 284.7517395019531 161.4191436767578 274.7508239746094 159.90672302246094 276.5224304199219 C 165.83758544921875 272.4129333496094 164.23817443847656 272.4267578125 170.04486083984375 277.03582763671875 C 170.92312622070312 246.4477081298828 178.9720458984375 230.63665771484375 187.1067352294922 212.3330841064453 C 187.21978759765625 204.8760223388672 187.96250915527344 202.37188720703125 182.99624633789062 200.79730224609375" stroke-width="0.0" fill="rgb(28, 24, 25)" opacity="0.9940637" stroke="rgb(0, 0, 0)" stroke-opacity="1.0" stroke-linecap="round" stroke-linejoin="round"/>
    <path d="M 510.59527587890625 274.78961181640625 C 507.57537841796875 287.3074645996094 492.2930908203125 291.8958740234375 478.85595703125 298.6239929199219 C 476.2487487792969 303.8362731933594 479.7554016113281 316.59796142578125 476.4363708496094 323.05242919921875 C 480.2008361816406 328.2027282714844 487.34356689453125 326.6937561035156 487.2481994628906 329.2908020019531 C 495.0283508300781 327.9136962890625 494.74853515625 324.8547668457031 492.79193115234375 315.048095703125 C 501.42169189453125 312.4009094238281 506.5373229980469 304.961181640625 513.0703125 296.1479187011719 C 517.3253784179688 289.711669921875 517.9412231445312 282.4549560546875 510.59527587890625 274.78961181640625" stroke-width="0.0" fill="rgb(46, 31, 35)" opacity="0.99891573" stroke="rgb(0, 0, 0)" stroke-opacity="1.0" stroke-linecap="round" stroke-linejoin="round"/>
    <path d="M 338.2789306640625 422.9380798339844 C 343.31494140625 426.74981689453125 354.8016662597656 428.2709045410156 357.0060119628906 430.1100158691406 C 376.12066650390625 431.24847412109375 395.8788146972656 434.30609130859375 403.4437561035156 431.35595703125 C 402.171142578125 423.1075134277344 394.35833740234375 429.1392517089844 387.87615966796875 419.92236328125 C 365.5306396484375 420.6524658203125 344.332275390625 417.5366516113281 338.2789306640625 422.9380798339844" stroke-width="0.0" fill="rgb(183, 164, 128)" opacity="0.92659897" stroke="rgb(0, 0, 0)" stroke-opacity="1.0" stroke-linecap="round" stroke-linejoin="round"/>
    <path d="M 499.504638671875 252.71998596191406 C 495.8388671875 244.24456787109375 490.4034118652344 244.19810485839844 487.9376220703125 248.8569793701172 C 491.3083190917969 255.84864807128906 481.8914794921875 273.9020690917969 483.9137878417969 292.3627624511719 C 493.28314208984375 289.6996154785156 491.5456237792969 284.3857116699219 496.0234375 278.19415283203125 C 503.1046447753906 287.3462219238281 489.3923645019531 299.35369873046875 503.6091613769531 279.8000793457031 C 494.30621337890625 268.9545593261719 496.567138671875 256.2086486816406 499.504638671875 252.71998596191406" stroke-width="0.0" fill="rgb(81, 73, 75)" opacity="1.0042076" stroke="rgb(0, 0, 0)" stroke-opacity="1.0" stroke-linecap="round" stroke-linejoin="round"/>
    <path d="M 396.90875244140625 314.921875 C 395.91259765625 318.91668701171875 398.4618835449219 321.8676452636719 397.8519592285156 327.32366943359375 C 405.279052734375 330.44482421875 408.94183349609375 337.4656677246094 419.1123352050781 342.0379333496094 C 427.46209716796875 344.7615966796875 442.3179016113281 347.5533752441406 454.68927001953125 349.59619140625 C 463.3861083984375 348.8907470703125 465.89825439453125 346.3065185546875 468.23187255859375 342.0527648925781 C 468.7647399902344 333.8004150390625 473.71160888671875 318.6273498535156 468.5519104003906 315.5278015136719 C 443.2726135253906 312.5633239746094 431.3701477050781 302.31866455078125 409.5284729003906 300.6148986816406 C 406.6662902832031 300.8363952636719 402.2511291503906 309.3561096191406 396.90875244140625 314.921875" stroke-width="0.0" fill="rgb(38, 64, 96)" opacity="0.9983716" stroke="rgb(0, 0, 0)" stroke-opacity="1.0" stroke-linecap="round" stroke-linejoin="round"/>
  </g>
</svg>
