<?xml version="1.0" ?>
<svg xmlns="http://www.w3.org/2000/svg" version="1.1" width="512" height="512">
  <defs/>
  <g>
    <path d="M -2.4421017169952393 -0.9990848898887634 C -2.4632928371429443 170.3333282470703 -2.6614267826080322 340.6666564941406 -3.203174352645874 517.9163818359375 C 170.19400024414062 517.9640502929688 340.9520263671875 518.0154418945312 517.8643798828125 517.8705444335938 C 518.416259765625 339.1487731933594 519.4783935546875 168.60955810546875 519.2073364257812 -2.814729690551758 C 340.6666564941406 -0.34274500608444214 170.3333282470703 -0.03148747980594635 -2.4421017169952393 -0.9990848898887634" stroke-width="0.0" fill="rgb(88, 84, 82)" opacity="1.0407528" stroke="rgb(0, 0, 0)" stroke-opacity="1.0" stroke-linecap="round" stroke-linejoin="round"/>
    <path d="M 193.75148010253906 -6.868019104003906 C 187.20802307128906 69.22635650634766 191.08502197265625 137.09141540527344 191.65155029296875 218.2496337890625 C 200.0977783203125 235.65782165527344 197.8478240966797 273.0457458496094 199.5393524169922 306.8992919921875 C 220.9581756591797 299.4085388183594 240.81826782226562 293.24432373046875 252.87806701660156 279.267333984375 C 261.9139709472656 263.8136901855469 252.03530883789062 244.38616943359375 263.3140563964844 233.50453186035156 C 274.980224609375 221.1637725830078 300.412353515625 221.86521911621094 319.3934631347656 209.42918395996094 C 340.62109375 210.0325927734375 342.583740234375 230.7927703857422 363.89642333984375 232.0305633544922 C 362.5823974609375 246.3262939453125 368.19757080078125 252.21205139160156 371.7078857421875 260.1711730957031 C 371.8423767089844 267.9010314941406 379.139404296875 263.5657043457031 389.7940368652344 263.7012939453125 C 383.2490234375 266.384765625 384.9745788574219 271.764404296875 383.52166748046875 278.27777099609375 C 387.31817626953125 283.2419738769531 386.62969970703125 290.2969665527344 394.5179138183594 292.247314453125 C 394.79571533203125 269.98876953125 400.3348083496094 245.6107635498047 404.0148620605469 213.65611267089844 C 404.5306701660156 145.1781463623047 406.7842712402344 74.71915435791016 406.5127258300781 -6.008385181427002 C 337.1925048828125 -6.394449234008789 264.5722961425781 -6.261403560638428 193.75148010253906 -6.868019104003906" stroke-width="0.0" fill="rgb(81, 76, 74)" opacity="0.8315497" stroke="rgb(0, 0, 0)" stroke-opacity="1.0" stroke-linecap="round" stroke-linejoin="round"/>
    <path d="M 109.16078186035156 261.97503662109375 C 99.12632751464844 268.21417236328125 93.70540618896484 281.93048095703125 86.42400360107422 292.70941162109375 C 84.09381866455078 300.1282958984375 83.42334747314453 313.8640441894531 82.37661743164062 320.0871276855469 C 76.63752746582031 331.63592529296875 60.8931770324707 329.0249938964844 53.73664093017578 335.889404296875 C 47.109867095947266 341.7830810546875 42.68973159790039 348.82147216796875 37.9560546875 357.56756591796875 C 29.3753662109375 386.07086181640625 25.302871704101562 421.0071105957031 10.43803882598877 443.1281433105469 C 13.573319435119629 464.4638671875 10.636887550354004 479.3587341308594 12.042189598083496 491.3597412109375 C 20.056716918945312 497.7083740234375 33.84724426269531 499.3406066894531 37.84907531738281 519.9193115234375 C 107.55714416503906 520.3363037109375 189.63760375976562 519.7911987304688 268.5793762207031 519.6016235351562 C 271.16986083984375 490.4371032714844 268.0838317871094 474.0077819824219 263.5032043457031 458.1201477050781 C 250.50997924804688 422.52496337890625 239.94314575195312 386.1110534667969 221.95712280273438 355.86834716796875 C 210.04953002929688 342.4962463378906 189.44932556152344 339.00982666015625 176.60340881347656 329.5047912597656 C 168.60386657714844 320.18011474609375 171.4037322998047 304.33135986328125 167.6788330078125 291.1070251464844 C 162.66317749023438 281.8870849609375 159.11326599121094 271.4278564453125 152.1519775390625 265.42584228515625 C 145.58909606933594 259.9934997558594 139.24237060546875 257.2556457519531 130.1225128173828 256.16131591796875 C 120.8127670288086 255.71295166015625 113.89075469970703 258.6825866699219 109.16078186035156 261.97503662109375" stroke-width="0.0" fill="rgb(34, 32, 30)" opacity="0.98678" stroke="rgb(0, 0, 0)" stroke-opacity="1.0" stroke-linecap="round" stroke-linejoin="round"/>
    <path d="M 488.98016357421875 -6.847125053405762 C 458.71466064453125 -7.166003227233887 433.0206604003906 -7.044760227203369 410.48785400390625 -1.773295283317566 C 407.35504150390625 23.232967376708984 414.15289306640625 42.51555633544922 413.1419372558594 55.780311584472656 C 409.1042175292969 153.1622772216797 407.8422546386719 249.3937530517578 401.4830627441406 330.0816955566406 C 392.7826232910156 366.38433837890625 401.0581970214844 419.85693359375 398.60321044921875 472.6727600097656 C 406.91741943359375 472.22845458984375 423.3305969238281 472.5736999511719 431.5160827636719 488.8770446777344 C 439.43267822265625 482.0078430175781 446.88824462890625 480.9966125488281 461.2386169433594 480.9259033203125 C 473.1652526855469 473.32659912109375 473.2793884277344 459.1371154785156 478.731201171875 444.21466064453125 C 483.7998046875 301.0239562988281 486.3775939941406 152.07411193847656 488.98016357421875 -6.847125053405762" stroke-width="0.0" fill="rgb(71, 67, 65)" opacity="0.9996909" stroke="rgb(0, 0, 0)" stroke-opacity="1.0" stroke-linecap="round" stroke-linejoin="round"/>
    <path d="M 160.87330627441406 -0.7746240496635437 C 127.93551635742188 -4.983153820037842 100.9891128540039 -6.204135417938232 75.08679962158203 -5.412957191467285 C 76.30622863769531 102.13062286376953 79.1329574584961 201.8081817626953 76.7479248046875 307.9493408203125 C 86.68167877197266 285.4960632324219 95.23374938964844 269.9465637207031 110.2796401977539 259.15740966796875 C 117.62060546875 256.0738830566406 123.1508560180664 253.9408416748047 135.0044403076172 255.1387939453125 C 140.7877655029297 256.5400085449219 145.53565979003906 260.86376953125 159.00149536132812 263.17437744140625 C 158.29644775390625 178.6161346435547 157.984130859375 90.59183502197266 160.87330627441406 -0.7746240496635437" stroke-width="0.0" fill="rgb(140, 134, 133)" opacity="0.8266706" stroke="rgb(0, 0, 0)" stroke-opacity="1.0" stroke-linecap="round" stroke-linejoin="round"/>
    <path d="M 230.11439514160156 356.94879150390625 C 243.27395629882812 392.6883544921875 254.4090118408203 430.4444580078125 267.375244140625 465.8490295410156 C 270.6843566894531 481.4858093261719 270.7564697265625 496.43670654296875 273.8140563964844 518.6862182617188 C 312.77154541015625 518.4762573242188 348.0701599121094 518.2916259765625 390.255126953125 518.4264526367188 C 392.8608703613281 488.90020751953125 392.40386962890625 458.6535339355469 391.9370422363281 429.9892272949219 C 372.5868835449219 425.4447937011719 348.845458984375 420.43023681640625 332.7806396484375 415.2078857421875 C 326.5791320800781 393.4623718261719 329.81732177734375 369.3885498046875 320.5526428222656 353.8026428222656 C 299.961669921875 347.8824768066406 286.3641662597656 335.9291687011719 276.7901306152344 334.08038330078125 C 244.85842895507812 333.0680847167969 247.2410430908203 349.2507629394531 230.11439514160156 356.94879150390625" stroke-width="0.0" fill="rgb(50, 47, 46)" opacity="1.0122174" stroke="rgb(0, 0, 0)" stroke-opacity="1.0" stroke-linecap="round" stroke-linejoin="round"/>
    <path d="M 393.6646423339844 315.11163330078125 C 373.3914489746094 288.7557373046875 358.5330810546875 259.14508056640625 345.9476318359375 229.28160095214844 C 336.153076171875 223.8855743408203 337.6634826660156 212.66993713378906 320.10467529296875 213.67921447753906 C 302.5081481933594 224.0360870361328 277.7834777832031 226.55584716796875 265.970458984375 234.1768798828125 C 254.41073608398438 247.04129028320312 261.1086730957031 264.4642028808594 260.4468994140625 272.5646057128906 C 248.5447235107422 291.2555847167969 239.76126098632812 298.77886962890625 217.59823608398438 301.82208251953125 C 209.37254333496094 313.4417419433594 206.5275115966797 322.0409851074219 208.32162475585938 334.59326171875 C 210.53871154785156 342.49066162109375 215.69740295410156 350.59130859375 226.12612915039062 353.55712890625 C 241.50958251953125 352.6399230957031 242.5297088623047 336.04290771484375 247.1074676513672 331.33245849609375 C 265.9073486328125 332.2752380371094 276.497802734375 334.28021240234375 284.71356201171875 333.1785888671875 C 298.04473876953125 343.8340148925781 314.6251220703125 352.69329833984375 339.5897521972656 357.08123779296875 C 356.9237365722656 347.021240234375 368.06475830078125 331.70782470703125 388.61993408203125 325.33770751953125 C 391.3945617675781 322.7923583984375 393.4006652832031 319.6735534667969 393.6646423339844 315.11163330078125" stroke-width="0.0" fill="rgb(27, 27, 26)" opacity="1.0753355" stroke="rgb(0, 0, 0)" stroke-opacity="1.0" stroke-linecap="round" stroke-linejoin="round"/>
    <path d="M 488.35638427734375 -3.7948787212371826 C 485.5978088378906 149.44935607910156 484.00408935546875 302.12298583984375 479.5585021972656 449.7940673828125 C 479.34844970703125 468.12408447265625 477.6440734863281 478.3805847167969 469.7580871582031 483.8524475097656 C 496.65411376953125 480.8052062988281 511.07476806640625 487.19775390625 519.0392456054688 494.4818115234375 C 519.9315185546875 342.1135559082031 518.72216796875 171.07113647460938 518.0906982421875 -1.521361231803894 C 503.32647705078125 -0.3093010485172272 495.6086730957031 -1.6684514284133911 488.35638427734375 -3.7948787212371826" stroke-width="0.0" fill="rgb(81, 78, 75)" opacity="1.0237018" stroke="rgb(0, 0, 0)" stroke-opacity="1.0" stroke-linecap="round" stroke-linejoin="round"/>
    <path d="M 78.03475189208984 -7.387582778930664 C 63.182159423828125 -6.1878790855407715 53.270809173583984 -6.646657943725586 47.35265350341797 -8.307703971862793 C 48.2135124206543 111.26847839355469 47.64024353027344 224.87493896484375 49.45378112792969 335.67755126953125 C 57.80390167236328 328.33673095703125 68.08377075195312 328.83544921875 77.00019836425781 322.0962829589844 C 77.71866607666016 219.86524963378906 75.69992065429688 111.79344940185547 78.03475189208984 -7.387582778930664" stroke-width="0.0" fill="rgb(125, 121, 119)" opacity="0.94845015" stroke="rgb(0, 0, 0)" stroke-opacity="1.0" stroke-linecap="round" stroke-linejoin="round"/>
    <path d="M 158.50572204589844 -6.933888912200928 C 160.18621826171875 87.01023864746094 156.6623077392578 168.19839477539062 159.24118041992188 263.9320983886719 C 155.92652893066406 268.455810546875 166.56048583984375 271.8251037597656 168.80772399902344 279.9368591308594 C 174.19363403320312 296.3057861328125 170.50682067871094 321.61859130859375 181.55755615234375 320.7554931640625 C 186.18170166015625 217.36203002929688 188.82186889648438 108.75343322753906 188.53131103515625 -8.05264949798584 C 180.2732696533203 -6.276308059692383 168.48483276367188 -5.985072135925293 158.50572204589844 -6.933888912200928" stroke-width="0.0" fill="rgb(113, 107, 105)" opacity="0.96522146" stroke="rgb(0, 0, 0)" stroke-opacity="1.0" stroke-linecap="round" stroke-linejoin="round"/>
    <path d="M 395.31842041015625 326.1112976074219 C 367.38958740234375 330.6047058105469 354.8597717285156 347.31280517578125 334.50408935546875 359.6416015625 C 333.17388916015625 370.54278564453125 327.9209289550781 376.8218994140625 329.9728698730469 388.7449951171875 C 331.0066223144531 399.9672546386719 330.4375305175781 408.02239990234375 336.1623229980469 413.8456115722656 C 351.5909729003906 419.5943298339844 369.1892395019531 425.066162109375 392.8078308105469 427.5752868652344 C 393.15692138671875 394.2073059082031 396.7238464355469 361.0934753417969 395.31842041015625 326.1112976074219" stroke-width="0.0" fill="rgb(45, 43, 42)" opacity="1.0125587" stroke="rgb(0, 0, 0)" stroke-opacity="1.0" stroke-linecap="round" stroke-linejoin="round"/>
    <path d="M -5.015322208404541 341.35528564453125 C -6.315061092376709 397.7658996582031 -6.66654634475708 453.39410400390625 -6.9868927001953125 518.8579711914062 C 10.783233642578125 519.233154296875 24.527355194091797 520.1320190429688 37.439239501953125 516.3043823242188 C 27.727462768554688 499.1924133300781 12.686365127563477 494.9293518066406 9.560006141662598 475.58331298828125 C 14.274543762207031 439.0867004394531 26.11699676513672 403.5575256347656 33.51774978637695 364.9700927734375 C 26.635311126708984 353.7520446777344 13.190879821777344 347.92706298828125 -5.015322208404541 341.35528564453125" stroke-width="0.0" fill="rgb(22, 21, 20)" opacity="1.0167514" stroke="rgb(0, 0, 0)" stroke-opacity="1.0" stroke-linecap="round" stroke-linejoin="round"/>
    <path d="M 518.1660766601562 486.0256652832031 C 484.4761657714844 481.7774658203125 476.0589599609375 477.5679931640625 500.88037109375 481.3465576171875 C 484.06787109375 479.2705383300781 469.0263671875 479.8408508300781 464.347900390625 494.04962158203125 C 450.3404846191406 485.7137451171875 430.1025390625 487.1907653808594 421.7325134277344 477.6689147949219 C 412.5400085449219 476.4064636230469 409.215576171875 478.45416259765625 404.0074157714844 481.1215515136719 C 397.91583251953125 486.5499267578125 393.9621887207031 498.45343017578125 394.721923828125 520.23974609375 C 431.18902587890625 519.9005126953125 470.77874755859375 519.2361450195312 520.2730102539062 519.8615112304688 C 520.3757934570312 494.6872253417969 520.4529418945312 478.3477783203125 518.1660766601562 486.0256652832031" stroke-width="0.0" fill="rgb(50, 47, 45)" opacity="1.0236064" stroke="rgb(0, 0, 0)" stroke-opacity="1.0" stroke-linecap="round" stroke-linejoin="round"/>
    <path d="M 376.15350341796875 283.4432067871094 C 369.1432189941406 284.45556640625 373.0382080078125 291.6839599609375 373.5110778808594 299.1387023925781 C 379.11663818359375 302.2956237792969 385.2209777832031 306.73870849609375 391.9290466308594 312.536376953125 C 396.30035400390625 309.23992919921875 395.26214599609375 299.5643310546875 394.63934326171875 290.48193359375 C 389.0396728515625 288.5721435546875 381.38800048828125 283.4790344238281 376.15350341796875 283.4432067871094" stroke-width="0.0" fill="rgb(109, 108, 104)" opacity="0.9836339" stroke="rgb(0, 0, 0)" stroke-opacity="1.0" stroke-linecap="round" stroke-linejoin="round"/>
    <path d="M 13.685023307800293 307.88409423828125 C 12.512378692626953 317.5075988769531 12.761192321777344 329.67584228515625 11.042140007019043 340.00250244140625 C 12.749236106872559 345.0043029785156 17.819393157958984 346.34423828125 23.68573760986328 350.3683776855469 C 23.890687942504883 334.4470520019531 29.546031951904297 332.9476013183594 26.895883560180664 314.85333251953125 C 25.775619506835938 310.2952880859375 20.552642822265625 307.078369140625 13.685023307800293 307.88409423828125" stroke-width="0.0" fill="rgb(133, 127, 126)" opacity="0.99961805" stroke="rgb(0, 0, 0)" stroke-opacity="1.0" stroke-linecap="round" stroke-linejoin="round"/>
    <path d="M 332.00201416015625 -7.539690017700195 C 280.0970458984375 -7.963611602783203 232.26605224609375 -8.30124282836914 186.67156982421875 -7.149808883666992 C 193.45101928710938 7.003398418426514 196.46543884277344 15.187508583068848 193.48477172851562 28.40938377380371 C 197.51080322265625 59.18695831298828 194.08148193359375 80.56526947021484 188.88650512695312 96.20758056640625 C 203.09503173828125 162.4141387939453 195.6870880126953 237.39108276367188 202.98171997070312 303.57342529296875 C 224.43905639648438 298.5166015625 241.01312255859375 291.9284973144531 253.3653564453125 279.45123291015625 C 259.35601806640625 269.6414794921875 256.6535949707031 246.98056030273438 266.296630859375 230.22825622558594 C 283.2306823730469 221.59068298339844 308.2940368652344 214.86534118652344 331.05218505859375 206.98519897460938 C 331.40008544921875 137.47398376464844 332.1218566894531 68.75101470947266 332.00201416015625 -7.539690017700195" stroke-width="0.0" fill="rgb(136, 130, 127)" opacity="0.9681193" stroke="rgb(0, 0, 0)" stroke-opacity="1.0" stroke-linecap="round" stroke-linejoin="round"/>
    <path d="M 333.90875244140625 -6.982296943664551 C 332.06243896484375 68.86595916748047 329.9913635253906 138.05906677246094 331.7873840332031 209.70761108398438 C 339.4399719238281 214.39175415039062 345.7781066894531 224.6467742919922 353.80242919921875 227.45513916015625 C 369.2220764160156 229.37815856933594 384.5506286621094 232.94482421875 400.32977294921875 228.13327026367188 C 401.79949951171875 226.90625 400.33966064453125 217.72377014160156 404.15875244140625 208.2761688232422 C 402.5243225097656 135.5965118408203 407.2393798828125 68.19776916503906 410.04217529296875 -5.435619354248047 C 383.79266357421875 -6.179035663604736 359.5836486816406 -6.539144039154053 333.90875244140625 -6.982296943664551" stroke-width="0.0" fill="rgb(144, 139, 136)" opacity="0.9904009" stroke="rgb(0, 0, 0)" stroke-opacity="1.0" stroke-linecap="round" stroke-linejoin="round"/>
    <path d="M 245.56396484375 397.5749816894531 C 250.42868041992188 420.8471374511719 260.3361511230469 442.4771423339844 267.4319152832031 466.4654846191406 C 270.7757873535156 480.3582458496094 272.3156433105469 496.032958984375 272.6656799316406 519.2630004882812 C 312.667724609375 518.6869506835938 352.3320617675781 518.67333984375 393.1705017089844 518.984130859375 C 394.328369140625 484.3260803222656 392.7432861328125 456.8804626464844 391.8501892089844 430.7223205566406 C 342.9693908691406 417.5789794921875 289.81976318359375 411.6297302246094 245.56396484375 397.5749816894531" stroke-width="0.0" fill="rgb(19, 19, 18)" opacity="1.0199825" stroke="rgb(0, 0, 0)" stroke-opacity="1.0" stroke-linecap="round" stroke-linejoin="round"/>
    <path d="M 122.82113647460938 255.78187561035156 C 111.54859924316406 258.0559387207031 106.56175231933594 263.8428649902344 101.01578521728516 269.2082214355469 C 95.00277709960938 276.8093566894531 91.3076400756836 285.9781188964844 86.15809631347656 292.3555603027344 C 83.64382934570312 300.9245910644531 83.12600708007812 314.02874755859375 82.53741455078125 323.9011535644531 C 91.48583221435547 341.66888427734375 91.74656677246094 367.1964111328125 102.09368133544922 382.14215087890625 C 110.07181549072266 391.21575927734375 117.96311950683594 393.0843200683594 136.5216827392578 391.9215393066406 C 149.99745178222656 387.5189208984375 160.30223083496094 379.31939697265625 170.4525604248047 371.5543212890625 C 176.7001953125 366.3433532714844 181.40463256835938 361.30511474609375 183.3805694580078 352.6162414550781 C 179.96328735351562 349.3062438964844 175.0404052734375 352.86724853515625 179.01239013671875 347.5037536621094 C 170.84963989257812 335.6947937011719 173.07603454589844 313.7621154785156 168.2436065673828 291.6995849609375 C 164.7978515625 284.73345947265625 161.2823486328125 277.12005615234375 156.88180541992188 270.445068359375 C 153.33021545410156 264.14654541015625 146.7418670654297 261.34747314453125 140.5186004638672 257.98577880859375 C 134.1348419189453 256.7131652832031 128.71963500976562 255.22618103027344 122.82113647460938 255.78187561035156" stroke-width="0.0" fill="rgb(30, 29, 28)" opacity="1.1225241" stroke="rgb(0, 0, 0)" stroke-opacity="1.0" stroke-linecap="round" stroke-linejoin="round"/>
    <path d="M 228.25436401367188 479.5419616699219 C 226.48687744140625 468.7930603027344 222.4803009033203 467.1164855957031 217.3196258544922 463.95806884765625 C 210.8627471923828 457.46038818359375 192.84597778320312 463.7769470214844 191.4345703125 455.29132080078125 C 186.76402282714844 441.00762939453125 184.5398712158203 428.0179138183594 176.11846923828125 421.72088623046875 C 165.36338806152344 421.47796630859375 163.42861938476562 430.9967041015625 156.20347595214844 435.9209289550781 C 149.89544677734375 449.1164855957031 143.12301635742188 461.99664306640625 139.51145935058594 472.6005859375 C 126.91487884521484 476.0000915527344 118.78662872314453 477.21966552734375 110.87732696533203 475.0962829589844 C 101.00418853759766 472.6197814941406 94.1798324584961 467.99273681640625 87.1019058227539 465.40576171875 C 79.60227966308594 460.2832946777344 78.05795288085938 444.6577453613281 67.04857635498047 435.14996337890625 C 65.05659484863281 438.7170715332031 61.74270248413086 446.2060852050781 61.30990982055664 454.9625244140625 C 64.64961242675781 472.1958923339844 71.68284606933594 490.6239929199219 79.50623321533203 518.4991455078125 C 127.69166564941406 518.7705688476562 178.34310913085938 518.8809204101562 232.87954711914062 518.1895141601562 C 225.1599578857422 498.4027404785156 230.52407836914062 487.7261657714844 228.25436401367188 479.5419616699219" stroke-width="0.0" fill="rgb(23, 22, 21)" opacity="0.9975903" stroke="rgb(0, 0, 0)" stroke-opacity="1.0" stroke-linecap="round" stroke-linejoin="round"/>
    <path d="M 488.0140075683594 -4.242725372314453 C 486.4376525878906 108.93246459960938 484.68646240234375 218.48460388183594 485.30224609375 327.21954345703125 C 491.71014404296875 328.96502685546875 484.2118225097656 343.0369873046875 488.0122985839844 340.64874267578125 C 498.1192932128906 342.6457214355469 506.4061584472656 344.6153259277344 521.058837890625 346.3759460449219 C 521.5355834960938 235.90464782714844 521.4041137695312 120.86312103271484 521.135498046875 -4.882142543792725 C 505.5433654785156 -5.711701393127441 496.0804138183594 -5.448460102081299 488.0140075683594 -4.242725372314453" stroke-width="0.0" fill="rgb(96, 91, 90)" opacity="0.9139168" stroke="rgb(0, 0, 0)" stroke-opacity="1.0" stroke-linecap="round" stroke-linejoin="round"/>
    <path d="M 91.39740753173828 391.6066589355469 C 78.5435791015625 397.0424499511719 73.52244567871094 409.27935791015625 70.96773529052734 425.2098083496094 C 72.70906829833984 433.6835021972656 77.1127700805664 447.5894775390625 79.34717559814453 460.68890380859375 C 88.02562713623047 467.5530090332031 99.70548248291016 471.3714904785156 111.26378631591797 475.8565368652344 C 123.57118225097656 478.07891845703125 130.62179565429688 474.0563659667969 141.69595336914062 471.66571044921875 C 147.52877807617188 456.1820983886719 150.44732666015625 438.61383056640625 164.79776000976562 424.24298095703125 C 167.6537322998047 415.0093078613281 164.47567749023438 414.629150390625 163.73130798339844 410.6512451171875 C 157.79312133789062 406.4608154296875 153.2456817626953 401.28753662109375 144.6450653076172 398.3970642089844 C 113.62297058105469 399.185546875 106.34706115722656 387.7407531738281 91.39740753173828 391.6066589355469" stroke-width="0.0" fill="rgb(87, 83, 81)" opacity="0.8501603" stroke="rgb(0, 0, 0)" stroke-opacity="1.0" stroke-linecap="round" stroke-linejoin="round"/>
    <path d="M 225.10682678222656 356.4839172363281 C 231.63699340820312 369.1062927246094 236.52761840820312 383.0023498535156 243.65084838867188 393.56170654296875 C 269.7509460449219 402.9711608886719 296.4493408203125 412.59454345703125 329.89056396484375 415.8035583496094 C 330.00433349609375 389.86492919921875 329.04248046875 364.0648498535156 323.135986328125 355.629638671875 C 303.630126953125 344.4446716308594 291.2176208496094 333.5182189941406 278.9481506347656 329.94171142578125 C 263.9453430175781 332.69219970703125 262.7742919921875 335.54217529296875 252.3038330078125 335.8993225097656 C 242.15289306640625 343.30322265625 239.39817810058594 354.1385192871094 225.10682678222656 356.4839172363281" stroke-width="0.0" fill="rgb(100, 94, 94)" opacity="0.93836576" stroke="rgb(0, 0, 0)" stroke-opacity="1.0" stroke-linecap="round" stroke-linejoin="round"/>
    <path d="M 77.4137191772461 -1.3377962112426758 C 70.617431640625 -2.658862352371216 64.65531921386719 -4.62904691696167 59.46231460571289 -8.98011302947998 C 69.28856658935547 124.23033905029297 55.84671401977539 215.21852111816406 58.9954719543457 329.0272216796875 C 68.69085693359375 327.799560546875 73.8110122680664 324.7677307128906 78.14129638671875 318.7704772949219 C 77.9026107788086 205.4799346923828 77.26979064941406 101.73961639404297 77.4137191772461 -1.3377962112426758" stroke-width="0.0" fill="rgb(22, 21, 18)" opacity="0.9970849" stroke="rgb(0, 0, 0)" stroke-opacity="1.0" stroke-linecap="round" stroke-linejoin="round"/>
    <path d="M 319.1914978027344 219.0679931640625 C 303.8434753417969 221.87576293945312 295.7352294921875 231.3242645263672 286.0307922363281 230.53688049316406 C 284.2392272949219 240.80923461914062 278.52642822265625 245.7386932373047 275.4512634277344 253.0238037109375 C 275.0406188964844 263.67095947265625 275.5227355957031 272.5156555175781 278.9913635253906 276.16412353515625 C 289.167236328125 284.8268737792969 297.2998352050781 291.108154296875 308.0008239746094 296.7878112792969 C 319.04632568359375 299.3387145996094 320.1161804199219 293.5633850097656 328.8815612792969 285.90106201171875 C 334.64825439453125 285.0578918457031 337.68585205078125 279.4813537597656 339.8550720214844 270.9908752441406 C 340.94439697265625 261.034912109375 340.63372802734375 247.61766052246094 335.6624755859375 240.19088745117188 C 338.58502197265625 228.1647186279297 326.9891662597656 226.25784301757812 319.1914978027344 219.0679931640625" stroke-width="0.0" fill="rgb(84, 80, 78)" opacity="0.8083042" stroke="rgb(0, 0, 0)" stroke-opacity="1.0" stroke-linecap="round" stroke-linejoin="round"/>
    <path d="M 154.26097106933594 -6.9064717292785645 C 157.7650146484375 84.84523010253906 154.82460021972656 171.90655517578125 151.98097229003906 257.3030090332031 C 158.0950469970703 265.2772216796875 161.08233642578125 274.1328125 169.0303955078125 281.70635986328125 C 168.7471466064453 187.1764678955078 171.3618927001953 92.90447998046875 169.956787109375 -6.506777763366699 C 166.36973571777344 -5.565001964569092 161.06715393066406 -5.45380163192749 154.26097106933594 -6.9064717292785645" stroke-width="0.0" fill="rgb(46, 44, 42)" opacity="0.99784297" stroke="rgb(0, 0, 0)" stroke-opacity="1.0" stroke-linecap="round" stroke-linejoin="round"/>
    <path d="M 332.9010009765625 366.7739562988281 C 331.5615234375 373.3393249511719 329.0909729003906 396.688232421875 333.6763610839844 413.25006103515625 C 349.6322326660156 419.1288757324219 368.3213195800781 424.515869140625 392.1740417480469 427.6153869628906 C 393.78167724609375 417.87750244140625 393.1939392089844 395.793701171875 394.0594787597656 378.76788330078125 C 376.12567138671875 372.6661071777344 357.679443359375 369.15679931640625 332.9010009765625 366.7739562988281" stroke-width="0.0" fill="rgb(11, 10, 10)" opacity="1.0023522" stroke="rgb(0, 0, 0)" stroke-opacity="1.0" stroke-linecap="round" stroke-linejoin="round"/>
    <path d="M 393.7549133300781 324.2784423828125 C 382.86187744140625 328.2167053222656 374.1306457519531 334.821044921875 365.5024719238281 334.897216796875 C 354.58441162109375 352.8116455078125 344.4366760253906 355.2762756347656 322.6299133300781 362.741943359375 C 351.1462097167969 370.5469665527344 369.4615173339844 375.29974365234375 391.83978271484375 377.9136657714844 C 396.9151916503906 357.45294189453125 398.81927490234375 345.49005126953125 393.7549133300781 324.2784423828125" stroke-width="0.0" fill="rgb(124, 120, 117)" opacity="0.786113" stroke="rgb(0, 0, 0)" stroke-opacity="1.0" stroke-linecap="round" stroke-linejoin="round"/>
    <path d="M 241.2811737060547 297.119140625 C 232.71788024902344 295.75457763671875 226.9068145751953 300.11505126953125 220.63563537597656 301.2035217285156 C 214.11903381347656 303.45562744140625 209.76220703125 307.35357666015625 208.62803649902344 311.7356262207031 C 206.75241088867188 322.2632751464844 205.48768615722656 332.7950744628906 208.119140625 342.0158386230469 C 212.4505615234375 346.1917419433594 217.68917846679688 350.9083557128906 225.19183349609375 355.5022888183594 C 232.09130859375 354.60223388671875 238.5865478515625 352.5760803222656 238.8905029296875 348.7911071777344 C 243.98812866210938 341.9194641113281 244.8563232421875 335.25897216796875 247.2811279296875 326.8835754394531 C 242.6509246826172 319.5596008300781 244.81295776367188 306.71136474609375 241.2811737060547 297.119140625" stroke-width="0.0" fill="rgb(25, 24, 23)" opacity="0.9806333" stroke="rgb(0, 0, 0)" stroke-opacity="1.0" stroke-linecap="round" stroke-linejoin="round"/>
    <path d="M -3.0774829387664795 490.5981750488281 C -1.931156873703003 497.55426025390625 -2.9010355472564697 504.2275390625 -4.378100872039795 517.7445678710938 C 13.040542602539062 518.620849609375 25.9588680267334 520.5450439453125 35.1200065612793 516.1355590820312 C 31.107351303100586 499.181640625 16.115257263183594 501.4183349609375 11.084648132324219 486.36968994140625 C 5.794667720794678 487.8110656738281 4.2028961181640625 490.6743469238281 -3.0774829387664795 490.5981750488281" stroke-width="0.0" fill="rgb(59, 56, 54)" opacity="1.0021697" stroke="rgb(0, 0, 0)" stroke-opacity="1.0" stroke-linecap="round" stroke-linejoin="round"/>
    <path d="M 385.85186767578125 257.8861389160156 C 378.8802185058594 260.91998291015625 373.1918640136719 263.5751037597656 374.7424621582031 274.5701904296875 C 376.7703552246094 281.64337158203125 381.6712646484375 285.7342529296875 392.8254089355469 285.3602600097656 C 395.5581970214844 280.3623352050781 395.53265380859375 269.9598083496094 395.30340576171875 263.8271789550781 C 391.95526123046875 254.324462890625 397.7974853515625 255.8457794189453 385.85186767578125 257.8861389160156" stroke-width="0.0" fill="rgb(11, 10, 8)" opacity="1.0033722" stroke="rgb(0, 0, 0)" stroke-opacity="1.0" stroke-linecap="round" stroke-linejoin="round"/>
    <path d="M 441.1902160644531 -6.876326560974121 C 426.9913330078125 -5.892577171325684 416.68218994140625 -4.170133113861084 405.8268127441406 -3.144392967224121 C 405.6021423339844 157.0600128173828 394.05926513671875 306.772216796875 394.4218444824219 448.5490417480469 C 396.1531677246094 478.4717712402344 398.95135498046875 465.2042541503906 405.436767578125 470.8759765625 C 410.2145080566406 473.97723388671875 420.0523376464844 470.2337341308594 418.907958984375 472.8285217285156 C 419.60211181640625 469.62017822265625 422.66876220703125 465.0022277832031 425.5997314453125 465.5195617675781 C 426.6981506347656 313.5072937011719 428.0639953613281 159.74940490722656 430.80218505859375 4.407161712646484 C 427.11407470703125 -3.1960504055023193 434.2933654785156 0.843278169631958 441.1902160644531 -6.876326560974121" stroke-width="0.0" fill="rgb(42, 40, 37)" opacity="0.76029664" stroke="rgb(0, 0, 0)" stroke-opacity="1.0" stroke-linecap="round" stroke-linejoin="round"/>
    <path d="M 202.33860778808594 343.7784729003906 C 189.07833862304688 367.50439453125 164.81849670410156 376.011474609375 146.51683044433594 393.5132141113281 C 158.95355224609375 404.842041015625 173.8941192626953 407.5491027832031 181.70236206054688 422.525146484375 C 186.68455505371094 431.42230224609375 189.7947540283203 444.1004943847656 191.05975341796875 457.42230224609375 C 197.65382385253906 462.2092590332031 204.59844970703125 460.4420166015625 217.72348022460938 459.8412170410156 C 221.4274444580078 462.1912841796875 228.1648406982422 464.5018615722656 232.0716094970703 475.2727966308594 C 239.42019653320312 485.1700744628906 224.41790771484375 489.4300842285156 234.93003845214844 515.4068603515625 C 247.77597045898438 519.2255859375 258.56085205078125 518.8709716796875 267.8035888671875 517.2083740234375 C 272.6355895996094 499.23223876953125 268.5601806640625 488.0703430175781 267.9996643066406 471.0541687011719 C 253.67523193359375 434.4757080078125 243.27694702148438 393.1729431152344 225.68923950195312 360.39111328125 C 219.95648193359375 353.7894592285156 214.39488220214844 346.05975341796875 202.33860778808594 343.7784729003906" stroke-width="0.0" fill="rgb(161, 155, 152)" opacity="1.0067962" stroke="rgb(0, 0, 0)" stroke-opacity="1.0" stroke-linecap="round" stroke-linejoin="round"/>
    <path d="M 481.26153564453125 456.2334289550781 C 483.93951416015625 470.2726745605469 473.1656799316406 477.9293518066406 467.97406005859375 491.466796875 C 480.4620056152344 499.1810302734375 496.3608703613281 503.4899597167969 516.0403442382812 512.7667846679688 C 519.8628540039062 496.5375061035156 520.1205444335938 479.9214782714844 520.2258911132812 459.5701904296875 C 503.3372497558594 460.1885070800781 493.6216125488281 455.4324645996094 481.26153564453125 456.2334289550781" stroke-width="0.0" fill="rgb(58, 55, 53)" opacity="1.0034826" stroke="rgb(0, 0, 0)" stroke-opacity="1.0" stroke-linecap="round" stroke-linejoin="round"/>
    <path d="M 286.8299255371094 228.258544921875 C 273.6248474121094 225.8007354736328 264.8401184082031 232.15682983398438 260.4974060058594 236.4028778076172 C 259.0783386230469 253.80706787109375 257.7514343261719 269.38458251953125 260.55621337890625 276.99432373046875 C 269.19805908203125 279.13885498046875 269.7532958984375 276.3343200683594 275.2104187011719 272.418701171875 C 270.8024597167969 254.1608123779297 283.31182861328125 245.63011169433594 286.8299255371094 228.258544921875" stroke-width="0.0" fill="rgb(12, 11, 11)" opacity="1.0032815" stroke="rgb(0, 0, 0)" stroke-opacity="1.0" stroke-linecap="round" stroke-linejoin="round"/>
    <path d="M 518.791015625 341.01336669921875 C 505.9149475097656 344.7653503417969 503.8623352050781 348.2667236328125 500.4365539550781 350.68731689453125 C 497.62109375 358.58160400390625 491.48236083984375 367.6572570800781 490.6982421875 374.8205871582031 C 488.13922119140625 388.33544921875 494.20733642578125 392.50433349609375 498.27239990234375 396.8216247558594 C 497.7909851074219 395.390869140625 504.1570129394531 394.36737060546875 518.5675048828125 399.1402893066406 C 519.004150390625 375.1510009765625 519.9432983398438 356.963134765625 518.791015625 341.01336669921875" stroke-width="0.0" fill="rgb(24, 22, 21)" opacity="0.9850787" stroke="rgb(0, 0, 0)" stroke-opacity="1.0" stroke-linecap="round" stroke-linejoin="round"/>
    <path d="M 307.4800720214844 221.1942901611328 C 329.86517333984375 217.613037109375 328.320556640625 233.9709014892578 341.2825622558594 240.06906127929688 C 349.69427490234375 224.77020263671875 341.5716247558594 220.8250732421875 336.5970458984375 214.8225555419922 C 323.98541259765625 209.2305908203125 312.4495544433594 209.52691650390625 307.4800720214844 221.1942901611328" stroke-width="0.0" fill="rgb(11, 8, 6)" opacity="0.9894904" stroke="rgb(0, 0, 0)" stroke-opacity="1.0" stroke-linecap="round" stroke-linejoin="round"/>
    <path d="M 151.71395874023438 246.96360778808594 C 143.95523071289062 245.0419158935547 130.65591430664062 245.11102294921875 111.98393249511719 248.1870574951172 C 105.82416534423828 249.11013793945312 106.14977264404297 257.8957824707031 108.044677734375 257.58734130859375 C 115.11290740966797 258.5362548828125 121.35063934326172 252.55987548828125 127.28946685791016 254.1483154296875 C 141.76707458496094 254.88052368164062 145.82571411132812 259.73248291015625 155.00682067871094 264.96258544921875 C 158.68017578125 258.8215637207031 153.88446044921875 254.5563201904297 151.71395874023438 246.96360778808594" stroke-width="0.0" fill="rgb(98, 97, 95)" opacity="0.9231923" stroke="rgb(0, 0, 0)" stroke-opacity="1.0" stroke-linecap="round" stroke-linejoin="round"/>
    <path d="M 100.59504699707031 -8.013741493225098 C 101.46417999267578 83.28292083740234 98.8947525024414 168.2044219970703 103.61637115478516 246.4584503173828 C 110.13581848144531 255.8890838623047 105.566650390625 242.21319580078125 108.64002990722656 228.69764709472656 C 103.39329528808594 233.36773681640625 110.02229309082031 238.49996948242188 108.9849853515625 248.87513732910156 C 121.48680114746094 244.5348663330078 136.2133026123047 249.22952270507812 155.315673828125 245.927001953125 C 155.92408752441406 171.4275665283203 153.8389434814453 87.18516540527344 155.5977020263672 -5.056650161743164 C 138.8514862060547 -5.949059963226318 120.91516876220703 -6.342936038970947 100.59504699707031 -8.013741493225098" stroke-width="0.0" fill="rgb(198, 192, 190)" opacity="0.86262554" stroke="rgb(0, 0, 0)" stroke-opacity="1.0" stroke-linecap="round" stroke-linejoin="round"/>
    <path d="M 80.72935485839844 327.07464599609375 C 72.05498504638672 328.8902893066406 63.92633819580078 330.85919189453125 60.455810546875 331.962646484375 C 53.234832763671875 337.9255065917969 42.76211929321289 345.30303955078125 38.723350524902344 353.14788818359375 C 29.9476318359375 379.4432678222656 30.603588104248047 410.8876037597656 16.412460327148438 427.6168212890625 C 20.070837020874023 450.5771179199219 6.455026149749756 457.4969177246094 11.73904037475586 481.06268310546875 C 13.627111434936523 504.0260009765625 36.865169525146484 493.97357177734375 35.262451171875 515.6412963867188 C 44.3667106628418 520.9481201171875 65.28547668457031 520.8493041992188 76.19995880126953 519.2724609375 C 71.87065124511719 485.53802490234375 63.114837646484375 468.01690673828125 58.21768569946289 451.33843994140625 C 63.36968231201172 431.94866943359375 68.26406860351562 415.6845397949219 73.7613525390625 402.41107177734375 C 78.91998291015625 392.9493103027344 86.76399993896484 390.13873291015625 94.66197967529297 383.9880676269531 C 92.80924987792969 360.5209045410156 87.4286117553711 342.9396057128906 80.72935485839844 327.07464599609375" stroke-width="0.0" fill="rgb(165, 160, 157)" opacity="0.9940835" stroke="rgb(0, 0, 0)" stroke-opacity="1.0" stroke-linecap="round" stroke-linejoin="round"/>
    <path d="M 100.33358764648438 -5.207144737243652 C 91.33865356445312 -3.181065797805786 83.29312896728516 -4.7019877433776855 76.53230285644531 -4.346723556518555 C 77.63421630859375 98.7043228149414 76.3179931640625 197.99697875976562 79.63240814208984 291.9288635253906 C 86.73948669433594 281.3487243652344 94.38017272949219 270.156494140625 100.41898345947266 263.7279357910156 C 102.30467987060547 172.29039001464844 98.69171905517578 86.92604064941406 100.33358764648438 -5.207144737243652" stroke-width="0.0" fill="rgb(194, 189, 187)" opacity="0.9324076" stroke="rgb(0, 0, 0)" stroke-opacity="1.0" stroke-linecap="round" stroke-linejoin="round"/>
    <path d="M 309.738037109375 274.37432861328125 C 311.938720703125 286.2778625488281 321.3645935058594 289.8738098144531 315.6261291503906 300.3379211425781 C 322.18896484375 306.64654541015625 328.3976135253906 314.836181640625 336.5540771484375 320.2196044921875 C 340.6945495605469 322.92840576171875 344.36212158203125 326.11822509765625 351.26385498046875 326.5137634277344 C 358.7176513671875 324.72332763671875 365.900146484375 323.74041748046875 371.59979248046875 318.600830078125 C 373.3451232910156 315.9748840332031 375.768310546875 311.6018981933594 376.5698547363281 306.21417236328125 C 367.8949890136719 292.86102294921875 377.4112243652344 274.5135498046875 366.0833435058594 267.6005554199219 C 360.7079772949219 265.71112060546875 352.5675964355469 260.9945373535156 340.0610046386719 262.0182800292969 C 340.6349182128906 274.1506652832031 336.1329345703125 284.0123596191406 326.6164855957031 286.5431823730469 C 315.5328369140625 286.53289794921875 318.41558837890625 275.53546142578125 309.738037109375 274.37432861328125" stroke-width="0.0" fill="rgb(59, 56, 54)" opacity="0.9480742" stroke="rgb(0, 0, 0)" stroke-opacity="1.0" stroke-linecap="round" stroke-linejoin="round"/>
    <path d="M 394.92138671875 496.96148681640625 C 393.4670715332031 499.44439697265625 394.4562683105469 506.8553466796875 393.5747985839844 518.8865356445312 C 434.58160400390625 519.1546630859375 475.18243408203125 520.7269897460938 516.5574951171875 513.836669921875 C 481.35980224609375 497.8039245605469 449.3116149902344 488.1968078613281 417.6864318847656 478.4202880859375 C 413.3188781738281 476.8087158203125 408.23760986328125 479.8736572265625 404.8502502441406 481.0646667480469 C 401.26312255859375 486.5742492675781 395.72796630859375 489.5227966308594 394.92138671875 496.96148681640625" stroke-width="0.0" fill="rgb(51, 50, 48)" opacity="1.0178039" stroke="rgb(0, 0, 0)" stroke-opacity="1.0" stroke-linecap="round" stroke-linejoin="round"/>
    <path d="M 343.33172607421875 259.8978271484375 C 353.4287109375 261.16064453125 363.5445556640625 265.39581298828125 372.80731201171875 270.1682434082031 C 377.7593688964844 262.8459777832031 386.37811279296875 258.04498291015625 394.3264465332031 252.88197326660156 C 395.4248962402344 251.021728515625 395.2391662597656 241.10581970214844 394.86297607421875 233.69070434570312 C 378.8712463378906 230.70301818847656 361.91259765625 235.5326690673828 348.5893859863281 232.8193817138672 C 343.2300109863281 240.04092407226562 341.4482727050781 246.4792938232422 343.33172607421875 259.8978271484375" stroke-width="0.0" fill="rgb(99, 94, 93)" opacity="1.0057304" stroke="rgb(0, 0, 0)" stroke-opacity="1.0" stroke-linecap="round" stroke-linejoin="round"/>
    <path d="M 258.08685302734375 281.3753967285156 C 253.65866088867188 284.8341064453125 251.9580078125 291.08184814453125 251.49656677246094 296.8899841308594 C 249.71458435058594 317.28277587890625 250.60910034179688 324.94482421875 257.9970703125 334.6184997558594 C 262.0849914550781 335.5964660644531 273.88134765625 331.3861083984375 286.8968811035156 332.75982666015625 C 295.65594482421875 346.2762145996094 307.81256103515625 349.6343994140625 326.24627685546875 352.7209167480469 C 325.6043701171875 335.5368347167969 331.0472412109375 315.6816101074219 320.4056396484375 303.2898254394531 C 304.15234375 295.1807556152344 290.2167663574219 285.46728515625 277.6568603515625 275.1914367675781 C 270.82257080078125 278.8597717285156 265.0400695800781 274.47174072265625 258.08685302734375 281.3753967285156" stroke-width="0.0" fill="rgb(9, 8, 8)" opacity="0.9795768" stroke="rgb(0, 0, 0)" stroke-opacity="1.0" stroke-linecap="round" stroke-linejoin="round"/>
    <path d="M 485.2510681152344 423.04327392578125 C 484.11083984375 433.8980407714844 484.1650695800781 442.84173583984375 481.732177734375 454.1971435546875 C 490.9232482910156 457.20361328125 500.95892333984375 458.904296875 516.7468872070312 460.18682861328125 C 519.4169921875 457.07452392578125 519.3621826171875 449.2292785644531 509.910888671875 439.93450927734375 C 502.3892517089844 435.0050048828125 489.2913818359375 436.907470703125 485.2510681152344 423.04327392578125" stroke-width="0.0" fill="rgb(18, 17, 18)" opacity="1.0046451" stroke="rgb(0, 0, 0)" stroke-opacity="1.0" stroke-linecap="round" stroke-linejoin="round"/>
    <path d="M 325.3616027832031 361.6998596191406 C 322.4374694824219 371.0643310546875 324.6297302246094 377.900634765625 330.9356689453125 386.7357177734375 C 333.5223083496094 379.06195068359375 332.3269348144531 363.8570861816406 347.5113220214844 367.24676513671875 C 346.125732421875 366.80682373046875 336.734375 364.6075744628906 325.3616027832031 361.6998596191406" stroke-width="0.0" fill="rgb(49, 47, 45)" opacity="1.0228903" stroke="rgb(0, 0, 0)" stroke-opacity="1.0" stroke-linecap="round" stroke-linejoin="round"/>
    <path d="M 472.12213134765625 -4.224578380584717 C 454.0746765136719 -7.696916580200195 438.389892578125 -7.795595645904541 429.0780334472656 -7.911398887634277 C 429.9552001953125 162.6396942138672 425.9419860839844 319.1833801269531 422.40167236328125 475.20611572265625 C 424.0181884765625 478.35601806640625 431.47320556640625 480.1680603027344 441.1921081542969 484.1190490722656 C 446.65460205078125 330.2275695800781 446.08544921875 163.85787963867188 452.2597351074219 4.723263263702393 C 456.74371337890625 11.628314018249512 461.1781311035156 18.6115665435791 461.2201843261719 31.359474182128906 C 461.95355224609375 19.37963104248047 461.55474853515625 10.09788703918457 462.3528747558594 4.867889881134033 C 472.44976806640625 2.761192560195923 478.8768615722656 7.959432601928711 472.12213134765625 -4.224578380584717" stroke-width="0.0" fill="rgb(117, 112, 109)" opacity="0.93675154" stroke="rgb(0, 0, 0)" stroke-opacity="1.0" stroke-linecap="round" stroke-linejoin="round"/>
    <path d="M 450.1290283203125 370.4403381347656 C 438.88458251953125 389.7973327636719 447.9005432128906 435.5901184082031 441.2611083984375 483.747314453125 C 446.99163818359375 485.1455383300781 453.702880859375 488.6832580566406 461.2640380859375 487.9965515136719 C 470.3983154296875 485.2886657714844 475.0112609863281 480.494140625 479.97955322265625 472.7437744140625 C 481.9749755859375 455.4949035644531 483.99066162109375 436.6418151855469 486.83758544921875 413.83782958984375 C 483.98394775390625 398.9976806640625 481.2803649902344 383.04132080078125 471.1912536621094 370.17767333984375 C 457.00311279296875 381.2691955566406 465.6842346191406 362.1562194824219 450.1290283203125 370.4403381347656" stroke-width="0.0" fill="rgb(34, 33, 31)" opacity="1.0129244" stroke="rgb(0, 0, 0)" stroke-opacity="1.0" stroke-linecap="round" stroke-linejoin="round"/>
    <path d="M 395.42974853515625 312.5748291015625 C 384.7438659667969 307.69158935546875 378.4141845703125 304.17425537109375 374.6429748535156 302.0216979980469 C 375.0315246582031 317.9736328125 362.6782531738281 319.48944091796875 361.0848083496094 333.3184509277344 C 372.1883239746094 336.64471435546875 378.8015441894531 330.7862548828125 387.656005859375 326.5776672363281 C 388.60882568359375 318.0156555175781 399.3155822753906 325.4584655761719 395.42974853515625 312.5748291015625" stroke-width="0.0" fill="rgb(10, 9, 8)" opacity="1.0155677" stroke="rgb(0, 0, 0)" stroke-opacity="1.0" stroke-linecap="round" stroke-linejoin="round"/>
    <path d="M 524.1551513671875 341.82598876953125 C 519.5153198242188 349.2205810546875 506.924560546875 347.93170166015625 488.0892639160156 335.54620361328125 C 482.28759765625 339.8486022949219 486.780517578125 351.26202392578125 484.29254150390625 362.8371276855469 C 488.6722717285156 362.63037109375 489.684814453125 366.2932434082031 492.6251525878906 368.0253601074219 C 499.01953125 356.469482421875 500.3334655761719 355.5133056640625 491.6136474609375 345.1971740722656 C 502.04559326171875 348.9016418457031 508.92694091796875 348.2794189453125 517.8084716796875 343.0084228515625 C 519.3097534179688 342.01446533203125 519.8115234375 338.2876892089844 524.1551513671875 341.82598876953125" stroke-width="0.0" fill="rgb(158, 153, 150)" opacity="1.0016179" stroke="rgb(0, 0, 0)" stroke-opacity="1.0" stroke-linecap="round" stroke-linejoin="round"/>
    <path d="M 481.88983154296875 393.2677917480469 C 481.2222595214844 398.27484130859375 485.38555908203125 407.5379333496094 484.65576171875 416.9260559082031 C 486.1750793457031 415.9298400878906 492.1665344238281 416.8078308105469 502.0482482910156 417.4754333496094 C 505.7330627441406 411.107421875 508.2613220214844 405.33709716796875 507.38909912109375 396.1065368652344 C 499.7237854003906 396.3396301269531 491.5780944824219 391.5894470214844 481.88983154296875 393.2677917480469" stroke-width="0.0" fill="rgb(79, 75, 73)" opacity="0.9538368" stroke="rgb(0, 0, 0)" stroke-opacity="1.0" stroke-linecap="round" stroke-linejoin="round"/>
    <path d="M 519.7506103515625 388.7896728515625 C 505.7671203613281 396.6509704589844 507.9544677734375 409.9619445800781 502.8999328613281 416.8248291015625 C 501.38238525390625 417.73590087890625 492.909423828125 418.7774658203125 487.729736328125 421.4025573730469 C 487.6462707519531 424.30316162109375 488.0528259277344 430.2341613769531 489.2362060546875 430.4705810546875 C 494.259521484375 433.4092712402344 499.51666259765625 436.7431640625 521.251220703125 439.994140625 C 522.1292114257812 433.7562561035156 522.3816528320312 419.27685546875 519.7506103515625 388.7896728515625" stroke-width="0.0" fill="rgb(55, 54, 53)" opacity="1.0087229" stroke="rgb(0, 0, 0)" stroke-opacity="1.0" stroke-linecap="round" stroke-linejoin="round"/>
    <path d="M 485.2032775878906 320.25653076171875 C 487.88818359375 314.42657470703125 489.2480163574219 306.137451171875 477.0369873046875 313.0897216796875 C 476.24462890625 319.0885314941406 469.39691162109375 321.66204833984375 472.5020446777344 328.8759765625 C 473.3666076660156 331.67041015625 494.1036682128906 329.6207275390625 489.0268859863281 328.7281494140625 C 484.8591613769531 314.258056640625 484.3667907714844 305.0514831542969 485.2032775878906 320.25653076171875" stroke-width="0.0" fill="rgb(68, 65, 64)" opacity="0.9359018" stroke="rgb(0, 0, 0)" stroke-opacity="1.0" stroke-linecap="round" stroke-linejoin="round"/>
    <path d="M 110.98060607910156 290.9237365722656 C 105.53185272216797 293.2782897949219 101.06907653808594 297.8690490722656 99.32866668701172 306.2767028808594 C 97.64990997314453 317.2042541503906 95.42556762695312 321.9574890136719 99.96636199951172 334.3071594238281 C 101.41486358642578 342.7159423828125 107.08663940429688 348.0917053222656 111.14482879638672 356.1423645019531 C 117.66758728027344 361.87139892578125 119.62718963623047 367.5771484375 131.6483612060547 365.51531982421875 C 143.05316162109375 362.2294006347656 146.734619140625 349.8046875 153.30926513671875 340.1506042480469 C 159.49208068847656 323.36273193359375 156.02767944335938 318.4145812988281 152.55397033691406 303.203857421875 C 149.62808227539062 299.1360168457031 145.79542541503906 295.06646728515625 142.4454345703125 291.8468017578125 C 130.38059997558594 289.82232666015625 121.1607894897461 289.66717529296875 110.98060607910156 290.9237365722656" stroke-width="0.0" fill="rgb(127, 122, 120)" opacity="1.0010111" stroke="rgb(0, 0, 0)" stroke-opacity="1.0" stroke-linecap="round" stroke-linejoin="round"/>
    <path d="M 304.63916015625 519.6909790039062 C 324.3946228027344 519.7435302734375 346.2327575683594 520.1024780273438 380.179931640625 518.0556030273438 C 364.771728515625 506.00286865234375 362.1467590332031 497.16845703125 356.6634826660156 494.2138366699219 C 349.02685546875 488.5942687988281 342.26983642578125 487.952880859375 330.8444519042969 485.8874816894531 C 325.0099792480469 485.87347412109375 318.0596923828125 485.319580078125 313.5848083496094 487.439697265625 C 309.54730224609375 493.46148681640625 305.7072448730469 499.690673828125 304.63916015625 519.6909790039062" stroke-width="0.0" fill="rgb(82, 78, 76)" opacity="1.0010699" stroke="rgb(0, 0, 0)" stroke-opacity="1.0" stroke-linecap="round" stroke-linejoin="round"/>
    <path d="M 256.0596618652344 239.2220916748047 C 237.54063415527344 238.65081787109375 219.989501953125 239.45021057128906 205.60745239257812 242.35516357421875 C 206.72068786621094 259.8365478515625 204.70748901367188 282.8817138671875 205.27325439453125 304.5090026855469 C 214.95057678222656 298.3694763183594 225.49627685546875 299.20361328125 231.7377166748047 296.0835266113281 C 240.69602966308594 290.14801025390625 250.78370666503906 286.04022216796875 257.62677001953125 276.2601623535156 C 261.0806579589844 264.62860107421875 254.16146850585938 254.05426025390625 256.0596618652344 239.2220916748047" stroke-width="0.0" fill="rgb(86, 82, 80)" opacity="1.0485129" stroke="rgb(0, 0, 0)" stroke-opacity="1.0" stroke-linecap="round" stroke-linejoin="round"/>
    <path d="M 394.2911071777344 321.8416748046875 C 384.8088684082031 330.4749755859375 371.1880798339844 332.0041198730469 360.4132080078125 339.56365966796875 C 357.5433044433594 341.9548034667969 352.51666259765625 344.8574523925781 353.97735595703125 350.2044982910156 C 365.6044921875 351.971923828125 377.3185119628906 357.32232666015625 394.4053039550781 358.6372985839844 C 395.5068664550781 353.6177673339844 395.560791015625 332.4663391113281 394.2911071777344 321.8416748046875" stroke-width="0.0" fill="rgb(203, 199, 197)" opacity="0.94923216" stroke="rgb(0, 0, 0)" stroke-opacity="1.0" stroke-linecap="round" stroke-linejoin="round"/>
    <path d="M 246.39634704589844 393.6545104980469 C 244.95986938476562 416.44818115234375 257.1203918457031 427.7239990234375 259.1897888183594 448.7613220214844 C 289.7462158203125 448.0639343261719 320.17266845703125 449.09613037109375 333.986328125 446.8028259277344 C 359.3858947753906 439.5190124511719 374.4583435058594 448.6514587402344 392.0028076171875 454.520751953125 C 393.1081848144531 447.7153625488281 393.9747009277344 429.15692138671875 392.49609375 430.6833190917969 C 342.7592468261719 417.9798278808594 293.80377197265625 408.1763000488281 246.39634704589844 393.6545104980469" stroke-width="0.0" fill="rgb(13, 13, 13)" opacity="0.96650594" stroke="rgb(0, 0, 0)" stroke-opacity="1.0" stroke-linecap="round" stroke-linejoin="round"/>
    <path d="M 70.00957489013672 425.3923645019531 C 69.98146057128906 434.05303955078125 72.4783706665039 438.3097229003906 76.0716552734375 440.90997314453125 C 94.18354034423828 441.85797119140625 107.0866928100586 441.2164001464844 121.66796875 439.7513427734375 C 132.61798095703125 437.3751220703125 140.5288848876953 429.59893798828125 148.4764404296875 427.85321044921875 C 153.71551513671875 428.3953552246094 156.00856018066406 428.13214111328125 145.4785614013672 426.8572998046875 C 153.75242614746094 426.005126953125 169.60787963867188 425.2723388671875 173.63262939453125 422.4729309082031 C 170.01400756835938 406.1805419921875 157.2647247314453 404.4068908691406 144.1522216796875 398.49041748046875 C 125.55216217041016 396.8703308105469 107.98856353759766 390.51824951171875 96.01427459716797 390.4931640625 C 83.38732147216797 391.5325927734375 80.30921173095703 397.02362060546875 76.17005920410156 401.00384521484375 C 72.35514068603516 409.9195251464844 68.76898193359375 417.0630187988281 70.00957489013672 425.3923645019531" stroke-width="0.0" fill="rgb(111, 108, 105)" opacity="0.87602663" stroke="rgb(0, 0, 0)" stroke-opacity="1.0" stroke-linecap="round" stroke-linejoin="round"/>
    <path d="M 167.77430725097656 423.2019958496094 C 160.15249633789062 424.118408203125 153.71316528320312 423.49322509765625 153.2279052734375 423.5936584472656 C 144.37564086914062 429.0913391113281 137.257568359375 433.8291320800781 129.24977111816406 435.21990966796875 C 116.22554016113281 439.146484375 97.61265563964844 438.5240783691406 84.54888153076172 439.82061767578125 C 75.86254119873047 445.1551818847656 73.17717742919922 445.8189697265625 75.60843658447266 452.9081115722656 C 77.12693786621094 461.82647705078125 81.26873779296875 465.7020568847656 91.5686264038086 469.0876770019531 C 106.85663604736328 469.55450439453125 114.75005340576172 479.2165222167969 124.43253326416016 477.41436767578125 C 136.72958374023438 474.4524841308594 140.90567016601562 472.760009765625 143.83023071289062 467.3630065917969 C 147.68798828125 462.4913635253906 147.8843994140625 452.49212646484375 148.57655334472656 442.2746276855469 C 153.37237548828125 435.382080078125 161.21885681152344 429.5350646972656 167.77430725097656 423.2019958496094" stroke-width="0.0" fill="rgb(61, 59, 57)" opacity="1.1179733" stroke="rgb(0, 0, 0)" stroke-opacity="1.0" stroke-linecap="round" stroke-linejoin="round"/>
    <path d="M 304.2203063964844 224.7886962890625 C 303.16510009765625 238.46034240722656 307.8323669433594 258.0158996582031 310.468994140625 280.91082763671875 C 311.4514465332031 282.27203369140625 318.6104736328125 284.47357177734375 324.8946533203125 288.2728271484375 C 333.3774719238281 286.1386413574219 336.61041259765625 281.52532958984375 339.1109313964844 275.6149597167969 C 341.53173828125 265.90509033203125 341.37451171875 253.39337158203125 342.7689208984375 238.44937133789062 C 328.5993957519531 242.06175231933594 334.580078125 232.69512939453125 328.9862060546875 223.2467498779297 C 324.936767578125 219.846435546875 308.3614196777344 219.29171752929688 304.2203063964844 224.7886962890625" stroke-width="0.0" fill="rgb(133, 128, 126)" opacity="0.97053224" stroke="rgb(0, 0, 0)" stroke-opacity="1.0" stroke-linecap="round" stroke-linejoin="round"/>
    <path d="M 301.49267578125 162.3214874267578 C 282.0114440917969 164.549072265625 262.9212951660156 163.3371124267578 246.1082763671875 166.1804656982422 C 242.78338623046875 167.03964233398438 243.92022705078125 178.03343200683594 244.55007934570312 190.52523803710938 C 266.5224304199219 189.0463104248047 258.94488525390625 205.44520568847656 269.9891662597656 211.25924682617188 C 282.90545654296875 212.67198181152344 282.09954833984375 200.1858367919922 286.19061279296875 193.36669921875 C 291.08380126953125 191.117919921875 298.0254821777344 192.88677978515625 300.1940002441406 187.6013946533203 C 301.7330017089844 184.623779296875 300.4143371582031 172.38563537597656 301.49267578125 162.3214874267578" stroke-width="0.0" fill="rgb(177, 170, 168)" opacity="0.99999297" stroke="rgb(0, 0, 0)" stroke-opacity="1.0" stroke-linecap="round" stroke-linejoin="round"/>
    <path d="M 285.9748840332031 233.52896118164062 C 272.7420959472656 239.6328125 284.9414367675781 251.99391174316406 271.8874816894531 257.5589599609375 C 270.5211181640625 264.269287109375 277.1970520019531 272.5793762207031 280.42877197265625 281.3575744628906 C 287.4188232421875 288.35333251953125 294.6936340332031 300.12481689453125 317.4700927734375 296.486083984375 C 305.90960693359375 278.8677978515625 309.6582946777344 255.46829223632812 302.9043273925781 240.37754821777344 C 301.01885986328125 233.66287231445312 295.4145202636719 228.82579040527344 285.9748840332031 233.52896118164062" stroke-width="0.0" fill="rgb(97, 93, 91)" opacity="0.838386" stroke="rgb(0, 0, 0)" stroke-opacity="1.0" stroke-linecap="round" stroke-linejoin="round"/>
    <path d="M 480.350341796875 455.69696044921875 C 481.7557678222656 469.4791259765625 477.4615478515625 472.7958679199219 471.6886291503906 482.26580810546875 C 483.9062194824219 486.62384033203125 496.5375061035156 489.66802978515625 518.1045532226562 493.9477844238281 C 519.314208984375 484.5249938964844 519.184814453125 474.1255187988281 516.9922485351562 462.6729431152344 C 501.2048034667969 459.339111328125 493.23394775390625 454.85504150390625 480.350341796875 455.69696044921875" stroke-width="0.0" fill="rgb(74, 70, 69)" opacity="0.9651496" stroke="rgb(0, 0, 0)" stroke-opacity="1.0" stroke-linecap="round" stroke-linejoin="round"/>
    <path d="M 331.3337707519531 361.7945251464844 C 342.021728515625 367.7701416015625 357.3464050292969 370.9259338378906 372.8238830566406 373.64825439453125 C 388.0865478515625 376.14129638671875 399.2939147949219 377.7645568847656 393.6624755859375 375.5126647949219 C 395.8706970214844 367.94427490234375 395.80352783203125 359.513427734375 394.6050109863281 360.6316223144531 C 379.6228942871094 357.339111328125 367.26519775390625 357.20953369140625 356.4141540527344 350.3347473144531 C 347.0979919433594 353.7283935546875 338.5208740234375 355.3073425292969 331.3337707519531 361.7945251464844" stroke-width="0.0" fill="rgb(177, 172, 169)" opacity="0.94319147" stroke="rgb(0, 0, 0)" stroke-opacity="1.0" stroke-linecap="round" stroke-linejoin="round"/>
    <path d="M 487.229736328125 214.10079956054688 C 483.3075866699219 217.4609375 484.7904357910156 234.65264892578125 484.8688049316406 243.58499145507812 C 489.2062072753906 253.46595764160156 486.0596923828125 252.57569885253906 500.8507080078125 252.337890625 C 504.2308349609375 247.66122436523438 506.5723876953125 236.89456176757812 509.5465393066406 225.715087890625 C 504.19287109375 218.33071899414062 495.87872314453125 216.47158813476562 487.229736328125 214.10079956054688" stroke-width="0.0" fill="rgb(40, 36, 35)" opacity="1.002907" stroke="rgb(0, 0, 0)" stroke-opacity="1.0" stroke-linecap="round" stroke-linejoin="round"/>
    <path d="M 492.24163818359375 -2.3790197372436523 C 488.59368896484375 68.19778442382812 488.54156494140625 138.987060546875 487.68475341796875 211.4918212890625 C 497.1183166503906 217.50753784179688 508.2161865234375 216.92442321777344 514.4754028320312 239.94650268554688 C 518.4494018554688 153.27989196777344 518.52197265625 76.6025390625 518.3648071289062 -1.1033258438110352 C 504.62109375 -2.2727036476135254 498.2491455078125 -2.744647264480591 492.24163818359375 -2.3790197372436523" stroke-width="0.0" fill="rgb(127, 122, 119)" opacity="0.969005" stroke="rgb(0, 0, 0)" stroke-opacity="1.0" stroke-linecap="round" stroke-linejoin="round"/>
    <path d="M 272.7622985839844 14.711005210876465 C 266.2787170410156 48.06216049194336 258.2934265136719 77.40536499023438 246.8439483642578 99.20801544189453 C 259.3040466308594 119.61602020263672 278.4132995605469 129.2494354248047 284.98138427734375 150.2288360595703 C 299.354248046875 138.79293823242188 295.6754150390625 112.12383270263672 309.75640869140625 113.67327880859375 C 310.7606201171875 105.020263671875 309.771728515625 88.00751495361328 308.24151611328125 84.3500747680664 C 304.4324951171875 57.29220199584961 284.7367248535156 44.26666259765625 272.7622985839844 14.711005210876465" stroke-width="0.0" fill="rgb(89, 84, 81)" opacity="0.99944943" stroke="rgb(0, 0, 0)" stroke-opacity="1.0" stroke-linecap="round" stroke-linejoin="round"/>
    <path d="M 15.316222190856934 451.1387023925781 C 10.548168182373047 461.2113952636719 9.497953414916992 475.22412109375 12.656170845031738 489.21923828125 C 15.160572052001953 497.0827941894531 24.65036964416504 498.44207763671875 33.17558288574219 501.98992919921875 C 35.93143081665039 502.62359619140625 34.37403869628906 507.001953125 34.22135925292969 519.4989013671875 C 47.506961822509766 519.533203125 63.69843292236328 519.8055419921875 76.99484252929688 518.507080078125 C 73.89327239990234 503.15167236328125 72.31326293945312 496.0574951171875 70.01738739013672 489.7690734863281 C 60.973209381103516 486.01617431640625 55.74384307861328 479.021240234375 53.458030700683594 472.2828674316406 C 50.92654037475586 455.5675354003906 56.29878234863281 454.64080810546875 58.933563232421875 443.53887939453125 C 35.349998474121094 434.8006896972656 34.17074203491211 452.6969299316406 15.316222190856934 451.1387023925781" stroke-width="0.0" fill="rgb(169, 163, 161)" opacity="1.0057223" stroke="rgb(0, 0, 0)" stroke-opacity="1.0" stroke-linecap="round" stroke-linejoin="round"/>
    <path d="M 226.44082641601562 360.2720642089844 C 230.38063049316406 369.9156494140625 237.48056030273438 377.0595703125 238.40615844726562 384.3785400390625 C 255.6129150390625 394.7154846191406 272.3309020996094 398.91436767578125 293.61639404296875 403.28363037109375 C 294.44281005859375 384.86663818359375 290.7402038574219 373.02093505859375 289.2891540527344 362.897705078125 C 282.7938232421875 352.478759765625 263.6752014160156 353.214111328125 270.6552429199219 351.1727294921875 C 269.0047302246094 338.6167907714844 273.96435546875 334.23809814453125 285.9593811035156 334.9952697753906 C 272.23638916015625 331.6483154296875 267.4133605957031 334.27838134765625 253.46636962890625 339.74053955078125 C 251.17431640625 354.621337890625 239.9303741455078 349.2521057128906 226.44082641601562 360.2720642089844" stroke-width="0.0" fill="rgb(140, 136, 133)" opacity="0.99752027" stroke="rgb(0, 0, 0)" stroke-opacity="1.0" stroke-linecap="round" stroke-linejoin="round"/>
    <path d="M 279.13433837890625 345.77264404296875 C 291.94500732421875 360.9244384765625 291.4675598144531 377.8047180175781 294.5623474121094 403.99462890625 C 303.751220703125 407.5247802734375 316.91900634765625 409.10052490234375 329.5249328613281 415.2833557128906 C 332.38714599609375 386.2657470703125 317.9026184082031 375.6764831542969 326.2950744628906 351.9743347167969 C 308.1756896972656 352.13446044921875 297.4491882324219 344.17584228515625 279.13433837890625 345.77264404296875" stroke-width="0.0" fill="rgb(121, 117, 114)" opacity="0.9957123" stroke="rgb(0, 0, 0)" stroke-opacity="1.0" stroke-linecap="round" stroke-linejoin="round"/>
    <path d="M 112.00721740722656 258.85943603515625 C 104.29087829589844 267.5340270996094 97.53011322021484 280.575927734375 97.79879760742188 298.3759765625 C 102.11603546142578 303.13232421875 102.46574401855469 294.7955322265625 109.1822738647461 291.7495422363281 C 118.8714370727539 289.1363830566406 130.9206085205078 289.7300720214844 144.47805786132812 292.37957763671875 C 151.45401000976562 296.2509765625 156.681640625 305.13824462890625 155.84527587890625 314.26318359375 C 163.314697265625 310.5574645996094 161.61305236816406 301.4037170410156 162.17929077148438 285.260498046875 C 159.2476348876953 278.4647216796875 158.02928161621094 272.6613464355469 154.26083374023438 267.835693359375 C 148.7836151123047 261.9499206542969 143.73817443847656 256.1654052734375 134.85232543945312 254.1953887939453 C 121.64678192138672 253.08387756347656 118.933349609375 253.5281219482422 112.00721740722656 258.85943603515625" stroke-width="0.0" fill="rgb(19, 18, 16)" opacity="0.91563016" stroke="rgb(0, 0, 0)" stroke-opacity="1.0" stroke-linecap="round" stroke-linejoin="round"/>
    <path d="M 405.198486328125 485.7908630371094 C 424.83636474609375 493.3400573730469 446.1959228515625 502.5592041015625 468.2099609375 510.47674560546875 C 483.0220642089844 517.6404418945312 498.9214172363281 522.5773315429688 516.3622436523438 513.503173828125 C 480.9715576171875 498.7722473144531 449.3786315917969 488.6661071777344 418.99713134765625 476.5169677734375 C 411.4518737792969 476.6185607910156 408.4860534667969 476.87030029296875 405.198486328125 485.7908630371094" stroke-width="0.0" fill="rgb(83, 79, 76)" opacity="1.0023575" stroke="rgb(0, 0, 0)" stroke-opacity="1.0" stroke-linecap="round" stroke-linejoin="round"/>
    <path d="M 244.49774169921875 -4.6253790855407715 C 232.0 -0.014907986856997013 221.0 -1.0405155420303345 208.4324493408203 -6.0330071449279785 C 213.18836975097656 16.186037063598633 208.87579345703125 40.3829345703125 212.2344207763672 45.44696044921875 C 212.61241149902344 53.12622833251953 223.61619567871094 51.508663177490234 226.37460327148438 51.21072006225586 C 230.14952087402344 41.78239059448242 227.31488037109375 30.698745727539062 228.38394165039062 28.173246383666992 C 231.94297790527344 16.99088478088379 235.85194396972656 14.595602989196777 242.78082275390625 14.808725357055664 C 245.59597778320312 10.791707038879395 243.82235717773438 1.2808605432510376 244.49774169921875 -4.6253790855407715" stroke-width="0.0" fill="rgb(103, 96, 94)" opacity="0.99807703" stroke="rgb(0, 0, 0)" stroke-opacity="1.0" stroke-linecap="round" stroke-linejoin="round"/>
    <path d="M 224.81756591796875 456.3863220214844 C 226.0208740234375 463.8576965332031 235.04933166503906 469.14080810546875 236.11691284179688 477.1304931640625 C 234.6378936767578 486.8294677734375 233.90597534179688 491.52764892578125 227.19041442871094 490.6279602050781 C 228.12808227539062 502.9209899902344 233.91458129882812 505.1666259765625 236.27398681640625 515.3919677734375 C 243.45249938964844 518.1345825195312 249.97781372070312 519.1310424804688 256.1895446777344 516.7445678710938 C 253.96202087402344 495.4634094238281 256.5957946777344 482.3143310546875 252.45233154296875 477.7555847167969 C 242.3469696044922 468.2584533691406 237.02354431152344 460.1579284667969 224.81756591796875 456.3863220214844" stroke-width="0.0" fill="rgb(126, 121, 119)" opacity="0.9779162" stroke="rgb(0, 0, 0)" stroke-opacity="1.0" stroke-linecap="round" stroke-linejoin="round"/>
    <path d="M 356.8885192871094 75.77652740478516 C 349.251708984375 76.28741455078125 347.8648681640625 88.7150650024414 346.3490905761719 99.9161605834961 C 344.4515380859375 103.6844711303711 348.2358093261719 110.7459945678711 352.5977783203125 114.26203155517578 C 360.5604248046875 114.53072357177734 360.9345703125 109.5890884399414 362.9725646972656 103.21875 C 362.02984619140625 91.37416076660156 364.402587890625 75.99542236328125 356.8885192871094 75.77652740478516" stroke-width="0.0" fill="rgb(119, 114, 111)" opacity="0.998942" stroke="rgb(0, 0, 0)" stroke-opacity="1.0" stroke-linecap="round" stroke-linejoin="round"/>
    <path d="M 364.937744140625 244.45237731933594 C 359.11041259765625 245.07469177246094 351.5335388183594 245.0433349609375 345.22607421875 244.66162109375 C 342.4503173828125 247.72496032714844 341.9926452636719 253.95066833496094 340.6220703125 259.4101257324219 C 347.3734130859375 261.04144287109375 354.8999938964844 263.23046875 364.7691955566406 264.2876892089844 C 365.4710693359375 258.27386474609375 365.0008239746094 251.33065795898438 364.937744140625 244.45237731933594" stroke-width="0.0" fill="rgb(98, 93, 91)" opacity="0.99379027" stroke="rgb(0, 0, 0)" stroke-opacity="1.0" stroke-linecap="round" stroke-linejoin="round"/>
    <path d="M 338.5311584472656 -3.53358793258667 C 343.9801025390625 -3.3288683891296387 337.2132873535156 -4.067652225494385 330.408447265625 -14.3501615524292 C 335.1385803222656 77.37071228027344 323.9142150878906 159.65896606445312 333.9755554199219 225.77542114257812 C 341.9875183105469 159.59136962890625 335.9033203125 74.6977310180664 338.5311584472656 -3.53358793258667" stroke-width="0.0" fill="rgb(173, 168, 165)" opacity="0.9337183" stroke="rgb(0, 0, 0)" stroke-opacity="1.0" stroke-linecap="round" stroke-linejoin="round"/>
    <path d="M 231.42434692382812 455.66839599609375 C 237.61325073242188 465.9792785644531 248.80667114257812 471.764404296875 252.58285522460938 484.9178161621094 C 255.56558227539062 490.3507080078125 254.8939666748047 499.4796447753906 253.26358032226562 519.1845092773438 C 258.9861755371094 517.991455078125 264.413330078125 519.03271484375 265.62353515625 514.7137451171875 C 273.73651123046875 498.8863525390625 269.05419921875 478.9134216308594 266.46295166015625 460.3149719238281 C 263.39727783203125 456.3213195800781 260.58050537109375 453.2302551269531 257.2210388183594 451.8256530761719 C 250.4434814453125 448.5049133300781 240.08221435546875 452.5919189453125 231.42434692382812 455.66839599609375" stroke-width="0.0" fill="rgb(122, 117, 114)" opacity="0.9900912" stroke="rgb(0, 0, 0)" stroke-opacity="1.0" stroke-linecap="round" stroke-linejoin="round"/>
    <path d="M 374.7052917480469 -6.651793479919434 C 382.7428283691406 -1.5601239204406738 380.3457946777344 4.753631591796875 380.08929443359375 -16.313264846801758 C 376.2108154296875 74.08039855957031 379.857666015625 165.80796813964844 372.14019775390625 248.5539093017578 C 367.38873291015625 151.43194580078125 373.6661682128906 70.91730499267578 374.7052917480469 -6.651793479919434" stroke-width="0.0" fill="rgb(161, 156, 153)" opacity="0.987001" stroke="rgb(0, 0, 0)" stroke-opacity="1.0" stroke-linecap="round" stroke-linejoin="round"/>
    <path d="M 278.2235107421875 275.4145812988281 C 274.0726013183594 281.7420959472656 273.9087829589844 293.20672607421875 275.97467041015625 294.7655944824219 C 286.8615417480469 309.5720520019531 292.854248046875 326.18798828125 312.12091064453125 335.49285888671875 C 313.1689758300781 319.75030517578125 304.17657470703125 310.21160888671875 303.7991943359375 297.5941162109375 C 294.3691101074219 290.2025146484375 286.0584411621094 283.93048095703125 278.2235107421875 275.4145812988281" stroke-width="0.0" fill="rgb(35, 35, 34)" opacity="0.9837513" stroke="rgb(0, 0, 0)" stroke-opacity="1.0" stroke-linecap="round" stroke-linejoin="round"/>
    <path d="M 206.82339477539062 60.83795166015625 C 200.60821533203125 66.96373748779297 202.6579132080078 68.00447845458984 208.8794403076172 83.18549346923828 C 213.23941040039062 85.94860076904297 220.80050659179688 89.60822296142578 229.76272583007812 86.47871398925781 C 238.3986358642578 80.20184326171875 235.0853271484375 72.20724487304688 232.25697326660156 55.04585647583008 C 215.0881805419922 55.284332275390625 214.0431671142578 54.34927749633789 206.82339477539062 60.83795166015625" stroke-width="0.0" fill="rgb(241, 239, 237)" opacity="1.0078019" stroke="rgb(0, 0, 0)" stroke-opacity="1.0" stroke-linecap="round" stroke-linejoin="round"/>
    <path d="M 490.4688415527344 342.6647033691406 C 489.2874450683594 348.74755859375 497.1533508300781 349.175048828125 497.9879150390625 357.07147216796875 C 498.2503967285156 365.8283386230469 492.5672912597656 373.24591064453125 498.39459228515625 388.8028869628906 C 498.800537109375 390.6718444824219 504.9496154785156 394.03253173828125 518.53271484375 396.90185546875 C 519.8026733398438 380.58868408203125 518.716552734375 361.68414306640625 515.650634765625 337.4106140136719 C 501.9212646484375 348.3646545410156 505.4102478027344 346.07354736328125 490.4688415527344 342.6647033691406" stroke-width="0.0" fill="rgb(14, 14, 14)" opacity="0.9663341" stroke="rgb(0, 0, 0)" stroke-opacity="1.0" stroke-linecap="round" stroke-linejoin="round"/>
    <path d="M 472.51190185546875 486.16973876953125 C 469.3499755859375 489.5556335449219 468.8836975097656 491.7986145019531 472.98126220703125 496.0059814453125 C 485.0980529785156 500.2369079589844 497.5617370605469 505.1521301269531 516.2637329101562 512.451171875 C 520.6343994140625 508.5965881347656 518.974365234375 500.583251953125 518.0455322265625 492.12554931640625 C 499.6495361328125 489.0731506347656 488.2709045410156 484.80584716796875 476.06787109375 480.5298156738281 C 477.8156433105469 482.1111755371094 469.5511779785156 477.747802734375 472.51190185546875 486.16973876953125" stroke-width="0.0" fill="rgb(45, 42, 40)" opacity="0.98692596" stroke="rgb(0, 0, 0)" stroke-opacity="1.0" stroke-linecap="round" stroke-linejoin="round"/>
    <path d="M 357.2520751953125 296.7597961425781 C 356.1044921875 298.07025146484375 341.3636474609375 297.8139343261719 341.5138854980469 299.5238952636719 C 338.20391845703125 318.1018371582031 337.6291198730469 322.12841796875 347.67364501953125 327.2149658203125 C 350.5628662109375 328.0654602050781 358.8245849609375 322.748291015625 364.5093078613281 323.42779541015625 C 364.16363525390625 308.5683288574219 364.2784729003906 300.7810363769531 357.2520751953125 296.7597961425781" stroke-width="0.0" fill="rgb(69, 64, 62)" opacity="0.99684006" stroke="rgb(0, 0, 0)" stroke-opacity="1.0" stroke-linecap="round" stroke-linejoin="round"/>
    <path d="M 228.2230682373047 298.4482116699219 C 223.3486328125 300.5904235839844 211.4104766845703 299.94171142578125 208.34278869628906 299.5783386230469 C 204.23974609375 303.0967712402344 201.5462188720703 310.83013916015625 207.1472625732422 317.75079345703125 C 213.46481323242188 315.9572448730469 222.0027313232422 321.7854919433594 222.54800415039062 321.33056640625 C 232.65200805664062 315.6610412597656 231.41909790039062 310.8760986328125 228.2230682373047 298.4482116699219" stroke-width="0.0" fill="rgb(13, 12, 10)" opacity="0.97381365" stroke="rgb(0, 0, 0)" stroke-opacity="1.0" stroke-linecap="round" stroke-linejoin="round"/>
    <path d="M 393.20269775390625 234.34750366210938 C 387.12261962890625 235.82241821289062 378.25244140625 232.43756103515625 375.7131652832031 237.75765991210938 C 376.01507568359375 244.9468994140625 374.42205810546875 257.8436279296875 376.9039306640625 265.279541015625 C 385.2032775878906 260.6549377441406 387.4053649902344 252.989990234375 395.38653564453125 249.1383056640625 C 394.4422912597656 241.71133422851562 396.863525390625 236.9775848388672 393.20269775390625 234.34750366210938" stroke-width="0.0" fill="rgb(111, 106, 104)" opacity="0.99866116" stroke="rgb(0, 0, 0)" stroke-opacity="1.0" stroke-linecap="round" stroke-linejoin="round"/>
    <path d="M 217.4438018798828 250.5973358154297 C 218.63026428222656 261.4192810058594 216.9256591796875 278.1179504394531 218.65377807617188 284.5622253417969 C 224.05416870117188 289.4481201171875 237.9515380859375 282.0223693847656 236.88670349121094 288.53961181640625 C 247.71534729003906 283.97369384765625 254.36517333984375 282.0148010253906 258.23492431640625 274.33197021484375 C 259.9814147949219 264.686279296875 255.95529174804688 257.6642761230469 255.47862243652344 248.6246337890625 C 241.01881408691406 249.1910400390625 227.7855987548828 248.0476837158203 217.4438018798828 250.5973358154297" stroke-width="0.0" fill="rgb(137, 132, 129)" opacity="1.0011381" stroke="rgb(0, 0, 0)" stroke-opacity="1.0" stroke-linecap="round" stroke-linejoin="round"/>
    <path d="M 243.65528869628906 390.9058837890625 C 244.38845825195312 401.2151184082031 247.64794921875 411.2911682128906 250.81715393066406 418.24468994140625 C 261.0376892089844 419.52288818359375 275.6167907714844 418.802734375 272.9338684082031 414.2693786621094 C 309.7046813964844 430.00921630859375 349.908935546875 441.0483703613281 392.4354553222656 451.4296875 C 393.9167175292969 443.405517578125 393.6036682128906 435.9459228515625 393.7897644042969 430.29595947265625 C 341.8135070800781 417.77880859375 292.33807373046875 405.8288269042969 243.65528869628906 390.9058837890625" stroke-width="0.0" fill="rgb(36, 36, 34)" opacity="0.97647274" stroke="rgb(0, 0, 0)" stroke-opacity="1.0" stroke-linecap="round" stroke-linejoin="round"/>
    <path d="M 144.0778350830078 441.70086669921875 C 136.25437927246094 436.94921875 123.27735900878906 435.3077087402344 112.54956817626953 443.5552978515625 C 110.61383056640625 449.7062072753906 102.85902404785156 455.74700927734375 101.46800994873047 465.24786376953125 C 107.8294677734375 469.76007080078125 112.87448120117188 473.87530517578125 119.28751373291016 477.9685363769531 C 127.60248565673828 479.03369140625 130.15509033203125 472.8240966796875 137.3096160888672 474.49603271484375 C 141.4884033203125 470.5021667480469 144.97573852539062 467.550048828125 147.08998107910156 462.10626220703125 C 148.0560302734375 451.5887756347656 147.1487579345703 446.69232177734375 144.0778350830078 441.70086669921875" stroke-width="0.0" fill="rgb(114, 109, 107)" opacity="0.9942456" stroke="rgb(0, 0, 0)" stroke-opacity="1.0" stroke-linecap="round" stroke-linejoin="round"/>
    <path d="M 494.1207580566406 191.64468383789062 C 497.343017578125 194.87095642089844 498.02044677734375 203.05105590820312 488.48089599609375 206.79745483398438 C 488.8794860839844 220.41702270507812 506.86846923828125 213.48060607910156 508.4517822265625 230.7818145751953 C 508.6789245605469 237.3390655517578 501.43426513671875 247.5323486328125 500.3605651855469 257.65118408203125 C 500.88214111328125 261.01629638671875 504.5802307128906 259.75244140625 518.209228515625 260.0437316894531 C 517.91015625 235.70779418945312 517.8745727539062 212.35577392578125 518.0391235351562 189.84130859375 C 508.3800964355469 187.8268585205078 502.9565734863281 188.73121643066406 494.1207580566406 191.64468383789062" stroke-width="0.0" fill="rgb(173, 168, 165)" opacity="1.0023118" stroke="rgb(0, 0, 0)" stroke-opacity="1.0" stroke-linecap="round" stroke-linejoin="round"/>
    <path d="M 492.31109619140625 -1.704622745513916 C 490.6125793457031 11.654495239257812 493.1884460449219 21.627479553222656 492.9670104980469 34.30790328979492 C 495.2850036621094 37.93668746948242 501.3004455566406 34.80906295776367 516.997802734375 34.34227752685547 C 517.02978515625 22.893024444580078 517.0306396484375 11.482987403869629 517.0720825195312 -0.1511702537536621 C 504.6638488769531 -0.3032110035419464 498.3003845214844 -0.8603149652481079 492.31109619140625 -1.704622745513916" stroke-width="0.0" fill="rgb(202, 197, 194)" opacity="1.0027912" stroke="rgb(0, 0, 0)" stroke-opacity="1.0" stroke-linecap="round" stroke-linejoin="round"/>
    <path d="M 116.83277130126953 442.19085693359375 C 100.6243667602539 440.4045715332031 92.04158782958984 442.0791931152344 82.81480407714844 445.7131042480469 C 75.994384765625 447.07073974609375 74.02257537841797 447.83843994140625 76.56754302978516 455.2182312011719 C 79.22755432128906 461.7552490234375 83.71063995361328 467.39495849609375 94.04776000976562 469.47869873046875 C 103.41009521484375 462.45269775390625 105.8757095336914 450.1193542480469 116.83277130126953 442.19085693359375" stroke-width="0.0" fill="rgb(128, 123, 121)" opacity="1.0143714" stroke="rgb(0, 0, 0)" stroke-opacity="1.0" stroke-linecap="round" stroke-linejoin="round"/>
    <path d="M 79.02849578857422 520.4580078125 C 73.4773941040039 501.9653625488281 72.73049926757812 496.54595947265625 68.40982055664062 491.97772216796875 C 55.45887756347656 496.4637145996094 41.016414642333984 494.86126708984375 38.23518371582031 502.133056640625 C 32.89094924926758 500.9639587402344 34.692962646484375 509.54461669921875 35.20454406738281 521.3643798828125 C 55.64828109741211 521.5099487304688 70.09227752685547 521.6626586914062 79.02849578857422 520.4580078125" stroke-width="0.0" fill="rgb(184, 179, 176)" opacity="0.9736777" stroke="rgb(0, 0, 0)" stroke-opacity="1.0" stroke-linecap="round" stroke-linejoin="round"/>
    <path d="M 485.1095275878906 457.7060241699219 C 482.5601501464844 457.2237548828125 481.53472900390625 463.7042541503906 483.9692077636719 469.493408203125 C 487.61334228515625 468.46728515625 483.5099182128906 461.4480895996094 491.1990051269531 464.9429931640625 C 488.6561279296875 474.3214111328125 498.98443603515625 463.1736145019531 500.359619140625 476.0962829589844 C 496.6732482910156 485.40576171875 496.6610412597656 482.47125244140625 502.1311340332031 486.5487365722656 C 500.8172302246094 489.4983825683594 496.7034606933594 486.2249755859375 493.81634521484375 490.0439147949219 C 504.7528381347656 491.85546875 505.3267517089844 488.8145751953125 515.8948364257812 503.203857421875 C 517.6696166992188 484.6815185546875 517.6402587890625 473.5147705078125 517.019287109375 462.8689880371094 C 502.0946350097656 460.388671875 493.5755920410156 456.7275390625 485.1095275878906 457.7060241699219" stroke-width="0.0" fill="rgb(73, 70, 67)" opacity="0.96278787" stroke="rgb(0, 0, 0)" stroke-opacity="1.0" stroke-linecap="round" stroke-linejoin="round"/>
    <path d="M 278.78887939453125 279.3794860839844 C 295.298828125 282.3462219238281 299.7349853515625 290.166259765625 309.0417175292969 297.77496337890625 C 320.9664001464844 302.6061706542969 313.9409484863281 295.3777770996094 320.84735107421875 293.3871154785156 C 314.17767333984375 286.85992431640625 307.4444580078125 281.8125305175781 303.02490234375 275.0498352050781 C 296.23651123046875 277.8369140625 284.4110107421875 275.1290588378906 278.78887939453125 279.3794860839844" stroke-width="0.0" fill="rgb(138, 135, 133)" opacity="0.99862605" stroke="rgb(0, 0, 0)" stroke-opacity="1.0" stroke-linecap="round" stroke-linejoin="round"/>
    <path d="M 79.98347473144531 429.6837463378906 C 97.84471130371094 436.1877136230469 106.09628295898438 438.8508605957031 132.99220275878906 436.5155944824219 C 135.8411102294922 429.5086364746094 141.4301300048828 423.7256774902344 148.79786682128906 416.5665588378906 C 159.624755859375 415.3468322753906 162.74485778808594 417.9644775390625 161.80743408203125 407.88470458984375 C 148.81576538085938 408.40069580078125 139.30186462402344 399.1518249511719 126.42662811279297 396.6863098144531 C 120.9349594116211 399.2624816894531 118.5575942993164 403.4900207519531 118.88990783691406 413.7476806640625 C 116.76862335205078 404.70672607421875 116.59015655517578 396.9879150390625 117.43896484375 398.496337890625 C 110.45235443115234 392.15203857421875 107.2755355834961 395.5090637207031 99.300048828125 397.5263671875 C 98.0893325805664 390.3165283203125 102.03810119628906 405.0277099609375 99.03707122802734 407.69317626953125 C 95.12024688720703 401.7112121582031 96.7325439453125 393.93377685546875 88.7490463256836 397.5255432128906 C 86.29090118408203 406.5125732421875 83.17937469482422 419.3317565917969 79.98347473144531 429.6837463378906" stroke-width="0.0" fill="rgb(176, 170, 168)" opacity="0.974258" stroke="rgb(0, 0, 0)" stroke-opacity="1.0" stroke-linecap="round" stroke-linejoin="round"/>
    <path d="M 282.9925231933594 236.9747772216797 C 272.5387268066406 241.0801544189453 289.5879821777344 260.0435485839844 271.92620849609375 256.7368469238281 C 268.6925354003906 271.7449645996094 279.7384338378906 263.2416687011719 277.807861328125 273.9502258300781 C 289.4025573730469 268.9683532714844 291.6037902832031 279.71807861328125 298.68792724609375 275.3657531738281 C 302.65863037109375 277.0846252441406 307.9720153808594 273.37066650390625 311.1559143066406 270.9148254394531 C 311.1864013671875 254.80215454101562 304.598876953125 247.202392578125 301.24542236328125 235.7978973388672 C 296.8045959472656 233.39952087402344 290.4352722167969 227.56201171875 282.9925231933594 236.9747772216797" stroke-width="0.0" fill="rgb(171, 166, 165)" opacity="0.9766818" stroke="rgb(0, 0, 0)" stroke-opacity="1.0" stroke-linecap="round" stroke-linejoin="round"/>
    <path d="M 341.6801452636719 261.3036193847656 C 328.2037353515625 259.18609619140625 329.3238830566406 273.22735595703125 315.18896484375 269.93035888671875 C 316.5195617675781 277.6983337402344 319.96002197265625 284.8849182128906 330.7834167480469 289.11151123046875 C 334.7688903808594 282.2572326660156 340.1781311035156 273.89593505859375 341.6801452636719 261.3036193847656" stroke-width="0.0" fill="rgb(135, 130, 127)" opacity="0.98463535" stroke="rgb(0, 0, 0)" stroke-opacity="1.0" stroke-linecap="round" stroke-linejoin="round"/>
    <path d="M 258.7817687988281 394.9874267578125 C 261.0907287597656 407.4022216796875 274.7956237792969 405.8892517089844 284.341796875 411.5378723144531 C 319.8614196777344 423.5345458984375 357.6622314453125 431.9164733886719 391.9413757324219 443.70233154296875 C 393.83367919921875 432.6182861328125 394.8985900878906 431.0643310546875 391.54425048828125 429.1410827636719 C 344.96539306640625 418.48577880859375 301.5406799316406 406.91748046875 258.7817687988281 394.9874267578125" stroke-width="0.0" fill="rgb(69, 68, 66)" opacity="1.0008482" stroke="rgb(0, 0, 0)" stroke-opacity="1.0" stroke-linecap="round" stroke-linejoin="round"/>
    <path d="M 482.81365966796875 454.0599060058594 C 483.3255310058594 461.46124267578125 480.8165283203125 465.58148193359375 485.9427795410156 468.1370544433594 C 493.2221984863281 470.72857666015625 502.23486328125 471.695068359375 517.121337890625 475.99859619140625 C 519.2450561523438 465.69659423828125 519.5804443359375 461.0935974121094 514.4893188476562 461.9288024902344 C 501.5528259277344 458.47998046875 491.511474609375 457.2955017089844 482.81365966796875 454.0599060058594" stroke-width="0.0" fill="rgb(98, 95, 93)" opacity="0.99082875" stroke="rgb(0, 0, 0)" stroke-opacity="1.0" stroke-linecap="round" stroke-linejoin="round"/>
  </g>
</svg>
