<?xml version="1.0" ?>
<svg xmlns="http://www.w3.org/2000/svg" version="1.1" width="512" height="512">
  <defs/>
  <g>
    <path d="M -2.481236457824707 -1.0107452869415283 C -2.502963066101074 170.3333282470703 -2.7063441276550293 340.6666564941406 -3.2628040313720703 518.4616088867188 C 170.19192504882812 518.5093383789062 340.95635986328125 518.5608520507812 518.45703125 518.4149780273438 C 519.0781860351562 339.1106262207031 520.2800903320312 168.56480407714844 520.0040283203125 -2.876664876937866 C 340.6666564941406 -0.3462495505809784 170.3333282470703 -0.031790558248758316 -2.481236457824707 -1.0107452869415283" stroke-width="0.0" fill="rgb(90, 86, 84)" opacity="1.0322022" stroke="rgb(0, 0, 0)" stroke-opacity="1.0" stroke-linecap="round" stroke-linejoin="round"/>
    <path d="M 193.2391357421875 -10.510056495666504 C 187.19602966308594 72.24701690673828 191.96307373046875 136.81687927246094 191.11151123046875 218.19886779785156 C 201.4940185546875 231.2901153564453 196.67437744140625 272.799560546875 200.1468963623047 308.64422607421875 C 219.896240234375 297.7116394042969 242.05149841308594 294.08721923828125 253.49586486816406 278.0675964355469 C 262.7126159667969 267.279052734375 249.91375732421875 246.44821166992188 263.54852294921875 233.11941528320312 C 274.42730712890625 221.8222198486328 298.5917663574219 222.5172882080078 317.4415283203125 210.14830017089844 C 342.80712890625 208.19454956054688 340.8150939941406 231.4380340576172 364.42645263671875 231.67330932617188 C 362.7582092285156 246.73336791992188 367.9565734863281 252.50013732910156 371.8984375 260.00531005859375 C 372.26641845703125 268.5303039550781 379.5705871582031 263.23358154296875 388.2627258300781 264.07025146484375 C 383.25579833984375 268.3584899902344 385.2537841796875 271.0346374511719 383.7716064453125 278.58709716796875 C 387.2250671386719 282.57562255859375 385.13031005859375 289.92791748046875 394.6918029785156 288.93218994140625 C 394.36639404296875 270.1418762207031 400.156982421875 246.3172607421875 403.79364013671875 213.7161407470703 C 404.5736389160156 145.5111846923828 407.06787109375 75.97254943847656 406.7626953125 -6.699949264526367 C 337.2534484863281 -6.922882080078125 264.5949401855469 -6.744668960571289 193.2391357421875 -10.510056495666504" stroke-width="0.0" fill="rgb(83, 79, 76)" opacity="0.817058" stroke="rgb(0, 0, 0)" stroke-opacity="1.0" stroke-linecap="round" stroke-linejoin="round"/>
    <path d="M 109.01656341552734 262.1382751464844 C 98.93177032470703 267.7328186035156 93.88662719726562 281.9859313964844 86.43374633789062 293.2167053222656 C 83.56956481933594 300.0652770996094 83.55986022949219 314.2214050292969 82.43418884277344 319.5129089355469 C 77.01277160644531 331.6657409667969 61.9190559387207 328.24835205078125 54.064369201660156 335.855224609375 C 47.61215591430664 341.1701354980469 41.961456298828125 348.89166259765625 37.788902282714844 358.657958984375 C 28.790281295776367 385.4464111328125 26.12639808654785 420.8321838378906 10.628671646118164 440.7100830078125 C 13.354475975036621 462.91314697265625 10.079495429992676 478.8536682128906 14.451889038085938 489.52984619140625 C 19.447124481201172 498.8189697265625 34.28810119628906 499.6419982910156 38.15703582763672 520.6487426757812 C 107.38679504394531 521.1336059570312 189.62420654296875 520.5109252929688 268.41314697265625 520.3771362304688 C 271.58599853515625 491.13616943359375 268.14544677734375 474.121337890625 263.3659362792969 458.42633056640625 C 250.64773559570312 422.2608947753906 240.146728515625 386.54931640625 222.04627990722656 355.7604064941406 C 209.34950256347656 342.4321594238281 189.87271118164062 338.84942626953125 176.2454833984375 329.5635070800781 C 168.98243713378906 320.5950927734375 171.654541015625 305.1946105957031 167.31069946289062 290.2420959472656 C 162.74575805664062 281.6373596191406 159.02328491210938 271.4785461425781 152.35528564453125 265.4121398925781 C 145.23684692382812 259.86981201171875 139.91819763183594 256.9508972167969 130.08169555664062 256.3376159667969 C 120.94664764404297 254.67974853515625 114.28121948242188 259.04437255859375 109.01656341552734 262.1382751464844" stroke-width="0.0" fill="rgb(27, 25, 23)" opacity="0.9876724" stroke="rgb(0, 0, 0)" stroke-opacity="1.0" stroke-linecap="round" stroke-linejoin="round"/>
    <path d="M 488.02105712890625 -7.821577548980713 C 458.6867980957031 -7.581697463989258 432.9853820800781 -7.512675762176514 410.7205810546875 -2.4621455669403076 C 408.2435302734375 23.275890350341797 413.3916931152344 43.050498962402344 413.17095947265625 56.16072463989258 C 410.0557556152344 153.25949096679688 406.8696594238281 249.32785034179688 402.07391357421875 325.79034423828125 C 392.40533447265625 362.0863342285156 400.31829833984375 420.3072509765625 399.2956237792969 471.9798583984375 C 408.2388610839844 473.9004821777344 423.3844299316406 471.63836669921875 431.1361999511719 489.4707336425781 C 440.6147766113281 482.5264892578125 446.5476379394531 481.2778015136719 461.2800598144531 480.5405578613281 C 472.84869384765625 474.03369140625 472.92864990234375 459.54339599609375 478.86279296875 446.5469665527344 C 483.1434631347656 300.5976257324219 485.47283935546875 151.65106201171875 488.02105712890625 -7.821577548980713" stroke-width="0.0" fill="rgb(70, 66, 64)" opacity="1.000282" stroke="rgb(0, 0, 0)" stroke-opacity="1.0" stroke-linecap="round" stroke-linejoin="round"/>
    <path d="M 161.35484313964844 -1.3735918998718262 C 127.92933654785156 -5.15679931640625 100.95548248291016 -6.587828159332275 75.799072265625 -5.949281692504883 C 75.83196258544922 102.7007064819336 79.81959533691406 201.4901580810547 77.23472595214844 310.08734130859375 C 86.48236846923828 285.279296875 94.21666717529297 269.8514099121094 110.9446792602539 259.41436767578125 C 118.11351013183594 255.93014526367188 121.9973373413086 253.82176208496094 134.20138549804688 255.60972595214844 C 141.54864501953125 256.0306091308594 146.2048797607422 260.627685546875 158.8880157470703 263.9708557128906 C 157.1716766357422 179.0472869873047 157.8995361328125 90.7199935913086 161.35484313964844 -1.3735918998718262" stroke-width="0.0" fill="rgb(126, 120, 120)" opacity="0.77649266" stroke="rgb(0, 0, 0)" stroke-opacity="1.0" stroke-linecap="round" stroke-linejoin="round"/>
    <path d="M 230.05087280273438 356.099853515625 C 242.81817626953125 393.1507263183594 254.5921630859375 430.1346740722656 267.19805908203125 465.3878479003906 C 270.9278869628906 481.9708251953125 270.7375183105469 496.49932861328125 273.5589294433594 519.2814331054688 C 312.79888916015625 519.085693359375 348.0386047363281 518.8842163085938 389.37591552734375 518.6476440429688 C 393.8440856933594 490.8512878417969 392.1337890625 459.7740173339844 391.61260986328125 430.0173645019531 C 372.47296142578125 425.7874755859375 348.8773193359375 420.1993103027344 333.15435791015625 415.13079833984375 C 325.3763122558594 394.0994567871094 330.08673095703125 368.921142578125 320.74346923828125 354.3009033203125 C 298.9512939453125 349.3631591796875 289.0271301269531 333.693359375 278.3251647949219 334.2434387207031 C 244.64044189453125 332.76849365234375 248.44342041015625 349.4306335449219 230.05087280273438 356.099853515625" stroke-width="0.0" fill="rgb(48, 45, 44)" opacity="1.0150714" stroke="rgb(0, 0, 0)" stroke-opacity="1.0" stroke-linecap="round" stroke-linejoin="round"/>
    <path d="M 393.2939147949219 313.7454833984375 C 374.2527160644531 288.31439208984375 358.0006103515625 259.28851318359375 345.9449768066406 228.87478637695312 C 334.9554748535156 224.07003784179688 339.8353576660156 211.55621337890625 318.0502624511719 214.7478485107422 C 300.83306884765625 224.02870178222656 276.7550048828125 227.3158721923828 266.11279296875 233.96250915527344 C 255.2410888671875 244.1514129638672 261.45391845703125 264.7466125488281 258.8158264160156 275.0883483886719 C 250.01113891601562 290.6683654785156 238.5570068359375 296.27716064453125 217.67921447753906 303.17694091796875 C 207.56492614746094 308.9128112792969 208.41702270507812 321.13812255859375 208.14190673828125 336.9758605957031 C 209.4750518798828 341.5539245605469 217.5814208984375 349.2564392089844 225.3243408203125 353.6726379394531 C 241.4285888671875 352.735595703125 242.49952697753906 335.2513427734375 248.0181121826172 330.7627868652344 C 265.7104797363281 333.0458984375 278.43798828125 334.15411376953125 284.9638366699219 334.6823425292969 C 298.34259033203125 343.552978515625 314.2457580566406 353.2403869628906 338.25299072265625 356.314208984375 C 356.44647216796875 346.5735168457031 367.6440124511719 332.4422607421875 388.58056640625 325.5518493652344 C 391.2898254394531 322.36041259765625 393.23309326171875 319.61834716796875 393.2939147949219 313.7454833984375" stroke-width="0.0" fill="rgb(30, 30, 29)" opacity="1.0615684" stroke="rgb(0, 0, 0)" stroke-opacity="1.0" stroke-linecap="round" stroke-linejoin="round"/>
    <path d="M 488.31781005859375 -4.63920783996582 C 485.211181640625 149.02243041992188 483.3679504394531 302.25244140625 479.5860595703125 449.775146484375 C 478.51934814453125 469.4653625488281 478.8163146972656 477.2557067871094 467.41937255859375 486.47271728515625 C 494.2652587890625 483.90606689453125 509.8624572753906 489.9127502441406 519.7911987304688 495.3776550292969 C 520.6173095703125 342.20367431640625 519.3003540039062 171.10589599609375 518.6365966796875 -1.5512751340866089 C 503.3261413574219 -0.32463303208351135 495.6059265136719 -1.778599500656128 488.31781005859375 -4.63920783996582" stroke-width="0.0" fill="rgb(80, 77, 75)" opacity="1.021871" stroke="rgb(0, 0, 0)" stroke-opacity="1.0" stroke-linecap="round" stroke-linejoin="round"/>
    <path d="M 77.28544616699219 -9.487639427185059 C 63.14309310913086 -6.487829685211182 53.218082427978516 -7.02086877822876 47.83177947998047 -9.198698043823242 C 48.053199768066406 110.9738998413086 47.60690689086914 224.8557586669922 49.519718170166016 336.291748046875 C 58.19144058227539 327.57122802734375 68.73653411865234 329.43743896484375 78.4614028930664 320.15496826171875 C 78.40758514404297 220.72254943847656 75.75298309326172 111.75959777832031 77.28544616699219 -9.487639427185059" stroke-width="0.0" fill="rgb(121, 117, 114)" opacity="0.89978176" stroke="rgb(0, 0, 0)" stroke-opacity="1.0" stroke-linecap="round" stroke-linejoin="round"/>
    <path d="M 157.31686401367188 -8.195199966430664 C 159.77244567871094 86.47708129882812 157.5040740966797 167.5411834716797 157.9391326904297 261.5190124511719 C 156.20742797851562 268.00665283203125 166.0961151123047 272.7916564941406 168.55728149414062 279.8890686035156 C 173.9468994140625 297.3284606933594 171.1892852783203 324.7576599121094 181.75552368164062 320.952880859375 C 186.48329162597656 217.83718872070312 188.92843627929688 108.66434478759766 187.9163818359375 -9.006982803344727 C 180.34939575195312 -6.739293098449707 168.52235412597656 -6.404524803161621 157.31686401367188 -8.195199966430664" stroke-width="0.0" fill="rgb(111, 106, 105)" opacity="0.95123535" stroke="rgb(0, 0, 0)" stroke-opacity="1.0" stroke-linecap="round" stroke-linejoin="round"/>
    <path d="M 395.2580871582031 324.9361877441406 C 367.1864013671875 330.9411315917969 355.3277587890625 348.1976623535156 334.13824462890625 359.15789794921875 C 334.1602783203125 369.9825744628906 327.8652038574219 374.3692932128906 330.0746154785156 389.3269958496094 C 331.5816345214844 399.9401550292969 330.4130554199219 407.6865539550781 336.28466796875 413.8876647949219 C 351.7756652832031 419.0751647949219 369.6410827636719 425.1572265625 392.8387451171875 427.9815979003906 C 392.6678466796875 393.4695739746094 397.00921630859375 359.34344482421875 395.2580871582031 324.9361877441406" stroke-width="0.0" fill="rgb(37, 35, 34)" opacity="1.0232784" stroke="rgb(0, 0, 0)" stroke-opacity="1.0" stroke-linecap="round" stroke-linejoin="round"/>
    <path d="M -5.705725193023682 340.9244689941406 C -6.786955833435059 397.7389221191406 -7.140829563140869 453.3664245605469 -7.442334175109863 519.4475708007812 C 10.786702156066895 519.83056640625 24.60806655883789 520.7863159179688 37.50767135620117 516.291015625 C 27.787109375 500.1517333984375 11.424692153930664 497.0182800292969 9.654539108276367 474.8407287597656 C 14.092824935913086 438.9600830078125 26.544708251953125 403.74444580078125 33.67390441894531 364.3945007324219 C 28.328779220581055 353.217529296875 12.474242210388184 348.7696838378906 -5.705725193023682 340.9244689941406" stroke-width="0.0" fill="rgb(21, 20, 19)" opacity="1.0228084" stroke="rgb(0, 0, 0)" stroke-opacity="1.0" stroke-linecap="round" stroke-linejoin="round"/>
    <path d="M 516.5814208984375 491.39141845703125 C 482.2046813964844 484.30145263671875 472.4182434082031 479.4948425292969 500.31158447265625 487.6214294433594 C 485.63165283203125 484.8551940917969 466.59881591796875 482.46624755859375 461.40966796875 492.8081359863281 C 449.5080871582031 485.807373046875 429.88623046875 487.08111572265625 423.0160827636719 478.56878662109375 C 412.580810546875 477.09564208984375 409.9447021484375 478.7489929199219 404.4854736328125 480.63433837890625 C 398.79754638671875 487.163330078125 393.19317626953125 499.1849670410156 394.7383117675781 521.0335083007812 C 431.1320495605469 520.615234375 470.7459716796875 519.8847045898438 520.8969116210938 520.5184936523438 C 521.0158081054688 494.68756103515625 521.098876953125 478.3479919433594 516.5814208984375 491.39141845703125" stroke-width="0.0" fill="rgb(46, 44, 41)" opacity="1.0289159" stroke="rgb(0, 0, 0)" stroke-opacity="1.0" stroke-linecap="round" stroke-linejoin="round"/>
    <path d="M 376.83892822265625 283.9524841308594 C 369.0384216308594 282.2027282714844 374.0391845703125 291.101806640625 373.4630432128906 299.2809753417969 C 378.49700927734375 303.2908630371094 386.12811279296875 305.9682922363281 391.3398742675781 311.4892272949219 C 396.94818115234375 311.0803527832031 395.7594909667969 299.6767883300781 393.9129943847656 288.9568176269531 C 388.4791259765625 288.9111022949219 380.79681396484375 282.9693603515625 376.83892822265625 283.9524841308594" stroke-width="0.0" fill="rgb(110, 109, 105)" opacity="0.9722427" stroke="rgb(0, 0, 0)" stroke-opacity="1.0" stroke-linecap="round" stroke-linejoin="round"/>
    <path d="M 14.035478591918945 307.96875 C 12.257323265075684 317.0009765625 12.924911499023438 329.2577209472656 11.230856895446777 340.6047668457031 C 11.940503120422363 345.21832275390625 17.857440948486328 346.1326904296875 23.92545509338379 349.9730224609375 C 23.267955780029297 335.4564208984375 30.114221572875977 337.8136291503906 26.559036254882812 314.72918701171875 C 26.752138137817383 310.43963623046875 20.018356323242188 307.104248046875 14.035478591918945 307.96875" stroke-width="0.0" fill="rgb(133, 127, 126)" opacity="0.99960357" stroke="rgb(0, 0, 0)" stroke-opacity="1.0" stroke-linecap="round" stroke-linejoin="round"/>
    <path d="M 332.7072448730469 -8.19247817993164 C 280.0173034667969 -8.568015098571777 232.15809631347656 -8.994549751281738 187.19830322265625 -7.918356895446777 C 193.6242218017578 6.323419094085693 195.80355834960938 14.648760795593262 193.79864501953125 28.41419792175293 C 196.94529724121094 62.41627883911133 194.652587890625 80.49095916748047 189.05007934570312 95.71341705322266 C 202.72193908691406 164.19293212890625 196.49095153808594 240.78358459472656 202.4618682861328 303.54351806640625 C 224.45977783203125 297.9691162109375 241.8287811279297 292.6396789550781 253.27532958984375 278.73602294921875 C 259.4707946777344 271.56707763671875 254.13906860351562 245.24282836914062 266.070068359375 229.90975952148438 C 283.25030517578125 222.7648468017578 307.9353942871094 214.45689392089844 331.5901794433594 206.57493591308594 C 330.35723876953125 136.8777618408203 331.76739501953125 68.06616973876953 332.7072448730469 -8.19247817993164" stroke-width="0.0" fill="rgb(136, 130, 127)" opacity="0.96579146" stroke="rgb(0, 0, 0)" stroke-opacity="1.0" stroke-linecap="round" stroke-linejoin="round"/>
    <path d="M 333.237060546875 -8.080399513244629 C 333.15716552734375 69.45281982421875 329.0457458496094 139.1868896484375 331.5316162109375 209.41616821289062 C 339.5366516113281 214.78564453125 345.61224365234375 225.10400390625 354.8941345214844 227.2561492919922 C 368.2272033691406 229.46031188964844 385.4804382324219 232.06698608398438 400.71051025390625 228.13990783691406 C 400.8087158203125 226.73403930664062 398.4754333496094 217.3614501953125 403.3931884765625 207.9755401611328 C 402.89996337890625 136.1367950439453 407.22418212890625 67.88727569580078 409.2386779785156 -6.5792555809021 C 383.8243408203125 -6.611286163330078 359.6181335449219 -6.978242874145508 333.237060546875 -8.080399513244629" stroke-width="0.0" fill="rgb(144, 139, 136)" opacity="0.9907326" stroke="rgb(0, 0, 0)" stroke-opacity="1.0" stroke-linecap="round" stroke-linejoin="round"/>
    <path d="M 244.82107543945312 395.6834716796875 C 250.2384490966797 420.7119445800781 260.1596984863281 442.5843200683594 267.3663024902344 466.7965087890625 C 270.5376892089844 480.50579833984375 272.152587890625 496.1718444824219 272.9978942871094 519.6771240234375 C 312.667724609375 519.050537109375 352.3320617675781 519.0413208007812 393.36846923828125 519.347900390625 C 394.4334411621094 484.59136962890625 391.94366455078125 456.9611511230469 392.7730712890625 431.07879638671875 C 343.5816650390625 416.4930419921875 288.51239013671875 413.4691467285156 244.82107543945312 395.6834716796875" stroke-width="0.0" fill="rgb(21, 21, 20)" opacity="1.009663" stroke="rgb(0, 0, 0)" stroke-opacity="1.0" stroke-linecap="round" stroke-linejoin="round"/>
    <path d="M 122.95664978027344 255.8214111328125 C 111.58069610595703 258.4482116699219 106.52794647216797 263.8287658691406 100.90249633789062 269.1340637207031 C 95.33513641357422 277.1593322753906 91.13941955566406 285.9063720703125 86.30174255371094 291.7886962890625 C 83.65831756591797 300.59210205078125 82.96015930175781 314.2422790527344 82.769287109375 323.68212890625 C 91.33387756347656 341.56976318359375 91.90505981445312 366.72723388671875 102.24140930175781 382.65325927734375 C 110.251220703125 391.6611633300781 118.09349060058594 393.4773864746094 136.90484619140625 392.10986328125 C 150.08245849609375 387.816650390625 160.77081298828125 379.6368103027344 170.7216033935547 371.8755798339844 C 176.85206604003906 365.8614501953125 181.63983154296875 362.0263366699219 183.25682067871094 352.137939453125 C 179.2535400390625 349.5706787109375 175.37518310546875 353.4392395019531 178.90008544921875 346.7207336425781 C 171.0363006591797 335.6287841796875 172.8678741455078 314.85589599609375 167.97032165527344 291.129638671875 C 164.55197143554688 285.00799560546875 161.57061767578125 276.7480773925781 156.8065643310547 270.2339172363281 C 153.2783203125 263.8426513671875 147.087158203125 261.2369689941406 140.88108825683594 258.3323059082031 C 134.12879943847656 256.741943359375 129.90078735351562 255.34674072265625 122.95664978027344 255.8214111328125" stroke-width="0.0" fill="rgb(30, 29, 27)" opacity="1.1117934" stroke="rgb(0, 0, 0)" stroke-opacity="1.0" stroke-linecap="round" stroke-linejoin="round"/>
    <path d="M 228.28395080566406 480.14764404296875 C 227.02606201171875 469.2125244140625 221.99981689453125 467.30426025390625 217.6229705810547 463.59112548828125 C 211.04257202148438 457.6604309082031 191.62290954589844 463.68475341796875 191.64366149902344 455.3016357421875 C 186.6962432861328 441.4540710449219 183.8509521484375 427.9453430175781 177.32176208496094 421.92205810546875 C 165.36468505859375 421.8607482910156 162.86485290527344 430.52606201171875 156.41644287109375 435.8092041015625 C 149.23654174804688 448.5343017578125 143.2362060546875 461.9801940917969 141.33180236816406 471.4090270996094 C 126.34712219238281 476.2174987792969 119.25759887695312 479.75030517578125 112.7723617553711 473.84234619140625 C 101.44075775146484 471.7826843261719 93.27989196777344 468.3401794433594 86.5987319946289 464.6693115234375 C 78.54772186279297 462.0526123046875 77.7172622680664 445.0230712890625 67.83831787109375 434.25921630859375 C 65.7490463256836 438.7577819824219 61.223323822021484 446.773193359375 60.79945755004883 452.93402099609375 C 65.30421447753906 471.8075256347656 72.0199203491211 490.339599609375 79.18959045410156 519.2803344726562 C 127.69202423095703 519.2455444335938 178.34326171875 519.3616943359375 233.04348754882812 519.0419921875 C 225.22073364257812 497.6134338378906 230.37631225585938 487.1897888183594 228.28395080566406 480.14764404296875" stroke-width="0.0" fill="rgb(23, 22, 21)" opacity="0.9971952" stroke="rgb(0, 0, 0)" stroke-opacity="1.0" stroke-linecap="round" stroke-linejoin="round"/>
    <path d="M 488.25750732421875 -4.488471984863281 C 486.3930969238281 108.98385620117188 484.65936279296875 217.84959411621094 485.2610168457031 325.704833984375 C 491.6426086425781 327.7545166015625 483.69195556640625 343.42242431640625 488.4789123535156 338.6786804199219 C 496.8859558105469 344.8631591796875 506.2768249511719 345.0436706542969 522.0568237304688 343.9561767578125 C 522.4713134765625 236.1326446533203 522.2626953125 121.05455780029297 521.9048461914062 -5.269793510437012 C 505.5931396484375 -6.059566497802734 496.0826721191406 -5.691567897796631 488.25750732421875 -4.488471984863281" stroke-width="0.0" fill="rgb(100, 95, 93)" opacity="0.91609955" stroke="rgb(0, 0, 0)" stroke-opacity="1.0" stroke-linecap="round" stroke-linejoin="round"/>
    <path d="M 92.5341567993164 391.47735595703125 C 79.03538513183594 396.7756042480469 71.8508529663086 409.62213134765625 71.14798736572266 425.32513427734375 C 72.97908020019531 432.4412841796875 75.9167709350586 448.7091064453125 80.03472137451172 459.23455810546875 C 87.53611755371094 468.2287292480469 99.30116271972656 471.682861328125 111.552978515625 474.95892333984375 C 125.37739562988281 478.5790100097656 131.90806579589844 475.6210021972656 141.4405517578125 470.37811279296875 C 148.05039978027344 455.8530578613281 149.69703674316406 439.8500671386719 164.85177612304688 423.76953125 C 168.38299560546875 416.842041015625 163.74745178222656 415.6352233886719 164.5379638671875 410.5564880371094 C 156.531005859375 407.2709045410156 154.0664520263672 400.0756530761719 142.64303588867188 398.29595947265625 C 109.82750701904297 399.265625 106.93830871582031 386.8070373535156 92.5341567993164 391.47735595703125" stroke-width="0.0" fill="rgb(76, 71, 70)" opacity="0.81453234" stroke="rgb(0, 0, 0)" stroke-opacity="1.0" stroke-linecap="round" stroke-linejoin="round"/>
    <path d="M 225.15191650390625 356.3580017089844 C 231.48599243164062 369.0306396484375 236.4405975341797 383.1473388671875 244.38218688964844 393.8096923828125 C 269.24945068359375 403.0085144042969 296.96484375 413.23162841796875 330.6080017089844 415.6018981933594 C 330.1545104980469 391.3567199707031 326.6597900390625 362.405517578125 324.4906005859375 354.2341613769531 C 299.75018310546875 347.4812316894531 287.9211120605469 336.1753845214844 278.66302490234375 334.09375 C 265.3175048828125 334.2464599609375 262.3172302246094 333.4795837402344 253.21701049804688 336.1317138671875 C 242.33250427246094 343.20953369140625 240.16168212890625 353.4684143066406 225.15191650390625 356.3580017089844" stroke-width="0.0" fill="rgb(103, 98, 98)" opacity="0.95755506" stroke="rgb(0, 0, 0)" stroke-opacity="1.0" stroke-linecap="round" stroke-linejoin="round"/>
    <path d="M 77.33248138427734 -2.2527153491973877 C 70.61150360107422 -2.7243707180023193 64.63015747070312 -4.821823596954346 60.16692352294922 -14.122702598571777 C 68.85431671142578 130.54214477539062 55.31364440917969 216.06460571289062 59.385047912597656 327.6669921875 C 69.94000244140625 328.39276123046875 75.39413452148438 325.7886657714844 78.02185821533203 318.22119140625 C 78.40907287597656 204.36785888671875 75.94243621826172 101.03468322753906 77.33248138427734 -2.2527153491973877" stroke-width="0.0" fill="rgb(24, 23, 21)" opacity="0.9776295" stroke="rgb(0, 0, 0)" stroke-opacity="1.0" stroke-linecap="round" stroke-linejoin="round"/>
    <path d="M 320.7071228027344 219.57408142089844 C 303.3794860839844 221.46237182617188 295.03863525390625 231.42103576660156 286.01605224609375 230.598388671875 C 284.5050964355469 240.86643981933594 278.87701416015625 246.0648651123047 275.34637451171875 253.3915252685547 C 275.159423828125 263.6236572265625 275.4510192871094 272.0697937011719 278.9407653808594 276.8430480957031 C 288.6935729980469 285.3189697265625 296.8693542480469 291.6228942871094 307.2379455566406 296.5717468261719 C 321.5299072265625 299.4147033691406 317.78955078125 293.3953857421875 328.2335510253906 286.6920166015625 C 333.8074951171875 284.4436340332031 337.5709228515625 279.2254943847656 340.3150329589844 271.11456298828125 C 341.0176086425781 262.4953308105469 339.8724365234375 247.55062866210938 336.2840270996094 239.20596313476562 C 337.651611328125 229.16302490234375 327.2955017089844 225.5402069091797 320.7071228027344 219.57408142089844" stroke-width="0.0" fill="rgb(71, 67, 65)" opacity="0.76113284" stroke="rgb(0, 0, 0)" stroke-opacity="1.0" stroke-linecap="round" stroke-linejoin="round"/>
    <path d="M 154.3614044189453 -8.431949615478516 C 157.8410186767578 84.2030029296875 154.8756561279297 172.83175659179688 153.53854370117188 257.27362060546875 C 157.87115478515625 265.4824523925781 160.763427734375 274.64678955078125 169.43482971191406 281.91552734375 C 168.44459533691406 187.2765350341797 171.04103088378906 92.74006652832031 170.20176696777344 -7.979757308959961 C 166.40408325195312 -5.942558765411377 161.0792999267578 -5.825154781341553 154.3614044189453 -8.431949615478516" stroke-width="0.0" fill="rgb(46, 44, 42)" opacity="1.0018623" stroke="rgb(0, 0, 0)" stroke-opacity="1.0" stroke-linecap="round" stroke-linejoin="round"/>
    <path d="M 333.94818115234375 366.1704406738281 C 331.4787292480469 373.0777893066406 327.36260986328125 398.7301940917969 334.1257629394531 413.0268859863281 C 348.8444519042969 419.4227600097656 368.6511535644531 424.63232421875 391.450439453125 427.5776672363281 C 394.2826232910156 420.4681396484375 393.08831787109375 396.30682373046875 394.1615295410156 379.33966064453125 C 374.1510009765625 375.6462707519531 355.9477844238281 371.2125244140625 333.94818115234375 366.1704406738281" stroke-width="0.0" fill="rgb(12, 12, 11)" opacity="1.0012381" stroke="rgb(0, 0, 0)" stroke-opacity="1.0" stroke-linecap="round" stroke-linejoin="round"/>
    <path d="M 394.7939758300781 324.68731689453125 C 381.18487548828125 326.5118408203125 374.685546875 335.8092346191406 365.4522399902344 333.9866638183594 C 352.9426574707031 353.20220947265625 345.1816711425781 354.9509582519531 323.1399841308594 362.6977233886719 C 351.2471923828125 370.4840087890625 370.1966247558594 374.40185546875 393.7933349609375 380.151123046875 C 394.5241394042969 356.36346435546875 398.7656555175781 342.13043212890625 394.7939758300781 324.68731689453125" stroke-width="0.0" fill="rgb(109, 105, 102)" opacity="0.7239901" stroke="rgb(0, 0, 0)" stroke-opacity="1.0" stroke-linecap="round" stroke-linejoin="round"/>
    <path d="M 241.36709594726562 297.10748291015625 C 232.9679718017578 296.1287841796875 226.68882751464844 299.8882751464844 220.82174682617188 301.08563232421875 C 214.11647033691406 303.4676208496094 209.84219360351562 307.4104309082031 208.398681640625 311.6722412109375 C 207.00318908691406 322.1952209472656 205.6138153076172 333.3436279296875 208.12200927734375 341.759765625 C 212.51063537597656 346.0527648925781 217.6764373779297 351.0873718261719 224.9677734375 355.16839599609375 C 231.97447204589844 354.6455078125 238.3607635498047 352.43597412109375 238.47323608398438 349.47735595703125 C 244.30162048339844 342.8138427734375 243.760986328125 334.74114990234375 247.8596649169922 327.27203369140625 C 242.32015991210938 319.65533447265625 245.09458923339844 306.43853759765625 241.36709594726562 297.10748291015625" stroke-width="0.0" fill="rgb(24, 24, 23)" opacity="0.97573906" stroke="rgb(0, 0, 0)" stroke-opacity="1.0" stroke-linecap="round" stroke-linejoin="round"/>
    <path d="M -3.5106770992279053 490.7489318847656 C -2.0051872730255127 497.55126953125 -2.9907970428466797 504.22589111328125 -4.555674076080322 518.1707153320312 C 13.093354225158691 519.1056518554688 26.09845733642578 521.1746215820312 34.37423324584961 516.086669921875 C 31.746660232543945 499.5891418457031 17.80561637878418 502.3487854003906 11.115349769592285 486.6473693847656 C 5.77944803237915 487.43048095703125 4.376247406005859 490.6546325683594 -3.5106770992279053 490.7489318847656" stroke-width="0.0" fill="rgb(58, 55, 53)" opacity="1.00261" stroke="rgb(0, 0, 0)" stroke-opacity="1.0" stroke-linecap="round" stroke-linejoin="round"/>
    <path d="M 385.3730163574219 257.0946350097656 C 380.1463623046875 263.9900207519531 373.28839111328125 263.87066650390625 374.8420715332031 274.2304382324219 C 376.6734619140625 281.107421875 382.2159423828125 285.71173095703125 393.1861877441406 285.4326171875 C 395.20831298828125 280.8627624511719 394.9132385253906 269.46417236328125 395.2572326660156 263.58428955078125 C 391.3414611816406 256.1042175292969 398.59356689453125 256.1889343261719 385.3730163574219 257.0946350097656" stroke-width="0.0" fill="rgb(10, 9, 8)" opacity="1.0049849" stroke="rgb(0, 0, 0)" stroke-opacity="1.0" stroke-linecap="round" stroke-linejoin="round"/>
    <path d="M 441.1870422363281 -7.436344623565674 C 426.9893798828125 -6.147558212280273 416.60809326171875 -4.401895046234131 406.0447692871094 -4.4847822189331055 C 407.7004089355469 159.41856384277344 394.259033203125 309.0198059082031 394.2674560546875 443.0575866699219 C 398.01983642578125 482.56036376953125 397.1700439453125 464.9134216308594 403.845458984375 469.44537353515625 C 408.8193054199219 474.62567138671875 420.55841064453125 469.8406677246094 418.32769775390625 473.13800048828125 C 420.5104675292969 470.25628662109375 422.0502014160156 462.1299743652344 422.8800964355469 461.83306884765625 C 426.9053649902344 313.79290771484375 429.3890075683594 160.49542236328125 430.7952575683594 2.4817214012145996 C 428.2381286621094 -5.656471252441406 434.856689453125 -0.3742842376232147 441.1870422363281 -7.436344623565674" stroke-width="0.0" fill="rgb(37, 34, 32)" opacity="0.685402" stroke="rgb(0, 0, 0)" stroke-opacity="1.0" stroke-linecap="round" stroke-linejoin="round"/>
    <path d="M 201.8570098876953 344.0175476074219 C 187.8914794921875 368.7453308105469 164.4092254638672 376.266845703125 146.57247924804688 393.0705871582031 C 159.01107788085938 404.08160400390625 172.7840576171875 406.95465087890625 182.351318359375 422.9407653808594 C 186.4871826171875 431.2140197753906 189.5233154296875 444.78802490234375 191.53736877441406 457.45916748046875 C 196.2686004638672 463.087890625 202.72409057617188 458.7709045410156 218.79238891601562 460.29168701171875 C 221.0577392578125 461.66961669921875 228.793212890625 464.9947814941406 232.13607788085938 475.2918395996094 C 239.37135314941406 490.4189453125 223.0226287841797 490.57666015625 235.5291748046875 514.118896484375 C 247.8306121826172 519.7981567382812 258.60198974609375 519.4249267578125 267.3851623535156 517.1729736328125 C 273.2424621582031 499.5120544433594 268.50299072265625 488.6163330078125 267.45928955078125 470.4426574707031 C 253.3306121826172 434.66644287109375 243.28097534179688 393.08819580078125 225.17066955566406 360.3288879394531 C 220.31283569335938 353.8017578125 213.74160766601562 345.9078369140625 201.8570098876953 344.0175476074219" stroke-width="0.0" fill="rgb(162, 156, 154)" opacity="1.0120722" stroke="rgb(0, 0, 0)" stroke-opacity="1.0" stroke-linecap="round" stroke-linejoin="round"/>
    <path d="M 480.2416076660156 456.88543701171875 C 483.3138732910156 470.60028076171875 472.423828125 477.2099609375 468.59149169921875 491.5230407714844 C 480.2247314453125 499.04229736328125 496.40948486328125 503.4236145019531 516.2239379882812 513.16845703125 C 520.4808349609375 496.594970703125 520.736572265625 479.98004150390625 520.7994995117188 460.0052795410156 C 502.8802490234375 461.204833984375 493.764892578125 453.82891845703125 480.2416076660156 456.88543701171875" stroke-width="0.0" fill="rgb(55, 52, 51)" opacity="1.004687" stroke="rgb(0, 0, 0)" stroke-opacity="1.0" stroke-linecap="round" stroke-linejoin="round"/>
    <path d="M 288.236572265625 229.52745056152344 C 274.148193359375 224.44032287597656 264.83514404296875 232.28350830078125 259.1949157714844 236.81358337402344 C 257.0747985839844 252.25656127929688 257.45733642578125 268.42938232421875 260.9743957519531 277.4779968261719 C 268.5122375488281 280.45672607421875 270.06817626953125 276.8920593261719 275.751953125 271.59783935546875 C 270.2115783691406 254.35264587402344 283.7542419433594 246.15872192382812 288.236572265625 229.52745056152344" stroke-width="0.0" fill="rgb(13, 12, 12)" opacity="0.99543047" stroke="rgb(0, 0, 0)" stroke-opacity="1.0" stroke-linecap="round" stroke-linejoin="round"/>
    <path d="M 519.8590087890625 342.50311279296875 C 505.9061584472656 345.26092529296875 502.81805419921875 347.2146911621094 499.7877502441406 351.4458923339844 C 498.0899658203125 359.06536865234375 490.93035888671875 368.309814453125 490.9996032714844 373.84564208984375 C 487.92938232421875 390.6937255859375 493.9483337402344 392.6555480957031 499.6143798828125 395.5100402832031 C 496.83111572265625 396.2981872558594 504.2291259765625 394.762451171875 519.1338500976562 399.3309020996094 C 519.610107421875 375.0559387207031 520.6389770507812 356.8301696777344 519.8590087890625 342.50311279296875" stroke-width="0.0" fill="rgb(25, 23, 22)" opacity="0.9832627" stroke="rgb(0, 0, 0)" stroke-opacity="1.0" stroke-linecap="round" stroke-linejoin="round"/>
    <path d="M 308.5150146484375 221.118408203125 C 332.72491455078125 217.44883728027344 327.2630615234375 235.6745147705078 340.7422180175781 238.61851501464844 C 351.66119384765625 229.34580993652344 340.984375 220.7190704345703 336.8597412109375 215.03614807128906 C 325.65423583984375 208.48338317871094 310.33154296875 209.5716094970703 308.5150146484375 221.118408203125" stroke-width="0.0" fill="rgb(12, 9, 7)" opacity="0.989368" stroke="rgb(0, 0, 0)" stroke-opacity="1.0" stroke-linecap="round" stroke-linejoin="round"/>
    <path d="M 154.12896728515625 245.6264190673828 C 144.13458251953125 247.54022216796875 130.98321533203125 246.92529296875 110.89602661132812 247.11566162109375 C 106.7316665649414 247.86907958984375 106.8878173828125 259.495849609375 107.07742309570312 257.38848876953125 C 116.6737060546875 259.21917724609375 120.38118743896484 252.52716064453125 125.4102554321289 254.22705078125 C 143.1199493408203 254.84767150878906 145.7307891845703 259.7925109863281 153.2418670654297 264.0456848144531 C 158.8948516845703 257.49658203125 154.17616271972656 253.68252563476562 154.12896728515625 245.6264190673828" stroke-width="0.0" fill="rgb(102, 101, 99)" opacity="0.90901685" stroke="rgb(0, 0, 0)" stroke-opacity="1.0" stroke-linecap="round" stroke-linejoin="round"/>
    <path d="M 100.3193130493164 -8.948820114135742 C 102.06686401367188 83.92852783203125 98.59951782226562 168.70179748535156 103.523681640625 246.61630249023438 C 110.45777130126953 255.5456085205078 105.60073852539062 242.21176147460938 108.19790649414062 230.38284301757812 C 104.24369049072266 233.907958984375 110.02055358886719 237.6862335205078 108.67010498046875 249.6455841064453 C 122.3093032836914 245.48887634277344 136.4802703857422 248.889404296875 155.2815704345703 245.9215087890625 C 157.0369415283203 171.56674194335938 152.7485809326172 87.3474349975586 156.39456176757812 -6.101907730102539 C 138.87741088867188 -6.3332390785217285 120.94237518310547 -6.73423433303833 100.3193130493164 -8.948820114135742" stroke-width="0.0" fill="rgb(203, 197, 196)" opacity="0.85450065" stroke="rgb(0, 0, 0)" stroke-opacity="1.0" stroke-linecap="round" stroke-linejoin="round"/>
    <path d="M 80.3418197631836 327.4444274902344 C 72.30265045166016 328.9610290527344 63.551631927490234 330.8951110839844 60.33047866821289 332.0732116699219 C 52.83901596069336 336.7742004394531 43.481319427490234 346.5375061035156 38.76089096069336 351.7008972167969 C 30.237775802612305 380.493896484375 30.20654296875 410.3181457519531 16.508831024169922 426.3561706542969 C 19.746980667114258 448.64080810546875 7.4954118728637695 454.8661804199219 11.121633529663086 481.08929443359375 C 15.506230354309082 504.41400146484375 37.73769760131836 494.78839111328125 35.36347579956055 516.1785278320312 C 44.23706817626953 521.75390625 65.39481353759766 521.651123046875 75.83161163330078 520.2738037109375 C 72.23536682128906 484.3604736328125 63.36481475830078 467.77508544921875 58.3228645324707 451.953369140625 C 63.23140335083008 432.1106872558594 68.79277801513672 415.87274169921875 73.34097290039062 402.8340148925781 C 79.7606430053711 392.3044738769531 86.76895904541016 389.9956359863281 94.66275024414062 383.6692810058594 C 92.7121810913086 360.88623046875 87.2606430053711 342.9424743652344 80.3418197631836 327.4444274902344" stroke-width="0.0" fill="rgb(164, 158, 156)" opacity="0.9858654" stroke="rgb(0, 0, 0)" stroke-opacity="1.0" stroke-linecap="round" stroke-linejoin="round"/>
    <path d="M 99.91659545898438 -6.574881076812744 C 91.33363342285156 -3.259049415588379 83.27485656738281 -4.891834259033203 76.77342224121094 -4.90725040435791 C 77.32984924316406 98.33076477050781 76.12491607666016 197.67208862304688 79.91431427001953 292.6119079589844 C 87.86721801757812 282.5792541503906 93.39055633544922 268.9007568359375 100.38680267333984 262.1363525390625 C 101.71887969970703 171.46559143066406 99.719970703125 86.78864288330078 99.91659545898438 -6.574881076812744" stroke-width="0.0" fill="rgb(195, 190, 188)" opacity="0.9266156" stroke="rgb(0, 0, 0)" stroke-opacity="1.0" stroke-linecap="round" stroke-linejoin="round"/>
    <path d="M 309.70849609375 273.80328369140625 C 311.69012451171875 286.41357421875 321.795654296875 288.61083984375 314.61468505859375 301.1887512207031 C 322.896484375 305.971435546875 328.6085205078125 314.58935546875 336.6832580566406 320.06512451171875 C 340.36810302734375 322.9888000488281 344.5610656738281 325.69287109375 352.3900451660156 326.9447021484375 C 358.5016174316406 323.96466064453125 367.2586669921875 324.4489440917969 369.63983154296875 317.8232727050781 C 372.0065612792969 314.23077392578125 374.14019775390625 310.32061767578125 376.3260498046875 302.9527587890625 C 366.2349548339844 293.63470458984375 380.4024353027344 278.3665466308594 365.11181640625 266.4803466796875 C 360.0456237792969 266.56024169921875 350.8230285644531 261.14825439453125 340.626708984375 260.29388427734375 C 339.9773864746094 274.1044921875 336.3345031738281 285.06915283203125 326.2878723144531 286.7344970703125 C 314.8731384277344 287.1268615722656 317.8971862792969 274.3895568847656 309.70849609375 273.80328369140625" stroke-width="0.0" fill="rgb(57, 54, 53)" opacity="0.9426313" stroke="rgb(0, 0, 0)" stroke-opacity="1.0" stroke-linecap="round" stroke-linejoin="round"/>
    <path d="M 394.85247802734375 497.2096862792969 C 393.197509765625 498.61712646484375 394.8573913574219 506.8736572265625 393.6241149902344 519.4141235351562 C 434.6211853027344 519.7029418945312 475.2870178222656 521.42431640625 516.9081420898438 513.9578247070312 C 481.3151550292969 497.70184326171875 449.4066162109375 488.05340576171875 417.9532775878906 478.2969970703125 C 413.2018127441406 476.2563171386719 408.5155029296875 480.11053466796875 404.6476745605469 481.3619079589844 C 401.17047119140625 486.7697448730469 395.6407470703125 489.119384765625 394.85247802734375 497.2096862792969" stroke-width="0.0" fill="rgb(51, 49, 47)" opacity="1.0188117" stroke="rgb(0, 0, 0)" stroke-opacity="1.0" stroke-linecap="round" stroke-linejoin="round"/>
    <path d="M 343.0047302246094 259.41033935546875 C 352.5785217285156 262.2783508300781 364.4595642089844 264.8794860839844 372.751953125 269.92266845703125 C 378.32135009765625 263.7832336425781 386.1158142089844 257.5595703125 394.0995178222656 252.84124755859375 C 395.8861083984375 250.82212829589844 394.8529052734375 240.95973205566406 394.97576904296875 233.68130493164062 C 377.5715026855469 230.1740264892578 360.33709716796875 235.86856079101562 348.18035888671875 232.42327880859375 C 343.33758544921875 240.13980102539062 341.8256530761719 246.3447723388672 343.0047302246094 259.41033935546875" stroke-width="0.0" fill="rgb(98, 92, 91)" opacity="1.0159427" stroke="rgb(0, 0, 0)" stroke-opacity="1.0" stroke-linecap="round" stroke-linejoin="round"/>
    <path d="M 258.5260925292969 281.27191162109375 C 253.89044189453125 284.841552734375 251.6732635498047 291.0226745605469 251.635009765625 296.00653076171875 C 249.20399475097656 317.97271728515625 250.7554931640625 324.0599365234375 258.701171875 336.0799255371094 C 260.6641540527344 336.4602355957031 272.4779968261719 329.8940124511719 289.2817077636719 335.32220458984375 C 297.6392822265625 347.254638671875 307.08203125 348.97564697265625 327.025146484375 353.4172668457031 C 324.5335998535156 334.8802795410156 332.1522521972656 317.07623291015625 319.8313903808594 302.2932434082031 C 304.25836181640625 295.29632568359375 290.291748046875 285.27154541015625 278.0123291015625 274.25103759765625 C 271.422607421875 280.1190490722656 266.41131591796875 274.0284423828125 258.5260925292969 281.27191162109375" stroke-width="0.0" fill="rgb(8, 8, 7)" opacity="0.97280157" stroke="rgb(0, 0, 0)" stroke-opacity="1.0" stroke-linecap="round" stroke-linejoin="round"/>
    <path d="M 485.786376953125 422.8827819824219 C 483.6612548828125 433.2530212402344 483.7972106933594 442.1527099609375 480.8057556152344 454.4163818359375 C 491.0010070800781 456.7017517089844 501.5547790527344 458.37237548828125 517.0186767578125 461.6481018066406 C 519.982421875 456.968505859375 521.0424194335938 447.5350646972656 510.31109619140625 440.50103759765625 C 502.0963439941406 434.1841125488281 487.6456298828125 436.966552734375 485.786376953125 422.8827819824219" stroke-width="0.0" fill="rgb(17, 17, 17)" opacity="1.0051801" stroke="rgb(0, 0, 0)" stroke-opacity="1.0" stroke-linecap="round" stroke-linejoin="round"/>
    <path d="M 325.88861083984375 361.5338439941406 C 322.2208557128906 370.45758056640625 323.6039123535156 379.92913818359375 331.5557861328125 385.7749938964844 C 331.64508056640625 378.35504150390625 330.3291931152344 365.66204833984375 345.99530029296875 370.9404602050781 C 344.71728515625 367.4271240234375 336.72137451171875 364.1496276855469 325.88861083984375 361.5338439941406" stroke-width="0.0" fill="rgb(50, 48, 47)" opacity="1.026498" stroke="rgb(0, 0, 0)" stroke-opacity="1.0" stroke-linecap="round" stroke-linejoin="round"/>
    <path d="M 470.84832763671875 -3.618812322616577 C 453.99493408203125 -8.204741477966309 438.2867736816406 -8.374246597290039 430.4692687988281 -8.949661254882812 C 429.48602294921875 162.11732482910156 426.5914306640625 320.13531494140625 422.63385009765625 475.1302490234375 C 424.1263732910156 477.7615051269531 431.27020263671875 480.56988525390625 441.57373046875 483.66107177734375 C 446.8506164550781 330.5121154785156 444.0260314941406 162.2412109375 454.0361328125 5.803022861480713 C 456.73126220703125 11.596124649047852 461.5959777832031 18.87040901184082 460.2602844238281 31.435077667236328 C 462.14691162109375 19.18695831298828 461.8677673339844 9.652788162231445 462.29608154296875 4.6956305503845215 C 474.6368103027344 1.8393224477767944 480.2276611328125 8.888625144958496 470.84832763671875 -3.618812322616577" stroke-width="0.0" fill="rgb(121, 116, 113)" opacity="0.92963713" stroke="rgb(0, 0, 0)" stroke-opacity="1.0" stroke-linecap="round" stroke-linejoin="round"/>
    <path d="M 451.59857177734375 369.9916076660156 C 436.8191223144531 389.4155578613281 449.11639404296875 431.0004577636719 441.4248352050781 482.60107421875 C 445.22509765625 486.0792541503906 453.84283447265625 488.2904357910156 461.8142395019531 488.02911376953125 C 470.3302307128906 485.4793701171875 474.4266662597656 480.1253662109375 479.65576171875 472.77545166015625 C 482.1748046875 455.6587829589844 483.8232421875 436.52386474609375 486.36773681640625 417.19427490234375 C 482.3887634277344 399.8129577636719 481.9419250488281 381.73876953125 470.18267822265625 369.42987060546875 C 460.0483703613281 384.1062316894531 465.716796875 362.8105163574219 451.59857177734375 369.9916076660156" stroke-width="0.0" fill="rgb(34, 33, 32)" opacity="1.022708" stroke="rgb(0, 0, 0)" stroke-opacity="1.0" stroke-linecap="round" stroke-linejoin="round"/>
    <path d="M 395.0487060546875 311.1138000488281 C 383.4688720703125 309.38287353515625 378.0035705566406 305.051513671875 375.1615295410156 300.46551513671875 C 375.798828125 319.23712158203125 361.5226135253906 319.1346740722656 361.6885681152344 332.7013854980469 C 370.58013916015625 337.6480407714844 378.5846862792969 330.6566162109375 388.0364685058594 325.8595886230469 C 388.1319274902344 317.0238952636719 402.3992919921875 329.4076843261719 395.0487060546875 311.1138000488281" stroke-width="0.0" fill="rgb(10, 9, 8)" opacity="1.0188622" stroke="rgb(0, 0, 0)" stroke-opacity="1.0" stroke-linecap="round" stroke-linejoin="round"/>
    <path d="M 525.4419555664062 341.4760437011719 C 521.3011474609375 348.29583740234375 506.62896728515625 347.9742126464844 487.4624328613281 336.52587890625 C 482.6448669433594 339.2716979980469 486.5187072753906 351.0397644042969 484.4734802246094 361.3716735839844 C 488.1390686035156 362.7512512207031 490.15380859375 366.1096496582031 493.2469787597656 368.32794189453125 C 499.24139404296875 355.333984375 500.9584655761719 354.9978332519531 491.6800231933594 345.78790283203125 C 500.9165344238281 348.5081787109375 508.66729736328125 346.9983215332031 518.8142700195312 342.4888610839844 C 519.8085327148438 342.10693359375 520.3576049804688 338.40533447265625 525.4419555664062 341.4760437011719" stroke-width="0.0" fill="rgb(157, 152, 150)" opacity="0.9944036" stroke="rgb(0, 0, 0)" stroke-opacity="1.0" stroke-linecap="round" stroke-linejoin="round"/>
    <path d="M 484.0491638183594 393.3494873046875 C 481.628662109375 397.3739318847656 485.5041198730469 407.9266052246094 484.9052429199219 417.5980224609375 C 484.8911437988281 416.2673034667969 491.4999084472656 416.8265686035156 501.91717529296875 417.0917663574219 C 505.08453369140625 410.880615234375 508.76019287109375 404.950439453125 507.41815185546875 395.7895812988281 C 499.3052062988281 397.11419677734375 491.3365173339844 390.46673583984375 484.0491638183594 393.3494873046875" stroke-width="0.0" fill="rgb(79, 75, 73)" opacity="0.9464076" stroke="rgb(0, 0, 0)" stroke-opacity="1.0" stroke-linecap="round" stroke-linejoin="round"/>
    <path d="M 520.6973266601562 389.34844970703125 C 505.743408203125 396.7885437011719 507.7110290527344 410.0467224121094 503.0010681152344 416.8111572265625 C 501.2323913574219 416.65203857421875 493.22161865234375 419.35137939453125 487.80267333984375 420.8294982910156 C 488.4048156738281 425.073486328125 487.3063659667969 429.9683532714844 488.7316589355469 429.744873046875 C 493.1740417480469 433.43780517578125 500.0457458496094 436.74420166015625 522.2255249023438 440.78546142578125 C 523.1627807617188 434.1819152832031 523.29150390625 419.6147766113281 520.6973266601562 389.34844970703125" stroke-width="0.0" fill="rgb(57, 55, 54)" opacity="1.0073082" stroke="rgb(0, 0, 0)" stroke-opacity="1.0" stroke-linecap="round" stroke-linejoin="round"/>
    <path d="M 485.2232666015625 322.72589111328125 C 486.87567138671875 314.2562255859375 489.1441345214844 305.7102966308594 477.25439453125 312.7967834472656 C 476.47265625 319.4621276855469 468.1355895996094 321.1727600097656 473.3200378417969 329.8408203125 C 470.3924865722656 331.1186828613281 494.8255615234375 328.86566162109375 488.4555358886719 331.7045593261719 C 485.853515625 314.0656433105469 485.57208251953125 304.05560302734375 485.2232666015625 322.72589111328125" stroke-width="0.0" fill="rgb(64, 61, 60)" opacity="0.92652094" stroke="rgb(0, 0, 0)" stroke-opacity="1.0" stroke-linecap="round" stroke-linejoin="round"/>
    <path d="M 110.78209686279297 291.1885986328125 C 105.57756042480469 292.66998291015625 101.22540283203125 297.6867370605469 99.28138732910156 306.73486328125 C 97.86491394042969 318.1087646484375 95.07562255859375 321.1625061035156 99.9024887084961 335.0321350097656 C 101.77934265136719 343.00213623046875 107.03401184082031 348.3506164550781 111.29173278808594 356.0907287597656 C 117.9381332397461 361.7740783691406 119.97599792480469 368.05859375 131.6604766845703 365.785400390625 C 143.20077514648438 362.5129089355469 146.8628387451172 350.04473876953125 153.38372802734375 340.75103759765625 C 160.041748046875 320.6995849609375 156.6398162841797 319.30377197265625 152.33668518066406 303.1015625 C 150.0107879638672 298.548583984375 146.36947631835938 294.5169372558594 141.13339233398438 292.4413757324219 C 130.18397521972656 288.98193359375 121.3285140991211 288.50982666015625 110.78209686279297 291.1885986328125" stroke-width="0.0" fill="rgb(127, 122, 120)" opacity="1.0021665" stroke="rgb(0, 0, 0)" stroke-opacity="1.0" stroke-linecap="round" stroke-linejoin="round"/>
    <path d="M 304.532958984375 520.2294921875 C 324.35174560546875 520.3505859375 346.1858215332031 520.7212524414062 381.07281494140625 518.062744140625 C 364.4561462402344 506.23382568359375 362.3550720214844 496.9486389160156 356.5434265136719 494.34539794921875 C 348.1956787109375 488.4817810058594 342.6763000488281 487.83782958984375 330.9968566894531 485.62567138671875 C 324.6957092285156 486.4796142578125 318.2077941894531 485.31768798828125 313.769775390625 487.44879150390625 C 309.5796813964844 493.8589172363281 305.5350341796875 499.42987060546875 304.532958984375 520.2294921875" stroke-width="0.0" fill="rgb(81, 78, 76)" opacity="1.0004749" stroke="rgb(0, 0, 0)" stroke-opacity="1.0" stroke-linecap="round" stroke-linejoin="round"/>
    <path d="M 256.5690002441406 238.77845764160156 C 237.77760314941406 239.08372497558594 219.22900390625 239.14622497558594 205.5645751953125 242.30923461914062 C 207.36805725097656 260.3742370605469 204.19317626953125 282.97308349609375 205.66412353515625 302.2191162109375 C 214.40338134765625 298.6886901855469 225.03329467773438 299.3714904785156 231.9713897705078 295.81689453125 C 240.28521728515625 289.7409362792969 250.51974487304688 285.60552978515625 257.59991455078125 276.3409118652344 C 261.24395751953125 263.8092346191406 253.82546997070312 254.227783203125 256.5690002441406 238.77845764160156" stroke-width="0.0" fill="rgb(89, 85, 82)" opacity="1.0337116" stroke="rgb(0, 0, 0)" stroke-opacity="1.0" stroke-linecap="round" stroke-linejoin="round"/>
    <path d="M 394.2581481933594 321.8053894042969 C 384.4192810058594 330.1381530761719 371.5672302246094 332.41082763671875 360.0357360839844 339.5386962890625 C 357.02301025390625 340.8935546875 353.2881774902344 346.30328369140625 354.3580322265625 351.3476257324219 C 365.9753723144531 351.5873107910156 378.3772277832031 357.2066650390625 394.3862609863281 358.9516296386719 C 394.9875183105469 354.8542785644531 396.0799255371094 331.04608154296875 394.2581481933594 321.8053894042969" stroke-width="0.0" fill="rgb(203, 199, 197)" opacity="0.9356348" stroke="rgb(0, 0, 0)" stroke-opacity="1.0" stroke-linecap="round" stroke-linejoin="round"/>
    <path d="M 246.75714111328125 393.7703857421875 C 243.86366271972656 415.3096618652344 257.1596374511719 426.5030517578125 259.3363342285156 448.58758544921875 C 289.4287109375 449.0276184082031 320.4346008300781 448.4804992675781 333.1435546875 446.71160888671875 C 359.31658935546875 439.4589538574219 373.43487548828125 449.3775634765625 392.507080078125 453.5564270019531 C 393.5330505371094 449.5364074707031 392.7543029785156 428.6815185546875 392.0532531738281 430.6883239746094 C 342.6850891113281 418.0143127441406 293.86376953125 408.6293640136719 246.75714111328125 393.7703857421875" stroke-width="0.0" fill="rgb(12, 12, 11)" opacity="0.96472913" stroke="rgb(0, 0, 0)" stroke-opacity="1.0" stroke-linecap="round" stroke-linejoin="round"/>
    <path d="M 69.8016128540039 425.0647888183594 C 69.39393615722656 434.2501220703125 72.3959732055664 437.9963684082031 76.7882080078125 441.2731628417969 C 94.5135498046875 439.6443786621094 107.10558319091797 439.6887512207031 121.35096740722656 438.5386962890625 C 132.51370239257812 437.52197265625 139.755859375 428.5340270996094 146.08445739746094 426.3936767578125 C 153.2928466796875 428.9517822265625 155.74354553222656 428.9139709472656 143.314453125 426.1081848144531 C 152.58392333984375 423.9461364746094 169.56517028808594 424.4075622558594 173.54336547851562 422.2912902832031 C 169.5979461669922 406.5758361816406 157.18043518066406 403.7142028808594 143.0047607421875 398.2507019042969 C 124.66998291015625 396.2989501953125 106.86101531982422 390.36358642578125 96.67022705078125 390.77978515625 C 83.29570770263672 390.03411865234375 80.91470336914062 397.3908386230469 75.97063446044922 401.1800842285156 C 72.38607788085938 409.906982421875 69.12035369873047 417.2461242675781 69.8016128540039 425.0647888183594" stroke-width="0.0" fill="rgb(122, 119, 116)" opacity="0.9068569" stroke="rgb(0, 0, 0)" stroke-opacity="1.0" stroke-linecap="round" stroke-linejoin="round"/>
    <path d="M 167.2618408203125 423.28729248046875 C 160.0608367919922 424.3953552246094 153.4002227783203 423.56878662109375 151.14442443847656 421.92108154296875 C 142.0760040283203 426.3695373535156 135.9661407470703 432.68414306640625 129.5608367919922 436.1139831542969 C 116.9375 440.2655334472656 97.78845977783203 439.0109558105469 86.47952270507812 440.2873229980469 C 75.71351623535156 444.03070068359375 73.94917297363281 444.68707275390625 75.08503723144531 452.26373291015625 C 77.64794921875 462.327392578125 80.97891235351562 465.2760009765625 93.32935333251953 469.89031982421875 C 107.38689422607422 469.97406005859375 115.08683776855469 478.8377380371094 124.53733825683594 477.6919860839844 C 136.4579620361328 473.7233581542969 140.610107421875 472.6561584472656 143.91493225097656 467.3908386230469 C 147.49209594726562 462.5100402832031 147.25021362304688 452.2658996582031 148.60174560546875 442.3091125488281 C 152.82571411132812 434.9482116699219 161.32269287109375 429.67694091796875 167.2618408203125 423.28729248046875" stroke-width="0.0" fill="rgb(62, 60, 59)" opacity="1.1262921" stroke="rgb(0, 0, 0)" stroke-opacity="1.0" stroke-linecap="round" stroke-linejoin="round"/>
    <path d="M 305.0270080566406 226.35922241210938 C 301.184326171875 236.93536376953125 308.80633544921875 256.96673583984375 309.4961242675781 280.09759521484375 C 311.94122314453125 281.9299621582031 318.62066650390625 284.4443664550781 324.8728942871094 288.5334777832031 C 332.9849548339844 285.8044738769531 336.4648742675781 281.15380859375 338.8740234375 275.7567138671875 C 341.28472900390625 265.6495056152344 341.70965576171875 253.37245178222656 342.3096008300781 238.45361328125 C 328.43524169921875 241.86123657226562 334.9484558105469 232.81781005859375 328.559326171875 223.0321502685547 C 325.4525451660156 220.80014038085938 305.0707702636719 217.4923858642578 305.0270080566406 226.35922241210938" stroke-width="0.0" fill="rgb(133, 128, 126)" opacity="0.95707244" stroke="rgb(0, 0, 0)" stroke-opacity="1.0" stroke-linecap="round" stroke-linejoin="round"/>
    <path d="M 301.3984375 162.17391967773438 C 281.6386413574219 164.31939697265625 262.7120056152344 163.267578125 246.11083984375 165.80296325683594 C 243.34246826171875 166.37701416015625 243.0433807373047 178.39437866210938 244.87417602539062 190.51918029785156 C 269.7587890625 189.6545867919922 257.2320556640625 205.32391357421875 269.6671447753906 210.7109832763672 C 283.2003173828125 213.42697143554688 282.8643493652344 199.77928161621094 285.8544616699219 193.2768096923828 C 291.3700256347656 190.67762756347656 298.8650817871094 193.9287109375 300.4850158691406 187.0390167236328 C 302.11480712890625 186.02426147460938 300.4819641113281 172.56863403320312 301.3984375 162.17391967773438" stroke-width="0.0" fill="rgb(178, 171, 169)" opacity="1.0016441" stroke="rgb(0, 0, 0)" stroke-opacity="1.0" stroke-linecap="round" stroke-linejoin="round"/>
    <path d="M 285.2571105957031 233.3683624267578 C 272.83929443359375 240.75277709960938 285.7845458984375 249.5585479736328 271.84716796875 257.8623352050781 C 270.1119384765625 263.2713928222656 276.60797119140625 273.0423278808594 281.3440856933594 279.5529479980469 C 291.5252990722656 286.3330078125 296.6414794921875 303.6254577636719 317.68701171875 296.3066101074219 C 304.5677490234375 279.2330017089844 312.1375427246094 256.2464599609375 302.4832458496094 241.6271209716797 C 303.4703063964844 233.7296600341797 294.67022705078125 229.81993103027344 285.2571105957031 233.3683624267578" stroke-width="0.0" fill="rgb(82, 78, 76)" opacity="0.7921742" stroke="rgb(0, 0, 0)" stroke-opacity="1.0" stroke-linecap="round" stroke-linejoin="round"/>
    <path d="M 480.8781433105469 455.4913330078125 C 480.8620300292969 470.6230773925781 477.25140380859375 472.2248840332031 472.3360595703125 481.5461120605469 C 484.7489013671875 485.8179016113281 496.84075927734375 489.4222106933594 518.6781005859375 493.6932067871094 C 519.9260864257812 484.59442138671875 519.7510375976562 474.19134521484375 517.7430419921875 462.16094970703125 C 501.04248046875 459.50115966796875 492.77392578125 454.24200439453125 480.8781433105469 455.4913330078125" stroke-width="0.0" fill="rgb(74, 70, 69)" opacity="0.9580661" stroke="rgb(0, 0, 0)" stroke-opacity="1.0" stroke-linecap="round" stroke-linejoin="round"/>
    <path d="M 331.62841796875 362.01348876953125 C 341.7141418457031 367.68121337890625 357.6078186035156 370.851806640625 373.40631103515625 373.79388427734375 C 388.2550964355469 376.1584777832031 399.3540344238281 377.22882080078125 393.8598327636719 375.4736633300781 C 396.3109436035156 369.4520263671875 394.6600341796875 358.9540100097656 394.83465576171875 360.64208984375 C 379.8426818847656 356.9421081542969 368.0751037597656 357.9064636230469 356.9866943359375 350.7654724121094 C 347.3530578613281 354.0450439453125 338.6498718261719 355.0250244140625 331.62841796875 362.01348876953125" stroke-width="0.0" fill="rgb(178, 173, 171)" opacity="0.9399977" stroke="rgb(0, 0, 0)" stroke-opacity="1.0" stroke-linecap="round" stroke-linejoin="round"/>
    <path d="M 488.0438537597656 213.23764038085938 C 482.36737060546875 216.10549926757812 485.9068603515625 233.9390869140625 484.8579406738281 244.11412048339844 C 490.44122314453125 254.2843475341797 484.8578796386719 251.95350646972656 500.67791748046875 252.1154022216797 C 503.95037841796875 247.69155883789062 506.8612060546875 236.98182678222656 508.59552001953125 225.7371368408203 C 504.14556884765625 218.70213317871094 495.66229248046875 216.54794311523438 488.0438537597656 213.23764038085938" stroke-width="0.0" fill="rgb(41, 37, 35)" opacity="1.0006547" stroke="rgb(0, 0, 0)" stroke-opacity="1.0" stroke-linecap="round" stroke-linejoin="round"/>
    <path d="M 492.0880432128906 -3.0037753582000732 C 488.9164123535156 68.584716796875 488.6668395996094 138.95187377929688 487.61956787109375 210.67747497558594 C 496.3484802246094 219.9469757080078 509.2751159667969 215.7042999267578 513.83544921875 240.7076416015625 C 518.9617919921875 153.27911376953125 519.0368041992188 76.60160827636719 518.8732299804688 -1.1462421417236328 C 504.6195373535156 -2.394944667816162 498.2460632324219 -2.9053056240081787 492.0880432128906 -3.0037753582000732" stroke-width="0.0" fill="rgb(122, 117, 114)" opacity="0.95508486" stroke="rgb(0, 0, 0)" stroke-opacity="1.0" stroke-linecap="round" stroke-linejoin="round"/>
    <path d="M 273.622314453125 14.136747360229492 C 266.9064636230469 48.18717956542969 258.9561767578125 78.5111312866211 247.00741577148438 97.94867706298828 C 260.89141845703125 120.29798126220703 278.7380676269531 130.29110717773438 284.5177307128906 151.33326721191406 C 299.2876892089844 138.1331787109375 297.4127197265625 110.57707977294922 309.69671630859375 113.51211547851562 C 310.267333984375 106.28466033935547 310.0505676269531 85.2701187133789 307.89862060546875 84.00547790527344 C 304.9230041503906 55.51363754272461 284.3680419921875 45.610023498535156 273.622314453125 14.136747360229492" stroke-width="0.0" fill="rgb(90, 85, 82)" opacity="0.99634826" stroke="rgb(0, 0, 0)" stroke-opacity="1.0" stroke-linecap="round" stroke-linejoin="round"/>
    <path d="M 15.554521560668945 450.4564514160156 C 9.830829620361328 459.83465576171875 9.558411598205566 474.39178466796875 12.217917442321777 489.0206604003906 C 15.598915100097656 496.901123046875 25.13007164001465 498.2041015625 33.36874771118164 501.9447021484375 C 36.33663558959961 502.3659362792969 34.69367599487305 506.890380859375 34.683616638183594 520.1982421875 C 47.49634552001953 520.1025390625 63.76436996459961 520.401123046875 77.16886901855469 519.1103515625 C 74.4623794555664 502.98809814453125 72.04605865478516 496.2672424316406 69.77332305908203 489.4248962402344 C 60.81300735473633 486.2465515136719 55.85013961791992 478.9376220703125 53.48530578613281 471.8271789550781 C 51.25920104980469 453.8884582519531 56.5327262878418 454.2143249511719 59.05259704589844 443.4954833984375 C 34.70292282104492 434.2806701660156 33.31022262573242 453.65576171875 15.554521560668945 450.4564514160156" stroke-width="0.0" fill="rgb(170, 164, 161)" opacity="1.0106711" stroke="rgb(0, 0, 0)" stroke-opacity="1.0" stroke-linecap="round" stroke-linejoin="round"/>
    <path d="M 226.4667510986328 360.70330810546875 C 230.2357177734375 369.513916015625 237.04788208007812 377.2489013671875 237.9275665283203 383.7904052734375 C 255.66122436523438 395.1040954589844 272.54388427734375 398.1485595703125 293.5523376464844 403.5959167480469 C 293.4848937988281 384.9593811035156 291.7209777832031 372.1921081542969 290.04229736328125 363.2228088378906 C 282.8447570800781 352.52642822265625 264.1939392089844 353.53826904296875 271.45855712890625 351.0856018066406 C 267.1494445800781 339.9085998535156 274.65771484375 333.4598083496094 286.2671203613281 335.0549621582031 C 271.3342590332031 332.76220703125 266.4293518066406 333.48870849609375 253.6514434814453 340.5438232421875 C 247.74769592285156 358.0853576660156 237.71038818359375 347.8987121582031 226.4667510986328 360.70330810546875" stroke-width="0.0" fill="rgb(141, 136, 134)" opacity="0.9990143" stroke="rgb(0, 0, 0)" stroke-opacity="1.0" stroke-linecap="round" stroke-linejoin="round"/>
    <path d="M 278.9542236328125 345.9220275878906 C 293.05029296875 362.0030517578125 290.7923889160156 376.7137756347656 294.5141296386719 403.77130126953125 C 303.62322998046875 407.5474548339844 316.3238830566406 409.2035217285156 329.8225402832031 415.1160583496094 C 331.3673400878906 383.988525390625 318.2703552246094 373.6463928222656 326.1585388183594 351.4832458496094 C 305.6946716308594 352.77520751953125 296.25048828125 343.3704528808594 278.9542236328125 345.9220275878906" stroke-width="0.0" fill="rgb(122, 118, 115)" opacity="1.0041366" stroke="rgb(0, 0, 0)" stroke-opacity="1.0" stroke-linecap="round" stroke-linejoin="round"/>
    <path d="M 111.83627319335938 258.8265075683594 C 105.31495666503906 267.89202880859375 97.53694915771484 282.2789306640625 97.28815460205078 297.1401062011719 C 101.982666015625 305.0794982910156 100.5824966430664 294.92156982421875 110.00191497802734 292.04583740234375 C 117.37672424316406 288.6836853027344 130.23179626464844 290.05145263671875 144.96591186523438 292.4028015136719 C 150.7924346923828 296.1193542480469 157.53775024414062 306.14776611328125 155.81398010253906 314.8050231933594 C 162.7152862548828 311.2309265136719 161.68507385253906 301.0572204589844 162.5074005126953 286.6348876953125 C 159.23419189453125 278.61279296875 158.5177459716797 272.97882080078125 154.10140991210938 267.7655029296875 C 148.83583068847656 261.9064025878906 144.02015686035156 256.14312744140625 135.10006713867188 253.8988494873047 C 120.86624145507812 253.40821838378906 120.17848205566406 253.71717834472656 111.83627319335938 258.8265075683594" stroke-width="0.0" fill="rgb(18, 16, 14)" opacity="0.9133648" stroke="rgb(0, 0, 0)" stroke-opacity="1.0" stroke-linecap="round" stroke-linejoin="round"/>
    <path d="M 404.67205810546875 486.205810546875 C 425.1920166015625 492.9225769042969 446.2379455566406 502.6103210449219 468.65740966796875 510.4439392089844 C 487.3272399902344 515.0787963867188 499.6529541015625 523.2208862304688 516.6030883789062 513.58251953125 C 481.12481689453125 498.56549072265625 449.2401428222656 488.6876525878906 418.6329650878906 476.6917419433594 C 412.6278991699219 475.9501647949219 408.9124450683594 477.4879150390625 404.67205810546875 486.205810546875" stroke-width="0.0" fill="rgb(82, 79, 76)" opacity="1.0026529" stroke="rgb(0, 0, 0)" stroke-opacity="1.0" stroke-linecap="round" stroke-linejoin="round"/>
    <path d="M 244.4681854248047 -5.290680885314941 C 232.0 -0.015051540918648243 221.0 -1.0527641773223877 208.17327880859375 -5.867502212524414 C 214.006103515625 16.40804100036621 208.00103759765625 44.05660629272461 212.2961883544922 45.48042297363281 C 212.55361938476562 53.951148986816406 222.75247192382812 50.15277099609375 226.18716430664062 51.258087158203125 C 229.70083618164062 42.019126892089844 226.71337890625 30.360382080078125 228.59490966796875 28.375303268432617 C 231.23452758789062 16.682775497436523 236.08543395996094 14.834799766540527 242.20037841796875 14.999818801879883 C 246.15887451171875 12.097939491271973 243.07460021972656 1.5774781703948975 244.4681854248047 -5.290680885314941" stroke-width="0.0" fill="rgb(103, 96, 94)" opacity="0.997791" stroke="rgb(0, 0, 0)" stroke-opacity="1.0" stroke-linecap="round" stroke-linejoin="round"/>
    <path d="M 223.59019470214844 456.91497802734375 C 226.91188049316406 462.3838195800781 235.17262268066406 469.619140625 236.10324096679688 477.8600769042969 C 234.7762908935547 487.61187744140625 234.36221313476562 490.8809814453125 228.19960021972656 490.1520690917969 C 226.48587036132812 502.76910400390625 234.27606201171875 504.6583251953125 236.195556640625 515.9547729492188 C 243.51873779296875 518.545166015625 250.07632446289062 519.6038208007812 255.92437744140625 517.4568481445312 C 254.07284545898438 495.7904052734375 257.37713623046875 482.7224426269531 251.30320739746094 480.7182922363281 C 241.99244689941406 468.4353942871094 238.19839477539062 459.2451477050781 223.59019470214844 456.91497802734375" stroke-width="0.0" fill="rgb(124, 119, 116)" opacity="0.97480345" stroke="rgb(0, 0, 0)" stroke-opacity="1.0" stroke-linecap="round" stroke-linejoin="round"/>
    <path d="M 356.5054016113281 75.79761505126953 C 350.39837646484375 75.8062973022461 347.8480224609375 89.68778991699219 345.9676818847656 99.29234313964844 C 344.5105285644531 102.14741516113281 348.342529296875 111.28258514404297 352.17620849609375 114.17819213867188 C 361.4640197753906 114.39724731445312 361.1022033691406 109.6268310546875 363.3722839355469 101.53894805908203 C 361.72064208984375 90.55104064941406 363.8731689453125 76.08596801757812 356.5054016113281 75.79761505126953" stroke-width="0.0" fill="rgb(118, 113, 110)" opacity="0.999547" stroke="rgb(0, 0, 0)" stroke-opacity="1.0" stroke-linecap="round" stroke-linejoin="round"/>
    <path d="M 365.4500427246094 244.4281463623047 C 358.8927001953125 244.7510986328125 351.4379577636719 245.20233154296875 344.9577331542969 244.6786346435547 C 342.2655029296875 247.2685546875 342.22711181640625 254.11502075195312 340.6329040527344 259.2391357421875 C 347.4518127441406 260.7561340332031 354.89532470703125 263.6351318359375 365.4336853027344 264.37933349609375 C 364.9432373046875 258.4309387207031 364.5868225097656 251.05690002441406 365.4500427246094 244.4281463623047" stroke-width="0.0" fill="rgb(98, 92, 90)" opacity="0.99144465" stroke="rgb(0, 0, 0)" stroke-opacity="1.0" stroke-linecap="round" stroke-linejoin="round"/>
    <path d="M 338.25750732421875 -7.58568811416626 C 345.0886535644531 -3.4711592197418213 337.4991455078125 -4.215644836425781 329.9893493652344 -19.33184814453125 C 335.0384521484375 78.20130920410156 324.8161315917969 165.46714782714844 333.1631774902344 221.35801696777344 C 341.3492431640625 161.7608184814453 336.77685546875 73.70742797851562 338.25750732421875 -7.58568811416626" stroke-width="0.0" fill="rgb(178, 173, 170)" opacity="0.8913276" stroke="rgb(0, 0, 0)" stroke-opacity="1.0" stroke-linecap="round" stroke-linejoin="round"/>
    <path d="M 231.8116912841797 455.4244079589844 C 237.37173461914062 466.3367614746094 248.168212890625 472.4522399902344 252.59471130371094 484.98138427734375 C 255.16445922851562 489.8464660644531 253.20851135253906 499.5231018066406 250.72854614257812 519.9794311523438 C 259.0382385253906 518.3990478515625 264.4892578125 519.5092163085938 264.99493408203125 512.9630126953125 C 274.52801513671875 502.867919921875 268.729736328125 479.6717529296875 266.6142883300781 461.0523986816406 C 263.15667724609375 456.54095458984375 260.92498779296875 453.1977233886719 257.2188415527344 452.030517578125 C 251.21978759765625 448.9792175292969 239.2397918701172 452.05804443359375 231.8116912841797 455.4244079589844" stroke-width="0.0" fill="rgb(123, 117, 115)" opacity="0.9781193" stroke="rgb(0, 0, 0)" stroke-opacity="1.0" stroke-linecap="round" stroke-linejoin="round"/>
    <path d="M 373.81329345703125 -9.164704322814941 C 382.93756103515625 -1.6969741582870483 380.3929138183594 4.844902992248535 379.93255615234375 -18.89056968688965 C 376.4688720703125 72.02262878417969 379.58837890625 167.943603515625 372.3489990234375 245.86538696289062 C 368.130859375 154.4793243408203 373.570068359375 69.36893463134766 373.81329345703125 -9.164704322814941" stroke-width="0.0" fill="rgb(160, 155, 152)" opacity="0.9765107" stroke="rgb(0, 0, 0)" stroke-opacity="1.0" stroke-linecap="round" stroke-linejoin="round"/>
    <path d="M 278.3905029296875 275.2453308105469 C 273.7819519042969 280.71881103515625 274.752197265625 293.40093994140625 275.7187194824219 295.315673828125 C 287.0928039550781 309.1397399902344 292.909912109375 325.2426452636719 312.094482421875 335.4759826660156 C 313.1654357910156 319.5300598144531 304.2942810058594 309.11749267578125 305.1092529296875 296.6568603515625 C 293.8408508300781 290.6361999511719 285.504150390625 284.39996337890625 278.3905029296875 275.2453308105469" stroke-width="0.0" fill="rgb(35, 35, 34)" opacity="0.9833133" stroke="rgb(0, 0, 0)" stroke-opacity="1.0" stroke-linecap="round" stroke-linejoin="round"/>
    <path d="M 206.28897094726562 61.01276779174805 C 199.61627197265625 70.41089630126953 202.7660369873047 65.44026184082031 208.50238037109375 82.92839050292969 C 212.0969696044922 86.08023834228516 221.36227416992188 88.97598266601562 230.11923217773438 86.3526382446289 C 238.42076110839844 79.83318328857422 235.3675079345703 71.34923553466797 232.27037048339844 55.442138671875 C 214.63031005859375 54.77310562133789 216.23606872558594 53.918216705322266 206.28897094726562 61.01276779174805" stroke-width="0.0" fill="rgb(240, 239, 237)" opacity="1.0061665" stroke="rgb(0, 0, 0)" stroke-opacity="1.0" stroke-linecap="round" stroke-linejoin="round"/>
    <path d="M 489.7929382324219 342.4519348144531 C 489.1973571777344 347.76007080078125 497.22430419921875 349.2892761230469 497.90606689453125 358.32354736328125 C 498.15631103515625 365.4786682128906 492.2701110839844 371.6291198730469 498.7471008300781 389.2100524902344 C 498.3765869140625 390.5436096191406 505.04925537109375 394.37701416015625 518.9337158203125 397.3969421386719 C 520.405517578125 380.7002868652344 519.2225952148438 361.7366027832031 516.3339233398438 337.42144775390625 C 500.04559326171875 348.41534423828125 505.0038146972656 346.0122375488281 489.7929382324219 342.4519348144531" stroke-width="0.0" fill="rgb(14, 14, 14)" opacity="0.96179414" stroke="rgb(0, 0, 0)" stroke-opacity="1.0" stroke-linecap="round" stroke-linejoin="round"/>
    <path d="M 472.4864501953125 485.42462158203125 C 469.3879699707031 490.5285949707031 468.7331848144531 492.1275939941406 473.34814453125 496.0197448730469 C 485.1282958984375 500.2019958496094 497.64739990234375 505.0910949707031 516.5537109375 512.4967651367188 C 521.2586059570312 508.7950744628906 519.4658203125 500.6780090332031 518.2013549804688 493.19989013671875 C 499.4484558105469 489.3568115234375 488.0224304199219 484.8975524902344 474.8853454589844 481.1119079589844 C 477.5098571777344 483.4909362792969 468.53265380859375 478.15496826171875 472.4864501953125 485.42462158203125" stroke-width="0.0" fill="rgb(48, 46, 44)" opacity="0.9789114" stroke="rgb(0, 0, 0)" stroke-opacity="1.0" stroke-linecap="round" stroke-linejoin="round"/>
    <path d="M 356.0087585449219 296.3504333496094 C 355.9981689453125 298.6548156738281 341.5087890625 297.5775146484375 341.3841247558594 299.30023193359375 C 338.40399169921875 317.88446044921875 338.2779541015625 321.64788818359375 348.0517578125 327.5382080078125 C 349.1024475097656 327.9039306640625 359.3851013183594 323.05511474609375 364.6910400390625 322.941162109375 C 363.415283203125 308.3353271484375 364.4348449707031 300.1361389160156 356.0087585449219 296.3504333496094" stroke-width="0.0" fill="rgb(68, 64, 62)" opacity="0.99541956" stroke="rgb(0, 0, 0)" stroke-opacity="1.0" stroke-linecap="round" stroke-linejoin="round"/>
    <path d="M 228.0179443359375 298.463134765625 C 223.3899383544922 301.050537109375 210.70367431640625 299.8348388671875 208.03225708007812 299.5145263671875 C 204.24575805664062 303.7366027832031 200.4466094970703 312.52972412109375 207.7198944091797 317.3362121582031 C 213.88609313964844 317.2178039550781 223.50662231445312 321.73712158203125 221.66856384277344 321.2689514160156 C 232.47779846191406 316.7247009277344 231.33802795410156 310.4714660644531 228.0179443359375 298.463134765625" stroke-width="0.0" fill="rgb(14, 13, 11)" opacity="0.9657976" stroke="rgb(0, 0, 0)" stroke-opacity="1.0" stroke-linecap="round" stroke-linejoin="round"/>
    <path d="M 393.0439147949219 234.2238006591797 C 386.6189270019531 236.72906494140625 377.2668762207031 232.3962860107422 375.8952331542969 238.03419494628906 C 376.94268798828125 245.0732421875 374.6362609863281 258.48590087890625 376.8497009277344 265.31585693359375 C 384.9974060058594 260.2091369628906 387.2597961425781 253.97828674316406 395.1870422363281 249.12384033203125 C 394.0029602050781 241.52500915527344 397.16259765625 236.56944274902344 393.0439147949219 234.2238006591797" stroke-width="0.0" fill="rgb(111, 106, 104)" opacity="0.9976123" stroke="rgb(0, 0, 0)" stroke-opacity="1.0" stroke-linecap="round" stroke-linejoin="round"/>
    <path d="M 217.57228088378906 251.0645751953125 C 218.77175903320312 261.483154296875 216.65013122558594 279.060546875 218.56512451171875 284.48968505859375 C 223.0619659423828 289.1023864746094 239.75376892089844 282.3306884765625 236.3189697265625 288.93377685546875 C 247.77027893066406 284.0340881347656 253.82192993164062 281.89813232421875 258.39837646484375 274.6453857421875 C 259.7332763671875 265.3765563964844 256.2072448730469 257.5448303222656 255.6707763671875 248.50933837890625 C 240.773681640625 249.20913696289062 227.4873809814453 247.8463592529297 217.57228088378906 251.0645751953125" stroke-width="0.0" fill="rgb(137, 132, 129)" opacity="1.0022037" stroke="rgb(0, 0, 0)" stroke-opacity="1.0" stroke-linecap="round" stroke-linejoin="round"/>
    <path d="M 243.47108459472656 390.9042663574219 C 244.87254333496094 400.0492248535156 248.02783203125 411.5194091796875 250.50900268554688 418.2003173828125 C 261.6378479003906 419.23046875 280.3311767578125 419.42120361328125 272.7122497558594 413.71661376953125 C 309.15228271484375 430.40997314453125 350.07586669921875 440.8709716796875 392.90771484375 451.1868896484375 C 394.81396484375 443.2620849609375 394.99908447265625 436.24505615234375 393.0577392578125 430.09661865234375 C 341.6642761230469 417.7801513671875 292.73675537109375 405.80352783203125 243.47108459472656 390.9042663574219" stroke-width="0.0" fill="rgb(34, 34, 32)" opacity="0.9729946" stroke="rgb(0, 0, 0)" stroke-opacity="1.0" stroke-linecap="round" stroke-linejoin="round"/>
    <path d="M 145.04640197753906 441.8843688964844 C 135.90032958984375 437.50634765625 123.11744689941406 435.37841796875 112.83668518066406 443.7687072753906 C 110.7547607421875 449.84954833984375 102.79762268066406 455.981689453125 101.58209991455078 465.11004638671875 C 107.04595184326172 470.34869384765625 113.16119384765625 473.6053466796875 118.94969177246094 477.9451599121094 C 127.56673431396484 479.0231018066406 130.259033203125 472.35723876953125 137.2233123779297 474.5767517089844 C 141.2624053955078 470.1105651855469 145.2493896484375 467.5898132324219 147.12599182128906 462.6317443847656 C 147.12628173828125 451.31890869140625 147.1137237548828 446.45111083984375 145.04640197753906 441.8843688964844" stroke-width="0.0" fill="rgb(114, 109, 106)" opacity="0.99183124" stroke="rgb(0, 0, 0)" stroke-opacity="1.0" stroke-linecap="round" stroke-linejoin="round"/>
    <path d="M 495.6451416015625 190.9475860595703 C 495.85076904296875 195.82933044433594 498.42633056640625 202.9290313720703 489.0397033691406 206.78750610351562 C 487.1703186035156 219.4154510498047 505.4427795410156 212.84793090820312 508.7350158691406 230.95655822753906 C 507.72833251953125 236.74618530273438 501.1736145019531 248.6757354736328 500.4677429199219 256.8038635253906 C 500.8106994628906 262.2029724121094 503.827392578125 259.4141540527344 518.7040405273438 259.87664794921875 C 518.3670654296875 235.70838928222656 518.330322265625 212.35609436035156 518.6027221679688 189.90953063964844 C 508.77777099609375 188.4200439453125 502.5018310546875 188.65618896484375 495.6451416015625 190.9475860595703" stroke-width="0.0" fill="rgb(173, 168, 165)" opacity="1.0019315" stroke="rgb(0, 0, 0)" stroke-opacity="1.0" stroke-linecap="round" stroke-linejoin="round"/>
    <path d="M 492.2983703613281 -2.200566530227661 C 490.5831604003906 12.017446517944336 493.30059814453125 21.72899627685547 492.9335632324219 33.470706939697266 C 495.45941162109375 38.88350296020508 500.5042724609375 34.4968147277832 517.3775634765625 34.89231491088867 C 517.3578491210938 22.89642906188965 517.3533325195312 11.485206604003906 517.397705078125 -0.15222178399562836 C 504.6638488769531 -0.3066106140613556 498.2999267578125 -0.8737525343894958 492.2983703613281 -2.200566530227661" stroke-width="0.0" fill="rgb(202, 197, 194)" opacity="1.0012747" stroke="rgb(0, 0, 0)" stroke-opacity="1.0" stroke-linecap="round" stroke-linejoin="round"/>
    <path d="M 115.9698486328125 442.52532958984375 C 100.33960723876953 440.05078125 92.4694595336914 442.0929260253906 82.27442932128906 445.3924865722656 C 76.16963195800781 447.0533752441406 74.110107421875 447.5235290527344 76.79177856445312 455.37786865234375 C 78.52584838867188 462.3885192871094 83.21680450439453 467.3040771484375 93.5020751953125 469.19561767578125 C 104.51609802246094 463.4200439453125 105.81145477294922 450.440185546875 115.9698486328125 442.52532958984375" stroke-width="0.0" fill="rgb(127, 122, 120)" opacity="1.0152979" stroke="rgb(0, 0, 0)" stroke-opacity="1.0" stroke-linecap="round" stroke-linejoin="round"/>
    <path d="M 79.62448120117188 521.20166015625 C 73.33734130859375 501.970703125 72.59648132324219 496.5714111328125 69.05291748046875 492.5399475097656 C 55.027828216552734 495.8490295410156 41.83289337158203 494.2989196777344 38.56072235107422 502.5389709472656 C 32.775882720947266 499.03466796875 35.39689254760742 508.9961853027344 35.54491424560547 522.145751953125 C 55.87785339355469 522.2991943359375 70.38834381103516 522.573486328125 79.62448120117188 521.20166015625" stroke-width="0.0" fill="rgb(184, 179, 176)" opacity="0.967923" stroke="rgb(0, 0, 0)" stroke-opacity="1.0" stroke-linecap="round" stroke-linejoin="round"/>
    <path d="M 485.5012512207031 457.76458740234375 C 482.5658874511719 456.8768005371094 481.2693786621094 464.2370910644531 483.8994140625 469.42218017578125 C 487.9784240722656 468.7359619140625 482.0963134765625 462.4022216796875 491.26239013671875 464.4095764160156 C 486.91436767578125 476.2826843261719 499.1343078613281 461.4248352050781 500.49176025390625 475.95391845703125 C 496.6025085449219 486.637451171875 497.1022033691406 482.6298828125 502.04071044921875 486.15118408203125 C 501.6912841796875 489.77099609375 497.0772705078125 486.0445556640625 493.77093505859375 490.1224060058594 C 506.4164733886719 491.9815368652344 504.0620422363281 487.80035400390625 516.193603515625 503.0189208984375 C 518.0423583984375 484.6927490234375 517.9953002929688 473.52294921875 517.5196533203125 462.6758117675781 C 502.04730224609375 460.428466796875 492.8357849121094 456.3396301269531 485.5012512207031 457.76458740234375" stroke-width="0.0" fill="rgb(74, 71, 68)" opacity="0.9540252" stroke="rgb(0, 0, 0)" stroke-opacity="1.0" stroke-linecap="round" stroke-linejoin="round"/>
    <path d="M 280.6548156738281 279.1308288574219 C 297.022216796875 283.7557067871094 299.5735778808594 290.0324401855469 308.4888000488281 297.60980224609375 C 321.9405822753906 302.9289855957031 312.9188232421875 294.32470703125 321.0599670410156 293.90887451171875 C 314.0878601074219 286.91253662109375 307.0838623046875 281.8869323730469 302.70556640625 274.46728515625 C 295.0998840332031 278.7902526855469 283.11212158203125 274.6989440917969 280.6548156738281 279.1308288574219" stroke-width="0.0" fill="rgb(138, 135, 133)" opacity="0.99539894" stroke="rgb(0, 0, 0)" stroke-opacity="1.0" stroke-linecap="round" stroke-linejoin="round"/>
    <path d="M 79.08348846435547 430.55517578125 C 101.32793426513672 434.9819030761719 103.74981689453125 439.3814697265625 132.5564422607422 436.88824462890625 C 136.24386596679688 429.8290100097656 142.2097625732422 424.59515380859375 147.09774780273438 416.21063232421875 C 161.17039489746094 416.28302001953125 161.47894287109375 419.92938232421875 161.7606201171875 407.5928039550781 C 149.45669555664062 408.11700439453125 138.84246826171875 399.6976623535156 125.84857177734375 396.3753967285156 C 121.05274200439453 399.3970642089844 118.33132934570312 403.8505554199219 118.56684875488281 413.3327331542969 C 117.11447143554688 403.8537292480469 115.6368637084961 396.32562255859375 118.01261901855469 398.5460205078125 C 109.49690246582031 392.52801513671875 106.60458374023438 395.4228820800781 99.82933044433594 397.1531677246094 C 97.46266174316406 389.7450256347656 102.14826965332031 406.7796936035156 98.67575073242188 407.266357421875 C 94.4557113647461 401.5065002441406 97.70816040039062 393.4922180175781 89.10685729980469 397.6247863769531 C 86.84931945800781 406.719482421875 83.05018615722656 418.76806640625 79.08348846435547 430.55517578125" stroke-width="0.0" fill="rgb(176, 171, 168)" opacity="0.971435" stroke="rgb(0, 0, 0)" stroke-opacity="1.0" stroke-linecap="round" stroke-linejoin="round"/>
    <path d="M 282.6296081542969 236.87815856933594 C 273.8413391113281 240.87637329101562 288.55316162109375 259.9564514160156 272.0832824707031 256.93939208984375 C 267.91241455078125 270.8846130371094 279.44293212890625 261.9336242675781 278.1574401855469 274.7669372558594 C 290.94781494140625 269.05340576171875 292.0027160644531 279.76568603515625 298.9123229980469 275.6899108886719 C 302.1741027832031 277.1831970214844 307.7676086425781 272.8036193847656 311.0336608886719 271.12420654296875 C 310.9202575683594 254.5432891845703 304.7385559082031 247.3255157470703 301.03411865234375 236.06614685058594 C 298.422119140625 232.97955322265625 289.78887939453125 228.07521057128906 282.6296081542969 236.87815856933594" stroke-width="0.0" fill="rgb(171, 166, 165)" opacity="0.9773276" stroke="rgb(0, 0, 0)" stroke-opacity="1.0" stroke-linecap="round" stroke-linejoin="round"/>
    <path d="M 341.534423828125 260.7998352050781 C 329.0077819824219 257.4546203613281 330.03228759765625 273.14447021484375 315.30694580078125 270.5758361816406 C 315.3627014160156 277.26458740234375 320.3403625488281 285.2527770996094 330.40863037109375 288.8406066894531 C 334.6282043457031 282.2996520996094 340.33514404296875 273.5772705078125 341.534423828125 260.7998352050781" stroke-width="0.0" fill="rgb(135, 130, 127)" opacity="0.98304033" stroke="rgb(0, 0, 0)" stroke-opacity="1.0" stroke-linecap="round" stroke-linejoin="round"/>
    <path d="M 258.9869384765625 395.2652893066406 C 262.62738037109375 406.6783447265625 275.36846923828125 405.8979187011719 284.0113220214844 411.84814453125 C 320.2290344238281 423.294921875 357.4470520019531 432.1822814941406 391.8832092285156 443.7481689453125 C 394.2586669921875 433.09033203125 394.7749938964844 431.6407165527344 390.8453063964844 428.6874084472656 C 344.47723388671875 418.71942138671875 301.9006042480469 406.70391845703125 258.9869384765625 395.2652893066406" stroke-width="0.0" fill="rgb(69, 68, 66)" opacity="1.0019038" stroke="rgb(0, 0, 0)" stroke-opacity="1.0" stroke-linecap="round" stroke-linejoin="round"/>
    <path d="M 482.7042236328125 454.1472473144531 C 483.76605224609375 462.3998718261719 480.698974609375 464.8338928222656 486.02337646484375 468.8005065917969 C 493.22991943359375 470.885986328125 502.4136962890625 471.5785827636719 517.2743530273438 476.14752197265625 C 519.6712036132812 465.6368713378906 520.027587890625 461.01446533203125 514.5061645507812 462.2942810058594 C 501.7985534667969 458.2735595703125 491.26751708984375 457.5921936035156 482.7042236328125 454.1472473144531" stroke-width="0.0" fill="rgb(98, 95, 94)" opacity="0.9902301" stroke="rgb(0, 0, 0)" stroke-opacity="1.0" stroke-linecap="round" stroke-linejoin="round"/>
  </g>
</svg>
