<?xml version="1.0" ?>
<svg xmlns="http://www.w3.org/2000/svg" version="1.1" width="512" height="512">
  <defs/>
  <g>
    <path d="M -0.7989947199821472 -1.134329080581665 C -0.5095919966697693 170.3333282470703 -0.533790111541748 340.6666564941406 -0.32012054324150085 511.58551025390625 C 170.2740478515625 511.6017761230469 340.5050964355469 511.6060485839844 512.6389770507812 512.046630859375 C 512.6912231445312 340.4720764160156 512.6476440429688 170.0509033203125 512.6510009765625 -0.3860863447189331 C 340.6666564941406 -0.13774314522743225 170.3333282470703 -0.5248205065727234 -0.7989947199821472 -1.134329080581665" stroke-width="0.0" fill="rgb(108, 93, 100)" opacity="1.0292622" stroke="rgb(0, 0, 0)" stroke-opacity="1.0" stroke-linecap="round" stroke-linejoin="round"/>
    <path d="M 512.1307373046875 381.0648498535156 C 502.82086181640625 380.9458312988281 497.0024719238281 379.4903564453125 494.83880615234375 375.42864990234375 C 491.5722351074219 361.4835510253906 486.84368896484375 350.2516784667969 481.79132080078125 342.08050537109375 C 469.1614990234375 344.45361328125 456.8910217285156 342.5133056640625 445.2872009277344 342.6679992675781 C 442.8062744140625 367.43359375 440.5494079589844 392.50604248046875 440.6904602050781 417.4264221191406 C 446.4276123046875 433.1063537597656 448.8932189941406 449.0843811035156 448.7534484863281 464.7089538574219 C 446.4367370605469 470.6108703613281 444.53802490234375 476.08111572265625 441.1912536621094 480.7894287109375 C 435.8016662597656 486.9245910644531 429.72967529296875 493.0985107421875 423.8744812011719 495.1430358886719 C 416.2179260253906 492.9802551269531 410.1657409667969 489.2721252441406 405.63128662109375 484.4021301269531 C 387.8025817871094 436.89544677734375 370.24493408203125 389.1202087402344 352.5816650390625 343.009765625 C 336.48248291015625 344.369384765625 322.9281311035156 344.7914123535156 311.5351257324219 344.90460205078125 C 301.3907165527344 370.36181640625 289.6493225097656 391.8907165527344 281.6877136230469 417.39093017578125 C 281.6053161621094 425.8070373535156 286.2108459472656 431.6571044921875 287.8420715332031 441.6918029785156 C 285.2587890625 445.6582946777344 281.4088439941406 449.081787109375 276.3922424316406 450.13360595703125 C 269.2886657714844 449.5310974121094 262.7439270019531 449.9735107421875 257.81427001953125 448.732421875 C 252.35659790039062 447.2021179199219 250.33969116210938 442.771728515625 249.55799865722656 438.1566467285156 C 249.80422973632812 427.20880126953125 249.14529418945312 416.7264099121094 249.00547790527344 409.1896057128906 C 254.4794921875 389.6598205566406 259.2842102050781 369.81121826171875 263.9052734375 347.2345275878906 C 250.8600311279297 345.2532653808594 239.60916137695312 345.4657287597656 225.17835998535156 346.0505676269531 C 229.09765625 379.3131408691406 234.52615356445312 408.5960388183594 239.96884155273438 439.6505432128906 C 238.10597229003906 445.72589111328125 233.33656311035156 450.6151123046875 227.74203491210938 454.6298522949219 C 215.4631805419922 453.9520568847656 207.3681182861328 452.5446472167969 204.95631408691406 446.6896667480469 C 197.96311950683594 413.1346130371094 190.82656860351562 381.2751770019531 183.0067138671875 349.4468688964844 C 175.9322967529297 347.1510925292969 168.09254455566406 345.358642578125 157.970947265625 345.3183288574219 C 143.5496063232422 379.8335876464844 124.63619995117188 409.34271240234375 107.54451751708984 440.8188171386719 C 106.8468017578125 446.1086730957031 101.01506042480469 446.48370361328125 97.29125213623047 450.95501708984375 C 88.06497955322266 450.008056640625 79.04950714111328 448.033447265625 68.85238647460938 445.865966796875 C 73.19767761230469 433.15081787109375 75.1554946899414 423.2677307128906 75.6208267211914 409.4483337402344 C 72.12843322753906 401.5933532714844 68.57037353515625 393.8305358886719 64.61328887939453 386.1099853515625 C 43.512603759765625 385.08172607421875 22.521833419799805 384.7965087890625 -0.7832018733024597 385.9661865234375 C -1.1673104763031006 427.9571228027344 -1.147456169128418 469.4819641113281 -1.136620283126831 513.238037109375 C 170.32766723632812 513.2445068359375 340.66192626953125 513.2557373046875 512.541015625 513.258056640625 C 512.9114379882812 467.25128173828125 513.1879272460938 423.00384521484375 512.1307373046875 381.0648498535156" stroke-width="0.0" fill="rgb(135, 127, 118)" opacity="1.0284562" stroke="rgb(0, 0, 0)" stroke-opacity="1.0" stroke-linecap="round" stroke-linejoin="round"/>
    <path d="M 241.7047882080078 104.01963806152344 C 230.55990600585938 107.13568878173828 224.0343475341797 111.24699401855469 217.71109008789062 116.53150939941406 C 216.6050567626953 129.2779998779297 216.15635681152344 142.6409912109375 217.95388793945312 160.322509765625 C 203.9998016357422 162.23199462890625 190.516845703125 166.49147033691406 178.4989776611328 172.6511688232422 C 171.10240173339844 180.8126220703125 164.59971618652344 189.96888732910156 160.54054260253906 199.90818786621094 C 160.64593505859375 212.62550354003906 161.8564453125 221.63150024414062 163.3892822265625 231.29583740234375 C 170.4064483642578 233.87901306152344 180.84149169921875 232.9991455078125 189.18759155273438 233.4981231689453 C 183.49002075195312 272.4143981933594 181.78097534179688 309.66162109375 182.20167541503906 349.9363098144531 C 190.09031677246094 375.9089050292969 196.71566772460938 402.2705993652344 204.53367614746094 427.98248291015625 C 206.56251525878906 432.2398986816406 205.42872619628906 438.0733947753906 205.03366088867188 445.7579650878906 C 206.0159454345703 447.39117431640625 209.1066436767578 448.4540100097656 215.61077880859375 451.01275634765625 C 221.3392333984375 449.48150634765625 227.03831481933594 447.18121337890625 232.40298461914062 444.5791931152344 C 230.50021362304688 407.0777282714844 227.7841033935547 375.171142578125 224.10870361328125 343.822509765625 C 226.32467651367188 335.64642333984375 232.17926025390625 328.976318359375 239.7257080078125 323.6158447265625 C 245.1906280517578 324.119140625 249.5594940185547 326.7598876953125 253.47525024414062 332.0762939453125 C 259.7391357421875 334.37432861328125 263.2380065917969 340.7396240234375 266.50433349609375 351.3655090332031 C 262.57916259765625 369.1493835449219 257.7662353515625 386.9868469238281 251.64907836914062 404.51300048828125 C 252.50503540039062 415.6055908203125 253.7280731201172 428.3179931640625 253.63418579101562 444.27313232421875 C 259.1658630371094 445.2276306152344 266.10113525390625 445.56915283203125 274.3815612792969 445.37432861328125 C 277.1319885253906 436.3710021972656 276.2524108886719 428.8274841308594 276.15716552734375 425.2018127441406 C 287.9217224121094 397.5578308105469 299.5851745605469 369.883056640625 310.61285400390625 341.9045715332031 C 308.8927307128906 326.7696228027344 308.2847595214844 315.96881103515625 306.827880859375 308.2110290527344 C 298.45611572265625 301.7754821777344 294.1365661621094 294.4136047363281 288.9886474609375 287.61083984375 C 292.05133056640625 271.1473083496094 293.27801513671875 255.2723846435547 293.7955322265625 236.21139526367188 C 297.0961608886719 234.1306915283203 304.63446044921875 234.00587463378906 313.5354919433594 233.23654174804688 C 317.1055603027344 227.9677734375 319.6332092285156 220.5465545654297 321.91973876953125 211.689697265625 C 321.98590087890625 202.8730926513672 321.267333984375 197.07325744628906 319.006591796875 192.3439483642578 C 314.1473083496094 185.1929473876953 308.9273376464844 178.74180603027344 304.0754089355469 171.5356903076172 C 291.4309997558594 165.2218017578125 277.103515625 160.19744873046875 264.3677978515625 158.87208557128906 C 263.89080810546875 141.59274291992188 262.9361572265625 129.57591247558594 261.8084411621094 117.55948638916016 C 255.441162109375 112.51923370361328 249.1208953857422 107.84070587158203 241.7047882080078 104.01963806152344" stroke-width="0.0" fill="rgb(98, 86, 143)" opacity="0.9749177" stroke="rgb(0, 0, 0)" stroke-opacity="1.0" stroke-linecap="round" stroke-linejoin="round"/>
    <path d="M 370.94482421875 104.98049926757812 C 362.54864501953125 109.57070922851562 357.880126953125 114.90126037597656 355.6603698730469 122.90216827392578 C 355.31439208984375 138.7676239013672 355.89691162109375 153.12547302246094 357.4586181640625 163.4845428466797 C 345.16912841796875 173.83157348632812 334.1617126464844 184.49118041992188 324.4405822753906 196.12208557128906 C 321.65411376953125 216.5334930419922 319.7686767578125 236.96327209472656 320.00048828125 257.77825927734375 C 322.7312316894531 265.2774963378906 324.1388244628906 270.880126953125 325.4410400390625 276.8102111816406 C 329.9547424316406 281.2095947265625 338.0306396484375 281.9612731933594 342.08392333984375 286.3114318847656 C 339.330322265625 295.73468017578125 338.50140380859375 304.91473388671875 341.38763427734375 313.2635803222656 C 356.8172302246094 349.2239990234375 371.03515625 385.9996032714844 384.331787109375 423.7501525878906 C 388.4267272949219 432.6057434082031 394.56744384765625 439.6761474609375 399.9549255371094 446.6084899902344 C 408.6764831542969 446.13348388671875 419.7781677246094 445.4435729980469 433.9266052246094 449.1640930175781 C 439.5958557128906 405.98529052734375 443.0011291503906 360.6046447753906 445.8989562988281 313.69757080078125 C 448.6487121582031 302.80914306640625 446.2087097167969 291.7469482421875 443.7416076660156 283.76007080078125 C 450.91033935546875 272.8246765136719 457.5516357421875 261.4756774902344 463.81683349609375 249.5067901611328 C 460.3598937988281 232.02236938476562 459.0030212402344 218.20220947265625 459.74444580078125 202.57757568359375 C 454.0539855957031 192.01800537109375 448.37359619140625 181.7013397216797 442.5265197753906 171.4172821044922 C 430.1268005371094 166.40066528320312 416.9186706542969 162.31346130371094 405.0043029785156 159.15194702148438 C 403.5899963378906 141.0890655517578 401.2557373046875 125.72423553466797 398.8313903808594 110.25397491455078 C 389.83001708984375 108.13675689697266 381.1336669921875 106.18897247314453 370.94482421875 104.98049926757812" stroke-width="0.0" fill="rgb(143, 146, 162)" opacity="0.97266084" stroke="rgb(0, 0, 0)" stroke-opacity="1.0" stroke-linecap="round" stroke-linejoin="round"/>
    <path d="M 103.5064697265625 113.46287536621094 C 91.83287811279297 115.72115325927734 84.70664978027344 118.51224517822266 78.0304946899414 121.85296630859375 C 75.91165924072266 129.5269317626953 74.14912414550781 137.04124450683594 73.9835433959961 146.63137817382812 C 75.18605041503906 155.23983764648438 77.462158203125 163.6206817626953 80.84156799316406 173.76707458496094 C 65.94367980957031 178.9158477783203 55.03094482421875 187.0128631591797 44.46950149536133 195.34622192382812 C 39.89750289916992 209.0836181640625 35.63456344604492 222.82308959960938 34.79720687866211 237.47772216796875 C 33.853397369384766 250.2760009765625 34.41305923461914 260.18597412109375 35.04546356201172 271.0851135253906 C 38.480674743652344 279.8188781738281 44.286277770996094 287.2934875488281 51.66230010986328 295.0895080566406 C 47.273189544677734 303.087158203125 44.1453742980957 312.532958984375 41.88221740722656 323.6907043457031 C 42.929725646972656 332.00323486328125 43.898799896240234 341.0328063964844 45.11231231689453 349.8285217285156 C 55.44588088989258 367.54095458984375 66.0914535522461 384.87493896484375 76.1871566772461 402.7637939453125 C 80.77593994140625 411.98480224609375 83.43930053710938 422.8548889160156 86.1677474975586 433.4297180175781 C 87.12449645996094 434.5229187011719 89.84414672851562 435.1135559082031 93.0470962524414 436.8841247558594 C 105.4811019897461 426.78289794921875 116.47090148925781 414.128173828125 126.69648742675781 400.753662109375 C 137.43260192871094 379.3859558105469 148.0662384033203 358.0190734863281 158.1485595703125 336.39404296875 C 157.72988891601562 321.6466369628906 157.10459899902344 311.03192138671875 155.60548400878906 300.59039306640625 C 151.8452911376953 296.1714172363281 147.7840576171875 292.2764892578125 144.3961639404297 290.78363037109375 C 149.72117614746094 283.2954406738281 154.60377502441406 273.8553771972656 159.2337646484375 263.6026916503906 C 158.57968139648438 238.31436157226562 157.25 216.97796630859375 155.76914978027344 195.2237091064453 C 145.52606201171875 186.7819061279297 135.1261749267578 178.51058959960938 124.58049011230469 171.37283325195312 C 124.6111831665039 156.3441925048828 124.26402282714844 141.4402313232422 122.989990234375 125.8337631225586 C 117.02760314941406 120.88665771484375 110.38208770751953 116.53642272949219 103.5064697265625 113.46287536621094" stroke-width="0.0" fill="rgb(120, 107, 125)" opacity="0.982706" stroke="rgb(0, 0, 0)" stroke-opacity="1.0" stroke-linecap="round" stroke-linejoin="round"/>
    <path d="M 359.71514892578125 -2.081972122192383 C 359.5218811035156 36.1671142578125 359.7228698730469 71.17759704589844 360.5631103515625 105.27528381347656 C 374.90045166015625 102.427734375 386.987548828125 102.82157897949219 399.1951904296875 103.541748046875 C 404.6139221191406 115.76979064941406 408.7681579589844 128.5425262451172 409.6127014160156 144.69395446777344 C 446.4954833984375 144.84580993652344 479.6727294921875 144.8369598388672 512.9779663085938 144.4125213623047 C 512.688232421875 93.97147369384766 512.6370849609375 46.795326232910156 512.4632568359375 -0.8039296269416809 C 461.0 -0.8472617864608765 411.0 -1.0780956745147705 359.71514892578125 -2.081972122192383" stroke-width="0.0" fill="rgb(83, 97, 89)" opacity="0.9865235" stroke="rgb(0, 0, 0)" stroke-opacity="1.0" stroke-linecap="round" stroke-linejoin="round"/>
    <path d="M 243.56298828125 -0.8246009349822998 C 243.9237060546875 34.70429992675781 243.85040283203125 69.54252624511719 244.50515747070312 103.87696075439453 C 253.0398406982422 108.9965591430664 259.26983642578125 115.71222686767578 264.954833984375 125.46202087402344 C 267.0237121582031 129.439697265625 265.21075439453125 136.88729858398438 263.4629211425781 146.7467803955078 C 294.1695861816406 146.5439910888672 322.17132568359375 146.49546813964844 353.7264709472656 147.01934814453125 C 351.1608581542969 127.82278442382812 354.1166076660156 113.03977966308594 361.665771484375 99.10475158691406 C 361.94580078125 66.16352844238281 361.84442138671875 32.40724182128906 361.6969909667969 -1.482191801071167 C 320.5753173828125 -1.1904990673065186 282.04937744140625 -1.2576253414154053 243.56298828125 -0.8246009349822998" stroke-width="0.0" fill="rgb(162, 89, 79)" opacity="0.98476684" stroke="rgb(0, 0, 0)" stroke-opacity="1.0" stroke-linecap="round" stroke-linejoin="round"/>
    <path d="M 99.41558074951172 -0.8031365871429443 C 101.245361328125 36.94864273071289 102.66123962402344 72.87834930419922 104.27841186523438 109.9397964477539 C 155.12844848632812 107.97085571289062 200.79922485351562 105.96739959716797 246.25677490234375 103.91543579101562 C 245.69644165039062 65.95011901855469 245.21217346191406 32.16982650756836 244.6353759765625 -1.8010016679763794 C 195.22628784179688 -1.2146357297897339 148.361083984375 -1.2721412181854248 99.41558074951172 -0.8031365871429443" stroke-width="0.0" fill="rgb(32, 39, 39)" opacity="1.0234255" stroke="rgb(0, 0, 0)" stroke-opacity="1.0" stroke-linecap="round" stroke-linejoin="round"/>
    <path d="M 407.7986145019531 145.5970916748047 C 406.2549743652344 147.21319580078125 405.51373291015625 150.7357177734375 405.0697021484375 158.15040588378906 C 414.7183837890625 162.69509887695312 426.2747497558594 166.41189575195312 437.82952880859375 170.4049072265625 C 445.5545654296875 175.83218383789062 450.54888916015625 184.05731201171875 456.09210205078125 192.81959533691406 C 461.4555969238281 231.45494079589844 465.1659851074219 272.3710021972656 466.16033935546875 315.1543273925781 C 474.2462158203125 325.067626953125 480.18829345703125 336.4302978515625 488.364501953125 345.98468017578125 C 491.007568359375 353.9441223144531 493.20379638671875 362.7578125 495.51165771484375 372.23602294921875 C 498.6160888671875 375.39312744140625 503.5491638183594 377.0997619628906 513.2787475585938 378.4858093261719 C 513.2150268554688 298.9731750488281 513.1824340820312 221.9859619140625 513.1925048828125 144.99700927734375 C 477.46759033203125 145.6303253173828 443.6006774902344 145.64488220214844 407.7986145019531 145.5970916748047" stroke-width="0.0" fill="rgb(125, 41, 41)" opacity="0.9911035" stroke="rgb(0, 0, 0)" stroke-opacity="1.0" stroke-linecap="round" stroke-linejoin="round"/>
    <path d="M 71.88111114501953 151.3192901611328 C 46.33586502075195 151.7788848876953 22.97753143310547 151.6558837890625 -2.2318739891052246 151.69515991210938 C -1.894700050354004 229.9840850830078 -1.5608208179473877 306.6401062011719 -1.0859547853469849 383.9857482910156 C 21.220584869384766 384.59857177734375 39.543277740478516 384.2906188964844 58.81987762451172 383.19744873046875 C 52.973052978515625 367.18353271484375 46.46267318725586 356.6101379394531 39.53217315673828 344.7872314453125 C 38.82674026489258 326.3908386230469 41.6219596862793 310.2763977050781 46.51481628417969 291.99420166015625 C 40.786109924316406 285.2420349121094 36.9872932434082 279.03033447265625 33.49627685546875 272.5828857421875 C 33.1981201171875 262.8826599121094 33.08076858520508 252.9649658203125 33.687477111816406 245.78724670410156 C 35.81565475463867 229.152587890625 36.84830856323242 211.75076293945312 43.34431076049805 199.3531036376953 C 53.82044982910156 189.82591247558594 64.96880340576172 180.9647216796875 77.96134185791016 172.17051696777344 C 76.50385284423828 162.30038452148438 74.23796081542969 155.24642944335938 71.88111114501953 151.3192901611328" stroke-width="0.0" fill="rgb(139, 49, 48)" opacity="0.98365474" stroke="rgb(0, 0, 0)" stroke-opacity="1.0" stroke-linecap="round" stroke-linejoin="round"/>
    <path d="M 222.5856170654297 108.60871124267578 C 184.04180908203125 109.20577239990234 146.28811645507812 109.52136993408203 108.06378173828125 109.9876937866211 C 111.95804595947266 115.98124694824219 116.48381042480469 117.53290557861328 119.80928802490234 120.09207916259766 C 124.68936920166016 127.74946594238281 126.21243286132812 138.11538696289062 126.49209594726562 150.42237854003906 C 157.84625244140625 149.72802734375 185.55320739746094 148.7431182861328 215.40386962890625 148.21517944335938 C 216.09756469726562 134.29229736328125 217.8459014892578 120.64021301269531 222.5856170654297 108.60871124267578" stroke-width="0.0" fill="rgb(135, 176, 146)" opacity="0.9771029" stroke="rgb(0, 0, 0)" stroke-opacity="1.0" stroke-linecap="round" stroke-linejoin="round"/>
    <path d="M 438.23663330078125 424.39471435546875 C 421.4825744628906 429.5093994140625 404.39080810546875 430.674560546875 383.5612487792969 431.64556884765625 C 391.5131530761719 453.6900939941406 399.41033935546875 476.1374206542969 407.5650329589844 496.10174560546875 C 417.2739562988281 495.6627197265625 424.9392395019531 496.5906066894531 429.7733459472656 492.6925048828125 C 436.3028869628906 488.29339599609375 441.85931396484375 482.85577392578125 446.5002136230469 476.5533752441406 C 449.3502502441406 464.5395202636719 451.0096435546875 451.42010498046875 454.1650390625 440.68731689453125 C 448.5944519042969 438.8172912597656 443.953125 431.6137390136719 438.23663330078125 424.39471435546875" stroke-width="0.0" fill="rgb(55, 56, 61)" opacity="1.0077528" stroke="rgb(0, 0, 0)" stroke-opacity="1.0" stroke-linecap="round" stroke-linejoin="round"/>
    <path d="M 92.76097106933594 110.62330627441406 C 60.75703048706055 109.82633972167969 30.565366744995117 109.88423919677734 -1.1258213520050049 109.67713928222656 C -1.1761841773986816 124.19156646728516 -1.2207140922546387 137.43577575683594 -0.7440208196640015 151.66940307617188 C 24.956390380859375 151.79469299316406 48.47077941894531 151.35775756835938 73.20040130615234 150.362548828125 C 74.63794708251953 144.34707641601562 75.69078826904297 137.40745544433594 76.54118347167969 129.85679626464844 C 80.3132553100586 123.31028747558594 86.10343170166016 118.08808898925781 92.76097106933594 110.62330627441406" stroke-width="0.0" fill="rgb(142, 181, 151)" opacity="0.9759065" stroke="rgb(0, 0, 0)" stroke-opacity="1.0" stroke-linecap="round" stroke-linejoin="round"/>
    <path d="M 217.81639099121094 150.0890350341797 C 188.45945739746094 149.14715576171875 159.42445373535156 148.8052978515625 127.31781768798828 149.45079040527344 C 125.99838256835938 156.0476837158203 125.53543853759766 164.03196716308594 125.843017578125 171.73654174804688 C 138.13954162597656 178.40484619140625 147.54930114746094 186.73516845703125 158.08538818359375 196.9454803466797 C 165.6249237060547 187.971435546875 173.1057891845703 179.7834014892578 181.56488037109375 172.582275390625 C 193.67735290527344 166.9906768798828 206.10354614257812 161.78515625 217.81639099121094 150.0890350341797" stroke-width="0.0" fill="rgb(85, 31, 36)" opacity="0.9798064" stroke="rgb(0, 0, 0)" stroke-opacity="1.0" stroke-linecap="round" stroke-linejoin="round"/>
    <path d="M 358.79888916015625 165.84463500976562 C 356.8150634765625 154.99659729003906 354.87298583984375 149.58705139160156 352.8759460449219 148.729248046875 C 322.2516174316406 147.9490509033203 292.7731628417969 147.80911254882812 264.8525695800781 147.70797729492188 C 265.6562194824219 153.44020080566406 266.58154296875 156.3479766845703 267.5870361328125 157.36900329589844 C 282.8239440917969 160.57606506347656 294.6390380859375 165.02027893066406 304.6745300292969 170.89161682128906 C 311.2730712890625 178.72994995117188 317.5243835449219 186.46536254882812 323.14471435546875 195.03146362304688 C 332.66241455078125 183.0125732421875 344.6136169433594 173.43212890625 358.79888916015625 165.84463500976562" stroke-width="0.0" fill="rgb(78, 27, 31)" opacity="0.9979522" stroke="rgb(0, 0, 0)" stroke-opacity="1.0" stroke-linecap="round" stroke-linejoin="round"/>
    <path d="M 86.46548461914062 -2.2059948444366455 C 88.07279968261719 36.240623474121094 88.9521713256836 72.32296752929688 89.74592590332031 110.41496276855469 C 91.76742553710938 111.56886291503906 95.38499450683594 112.61373901367188 103.0346450805664 113.49095916748047 C 102.6218032836914 74.0516586303711 102.46604919433594 37.60615158081055 102.63443756103516 -1.0642731189727783 C 97.25299835205078 -1.3978132009506226 92.49080657958984 -1.6547216176986694 86.46548461914062 -2.2059948444366455" stroke-width="0.0" fill="rgb(129, 180, 156)" opacity="1.0173632" stroke="rgb(0, 0, 0)" stroke-opacity="1.0" stroke-linecap="round" stroke-linejoin="round"/>
    <path d="M 87.92639923095703 45.098655700683594 C 55.920692443847656 45.793949127197266 27.267011642456055 46.874420166015625 -1.6883835792541504 48.34623336791992 C -1.2146434783935547 69.89486694335938 -1.1223801374435425 89.80512237548828 -0.7767392992973328 111.75862884521484 C 30.707609176635742 111.50650024414062 59.72532653808594 111.18992614746094 89.10128021240234 110.63807678222656 C 88.90424346923828 87.30679321289062 88.99474334716797 67.14237213134766 87.92639923095703 45.098655700683594" stroke-width="0.0" fill="rgb(28, 30, 32)" opacity="1.0279988" stroke="rgb(0, 0, 0)" stroke-opacity="1.0" stroke-linecap="round" stroke-linejoin="round"/>
    <path d="M 291.36029052734375 235.7832794189453 C 290.1495666503906 253.2500457763672 291.13800048828125 273.3034973144531 289.701171875 289.0646667480469 C 298.3510437011719 299.7591552734375 304.3289489746094 312.6911315917969 309.7003173828125 327.55816650390625 C 319.6632995605469 324.1031188964844 325.67193603515625 320.4513854980469 331.8709411621094 315.566162109375 C 327.8461608886719 299.34515380859375 323.2508544921875 287.9321594238281 318.71051025390625 276.8014831542969 C 319.3798828125 263.2711486816406 319.10125732421875 249.94305419921875 318.1072692871094 237.90614318847656 C 307.65185546875 238.13197326660156 299.659912109375 238.176513671875 291.36029052734375 235.7832794189453" stroke-width="0.0" fill="rgb(41, 77, 125)" opacity="1.0071685" stroke="rgb(0, 0, 0)" stroke-opacity="1.0" stroke-linecap="round" stroke-linejoin="round"/>
    <path d="M 109.24091339111328 422.7083740234375 C 96.50936126708984 420.9052734375 87.8149185180664 416.28973388671875 79.57719421386719 415.42340087890625 C 75.08208465576172 426.2528076171875 69.65081787109375 435.0281066894531 64.56189727783203 443.81842041015625 C 64.85670471191406 446.9386291503906 65.51277923583984 452.6127014160156 66.20890045166016 457.12957763671875 C 68.56412506103516 458.19024658203125 72.2442626953125 459.1653747558594 73.22745513916016 459.42620849609375 C 82.09730529785156 455.6078186035156 91.33169555664062 451.9552001953125 104.73224639892578 448.96246337890625 C 106.35321807861328 442.5926513671875 107.80162811279297 432.7564697265625 109.24091339111328 422.7083740234375" stroke-width="0.0" fill="rgb(54, 53, 52)" opacity="1.0136817" stroke="rgb(0, 0, 0)" stroke-opacity="1.0" stroke-linecap="round" stroke-linejoin="round"/>
    <path d="M 162.1392822265625 237.5135040283203 C 162.44569396972656 257.1007995605469 157.93617248535156 274.1540222167969 152.84664916992188 290.72088623046875 C 156.8892822265625 298.5990905761719 160.8988037109375 311.9059753417969 164.38931274414062 327.7195739746094 C 165.42288208007812 331.0960388183594 170.87991333007812 331.19036865234375 180.8444061279297 330.5709228515625 C 177.3988800048828 308.4897155761719 173.4911346435547 291.02069091796875 169.60072326660156 273.2467041015625 C 171.01824951171875 264.17926025390625 173.58045959472656 253.01022338867188 175.82005310058594 240.7753448486328 C 171.26576232910156 238.66305541992188 168.5780029296875 238.00399780273438 162.1392822265625 237.5135040283203" stroke-width="0.0" fill="rgb(61, 56, 60)" opacity="1.0044022" stroke="rgb(0, 0, 0)" stroke-opacity="1.0" stroke-linecap="round" stroke-linejoin="round"/>
    <path d="M 188.16705322265625 232.54042053222656 C 190.6749267578125 233.96585083007812 187.84365844726562 235.26065063476562 184.6913299560547 234.34336853027344 C 178.1116943359375 245.13963317871094 172.97650146484375 255.73858642578125 168.9116973876953 270.79632568359375 C 172.29156494140625 283.9706115722656 176.26617431640625 296.6666564941406 182.48248291015625 309.5024719238281 C 183.4715576171875 299.0061340332031 186.2073211669922 293.0241394042969 189.03099060058594 287.3027038574219 C 188.7309112548828 271.4366149902344 188.42523193359375 251.1924591064453 188.16705322265625 232.54042053222656" stroke-width="0.0" fill="rgb(57, 117, 187)" opacity="1.0068717" stroke="rgb(0, 0, 0)" stroke-opacity="1.0" stroke-linecap="round" stroke-linejoin="round"/>
    <path d="M 463.838623046875 259.4403381347656 C 455.4821472167969 270.9010925292969 449.5237121582031 279.2078552246094 442.8077697753906 286.72601318359375 C 442.9404602050781 299.0809631347656 447.34326171875 310.9878234863281 452.195556640625 323.05401611328125 C 460.0799560546875 322.89849853515625 464.42218017578125 322.29949951171875 468.9739990234375 320.7336730957031 C 467.2110290527344 298.1783752441406 465.5972900390625 278.8697509765625 463.838623046875 259.4403381347656" stroke-width="0.0" fill="rgb(132, 118, 114)" opacity="0.9978474" stroke="rgb(0, 0, 0)" stroke-opacity="1.0" stroke-linecap="round" stroke-linejoin="round"/>
    <path d="M 366.91485595703125 107.9095458984375 C 359.4890441894531 113.39960479736328 356.69171142578125 120.04761505126953 355.6220703125 131.17379760742188 C 354.8967590332031 143.0121612548828 356.6462707519531 154.41664123535156 359.28363037109375 162.7141571044922 C 345.8027038574219 173.804931640625 334.4259948730469 185.42726135253906 323.9809875488281 197.38433837890625 C 321.5694885253906 217.68197631835938 319.7371520996094 237.5035400390625 318.602294921875 262.7666931152344 C 327.7631530761719 272.9007873535156 337.4501647949219 282.8808288574219 348.1103210449219 291.2812805175781 C 366.1839599609375 296.8973083496094 382.6751708984375 303.4648132324219 404.1027526855469 308.6819152832031 C 423.8858642578125 293.2290344238281 442.5345764160156 278.21240234375 460.7571716308594 262.6820373535156 C 460.6228332519531 240.8836669921875 460.2535705566406 223.66543579101562 458.97015380859375 205.77035522460938 C 453.5586853027344 193.4962921142578 447.2289733886719 181.82765197753906 440.3709411621094 170.86627197265625 C 428.5594177246094 166.6703338623047 416.705810546875 162.88381958007812 404.4882507324219 159.88685607910156 C 402.9279479980469 142.6358642578125 399.9075622558594 126.9881591796875 396.50518798828125 112.8414306640625 C 386.4443054199219 109.65900421142578 376.9388122558594 108.04446411132812 366.91485595703125 107.9095458984375" stroke-width="0.0" fill="rgb(181, 163, 167)" opacity="0.97948027" stroke="rgb(0, 0, 0)" stroke-opacity="1.0" stroke-linecap="round" stroke-linejoin="round"/>
    <path d="M 92.01567077636719 115.52304077148438 C 85.87910461425781 120.23866271972656 80.56922912597656 126.26466369628906 77.79290008544922 134.21694946289062 C 76.34022521972656 149.0992431640625 76.83428192138672 161.48690795898438 80.38490295410156 175.11465454101562 C 69.82945251464844 178.52333068847656 59.8699836730957 184.1727294921875 52.571407318115234 191.08712768554688 C 46.18821334838867 194.6270751953125 45.939796447753906 201.84165954589844 39.72749328613281 208.4722137451172 C 36.82893371582031 222.17791748046875 34.47465515136719 240.8278350830078 32.861629486083984 264.1461486816406 C 38.795772552490234 274.8246154785156 45.47886276245117 284.8053894042969 52.724853515625 294.4973449707031 C 69.55335998535156 300.8896484375 86.94406127929688 306.8266906738281 104.7679214477539 312.7215881347656 C 118.24052429199219 307.69000244140625 126.45689392089844 302.2792663574219 133.73512268066406 296.0063781738281 C 140.12765502929688 287.7771301269531 146.8797607421875 280.1802062988281 153.94593811035156 272.2817077636719 C 156.55609130859375 261.7536315917969 158.0384521484375 249.95614624023438 158.8650360107422 235.6563262939453 C 157.29177856445312 219.00875854492188 155.08966064453125 204.23854064941406 152.24203491210938 189.83370971679688 C 142.56443786621094 183.0520782470703 131.97885131835938 177.35910034179688 121.2015151977539 172.97216796875 C 123.16710662841797 165.4378662109375 124.4787826538086 156.45213317871094 125.39401245117188 145.5653839111328 C 123.46150970458984 136.0672607421875 120.56230926513672 128.4651336669922 116.09307098388672 120.49501037597656 C 110.5352783203125 118.16519165039062 103.31399536132812 116.46188354492188 92.01567077636719 115.52304077148438" stroke-width="0.0" fill="rgb(153, 137, 157)" opacity="0.98949265" stroke="rgb(0, 0, 0)" stroke-opacity="1.0" stroke-linecap="round" stroke-linejoin="round"/>
    <path d="M 168.12240600585938 185.36936950683594 C 164.5753936767578 192.80845642089844 162.9241943359375 202.85523986816406 162.74534606933594 216.9931640625 C 172.6120147705078 211.62966918945312 182.41700744628906 211.1218719482422 193.02601623535156 211.47088623046875 C 190.83612060546875 234.94886779785156 190.39694213867188 257.6645812988281 190.33644104003906 284.70550537109375 C 222.9886932373047 285.6113586425781 254.6363525390625 286.2839660644531 290.44927978515625 286.92169189453125 C 291.2672119140625 263.56781005859375 291.5982360839844 241.9348602294922 291.3332824707031 220.26406860351562 C 291.36053466796875 215.47219848632812 295.9255676269531 214.81520080566406 300.2908020019531 215.4419403076172 C 305.9708557128906 216.34678649902344 311.4978332519531 218.14462280273438 319.35736083984375 221.65167236328125 C 320.15960693359375 212.17190551757812 320.52587890625 203.28799438476562 319.89630126953125 192.6971435546875 C 313.2107849121094 184.80516052246094 307.4579772949219 177.55372619628906 302.1813659667969 168.94667053222656 C 291.5111999511719 164.8499755859375 279.53472900390625 161.4998016357422 266.5401306152344 158.80291748046875 C 262.798583984375 167.1919403076172 259.1850891113281 171.83251953125 254.94390869140625 175.55767822265625 C 249.53005981445312 177.92266845703125 244.24632263183594 179.59007263183594 238.6260986328125 179.09873962402344 C 231.17901611328125 171.03106689453125 224.53570556640625 163.987060546875 217.294189453125 159.6934051513672 C 207.48416137695312 162.8086395263672 199.10972595214844 164.72462463378906 191.18548583984375 167.22312927246094 C 182.71348571777344 172.0823516845703 175.80908203125 178.4733123779297 168.12240600585938 185.36936950683594" stroke-width="0.0" fill="rgb(113, 65, 157)" opacity="0.9896434" stroke="rgb(0, 0, 0)" stroke-opacity="1.0" stroke-linecap="round" stroke-linejoin="round"/>
    <path d="M 197.18409729003906 285.98516845703125 C 192.3213653564453 291.6744689941406 188.74400329589844 296.4068298339844 185.91246032714844 302.0147399902344 C 184.4375 311.4800109863281 183.3164520263672 321.3577880859375 180.67774963378906 333.7669677734375 C 185.66163635253906 361.90362548828125 192.8834686279297 389.3557434082031 200.5189208984375 416.6484680175781 C 202.8789825439453 420.94927978515625 206.3705596923828 424.06378173828125 212.95452880859375 426.51983642578125 C 221.775634765625 423.5306091308594 227.80043029785156 420.22088623046875 233.57913208007812 416.744140625 C 230.53189086914062 388.9768981933594 222.79295349121094 369.7024230957031 223.15298461914062 346.7121276855469 C 226.30413818359375 340.5863037109375 227.96214294433594 335.60076904296875 230.76878356933594 331.9734802246094 C 234.91824340820312 330.0553894042969 239.3428955078125 328.4724426269531 244.27610778808594 327.40008544921875 C 250.2263641357422 333.7344665527344 257.7503967285156 339.1515808105469 266.0906982421875 344.2701110839844 C 258.4925231933594 365.6519775390625 253.685546875 387.3004150390625 249.60594177246094 414.0914001464844 C 256.3201599121094 417.19219970703125 263.2745056152344 419.5638122558594 275.766845703125 421.6946716308594 C 286.5265197753906 398.1669616699219 297.2447814941406 374.5559997558594 308.3326721191406 350.4884033203125 C 305.9576110839844 330.547119140625 302.9379577636719 314.9125671386719 299.62322998046875 299.6158752441406 C 293.4464111328125 295.5072937011719 287.49591064453125 291.4588928222656 280.748291015625 288.2772521972656 C 253.46788024902344 286.84033203125 226.34478759765625 285.8585510253906 197.18409729003906 285.98516845703125" stroke-width="0.0" fill="rgb(87, 123, 161)" opacity="0.9943306" stroke="rgb(0, 0, 0)" stroke-opacity="1.0" stroke-linecap="round" stroke-linejoin="round"/>
    <path d="M 262.0408020019531 -2.1624703407287598 C 262.8307189941406 44.900455474853516 263.38873291015625 88.89663696289062 264.4786376953125 133.88629150390625 C 290.82421875 133.4641571044922 315.29962158203125 133.43748474121094 342.2464599609375 133.7716064453125 C 342.9296569824219 89.3319320678711 343.3246154785156 45.693359375 343.3316650390625 -0.5327479243278503 C 316.09820556640625 -1.5061671733856201 290.4588928222656 -1.8479175567626953 262.0408020019531 -2.1624703407287598" stroke-width="0.0" fill="rgb(181, 50, 49)" opacity="0.9976013" stroke="rgb(0, 0, 0)" stroke-opacity="1.0" stroke-linecap="round" stroke-linejoin="round"/>
    <path d="M 147.2312774658203 292.2308349609375 C 131.84814453125 298.1002197265625 119.85653686523438 304.38580322265625 107.51898956298828 313.6068115234375 C 95.94692993164062 307.2760314941406 80.62625122070312 303.73004150390625 62.306968688964844 299.972412109375 C 55.94483184814453 300.1358947753906 49.76878356933594 303.2670593261719 44.286216735839844 307.4415283203125 C 42.63528060913086 318.7938537597656 41.96255874633789 330.4344787597656 42.46590042114258 345.17547607421875 C 57.529136657714844 371.1292724609375 72.10783386230469 397.2134704589844 86.51492309570312 423.39776611328125 C 92.65228271484375 419.8599548339844 96.43310546875 420.2359619140625 98.64647674560547 419.92999267578125 C 104.31019592285156 416.6775817871094 111.92272186279297 415.260986328125 117.71597290039062 411.6715087890625 C 129.53579711914062 393.5127258300781 140.80859375 374.7919921875 151.7344512939453 355.4454040527344 C 155.17376708984375 344.9130554199219 157.53550720214844 333.2645263671875 159.39810180664062 318.50469970703125 C 156.528076171875 308.2808532714844 153.21202087402344 300.2554016113281 147.2312774658203 292.2308349609375" stroke-width="0.0" fill="rgb(75, 70, 87)" opacity="1.0049038" stroke="rgb(0, 0, 0)" stroke-opacity="1.0" stroke-linecap="round" stroke-linejoin="round"/>
    <path d="M 440.6481628417969 288.1630859375 C 429.74896240234375 288.38970947265625 423.90936279296875 289.4817199707031 418.9251403808594 291.3824462890625 C 413.60430908203125 299.25860595703125 408.17608642578125 306.49395751953125 403.1192932128906 313.7601623535156 C 404.8213195800781 331.23687744140625 404.5273132324219 348.75994873046875 403.05364990234375 367.3547058105469 C 393.8245544433594 347.5669860839844 388.40966796875 327.044677734375 383.39068603515625 306.1353759765625 C 376.0248107910156 300.92681884765625 367.7415466308594 296.2192687988281 357.5990295410156 291.6206970214844 C 349.50146484375 294.45880126953125 344.8638610839844 297.806396484375 340.0417175292969 306.94549560546875 C 354.7721862792969 347.53436279296875 369.68890380859375 387.95306396484375 384.45318603515625 427.6558532714844 C 400.1151123046875 424.9859924316406 413.7675476074219 422.4533996582031 428.9888916015625 421.9629211425781 C 433.3443298339844 423.7480773925781 436.5605773925781 421.2871398925781 438.0225524902344 417.9877624511719 C 440.4240417480469 382.64532470703125 442.0604553222656 347.891845703125 447.07080078125 313.9940490722656 C 446.9247741699219 304.57470703125 443.905029296875 295.9056396484375 440.6481628417969 288.1630859375" stroke-width="0.0" fill="rgb(92, 133, 176)" opacity="1.0055296" stroke="rgb(0, 0, 0)" stroke-opacity="1.0" stroke-linecap="round" stroke-linejoin="round"/>
    <path d="M 361.01611328125 -1.0459285974502563 C 361.3182373046875 18.574501037597656 362.3511047363281 36.51588439941406 362.24395751953125 56.729244232177734 C 366.202392578125 54.40198516845703 368.3867492675781 55.81745147705078 369.4022521972656 62.044044494628906 C 414.34600830078125 59.24748611450195 459.49822998046875 57.12812423706055 504.1056823730469 54.81270980834961 C 503.9698181152344 34.66635513305664 504.0636901855469 17.33154296875 504.0936584472656 -2.208301305770874 C 453.9097595214844 -1.8845574855804443 406.93853759765625 -1.5482443571090698 361.01611328125 -1.0459285974502563" stroke-width="0.0" fill="rgb(19, 20, 20)" opacity="1.0212194" stroke="rgb(0, 0, 0)" stroke-opacity="1.0" stroke-linecap="round" stroke-linejoin="round"/>
    <path d="M 503.77191162109375 54.22340393066406 C 461.72918701171875 56.627567291259766 423.9404296875 60.07205581665039 381.5780944824219 61.2791862487793 C 376.68572998046875 69.13121795654297 372.310546875 80.08226776123047 370.9548034667969 92.77584838867188 C 365.3104248046875 87.7522964477539 363.3015441894531 80.57169342041016 362.9534606933594 71.34410858154297 C 361.5942687988281 81.45932006835938 361.2218322753906 91.544921875 360.7375793457031 104.89236450195312 C 407.0393981933594 105.30198669433594 453.3045959472656 105.63794708251953 502.83099365234375 105.892333984375 C 503.7763977050781 88.74225616455078 504.0553283691406 73.34611511230469 503.77191162109375 54.22340393066406" stroke-width="0.0" fill="rgb(96, 96, 96)" opacity="0.9771947" stroke="rgb(0, 0, 0)" stroke-opacity="1.0" stroke-linecap="round" stroke-linejoin="round"/>
    <path d="M 236.3649139404297 106.59423828125 C 229.72476196289062 107.29338836669922 224.2761993408203 111.49500274658203 218.9272918701172 116.24287414550781 C 217.1349639892578 126.1786117553711 216.26719665527344 136.71551513671875 216.6805877685547 148.81529235839844 C 219.3465576171875 155.98207092285156 221.72128295898438 162.9418487548828 224.1010284423828 170.41586303710938 C 228.3939208984375 174.16940307617188 233.72714233398438 177.13970947265625 243.3350830078125 179.42431640625 C 250.35568237304688 175.7510986328125 256.0338134765625 171.76272583007812 261.5197448730469 167.44468688964844 C 262.86614990234375 154.6382293701172 263.8899230957031 141.98065185546875 264.4054870605469 125.64060974121094 C 260.3113708496094 119.4148178100586 256.6109619140625 113.7906723022461 252.7284698486328 108.40026092529297 C 247.9796142578125 107.35308074951172 243.093017578125 106.79093933105469 236.3649139404297 106.59423828125" stroke-width="0.0" fill="rgb(118, 92, 97)" opacity="1.0007184" stroke="rgb(0, 0, 0)" stroke-opacity="1.0" stroke-linecap="round" stroke-linejoin="round"/>
    <path d="M 251.6516571044922 328.3061828613281 C 242.5257110595703 329.5168762207031 236.7542724609375 330.0514221191406 231.27899169921875 330.7914733886719 C 229.38441467285156 337.0064697265625 227.36697387695312 342.6471862792969 225.12022399902344 350.5434265136719 C 225.2988739013672 360.22235107421875 225.55569458007812 372.41558837890625 227.1409454345703 383.6381530761719 C 230.20094299316406 394.3984375 233.41384887695312 404.7838439941406 237.45675659179688 414.29864501953125 C 245.1968994140625 412.2801513671875 248.14794921875 410.2834167480469 250.2388458251953 407.5525817871094 C 256.2875671386719 390.44439697265625 261.7099914550781 373.1721496582031 266.82696533203125 350.745361328125 C 261.8279724121094 342.5807189941406 256.7927551269531 334.96051025390625 251.6516571044922 328.3061828613281" stroke-width="0.0" fill="rgb(61, 47, 31)" opacity="0.978375" stroke="rgb(0, 0, 0)" stroke-opacity="1.0" stroke-linecap="round" stroke-linejoin="round"/>
    <path d="M 360.3858642578125 -0.7204961776733398 C 353.1286926269531 -0.9139788150787354 347.1221008300781 -1.1549854278564453 340.19110107421875 -0.07540091872215271 C 340.53009033203125 46.93064498901367 341.3730773925781 92.10054779052734 342.30230712890625 136.99420166015625 C 348.4439392089844 135.90882873535156 351.21435546875 135.57008361816406 353.56011962890625 134.7903594970703 C 351.97235107421875 121.43974304199219 354.4812927246094 112.33853912353516 361.8730773925781 104.52578735351562 C 361.7649841308594 69.43567657470703 361.4381103515625 34.176849365234375 360.3858642578125 -0.7204961776733398" stroke-width="0.0" fill="rgb(120, 162, 141)" opacity="1.0105644" stroke="rgb(0, 0, 0)" stroke-opacity="1.0" stroke-linecap="round" stroke-linejoin="round"/>
    <path d="M 41.43980407714844 328.4927673339844 C 32.458473205566406 329.34326171875 26.692197799682617 330.58770751953125 20.699644088745117 332.0357971191406 C 16.698923110961914 335.4423522949219 14.23355770111084 340.175048828125 14.668526649475098 345.37298583984375 C 9.42496109008789 346.5934753417969 5.133045673370361 347.6805725097656 -2.1507506370544434 349.4153747558594 C -1.7922612428665161 360.9425964355469 -1.2880704402923584 372.76446533203125 -0.4350343346595764 384.9158630371094 C 21.64474105834961 384.2362060546875 40.35174560546875 383.68115234375 60.445457458496094 383.0069885253906 C 49.366188049316406 365.5052490234375 42.74351501464844 348.61956787109375 41.43980407714844 328.4927673339844" stroke-width="0.0" fill="rgb(177, 83, 66)" opacity="1.0132899" stroke="rgb(0, 0, 0)" stroke-opacity="1.0" stroke-linecap="round" stroke-linejoin="round"/>
    <path d="M 243.5455780029297 -0.5022905468940735 C 244.26499938964844 35.245567321777344 244.88743591308594 70.28059387207031 245.6466827392578 104.31126403808594 C 251.18150329589844 112.44367218017578 256.7868347167969 119.41812896728516 265.9697265625 126.2865982055664 C 265.2366638183594 82.14103698730469 264.56829833984375 40.522552490234375 263.739013671875 -1.0858826637268066 C 255.8763885498047 -0.8465042114257812 249.6211395263672 -1.1395108699798584 243.5455780029297 -0.5022905468940735" stroke-width="0.0" fill="rgb(130, 179, 156)" opacity="1.0060481" stroke="rgb(0, 0, 0)" stroke-opacity="1.0" stroke-linecap="round" stroke-linejoin="round"/>
    <path d="M 512.8305053710938 143.3245391845703 C 478.5330810546875 143.60459899902344 446.1836242675781 143.9024200439453 410.4282531738281 142.77378845214844 C 407.5169982910156 146.63478088378906 404.87506103515625 150.98724365234375 403.0157470703125 160.97894287109375 C 437.86993408203125 161.98060607910156 473.3146057128906 162.8714599609375 511.50579833984375 163.09048461914062 C 512.993896484375 156.68988037109375 512.8930053710938 151.08914184570312 512.8305053710938 143.3245391845703" stroke-width="0.0" fill="rgb(57, 20, 21)" opacity="0.99882954" stroke="rgb(0, 0, 0)" stroke-opacity="1.0" stroke-linecap="round" stroke-linejoin="round"/>
    <path d="M 264.7828369140625 146.26333618164062 C 264.1833801269531 152.95533752441406 264.6947326660156 155.9327850341797 267.2350158691406 157.31390380859375 C 276.18133544921875 159.505859375 284.5551452636719 161.81053161621094 292.9552917480469 165.0568389892578 C 315.654296875 165.8246307373047 336.9275207519531 165.4658660888672 359.11798095703125 165.06201171875 C 357.7504577636719 155.3570556640625 356.2309265136719 149.99209594726562 354.2254333496094 146.68251037597656 C 321.6482849121094 145.1278839111328 292.5935974121094 145.3555450439453 264.7828369140625 146.26333618164062" stroke-width="0.0" fill="rgb(41, 17, 21)" opacity="1.001389" stroke="rgb(0, 0, 0)" stroke-opacity="1.0" stroke-linecap="round" stroke-linejoin="round"/>
    <path d="M 218.26470947265625 148.3165283203125 C 188.50067138671875 147.6361083984375 159.40756225585938 147.03219604492188 127.79388427734375 146.7624053955078 C 126.45441436767578 152.57203674316406 125.64985656738281 157.29388427734375 125.3610610961914 165.8042755126953 C 145.45086669921875 166.55450439453125 166.60464477539062 166.97503662109375 190.47174072265625 166.96409606933594 C 199.10855102539062 164.71945190429688 207.3859100341797 162.3482208251953 215.61392211914062 159.9178466796875 C 216.64549255371094 156.71484375 217.43487548828125 154.4765625 218.26470947265625 148.3165283203125" stroke-width="0.0" fill="rgb(45, 17, 21)" opacity="1.006236" stroke="rgb(0, 0, 0)" stroke-opacity="1.0" stroke-linecap="round" stroke-linejoin="round"/>
    <path d="M 511.6929016113281 129.1822052001953 C 476.1156311035156 129.51806640625 441.54022216796875 129.6856689453125 405.67529296875 129.96868896484375 C 405.198974609375 133.60501098632812 405.5699157714844 137.3643035888672 406.0432434082031 144.889892578125 C 439.4023742675781 145.22364807128906 474.3681640625 145.51593017578125 511.9836730957031 145.73756408691406 C 512.5029907226562 139.45263671875 512.3727416992188 134.8760528564453 511.6929016113281 129.1822052001953" stroke-width="0.0" fill="rgb(203, 221, 193)" opacity="1.0124074" stroke="rgb(0, 0, 0)" stroke-opacity="1.0" stroke-linecap="round" stroke-linejoin="round"/>
    <path d="M -2.0211453437805176 150.20999145507812 C -1.7614408731460571 158.443115234375 -1.3367443084716797 163.7412567138672 0.40794360637664795 169.8902587890625 C 27.633995056152344 169.24755859375 52.96808624267578 168.70919799804688 77.51164245605469 167.9290008544922 C 75.64884185791016 159.42474365234375 74.26126098632812 154.8379669189453 72.88554382324219 150.98468017578125 C 47.30391311645508 150.3507080078125 23.103185653686523 149.93992614746094 -2.0211453437805176 150.20999145507812" stroke-width="0.0" fill="rgb(66, 20, 23)" opacity="1.0041554" stroke="rgb(0, 0, 0)" stroke-opacity="1.0" stroke-linecap="round" stroke-linejoin="round"/>
    <path d="M 355.0794677734375 133.1855010986328 C 323.31036376953125 132.6534423828125 294.5008239746094 133.9063720703125 263.9241638183594 135.3940887451172 C 263.2481994628906 136.8096466064453 263.1075134277344 139.1758575439453 264.55572509765625 144.90371704101562 C 289.8687438964844 146.23915100097656 317.63360595703125 147.5320587158203 349.3106689453125 148.16000366210938 C 351.5760192871094 144.23484802246094 353.61175537109375 140.27017211914062 355.0794677734375 133.1855010986328" stroke-width="0.0" fill="rgb(182, 194, 166)" opacity="1.0086713" stroke="rgb(0, 0, 0)" stroke-opacity="1.0" stroke-linecap="round" stroke-linejoin="round"/>
    <path d="M 74.95032501220703 137.07936096191406 C 48.89469528198242 137.15699768066406 24.627864837646484 137.92161560058594 -0.5465282201766968 138.87110900878906 C -0.4336737394332886 142.01499938964844 -0.7626910209655762 146.0552215576172 -0.7257816791534424 151.63034057617188 C 24.572561264038086 151.80813598632812 48.380584716796875 151.0331573486328 73.97747802734375 149.03269958496094 C 74.5413589477539 145.6963348388672 74.9095458984375 141.77474975585938 74.95032501220703 137.07936096191406" stroke-width="0.0" fill="rgb(204, 222, 194)" opacity="1.0024207" stroke="rgb(0, 0, 0)" stroke-opacity="1.0" stroke-linecap="round" stroke-linejoin="round"/>
    <path d="M 359.5970458984375 164.56468200683594 C 336.4476013183594 163.61875915527344 315.4984436035156 163.3411407470703 296.4739074707031 162.77545166015625 C 306.7094421386719 172.30819702148438 316.5483703613281 183.45370483398438 322.8116760253906 195.2901153564453 C 332.2991638183594 183.62368774414062 343.9989929199219 173.65127563476562 359.5970458984375 164.56468200683594" stroke-width="0.0" fill="rgb(123, 42, 48)" opacity="0.99169457" stroke="rgb(0, 0, 0)" stroke-opacity="1.0" stroke-linecap="round" stroke-linejoin="round"/>
    <path d="M 489.7163391113281 339.96380615234375 C 474.0603332519531 340.3575439453125 459.98065185546875 340.6531982421875 443.7203674316406 342.5583190917969 C 442.644775390625 350.3348693847656 442.0902404785156 360.9263000488281 442.89300537109375 375.6062927246094 C 458.4776306152344 376.2912902832031 475.70172119140625 376.635009765625 496.451416015625 376.81781005859375 C 493.9043884277344 362.5110778808594 491.6280517578125 352.0890808105469 489.7163391113281 339.96380615234375" stroke-width="0.0" fill="rgb(55, 17, 20)" opacity="1.000392" stroke="rgb(0, 0, 0)" stroke-opacity="1.0" stroke-linecap="round" stroke-linejoin="round"/>
    <path d="M 512.9444580078125 131.7696990966797 C 512.555908203125 124.74686431884766 512.6333618164062 120.28067016601562 512.5413818359375 115.3201904296875 C 474.5177307128906 116.39116668701172 438.5484313964844 116.58929443359375 402.88336181640625 116.69499969482422 C 403.620849609375 122.06303405761719 404.08868408203125 127.23155975341797 404.8521423339844 132.75868225097656 C 442.3618469238281 132.64747619628906 477.2302551269531 132.1636199951172 512.9444580078125 131.7696990966797" stroke-width="0.0" fill="rgb(122, 180, 143)" opacity="1.0021185" stroke="rgb(0, 0, 0)" stroke-opacity="1.0" stroke-linecap="round" stroke-linejoin="round"/>
    <path d="M 0.10981929302215576 87.11078643798828 C -1.008352518081665 94.51140594482422 -1.2055561542510986 102.12397766113281 -0.6418870091438293 110.94033813476562 C 29.1364803314209 111.13109588623047 56.59965896606445 110.60646057128906 83.91088104248047 109.92838287353516 C 82.14999389648438 101.85798645019531 80.2892837524414 98.85313415527344 77.87580108642578 98.17513275146484 C 63.50334548950195 97.61585235595703 50.795108795166016 97.20547485351562 36.94142150878906 97.64724731445312 C 31.75950050354004 96.3195571899414 30.5206241607666 88.40714263916016 25.81914520263672 85.8260498046875 C 15.788921356201172 85.9968490600586 7.643032550811768 85.92636108398438 0.10981929302215576 87.11078643798828" stroke-width="0.0" fill="rgb(109, 113, 116)" opacity="1.0099326" stroke="rgb(0, 0, 0)" stroke-opacity="1.0" stroke-linecap="round" stroke-linejoin="round"/>
    <path d="M -0.9093426465988159 212.29214477539062 C 12.718730926513672 212.28326416015625 25.437335968017578 212.4093017578125 40.783180236816406 213.05674743652344 C 42.347904205322266 201.4666290283203 47.949642181396484 194.1737518310547 55.68342208862305 185.77650451660156 C 35.635501861572266 185.22862243652344 17.7722110748291 185.6476593017578 0.2801735997200012 185.86746215820312 C -0.1972097009420395 194.3340606689453 -0.6889402866363525 202.66954040527344 -0.9093426465988159 212.29214477539062" stroke-width="0.0" fill="rgb(173, 55, 53)" opacity="1.0021638" stroke="rgb(0, 0, 0)" stroke-opacity="1.0" stroke-linecap="round" stroke-linejoin="round"/>
    <path d="M -2.184715986251831 261.4020690917969 C -1.8340851068496704 274.4413757324219 -1.4591538906097412 285.7257080078125 0.3350396752357483 298.4941711425781 C 14.284414291381836 297.50909423828125 25.302841186523438 296.1971740722656 36.69240951538086 294.8484191894531 C 35.84095764160156 279.82489013671875 34.51599884033203 270.0540771484375 33.13945388793945 262.4220886230469 C 20.747234344482422 262.73602294921875 10.017472267150879 261.122802734375 -2.184715986251831 261.4020690917969" stroke-width="0.0" fill="rgb(186, 60, 56)" opacity="1.0027838" stroke="rgb(0, 0, 0)" stroke-opacity="1.0" stroke-linecap="round" stroke-linejoin="round"/>
    <path d="M 127.2750015258789 135.73855590820312 C 126.78389739990234 140.53945922851562 126.72576141357422 144.620849609375 128.1366729736328 149.8754425048828 C 158.01014709472656 149.95712280273438 186.60748291015625 149.6023712158203 215.8240966796875 148.91769409179688 C 215.4989013671875 142.3564910888672 215.36788940429688 138.46994018554688 214.68203735351562 135.13037109375 C 184.65000915527344 134.84942626953125 155.33169555664062 134.53175354003906 127.2750015258789 135.73855590820312" stroke-width="0.0" fill="rgb(190, 209, 179)" opacity="1.0004686" stroke="rgb(0, 0, 0)" stroke-opacity="1.0" stroke-linecap="round" stroke-linejoin="round"/>
    <path d="M -0.11192326992750168 228.7837677001953 C -0.01706414297223091 239.3333282470703 -0.03980617970228195 249.66680908203125 -0.4149033725261688 261.2679748535156 C 10.426420211791992 261.2521057128906 20.821977615356445 261.345703125 34.335262298583984 262.0002746582031 C 34.829795837402344 251.11959838867188 35.5483283996582 240.78179931640625 36.2211799621582 229.08804321289062 C 22.807985305786133 229.3307342529297 11.28849983215332 228.6798553466797 -0.11192326992750168 228.7837677001953" stroke-width="0.0" fill="rgb(177, 58, 56)" opacity="1.0023577" stroke="rgb(0, 0, 0)" stroke-opacity="1.0" stroke-linecap="round" stroke-linejoin="round"/>
    <path d="M 230.4296112060547 83.7449722290039 C 189.733642578125 84.40715789794922 154.0657501220703 85.69175720214844 118.32392883300781 91.87393188476562 C 153.35108947753906 93.63803100585938 188.134765625 94.14434051513672 226.62115478515625 94.04737854003906 C 228.6651611328125 92.34906768798828 229.74766540527344 90.46940612792969 230.4296112060547 83.7449722290039" stroke-width="0.0" fill="rgb(123, 125, 131)" opacity="1.022266" stroke="rgb(0, 0, 0)" stroke-opacity="1.0" stroke-linecap="round" stroke-linejoin="round"/>
    <path d="M 101.96107482910156 -0.33328646421432495 C 102.01301574707031 17.073945999145508 103.38556671142578 31.973407745361328 105.05374145507812 46.608726501464844 C 155.69488525390625 44.96750259399414 200.71881103515625 42.982444763183594 240.80636596679688 40.98124694824219 C 241.14862060546875 26.419025421142578 244.61863708496094 12.167250633239746 244.02349853515625 -1.8453435897827148 C 195.37091064453125 -1.5980620384216309 148.5726776123047 -1.6204655170440674 101.96107482910156 -0.33328646421432495" stroke-width="0.0" fill="rgb(36, 43, 39)" opacity="1.00005" stroke="rgb(0, 0, 0)" stroke-opacity="1.0" stroke-linecap="round" stroke-linejoin="round"/>
    <path d="M 413.1461181640625 410.89031982421875 C 407.3861999511719 418.4079895019531 398.85321044921875 425.8858947753906 389.70452880859375 428.75396728515625 C 394.82763671875 445.6904296875 399.1023254394531 462.7341003417969 402.3400573730469 484.6627502441406 C 406.98077392578125 486.80810546875 415.3162536621094 488.80584716796875 428.6321105957031 490.6951904296875 C 435.30902099609375 471.1881103515625 441.9757080078125 451.9659423828125 450.8421630859375 433.8280029296875 C 438.7460021972656 424.2410888671875 423.1775817871094 418.9845886230469 413.1461181640625 410.89031982421875" stroke-width="0.0" fill="rgb(60, 60, 68)" opacity="0.9925616" stroke="rgb(0, 0, 0)" stroke-opacity="1.0" stroke-linecap="round" stroke-linejoin="round"/>
    <path d="M 460.5594482421875 222.40476989746094 C 461.0843505859375 232.96652221679688 461.5039978027344 243.21925354003906 462.8044738769531 254.83731079101562 C 480.3583068847656 254.9632568359375 496.1733703613281 254.5258331298828 512.9767456054688 253.521240234375 C 512.9132690429688 241.93826293945312 512.9408569335938 232.01409912109375 512.9669189453125 221.03460693359375 C 494.0061340332031 221.39500427246094 477.8490295410156 221.93919372558594 460.5594482421875 222.40476989746094" stroke-width="0.0" fill="rgb(167, 51, 49)" opacity="1.0032139" stroke="rgb(0, 0, 0)" stroke-opacity="1.0" stroke-linecap="round" stroke-linejoin="round"/>
    <path d="M 447.1559753417969 179.70042419433594 C 452.23480224609375 187.99172973632812 457.3973693847656 195.4087677001953 459.88397216796875 205.45384216308594 C 478.0234375 205.5957489013672 495.3084716796875 205.48316955566406 512.9938354492188 204.9371795654297 C 512.828369140625 195.19546508789062 512.865966796875 187.64126586914062 512.8993530273438 179.3957977294922 C 489.7457580566406 179.27413940429688 468.5128479003906 179.0302276611328 447.1559753417969 179.70042419433594" stroke-width="0.0" fill="rgb(167, 53, 53)" opacity="1.0024678" stroke="rgb(0, 0, 0)" stroke-opacity="1.0" stroke-linecap="round" stroke-linejoin="round"/>
    <path d="M 463.5779113769531 255.22364807128906 C 464.2059326171875 261.8089904785156 464.7740173339844 268.2069396972656 464.9420471191406 274.0290222167969 C 466.6863098144531 270.520263671875 467.8605651855469 267.6578369140625 469.32232666015625 264.95513916015625 C 473.7916564941406 272.49468994140625 477.69598388671875 280.973876953125 481.6783142089844 290.4866638183594 C 493.23443603515625 291.1147155761719 502.85992431640625 290.87933349609375 512.9909057617188 290.23095703125 C 512.9205322265625 276.9360656738281 512.9490966796875 265.988525390625 512.9519653320312 253.69729614257812 C 495.11669921875 255.06495666503906 479.2147216796875 255.18801879882812 463.5779113769531 255.22364807128906" stroke-width="0.0" fill="rgb(176, 54, 52)" opacity="1.0007155" stroke="rgb(0, 0, 0)" stroke-opacity="1.0" stroke-linecap="round" stroke-linejoin="round"/>
    <path d="M 100.24724578857422 393.720458984375 C 84.86262512207031 407.79107666015625 73.86805725097656 427.0934143066406 58.3681526184082 445.544677734375 C 59.34278869628906 452.3129577636719 61.41908264160156 458.2282409667969 64.0052490234375 464.228759765625 C 73.8881607055664 463.4353942871094 79.55989074707031 462.1015625 82.59734344482422 458.4320373535156 C 93.36549377441406 441.33599853515625 104.86579132080078 425.8451232910156 115.48271942138672 410.72491455078125 C 107.16007232666016 405.4652099609375 101.82329559326172 399.46136474609375 100.24724578857422 393.720458984375" stroke-width="0.0" fill="rgb(84, 82, 82)" opacity="0.9890293" stroke="rgb(0, 0, 0)" stroke-opacity="1.0" stroke-linecap="round" stroke-linejoin="round"/>
    <path d="M 299.07958984375 374.80865478515625 C 318.1475524902344 375.6183776855469 340.4677734375 376.29815673828125 367.54449462890625 376.8362731933594 C 362.96417236328125 361.8106689453125 358.2708435058594 352.1336364746094 353.79364013671875 343.87884521484375 C 338.304931640625 344.03143310546875 325.1192626953125 344.7752990722656 310.1202392578125 345.7430114746094 C 306.7442321777344 354.1448059082031 302.945556640625 363.6708984375 299.07958984375 374.80865478515625" stroke-width="0.0" fill="rgb(30, 17, 16)" opacity="0.9992354" stroke="rgb(0, 0, 0)" stroke-opacity="1.0" stroke-linecap="round" stroke-linejoin="round"/>
    <path d="M 303.5463562011719 273.4506530761719 C 300.3750915527344 283.2549133300781 298.8171691894531 293.2511291503906 296.2816162109375 305.06439208984375 C 299.07843017578125 313.4720764160156 303.58740234375 321.61346435546875 308.2778625488281 329.4365539550781 C 317.62713623046875 326.5657043457031 323.1184997558594 324.7168884277344 329.2412414550781 322.8827819824219 C 330.9106140136719 318.3454895019531 332.3240051269531 313.7165222167969 332.2095947265625 307.3658752441406 C 328.4756164550781 299.90185546875 325.63262939453125 293.0816345214844 322.53790283203125 286.6636047363281 C 315.9119873046875 282.4197692871094 309.6096496582031 278.05670166015625 303.5463562011719 273.4506530761719" stroke-width="0.0" fill="rgb(68, 138, 210)" opacity="1.0020468" stroke="rgb(0, 0, 0)" stroke-opacity="1.0" stroke-linecap="round" stroke-linejoin="round"/>
    <path d="M 182.7222137451172 347.44403076171875 C 172.429443359375 347.4463806152344 164.28634643554688 347.52947998046875 158.70115661621094 348.6920166015625 C 153.5184326171875 359.3162841796875 146.2211456298828 366.3467102050781 141.80230712890625 379.6470031738281 C 157.08575439453125 379.4710388183594 172.25106811523438 380.0770263671875 191.7209014892578 380.5989990234375 C 189.07553100585938 365.45538330078125 186.1995849609375 355.66729736328125 182.7222137451172 347.44403076171875" stroke-width="0.0" fill="rgb(28, 15, 16)" opacity="1.0019997" stroke="rgb(0, 0, 0)" stroke-opacity="1.0" stroke-linecap="round" stroke-linejoin="round"/>
    <path d="M 499.3974914550781 389.599853515625 C 478.9369201660156 388.88421630859375 460.603271484375 390.29266357421875 441.6379699707031 391.5772705078125 C 440.4562683105469 401.0147705078125 440.4769592285156 411.6078796386719 440.8341369628906 424.4668884277344 C 445.5546569824219 428.0908203125 451.6799011230469 431.17315673828125 455.6236877441406 438.2015686035156 C 448.7577209472656 447.15032958984375 441.8209228515625 454.5147399902344 434.2920227050781 461.41680908203125 C 430.4495849609375 470.2012634277344 431.24835205078125 480.6502990722656 433.4997863769531 491.75341796875 C 446.4129943847656 487.3720397949219 454.5220947265625 481.967529296875 465.4279479980469 477.08831787109375 C 460.1734313964844 471.6224060058594 451.48760986328125 472.6495361328125 450.71759033203125 469.12835693359375 C 459.3305358886719 455.30029296875 467.6231689453125 441.6002502441406 474.7132873535156 426.7162780761719 C 484.3935241699219 426.671630859375 494.16900634765625 426.68084716796875 504.7738037109375 425.84259033203125 C 501.0177001953125 415.18768310546875 496.54974365234375 409.6507873535156 491.58941650390625 404.21868896484375 C 492.2925720214844 400.3616638183594 495.8654479980469 398.0173034667969 502.37384033203125 397.7569274902344 C 501.2682189941406 391.5185852050781 500.2864074707031 388.7630310058594 499.3974914550781 389.599853515625" stroke-width="0.0" fill="rgb(46, 46, 51)" opacity="1.0043935" stroke="rgb(0, 0, 0)" stroke-opacity="1.0" stroke-linecap="round" stroke-linejoin="round"/>
    <path d="M -0.6798904538154602 384.0376281738281 C -1.1608850955963135 391.0239562988281 -1.242548942565918 397.9793395996094 -0.24359473586082458 406.21600341796875 C 25.783863067626953 406.2372741699219 49.513343811035156 405.6315002441406 73.88959503173828 404.9480895996094 C 69.54254913330078 392.852294921875 65.1773681640625 386.5617370605469 60.03448486328125 381.6635437011719 C 37.900211334228516 382.0892333984375 18.943557739257812 382.74957275390625 -0.6798904538154602 384.0376281738281" stroke-width="0.0" fill="rgb(157, 144, 121)" opacity="0.9888642" stroke="rgb(0, 0, 0)" stroke-opacity="1.0" stroke-linecap="round" stroke-linejoin="round"/>
    <path d="M 475.6199645996094 453.5727233886719 C 485.8932189941406 470.6817321777344 491.9363708496094 489.8570556640625 496.964599609375 510.8072509765625 C 500.3296203613281 512.6272583007812 505.6678161621094 512.6196899414062 512.8756103515625 512.6554565429688 C 512.9058837890625 491.38018798828125 512.9486083984375 471.6927795410156 512.9302368164062 452.0546569824219 C 500.34344482421875 452.39556884765625 489.4013977050781 453.42523193359375 475.6199645996094 453.5727233886719" stroke-width="0.0" fill="rgb(178, 169, 156)" opacity="1.001197" stroke="rgb(0, 0, 0)" stroke-opacity="1.0" stroke-linecap="round" stroke-linejoin="round"/>
    <path d="M 131.859375 396.8955993652344 C 150.08267211914062 397.5764465332031 169.82969665527344 398.19635009765625 193.01019287109375 398.42559814453125 C 192.78753662109375 390.07843017578125 192.36199951171875 385.18450927734375 191.90972900390625 378.30999755859375 C 175.81671142578125 377.94256591796875 160.218505859375 377.8245849609375 143.90394592285156 376.7456359863281 C 139.00747680664062 383.0079345703125 134.7764434814453 387.7146301269531 131.859375 396.8955993652344" stroke-width="0.0" fill="rgb(24, 24, 24)" opacity="1.0037236" stroke="rgb(0, 0, 0)" stroke-opacity="1.0" stroke-linecap="round" stroke-linejoin="round"/>
    <path d="M 500.7821044921875 -2.019885301589966 C 501.5824279785156 35.96043395996094 502.4395751953125 70.97974395751953 504.1630554199219 106.90686798095703 C 505.48187255859375 108.48928833007812 507.68109130859375 108.89986419677734 513.0620727539062 108.98431396484375 C 513.0949096679688 71.3569564819336 513.1175537109375 35.686485290527344 513.1295166015625 -0.00026303273625671864 C 508.0 -0.15938220918178558 505.0 -1.0309357643127441 500.7821044921875 -2.019885301589966" stroke-width="0.0" fill="rgb(132, 186, 160)" opacity="0.99205315" stroke="rgb(0, 0, 0)" stroke-opacity="1.0" stroke-linecap="round" stroke-linejoin="round"/>
    <path d="M 266.5010070800781 167.35891723632812 C 259.524169921875 175.02838134765625 253.4867706298828 178.1581268310547 246.73318481445312 179.33815002441406 C 238.1896514892578 176.19873046875 228.19056701660156 175.2758331298828 221.01028442382812 171.3843994140625 C 213.13389587402344 180.9040985107422 207.44082641601562 190.8205108642578 198.61123657226562 198.33880615234375 C 194.8650360107422 214.40890502929688 191.90927124023438 231.64768981933594 189.68008422851562 252.18695068359375 C 188.85324096679688 262.97015380859375 190.4586639404297 273.69342041015625 192.225830078125 284.7054443359375 C 227.12008666992188 284.6302490234375 257.7431335449219 284.2969970703125 289.83953857421875 283.8435363769531 C 289.6089172363281 256.57086181640625 289.27984619140625 233.62673950195312 288.7572937011719 209.8147735595703 C 281.2616271972656 195.48379516601562 274.06488037109375 181.34640502929688 266.5010070800781 167.35891723632812" stroke-width="0.0" fill="rgb(144, 50, 158)" opacity="1.0027975" stroke="rgb(0, 0, 0)" stroke-opacity="1.0" stroke-linecap="round" stroke-linejoin="round"/>
    <path d="M 80.12847137451172 173.25991821289062 C 65.52022552490234 179.86248779296875 55.25989532470703 186.8946533203125 45.62078857421875 194.80368041992188 C 40.71382522583008 208.8453826904297 36.62853240966797 223.71934509277344 33.30335235595703 242.1671142578125 C 40.309608459472656 245.53541564941406 47.28028106689453 248.27392578125 53.68157958984375 251.35137939453125 C 54.313392639160156 255.5341339111328 54.741424560546875 260.5621337890625 56.74467468261719 263.29302978515625 C 63.70748519897461 268.2962951660156 68.71853637695312 273.3517150878906 70.80944061279297 281.9375 C 80.52992248535156 284.0368957519531 90.90192413330078 286.0125427246094 104.96533966064453 287.9574279785156 C 114.28649139404297 282.33428955078125 123.64037322998047 276.6865539550781 133.04739379882812 271.0583190917969 C 135.3534698486328 262.16290283203125 137.70266723632812 253.52125549316406 140.05564880371094 245.13308715820312 C 146.28561401367188 243.49566650390625 152.5500030517578 241.78868103027344 158.19610595703125 239.7454376220703 C 157.33131408691406 222.79507446289062 156.12286376953125 210.64820861816406 155.0625762939453 197.47244262695312 C 148.18606567382812 189.80728149414062 140.52362060546875 182.47071838378906 131.5628662109375 175.48873901367188 C 118.28355407714844 181.77981567382812 112.46324157714844 192.59226989746094 102.55699920654297 198.741943359375 C 90.10818481445312 191.5482940673828 85.8281478881836 181.5053253173828 80.12847137451172 173.25991821289062" stroke-width="0.0" fill="rgb(138, 145, 182)" opacity="0.99547756" stroke="rgb(0, 0, 0)" stroke-opacity="1.0" stroke-linecap="round" stroke-linejoin="round"/>
    <path d="M 436.4928283691406 285.947021484375 C 427.6665954589844 289.6086120605469 422.1221008300781 292.0400390625 417.9129638671875 295.6902770996094 C 412.3657531738281 301.0768127441406 407.919921875 307.2157287597656 402.6865234375 314.3539733886719 C 403.9871520996094 349.453857421875 405.134765625 383.8124694824219 404.8233642578125 417.75091552734375 C 415.4091796875 417.52679443359375 427.7939453125 417.3779296875 437.8397216796875 415.59844970703125 C 440.9439697265625 378.2574768066406 442.271728515625 341.569580078125 449.4859619140625 306.1304626464844 C 445.8395690917969 298.8822326660156 441.23291015625 292.1524963378906 436.4928283691406 285.947021484375" stroke-width="0.0" fill="rgb(96, 140, 185)" opacity="0.9901271" stroke="rgb(0, 0, 0)" stroke-opacity="1.0" stroke-linecap="round" stroke-linejoin="round"/>
    <path d="M 351.86322021484375 291.2305603027344 C 345.88671875 297.3659362792969 342.5307312011719 303.35302734375 341.2618713378906 312.3271484375 C 355.3132629394531 350.34075927734375 369.7643127441406 387.548095703125 384.327880859375 424.6686706542969 C 393.39727783203125 420.3889465332031 397.0498962402344 416.0287170410156 398.6419677734375 410.6737365722656 C 401.56427001953125 396.62921142578125 402.9064636230469 383.7410583496094 402.261962890625 367.71435546875 C 394.927734375 347.7610778808594 388.3665466308594 327.98760986328125 381.8243103027344 307.3092041015625 C 374.1069030761719 301.12408447265625 364.44415283203125 296.1168212890625 351.86322021484375 291.2305603027344" stroke-width="0.0" fill="rgb(102, 148, 193)" opacity="0.9964232" stroke="rgb(0, 0, 0)" stroke-opacity="1.0" stroke-linecap="round" stroke-linejoin="round"/>
    <path d="M 367.998046875 188.58399963378906 C 365.30694580078125 213.57176208496094 362.709716796875 238.6466064453125 360.4410400390625 263.8518371582031 C 366.93511962890625 271.5970153808594 371.50732421875 276.2860412597656 376.7533264160156 280.18853759765625 C 387.26898193359375 280.3359375 394.4534606933594 279.82421875 403.41680908203125 278.9101257324219 C 408.9148864746094 273.52313232421875 413.9752197265625 267.23052978515625 417.3586730957031 258.91058349609375 C 418.3564758300781 250.92800903320312 418.0563659667969 243.1830291748047 417.9317626953125 234.18701171875 C 413.0939025878906 221.73477172851562 406.8709716796875 210.61961364746094 401.31927490234375 200.2259521484375 C 390.44171142578125 197.03677368164062 380.35736083984375 193.45114135742188 367.998046875 188.58399963378906" stroke-width="0.0" fill="rgb(138, 153, 185)" opacity="0.9972099" stroke="rgb(0, 0, 0)" stroke-opacity="1.0" stroke-linecap="round" stroke-linejoin="round"/>
    <path d="M 159.6609344482422 241.80996704101562 C 152.257080078125 239.9158172607422 146.2593994140625 239.4640655517578 138.11163330078125 240.13455200195312 C 135.45127868652344 249.2695770263672 132.773193359375 258.24896240234375 130.0575714111328 267.04888916015625 C 121.44914245605469 272.7485656738281 112.80325317382812 278.433349609375 104.17887878417969 284.233642578125 C 96.76679992675781 282.8338928222656 86.27204132080078 281.40777587890625 74.93810272216797 280.33636474609375 C 64.27618408203125 270.0562438964844 57.8000602722168 254.91957092285156 49.223934173583984 242.21214294433594 C 43.0941162109375 243.24037170410156 39.018985748291016 243.02284240722656 34.87144470214844 243.37857055664062 C 33.64421081542969 252.4144287109375 33.520896911621094 261.0060119628906 33.04117202758789 272.6354064941406 C 40.809078216552734 282.1810302734375 49.46944808959961 291.5217590332031 59.01181411743164 298.8989562988281 C 72.33951568603516 301.431884765625 82.30023193359375 306.07098388671875 92.71728515625 311.0942077636719 C 101.3343505859375 312.2103271484375 108.14905548095703 311.6779479980469 115.66092681884766 310.65777587890625 C 129.04400634765625 301.05950927734375 141.51158142089844 290.5287170410156 153.7534942626953 279.64288330078125 C 155.86380004882812 267.70172119140625 157.87794494628906 256.08258056640625 159.6609344482422 241.80996704101562" stroke-width="0.0" fill="rgb(180, 120, 116)" opacity="0.99508804" stroke="rgb(0, 0, 0)" stroke-opacity="1.0" stroke-linecap="round" stroke-linejoin="round"/>
    <path d="M 372.18243408203125 106.42485046386719 C 364.8387145996094 108.9518051147461 361.1359558105469 112.11644744873047 356.87860107421875 115.87297058105469 C 354.8085632324219 124.32589721679688 353.9689025878906 134.37489318847656 355.0610046386719 144.35340881347656 C 358.3529357910156 151.1527099609375 360.0762939453125 157.6655731201172 359.3416442871094 168.13780212402344 C 363.9429626464844 174.775390625 371.51043701171875 180.86099243164062 381.50347900390625 186.90396118164062 C 391.834228515625 179.49420166015625 398.82843017578125 172.1593780517578 405.39239501953125 164.7364959716797 C 403.97113037109375 150.61099243164062 404.19537353515625 139.74424743652344 404.927490234375 125.96493530273438 C 402.2692565917969 119.8345947265625 398.7431945800781 114.37610626220703 394.6234436035156 109.59721374511719 C 386.9659423828125 107.70018768310547 379.3894348144531 106.33458709716797 372.18243408203125 106.42485046386719" stroke-width="0.0" fill="rgb(176, 123, 117)" opacity="1.006817" stroke="rgb(0, 0, 0)" stroke-opacity="1.0" stroke-linecap="round" stroke-linejoin="round"/>
    <path d="M 95.38648986816406 115.67506408691406 C 88.72882080078125 117.36126708984375 84.03226470947266 120.28595733642578 79.33827209472656 123.75955200195312 C 76.42269134521484 131.55105590820312 75.19473266601562 141.15451049804688 74.17318725585938 151.75111389160156 C 76.40433502197266 162.91860961914062 79.7535400390625 173.836181640625 83.79125213623047 184.4038543701172 C 89.32847595214844 188.14608764648438 95.2796859741211 191.51177978515625 106.50416564941406 194.80780029296875 C 112.4708023071289 189.4803924560547 117.97314453125 183.99574279785156 122.17718505859375 177.66737365722656 C 124.10693359375 166.7313995361328 126.10848999023438 156.6554718017578 127.31758117675781 142.16143798828125 C 124.17923736572266 132.96316528320312 120.47183227539062 124.6777572631836 116.16188049316406 117.74752807617188 C 108.90940856933594 116.33820343017578 102.74588775634766 115.41822814941406 95.38648986816406 115.67506408691406" stroke-width="0.0" fill="rgb(173, 132, 131)" opacity="0.9952144" stroke="rgb(0, 0, 0)" stroke-opacity="1.0" stroke-linecap="round" stroke-linejoin="round"/>
    <path d="M 221.55397033691406 159.13021850585938 C 209.67141723632812 161.65106201171875 201.10971069335938 164.05886840820312 192.49786376953125 166.5057373046875 C 183.4785614013672 171.1434326171875 175.48443603515625 176.7185821533203 170.0479736328125 182.99754333496094 C 166.04989624023438 188.96705627441406 161.64698791503906 192.8503875732422 159.9918975830078 201.46217346191406 C 159.3494110107422 207.07525634765625 159.45277404785156 214.40267944335938 160.84385681152344 220.98458862304688 C 167.35231018066406 219.14524841308594 170.02569580078125 215.33692932128906 174.16119384765625 213.7583465576172 C 180.3808135986328 213.19032287597656 186.51287841796875 213.32423400878906 193.52366638183594 214.3494110107422 C 202.73912048339844 197.0386199951172 213.14981079101562 183.77978515625 222.48541259765625 168.93605041503906 C 222.81216430664062 163.38636779785156 222.08724975585938 160.74554443359375 221.55397033691406 159.13021850585938" stroke-width="0.0" fill="rgb(81, 158, 227)" opacity="0.9993325" stroke="rgb(0, 0, 0)" stroke-opacity="1.0" stroke-linecap="round" stroke-linejoin="round"/>
    <path d="M 264.3652648925781 162.12234497070312 C 271.2643127441406 182.3176727294922 278.7423400878906 199.48414611816406 287.38360595703125 215.00057983398438 C 300.8310852050781 214.1231231689453 310.8844909667969 216.37307739257812 320.6872253417969 219.70021057128906 C 321.9927673339844 216.26016235351562 323.15411376953125 210.1414337158203 323.66302490234375 200.61561584472656 C 319.4798889160156 191.57423400878906 314.57049560546875 183.50982666015625 309.08782958984375 175.99691772460938 C 303.47247314453125 171.85076904296875 297.59881591796875 168.05880737304688 291.6289367675781 164.19143676757812 C 284.2487487792969 161.69503784179688 276.63751220703125 160.24533081054688 264.3652648925781 162.12234497070312" stroke-width="0.0" fill="rgb(75, 115, 178)" opacity="0.99395746" stroke="rgb(0, 0, 0)" stroke-opacity="1.0" stroke-linecap="round" stroke-linejoin="round"/>
    <path d="M 216.64700317382812 134.93142700195312 C 216.51649475097656 138.9217071533203 216.74705505371094 144.2646026611328 216.69204711914062 151.0298614501953 C 218.97801208496094 160.36721801757812 222.95484924316406 168.6600799560547 228.2782440185547 175.36572265625 C 232.8818359375 176.53256225585938 236.55677795410156 178.23678588867188 243.7672119140625 179.83753967285156 C 249.36170959472656 176.72621154785156 254.7615203857422 173.4646453857422 260.75701904296875 170.1640625 C 261.9482116699219 159.85507202148438 262.938720703125 149.156494140625 263.9239501953125 134.03216552734375 C 247.79144287109375 133.60801696777344 232.99282836914062 133.6658477783203 216.64700317382812 134.93142700195312" stroke-width="0.0" fill="rgb(151, 104, 109)" opacity="1.008643" stroke="rgb(0, 0, 0)" stroke-opacity="1.0" stroke-linecap="round" stroke-linejoin="round"/>
    <path d="M 219.42056274414062 118.50214385986328 C 217.65676879882812 123.84825134277344 216.49937438964844 129.51318359375 216.42991638183594 133.35421752929688 C 233.13949584960938 133.20982360839844 248.72584533691406 136.18714904785156 264.5518493652344 136.36924743652344 C 263.69964599609375 127.80236053466797 262.56341552734375 122.5855712890625 260.44677734375 117.52146911621094 C 255.93280029296875 112.72280883789062 250.7489471435547 108.60903930664062 245.1268310546875 105.8031005859375 C 240.09188842773438 105.4542236328125 235.82325744628906 105.65888977050781 232.33245849609375 106.4638671875 C 227.16639709472656 109.52531433105469 223.05665588378906 113.70736694335938 219.42056274414062 118.50214385986328" stroke-width="0.0" fill="rgb(70, 75, 81)" opacity="1.0030518" stroke="rgb(0, 0, 0)" stroke-opacity="1.0" stroke-linecap="round" stroke-linejoin="round"/>
    <path d="M 263.7297058105469 -2.2012569904327393 C 263.6033630371094 44.30898666381836 263.9849548339844 88.0259017944336 265.00286865234375 133.55242919921875 C 279.7699890136719 134.52938842773438 295.2097473144531 135.0277862548828 314.5944519042969 134.99276733398438 C 314.76336669921875 89.87969970703125 314.79913330078125 45.78167724609375 315.10504150390625 -1.2183399200439453 C 297.3833312988281 -1.4749609231948853 281.0943298339844 -1.8134024143218994 263.7297058105469 -2.2012569904327393" stroke-width="0.0" fill="rgb(187, 53, 51)" opacity="0.9994691" stroke="rgb(0, 0, 0)" stroke-opacity="1.0" stroke-linecap="round" stroke-linejoin="round"/>
    <path d="M 315.19940185546875 -0.9066081047058105 C 313.4772033691406 45.270999908447266 313.5210876464844 89.65560150146484 313.6220397949219 134.6300048828125 C 323.83294677734375 134.1240692138672 331.6300964355469 133.45481872558594 341.91949462890625 133.10438537597656 C 342.31402587890625 89.69144439697266 342.6288757324219 45.72428894042969 342.1835632324219 -0.7204052805900574 C 331.48150634765625 -1.2200191020965576 322.18798828125 -1.0955970287322998 315.19940185546875 -0.9066081047058105" stroke-width="0.0" fill="rgb(184, 50, 47)" opacity="1.0000758" stroke="rgb(0, 0, 0)" stroke-opacity="1.0" stroke-linecap="round" stroke-linejoin="round"/>
    <path d="M 480.4815673828125 56.31999588012695 C 480.1622009277344 70.95220947265625 480.8757629394531 87.97242736816406 481.0866394042969 105.8960952758789 C 486.6942443847656 106.77174377441406 493.4656982421875 106.65731811523438 503.67694091796875 106.87522888183594 C 504.04156494140625 90.52837371826172 503.98681640625 74.01861572265625 503.7425231933594 55.4455451965332 C 495.98883056640625 55.10287857055664 489.080078125 55.41037368774414 480.4815673828125 56.31999588012695" stroke-width="0.0" fill="rgb(156, 168, 179)" opacity="1.0110426" stroke="rgb(0, 0, 0)" stroke-opacity="1.0" stroke-linecap="round" stroke-linejoin="round"/>
    <path d="M 401.3551330566406 160.53062438964844 C 401.3775329589844 169.80807495117188 401.4563293457031 178.99058532714844 402.530029296875 186.32725524902344 C 407.95599365234375 208.0251007080078 412.0778503417969 228.92506408691406 418.1672058105469 248.6500244140625 C 417.8271179199219 259.9123840332031 413.74072265625 270.1003112792969 407.0953369140625 279.9805908203125 C 411.88665771484375 281.3913269042969 415.20697021484375 286.2001037597656 416.6116943359375 292.9835510253906 C 424.0634765625 288.5016784667969 431.01458740234375 286.90478515625 437.99658203125 287.5292053222656 C 442.0916442871094 300.2747802734375 450.76263427734375 306.8389587402344 454.3194274902344 320.97314453125 C 454.54608154296875 323.196044921875 459.41827392578125 323.5496520996094 468.82843017578125 322.8095703125 C 465.68902587890625 278.8288269042969 462.3100891113281 239.50778198242188 459.1488037109375 200.03225708007812 C 452.81500244140625 189.21556091308594 446.18194580078125 178.85687255859375 438.7041931152344 169.14874267578125 C 427.7257080078125 165.85946655273438 416.2668762207031 163.03160095214844 401.3551330566406 160.53062438964844" stroke-width="0.0" fill="rgb(193, 180, 176)" opacity="0.9731362" stroke="rgb(0, 0, 0)" stroke-opacity="1.0" stroke-linecap="round" stroke-linejoin="round"/>
    <path d="M 361.1584167480469 165.9122772216797 C 348.83404541015625 172.17652893066406 338.239501953125 178.8831024169922 329.0439147949219 186.47015380859375 C 325.8373718261719 202.62246704101562 324.20452880859375 219.46173095703125 319.1112060546875 234.03353881835938 C 317.2519226074219 242.26063537597656 318.87451171875 250.43353271484375 320.10650634765625 259.03717041015625 C 327.0628967285156 268.4825134277344 333.6358642578125 278.15557861328125 338.7096862792969 290.186767578125 C 339.7416076660156 299.5749206542969 334.7982177734375 305.4112854003906 336.4500427246094 316.6192932128906 C 341.6990966796875 309.973876953125 344.2924499511719 302.9354248046875 346.7702941894531 293.8238525390625 C 354.16473388671875 292.3577880859375 362.5435485839844 296.56353759765625 372.69140625 297.6559143066406 C 373.977294921875 291.6991271972656 375.6178894042969 286.95526123046875 379.57427978515625 281.3014831542969 C 371.4678955078125 276.6010437011719 364.0895690917969 270.8308410644531 363.4351806640625 263.5203857421875 C 366.1894836425781 237.30780029296875 368.6356201171875 211.09503173828125 370.1622009277344 182.18234252929688 C 368.2690734863281 175.80662536621094 365.8038635253906 170.33050537109375 361.1584167480469 165.9122772216797" stroke-width="0.0" fill="rgb(214, 199, 193)" opacity="0.98113394" stroke="rgb(0, 0, 0)" stroke-opacity="1.0" stroke-linecap="round" stroke-linejoin="round"/>
    <path d="M 362.0067138671875 -1.1630622148513794 C 361.89898681640625 10.96751594543457 361.5729064941406 21.616287231445312 361.5596923828125 33.8117561340332 C 409.1545715332031 33.172176361083984 455.4727478027344 32.499996185302734 502.8927307128906 31.86762237548828 C 502.3172607421875 19.780223846435547 502.32647705078125 9.794417381286621 502.13531494140625 -2.183856964111328 C 453.68133544921875 -1.8618552684783936 407.04058837890625 -1.5262160301208496 362.0067138671875 -1.1630622148513794" stroke-width="0.0" fill="rgb(21, 23, 22)" opacity="1.0009272" stroke="rgb(0, 0, 0)" stroke-opacity="1.0" stroke-linecap="round" stroke-linejoin="round"/>
    <path d="M 421.58514404296875 410.8729248046875 C 411.0145263671875 417.1996765136719 396.4787292480469 419.1861877441406 386.0894470214844 427.310791015625 C 391.2302551269531 441.65155029296875 396.1290588378906 453.68609619140625 401.3753662109375 465.0408630371094 C 411.1905517578125 464.77191162109375 417.10162353515625 463.92620849609375 423.4457092285156 462.5456237792969 C 433.306640625 455.0011901855469 442.8100280761719 447.19622802734375 452.2899169921875 435.9489440917969 C 441.8619079589844 425.1214294433594 431.51776123046875 415.4873352050781 421.58514404296875 410.8729248046875" stroke-width="0.0" fill="rgb(65, 68, 81)" opacity="1.0080072" stroke="rgb(0, 0, 0)" stroke-opacity="1.0" stroke-linecap="round" stroke-linejoin="round"/>
    <path d="M 378.6098327636719 61.25365447998047 C 378.1324462890625 78.765380859375 379.0833435058594 91.51461791992188 380.3810119628906 104.04267883300781 C 390.544677734375 106.00869750976562 400.14691162109375 107.4164047241211 412.5602722167969 108.0370864868164 C 418.10687255859375 105.88440704345703 421.9675598144531 103.4180908203125 426.21331787109375 100.28131866455078 C 422.480224609375 91.93396759033203 420.1209411621094 86.06041717529297 418.8299865722656 76.61802673339844 C 417.4992370605469 81.61971282958984 415.5690002441406 82.7515640258789 413.6770935058594 82.74370574951172 C 413.4070129394531 72.81826782226562 412.87384033203125 66.27590942382812 411.4999694824219 60.8348274230957 C 398.11724853515625 60.01102066040039 387.7697448730469 60.22684860229492 378.6098327636719 61.25365447998047" stroke-width="0.0" fill="rgb(146, 133, 119)" opacity="1.0039786" stroke="rgb(0, 0, 0)" stroke-opacity="1.0" stroke-linecap="round" stroke-linejoin="round"/>
    <path d="M 501.30157470703125 31.213645935058594 C 455.2490539550781 31.407325744628906 409.5761413574219 32.058685302734375 362.5019226074219 32.13132095336914 C 361.4165954589844 33.86085510253906 361.2526550292969 36.262786865234375 361.61431884765625 42.91964340209961 C 409.86248779296875 42.64553451538086 456.1426696777344 42.31062316894531 502.1455078125 41.80815887451172 C 502.2598876953125 35.92634201049805 502.01348876953125 33.331363677978516 501.30157470703125 31.213645935058594" stroke-width="0.0" fill="rgb(52, 54, 52)" opacity="1.0031316" stroke="rgb(0, 0, 0)" stroke-opacity="1.0" stroke-linecap="round" stroke-linejoin="round"/>
    <path d="M 437.2634582519531 52.04274368286133 C 439.4253234863281 63.4581184387207 441.8078918457031 71.03751373291016 444.8534240722656 79.20684814453125 C 457.8045654296875 78.48261260986328 468.5263671875 78.314208984375 479.83209228515625 78.27738952636719 C 480.1395568847656 70.67987823486328 480.3699951171875 64.06790924072266 479.7117614746094 57.33198928833008 C 465.9471435546875 55.5453987121582 452.9830322265625 54.14521026611328 437.2634582519531 52.04274368286133" stroke-width="0.0" fill="rgb(70, 77, 79)" opacity="0.9963781" stroke="rgb(0, 0, 0)" stroke-opacity="1.0" stroke-linecap="round" stroke-linejoin="round"/>
    <path d="M -0.7527821063995361 347.04229736328125 C -1.2372076511383057 357.5957336425781 -1.1233503818511963 368.8636474609375 -0.6043503284454346 381.24468994140625 C 20.07942008972168 381.393798828125 40.16408157348633 381.66424560546875 61.74039077758789 380.6493225097656 C 52.45981979370117 369.4195861816406 45.61640167236328 359.287841796875 39.655609130859375 348.3354797363281 C 26.055261611938477 347.9997253417969 12.951613426208496 347.2525634765625 -0.7527821063995361 347.04229736328125" stroke-width="0.0" fill="rgb(179, 52, 46)" opacity="1.000238" stroke="rgb(0, 0, 0)" stroke-opacity="1.0" stroke-linecap="round" stroke-linejoin="round"/>
    <path d="M 266.8015441894531 346.12921142578125 C 251.65036010742188 346.5790100097656 237.86769104003906 346.77386474609375 223.0436553955078 346.6596374511719 C 223.18690490722656 358.8131408691406 224.20339965820312 368.5116271972656 225.71681213378906 378.60943603515625 C 239.39666748046875 378.85931396484375 250.4441680908203 378.73797607421875 262.534423828125 377.8589172363281 C 264.2338562011719 368.4730224609375 265.5911865234375 358.5113220214844 266.8015441894531 346.12921142578125" stroke-width="0.0" fill="rgb(24, 10, 11)" opacity="1.0027585" stroke="rgb(0, 0, 0)" stroke-opacity="1.0" stroke-linecap="round" stroke-linejoin="round"/>
    <path d="M 120.41043090820312 121.12371826171875 C 115.6353988647461 118.70226287841797 111.49117279052734 116.17210388183594 107.2427749633789 113.1352310180664 C 97.78572845458984 113.94368743896484 90.43022918701172 115.86761474609375 81.66110229492188 117.86994934082031 C 77.7801284790039 126.262451171875 74.5329818725586 136.34266662597656 72.1343765258789 150.957275390625 C 82.8809814453125 148.81594848632812 89.75325012207031 146.283447265625 95.8399429321289 144.17544555664062 C 103.56239318847656 145.5970916748047 113.6849365234375 147.21005249023438 127.59768676757812 149.37973022460938 C 125.76861572265625 136.19155883789062 123.50112915039062 128.16946411132812 120.41043090820312 121.12371826171875" stroke-width="0.0" fill="rgb(198, 175, 165)" opacity="0.98562384" stroke="rgb(0, 0, 0)" stroke-opacity="1.0" stroke-linecap="round" stroke-linejoin="round"/>
    <path d="M 34.465858459472656 242.9703826904297 C 64.21910858154297 244.42286682128906 93.51560974121094 245.3023223876953 124.73341369628906 245.8516387939453 C 134.83865356445312 242.16058349609375 144.89979553222656 239.16986083984375 156.74684143066406 235.34695434570312 C 155.47564697265625 219.2581024169922 154.11865234375 205.32664489746094 152.4755859375 190.5831756591797 C 142.8325958251953 184.65721130371094 133.07891845703125 179.0731201171875 122.63908386230469 174.2769775390625 C 116.49004364013672 183.5533447265625 111.98707580566406 190.94053649902344 106.66935729980469 196.42123413085938 C 101.70165252685547 194.9977264404297 97.58932495117188 196.06692504882812 94.71510314941406 195.61180114746094 C 90.16268157958984 187.21661376953125 84.52251434326172 180.1869659423828 78.17039489746094 173.92413330078125 C 63.792152404785156 181.06834411621094 53.70116424560547 188.2574920654297 45.84989929199219 197.31387329101562 C 42.64601516723633 208.03848266601562 39.46469497680664 218.19703674316406 37.042232513427734 229.48631286621094 C 39.10875701904297 231.8834686279297 40.0102424621582 235.85084533691406 42.46389389038086 239.9298858642578 C 41.31169128417969 240.06134033203125 37.606319427490234 238.92271423339844 34.465858459472656 242.9703826904297" stroke-width="0.0" fill="rgb(158, 176, 222)" opacity="1.0040252" stroke="rgb(0, 0, 0)" stroke-opacity="1.0" stroke-linecap="round" stroke-linejoin="round"/>
    <path d="M 53.210269927978516 267.8594665527344 C 59.91089630126953 274.1405944824219 67.15939331054688 279.8848571777344 74.42081451416016 285.5784606933594 C 83.74580383300781 286.69354248046875 92.49800872802734 287.5730285644531 103.95050811767578 289.0887756347656 C 113.07377624511719 284.9325866699219 121.8031005859375 280.3294677734375 130.03382873535156 275.3250427246094 C 133.13233947753906 268.01702880859375 135.95896911621094 261.1936950683594 138.59950256347656 254.0978546142578 C 131.47413635253906 251.6734161376953 128.6293487548828 249.59176635742188 127.43157958984375 246.95315551757812 C 104.03990173339844 246.712158203125 81.70281219482422 244.01602172851562 57.03179931640625 243.09088134765625 C 57.56980895996094 251.97850036621094 55.17164611816406 258.3533020019531 53.210269927978516 267.8594665527344" stroke-width="0.0" fill="rgb(102, 93, 109)" opacity="0.98917615" stroke="rgb(0, 0, 0)" stroke-opacity="1.0" stroke-linecap="round" stroke-linejoin="round"/>
    <path d="M 125.85800170898438 144.51089477539062 C 113.71733093261719 143.36204528808594 103.14923095703125 142.6256103515625 89.2239990234375 141.9307403564453 C 83.46324920654297 144.3313446044922 77.6375961303711 146.50416564941406 71.68162536621094 153.13462829589844 C 77.75802612304688 167.51397705078125 84.40160369873047 181.2039031982422 91.28768920898438 194.37188720703125 C 100.1339111328125 194.52700805664062 104.41553497314453 194.15191650390625 108.14498138427734 192.64065551757812 C 111.92527770996094 186.2703399658203 115.9862289428711 180.6475067138672 121.3354263305664 175.48336791992188 C 123.80304718017578 167.55545043945312 124.90763854980469 158.0233612060547 125.85800170898438 144.51089477539062" stroke-width="0.0" fill="rgb(156, 100, 100)" opacity="1.004354" stroke="rgb(0, 0, 0)" stroke-opacity="1.0" stroke-linecap="round" stroke-linejoin="round"/>
    <path d="M 404.7980651855469 139.51675415039062 C 387.13360595703125 140.3914031982422 372.1539611816406 141.74862670898438 354.6694030761719 143.23092651367188 C 355.9010925292969 150.9782257080078 358.126708984375 157.82154846191406 359.83001708984375 165.25877380371094 C 364.0953063964844 171.2262725830078 368.4216003417969 177.23948669433594 372.7071838378906 183.43844604492188 C 375.1462707519531 185.29336547851562 377.95928955078125 186.17352294921875 383.45989990234375 186.9634246826172 C 388.0071105957031 183.71246337890625 392.1156311035156 180.4879608154297 396.6460876464844 177.31900024414062 C 399.5340576171875 165.1570281982422 402.2100830078125 152.84046936035156 404.7980651855469 139.51675415039062" stroke-width="0.0" fill="rgb(162, 97, 92)" opacity="1.0047352" stroke="rgb(0, 0, 0)" stroke-opacity="1.0" stroke-linecap="round" stroke-linejoin="round"/>
    <path d="M 355.7651672363281 113.47096252441406 C 354.42572021484375 124.70933532714844 354.2085876464844 135.05953979492188 356.2062072753906 143.4507293701172 C 370.4532470703125 141.6862030029297 386.1773986816406 140.06898498535156 405.8695983886719 138.1847686767578 C 402.5963439941406 126.21633911132812 399.2431640625 115.25020599365234 395.71673583984375 105.61532592773438 C 387.23077392578125 104.50369262695312 380.2649230957031 103.6015625 374.28656005859375 103.86046600341797 C 364.9444580078125 105.65988159179688 359.9018859863281 109.17212677001953 355.7651672363281 113.47096252441406" stroke-width="0.0" fill="rgb(208, 164, 154)" opacity="0.98242664" stroke="rgb(0, 0, 0)" stroke-opacity="1.0" stroke-linecap="round" stroke-linejoin="round"/>
    <path d="M 36.672603607177734 242.44525146484375 C 34.232177734375 254.20013427734375 33.10899353027344 265.0526123046875 33.54465866088867 279.3526611328125 C 41.42058181762695 285.9156494140625 49.957794189453125 291.7017822265625 58.487770080566406 297.4684753417969 C 72.73941040039062 302.623779296875 85.25076293945312 309.6186218261719 103.03975677490234 315.8924560546875 C 115.8428726196289 308.5660400390625 127.84173583984375 301.230712890625 139.7359619140625 293.7164306640625 C 136.12322998046875 285.84002685546875 131.45533752441406 283.9178771972656 127.61016845703125 279.9781494140625 C 118.1041488647461 281.6084289550781 110.13216400146484 284.22491455078125 102.5816879272461 288.39459228515625 C 94.72393035888672 287.6780090332031 85.1220932006836 286.7073669433594 75.20155334472656 286.1455993652344 C 67.47913360595703 280.23858642578125 60.943328857421875 273.3913269042969 55.202369689941406 265.2005920410156 C 57.11275100708008 261.177978515625 59.588279724121094 254.88119506835938 61.82007598876953 244.5613555908203 C 54.264976501464844 243.6553192138672 46.6185417175293 242.64974975585938 36.672603607177734 242.44525146484375" stroke-width="0.0" fill="rgb(198, 133, 127)" opacity="0.9940322" stroke="rgb(0, 0, 0)" stroke-opacity="1.0" stroke-linecap="round" stroke-linejoin="round"/>
    <path d="M 157.07211303710938 236.4453582763672 C 148.04550170898438 236.52703857421875 142.09483337402344 236.9794464111328 136.57749938964844 238.1660919189453 C 136.4517364501953 246.43124389648438 139.21421813964844 252.65478515625 139.06849670410156 260.38116455078125 C 135.9040985107422 266.5666198730469 132.23822021484375 272.5657958984375 128.78582763671875 278.7610168457031 C 133.24679565429688 278.51934814453125 134.8990020751953 283.355712890625 141.2150115966797 287.27728271484375 C 146.58343505859375 281.9170227050781 151.92311096191406 276.591552734375 157.48745727539062 271.197021484375 C 156.48194885253906 257.7236633300781 156.64035034179688 247.91659545898438 157.07211303710938 236.4453582763672" stroke-width="0.0" fill="rgb(206, 147, 145)" opacity="0.9972201" stroke="rgb(0, 0, 0)" stroke-opacity="1.0" stroke-linecap="round" stroke-linejoin="round"/>
    <path d="M 263.8478088378906 -0.595537543296814 C 264.23602294921875 43.5933952331543 264.8489990234375 86.96765899658203 265.1199035644531 132.2870330810547 C 273.0912780761719 133.44540405273438 281.84613037109375 133.9303436279297 292.2806396484375 134.05862426757812 C 292.070556640625 88.13005065917969 291.41741943359375 44.22841262817383 289.5260009765625 -0.517555832862854 C 281.9355163574219 -0.9313560128211975 272.7931823730469 -1.0942937135696411 263.8478088378906 -0.595537543296814" stroke-width="0.0" fill="rgb(190, 52, 48)" opacity="0.9998501" stroke="rgb(0, 0, 0)" stroke-opacity="1.0" stroke-linecap="round" stroke-linejoin="round"/>
    <path d="M 289.8748474121094 -2.086423873901367 C 291.4661560058594 44.18770980834961 292.0628662109375 88.12764739990234 292.2347412109375 134.4571990966797 C 295.9966125488281 135.41912841796875 302.0027770996094 135.9395751953125 312.9755859375 135.9791717529297 C 313.645263671875 91.47807312011719 314.17913818359375 46.6800651550293 314.0283203125 -0.15902239084243774 C 305.59039306640625 -1.1678811311721802 298.26007080078125 -1.3804336786270142 289.8748474121094 -2.086423873901367" stroke-width="0.0" fill="rgb(193, 53, 50)" opacity="1.0006582" stroke="rgb(0, 0, 0)" stroke-opacity="1.0" stroke-linecap="round" stroke-linejoin="round"/>
    <path d="M 354.2841491699219 116.01936340332031 C 353.4016418457031 121.97380828857422 352.4902038574219 127.36602783203125 352.25537109375 133.28378295898438 C 357.3741760253906 126.246826171875 362.74884033203125 121.66697692871094 368.6584167480469 121.07199096679688 C 375.362548828125 121.71684265136719 380.29290771484375 122.76513671875 384.5111083984375 124.7961196899414 C 387.7936096191406 128.5145721435547 390.6990966796875 132.9586944580078 393.3551940917969 138.06861877441406 C 398.9221496582031 138.8367156982422 401.9750061035156 138.14332580566406 404.95135498046875 137.53286743164062 C 404.35137939453125 127.5163803100586 403.4069519042969 121.81255340576172 401.6722717285156 116.64222717285156 C 397.62493896484375 112.71861267089844 394.35302734375 108.32073211669922 390.9794006347656 104.82678985595703 C 384.43048095703125 103.92424011230469 378.3643798828125 103.87293243408203 372.0465087890625 104.01557922363281 C 363.9122009277344 106.25057220458984 358.0663757324219 110.6368179321289 354.2841491699219 116.01936340332031" stroke-width="0.0" fill="rgb(209, 187, 178)" opacity="0.99912775" stroke="rgb(0, 0, 0)" stroke-opacity="1.0" stroke-linecap="round" stroke-linejoin="round"/>
    <path d="M 119.1148452758789 118.15247344970703 C 111.24684143066406 116.59351348876953 105.13945770263672 114.69267272949219 99.30329895019531 114.51403045654297 C 89.24431610107422 115.90492248535156 83.53588104248047 118.73967742919922 77.49382019042969 122.65890502929688 C 74.67415618896484 130.33560180664062 73.06035614013672 139.9430694580078 73.49515533447266 150.07460021972656 C 75.61241912841797 158.83218383789062 76.84774780273438 165.86862182617188 80.88855743408203 171.90765380859375 C 82.46343231201172 162.00169372558594 79.72540283203125 156.97659301757812 79.43370056152344 153.13018798828125 C 88.45217895507812 147.12586975097656 96.20085144042969 140.5454559326172 103.5352554321289 132.39483642578125 C 111.59334564208984 131.18212890625 119.4921646118164 134.33041381835938 127.71794891357422 137.84095764160156 C 125.20183563232422 130.27076721191406 122.4874267578125 123.3253402709961 119.1148452758789 118.15247344970703" stroke-width="0.0" fill="rgb(209, 197, 187)" opacity="0.99696887" stroke="rgb(0, 0, 0)" stroke-opacity="1.0" stroke-linecap="round" stroke-linejoin="round"/>
  </g>
</svg>
