<?xml version="1.0" ?>
<svg xmlns="http://www.w3.org/2000/svg" version="1.1" width="512" height="512">
  <defs/>
  <g>
    <path d="M -1.731500267982483 -0.8884376883506775 C -1.1317455768585205 170.3333282470703 -0.34144383668899536 340.6666564941406 -0.36388811469078064 516.9258422851562 C 170.21180725097656 517.0930786132812 340.7767028808594 517.3643798828125 518.063232421875 517.6989135742188 C 517.8860473632812 340.3904113769531 517.7726440429688 170.39669799804688 518.01171875 -0.5062020421028137 C 340.6666564941406 -0.8723889589309692 170.3333282470703 -0.8563107252120972 -1.731500267982483 -0.8884376883506775" stroke-width="0.0" fill="rgb(137, 164, 178)" opacity="0.8735114" stroke="rgb(0, 0, 0)" stroke-opacity="1.0" stroke-linecap="round" stroke-linejoin="round"/>
    <path d="M 4.9637837409973145 333.4678039550781 C -5.961625576019287 389.5713806152344 -9.334403991699219 445.9966735839844 -9.124231338500977 519.5629272460938 C 167.67770385742188 519.539794921875 339.2544860839844 518.6652221679688 517.33544921875 517.8323974609375 C 517.479736328125 497.4447326660156 517.5780029296875 483.1190490722656 514.873779296875 468.8261413574219 C 501.357666015625 461.43768310546875 483.7216491699219 465.5390319824219 464.01641845703125 462.4137268066406 C 465.71826171875 456.1685485839844 462.5313720703125 452.7227478027344 465.0520935058594 456.0033264160156 C 459.099365234375 455.5964660644531 453.4743957519531 457.5969543457031 455.89227294921875 452.1772155761719 C 449.07122802734375 449.826904296875 452.4617919921875 455.84698486328125 448.1845703125 456.1325378417969 C 449.46551513671875 451.3666076660156 446.8448486328125 450.1789855957031 447.11773681640625 451.97564697265625 C 430.43109130859375 451.26953125 421.0166931152344 446.5550231933594 412.2824401855469 443.73016357421875 C 367.7120666503906 443.413330078125 325.03564453125 442.8120422363281 285.15234375 447.5306701660156 C 274.1013488769531 446.2155456542969 264.28387451171875 438.6889953613281 247.7360382080078 438.65948486328125 C 252.53773498535156 433.74755859375 248.87290954589844 429.6148986816406 246.77789306640625 425.7487487792969 C 235.4309539794922 425.73724365234375 230.00755310058594 433.7467346191406 215.42567443847656 437.62054443359375 C 206.56637573242188 411.1558837890625 195.83897399902344 393.75726318359375 187.2438507080078 372.5487976074219 C 170.83377075195312 364.6977233886719 154.80874633789062 353.07159423828125 136.6848907470703 341.57464599609375 C 93.32707214355469 339.9734191894531 48.91920471191406 337.96099853515625 4.9637837409973145 333.4678039550781" stroke-width="0.0" fill="rgb(103, 85, 64)" opacity="1.1467137" stroke="rgb(0, 0, 0)" stroke-opacity="1.0" stroke-linecap="round" stroke-linejoin="round"/>
    <path d="M 219.07205200195312 372.2719421386719 C 213.2672882080078 373.7474365234375 209.75454711914062 379.7674560546875 212.0322723388672 382.2554626464844 C 218.26524353027344 393.53192138671875 223.76028442382812 404.01904296875 231.40370178222656 412.52203369140625 C 234.42587280273438 418.8279724121094 234.73802185058594 425.82781982421875 232.6459197998047 427.11846923828125 C 239.23548889160156 427.5767517089844 250.01708984375 429.2062683105469 252.99392700195312 426.4505310058594 C 256.7772521972656 420.0093994140625 259.9153137207031 419.86968994140625 258.00958251953125 414.1104736328125 C 259.9412536621094 398.0614013671875 266.0902099609375 390.8792419433594 259.3945007324219 377.30255126953125 C 255.00804138183594 373.6304931640625 249.74461364746094 370.8807678222656 245.38626098632812 370.7311096191406 C 234.6416015625 368.6059265136719 224.07241821289062 369.0408935546875 219.07205200195312 372.2719421386719" stroke-width="0.0" fill="rgb(204, 173, 147)" opacity="1.0078768" stroke="rgb(0, 0, 0)" stroke-opacity="1.0" stroke-linecap="round" stroke-linejoin="round"/>
    <path d="M 328.79791259765625 349.7289123535156 C 319.7471923828125 353.8030090332031 313.35198974609375 353.8297424316406 315.2022399902344 365.52349853515625 C 314.408935546875 373.7892761230469 315.6171569824219 391.34844970703125 315.459228515625 409.1045227050781 C 323.70751953125 413.546142578125 334.35626220703125 415.0236511230469 345.13873291015625 412.5309143066406 C 343.8898620605469 399.12353515625 349.57220458984375 393.7727355957031 351.1711730957031 388.1180725097656 C 352.3920593261719 383.0548400878906 353.7113037109375 379.56060791015625 336.8030700683594 383.346923828125 C 332.5698547363281 372.12200927734375 341.10601806640625 363.99407958984375 349.55224609375 356.2976989746094 C 341.13446044921875 351.7946472167969 335.3385009765625 350.3074645996094 328.79791259765625 349.7289123535156" stroke-width="0.0" fill="rgb(88, 71, 56)" opacity="1.116013" stroke="rgb(0, 0, 0)" stroke-opacity="1.0" stroke-linecap="round" stroke-linejoin="round"/>
    <path d="M 519.9645385742188 97.63600158691406 C 491.7853698730469 98.84943389892578 471.8514099121094 100.3533706665039 459.56866455078125 105.92327117919922 C 449.8952331542969 126.00481414794922 429.36602783203125 128.8159942626953 421.7228088378906 141.2418975830078 C 410.7000732421875 157.18052673339844 407.1377258300781 171.03988647460938 402.35772705078125 189.36207580566406 C 399.2375793457031 238.75796508789062 407.0577392578125 274.8677673339844 403.6221618652344 320.328125 C 405.0322570800781 332.42657470703125 413.422607421875 327.6453857421875 408.5675964355469 335.4696044921875 C 421.8492126464844 337.03863525390625 435.2283020019531 334.15570068359375 442.00677490234375 337.77069091796875 C 446.56085205078125 351.3866882324219 445.65570068359375 372.2623596191406 451.2679748535156 384.18536376953125 C 462.2784729003906 395.3230285644531 470.4906005859375 407.5562744140625 482.99951171875 417.8108215332031 C 489.5979919433594 419.1493835449219 494.16094970703125 425.4665832519531 503.65399169921875 427.1534118652344 C 502.7355041503906 428.2365417480469 494.9150085449219 426.97833251953125 494.4403991699219 429.2475891113281 C 505.8075256347656 432.9981384277344 503.9891052246094 428.3661193847656 504.5423889160156 440.9586181640625 C 513.0755615234375 436.46600341796875 502.6778869628906 429.759765625 518.1340942382812 431.6948547363281 C 518.6678466796875 315.8459777832031 519.853271484375 202.9003143310547 519.9645385742188 97.63600158691406" stroke-width="0.0" fill="rgb(68, 71, 46)" opacity="1.0136808" stroke="rgb(0, 0, 0)" stroke-opacity="1.0" stroke-linecap="round" stroke-linejoin="round"/>
    <path d="M -2.3750312328338623 163.91204833984375 C -5.083216190338135 186.2908935546875 -5.374866008758545 210.2966766357422 -5.165740966796875 235.48074340820312 C 6.933957576751709 232.21498107910156 14.950873374938965 233.59841918945312 21.78070831298828 233.19737243652344 C 28.96079444885254 235.58741760253906 33.656959533691406 238.11256408691406 36.513526916503906 242.4049530029297 C 33.55534362792969 247.0944366455078 34.866241455078125 244.40821838378906 41.80413055419922 245.5745391845703 C 46.52079772949219 238.12197875976562 50.00881576538086 237.09251403808594 45.32798385620117 229.89398193359375 C 80.45924377441406 232.52073669433594 105.00778198242188 230.9833526611328 121.77847290039062 225.20875549316406 C 133.95252990722656 230.00343322753906 130.77037048339844 220.69578552246094 128.2632293701172 219.5922393798828 C 150.1076202392578 213.68072509765625 176.02459716796875 216.2206573486328 187.66392517089844 210.10903930664062 C 194.0203857421875 198.03675842285156 188.0170135498047 190.81089782714844 183.73095703125 179.72509765625 C 171.4252166748047 178.73072814941406 154.81881713867188 180.0136260986328 140.24034118652344 176.83169555664062 C 125.17018127441406 170.18341064453125 113.22782897949219 157.96766662597656 98.48167419433594 151.91220092773438 C 72.73474884033203 150.41944885253906 51.36475372314453 148.4730224609375 23.727815628051758 151.4207305908203 C 16.617334365844727 153.18679809570312 8.915732383728027 159.24588012695312 -2.3750312328338623 163.91204833984375" stroke-width="0.0" fill="rgb(143, 145, 143)" opacity="1.0129168" stroke="rgb(0, 0, 0)" stroke-opacity="1.0" stroke-linecap="round" stroke-linejoin="round"/>
    <path d="M 154.23300170898438 343.8018493652344 C 153.26089477539062 346.981689453125 149.38951110839844 354.037841796875 157.98141479492188 360.4282531738281 C 164.67030334472656 366.5179748535156 180.2727813720703 365.2546691894531 186.3731231689453 374.2528381347656 C 194.2788543701172 386.4642639160156 199.2406768798828 401.5183410644531 205.8887481689453 413.83905029296875 C 207.9940185546875 414.9823913574219 205.26165771484375 422.1964111328125 207.05189514160156 429.4858703613281 C 210.05538940429688 433.6328125 216.23883056640625 438.4268493652344 222.26991271972656 443.31805419921875 C 226.63368225097656 446.1095275878906 230.71009826660156 445.70361328125 234.7256317138672 440.6818542480469 C 237.29237365722656 430.953125 233.26878356933594 419.77630615234375 231.9857940673828 408.6134033203125 C 218.18527221679688 398.1098327636719 213.41290283203125 381.3389892578125 205.63211059570312 367.33660888671875 C 195.66229248046875 353.78912353515625 186.53761291503906 344.7787780761719 171.0691375732422 339.751953125 C 159.94613647460938 335.2209167480469 163.51168823242188 341.8496398925781 154.23300170898438 343.8018493652344" stroke-width="0.0" fill="rgb(106, 92, 72)" opacity="0.90844834" stroke="rgb(0, 0, 0)" stroke-opacity="1.0" stroke-linecap="round" stroke-linejoin="round"/>
    <path d="M 233.67222595214844 296.3232421875 C 228.25994873046875 299.3563232421875 226.71206665039062 304.2197570800781 225.2935791015625 309.19268798828125 C 225.39894104003906 316.772705078125 222.9860382080078 325.9976806640625 226.64796447753906 335.9581298828125 C 236.01600646972656 347.575927734375 251.00576782226562 356.9828186035156 257.5560302734375 376.0245056152344 C 268.0295715332031 360.0722961425781 271.0617370605469 340.4366455078125 272.6869812011719 319.4058532714844 C 263.92913818359375 312.568115234375 256.08074951171875 308.8585205078125 245.4933319091797 304.16253662109375 C 242.5828094482422 300.5636291503906 239.7003936767578 297.020751953125 233.67222595214844 296.3232421875" stroke-width="0.0" fill="rgb(75, 71, 52)" opacity="1.0050112" stroke="rgb(0, 0, 0)" stroke-opacity="1.0" stroke-linecap="round" stroke-linejoin="round"/>
    <path d="M 387.9453430175781 66.93315124511719 C 380.29095458984375 67.46167755126953 376.8510437011719 63.279151916503906 371.9048156738281 64.65338134765625 C 364.4775695800781 70.65943908691406 355.2984924316406 74.4976577758789 348.5238342285156 81.00194549560547 C 341.9042663574219 89.92850494384766 339.47247314453125 101.4270248413086 340.5700378417969 118.06885528564453 C 347.5992126464844 119.00727081298828 360.96087646484375 118.75071716308594 367.364990234375 122.81977844238281 C 378.91229248046875 109.524169921875 385.6659851074219 97.97430419921875 393.14837646484375 86.5811767578125 C 393.41925048828125 76.74817657470703 392.3059997558594 70.40629577636719 387.9453430175781 66.93315124511719" stroke-width="0.0" fill="rgb(203, 221, 236)" opacity="0.99955416" stroke="rgb(0, 0, 0)" stroke-opacity="1.0" stroke-linecap="round" stroke-linejoin="round"/>
    <path d="M 414.8540344238281 418.7577819824219 C 411.6657409667969 426.6202697753906 407.2048645019531 433.6915588378906 409.0733947753906 443.75555419921875 C 419.45477294921875 447.90948486328125 430.1473083496094 451.2032165527344 445.43023681640625 452.08807373046875 C 447.7691650390625 443.1985778808594 448.9281005859375 430.402099609375 442.7757873535156 420.9144592285156 C 441.6121826171875 417.54119873046875 426.41845703125 418.6144104003906 414.8540344238281 418.7577819824219" stroke-width="0.0" fill="rgb(26, 23, 16)" opacity="1.0037446" stroke="rgb(0, 0, 0)" stroke-opacity="1.0" stroke-linecap="round" stroke-linejoin="round"/>
    <path d="M 293.9883728027344 81.70669555664062 C 287.9504089355469 85.82661437988281 285.9244384765625 93.23158264160156 284.3230895996094 96.75889587402344 C 289.55621337890625 105.72124481201172 291.5231628417969 116.72481536865234 295.9001159667969 126.6957015991211 C 300.81939697265625 118.10432434082031 304.4793395996094 114.36223602294922 303.336181640625 106.07266998291016 C 301.49853515625 96.40543365478516 300.0192565917969 85.8681411743164 293.9883728027344 81.70669555664062" stroke-width="0.0" fill="rgb(203, 213, 223)" opacity="1.0055646" stroke="rgb(0, 0, 0)" stroke-opacity="1.0" stroke-linecap="round" stroke-linejoin="round"/>
    <path d="M 283.3138427734375 58.969810485839844 C 274.9866638183594 60.18257522583008 274.3217468261719 67.31706237792969 276.4656066894531 74.43348693847656 C 277.8420104980469 78.20492553710938 280.3885803222656 86.7127914428711 284.24639892578125 92.72930908203125 C 291.5643310546875 84.10240936279297 294.3103332519531 77.84259033203125 292.9667663574219 67.89584350585938 C 292.1750183105469 61.69682312011719 288.2630310058594 57.684234619140625 283.3138427734375 58.969810485839844" stroke-width="0.0" fill="rgb(190, 214, 230)" opacity="0.9978714" stroke="rgb(0, 0, 0)" stroke-opacity="1.0" stroke-linecap="round" stroke-linejoin="round"/>
    <path d="M 251.4135284423828 156.0985565185547 C 240.16200256347656 155.7679443359375 231.3199920654297 158.5997314453125 224.9990997314453 161.0194091796875 C 216.8399200439453 166.02841186523438 217.53915405273438 176.2024688720703 211.93142700195312 184.90243530273438 C 209.10995483398438 190.47593688964844 201.6117706298828 189.57373046875 194.57725524902344 193.634765625 C 200.04994201660156 223.0916290283203 224.2449951171875 229.28750610351562 213.6486053466797 261.0115051269531 C 243.27330017089844 268.9718017578125 256.27215576171875 258.725341796875 281.5591735839844 260.0652770996094 C 285.34765625 256.716552734375 287.8622741699219 250.5304412841797 290.7848815917969 247.5792999267578 C 293.23272705078125 227.58018493652344 299.0646057128906 214.46725463867188 290.6804504394531 194.79232788085938 C 280.3719787597656 181.01011657714844 265.4909362792969 168.46063232421875 251.4135284423828 156.0985565185547" stroke-width="0.0" fill="rgb(112, 109, 86)" opacity="0.9968299" stroke="rgb(0, 0, 0)" stroke-opacity="1.0" stroke-linecap="round" stroke-linejoin="round"/>
    <path d="M 359.9966735839844 161.98948669433594 C 355.3046569824219 161.99815368652344 350.65106201171875 167.05459594726562 342.7398376464844 170.955322265625 C 337.45880126953125 179.59417724609375 328.3641052246094 184.45542907714844 323.2548828125 196.40245056152344 C 325.3211975097656 210.39505004882812 319.6542053222656 219.15032958984375 316.29949951171875 240.008544921875 C 321.70123291015625 248.82154846191406 313.5683288574219 262.3038330078125 322.3014831542969 268.931396484375 C 344.318359375 268.9346618652344 353.9381408691406 253.63047790527344 377.97674560546875 255.66990661621094 C 385.71429443359375 249.55972290039062 393.0078125 245.46047973632812 396.4112548828125 237.4963836669922 C 399.1521301269531 220.08396911621094 400.3636169433594 203.0509796142578 398.2079772949219 186.47055053710938 C 394.83074951171875 179.0120391845703 384.7998352050781 185.6833953857422 376.2091979980469 178.95977783203125 C 370.7791748046875 174.74215698242188 375.47869873046875 162.65728759765625 359.9966735839844 161.98948669433594" stroke-width="0.0" fill="rgb(98, 95, 73)" opacity="0.99698025" stroke="rgb(0, 0, 0)" stroke-opacity="1.0" stroke-linecap="round" stroke-linejoin="round"/>
    <path d="M 306.8819885253906 276.49969482421875 C 299.86505126953125 274.3837585449219 293.4968566894531 276.2331848144531 288.89715576171875 277.5719909667969 C 284.6903381347656 281.08099365234375 279.4116516113281 284.5235595703125 275.74530029296875 289.7665710449219 C 273.5910949707031 331.98046875 264.5928039550781 371.7162780761719 255.8437957763672 419.62255859375 C 252.9662322998047 429.4993896484375 260.1983947753906 436.9662170410156 268.0582275390625 448.2270812988281 C 274.19989013671875 443.03753662109375 278.70703125 446.80194091796875 281.38043212890625 448.2525634765625 C 284.8876647949219 448.91131591796875 294.1378479003906 449.1873474121094 303.06707763671875 448.3876953125 C 305.7387390136719 442.2283020019531 304.8238220214844 430.0003356933594 306.51824951171875 419.53228759765625 C 299.3562927246094 409.5285339355469 299.8148498535156 395.6700134277344 298.2843322753906 382.1632995605469 C 292.7643127441406 362.9179382324219 296.57928466796875 346.0453796386719 306.3116760253906 328.78802490234375 C 295.9929504394531 326.7998046875 300.8109130859375 315.9719543457031 295.9093322753906 318.61773681640625 C 297.19976806640625 318.7567443847656 301.9024963378906 317.1207580566406 304.7044677734375 312.21343994140625 C 307.3599548339844 299.7606506347656 305.50323486328125 286.79681396484375 306.8819885253906 276.49969482421875" stroke-width="0.0" fill="rgb(71, 55, 45)" opacity="0.9881234" stroke="rgb(0, 0, 0)" stroke-opacity="1.0" stroke-linecap="round" stroke-linejoin="round"/>
    <path d="M -7.642244815826416 239.0789031982422 C -6.1620306968688965 262.74285888671875 -5.543687343597412 290.0515441894531 -8.588825225830078 317.6999206542969 C 10.6453275680542 317.9031677246094 16.917226791381836 320.4173583984375 24.381772994995117 314.5835876464844 C 26.748390197753906 303.9111328125 32.945709228515625 296.88214111328125 42.75904846191406 285.36822509765625 C 63.40435028076172 286.30303955078125 71.62397003173828 295.3575134277344 92.98494720458984 291.0576171875 C 92.03913116455078 270.72283935546875 88.48450469970703 257.2245178222656 76.92041778564453 249.91839599609375 C 66.26564025878906 246.954833984375 59.30344772338867 257.13140869140625 40.13447189331055 250.8406982421875 C 30.21672248840332 243.2328643798828 18.44072151184082 239.45590209960938 -7.642244815826416 239.0789031982422" stroke-width="0.0" fill="rgb(155, 148, 112)" opacity="0.9586964" stroke="rgb(0, 0, 0)" stroke-opacity="1.0" stroke-linecap="round" stroke-linejoin="round"/>
    <path d="M 376.5732421875 260.0121765136719 C 373.206298828125 261.5697326660156 365.2109375 257.33642578125 358.8113098144531 256.8126525878906 C 345.5280456542969 263.0730895996094 337.0298156738281 272.3006286621094 319.0341796875 274.2481994628906 C 316.70037841796875 282.18780517578125 319.0970153808594 295.5897216796875 315.8619689941406 308.0442810058594 C 305.9693603515625 312.73779296875 301.3106689453125 322.3938903808594 290.2796325683594 323.0322265625 C 314.3973083496094 326.3324279785156 334.6507263183594 326.177978515625 353.1954040527344 319.03094482421875 C 363.2574462890625 304.91900634765625 369.1327819824219 282.08148193359375 376.5732421875 260.0121765136719" stroke-width="0.0" fill="rgb(111, 98, 86)" opacity="1.0082374" stroke="rgb(0, 0, 0)" stroke-opacity="1.0" stroke-linecap="round" stroke-linejoin="round"/>
    <path d="M 389.90057373046875 278.25323486328125 C 381.4903259277344 288.9173583984375 374.6757507324219 305.8092956542969 362.9504089355469 317.53131103515625 C 357.34405517578125 331.5521545410156 349.46234130859375 344.17401123046875 344.6438903808594 359.9720764160156 C 333.6854553222656 370.50372314453125 322.0599670410156 381.17333984375 311.5550537109375 389.8917236328125 C 310.0566101074219 396.4287109375 303.6206359863281 401.9500427246094 310.4219665527344 409.2528076171875 C 318.29345703125 407.0626220703125 317.12872314453125 396.8585205078125 321.83233642578125 390.98712158203125 C 340.5392761230469 385.5396728515625 357.4407653808594 381.1216125488281 366.3171081542969 372.2693786621094 C 369.5291442871094 369.6167297363281 364.74298095703125 367.45928955078125 364.7742614746094 357.8944091796875 C 378.7262268066406 337.3748474121094 388.4369812011719 312.939697265625 399.2528076171875 287.50408935546875 C 398.9394226074219 286.2458190917969 395.9751892089844 278.76806640625 389.90057373046875 278.25323486328125" stroke-width="0.0" fill="rgb(68, 55, 45)" opacity="1.0143012" stroke="rgb(0, 0, 0)" stroke-opacity="1.0" stroke-linecap="round" stroke-linejoin="round"/>
    <path d="M 227.2995147705078 154.69322204589844 C 186.5207061767578 152.2882080078125 150.57432556152344 156.1201629638672 111.25035858154297 157.31671142578125 C 120.31816864013672 165.97030639648438 130.4579620361328 170.31942749023438 139.54531860351562 175.56991577148438 C 163.1318359375 177.25003051757812 184.36727905273438 182.6699981689453 208.81390380859375 181.0745086669922 C 215.3788604736328 172.80885314941406 218.02606201171875 162.833984375 227.2995147705078 154.69322204589844" stroke-width="0.0" fill="rgb(193, 192, 201)" opacity="0.9795247" stroke="rgb(0, 0, 0)" stroke-opacity="1.0" stroke-linecap="round" stroke-linejoin="round"/>
    <path d="M 94.14529418945312 312.88763427734375 C 92.45008850097656 323.10870361328125 94.64281463623047 335.941162109375 99.1325912475586 343.7306823730469 C 120.23114013671875 340.1372375488281 138.9764862060547 340.4416809082031 156.63916015625 339.0472717285156 C 155.77096557617188 327.4610595703125 145.6477813720703 325.0584411621094 141.81021118164062 317.4813537597656 C 133.97213745117188 314.2285461425781 125.72777557373047 310.46746826171875 114.46467590332031 305.4436340332031 C 104.4384994506836 304.292236328125 97.66438293457031 308.04644775390625 94.14529418945312 312.88763427734375" stroke-width="0.0" fill="rgb(98, 92, 75)" opacity="1.0098711" stroke="rgb(0, 0, 0)" stroke-opacity="1.0" stroke-linecap="round" stroke-linejoin="round"/>
    <path d="M 29.10470199584961 301.1822204589844 C 27.48495101928711 310.0232849121094 26.081457138061523 319.3875427246094 28.86945152282715 324.7218017578125 C 37.52885818481445 330.9967956542969 53.33769607543945 329.817138671875 60.511878967285156 343.08673095703125 C 70.09109497070312 339.1695251464844 79.9296646118164 334.614013671875 91.63377380371094 332.5450134277344 C 92.88137817382812 320.9173278808594 91.73828887939453 315.1532897949219 88.2602310180664 308.4803466796875 C 72.5354995727539 308.7405700683594 70.0611801147461 320.12542724609375 57.956539154052734 318.1031799316406 C 58.92817306518555 312.07373046875 56.46809387207031 309.0642395019531 52.64073944091797 307.6119689941406 C 44.15092086791992 306.26373291015625 38.116355895996094 298.8720703125 29.10470199584961 301.1822204589844" stroke-width="0.0" fill="rgb(84, 74, 63)" opacity="1.1268018" stroke="rgb(0, 0, 0)" stroke-opacity="1.0" stroke-linecap="round" stroke-linejoin="round"/>
    <path d="M 125.53591918945312 276.19732666015625 C 116.74241638183594 272.58154296875 105.50769805908203 274.6785583496094 89.99633026123047 277.9826965332031 C 88.20668029785156 280.27984619140625 97.47808837890625 282.3946228027344 96.6224365234375 288.04486083984375 C 88.09320068359375 289.12274169921875 84.67373657226562 296.3296203613281 71.96028137207031 296.02923583984375 C 62.176246643066406 296.52276611328125 56.78395462036133 286.71142578125 42.78413009643555 289.086181640625 C 48.383174896240234 286.6574401855469 45.91626739501953 293.8123779296875 52.93374252319336 299.4597473144531 C 66.94367218017578 304.01556396484375 85.15077209472656 301.3495178222656 99.5558853149414 307.1436767578125 C 103.12837219238281 301.8641662597656 108.7627944946289 301.2193908691406 111.18180084228516 299.8500061035156 C 117.0862045288086 293.61053466796875 119.06767272949219 284.05859375 125.53591918945312 276.19732666015625" stroke-width="0.0" fill="rgb(203, 188, 165)" opacity="1.0099359" stroke="rgb(0, 0, 0)" stroke-opacity="1.0" stroke-linecap="round" stroke-linejoin="round"/>
    <path d="M 130.83253479003906 252.20880126953125 C 129.16622924804688 246.1855926513672 120.02046203613281 248.71392822265625 102.36282348632812 247.58944702148438 C 99.59329986572266 252.2782440185547 92.70919036865234 253.35931396484375 91.36735534667969 259.7645263671875 C 94.90697479248047 264.5516357421875 90.42919158935547 272.0316467285156 94.99880981445312 275.0591125488281 C 106.83560943603516 275.0951843261719 115.56855773925781 274.67578125 124.41731262207031 272.7684020996094 C 129.51220703125 265.8473205566406 137.8975067138672 262.75689697265625 130.83253479003906 252.20880126953125" stroke-width="0.0" fill="rgb(121, 118, 82)" opacity="1.0051618" stroke="rgb(0, 0, 0)" stroke-opacity="1.0" stroke-linecap="round" stroke-linejoin="round"/>
    <path d="M 239.6519775390625 270.7439270019531 C 250.3577880859375 272.9779357910156 265.162109375 272.52996826171875 276.2481994628906 275.76300048828125 C 288.8251953125 270.005126953125 296.13348388671875 269.5106506347656 295.0452575683594 257.43634033203125 C 287.0362854003906 252.14215087890625 281.3207092285156 262.357666015625 268.3724365234375 262.1548767089844 C 259.9840087890625 263.7577209472656 256.555908203125 257.4188537597656 263.9069519042969 257.6221923828125 C 253.37181091308594 258.4383544921875 243.2672882080078 260.638671875 239.6519775390625 270.7439270019531" stroke-width="0.0" fill="rgb(133, 116, 101)" opacity="1.0615422" stroke="rgb(0, 0, 0)" stroke-opacity="1.0" stroke-linecap="round" stroke-linejoin="round"/>
    <path d="M 353.4925537109375 325.58929443359375 C 342.8280944824219 327.7294921875 332.7347717285156 324.626220703125 324.55316162109375 330.4111633300781 C 321.58929443359375 335.2481384277344 329.6678161621094 347.4814758300781 323.0726013183594 350.2745056152344 C 326.06597900390625 349.80352783203125 338.34100341796875 345.4625549316406 349.054931640625 344.7679748535156 C 347.0011291503906 338.32501220703125 353.3387451171875 335.504150390625 353.4925537109375 325.58929443359375" stroke-width="0.0" fill="rgb(60, 56, 40)" opacity="1.029762" stroke="rgb(0, 0, 0)" stroke-opacity="1.0" stroke-linecap="round" stroke-linejoin="round"/>
    <path d="M 61.9794807434082 301.4189147949219 C 69.00491333007812 302.4695739746094 68.17140197753906 311.717529296875 76.81353759765625 312.42755126953125 C 87.21256256103516 312.4617004394531 95.09632873535156 310.30328369140625 101.34678649902344 304.5929260253906 C 90.8274917602539 300.343017578125 75.25402069091797 303.29095458984375 61.9794807434082 301.4189147949219" stroke-width="0.0" fill="rgb(72, 57, 44)" opacity="0.98989713" stroke="rgb(0, 0, 0)" stroke-opacity="1.0" stroke-linecap="round" stroke-linejoin="round"/>
    <path d="M 388.953369140625 373.7305603027344 C 384.1612243652344 366.9891052246094 373.24810791015625 364.706298828125 365.8413391113281 364.26806640625 C 369.40887451171875 378.7784423828125 351.501708984375 371.6575012207031 349.6856384277344 388.59747314453125 C 348.8203430175781 399.4637145996094 337.173095703125 398.96697998046875 327.6807556152344 401.10650634765625 C 323.2978210449219 407.0057067871094 312.125244140625 405.6723937988281 309.15106201171875 411.84808349609375 C 319.61370849609375 412.69525146484375 320.6068115234375 401.15423583984375 345.6898498535156 398.97430419921875 C 348.306640625 397.1676940917969 341.68951416015625 413.3465881347656 343.812744140625 415.7200927734375 C 351.8902587890625 409.0502624511719 357.88787841796875 403.3916320800781 363.8325500488281 398.3323974609375 C 369.96429443359375 393.79681396484375 378.3382263183594 396.60858154296875 386.86749267578125 394.0932312011719 C 379.74945068359375 384.0036926269531 390.9796447753906 384.93743896484375 388.953369140625 373.7305603027344" stroke-width="0.0" fill="rgb(80, 71, 60)" opacity="1.0653846" stroke="rgb(0, 0, 0)" stroke-opacity="1.0" stroke-linecap="round" stroke-linejoin="round"/>
    <path d="M 197.39913940429688 342.821044921875 C 196.7368621826172 354.85662841796875 204.90701293945312 359.4295959472656 210.90858459472656 368.7054138183594 C 221.41517639160156 368.1095886230469 240.4711456298828 367.9082946777344 250.79116821289062 368.6842346191406 C 245.69577026367188 345.92010498046875 223.0670623779297 344.9986572265625 217.5135955810547 321.5198059082031 C 217.35311889648438 338.43988037109375 205.82217407226562 335.0235900878906 197.39913940429688 342.821044921875" stroke-width="0.0" fill="rgb(81, 78, 54)" opacity="1.003813" stroke="rgb(0, 0, 0)" stroke-opacity="1.0" stroke-linecap="round" stroke-linejoin="round"/>
    <path d="M 323.4988098144531 326.8329162597656 C 318.1018371582031 324.6460266113281 311.1861267089844 325.5782165527344 306.4996643066406 327.660888671875 C 307.1822204589844 333.8360290527344 302.71368408203125 335.2533264160156 299.1253662109375 341.03961181640625 C 295.70263671875 355.1619567871094 293.2406311035156 363.16131591796875 296.06683349609375 385.0928039550781 C 305.4404296875 377.9294738769531 309.271240234375 373.587890625 316.17767333984375 370.0983581542969 C 314.23602294921875 367.3679504394531 313.4599304199219 363.8948059082031 314.2885437011719 356.1939697265625 C 319.7327575683594 351.7751770019531 328.7975769042969 349.247802734375 336.1706848144531 343.6611022949219 C 330.58758544921875 342.2587585449219 323.19793701171875 341.22882080078125 325.5824279785156 339.8981018066406 C 323.28863525390625 333.0736389160156 323.3950500488281 327.2010803222656 323.4988098144531 326.8329162597656" stroke-width="0.0" fill="rgb(46, 37, 31)" opacity="0.97904223" stroke="rgb(0, 0, 0)" stroke-opacity="1.0" stroke-linecap="round" stroke-linejoin="round"/>
    <path d="M 199.9965362548828 219.87033081054688 C 196.2172088623047 225.46531677246094 184.49337768554688 221.09356689453125 179.49830627441406 226.57501220703125 C 177.7542266845703 227.6417236328125 180.26597595214844 238.30496215820312 178.44046020507812 240.82118225097656 C 186.4325714111328 242.86834716796875 187.53656005859375 251.83560180664062 197.55996704101562 253.05496215820312 C 210.11703491210938 253.10174560546875 208.0456085205078 246.2719268798828 215.2479248046875 239.92779541015625 C 210.1543426513672 230.97369384765625 209.71311950683594 223.7166748046875 199.9965362548828 219.87033081054688" stroke-width="0.0" fill="rgb(109, 106, 83)" opacity="0.9928187" stroke="rgb(0, 0, 0)" stroke-opacity="1.0" stroke-linecap="round" stroke-linejoin="round"/>
    <path d="M 232.64727783203125 79.38033294677734 C 235.5382080078125 79.63409423828125 239.4568634033203 79.12520599365234 238.42616271972656 84.4671401977539 C 239.92515563964844 86.1544189453125 231.86183166503906 84.40546417236328 231.27603149414062 85.94615936279297 C 231.4033203125 89.93475341796875 232.736328125 96.52159881591797 233.6717987060547 101.55079650878906 C 251.15127563476562 105.32807922363281 259.4779968261719 110.5134506225586 262.3607177734375 103.313232421875 C 268.0693054199219 103.22124481201172 268.42620849609375 98.01630401611328 268.45953369140625 91.28623962402344 C 263.7729187011719 85.69102478027344 260.5038146972656 82.27015686035156 256.3575439453125 79.39495086669922 C 246.52764892578125 82.88249969482422 236.1798553466797 83.25470733642578 232.64727783203125 79.38033294677734" stroke-width="0.0" fill="rgb(209, 234, 252)" opacity="1.0053294" stroke="rgb(0, 0, 0)" stroke-opacity="1.0" stroke-linecap="round" stroke-linejoin="round"/>
    <path d="M 319.7500915527344 375.8525695800781 C 314.7192077636719 370.0142517089844 303.5486755371094 371.4484558105469 298.9511413574219 380.4580993652344 C 295.8775939941406 385.5599060058594 295.0623779296875 391.00006103515625 295.9856262207031 393.6552429199219 C 298.4503173828125 396.5122985839844 296.2210998535156 400.9045715332031 303.1369934082031 399.0009460449219 C 314.0387268066406 390.1779479980469 320.798828125 379.5467834472656 319.7500915527344 375.8525695800781" stroke-width="0.0" fill="rgb(49, 41, 36)" opacity="1.0222981" stroke="rgb(0, 0, 0)" stroke-opacity="1.0" stroke-linecap="round" stroke-linejoin="round"/>
    <path d="M 1.9472253322601318 10.418730735778809 C -4.541436672210693 15.34995174407959 -5.431869029998779 22.857126235961914 -6.080644130706787 25.61418914794922 C 14.554099082946777 28.60517120361328 25.41395378112793 29.594032287597656 32.21543884277344 19.350278854370117 C 22.62811851501465 15.883661270141602 11.822830200195312 10.18993091583252 1.9472253322601318 10.418730735778809" stroke-width="0.0" fill="rgb(205, 223, 249)" opacity="1.0069678" stroke="rgb(0, 0, 0)" stroke-opacity="1.0" stroke-linecap="round" stroke-linejoin="round"/>
    <path d="M 162.74359130859375 271.8951110839844 C 148.17396545410156 273.31005859375 152.48397827148438 282.48577880859375 151.31167602539062 268.1253356933594 C 138.55162048339844 271.3796691894531 145.0244598388672 284.83868408203125 137.914794921875 292.2743225097656 C 151.16073608398438 295.0596618652344 152.72679138183594 288.0325622558594 162.9993438720703 286.7184753417969 C 163.87191772460938 284.106689453125 168.3041229248047 276.81201171875 162.74359130859375 271.8951110839844" stroke-width="0.0" fill="rgb(108, 105, 79)" opacity="1.0072247" stroke="rgb(0, 0, 0)" stroke-opacity="1.0" stroke-linecap="round" stroke-linejoin="round"/>
    <path d="M 224.9061279296875 57.04154968261719 C 223.42266845703125 59.97789764404297 229.83505249023438 59.626285552978516 230.2698516845703 64.20501708984375 C 220.5200653076172 61.63372039794922 228.3373260498047 68.9885025024414 221.98544311523438 67.65030670166016 C 222.35348510742188 72.00796508789062 225.8262481689453 72.06645965576172 229.12220764160156 75.36927032470703 C 236.46311950683594 74.15607452392578 246.25241088867188 75.7145004272461 249.32444763183594 72.72887420654297 C 252.6321563720703 62.312259674072266 248.75701904296875 66.33383178710938 246.1226043701172 57.530670166015625 C 236.05239868164062 62.8441047668457 232.0885772705078 52.95487594604492 224.9061279296875 57.04154968261719" stroke-width="0.0" fill="rgb(197, 230, 253)" opacity="1.007356" stroke="rgb(0, 0, 0)" stroke-opacity="1.0" stroke-linecap="round" stroke-linejoin="round"/>
    <path d="M 238.21701049804688 296.44854736328125 C 244.7288818359375 310.153076171875 264.79217529296875 307.8833312988281 271.0760498046875 322.2242126464844 C 280.95196533203125 312.49456787109375 276.2362060546875 312.0247497558594 269.3465576171875 305.0826416015625 C 262.2987976074219 301.8995056152344 249.73831176757812 296.56329345703125 238.21701049804688 296.44854736328125" stroke-width="0.0" fill="rgb(54, 49, 39)" opacity="1.0067514" stroke="rgb(0, 0, 0)" stroke-opacity="1.0" stroke-linecap="round" stroke-linejoin="round"/>
    <path d="M -4.522863388061523 423.25732421875 C -5.642355442047119 457.9468994140625 -5.01723051071167 484.5436096191406 -4.466760635375977 517.830322265625 C 169.64291381835938 518.0625610351562 340.2947998046875 518.1785888671875 520.2551879882812 518.2064819335938 C 520.501708984375 491.8063049316406 520.43798828125 478.0556640625 517.5610961914062 471.0720520019531 C 472.1861267089844 470.18426513671875 448.74993896484375 457.1645202636719 413.6954345703125 453.3222351074219 C 374.74639892578125 451.0310363769531 335.4827575683594 459.5458068847656 290.9723205566406 457.546875 C 252.95021057128906 450.5524597167969 212.35182189941406 447.74346923828125 172.27685546875 446.09747314453125 C 156.60841369628906 441.6685485839844 134.61337280273438 437.5715637207031 118.79100036621094 433.368408203125 C 67.91893768310547 432.2625732421875 35.62773513793945 444.0083312988281 -4.522863388061523 423.25732421875" stroke-width="0.0" fill="rgb(150, 130, 108)" opacity="0.9668545" stroke="rgb(0, 0, 0)" stroke-opacity="1.0" stroke-linecap="round" stroke-linejoin="round"/>
    <path d="M -0.3521876633167267 381.4543151855469 C -2.18965482711792 391.25921630859375 -0.4227897524833679 402.6585998535156 0.4643365740776062 414.02056884765625 C 0.11257894337177277 419.60443115234375 2.7934157848358154 421.2906188964844 7.873538494110107 422.308837890625 C 71.37860870361328 420.0577087402344 131.66275024414062 424.8387451171875 184.65460205078125 428.0851135253906 C 200.19366455078125 424.3995056152344 206.4958038330078 427.617431640625 203.2637481689453 411.3608093261719 C 203.5619659423828 396.87890625 194.21217346191406 384.5373840332031 186.02081298828125 370.8045349121094 C 164.2946319580078 365.37548828125 151.75619506835938 351.5234375 137.25289916992188 344.0697937011719 C 96.64617919921875 342.378173828125 64.58489227294922 345.1199035644531 46.49247741699219 352.0320129394531 C 43.42341613769531 368.6938781738281 35.283599853515625 372.7222595214844 27.693025588989258 375.66943359375 C 8.51410961151123 365.2540283203125 4.5580549240112305 370.8747253417969 -0.3521876633167267 381.4543151855469" stroke-width="0.0" fill="rgb(169, 153, 129)" opacity="0.9845371" stroke="rgb(0, 0, 0)" stroke-opacity="1.0" stroke-linecap="round" stroke-linejoin="round"/>
    <path d="M 214.54849243164062 373.4631042480469 C 212.16943359375 390.02130126953125 220.5404815673828 399.1504821777344 229.41383361816406 407.3095703125 C 221.67674255371094 406.4186706542969 222.70033264160156 405.143310546875 225.759033203125 404.70751953125 C 230.3699188232422 410.7583312988281 235.79473876953125 410.8452453613281 238.22222900390625 416.3882751464844 C 243.40196228027344 411.8753662109375 237.95169067382812 404.5347595214844 242.8324432373047 403.81939697265625 C 244.5199737548828 407.2030334472656 237.25747680664062 409.7618408203125 247.6758575439453 412.5890808105469 C 247.90142822265625 410.2786560058594 248.6580047607422 405.0928955078125 248.33885192871094 404.8850402832031 C 254.04747009277344 401.4104309082031 251.9705810546875 410.4112243652344 255.8230743408203 411.470458984375 C 264.2050476074219 402.7464599609375 261.2576904296875 389.59832763671875 260.0626220703125 373.6822814941406 C 241.01699829101562 370.90606689453125 226.2315673828125 365.4537048339844 214.54849243164062 373.4631042480469" stroke-width="0.0" fill="rgb(178, 154, 128)" opacity="0.97518003" stroke="rgb(0, 0, 0)" stroke-opacity="1.0" stroke-linecap="round" stroke-linejoin="round"/>
    <path d="M 358.01837158203125 393.3392639160156 C 353.978759765625 385.01708984375 346.51629638671875 382.75518798828125 334.7619323730469 384.97015380859375 C 325.2975158691406 389.2541198730469 315.45318603515625 391.168212890625 316.8201904296875 401.4425048828125 C 322.0545959472656 409.07391357421875 332.4819030761719 408.8640441894531 347.3493957519531 410.7439270019531 C 353.54656982421875 407.0286865234375 358.0100402832031 401.84210205078125 358.01837158203125 393.3392639160156" stroke-width="0.0" fill="rgb(154, 131, 112)" opacity="0.96743095" stroke="rgb(0, 0, 0)" stroke-opacity="1.0" stroke-linecap="round" stroke-linejoin="round"/>
    <path d="M 345.4100341796875 354.604248046875 C 341.1479797363281 349.5856018066406 332.7840881347656 349.6485595703125 324.4539489746094 350.0821228027344 C 313.69610595703125 354.3828430175781 312.9444274902344 355.9153747558594 314.38037109375 368.1800231933594 C 317.1977233886719 372.49066162109375 319.43408203125 373.7600402832031 330.18096923828125 373.27069091796875 C 339.5503845214844 369.2820129394531 345.4421691894531 365.7526550292969 345.4100341796875 354.604248046875" stroke-width="0.0" fill="rgb(170, 145, 123)" opacity="0.9715817" stroke="rgb(0, 0, 0)" stroke-opacity="1.0" stroke-linecap="round" stroke-linejoin="round"/>
    <path d="M 518.3291015625 93.22642517089844 C 497.7483825683594 98.31758880615234 479.5743408203125 93.41256713867188 462.6607360839844 98.35627746582031 C 455.3193664550781 101.23074340820312 451.6342468261719 115.5965576171875 446.2798767089844 125.21295928955078 C 432.0425720214844 124.85376739501953 430.3005676269531 131.44715881347656 422.8853454589844 136.8718719482422 C 413.4645690917969 154.02920532226562 403.4588623046875 169.54603576660156 401.9065246582031 189.2273406982422 C 402.5361633300781 203.50808715820312 403.982177734375 216.2606201171875 404.40771484375 227.7734375 C 406.50750732421875 236.44094848632812 410.30267333984375 240.3229217529297 418.5653076171875 246.7168731689453 C 447.1585998535156 242.96652221679688 467.6990661621094 255.92015075683594 488.551025390625 254.3072052001953 C 504.8729248046875 249.1876983642578 507.1372985839844 258.8328857421875 518.2799682617188 268.3395690917969 C 518.3589477539062 206.03262329101562 518.3257446289062 150.0277099609375 518.3291015625 93.22642517089844" stroke-width="0.0" fill="rgb(92, 93, 70)" opacity="0.8019171" stroke="rgb(0, 0, 0)" stroke-opacity="1.0" stroke-linecap="round" stroke-linejoin="round"/>
    <path d="M -2.821049213409424 166.5947723388672 C -4.838322639465332 175.49417114257812 -2.891270399093628 187.46339416503906 -2.4986796379089355 201.5919647216797 C 32.641780853271484 201.63279724121094 66.97535705566406 202.89627075195312 104.21192932128906 203.95213317871094 C 120.82621002197266 202.9018096923828 135.96043395996094 200.6644744873047 150.00205993652344 197.465087890625 C 151.47161865234375 187.8683319091797 141.9295654296875 182.93553161621094 137.7427978515625 175.70083618164062 C 123.4834213256836 168.2063446044922 111.27755737304688 158.83163452148438 97.92152404785156 151.9735107421875 C 77.22953796386719 149.9609375 49.40984344482422 150.21456909179688 27.026491165161133 151.50588989257812 C 17.561561584472656 152.71958923339844 8.78175163269043 159.43157958984375 -2.821049213409424 166.5947723388672" stroke-width="0.0" fill="rgb(143, 144, 142)" opacity="0.98133373" stroke="rgb(0, 0, 0)" stroke-opacity="1.0" stroke-linecap="round" stroke-linejoin="round"/>
    <path d="M 460.74365234375 346.18756103515625 C 457.8014831542969 349.47802734375 455.57684326171875 354.37176513671875 453.7490539550781 360.73663330078125 C 454.33203125 367.857177734375 453.335693359375 381.0193786621094 454.19964599609375 386.0508117675781 C 457.2987365722656 391.9719543457031 461.6506652832031 394.1993103027344 467.9884338378906 395.31549072265625 C 468.35888671875 403.99542236328125 470.22283935546875 409.8194885253906 474.1654968261719 415.564453125 C 485.2607421875 420.441650390625 497.6296081542969 423.55712890625 517.9680786132812 428.0913391113281 C 519.6114501953125 403.4461364746094 518.541259765625 376.6264953613281 516.3133544921875 346.0982971191406 C 496.5148010253906 356.460693359375 486.2803649902344 345.4335021972656 471.3004455566406 352.17938232421875 C 468.3482971191406 350.2972106933594 466.9623718261719 345.7281494140625 460.74365234375 346.18756103515625" stroke-width="0.0" fill="rgb(45, 43, 33)" opacity="1.0471852" stroke="rgb(0, 0, 0)" stroke-opacity="1.0" stroke-linecap="round" stroke-linejoin="round"/>
    <path d="M 197.98101806640625 214.32632446289062 C 192.4462432861328 201.8391876220703 186.73362731933594 195.5901336669922 184.6177520751953 194.87010192871094 C 157.1378936767578 199.7990264892578 128.94821166992188 201.61888122558594 101.00824737548828 202.6886749267578 C 68.13094329833984 201.7509002685547 33.964988708496094 201.031494140625 -2.752610683441162 200.47157287597656 C -3.8424673080444336 211.54075622558594 -2.121649742126465 223.87551879882812 -0.8399802446365356 237.3893585205078 C 7.390648365020752 239.17041015625 16.365036010742188 240.15652465820312 27.09610939025879 240.0988006591797 C 29.714887619018555 232.485595703125 31.08771514892578 231.75303649902344 39.27946853637695 232.13003540039062 C 43.327308654785156 230.8884735107422 44.15945053100586 235.5506591796875 49.04140853881836 239.7843475341797 C 89.53317260742188 236.45074462890625 128.0181884765625 228.9205322265625 172.12588500976562 225.36672973632812 C 182.4027557373047 222.34104919433594 191.47630310058594 218.6959686279297 197.98101806640625 214.32632446289062" stroke-width="0.0" fill="rgb(120, 127, 117)" opacity="1.0044993" stroke="rgb(0, 0, 0)" stroke-opacity="1.0" stroke-linecap="round" stroke-linejoin="round"/>
    <path d="M -3.911965847015381 324.108154296875 C -5.388072967529297 337.44476318359375 -4.671438217163086 353.3471984863281 -4.165548801422119 370.53399658203125 C 16.27831268310547 367.5804443359375 23.822999954223633 376.6572265625 40.2369270324707 378.5358581542969 C 50.329158782958984 379.4410705566406 52.74705505371094 373.1695861816406 58.90351486206055 370.7337341308594 C 65.36494445800781 370.03179931640625 69.89091491699219 373.9402160644531 78.57150268554688 374.3975830078125 C 79.21311950683594 369.88421630859375 81.79737091064453 366.6138000488281 76.13916015625 364.93682861328125 C 68.84434509277344 356.33782958984375 60.679100036621094 356.0844421386719 48.32334899902344 355.3232727050781 C 54.69474411010742 342.3564147949219 54.99134826660156 341.6676330566406 50.919960021972656 334.47271728515625 C 30.849437713623047 330.3418273925781 18.804750442504883 321.1507873535156 -3.911965847015381 324.108154296875" stroke-width="0.0" fill="rgb(139, 129, 112)" opacity="1.0104061" stroke="rgb(0, 0, 0)" stroke-opacity="1.0" stroke-linecap="round" stroke-linejoin="round"/>
    <path d="M -3.9768548011779785 237.6212615966797 C -3.655386209487915 264.92083740234375 -1.9724348783493042 290.9821472167969 -5.563605308532715 317.66693115234375 C 5.50485897064209 320.5494689941406 13.970314979553223 316.2430725097656 17.75480842590332 316.5097961425781 C 23.637115478515625 315.92431640625 26.206701278686523 303.3652038574219 34.359336853027344 295.34173583984375 C 38.66343307495117 285.6534118652344 31.70677947998047 268.3661804199219 37.06589889526367 254.62948608398438 C 34.45298385620117 244.99127197265625 28.498456954956055 245.64427185058594 21.941686630249023 241.55905151367188 C 14.428426742553711 241.4101104736328 4.436948299407959 241.12997436523438 -3.9768548011779785 237.6212615966797" stroke-width="0.0" fill="rgb(132, 126, 97)" opacity="1.003997" stroke="rgb(0, 0, 0)" stroke-opacity="1.0" stroke-linecap="round" stroke-linejoin="round"/>
    <path d="M 110.30765533447266 301.8343200683594 C 137.60235595703125 312.5887756347656 151.20994567871094 324.5861511230469 166.79307556152344 344.42633056640625 C 177.80015563964844 367.3588562011719 198.4027862548828 380.1626892089844 202.30661010742188 409.6607360839844 C 210.64234924316406 415.1627502441406 208.7892303466797 419.798095703125 216.40330505371094 413.18292236328125 C 219.73805236816406 411.7545471191406 222.10784912109375 409.9761047363281 225.52944946289062 404.2001647949219 C 211.01242065429688 388.5906677246094 208.14535522460938 365.4866027832031 196.71157836914062 351.8393859863281 C 177.35797119140625 336.47174072265625 158.78370666503906 321.80401611328125 140.17262268066406 306.4248962402344 C 132.0468292236328 305.1513671875 121.19720458984375 299.68988037109375 110.30765533447266 301.8343200683594" stroke-width="0.0" fill="rgb(99, 88, 71)" opacity="0.93973744" stroke="rgb(0, 0, 0)" stroke-opacity="1.0" stroke-linecap="round" stroke-linejoin="round"/>
    <path d="M 94.21476745605469 281.6452331542969 C 87.67406463623047 269.0050354003906 86.42943572998047 252.6831817626953 72.24623107910156 249.88816833496094 C 61.580963134765625 250.97586059570312 61.32077407836914 258.7919006347656 47.12009048461914 253.08795166015625 C 38.74217224121094 258.4175109863281 33.86933517456055 262.4707336425781 33.421573638916016 270.5602722167969 C 32.969600677490234 275.3349914550781 36.319217681884766 282.4411315917969 38.01740646362305 289.6628723144531 C 59.5277099609375 278.2038269042969 56.7657356262207 297.287841796875 82.32966613769531 291.57098388671875 C 89.95738983154297 293.37799072265625 95.14578247070312 287.8749694824219 94.21476745605469 281.6452331542969" stroke-width="0.0" fill="rgb(155, 148, 116)" opacity="0.9856362" stroke="rgb(0, 0, 0)" stroke-opacity="1.0" stroke-linecap="round" stroke-linejoin="round"/>
    <path d="M 230.4886016845703 402.15869140625 C 219.95509338378906 404.7569580078125 214.16615295410156 411.49859619140625 207.54078674316406 417.7186279296875 C 202.5313720703125 428.4053649902344 189.8999481201172 429.7842712402344 191.6335906982422 445.304931640625 C 191.48350524902344 449.7633056640625 202.1072540283203 449.8404235839844 217.34930419921875 450.97955322265625 C 224.13731384277344 449.89398193359375 231.68191528320312 449.9789123535156 238.06964111328125 445.34722900390625 C 238.76502990722656 436.9372863769531 239.208740234375 431.5694274902344 242.91033935546875 426.5914306640625 C 233.4651641845703 418.5007629394531 231.67918395996094 414.172607421875 230.4886016845703 402.15869140625" stroke-width="0.0" fill="rgb(85, 71, 63)" opacity="0.9344972" stroke="rgb(0, 0, 0)" stroke-opacity="1.0" stroke-linecap="round" stroke-linejoin="round"/>
    <path d="M 233.31504821777344 295.88885498046875 C 229.0522918701172 300.6585388183594 223.99818420410156 304.8799743652344 220.42257690429688 310.2765197753906 C 223.9016571044922 316.887451171875 224.24667358398438 330.6567687988281 227.30072021484375 336.56817626953125 C 240.35177612304688 350.40960693359375 254.0131378173828 361.6568298339844 260.0244140625 386.1333312988281 C 266.4020690917969 379.38323974609375 265.4843444824219 369.2947692871094 265.9535217285156 351.5997619628906 C 262.81488037109375 345.5173034667969 252.89903259277344 338.2469177246094 241.52943420410156 331.30010986328125 C 237.0405731201172 322.6446533203125 239.16981506347656 309.1161804199219 239.9615478515625 298.491943359375 C 237.90548706054688 296.312255859375 235.63839721679688 295.1154479980469 233.31504821777344 295.88885498046875" stroke-width="0.0" fill="rgb(65, 55, 45)" opacity="0.903584" stroke="rgb(0, 0, 0)" stroke-opacity="1.0" stroke-linecap="round" stroke-linejoin="round"/>
    <path d="M 239.6788787841797 301.8699645996094 C 236.16009521484375 315.2042236328125 238.34303283691406 324.6832275390625 242.32102966308594 332.9361877441406 C 249.73065185546875 340.13275146484375 258.3434143066406 347.3136291503906 266.118896484375 358.6027526855469 C 269.5218505859375 345.17266845703125 270.7625732421875 331.1025085449219 271.33538818359375 320.6362609863281 C 263.31768798828125 311.21588134765625 253.74705505371094 304.9647216796875 239.6788787841797 301.8699645996094" stroke-width="0.0" fill="rgb(92, 93, 67)" opacity="0.9979302" stroke="rgb(0, 0, 0)" stroke-opacity="1.0" stroke-linecap="round" stroke-linejoin="round"/>
    <path d="M 357.71929931640625 323.51141357421875 C 348.8792724609375 323.1137390136719 335.98077392578125 325.39373779296875 330.8076477050781 325.5037536621094 C 323.7759094238281 330.03912353515625 321.0703125 334.40625 325.2647705078125 342.1888732910156 C 330.6701965332031 347.9291687011719 331.2910461425781 345.8171691894531 350.2276306152344 344.81451416015625 C 349.21124267578125 335.60089111328125 358.0135803222656 334.9203796386719 357.71929931640625 323.51141357421875" stroke-width="0.0" fill="rgb(72, 69, 51)" opacity="1.0480675" stroke="rgb(0, 0, 0)" stroke-opacity="1.0" stroke-linecap="round" stroke-linejoin="round"/>
    <path d="M 58.00209045410156 319.6962890625 C 59.56594467163086 327.7470397949219 66.48933410644531 328.91070556640625 72.36380004882812 332.7448425292969 C 79.02030944824219 333.7672119140625 85.99034881591797 333.25531005859375 92.55058288574219 331.51629638671875 C 89.12931823730469 321.4512939453125 95.16325378417969 314.6114807128906 89.55113983154297 314.3064270019531 C 75.51154327392578 307.7870178222656 72.8236083984375 318.9491882324219 58.00209045410156 319.6962890625" stroke-width="0.0" fill="rgb(141, 123, 104)" opacity="0.9542458" stroke="rgb(0, 0, 0)" stroke-opacity="1.0" stroke-linecap="round" stroke-linejoin="round"/>
    <path d="M 29.321043014526367 300.7199401855469 C 24.942298889160156 310.84381103515625 30.956340789794922 308.9783020019531 33.56147766113281 318.3004150390625 C 46.044044494628906 321.33209228515625 50.081504821777344 323.3060302734375 53.928611755371094 317.6031188964844 C 56.779727935791016 313.8323974609375 54.959651947021484 304.3783264160156 56.48005676269531 308.7523193359375 C 42.66756820678711 308.64178466796875 38.03070068359375 299.89727783203125 29.321043014526367 300.7199401855469" stroke-width="0.0" fill="rgb(162, 146, 126)" opacity="1.0010477" stroke="rgb(0, 0, 0)" stroke-opacity="1.0" stroke-linecap="round" stroke-linejoin="round"/>
    <path d="M 158.1826171875 429.302978515625 C 153.7987518310547 437.7185974121094 159.74160766601562 443.46484375 161.6968536376953 445.5611267089844 C 183.79774475097656 448.7197265625 201.01502990722656 449.84283447265625 203.9168243408203 440.4664001464844 C 201.9921112060547 445.0821228027344 203.16900634765625 443.4252014160156 191.05810546875 448.6477966308594 C 195.6475372314453 432.7326354980469 198.03282165527344 425.9547119140625 183.55636596679688 424.36651611328125 C 170.63818359375 425.126220703125 158.2425079345703 423.20428466796875 158.1826171875 429.302978515625" stroke-width="0.0" fill="rgb(71, 62, 54)" opacity="1.0020862" stroke="rgb(0, 0, 0)" stroke-opacity="1.0" stroke-linecap="round" stroke-linejoin="round"/>
    <path d="M 365.1362609863281 279.7967529296875 C 357.7401428222656 286.82696533203125 351.8677978515625 292.11676025390625 349.8951110839844 298.9878234863281 C 331.4068298339844 314.0152587890625 303.46148681640625 308.32830810546875 283.8535461425781 324.80645751953125 C 309.8542175292969 328.8044128417969 331.154541015625 323.81976318359375 352.0865783691406 319.4053649902344 C 356.7433166503906 315.0684509277344 359.7349548339844 307.8199157714844 364.9825134277344 302.78466796875 C 363.06097412109375 295.9674987792969 365.19696044921875 287.2044982910156 365.1362609863281 279.7967529296875" stroke-width="0.0" fill="rgb(67, 53, 41)" opacity="1.0623864" stroke="rgb(0, 0, 0)" stroke-opacity="1.0" stroke-linecap="round" stroke-linejoin="round"/>
    <path d="M 108.09793090820312 304.55145263671875 C 103.45436096191406 306.8851318359375 98.7325210571289 307.4377746582031 96.15333557128906 310.159423828125 C 92.9798812866211 317.61181640625 97.32210540771484 325.84130859375 94.20270538330078 339.2149963378906 C 96.91890716552734 342.73162841796875 105.03524017333984 344.6805114746094 117.64555358886719 344.967041015625 C 112.74591827392578 335.33984375 116.25494384765625 329.174072265625 122.0645751953125 323.25286865234375 C 121.30135345458984 316.1323547363281 116.59811401367188 313.7326965332031 117.82884216308594 307.5993347167969 C 113.75222778320312 306.0194091796875 109.95191192626953 305.82745361328125 108.09793090820312 304.55145263671875" stroke-width="0.0" fill="rgb(114, 113, 86)" opacity="0.98926264" stroke="rgb(0, 0, 0)" stroke-opacity="1.0" stroke-linecap="round" stroke-linejoin="round"/>
    <path d="M 308.72198486328125 439.1062927246094 C 303.9381103515625 443.52569580078125 305.5041809082031 451.1532897949219 308.8775634765625 456.42864990234375 C 308.3284606933594 459.8700256347656 321.3700256347656 456.3189392089844 327.4331970214844 457.7591552734375 C 324.1537780761719 457.6083984375 335.77838134765625 457.6130676269531 346.13958740234375 456.6271667480469 C 342.58941650390625 451.0120544433594 341.276611328125 445.82830810546875 341.12493896484375 443.5586242675781 C 324.5016784667969 437.657470703125 314.87261962890625 435.25714111328125 308.72198486328125 439.1062927246094" stroke-width="0.0" fill="rgb(90, 80, 67)" opacity="1.0138506" stroke="rgb(0, 0, 0)" stroke-opacity="1.0" stroke-linecap="round" stroke-linejoin="round"/>
    <path d="M 143.96163940429688 359.5256042480469 C 151.33335876464844 358.2464294433594 162.85006713867188 366.93994140625 183.16558837890625 368.8200378417969 C 173.83380126953125 358.8937072753906 170.73434448242188 347.08258056640625 167.3339385986328 352.41839599609375 C 152.1141357421875 347.82745361328125 147.4254608154297 352.7962341308594 143.96163940429688 359.5256042480469" stroke-width="0.0" fill="rgb(92, 71, 53)" opacity="0.99974275" stroke="rgb(0, 0, 0)" stroke-opacity="1.0" stroke-linecap="round" stroke-linejoin="round"/>
    <path d="M 96.51901245117188 345.77392578125 C 99.70376586914062 337.72198486328125 92.04806518554688 336.7439270019531 93.3812484741211 332.62939453125 C 89.54740905761719 332.4913330078125 81.89517974853516 335.2249450683594 80.52421569824219 333.5308837890625 C 76.59893798828125 341.5668640136719 62.97652816772461 338.61505126953125 58.24376678466797 349.1162414550781 C 78.262939453125 348.7591552734375 89.7199935913086 347.2038269042969 96.51901245117188 345.77392578125" stroke-width="0.0" fill="rgb(150, 139, 118)" opacity="0.99117213" stroke="rgb(0, 0, 0)" stroke-opacity="1.0" stroke-linecap="round" stroke-linejoin="round"/>
    <path d="M -6.027500629425049 429.8419494628906 C -6.140690803527832 455.8104553222656 -5.923890113830566 484.0625915527344 -5.362629413604736 520.2938232421875 C 53.15564727783203 520.0438842773438 102.71038055419922 519.68798828125 148.22276306152344 517.4930419921875 C 152.3148956298828 496.9127502441406 155.2859649658203 486.60498046875 151.91163635253906 465.06024169921875 C 150.24246215820312 464.1065673828125 145.478759765625 462.2399597167969 143.25999450683594 457.23944091796875 C 98.80492401123047 444.9694519042969 50.095821380615234 437.9631042480469 -6.027500629425049 429.8419494628906" stroke-width="0.0" fill="rgb(223, 201, 175)" opacity="1.0104257" stroke="rgb(0, 0, 0)" stroke-opacity="1.0" stroke-linecap="round" stroke-linejoin="round"/>
    <path d="M 71.47442626953125 412.81927490234375 C 72.17027282714844 419.69256591796875 74.9786148071289 421.9491882324219 78.25260925292969 423.1791076660156 C 94.68010711669922 428.4252014160156 116.83474731445312 430.07623291015625 139.39849853515625 430.71392822265625 C 149.59896850585938 429.71820068359375 151.4188232421875 425.61895751953125 157.5662384033203 421.47222900390625 C 152.3473358154297 410.5578918457031 144.249755859375 402.366943359375 135.23202514648438 396.0564270019531 C 127.30066680908203 390.1571960449219 115.71244049072266 394.1685791015625 111.6148910522461 388.93988037109375 C 102.44590759277344 388.40399169921875 94.22119140625 391.0299072265625 88.58258056640625 392.6037292480469 C 82.02730560302734 399.04248046875 75.80457305908203 404.1414794921875 71.47442626953125 412.81927490234375" stroke-width="0.0" fill="rgb(115, 103, 89)" opacity="1.0143243" stroke="rgb(0, 0, 0)" stroke-opacity="1.0" stroke-linecap="round" stroke-linejoin="round"/>
    <path d="M 216.06544494628906 374.5498352050781 C 216.58526611328125 382.8450012207031 219.9990234375 388.4203186035156 226.3031768798828 396.2559814453125 C 230.915283203125 398.47125244140625 233.8863983154297 405.0286865234375 242.81861877441406 406.2839050292969 C 240.85691833496094 410.3076171875 238.56263732910156 403.1701354980469 236.46775817871094 410.49945068359375 C 241.99366760253906 412.53643798828125 247.24862670898438 413.5912170410156 243.6316375732422 406.3105773925781 C 250.21771240234375 397.6661682128906 253.75721740722656 390.5826721191406 251.82479858398438 374.0978088378906 C 245.55735778808594 371.5530090332031 225.60491943359375 370.0892639160156 216.06544494628906 374.5498352050781" stroke-width="0.0" fill="rgb(199, 175, 148)" opacity="0.99694854" stroke="rgb(0, 0, 0)" stroke-opacity="1.0" stroke-linecap="round" stroke-linejoin="round"/>
    <path d="M -4.290925025939941 167.55715942382812 C -7.336241245269775 176.71572875976562 -6.157289505004883 185.26873779296875 0.7575175762176514 185.90232849121094 C 52.905887603759766 189.11380004882812 99.1191177368164 188.18751525878906 142.82473754882812 182.28785705566406 C 129.54039001464844 167.558349609375 110.07330322265625 161.76895141601562 100.79692077636719 151.40089416503906 C 75.4063949584961 149.13624572753906 51.3210563659668 149.350341796875 30.308015823364258 150.4817657470703 C 17.595518112182617 151.90097045898438 9.111363410949707 159.51783752441406 -4.290925025939941 167.55715942382812" stroke-width="0.0" fill="rgb(152, 150, 152)" opacity="0.9880105" stroke="rgb(0, 0, 0)" stroke-opacity="1.0" stroke-linecap="round" stroke-linejoin="round"/>
    <path d="M 9.009702682495117 388.3084411621094 C 11.460724830627441 398.81561279296875 -2.3159706592559814 410.56072998046875 -6.013646125793457 426.8162841796875 C 12.467292785644531 431.9202880859375 25.411937713623047 435.73394775390625 43.25834274291992 437.1525573730469 C 51.4482307434082 443.7947692871094 56.75379943847656 440.450439453125 64.42962646484375 435.82122802734375 C 65.61565399169922 414.39410400390625 65.25067138671875 395.46429443359375 64.67220306396484 399.4716491699219 C 61.64918518066406 404.1236267089844 49.1226692199707 400.3718566894531 47.009273529052734 390.437744140625 C 42.02293395996094 401.153076171875 14.49352741241455 401.17352294921875 9.009702682495117 388.3084411621094" stroke-width="0.0" fill="rgb(180, 162, 138)" opacity="0.99216187" stroke="rgb(0, 0, 0)" stroke-opacity="1.0" stroke-linecap="round" stroke-linejoin="round"/>
    <path d="M 397.2686767578125 473.9681091308594 C 394.1406555175781 482.2189636230469 392.250732421875 489.0907897949219 394.8381652832031 489.98309326171875 C 409.8759460449219 502.357421875 430.53717041015625 502.62396240234375 444.20098876953125 512.234375 C 447.8631591796875 521.9495849609375 465.9365539550781 521.6524047851562 470.648681640625 509.369873046875 C 465.6304016113281 492.6091003417969 450.404541015625 483.9482727050781 438.7569885253906 471.4131164550781 C 432.7950439453125 470.10357666015625 423.08782958984375 467.6631164550781 420.7667541503906 466.7656555175781 C 408.65545654296875 467.4578857421875 402.8180236816406 471.5372009277344 397.2686767578125 473.9681091308594" stroke-width="0.0" fill="rgb(130, 111, 94)" opacity="1.0367575" stroke="rgb(0, 0, 0)" stroke-opacity="1.0" stroke-linecap="round" stroke-linejoin="round"/>
    <path d="M 219.5592041015625 402.7987976074219 C 212.90206909179688 410.217041015625 205.42605590820312 418.666748046875 199.4180145263672 432.737548828125 C 223.38194274902344 427.7789611816406 214.54901123046875 445.0467529296875 226.30279541015625 446.76507568359375 C 241.5502166748047 446.6143493652344 236.56201171875 447.89556884765625 236.9779815673828 428.6080627441406 C 227.56463623046875 423.5323486328125 234.0998077392578 418.3472900390625 231.8202362060547 409.11614990234375 C 228.45877075195312 402.0574645996094 226.29400634765625 400.9159240722656 219.5592041015625 402.7987976074219" stroke-width="0.0" fill="rgb(73, 61, 53)" opacity="0.9891578" stroke="rgb(0, 0, 0)" stroke-opacity="1.0" stroke-linecap="round" stroke-linejoin="round"/>
    <path d="M 264.4131164550781 460.7641296386719 C 271.75054931640625 471.07598876953125 278.77349853515625 482.37310791015625 287.934814453125 490.2178649902344 C 296.2196960449219 493.3653564453125 304.0556945800781 491.73211669921875 308.2290954589844 489.8503112792969 C 310.41717529296875 488.51129150390625 316.5228576660156 484.4064636230469 321.6438293457031 474.76080322265625 C 308.8570861816406 470.8560791015625 292.7861328125 470.02728271484375 278.7718505859375 464.4541015625 C 281.20709228515625 459.1585998535156 280.31085205078125 461.22479248046875 272.9508972167969 457.07598876953125 C 270.7003173828125 455.98114013671875 267.0422668457031 457.0699462890625 264.4131164550781 460.7641296386719" stroke-width="0.0" fill="rgb(178, 150, 123)" opacity="0.9638505" stroke="rgb(0, 0, 0)" stroke-opacity="1.0" stroke-linecap="round" stroke-linejoin="round"/>
    <path d="M 459.9205322265625 343.35809326171875 C 453.01025390625 355.0091857910156 452.2688903808594 370.2551574707031 453.514404296875 389.8888244628906 C 456.12249755859375 394.0745849609375 459.1934509277344 395.3989562988281 471.20977783203125 393.6042785644531 C 475.0592346191406 390.2983703613281 476.0127868652344 382.7942199707031 480.8328552246094 375.7682189941406 C 469.6699523925781 367.22265625 471.1102294921875 349.23016357421875 459.9205322265625 343.35809326171875" stroke-width="0.0" fill="rgb(29, 28, 20)" opacity="0.98597145" stroke="rgb(0, 0, 0)" stroke-opacity="1.0" stroke-linecap="round" stroke-linejoin="round"/>
    <path d="M 56.404415130615234 273.83984375 C 56.57435989379883 287.5851135253906 56.530059814453125 293.0796203613281 62.612335205078125 292.1993103027344 C 79.99093627929688 293.945556640625 89.84626770019531 293.42144775390625 93.7841567993164 285.8573303222656 C 95.46521759033203 273.30615234375 85.17027282714844 274.637939453125 71.25056457519531 265.6867980957031 C 65.20979309082031 267.38287353515625 57.32154083251953 271.9253845214844 56.404415130615234 273.83984375" stroke-width="0.0" fill="rgb(113, 109, 82)" opacity="1.0091358" stroke="rgb(0, 0, 0)" stroke-opacity="1.0" stroke-linecap="round" stroke-linejoin="round"/>
    <path d="M 384.7770690917969 501.38287353515625 C 379.0882873535156 503.16680908203125 382.0052185058594 506.4107360839844 382.3927001953125 518.1005859375 C 398.6688232421875 518.2118530273438 415.5246276855469 520.0865478515625 430.3733825683594 518.1699829101562 C 426.45245361328125 502.1490173339844 413.5195007324219 503.5365295410156 407.9402160644531 499.01025390625 C 392.9164733886719 496.8367919921875 385.8698425292969 497.7646789550781 384.7770690917969 501.38287353515625" stroke-width="0.0" fill="rgb(206, 162, 129)" opacity="1.0006106" stroke="rgb(0, 0, 0)" stroke-opacity="1.0" stroke-linecap="round" stroke-linejoin="round"/>
    <path d="M 516.9930419921875 376.5752258300781 C 503.55499267578125 381.2604064941406 499.1519470214844 385.10894775390625 496.89892578125 394.26702880859375 C 497.76849365234375 397.4180603027344 497.1938781738281 408.93310546875 499.1849365234375 413.48529052734375 C 503.45977783203125 414.57684326171875 508.11181640625 413.9789733886719 517.6389770507812 414.2854919433594 C 517.9723510742188 400.32647705078125 519.3399047851562 387.6539306640625 516.9930419921875 376.5752258300781" stroke-width="0.0" fill="rgb(57, 59, 40)" opacity="1.0009204" stroke="rgb(0, 0, 0)" stroke-opacity="1.0" stroke-linecap="round" stroke-linejoin="round"/>
    <path d="M 58.69112777709961 323.8531188964844 C 58.87007141113281 331.043212890625 63.28997802734375 327.54473876953125 70.17185974121094 332.25762939453125 C 81.13090515136719 331.0581970214844 87.73214721679688 335.81561279296875 89.90499114990234 329.5175476074219 C 88.98761749267578 323.2013854980469 76.99969482421875 323.8504943847656 70.3958511352539 318.96453857421875 C 63.39664840698242 318.38507080078125 57.86252975463867 319.0183410644531 58.69112777709961 323.8531188964844" stroke-width="0.0" fill="rgb(177, 161, 142)" opacity="0.9760065" stroke="rgb(0, 0, 0)" stroke-opacity="1.0" stroke-linecap="round" stroke-linejoin="round"/>
    <path d="M 206.0833282470703 414.8028869628906 C 203.25045776367188 408.0303039550781 195.7608184814453 408.1030578613281 190.79000854492188 405.51715087890625 C 194.4801483154297 400.7217712402344 194.53770446777344 407.2565612792969 196.55039978027344 401.0240478515625 C 197.40538024902344 395.5655822753906 189.4809112548828 398.3018493652344 189.68295288085938 391.71661376953125 C 187.0128631591797 403.0674133300781 185.81900024414062 406.9075927734375 173.8706817626953 404.29229736328125 C 171.50608825683594 403.9048767089844 166.05184936523438 403.498779296875 161.31869506835938 398.37738037109375 C 166.84487915039062 389.5412902832031 178.02713012695312 383.8161315917969 185.21157836914062 373.0728759765625 C 170.23020935058594 364.3418884277344 161.25094604492188 350.3000183105469 143.1355438232422 342.8509521484375 C 114.25467681884766 347.8055419921875 83.86194610595703 345.37872314453125 56.452938079833984 350.9884033203125 C 70.95027160644531 354.0211181640625 80.45011138916016 363.142333984375 88.59050750732422 368.4828186035156 C 83.5219497680664 370.7764892578125 86.07113647460938 382.426025390625 79.01697540283203 383.482421875 C 60.19599914550781 379.77886962890625 43.27028274536133 375.61505126953125 28.040931701660156 375.03326416015625 C 10.680259704589844 375.7167663574219 10.900067329406738 386.28875732421875 -5.896783828735352 380.1306457519531 C -6.300823211669922 391.6666564941406 -6.3002777099609375 400.3333435058594 -5.891622543334961 412.7940979003906 C 11.527854919433594 406.6498718261719 17.82036781311035 399.4858093261719 26.974609375 400.65301513671875 C 45.02143096923828 402.01263427734375 56.449947357177734 407.824462890625 66.71054077148438 417.4132995605469 C 73.97756958007812 399.02532958984375 90.79520416259766 390.2543640136719 104.39160919189453 377.29119873046875 C 117.99244689941406 384.85528564453125 121.08048248291016 390.0190124511719 135.71290588378906 390.23162841796875 C 153.4954376220703 400.88330078125 157.42727661132812 413.3757019042969 165.41702270507812 423.4970397949219 C 178.43978881835938 424.4389953613281 189.42469787597656 423.3407897949219 204.00100708007812 427.06622314453125 C 204.16848754882812 428.5821228027344 204.47267150878906 422.2702941894531 206.0833282470703 414.8028869628906" stroke-width="0.0" fill="rgb(223, 195, 168)" opacity="0.9891429" stroke="rgb(0, 0, 0)" stroke-opacity="1.0" stroke-linecap="round" stroke-linejoin="round"/>
    <path d="M 166.28622436523438 462.37469482421875 C 163.79844665527344 476.4961853027344 171.76991271972656 487.5830078125 164.93687438964844 517.490478515625 C 203.33082580566406 518.0333862304688 238.67483520507812 518.0535278320312 275.4118957519531 518.2166748046875 C 274.5914611816406 510.984375 275.16705322265625 502.1683349609375 275.3117980957031 501.7256774902344 C 279.6210021972656 502.261474609375 285.35504150390625 500.2140808105469 287.4163818359375 494.9508361816406 C 283.5255126953125 488.1713562011719 279.84930419921875 479.435791015625 278.1796569824219 476.6026916503906 C 258.65313720703125 472.04925537109375 249.7551727294922 460.6436462402344 238.06065368652344 448.2147216796875 C 230.0858154296875 451.23260498046875 224.94837951660156 454.5096435546875 218.04714965820312 454.5687561035156 C 196.71127319335938 454.6014709472656 191.06858825683594 451.8254089355469 180.32406616210938 448.0198059082031 C 171.46372985839844 451.3053894042969 168.30194091796875 454.57421875 166.28622436523438 462.37469482421875" stroke-width="0.0" fill="rgb(143, 134, 114)" opacity="0.9945183" stroke="rgb(0, 0, 0)" stroke-opacity="1.0" stroke-linecap="round" stroke-linejoin="round"/>
    <path d="M -1.854180932044983 328.5484313964844 C -4.060200214385986 339.7323913574219 -3.7816216945648193 354.46575927734375 -1.8271948099136353 369.68035888671875 C 19.9915828704834 375.89898681640625 44.29557418823242 376.3243713378906 73.00139617919922 382.0397644042969 C 77.4712905883789 382.81036376953125 83.60355377197266 378.950927734375 89.83429718017578 374.5893859863281 C 85.50115203857422 365.4559631347656 77.55364990234375 361.06353759765625 69.89478302001953 357.3373718261719 C 59.20867919921875 352.8765869140625 62.09722137451172 353.21826171875 48.49042510986328 355.24554443359375 C 54.98065948486328 339.4617004394531 54.29743957519531 339.861328125 46.745025634765625 334.5572204589844 C 36.36201858520508 327.8135986328125 27.46539878845215 337.64971923828125 23.588560104370117 324.3903503417969 C 7.771582126617432 327.3114318847656 5.594078063964844 318.9826965332031 -1.854180932044983 328.5484313964844" stroke-width="0.0" fill="rgb(154, 143, 122)" opacity="1.0050168" stroke="rgb(0, 0, 0)" stroke-opacity="1.0" stroke-linecap="round" stroke-linejoin="round"/>
    <path d="M 164.052001953125 341.2217102050781 C 181.79330444335938 367.297119140625 200.62155151367188 385.3744812011719 204.14877319335938 416.3622741699219 C 217.7932586669922 413.414794921875 219.1856231689453 407.4131164550781 222.86337280273438 399.16033935546875 C 210.8252410888672 390.6139831542969 213.1609344482422 370.2684326171875 200.8683319091797 358.81396484375 C 199.19435119628906 351.18109130859375 179.9729766845703 353.2645568847656 164.052001953125 341.2217102050781" stroke-width="0.0" fill="rgb(80, 65, 52)" opacity="0.9455092" stroke="rgb(0, 0, 0)" stroke-opacity="1.0" stroke-linecap="round" stroke-linejoin="round"/>
    <path d="M 29.134552001953125 272.409912109375 C 16.644550323486328 267.7642517089844 8.917990684509277 271.1560974121094 -0.16017678380012512 277.996337890625 C -4.736252307891846 289.56903076171875 -5.568699836730957 303.68365478515625 -6.010145664215088 316.2574157714844 C 13.22415828704834 314.02667236328125 25.7967586517334 313.5332946777344 29.750537872314453 305.9642028808594 C 38.42551040649414 286.6533203125 39.82157897949219 277.2494812011719 29.134552001953125 272.409912109375" stroke-width="0.0" fill="rgb(136, 131, 89)" opacity="0.9945744" stroke="rgb(0, 0, 0)" stroke-opacity="1.0" stroke-linecap="round" stroke-linejoin="round"/>
    <path d="M -0.7112034559249878 234.37257385253906 C -5.586500644683838 248.0135498046875 -4.112148761749268 261.8631286621094 -1.1849446296691895 279.0309143066406 C 7.601633548736572 268.3558044433594 14.56335735321045 271.5578308105469 29.617103576660156 271.6245422363281 C 29.50482749938965 263.1654357910156 36.29462814331055 255.9481964111328 37.30195617675781 252.6156005859375 C 29.340314865112305 238.6923370361328 9.526322364807129 247.44985961914062 -0.7112034559249878 234.37257385253906" stroke-width="0.0" fill="rgb(136, 134, 93)" opacity="1.002525" stroke="rgb(0, 0, 0)" stroke-opacity="1.0" stroke-linecap="round" stroke-linejoin="round"/>
    <path d="M 514.667724609375 477.58758544921875 C 502.81170654296875 470.4439392089844 494.4842834472656 467.64825439453125 479.1808776855469 470.9505615234375 C 487.4200744628906 472.7304992675781 489.5237731933594 472.2054138183594 487.4971923828125 481.3135070800781 C 483.50091552734375 477.376708984375 478.096923828125 482.8602294921875 473.1358947753906 485.0317077636719 C 470.26361083984375 498.0417175292969 480.9836730957031 493.140869140625 480.373291015625 507.28717041015625 C 488.259521484375 499.2830810546875 497.8167419433594 495.88079833984375 504.47210693359375 489.4717712402344 C 508.7175598144531 486.1642761230469 512.6182250976562 481.62933349609375 514.667724609375 477.58758544921875" stroke-width="0.0" fill="rgb(220, 172, 135)" opacity="1.0255592" stroke="rgb(0, 0, 0)" stroke-opacity="1.0" stroke-linecap="round" stroke-linejoin="round"/>
    <path d="M 354.919921875 309.1165771484375 C 349.8830871582031 306.42535400390625 348.8027648925781 300.89044189453125 347.6148986816406 301.691162109375 C 329.6971130371094 311.3414001464844 305.30279541015625 311.5279541015625 285.3999938964844 323.9563903808594 C 303.282470703125 323.9143371582031 321.2020568847656 326.9740295410156 330.4483947753906 323.8246765136719 C 343.3816833496094 322.2613830566406 349.4574279785156 318.12872314453125 354.919921875 309.1165771484375" stroke-width="0.0" fill="rgb(106, 87, 74)" opacity="1.0243007" stroke="rgb(0, 0, 0)" stroke-opacity="1.0" stroke-linecap="round" stroke-linejoin="round"/>
    <path d="M 158.19187927246094 428.9170837402344 C 153.45852661132812 436.2334899902344 160.06907653808594 441.9044189453125 164.57373046875 451.20526123046875 C 172.14854431152344 442.20318603515625 176.3833770751953 447.6451721191406 189.7786407470703 448.37628173828125 C 192.30007934570312 442.8948059082031 195.1171112060547 438.36407470703125 197.3914031982422 431.4488525390625 C 189.6237030029297 427.8611145019531 187.1092987060547 422.3636474609375 186.7374725341797 425.4496154785156 C 169.9761199951172 422.984130859375 159.87339782714844 422.4352722167969 158.19187927246094 428.9170837402344" stroke-width="0.0" fill="rgb(81, 72, 59)" opacity="0.94880205" stroke="rgb(0, 0, 0)" stroke-opacity="1.0" stroke-linecap="round" stroke-linejoin="round"/>
    <path d="M 58.01979446411133 258.1867370605469 C 54.67744445800781 254.13427734375 49.395442962646484 254.7364044189453 45.263858795166016 253.82672119140625 C 41.46385955810547 258.0860900878906 38.52793884277344 263.23602294921875 35.95936584472656 261.78680419921875 C 29.90907096862793 275.9435729980469 34.18071365356445 273.08636474609375 36.30644607543945 288.7518310546875 C 45.28729248046875 287.48101806640625 51.17348861694336 284.1177978515625 58.38904571533203 282.81927490234375 C 58.27660369873047 271.39300537109375 60.208740234375 261.0021057128906 58.01979446411133 258.1867370605469" stroke-width="0.0" fill="rgb(123, 118, 88)" opacity="0.99060994" stroke="rgb(0, 0, 0)" stroke-opacity="1.0" stroke-linecap="round" stroke-linejoin="round"/>
    <path d="M 189.67550659179688 378.8832092285156 C 189.57199096679688 377.5637512207031 185.047119140625 376.3938903808594 179.54005432128906 375.5806884765625 C 176.715576171875 387.6999816894531 163.15232849121094 388.2398681640625 162.0135040283203 398.7956848144531 C 165.43609619140625 404.3047180175781 172.8245849609375 404.5104675292969 183.76931762695312 406.37860107421875 C 183.94544982910156 402.21966552734375 186.61634826660156 398.766357421875 195.6883544921875 393.70538330078125 C 193.487548828125 387.8753662109375 191.0070037841797 383.4686279296875 189.67550659179688 378.8832092285156" stroke-width="0.0" fill="rgb(161, 146, 120)" opacity="0.9961851" stroke="rgb(0, 0, 0)" stroke-opacity="1.0" stroke-linecap="round" stroke-linejoin="round"/>
    <path d="M 55.066776275634766 437.0567932128906 C 55.14762878417969 444.81597900390625 61.53939437866211 444.87109375 68.98650360107422 445.54827880859375 C 80.57052612304688 444.6364440917969 93.20191955566406 447.439208984375 93.3511962890625 441.3226013183594 C 94.5272216796875 433.057373046875 81.69796752929688 438.4488830566406 78.46206665039062 431.4311218261719 C 66.07135772705078 432.02130126953125 56.82166290283203 431.5640563964844 55.066776275634766 437.0567932128906" stroke-width="0.0" fill="rgb(183, 144, 117)" opacity="1.0743093" stroke="rgb(0, 0, 0)" stroke-opacity="1.0" stroke-linecap="round" stroke-linejoin="round"/>
    <path d="M 152.79248046875 354.8260498046875 C 154.65574645996094 357.5029602050781 153.92822265625 361.73126220703125 156.24085998535156 364.6068115234375 C 164.31605529785156 365.0660400390625 170.59364318847656 370.4571533203125 180.8358917236328 365.7140197753906 C 178.3050994873047 355.0862121582031 175.94276428222656 349.95208740234375 173.3892822265625 349.5064697265625 C 159.07785034179688 353.04681396484375 154.42430114746094 351.11346435546875 152.79248046875 354.8260498046875" stroke-width="0.0" fill="rgb(75, 57, 46)" opacity="1.031698" stroke="rgb(0, 0, 0)" stroke-opacity="1.0" stroke-linecap="round" stroke-linejoin="round"/>
    <path d="M -4.059418201446533 414.3310852050781 C 10.196943283081055 408.8974914550781 18.094932556152344 403.80804443359375 25.169036865234375 402.2155456542969 C 39.30709457397461 402.7975769042969 50.20457458496094 407.7693786621094 64.36434173583984 414.0872497558594 C 71.56101989746094 405.4297180175781 79.52591705322266 398.1571960449219 88.92545318603516 389.7843017578125 C 73.57393646240234 386.05206298828125 65.35710906982422 380.4496154785156 51.71364974975586 380.1087646484375 C 32.47306823730469 377.04620361328125 19.265012741088867 383.07861328125 -6.347105026245117 382.9046325683594 C -5.467374324798584 391.55157470703125 -5.698773384094238 403.1859130859375 -4.059418201446533 414.3310852050781" stroke-width="0.0" fill="rgb(227, 201, 175)" opacity="0.9861838" stroke="rgb(0, 0, 0)" stroke-opacity="1.0" stroke-linecap="round" stroke-linejoin="round"/>
    <path d="M -3.178936719894409 415.0848388671875 C -4.364091396331787 417.4247741699219 -2.08032488822937 422.4747009277344 -1.439085841178894 428.808837890625 C 15.369874000549316 428.9075012207031 21.547117233276367 438.1400451660156 36.36178970336914 439.667724609375 C 44.83854675292969 441.7049560546875 49.699119567871094 440.0499267578125 54.2228889465332 438.2692565917969 C 58.97761917114258 433.6559143066406 60.9010124206543 431.9415283203125 61.65899658203125 424.4173278808594 C 63.055912017822266 418.54107666015625 59.50625991821289 412.1981201171875 57.10490417480469 411.77508544921875 C 46.22663879394531 406.9156494140625 37.35861587524414 401.58660888671875 24.862478256225586 402.367431640625 C 12.087116241455078 402.2862548828125 9.809425354003906 411.5320739746094 -3.178936719894409 415.0848388671875" stroke-width="0.0" fill="rgb(138, 131, 112)" opacity="0.9667093" stroke="rgb(0, 0, 0)" stroke-opacity="1.0" stroke-linecap="round" stroke-linejoin="round"/>
    <path d="M -4.940152645111084 500.0018310546875 C -3.8783018589019775 502.1523132324219 -2.736119270324707 506.7284240722656 -1.3987849950790405 517.8125 C 49.383644104003906 517.9066162109375 98.54505157470703 518.5695190429688 153.63540649414062 518.3898315429688 C 142.17710876464844 508.1214904785156 135.31361389160156 504.11273193359375 134.50218200683594 504.7248229980469 C 88.21827697753906 503.1916809082031 47.07898712158203 497.2989501953125 -4.940152645111084 500.0018310546875" stroke-width="0.0" fill="rgb(238, 198, 162)" opacity="1.0000538" stroke="rgb(0, 0, 0)" stroke-opacity="1.0" stroke-linecap="round" stroke-linejoin="round"/>
    <path d="M 417.0632019042969 469.544921875 C 415.9403991699219 483.0356140136719 427.08209228515625 492.6866760253906 429.04248046875 500.8476257324219 C 438.5455322265625 504.9371643066406 444.5829162597656 505.7560119628906 444.7594299316406 516.7672119140625 C 449.7278137207031 520.3570556640625 465.14141845703125 520.600830078125 472.3223571777344 513.9789428710938 C 467.57623291015625 493.926513671875 453.99102783203125 487.3818359375 443.6245422363281 475.0157775878906 C 438.2831115722656 470.2958984375 428.1101379394531 468.1432800292969 417.0632019042969 469.544921875" stroke-width="0.0" fill="rgb(155, 135, 121)" opacity="0.99340135" stroke="rgb(0, 0, 0)" stroke-opacity="1.0" stroke-linecap="round" stroke-linejoin="round"/>
    <path d="M 231.08251953125 406.64202880859375 C 229.9725341796875 403.06866455078125 222.1360626220703 401.276611328125 222.1325225830078 404.38616943359375 C 213.74803161621094 413.223876953125 204.83409118652344 416.42510986328125 201.03683471679688 430.01806640625 C 208.21975708007812 427.1403503417969 210.8259735107422 433.400390625 221.76393127441406 434.86468505859375 C 226.1494903564453 431.6716613769531 229.54690551757812 429.891357421875 231.76556396484375 430.6048889160156 C 229.45291137695312 420.2060241699219 234.32420349121094 413.80133056640625 231.08251953125 406.64202880859375" stroke-width="0.0" fill="rgb(78, 65, 55)" opacity="0.9964651" stroke="rgb(0, 0, 0)" stroke-opacity="1.0" stroke-linecap="round" stroke-linejoin="round"/>
    <path d="M -3.03043270111084 483.2541198730469 C -3.5145092010498047 488.1065979003906 -2.6841418743133545 492.9412536621094 -4.067616939544678 500.6419677734375 C 14.282423973083496 496.9660949707031 30.25802993774414 503.30072021484375 36.36054229736328 497.2235412597656 C 30.056514739990234 488.0164794921875 13.881704330444336 487.494873046875 -3.03043270111084 483.2541198730469" stroke-width="0.0" fill="rgb(168, 127, 97)" opacity="0.99498844" stroke="rgb(0, 0, 0)" stroke-opacity="1.0" stroke-linecap="round" stroke-linejoin="round"/>
    <path d="M 230.55633544921875 424.316162109375 C 224.6604461669922 428.6974792480469 220.0618133544922 432.6337890625 214.48487854003906 432.15350341796875 C 221.38853454589844 438.8956604003906 220.9516143798828 446.438720703125 224.16844177246094 447.6941833496094 C 230.0592803955078 451.4427490234375 232.80259704589844 446.2510986328125 236.52316284179688 446.62786865234375 C 238.92214965820312 433.17974853515625 237.83570861816406 429.431396484375 230.55633544921875 424.316162109375" stroke-width="0.0" fill="rgb(38, 29, 24)" opacity="0.99732083" stroke="rgb(0, 0, 0)" stroke-opacity="1.0" stroke-linecap="round" stroke-linejoin="round"/>
    <path d="M -7.385809421539307 323.3884582519531 C -8.13605785369873 345.6710510253906 -8.497298240661621 361.4825744628906 -5.414309024810791 366.4563293457031 C 8.239033699035645 370.0339660644531 12.035783767700195 373.5398254394531 20.17198371887207 373.1158142089844 C 30.394630432128906 366.270263671875 34.754581451416016 356.6958923339844 47.09756088256836 354.7694091796875 C 49.220008850097656 349.871337890625 49.24449920654297 344.3332214355469 52.70545196533203 341.51007080078125 C 50.64954376220703 337.6394958496094 46.846641540527344 335.4280700683594 45.15420150756836 333.2984924316406 C 41.45387268066406 331.28741455078125 38.971614837646484 331.96826171875 32.75852966308594 331.9240417480469 C 26.276256561279297 330.40130615234375 27.133216857910156 323.1189270019531 21.02150535583496 320.2637634277344 C 14.716131210327148 327.921142578125 9.956223487854004 320.1496887207031 -7.385809421539307 323.3884582519531" stroke-width="0.0" fill="rgb(138, 129, 113)" opacity="1.0145776" stroke="rgb(0, 0, 0)" stroke-opacity="1.0" stroke-linecap="round" stroke-linejoin="round"/>
    <path d="M 110.58871459960938 399.9585266113281 C 106.57389068603516 407.9955749511719 107.40906524658203 419.26318359375 107.37940216064453 430.4889221191406 C 121.23751831054688 434.86676025390625 129.11898803710938 428.95684814453125 133.03919982910156 437.7812805175781 C 141.75045776367188 435.16387939453125 150.0908203125 434.9781188964844 154.50106811523438 432.9244079589844 C 158.2393035888672 426.461669921875 161.2180938720703 423.1776123046875 158.31825256347656 415.05364990234375 C 150.77235412597656 404.3960266113281 144.04678344726562 397.7961120605469 133.67623901367188 390.1809997558594 C 124.16924285888672 391.7696228027344 115.30386352539062 392.2310485839844 110.58871459960938 399.9585266113281" stroke-width="0.0" fill="rgb(129, 119, 102)" opacity="0.89507794" stroke="rgb(0, 0, 0)" stroke-opacity="1.0" stroke-linecap="round" stroke-linejoin="round"/>
    <path d="M 26.644935607910156 378.7795104980469 C 35.69296646118164 384.2365417480469 57.812137603759766 372.71575927734375 66.46209716796875 382.6639709472656 C 77.86465454101562 384.21319580078125 85.12250518798828 380.08587646484375 92.40435028076172 374.0691223144531 C 84.04265594482422 363.2510986328125 73.21243286132812 357.6444091796875 60.830379486083984 352.6788024902344 C 51.13349151611328 354.4010314941406 43.00942611694336 357.9852600097656 34.39323043823242 361.3643798828125 C 32.70638656616211 367.3906555175781 21.515764236450195 366.37469482421875 26.644935607910156 378.7795104980469" stroke-width="0.0" fill="rgb(160, 149, 123)" opacity="1.0160644" stroke="rgb(0, 0, 0)" stroke-opacity="1.0" stroke-linecap="round" stroke-linejoin="round"/>
    <path d="M 105.90828704833984 380.99176025390625 C 94.47624969482422 385.8332824707031 85.46390533447266 398.087890625 70.3804931640625 407.9482727050781 C 72.32131958007812 414.8440246582031 74.1761245727539 419.3431701660156 76.75674438476562 423.8388977050781 C 86.17107391357422 425.53155517578125 96.21874237060547 429.8233947753906 102.39183807373047 426.29608154296875 C 108.21566009521484 412.2822265625 105.60507202148438 397.35638427734375 117.86565399169922 395.06451416015625 C 117.2683334350586 386.5304260253906 115.91922760009766 382.3861999511719 105.90828704833984 380.99176025390625" stroke-width="0.0" fill="rgb(127, 114, 99)" opacity="0.8942664" stroke="rgb(0, 0, 0)" stroke-opacity="1.0" stroke-linecap="round" stroke-linejoin="round"/>
    <path d="M 117.6350326538086 347.8886413574219 C 117.23863983154297 351.2544250488281 121.18498229980469 356.27587890625 122.47914123535156 355.9859924316406 C 142.03977966308594 358.0867919921875 155.0409393310547 367.794677734375 178.79299926757812 367.1009521484375 C 170.70535278320312 352.8785400390625 157.91323852539062 350.8024597167969 146.85653686523438 344.0821838378906 C 133.18197631835938 343.2656555175781 124.72469329833984 340.2428283691406 117.6350326538086 347.8886413574219" stroke-width="0.0" fill="rgb(105, 80, 58)" opacity="0.86420554" stroke="rgb(0, 0, 0)" stroke-opacity="1.0" stroke-linecap="round" stroke-linejoin="round"/>
    <path d="M 279.8891296386719 478.5968933105469 C 294.7664794921875 480.1461181640625 291.0931091308594 493.5219421386719 304.3323974609375 490.34393310546875 C 315.7752380371094 490.7895202636719 318.4696960449219 481.560791015625 325.18804931640625 476.1942443847656 C 316.3746643066406 469.9375915527344 300.91973876953125 473.8011169433594 291.7804870605469 470.2853088378906 C 287.4270935058594 474.6109619140625 282.3205871582031 475.4224853515625 279.8891296386719 478.5968933105469" stroke-width="0.0" fill="rgb(210, 187, 164)" opacity="0.9888008" stroke="rgb(0, 0, 0)" stroke-opacity="1.0" stroke-linecap="round" stroke-linejoin="round"/>
    <path d="M 481.498046875 467.6186218261719 C 475.79022216796875 470.6717834472656 480.22589111328125 475.812255859375 478.9931640625 480.8774719238281 C 487.2422180175781 483.5101013183594 493.3388366699219 480.177490234375 501.491455078125 481.963134765625 C 506.33642578125 479.9649658203125 506.4476013183594 477.1510314941406 505.3674621582031 472.11480712890625 C 500.98834228515625 469.9505310058594 490.5638427734375 469.6861267089844 481.498046875 467.6186218261719" stroke-width="0.0" fill="rgb(120, 89, 66)" opacity="0.9799628" stroke="rgb(0, 0, 0)" stroke-opacity="1.0" stroke-linecap="round" stroke-linejoin="round"/>
    <path d="M 117.20687866210938 348.5295715332031 C 119.1681900024414 356.1486511230469 126.94853973388672 355.7188415527344 139.8987274169922 358.43060302734375 C 142.992919921875 360.48553466796875 145.65093994140625 351.459716796875 156.7852020263672 352.48065185546875 C 151.59800720214844 343.8258972167969 143.37701416015625 345.0533142089844 133.8305206298828 342.5188903808594 C 128.40298461914062 342.47393798828125 120.83316040039062 342.75244140625 117.20687866210938 348.5295715332031" stroke-width="0.0" fill="rgb(209, 175, 146)" opacity="1.0052054" stroke="rgb(0, 0, 0)" stroke-opacity="1.0" stroke-linecap="round" stroke-linejoin="round"/>
  </g>
</svg>
