<?xml version="1.0" ?>
<svg xmlns="http://www.w3.org/2000/svg" version="1.1" width="512" height="512">
  <defs/>
  <g>
    <path d="M -1.7636020183563232 -0.9022570848464966 C -1.1502432823181152 170.3333282470703 -0.3462105989456177 340.6666564941406 -0.3749511241912842 517.5643920898438 C 170.20767211914062 517.742431640625 340.7801208496094 518.0419921875 518.6322631835938 518.427734375 C 518.4525146484375 340.3846435546875 518.3381958007812 170.3979949951172 518.57958984375 -0.5113690495491028 C 340.6666564941406 -0.8859149217605591 170.3333282470703 -0.869544506072998 -1.7636020183563232 -0.9022570848464966" stroke-width="0.0" fill="rgb(140, 156, 172)" opacity="0.8882407" stroke="rgb(0, 0, 0)" stroke-opacity="1.0" stroke-linecap="round" stroke-linejoin="round"/>
    <path d="M 6.312193870544434 333.632568359375 C -4.8068389892578125 391.0888366699219 -9.482561111450195 446.7892150878906 -9.78683853149414 520.4813842773438 C 167.59300231933594 520.3629760742188 339.21490478515625 519.394775390625 517.811279296875 518.4752197265625 C 517.954833984375 497.4624938964844 518.0471801757812 483.1370544433594 513.5153198242188 469.5650939941406 C 501.7740173339844 460.049560546875 484.7132873535156 466.0345458984375 463.87213134765625 462.4014892578125 C 466.1550598144531 455.2541198730469 462.8209533691406 452.4444885253906 464.2149353027344 456.2069396972656 C 458.4434509277344 454.6118469238281 452.5615234375 457.2064514160156 456.8331298828125 452.815673828125 C 446.70172119140625 449.04986572265625 454.2637634277344 456.9178161621094 448.4053039550781 456.2255554199219 C 448.5603942871094 449.9512939453125 446.2486267089844 448.4365234375 445.403076171875 451.84393310546875 C 429.4562683105469 452.02349853515625 419.5789794921875 448.17669677734375 411.5289001464844 443.5462951660156 C 367.94940185546875 442.9548645019531 324.7251892089844 442.7650146484375 286.7735290527344 448.2209777832031 C 274.1867980957031 446.2104797363281 264.1436462402344 438.9772033691406 247.16648864746094 438.4171447753906 C 252.28460693359375 434.9941101074219 248.8382110595703 429.2604064941406 247.9464874267578 426.3204650878906 C 233.89840698242188 424.5819396972656 231.07240295410156 435.515625 215.90335083007812 437.79180908203125 C 206.71722412109375 410.9423522949219 196.19137573242188 393.3719177246094 187.47476196289062 371.3236389160156 C 170.68614196777344 364.73797607421875 155.74819946289062 352.25567626953125 136.31956481933594 342.0877685546875 C 93.67013549804688 339.3309020996094 48.867523193359375 338.09478759765625 6.312193870544434 333.632568359375" stroke-width="0.0" fill="rgb(88, 73, 61)" opacity="1.1785756" stroke="rgb(0, 0, 0)" stroke-opacity="1.0" stroke-linecap="round" stroke-linejoin="round"/>
    <path d="M 219.04002380371094 371.7889404296875 C 213.35098266601562 374.32958984375 209.97230529785156 379.61224365234375 213.07272338867188 381.351318359375 C 217.41796875 394.2976379394531 223.85438537597656 403.81512451171875 231.63812255859375 411.07952880859375 C 232.9806365966797 419.8283386230469 234.42088317871094 426.6920166015625 233.58702087402344 427.428955078125 C 238.92628479003906 427.4164733886719 250.4740447998047 428.86370849609375 253.40921020507812 426.2027587890625 C 256.6668701171875 419.4661865234375 257.5459899902344 418.8169250488281 259.10137939453125 415.2547912597656 C 260.4011535644531 398.3420715332031 265.9471435546875 391.2406005859375 259.36083984375 377.3662109375 C 254.564208984375 373.94732666015625 250.18008422851562 370.3269348144531 246.0415496826172 370.7787780761719 C 234.9029083251953 369.3243103027344 223.5222625732422 369.49420166015625 219.04002380371094 371.7889404296875" stroke-width="0.0" fill="rgb(207, 174, 149)" opacity="1.0034282" stroke="rgb(0, 0, 0)" stroke-opacity="1.0" stroke-linecap="round" stroke-linejoin="round"/>
    <path d="M 329.4710998535156 349.6783752441406 C 319.3098449707031 353.2470397949219 313.9357604980469 353.4469909667969 314.9175720214844 366.0855407714844 C 313.5423889160156 373.3150634765625 317.8797302246094 391.1268310546875 316.0216979980469 408.2759094238281 C 323.62310791015625 414.2251281738281 334.51202392578125 415.6474914550781 346.1210021972656 412.5841064453125 C 345.48309326171875 400.48291015625 351.3633117675781 395.12457275390625 351.0064697265625 387.6624450683594 C 352.4831848144531 380.4072570800781 355.3228759765625 379.2834777832031 332.0110778808594 388.201416015625 C 328.6892395019531 371.187744140625 339.9538879394531 363.50360107421875 348.7210693359375 356.55352783203125 C 340.83416748046875 352.0021667480469 336.1395263671875 349.4822998046875 329.4710998535156 349.6783752441406" stroke-width="0.0" fill="rgb(77, 63, 50)" opacity="1.1466385" stroke="rgb(0, 0, 0)" stroke-opacity="1.0" stroke-linecap="round" stroke-linejoin="round"/>
    <path d="M 521.00390625 97.68243408203125 C 491.195556640625 98.73394775390625 471.50653076171875 99.2921142578125 459.1014404296875 107.11239624023438 C 448.17962646484375 125.370849609375 430.36590576171875 129.7074737548828 421.9015197753906 141.55218505859375 C 410.2375793457031 157.00009155273438 408.081787109375 171.4152069091797 402.8092041015625 187.87767028808594 C 398.00537109375 243.59767150878906 408.5146789550781 277.3682861328125 402.8778991699219 320.0982666015625 C 404.9107666015625 331.9570007324219 413.614013671875 324.68475341796875 408.3731994628906 335.2751770019531 C 421.17205810546875 337.00103759765625 435.58355712890625 334.4561462402344 441.904052734375 337.28985595703125 C 446.1979675292969 351.4659423828125 445.640625 372.5723571777344 451.9516906738281 384.87823486328125 C 462.7048034667969 395.2322692871094 470.73828125 407.2813415527344 482.988037109375 417.8983154296875 C 489.98199462890625 418.5006103515625 494.80609130859375 425.4903564453125 503.40374755859375 426.3797302246094 C 502.7805480957031 428.90423583984375 495.179443359375 426.0594482421875 495.30291748046875 430.60479736328125 C 506.61688232421875 434.4913635253906 502.747314453125 426.5479736328125 504.01690673828125 440.87896728515625 C 514.71533203125 438.83453369140625 500.0234680175781 429.67041015625 518.315673828125 431.6612854003906 C 519.2999877929688 315.7356872558594 520.6199340820312 202.6664581298828 521.00390625 97.68243408203125" stroke-width="0.0" fill="rgb(68, 70, 45)" opacity="1.0161952" stroke="rgb(0, 0, 0)" stroke-opacity="1.0" stroke-linecap="round" stroke-linejoin="round"/>
    <path d="M -2.434896230697632 164.53538513183594 C -5.343218803405762 186.2867889404297 -5.751591205596924 210.31060791015625 -5.496331214904785 236.05250549316406 C 6.6325578689575195 231.6842041015625 14.5248441696167 233.64413452148438 22.249662399291992 233.38002014160156 C 28.627437591552734 236.21112060546875 33.923282623291016 237.8536376953125 36.37587356567383 241.4088592529297 C 33.95962142944336 247.73800659179688 34.7926139831543 244.41156005859375 42.608543395996094 245.10183715820312 C 45.15061950683594 236.5281524658203 50.0451774597168 237.9016571044922 45.912017822265625 230.48048400878906 C 80.78396606445312 231.80018615722656 105.55142974853516 230.8433380126953 121.56070709228516 225.43177795410156 C 134.2834014892578 228.28839111328125 130.6054229736328 219.43470764160156 127.5936508178711 219.11878967285156 C 150.59088134765625 211.70687866210938 178.74378967285156 217.40853881835938 186.76478576660156 210.88043212890625 C 194.2040557861328 198.5633087158203 188.03147888183594 190.30654907226562 185.3611297607422 180.3907012939453 C 171.72174072265625 179.1819305419922 155.46200561523438 179.16244506835938 140.67311096191406 176.0381317138672 C 124.53201293945312 170.86477661132812 113.08206176757812 157.8763427734375 98.16912841796875 151.7953643798828 C 72.81209564208984 150.10928344726562 51.758853912353516 148.57806396484375 23.73884391784668 151.65643310546875 C 17.027679443359375 153.36607360839844 8.409444808959961 158.82794189453125 -2.434896230697632 164.53538513183594" stroke-width="0.0" fill="rgb(144, 146, 144)" opacity="1.01188" stroke="rgb(0, 0, 0)" stroke-opacity="1.0" stroke-linecap="round" stroke-linejoin="round"/>
    <path d="M 153.777587890625 344.06103515625 C 153.2230682373047 345.5397644042969 149.9581298828125 353.81256103515625 158.07943725585938 360.85296630859375 C 165.08201599121094 365.03314208984375 179.83934020996094 364.1863098144531 186.57315063476562 374.4432678222656 C 193.3968963623047 387.2387390136719 198.46693420410156 402.2065124511719 206.23741149902344 413.2331848144531 C 207.9488983154297 415.0401306152344 205.63954162597656 422.7201232910156 206.56906127929688 430.5262756347656 C 211.21600341796875 432.4935302734375 216.63026428222656 438.15679931640625 221.77064514160156 443.6236877441406 C 226.9210662841797 445.3030700683594 230.6133270263672 444.9476013183594 235.08639526367188 440.4916076660156 C 236.92724609375 431.8675231933594 233.18507385253906 419.6529846191406 231.8825225830078 408.5617980957031 C 217.86231994628906 398.1128845214844 214.60134887695312 380.26092529296875 205.8159942626953 367.7967834472656 C 195.3425750732422 353.45458984375 187.60882568359375 344.9814147949219 171.1899871826172 339.82080078125 C 157.33297729492188 335.53680419921875 163.364990234375 343.5679626464844 153.777587890625 344.06103515625" stroke-width="0.0" fill="rgb(112, 97, 75)" opacity="0.8925168" stroke="rgb(0, 0, 0)" stroke-opacity="1.0" stroke-linecap="round" stroke-linejoin="round"/>
    <path d="M 234.13314819335938 296.6302795410156 C 228.35252380371094 298.86981201171875 227.28648376464844 304.8724365234375 224.755615234375 309.236572265625 C 226.058837890625 316.6682434082031 223.15621948242188 325.7906188964844 227.09100341796875 336.66058349609375 C 236.5336151123047 346.78973388671875 250.20652770996094 356.3864440917969 257.2074890136719 376.6104736328125 C 268.281494140625 360.2864074707031 271.6171875 340.6286926269531 274.6226501464844 321.1123962402344 C 263.70977783203125 312.7562561035156 256.0000915527344 309.01239013671875 245.5885467529297 303.47119140625 C 241.55801391601562 300.6865539550781 240.87709045410156 295.5326843261719 234.13314819335938 296.6302795410156" stroke-width="0.0" fill="rgb(74, 70, 51)" opacity="1.0093533" stroke="rgb(0, 0, 0)" stroke-opacity="1.0" stroke-linecap="round" stroke-linejoin="round"/>
    <path d="M 387.4446716308594 67.10198211669922 C 380.6648254394531 67.4621353149414 378.03228759765625 62.88380432128906 371.73675537109375 65.0584945678711 C 364.0821228027344 70.21354675292969 354.6648254394531 73.9778060913086 349.0816955566406 80.60054779052734 C 341.62188720703125 89.53291320800781 339.68695068359375 101.5234375 340.4433898925781 117.79634094238281 C 346.9840087890625 119.762939453125 361.59710693359375 118.11763000488281 367.81884765625 122.63501739501953 C 379.5643005371094 110.20230102539062 385.40960693359375 97.83507537841797 392.98992919921875 86.43072509765625 C 393.1788024902344 76.9858627319336 392.3660888671875 69.36840057373047 387.4446716308594 67.10198211669922" stroke-width="0.0" fill="rgb(204, 221, 235)" opacity="1.0000414" stroke="rgb(0, 0, 0)" stroke-opacity="1.0" stroke-linecap="round" stroke-linejoin="round"/>
    <path d="M 415.76739501953125 419.0506591796875 C 410.8116455078125 425.5337829589844 406.702880859375 433.438232421875 409.838134765625 443.7622375488281 C 419.1812438964844 448.08251953125 430.2951354980469 451.39691162109375 444.2361755371094 452.429443359375 C 448.19647216796875 443.5749206542969 449.8470458984375 428.96807861328125 442.3548583984375 421.2752685546875 C 442.17486572265625 417.87493896484375 426.2177429199219 419.3442077636719 415.76739501953125 419.0506591796875" stroke-width="0.0" fill="rgb(26, 24, 17)" opacity="0.9994961" stroke="rgb(0, 0, 0)" stroke-opacity="1.0" stroke-linecap="round" stroke-linejoin="round"/>
    <path d="M 293.963623046875 82.08924865722656 C 288.0656433105469 85.06990814208984 285.7731628417969 93.52239227294922 284.144287109375 96.50013732910156 C 289.7650451660156 105.98065185546875 291.25897216796875 117.22467041015625 296.0796813964844 126.13310241699219 C 301.0625915527344 118.25146484375 304.542236328125 115.25325012207031 303.2286376953125 105.85586547851562 C 300.9254150390625 96.6630630493164 300.2510681152344 85.33045196533203 293.963623046875 82.08924865722656" stroke-width="0.0" fill="rgb(203, 213, 222)" opacity="1.0059912" stroke="rgb(0, 0, 0)" stroke-opacity="1.0" stroke-linecap="round" stroke-linejoin="round"/>
    <path d="M 283.3583679199219 59.00797653198242 C 274.9033203125 59.78931427001953 274.8861389160156 67.04954528808594 276.6460876464844 74.67732238769531 C 276.85504150390625 78.72089385986328 280.495361328125 86.65975952148438 284.41998291015625 91.9284439086914 C 291.5768737792969 83.60155487060547 294.4369812011719 78.76272583007812 292.604736328125 68.47254180908203 C 292.7667541503906 61.49123764038086 288.4459533691406 57.69465637207031 283.3583679199219 59.00797653198242" stroke-width="0.0" fill="rgb(192, 216, 231)" opacity="1.0015705" stroke="rgb(0, 0, 0)" stroke-opacity="1.0" stroke-linecap="round" stroke-linejoin="round"/>
    <path d="M 250.91336059570312 157.07376098632812 C 241.08670043945312 156.43553161621094 231.10379028320312 158.5947723388672 225.692138671875 160.24850463867188 C 216.24630737304688 166.7875518798828 217.12142944335938 176.5119171142578 211.9928436279297 184.65093994140625 C 209.1410369873047 191.53890991210938 201.8497772216797 190.21121215820312 194.97315979003906 192.69869995117188 C 198.52630615234375 224.54141235351562 224.8077850341797 225.53330993652344 213.88682556152344 260.83984375 C 243.40066528320312 270.01953125 254.3280792236328 256.9922180175781 281.7906188964844 260.5220947265625 C 287.2216796875 258.32427978515625 288.1822814941406 250.9525909423828 290.7831115722656 247.97154235839844 C 292.87188720703125 226.467529296875 299.5013122558594 216.3035430908203 290.1593017578125 193.84068298339844 C 280.8912048339844 180.81710815429688 265.2424621582031 168.54637145996094 250.91336059570312 157.07376098632812" stroke-width="0.0" fill="rgb(112, 109, 86)" opacity="0.99738604" stroke="rgb(0, 0, 0)" stroke-opacity="1.0" stroke-linecap="round" stroke-linejoin="round"/>
    <path d="M 359.3771667480469 161.51695251464844 C 356.2126770019531 162.1981201171875 351.0350036621094 167.0758514404297 342.45916748046875 171.52281188964844 C 337.468017578125 179.6287384033203 328.1454772949219 183.7267608642578 323.3985900878906 197.13438415527344 C 325.51788330078125 211.64552307128906 319.11676025390625 218.69790649414062 316.42254638671875 241.9333038330078 C 323.4447937011719 249.90744018554688 312.05255126953125 262.9066162109375 323.9139099121094 269.8358154296875 C 344.3974609375 270.59100341796875 351.4095153808594 252.3939666748047 377.1561584472656 256.2409362792969 C 385.5143127441406 249.13009643554688 392.8018798828125 245.5113525390625 395.614013671875 236.86424255371094 C 399.1199951171875 219.93885803222656 401.01739501953125 202.513916015625 398.3775329589844 187.57040405273438 C 393.9722900390625 177.72564697265625 384.0841064453125 185.82763671875 376.2740173339844 179.14846801757812 C 371.2853698730469 175.011474609375 375.93243408203125 163.37608337402344 359.3771667480469 161.51695251464844" stroke-width="0.0" fill="rgb(98, 95, 73)" opacity="0.9955816" stroke="rgb(0, 0, 0)" stroke-opacity="1.0" stroke-linecap="round" stroke-linejoin="round"/>
    <path d="M 307.2935791015625 277.3531494140625 C 300.41290283203125 274.23138427734375 293.2499694824219 276.295166015625 288.7239685058594 277.1236267089844 C 284.6949462890625 280.8873291015625 279.46319580078125 284.4060974121094 275.22625732421875 290.8477478027344 C 275.0239562988281 333.1010437011719 264.32049560546875 371.1788635253906 255.4579315185547 420.0546875 C 253.6009521484375 431.4068908691406 260.87652587890625 436.0339050292969 267.92510986328125 446.78753662109375 C 272.4236145019531 442.7740783691406 277.5519104003906 447.7795715332031 281.3236083984375 448.9839172363281 C 284.99530029296875 448.9436340332031 294.2669677734375 448.4403076171875 303.2237243652344 448.7353820800781 C 306.30133056640625 442.4251708984375 304.1915588378906 429.9072570800781 306.4454650878906 419.3333740234375 C 299.8721618652344 409.2774658203125 300.3892517089844 395.4226379394531 295.86578369140625 383.7384338378906 C 291.4283447265625 363.3405456542969 296.9393310546875 347.2599792480469 306.6548156738281 328.41302490234375 C 293.35272216796875 329.23504638671875 302.9255065917969 314.850341796875 296.587158203125 318.5735778808594 C 296.7798767089844 319.304443359375 302.47113037109375 316.8402404785156 304.3917236328125 311.7330017089844 C 307.3763427734375 300.4790344238281 304.7960205078125 288.06317138671875 307.2935791015625 277.3531494140625" stroke-width="0.0" fill="rgb(71, 55, 45)" opacity="0.9785762" stroke="rgb(0, 0, 0)" stroke-opacity="1.0" stroke-linecap="round" stroke-linejoin="round"/>
    <path d="M -8.95511531829834 239.87855529785156 C -6.676190376281738 262.6743469238281 -5.919623374938965 290.02911376953125 -9.414850234985352 318.1822814941406 C 11.23617935180664 317.6375732421875 16.38233184814453 320.2271423339844 24.456331253051758 314.1321105957031 C 27.126914978027344 304.6872863769531 31.754133224487305 295.78192138671875 41.76118850708008 286.3883972167969 C 62.68250274658203 286.8065185546875 67.56970977783203 297.4635925292969 93.57852172851562 289.384521484375 C 91.22198486328125 270.76220703125 88.93936920166016 254.37417602539062 75.28559112548828 250.0095977783203 C 68.00340270996094 245.79078674316406 64.23348999023438 257.2842712402344 38.61349105834961 250.74908447265625 C 30.627456665039062 241.83338928222656 19.879640579223633 239.88479614257812 -8.95511531829834 239.87855529785156" stroke-width="0.0" fill="rgb(160, 150, 114)" opacity="0.9537957" stroke="rgb(0, 0, 0)" stroke-opacity="1.0" stroke-linecap="round" stroke-linejoin="round"/>
    <path d="M 377.5289611816406 260.0470275878906 C 373.2522888183594 261.9541931152344 363.99774169921875 257.43206787109375 359.61492919921875 256.90557861328125 C 345.70880126953125 262.98541259765625 337.14215087890625 271.6800537109375 319.76983642578125 274.1678161621094 C 316.7781982421875 281.8381042480469 319.6507873535156 294.8660888671875 315.4719543457031 308.4533386230469 C 305.4180603027344 312.3020935058594 302.54052734375 322.4031066894531 287.1430358886719 323.68084716796875 C 313.9464416503906 326.33489990234375 335.96759033203125 326.5240173339844 353.3221740722656 318.7497863769531 C 362.4482116699219 305.16107177734375 367.9062805175781 280.6636047363281 377.5289611816406 260.0470275878906" stroke-width="0.0" fill="rgb(110, 98, 86)" opacity="1.0131679" stroke="rgb(0, 0, 0)" stroke-opacity="1.0" stroke-linecap="round" stroke-linejoin="round"/>
    <path d="M 388.8717041015625 278.69384765625 C 381.6565856933594 289.00372314453125 375.0416259765625 306.26611328125 362.6806640625 317.28204345703125 C 357.5109558105469 331.8375244140625 349.35028076171875 344.0195007324219 345.009765625 359.5772399902344 C 333.3594055175781 370.165283203125 323.0809326171875 382.22039794921875 311.36920166015625 389.5663146972656 C 310.7770690917969 396.1286315917969 304.5732116699219 401.450439453125 310.5177917480469 409.4179992675781 C 318.4568176269531 407.5289306640625 316.313232421875 396.68658447265625 322.3866271972656 391.3707580566406 C 340.069091796875 384.57135009765625 357.82421875 381.7428283691406 365.86865234375 371.7738342285156 C 370.58184814453125 369.2366943359375 364.9532165527344 367.38446044921875 364.7681884765625 357.291015625 C 379.1422119140625 337.67510986328125 388.53900146484375 313.1304016113281 399.34942626953125 287.0991516113281 C 399.28265380859375 286.82183837890625 396.0565185546875 277.6058349609375 388.8717041015625 278.69384765625" stroke-width="0.0" fill="rgb(68, 55, 45)" opacity="1.0220108" stroke="rgb(0, 0, 0)" stroke-opacity="1.0" stroke-linecap="round" stroke-linejoin="round"/>
    <path d="M 226.93382263183594 154.72866821289062 C 186.84352111816406 151.4546356201172 151.04103088378906 156.55902099609375 112.54492950439453 157.38961791992188 C 121.43599700927734 165.02488708496094 130.55140686035156 170.6555938720703 139.06068420410156 177.67483520507812 C 166.0057830810547 175.08424377441406 187.0457000732422 182.02659606933594 209.14959716796875 181.4071044921875 C 215.57786560058594 173.05413818359375 217.29348754882812 162.33590698242188 226.93382263183594 154.72866821289062" stroke-width="0.0" fill="rgb(194, 193, 202)" opacity="0.9735484" stroke="rgb(0, 0, 0)" stroke-opacity="1.0" stroke-linecap="round" stroke-linejoin="round"/>
    <path d="M 93.04466247558594 313.62994384765625 C 91.95559692382812 320.9389343261719 95.42465209960938 336.4371643066406 99.659912109375 344.3921203613281 C 120.69290924072266 339.1311340332031 139.39805603027344 340.4833984375 156.17123413085938 339.3843994140625 C 156.06275939941406 328.1859130859375 145.95880126953125 324.3863525390625 142.13287353515625 318.033447265625 C 133.88882446289062 314.3414306640625 125.37216186523438 310.7457275390625 114.66613006591797 305.2710266113281 C 105.8253402709961 304.4752197265625 98.29769897460938 309.13238525390625 93.04466247558594 313.62994384765625" stroke-width="0.0" fill="rgb(97, 92, 74)" opacity="1.012714" stroke="rgb(0, 0, 0)" stroke-opacity="1.0" stroke-linecap="round" stroke-linejoin="round"/>
    <path d="M 29.685638427734375 301.3726806640625 C 27.537294387817383 310.44769287109375 25.45206642150879 320.0877685546875 29.538427352905273 324.2847595214844 C 36.67378616333008 331.5318298339844 53.51808166503906 329.4263000488281 59.29708480834961 342.3526306152344 C 69.24938201904297 338.3335876464844 79.75701904296875 335.1116943359375 91.65418243408203 332.65960693359375 C 93.13129425048828 320.38006591796875 91.83983612060547 315.6301574707031 88.21821594238281 310.7471008300781 C 71.16423034667969 308.61895751953125 69.75035858154297 320.8341979980469 57.3131217956543 317.6610412597656 C 61.032596588134766 312.07177734375 56.03892135620117 310.41943359375 52.6350212097168 307.9213562011719 C 43.88185501098633 305.7001953125 37.795475006103516 297.8116149902344 29.685638427734375 301.3726806640625" stroke-width="0.0" fill="rgb(83, 76, 67)" opacity="1.1103489" stroke="rgb(0, 0, 0)" stroke-opacity="1.0" stroke-linecap="round" stroke-linejoin="round"/>
    <path d="M 125.36206817626953 276.3603820800781 C 117.20223999023438 273.5403747558594 105.33731079101562 275.3809509277344 91.4249038696289 277.69073486328125 C 89.33646392822266 277.70819091796875 97.5634536743164 281.85601806640625 96.51931762695312 289.80218505859375 C 89.00212860107422 290.33575439453125 86.40815734863281 298.5472717285156 72.63337707519531 295.2727966308594 C 60.30751037597656 297.0238342285156 56.5973014831543 286.4879150390625 44.03586959838867 289.6692199707031 C 47.87187957763672 287.52374267578125 45.10624694824219 293.45050048828125 53.283424377441406 299.2835388183594 C 67.68286895751953 303.3557434082031 86.63871002197266 298.8048095703125 99.82380676269531 307.94091796875 C 102.98779296875 301.2267761230469 108.14617919921875 300.8193054199219 111.15666198730469 299.8716735839844 C 117.4451675415039 294.0798645019531 118.78447723388672 283.9146423339844 125.36206817626953 276.3603820800781" stroke-width="0.0" fill="rgb(204, 188, 165)" opacity="1.0086025" stroke="rgb(0, 0, 0)" stroke-opacity="1.0" stroke-linecap="round" stroke-linejoin="round"/>
    <path d="M 130.6681671142578 252.3499755859375 C 127.31026458740234 245.43905639648438 120.39754486083984 248.46725463867188 104.11744689941406 247.85809326171875 C 99.4006576538086 252.35491943359375 91.73561096191406 252.34889221191406 91.79576110839844 259.5386962890625 C 94.20816802978516 264.833984375 90.06158447265625 271.3229064941406 95.86237335205078 275.2477722167969 C 106.83919525146484 275.1065368652344 116.67432403564453 275.64666748046875 123.32569122314453 272.80621337890625 C 129.4115447998047 265.4649658203125 138.19979858398438 263.70880126953125 130.6681671142578 252.3499755859375" stroke-width="0.0" fill="rgb(122, 119, 83)" opacity="1.0026525" stroke="rgb(0, 0, 0)" stroke-opacity="1.0" stroke-linecap="round" stroke-linejoin="round"/>
    <path d="M 240.57635498046875 269.5743713378906 C 249.35531616210938 274.3547668457031 265.7332458496094 272.1914978027344 276.7165832519531 275.66448974609375 C 288.8929443359375 269.9971923828125 296.4053649902344 269.6374206542969 294.8027648925781 257.0378112792969 C 289.0960388183594 252.21240234375 282.67034912109375 261.9044494628906 269.03717041015625 262.2170715332031 C 260.63409423828125 263.96356201171875 255.92599487304688 256.1426086425781 263.1932678222656 258.04315185546875 C 253.8196258544922 258.4781799316406 242.5957489013672 260.5127868652344 240.57635498046875 269.5743713378906" stroke-width="0.0" fill="rgb(135, 118, 104)" opacity="1.0754585" stroke="rgb(0, 0, 0)" stroke-opacity="1.0" stroke-linecap="round" stroke-linejoin="round"/>
    <path d="M 352.7926330566406 325.42266845703125 C 342.5353088378906 328.4896545410156 332.385986328125 323.8255920410156 324.44573974609375 331.1168518066406 C 320.79766845703125 335.28948974609375 331.31341552734375 348.5167541503906 324.7878723144531 349.7838134765625 C 325.9776916503906 349.8714904785156 338.4228210449219 344.95843505859375 349.9980773925781 344.7981262207031 C 346.7889404296875 337.7681579589844 353.8188171386719 335.9083557128906 352.7926330566406 325.42266845703125" stroke-width="0.0" fill="rgb(59, 54, 38)" opacity="1.0379965" stroke="rgb(0, 0, 0)" stroke-opacity="1.0" stroke-linecap="round" stroke-linejoin="round"/>
    <path d="M 61.02642822265625 300.05462646484375 C 69.85501098632812 302.3006896972656 68.64010620117188 311.9432678222656 76.78520202636719 313.21929931640625 C 87.81587982177734 313.06280517578125 95.06487274169922 310.54974365234375 101.05709075927734 304.7635192871094 C 90.7173843383789 301.38262939453125 75.58019256591797 302.58685302734375 61.02642822265625 300.05462646484375" stroke-width="0.0" fill="rgb(70, 55, 42)" opacity="0.99138284" stroke="rgb(0, 0, 0)" stroke-opacity="1.0" stroke-linecap="round" stroke-linejoin="round"/>
    <path d="M 390.0795593261719 374.31549072265625 C 383.9400329589844 367.21905517578125 372.93121337890625 364.913330078125 365.3407897949219 363.5220642089844 C 371.4325866699219 378.64581298828125 350.8617858886719 370.33258056640625 350.8699645996094 388.7620849609375 C 349.8974609375 401.3536376953125 338.0243835449219 399.65771484375 329.13421630859375 402.0194396972656 C 324.35601806640625 408.9389343261719 310.3766174316406 404.2680969238281 309.09881591796875 412.7704162597656 C 319.12152099609375 413.7398986816406 318.8236389160156 399.6620178222656 346.1412048339844 397.9669189453125 C 348.8274841308594 396.1343688964844 342.26617431640625 413.6762390136719 344.2814636230469 415.0809326171875 C 352.3404541015625 409.5401916503906 358.2622375488281 403.8503723144531 363.168701171875 398.4399108886719 C 371.71783447265625 392.9825134277344 378.832275390625 396.686279296875 386.9771728515625 394.2342224121094 C 379.30169677734375 383.9627990722656 390.59326171875 383.6325378417969 390.0795593261719 374.31549072265625" stroke-width="0.0" fill="rgb(83, 74, 63)" opacity="1.0393823" stroke="rgb(0, 0, 0)" stroke-opacity="1.0" stroke-linecap="round" stroke-linejoin="round"/>
    <path d="M 198.14256286621094 342.7746887207031 C 196.26126098632812 355.0495300292969 205.0139923095703 359.15313720703125 210.3601531982422 367.94061279296875 C 220.47642517089844 368.3813171386719 240.82867431640625 368.4986572265625 250.65061950683594 368.2074279785156 C 246.2313690185547 345.58740234375 222.892333984375 346.3459167480469 217.86488342285156 319.1630859375 C 217.31642150878906 340.62548828125 205.79443359375 334.1148681640625 198.14256286621094 342.7746887207031" stroke-width="0.0" fill="rgb(81, 78, 54)" opacity="1.0026835" stroke="rgb(0, 0, 0)" stroke-opacity="1.0" stroke-linecap="round" stroke-linejoin="round"/>
    <path d="M 323.8253173828125 327.0732116699219 C 318.4418640136719 324.90704345703125 310.3268127441406 325.4988098144531 305.5261535644531 329.0148010253906 C 306.1123962402344 335.2520446777344 302.5074768066406 335.504638671875 299.72393798828125 340.7578430175781 C 294.57403564453125 354.5479431152344 293.3948059082031 361.74664306640625 295.7356872558594 387.48260498046875 C 302.9747619628906 375.9731140136719 308.2061767578125 372.623046875 316.2439880371094 370.7344970703125 C 313.76318359375 368.2884521484375 313.7806396484375 364.7037353515625 314.02081298828125 356.3081970214844 C 319.71612548828125 351.835205078125 328.6434326171875 348.85125732421875 335.88604736328125 342.99542236328125 C 330.60009765625 342.7158203125 323.59625244140625 341.4576110839844 325.04840087890625 340.15057373046875 C 324.1654052734375 332.48651123046875 325.0293884277344 325.9048156738281 323.8253173828125 327.0732116699219" stroke-width="0.0" fill="rgb(46, 37, 30)" opacity="0.96870834" stroke="rgb(0, 0, 0)" stroke-opacity="1.0" stroke-linecap="round" stroke-linejoin="round"/>
    <path d="M 199.7218780517578 219.6436004638672 C 197.41888427734375 225.8898468017578 185.8092498779297 219.71336364746094 180.01931762695312 227.31216430664062 C 177.13279724121094 227.6223907470703 179.76747131347656 239.3295135498047 178.2792205810547 241.07562255859375 C 186.1340789794922 243.18887329101562 187.204345703125 251.50953674316406 198.01612854003906 253.16091918945312 C 211.72564697265625 252.80075073242188 205.98492431640625 245.9117889404297 215.50718688964844 239.5622100830078 C 209.6500244140625 231.18397521972656 210.20138549804688 224.4206085205078 199.7218780517578 219.6436004638672" stroke-width="0.0" fill="rgb(109, 106, 83)" opacity="0.99156874" stroke="rgb(0, 0, 0)" stroke-opacity="1.0" stroke-linecap="round" stroke-linejoin="round"/>
    <path d="M 230.7213592529297 78.26350402832031 C 234.25692749023438 77.64952087402344 238.82933044433594 79.35131072998047 239.0895538330078 84.67068481445312 C 238.77438354492188 86.63755798339844 232.7759246826172 83.38206481933594 231.33206176757812 86.54013061523438 C 232.30335998535156 89.05088806152344 233.1409454345703 96.30927276611328 232.25624084472656 101.1510238647461 C 249.7056884765625 105.4984359741211 259.0863952636719 110.6590347290039 263.4173889160156 102.55850219726562 C 267.54962158203125 104.48779296875 268.0074462890625 97.133056640625 268.35028076171875 92.67479705810547 C 263.7357177734375 85.20075225830078 261.4290466308594 81.96240997314453 255.3904571533203 78.9041519165039 C 246.3683624267578 82.92733764648438 235.14401245117188 83.80138397216797 230.7213592529297 78.26350402832031" stroke-width="0.0" fill="rgb(209, 234, 253)" opacity="1.0060288" stroke="rgb(0, 0, 0)" stroke-opacity="1.0" stroke-linecap="round" stroke-linejoin="round"/>
    <path d="M 317.3819580078125 377.31353759765625 C 314.5641784667969 370.550537109375 301.8417053222656 370.89111328125 299.591552734375 380.34405517578125 C 296.4823913574219 386.5525817871094 294.26214599609375 391.1278381347656 295.77105712890625 392.7899475097656 C 298.720458984375 395.9501953125 295.7767028808594 400.1888427734375 302.6568298339844 398.6394958496094 C 314.43414306640625 389.9196472167969 321.6723327636719 380.7803649902344 317.3819580078125 377.31353759765625" stroke-width="0.0" fill="rgb(49, 40, 35)" opacity="1.0274196" stroke="rgb(0, 0, 0)" stroke-opacity="1.0" stroke-linecap="round" stroke-linejoin="round"/>
    <path d="M 1.4546054601669312 10.909300804138184 C -6.284409046173096 13.231959342956543 -5.947885513305664 22.56459617614746 -7.133736610412598 26.101865768432617 C 14.799456596374512 29.13699722290039 27.099946975708008 30.331161499023438 32.71245574951172 19.450056076049805 C 21.789945602416992 16.56562614440918 11.856471061706543 8.948116302490234 1.4546054601669312 10.909300804138184" stroke-width="0.0" fill="rgb(206, 224, 248)" opacity="1.0068061" stroke="rgb(0, 0, 0)" stroke-opacity="1.0" stroke-linecap="round" stroke-linejoin="round"/>
    <path d="M 161.97080993652344 271.30340576171875 C 148.69808959960938 272.9976501464844 152.95286560058594 283.3367919921875 150.91653442382812 268.8572082519531 C 137.89218139648438 270.998046875 145.8966522216797 284.8113708496094 137.80670166015625 291.19293212890625 C 153.30892944335938 296.4178771972656 151.70411682128906 287.2603759765625 163.3933868408203 286.58465576171875 C 163.52679443359375 283.7461242675781 169.08145141601562 274.32830810546875 161.97080993652344 271.30340576171875" stroke-width="0.0" fill="rgb(108, 106, 79)" opacity="1.0061821" stroke="rgb(0, 0, 0)" stroke-opacity="1.0" stroke-linecap="round" stroke-linejoin="round"/>
    <path d="M 224.52635192871094 57.59798812866211 C 222.59617614746094 59.27361297607422 229.82920837402344 59.12601089477539 229.90786743164062 64.01232147216797 C 219.23678588867188 62.06672668457031 229.89295959472656 70.18872833251953 222.22703552246094 67.46318817138672 C 221.88693237304688 72.45109558105469 226.3680877685547 71.71641540527344 228.6996307373047 75.33056640625 C 236.9472198486328 73.63101959228516 246.7012176513672 76.17610931396484 249.69232177734375 72.4533462524414 C 252.671142578125 61.93971633911133 247.91575622558594 66.88752746582031 246.5485076904297 57.36005783081055 C 236.43069458007812 63.23965835571289 232.49374389648438 52.34387969970703 224.52635192871094 57.59798812866211" stroke-width="0.0" fill="rgb(197, 230, 253)" opacity="1.0067693" stroke="rgb(0, 0, 0)" stroke-opacity="1.0" stroke-linecap="round" stroke-linejoin="round"/>
    <path d="M 238.9011993408203 296.5716247558594 C 243.9373321533203 309.9039611816406 264.6231689453125 307.2705993652344 271.6328125 322.68243408203125 C 279.1936340332031 310.59112548828125 275.99609375 311.76251220703125 268.5688171386719 304.49609375 C 263.2561950683594 301.7224426269531 248.1824493408203 296.80767822265625 238.9011993408203 296.5716247558594" stroke-width="0.0" fill="rgb(54, 48, 38)" opacity="1.0045424" stroke="rgb(0, 0, 0)" stroke-opacity="1.0" stroke-linecap="round" stroke-linejoin="round"/>
    <path d="M -6.812838077545166 423.79119873046875 C -6.0774993896484375 457.9386901855469 -5.3326334953308105 484.5411071777344 -4.705285549163818 518.4012451171875 C 169.6273956298828 518.635009765625 340.2868957519531 518.7542114257812 520.95166015625 518.7811279296875 C 521.2853393554688 491.6004638671875 521.2803344726562 477.8244323730469 518.9412231445312 470.9053039550781 C 471.4115905761719 469.8477783203125 448.4381103515625 457.732177734375 412.3565368652344 453.17626953125 C 376.3706359863281 450.7566833496094 336.5428771972656 460.2797546386719 290.755615234375 457.52679443359375 C 253.12411499023438 450.2125549316406 211.96444702148438 448.59033203125 174.20993041992188 445.2694396972656 C 156.9634552001953 441.9446105957031 134.36585998535156 437.4130554199219 120.3465576171875 433.9432067871094 C 66.86078643798828 431.5550231933594 39.18482208251953 443.7982482910156 -6.812838077545166 423.79119873046875" stroke-width="0.0" fill="rgb(156, 135, 112)" opacity="0.9879589" stroke="rgb(0, 0, 0)" stroke-opacity="1.0" stroke-linecap="round" stroke-linejoin="round"/>
    <path d="M -1.0382955074310303 381.5068664550781 C -2.5632898807525635 391.2519836425781 -1.2157695293426514 402.7326965332031 -0.5474473237991333 413.0816345214844 C 0.7130773663520813 420.0990295410156 2.5070488452911377 420.8821105957031 8.942747116088867 422.8432312011719 C 71.83112335205078 419.95904541015625 131.59812927246094 424.83245849609375 183.7732696533203 427.61090087890625 C 199.0110321044922 426.3222961425781 205.61163330078125 427.01385498046875 204.34376525878906 409.5074462890625 C 202.12448120117188 397.4962463378906 193.6213836669922 384.77166748046875 185.95220947265625 370.96282958984375 C 163.40884399414062 365.0518798828125 151.3215789794922 351.694091796875 138.2020721435547 344.3533630371094 C 97.29975891113281 343.3013610839844 62.7962532043457 345.4127197265625 50.291542053222656 349.87054443359375 C 48.73936462402344 373.3341369628906 39.990928649902344 377.569091796875 29.866559982299805 376.3504943847656 C 7.400075435638428 365.136474609375 5.444190502166748 370.42791748046875 -1.0382955074310303 381.5068664550781" stroke-width="0.0" fill="rgb(172, 155, 132)" opacity="0.9967865" stroke="rgb(0, 0, 0)" stroke-opacity="1.0" stroke-linecap="round" stroke-linejoin="round"/>
    <path d="M 213.43142700195312 375.9930725097656 C 211.52023315429688 388.860595703125 221.6540069580078 398.14654541015625 229.62672424316406 407.3864440917969 C 222.63279724121094 404.4981994628906 223.50833129882812 404.7811584472656 225.37493896484375 405.5146789550781 C 230.24258422851562 411.27069091796875 236.31387329101562 410.5523376464844 238.38401794433594 416.58367919921875 C 242.9265899658203 412.1283874511719 238.0644989013672 403.28662109375 243.24473571777344 404.73016357421875 C 245.02911376953125 406.5461730957031 235.76576232910156 408.5478210449219 248.2410430908203 412.88482666015625 C 247.75518798828125 410.38336181640625 247.48623657226562 404.6298522949219 248.42393493652344 405.20831298828125 C 254.47171020507812 400.2066650390625 252.2743377685547 410.9778747558594 253.90464782714844 409.42755126953125 C 265.0439758300781 402.2187805175781 260.8912658691406 390.5875549316406 258.13116455078125 373.1069030761719 C 242.9722442626953 370.15228271484375 227.71327209472656 365.8542175292969 213.43142700195312 375.9930725097656" stroke-width="0.0" fill="rgb(179, 155, 129)" opacity="0.96295756" stroke="rgb(0, 0, 0)" stroke-opacity="1.0" stroke-linecap="round" stroke-linejoin="round"/>
    <path d="M 358.4675598144531 393.849365234375 C 353.15997314453125 384.5592346191406 347.46795654296875 382.0511779785156 335.2196350097656 385.33209228515625 C 324.7540283203125 388.4016418457031 315.4375305175781 390.43927001953125 317.6432800292969 402.3105773925781 C 320.79827880859375 410.0160217285156 331.7976379394531 408.7926025390625 345.5549011230469 409.8458557128906 C 354.19805908203125 407.0941162109375 359.4144287109375 402.5115661621094 358.4675598144531 393.849365234375" stroke-width="0.0" fill="rgb(157, 133, 115)" opacity="0.97415936" stroke="rgb(0, 0, 0)" stroke-opacity="1.0" stroke-linecap="round" stroke-linejoin="round"/>
    <path d="M 345.0183410644531 355.565185546875 C 340.5146484375 349.0729064941406 333.1690673828125 348.6076965332031 325.5666198730469 349.7831115722656 C 313.0740051269531 355.4985046386719 312.4375305175781 355.1514892578125 314.5267639160156 367.64654541015625 C 317.8469543457031 373.0560607910156 317.86627197265625 373.7091369628906 329.8554382324219 373.2881164550781 C 339.3238525390625 368.2197265625 346.6712341308594 366.038818359375 345.0183410644531 355.565185546875" stroke-width="0.0" fill="rgb(171, 146, 125)" opacity="0.97968477" stroke="rgb(0, 0, 0)" stroke-opacity="1.0" stroke-linecap="round" stroke-linejoin="round"/>
    <path d="M 518.3379516601562 92.06259155273438 C 498.4924621582031 99.51461029052734 480.44317626953125 93.42588806152344 462.965576171875 98.03972625732422 C 455.90008544921875 101.34835052490234 451.4172668457031 115.66498565673828 446.67742919921875 125.3248291015625 C 430.92242431640625 125.61968994140625 430.9510498046875 131.67617797851562 422.6339416503906 135.8656463623047 C 414.4967956542969 155.1736602783203 402.9405212402344 169.70916748046875 401.3750305175781 189.1306915283203 C 402.7127990722656 203.20755004882812 404.4453430175781 215.8019256591797 403.78265380859375 226.18711853027344 C 407.3738708496094 236.72903442382812 409.4949951171875 241.1384735107422 418.9108581542969 246.8408660888672 C 446.4934387207031 243.5784912109375 467.8464050292969 256.13433837890625 489.0974426269531 253.63238525390625 C 505.02484130859375 249.514892578125 505.96221923828125 259.8052062988281 517.7685546875 270.19921875 C 518.9039916992188 206.0332794189453 518.867919921875 150.02825927734375 518.3379516601562 92.06259155273438" stroke-width="0.0" fill="rgb(94, 96, 72)" opacity="0.7454602" stroke="rgb(0, 0, 0)" stroke-opacity="1.0" stroke-linecap="round" stroke-linejoin="round"/>
    <path d="M -2.982067823410034 167.14854431152344 C -5.38926362991333 175.44667053222656 -3.125792980194092 187.4530029296875 -2.994100332260132 201.55133056640625 C 32.528099060058594 201.3218231201172 66.9638900756836 202.96693420410156 103.26155853271484 203.81976318359375 C 121.21913146972656 202.92059326171875 138.001220703125 202.8660888671875 149.5364227294922 197.1475830078125 C 151.50503540039062 189.66519165039062 143.16835021972656 181.76925659179688 138.18397521972656 176.4966583251953 C 123.0868148803711 168.61766052246094 111.52745819091797 158.41470336914062 97.81665802001953 151.83436584472656 C 78.28130340576172 150.42483520507812 48.554508209228516 150.68450927734375 26.989755630493164 151.26438903808594 C 17.640270233154297 152.60638427734375 8.707871437072754 159.4093780517578 -2.982067823410034 167.14854431152344" stroke-width="0.0" fill="rgb(143, 146, 142)" opacity="0.98093563" stroke="rgb(0, 0, 0)" stroke-opacity="1.0" stroke-linecap="round" stroke-linejoin="round"/>
    <path d="M 460.5814514160156 345.7825622558594 C 458.65496826171875 350.0780334472656 455.66888427734375 354.5909118652344 453.5355224609375 360.3893127441406 C 454.2261047363281 367.6596984863281 453.87493896484375 381.3269958496094 454.10247802734375 385.4498291015625 C 457.2054443359375 391.97332763671875 461.8773498535156 393.6434020996094 468.1331481933594 395.4615783691406 C 468.3926696777344 404.3995361328125 470.3039855957031 409.2986755371094 474.5607604980469 415.61517333984375 C 485.0064392089844 420.7663269042969 497.7557678222656 423.2799987792969 518.6341552734375 428.2875671386719 C 520.3037109375 403.5511474609375 519.1167602539062 376.681884765625 516.2589721679688 345.5384216308594 C 495.21258544921875 357.4456787109375 488.074462890625 345.005859375 470.9141845703125 352.2854309082031 C 468.61163330078125 350.5443115234375 466.698974609375 345.734619140625 460.5814514160156 345.7825622558594" stroke-width="0.0" fill="rgb(46, 44, 33)" opacity="1.0644457" stroke="rgb(0, 0, 0)" stroke-opacity="1.0" stroke-linecap="round" stroke-linejoin="round"/>
    <path d="M 196.63433837890625 213.72601318359375 C 193.08982849121094 201.1299285888672 187.8223114013672 194.267578125 183.85385131835938 193.01304626464844 C 156.80322265625 198.99034118652344 128.52980041503906 201.0105438232422 98.40169525146484 203.6007537841797 C 67.27386474609375 203.36898803710938 33.205909729003906 202.0436553955078 -3.396456480026245 200.82835388183594 C -4.021450519561768 211.53097534179688 -2.185499429702759 223.8730010986328 -0.8936730623245239 237.287109375 C 7.355933666229248 239.1690216064453 16.461673736572266 240.4323272705078 27.36429214477539 240.2218780517578 C 30.58989143371582 232.33395385742188 30.6088809967041 231.2124481201172 39.22126007080078 232.2952117919922 C 43.651161193847656 230.56802368164062 43.79397964477539 235.8184051513672 49.04489517211914 239.2718048095703 C 89.46218872070312 236.46327209472656 128.15174865722656 229.17662048339844 172.05845642089844 225.46942138671875 C 182.7128143310547 222.2594757080078 192.07156372070312 219.17120361328125 196.63433837890625 213.72601318359375" stroke-width="0.0" fill="rgb(121, 127, 117)" opacity="1.0124904" stroke="rgb(0, 0, 0)" stroke-opacity="1.0" stroke-linecap="round" stroke-linejoin="round"/>
    <path d="M -3.4487786293029785 324.7879638671875 C -5.783932209014893 337.40325927734375 -4.936574935913086 353.3326110839844 -5.037398815155029 370.8330078125 C 16.926223754882812 367.79547119140625 23.690345764160156 377.1019287109375 40.43092346191406 378.660400390625 C 51.12828063964844 380.6356201171875 51.78369903564453 372.56890869140625 59.00691223144531 370.561767578125 C 65.47352600097656 369.0802001953125 69.2620849609375 374.315185546875 78.09126281738281 374.740234375 C 79.16221618652344 369.76116943359375 82.10159301757812 366.9112854003906 75.80729675292969 364.98956298828125 C 67.77156829833984 356.3861999511719 60.96418380737305 355.47454833984375 49.2839469909668 354.698974609375 C 54.099246978759766 341.5037536621094 55.61972427368164 341.08447265625 51.4986686706543 334.80120849609375 C 29.593738555908203 330.51593017578125 18.603618621826172 319.90240478515625 -3.4487786293029785 324.7879638671875" stroke-width="0.0" fill="rgb(137, 126, 110)" opacity="1.0198907" stroke="rgb(0, 0, 0)" stroke-opacity="1.0" stroke-linecap="round" stroke-linejoin="round"/>
    <path d="M -4.498131275177002 237.366455078125 C -3.967331647872925 264.9176025390625 -2.086777448654175 290.9814453125 -7.649184703826904 316.885986328125 C 4.537701606750488 319.7126159667969 14.811277389526367 316.5406494140625 18.97974395751953 316.3221130371094 C 24.627042770385742 316.9142761230469 24.447511672973633 302.81427001953125 34.2673454284668 296.1777648925781 C 39.32671356201172 284.7106018066406 30.807376861572266 268.9122619628906 37.34140396118164 255.09225463867188 C 33.97130584716797 244.3265838623047 28.949804306030273 245.20433044433594 22.10660171508789 241.95896911621094 C 14.654398918151855 241.1546630859375 3.988065242767334 241.1889190673828 -4.498131275177002 237.366455078125" stroke-width="0.0" fill="rgb(131, 124, 98)" opacity="1.0054371" stroke="rgb(0, 0, 0)" stroke-opacity="1.0" stroke-linecap="round" stroke-linejoin="round"/>
    <path d="M 109.19300079345703 302.00067138671875 C 139.49818420410156 314.11346435546875 151.30197143554688 322.6654357910156 166.66021728515625 345.3468322753906 C 176.76284790039062 367.4118347167969 197.8658447265625 378.48468017578125 202.30125427246094 408.1567077636719 C 210.76712036132812 415.2914733886719 207.05972290039062 420.8186950683594 214.8468780517578 411.3721618652344 C 217.6362762451172 409.4783020019531 219.61300659179688 407.7745666503906 225.70248413085938 403.986328125 C 210.8595428466797 389.20672607421875 209.1215362548828 365.3445129394531 196.355224609375 351.878173828125 C 178.32664489746094 335.47174072265625 158.97779846191406 321.71044921875 139.5786895751953 306.5609436035156 C 132.8239288330078 304.5995178222656 118.52605438232422 299.04351806640625 109.19300079345703 302.00067138671875" stroke-width="0.0" fill="rgb(97, 84, 67)" opacity="0.9417173" stroke="rgb(0, 0, 0)" stroke-opacity="1.0" stroke-linecap="round" stroke-linejoin="round"/>
    <path d="M 94.46001434326172 282.1487731933594 C 86.60661315917969 269.197265625 86.53208923339844 251.20709228515625 72.10009765625 250.00128173828125 C 62.54295349121094 250.5081329345703 64.49849700927734 258.13385009765625 46.92744445800781 253.3869171142578 C 38.51375198364258 258.32391357421875 33.49578857421875 262.35565185546875 34.56053161621094 270.7378234863281 C 33.22152328491211 275.4085693359375 35.77481460571289 283.0086975097656 39.15205383300781 289.50628662109375 C 60.70853805541992 278.3260803222656 53.0594482421875 296.86773681640625 79.6175765991211 291.45709228515625 C 89.25469207763672 294.2935485839844 95.1462173461914 287.23504638671875 94.46001434326172 282.1487731933594" stroke-width="0.0" fill="rgb(152, 145, 113)" opacity="0.9858636" stroke="rgb(0, 0, 0)" stroke-opacity="1.0" stroke-linecap="round" stroke-linejoin="round"/>
    <path d="M 229.12908935546875 401.70684814453125 C 219.31748962402344 402.29705810546875 215.96160888671875 412.5718688964844 206.42849731445312 417.9179992675781 C 203.8992156982422 431.0727233886719 189.0135040283203 429.7347412109375 189.2394256591797 446.7584533691406 C 188.1193084716797 450.326904296875 201.25619506835938 448.6337585449219 216.71636962890625 451.1183776855469 C 224.19076538085938 449.102294921875 231.63232421875 450.1912536621094 237.81040954589844 444.9600830078125 C 239.52725219726562 436.8966369628906 239.7257843017578 432.1900939941406 242.7875518798828 426.8362121582031 C 233.4473114013672 417.6123962402344 232.75762939453125 414.5758972167969 229.12908935546875 401.70684814453125" stroke-width="0.0" fill="rgb(81, 69, 61)" opacity="0.926055" stroke="rgb(0, 0, 0)" stroke-opacity="1.0" stroke-linecap="round" stroke-linejoin="round"/>
    <path d="M 232.38735961914062 295.497314453125 C 229.095703125 300.4337158203125 223.767333984375 304.7423095703125 219.86854553222656 312.2707824707031 C 224.56764221191406 316.8741149902344 224.32090759277344 331.80999755859375 227.17335510253906 337.1773986816406 C 241.29579162597656 350.0475158691406 253.3649139404297 360.2333679199219 259.5888977050781 387.0426940917969 C 265.82818603515625 380.6698303222656 265.02008056640625 368.9902648925781 267.02069091796875 352.3401184082031 C 261.1747131347656 347.4438171386719 250.92059326171875 340.89251708984375 242.58316040039062 332.6063537597656 C 237.29844665527344 321.78680419921875 239.03675842285156 308.8330383300781 240.41683959960938 298.8147888183594 C 239.1166534423828 295.6395263671875 234.88705444335938 296.01849365234375 232.38735961914062 295.497314453125" stroke-width="0.0" fill="rgb(64, 54, 44)" opacity="0.87033427" stroke="rgb(0, 0, 0)" stroke-opacity="1.0" stroke-linecap="round" stroke-linejoin="round"/>
    <path d="M 239.646484375 302.4904479980469 C 236.81138610839844 314.2978515625 239.25625610351562 324.333984375 242.2190704345703 332.8475036621094 C 249.1847686767578 340.61358642578125 258.4525451660156 347.3389892578125 265.85601806640625 358.17816162109375 C 270.0735778808594 346.2913513183594 270.73931884765625 330.85858154296875 271.350830078125 321.3938903808594 C 263.9735412597656 310.9319152832031 253.75201416015625 304.7911376953125 239.646484375 302.4904479980469" stroke-width="0.0" fill="rgb(91, 92, 67)" opacity="0.99798363" stroke="rgb(0, 0, 0)" stroke-opacity="1.0" stroke-linecap="round" stroke-linejoin="round"/>
    <path d="M 356.2593994140625 324.2456970214844 C 349.9404602050781 323.09228515625 335.0067443847656 324.4342041015625 331.8287658691406 325.9642028808594 C 322.5982360839844 328.1394958496094 322.2905578613281 333.15081787109375 324.88873291015625 342.1280822753906 C 332.7703857421875 348.5440368652344 329.3721008300781 345.41845703125 349.7191162109375 344.70751953125 C 348.7901916503906 335.6650390625 358.9658508300781 337.09906005859375 356.2593994140625 324.2456970214844" stroke-width="0.0" fill="rgb(72, 69, 51)" opacity="1.062471" stroke="rgb(0, 0, 0)" stroke-opacity="1.0" stroke-linecap="round" stroke-linejoin="round"/>
    <path d="M 58.575645446777344 319.39422607421875 C 58.45675277709961 328.2844543457031 66.50009155273438 328.4871520996094 72.45431518554688 332.6724548339844 C 79.68057250976562 333.19976806640625 86.997314453125 334.1688232421875 92.12931823730469 330.53057861328125 C 89.21943664550781 321.48797607421875 96.71808624267578 314.0341796875 89.92194366455078 314.3458557128906 C 73.11456298828125 308.6606140136719 73.14299774169922 319.11279296875 58.575645446777344 319.39422607421875" stroke-width="0.0" fill="rgb(140, 122, 104)" opacity="0.9540499" stroke="rgb(0, 0, 0)" stroke-opacity="1.0" stroke-linecap="round" stroke-linejoin="round"/>
    <path d="M 29.93067169189453 300.5541076660156 C 23.61479377746582 312.4327392578125 30.75043487548828 308.65704345703125 31.543018341064453 317.6936950683594 C 47.566062927246094 321.1796875 49.18849182128906 324.0495300292969 53.86328887939453 317.1856384277344 C 58.34308624267578 314.8058166503906 54.60762023925781 304.35906982421875 56.323699951171875 309.1670837402344 C 42.421573638916016 308.2528076171875 37.431060791015625 299.0426940917969 29.93067169189453 300.5541076660156" stroke-width="0.0" fill="rgb(163, 146, 126)" opacity="1.0046959" stroke="rgb(0, 0, 0)" stroke-opacity="1.0" stroke-linecap="round" stroke-linejoin="round"/>
    <path d="M 158.2270050048828 428.7416076660156 C 153.77542114257812 435.6540222167969 161.17544555664062 442.6506042480469 161.11807250976562 446.4524841308594 C 183.59425354003906 447.482421875 201.40565490722656 448.7608947753906 202.79339599609375 440.3348693847656 C 199.81175231933594 444.3465270996094 202.21954345703125 443.1561584472656 187.3049774169922 449.0754699707031 C 197.1553497314453 431.4140930175781 201.9078369140625 427.3482971191406 182.4281463623047 424.4012756347656 C 170.46632385253906 424.99359130859375 158.49343872070312 423.79254150390625 158.2270050048828 428.7416076660156" stroke-width="0.0" fill="rgb(71, 62, 54)" opacity="0.9983394" stroke="rgb(0, 0, 0)" stroke-opacity="1.0" stroke-linecap="round" stroke-linejoin="round"/>
    <path d="M 365.5296936035156 279.5314025878906 C 357.3774108886719 286.39398193359375 351.5306091308594 291.72467041015625 350.0437316894531 298.88702392578125 C 331.285888671875 313.65301513671875 305.46087646484375 308.0058288574219 284.6199951171875 324.32049560546875 C 308.2964782714844 329.0252380371094 331.7974548339844 323.92755126953125 351.4806823730469 319.60223388671875 C 355.3677978515625 313.89190673828125 359.5149841308594 307.60284423828125 364.6656799316406 303.232666015625 C 363.0031433105469 296.2115478515625 365.9850158691406 287.69189453125 365.5296936035156 279.5314025878906" stroke-width="0.0" fill="rgb(69, 55, 43)" opacity="1.0632693" stroke="rgb(0, 0, 0)" stroke-opacity="1.0" stroke-linecap="round" stroke-linejoin="round"/>
    <path d="M 109.14741516113281 304.4197998046875 C 103.62407684326172 306.9237060546875 98.7793960571289 307.34051513671875 96.26958465576172 310.1644287109375 C 92.81375122070312 318.0538635253906 97.74152374267578 325.2027282714844 94.0014419555664 338.75067138671875 C 95.99776458740234 343.5853271484375 104.57921600341797 345.0797119140625 117.07038116455078 343.0219421386719 C 111.90501403808594 336.1356201171875 116.98762512207031 330.4637451171875 121.63945007324219 322.608642578125 C 121.82637023925781 315.7886657714844 116.30809020996094 314.7657775878906 117.90747833251953 308.17340087890625 C 113.73133850097656 306.2298583984375 110.14236450195312 305.68438720703125 109.14741516113281 304.4197998046875" stroke-width="0.0" fill="rgb(114, 112, 86)" opacity="0.98987174" stroke="rgb(0, 0, 0)" stroke-opacity="1.0" stroke-linecap="round" stroke-linejoin="round"/>
    <path d="M 309.5360107421875 438.6453857421875 C 303.85211181640625 442.67694091796875 305.3092346191406 452.4065246582031 308.2335205078125 456.239501953125 C 309.3825988769531 459.0619201660156 321.86700439453125 457.1435546875 328.3856201171875 458.7384948730469 C 323.86126708984375 458.11981201171875 336.1390075683594 457.33477783203125 345.121337890625 456.59320068359375 C 343.5738220214844 450.307861328125 341.70599365234375 445.07757568359375 340.4442443847656 443.3421630859375 C 323.91064453125 437.40325927734375 313.65716552734375 433.85552978515625 309.5360107421875 438.6453857421875" stroke-width="0.0" fill="rgb(91, 81, 68)" opacity="1.0219812" stroke="rgb(0, 0, 0)" stroke-opacity="1.0" stroke-linecap="round" stroke-linejoin="round"/>
    <path d="M 145.13870239257812 359.3708190917969 C 151.32620239257812 357.94744873046875 161.71298217773438 369.05511474609375 183.5323028564453 368.3279113769531 C 171.87083435058594 359.6296081542969 168.41586303710938 343.3360900878906 167.31936645507812 352.446044921875 C 152.32191467285156 347.51312255859375 147.46823120117188 353.2018737792969 145.13870239257812 359.3708190917969" stroke-width="0.0" fill="rgb(92, 72, 54)" opacity="0.9991289" stroke="rgb(0, 0, 0)" stroke-opacity="1.0" stroke-linecap="round" stroke-linejoin="round"/>
    <path d="M 96.2519760131836 345.5270690917969 C 100.13198852539062 337.5927734375 91.9393081665039 336.0281066894531 93.26535034179688 332.4189758300781 C 89.81758117675781 332.64263916015625 81.66101837158203 335.3958435058594 80.48784637451172 333.599853515625 C 76.55023193359375 341.1302490234375 63.242366790771484 338.5744934082031 57.909645080566406 349.0699768066406 C 77.86378479003906 348.4881896972656 89.10289764404297 346.3916320800781 96.2519760131836 345.5270690917969" stroke-width="0.0" fill="rgb(150, 139, 118)" opacity="0.98647547" stroke="rgb(0, 0, 0)" stroke-opacity="1.0" stroke-linecap="round" stroke-linejoin="round"/>
    <path d="M -6.624104976654053 429.1974182128906 C -6.653713703155518 455.7581787109375 -6.408379077911377 484.05694580078125 -5.846425533294678 521.03466796875 C 53.24410629272461 520.8023071289062 102.79454803466797 520.442626953125 148.20315551757812 518.0836181640625 C 152.7281036376953 497.1147766113281 155.09226989746094 487.82855224609375 151.37741088867188 464.45074462890625 C 150.65835571289062 463.6178283691406 144.99591064453125 462.6854553222656 142.74224853515625 457.9879455566406 C 100.09349060058594 443.59063720703125 49.563724517822266 439.3583068847656 -6.624104976654053 429.1974182128906" stroke-width="0.0" fill="rgb(223, 201, 174)" opacity="1.007206" stroke="rgb(0, 0, 0)" stroke-opacity="1.0" stroke-linecap="round" stroke-linejoin="round"/>
    <path d="M 71.87577819824219 413.01458740234375 C 72.34584045410156 419.9695739746094 75.05243682861328 421.75628662109375 78.43360900878906 423.220947265625 C 94.0266342163086 428.6860046386719 117.00765991210938 429.9295349121094 138.05426025390625 430.2212829589844 C 150.2148895263672 429.10406494140625 151.22039794921875 425.68267822265625 157.8425750732422 421.3791809082031 C 152.0721435546875 411.09661865234375 144.04383850097656 402.41741943359375 135.26658630371094 396.1477966308594 C 126.05933380126953 389.69482421875 114.94412994384766 393.4140625 111.34669494628906 389.1715393066406 C 102.3913345336914 387.7286376953125 94.00076293945312 390.74493408203125 89.1078109741211 392.884033203125 C 81.80094146728516 398.8885803222656 75.47827911376953 403.7076416015625 71.87577819824219 413.01458740234375" stroke-width="0.0" fill="rgb(113, 100, 86)" opacity="1.02084" stroke="rgb(0, 0, 0)" stroke-opacity="1.0" stroke-linecap="round" stroke-linejoin="round"/>
    <path d="M 215.76451110839844 375.0326232910156 C 216.80438232421875 382.6361999511719 219.78555297851562 388.93017578125 227.0081329345703 396.75531005859375 C 231.49880981445312 398.063720703125 233.80099487304688 404.8168640136719 242.29440307617188 406.6798400878906 C 241.04859924316406 411.5938720703125 239.0110626220703 402.1168212890625 236.66082763671875 409.5317077636719 C 241.2677764892578 413.2906494140625 246.2805633544922 414.2147521972656 244.1348876953125 407.909423828125 C 249.89453125 397.92340087890625 253.3409881591797 389.73895263671875 252.3465118408203 374.5054016113281 C 245.99398803710938 371.5414733886719 223.16720581054688 369.4223327636719 215.76451110839844 375.0326232910156" stroke-width="0.0" fill="rgb(199, 175, 148)" opacity="0.9964382" stroke="rgb(0, 0, 0)" stroke-opacity="1.0" stroke-linecap="round" stroke-linejoin="round"/>
    <path d="M -4.24234676361084 168.1564483642578 C -7.801950931549072 176.90325927734375 -6.7491044998168945 185.93692016601562 -0.19033420085906982 186.62887573242188 C 52.13608932495117 189.075927734375 100.20051574707031 188.50152587890625 142.55599975585938 183.2825469970703 C 130.80101013183594 167.60818481445312 110.57193756103516 162.10556030273438 101.79090881347656 151.82391357421875 C 76.02315521240234 148.39889526367188 51.22971725463867 150.2380828857422 30.353321075439453 150.13612365722656 C 17.31667137145996 151.18797302246094 9.268197059631348 159.68661499023438 -4.24234676361084 168.1564483642578" stroke-width="0.0" fill="rgb(152, 151, 152)" opacity="0.9848627" stroke="rgb(0, 0, 0)" stroke-opacity="1.0" stroke-linecap="round" stroke-linejoin="round"/>
    <path d="M 11.61197280883789 392.1966857910156 C 15.295607566833496 400.37554931640625 -3.154658079147339 409.72320556640625 -7.542395114898682 426.3492431640625 C 12.79000473022461 431.7126159667969 24.92920684814453 436.85736083984375 43.14298629760742 439.0086364746094 C 52.068580627441406 443.4632873535156 55.55563735961914 439.1675720214844 63.68555450439453 433.0252685546875 C 67.35594940185547 414.5401611328125 63.193603515625 394.7608337402344 61.77885437011719 403.91278076171875 C 59.0633544921875 409.2194519042969 44.81584167480469 405.41680908203125 45.70123291015625 395.5509948730469 C 44.650062561035156 404.6982421875 12.056961059570312 404.5566101074219 11.61197280883789 392.1966857910156" stroke-width="0.0" fill="rgb(180, 162, 137)" opacity="0.9869074" stroke="rgb(0, 0, 0)" stroke-opacity="1.0" stroke-linecap="round" stroke-linejoin="round"/>
    <path d="M 397.1072082519531 474.3725891113281 C 393.7193908691406 481.49090576171875 392.70001220703125 487.8943176269531 394.7100524902344 489.48797607421875 C 410.6363220214844 503.59588623046875 432.4341735839844 503.3995666503906 443.4810791015625 510.57958984375 C 447.6412048339844 523.0538330078125 469.0176086425781 523.135986328125 469.86431884765625 510.1330871582031 C 466.6555480957031 492.0771179199219 450.90618896484375 483.63250732421875 438.7825927734375 471.7687072753906 C 432.13165283203125 471.1117248535156 423.2442932128906 466.99993896484375 422.8287048339844 466.513671875 C 408.864990234375 467.1174621582031 403.037353515625 471.8287658691406 397.1072082519531 474.3725891113281" stroke-width="0.0" fill="rgb(133, 114, 97)" opacity="1.0348054" stroke="rgb(0, 0, 0)" stroke-opacity="1.0" stroke-linecap="round" stroke-linejoin="round"/>
    <path d="M 219.78504943847656 403.7157287597656 C 213.51902770996094 410.94915771484375 205.3922576904297 418.7398986816406 199.5960235595703 431.9347839355469 C 223.8072967529297 429.7423095703125 215.7564697265625 446.17498779296875 227.06240844726562 447.4357604980469 C 240.2480010986328 448.0617370605469 236.1336212158203 448.77777099609375 237.34156799316406 429.2418518066406 C 227.70150756835938 423.008544921875 233.64454650878906 419.13751220703125 231.47503662109375 408.30755615234375 C 230.69232177734375 402.358154296875 226.38885498046875 402.52545166015625 219.78504943847656 403.7157287597656" stroke-width="0.0" fill="rgb(74, 63, 54)" opacity="0.98797774" stroke="rgb(0, 0, 0)" stroke-opacity="1.0" stroke-linecap="round" stroke-linejoin="round"/>
    <path d="M 264.7904357910156 461.0791015625 C 271.61529541015625 471.1021728515625 278.6769104003906 482.425537109375 288.202392578125 490.3741149902344 C 295.0370178222656 492.9456481933594 304.80218505859375 491.3943786621094 308.5094909667969 489.68975830078125 C 309.95928955078125 488.9576110839844 316.6978454589844 483.9714660644531 321.0156555175781 475.8399353027344 C 309.4539489746094 470.62469482421875 293.34375 470.39349365234375 278.6407470703125 464.0697937011719 C 280.08026123046875 459.486083984375 280.0230407714844 461.06634521484375 273.4650573730469 456.94317626953125 C 270.2897644042969 456.18798828125 266.8257141113281 456.7807922363281 264.7904357910156 461.0791015625" stroke-width="0.0" fill="rgb(180, 151, 124)" opacity="0.9656087" stroke="rgb(0, 0, 0)" stroke-opacity="1.0" stroke-linecap="round" stroke-linejoin="round"/>
    <path d="M 460.58294677734375 344.5363464355469 C 453.37689208984375 355.98712158203125 451.2075500488281 370.6582336425781 453.510498046875 389.54193115234375 C 456.3202819824219 394.04010009765625 459.2379455566406 395.39654541015625 471.2164306640625 393.9809265136719 C 474.98822021484375 390.7684326171875 475.42010498046875 382.7554626464844 480.76318359375 376.03021240234375 C 468.7611389160156 367.6041564941406 472.26837158203125 348.3438415527344 460.58294677734375 344.5363464355469" stroke-width="0.0" fill="rgb(30, 28, 20)" opacity="0.98358965" stroke="rgb(0, 0, 0)" stroke-opacity="1.0" stroke-linecap="round" stroke-linejoin="round"/>
    <path d="M 56.59230422973633 274.01641845703125 C 55.036373138427734 286.70880126953125 56.86021041870117 291.0646057128906 63.13132095336914 292.1728515625 C 80.1221923828125 294.18426513671875 90.24662780761719 293.6201477050781 93.51752471923828 285.8955993652344 C 94.99822998046875 272.3853759765625 85.53214263916016 273.89166259765625 73.69781494140625 266.692626953125 C 65.27378845214844 266.97503662109375 56.17827224731445 271.3247985839844 56.59230422973633 274.01641845703125" stroke-width="0.0" fill="rgb(113, 109, 82)" opacity="1.0125337" stroke="rgb(0, 0, 0)" stroke-opacity="1.0" stroke-linecap="round" stroke-linejoin="round"/>
    <path d="M 383.3586120605469 500.64239501953125 C 378.8340759277344 503.3640441894531 382.5364685058594 506.6233215332031 382.85797119140625 518.8231201171875 C 398.7265930175781 518.7720336914062 415.6863098144531 520.8060913085938 429.93865966796875 518.9945678710938 C 426.9864501953125 501.8983459472656 413.8598937988281 503.643310546875 407.7857360839844 499.152099609375 C 392.840576171875 497.10382080078125 385.83392333984375 498.2699890136719 383.3586120605469 500.64239501953125" stroke-width="0.0" fill="rgb(206, 161, 129)" opacity="1.0006014" stroke="rgb(0, 0, 0)" stroke-opacity="1.0" stroke-linecap="round" stroke-linejoin="round"/>
    <path d="M 517.32666015625 375.89093017578125 C 503.57080078125 381.5736083984375 499.2528991699219 385.1097717285156 496.7943420410156 394.3830261230469 C 497.4175109863281 397.2286376953125 497.2879333496094 409.3606262207031 499.48724365234375 414.3302307128906 C 502.9898986816406 414.75860595703125 508.03228759765625 413.4830322265625 518.0520629882812 414.02288818359375 C 518.4219360351562 400.29180908203125 519.9002075195312 387.5691223144531 517.32666015625 375.89093017578125" stroke-width="0.0" fill="rgb(57, 59, 40)" opacity="1.00084" stroke="rgb(0, 0, 0)" stroke-opacity="1.0" stroke-linecap="round" stroke-linejoin="round"/>
    <path d="M 58.33952331542969 323.3717041015625 C 59.943359375 332.091064453125 63.12097930908203 327.1693115234375 69.54008483886719 332.2663269042969 C 80.81915283203125 330.6148681640625 87.19438171386719 335.9107360839844 89.85283660888672 329.701416015625 C 89.30205535888672 323.95135498046875 77.97000885009766 324.1311340332031 70.63288116455078 318.9834899902344 C 62.31156539916992 318.7381896972656 56.634681701660156 318.6617126464844 58.33952331542969 323.3717041015625" stroke-width="0.0" fill="rgb(178, 162, 143)" opacity="0.96893406" stroke="rgb(0, 0, 0)" stroke-opacity="1.0" stroke-linecap="round" stroke-linejoin="round"/>
    <path d="M 206.27552795410156 416.93084716796875 C 203.2687225341797 406.59027099609375 195.75994873046875 408.1441650390625 190.33226013183594 405.6875305175781 C 193.89341735839844 399.0208740234375 195.06285095214844 408.20733642578125 196.40744018554688 401.6929626464844 C 197.99642944335938 395.0928039550781 188.9394073486328 398.45086669921875 189.2791748046875 392.12872314453125 C 186.85816955566406 403.21002197265625 186.27162170410156 406.79864501953125 173.2900390625 404.761474609375 C 171.3094024658203 403.691650390625 165.0047607421875 404.19171142578125 161.49063110351562 398.13250732421875 C 166.40455627441406 389.4610900878906 178.54837036132812 384.3966064453125 185.60040283203125 373.0492858886719 C 170.5537567138672 363.6256103515625 161.46006774902344 349.83526611328125 141.9655303955078 342.99432373046875 C 112.6250991821289 348.3152770996094 84.07483673095703 345.20599365234375 53.7099723815918 351.22857666015625 C 71.21141815185547 353.9671936035156 82.0973892211914 361.8764343261719 88.816650390625 369.6558837890625 C 85.8230972290039 372.2048034667969 86.54600524902344 382.1142883300781 77.8818359375 383.4009704589844 C 60.510013580322266 379.8066101074219 42.51382064819336 377.39642333984375 27.139934539794922 374.8742370605469 C 9.10103988647461 375.45123291015625 12.896585464477539 387.2236328125 -5.0744123458862305 379.3699645996094 C -6.707295894622803 391.6666564941406 -6.706634521484375 400.3333435058594 -6.430286884307861 412.57366943359375 C 11.82164478302002 406.96142578125 18.056503295898438 399.76751708984375 25.8941593170166 401.61663818359375 C 44.62487030029297 402.58807373046875 57.640037536621094 407.3015441894531 66.6063003540039 417.3963317871094 C 72.86543273925781 398.91094970703125 91.82805633544922 391.93115234375 103.24837493896484 377.1297912597656 C 120.03858947753906 384.2084045410156 117.2092056274414 390.7968444824219 133.64730834960938 389.6568298339844 C 155.0661163330078 399.984375 156.3790283203125 413.966552734375 165.89524841308594 423.2442321777344 C 178.2712860107422 424.84906005859375 189.0414276123047 423.1296691894531 202.58045959472656 427.0235595703125 C 200.8568572998047 427.75341796875 202.22120666503906 421.4630432128906 206.27552795410156 416.93084716796875" stroke-width="0.0" fill="rgb(221, 195, 167)" opacity="0.98230326" stroke="rgb(0, 0, 0)" stroke-opacity="1.0" stroke-linecap="round" stroke-linejoin="round"/>
    <path d="M 166.6256866455078 463.03704833984375 C 163.4611053466797 475.3718566894531 171.7664794921875 486.09539794921875 165.01197814941406 518.5293579101562 C 203.33079528808594 518.5785522460938 238.6750030517578 518.6022338867188 276.021728515625 518.8400268554688 C 274.7460021972656 511.6666259765625 275.30963134765625 501.4712829589844 275.2847900390625 501.73040771484375 C 279.6754455566406 501.9278564453125 285.8148498535156 500.5246887207031 287.4158630371094 494.43133544921875 C 283.4056701660156 488.2802734375 279.3861389160156 479.5124816894531 278.1369934082031 477.1144714355469 C 257.0989685058594 472.6923522949219 250.46717834472656 460.56500244140625 238.68943786621094 448.4644775390625 C 229.61114501953125 451.1932678222656 225.9446563720703 454.23553466796875 216.63482666015625 454.5333557128906 C 194.931884765625 454.4629211425781 192.22164916992188 451.5807189941406 181.78977966308594 448.5959777832031 C 171.49847412109375 450.1289367675781 167.8548126220703 454.737548828125 166.6256866455078 463.03704833984375" stroke-width="0.0" fill="rgb(143, 134, 114)" opacity="0.9931671" stroke="rgb(0, 0, 0)" stroke-opacity="1.0" stroke-linecap="round" stroke-linejoin="round"/>
    <path d="M -2.8781278133392334 328.72003173828125 C -4.706502437591553 339.6875 -4.345374584197998 354.4517517089844 -1.8590075969696045 369.3653564453125 C 19.6672420501709 376.7632141113281 45.647789001464844 375.5756530761719 73.35682678222656 383.0777587890625 C 77.2214584350586 383.60418701171875 83.0233383178711 378.5167541503906 90.29386138916016 374.78790283203125 C 85.83915710449219 365.1640930175781 77.26773071289062 361.9115295410156 70.25676727294922 357.23382568359375 C 57.562313079833984 352.0402526855469 64.8282470703125 353.9853515625 48.84967803955078 354.9855651855469 C 54.7059440612793 338.943603515625 54.68313980102539 339.0160827636719 46.217491149902344 334.5646057128906 C 37.267982482910156 327.806884765625 29.537412643432617 338.3025817871094 23.209569931030273 324.70440673828125 C 7.2585835456848145 327.14788818359375 6.533928871154785 319.0682678222656 -2.8781278133392334 328.72003173828125" stroke-width="0.0" fill="rgb(156, 146, 124)" opacity="1.0062585" stroke="rgb(0, 0, 0)" stroke-opacity="1.0" stroke-linecap="round" stroke-linejoin="round"/>
    <path d="M 164.1005096435547 340.81951904296875 C 182.00015258789062 367.0472106933594 199.300537109375 384.1409912109375 204.18040466308594 414.93658447265625 C 217.20870971679688 413.1042175292969 220.78346252441406 407.9041442871094 222.38999938964844 399.2516174316406 C 211.00315856933594 389.63140869140625 212.93838500976562 369.7849426269531 199.9495086669922 358.1236572265625 C 199.97494506835938 350.4243469238281 181.26148986816406 354.2028503417969 164.1005096435547 340.81951904296875" stroke-width="0.0" fill="rgb(80, 65, 52)" opacity="0.93020296" stroke="rgb(0, 0, 0)" stroke-opacity="1.0" stroke-linecap="round" stroke-linejoin="round"/>
    <path d="M 28.615835189819336 271.46649169921875 C 18.0617618560791 266.3850402832031 10.392107963562012 272.00146484375 -1.5931376218795776 277.98480224609375 C -5.2538275718688965 289.3988952636719 -5.974185466766357 303.7248840332031 -6.0558295249938965 317.811767578125 C 12.663771629333496 314.24481201171875 24.18805694580078 312.701416015625 30.045482635498047 305.4872131347656 C 37.741668701171875 286.6277770996094 38.45526123046875 276.3686218261719 28.615835189819336 271.46649169921875" stroke-width="0.0" fill="rgb(137, 132, 90)" opacity="0.99390996" stroke="rgb(0, 0, 0)" stroke-opacity="1.0" stroke-linecap="round" stroke-linejoin="round"/>
    <path d="M -0.7440814971923828 234.16819763183594 C -5.949899196624756 247.9686279296875 -4.279891014099121 261.8529968261719 -1.5312281847000122 279.0440368652344 C 8.498570442199707 267.99609375 13.79525089263916 271.69903564453125 30.27638816833496 271.2735290527344 C 29.086151123046875 262.8646545410156 35.75666427612305 254.3450469970703 37.67928695678711 253.67063903808594 C 28.416574478149414 236.8243408203125 10.678041458129883 248.0240936279297 -0.7440814971923828 234.16819763183594" stroke-width="0.0" fill="rgb(136, 135, 93)" opacity="1.003843" stroke="rgb(0, 0, 0)" stroke-opacity="1.0" stroke-linecap="round" stroke-linejoin="round"/>
    <path d="M 515.540283203125 476.99432373046875 C 502.9104309082031 470.4590759277344 494.45794677734375 467.6286315917969 478.8159484863281 471.6663513183594 C 487.36016845703125 471.4886169433594 488.82958984375 471.08111572265625 487.3678894042969 481.74224853515625 C 483.26300048828125 476.0018310546875 479.3223571777344 483.65966796875 473.1846618652344 484.7215881347656 C 469.7129211425781 498.9102783203125 480.4430236816406 491.9668884277344 480.6912841796875 506.5433654785156 C 487.6255798339844 498.80462646484375 498.1903381347656 496.5015563964844 504.6849365234375 489.68304443359375 C 509.0062255859375 486.66680908203125 512.244384765625 481.3070068359375 515.540283203125 476.99432373046875" stroke-width="0.0" fill="rgb(217, 170, 133)" opacity="1.0161859" stroke="rgb(0, 0, 0)" stroke-opacity="1.0" stroke-linecap="round" stroke-linejoin="round"/>
    <path d="M 354.96356201171875 308.9847106933594 C 349.5845642089844 306.75067138671875 349.7563781738281 300.7948913574219 346.9521179199219 301.5058898925781 C 329.9141540527344 311.1610412597656 306.4429931640625 310.9859313964844 283.9844970703125 324.36370849609375 C 304.07049560546875 323.5810546875 320.6332092285156 327.11358642578125 330.1252746582031 323.8147277832031 C 343.7962951660156 322.21624755859375 349.01788330078125 318.3197326660156 354.96356201171875 308.9847106933594" stroke-width="0.0" fill="rgb(107, 88, 74)" opacity="1.026282" stroke="rgb(0, 0, 0)" stroke-opacity="1.0" stroke-linecap="round" stroke-linejoin="round"/>
    <path d="M 158.31210327148438 428.3162841796875 C 153.7924346923828 434.8717041015625 160.45542907714844 441.96759033203125 163.925537109375 451.0312194824219 C 173.19964599609375 441.8854675292969 176.20030212402344 448.3879699707031 189.5749053955078 448.5472412109375 C 192.0703887939453 442.72454833984375 195.64553833007812 438.773681640625 197.46766662597656 430.2703552246094 C 190.05691528320312 427.8003234863281 185.66311645507812 424.60675048828125 188.56735229492188 425.5741882324219 C 170.0748748779297 422.6866455078125 159.3829345703125 422.3917236328125 158.31210327148438 428.3162841796875" stroke-width="0.0" fill="rgb(80, 71, 59)" opacity="0.94170403" stroke="rgb(0, 0, 0)" stroke-opacity="1.0" stroke-linecap="round" stroke-linejoin="round"/>
    <path d="M 58.090023040771484 258.0563659667969 C 55.16682434082031 254.0455322265625 49.2440071105957 255.75367736816406 44.91704177856445 253.02549743652344 C 41.63459396362305 258.28045654296875 39.173526763916016 263.8565368652344 36.3538932800293 261.3549499511719 C 29.062164306640625 278.76397705078125 33.75277328491211 271.3860778808594 36.48728942871094 288.6974792480469 C 45.23096466064453 287.7124938964844 50.42796325683594 283.55877685546875 58.912750244140625 283.5158386230469 C 57.752296447753906 270.9072570800781 60.36540603637695 260.10040283203125 58.090023040771484 258.0563659667969" stroke-width="0.0" fill="rgb(123, 118, 88)" opacity="0.98730195" stroke="rgb(0, 0, 0)" stroke-opacity="1.0" stroke-linecap="round" stroke-linejoin="round"/>
    <path d="M 189.43173217773438 378.5203552246094 C 190.19143676757812 376.27203369140625 185.58163452148438 375.0465087890625 179.93846130371094 375.6846008300781 C 177.4710693359375 388.56500244140625 163.35438537597656 387.66693115234375 161.95571899414062 398.50732421875 C 164.96478271484375 404.35919189453125 172.75393676757812 404.7184753417969 183.1970977783203 406.3752136230469 C 183.08041381835938 401.8030090332031 187.18846130371094 400.1968994140625 195.17591857910156 394.00469970703125 C 194.35585021972656 387.1249084472656 190.7625274658203 383.605712890625 189.43173217773438 378.5203552246094" stroke-width="0.0" fill="rgb(161, 146, 120)" opacity="0.9953375" stroke="rgb(0, 0, 0)" stroke-opacity="1.0" stroke-linecap="round" stroke-linejoin="round"/>
    <path d="M 54.5058708190918 437.0061340332031 C 53.89037322998047 444.4387512207031 62.014251708984375 442.80047607421875 70.26231384277344 445.617431640625 C 81.20823669433594 443.2725524902344 94.99749755859375 447.3752746582031 93.22280883789062 442.2096862792969 C 94.39830780029297 431.6566162109375 82.94361114501953 438.8099060058594 77.98780059814453 431.7473449707031 C 66.08872985839844 431.903564453125 55.58782196044922 431.8309020996094 54.5058708190918 437.0061340332031" stroke-width="0.0" fill="rgb(182, 144, 117)" opacity="1.104656" stroke="rgb(0, 0, 0)" stroke-opacity="1.0" stroke-linecap="round" stroke-linejoin="round"/>
    <path d="M 152.7174835205078 355.8543395996094 C 154.8097381591797 357.4868469238281 153.77777099609375 361.7169189453125 156.3872528076172 365.0124816894531 C 164.4517822265625 365.20281982421875 170.22496032714844 370.3323974609375 182.92425537109375 365.3769226074219 C 175.89996337890625 356.357666015625 174.06069946289062 351.1995849609375 171.71290588378906 348.33404541015625 C 159.76527404785156 354.387451171875 155.30369567871094 352.4418640136719 152.7174835205078 355.8543395996094" stroke-width="0.0" fill="rgb(75, 57, 48)" opacity="1.0431837" stroke="rgb(0, 0, 0)" stroke-opacity="1.0" stroke-linecap="round" stroke-linejoin="round"/>
    <path d="M -4.5525431632995605 414.117919921875 C 10.500015258789062 409.2020263671875 17.729520797729492 403.21539306640625 24.239696502685547 402.8917236328125 C 38.928409576416016 402.6094970703125 49.324649810791016 408.4604797363281 66.1518783569336 413.73919677734375 C 72.48723602294922 406.5040283203125 79.18048858642578 397.5982360839844 87.37037658691406 389.233154296875 C 73.96832275390625 385.764892578125 65.3789291381836 380.7190246582031 50.60429382324219 379.7991027832031 C 30.582603454589844 375.86895751953125 19.449296951293945 383.6676025390625 -6.081520080566406 383.2467956542969 C -5.7300896644592285 391.5444641113281 -6.053353309631348 403.2386779785156 -4.5525431632995605 414.117919921875" stroke-width="0.0" fill="rgb(227, 201, 175)" opacity="0.9815333" stroke="rgb(0, 0, 0)" stroke-opacity="1.0" stroke-linecap="round" stroke-linejoin="round"/>
    <path d="M -3.386345624923706 414.6864318847656 C -4.625654220581055 417.3958740234375 -2.160537004470825 422.4693908691406 -2.173957109451294 428.4248046875 C 16.04901123046875 429.1429138183594 21.225706100463867 438.2104797363281 35.62208557128906 439.134521484375 C 43.33221435546875 441.8757019042969 49.22187042236328 439.52215576171875 53.747127532958984 439.0203552246094 C 59.42489242553711 433.5963439941406 60.08855056762695 432.7591247558594 61.88590621948242 424.6179504394531 C 63.33851623535156 419.5174560546875 58.82158660888672 411.9106140136719 56.96830368041992 411.8045654296875 C 45.71833419799805 407.11474609375 38.3487434387207 401.2710266113281 24.547433853149414 402.9508056640625 C 11.842751502990723 402.4499816894531 10.56024169921875 412.1009216308594 -3.386345624923706 414.6864318847656" stroke-width="0.0" fill="rgb(140, 132, 113)" opacity="0.9621394" stroke="rgb(0, 0, 0)" stroke-opacity="1.0" stroke-linecap="round" stroke-linejoin="round"/>
    <path d="M -6.432839870452881 500.0757141113281 C -4.031506538391113 502.1316833496094 -2.827315330505371 506.72247314453125 -1.4342485666275024 518.3508911132812 C 49.409027099609375 518.4552001953125 98.59749603271484 519.178466796875 155.26217651367188 518.7107543945312 C 142.63145446777344 507.9775390625 134.83840942382812 504.30096435546875 133.90219116210938 504.0936279296875 C 88.08966064453125 504.1979675292969 49.018653869628906 496.4848327636719 -6.432839870452881 500.0757141113281" stroke-width="0.0" fill="rgb(238, 197, 161)" opacity="1.0000048" stroke="rgb(0, 0, 0)" stroke-opacity="1.0" stroke-linecap="round" stroke-linejoin="round"/>
    <path d="M 417.7354736328125 469.4136047363281 C 413.9833984375 482.0105895996094 427.2154846191406 491.49029541015625 427.56640625 500.0597229003906 C 439.2161865234375 505.0194091796875 445.34515380859375 505.3228454589844 443.890380859375 517.1537475585938 C 449.6266784667969 521.0728149414062 465.2862243652344 521.338134765625 471.61944580078125 514.4769287109375 C 468.0960388183594 493.31317138671875 454.3481750488281 487.3791198730469 443.6031799316406 475.53424072265625 C 437.18670654296875 471.3177490234375 427.2140808105469 466.9615173339844 417.7354736328125 469.4136047363281" stroke-width="0.0" fill="rgb(155, 135, 121)" opacity="0.99369866" stroke="rgb(0, 0, 0)" stroke-opacity="1.0" stroke-linecap="round" stroke-linejoin="round"/>
    <path d="M 230.92514038085938 406.940185546875 C 230.119140625 402.878173828125 222.21165466308594 400.7184753417969 222.55076599121094 404.1719055175781 C 213.59071350097656 412.8112487792969 205.53692626953125 416.0782165527344 200.84866333007812 430.498779296875 C 208.12290954589844 426.0986022949219 209.7870635986328 433.95196533203125 220.32142639160156 433.7919921875 C 224.9723358154297 429.8614196777344 228.74838256835938 428.1477966308594 231.20799255371094 429.8973388671875 C 229.22047424316406 420.6773986816406 234.90219116210938 414.5428161621094 230.92514038085938 406.940185546875" stroke-width="0.0" fill="rgb(76, 64, 54)" opacity="0.99602497" stroke="rgb(0, 0, 0)" stroke-opacity="1.0" stroke-linecap="round" stroke-linejoin="round"/>
    <path d="M -4.2077717781066895 483.268798828125 C -3.6599671840667725 488.0993347167969 -2.7757222652435303 492.9331970214844 -5.367137432098389 500.5083312988281 C 14.659167289733887 496.64727783203125 32.223968505859375 504.1099853515625 35.031551361083984 497.1632995605469 C 31.428794860839844 486.7786560058594 14.033623695373535 487.7392272949219 -4.2077717781066895 483.268798828125" stroke-width="0.0" fill="rgb(167, 126, 96)" opacity="0.9966264" stroke="rgb(0, 0, 0)" stroke-opacity="1.0" stroke-linecap="round" stroke-linejoin="round"/>
    <path d="M 230.04367065429688 424.1139831542969 C 225.71917724609375 430.5480041503906 221.3868408203125 434.75653076171875 214.83425903320312 432.7336730957031 C 221.0646514892578 438.90673828125 220.82235717773438 446.47265625 224.82379150390625 447.9721984863281 C 229.20887756347656 452.5646667480469 231.63523864746094 445.8238220214844 236.2608642578125 447.1940002441406 C 239.29042053222656 432.0226745605469 238.74891662597656 430.1329345703125 230.04367065429688 424.1139831542969" stroke-width="0.0" fill="rgb(37, 27, 23)" opacity="0.9990625" stroke="rgb(0, 0, 0)" stroke-opacity="1.0" stroke-linecap="round" stroke-linejoin="round"/>
    <path d="M -7.349578857421875 323.6747741699219 C -8.828845024108887 345.90191650390625 -9.326255798339844 361.784912109375 -6.317113399505615 366.8470153808594 C 8.124942779541016 370.1683654785156 12.565876960754395 373.34356689453125 20.209653854370117 373.34619140625 C 29.74046516418457 365.8443298339844 34.32143020629883 357.5374755859375 46.991455078125 354.8063049316406 C 50.12039566040039 350.2663879394531 48.823402404785156 343.6869201660156 52.57558822631836 342.7488708496094 C 51.06446075439453 337.68707275390625 46.82899856567383 335.0724182128906 45.000057220458984 333.9644775390625 C 41.12419509887695 331.272216796875 39.60610580444336 331.7339172363281 33.002647399902344 331.9312744140625 C 25.360107421875 330.82586669921875 27.084165573120117 322.6924743652344 21.114334106445312 320.2373962402344 C 13.13863754272461 328.623291015625 11.1364164352417 319.2390441894531 -7.349578857421875 323.6747741699219" stroke-width="0.0" fill="rgb(138, 129, 114)" opacity="1.0201284" stroke="rgb(0, 0, 0)" stroke-opacity="1.0" stroke-linecap="round" stroke-linejoin="round"/>
    <path d="M 109.58377838134766 399.4493408203125 C 106.94722747802734 406.94140625 108.5027847290039 418.8935852050781 107.47029113769531 430.2699890136719 C 120.65740203857422 435.2724609375 126.95648193359375 428.31121826171875 131.74172973632812 437.4855651855469 C 141.85940551757812 435.0668029785156 150.73028564453125 435.2398986816406 154.3284454345703 433.4121398925781 C 158.14971923828125 426.52117919921875 160.61322021484375 423.98870849609375 158.83753967285156 415.0099182128906 C 150.42807006835938 404.0228576660156 144.48684692382812 397.9650573730469 134.6444854736328 391.0406188964844 C 123.07649993896484 390.8304748535156 114.94105529785156 391.05426025390625 109.58377838134766 399.4493408203125" stroke-width="0.0" fill="rgb(129, 119, 102)" opacity="0.8615661" stroke="rgb(0, 0, 0)" stroke-opacity="1.0" stroke-linecap="round" stroke-linejoin="round"/>
    <path d="M 27.15935516357422 377.4342346191406 C 37.47966384887695 384.9449462890625 58.182857513427734 373.0398864746094 66.87232971191406 382.7060546875 C 77.28874206542969 384.5684814453125 84.8083724975586 379.5769958496094 91.25707244873047 374.8884582519531 C 84.21615600585938 362.8157958984375 73.67139434814453 357.2571716308594 60.72357940673828 352.7353820800781 C 50.805152893066406 354.27227783203125 43.09022903442383 358.1282653808594 33.54783248901367 362.01507568359375 C 32.321407318115234 367.7839660644531 20.150001525878906 368.52423095703125 27.15935516357422 377.4342346191406" stroke-width="0.0" fill="rgb(161, 149, 124)" opacity="1.0341117" stroke="rgb(0, 0, 0)" stroke-opacity="1.0" stroke-linecap="round" stroke-linejoin="round"/>
    <path d="M 105.91268920898438 380.7553405761719 C 94.04911804199219 385.29119873046875 85.72091674804688 398.3405456542969 71.21461486816406 406.5986633300781 C 72.00782775878906 415.41217041015625 73.4333267211914 419.54296875 76.8155746459961 423.9318542480469 C 86.85997772216797 425.07513427734375 96.7149429321289 429.6763916015625 102.8804702758789 425.5619812011719 C 108.6044692993164 412.5002136230469 105.48372650146484 397.0096740722656 117.58582305908203 393.5434265136719 C 117.53045654296875 387.352783203125 115.47634887695312 382.1781311035156 105.91268920898438 380.7553405761719" stroke-width="0.0" fill="rgb(129, 116, 101)" opacity="0.8625621" stroke="rgb(0, 0, 0)" stroke-opacity="1.0" stroke-linecap="round" stroke-linejoin="round"/>
    <path d="M 117.75772094726562 348.2190856933594 C 117.96195983886719 350.4524230957031 121.65583038330078 356.28033447265625 122.20093536376953 355.60333251953125 C 142.00064086914062 358.1132507324219 154.37046813964844 368.5902099609375 178.01039123535156 366.4405822753906 C 169.98190307617188 352.3730163574219 158.2460479736328 350.57623291015625 147.4710693359375 344.1011962890625 C 131.61170959472656 344.4456481933594 124.3500747680664 338.857177734375 117.75772094726562 348.2190856933594" stroke-width="0.0" fill="rgb(94, 70, 49)" opacity="0.8390793" stroke="rgb(0, 0, 0)" stroke-opacity="1.0" stroke-linecap="round" stroke-linejoin="round"/>
    <path d="M 280.511474609375 479.7225341796875 C 295.7817687988281 479.67578125 289.12908935546875 492.98590087890625 303.4640808105469 489.90386962890625 C 315.1758117675781 492.2576904296875 317.2531433105469 480.67706298828125 326.51409912109375 477.1500244140625 C 317.35589599609375 469.3587951660156 301.6236877441406 474.42755126953125 292.2791748046875 470.2059020996094 C 287.5143127441406 474.5849914550781 281.1878967285156 474.23846435546875 280.511474609375 479.7225341796875" stroke-width="0.0" fill="rgb(211, 187, 164)" opacity="0.9854714" stroke="rgb(0, 0, 0)" stroke-opacity="1.0" stroke-linecap="round" stroke-linejoin="round"/>
    <path d="M 483.0240478515625 467.4845275878906 C 476.0117492675781 471.14825439453125 479.74993896484375 476.2351379394531 478.640380859375 480.3976745605469 C 489.0481872558594 483.9879150390625 494.1867370605469 479.6878967285156 501.9977111816406 482.3069152832031 C 506.6791687011719 480.1650390625 506.2079772949219 477.6555480957031 505.1092529296875 471.807861328125 C 501.88995361328125 469.2875061035156 490.8232116699219 469.9819030761719 483.0240478515625 467.4845275878906" stroke-width="0.0" fill="rgb(119, 88, 66)" opacity="0.96706444" stroke="rgb(0, 0, 0)" stroke-opacity="1.0" stroke-linecap="round" stroke-linejoin="round"/>
    <path d="M 117.60372161865234 348.67669677734375 C 118.4206314086914 356.7142639160156 126.86226654052734 355.0307922363281 140.49252319335938 358.3177490234375 C 142.7377471923828 360.3818359375 144.67886352539062 350.9305725097656 156.3621063232422 352.8759765625 C 151.449462890625 342.54901123046875 143.76773071289062 345.0804748535156 133.48748779296875 343.08685302734375 C 128.67349243164062 342.0103759765625 120.84526824951172 342.63507080078125 117.60372161865234 348.67669677734375" stroke-width="0.0" fill="rgb(209, 176, 147)" opacity="1.0085741" stroke="rgb(0, 0, 0)" stroke-opacity="1.0" stroke-linecap="round" stroke-linejoin="round"/>
  </g>
</svg>
